<?xml version="1.0" encoding="utf-8"?>
<svg xmlns="http://www.w3.org/2000/svg" viewBox="113.9892 135.8837 254.8771 195.2911" width="254.877px" height="195.291px" preserveAspectRatio="none"><g id="object-3"><g id="object-2" transform="matrix(0.238206, 0, 0, 0.238206, 235.6315, 189.032257)" style=""><path d="M 38.999 194.823 C 40.955 197.405 42.761 199.987 44.436 202.76 C 51.508 214.08 61.581 219.514 72.999 225.823 C 73.883 226.315 74.767 226.808 75.678 227.315 C 77.404 228.267 79.137 229.208 80.874 230.139 C 83.284 231.438 85.674 232.761 88.061 234.1 C 118.053 250.683 153.048 260.535 186.999 264.823 C 187.246 263.895 187.494 262.967 187.749 262.01 C 188.999 258.823 188.999 258.823 190.561 256.885 C 194.343 255.237 198.098 255.566 201.999 256.823 C 204.113 258.365 204.113 258.365 205.999 260.823 C 206.348 263.643 206.467 266.06 206.389 268.87 C 206.384 269.641 206.378 270.412 206.372 271.207 C 206.35 273.663 206.3 276.117 206.249 278.573 C 206.229 280.241 206.21 281.909 206.194 283.577 C 206.15 287.659 206.081 291.741 205.999 295.823 C 206.578 295.877 207.157 295.931 207.754 295.987 C 212.33 296.448 216.631 297.096 221.061 298.385 C 222.001 298.655 222.941 298.924 223.909 299.202 C 224.598 299.407 225.288 299.612 225.999 299.823 C 226.102 298.895 226.205 297.967 226.311 297.01 C 229.268 277.56 240.01 262.164 255.499 250.385 C 266.897 242.634 279.127 237.628 292.999 236.823 C 294.063 236.758 295.128 236.694 296.225 236.627 C 317.325 235.961 335.518 243.462 350.999 257.823 C 361.752 268.088 369.21 281.217 371.999 295.823 C 371.999 297.143 371.999 298.463 371.999 299.823 C 372.856 299.546 373.713 299.268 374.596 298.983 C 375.74 298.621 376.883 298.258 378.061 297.885 C 379.186 297.526 380.312 297.166 381.471 296.795 C 384.983 295.827 388.393 295.306 391.999 294.823 C 391.951 293.317 391.951 293.317 391.903 291.781 C 391.795 288.045 391.726 284.309 391.669 280.571 C 391.639 278.956 391.598 277.341 391.546 275.726 C 391.473 273.4 391.439 271.076 391.413 268.749 C 391.382 268.031 391.351 267.313 391.319 266.573 C 391.317 263.739 391.457 261.498 393.269 259.24 C 395.782 257.047 397.709 255.877 400.999 255.26 C 404.856 255.984 407.03 257.268 409.999 259.823 C 410.667 262.467 410.667 262.467 410.999 264.823 C 422.575 262.753 434.06 260.433 445.499 257.698 C 447.1 257.318 447.1 257.318 448.733 256.93 C 450.241 256.564 450.241 256.564 451.78 256.19 C 452.667 255.975 453.555 255.759 454.469 255.537 C 457.07 254.803 459.495 253.834 461.999 252.823 C 463.933 252.348 465.867 251.874 467.804 251.408 C 471.773 250.35 475.592 248.887 479.436 247.448 C 480.231 247.156 481.026 246.865 481.844 246.565 C 486.607 244.798 491.264 242.87 495.89 240.772 C 497.803 239.911 499.738 239.098 501.674 238.292 C 504.997 236.824 508.054 235.159 511.186 233.323 C 515.406 230.857 519.648 228.46 523.967 226.17 C 538.573 218.406 551.834 211.071 557.999 194.823 C 558.329 194.823 558.659 194.823 558.999 194.823 C 559.068 203.664 559.122 212.505 559.154 221.346 C 559.17 225.452 559.191 229.558 559.225 233.664 C 559.258 237.632 559.276 241.6 559.283 245.568 C 559.289 247.076 559.3 248.585 559.316 250.093 C 559.427 260.846 558.661 269.372 552.624 278.51 C 552.059 279.38 551.494 280.251 550.913 281.147 C 536.955 300.659 513.749 311.349 491.999 319.823 C 491.12 320.166 490.242 320.508 489.337 320.861 C 477.298 325.473 465.054 329.01 452.561 332.135 C 451.903 332.3 451.245 332.466 450.567 332.636 C 437.573 335.871 424.384 338.89 410.999 339.823 C 411.045 340.547 411.091 341.272 411.139 342.018 C 411.375 348.341 411.282 352.035 406.999 356.823 C 403.841 358.402 400.392 358.642 396.999 357.823 C 394.381 355.83 392.318 354.222 391.56 350.903 C 391.421 348.594 391.436 346.334 391.51 344.022 C 391.517 343.186 391.524 342.349 391.532 341.488 C 391.56 338.828 391.622 336.17 391.686 333.51 C 391.711 331.702 391.734 329.894 391.754 328.086 C 391.805 323.664 391.903 319.246 391.999 314.823 C 386.059 316.143 380.119 317.463 373.999 318.823 C 372.987 322.365 371.979 325.913 371.186 329.51 C 366.269 349.217 353.438 366.073 336.124 376.51 C 319.471 385.829 301.035 388.254 282.182 385.206 C 278.972 384.298 276.047 383.178 272.999 381.823 C 272.374 381.56 271.75 381.297 271.107 381.025 C 251.993 372.871 237.673 358.199 229.776 338.823 C 227.17 331.799 225.874 326.298 225.999 318.823 C 225.112 318.72 224.225 318.617 223.311 318.51 C 219.563 317.984 215.913 317.141 212.229 316.28 C 211.061 316.008 209.894 315.735 208.691 315.455 C 207.802 315.246 206.914 315.038 205.999 314.823 C 206.025 315.948 206.051 317.073 206.078 318.232 C 206.169 322.415 206.226 326.599 206.273 330.783 C 206.298 332.593 206.332 334.402 206.376 336.21 C 206.437 338.814 206.465 341.417 206.487 344.022 C 206.513 344.827 206.539 345.633 206.565 346.463 C 206.567 350.718 206.363 352.347 203.687 355.842 C 200.171 358.432 198.28 358.434 193.999 357.823 C 190.184 356.128 188.494 354.686 186.999 350.823 C 186.803 348.026 186.803 348.026 186.874 345.073 C 186.892 344.088 186.91 343.103 186.928 342.088 C 186.952 341.341 186.975 340.593 186.999 339.823 C 186.39 339.785 185.782 339.748 185.155 339.71 C 173.071 338.803 161.586 336.491 150.088 332.725 C 146.992 331.821 144.002 331.282 140.811 330.823 C 135.996 330.11 131.998 328.753 127.549 326.823 C 124.788 325.74 122.076 325.052 119.186 324.385 C 112.521 322.798 106.323 320.438 99.999 317.823 C 99.062 317.444 99.062 317.444 98.107 317.057 C 84.299 311.443 71.42 304.507 59.999 294.823 C 59.19 294.182 58.382 293.541 57.549 292.881 C 52.512 288.693 48.584 284.265 44.999 278.823 C 44.625 278.266 44.251 277.709 43.866 277.135 C 38.105 267.919 38.727 257.539 38.803 247.069 C 38.807 245.557 38.81 244.045 38.812 242.534 C 38.819 238.583 38.839 234.633 38.861 230.683 C 38.882 226.64 38.891 222.598 38.901 218.555 C 38.922 210.644 38.956 202.734 38.999 194.823 Z" style="stroke-width: 1;" id="object-0"/><path d="M 347.865 120.135 C 348.933 120.193 348.933 120.193 350.022 120.253 C 358.047 120.715 365.93 121.603 373.876 122.805 C 378.486 123.453 383.098 123.756 387.74 124.072 C 396.859 124.782 405.8 126.081 414.802 127.697 C 415.947 127.903 417.092 128.108 418.271 128.32 C 424.65 129.506 430.927 130.918 437.21 132.534 C 440.966 133.472 444.745 134.261 448.535 135.047 C 458.963 137.213 469.03 139.853 479.115 143.26 C 480.178 143.599 481.242 143.938 482.337 144.287 C 500.605 150.156 519.84 158.168 534.775 170.385 C 537.038 172.346 537.038 172.346 539.717 173.493 C 542.115 175.26 542.115 175.26 542.777 178.044 C 542.817 181.68 542.844 185.311 542.802 188.947 C 542.83 190.202 542.858 191.457 542.886 192.75 C 542.868 199.718 542.459 204.484 537.691 209.763 C 530.034 217.035 520.511 221.255 510.932 225.454 C 509.449 226.111 507.99 226.824 506.54 227.553 C 500.085 229.434 493.96 226.143 488.115 223.635 C 471.639 216.82 454.534 211.984 437.115 208.26 C 436.018 208.019 434.921 207.778 433.79 207.529 C 429.909 206.713 426.016 205.976 422.115 205.26 C 421.141 205.078 420.167 204.896 419.163 204.709 C 403.365 201.799 387.594 199.62 371.615 198.01 C 370.793 197.927 369.972 197.844 369.126 197.759 C 366.737 197.521 364.348 197.287 361.958 197.057 C 361.273 196.99 360.587 196.924 359.881 196.855 C 357.626 196.644 355.371 196.45 353.115 196.26 C 352.111 196.173 351.107 196.086 350.073 195.996 C 340.482 195.23 330.937 195.065 321.322 195.022 C 320.073 195.014 320.073 195.014 318.8 195.007 C 312.509 194.971 306.218 194.955 299.927 194.947 C 299.006 194.946 298.084 194.944 297.135 194.943 C 269.263 194.908 241.762 195.377 214.115 199.26 C 212.81 199.436 211.505 199.612 210.161 199.793 C 203.63 200.689 197.127 201.688 190.634 202.825 C 188.402 203.21 186.17 203.562 183.931 203.897 C 157.082 208.141 128.642 214.949 103.961 226.443 C 99.548 228.396 97.017 228.568 92.431 227.002 C 88.219 225.357 84.156 223.472 80.115 221.447 C 79.067 220.923 79.067 220.923 77.998 220.388 C 72.95 217.805 68.451 214.928 64.115 211.26 C 63.145 210.538 62.176 209.816 61.177 209.072 C 57.709 206.025 57.881 202.582 57.595 198.193 C 56.565 177.375 56.565 177.375 60.404 172.397 C 63.52 169.808 66.469 168.015 70.115 166.26 C 71.081 165.694 72.048 165.128 73.044 164.545 C 75.692 163.011 78.381 161.633 81.115 160.26 C 82.618 159.412 84.119 158.558 85.615 157.697 C 94.223 152.937 103.086 149.464 112.439 146.471 C 114.923 145.652 117.386 144.769 119.826 143.826 C 125.132 141.813 130.586 140.334 136.052 138.822 C 137.161 138.515 138.27 138.208 139.412 137.892 C 152.579 134.275 165.539 131.149 179.079 129.298 C 182.961 128.764 186.766 128.148 190.583 127.26 C 198.694 125.394 206.994 124.648 215.252 123.711 C 217.896 123.402 220.534 123.08 223.172 122.734 C 264.293 117.378 306.5 117.867 347.865 120.135 Z" style="stroke-width: 1;" id="object-1"/></g><g><g id="Group_3276" data-name="Group 3276" transform="matrix(1, 0, 0, 1, -368.85141, 60.48193)"><g transform="matrix(0.829654, 0.558278, -0.558278, 0.829654, 17.303131, -4.370554)" style="transform-origin: 554.374px 177.418px;"><g><g><path id="Path_1700" data-name="Path 1700" d="M522.052,198.867c-18.834,18.834-6.444,51.523,20.175,52.423q.633.021,1.27.021t1.27-.021c26.62-.9,39.009-33.589,20.175-52.423l-42.891-42.891c-18.834-18.834-6.444-51.523,20.175-52.423q.633-.021,1.27-.021t1.27.021c26.62.9,39.009,33.589,20.175,52.423Z" fill="none" stroke="#ff368a" stroke-miterlimit="10" stroke-width="5"/></g><g id="Group_3271" data-name="Group 3271"><g><g><g><g id="Group_3270" data-name="Group 3270"><path id="Path_1699" data-name="Path 1699" d="M600.322,205.356a16.486,16.486,0,0,1-16.467-16.467,6.474,6.474,0,0,0-6.467-6.467h-4.119a5,5,0,0,1,0-10h4.119a16.486,16.486,0,0,1,16.467,16.467,6.474,6.474,0,0,0,6.467,6.467,5,5,0,0,1,0,10Z" fill="none" stroke="#ff368a" stroke-miterlimit="10" stroke-width="5"/></g><path id="Path_1701" data-name="Path 1701" d="M543.5,260.829q-.8,0-1.589-.027a39.2,39.2,0,0,1-35.548-25.2,39.928,39.928,0,0,1,8.961-43.469l14.715-14.715-14.715-14.715a39.928,39.928,0,0,1-8.961-43.469,39.2,39.2,0,0,1,35.545-25.2c1.06-.036,2.124-.035,3.18,0a39.2,39.2,0,0,1,35.548,25.2,39.93,39.93,0,0,1-8.961,43.469l-14.715,14.715,14.715,14.715a39.93,39.93,0,0,1,8.961,43.469,39.2,39.2,0,0,1-35.545,25.2C544.559,260.82,544.03,260.829,543.5,260.829Zm0-69.947L528.783,205.6a21.188,21.188,0,0,0-4.714,23.022,20.159,20.159,0,0,0,18.481,13.158c.626.021,1.269.021,1.9,0a20.156,20.156,0,0,0,18.478-13.158,21.188,21.188,0,0,0-4.714-23.022Zm0-77.832c-.318,0-.636,0-.951.016a20.158,20.158,0,0,0-18.479,13.158,21.188,21.188,0,0,0,4.714,23.022L543.5,163.961l14.715-14.715a21.19,21.19,0,0,0,4.714-23.022,20.155,20.155,0,0,0-18.48-13.158C544.134,113.055,543.816,113.05,543.5,113.05Z" fill="none" stroke="#ff368a" stroke-miterlimit="10" stroke-width="5"/></g></g></g></g></g><g id="Group_3275" data-name="Group 3275"><g id="Group_3272" data-name="Group 3272"><path id="Path_1702" data-name="Path 1702" d="M572.48,172.421H514.515a5,5,0,0,1-5-5h0a5,5,0,0,1,5-5H572.48a5,5,0,0,1,5,5h0A5,5,0,0,1,572.48,172.421Z" fill="none" stroke="#ff368a" stroke-miterlimit="10" stroke-width="5"/></g><g id="Group_3273" data-name="Group 3273"><path id="Path_1703" data-name="Path 1703" d="M572.48,182.421H514.515a5,5,0,0,1-5-5h0a5,5,0,0,1,5-5H572.48a5,5,0,0,1,5,5h0A5,5,0,0,1,572.48,182.421Z" fill="none" stroke="#ff368a" stroke-miterlimit="10" stroke-width="5"/></g><g id="Group_3274" data-name="Group 3274"><path id="Path_1704" data-name="Path 1704" d="M572.48,192.421H514.515a5,5,0,0,1-5-5h0a5,5,0,0,1,5-5H572.48a5,5,0,0,1,5,5h0A5,5,0,0,1,572.48,192.421Z" fill="none" stroke="#ff368a" stroke-miterlimit="10" stroke-width="5"/></g></g></g></g></g></g></svg>