<?xml version="1.0" encoding="UTF-8" standalone="no"?>
<svg
   viewBox="113.9892 135.8837 241.9123 157.30797"
   width="241.9122"
   height="157.30789"
   preserveAspectRatio="none"
   version="1.1"
   id="svg7"
   sodipodi:docname="ballgag.svg"
   inkscape:version="1.4.2 (ebf0e940, 2025-05-08)"
   xmlns:inkscape="http://www.inkscape.org/namespaces/inkscape"
   xmlns:sodipodi="http://sodipodi.sourceforge.net/DTD/sodipodi-0.dtd"
   xmlns="http://www.w3.org/2000/svg"
   xmlns:svg="http://www.w3.org/2000/svg">
  <defs
     id="defs7">
    <inkscape:path-effect
       effect="fillet_chamfer"
       id="path-effect8"
       is_visible="true"
       lpeversion="1"
       nodesatellites_param="F,0,0,1,0,0,0,1 @ F,0,0,1,0,0,0,1 @ F,0,0,1,0,0,0,1 @ F,0,0,1,0,0,0,1 @ F,0,0,1,0,0,0,1 @ F,0,0,1,0,0,0,1 @ F,0,0,1,0,0,0,1 @ F,0,0,1,0,0,0,1"
       radius="0"
       unit="px"
       method="auto"
       mode="F"
       chamfer_steps="1"
       flexible="false"
       use_knot_distance="true"
       apply_no_radius="true"
       apply_with_radius="true"
       only_selected="false"
       hide_knots="false" />
    <inkscape:path-effect
       effect="fillet_chamfer"
       id="path-effect7"
       is_visible="true"
       lpeversion="1"
       nodesatellites_param="F,0,0,1,0,0,0,1 @ F,0,0,1,0,0,0,1 @ F,0,0,1,0,0,0,1 @ F,0,0,1,0,0,0,1 @ F,0,0,1,0,0,0,1 @ F,0,0,1,0,0,0,1 @ F,0,0,1,0,0,0,1 @ F,0,0,1,0,0,0,1"
       radius="0"
       unit="px"
       method="auto"
       mode="F"
       chamfer_steps="1"
       flexible="false"
       use_knot_distance="true"
       apply_no_radius="true"
       apply_with_radius="true"
       only_selected="false"
       hide_knots="false" />
  </defs>
  <sodipodi:namedview
     id="namedview7"
     pagecolor="#ffffff"
     bordercolor="#000000"
     borderopacity="0.25"
     inkscape:showpageshadow="2"
     inkscape:pageopacity="0.0"
     inkscape:pagecheckerboard="0"
     inkscape:deskcolor="#d1d1d1"
     inkscape:zoom="4.1464677"
     inkscape:cx="87.664978"
     inkscape:cy="87.062055"
     inkscape:window-width="896"
     inkscape:window-height="245"
     inkscape:window-x="0"
     inkscape:window-y="39"
     inkscape:window-maximized="0"
     inkscape:current-layer="g7" />
  <g
     id="object-3"
     style="fill:#ff368a;fill-opacity:1"
     transform="translate(-7.0467469,-9.9275399)">
    <path
       d="m 312.57681,218.53687 c 0.2544,0.0138 0.2544,0.0138 0.51381,0.0281 1.9116,0.11005 3.78938,0.32157 5.68217,0.6079 1.09813,0.15436 2.19673,0.22653 3.30248,0.3018 2.1722,0.16913 4.302,0.47856 6.44634,0.8635 0.27274,0.0491 0.54549,0.0979 0.82633,0.1484 1.51952,0.28252 3.01474,0.61886 4.51139,1.0038 0.8947,0.22344 1.79488,0.41139 2.69768,0.59862 2.48401,0.51595 4.88203,1.14481 7.28434,1.95638 0.25321,0.0808 0.50666,0.16151 0.7675,0.24464 4.35154,1.39803 8.93344,3.30654 12.49104,6.2167 0.81924,0.60482 1.53561,0.85136 1.90613,1.82442 0.0227,1.96709 -0.008,1.94457 0.026,3.50306 -0.004,1.65982 -0.10171,2.79511 -1.23748,4.0526 -1.82394,1.73223 -4.09238,2.73746 -6.37415,3.73769 -0.35326,0.1565 -0.7008,0.32634 -1.0462,0.49999 -1.53762,0.44807 -2.99663,-0.33587 -4.38895,-0.93329 -5.34776,-2.21201 -10.35084,-3.37459 -16.42478,-4.50829 -3.58961,-0.66121 -6.64031,-1.14552 -14.12133,-1.87086 -0.77841,-0.0723 -1.55749,-0.13702 -2.33632,-0.20463 -1.48259,-0.11841 -2.63858,-0.20428 -7.44942,-0.23601 -1.49855,-0.009 -2.99711,-0.0124 -4.49566,-0.0143 -0.21939,-2.4e-4 -0.43901,-7.2e-4 -0.66507,-9.6e-4 -11.12004,-0.0134 -15.32394,0.42984 -20.71773,1.1553 -4.30242,0.59025 -2.6553,0.44003 -6.24814,0.9776 -6.3956,1.01095 -13.17017,2.63265 -19.04934,5.37059 -1.0512,0.46522 -1.6541,0.50619 -2.74651,0.13316 -1.00332,-0.39185 -1.97116,-0.84087 -2.93375,-1.32324 -2.05522,-1.02761 -2.95349,-1.70095 -3.81129,-2.4266 -0.23106,-0.17199 -0.46188,-0.34397 -0.69985,-0.5212 -0.8261,-0.72581 -0.78513,-1.54595 -0.85326,-2.59144 -0.24535,-4.95897 -0.24535,-4.95897 0.66913,-6.14476 0.89817,-0.78643 1.99023,-1.2728 3.01092,-1.87039 1.5287,-0.88559 0.72613,-0.32571 2.99449,-1.63124 2.05047,-1.13386 4.16169,-1.96115 6.38963,-2.6741 0.59171,-0.19509 1.17841,-0.40543 1.75963,-0.63005 0.96805,-0.36726 8.06775,-2.63404 14.11442,-3.46066 0.92472,-0.1272 1.83109,-0.27394 2.74032,-0.48546 1.93209,-0.4445 3.9092,-0.6222 5.87631,-0.8454 0.62981,-0.0736 1.2582,-0.15031 1.88659,-0.23272 9.79527,-1.27584 29.70258,-0.61865 29.70258,-0.61865 z"
       style="fill:#ff368a;fill-opacity:1;fill-rule:nonzero;stroke-width:0.238206"
       id="object-1"
       sodipodi:nodetypes="cccccccccccccccccccccsccccccccccccccccccc" />
    <g
       id="g7"
       transform="translate(187.51906,-282.26554)"
       style="fill:#ff368a;fill-opacity:1">
      <g
         id="g2"
         style="fill:#ff368a;fill-opacity:1"
         transform="rotate(33.936792,-267.72153,-548.0119)">
        <g
           id="Group_3270"
           data-name="Group 3270"
           style="fill:#ff368a;fill-opacity:1" />
      </g>
      <path
         d="m 51.48402,518.59354 c 0.46593,0.61505 0.89613,1.23009 1.29512,1.89064 1.68459,2.69649 4.08404,3.9909 6.80388,5.49374 0.62127,0.35002 1.24854,0.68911 1.87587,1.0281 0.57408,0.30943 1.14339,0.62458 1.71199,0.94353 7.14427,3.95017 15.48029,6.29698 23.56762,7.31841 0.36127,-2.0725 1.68489,-2.36867 3.57309,-1.90568 0.50357,0.36731 0.50357,0.36731 0.95283,0.95282 0.17686,2.77315 0.0529,5.55945 1e-4,8.33721 1.51637,0.0828 2.97912,0.42348 4.76412,0.95286 0.44434,-4.00918 2.33771,-8.2103 7.02705,-11.77643 2.87175,-2.06908 6.2071,-3.06491 9.70118,-3.27725 5.02615,-0.15864 9.35983,1.62814 13.0475,5.04902 3.07894,2.9392 5.00232,6.98291 5.00232,10.00465 2.62415,-0.85736 2.87839,-0.92236 4.76412,-1.19103 -0.0376,-1.18347 -0.18345,-3.03613 -0.1079,-4.54902 -0.0905,-2.8824 -0.0689,-3.03336 0.41041,-3.92707 0.59861,-0.52238 1.05763,-0.80108 1.84133,-0.94806 0.91876,0.17246 1.43662,0.47832 2.14385,1.08694 0.15912,0.62981 0.15912,0.62981 0.23821,1.19103 2.75747,-0.49309 5.49327,-1.04573 8.2181,-1.69722 0.49932,-0.11729 0.99777,-0.23817 1.49618,-0.35921 2.39769,-0.73097 4.80458,-1.42022 7.16142,-2.29274 1.13458,-0.42091 2.2439,-0.88017 3.34584,-1.37992 0.45569,-0.2051 0.91662,-0.39876 1.37779,-0.59076 0.79156,-0.34968 1.51975,-0.7463 2.26581,-1.18364 1.00523,-0.58742 2.0157,-1.1584 3.04451,-1.70389 3.47924,-1.84943 6.63809,-3.59667 8.10663,-7.46704 h 0.23821 c 0.0407,4.38843 0.0373,8.77722 0.0756,13.16564 0.0264,2.56143 -0.15603,4.59238 -1.59408,6.7691 -0.13458,0.20724 -0.26917,0.41472 -0.40757,0.62815 -3.32488,4.64788 -8.85269,7.1943 -14.03367,9.21286 -0.20938,0.0817 -0.41852,0.16317 -0.6341,0.24726 -2.86776,1.0986 -5.78436,1.94114 -8.76026,2.68553 -4.10723,1.02982 -6.92331,1.62381 -9.90032,1.83133 0.13401,2.10105 0.0497,2.92878 -0.95288,4.0495 -0.75225,0.37613 -1.57382,0.4333 -2.38206,0.23821 -0.62362,-0.47475 -1.11504,-0.85778 -1.2956,-1.64839 -0.0437,-2.86344 0.0477,-5.73084 0.1044,-8.59447 l -4.2877,0.95282 c -0.24107,0.84373 -0.48118,1.68888 -0.67008,2.54571 -1.17126,4.69432 -4.22768,8.70953 -8.35198,11.19568 -3.96684,2.21984 -8.35841,2.79749 -12.8493,2.07144 -0.76265,-0.21572 -0.89527,-0.25872 -2.63814,-0.99594 -4.55307,-1.94233 -7.96418,-5.43729 -9.84529,-10.05277 -0.62076,-1.67316 -0.92948,-2.98353 -0.8997,-4.76412 -0.21129,-0.0245 -0.42258,-0.0491 -0.6403,-0.0746 -1.39106,-0.20897 -2.75556,-0.55716 -4.12382,-0.87826 0.0148,0.66008 0.10288,5.37765 0.1161,6.95537 0.0468,1.4949 0.0426,1.88889 -0.66695,2.8156 -0.83754,0.61695 -1.28798,0.61743 -2.30774,0.47189 -0.90876,-0.40376 -1.31133,-0.74726 -1.66745,-1.66745 -0.0467,-0.66626 -0.0467,-0.66626 -0.0298,-1.36968 0.004,-0.41702 0.0184,-0.83374 0.0298,-1.25058 -0.14506,-0.009 -0.28989,-0.0179 -0.43925,-0.0269 -2.87848,-0.21605 -5.61428,-0.76678 -8.35317,-1.66387 -0.73748,-0.21534 -1.44972,-0.34373 -2.20983,-0.45307 -2.31891,-0.34338 -2.32068,-0.88027 -5.15121,-1.53357 -1.58764,-0.37803 -3.06404,-0.9402 -4.57046,-1.5631 -0.2232,-0.0903 -0.2232,-0.0903 -0.45068,-0.18247 -3.57279,-1.31385 -6.70256,-3.41369 -9.66116,-5.75887 -1.31837,-1.03996 -2.32846,-2.37052 -3.25938,-3.75079 -1.3723,-2.19531 -1.22414,-4.66788 -1.20603,-7.1619 0.1319,-27.83036 -0.12981,20.39428 0.047,-12.44531 z"
         style="fill:#ff368a;fill-opacity:1;stroke-width:0.238206"
         id="object-0"
         sodipodi:nodetypes="cccccccccccccccccccccccccccccccccccccccccccccccccccccccccccccccccc" />
      <path
         style="baseline-shift:baseline;display:inline;overflow:visible;vector-effect:none;fill:#ff368a;fill-opacity:1;stroke-miterlimit:10;enable-background:accumulate;stop-color:#000000"
         d="m 22.96109,437.66748 c -6.26351,0.33914 -12.26526,2.51077 -17.28906,6.04492 -10.04761,7.06831 -16.37778,19.68546 -13.63086,33.73437 l 5.33984,27.3125 -27.31055,5.33985 c -14.0489,2.74691 -23.35191,13.36209 -26.11523,25.33203 -2.76331,11.96994 0.99478,25.50728 12.60352,33.90234 v 0.002 c 0.36482,0.26348 0.73425,0.52101 1.10937,0.77343 0.37512,0.25242 0.75523,0.49761 1.13672,0.73633 v 0.002 c 12.14964,7.59206 26.10483,5.9727 36.15234,-1.0957 C 5.0047,562.68316 11.33496,550.06606 8.58804,536.01718 L 3.2482,508.70468 30.55875,503.36483 C 44.60763,500.61792 53.9125,490.00269 56.67593,478.0328 59.43937,466.06291 55.68154,452.52578 44.07242,444.13046 v -0.002 h -0.002 c -0.36483,-0.26348 -0.73426,-0.52101 -1.10937,-0.77343 -0.37512,-0.25242 -0.75328,-0.49761 -1.13477,-0.73633 l -0.002,-0.002 C 35.74965,438.8208 29.22451,437.32834 22.961,437.66748 Z m 0.20703,4.95117 c 5.27804,-0.29628 10.78743,0.97782 16.00586,4.23828 0.33438,0.20924 0.66656,0.42474 0.99609,0.64648 0.32908,0.22145 0.65331,0.44712 0.97266,0.67774 9.97382,7.21272 13.02155,18.49813 10.66016,28.72656 -2.3614,10.22843 -10.11171,19.1866 -22.20313,21.55078 l -27.31055,5.33985 -5.33984,-27.31055 c -2.36418,-12.0914 3.01376,-22.64556 11.59961,-28.68555 4.29293,-3.01999 9.34059,-4.88729 14.61914,-5.18359 z m -24.82617,67.04687 5.33984,27.31055 c 2.36419,12.09142 -3.01387,22.64746 -11.59961,28.6875 -8.58532,6.03975 -20.18719,7.46489 -30.625,0.94336 h -0.002 c -0.33391,-0.20897 -0.66506,-0.42505 -0.99414,-0.64648 -0.32908,-0.22144 -0.65332,-0.44713 -0.97266,-0.67774 h -0.002 c -9.97238,-7.21246 -13.02136,-18.49847 -10.66016,-28.72656 2.3613,-10.22852 10.11368,-19.18661 22.20508,-21.55078 z"
         id="Path_1700" />
      <path
         style="baseline-shift:baseline;display:inline;overflow:visible;vector-effect:none;fill:#ff368a;fill-opacity:1;stroke-miterlimit:10;enable-background:accumulate;stop-color:#000000"
         d="m 29.203421,517.13149 c -1.901285,-1.27939 0.06673,1.93075 -1.815941,2.41517 -1.882656,0.48443 1.626245,4.26336 0.618247,5.76135 -1.008005,1.49799 -7.547429,0.35205 -7.287073,2.27851 0.260359,1.92648 -1.790687,0.71039 0.110597,1.98978 l 3.417461,2.29962 c 1.838153,1.24293 2.311418,3.66614 1.074312,5.50889 -5.818014,8.66762 -3.508135,20.48125 5.146073,26.3192 l 0.0017,10e-4 0.0017,10e-4 c 3.411969,2.29593 8.11356,1.37665 10.40949,-2.03532 2.295561,-3.41142 1.376919,-8.11207 -2.033702,-10.4084 l -0.0017,-10e-4 c -1.840057,-1.2418 -2.312886,-3.66395 -1.075405,-5.50727 5.818019,-8.66762 3.507603,-20.48396 -5.146605,-26.32192 l -0.0017,-10e-4 z m -2.79139,4.14827 3.417461,2.29962 c 6.414734,4.32976 8.101603,12.96192 3.788071,19.38821 -2.742138,4.08404 -1.645967,9.68918 2.432313,12.43988 l 0.0017,10e-4 0.0017,0.001 c 1.170078,0.78735 1.465796,2.29974 0.67844,3.46983 -0.786982,1.16953 -2.298356,1.46549 -3.468212,0.67953 -6.417385,-4.32914 -8.105052,-12.96029 -3.790783,-19.38768 2.742144,-4.08404 1.645435,-9.69189 -2.432845,-12.4426 l -0.0017,-0.001 0.351002,0.70119 c 0.466276,0.93148 1.857385,-4.10173 2.721602,-3.52019 z"
         id="Path_1699"
         sodipodi:nodetypes="ssssscccccscccccsccccccsccccscc" />
      <path
         style="baseline-shift:baseline;display:inline;overflow:visible;vector-effect:none;fill:#ff368a;fill-opacity:1;stroke-miterlimit:10;enable-background:accumulate;stop-color:#000000"
         d="m -16.70297,474.90185 c -2.86937,-0.55011 -5.94407,0.60704 -7.66602,3.16602 -2.29593,3.41197 -1.37681,8.11422 2.03516,10.41015 l 48.09179,32.35938 c 3.41198,2.29593 8.11228,1.37681 10.40821,-2.03516 2.29593,-3.41197 1.37681,-8.11227 -2.03516,-10.4082 l -48.08984,-32.36133 c -0.85299,-0.57398 -1.78769,-0.94749 -2.74414,-1.13086 z m -1.92578,4.88477 c 0.62277,-0.12177 1.29386,8.5e-4 1.8789,0.39453 L 31.34,512.54248 c 1.17008,0.78735 1.46508,2.29867 0.67773,3.46875 -0.78735,1.17008 -2.29867,1.46704 -3.46875,0.67968 l -48.0918,-32.36132 c -1.17008,-0.78736 -1.46508,-2.30063 -0.67773,-3.47071 0.39368,-0.58504 0.96902,-0.95049 1.5918,-1.07226 z"
         id="Path_1702" />
      <path
         style="baseline-shift:baseline;display:inline;overflow:visible;vector-effect:none;fill:#ff368a;fill-opacity:1;stroke-miterlimit:10;enable-background:accumulate;stop-color:#000000"
         d="M 46.889231,434.55114 C 32.651356,425.52778 14.361984,425.97001 0.57627927,435.66697 -13.646291,445.25296 -21.175316,458.8362 -17.762454,475.64634 l -11.769993,10.89906 -5.62719,15.26856 c -16.849144,3.17591 -26.732441,15.1409 -30.254283,31.92069 -3.790636,16.42395 2.688571,33.53334 16.411811,43.32361 0.44571,0.32234 0.899021,0.63786 1.360491,0.94839 0.458882,0.30878 0.922282,0.60976 1.3926,0.90418 14.237875,9.02335 32.525626,8.58003 46.31132266,-1.11692 C 14.284375,568.20756 20.04896,554.39109 16.63671,537.58105 l 13.300847,-11.01713 3.844976,-11.97346 2.134907,-2.8252 c 16.848213,-3.17684 26.612843,-15.2603 30.1351,-32.03933 3.790645,-16.42394 -2.688564,-33.53333 -16.4118,-43.3236 -0.892192,-0.64395 -1.811553,-1.26387 -2.751473,-1.85148 z m -2.67687,4.22297 0.0066,0.004 0.0066,0.004 c 0.850065,0.53101 1.687522,1.09552 2.500303,1.68247 l 0.005,0.003 0.0066,0.004 c 12.095535,8.62905 17.792299,23.67798 14.44114,38.15321 l -0.0059,0.0267 -0.0059,0.0267 c -3.104272,14.83105 -14.825713,26.31459 -29.717062,29.1154 0,0 -4.679604,-7.41727 -0.0094,0.003 4.670204,7.42027 2.362893,4.24119 -4.548453,17.05126 -6.911346,12.81007 -13.861634,10.30787 -13.861634,10.30787 l 5.12e-4,0.01 c 3.014303,14.84961 -3.2086337,30.03311 -15.778234,38.49491 l -0.022477,0.0155 -0.022477,0.0155 c -12.146141,8.55593 -28.231939,8.94703 -40.78108,0.99392 l -0.0066,-0.004 -0.0066,-0.004 c -0.427833,-0.26728 -0.847286,-0.53953 -1.263523,-0.81961 -0.419149,-0.28205 -0.830805,-0.5687 -1.233545,-0.86068 l -0.0066,-0.004 -0.0083,-0.006 c -12.095549,-8.62905 -17.790685,-23.67689 -14.439527,-38.15212 l 0.0059,-0.0267 0.0059,-0.0267 c 3.103798,-14.83126 14.8239,-26.31617 29.715441,-29.1165 0,0 6.475538,5.1594 0.0111,-0.002 -6.464438,-5.1614 9.954128,-26.69144 9.954128,-26.69144 l 8.45596,-0.66769 -0.0022,-0.0111 c -3.01482,-14.8496 3.2098857,-30.03238 15.7798533,-38.49382 l 0.022477,-0.0155 0.022477,-0.0155 C 15.578959,431.21314 31.663138,430.82095 44.21227,438.77405 Z m -6.561776,12.48024 c -0.245669,-0.16531 -0.52772,-0.35589 -0.841607,-0.54751 -0.0025,-0.002 -0.0049,-0.003 -0.0083,-0.006 -7.807286,-5.01227 -17.901622,-4.75091 -25.440169,0.65263 -7.904348,5.33677 -11.84306416,14.91371 -9.9759813,24.26765 l 5.1158525,20.63304 22.2243438,-2.22629 0.0111,-0.002 c 9.360553,-1.79271 16.743411,-9.03821 18.717486,-18.35956 2.177074,-9.02283 -1.380071,-18.47994 -8.966608,-23.82864 -0.276663,-0.20027 -0.556795,-0.39588 -0.836032,-0.58378 z m -2.79139,4.14827 c 0.240293,0.1617 0.47778,0.32633 0.706957,0.49223 l 0.0146,0.01 0.01349,0.0115 c 5.937249,4.17892 8.707405,11.54342 6.995652,18.59921 l -0.0093,0.0384 -0.0067,0.0379 c -1.547934,7.38858 -7.37172,13.10958 -14.786617,14.52606 l -0.0056,10e-4 -17.9753423,3.51464 -3.5146365,-17.97534 -0.00109,-0.006 C 4.809464,467.24992 7.9157677,459.6998 14.177491,455.48331 l 0.03102,-0.0216 0.03208,-0.0231 c 5.891538,-4.24243 13.756701,-4.44983 19.864394,-0.52496 l 0.0319,0.019 0.0319,0.0191 c 0.197244,0.11862 0.426519,0.2729 0.690349,0.45043 z m -41.3641097,61.64914 -21.5976993,2.39089 c -9.36298,1.79257 -16.747525,9.04083 -18.719132,18.36551 -2.175038,9.02745 1.388595,18.48869 8.983371,23.83522 0.538083,0.388 1.097253,0.76426 1.662544,1.11874 7.808252,5.01784 17.907529,4.75871 25.448274,-0.64718 7.9043457,-5.33678 11.8430619,-14.91372 9.97597905,-24.26766 l -0.002171,-0.0111 z m -2.6657059,3.78334 3.51193,17.97587 0.00109,0.006 c 1.4811442,7.40231 -1.6251512,14.95243 -7.8868744,19.16893 l -0.03102,0.0215 -0.03208,0.0231 c -5.891029,4.24268 -13.758077,4.45141 -19.865483,0.52658 l -0.01137,-0.008 -0.01294,-0.009 c -0.487358,-0.30492 -0.976181,-0.63385 -1.437309,-0.96717 l -0.01294,-0.009 -0.01294,-0.009 c -5.937064,-4.17955 -8.707023,-11.54569 -6.99619,-18.60192 l 0.0093,-0.0384 0.0067,-0.0379 c 1.54748,-7.38873 7.371581,-13.11003 14.786617,-14.52605 l 0.0056,-10e-4 z"
         id="Path_1701"
         sodipodi:nodetypes="cccccccscccccccccccccccccccczzccccccccsccccccczccccccscccccccccccccccccscccccccccscccccccccccccccccccsccccccsccccc" />
      <path
         style="baseline-shift:baseline;display:inline;overflow:visible;vector-effect:none;fill:#ff368a;fill-opacity:1;stroke-miterlimit:10;enable-background:accumulate;stop-color:#000000"
         d="m -22.285,483.19873 c -2.86937,-0.55012 -5.94407,0.60703 -7.66602,3.16601 -2.29593,3.41197 -1.37682,8.11423 2.03516,10.41016 l 48.08984,32.35937 c 3.41197,2.29594 8.11423,1.37682 10.41016,-2.03515 2.29593,-3.41197 1.37681,-8.11227 -2.03516,-10.40821 l -48.0918,-32.36132 c -0.85299,-0.57399 -1.78573,-0.94749 -2.74218,-1.13086 z m -1.92774,4.88476 c 0.62278,-0.12177 1.29387,8.6e-4 1.87891,0.39453 l 48.09179,32.35938 c 1.17009,0.78735 1.46509,2.30062 0.67774,3.4707 -0.78735,1.17008 -2.29867,1.46509 -3.46875,0.67774 l -48.0918,-32.35938 c -1.17008,-0.78735 -1.46508,-2.30062 -0.67773,-3.4707 0.39367,-0.58504 0.96706,-0.9505 1.58984,-1.07227 z"
         id="Path_1703" />
      <path
         style="baseline-shift:baseline;display:inline;overflow:visible;vector-effect:none;fill:#ff368a;fill-opacity:1;stroke-miterlimit:10;enable-background:accumulate;stop-color:#000000"
         d="m -27.86704,491.4956 c -2.86936,-0.55011 -5.94602,0.60704 -7.66796,3.16602 -2.29594,3.41197 -1.37682,8.11227 2.03515,10.4082 l 48.0918,32.36133 c 3.41197,2.29593 8.11422,1.37681 10.41016,-2.03516 2.29593,-3.41197 1.37681,-8.11422 -2.03516,-10.41015 l -48.0918,-32.35938 c -0.85299,-0.57398 -1.78573,-0.94749 -2.74219,-1.13086 z m -1.92773,4.88477 c 0.62278,-0.12177 1.29387,8.5e-4 1.87891,0.39453 l 48.08984,32.35937 c 1.17008,0.78736 1.46704,2.30063 0.67969,3.47071 -0.78735,1.17008 -2.30062,1.46508 -3.47071,0.67773 l -48.08984,-32.35937 c -1.17008,-0.78736 -1.46704,-2.30063 -0.67969,-3.47071 0.39368,-0.58504 0.96902,-0.95049 1.5918,-1.07226 z"
         id="Path_1704" />
    </g>
  </g>
</svg>
