<?xml version="1.0" encoding="UTF-8" standalone="no"?>
<svg
   viewBox="204.793 177.3113 80.085758 101.51231"
   width="80.085701"
   height="101.51231"
   preserveAspectRatio="none"
   version="1.1"
   id="svg4"
   sodipodi:docname="blindfold.svg"
   inkscape:version="1.4.2 (ebf0e940, 2025-05-08)"
   xmlns:inkscape="http://www.inkscape.org/namespaces/inkscape"
   xmlns:sodipodi="http://sodipodi.sourceforge.net/DTD/sodipodi-0.dtd"
   xmlns="http://www.w3.org/2000/svg"
   xmlns:svg="http://www.w3.org/2000/svg">
  <defs
     id="defs4" />
  <sodipodi:namedview
     id="namedview4"
     inkscape:showpageshadow="2"
     inkscape:pageopacity="0.0"
     inkscape:pagecheckerboard="0"
     inkscape:zoom="5.5229501"
     inkscape:cx="8.7815387"
     inkscape:cy="55.586235"
     inkscape:window-width="1712"
     inkscape:window-height="971"
     inkscape:window-x="0"
     inkscape:window-y="39"
     inkscape:window-maximized="1"
     inkscape:current-layer="Layer_1"
     pagecolor="#ffffff"
     bordercolor="#000000"
     borderopacity="0.25"
     inkscape:deskcolor="#d1d1d1" />
  <g
     id="Layer_1"
     transform="matrix(0,0.15641678,-0.15641678,0,274.72512,205.70543)"
     style="fill:#000000;fill-opacity:1">
    <path
       d="m -88.388701,317.26808 c 29.17691,15.13683 48.599408,20.44682 63.054594,19.179 14.455185,-1.26783 23.0745057,-10.57077 26.9930233,-20.07648 3.9185076,-9.50573 4.7615286,-19.58249 6.37218,-24.9483 0.8053307,-2.68292 1.7454892,-3.52883 1.4281839,-3.34023 -0.3173054,0.18859 -0.2889953,-0.38157 2.7510088,1.10625 10.71482,5.24411 22.091473,3.59141 29.667933,-3.42608 7.57645,-7.01749 12.119759,-17.92379 15.070037,-31.2678 C 62.848827,227.80643 61.83135,190.58701 53.859726,153.09162 45.888103,115.59621 30.947449,77.908903 7.7189255,51.107367 -15.509588,24.305831 -48.007147,8.6789011 -87.666812,17.418285 l 2.751008,12.486831 c 35.243343,-7.76621 61.884238,5.243531 82.9730485,29.57623 21.0888105,24.332699 35.6439905,60.276854 43.2961305,96.269564 7.65215,35.99272 8.387095,72.11664 3.110011,95.98472 -2.638548,11.93404 -6.917276,20.60945 -11.27522,24.64589 -4.357954,4.03643 -8.028213,4.90964 -15.356855,1.32282 -4.981536,-2.43804 -10.5278174,-3.21386 -14.9042021,-0.61264 -4.3763948,2.60122 -5.9822912,6.78645 -7.1428573,10.65283 -2.3211422,7.73275 -3.0907605,16.8258 -5.9468586,23.75424 -2.856088,6.92846 -6.17312,11.32446 -16.289461,12.21174 -10.116342,0.88728 -27.902675,-3.18998 -56.048313,-17.79178 z"
       id="path1"
       style="fill:#ff368a;fill-opacity:1;stroke-width:0.998947" />
    <path
       d="m -181.5287,167.43286 c 0,109.04401 50.04523,149.32253 97.189508,149.3465 41.975733,0.022 81.6518917,-31.86839 81.6518917,-75.54633 0,-18.5824 -9.6358387,-36.07995 -26.0155647,-47.23418 l -17.600439,-11.98337 c -10.706709,-7.2933 -10.706709,-21.87593 0,-29.16923 l 17.600439,-11.98337 c 16.379726,-11.14924 26.0155647,-28.64679 26.0155647,-47.23019 0,-88.4237495 -178.8413997,-135.355256 -178.8413997,73.80017 z"
       id="path2"
       style="fill:#ff368a;fill-opacity:1;stroke-width:12.7863px" />
    <path
       d="m 458.79263,245.08332 c -27.624,0 -51.695,-15.494 -63.989,-38.244 9.901,7.659 23.76,14.616 41.487,14.616 7.713,0 16.158,-1.318 25.318,-4.466 4.524,-1.556 6.931,-6.484 5.376,-11.008 -1.556,-4.524 -6.485,-6.93 -11.008,-5.376 -42.852,14.728 -65.355,-21.875 -69.869,-30.282 V 45.981319 c 0,-24.78 -20.16,-44.938 -44.938,-44.938 -24.778,0 -44.938,20.16 -44.938,44.938 V 360.37532 c 0,17.651 -14.361,32.011 -32.011,32.011 -17.65,0 -32.011,-14.361 -32.011,-32.011 V -7.882681 c -0.001,-31.448 -25.584,-57.031 -57.031,-57.031 -31.447,0 -57.031,25.583 -57.031,57.031 V 231.96132 c -14.71,0.968 -26.382998,13.237 -26.382998,28.188 v 158.683 c 0,15.58 12.675998,28.256 28.255998,28.256 h 15.777 c 15.58,0 28.256,-12.676 28.256,-28.256 v -158.685 c 0,-15.58 -12.676,-28.256 -28.256,-28.256 h -0.326 V -7.882681 c 0,-21.894 17.813,-39.706 39.706,-39.706 21.893,0 39.706,17.812 39.706,39.706 V 360.37632 c 0,27.204 22.132,49.335 49.335,49.335 27.203,0 49.335,-22.132 49.335,-49.335 V 45.981319 c 0,-15.227 12.388,-27.614 27.614,-27.614 15.226,0 27.614,12.388 27.614,27.614 V 172.39932 c 0,49.631 40.377,90.009 90.009,90.009 4.784,0 8.662,-3.878 8.662,-8.662 10e-4,-4.783 -3.876,-8.663 -8.66,-8.663 z m -312.063,173.747 c 0,6.028 -4.904,10.932 -10.932,10.932 h -15.777 c -6.028,0 -10.932,-4.904 -10.932,-10.932 v -26.708 h 37.64 v 26.708 z m 0,-44.033 h -37.64 v -72.816 h 37.64 z m -10.932,-125.581 c 6.028,0 10.932,4.904 10.932,10.932 v 24.509 h -37.64 v -24.509 c 0,-6.028 4.904,-10.932 10.932,-10.932 z"
       id="path3"
       style="fill:#ff368a;fill-opacity:1" />
  </g>
</svg>
