<?xml version="1.0" encoding="utf-8"?>
<svg xmlns="http://www.w3.org/2000/svg" viewBox="204.793 177.3113 131.7401 180.644" width="131.74px" height="180.644px" preserveAspectRatio="none"><g id="object-0" transform="matrix(1, 0, 0, 1, 0, 1.4210854715202004e-14)"><g style="" transform="matrix(0.312504, 0, 0, 0.312504, 194.418457, 149.97937)"><path style="stroke: rgb(0, 0, 0); fill:none; stroke-width: 12.7998px;" d="M 105.066 183.647 C 45.526 298.413 148.962 252.097 133.242 284.217 C 97.881 356.467 426.347 332.763 393.301 182.799"/><path d="M 249.378 87.461 C 140.219 87.461 99.898 137.559 99.874 184.753 C 99.852 226.773 131.776 266.491 175.5 266.491 C 194.102 266.491 211.618 256.845 222.784 240.448 L 234.78 222.829 C 242.081 212.111 256.679 212.111 263.98 222.829 L 275.976 240.448 C 287.137 256.845 304.653 266.491 323.256 266.491 C 411.773 266.491 458.754 87.461 249.378 87.461 Z" style="stroke-width: 12.7998px;"/></g><g id="Layer_1" transform="matrix(0, 0.257304, -0.257304, 0, -8.947874, 118.534607)" style="transform-origin: 279.611px 191.087px;"><g transform="matrix(1, 0, 0, 1, 23.610634, -64.913681)"><g><path d="M435.182,309.997c-27.624,0-51.695-15.494-63.989-38.244c9.901,7.659,23.76,14.616,41.487,14.616 c7.713,0,16.158-1.318,25.318-4.466c4.524-1.556,6.931-6.484,5.376-11.008c-1.556-4.524-6.485-6.93-11.008-5.376 c-42.852,14.728-65.355-21.875-69.869-30.282V110.895c0-24.78-20.16-44.938-44.938-44.938c-24.778,0-44.938,20.16-44.938,44.938 v314.394c0,17.651-14.361,32.011-32.011,32.011s-32.011-14.361-32.011-32.011V57.031C208.598,25.583,183.015,0,151.568,0 S94.537,25.583,94.537,57.031v239.844c-14.71,0.968-26.383,13.237-26.383,28.188v158.683c0,15.58,12.676,28.256,28.256,28.256 h15.777c15.58,0,28.256-12.676,28.256-28.256V325.061c0-15.58-12.676-28.256-28.256-28.256h-0.326V57.031 c0-21.894,17.813-39.706,39.706-39.706c21.893,0,39.706,17.812,39.706,39.706v368.259c0,27.204,22.132,49.335,49.335,49.335 c27.203,0,49.335-22.132,49.335-49.335V110.895c0-15.227,12.388-27.614,27.614-27.614c15.226,0,27.614,12.388,27.614,27.614 v126.418c0,49.631,40.377,90.009,90.009,90.009c4.784,0,8.662-3.878,8.662-8.662C443.843,313.877,439.966,309.997,435.182,309.997 z M123.119,483.744c0,6.028-4.904,10.932-10.932,10.932H96.41c-6.028,0-10.932-4.904-10.932-10.932v-26.708h37.64V483.744z M123.119,439.711h-37.64v-72.816h37.64V439.711z M112.187,314.13c6.028,0,10.932,4.904,10.932,10.932v24.509h-37.64v-24.509 c0-6.028,4.904-10.932,10.932-10.932H112.187z"/></g></g></g></g></svg>