<?xml version="1.0" encoding="utf-8"?>
<svg xmlns="http://www.w3.org/2000/svg" viewBox="95.289 227.216 192.7427 145.02" width="192.743px" height="145.02px" preserveAspectRatio="none"><g id="object-0" transform="matrix(1, 0, 0, 1, 0, 1.4210854715202004e-14)"><g><g><g id="Layer_1" style="transform-origin: 432.081px 263.389px;" transform="matrix(-0.067751, 0.076445, 0.076445, 0.067751, -177.192917, 24.351547)"><g transform="matrix(1, 0, 0, 1, 176.081833, 7.388535)"><g><path d="M439.652,233.739h-50.087v-16.696c0-9.223-7.479-16.696-16.696-16.696h-50.087h-50.087 c-9.217,0-16.696,7.473-16.696,16.696v16.696h-33.391V16.696C222.609,7.473,215.13,0,205.913,0H105.739 C78.12,0,55.652,22.468,55.652,50.087v166.956c0,27.619,22.468,50.087,50.087,50.087h83.478v194.783 c0,27.619,22.468,50.087,50.087,50.087h166.956c27.619,0,50.087-22.468,50.087-50.087V250.435 C456.348,241.212,448.869,233.739,439.652,233.739z M422.957,300.522H222.609V267.13h200.348V300.522z"/></g></g><g transform="matrix(1, 0, 0, 1, 176.081833, 7.388535)"><g><path d="M335.206,38.934c-6.326-7.054-18.522-7.054-24.848,0C301.283,49.049,256,101.152,256,133.565 c0,36.826,29.956,66.783,66.783,66.783c36.826,0,66.783-29.956,66.783-66.783C389.565,101.152,344.282,49.049,335.206,38.934z"/></g></g></g><path d="M 180.97 372.236 C 187.536 372.236 193.554 368.673 196.832 362.985 C 201.417 355.032 204.054 345.824 204.054 335.981 C 204.054 325.75 201.199 316.208 196.282 308.047 L 208.586 295.743 L 211.243 298.4 C 213.013 300.17 215.883 300.17 217.653 298.4 L 220.853 295.194 C 222.624 293.424 222.624 290.554 220.853 288.784 L 205.929 273.86 C 204.159 272.09 201.29 272.09 199.52 273.86 L 196.316 277.064 C 194.546 278.834 194.546 281.703 196.316 283.473 L 198.973 286.13 L 187.81 297.293 C 184.536 294.072 180.862 291.251 176.863 288.934 L 176.863 245.27 L 181.386 245.264 C 183.885 245.261 185.91 243.236 185.913 240.738 L 185.924 231.753 C 185.927 229.246 183.893 227.213 181.386 227.216 L 117.957 227.289 C 115.459 227.292 113.434 229.317 113.431 231.815 L 113.419 240.803 C 113.417 243.309 115.45 245.34 117.957 245.337 L 122.48 245.332 L 122.48 288.931 C 106.242 298.338 95.289 315.862 95.289 335.981 C 95.289 345.824 97.926 355.035 102.512 362.985 C 105.792 368.673 111.811 372.236 118.373 372.236 L 180.97 372.236 Z M 129.295 300.697 L 136.076 296.769 L 136.076 245.318 L 163.267 245.287 L 163.267 296.769 L 170.048 300.697 C 177.075 304.768 182.545 310.818 186.068 317.853 L 113.275 317.853 C 116.801 310.818 122.268 304.768 129.295 300.697 Z" style="stroke-width: 1;"/></g></g></g></svg>