<?xml version="1.0" encoding="utf-8"?>
<svg xmlns="http://www.w3.org/2000/svg" viewBox="93.9867 87.8235 240.7045 178.2196" width="240.704px" height="178.22px" preserveAspectRatio="none"><g id="object-6" transform="matrix(11.462120056152344, 0, 0, 11.462120056152344, 76.79348754882812, 37.84869384765625)"><path class="cls-1" d="M1.5,4.36h0a8.66,8.66,0,0,1,1.34,6.26L2.45,13v1.91a4.78,4.78,0,1,0,9.55,0" style="fill: none; stroke: rgb(2, 2, 2); stroke-miterlimit: 10; stroke-width: 1.91px;" id="object-0"/><path class="cls-1" d="M22.5,4.36h0a8.66,8.66,0,0,0-1.34,6.26L21.55,13v1.91a4.78,4.78,0,1,1-9.55,0" style="fill: none; stroke: rgb(2, 2, 2); stroke-miterlimit: 10; stroke-width: 1.91px;" id="object-1"/><path class="cls-1" d="M 9.756 10.09 C 10.848 10.864 11.704 12.682 12.069 14.999" style="fill: none; stroke: rgb(2, 2, 2); stroke-miterlimit: 10; stroke-width: 1.91px;" id="object-2"/><path class="cls-1" d="M 14.199 10.003 C 13.155 10.815 12.336 12.721 11.987 15.149" style="fill: none; stroke: rgb(2, 2, 2); stroke-miterlimit: 10; stroke-width: 1.91px;" id="object-3"/><ellipse style="stroke: rgb(0, 0, 0);" cx="7.209" cy="16.609" rx="0.691" ry="0.691" id="object-4"/><ellipse style="stroke: rgb(0, 0, 0); stroke-width: 1;" cx="16.602" cy="16.598" rx="0.691" ry="0.691" id="object-5"/></g></svg>