<?xml version="1.0" encoding="UTF-8" standalone="no"?>
<!-- Uploaded to: SVG Repo, www.svgrepo.com, Generator: SVG Repo Mixer Tools -->

<svg
   fill="#ff368a"
   height="800.00372"
   width="686.20917"
   version="1.1"
   id="Layer_1"
   viewBox="0 0 439.17301 512.00138"
   xml:space="preserve"
   sodipodi:docname="bunny.svg"
   inkscape:version="1.4.2 (ebf0e940, 2025-05-08)"
   xmlns:inkscape="http://www.inkscape.org/namespaces/inkscape"
   xmlns:sodipodi="http://sodipodi.sourceforge.net/DTD/sodipodi-0.dtd"
   xmlns="http://www.w3.org/2000/svg"
   xmlns:svg="http://www.w3.org/2000/svg"><defs
   id="defs2" /><sodipodi:namedview
   id="namedview2"
   pagecolor="#ffffff"
   bordercolor="#000000"
   borderopacity="0.25"
   inkscape:showpageshadow="2"
   inkscape:pageopacity="0.0"
   inkscape:pagecheckerboard="0"
   inkscape:deskcolor="#d1d1d1"
   inkscape:zoom="0.0325"
   inkscape:cx="323.07692"
   inkscape:cy="400"
   inkscape:window-width="896"
   inkscape:window-height="245"
   inkscape:window-x="0"
   inkscape:window-y="39"
   inkscape:window-maximized="0"
   inkscape:current-layer="Layer_1" />
<g
   id="g2"
   transform="translate(-36.414,3.8972208e-4)">
	<g
   id="g1">
		<path
   d="m 424.604,367.783 50.982,-11.852 -7.57,-32.564 -45.884,10.667 c -5.734,-33.622 -21.039,-66.338 -43.941,-93.115 20.398,-28.261 36.519,-64.516 45.937,-103.675 9.715,-40.395 10.989,-79.329 3.411,-104.148 -6.575,-21.53 -18.56,-29.159 -27.459,-31.767 -8.213,-2.408 -21.333,-2.722 -37.192,9.447 -33.103,25.401 -68.55,100.03 -73.331,174.202 -10.969,-2.574 -22.197,-3.899 -33.557,-3.899 -11.36,0 -22.588,1.325 -33.557,3.899 C 217.662,110.806 182.215,36.176 149.112,10.776 133.251,-1.394 120.133,-1.081 111.919,1.328 103.023,3.937 91.037,11.566 84.461,33.095 c -7.579,24.819 -6.304,63.753 3.411,104.148 9.418,39.159 25.539,75.415 45.937,103.675 -22.902,26.777 -38.206,59.495 -43.941,93.115 l -45.884,-10.667 -7.57,32.564 50.982,11.852 c 0.508,20.176 4.622,38.934 12.144,55.901 l -63.125,14.676 7.57,32.564 73.963,-17.195 c 5.852,7.212 12.511,13.926 19.971,20.083 26.592,21.95 62.119,35.25 101.367,38.19 v -82.876 c -14.57,-8.472 -27.814,-25.651 -27.814,-39.56 0,-26.232 28.968,-26.232 44.53,-26.232 15.562,0 44.531,0 44.531,26.232 0,13.909 -13.245,31.089 -27.815,39.56 V 512 c 39.248,-2.94 74.773,-16.239 101.365,-38.19 7.46,-6.158 14.118,-12.871 19.971,-20.083 l 73.963,17.195 7.57,-32.564 -63.125,-14.676 c 7.52,-16.965 11.634,-35.724 12.142,-55.899 z M 204.057,318.76 c -11.293,0 -20.484,-9.303 -20.484,-20.779 0,-11.477 9.19,-20.772 20.484,-20.772 11.308,0 20.496,9.295 20.496,20.772 0,11.474 -9.188,20.779 -20.496,20.779 z m 103.737,0.154 c -11.403,0 -20.652,-9.372 -20.652,-20.934 0,-11.562 9.25,-20.934 20.652,-20.934 11.388,0 20.638,9.372 20.638,20.934 0,11.562 -9.249,20.934 -20.638,20.934 z"
   id="path1" />
	</g>
</g>
</svg>
