<?xml version="1.0" encoding="UTF-8" standalone="no"?>
<!-- Uploaded to: SVG Repo, www.svgrepo.com, Generator: SVG Repo Mixer Tools -->

<svg
   width="174.82106"
   height="370.42654"
   viewBox="-20 0 41.520002 87.976304"
   fill="none"
   version="1.1"
   id="svg1"
   sodipodi:docname="buttplug.svg"
   inkscape:version="1.4.2 (ebf0e940, 2025-05-08)"
   xmlns:inkscape="http://www.inkscape.org/namespaces/inkscape"
   xmlns:sodipodi="http://sodipodi.sourceforge.net/DTD/sodipodi-0.dtd"
   xmlns="http://www.w3.org/2000/svg"
   xmlns:svg="http://www.w3.org/2000/svg">
  <defs
     id="defs1" />
  <sodipodi:namedview
     id="namedview1"
     pagecolor="#ffffff"
     bordercolor="#000000"
     borderopacity="0.25"
     inkscape:showpageshadow="2"
     inkscape:pageopacity="0.0"
     inkscape:pagecheckerboard="0"
     inkscape:deskcolor="#d1d1d1"
     inkscape:zoom="0.0325"
     inkscape:cx="76.923077"
     inkscape:cy="153.84615"
     inkscape:window-width="896"
     inkscape:window-height="245"
     inkscape:window-x="0"
     inkscape:window-y="39"
     inkscape:window-maximized="0"
     inkscape:current-layer="svg1" />
  <path
     fill-rule="evenodd"
     clip-rule="evenodd"
     d="m -20,83.2998 c 0,-6.12 13.38,-2.88 13.38,-19.42 0,-9 -10.31,-9.63 -10.31,-17.58 C -16.93,34.11 -5.52,0 1.16,0 c 6.68,0 18.3,34.08 18.3,45.2998 0,8.33 -10.67,7.9 -10.67,17.11 0,17.42 12.73,16.44 12.73,21.18 0,5.97 -41.52,5.82 -41.52,-0.29 z M -0.84,14.49 c -2.79,-1 -11.28,25.55 -9.05,28.5398 1.68,2.25 5.49,2.12 7.26,-10.3198 1.2,-8.41 3.69,-17.55 1.79,-18.22 z m -2.2,64.2898 c -3.53,-0.72 -6.73,-0.09 -6.87,2.28 -0.2,3.12 12.81,3.24 12.74,0.71 -0.07,-1.69 -2.63,-2.32 -5.87,-2.99 z"
     fill="#ff368a"
     id="path1" />
</svg>
