<?xml version="1.0" encoding="UTF-8" standalone="no"?>
<!-- Uploaded to: SVG Repo, www.svgrepo.com, Generator: SVG Repo Mixer Tools -->

<svg
   fill="#ff368a"
   height="800.00018"
   width="379.66696"
   version="1.1"
   id="Layer_1"
   viewBox="0 0 242.98401 511.99412"
   xml:space="preserve"
   sodipodi:docname="condom.svg"
   inkscape:version="1.4.2 (ebf0e940, 2025-05-08)"
   xmlns:inkscape="http://www.inkscape.org/namespaces/inkscape"
   xmlns:sodipodi="http://sodipodi.sourceforge.net/DTD/sodipodi-0.dtd"
   xmlns="http://www.w3.org/2000/svg"
   xmlns:svg="http://www.w3.org/2000/svg"><defs
   id="defs2" /><sodipodi:namedview
   id="namedview2"
   pagecolor="#ffffff"
   bordercolor="#000000"
   borderopacity="0.25"
   inkscape:showpageshadow="2"
   inkscape:pageopacity="0.0"
   inkscape:pagecheckerboard="0"
   inkscape:deskcolor="#d1d1d1"
   inkscape:zoom="0.0325"
   inkscape:cx="169.23077"
   inkscape:cy="400"
   inkscape:window-width="896"
   inkscape:window-height="245"
   inkscape:window-x="0"
   inkscape:window-y="39"
   inkscape:window-maximized="0"
   inkscape:current-layer="Layer_1" />
<g
   id="g2"
   transform="translate(-134.505,1.156585e-4)">
	<g
   id="g1">
		<path
   d="m 363.248,428.312 -23.326,21.105 c -19.17,18.189 -58.333,21.183 -82.007,21.183 -9.581,0 -16.627,-0.486 -18.779,-0.659 -4.782,-0.373 -8.348,-4.556 -7.975,-9.329 0.382,-4.782 4.591,-8.27 9.337,-7.975 26.277,2.065 71.298,-0.46 87.63,-15.95 l 23.326,-21.105 V 298.386 c 8.791,-10.639 11.385,-25.062 6.986,-38.053 h -24.342 c -4.79,0 -8.678,-3.888 -8.678,-8.678 0,-4.79 3.888,-8.678 8.678,-8.678 h 23.934 c 3.098,-8.348 3.263,-17.573 0.555,-26.034 H 325.42 c -4.79,0 -8.678,-3.888 -8.678,-8.678 0,-4.79 3.888,-8.678 8.678,-8.678 h 32.534 c 3.133,-8.339 3.35,-17.564 0.686,-26.034 h -24.541 c -4.79,0 -8.678,-3.888 -8.678,-8.678 0,-4.79 3.888,-8.678 8.678,-8.678 h 23.595 c 5.354,-13.538 2.959,-28.898 -6.37,-40.066 -2.3,-40.326 -30.642,-75.438 -69.294,-86.467 v -2.239 c 0,-13.59 -9.511,-25.262 -22.12,-27.145 -7.532,-1.102 -15.134,1.076 -20.879,6.031 -5.762,4.964 -9.068,12.149 -9.068,19.716 v 3.636 c -38.895,11.116 -67.193,46.41 -69.25,87.04 -8.938,11.116 -11.195,26.338 -6.049,39.493 h 23.231 c 4.79,0 8.678,3.888 8.678,8.678 0,4.79 -3.888,8.678 -8.678,8.678 h -24.081 c -2.673,8.478 -2.473,17.677 0.668,26.034 h 32.091 c 4.79,0 8.678,3.888 8.678,8.678 0,4.79 -3.888,8.678 -8.678,8.678 h -32.699 c -2.716,8.478 -2.543,17.677 0.555,26.034 h 23.465 c 4.79,0 8.678,3.888 8.678,8.678 0,4.79 -3.888,8.678 -8.678,8.678 h -23.943 c -4.495,12.974 -2.126,27.44 6.587,38.044 v 116.337 l 23.075,20.176 c 4.695,4.191 11.854,7.845 21.348,10.908 4.565,1.475 7.064,6.361 5.589,10.926 -1.189,3.679 -4.591,6.014 -8.253,6.014 -0.885,0 -1.788,-0.139 -2.673,-0.425 -11.967,-3.862 -20.966,-8.574 -27.509,-14.414 l -22.866,-19.994 c -11.698,9.98 -14.744,20.089 -14.744,27.683 0,32.161 52.233,56.407 121.492,56.407 69.259,0 121.492,-24.246 121.492,-56.407 -10e-4,-7.48 -2.942,-17.425 -14.241,-27.275 z M 212.607,130.163 c -4.79,0 -8.678,-3.888 -8.678,-8.678 0,-28.715 19.465,-52.068 43.39,-52.068 4.79,0 8.678,3.888 8.678,8.678 0,4.79 -3.888,8.678 -8.678,8.678 -14.353,0 -26.034,15.568 -26.034,34.712 0,4.791 -3.888,8.678 -8.678,8.678 z"
   id="path1" />
	</g>
</g>
</svg>
