<?xml version="1.0" encoding="iso-8859-1"?>
<!-- Uploaded to: SVG Repo, www.svgrepo.com, Generator: SVG Repo Mixer Tools -->
<svg fill="#ff368a" height="800px" width="800px" version="1.1" id="Layer_1" xmlns="http://www.w3.org/2000/svg" xmlns:xlink="http://www.w3.org/1999/xlink" 
	 viewBox="0 0 511.994 511.994" xml:space="preserve">
<g>
	<g>
		<path d="M363.248,428.312l-23.326,21.105c-19.17,18.189-58.333,21.183-82.007,21.183c-9.581,0-16.627-0.486-18.779-0.659
			c-4.782-0.373-8.348-4.556-7.975-9.329c0.382-4.782,4.591-8.27,9.337-7.975c26.277,2.065,71.298-0.46,87.63-15.95l23.326-21.105
			V298.386c8.791-10.639,11.385-25.062,6.986-38.053h-24.342c-4.79,0-8.678-3.888-8.678-8.678s3.888-8.678,8.678-8.678h23.934
			c3.098-8.348,3.263-17.573,0.555-26.034h-33.167c-4.79,0-8.678-3.888-8.678-8.678s3.888-8.678,8.678-8.678h32.534
			c3.133-8.339,3.35-17.564,0.686-26.034h-24.541c-4.79,0-8.678-3.888-8.678-8.678s3.888-8.678,8.678-8.678h23.595
			c5.354-13.538,2.959-28.898-6.37-40.066c-2.3-40.326-30.642-75.438-69.294-86.467v-2.239c0-13.59-9.511-25.262-22.12-27.145
			c-7.532-1.102-15.134,1.076-20.879,6.031c-5.762,4.964-9.068,12.149-9.068,19.716v3.636c-38.895,11.116-67.193,46.41-69.25,87.04
			c-8.938,11.116-11.195,26.338-6.049,39.493h23.231c4.79,0,8.678,3.888,8.678,8.678s-3.888,8.678-8.678,8.678h-24.081
			c-2.673,8.478-2.473,17.677,0.668,26.034h32.091c4.79,0,8.678,3.888,8.678,8.678s-3.888,8.678-8.678,8.678h-32.699
			c-2.716,8.478-2.543,17.677,0.555,26.034h23.465c4.79,0,8.678,3.888,8.678,8.678s-3.888,8.678-8.678,8.678h-23.943
			c-4.495,12.974-2.126,27.44,6.587,38.044v116.337l23.075,20.176c4.695,4.191,11.854,7.845,21.348,10.908
			c4.565,1.475,7.064,6.361,5.589,10.926c-1.189,3.679-4.591,6.014-8.253,6.014c-0.885,0-1.788-0.139-2.673-0.425
			c-11.967-3.862-20.966-8.574-27.509-14.414l-22.866-19.994c-11.698,9.98-14.744,20.089-14.744,27.683
			c0,32.161,52.233,56.407,121.492,56.407s121.492-24.246,121.492-56.407C377.488,448.107,374.547,438.162,363.248,428.312z
			 M212.607,130.163c-4.79,0-8.678-3.888-8.678-8.678c0-28.715,19.465-52.068,43.39-52.068c4.79,0,8.678,3.888,8.678,8.678
			s-3.888,8.678-8.678,8.678c-14.353,0-26.034,15.568-26.034,34.712C221.285,126.276,217.397,130.163,212.607,130.163z"/>
	</g>
</g>
</svg>