<?xml version="1.0" encoding="UTF-8" standalone="no"?>
<!-- Uploaded to: SVG Repo, www.svgrepo.com, Generator: SVG Repo Mixer Tools -->

<svg
   width="571.875"
   height="695.53625"
   viewBox="0 0 366 445.1432"
   version="1.1"
   id="svg1"
   sodipodi:docname="corset.svg"
   inkscape:version="1.4.2 (ebf0e940, 2025-05-08)"
   xmlns:inkscape="http://www.inkscape.org/namespaces/inkscape"
   xmlns:sodipodi="http://sodipodi.sourceforge.net/DTD/sodipodi-0.dtd"
   xmlns="http://www.w3.org/2000/svg"
   xmlns:svg="http://www.w3.org/2000/svg">
  <defs
     id="defs1" />
  <sodipodi:namedview
     id="namedview1"
     pagecolor="#ffffff"
     bordercolor="#000000"
     borderopacity="0.25"
     inkscape:showpageshadow="2"
     inkscape:pageopacity="0.0"
     inkscape:pagecheckerboard="0"
     inkscape:deskcolor="#d1d1d1"
     inkscape:zoom="0.47055376"
     inkscape:cx="372.96482"
     inkscape:cy="531.28892"
     inkscape:window-width="1712"
     inkscape:window-height="971"
     inkscape:window-x="0"
     inkscape:window-y="39"
     inkscape:window-maximized="1"
     inkscape:current-layer="svg1" />
  <path
     fill="#ff368a"
     d="M 71.338,1.8566558e-4 A 56.97,56.97 0 0 0 68.228,0.07718567 C 60.091,0.50018567 53.223,2.6671857 47.465,5.9571857 24.435,19.117186 16.929,53.874186 31.051,82.117186 c 1.852,3.704 4.176,8.36 6.755,13.64 l 0.09,-0.093 c 17.297,16.677004 39.81,20.348004 65.273,17.753004 23.326,-2.376 48.32,-10.295 70.832,-17.767004 v -37.73 c -30.213,-29.67 -56.348,-46.09 -77.4,-53.2560003 -9.48,-3.227 -17.864,-4.64300003 -25.262,-4.66300003 z m 223.326,0 C 287.264,0.02018567 278.879,1.4361857 269.4,4.6631857 248.348,11.829186 222.213,28.248186 192,57.920186 v 37.73 c 22.51,7.470004 47.506,15.390004 70.832,17.766004 25.464,2.595 47.976,-1.076 65.273,-17.752004 l 0.09,0.095 c 2.58,-5.28 4.903,-9.937 6.754,-13.64 14.12,-28.244 6.616,-63 -16.415,-76.1600003 -6.477,-3.702 -14.358,-5.98300003 -23.87,-5.95800003 z M 174,114.61319 c -21.26,7.003 -45.164,14.283 -69.008,16.712 -18.156,1.85 -36.632,0.733 -53.365,-5.875 5.4,12.258 10.946,25.775 15.86,39.697 12.245,34.696 21.475,71.573 12.052,99.842 -8.95,26.846 -29.95,47.313 -47.575,68.853 C 14.34,355.38319 0,377.14319 0,406.14319 c 0,4.25 2.587,8.662 9.543,13.72 0.254,0.186 0.525,0.37 0.79,0.553 6,-7.805 12.843,-17.922 18.8,-28.644 9.615,-17.309 16.867,-36.629 16.867,-49.629 h 18 c 0,19 -8.748,39.678 -19.133,58.37 -5.844,10.52 -12.22,20.262 -18.29,28.386 4.05,1.66 8.443,3.22 13.07,4.642 5.606,1.726 11.565,3.253 17.68,4.6 C 81.508,408.54819 94,367.44719 94,326.14319 h 18 c 0,41.506 -11.394,83.17 -34.78,115.648 14.813,2.212 29.51,3.352 41.78,3.352 5,0 16.16,-3.256 27.008,-10.488 10.385,-6.924 20.808,-17.23 27.992,-30.723 v -39.229 l -34.975,17.49 -8.05,-16.103 31.898,-15.947 -31.898,-15.95 8.05,-16.1 34.975,17.487 v -52.45 l -51.84,19.44 -6.32,-16.856 41.525,-15.571 -41.525,-15.572 6.32,-16.856 51.84,19.44 v -60.45 l -50.975,25.49 -8.05,-16.103 47.898,-23.949 -47.898,-23.95 8.05,-16.1 50.975,25.487 v -52.97 z m 18,0 v 52.968 l 50.975,-25.49 8.05,16.103 -47.898,23.949 47.898,23.95 -8.05,16.1 -50.975,-25.487 v 60.45 l 51.84,-19.44 6.32,16.856 -41.525,15.571 41.525,15.572 -6.32,16.856 -51.84,-19.44 v 52.45 l 34.975,-17.49 8.05,16.103 -31.898,15.949 31.898,15.95 -8.05,16.1 -34.975,-17.487 v 39.227 c 7.184,13.49 17.607,23.798 27.992,30.722 10.848,7.232 22.008,10.488 27.008,10.488 12.27,0 26.968,-1.14 41.78,-3.352 -23.387,-32.48 -34.78,-74.142 -34.78,-115.648 h 18 c 0,41.304 12.493,82.405 36.672,111.998 6.116,-1.347 12.075,-2.874 17.682,-4.6 4.626,-1.423 9.018,-2.983 13.07,-4.642 -6.072,-8.124 -12.447,-17.865 -18.29,-28.385 -10.387,-18.691 -19.134,-39.371 -19.134,-58.371 h 18 c 0,13 7.252,32.322 16.867,49.63 5.957,10.72 12.8,20.838 18.8,28.643 0.265,-0.184 0.536,-0.367 0.79,-0.552 6.956,-5.058 9.543,-9.47 9.543,-13.72 0,-29 -14.34,-50.76 -31.965,-72.3 -17.624,-21.54 -38.625,-42.008 -47.574,-68.854 -9.422,-28.27 -0.192,-65.146 12.054,-99.842 4.913,-13.922 10.46,-27.44 15.86,-39.697 -16.734,6.608 -35.21,7.724 -53.366,5.875 -23.844,-2.43 -47.75,-9.71 -69.008,-16.713 z"
     id="path1" />
</svg>
