<?xml version="1.0" encoding="UTF-8" standalone="no"?>
<!-- Uploaded to: SVG Repo, www.svgrepo.com, Generator: SVG Repo Mixer Tools -->

<svg
   height="799.99976"
   width="716.52661"
   version="1.1"
   id="_x32_"
   viewBox="0 0 458.57703 511.99984"
   xml:space="preserve"
   sodipodi:docname="eggplant.svg"
   inkscape:version="1.4.2 (ebf0e940, 2025-05-08)"
   xmlns:inkscape="http://www.inkscape.org/namespaces/inkscape"
   xmlns:sodipodi="http://sodipodi.sourceforge.net/DTD/sodipodi-0.dtd"
   xmlns="http://www.w3.org/2000/svg"
   xmlns:svg="http://www.w3.org/2000/svg"><defs
   id="defs2" /><sodipodi:namedview
   id="namedview2"
   pagecolor="#ffffff"
   bordercolor="#000000"
   borderopacity="0.25"
   inkscape:showpageshadow="2"
   inkscape:pageopacity="0.0"
   inkscape:pagecheckerboard="0"
   inkscape:deskcolor="#d1d1d1"
   inkscape:zoom="0.30198866"
   inkscape:cx="842.74688"
   inkscape:cy="513.26431"
   inkscape:window-width="896"
   inkscape:window-height="245"
   inkscape:window-x="0"
   inkscape:window-y="39"
   inkscape:window-maximized="0"
   inkscape:current-layer="_x32_" />
<style
   type="text/css"
   id="style1">
	.st0{fill:#ff368a000000000000;}
</style>
<g
   id="g2"
   style="fill:#ff368a"
   transform="translate(-26.711556)">
	<path
   class="st0"
   d="M 441.596,46.582 454.262,16.769 434.547,8.389 414.823,0 402.148,29.814 c -13.062,25.232 -66.28,-8.397 -99.512,36.871 -30.024,40.913 -44.274,49.36 -44.274,49.36 0,0 56.806,19.749 80.522,-3.166 0,0 -3.234,40.433 23.581,65.017 36.306,2.248 63.188,-28.121 63.188,-28.121 2.308,38.387 53.571,60.182 53.571,60.182 0,0 -5.297,-16.439 4.835,-66.128 C 494.805,91.2 431.296,70.794 441.596,46.582 Z"
   id="path1" />
	<path
   class="st0"
   d="m 414.68,188.826 c -17.357,9.845 -35.759,14.436 -53.723,13.324 -5.55,-0.346 -10.822,-2.594 -14.932,-6.35 -15.782,-14.494 -23.75,-32.668 -27.724,-48.484 -19.421,2.737 -31.658,2.914 -43.895,-0.11 C 238.184,184.835 161.512,219.895 124.43,241.211 12.924,305.292 4.915,413.008 59.892,469.4 106.988,517.716 186.608,538.013 294.971,458.856 382.112,395.22 421.913,274.83 439.785,217.166 429.696,210.639 424.416,203.118 414.68,188.826 Z M 67.902,411.214 c -12.876,-117.881 115.27,-139.761 115.27,-139.761 0,0 -85.541,75.106 -115.27,139.761 z"
   id="path2" />
</g>
</svg>
