<?xml version="1.0" encoding="UTF-8" standalone="no"?>
<!-- Uploaded to: SVG Repo, www.svgrepo.com, Generator: SVG Repo Mixer Tools -->

<svg
   height="800px"
   width="800px"
   version="1.1"
   id="_x32_"
   viewBox="0 0 512 512"
   xml:space="preserve"
   sodipodi:docname="eggplant-1-svgrepo-com.svg"
   inkscape:version="1.4.2 (ebf0e940, 2025-05-08)"
   xmlns:inkscape="http://www.inkscape.org/namespaces/inkscape"
   xmlns:sodipodi="http://sodipodi.sourceforge.net/DTD/sodipodi-0.dtd"
   xmlns="http://www.w3.org/2000/svg"
   xmlns:svg="http://www.w3.org/2000/svg"><defs
   id="defs2" /><sodipodi:namedview
   id="namedview2"
   pagecolor="#ffffff"
   bordercolor="#000000"
   borderopacity="0.25"
   inkscape:showpageshadow="2"
   inkscape:pageopacity="0.0"
   inkscape:pagecheckerboard="0"
   inkscape:deskcolor="#d1d1d1"
   inkscape:zoom="0.30198866"
   inkscape:cx="885.79484"
   inkscape:cy="513.2643"
   inkscape:window-width="1712"
   inkscape:window-height="971"
   inkscape:window-x="0"
   inkscape:window-y="39"
   inkscape:window-maximized="1"
   inkscape:current-layer="_x32_" />
<style
   type="text/css"
   id="style1">
	.st0{fill:#ff368a000000000000;}
</style>
<g
   id="g2"
   style="fill:#ff368a">
	<path
   class="st0"
   d="M441.596,46.582l12.666-29.813l-19.715-8.38L414.823,0l-12.675,29.814   c-13.062,25.232-66.28-8.397-99.512,36.871c-30.024,40.913-44.274,49.36-44.274,49.36s56.806,19.749,80.522-3.166   c0,0-3.234,40.433,23.581,65.017c36.306,2.248,63.188-28.121,63.188-28.121c2.308,38.387,53.571,60.182,53.571,60.182   s-5.297-16.439,4.835-66.128C494.805,91.2,431.296,70.794,441.596,46.582z"
   id="path1" />
	<path
   class="st0"
   d="M414.68,188.826c-17.357,9.845-35.759,14.436-53.723,13.324c-5.55-0.346-10.822-2.594-14.932-6.35   c-15.782-14.494-23.75-32.668-27.724-48.484c-19.421,2.737-31.658,2.914-43.895-0.11c-36.222,37.629-112.894,72.689-149.976,94.005   C12.924,305.292,4.915,413.008,59.892,469.4c47.096,48.316,126.716,68.613,235.079-10.544   c87.141-63.636,126.942-184.026,144.814-241.69C429.696,210.639,424.416,203.118,414.68,188.826z M67.902,411.214   c-12.876-117.881,115.27-139.761,115.27-139.761S97.631,346.559,67.902,411.214z"
   id="path2" />
</g>
</svg>
