<?xml version="1.0" encoding="utf-8"?>
<svg xmlns="http://www.w3.org/2000/svg" viewBox="126.6144 132.7397 260.0493 220.5028" width="260.049px" height="220.503px" preserveAspectRatio="none"><path d="M 341.082 133.42 C 341.811 134.007 342.525 134.905 342.676 135.854 C 342.793 137.438 342.455 138.514 341.482 139.774 C 341.411 139.873 341.411 139.873 341.336 139.971 C 340.551 141.005 339.343 141.645 338.107 141.95 C 338.028 141.969 337.948 141.988 337.863 142.011 C 337.511 142.063 337.163 142.072 336.806 142.082 C 334.554 142.147 332.858 143.163 330.997 144.356 C 329.338 145.419 327.641 146.424 325.921 147.388 C 325.784 147.463 325.653 147.538 325.521 147.613 C 321.042 150.142 316.432 152.37 311.638 154.235 C 311.356 154.348 311.079 154.456 310.797 154.569 C 309.006 155.274 307.178 155.866 305.35 156.463 C 305.157 156.524 304.969 156.585 304.781 156.646 C 301.895 157.582 298.92 158.334 295.931 158.855 C 295.635 158.912 295.344 158.963 295.052 159.025 C 293.67 159.297 292.289 159.513 290.898 159.692 C 290.789 159.706 290.686 159.72 290.578 159.734 C 285.92 160.345 281.315 160.486 276.619 160.449 C 276.535 160.449 276.446 160.449 276.356 160.444 C 266.426 160.364 256.528 158.531 246.832 156.562 C 246.146 156.421 245.455 156.289 244.769 156.153 C 243.65 155.941 242.532 155.721 241.413 155.495 C 234.514 154.109 234.514 154.109 227.595 152.83 C 227.182 152.755 226.768 152.68 226.355 152.605 C 223.464 152.083 220.574 151.618 217.669 151.204 C 217.594 151.195 217.524 151.185 217.449 151.176 C 215.841 150.946 214.239 150.725 212.631 150.546 C 212.495 150.527 212.354 150.513 212.213 150.499 C 209.647 150.203 207.071 150.006 204.496 149.818 C 204.416 149.813 204.331 149.803 204.247 149.799 C 203.123 149.719 202 149.639 200.877 149.564 C 200.727 149.554 200.727 149.554 200.576 149.545 C 198.861 149.427 197.141 149.432 195.42 149.427 C 195.303 149.427 195.303 149.427 195.185 149.427 C 187.774 149.423 180.442 150.189 173.237 151.961 C 173.11 151.989 172.988 152.022 172.857 152.05 C 169.764 152.821 166.723 153.817 163.767 155.006 C 163.645 155.053 163.523 155.105 163.396 155.152 C 160.355 156.393 157.333 157.934 154.626 159.795 C 154.551 159.847 154.471 159.903 154.391 159.955 C 152.591 161.201 150.857 162.521 149.245 164.006 C 149.019 164.208 148.793 164.406 148.558 164.603 C 148.098 165.003 147.67 165.43 147.238 165.863 C 147.167 165.933 147.097 166.004 147.022 166.079 C 146.918 166.182 146.918 166.182 146.815 166.291 C 146.749 166.352 146.688 166.413 146.627 166.479 C 146.443 166.666 146.443 166.666 146.246 166.977 C 146.176 166.977 146.105 166.977 146.03 166.977 C 146.002 167.038 145.973 167.104 145.945 167.165 C 145.79 167.451 145.607 167.653 145.381 167.888 C 142.007 171.583 139.375 176.165 137.542 180.799 C 137.504 180.898 137.462 180.992 137.424 181.095 C 136.442 183.562 135.723 186.096 135.201 188.695 C 135.154 188.93 135.103 189.16 135.051 189.395 C 134.717 190.965 134.525 192.563 134.37 194.156 C 134.365 194.24 134.355 194.325 134.346 194.41 C 134.191 196.106 134.139 197.803 134.139 199.504 C 134.139 199.608 134.139 199.711 134.139 199.819 C 134.144 203.447 134.421 207.043 135.037 210.619 C 135.056 210.718 135.07 210.821 135.089 210.925 C 135.408 212.809 135.953 214.652 136.452 216.494 C 136.466 216.391 136.48 216.292 136.494 216.184 C 137.88 205.882 140.724 196.163 147.444 187.98 C 147.52 187.891 147.52 187.891 147.59 187.802 C 148.229 187.026 148.892 186.284 149.574 185.55 C 149.841 185.264 149.841 185.264 150.076 184.949 C 150.142 184.874 150.208 184.794 150.274 184.714 C 150.344 184.714 150.415 184.714 150.49 184.714 C 150.518 184.653 150.546 184.587 150.579 184.521 C 150.918 183.896 151.552 183.44 152.083 182.984 C 152.342 182.759 152.596 182.524 152.845 182.289 C 153.526 181.654 154.222 181.053 154.955 180.47 C 155.068 180.381 155.18 180.287 155.298 180.197 C 156.83 178.971 158.423 177.838 160.068 176.771 C 160.129 176.729 160.195 176.691 160.256 176.649 C 161.751 175.681 163.306 174.811 164.857 173.942 C 164.947 173.89 165.036 173.843 165.125 173.791 C 169.825 171.174 174.971 169.289 180.132 167.823 C 180.367 167.752 180.602 167.682 180.837 167.611 C 181.998 167.263 183.182 167.005 184.366 166.742 C 184.634 166.681 184.907 166.619 185.175 166.558 C 188.944 165.712 192.789 165.172 196.633 164.829 C 196.943 164.801 197.249 164.772 197.559 164.74 C 207.424 163.79 217.608 164.312 227.379 165.849 C 227.619 165.886 227.863 165.924 228.103 165.962 C 229.043 166.103 229.978 166.267 230.914 166.432 C 231.017 166.45 231.12 166.469 231.224 166.488 C 234.109 167.005 236.986 167.541 239.843 168.189 C 240.318 168.297 240.797 168.396 241.272 168.495 C 241.357 168.509 241.446 168.528 241.531 168.546 C 241.709 168.584 241.883 168.622 242.062 168.659 C 243.622 168.979 245.178 169.327 246.733 169.698 C 247.889 169.975 249.05 170.238 250.211 170.492 C 251.236 170.718 252.26 170.948 253.285 171.188 C 255.545 171.709 257.806 172.217 260.081 172.678 C 260.96 172.851 261.834 173.035 262.703 173.242 C 264.259 173.608 265.829 173.881 267.398 174.172 C 267.901 174.266 268.399 174.36 268.902 174.454 C 269.133 174.501 269.368 174.543 269.603 174.59 C 269.819 174.628 270.03 174.67 270.247 174.708 C 271.064 174.863 271.882 175.009 272.7 175.14 C 272.864 175.164 273.029 175.192 273.189 175.22 C 278.734 176.123 284.374 176.898 290.005 176.898 C 290.197 176.898 290.395 176.898 290.587 176.903 C 290.992 176.903 291.396 176.903 291.805 176.903 C 292.214 176.903 292.622 176.903 293.031 176.903 C 296.175 176.917 299.291 176.851 302.412 176.414 C 302.586 176.386 302.76 176.362 302.934 176.339 C 306.097 175.906 309.218 175.333 312.31 174.543 C 312.428 174.511 312.428 174.511 312.55 174.478 C 314.369 174.012 316.164 173.472 317.945 172.875 C 318.034 172.847 318.119 172.819 318.204 172.79 C 319.458 172.367 320.704 171.935 321.931 171.446 C 322.264 171.31 322.598 171.183 322.932 171.051 C 323.176 170.953 323.42 170.854 323.67 170.76 C 323.782 170.713 323.895 170.671 324.013 170.624 C 324.548 170.408 325.075 170.182 325.587 169.919 C 325.94 169.745 326.292 169.585 326.649 169.425 C 329.126 168.307 331.556 167.094 333.906 165.727 C 334.183 165.567 334.456 165.407 334.733 165.252 C 336.43 164.279 338.103 163.259 339.738 162.188 C 339.799 162.15 339.86 162.112 339.922 162.07 C 341.411 161.097 342.257 160.106 343.052 158.531 C 343.912 156.849 345.242 155.744 347.037 155.152 C 348.123 154.861 349.378 154.861 350.402 155.33 C 351.441 155.941 352.24 156.896 352.583 158.052 C 352.78 159.626 352.216 160.857 351.309 162.112 C 350.341 163.297 348.875 164.086 347.357 164.255 C 347.07 164.274 346.783 164.288 346.492 164.302 C 344.151 164.42 342.239 165.764 340.307 166.967 C 338.441 168.133 336.533 169.219 334.611 170.285 C 334.329 170.445 334.047 170.6 333.765 170.765 C 332.783 171.319 331.791 171.818 330.771 172.292 C 330.31 172.508 329.855 172.734 329.399 172.964 C 327.364 173.989 325.286 174.905 323.176 175.775 C 322.955 175.864 322.739 175.963 322.518 176.057 C 321.752 176.39 320.986 176.691 320.192 176.964 C 319.684 177.138 319.191 177.33 318.697 177.533 C 317.94 177.843 317.174 178.087 316.394 178.327 C 315.995 178.454 315.595 178.581 315.196 178.712 C 313.678 179.21 312.146 179.647 310.595 180.038 C 310.237 180.127 309.88 180.216 309.518 180.31 C 308.282 180.625 307.046 180.907 305.787 181.123 C 305.556 181.17 305.331 181.212 305.105 181.259 C 302.595 181.762 300.086 182.101 297.543 182.345 C 297.444 182.35 297.35 182.359 297.247 182.369 C 290.742 182.984 284.205 182.857 277.71 182.214 C 277.63 182.204 277.555 182.199 277.48 182.19 C 275.36 181.983 273.25 181.711 271.144 181.405 C 271.041 181.386 270.937 181.372 270.829 181.358 C 270.077 181.245 269.321 181.133 268.569 181.015 C 268.376 180.987 268.376 180.987 268.183 180.954 C 266.082 180.63 263.986 180.258 261.9 179.859 C 261.528 179.788 261.157 179.723 260.786 179.652 C 259.935 179.492 259.08 179.328 258.229 179.168 C 258.102 179.145 257.975 179.116 257.848 179.093 C 255.404 178.628 252.965 178.139 250.526 177.636 C 248.369 177.194 246.207 176.757 244.036 176.362 C 243.368 176.235 242.701 176.108 242.029 175.982 C 236.892 174.995 231.745 174.102 226.562 173.397 C 226.43 173.383 226.303 173.364 226.171 173.345 C 222.741 172.875 219.31 172.475 215.855 172.208 C 215.639 172.194 215.639 172.194 215.423 172.175 C 211.964 171.912 208.519 171.85 205.055 171.846 C 204.942 171.846 204.834 171.846 204.726 171.846 C 201.403 171.846 198.095 171.869 194.781 172.203 C 194.687 172.212 194.593 172.222 194.499 172.231 C 189.123 172.762 183.826 173.82 178.675 175.465 C 178.567 175.502 178.454 175.535 178.341 175.573 C 177.199 175.939 176.081 176.334 174.971 176.795 C 174.746 176.889 174.516 176.973 174.285 177.063 C 168.598 179.239 163.292 182.528 158.813 186.645 C 158.588 186.852 158.358 187.054 158.123 187.252 C 157.253 188.013 156.426 188.85 155.679 189.729 C 155.467 189.973 155.251 190.208 155.035 190.443 C 152.953 192.755 151.228 195.382 149.729 198.104 C 149.677 198.193 149.625 198.287 149.574 198.386 C 147.158 202.799 145.64 207.532 144.723 212.466 C 144.704 212.556 144.69 212.65 144.672 212.744 C 144.554 213.336 144.47 213.933 144.394 214.534 C 144.376 214.708 144.376 214.708 144.352 214.882 C 144.079 217.119 144.037 219.356 144.037 221.608 C 144.037 221.828 144.037 222.049 144.037 222.275 C 144.032 224.103 144.094 225.913 144.263 227.731 C 144.296 228.107 144.324 228.479 144.357 228.85 C 144.667 232.445 145.419 236.144 146.575 239.566 C 146.575 239.495 146.575 239.425 146.575 239.354 C 146.603 229.09 148.027 219.394 158 202.893 C 158.09 202.78 158.179 202.672 158.273 202.559 C 159.688 200.858 161.215 199.166 162.907 197.732 C 163.151 197.526 163.382 197.309 163.617 197.093 C 164.167 196.6 164.745 196.144 165.327 195.693 C 165.591 195.491 165.854 195.279 166.112 195.068 C 168.049 193.484 170.14 192.126 172.274 190.824 C 172.499 190.687 172.72 190.546 172.946 190.41 C 173.801 189.874 174.652 189.376 175.559 188.934 C 175.846 188.798 176.123 188.657 176.4 188.507 C 177.467 187.924 178.553 187.402 179.662 186.904 C 179.732 186.876 179.798 186.848 179.869 186.815 C 182.143 185.8 184.479 184.935 186.853 184.164 C 186.951 184.131 187.055 184.098 187.158 184.065 C 188.723 183.558 190.288 183.102 191.886 182.716 C 192.286 182.622 192.676 182.514 193.071 182.406 C 193.71 182.232 194.354 182.096 195.007 181.974 C 195.341 181.913 195.66 181.828 195.984 181.739 C 197.037 181.476 198.113 181.316 199.185 181.147 C 199.359 181.118 199.359 181.118 199.542 181.086 C 202.334 180.644 205.135 180.31 207.95 180.038 C 208.105 180.023 208.105 180.023 208.26 180.005 C 211.315 179.709 214.37 179.68 217.439 179.676 C 217.641 179.676 217.843 179.676 218.041 179.676 C 222.017 179.666 225.96 179.821 229.913 180.244 C 230.143 180.268 230.378 180.291 230.608 180.32 C 232.873 180.555 235.134 180.827 237.39 181.147 C 237.517 181.165 237.639 181.18 237.771 181.198 C 239.143 181.391 240.506 181.617 241.864 181.899 C 242.503 182.03 243.143 182.134 243.791 182.242 C 245.295 182.491 246.785 182.796 248.275 183.111 C 248.449 183.144 248.623 183.182 248.796 183.219 C 248.876 183.233 248.961 183.252 249.046 183.271 C 249.511 183.365 249.976 183.45 250.446 183.525 C 250.949 183.605 251.433 183.727 251.922 183.868 C 252.552 184.037 253.191 184.173 253.83 184.314 C 254.131 184.38 254.432 184.451 254.737 184.516 C 254.812 184.535 254.887 184.554 254.963 184.568 C 255.635 184.719 256.307 184.874 256.974 185.029 C 257.087 185.052 257.2 185.08 257.313 185.109 C 257.848 185.231 258.384 185.358 258.92 185.48 C 261.237 186.016 263.554 186.547 265.876 187.054 C 266.379 187.167 266.886 187.28 267.394 187.397 C 267.741 187.477 268.089 187.553 268.437 187.632 C 268.602 187.67 268.766 187.708 268.926 187.745 C 269.889 187.961 270.848 188.154 271.826 188.3 C 272.282 188.37 272.7 188.483 273.137 188.634 C 273.419 188.699 273.701 188.76 273.988 188.817 C 274.11 188.84 274.11 188.84 274.237 188.864 C 274.509 188.92 274.782 188.977 275.054 189.028 C 275.153 189.047 275.247 189.066 275.346 189.085 C 281.221 190.25 287.114 191.247 293.074 191.867 C 293.356 191.895 293.638 191.928 293.92 191.956 C 296.514 192.238 299.108 192.252 301.712 192.252 C 301.796 192.252 301.881 192.252 301.966 192.252 C 304.743 192.252 307.502 192.182 310.27 191.933 C 310.369 191.923 310.472 191.914 310.576 191.905 C 312.879 191.698 315.177 191.378 317.433 190.857 C 317.729 190.795 318.03 190.753 318.331 190.706 C 319.722 190.513 321.075 190.175 322.433 189.832 C 322.542 189.804 322.654 189.776 322.762 189.747 C 324.215 189.39 325.643 188.967 327.063 188.502 C 327.331 188.417 327.599 188.337 327.866 188.258 C 329.986 187.628 332.031 186.81 334.061 185.95 C 334.442 185.79 334.822 185.635 335.203 185.48 C 345.749 181.25 345.749 181.25 353.405 173.594 C 354.167 172.02 355.516 171.051 357.132 170.455 C 358.434 170.055 359.59 170.187 360.798 170.821 C 361.719 171.395 362.401 172.147 362.655 173.218 C 362.871 174.529 362.645 175.714 361.893 176.813 C 361.766 176.983 361.635 177.152 361.503 177.316 C 361.423 177.429 361.339 177.547 361.254 177.664 C 360.159 178.806 358.716 179.436 357.161 179.558 C 354.693 179.751 352.86 180.808 350.816 182.12 C 349.721 182.815 348.593 183.45 347.465 184.093 C 347.183 184.258 346.901 184.422 346.624 184.587 C 345.533 185.226 344.424 185.832 343.31 186.425 C 343.24 186.462 343.164 186.5 343.089 186.542 C 341.679 187.289 340.255 188.018 338.808 188.695 C 338.718 188.737 338.634 188.779 338.545 188.817 C 338.371 188.901 338.197 188.981 338.023 189.066 C 337.802 189.169 337.581 189.273 337.365 189.376 C 337.031 189.531 336.697 189.686 336.364 189.837 C 336.213 189.907 336.063 189.982 335.913 190.048 C 334.277 190.814 332.604 191.472 330.912 192.093 C 330.503 192.243 330.104 192.407 329.704 192.581 C 328.731 192.986 327.725 193.3 326.72 193.625 C 326.616 193.658 326.513 193.695 326.41 193.728 C 324.769 194.259 323.129 194.748 321.456 195.162 C 321.291 195.204 321.127 195.246 320.962 195.288 C 320.676 195.364 320.394 195.434 320.107 195.5 C 319.844 195.566 319.581 195.632 319.313 195.702 C 317.353 196.21 315.374 196.586 313.377 196.919 C 313.297 196.933 313.217 196.943 313.132 196.957 C 312.573 197.051 312.009 197.14 311.445 197.23 C 311.356 197.244 311.271 197.258 311.187 197.272 C 303.836 198.437 296.039 198.39 288.651 197.587 C 288.378 197.559 288.106 197.53 287.829 197.502 C 286.705 197.389 285.577 197.262 284.454 197.121 C 284.374 197.112 284.294 197.103 284.21 197.093 C 282.118 196.835 280.036 196.543 277.954 196.224 C 277.86 196.21 277.766 196.196 277.668 196.181 C 277.404 196.139 277.141 196.102 276.878 196.059 C 276.803 196.05 276.723 196.036 276.643 196.022 C 276.102 195.937 276.102 195.937 275.858 195.815 C 275.562 195.768 275.271 195.721 274.975 195.679 C 273.804 195.5 272.643 195.284 271.483 195.063 C 271.135 195.002 270.792 194.936 270.449 194.87 C 269.448 194.682 268.451 194.49 267.459 194.255 C 266.924 194.132 266.383 194.052 265.847 193.968 C 265.048 193.836 264.259 193.7 263.479 193.503 C 263.112 193.418 262.75 193.347 262.384 193.282 C 261.627 193.141 260.875 192.995 260.118 192.849 C 259.944 192.812 259.944 192.812 259.771 192.779 C 259.526 192.732 259.282 192.685 259.033 192.633 C 257.862 192.403 256.687 192.173 255.513 191.942 C 255.362 191.914 255.216 191.881 255.066 191.858 C 254.164 191.679 253.266 191.5 252.364 191.327 C 252.002 191.256 251.645 191.186 251.283 191.115 C 249.666 190.795 248.044 190.504 246.409 190.25 C 245.854 190.166 245.304 190.062 244.755 189.954 C 241.78 189.376 238.786 188.934 235.778 188.563 C 235.468 188.525 235.162 188.483 234.857 188.446 C 231.623 188.032 228.39 187.698 225.137 187.463 C 224.827 187.435 224.512 187.412 224.198 187.388 C 218.304 186.913 212.251 186.833 206.362 187.412 C 206.089 187.44 205.821 187.463 205.549 187.487 C 203.565 187.67 201.601 187.896 199.641 188.253 C 199.359 188.305 199.072 188.352 198.79 188.399 C 196.703 188.728 194.654 189.226 192.605 189.724 C 192.427 189.766 192.427 189.766 192.243 189.808 C 190.88 190.147 189.546 190.584 188.211 191.03 C 188.131 191.054 188.046 191.082 187.962 191.11 C 186.481 191.604 185.015 192.13 183.572 192.727 C 183.502 192.76 183.426 192.788 183.351 192.816 C 182.989 192.971 182.632 193.127 182.28 193.31 C 181.965 193.474 181.641 193.611 181.307 193.738 C 180.701 193.977 180.127 194.273 179.544 194.579 C 179.441 194.635 179.328 194.692 179.22 194.753 C 178.891 194.922 178.567 195.1 178.243 195.274 C 178.144 195.321 178.05 195.373 177.951 195.425 C 177.072 195.899 176.222 196.374 175.413 196.966 C 175.169 197.14 174.915 197.281 174.652 197.427 C 173.087 198.362 171.611 199.532 170.234 200.726 C 170.164 200.783 170.098 200.844 170.027 200.905 C 169.891 201.018 169.759 201.135 169.623 201.253 C 169.318 201.52 169.045 201.755 168.664 201.911 C 168.664 201.981 168.664 202.056 168.664 202.127 C 168.523 202.268 168.523 202.268 168.321 202.432 C 167.344 203.264 166.441 204.195 165.619 205.177 C 165.529 205.276 165.445 205.374 165.356 205.478 C 160.745 210.817 157.427 217.378 155.716 224.221 C 155.683 224.338 155.655 224.456 155.622 224.578 C 155.044 226.867 154.696 229.165 154.433 231.51 C 154.41 231.703 154.391 231.9 154.367 232.098 C 153.888 236.229 154.118 240.543 154.574 244.665 C 154.584 244.782 154.598 244.9 154.612 245.022 C 154.626 245.13 154.635 245.234 154.649 245.346 C 154.659 245.44 154.673 245.53 154.682 245.628 C 154.739 245.887 154.833 246.08 154.955 246.31 C 154.96 246.249 154.964 246.183 154.969 246.117 C 155.345 241.431 155.843 236.816 157.074 232.267 C 157.131 232.055 157.187 231.844 157.244 231.632 C 158.085 228.474 159.241 225.447 160.613 222.477 C 160.66 222.378 160.703 222.275 160.75 222.172 C 162.197 219.027 163.997 216.118 166.051 213.336 C 166.126 213.237 166.202 213.134 166.277 213.03 C 167.174 211.804 168.185 210.676 169.209 209.552 C 169.491 209.238 169.764 208.918 170.037 208.594 C 170.187 208.439 170.187 208.439 170.408 208.439 C 170.408 208.368 170.408 208.298 170.408 208.222 C 170.478 208.222 170.549 208.222 170.624 208.222 C 170.624 208.152 170.624 208.077 170.624 208.006 C 170.774 207.861 170.774 207.861 170.986 207.687 C 171.367 207.362 171.724 207.019 172.072 206.657 C 172.542 206.183 173.035 205.746 173.557 205.332 C 173.801 205.139 174.036 204.942 174.276 204.745 C 176.348 203.02 178.614 201.492 180.964 200.172 C 181.034 200.129 181.105 200.087 181.18 200.045 C 182.28 199.415 183.398 198.837 184.55 198.31 C 184.832 198.184 185.114 198.052 185.391 197.92 C 185.659 197.794 185.931 197.667 186.199 197.544 C 186.336 197.479 186.472 197.418 186.608 197.356 C 187.764 196.816 188.949 196.402 190.166 196.012 C 190.73 195.829 191.294 195.641 191.853 195.439 C 193.188 194.96 194.556 194.602 195.933 194.259 C 196.027 194.236 196.121 194.212 196.219 194.189 C 197.164 193.949 198.104 193.723 199.067 193.573 C 199.349 193.531 199.627 193.479 199.909 193.423 C 204.656 192.454 209.515 192.05 214.356 192.074 C 214.624 192.074 214.892 192.079 215.16 192.079 C 221.18 192.097 227.088 192.624 233.01 193.728 C 233.442 193.808 233.874 193.879 234.307 193.944 C 234.448 193.968 234.448 193.968 234.589 193.987 C 234.767 194.015 234.951 194.043 235.129 194.067 C 235.571 194.132 235.942 194.226 236.356 194.4 C 236.572 194.457 236.793 194.504 237.014 194.546 C 237.15 194.574 237.282 194.602 237.418 194.631 C 237.489 194.645 237.564 194.659 237.634 194.678 C 239.763 195.115 241.845 195.693 243.932 196.29 C 244.181 196.355 244.426 196.426 244.67 196.496 C 246.32 196.962 247.96 197.455 249.586 198.014 C 250 198.155 250.413 198.287 250.836 198.409 C 251.659 198.663 252.472 198.954 253.28 199.25 C 253.534 199.34 253.788 199.429 254.041 199.523 C 255.085 199.899 256.114 200.294 257.139 200.712 C 257.331 200.792 257.524 200.867 257.717 200.942 C 257.848 200.994 257.848 200.994 257.975 201.046 C 258.149 201.116 258.318 201.187 258.492 201.253 C 260.053 201.873 261.589 202.545 263.122 203.227 C 263.357 203.33 263.592 203.433 263.827 203.537 C 266.101 204.547 268.352 205.586 270.585 206.686 C 270.669 206.728 270.754 206.77 270.843 206.817 C 271.003 206.892 271.163 206.972 271.318 207.047 C 271.647 207.212 271.981 207.372 272.319 207.513 C 272.742 207.696 273.151 207.898 273.56 208.105 C 273.729 208.19 273.894 208.269 274.058 208.354 C 274.185 208.42 274.185 208.42 274.317 208.486 C 275.548 209.106 276.784 209.722 278.029 210.309 C 278.744 210.643 279.444 210.991 280.149 211.348 C 282.156 212.358 284.163 213.359 286.198 214.318 C 286.348 214.389 286.499 214.459 286.654 214.534 C 287.152 214.769 287.655 215.004 288.158 215.244 C 288.237 215.282 288.317 215.319 288.402 215.357 C 288.632 215.47 288.867 215.578 289.102 215.686 C 289.206 215.737 289.206 215.737 289.309 215.784 C 289.756 215.996 290.207 216.189 290.658 216.386 C 290.869 216.485 291.076 216.583 291.288 216.682 C 291.4 216.739 291.513 216.795 291.635 216.851 C 291.753 216.908 291.87 216.964 291.993 217.025 C 293.097 217.561 294.206 218.078 295.339 218.562 C 295.945 218.83 296.551 219.103 297.153 219.37 C 297.863 219.69 298.577 219.996 299.296 220.292 C 299.653 220.442 300.011 220.597 300.363 220.752 C 300.781 220.931 301.19 221.1 301.623 221.236 C 301.97 221.344 302.281 221.485 302.6 221.655 C 303.136 221.932 303.681 222.096 304.259 222.266 C 304.612 222.378 304.922 222.529 305.246 222.703 C 305.566 222.858 305.904 222.942 306.243 223.036 C 306.543 223.13 306.816 223.243 307.103 223.37 C 308.043 223.765 309.011 224.089 309.974 224.418 C 310.073 224.451 310.172 224.484 310.27 224.517 C 311.854 225.057 313.443 225.546 315.05 225.983 C 315.647 226.148 316.239 226.331 316.831 226.514 C 317.25 226.627 317.654 226.679 318.081 226.726 C 318.081 226.796 318.081 226.867 318.081 226.942 C 318.298 226.932 318.509 226.928 318.721 226.918 C 318.988 226.947 319.153 227.036 319.388 227.158 C 319.623 227.2 319.623 227.2 319.867 227.214 C 320.159 227.233 320.389 227.276 320.666 227.37 C 321.103 227.511 321.536 227.581 321.987 227.647 C 322.532 227.731 323.059 227.83 323.59 227.971 C 324.215 228.112 324.849 228.201 325.484 228.3 C 325.559 228.314 325.639 228.324 325.714 228.338 C 327.119 228.554 328.524 228.7 329.944 228.789 C 330.249 228.812 330.545 228.831 330.851 228.855 C 330.964 228.859 331.076 228.864 331.194 228.874 C 331.467 228.902 331.467 228.902 331.796 229.01 C 333.483 229.184 335.194 229.137 336.89 229.137 C 337.041 229.137 337.191 229.137 337.341 229.137 C 339.127 229.137 340.913 229.123 342.699 229.024 C 342.774 229.019 342.85 229.015 342.929 229.01 C 343.71 228.963 344.462 228.883 345.223 228.733 C 345.702 228.648 346.186 228.62 346.671 228.587 C 347.69 228.507 348.687 228.366 349.697 228.187 C 350.322 228.079 350.943 227.985 351.572 227.915 C 352.292 227.83 352.973 227.675 353.669 227.487 C 354.209 227.351 354.745 227.252 355.295 227.177 C 355.99 227.078 356.648 226.9 357.32 226.702 C 357.823 226.561 358.321 226.439 358.834 226.345 C 359.811 226.143 360.77 225.852 361.71 225.527 C 362.227 225.358 362.758 225.226 363.284 225.095 C 363.637 224.996 363.971 224.874 364.314 224.742 C 364.882 224.536 365.465 224.366 366.043 224.188 C 366.64 224 367.223 223.793 367.801 223.553 C 368.266 223.365 368.619 223.238 369.122 223.238 C 369.122 223.168 369.122 223.097 369.122 223.022 C 369.206 222.994 369.286 222.961 369.375 222.928 C 370.602 222.454 371.321 221.852 372.134 220.823 C 373.182 219.568 374.578 218.609 376.232 218.426 C 377.628 218.336 379.019 218.388 380.119 219.338 C 381.012 220.193 381.529 221.114 381.572 222.369 C 381.557 223.582 381.064 224.47 380.223 225.306 C 380.171 225.372 380.115 225.433 380.063 225.499 C 379.461 226.185 378.644 226.561 377.83 226.942 C 377.741 226.984 377.647 227.026 377.558 227.069 C 376.533 227.454 375.029 227.468 374.019 227.05 C 372.557 226.914 371.274 227.158 369.883 227.595 C 369.747 227.633 369.61 227.675 369.469 227.713 C 368.999 227.858 368.534 228.004 368.074 228.178 C 367.5 228.399 366.908 228.577 366.321 228.756 C 366.208 228.789 366.095 228.827 365.982 228.864 C 365.874 228.897 365.766 228.93 365.653 228.963 C 365.559 228.991 365.46 229.024 365.362 229.052 C 365.094 229.118 365.094 229.118 364.661 229.118 C 364.661 229.188 364.661 229.259 364.661 229.334 C 364.53 229.367 364.398 229.405 364.262 229.437 C 363.444 229.654 362.622 229.865 361.809 230.105 C 361.226 230.274 360.638 230.424 360.046 230.57 C 359.506 230.706 358.965 230.843 358.43 230.984 C 356.629 231.458 354.844 231.919 353.001 232.206 C 352.386 232.304 351.779 232.422 351.173 232.563 C 349.758 232.887 348.32 233.052 346.882 233.23 C 346.765 233.244 346.652 233.258 346.534 233.273 C 346.313 233.301 346.097 233.324 345.876 233.352 C 345.387 233.409 344.913 233.479 344.433 233.578 C 343.442 233.766 342.431 233.794 341.426 233.86 C 341.111 233.879 340.8 233.898 340.486 233.921 C 340.293 233.935 340.1 233.945 339.903 233.959 C 339.437 233.987 338.967 234.025 338.502 234.072 C 337.854 234.133 337.21 234.137 336.556 234.137 C 336.373 234.137 336.373 234.137 336.18 234.137 C 335.781 234.137 335.382 234.137 334.977 234.137 C 334.841 234.137 334.705 234.137 334.564 234.137 C 328.943 234.128 328.943 234.128 327.063 233.846 C 326.48 233.771 325.893 233.743 325.3 233.714 C 325.014 233.696 324.783 233.649 324.501 233.578 C 324.187 233.545 323.867 233.517 323.552 233.489 C 322.368 233.381 321.207 233.183 320.032 232.981 C 319.444 232.878 318.852 232.788 318.26 232.704 C 317.658 232.61 317.658 232.61 317.541 232.492 C 317.212 232.427 316.888 232.365 316.559 232.309 C 315.327 232.079 314.115 231.792 312.898 231.491 C 312.522 231.402 312.146 231.308 311.77 231.219 C 309.918 230.768 308.094 230.255 306.29 229.649 C 305.928 229.527 305.566 229.409 305.199 229.297 C 305.091 229.259 305.091 229.259 304.983 229.226 C 304.682 229.127 304.381 229.033 304.085 228.935 C 303.028 228.601 301.994 228.234 300.969 227.816 C 300.358 227.572 299.747 227.351 299.118 227.149 C 298.76 227.026 298.408 226.89 298.055 226.744 C 297.792 226.636 297.524 226.533 297.261 226.434 C 297.13 226.383 297.13 226.383 297.003 226.331 C 296.829 226.27 296.66 226.204 296.49 226.138 C 296.096 225.988 295.71 225.823 295.334 225.631 C 294.911 225.414 294.479 225.25 294.032 225.09 C 293.511 224.902 293.013 224.705 292.524 224.442 C 292.242 224.305 291.96 224.197 291.664 224.089 C 290.898 223.798 290.141 223.478 289.384 223.149 C 289.163 223.055 288.942 222.961 288.722 222.867 C 288.581 222.806 288.44 222.745 288.299 222.679 C 288.172 222.627 288.045 222.571 287.913 222.515 C 287.612 222.369 287.612 222.369 287.392 222.153 C 287.227 222.087 287.058 222.031 286.889 221.974 C 286.268 221.758 285.695 221.476 285.107 221.17 C 284.628 220.921 284.139 220.715 283.636 220.517 C 283.223 220.353 282.819 220.174 282.414 219.991 C 282.325 219.949 282.236 219.911 282.142 219.869 C 281.113 219.399 280.088 218.919 279.063 218.44 C 278.448 218.148 277.827 217.862 277.202 217.589 C 276.681 217.354 276.164 217.115 275.642 216.87 C 275.445 216.781 275.247 216.687 275.05 216.598 C 274.326 216.259 273.602 215.916 272.893 215.549 C 272.573 215.394 272.253 215.267 271.92 215.145 C 270.82 214.736 269.767 214.215 268.724 213.684 C 268.348 213.496 267.972 213.341 267.577 213.2 C 267.366 213.12 267.173 213.021 266.971 212.918 C 266.59 212.72 266.205 212.57 265.805 212.419 C 265.274 212.222 264.781 211.992 264.278 211.733 C 263.836 211.517 263.371 211.353 262.91 211.179 C 262.652 211.08 262.412 210.972 262.167 210.84 C 261.702 210.601 261.213 210.427 260.72 210.243 C 260.029 209.99 259.343 209.722 258.657 209.454 C 258.553 209.411 258.445 209.369 258.337 209.327 C 257.787 209.115 257.242 208.89 256.706 208.66 C 256.532 208.589 256.363 208.523 256.194 208.453 C 255.809 208.302 255.428 208.143 255.052 207.978 C 254.159 207.607 253.242 207.297 252.331 206.977 C 252.157 206.916 251.988 206.859 251.814 206.798 C 251.475 206.676 251.132 206.559 250.789 206.441 C 250.286 206.267 249.788 206.089 249.285 205.915 C 249.215 205.887 249.14 205.863 249.064 205.835 C 248.627 205.68 248.195 205.52 247.762 205.36 C 247.311 205.186 246.855 205.031 246.4 204.871 C 246.306 204.834 246.207 204.801 246.108 204.763 C 245.116 204.416 244.101 204.134 243.086 203.847 C 242.564 203.701 242.038 203.546 241.512 203.396 C 237.949 202.362 234.396 201.455 230.758 200.726 C 230.345 200.646 229.931 200.557 229.518 200.468 C 229.381 200.44 229.381 200.44 229.24 200.407 C 229.015 200.36 228.789 200.308 228.564 200.261 C 228.004 200.148 227.44 200.078 226.872 200.007 C 226.491 199.955 226.115 199.904 225.734 199.852 C 224.122 199.626 222.51 199.438 220.889 199.279 C 220.795 199.269 220.706 199.26 220.612 199.25 C 214.004 198.592 207.194 198.785 200.694 200.2 C 200.369 200.27 200.05 200.336 199.725 200.402 C 198.32 200.693 196.957 201.065 195.594 201.502 C 195.251 201.61 194.908 201.708 194.565 201.807 C 193.935 202 193.329 202.244 192.723 202.493 C 192.38 202.634 192.032 202.766 191.679 202.893 C 190.655 203.264 189.673 203.715 188.69 204.195 C 188.606 204.237 188.526 204.279 188.441 204.317 C 184.813 206.089 181.396 208.288 178.416 211.014 C 178.186 211.221 177.961 211.418 177.73 211.616 C 177.209 212.072 176.72 212.551 176.236 213.04 C 176.142 213.129 176.052 213.223 175.958 213.317 C 175.409 213.872 174.892 214.431 174.412 215.047 C 174.224 215.286 174.022 215.507 173.815 215.733 C 172.65 217.025 171.672 218.515 170.732 219.977 C 170.666 220.085 170.596 220.193 170.521 220.301 C 167.405 225.269 165.144 230.824 163.786 236.53 C 163.762 236.624 163.744 236.718 163.715 236.816 C 163.588 237.347 163.527 237.822 163.551 238.367 C 163.598 238.264 163.645 238.156 163.692 238.043 C 163.753 237.897 163.819 237.747 163.885 237.596 C 163.927 237.493 163.927 237.493 163.974 237.39 C 164.326 236.581 164.702 235.787 165.074 234.993 C 165.106 234.922 165.139 234.852 165.172 234.781 C 166.14 232.727 167.142 230.725 168.34 228.789 C 168.401 228.686 168.467 228.587 168.533 228.479 C 169.642 226.688 170.821 224.963 172.119 223.309 C 172.26 223.126 172.401 222.942 172.546 222.759 C 174.041 220.827 175.686 219.041 177.411 217.312 C 177.547 217.171 177.547 217.171 177.688 217.035 C 179.211 215.512 179.211 215.512 179.544 215.512 C 179.544 215.441 179.544 215.371 179.544 215.296 C 179.92 214.943 180.339 214.638 180.743 214.318 C 180.818 214.257 180.893 214.196 180.973 214.135 C 181.866 213.425 182.764 212.73 183.723 212.109 C 183.995 211.931 184.258 211.747 184.522 211.555 C 185.414 210.92 186.387 210.394 187.341 209.849 C 187.581 209.712 187.821 209.571 188.06 209.43 C 189.221 208.754 190.415 208.161 191.675 207.682 C 191.914 207.583 192.145 207.485 192.375 207.376 C 193.071 207.066 193.785 206.812 194.504 206.559 C 194.574 206.53 194.65 206.502 194.725 206.479 C 196.083 205.995 197.455 205.605 198.851 205.252 C 199.1 205.186 199.335 205.106 199.58 205.017 C 200.402 204.735 201.281 204.618 202.136 204.467 C 202.23 204.448 202.324 204.434 202.423 204.416 C 206.117 203.767 209.764 203.504 213.515 203.523 C 213.863 203.523 214.21 203.523 214.558 203.523 C 216.687 203.523 218.797 203.532 220.912 203.795 C 221.091 203.814 221.091 203.814 221.27 203.837 C 221.519 203.866 221.772 203.899 222.021 203.931 C 222.374 203.974 222.726 204.016 223.079 204.054 C 224.682 204.242 226.27 204.448 227.849 204.796 C 228.62 204.965 229.386 205.106 230.166 205.224 C 230.476 205.285 230.476 205.285 230.773 205.384 C 231.153 205.511 231.534 205.609 231.924 205.703 C 233.959 206.216 235.961 206.794 237.954 207.447 C 238.114 207.499 238.114 207.499 238.278 207.555 C 239.862 208.077 241.427 208.636 242.978 209.252 C 243.237 209.35 243.495 209.454 243.754 209.557 C 243.88 209.604 244.007 209.656 244.134 209.708 C 244.628 209.9 245.116 210.084 245.61 210.272 C 246.08 210.46 246.526 210.69 246.978 210.925 C 247.471 211.174 247.969 211.4 248.472 211.63 C 251.109 212.842 253.698 214.121 256.213 215.573 C 256.645 215.822 257.082 216.062 257.519 216.301 C 258.314 216.743 259.094 217.199 259.865 217.669 C 260.095 217.81 260.32 217.946 260.551 218.083 C 261.589 218.712 262.609 219.361 263.629 220.024 C 263.916 220.212 264.207 220.4 264.494 220.588 C 265.763 221.405 267.018 222.247 268.24 223.13 C 268.352 223.21 268.465 223.295 268.578 223.375 C 268.865 223.586 269.151 223.793 269.438 224.004 C 269.636 224.145 269.833 224.286 270.03 224.432 C 271.092 225.208 272.136 226.002 273.16 226.824 C 273.555 227.149 273.959 227.464 274.364 227.778 C 274.918 228.211 275.463 228.653 276.008 229.099 C 276.196 229.254 276.384 229.409 276.577 229.564 C 277.235 230.1 277.879 230.645 278.518 231.205 C 278.922 231.557 279.331 231.905 279.75 232.239 C 280.257 232.652 280.737 233.085 281.221 233.531 C 281.503 233.78 281.789 234.02 282.081 234.25 C 282.692 234.744 283.256 235.275 283.82 235.81 C 284.247 236.215 284.68 236.609 285.126 236.995 C 285.394 237.23 285.662 237.474 285.925 237.714 C 286.259 238.019 286.588 238.32 286.931 238.612 C 287.429 239.049 287.913 239.505 288.397 239.956 C 289.215 240.722 290.038 241.478 290.869 242.226 C 291.292 242.602 291.711 242.987 292.129 243.373 C 292.721 243.922 293.323 244.468 293.924 245.008 C 294.103 245.168 294.286 245.332 294.469 245.497 C 294.559 245.577 294.648 245.657 294.742 245.741 C 295.555 246.474 295.555 246.474 295.828 246.719 C 296.006 246.883 296.19 247.043 296.368 247.208 C 296.848 247.635 297.327 248.068 297.802 248.5 C 298.135 248.806 298.464 249.106 298.807 249.398 C 299.132 249.68 299.447 249.971 299.761 250.262 C 300.344 250.808 300.936 251.325 301.562 251.823 C 301.909 252.114 302.243 252.42 302.577 252.735 C 303.089 253.214 303.615 253.67 304.165 254.112 C 304.527 254.403 304.88 254.704 305.227 255.005 C 305.293 255.061 305.359 255.113 305.425 255.174 C 305.552 255.282 305.683 255.395 305.815 255.507 C 306.651 256.227 307.497 256.936 308.372 257.613 C 308.936 258.055 309.476 258.511 310.017 258.976 C 310.331 259.249 310.665 259.498 310.999 259.747 C 311.304 259.972 311.6 260.203 311.896 260.438 C 313.255 261.504 314.636 262.548 316.06 263.525 C 316.286 263.685 316.507 263.84 316.733 264 C 318.674 265.396 320.69 266.679 322.734 267.924 C 322.946 268.056 323.162 268.188 323.373 268.319 C 325.272 269.485 327.232 270.585 329.258 271.501 C 329.643 271.68 330.01 271.882 330.376 272.093 C 330.715 272.276 331.072 272.408 331.429 272.544 C 331.655 272.634 331.866 272.732 332.082 272.845 C 333.229 273.433 334.437 273.907 335.649 274.354 C 335.96 274.467 336.27 274.589 336.575 274.716 C 338.775 275.604 341.059 276.253 343.334 276.906 C 343.644 277 343.954 277.089 344.264 277.183 C 345.298 277.489 346.313 277.742 347.371 277.912 C 347.662 277.959 347.944 278.01 348.231 278.076 C 351.384 278.795 354.609 279.223 357.823 279.524 C 357.974 279.538 357.974 279.538 358.124 279.552 C 358.415 279.58 358.702 279.604 358.993 279.632 C 359.116 279.641 359.116 279.641 359.247 279.655 C 360.845 279.792 362.434 279.848 364.036 279.843 C 364.234 279.843 364.431 279.843 364.624 279.843 C 365.037 279.843 365.446 279.843 365.855 279.843 C 366.372 279.843 366.889 279.843 367.406 279.843 C 372.976 280.092 372.976 280.092 377.99 278.161 C 379.494 277.16 381.327 276.99 383.08 277.287 C 384.302 277.569 385.402 278.217 386.097 279.284 C 386.666 280.356 386.826 281.371 386.488 282.55 C 385.975 283.927 384.965 284.708 383.686 285.328 C 382.793 285.69 381.957 285.765 380.998 285.779 C 380.885 285.784 380.768 285.789 380.65 285.793 C 379.922 285.789 379.504 285.657 378.921 285.22 C 378.592 284.975 378.239 284.839 377.854 284.698 C 377.788 284.675 377.722 284.646 377.652 284.618 C 376.463 284.181 375.213 284.148 373.958 284.162 C 373.723 284.162 373.488 284.162 373.253 284.162 C 372.571 284.167 371.899 284.176 371.222 284.223 C 370.137 284.294 369.065 284.308 367.98 284.308 C 367.792 284.308 367.604 284.308 367.416 284.308 C 367.03 284.308 366.64 284.308 366.245 284.308 C 365.752 284.308 365.258 284.308 364.765 284.308 C 364.38 284.308 363.994 284.308 363.609 284.308 C 363.425 284.308 363.242 284.308 363.064 284.308 C 361.776 284.308 360.502 284.261 359.219 284.186 C 359.219 284.111 359.219 284.04 359.219 283.965 C 359.12 283.97 359.022 283.97 358.923 283.97 C 357.908 283.979 356.921 283.927 355.915 283.824 C 355.76 283.81 355.605 283.791 355.455 283.777 C 355.003 283.735 354.552 283.688 354.106 283.641 C 353.988 283.627 353.871 283.617 353.748 283.603 C 346.802 282.865 340.034 281.324 333.426 279.068 C 333.323 279.035 333.215 278.997 333.107 278.96 C 332.162 278.64 331.232 278.32 330.334 277.888 C 330.028 277.752 329.718 277.644 329.399 277.536 C 327.57 276.901 325.789 276.041 324.069 275.153 C 323.796 275.017 323.524 274.88 323.251 274.744 C 323.016 274.626 322.781 274.504 322.546 274.387 C 322.391 274.312 322.391 274.312 322.231 274.232 C 318.988 272.601 315.887 270.73 312.86 268.728 C 312.714 268.634 312.569 268.54 312.428 268.446 C 311.473 267.816 310.543 267.163 309.612 266.505 C 309.377 266.336 309.138 266.167 308.898 266.002 C 307.949 265.335 307.023 264.653 306.111 263.944 C 305.867 263.751 305.622 263.563 305.378 263.38 C 304.146 262.43 302.929 261.467 301.726 260.48 C 301.458 260.264 301.19 260.048 300.922 259.836 C 299.719 258.868 298.525 257.895 297.36 256.88 C 296.824 256.41 296.274 255.949 295.729 255.489 C 295.377 255.193 295.024 254.892 294.672 254.596 C 294.375 254.347 294.079 254.093 293.779 253.844 C 293.215 253.369 292.655 252.89 292.115 252.391 C 291.635 251.95 291.137 251.541 290.63 251.132 C 290.221 250.789 289.826 250.427 289.436 250.065 C 289.145 249.802 288.844 249.553 288.538 249.304 C 288.012 248.881 287.514 248.439 287.02 247.983 C 286.456 247.466 285.878 246.968 285.286 246.489 C 284.797 246.094 284.327 245.675 283.862 245.252 C 283.575 244.999 283.284 244.754 282.988 244.515 C 282.593 244.2 282.217 243.875 281.846 243.537 C 281.385 243.119 280.91 242.724 280.426 242.334 C 280.06 242.033 279.703 241.723 279.341 241.417 C 278.796 240.943 278.241 240.477 277.677 240.022 C 277.357 239.763 277.038 239.495 276.723 239.232 C 276.239 238.828 275.75 238.433 275.261 238.038 C 274.97 237.808 274.678 237.568 274.387 237.333 C 273.33 236.468 272.258 235.618 271.177 234.777 C 271.102 234.715 271.022 234.654 270.942 234.589 C 269.631 233.564 268.315 232.553 266.957 231.59 C 266.548 231.299 266.139 230.998 265.739 230.697 C 265.091 230.208 264.433 229.734 263.77 229.268 C 263.549 229.109 263.324 228.949 263.098 228.789 C 262.21 228.159 261.317 227.539 260.405 226.942 C 260.283 226.862 260.161 226.777 260.038 226.693 C 258.896 225.931 257.75 225.184 256.598 224.437 C 256.514 224.385 256.434 224.333 256.349 224.277 C 253.891 222.689 251.348 221.236 248.759 219.869 C 248.665 219.817 248.571 219.765 248.472 219.714 C 248.035 219.483 247.598 219.253 247.161 219.027 C 246.86 218.868 246.564 218.708 246.263 218.543 C 245.507 218.13 244.74 217.758 243.946 217.42 C 243.509 217.232 243.086 217.035 242.668 216.814 C 242.094 216.522 241.512 216.297 240.91 216.076 C 240.492 215.925 240.083 215.761 239.679 215.568 C 238.974 215.239 238.245 214.995 237.512 214.741 C 237.193 214.633 236.878 214.52 236.563 214.412 C 233.245 213.242 229.842 212.184 226.374 211.559 C 226.016 211.489 226.016 211.489 225.908 211.376 C 225.678 211.338 225.448 211.306 225.222 211.277 C 224.743 211.212 224.263 211.141 223.789 211.056 C 222.966 210.92 222.144 210.821 221.317 210.718 C 221.161 210.699 221.011 210.68 220.856 210.662 C 220.433 210.61 220.015 210.558 219.596 210.507 C 219.521 210.497 219.446 210.488 219.366 210.478 C 218.746 210.408 218.13 210.366 217.505 210.337 C 217.402 210.333 217.298 210.333 217.19 210.328 C 216.076 210.281 214.958 210.262 213.839 210.262 C 213.736 210.262 213.632 210.262 213.524 210.262 C 211.611 210.262 209.736 210.37 207.842 210.619 C 207.72 210.633 207.593 210.648 207.466 210.666 C 206.042 210.859 204.665 211.141 203.279 211.536 C 202.94 211.625 202.602 211.7 202.259 211.78 C 201.375 211.996 200.515 212.283 199.65 212.57 C 199.547 212.603 199.547 212.603 199.443 212.64 C 198.621 212.908 197.817 213.204 197.023 213.543 C 196.929 213.585 196.84 213.623 196.741 213.665 C 196.647 213.707 196.553 213.745 196.454 213.787 C 196.196 213.881 196.196 213.881 195.872 213.881 C 195.872 213.952 195.872 214.027 195.872 214.097 C 195.815 214.116 195.764 214.135 195.707 214.158 C 194.664 214.544 193.696 215.094 192.713 215.625 C 192.619 215.672 192.525 215.723 192.427 215.775 C 190.509 216.809 188.681 218.007 186.947 219.323 C 186.848 219.399 186.848 219.399 186.74 219.479 C 184.178 221.434 181.532 223.671 179.554 226.218 C 179.328 226.505 179.093 226.777 178.853 227.055 C 178.21 227.793 177.627 228.559 177.068 229.362 C 176.936 229.55 176.804 229.738 176.668 229.922 C 173.627 234.109 171.287 238.771 169.426 243.593 C 169.374 243.725 169.322 243.857 169.271 243.993 C 168.603 245.722 168.002 247.471 167.466 249.252 C 167.414 249.426 167.414 249.426 167.358 249.609 C 166.286 253.233 165.628 256.927 165.106 260.668 C 165.059 261.002 165.008 261.34 164.961 261.674 C 164.89 262.177 164.82 262.679 164.745 263.182 C 164.876 263.145 165.008 263.107 165.144 263.074 C 166.032 262.853 166.864 262.872 167.687 263.29 C 167.757 263.323 167.828 263.361 167.903 263.399 C 168.763 263.883 169.449 264.625 169.755 265.575 C 169.863 266.03 169.952 266.486 170.037 266.947 C 170.06 267.069 170.088 267.191 170.112 267.318 C 170.154 267.544 170.196 267.769 170.239 267.995 C 170.276 268.192 170.319 268.385 170.356 268.582 C 170.586 269.776 170.427 270.768 169.755 271.778 C 169.482 272.098 169.482 272.098 169.209 272.323 C 169.054 272.464 169.054 272.464 168.895 272.605 C 168.298 273.061 167.856 273.202 167.113 273.254 C 166.939 273.268 166.939 273.268 166.761 273.282 C 166.672 273.287 166.582 273.296 166.488 273.301 C 166.516 273.447 166.516 273.447 166.549 273.592 C 166.794 274.833 167.043 276.069 167.292 277.305 C 167.311 277.409 167.33 277.507 167.353 277.611 C 167.856 280.125 168.359 282.644 168.848 285.168 C 169.13 286.592 169.412 288.021 169.698 289.445 C 169.712 289.53 169.731 289.609 169.745 289.694 C 169.882 290.366 170.018 291.043 170.149 291.715 C 170.535 293.637 170.92 295.555 171.277 297.482 C 171.611 299.286 171.982 301.082 172.349 302.877 C 172.687 304.536 173.026 306.191 173.341 307.854 C 173.613 309.255 173.89 310.655 174.172 312.051 C 174.224 312.305 174.271 312.554 174.323 312.803 C 174.346 312.902 174.365 313.001 174.384 313.104 C 174.746 314.899 175.098 316.699 175.451 318.499 C 175.479 318.631 175.503 318.763 175.531 318.899 C 175.85 320.525 176.17 322.156 176.485 323.782 C 176.504 323.862 176.518 323.937 176.532 324.022 C 176.682 324.783 176.828 325.549 176.974 326.311 C 177.18 327.396 177.392 328.482 177.622 329.563 C 177.904 330.883 178.149 332.209 178.398 333.539 C 178.656 334.888 178.924 336.232 179.22 337.571 C 179.394 338.366 179.549 339.165 179.695 339.964 C 179.723 340.114 179.723 340.114 179.751 340.264 C 179.817 340.626 179.873 340.955 179.873 341.317 C 179.939 341.303 180.01 341.284 180.08 341.27 C 181.669 340.922 181.669 340.922 182.369 341.289 C 182.792 341.599 182.792 341.599 182.919 341.97 C 183.159 344.715 182.36 347.305 180.621 349.438 C 178.947 351.356 176.682 352.869 174.107 353.179 C 172.622 353.278 171.071 353.32 169.647 352.85 C 169.529 352.818 169.416 352.78 169.299 352.742 C 166.427 351.718 164.439 349.866 163.067 347.135 C 162.799 346.529 162.634 346.003 162.789 345.345 C 163.071 344.828 163.306 344.673 163.866 344.494 C 164.298 344.377 164.735 344.32 165.182 344.254 C 165.158 344.132 165.13 344.01 165.106 343.878 C 165.003 343.399 164.904 342.915 164.806 342.431 C 164.763 342.224 164.721 342.022 164.679 341.815 C 164.383 340.396 164.11 338.972 163.842 337.548 C 163.579 336.157 163.311 334.766 163.034 333.379 C 163.006 333.252 163.006 333.252 162.982 333.125 C 162.879 332.608 162.775 332.091 162.672 331.579 C 162.512 330.804 162.357 330.028 162.202 329.253 C 162.178 329.126 162.178 329.126 162.15 328.999 C 161.887 327.669 161.624 326.339 161.37 325.009 C 161.22 324.224 161.065 323.448 160.895 322.668 C 160.651 321.503 160.421 320.337 160.195 319.171 C 159.908 317.677 159.612 316.182 159.312 314.688 C 158.71 311.675 158.123 308.658 157.54 305.641 C 157.291 304.353 157.032 303.065 156.774 301.782 C 156.609 300.945 156.44 300.109 156.271 299.277 C 156.257 299.183 156.238 299.089 156.214 298.995 C 155.947 297.651 155.683 296.307 155.425 294.963 C 154.992 292.744 154.546 290.526 154.095 288.312 C 153.159 283.753 153.159 283.753 152.779 281.751 C 152.76 281.648 152.741 281.549 152.722 281.446 C 152.624 280.938 152.53 280.435 152.436 279.928 C 152.398 279.74 152.361 279.547 152.328 279.359 C 152.299 279.223 152.299 279.223 152.276 279.082 C 152.149 278.414 152.008 277.747 151.853 277.08 C 151.797 276.784 151.797 276.784 151.797 276.347 C 151.67 276.384 151.547 276.422 151.416 276.459 C 150.241 276.708 149.113 276.732 148.055 276.116 C 146.772 275.19 146.42 273.954 146.152 272.464 C 146.11 272.234 146.067 272.004 146.02 271.778 C 145.734 270.256 145.63 268.977 146.505 267.628 C 147.134 266.834 147.99 266.43 148.967 266.228 C 149.113 266.228 149.254 266.228 149.404 266.228 C 149.273 265.951 149.146 265.673 149.014 265.396 C 148.981 265.321 148.944 265.246 148.906 265.17 C 148.671 264.663 148.427 264.165 148.173 263.666 C 147.736 262.802 147.346 261.923 146.956 261.039 C 146.918 260.955 146.881 260.87 146.843 260.781 C 145.518 257.792 144.249 254.784 142.98 251.771 C 141.184 247.508 139.38 243.25 137.476 239.035 C 137.335 238.715 137.189 238.395 137.048 238.076 C 136.663 237.211 136.268 236.351 135.841 235.505 C 133.467 230.805 131.512 225.969 129.924 220.954 C 129.9 220.884 129.877 220.813 129.853 220.743 C 128.706 217.133 127.893 213.402 127.362 209.661 C 127.315 209.346 127.268 209.031 127.216 208.716 C 127.127 208.119 127.052 207.517 126.986 206.916 C 126.972 206.794 126.953 206.676 126.939 206.549 C 126.648 204.091 126.624 201.629 126.62 199.156 C 126.62 198.903 126.615 198.644 126.615 198.39 C 126.568 188.121 129.134 177.951 137.974 165.238 C 138.035 165.167 138.092 165.101 138.148 165.031 C 138.755 164.307 139.365 163.607 140.047 162.954 C 140.249 162.747 140.432 162.54 140.616 162.319 C 141.114 161.741 141.687 161.238 142.251 160.726 C 142.43 160.561 142.613 160.392 142.792 160.228 C 143.492 159.56 144.22 158.945 144.986 158.357 C 145.245 158.16 145.499 157.953 145.748 157.751 C 147.576 156.242 149.559 154.936 151.58 153.7 C 151.67 153.648 151.759 153.592 151.853 153.535 C 155.279 151.439 158.94 149.625 162.681 148.149 C 162.78 148.112 162.879 148.074 162.982 148.032 C 167.25 146.359 171.672 145 176.175 144.126 C 176.297 144.098 176.424 144.074 176.555 144.046 C 183.817 142.603 191.172 142.086 198.569 142.162 C 198.912 142.166 199.26 142.166 199.608 142.171 C 208.383 142.232 217.073 143.355 225.664 145.099 C 226.275 145.221 226.886 145.343 227.501 145.461 C 229.428 145.842 231.351 146.227 233.263 146.683 C 234.006 146.857 234.753 147.021 235.501 147.186 C 236.751 147.458 237.996 147.74 239.242 148.032 C 239.359 148.06 239.477 148.083 239.599 148.112 C 239.843 148.168 240.083 148.229 240.327 148.281 C 242.306 148.741 244.289 149.193 246.277 149.601 C 247.133 149.775 247.983 149.963 248.839 150.156 C 250.042 150.433 251.25 150.692 252.462 150.946 C 252.57 150.969 252.679 150.993 252.791 151.016 C 256.8 151.848 260.828 152.59 264.875 153.201 C 265.269 153.263 265.664 153.324 266.059 153.389 C 268.653 153.803 271.252 154.113 273.87 154.32 C 273.955 154.325 274.039 154.334 274.124 154.339 C 276.173 154.499 278.222 154.588 280.276 154.593 C 280.375 154.593 280.469 154.593 280.567 154.593 C 281.08 154.597 281.587 154.597 282.099 154.597 C 282.513 154.597 282.922 154.602 283.336 154.602 C 286.813 154.621 290.235 154.452 293.685 153.968 C 294.075 153.911 294.469 153.864 294.864 153.812 C 297.195 153.502 299.461 153.013 301.74 152.454 C 301.961 152.398 302.187 152.341 302.407 152.29 C 304.175 151.857 305.909 151.345 307.634 150.762 C 307.704 150.739 307.77 150.72 307.84 150.692 C 311.191 149.564 314.453 148.248 317.649 146.734 C 317.757 146.683 317.87 146.631 317.983 146.579 C 319.609 145.818 321.197 145.005 322.762 144.126 C 322.866 144.065 322.969 144.009 323.073 143.947 C 325.376 142.669 327.631 141.325 329.836 139.882 C 329.972 139.793 329.972 139.793 330.108 139.704 C 331.603 138.721 332.421 137.772 333.234 136.179 C 334.117 134.468 335.466 133.556 337.257 132.945 C 338.54 132.593 339.978 132.658 341.082 133.42 Z" fill="#010101" style="stroke-width: 1;" id="object-0"/></svg>