<?xml version="1.0" encoding="UTF-8" standalone="no"?>
<svg
   viewBox="126.6144 132.7397 260.0493 220.5028"
   width="260.049px"
   height="220.503px"
   preserveAspectRatio="none"
   version="1.1"
   id="svg1"
   sodipodi:docname="flogger.svg"
   inkscape:version="1.4.2 (ebf0e940, 2025-05-08)"
   xmlns:inkscape="http://www.inkscape.org/namespaces/inkscape"
   xmlns:sodipodi="http://sodipodi.sourceforge.net/DTD/sodipodi-0.dtd"
   xmlns="http://www.w3.org/2000/svg"
   xmlns:svg="http://www.w3.org/2000/svg">
  <defs
     id="defs1" />
  <sodipodi:namedview
     id="namedview1"
     pagecolor="#ffffff"
     bordercolor="#000000"
     borderopacity="0.25"
     inkscape:showpageshadow="2"
     inkscape:pageopacity="0.0"
     inkscape:pagecheckerboard="0"
     inkscape:deskcolor="#d1d1d1"
     inkscape:zoom="2.4600156"
     inkscape:cx="85.771815"
     inkscape:cy="100.40587"
     inkscape:window-width="1712"
     inkscape:window-height="971"
     inkscape:window-x="0"
     inkscape:window-y="39"
     inkscape:window-maximized="1"
     inkscape:current-layer="svg1" />
  <path
     id="object-0"
     style="stroke-width:1;fill:#ff368a"
     d="m 341.082,133.42 c 5.21497,10.35019 -12.18249,9.03423 -17.24687,15.12714 -22.06273,12.88145 -48.86269,14.48239 -73.35799,8.7437 -29.13493,-5.66437 -60.85057,-13.81152 -89.3537,-1.15153 -18.74328,8.05874 -29.3037,29.11175 -26.76457,49.09919 0.2716,4.593 2.44879,17.19872 3.08447,5.2184 3.30473,-22.83289 23.72708,-38.48699 45.14953,-43.31228 26.68679,-6.93654 54.00522,0.0728 80.11013,6.09738 22.33494,5.40319 46.97858,5.73531 67.62212,-5.57263 8.81708,-0.6907 14.8855,-18.58405 22.25788,-9.61737 -4.24135,8.75433 -17.91609,10.30279 -26.26738,16.37562 -22.46599,11.15237 -48.37755,9.38145 -72.1305,3.95113 -27.4255,-5.41692 -57.59952,-11.97632 -84.08696,0.52048 -18.32884,8.36497 -28.45896,29.19416 -25.83516,48.83177 0.0979,4.4879 3.05896,18.09554 2.52214,5.8608 1.85725,-16.21023 9.21795,-33.29215 23.89816,-41.77814 26.27294,-16.57592 59.42404,-13.62726 88.2367,-6.33366 23.96841,5.79759 49.97089,11.12083 73.61475,1.10484 11.72505,-1.31178 18.1681,-14.63206 28.26325,-15.76384 6.02574,10.61823 -14.25675,10.3485 -19.83563,16.82375 -20.10839,10.86039 -43.87286,12.74965 -65.98737,8.03425 -29.97157,-5.34254 -62.04064,-14.83764 -91.624,-2.863 -19.97185,7.38732 -31.73891,29.43731 -28.93646,50.29498 0.99242,8.07571 1.27823,-11.27763 3.51773,-13.82407 5.7712,-20.42512 24.79883,-34.23891 45.55595,-36.48686 28.75651,-4.04672 56.30072,7.75927 81.18834,20.79134 20.22222,10.02655 42.03554,18.78975 65.02044,14.59561 10.53309,-0.7985 19.89266,-5.74925 28.5895,-9.695 9.67285,8.72721 -7.28078,8.83291 -12.9245,10.56 -21.50876,7.31618 -46.10749,6.71069 -67.307,-2.308 -28.94859,-11.75657 -57.47414,-29.6435 -89.94472,-27.63991 -19.45681,0.88201 -37.92753,14.05594 -43.13722,33.18154 -4.10957,14.10174 3.67444,-6.83203 7.57294,-9.52663 11.30976,-15.62051 31.92647,-21.55046 50.533,-18.705 29.23591,3.71518 52.72275,23.53344 73.289,43.154 17.30019,16.4022 38.18944,31.34926 62.879,32.447 9.27124,3.20841 21.37445,-6.35196 27.38562,1.22188 -2.65362,9.57331 -13.45874,0.74001 -20.38762,3.43112 -22.38183,0.42002 -45.36438,-7.61414 -62.70388,-22.36412 -24.47454,-19.64949 -47.43377,-45.12386 -79.75212,-50.88788 -19.82808,-4.15057 -40.84931,5.78677 -50.2581,23.76015 -4.91478,8.70355 -7.70262,18.46039 -8.7859,28.36585 9.34006,-0.31531 3.78413,9.71525 2.174,12.26838 4.43034,21.8661 8.60472,44.34789 13.161,65.81962 10.74214,6.56119 -14.74178,20.12009 -17.31063,4.9895 5.22638,-5.54231 -2.30374,-17.23037 -2.23112,-25.33963 -3.13456,-14.54425 -5.55828,-30.75852 -9.12225,-44.46087 -8.02593,1.08875 -5.21747,-9.92586 -2.51,-11.289 -6.29228,-14.82835 -13.46445,-29.32514 -19.053,-44.427 -7.187,-21.62678 -2.89288,-48.55823 15.895,-62.992 24.74066,-19.07456 58.59576,-17.95289 87.515,-11.068 25.84914,5.98595 53.94427,13.24121 79.53962,2.17475 11.25382,-1.89127 18.6962,-14.67043 28.27938,-15.43775 z" />
</svg>
