<?xml version="1.0" encoding="utf-8"?>
<svg xmlns="http://www.w3.org/2000/svg" viewBox="152.559 137.1712 177.651 173.9578" width="177.651px" height="173.958px" preserveAspectRatio="none"><g id="object-0"><path style="stroke: rgb(0, 0, 0); fill:none;" d="M 168.627 285.145 C 161.932 283.939 180.324 302.619 201.276 307.331 C 213.577 312.326 273.763 312.709 285.99 306.587 C 298.993 302.295 327.084 288.459 320.028 287.316"/><polygon style="stroke: rgb(0, 0, 0);" points="218.572 168.124 152.559 193.341 168.814 195.307 154.084 207.102 192.952 219.698 162.276 228.652 174.04 237.468 159.707 246.823 178.809 248.539 162.606 258.163 330.21 232.914 307.449 227.105 320.053 217.084 302.113 217.084 326.977 203.68 299.266 198.02 321.007 181.496 297.372 183.048 316.413 158.923 291.963 161.596 303.938 152.27"/><ellipse style="stroke: rgb(0, 0, 0); fill:none;" cx="244.131" cy="275.336" rx="75.645" ry="23.136"/><line style="stroke: rgb(0, 0, 0); fill:none;" x1="168.979" y1="275.875" x2="167.529" y2="289.45"/><line style="stroke: rgb(0, 0, 0); fill:none;" x1="320.272" y1="276.98" x2="320.272" y2="290.27"/><text style="fill:none; font-family: Arial, sans-serif; font-size: 28px; stroke: rgb(255, 255, 255); white-space: pre; transform-box: fill-box; transform-origin: 50% 50%;" transform="matrix(1.262732, -0.187379, 0.111276, 0.74988, -5.140316, 50.133896)"><tspan x="204.164" y="136.779">GIRLS</tspan><tspan x="204.164" dy="1em">​</tspan><tspan>GIRLS</tspan><tspan x="204.164" dy="1em">​</tspan><tspan>GIRLS</tspan></text><line style="stroke: rgb(0, 0, 0); fill:none; stroke-width: 6px; transform-box: fill-box; transform-origin: 50% 50%;" x1="243.988" y1="272.558" x2="249.871" y2="137.235" transform="matrix(0.998978, -0.045203, 0.045203, 0.998978, 0, 0)"/></g></svg>