<?xml version="1.0" encoding="UTF-8" standalone="no"?>
<svg
   viewBox="258.5002 244.8457 142.531 101.9658"
   width="142.531px"
   height="101.966px"
   preserveAspectRatio="none"
   version="1.1"
   id="svg4"
   sodipodi:docname="lotion.svg"
   inkscape:version="1.4.2 (ebf0e940, 2025-05-08)"
   xmlns:inkscape="http://www.inkscape.org/namespaces/inkscape"
   xmlns:sodipodi="http://sodipodi.sourceforge.net/DTD/sodipodi-0.dtd"
   xmlns="http://www.w3.org/2000/svg"
   xmlns:svg="http://www.w3.org/2000/svg">
  <defs
     id="defs4" />
  <sodipodi:namedview
     id="namedview4"
     pagecolor="#ffffff"
     bordercolor="#000000"
     borderopacity="0.25"
     inkscape:showpageshadow="2"
     inkscape:pageopacity="0.0"
     inkscape:pagecheckerboard="0"
     inkscape:deskcolor="#d1d1d1"
     inkscape:zoom="1.8961022"
     inkscape:cx="135.27752"
     inkscape:cy="46.411"
     inkscape:window-width="1712"
     inkscape:window-height="971"
     inkscape:window-x="0"
     inkscape:window-y="39"
     inkscape:window-maximized="1"
     inkscape:current-layer="svg4" />
  <g
     id="g3"
     transform="matrix(1.994554,0,0,1.269159,305.2926,285.89188)"
     style="fill:#ff368a;fill-opacity:1">
    <path
       d="m 2,42 a 3,3 0 0 0 3,3 h 38 a 3,3 0 0 0 3,-3 V 36 H 2 Z"
       id="path1"
       style="fill:#ff368a;fill-opacity:1" />
    <path
       d="m 43,17 h -4.8 l -2.8,8 H 36 a 2,2 0 0 1 2,2 1.7,1.7 0 0 1 -0.6,1.4 A 2,2 0 0 1 36,29 H 12 A 2,2 0 0 1 10,27 1.7,1.7 0 0 1 10.6,25.6 2.3,2.3 0 0 1 11.8,25 L 7.6,17 H 5 A 2.9,2.9 0 0 0 2,20 V 33 H 46 V 20 a 2.9,2.9 0 0 0 -3,-3 z"
       id="path2"
       style="fill:#ff368a;fill-opacity:1" />
    <path
       d="M 14.8,25 H 32.5 L 38.9,5.6 A 2.1,2.1 0 0 0 38.3,3.4 2,2 0 0 0 36,3.3 L 29.6,7.5 A 4.4,4.4 0 0 1 24.7,7.2 L 24.1,6.8 A 7.9,7.9 0 0 0 13.5,7.5 l -3.9,4.6 a 2,2 0 0 0 -0.4,2.3 z"
       id="path3"
       style="fill:#ff368a;fill-opacity:1" />
  </g>
  <path
     d="m 269.7002,271.54569 c 0,0 -11.2,11.9 -11.2,40.6 v 24.4 c 0,3 2.4,5.4 5.4,5.4 h 27.9 c 3,0 5.4,-2.4 5.4,-5.4 v -24.4 c 0,-28.7 -11.2,-40.6 -11.2,-40.6 z m 3.3,6.4 c -3.8,3.8 -8,18.2 -8,34.8 0,0.6 -0.4,1 -1,1 -0.6,0 -1,-0.4 -1,-1 0,-17.3 4.3,-32 8.5,-36.2 0.4,-0.4 1,-0.4 1.4,0 0.4,0.4 0.4,1 0.1,1.4 z m 21.4,-33.1 h -17.3 c -1.6,0 -2.9,1.3 -2.9,2.9 0,0.1 0,0.1 0,0.2 v 7.6 h -1.9 c -1.4,0 -2.6,1.2 -2.6,2.6 v 9.3 h 16.5 v -9.3 c 0,-1.4 -1.2,-2.6 -2.6,-2.6 h -1.9 v -7.5 c 0,-0.1 0,-0.1 0,-0.2 h 15.7 c -0.1,-1.6 -1.4,-3 -3,-3 z m -1.1,13.4 v 0.4 c 0,1.1 0.9,2 2,2 1.1,0 2,-0.9 2,-2 v -0.4 c 0,-3.6 -2,-7 -2,-7 0,0 -2,3.4 -2,7 z m 0,12.8 v 0.4 c 0,1.1 0.9,2 2,2 1.1,0 2,-0.9 2,-2 v -0.4 c 0,-3.6 -2,-7 -2,-7 0,0 -2,3.4 -2,7 z"
     style="stroke-width:1;fill:#ff368a;fill-opacity:1"
     id="path4" />
</svg>
