<?xml version="1.0" encoding="utf-8"?>
<svg xmlns="http://www.w3.org/2000/svg" viewBox="258.5002 244.8457 142.531 101.9658" width="142.531px" height="101.966px" preserveAspectRatio="none"><g id="object-0"><g id="Layer_2" data-name="Layer 2" transform="matrix(1.994554, 0, 0, 1.269159, 305.292603, 285.891876)" style=""><g id="invisible_box" data-name="invisible box"><rect width="48" height="48" fill="none"/></g><g id="Layer_4" data-name="Layer 4"><g><path d="M2,42a3,3,0,0,0,3,3H43a3,3,0,0,0,3-3V36H2Z"/><path d="M43,17H38.2l-2.8,8H36a2,2,0,0,1,2,2,1.7,1.7,0,0,1-.6,1.4A2,2,0,0,1,36,29H12a2,2,0,0,1-2-2,1.7,1.7,0,0,1,.6-1.4,2.3,2.3,0,0,1,1.2-.6L7.6,17H5a2.9,2.9,0,0,0-3,3V33H46V20A2.9,2.9,0,0,0,43,17Z"/><path d="M14.8,25H32.5L38.9,5.6a2.1,2.1,0,0,0-.6-2.2A2,2,0,0,0,36,3.3L29.6,7.5a4.4,4.4,0,0,1-4.9-.3l-.6-.4a7.9,7.9,0,0,0-10.6.7L9.6,12.1a2,2,0,0,0-.4,2.3Z"/></g></g></g><g id="Layer_1" transform="matrix(1, 0, 0, 1, -197.531799, -32.154308)"><path d="M 467.232 303.7 C 467.232 303.7 456.032 315.6 456.032 344.3 L 456.032 368.7 C 456.032 371.7 458.432 374.1 461.432 374.1 L 489.332 374.1 C 492.332 374.1 494.732 371.7 494.732 368.7 L 494.732 344.3 C 494.732 315.6 483.532 303.7 483.532 303.7 L 467.232 303.7 Z M 470.532 310.1 C 466.732 313.9 462.532 328.3 462.532 344.9 C 462.532 345.5 462.132 345.9 461.532 345.9 C 460.932 345.9 460.532 345.5 460.532 344.9 C 460.532 327.6 464.832 312.9 469.032 308.7 C 469.432 308.3 470.032 308.3 470.432 308.7 C 470.832 309.1 470.832 309.7 470.532 310.1 Z M 491.932 277 L 474.632 277 C 473.032 277 471.732 278.3 471.732 279.9 C 471.732 280 471.732 280 471.732 280.1 L 471.732 287.7 L 469.832 287.7 C 468.432 287.7 467.232 288.9 467.232 290.3 L 467.232 299.6 L 483.732 299.6 L 483.732 290.3 C 483.732 288.9 482.532 287.7 481.132 287.7 L 479.232 287.7 L 479.232 280.2 C 479.232 280.1 479.232 280.1 479.232 280 L 494.932 280 C 494.832 278.4 493.532 277 491.932 277 Z M 490.832 290.4 L 490.832 290.8 C 490.832 291.9 491.732 292.8 492.832 292.8 C 493.932 292.8 494.832 291.9 494.832 290.8 L 494.832 290.4 C 494.832 286.8 492.832 283.4 492.832 283.4 C 492.832 283.4 490.832 286.8 490.832 290.4 Z M 490.832 303.2 L 490.832 303.6 C 490.832 304.7 491.732 305.6 492.832 305.6 C 493.932 305.6 494.832 304.7 494.832 303.6 L 494.832 303.2 C 494.832 299.6 492.832 296.2 492.832 296.2 C 492.832 296.2 490.832 299.6 490.832 303.2 Z" style="stroke-width: 1;"/></g></g></svg>