<?xml version="1.0" encoding="UTF-8" standalone="no"?>
<svg
   viewBox="222.2249 141.237 23.115352 43.053218"
   width="23.115353"
   height="43.053219"
   version="1.1"
   id="svg10"
   sodipodi:docname="lovehotel.svg"
   inkscape:version="1.4.2 (ebf0e940, 2025-05-08)"
   xmlns:inkscape="http://www.inkscape.org/namespaces/inkscape"
   xmlns:sodipodi="http://sodipodi.sourceforge.net/DTD/sodipodi-0.dtd"
   xmlns="http://www.w3.org/2000/svg"
   xmlns:svg="http://www.w3.org/2000/svg">
  <defs
     id="defs10" />
  <sodipodi:namedview
     id="namedview10"
     pagecolor="#ffffff"
     bordercolor="#000000"
     borderopacity="0.25"
     inkscape:showpageshadow="2"
     inkscape:pageopacity="0.0"
     inkscape:pagecheckerboard="0"
     inkscape:deskcolor="#d1d1d1"
     inkscape:zoom="9.9287684"
     inkscape:cx="8.7120574"
     inkscape:cy="23.87003"
     inkscape:window-width="896"
     inkscape:window-height="245"
     inkscape:window-x="0"
     inkscape:window-y="39"
     inkscape:window-maximized="0"
     inkscape:current-layer="svg10" />
  <rect
     x="232.97643"
     y="167.54272"
     width="1.5901846"
     height="3.9846003"
     stroke-linecap="round"
     stroke-linejoin="round"
     stroke-miterlimit="10"
     stroke-width="2"
     style="fill:#ff368a;fill-opacity:1;stroke-width:1.59019"
     id="rect2" />
  <rect
     x="239.35544"
     y="167.54272"
     width="1.5901846"
     height="3.9846003"
     stroke-linecap="round"
     stroke-linejoin="round"
     stroke-miterlimit="10"
     stroke-width="2"
     style="fill:#ff368a;fill-opacity:1;stroke-width:1.59019"
     id="rect3" />
  <rect
     x="239.35544"
     y="176.30701"
     width="1.5901846"
     height="3.9846003"
     stroke-linecap="round"
     stroke-linejoin="round"
     stroke-miterlimit="10"
     stroke-width="2"
     style="fill:#ff368a;fill-opacity:1;stroke-width:1.59019"
     id="rect4"
     inkscape:label="rect4" />
  <rect
     x="226.59741"
     y="167.54272"
     width="1.5901846"
     height="3.9846003"
     stroke-linecap="round"
     stroke-linejoin="round"
     stroke-miterlimit="10"
     stroke-width="2"
     style="fill:#ff368a;fill-opacity:1;stroke-width:1.59019"
     id="rect5" />
  <rect
     x="232.97643"
     y="158.76929"
     width="1.5901846"
     height="3.9846003"
     stroke-linecap="round"
     stroke-linejoin="round"
     stroke-miterlimit="10"
     stroke-width="2"
     style="fill:#ff368a;fill-opacity:1;stroke-width:1.59019"
     id="rect6"
     inkscape:label="rect6" />
  <rect
     x="239.35544"
     y="158.76929"
     width="1.5901846"
     height="3.9846003"
     stroke-linecap="round"
     stroke-linejoin="round"
     stroke-miterlimit="10"
     stroke-width="2"
     style="fill:#ff368a;fill-opacity:1;stroke-width:1.59019"
     id="rect7" />
  <rect
     x="226.59741"
     y="158.76929"
     width="1.5901846"
     height="3.9846003"
     stroke-linecap="round"
     stroke-linejoin="round"
     stroke-miterlimit="10"
     stroke-width="2"
     style="fill:#ff368a;fill-opacity:1;stroke-width:1.59019"
     id="rect8" />
  <path
     stroke="none"
     stroke-linecap="round"
     stroke-linejoin="round"
     stroke-width="2"
     d="m 233.77151,154.64762 -3.87494,-4.98076 -0.12794,-0.18277 c -0.65801,-1.0784 -0.31073,-2.48581 0.76767,-3.14382 1.0784,-0.64887 2.47667,-0.31072 3.13468,0.76768 0.0365,0.0639 0.0731,0.12795 0.10053,0.19191 0.54834,-1.13323 1.91919,-1.60846 3.05242,-1.06011 1.13323,0.54833 1.60846,1.91004 1.06013,3.04328 -0.0549,0.12794 -0.12795,0.24675 -0.2102,0.36556 z"
     style="fill:#ff368a;fill-opacity:1;stroke-width:1.59019"
     id="path8" />
  <path
     style="baseline-shift:baseline;display:inline;overflow:visible;vector-effect:none;fill:#ff368a;fill-opacity:1;stroke-width:9.13898;stroke-linecap:round;stroke-linejoin:round;stroke-miterlimit:10;enable-background:accumulate;stop-color:#000000"
     d="m 223.01035,141.237 a 0.79517178,0.79517178 0 0 0 -0.78541,0.78538 v 41.46461 a 0.79517178,0.79517178 0 0 0 0.78541,0.80323 h 21.54446 a 0.79517178,0.79517178 0 0 0 0.7854,-0.80323 v -41.4646 a 0.79517178,0.79517178 0 0 0 -0.7854,-0.78538 z m 0.80322,1.58862 h 19.93799 v 39.87599 h -19.93799 z"
     id="rect9" />
  <rect
     x="226.59741"
     y="175.51192"
     width="7.9692006"
     height="7.9692006"
     stroke-linecap="round"
     stroke-linejoin="round"
     stroke-miterlimit="10"
     stroke-width="2"
     style="fill:#ff368a;fill-opacity:1;stroke-width:1.59019"
     id="rect10" />
  <path
     fill="none"
     stroke-linecap="round"
     stroke-linejoin="round"
     stroke-width="2"
     d="m 233.77151,154.64762 -3.87494,-4.98076 -0.12794,-0.18277 c -0.65801,-1.0784 -0.31073,-2.48581 0.76767,-3.14382 1.0784,-0.64887 2.47667,-0.31072 3.13468,0.76768 0.0365,0.0639 0.0731,0.12795 0.10053,0.19191 0.54834,-1.13323 1.91919,-1.60846 3.05242,-1.06011 1.13323,0.54833 1.60846,1.91004 1.06013,3.04328 -0.0549,0.12794 -0.12795,0.24675 -0.2102,0.36556 z"
     style="fill:#ff368a;fill-opacity:1;stroke-width:1.59019"
     id="path10" />
</svg>
