<?xml version="1.0" encoding="utf-8"?>
<svg xmlns="http://www.w3.org/2000/svg" viewBox="222.2249 141.237 27.0048 52.0036" width="27.0048px" height="52.0036px"><g id="object-0" transform="matrix(11.462120056152344, 0, 0, 11.462120056152344, 76.79348754882814, 37.84869384765625)"><rect x="12.688" y="9.02" width="2.356" height="4.537" stroke="none" stroke-linecap="round" stroke-linejoin="round" stroke-miterlimit="10" stroke-width="2" style="stroke-width: 0.174;"/><rect x="13.778" y="11.812" width="0.174" height="0.436" stroke-linecap="round" stroke-linejoin="round" stroke-miterlimit="10" stroke-width="2" style="stroke-width: 0.174; fill:none;"/><rect x="14.476" y="11.812" width="0.174" height="0.436" stroke-linecap="round" stroke-linejoin="round" stroke-miterlimit="10" stroke-width="2" style="stroke-width: 0.174; fill:none;"/><rect x="14.476" y="12.771" width="0.174" height="0.436" stroke-linecap="round" stroke-linejoin="round" stroke-miterlimit="10" stroke-width="2" style="stroke-width: 0.174; fill:none;"/><rect x="13.08" y="11.812" width="0.174" height="0.436" stroke-linecap="round" stroke-linejoin="round" stroke-miterlimit="10" stroke-width="2" style="stroke-width: 0.174; fill:none;"/><rect x="13.778" y="10.852" width="0.174" height="0.436" stroke-linecap="round" stroke-linejoin="round" stroke-miterlimit="10" stroke-width="2" style="stroke-width: 0.174; fill:none;"/><rect x="14.476" y="10.852" width="0.174" height="0.436" stroke-linecap="round" stroke-linejoin="round" stroke-miterlimit="10" stroke-width="2" style="stroke-width: 0.174; fill:none;"/><rect x="13.08" y="10.852" width="0.174" height="0.436" stroke-linecap="round" stroke-linejoin="round" stroke-miterlimit="10" stroke-width="2" style="stroke-width: 0.174; fill:none;"/><path stroke="none" stroke-linecap="round" stroke-linejoin="round" stroke-width="2" d="M 13.865 10.401 L 13.441 9.856 L 13.427 9.836 C 13.355 9.718 13.393 9.564 13.511 9.492 C 13.629 9.421 13.782 9.458 13.854 9.576 C 13.858 9.583 13.862 9.59 13.865 9.597 C 13.925 9.473 14.075 9.421 14.199 9.481 C 14.323 9.541 14.375 9.69 14.315 9.814 C 14.309 9.828 14.301 9.841 14.292 9.854 L 13.865 10.401 Z" style="stroke-width: 0.174; fill:none;"/><rect x="12.688" y="9.02" width="2.356" height="4.537" fill="none" stroke="#ff368a" stroke-linecap="round" stroke-linejoin="round" stroke-miterlimit="10" stroke-width="2" style="stroke-width: 0.174;"/><rect x="13.08" y="12.684" width="0.872" height="0.872" stroke-linecap="round" stroke-linejoin="round" stroke-miterlimit="10" stroke-width="2" style="stroke-width: 0.174; fill:none;"/><line x1="13.516" x2="13.516" y1="13.557" y2="12.684" fill="none" stroke="#ff368a" stroke-linecap="round" stroke-linejoin="round" stroke-miterlimit="10" stroke-width="2" style="stroke-width: 0.174;"/><path fill="none" stroke-linecap="round" stroke-linejoin="round" stroke-width="2" d="M 13.865 10.401 L 13.441 9.856 L 13.427 9.836 C 13.355 9.718 13.393 9.564 13.511 9.492 C 13.629 9.421 13.782 9.458 13.854 9.576 C 13.858 9.583 13.862 9.59 13.865 9.597 C 13.925 9.473 14.075 9.421 14.199 9.481 C 14.323 9.541 14.375 9.69 14.315 9.814 C 14.309 9.828 14.301 9.841 14.292 9.854 L 13.865 10.401 Z" style="stroke-width: 0.174;"/></g></svg>