<?xml version="1.0" encoding="UTF-8" standalone="no"?>
<svg
   viewBox="155.847 236.372 139.685 121.016"
   width="139.685"
   height="121.016"
   version="1.1"
   id="svg2"
   sodipodi:docname="martini.svg"
   inkscape:version="1.4.2 (ebf0e940, 2025-05-08)"
   xmlns:inkscape="http://www.inkscape.org/namespaces/inkscape"
   xmlns:sodipodi="http://sodipodi.sourceforge.net/DTD/sodipodi-0.dtd"
   xmlns="http://www.w3.org/2000/svg"
   xmlns:svg="http://www.w3.org/2000/svg">
  <defs
     id="defs2">
    <inkscape:path-effect
       effect="fillet_chamfer"
       id="path-effect3"
       is_visible="true"
       lpeversion="1"
       nodesatellites_param="F,0,0,1,0,2.2798389,0,1 @ F,0,0,1,0,0,0,1 @ F,0,0,1,0,2.2798389,0,1 @ F,0,0,1,0,2.2798389,0,1 @ F,0,0,1,0,2.2798389,0,1 @ F,0,0,1,0,2.2798389,0,1 @ F,0,0,1,0,2.2798389,0,1 @ F,0,0,1,0,2.2798389,0,1 @ F,0,0,1,0,2.2798389,0,1 @ F,0,0,1,0,2.2798389,0,1 @ F,0,0,1,0,2.2798389,0,1 @ F,0,0,1,0,2.2798389,0,1 @ F,0,0,1,0,2.2798389,0,1 @ F,0,0,1,0,2.2798389,0,1 @ F,0,0,1,0,0,0,1 @ F,0,0,1,0,2.2798389,0,1 | F,0,0,1,0,2.2798389,0,1 @ F,0,0,1,0,0,0,1 @ F,0,0,1,0,0,0,1 @ F,0,0,1,0,2.2798389,0,1 @ F,0,0,1,0,0,0,1 @ F,0,0,1,0,2.2798389,0,1 | F,0,0,1,0,0,0,1 @ F,0,0,1,0,2.2798389,0,1 @ F,0,0,1,0,2.2798389,0,1 @ F,0,0,1,0,0,0,1 @ F,0,0,1,0,0,0,1 @ F,0,0,1,0,0,0,1 | F,0,0,1,0,2.2798389,0,1 @ F,0,0,1,0,2.2798389,0,1 @ F,0,0,1,0,2.2798389,0,1 @ F,0,0,1,0,2.2798389,0,1 @ F,0,0,1,0,2.2798389,0,1 @ F,0,0,1,0,2.2798389,0,1 @ F,0,0,1,0,2.2798389,0,1 @ F,0,0,1,0,2.2798389,0,1 @ F,0,0,1,0,2.2798389,0,1"
       radius="0"
       unit="px"
       method="auto"
       mode="F"
       chamfer_steps="1"
       flexible="false"
       use_knot_distance="true"
       apply_no_radius="true"
       apply_with_radius="true"
       only_selected="false"
       hide_knots="false" />
    <inkscape:path-effect
       effect="fillet_chamfer"
       id="path-effect2"
       is_visible="true"
       lpeversion="1"
       nodesatellites_param="F,0,1,1,0,1.0558824,0,1 @ F,0,1,1,0,1.0558824,0,1 @ F,0,1,1,0,1.0558824,0,1 @ F,0,0,1,0,1.0558824,0,1 @ F,0,1,1,0,1.0558824,0,1 @ F,0,1,1,0,1.0558824,0,1 | F,0,1,1,0,1.0558824,0,1 @ F,0,1,1,0,1.0558824,0,1 @ F,0,1,1,0,1.0558824,0,1 @ F,0,1,1,0,1.0558824,0,1 @ F,0,1,1,0,1.0558824,0,1 @ F,0,1,1,0,1.0558824,0,1 | F,0,1,1,0,1.0558824,0,1 @ F,0,1,1,0,1.0558824,0,1 @ F,0,1,1,0,1.0558824,0,1 @ F,0,1,1,0,1.0558824,0,1 @ F,0,1,1,0,1.0558824,0,1 @ F,0,1,1,0,1.0558824,0,1 @ F,0,1,1,0,1.0558824,0,1 @ F,0,1,1,0,1.0558824,0,1 | F,0,1,1,0,1.0558824,0,1 @ F,0,1,1,0,1.0558824,0,1 @ F,0,1,1,0,1.0558824,0,1 @ F,0,1,1,0,1.0558824,0,1 @ F,0,1,1,0,1.0558824,0,1 @ F,0,1,1,0,1.0558824,0,1 @ F,0,1,1,0,1.0558824,0,1 @ F,0,1,1,0,1.0558824,0,1 | F,0,1,1,0,1.0558824,0,1 @ F,0,1,1,0,1.0558824,0,1 @ F,0,1,1,0,1.0558824,0,1 @ F,0,1,1,0,1.0558824,0,1 | F,0,1,1,0,1.0558824,0,1 @ F,0,1,1,0,1.0558824,0,1 @ F,0,1,1,0,1.0558824,0,1 @ F,0,1,1,0,1.0558824,0,1"
       radius="0"
       unit="px"
       method="auto"
       mode="F"
       chamfer_steps="1"
       flexible="false"
       use_knot_distance="true"
       apply_no_radius="true"
       apply_with_radius="true"
       only_selected="false"
       hide_knots="false" />
  </defs>
  <sodipodi:namedview
     id="namedview2"
     pagecolor="#ffffff"
     bordercolor="#000000"
     borderopacity="0.25"
     inkscape:showpageshadow="2"
     inkscape:pageopacity="0.0"
     inkscape:pagecheckerboard="0"
     inkscape:deskcolor="#d1d1d1"
     inkscape:zoom="3.7785544"
     inkscape:cx="51.739363"
     inkscape:cy="50.548432"
     inkscape:window-width="1712"
     inkscape:window-height="971"
     inkscape:window-x="0"
     inkscape:window-y="39"
     inkscape:window-maximized="1"
     inkscape:current-layer="object-0" />
  <g
     id="object-0">
    <path
       fill="#ff368a"
       d="M 236.57519,238.36404 228.748,252.426 h -70.62116 a 1.0312837,1.0312837 114.33959 0 0 -0.77452,1.71221 l 0.44536,0.50658 a 10185.768,10185.768 48.666352 0 0 3.01141,3.42375 l 40.52382,46.05192 a 6.0419526,6.0419526 69.326764 0 1 1.50609,3.99138 v 34.68232 a 3.0626351,3.0626351 126.66416 0 1 -2.184,2.9339 l -25.581,7.66088 a 3.0626351,3.0626351 126.66416 0 0 -2.184,2.9339 1.7793585,1.7793585 25.042402 0 0 2.27984,1.06516 h 60.06832 a 2.2798389,2.2798389 135 0 0 2.27984,-2.27984 2.3274027,2.3274027 38.209322 0 0 -2.184,-1.71922 l -25.581,-7.66088 a 3.0626351,3.0626351 53.335842 0 1 -2.184,-2.9339 v -34.68932 a 6.0421444,6.0421444 110.67264 0 1 1.50605,-3.99141 l 40.5159,-46.04486 a 15172.615,15172.615 131.33666 0 0 3.01159,-3.42359 l 0.44492,-0.50596 a 1.0311105,1.0311105 65.664026 0 0 -0.7743,-1.71202 H 234.157 l 6.55333,-11.76144 a 2.2787757,2.2787757 74.112643 0 0 -0.8824,-3.1003 l -0.15186,-0.0845 a 2.2799172,2.2799172 164.10026 0 0 -3.10088,0.8833 z M 168.58184,257.155 H 226.114 l -3.1,5.56 c -0.66925,-0.25554 -1.36561,-0.45562 -2.08366,-0.59264 -1.23497,-0.23565 -3.29754,-0.23614 -4.53305,-0.003 -3.44814,0.65036 -6.40106,2.75438 -8.19629,5.64175 h -30.28716 a 5.0426974,5.0426974 24.32806 0 1 -3.78585,-1.71161 l -6.31998,-7.18278 a 1.0307312,1.0307312 114.32806 0 1 0.77383,-1.71161 z m 62.94216,0 h 10.29416 a 1.0307312,1.0307312 65.67194 0 1 0.77383,1.71161 l -6.31998,7.18278 a 5.0426974,5.0426974 155.67194 0 1 -3.78585,1.71161 H 229.12 c -0.582,-0.937 -1.286,-1.79 -2.088,-2.539 l 4.492,-8.066 z m -10.61322,9.81677 c 2.39407,0.73336 4.26781,2.61261 4.99825,5.01107 0.3655,1.20012 0.3656,3.29424 -1.7e-4,4.49426 -0.73056,2.39682 -2.60414,4.27274 -4.99796,5.00473 -1.19967,0.36684 -3.29408,0.36673 -4.49384,1.8e-4 -2.39547,-0.73187 -4.27239,-2.60795 -5.00431,-5.00501 -0.36636,-1.19983 -0.33468,-2.58833 -0.29275,-3.006 2.28827,1.59032 3.92994,1.60234 4.87422,0.80873 0.14547,-0.12225 0.28016,-0.25693 0.40243,-0.40239 0.79374,-0.94428 0.79403,-3.25326 -0.002,-4.1956 -0.12176,-0.14422 -0.25582,-0.27774 -0.40053,-0.39898 -0.94568,-0.79225 -2.21656,-0.75834 -2.36051,-0.74676 2.19035,-1.3604 2.48278,-1.47088 2.78342,-1.56325 1.19913,-0.36843 3.29389,-0.3684 4.49336,-9.8e-4 z"
       style="stroke-width:1"
       id="path1"
       inkscape:path-effect="#path-effect3"
       inkscape:original-d="m 237.684,236.372 -8.936,16.054 h -72.901 l 3.456,3.931 43.536,49.475 v 39.242 l -29.949,8.969 v 3.345 h 64.628 v -3.345 l -29.949,-8.969 v -39.249 l 43.528,-49.468 3.456,-3.93 h -20.396 l 7.663,-13.753 z m -71.382,20.783 h 59.812 l -3.1,5.56 c -1.354,-0.517 -2.819,-0.807 -4.35,-0.807 -4.403,0 -8.285,2.35 -10.463,5.853 h -32.567 z m 65.222,0 h 12.574 l -9.332,10.606 h -5.646 c -0.582,-0.937 -1.286,-1.79 -2.088,-2.539 l 4.492,-8.066 z m -12.86,9.483 c 4.214,0 7.577,3.373 7.577,7.592 0,4.219 -3.363,7.585 -7.577,7.585 -4.214,0 -7.584,-3.366 -7.584,-7.585 0,-0.256 0.015,-0.51 0.04,-0.759 0.572,0.94 1.595,1.574 2.776,1.574 1.8,0 3.266,-1.465 3.266,-3.266 0,-1.802 -1.467,-3.259 -3.267,-3.259 -0.088,0 -0.174,0.009 -0.261,0.016 1.336,-1.182 3.091,-1.898 5.03,-1.898 z"
       sodipodi:nodetypes="ccccccccccccccccccccsccccccccccsssscssscs" />
    <path
       fill-rule="evenodd"
       clip-rule="evenodd"
       d="m 270.88412,355.97668 -14.22624,-0.004 a 1.0508225,1.0508225 45.155147 0 1 -1.05048,-1.05619 l 0.0542,-10.60926 a 1.0400665,1.0400665 135.7251 0 1 1.06107,-1.03454 l 8.28266,0.16734 a 2.4683142,2.4683142 157.99743 0 0 1.80017,-0.72741 l 19.244,-19.35352 a 1.0283571,1.0283571 0.59404446 0 1 1.47332,0.0153 l 7.28036,7.63198 a 1.0950765,1.0950765 90.306762 0 1 -0.008,1.52018 l -22.1181,22.69466 a 2.502384,2.502384 157.14019 0 1 -1.79283,0.75585 z m 1.58867,-13.02441 -3.56858,3.34646 a 2.836957,2.836957 157.25446 0 1 -1.82522,0.76521 l -5.67798,0.23112 a 1.2404463,1.2404463 137.26432 0 0 -1.18112,1.09126 l -0.34878,2.89936 a 0.97953203,0.97953203 49.711292 0 0 0.92872,1.09554 l 7.76434,0.34756 a 2.3209819,2.3209819 158.10091 0 0 1.7835,-0.71693 l 5.30066,-5.5587 a 1.135934,1.135934 90.730413 0 0 0.0197,-1.54663 l -1.71608,-1.89404 a 1.0379331,1.0379331 2.3309358 0 0 -1.47917,-0.0602 z m -21.41038,-16.92217 -0.11882,-0.1052 c -0.43663,-0.38654 -0.47476,-1.05833 -0.1883,-1.56529 0.35056,-0.62042 0.57578,-1.29719 0.64386,-1.97492 0.0581,-0.57865 -0.0767,-1.53468 -0.31506,-2.065 -0.50543,-1.12466 -1.43292,-1.46855 -2.13236,-2.82011 -0.26757,-0.51703 -0.54493,-1.43832 -0.53435,-2.01885 0.0314,-1.72306 1.15118,-3.82807 2.50511,-5.19206 0.4104,-0.41345 1.13983,-0.36876 1.56458,0.0308 l 0.14886,0.14004 c 0.42475,0.39957 0.37323,1.01812 0.0901,1.52402 -0.31862,0.56941 -0.39933,1.20898 -0.33836,1.84169 0.0558,0.57942 0.34338,1.49687 0.6511,1.99034 0.66404,1.06488 1.62119,1.489 2.11886,2.90057 0.19348,0.54877 0.31654,1.4982 0.26964,2.07823 -0.14932,1.84644 -1.22646,4.03264 -2.71615,5.32339 -0.44001,0.38125 -1.21213,0.29888 -1.64876,-0.0877 z m -4.45852,1.27718 c 0.81862,1.30109 2.45195,2.12933 3.26784,3.75366 0.26101,0.51963 0.46845,1.46065 0.42361,2.03979 -0.1487,1.92028 -1.56322,4.37771 -3.16656,5.7411 -0.44358,0.37719 -1.21384,0.29693 -1.6506,-0.0895 l -0.11836,-0.10472 c -0.43676,-0.3864 -0.44576,-1.02949 -0.11386,-1.50792 0.51711,-0.74543 0.8893,-1.63184 0.99274,-2.44899 0.0729,-0.57551 -0.13549,-1.52575 -0.43736,-2.02178 -0.8235,-1.35317 -2.46974,-2.09392 -3.2919,-3.67651 -0.26799,-0.51585 -0.48004,-1.45511 -0.45717,-2.03604 0.0772,-1.96253 1.41703,-4.19736 2.8659,-5.60657 0.41773,-0.4063 1.14615,-0.36192 1.5709,0.0376 l 0.14886,0.14004 c 0.42475,0.39957 0.38465,1.01938 0.0625,1.5029 -0.44039,0.66098 -0.64654,1.44981 -0.63649,2.26384 0.007,0.58188 0.23086,1.52175 0.53995,2.01302 z m 0.54372,16.99958 0.0658,10.49828 a 1.0363552,1.0363552 135.17579 0 1 -1.04919,1.04277 l -2.0814,-0.0258 a 1.0244103,1.0244103 46.577268 0 1 -1.01077,-1.06801 l 0.44594,-10.44816 a 1.1019109,1.1019109 136.22201 0 1 1.10091,-1.05492 h 1.46624 a 1.0625181,1.0625181 44.820527 0 1 1.06249,1.05586 z m 5.70577,-2.4e-4 0.23424,10.57376 a 1.0198029,1.0198029 134.7268 0 1 -1.03242,1.0423 l -1.7734,-0.0224 a 1.0334383,1.0334383 46.338075 0 1 -1.01981,-1.06859 l 0.35902,-10.52546 a 1.0925114,1.0925114 135.97677 0 1 1.09187,-1.05527 h 1.06124 a 1.0795315,1.0795315 44.365491 0 1 1.07926,1.05562 z"
       fill="#ff368a"
       style="stroke-width:1"
       id="path2"
       inkscape:path-effect="#path-effect2"
       inkscape:original-d="m 271.94,355.977 -16.338,-0.005 0.065,-12.721 10.394,0.21 20.733,-20.851 8.738,9.16 z m 1.303,-13.747 -5.109,4.791 -7.788,0.317 -0.601,4.996 9.874,0.442 6.758,-7.087 z m -21.39,-15.5 -1.7,-1.505 c 0.937,-1.11 1.43,-2.558 1.22,-3.893 -0.371,-2.362 -1.977,-2.131 -2.818,-4.809 -0.665,-2.119 1.179,-5.466 3.163,-6.927 l 1.687,1.587 c -1.203,0.986 -1.19,2.435 -0.802,3.674 0.683,2.183 2.399,2.117 2.799,4.884 0.333,2.298 -1.304,5.716 -3.549,6.989 z m -5.66,-0.39 c 0.519,2.227 3.391,2.944 4.037,5.711 0.529,2.261 -1.717,6.13 -3.961,7.401 l -1.7,-1.504 c 1.134,-1.111 1.94,-2.991 1.633,-4.307 -0.552,-2.361 -3.418,-2.903 -4.057,-5.636 -0.583,-2.496 1.592,-5.879 3.575,-7.341 l 1.687,1.587 c -1.203,0.987 -1.569,2.57 -1.214,4.089 z m 0.948,16.911 0.079,12.61 -4.193,-0.052 0.536,-12.558 z m 5.689,0 0.281,12.685 -3.885,-0.049 0.431,-12.636 z" />
  </g>
</svg>
