<?xml version="1.0" encoding="utf-8"?>
<svg xmlns="http://www.w3.org/2000/svg" viewBox="155.847 236.372 139.685 121.016" width="139.685px" height="121.016px"><g id="object-0"><path fill="#ff368a" d="M 237.684 236.372 L 228.748 252.426 L 155.847 252.426 L 159.303 256.357 L 202.839 305.832 L 202.839 345.074 L 172.89 354.043 L 172.89 357.388 L 237.518 357.388 L 237.518 354.043 L 207.569 345.074 L 207.569 305.825 L 251.097 256.357 L 254.553 252.427 L 234.157 252.427 L 241.82 238.674 L 237.684 236.372 Z M 166.302 257.155 L 226.114 257.155 L 223.014 262.715 C 221.66 262.198 220.195 261.908 218.664 261.908 C 214.261 261.908 210.379 264.258 208.201 267.761 L 175.634 267.761 L 166.302 257.155 Z M 231.524 257.155 L 244.098 257.155 L 234.766 267.761 L 229.12 267.761 C 228.538 266.824 227.834 265.971 227.032 265.222 L 231.524 257.156 L 231.524 257.155 Z M 218.664 266.638 C 222.878 266.638 226.241 270.011 226.241 274.23 C 226.241 278.449 222.878 281.815 218.664 281.815 C 214.45 281.815 211.08 278.449 211.08 274.23 C 211.08 273.974 211.095 273.72 211.12 273.471 C 211.692 274.411 212.715 275.045 213.896 275.045 C 215.696 275.045 217.162 273.58 217.162 271.779 C 217.162 269.977 215.695 268.52 213.895 268.52 C 213.807 268.52 213.721 268.529 213.634 268.536 C 214.97 267.354 216.725 266.638 218.664 266.638 Z" style="stroke-width: 1;"/><path fill-rule="evenodd" clip-rule="evenodd" d="M 271.94 355.977 L 255.602 355.972 L 255.667 343.251 L 266.061 343.461 L 286.794 322.61 L 295.532 331.77 L 271.94 355.977 Z M 273.243 342.23 L 268.134 347.021 L 260.346 347.338 L 259.745 352.334 L 269.619 352.776 L 276.377 345.689 L 273.243 342.23 Z M 251.853 326.73 L 250.153 325.225 C 251.09 324.115 251.583 322.667 251.373 321.332 C 251.002 318.97 249.396 319.201 248.555 316.523 C 247.89 314.404 249.734 311.057 251.718 309.596 L 253.405 311.183 C 252.202 312.169 252.215 313.618 252.603 314.857 C 253.286 317.04 255.002 316.974 255.402 319.741 C 255.735 322.039 254.098 325.457 251.853 326.73 Z M 246.193 326.34 C 246.712 328.567 249.584 329.284 250.23 332.051 C 250.759 334.312 248.513 338.181 246.269 339.452 L 244.569 337.948 C 245.703 336.837 246.509 334.957 246.202 333.641 C 245.65 331.28 242.784 330.738 242.145 328.005 C 241.562 325.509 243.737 322.126 245.72 320.664 L 247.407 322.251 C 246.204 323.238 245.838 324.821 246.193 326.34 Z M 247.141 343.251 L 247.22 355.861 L 243.027 355.809 L 243.563 343.251 L 247.141 343.251 Z M 252.83 343.251 L 253.111 355.936 L 249.226 355.887 L 249.657 343.251 L 252.83 343.251 Z" fill="#ff368a" style="stroke-width: 1;"/></g></svg>