<?xml version="1.0" encoding="UTF-8" standalone="no"?>
<!-- Uploaded to: SVG Repo, www.svgrepo.com, Generator: SVG Repo Mixer Tools -->

<svg
   fill="#ff368a"
   height="617.79102"
   width="800"
   version="1.1"
   id="Layer_1"
   viewBox="0 0 512 395.38625"
   xml:space="preserve"
   sodipodi:docname="moneyenvelope.svg"
   inkscape:version="1.4.2 (ebf0e940, 2025-05-08)"
   xmlns:inkscape="http://www.inkscape.org/namespaces/inkscape"
   xmlns:sodipodi="http://sodipodi.sourceforge.net/DTD/sodipodi-0.dtd"
   xmlns="http://www.w3.org/2000/svg"
   xmlns:svg="http://www.w3.org/2000/svg"><defs
   id="defs12" /><sodipodi:namedview
   id="namedview12"
   pagecolor="#ffffff"
   bordercolor="#000000"
   borderopacity="0.25"
   inkscape:showpageshadow="2"
   inkscape:pageopacity="0.0"
   inkscape:pagecheckerboard="0"
   inkscape:deskcolor="#d1d1d1"
   inkscape:zoom="0.6887125"
   inkscape:cx="121.24072"
   inkscape:cy="384.77594"
   inkscape:window-width="1712"
   inkscape:window-height="971"
   inkscape:window-x="0"
   inkscape:window-y="39"
   inkscape:window-maximized="1"
   inkscape:current-layer="g1" />
<g
   id="g2"
   transform="translate(0,-58.30625)">
	<g
   id="g1">
		<path
   id="path1"
   d="m 256.00125,58.30625 c -7.38325,0 -14.76775,1.93075 -21.35375,5.79125 l -53.76,31.515 H 59.32375 c -9.136,0 -16.5675,7.4315 -16.5675,16.5675 v 64.40625 L 3.9625,199.3275 l 0.00125,0.009 C 1.59475,200.728 0,203.29675 0,206.24375 V 437.125 c 0,9.136 7.4315,16.5675 16.5675,16.5675 h 478.865 c 9.136,0 16.5675,-7.4315 16.5675,-16.5675 V 206.24375 c 0,-2.947 -1.595,-5.51575 -3.965,-6.90875 l 0.002,-0.008 -38.79375,-22.74125 V 112.18 c 0,-9.136 -7.4315,-16.5675 -16.5675,-16.5675 H 331.1125 l -53.76,-31.515 c -6.585,-3.8605 -13.968,-5.79125 -21.35125,-5.79125 z M 59.3225,111.6475 h 393.35375 c 0.295,0 0.53375,0.23875 0.53375,0.53375 v 114.5325 L 400.8375,257.415 c 0.074,-14.378 11.79,-26.0525 26.185,-26.0525 4.427,0 8.01625,-3.5895 8.01625,-8.0175 v -51.3075 c 0,-4.427 -3.58825,-8.01625 -8.01625,-8.01625 -14.44,0 -26.18875,-11.74875 -26.18875,-26.18875 0,-4.427 -3.58825,-8.01625 -8.01625,-8.01625 h -273.635 c -4.427,0 -8.0175,3.58825 -8.0175,8.01625 0,14.44 -11.7475,26.18875 -26.1875,26.18875 -4.427,0 -8.0175,3.58825 -8.0175,8.01625 v 51.3075 c 0,4.427 3.5895,8.0175 8.0175,8.0175 14.395,0 26.111,11.67325 26.185,26.05125 L 58.78875,226.715 V 112.18125 c 0,-0.294 0.23875,-0.53375 0.53375,-0.53375 z M 256,145.85125 c 23.871,0 43.29,23.25625 43.29,51.84125 0,28.585 -19.42,51.84 -43.29,51.84 -23.87,0 -43.29,-23.255 -43.29,-51.84 0,-28.585 19.419,-51.84125 43.29,-51.84125 z m -102.61375,26.7225 c 13.851,0 25.11875,11.26775 25.11875,25.11875 0,13.851 -11.26775,25.12 -25.11875,25.12 -13.851,0 -25.11875,-11.269 -25.11875,-25.12 0,-13.851 11.26775,-25.11875 25.11875,-25.11875 z m 205.2275,0 c 13.851,0 25.11875,11.26775 25.11875,25.11875 0,13.851 -11.26775,25.12 -25.11875,25.12 -13.851,0 -25.11875,-11.269 -25.11875,-25.12 0,-13.851 11.26775,-25.11875 25.11875,-25.11875 z M 16.0325,220.2375 196.38625,325.96 16.0325,431.68375 Z m 479.93375,0 v 211.445 L 315.61375,325.96 Z m -370.89875,45.33 h 261.865 l -30.99875,18.17 H 156.06625 Z M 256,313.77 c 4.57975,0 9.1585,1.198 13.2425,3.5925 L 474.45625,437.65875 H 37.545 L 242.755,317.3625 C 246.84,314.968 251.42025,313.77 256,313.77 Z" />
	</g>
</g>
<g
   id="g4"
   transform="translate(0,-58.30625)">
	<g
   id="g3">
		<path
   d="m 84.977,129.775 c -4.427,0 -8.059,3.632 -8.059,8.06 0,4.427 3.632,8.059 8.059,8.059 4.427,0 8.059,-3.632 8.059,-8.059 0,-4.428 -3.632,-8.06 -8.059,-8.06 z"
   id="path2" />
	</g>
</g>
<g
   id="g6"
   transform="translate(0,-58.30625)">
	<g
   id="g5">
		<path
   d="m 427.066,129.775 c -4.427,0 -8.059,3.632 -8.059,8.06 0,4.427 3.632,8.059 8.059,8.059 4.427,0 8.059,-3.632 8.059,-8.059 0,-4.428 -3.632,-8.06 -8.059,-8.06 z"
   id="path4" />
	</g>
</g>
<g
   id="g8"
   transform="translate(0,-58.30625)">
	<g
   id="g7">
		
	</g>
</g>
<g
   id="g10"
   transform="translate(0,-58.30625)">
	<g
   id="g9">
		
	</g>
</g>
<g
   id="g12"
   transform="translate(0,-58.30625)">
	<g
   id="g11">
		<path
   d="m 258.39,190.039 c -11.244,-3.513 -11.471,-5.356 -11.477,-6.696 0.397,-0.948 3.651,-3.289 9.086,-3.289 5.524,0 8.749,2.383 9.102,3.331 1.543,4.151 6.157,6.264 10.308,4.72 4.149,-1.543 6.263,-6.158 4.72,-10.308 -2.31,-6.211 -8.39,-10.883 -16.112,-12.809 v -1.502 c 0,-4.427 -3.589,-8.017 -8.017,-8.017 -4.428,0 -8.017,3.589 -8.017,8.017 v 1.504 c -10.037,2.509 -17.102,9.639 -17.102,18.271 0,14.982 14.785,19.601 22.728,22.083 11.244,3.513 11.471,5.356 11.477,6.696 -0.397,0.948 -3.651,3.289 -9.086,3.289 -5.524,0 -8.749,-2.383 -9.102,-3.331 -1.543,-4.149 -6.157,-6.263 -10.308,-4.72 -4.149,1.543 -6.263,6.159 -4.72,10.308 2.31,6.211 8.39,10.882 16.112,12.807 v 1.502 c 0,4.427 3.589,8.017 8.017,8.017 4.428,0 8.017,-3.589 8.017,-8.017 v -1.504 c 10.037,-2.509 17.102,-9.639 17.102,-18.271 0,-14.978 -14.785,-19.598 -22.728,-22.081 z"
   id="path10" />
	</g>
</g>
</svg>
