<?xml version="1.0" encoding="UTF-8" standalone="no"?>
<!-- Uploaded to: SVG Repo, www.svgrepo.com, Generator: SVG Repo Mixer Tools -->

<svg
   width="600"
   height="733.33929"
   viewBox="0 0 18 22.000179"
   fill="none"
   version="1.1"
   id="svg4"
   sodipodi:docname="NSFW.svg"
   inkscape:version="1.4.2 (ebf0e940, 2025-05-08)"
   xmlns:inkscape="http://www.inkscape.org/namespaces/inkscape"
   xmlns:sodipodi="http://sodipodi.sourceforge.net/DTD/sodipodi-0.dtd"
   xmlns="http://www.w3.org/2000/svg"
   xmlns:svg="http://www.w3.org/2000/svg">
  <defs
     id="defs4" />
  <sodipodi:namedview
     id="namedview4"
     pagecolor="#ffffff"
     bordercolor="#000000"
     borderopacity="0.25"
     inkscape:showpageshadow="2"
     inkscape:pageopacity="0.0"
     inkscape:pagecheckerboard="0"
     inkscape:deskcolor="#d1d1d1"
     inkscape:zoom="0.56418634"
     inkscape:cx="564.5298"
     inkscape:cy="242.82757"
     inkscape:window-width="896"
     inkscape:window-height="245"
     inkscape:window-x="0"
     inkscape:window-y="39"
     inkscape:window-maximized="0"
     inkscape:current-layer="svg4" />
  <path
     d="m 1.8,0.40006058 c -0.25826,-0.34434 -0.70789,-0.484793 -1.11623,-0.34868 C 0.27543,0.18750058 0,0.56963058 0,1.0000606 v 8.00004 c 0,0.5522 0.44772,1.0000004 1,1.0000004 0.55228,0 1,-0.4478004 1,-1.0000004 v -5.00004 l 4.2,5.60004 c 0.25826,0.3443 0.70789,0.4848004 1.1162,0.3486 C 7.7246,9.8126006 8,9.4305006 8,9.0001006 v -8.00004 C 8,0.44778058 7.5523,6.0578124e-5 7,6.0578124e-5 6.44772,6.0578124e-5 6,0.44778058 6,1.0000606 v 5 z"
     fill="#0F0F0F"
     id="path1"
     style="fill:#ff368a;fill-opacity:1" />
  <path
     d="m 12,6.0578124e-5 c -1.1046,0 -2,0.895430001876 -2,2.000000021876 v 2 c 0,1.10457 0.8954,2 2,2 h 4 v 2 h -5 c -0.5523,0 -1,0.44772 -1,1.00004 0,0.5522 0.4477,1.0000004 1,1.0000004 h 5 c 1.1046,0 2,-0.8955004 2,-2.0000404 v -2 c 0,-1.10457 -0.8954,-2 -2,-2 h -4 v -2 h 5 c 0.5523,0 1,-0.44771 1,-1 C 18,0.44778058 17.5523,6.0578124e-5 17,6.0578124e-5 Z"
     fill="#0F0F0F"
     id="path2"
     style="fill:#ff368a;fill-opacity:1" />
  <path
     d="m 0,13.000101 c 0,-0.5523 0.44772,-1 1,-1 h 6 c 0.5523,0 1,0.4477 1,1 0,0.5523 -0.4477,1 -1,1 H 2 v 2 h 5 c 0.5523,0 1,0.4477 1,1 0,0.5522 -0.4477,1 -1,1 H 2 v 3 c 0,0.5522 -0.44772,1 -1,1 -0.55228,0 -1,-0.4478 -1,-1 z"
     fill="#0F0F0F"
     id="path3"
     style="fill:#ff368a;fill-opacity:1" />
  <path
     d="m 12,13.000101 c 0,-0.5523 -0.4477,-1 -1,-1 -0.5523,0 -1,0.4477 -1,1 v 8 c 0,0.4494 0.2999,0.8437 0.7331,0.9637 0.4331,0.12 0.8931,-0.0638 1.1244,-0.4492 l 2.1425,-3.5709 2.1425,3.5709 c 0.2313,0.3854 0.6913,0.5692 1.1244,0.4492 0.4332,-0.12 0.7331,-0.5143 0.7331,-0.9637 v -8 c 0,-0.5523 -0.4477,-1 -1,-1 -0.5523,0 -1,0.4477 -1,1 v 4.3896 l -1.1425,-1.9041 c -0.1807,-0.3012 -0.5062,-0.4855 -0.8575,-0.4855 -0.3513,0 -0.6768,0.1843 -0.8575,0.4855 L 12,17.389701 Z"
     fill="#0F0F0F"
     id="path4"
     style="fill:#ff368a;fill-opacity:1" />
</svg>
