<?xml version="1.0" encoding="UTF-8" standalone="no"?>
<svg
   width="460.66333"
   height="610.30304"
   viewBox="0 0 13.8199 18.309091"
   version="1.1"
   id="svg1"
   sodipodi:docname="orgy.svg"
   inkscape:version="1.4.2 (ebf0e940, 2025-05-08)"
   xmlns:inkscape="http://www.inkscape.org/namespaces/inkscape"
   xmlns:sodipodi="http://sodipodi.sourceforge.net/DTD/sodipodi-0.dtd"
   xmlns="http://www.w3.org/2000/svg"
   xmlns:svg="http://www.w3.org/2000/svg">
  <defs
     id="defs1" />
  <sodipodi:namedview
     id="namedview1"
     pagecolor="#ffffff"
     bordercolor="#000000"
     borderopacity="0.25"
     inkscape:showpageshadow="2"
     inkscape:pageopacity="0.0"
     inkscape:pagecheckerboard="0"
     inkscape:deskcolor="#d1d1d1"
     inkscape:zoom="0.55988044"
     inkscape:cx="300.95711"
     inkscape:cy="175.03737"
     inkscape:window-width="896"
     inkscape:window-height="245"
     inkscape:window-x="0"
     inkscape:window-y="39"
     inkscape:window-maximized="0"
     inkscape:current-layer="svg1" />
  <!-- Uploaded to: SVG Repo, www.svgrepo.com, Generator: SVG Repo Mixer Tools -->
  <title
     id="title1">ic_fluent_people_community_add_24_filled</title>
  <desc
     id="desc1">Created with Sketch.</desc>
  <path
     d="m 10.200403,11.070098 c 1.998993,0 3.619497,1.620504 3.619497,3.619497 0,1.998992 -1.620504,3.619496 -3.619497,3.619496 -1.9989923,0 -3.6194963,-1.620504 -3.6194963,-3.619496 0,-1.998993 1.620504,-3.619497 3.6194963,-3.619497 z m 0,1.315677 -0.05915,0.0053 c -0.134312,0.02438 -0.2402193,0.130285 -0.2645973,0.264597 l -0.0053,0.05912 -2.3e-4,1.645226 -1.646542,5.03e-4 -0.05915,0.0053 c -0.134312,0.02438 -0.240219,0.130285 -0.264598,0.264597 l -0.0053,0.05915 0.0053,0.05915 c 0.02438,0.134312 0.130286,0.240219 0.264598,0.264597 l 0.05915,0.0053 1.6472,-5.03e-4 3.01e-4,1.648022 0.0053,0.05914 c 0.02438,0.134311 0.1302863,0.240219 0.2645973,0.264597 l 0.05915,0.0053 0.05915,-0.0053 c 0.134311,-0.02437 0.240219,-0.130286 0.264597,-0.264597 l 0.0053,-0.05914 -3.01e-4,-1.648022 1.647802,5.03e-4 0.05915,-0.0053 c 0.134311,-0.02438 0.240219,-0.130285 0.264597,-0.264597 l 0.0053,-0.05915 -0.0053,-0.05915 c -0.02445,-0.134275 -0.130353,-0.240182 -0.264664,-0.26456 l -0.05915,-0.0053 -1.64846,-5.03e-4 2.3e-4,-1.645226 -0.0053,-0.05915 c -0.02435,-0.134309 -0.130257,-0.240216 -0.264568,-0.264594 z m -3.6050513,3.68e-4 c -0.42572,0.664897 -0.672535,1.455351 -0.672535,2.303452 0,0.58163 0.116084,1.136147 0.326346,1.641647 -1.680659,-0.09031 -2.6296622,-0.803828 -2.6296622,-2.135215 v -0.65809 c 0,-0.636043 0.5156152,-1.151658 1.1516582,-1.151658 z m -2.56389,-3.2902596 c -0.05413,0.210322 -0.08292,0.430816 -0.08292,0.658035 0,0.7341196 0.300515,1.3980506 0.785237,1.8754876 l 0.106646,0.09941 -0.06927,-6.29e-4 c -0.198313,0 -0.389176,0.0319 -0.567738,0.09084 -0.5690813,0.187859 -1.0132217,0.650437 -1.1753979,1.230712 l -0.022657,5.73e-4 C 1.0910223,13.050316 0,12.333113 0,10.905575 v -0.65809 C 0,9.6432444 0.4653424,9.1476904 1.0572041,9.0996454 l 0.094454,-0.0038 z m 2.549445,-1.316236 c 1.09036,0 1.97427,0.883911 1.97427,1.974271 0,1.0903586 -0.88391,1.9742696 -1.97427,1.9742696 -1.090359,0 -1.974271,-0.883911 -1.974271,-1.9742696 0,-1.09036 0.883912,-1.974271 1.974271,-1.974271 z m 5.4292443,1.31618 c 0.636043,0 1.151658,0.515615 1.151658,1.1516576 l -7.24e-4,0.63313 c 0.01293,0.242732 -0.0067,0.465265 -0.05754,0.667513 -0.763135,-0.705453 -1.782843,-1.13612 -2.903139,-1.13612 -0.3851813,0 -0.7584723,0.05091 -1.1135103,0.14637 0.08236,-0.25281 0.126375,-0.523495 0.126375,-0.8044596 0,-0.227219 -0.02879,-0.447713 -0.08292,-0.658035 z M 2.9614102,4.4891957 c 1.0903595,0 1.9742705,0.8839117 1.9742705,1.9742707 0,1.09036 -0.883911,1.974271 -1.9742705,1.974271 -1.0903597,0 -1.9742708,-0.883911 -1.9742708,-1.974271 0,-1.090359 0.8839111,-1.9742707 1.9742708,-1.9742707 z m 7.2389928,0 c 1.09036,0 1.974271,0.8839117 1.974271,1.9742707 0,1.09036 -0.883911,1.974271 -1.974271,1.974271 -1.0903593,0 -1.9742713,-0.883911 -1.9742713,-1.974271 0,-1.090359 0.883912,-1.9742707 1.9742713,-1.9742707 z"
     id="🎨Color"
     style="fill:#ff368a;fill-opacity:1;fill-rule:nonzero;stroke:none;stroke-width:0.65809" />
  <path
     fill="none"
     stroke-linecap="round"
     stroke-linejoin="round"
     stroke-width="2"
     d="M 6.7001127,5.0815569 4.4201877,2.151014 4.3449147,2.0434771 c -0.387149,-0.634501 -0.182395,-1.46257667 0.451675,-1.84974557 0.634462,-0.3817754 1.457203,-0.1827877 1.844352,0.4516741 0.02158,0.037656 0.04315,0.075312 0.05884,0.1129675 0.322625,-0.6667635 1.129087,-0.9463778 1.79591,-0.6237338 0.666822,0.3226243 0.946299,1.12381137 0.623675,1.79057487 -0.03138,0.075312 -0.07453,0.1451319 -0.123558,0.2150894 z"
     style="fill:#ff368a;fill-opacity:1;stroke-width:0.935625"
     id="path10" />
</svg>
