<?xml version="1.0" encoding="UTF-8" standalone="no"?>
<svg
   viewBox="173.5592 207.4433 169.2898 140.1931"
   width="169.29px"
   height="140.193px"
   preserveAspectRatio="none"
   version="1.1"
   id="svg4"
   sodipodi:docname="panties heels.svg"
   inkscape:version="1.4.2 (ebf0e940, 2025-05-08)"
   xmlns:inkscape="http://www.inkscape.org/namespaces/inkscape"
   xmlns:sodipodi="http://sodipodi.sourceforge.net/DTD/sodipodi-0.dtd"
   xmlns="http://www.w3.org/2000/svg"
   xmlns:svg="http://www.w3.org/2000/svg">
  <defs
     id="defs4" />
  <sodipodi:namedview
     id="namedview4"
     pagecolor="#ffffff"
     bordercolor="#000000"
     borderopacity="0.25"
     inkscape:showpageshadow="2"
     inkscape:pageopacity="0.0"
     inkscape:pagecheckerboard="0"
     inkscape:deskcolor="#d1d1d1"
     inkscape:zoom="2.2855806"
     inkscape:cx="116.60057"
     inkscape:cy="24.501433"
     inkscape:window-width="1712"
     inkscape:window-height="971"
     inkscape:window-x="0"
     inkscape:window-y="39"
     inkscape:window-maximized="1"
     inkscape:current-layer="svg4" />
  <path
     d="m 265.09926,216.24161 c -2.01469,-3.52581 -4.00017,-6.43717 -4.08388,-6.55946 l -1.53059,-2.23886 -2.34692,1.35886 c -0.59759,0.34589 -14.76637,8.71048 -26.02659,29.27935 -11.98891,21.90001 -19.18622,23.29445 -23.56113,22.43636 -5.64032,-1.10604 -7.76569,-2.79282 -8.079,-3.06493 l -1.32047,-1.74764 -21.11346,10.88624 -0.15244,0.10487 c -0.34009,0.23428 -3.32561,2.3885 -3.32561,5.8776 0,1.49969 0.1648,3.62019 1.58939,4.71406 l 0.68355,0.52474 40.33901,3.28685 c 0.35938,0.0539 1.23002,0.16274 2.41453,0.16255 1.01802,0 2.26826,-0.0802 3.62431,-0.34458 4.58184,-0.89236 8.11795,-3.43348 10.22591,-7.34826 l 0.58242,-1.08432 c 2.09054,-3.89679 5.24948,-9.78581 8.76667,-14.8364 4.87118,-6.99469 8.12413,-9.1004 9.99575,-9.63506 2.37108,-0.67756 4.2603,-1.20642 5.75025,-1.6173 -0.64422,4.55338 -1.45924,11.70331 -1.12814,16.9129 v 12.09135 h -0.88543 v 5.84538 h 7.74528 v -5.84538 h -1.01447 v -12.18592 l -0.006,-0.19439 c -0.37905,-5.68414 0.85322,-14.47497 1.44013,-18.21708 l 0.0425,-0.01 0.60134,-1.27571 c 0.52399,-1.11128 5.11801,-11.00216 5.11801,-16.05612 -3.7e-4,-1.55306 -0.45077,-4.40525 -4.34457,-11.21977 z"
     id="path1"
     style="stroke-width:0.187274;fill:#ff368a;fill-opacity:1" />
  <path
     d="m 342.81046,300.26953 c -0.003,-0.0297 0.009,-0.0594 0.003,-0.0891 l -1.74692,-10.48192 c -0.0839,-0.51181 -0.39307,-0.95913 -0.84039,-1.22118 -0.44733,-0.26205 -0.98698,-0.31262 -1.47627,-0.13451 -8.67195,3.13414 -40.05138,6.88306 -48.32166,6.88306 -8.26843,0 -39.6497,-3.74913 -48.32165,-6.88306 -0.48908,-0.17811 -1.02894,-0.12754 -1.47627,0.13451 -0.44732,0.26205 -0.75462,0.70937 -0.84019,1.22118 l -1.74692,10.48192 c -0.0104,0.0577 0.0123,0.11362 0.009,0.17115 -0.003,0.0385 -0.0227,0.0717 -0.0227,0.11014 0,4.81636 3.91844,8.73501 8.735,8.73501 2.05442,0 3.97269,-0.71286 5.4768,-1.90599 1.2998,3.16545 4.38501,5.40003 7.98019,5.40003 1.90762,0 3.70368,-0.63076 5.16766,-1.71724 1.15486,2.68866 3.8259,4.57704 6.93199,4.57704 0.25673,0 0.50322,-0.0506 0.75462,-0.0751 -0.0244,0.24628 -0.0733,0.48908 -0.0733,0.73905 0,2.80044 1.51455,5.23216 3.77349,6.58273 -1.27708,1.3907 -2.05974,3.24059 -2.05974,5.26901 0,2.41616 1.13909,4.54919 2.88437,5.96425 -1.74528,1.41506 -2.88437,3.54809 -2.88437,5.96426 0,3.76468 2.76031,6.94611 6.46378,7.55578 0.0805,0.0246 0.16071,0.0401 0.24465,0.0524 0.0244,0.003 0.0436,0.0123 0.0682,0.0158 0.0315,0.003 0.0647,0.003 0.0979,0.005 0.035,0.002 0.0682,0.0123 0.10298,0.0123 h 17.4698 c 0.0297,0 0.0559,-0.009 0.0856,-0.0104 0.0455,-0.002 0.0909,-0.002 0.13635,-0.007 0.0332,-0.005 0.0629,-0.0174 0.096,-0.0209 0.0577,-0.0104 0.11363,-0.0209 0.16952,-0.0366 3.72804,-0.59043 6.51107,-3.78393 6.51107,-7.56622 0,-2.41617 -1.13909,-4.5492 -2.88437,-5.96426 1.74528,-1.41506 2.88437,-3.54809 2.88437,-5.96425 0,-2.02473 -0.77918,-3.87135 -2.05278,-5.26184 2.24665,-1.34873 3.76653,-3.78578 3.76653,-6.58969 0,-0.24977 -0.0489,-0.49257 -0.0733,-0.73906 0.25161,0.0246 0.49789,0.0751 0.75462,0.0751 3.10609,0 5.77734,-1.88838 6.93199,-4.57703 1.46398,1.08484 3.25983,1.71723 5.16766,1.71723 3.59702,0 6.68039,-2.23621 7.98019,-5.40167 1.50595,1.19498 3.42402,1.90763 5.4768,1.90763 4.81636,0 8.735,-3.91844 8.735,-8.735 0,-0.0688 -0.0315,-0.12652 -0.0385,-0.19285 z m -96.04571,5.43319 c -2.26241,0 -4.19461,-1.4431 -4.9265,-3.45739 0.30054,0.005 0.60803,0.007 0.90488,0.0139 1.07624,0.0262 2.13836,0.0663 3.18123,0.12058 0.36338,0.0174 0.73905,0.0297 1.09527,0.0524 1.49552,0.0925 2.95767,0.21148 4.37621,0.36339 0.0246,0.003 0.0489,0.007 0.0733,0.009 -0.7929,1.7242 -2.63256,2.89829 -4.70438,2.89829 z m 13.45699,3.49384 c -2.88601,0 -5.14659,-2.30254 -5.14659,-5.24096 0,-0.24628 0.009,-0.46821 0.0244,-0.67436 0.23584,0.035 0.46472,0.0733 0.69524,0.11178 0.62359,0.10134 1.24739,0.20431 1.85174,0.31978 0.31978,0.0612 0.62359,0.12918 0.93641,0.19387 0.56955,0.11526 1.13909,0.23236 1.68939,0.36155 0.44016,0.10297 0.8578,0.21659 1.2822,0.32674 0.38611,0.10134 0.78082,0.19571 1.15833,0.30217 0.84899,0.24117 1.6597,0.49605 2.44053,0.76342 -0.7319,2.11583 -2.70954,3.53601 -4.93162,3.53601 z m 12.09965,2.86001 c -2.23273,0 -4.04946,-1.81694 -4.04946,-4.04946 0,-0.36155 0.0524,-0.71797 0.14679,-1.06211 0.26901,0.11874 0.55562,0.23236 0.81583,0.35294 0.0104,0.005 0.0192,0.0104 0.0297,0.0158 2.31135,1.08831 4.22778,2.30786 5.84715,3.59886 -0.75482,0.7368 -1.73832,1.144 -2.78999,1.144 z m 4.17516,4.15776 c 0,-1.08484 0.43504,-2.14695 1.18966,-2.9245 2.0929,2.25894 3.42751,4.64173 4.27323,6.93547 -0.1816,0.042 -0.38079,0.096 -0.58695,0.15191 -0.0577,0.009 -0.11178,0.0297 -0.16951,0.0385 -0.0874,0.0158 -0.28293,0.0174 -0.48909,0.0158 -2.32527,0 -4.21734,-1.89186 -4.21734,-4.21713 z m 4.13176,27.56397 c -1.43942,-0.67785 -2.4178,-2.13139 -2.4178,-3.78393 0,-2.32527 1.89207,-4.21713 4.21713,-4.21713 0.14679,0 0.28641,-0.002 0.42112,-0.003 -0.62891,3.29627 -1.61078,6.30634 -2.22045,8.00454 z m 2.79696,-13.06576 c -0.009,0.37731 -0.0244,0.76342 -0.0543,1.16694 -0.0104,0.12918 -0.0209,0.25856 -0.0315,0.38775 -0.0297,0 -0.0577,0.002 -0.0874,0.003 -0.26205,0.007 -0.52225,0.0123 -0.82463,0.0123 -2.32527,0 -4.21713,-1.89207 -4.21713,-4.21713 0,-2.17152 1.59317,-3.99357 3.70879,-4.23822 0.0751,-0.009 0.15027,-0.0227 0.22356,-0.0401 0.28826,-0.0717 0.53454,-0.12919 0.76527,-0.18159 0.0577,0.29173 0.11014,0.5765 0.15538,0.85943 0.035,0.21496 0.0717,0.43156 0.0995,0.6412 0.042,0.30217 0.0786,0.59923 0.1083,0.88748 0.0158,0.16255 0.028,0.3163 0.0401,0.47517 0.12571,1.44659 0.12919,2.7165 0.12919,3.69672 4.1e-4,0.18159 -0.01,0.36502 -0.0152,0.54661 z m 16.82,13.06924 c -0.60967,-1.69635 -1.59501,-4.70806 -2.22209,-8.00823 0.13635,0.002 0.27781,0.003 0.42808,0.003 2.32527,0 4.21713,1.89207 4.21713,4.21713 -2e-4,1.65623 -0.98186,3.11141 -2.42312,3.78762 z m -1.79421,-11.49879 c -0.30218,0 -0.56259,-0.005 -0.82463,-0.0123 -0.0332,-0.002 -0.0663,-0.003 -0.0995,-0.003 -0.0663,-0.74418 -0.0995,-1.44127 -0.0995,-2.10683 0,-1.51292 0.002,-3.86951 0.51714,-6.53032 0.002,-0.0104 0.005,-0.0209 0.007,-0.0297 0.234,0.0543 0.48909,0.11178 0.78614,0.18691 0.0733,0.0174 0.14843,0.0315 0.22356,0.0401 2.11379,0.24464 3.70716,2.0667 3.70716,4.23821 -2e-4,2.32548 -1.89207,4.21734 -4.21733,4.21734 z m 1.64558,-11.85153 c -0.13635,0.003 -0.32674,0 -0.4158,-0.0139 -0.0577,-0.009 -0.11178,-0.0315 -0.16951,-0.0385 -0.21496,-0.0594 -0.42276,-0.11526 -0.60967,-0.15907 0.0559,-0.15191 0.11362,-0.30402 0.17299,-0.45592 0.10298,-0.26205 0.21496,-0.51878 0.32838,-0.77734 0.23769,-0.53638 0.50137,-1.0744 0.80006,-1.61242 0.0594,-0.11014 0.11711,-0.22192 0.17996,-0.33022 0.20779,-0.35991 0.42808,-0.71981 0.66556,-1.07788 0.0281,-0.0401 0.0559,-0.0786 0.0821,-0.11874 0.58347,-0.8666 1.27012,-1.72603 2.05278,-2.56991 0.75994,0.77918 1.19846,1.84662 1.19846,2.93678 2.1e-4,2.32527 -1.89186,4.21713 -4.2853,4.21713 z m 8.46067,-8.37489 c -1.05515,0 -2.04398,-0.41047 -2.80044,-1.15117 0.71286,-0.56954 1.46932,-1.12681 2.31135,-1.66134 0.007,-0.005 0.0158,-0.0104 0.0244,-0.0158 0.48561,-0.30749 0.99926,-0.60803 1.52868,-0.9014 0.096,-0.0542 0.19224,-0.10666 0.28826,-0.15887 0.45776,-0.24812 0.93805,-0.48909 1.43082,-0.72493 0.17299,-0.0839 0.34762,-0.16767 0.5241,-0.24813 0.19223,-0.089 0.39839,-0.17299 0.5939,-0.25856 0.0979,0.34598 0.14843,0.70568 0.14843,1.07091 0,2.23232 -1.81673,4.04926 -4.04946,4.04926 z m 12.09965,-2.86001 c -2.22392,0 -4.20157,-1.42202 -4.93346,-3.54297 0.0158,-0.005 0.0281,-0.0104 0.0436,-0.0158 0.68828,-0.234 1.40114,-0.45429 2.13139,-0.66393 0.0489,-0.0158 0.0925,-0.0297 0.13983,-0.0436 1.52868,-0.43668 3.14805,-0.81768 4.84092,-1.14953 0.0768,-0.0158 0.15027,-0.0315 0.22704,-0.0471 0.74602,-0.14331 1.51292,-0.27085 2.28863,-0.39492 0.12918,-0.0209 0.25324,-0.042 0.38426,-0.0612 0.0158,0.20616 0.0246,0.43156 0.0246,0.67785 -2e-4,2.93882 -2.26078,5.24116 -5.14679,5.24116 z m 13.45699,-3.49384 c -2.07018,0 -3.90984,-1.17225 -4.70294,-2.89993 1.45006,-0.15722 2.94885,-0.27781 4.48286,-0.37382 0.31098,-0.0192 0.63936,-0.0297 0.95566,-0.0455 1.0832,-0.0577 2.1838,-0.0979 3.3018,-0.12407 0.29173,-0.007 0.59227,-0.009 0.88912,-0.0139 -0.73025,2.01409 -2.66409,3.45719 -4.9265,3.45719 z"
     id="path2"
     style="stroke-width:0.204725;fill:#ff368a;fill-opacity:1" />
</svg>
