<?xml version="1.0" encoding="utf-8"?>
<svg xmlns="http://www.w3.org/2000/svg" viewBox="173.5592 207.4433 169.2898 140.1931" width="169.29px" height="140.193px" preserveAspectRatio="none"><g id="object-0"><g id="Layer_1" style="" transform="matrix(0.187274, 0, 0, 0.187274, 186.746643, 182.283203)"><g transform="matrix(1, 0, 0, 1, -70.418037, 75.437057)"><g><path d="M488.803,105.893c-10.758-18.827-21.36-34.373-21.807-35.026l-8.173-11.955l-12.532,7.256 c-3.191,1.847-78.849,46.512-138.976,156.345c-64.018,116.941-102.45,124.387-125.811,119.805 c-30.118-5.906-41.467-14.913-43.14-16.366l-7.051-9.332l-112.741,58.13l-0.814,0.56C15.942,376.561,0,388.064,0,406.695 c0,8.008,0.88,19.331,8.487,25.172l3.65,2.802l215.401,17.551c1.919,0.288,6.568,0.869,12.893,0.868 c5.436,0,12.112-0.428,19.353-1.84c24.466-4.765,43.348-18.334,54.604-39.238l3.11-5.79 c11.163-20.808,28.031-52.254,46.812-79.223c26.011-37.35,43.381-48.594,53.375-51.449c12.661-3.618,22.749-6.442,30.705-8.636 c-3.44,24.314-7.792,62.493-6.024,90.311v64.565h-4.728v31.213h41.358v-31.213h-5.417v-65.07l-0.034-1.038 c-2.024-30.352,4.556-77.293,7.69-97.275l0.227-0.053l3.211-6.812c2.798-5.934,27.329-58.749,27.329-85.736 C512,157.511,509.595,142.281,488.803,105.893z"/></g></g></g><g id="svg-1" style="" transform="matrix(0.204725, 0, 0, 0.204725, 195.570007, 237.264465)"><g transform="matrix(1, 0, 0, 1, 207.39888, 138.053619)"><g><path d="M511.812,169.701c-0.017-0.145,0.043-0.29,0.017-0.435l-8.533-51.2c-0.41-2.5-1.92-4.685-4.105-5.965 c-2.185-1.28-4.821-1.527-7.211-0.657c-42.359,15.309-195.635,33.621-236.032,33.621c-40.388,0-193.673-18.313-236.032-33.621 c-2.389-0.87-5.026-0.623-7.211,0.657c-2.185,1.28-3.686,3.465-4.104,5.965l-8.533,51.2c-0.051,0.282,0.06,0.555,0.043,0.836 C0.094,170.29,0,170.452,0,170.64c0,23.526,19.14,42.667,42.667,42.667c10.035,0,19.405-3.482,26.752-9.31 c6.349,15.462,21.419,26.377,38.98,26.377c9.318,0,18.091-3.081,25.242-8.388c5.641,13.133,18.688,22.357,33.86,22.357 c1.254,0,2.458-0.247,3.686-0.367c-0.119,1.203-0.358,2.389-0.358,3.61c0,13.679,7.398,25.557,18.432,32.154 c-6.238,6.793-10.061,15.829-10.061,25.737c0,11.802,5.564,22.221,14.089,29.133c-8.525,6.912-14.089,17.331-14.089,29.133 c0,18.389,13.483,33.929,31.573,36.907c0.393,0.12,0.785,0.196,1.195,0.256c0.119,0.017,0.213,0.06,0.333,0.077 c0.154,0.017,0.316,0.017,0.478,0.026c0.171,0.009,0.333,0.06,0.503,0.06h85.333c0.145,0,0.273-0.043,0.418-0.051 c0.222-0.009,0.444-0.009,0.666-0.034c0.162-0.026,0.307-0.085,0.469-0.102c0.282-0.051,0.555-0.102,0.828-0.179 c18.21-2.884,31.804-18.483,31.804-36.958c0-11.802-5.564-22.221-14.089-29.133c8.525-6.912,14.089-17.331,14.089-29.133 c0-9.89-3.806-18.91-10.027-25.702c10.974-6.588,18.398-18.492,18.398-32.188c0-1.22-0.239-2.406-0.358-3.61 c1.229,0.12,2.432,0.367,3.686,0.367c15.172,0,28.22-9.224,33.86-22.357c7.151,5.299,15.923,8.388,25.242,8.388 c17.57,0,32.631-10.923,38.98-26.385c7.356,5.837,16.725,9.318,26.752,9.318c23.526,0,42.667-19.14,42.667-42.667 C512,170.307,511.846,170.025,511.812,169.701z M42.667,196.24c-11.051,0-20.489-7.049-24.064-16.888 c1.468,0.026,2.97,0.034,4.42,0.068c5.257,0.128,10.445,0.324,15.539,0.589c1.775,0.085,3.61,0.145,5.35,0.256 c7.305,0.452,14.447,1.033,21.376,1.775c0.12,0.017,0.239,0.034,0.358,0.043C61.773,190.505,52.787,196.24,42.667,196.24z M108.399,213.306c-14.097,0-25.139-11.247-25.139-25.6c0-1.203,0.043-2.287,0.119-3.294c1.152,0.171,2.27,0.358,3.396,0.546 c3.046,0.495,6.093,0.998,9.045,1.562c1.562,0.299,3.046,0.631,4.574,0.947c2.782,0.563,5.564,1.135,8.252,1.766 c2.15,0.503,4.19,1.058,6.263,1.596c1.886,0.495,3.814,0.956,5.658,1.476c4.147,1.178,8.107,2.423,11.921,3.729 C128.913,206.369,119.253,213.306,108.399,213.306z M167.501,227.276c-10.906,0-19.78-8.875-19.78-19.78 c0-1.766,0.256-3.507,0.717-5.188c1.314,0.58,2.714,1.135,3.985,1.724c0.051,0.026,0.094,0.051,0.145,0.077 c11.29,5.316,20.651,11.273,28.561,17.579C177.442,225.287,172.638,227.276,167.501,227.276z M187.895,247.585 c0-5.299,2.125-10.487,5.811-14.285c10.223,11.034,16.742,22.673,20.873,33.877c-0.887,0.205-1.86,0.469-2.867,0.742 c-0.282,0.043-0.546,0.145-0.828,0.188c-0.427,0.077-1.382,0.085-2.389,0.077C197.137,268.184,187.895,258.943,187.895,247.585z M208.077,382.224c-7.031-3.311-11.81-10.411-11.81-18.483c0-11.358,9.242-20.599,20.599-20.599c0.717,0,1.399-0.009,2.057-0.017 C215.851,359.226,211.055,373.929,208.077,382.224z M221.739,318.403c-0.043,1.843-0.119,3.729-0.265,5.7 c-0.051,0.631-0.102,1.263-0.154,1.894c-0.145,0-0.282,0.009-0.427,0.017c-1.28,0.034-2.551,0.06-4.028,0.06 c-11.358,0-20.599-9.242-20.599-20.599c0-10.607,7.782-19.507,18.116-20.702c0.367-0.043,0.734-0.111,1.092-0.196 c1.408-0.35,2.611-0.631,3.738-0.887c0.282,1.425,0.538,2.816,0.759,4.198c0.171,1.05,0.35,2.108,0.486,3.132 c0.205,1.476,0.384,2.927,0.529,4.335c0.077,0.794,0.137,1.545,0.196,2.321c0.614,7.066,0.631,13.269,0.631,18.057 C221.815,316.62,221.764,317.516,221.739,318.403z M303.898,382.241c-2.978-8.286-7.791-22.997-10.854-39.117 c0.666,0.009,1.357,0.017,2.091,0.017c11.358,0,20.599,9.242,20.599,20.599C315.733,371.83,310.938,378.938,303.898,382.241z M295.134,326.074c-1.476,0-2.748-0.026-4.028-0.06c-0.162-0.009-0.324-0.017-0.486-0.017c-0.324-3.635-0.486-7.04-0.486-10.291 c0-7.39,0.008-18.901,2.526-31.898c0.008-0.051,0.026-0.102,0.034-0.145c1.143,0.265,2.389,0.546,3.84,0.913 c0.358,0.085,0.725,0.154,1.092,0.196c10.325,1.195,18.108,10.095,18.108,20.702C315.733,316.833,306.492,326.074,295.134,326.074 z M303.172,268.184c-0.666,0.017-1.596,0-2.031-0.068c-0.282-0.043-0.546-0.154-0.828-0.188c-1.05-0.29-2.065-0.563-2.978-0.777 c0.273-0.742,0.555-1.485,0.845-2.227c0.503-1.28,1.05-2.534,1.604-3.797c1.161-2.62,2.449-5.248,3.908-7.876 c0.29-0.538,0.572-1.084,0.879-1.613c1.015-1.758,2.091-3.516,3.251-5.265c0.137-0.196,0.273-0.384,0.401-0.58 c2.85-4.233,6.204-8.431,10.027-12.553c3.712,3.806,5.854,9.02,5.854,14.345C324.105,258.943,314.863,268.184,303.172,268.184z M344.499,227.276c-5.154,0-9.984-2.005-13.679-5.623c3.482-2.782,7.177-5.504,11.29-8.115c0.034-0.026,0.077-0.051,0.119-0.077 c2.372-1.502,4.881-2.97,7.467-4.403c0.469-0.265,0.939-0.521,1.408-0.776c2.236-1.212,4.582-2.389,6.989-3.541 c0.845-0.41,1.698-0.819,2.56-1.212c0.939-0.435,1.946-0.845,2.901-1.263c0.478,1.69,0.725,3.447,0.725,5.231 C364.279,218.401,355.405,227.276,344.499,227.276z M403.601,213.306c-10.863,0-20.523-6.946-24.098-17.306 c0.077-0.026,0.137-0.051,0.213-0.077c3.362-1.143,6.844-2.219,10.411-3.243c0.239-0.077,0.452-0.145,0.683-0.213 c7.467-2.133,15.377-3.994,23.646-5.615c0.375-0.077,0.734-0.154,1.109-0.23c3.644-0.7,7.39-1.323,11.179-1.929 c0.631-0.102,1.237-0.205,1.877-0.299c0.077,1.007,0.12,2.108,0.12,3.311C428.74,202.06,417.698,213.306,403.601,213.306z M469.333,196.24c-10.112,0-19.098-5.726-22.972-14.165c7.083-0.768,14.404-1.357,21.897-1.826 c1.519-0.094,3.123-0.145,4.668-0.222c5.291-0.282,10.667-0.478,16.128-0.606c1.425-0.034,2.893-0.043,4.343-0.068 C489.83,189.191,480.384,196.24,469.333,196.24z"/></g></g></g></g></svg>