<?xml version="1.0" encoding="UTF-8" standalone="no"?>
<svg
   viewBox="152.559 137.1712 153.72931 126.8326"
   width="153.72931"
   height="126.83274"
   preserveAspectRatio="none"
   version="1.1"
   id="svg6"
   sodipodi:docname="poledance.svg"
   xml:space="preserve"
   inkscape:version="1.4.2 (ebf0e940, 2025-05-08)"
   xmlns:inkscape="http://www.inkscape.org/namespaces/inkscape"
   xmlns:sodipodi="http://sodipodi.sourceforge.net/DTD/sodipodi-0.dtd"
   xmlns="http://www.w3.org/2000/svg"
   xmlns:svg="http://www.w3.org/2000/svg"><defs
     id="defs6"><filter
       id="mask-powermask-path-effect15_inverse"
       inkscape:label="filtermask-powermask-path-effect15"
       style="color-interpolation-filters:sRGB"
       height="100"
       width="100"
       x="-50"
       y="-50"><feColorMatrix
         id="mask-powermask-path-effect15_primitive1"
         values="1"
         type="saturate"
         result="fbSourceGraphic" /><feColorMatrix
         id="mask-powermask-path-effect15_primitive2"
         values="-1 0 0 0 1 0 -1 0 0 1 0 0 -1 0 1 0 0 0 1 0 "
         in="fbSourceGraphic" /></filter></defs><sodipodi:namedview
     id="namedview6"
     pagecolor="#ffffff"
     bordercolor="#000000"
     borderopacity="0.25"
     inkscape:showpageshadow="2"
     inkscape:pageopacity="0.0"
     inkscape:pagecheckerboard="0"
     inkscape:deskcolor="#d1d1d1"
     showguides="false"
     inkscape:zoom="4.0916634"
     inkscape:cx="56.822856"
     inkscape:cy="57.922653"
     inkscape:window-width="1712"
     inkscape:window-height="971"
     inkscape:window-x="0"
     inkscape:window-y="39"
     inkscape:window-maximized="1"
     inkscape:current-layer="svg6" /><path
     style="baseline-shift:baseline;display:inline;overflow:visible;opacity:1;vector-effect:none;fill:#ff368a;fill-opacity:1;stroke-width:1.11975;enable-background:accumulate;stop-color:#000000;stop-opacity:1"
     d="m 233.68877,137.1712 -9.04855,0.01 0.3623,116.1393 c 0,0 8.58536,1.31625 8.62214,-0.5365 0.0368,-1.85275 0.0641,-115.61252 0.0641,-115.61252 z"
     id="line6"
     sodipodi:nodetypes="ccczcc" /><g
     id="g2"
     transform="matrix(1.3814871,0,0,1.3814855,226.66742,151.79573)"
     style="fill:#ff368a;fill-opacity:1">
	<g
   id="g1"
   style="fill:#ff368a;fill-opacity:1">
		<path
   style="fill:#ff368a;fill-opacity:1"
   d="m 49.259,19.368 c -5.932,3.152 -11.836,6.407 -17.604,9.868 -2.051,-2.034 -3.751,-3.653 -4.189,-5.578 0.024,-0.115 -0.076,-1.303 -0.07,-1.471 0.023,-0.604 0.053,-1.208 0.117,-1.81 0.185,-1.695 0.491,-3.379 0.767,-5.063 C 28.728,12.569 27.56,9.838 24.671,9.064 23.644,8.789 22.475,8.893 21.424,9.298 21.04,9.088 20.599,8.942 20.096,8.886 15.849,8.415 11.68,7.48 7.681,5.968 3.688,4.459 1.98,10.846 5.925,12.338 c 3.9,1.475 7.937,2.335 12.046,2.891 -0.014,0.078 -0.027,0.156 -0.042,0.234 -4.799,0.921 -9.505,2.222 -14.138,3.818 -4.003,1.378 -2.283,7.762 1.756,6.37 3.81,-1.313 7.667,-2.426 11.585,-3.293 -0.004,1.442 0.142,2.863 0.529,4.229 0.92,3.238 2.931,5.846 5.19,8.244 -1.378,0.936 -2.764,1.855 -4.22,2.648 -2.586,1.409 -5.464,3.284 -6.459,6.228 -1.847,5.466 3.854,7.632 6.749,10.969 2.795,3.224 7.448,-1.469 4.671,-4.672 -1.389,-1.601 -3.277,-2.586 -4.749,-4.083 -0.708,-0.723 -0.615,-0.07 0.159,-0.773 1.124,-1.023 2.428,-1.623 3.731,-2.383 4.091,-2.384 7.93,-5.227 12.01,-7.652 5.869,-3.484 11.82,-6.836 17.848,-10.042 3.764,-2 0.428,-7.702 -3.332,-5.703 z"
   id="path1" />
		<circle
   style="fill:#ff368a;fill-opacity:1"
   cx="31.309999"
   cy="5.1830001"
   r="5.1830001"
   id="circle1" />
	</g>
</g><path
     id="path2"
     style="fill:#ff368a;fill-opacity:1;stroke-width:10.26;stroke-linecap:round"
     d="m 229.42479,237.96039 c -42.45048,-1.7e-4 -76.86435,5.82983 -76.86579,13.02172 0.002,7.19188 34.41538,13.02186 76.86579,13.02169 42.44953,-4e-5 76.86198,-5.82996 76.86352,-13.02169 -0.001,-7.19174 -34.41392,-13.02168 -76.86352,-13.02172 z m 0.59652,6.54495 c 30.08738,-3e-5 54.4784,3.07396 54.47937,6.86601 -10e-4,3.79203 -24.39208,6.86601 -54.47937,6.86598 -30.08728,2e-5 -54.47826,-3.07395 -54.47936,-6.86598 9.7e-4,-3.79205 24.39199,-6.86603 54.47936,-6.86601 z"
     sodipodi:nodetypes="cccccccccc" /></svg>
