<?xml version="1.0" encoding="UTF-8" standalone="no"?>
<svg
   viewBox="152.559 137.1712 177.651 173.9578"
   width="177.651px"
   height="173.958px"
   preserveAspectRatio="none"
   version="1.1"
   id="svg6"
   sodipodi:docname="girlgirls.svg"
   xml:space="preserve"
   inkscape:version="1.4.2 (ebf0e940, 2025-05-08)"
   xmlns:inkscape="http://www.inkscape.org/namespaces/inkscape"
   xmlns:sodipodi="http://sodipodi.sourceforge.net/DTD/sodipodi-0.dtd"
   xmlns="http://www.w3.org/2000/svg"
   xmlns:svg="http://www.w3.org/2000/svg"><defs
     id="defs6"><filter
       id="mask-powermask-path-effect15_inverse"
       inkscape:label="filtermask-powermask-path-effect15"
       style="color-interpolation-filters:sRGB"
       height="100"
       width="100"
       x="-50"
       y="-50"><feColorMatrix
         id="mask-powermask-path-effect15_primitive1"
         values="1"
         type="saturate"
         result="fbSourceGraphic" /><feColorMatrix
         id="mask-powermask-path-effect15_primitive2"
         values="-1 0 0 0 1 0 -1 0 0 1 0 0 -1 0 1 0 0 0 1 0 "
         in="fbSourceGraphic" /></filter></defs><sodipodi:namedview
     id="namedview6"
     pagecolor="#ffffff"
     bordercolor="#000000"
     borderopacity="0.25"
     inkscape:showpageshadow="2"
     inkscape:pageopacity="0.0"
     inkscape:pagecheckerboard="0"
     inkscape:deskcolor="#d1d1d1"
     showguides="false"
     inkscape:zoom="3.6082727"
     inkscape:cx="85.775112"
     inkscape:cy="82.587992"
     inkscape:window-width="1712"
     inkscape:window-height="971"
     inkscape:window-x="0"
     inkscape:window-y="39"
     inkscape:window-maximized="1"
     inkscape:current-layer="svg6" /><path
     style="baseline-shift:baseline;display:inline;overflow:visible;opacity:1;vector-effect:none;enable-background:accumulate;stop-color:#000000;stop-opacity:1;fill:#ff368a;fill-opacity:1"
     d="m 244.13086,251.69922 c -20.93011,0 -39.87769,2.59123 -53.63477,6.79883 -6.87853,2.1038 -12.46144,4.6091 -16.35937,7.42773 -3.89793,2.81864 -6.29591,5.99797 -6.15039,9.41016 0.85528,20.05433 2.25246,6.59152 6.15039,9.41015 3.89793,2.81864 9.16983,11.31089 16.04836,13.41469 13.75708,4.20759 33.01567,0.81188 53.94578,0.81188 20.93011,0 41.43274,3.00694 55.18981,-1.20065 6.87854,-2.1038 10.9064,-10.20728 14.80433,-13.02592 3.89793,-2.81863 6.22814,9.47789 6.15039,-9.41015 -0.0141,-3.41526 -2.25246,-6.59152 -6.15039,-9.41016 -3.89793,-2.81863 -9.48084,-5.32393 -16.35938,-7.42773 -13.75707,-4.2076 -32.70465,-6.79883 -53.63476,-6.79883 z m 0,1 c 20.84747,0 39.72272,2.58987 53.34375,6.75586 6.81051,2.08299 12.3067,4.56398 16.06445,7.28125 3.75776,2.71727 5.73633,5.62607 5.73633,8.59961 0,2.97354 -1.97857,5.88234 -5.73633,8.59961 -3.75775,2.71727 -9.25394,5.19825 -16.06445,7.28125 -13.62103,4.16599 -32.49628,6.75586 -53.34375,6.75586 -20.84747,0 -39.72077,-2.58987 -53.3418,-6.75586 -6.81051,-2.083 -12.30865,-4.56398 -16.0664,-7.28125 -3.75776,-2.71727 -5.73633,-5.62607 -5.73633,-8.59961 0,-2.97354 1.97857,-5.88234 5.73633,-8.59961 3.75775,-2.71727 9.25589,-5.19826 16.0664,-7.28125 13.62103,-4.16599 32.49433,-6.75586 53.3418,-6.75586 z"
     id="ellipse1"
     sodipodi:nodetypes="ssssssssssssssssssssssssss" /><path
     style="baseline-shift:baseline;display:inline;overflow:visible;opacity:1;vector-effect:none;stroke-width:0.911818;enable-background:accumulate;stop-color:#000000;stop-opacity:1;fill:#ff368a;fill-opacity:1"
     d="m 195.01093,159.68763 -6,0.01 0.24024,112.61406 c 0,0 5.69286,5.82072 5.71725,2.10743 0.0244,-3.71329 0.0425,-114.73121 0.0425,-114.73121 z"
     id="line6"
     sodipodi:nodetypes="ccczc" /><path
     style="baseline-shift:baseline;display:inline;overflow:visible;opacity:1;vector-effect:none;stroke-width:0.910281;enable-background:accumulate;stop-color:#000000;stop-opacity:1;fill:#ff368a;fill-opacity:1"
     d="m 199.40937,160.04386 -3.66211,0.002 c 0,0 0.0735,110.79644 0.0898,114.03155 0.0163,3.23512 3.66015,-1.71584 3.66015,-1.71584 z"
     id="line6-6"
     sodipodi:nodetypes="cczcc" /><g
     id="g2"
     transform="matrix(1.3814871,0,0,1.3814855,191.03813,174.31216)"
     style="fill:#ff368a;fill-opacity:1">
	<g
   id="g1"
   style="fill:#ff368a;fill-opacity:1">
		<path
   style="fill:#ff368a;fill-opacity:1"
   d="m 49.259,19.368 c -5.932,3.152 -11.836,6.407 -17.604,9.868 -2.051,-2.034 -3.751,-3.653 -4.189,-5.578 0.024,-0.115 -0.076,-1.303 -0.07,-1.471 0.023,-0.604 0.053,-1.208 0.117,-1.81 0.185,-1.695 0.491,-3.379 0.767,-5.063 C 28.728,12.569 27.56,9.838 24.671,9.064 23.644,8.789 22.475,8.893 21.424,9.298 21.04,9.088 20.599,8.942 20.096,8.886 15.849,8.415 11.68,7.48 7.681,5.968 3.688,4.459 1.98,10.846 5.925,12.338 c 3.9,1.475 7.937,2.335 12.046,2.891 -0.014,0.078 -0.027,0.156 -0.042,0.234 -4.799,0.921 -9.505,2.222 -14.138,3.818 -4.003,1.378 -2.283,7.762 1.756,6.37 3.81,-1.313 7.667,-2.426 11.585,-3.293 -0.004,1.442 0.142,2.863 0.529,4.229 0.92,3.238 2.931,5.846 5.19,8.244 -1.378,0.936 -2.764,1.855 -4.22,2.648 -2.586,1.409 -5.464,3.284 -6.459,6.228 -1.847,5.466 3.854,7.632 6.749,10.969 2.795,3.224 7.448,-1.469 4.671,-4.672 -1.389,-1.601 -3.277,-2.586 -4.749,-4.083 -0.708,-0.723 -0.615,-0.07 0.159,-0.773 1.124,-1.023 2.428,-1.623 3.731,-2.383 4.091,-2.384 7.93,-5.227 12.01,-7.652 5.869,-3.484 11.82,-6.836 17.848,-10.042 3.764,-2 0.428,-7.702 -3.332,-5.703 z"
   id="path1" />
		<circle
   style="fill:#ff368a;fill-opacity:1"
   cx="31.309999"
   cy="5.1830001"
   r="5.1830001"
   id="circle1" />
	</g>
</g></svg>
