<?xml version="1.0" encoding="UTF-8" standalone="no"?>
<!-- Uploaded to: SVG Repo, www.svgrepo.com, Generator: SVG Repo Mixer Tools -->

<svg
   fill="#ff368a"
   height="800px"
   width="800px"
   version="1.1"
   id="Capa_1"
   viewBox="0 0 196.306 196.306"
   xml:space="preserve"
   sodipodi:docname="pregnancy-test-svgrepo-com.svg"
   inkscape:version="1.4.2 (ebf0e940, 2025-05-08)"
   xmlns:inkscape="http://www.inkscape.org/namespaces/inkscape"
   xmlns:sodipodi="http://sodipodi.sourceforge.net/DTD/sodipodi-0.dtd"
   xmlns="http://www.w3.org/2000/svg"
   xmlns:svg="http://www.w3.org/2000/svg"><defs
   id="defs3" /><sodipodi:namedview
   id="namedview3"
   pagecolor="#ffffff"
   bordercolor="#000000"
   borderopacity="0.25"
   inkscape:showpageshadow="2"
   inkscape:pageopacity="0.0"
   inkscape:pagecheckerboard="0"
   inkscape:deskcolor="#d1d1d1"
   inkscape:zoom="0.86240409"
   inkscape:cx="125.81109"
   inkscape:cy="299.1637"
   inkscape:window-width="1712"
   inkscape:window-height="971"
   inkscape:window-x="0"
   inkscape:window-y="39"
   inkscape:window-maximized="1"
   inkscape:current-layer="g3" />
<g
   id="g3"
   transform="matrix(0.63805552,0,0,0.63805552,37.33795,42.413834)">
	<path
   d="M 194.108,35.874 160.428,2.196 c -2.928,-2.928 -7.677,-2.928 -10.606,0 L 38.374,113.647 c -2.929,2.93 -2.929,7.678 0,10.606 L 1.987,171.785 c -2.728,2.958 -2.635,7.542 0.21,10.388 l 11.938,11.938 c 1.462,1.461 3.382,2.196 5.305,2.196 1.82,0 3.645,-0.659 5.083,-1.986 l 47.528,-36.388 c 2.9168,2.91887 7.678044,2.92679 10.608,0.001 L 194.109,46.481 c 1.406,-1.407 2.196,-3.314 2.196,-5.304 0,-1.989 -0.79,-3.896 -2.197,-5.303 z M 77.491765,150.29936 c -7.189699,-2.54588 -8.459966,-2.11515 -14.374619,3.25568 L 19.398026,187.19508 9.6138702,176.90897 43.847503,133.49995 c 6.800413,-6.81696 4.629348,-7.13708 1.910913,-14.54895 L 113.36559,54.232736 175.13805,49.79831 Z"
   id="path1"
   sodipodi:nodetypes="ccccccccsccccscccccccccc" />
	<path
   d="m 74.454459,102.10549 c -1.442006,1.37007 -1.501435,3.6738 -0.130848,5.11532 l 13.660291,14.37853 c 1.370574,1.44202 3.67432,1.50095 5.116326,0.13087 l 0.872496,-0.82947 c 1.443019,-1.37054 1.50091,-3.67282 0.130862,-5.11583 L 80.442285,101.40688 c -1.370074,-1.442003 -3.672308,-1.501393 -5.115327,-0.13085 z"
   id="path2"
   style="stroke-width:0.5" /><path
   d="m 96.562942,80.161333 c -1.442006,1.37007 -1.501435,3.6738 -0.130848,5.115323 l 13.660286,14.37853 c 1.37058,1.442024 3.67432,1.500954 5.11633,0.13087 l 0.8725,-0.82947 c 1.44302,-1.37054 1.50091,-3.67282 0.13086,-5.11583 l -13.6613,-14.378028 c -1.37008,-1.442007 -3.67231,-1.501397 -5.115329,-0.130849 z"
   id="path2-5"
   style="stroke-width:0.5" /><path
   d="m 97.262789,99.947007 c 1.394438,1.418463 3.698841,1.438633 5.116811,0.04368 l 14.14371,-13.903268 c 1.41846,-1.394948 1.43814,-3.699357 0.0437,-5.117817 l -0.84421,-0.858232 c -1.39493,-1.419461 -3.69786,-1.43812 -5.11732,-0.04369 L 96.462274,93.971947 c -1.418457,1.394448 -1.438616,3.697357 -0.04368,5.116818 z"
   id="path2-0"
   style="stroke-width:0.5" />
	<path
   d="m -2.5683011,139.06547 c 0.4183411,4.64244 4.5207572,8.06401 9.1638352,7.6449 4.6446129,-0.41783 8.0684879,-4.51832 7.6509139,-9.16012 -0.419362,-4.64589 0.748435,-1.9607 -8.1182619,-17.35456 -9.9170223,17.17271 -9.1131598,14.22222 -8.6964872,18.86978 z"
   id="path3-1"
   sodipodi:nodetypes="ccccc" />
</g>
</svg>
