<?xml version="1.0" encoding="UTF-8" standalone="no"?>
<!-- Uploaded to: SVG Repo, www.svgrepo.com, Generator: SVG Repo Mixer Tools -->

<svg
   width="766.50781"
   height="655.46875"
   viewBox="0 0 490.565 419.5"
   version="1.1"
   id="svg1"
   sodipodi:docname="razor-blade.svg"
   inkscape:version="1.4.2 (ebf0e940, 2025-05-08)"
   xmlns:inkscape="http://www.inkscape.org/namespaces/inkscape"
   xmlns:sodipodi="http://sodipodi.sourceforge.net/DTD/sodipodi-0.dtd"
   xmlns="http://www.w3.org/2000/svg"
   xmlns:svg="http://www.w3.org/2000/svg">
  <defs
     id="defs1" />
  <sodipodi:namedview
     id="namedview1"
     pagecolor="#ffffff"
     bordercolor="#000000"
     borderopacity="0.25"
     inkscape:showpageshadow="2"
     inkscape:pageopacity="0.0"
     inkscape:pagecheckerboard="0"
     inkscape:deskcolor="#d1d1d1"
     inkscape:zoom="0.0325"
     inkscape:cx="353.84615"
     inkscape:cy="338.46154"
     inkscape:window-width="896"
     inkscape:window-height="245"
     inkscape:window-x="0"
     inkscape:window-y="39"
     inkscape:window-maximized="0"
     inkscape:current-layer="svg1" />
  <path
     fill="#ff368a"
     d="M 372.564,0 0,215.094 20.345,250.344 392.908,35.25 Z m 29.687,51.438 -372.561,215.094 8.155,14.125 c 16.17,-5.228 33.86,-0.587 45.25,11.937 l 28.53,-16.47 9.345,16.19 -28.53,16.467 c 5.14,16.12 0.317,33.767 -12.282,45.157 l 8.156,14.125 372.562,-215.095 -8.156,-14.124 c -16.157,5.214 -33.86,0.563 -45.25,-11.938 l -28.53,16.47 -9.345,-16.188 28.53,-16.47 c -5.147,-16.134 -0.35,-33.8 12.283,-45.186 z m -83.124,90.812 c 8.675,-0.225 17.2,4.207 21.844,12.25 6.755,11.7 2.762,26.652 -8.938,33.406 -8.828,5.097 -19.48,4.032 -27.093,-1.812 l -22.283,12.844 c 4.868,16.798 -2.108,35.36 -17.937,44.5 -15.835,9.142 -35.388,5.904 -47.5,-6.72 L 195,249.563 c 1.253,9.516 -3.197,19.274 -12.03,24.374 -11.7,6.755 -26.65,2.762 -33.406,-8.938 -6.755,-11.7 -2.73,-26.65 8.97,-33.406 3.655,-2.11 7.618,-3.18 11.56,-3.28 5.583,-0.146 11.1,1.637 15.564,5.06 l 22.218,-12.81 c -4.867,-16.806 2.11,-35.394 17.938,-44.533 5.818,-3.36 12.13,-5.055 18.406,-5.218 10.803,-0.282 21.43,3.975 29.094,11.968 l 22.25,-12.844 c -1.274,-9.527 3.158,-19.302 12,-24.406 3.656,-2.11 7.62,-3.18 11.562,-3.282 z M 470.221,169.156 97.657,384.25 118.001,419.5 490.565,204.406 Z"
     id="path1" />
</svg>
