<?xml version="1.0" encoding="UTF-8" standalone="no"?>
<!-- Uploaded to: SVG Repo, www.svgrepo.com, Generator: SVG Repo Mixer Tools -->

<svg
   width="682.92645"
   height="799.99963"
   viewBox="-3 0 34.999981 40.999981"
   version="1.1"
   id="svg1"
   sodipodi:docname="roulette-chip.svg"
   inkscape:version="1.4.2 (ebf0e940, 2025-05-08)"
   xmlns:inkscape="http://www.inkscape.org/namespaces/inkscape"
   xmlns:sodipodi="http://sodipodi.sourceforge.net/DTD/sodipodi-0.dtd"
   xmlns="http://www.w3.org/2000/svg"
   xmlns:svg="http://www.w3.org/2000/svg">
  <defs
     id="defs1" />
  <sodipodi:namedview
     id="namedview1"
     pagecolor="#ffffff"
     bordercolor="#000000"
     borderopacity="0.25"
     inkscape:showpageshadow="2"
     inkscape:pageopacity="0.0"
     inkscape:pagecheckerboard="0"
     inkscape:deskcolor="#d1d1d1"
     inkscape:zoom="0.57545201"
     inkscape:cx="374.48822"
     inkscape:cy="512.64049"
     inkscape:window-width="896"
     inkscape:window-height="245"
     inkscape:window-x="0"
     inkscape:window-y="39"
     inkscape:window-maximized="0"
     inkscape:current-layer="svg1" />
  <title
     id="title1">roulette-chip</title>
  <desc
     id="desc1">Created with Sketch.</desc>
  <g
     id="icons"
     stroke="none"
     stroke-width="1"
     fill="none"
     fill-rule="evenodd"
     style="fill:#ff368a;fill-opacity:1"
     transform="translate(-3)">
    <g
       id="ui-gambling-website-lined-icnos-casinoshunter"
       transform="translate(-2553,-540)"
       fill="#1C1C1F"
       fill-rule="nonzero"
       style="fill:#ff368a;fill-opacity:1">
      <g
         id="1"
         transform="translate(1350,120)"
         style="fill:#ff368a;fill-opacity:1">
        <path
           d="m 1228.0912,457.32516 0.022,-0.0268 c 0.6073,0.53199 1.3627,0.89897 2.1964,1.03092 l 0.2524,0.0325 -2e-4,2.6382 c -1.5541,-0.0959 -2.9713,-0.69786 -4.0887,-1.64317 l -0.2194,-0.19359 1.8378,-1.83805 0.022,-0.0268 z m 5.917,-0.13687 1.7915,1.793 c 0.023,0.0234 0.049,0.0435 0.076,0.0601 -1.0955,1.05976 -2.5354,1.76567 -4.1356,1.93351 L 1231.4382,461 v -2.6382 c 0.9908,-0.0984 1.8846,-0.52666 2.5699,-1.17349 z m -7.3916,-2.74995 0.021,-0.002 c 0.073,0.74126 0.3312,1.42826 0.7271,2.01436 l 0.1548,0.21497 -0.049,0.0397 -1.825,1.82546 c -0.8839,-1.04346 -1.4683,-2.34876 -1.6203,-3.7831 l -0.026,-0.30928 2.6166,1e-5 0.021,-0.002 z m 8.7454,-0.002 0.021,0.002 2.6166,-10e-6 c -0.086,1.39899 -0.5827,2.68701 -1.3704,3.74531 l -0.1733,0.22322 -0.037,-0.0455 -1.8361,-1.83623 c 0.425,-0.60206 0.7021,-1.31599 0.7785,-2.08891 z m -32.0139,-5.75233 c 0.163,0.25065 0.3718,0.40004 0.5993,0.40004 l 20.7413,-5.5e-4 C 1223.6305,450.43986 1223,452.1463 1223,454 c 0,1.45763 0.3898,2.8242 1.0709,4.00116 L 1208.8438,458 c -1.6557,0 -3.3479,-1.42103 -3.9189,-3.18518 l -1.1262,-3.47763 -0.328,-0.95219 -0.053,-0.17014 c -0.1143,-0.379 -0.1728,-0.68455 -0.1663,-0.98497 0,-0.2 0.038,-0.38232 0.097,-0.54598 z M 1231,450.49327 c 1.9367,0 3.5067,1.57002 3.5067,3.50673 0,1.93671 -1.57,3.50673 -3.5067,3.50673 -1.9367,0 -3.5067,-1.57002 -3.5067,-3.50673 0,-1.93671 1.57,-3.50673 3.5067,-3.50673 z m -5.3543,-1.02338 1.8255,1.82486 0.049,0.0397 c -0.4297,0.56014 -0.7272,1.22699 -0.8458,1.95393 l -0.036,0.27533 -0.021,-0.002 -2.6166,-1.6e-4 c 0.096,-1.55547 0.6989,-2.97375 1.6457,-4.09161 z m 8.7632,1.77415 1.8652,-1.86717 c 0.9267,1.05627 1.5411,2.39326 1.6991,3.86683 l 0.027,0.3178 -2.6166,1.6e-4 -0.021,0.002 c -0.078,-0.78677 -0.3635,-1.5124 -0.8016,-2.12115 l -0.1515,-0.1985 1.8652,-1.86717 z m -3.8474,-4.24401 5e-4,2.62765 v 0.0104 c -0.9343,0.0923 -1.7823,0.47798 -2.4478,1.06365 l -0.012,-0.0136 v 0 l -0.013,-0.0132 -1.8388,-1.83713 c 1.1486,-1.05691 2.6509,-1.73539 4.3091,-1.83768 z m 0.8768,2.61656 v -2.61657 c 1.5138,0.0933 2.8977,0.66688 4.0012,1.57017 l 0.2169,0.18501 -1.8648,1.86509 c -0.5877,-0.48595 -1.3042,-0.82157 -2.0907,-0.94796 l -0.2647,-0.0343 v -0.0214 -2.61657 z m 2.8249,-5.1277 c 0.4858,0 0.8862,0.36221 0.941,0.82885 l 0.01,0.10942 v 1.31358 c 0,0.14343 -0.032,0.27934 -0.091,0.40091 C 1233.9164,446.41661 1232.5069,446 1231,446 c -1.8477,0 -3.5492,0.62642 -4.9035,1.67849 l -22.1491,5.2e-4 c -0.4859,0 -0.8863,-0.36221 -0.941,-0.82885 l -0.01,-0.10942 v -1.31358 c 0,-0.48118 0.3657,-0.87776 0.8369,-0.93196 l 0.1105,-0.006 z M 1219.1053,420 c 1.4127,0 2.5579,1.13421 2.5579,2.53333 0,1.10299 -0.7118,2.04135 -1.7052,2.38915 l -10e-4,1.82452 1.8548,-1.7e-4 c 0.3537,-0.97938 1.2988,-1.68016 2.4093,-1.68016 1.4126,0 2.5578,1.13421 2.5578,2.53333 0,1.39912 -1.1452,2.53333 -2.5578,2.53333 -1.1105,0 -2.0556,-0.70078 -2.4093,-1.68016 l -1.8548,-10e-4 v 1.13889 c 0.4783,0.23876 0.8386,0.67095 0.9788,1.19558 l 3.2861,12.29719 h -10.236 l 3.2866,-12.29719 c 0.1443,-0.53973 0.5118,-0.96202 0.9783,-1.19529 l 10e-5,-1.13918 -1.8533,10e-4 c -0.3536,0.97938 -1.2988,1.68016 -2.4092,1.68016 -1.4127,0 -2.5579,-1.13421 -2.5579,-2.53333 0,-1.39912 1.1452,-2.53333 2.5579,-2.53333 1.1104,0 2.0556,0.70078 2.4092,1.68016 l 1.8533,1.7e-4 2e-4,-1.82463 c -0.9932,-0.34788 -1.7048,-1.28616 -1.7048,-2.38904 0,-1.39912 1.1452,-2.53333 2.5579,-2.53333 z"
           id="roulette-chip"
           style="fill:#ff368a;fill-opacity:1" />
      </g>
    </g>
  </g>
</svg>
