<?xml version="1.0" encoding="UTF-8" standalone="no"?>
<!-- Uploaded to: SVG Repo, www.svgrepo.com, Generator: SVG Repo Mixer Tools -->

<svg
   width="728.09064"
   height="728.18439"
   viewBox="0 0 465.97801 466.03801"
   version="1.1"
   id="svg1"
   sodipodi:docname="slap.svg"
   inkscape:version="1.4.2 (ebf0e940, 2025-05-08)"
   xmlns:inkscape="http://www.inkscape.org/namespaces/inkscape"
   xmlns:sodipodi="http://sodipodi.sourceforge.net/DTD/sodipodi-0.dtd"
   xmlns="http://www.w3.org/2000/svg"
   xmlns:svg="http://www.w3.org/2000/svg">
  <defs
     id="defs1" />
  <sodipodi:namedview
     id="namedview1"
     pagecolor="#ffffff"
     bordercolor="#000000"
     borderopacity="0.25"
     inkscape:showpageshadow="2"
     inkscape:pageopacity="0.0"
     inkscape:pagecheckerboard="0"
     inkscape:deskcolor="#d1d1d1"
     inkscape:zoom="0.0325"
     inkscape:cx="353.84615"
     inkscape:cy="338.46154"
     inkscape:window-width="896"
     inkscape:window-height="245"
     inkscape:window-x="0"
     inkscape:window-y="39"
     inkscape:window-maximized="0"
     inkscape:current-layer="svg1" />
  <path
     fill="#ff368a"
     d="m 288.34,0 c 66.658,35.958 111.957,106.423 111.957,187.47 0,117.567 -95.305,212.872 -212.87,212.872 -81.016,0 -151.456,-45.26 -187.427,-111.87 26.226,102.176 118.852,177.566 229.275,177.566 130.85,0 236.703,-105.857 236.703,-236.706 C 465.978,118.884 390.554,26.212 288.34,0 Z M 145.107,18.192 c -0.513,-0.002 -1.022,0.008 -1.525,0.03 -4.83,0.2 -8.995,1.528 -12.078,3.548 L 118.87,129.758 103.412,158.35 c 6.213,10.643 11.196,21.47 14.826,32.496 l -17.75,5.844 c -2.052,-6.233 -4.63,-12.46 -7.703,-18.682 l -0.025,0.047 c -12.95,-22.565 -27.376,-41.2 -38.912,-47.967 -6.19,-3.63 -10.49,-4.2 -15.262,-2.35 -3.982,1.546 -9.023,5.83 -14.383,13.985 33.155,41.62 40.914,80.725 46.535,106.195 1.802,8.16 1.855,15.758 3.23,21.36 l 0.305,1.234 -0.04,1.272 c -0.754,25.344 10.396,43.41 26.146,55.218 15.704,11.776 36.216,16.526 52.104,13.748 19.725,-4.198 32.415,-11.058 45.717,-22.464 11.922,-10.57 33.085,-26.408 45.062,-36.42 37.06,-30.977 98.058,-63.045 108.02,-68.21 2.108,-10.902 -4.806,-22.478 -13.655,-27.152 l -74.184,42.71 c -3.954,-7.074 -8.448,-13.68 -13.392,-19.895 l 91.505,-99.21 c -0.33,-6.228 -3.38,-13.547 -8.305,-19.252 -4.444,-5.147 -9.932,-8.334 -14.133,-9.373 l -95.07,101.33 c -6.066,-5.157 -12.43,-10.054 -19.002,-14.772 l 66.1,-125.216 c -4.527,-6.72 -9.388,-10.572 -15.26,-13.237 -5.445,-2.47 -12.303,-3.794 -19.887,-4.892 l -60.463,123.8 c -7.348,-4.592 -14.772,-9.118 -22.182,-13.656 L 167.409,26.035 c -3.996,-3.416 -10.597,-6.564 -17.572,-7.512 -1.603,-0.218 -3.188,-0.326 -4.73,-0.33 z"
     id="path1" />
</svg>
