<?xml version="1.0" encoding="UTF-8" standalone="no"?>
<svg
   viewBox="223.3215 210.2024 100.08735 73.876702"
   width="100.08727"
   height="73.876701"
   preserveAspectRatio="none"
   version="1.1"
   id="svg2"
   sodipodi:docname="splash.svg"
   inkscape:version="1.4.2 (ebf0e940, 2025-05-08)"
   xmlns:inkscape="http://www.inkscape.org/namespaces/inkscape"
   xmlns:sodipodi="http://sodipodi.sourceforge.net/DTD/sodipodi-0.dtd"
   xmlns="http://www.w3.org/2000/svg"
   xmlns:svg="http://www.w3.org/2000/svg">
  <defs
     id="defs2" />
  <sodipodi:namedview
     id="namedview2"
     pagecolor="#ffffff"
     bordercolor="#000000"
     borderopacity="0.25"
     inkscape:showpageshadow="2"
     inkscape:pageopacity="0.0"
     inkscape:pagecheckerboard="0"
     inkscape:deskcolor="#d1d1d1"
     inkscape:zoom="5.6115869"
     inkscape:cx="71.370186"
     inkscape:cy="32.611096"
     inkscape:window-width="896"
     inkscape:window-height="245"
     inkscape:window-x="0"
     inkscape:window-y="39"
     inkscape:window-maximized="0"
     inkscape:current-layer="svg2" />
  <path
     d="m 244.20018,218.17318 c -3.97305,4.75028 -11.21705,8.27272 -20.87868,26.36742 20.20503,-11.49274 34.89267,-3.91598 40.18876,-10.24991 4.49093,-5.37577 3.81573,-13.34952 -1.51678,-17.7974 -5.33542,-4.45448 -13.30138,-3.69571 -17.7933,1.67989 z m -8.06609,43.40276 c 21.11717,2.83163 19.56787,10.63962 25.90566,11.74231 5.37657,0.93342 10.49196,-2.62339 11.41775,-7.94446 0.92665,-5.32599 -2.68752,-10.39756 -8.06376,-11.33294 -6.33796,-1.10171 -19.96437,2.94548 -29.25965,7.53509 z m 19.72672,-16.94034 c 23.04468,-3.29973 26.08155,6.17505 32.1169,3.96385 5.12482,-1.87835 7.77497,-7.51349 5.91267,-12.58476 -1.86259,-5.07539 -7.53088,-7.6633 -12.65339,-5.78658 -6.03929,2.21052 -16.29534,6.33659 -25.37618,14.40749 z"
     style="fill:#ff368a;fill-opacity:1;stroke-width:1"
     id="path1" />
  <path
     d="m 298.26262,223.27335 c 0.18046,6.19013 5.80229,40.98752 12.28261,44.46787 4.48628,-1.82137 13.1003,-36.9734 12.85855,-45.22621 -0.20816,-7.00172 -6.00498,-12.51838 -12.94576,-12.30672 -6.94734,0.20865 -12.40271,6.06282 -12.1954,13.06506 z"
     style="fill:#ff368a;fill-opacity:1;stroke-width:1"
     id="path2"
     sodipodi:nodetypes="ccccc" />
  <circle
     cx="310.23096"
     cy="277.9071"
     id="ellipse2"
     r="6.1719999"
     style="fill:#ff368a;fill-opacity:1" />
</svg>
