<?xml version="1.0" encoding="utf-8"?>
<svg xmlns="http://www.w3.org/2000/svg" viewBox="223.3215 210.2024 123.6971 79.9926" width="123.697px" height="79.9926px" preserveAspectRatio="none"><g id="object-0"><g id="Layer_1" transform="matrix(0.320406, 0, 0, 0.320406, 159.426819, 181.444153)" style=""/><path d="M 284.878 235.419 C 279.517 232.319 274.805 225.786 255.322 219.369 C 270.108 237.305 265.161 253.074 272.309 257.206 C 278.375 260.709 286.115 258.677 289.583 252.661 C 293.057 246.641 290.944 238.923 284.878 235.419 Z M 240.735 234.912 C 241.565 256.202 233.607 256.014 233.607 262.447 C 233.609 267.904 237.99 272.334 243.391 272.334 C 248.797 272.334 253.174 267.904 253.174 262.447 C 253.173 256.014 246.85 243.283 240.735 234.912 Z M 260.806 251.443 C 268.007 273.581 259.193 278.197 262.406 283.764 C 265.135 288.491 271.141 290.136 275.818 287.432 C 280.499 284.727 282.077 278.699 279.35 273.974 C 276.137 268.403 270.314 259.006 260.806 251.443 Z" style="stroke-width: 1; transform-box: fill-box; transform-origin: 50% 50%;" transform="matrix(0.171411, -0.9852, 0.9852, 0.171411, -0.000004, -0.000022)"/><path d="M 337.164 236.036 C 331.803 232.936 318.092 236.729 292.878 223.113 C 316.353 240.795 317.447 253.691 324.595 257.823 C 330.661 261.326 338.401 259.294 341.869 253.278 C 345.343 247.258 343.23 239.54 337.164 236.036 Z" style="stroke-width: 1; transform-box: fill-box; transform-origin: 50% 50%;" transform="matrix(-0.525598, -0.850733, 0.850733, -0.525598, -0.000025, -0.000009)"/><ellipse style="stroke: rgb(0, 0, 0);" cx="316.102" cy="284.023" rx="6.172" ry="6.172"/></g></svg>