<?xml version="1.0" encoding="utf-8"?>
<svg xmlns="http://www.w3.org/2000/svg" viewBox="179.9328 218.3536 130.5417 88.6897" width="130.542px" height="88.6897px" preserveAspectRatio="none"><defs><linearGradient gradientUnits="userSpaceOnUse" x1="21.811" y1="19.143" x2="21.811" y2="59.406" id="gradient-0" gradientTransform="matrix(0.623242, 0.782029, -0.598717, 0.47715, 44.933223, 13.190761)"><stop offset="1" style="stop-color: rgb(0% 0% 0%)"/></linearGradient></defs><g id="object-0"><g id="underwear-underpant-heart-love-valentine" transform="matrix(0.320406, 0, 0, 0.320406, 159.426819, 181.444153)" style=""><path d="M387.12,127.12C352.08,122.48,305.52,120,256,120s-96.08,2.48-131.12,7.12C74.32,133.68,64,141.84,64,152v46   c0,15.52,11.28,28.56,26.32,30.16c74,7.92,98.16,64.56,105.36,110.72c4.96,30.8,29.68,53.12,58.96,53.12h2.72   c29.28,0,54-22.32,58.96-53.12c7.2-46.16,31.36-102.8,105.36-110.72C436.72,226.56,448,213.52,448,198v-46   C448,141.84,437.68,133.68,387.12,127.12z M135.44,223.68c-12.96-5.84-27.52-9.68-43.36-11.36C85.2,211.52,80,205.36,80,198v-30.48   c13.52,5.04,38.48,10,84.48,13.36C159.76,198.16,150.4,211.92,135.44,223.68z M281.68,267.68l-19.92,20.48   c-3.2,3.2-8.32,3.2-11.52,0l-19.92-20.48c-7.04-7.2-8.4-18.8-2.08-26.64c7.12-8.88,20-9.36,27.76-1.44   c7.76-7.92,20.64-7.44,27.76,1.44C290.08,248.88,288.72,260.48,281.68,267.68z M256,168c-93.12,0-155.28-8.64-172.48-16   c17.2-7.36,79.52-16,172.48-16s155.28,8.64,172.48,16C411.28,159.36,349.12,168,256,168z M432,198c0,7.36-5.2,13.52-12.08,14.32   c-15.84,1.68-30.4,5.52-43.36,11.36c-14.96-11.76-24.32-25.52-29.04-42.8c46-3.36,70.96-8.32,84.48-13.36V198z"/></g><g id="Capa_1" style="transform-origin: 481.789px 258.801px;" transform="matrix(1.160307, 0.821257, -0.821257, 1.160307, -205.366394, -2.513309)"><g transform="matrix(1, 0, 0, 1, 456.203217, 224.031021)"><path d="M 42.439 22.283 C 42.179 21.267 38.591 18.728 37.188 18.466 C 35.785 18.204 34.287 18.317 32.867 18.863 L 31.588 19.357 L 30.309 19.85 C 29.006 20.352 27.901 21.195 27.082 22.262 C 26.262 23.329 25.729 24.621 25.569 26.023 C 25.514 26.512 25.376 26.986 25.166 27.424 C 24.956 27.862 24.674 28.264 24.329 28.608 L 14.398 38.538 L 4.467 48.468 C 0.987 52.026 6.722 42.275 3.345 49.667 C -0.032 57.059 9.266 60.988 13.545 57.018 L 26.143 43.766 L 34.604 35.305 C 34.63 35.28 35.166 34.804 35.717 34.352 C 36.268 33.9 36.835 33.472 36.921 33.541 C 37.174 33.394 37.432 33.254 37.696 33.123 C 37.96 32.993 38.23 32.873 38.507 32.766 C 39.527 32.372 40.434 31.765 41.179 30.995 C 41.924 30.226 42.505 29.295 42.873 28.256 C 43.221 27.274 43.353 26.243 43.277 25.227 C 43.202 24.211 42.92 23.209 42.439 22.283 Z" style="fill:none; stroke: url(&quot;#gradient-0&quot;); stroke-miterlimit: 4.19; stroke-width: 3.51731px;"/></g></g></g></svg>