<?xml version="1.0" encoding="UTF-8" standalone="no"?>
<svg
   viewBox="179.9328 218.3536 130.5417 88.6897"
   width="130.542px"
   height="88.6897px"
   preserveAspectRatio="none"
   version="1.1"
   id="svg2"
   sodipodi:docname="strapon.svg"
   inkscape:version="1.4.2 (ebf0e940, 2025-05-08)"
   xmlns:inkscape="http://www.inkscape.org/namespaces/inkscape"
   xmlns:sodipodi="http://sodipodi.sourceforge.net/DTD/sodipodi-0.dtd"
   xmlns="http://www.w3.org/2000/svg"
   xmlns:svg="http://www.w3.org/2000/svg">
  <sodipodi:namedview
     id="namedview2"
     pagecolor="#ffffff"
     bordercolor="#000000"
     borderopacity="0.25"
     inkscape:showpageshadow="2"
     inkscape:pageopacity="0.0"
     inkscape:pagecheckerboard="0"
     inkscape:deskcolor="#d1d1d1"
     showguides="false"
     inkscape:zoom="4.4609528"
     inkscape:cx="50.773906"
     inkscape:cy="15.019213"
     inkscape:window-width="1712"
     inkscape:window-height="971"
     inkscape:window-x="0"
     inkscape:window-y="39"
     inkscape:window-maximized="1"
     inkscape:current-layer="svg2" />
  <defs
     id="defs1">
    <linearGradient
       gradientUnits="userSpaceOnUse"
       x1="21.811"
       y1="19.143"
       x2="21.811"
       y2="59.406"
       id="gradient-0"
       gradientTransform="matrix(0.623242,0.782029,-0.598717,0.47715,43.959028,9.2213202)">
      <stop
         offset="1"
         style="stop-color: rgb(0% 0% 0%)"
         id="stop1" />
    </linearGradient>
  </defs>
  <path
     id="path1"
     style="fill:#ff368a;fill-opacity:1;stroke-width:0.320406"
     d="m 241.45023,219.89266 c -15.86651,0 -30.78459,0.79457 -42.01162,2.28125 -16.19973,2.10186 -19.50581,4.71734 -19.50581,7.97266 v 14.73828 c 0,4.9727 3.61466,9.15141 8.43357,9.66406 23.71004,2.53762 31.45081,20.68466 33.75774,35.47461 1.58921,9.8685 9.5091,17.01954 18.89058,17.01954 h 0.87109 c 9.38149,0 17.30331,-7.15104 18.89253,-17.01954 0.50601,-3.24404 2.60025,-12.07415 3.74028,-15.44107 l -4.62621,0.60283 -2.04961,1.26402 c -5.43106,10.91365 -12.07701,21.65412 -15.64254,21.6543 -6.69204,5.9e-4 -25.30674,-37.52357 -25.30658,-43.32617 -1.6e-4,-5.8026 18.00126,-10.04551 24.6933,-10.04492 6.69127,3.5e-4 24.84385,3.93634 24.84369,9.73828 5e-5,1.85593 0.97823,0.59935 -1.68206,6.7233 l 4.27903,-0.72339 3.13469,-0.16733 c 4.06338,-4.11933 9.5607,-4.38311 22.37375,-5.75446 4.81891,-0.51265 8.43357,-4.69136 8.43357,-9.66406 v -14.73828 c 0,-3.25532 -3.30804,-5.8708 -19.50777,-7.97266 -11.22703,-1.48668 -26.14512,-2.28125 -42.01162,-2.28125 z m 0,5.12696 c 29.78494,0 49.75256,2.76876 55.26354,5.12695 -5.51098,2.35819 -25.42734,5.125 -55.26354,5.125 -29.83621,0 -49.75256,-2.76681 -55.26354,-5.125 5.51098,-2.35819 25.47859,-5.12695 55.26354,-5.12695 z m -56.39049,10.09961 c 4.33189,1.61485 12.32962,3.20272 27.0683,4.27929 -1.51232,5.53661 -4.5114,9.94688 -9.30467,13.71485 -4.15246,-1.87117 -8.81926,-3.10235 -13.8945,-3.64063 -2.20439,-0.25632 -3.86913,-2.2297 -3.86913,-4.58789 z m 112.78294,0 v 9.76562 c 0,2.35819 -1.6667,4.33157 -3.87109,4.58789 -5.07523,0.53828 -9.74007,1.76946 -13.89254,3.64063 -4.79327,-3.76797 -7.79235,-8.17824 -9.30467,-13.71485 14.73868,-1.07657 22.73641,-2.66444 27.0683,-4.27929 z"
     sodipodi:nodetypes="scssccssccccccccccccsscsscscsccccsccscccc" />
  <g
     transform="matrix(0.86990317,0.87687213,-0.87687126,0.86990256,219.87211,200.67726)"
     id="g2"
     style="fill:#ff368a;fill-opacity:1">
    <g
       id="path2"
       style="opacity:1"
       transform="translate(1.881781,-13.897009)">
      <path
         style="baseline-shift:baseline;display:inline;overflow:visible;vector-effect:none;stroke-miterlimit:4.19;enable-background:accumulate;stop-color:#000000;stop-opacity:1"
         d="m 78.61843,1.4436089 c -2.239598,0.256611 -4.319212,1.242964 -6.36082,2.141612 -2.75849,1.476889 -4.487934,4.430376 -4.781929,7.5033441 -0.659682,1.502833 -2.127592,2.43547 -3.191519,3.649797 -5.524378,5.459814 -10.949402,11.017191 -16.264132,16.681736 -1.354962,1.524597 -3.249071,2.828416 -3.281166,5.082219 -0.771982,3.821852 2.204946,7.4804 5.833134,8.357166 3.1676,0.983627 6.809272,-0.0904 8.856557,-2.710703 5.710732,-5.970703 11.311481,-12.048649 17.219351,-17.827124 2.055607,-1.962034 3.884142,-4.372618 6.698068,-5.275979 4.501652,-1.910574 6.80385,-7.71193 4.63764,-12.1507671 -0.809685,-2.254844 -3.08401,-3.49144 -4.997527,-4.710987 -1.327461,-0.716221 -2.886881,-0.85354 -4.367657,-0.740314 z m 1.986328,3.583984 c 1.624357,0.835093 3.714156,1.935155 4.145643,3.170948 1.523358,3.0586711 -3.292457,-3.20479 -8.31122,-0.535669 -3.222285,1.326999 -5.770566,7.6417811 -8.250711,9.9597191 -5.905633,5.799032 -11.319469,11.905677 -17.050079,17.875367 -2.57585,2.299011 -2.875321,5.848378 -3.023964,2.147405 -0.143914,-1.597135 0.783963,-2.782578 1.942654,-3.706694 6.530013,-6.549093 13.102012,-13.058426 19.604467,-19.633691 1.763951,-1.78332 1.013908,-4.6731581 2.799356,-6.4363611 1.46047,-1.588046 3.666255,-2.06351 5.617303,-2.787623 0.826641,-0.190845 1.692795,-0.20966 2.526551,-0.053401 z"
         id="path4"
         sodipodi:nodetypes="cccccccccccccccccccccccc" />
    </g>
  </g>
</svg>
