<?xml version="1.0" encoding="UTF-8" standalone="no"?>
<svg
   viewBox="196.1877 89.4178 155.0494 145.5993"
   width="155.049px"
   height="145.599px"
   preserveAspectRatio="none"
   version="1.1"
   id="svg7"
   sodipodi:docname="syringe pills.svg"
   inkscape:version="1.4.2 (ebf0e940, 2025-05-08)"
   xmlns:inkscape="http://www.inkscape.org/namespaces/inkscape"
   xmlns:sodipodi="http://sodipodi.sourceforge.net/DTD/sodipodi-0.dtd"
   xmlns="http://www.w3.org/2000/svg"
   xmlns:svg="http://www.w3.org/2000/svg">
  <defs
     id="defs7" />
  <sodipodi:namedview
     id="namedview7"
     pagecolor="#ffffff"
     bordercolor="#000000"
     borderopacity="0.25"
     inkscape:showpageshadow="2"
     inkscape:pageopacity="0.0"
     inkscape:pagecheckerboard="0"
     inkscape:deskcolor="#d1d1d1"
     inkscape:zoom="3.5475288"
     inkscape:cx="61.592171"
     inkscape:cy="83.156478"
     inkscape:window-width="1712"
     inkscape:window-height="971"
     inkscape:window-x="0"
     inkscape:window-y="39"
     inkscape:window-maximized="1"
     inkscape:current-layer="svg7" />
  <g
     id="g9"
     transform="matrix(0.94704373,0,0,0.94704373,10.864894,11.9526)">
    <g
       id="g8">
      <g
         id="g7">
        <path
           d="m 338.84736,200.88684 h -31.88839 c -6.74328,0 -12.43038,5.64648 -12.43038,12.38976 0,6.74327 5.6871,12.43038 12.43038,12.43038 h 31.88839 c 6.74328,0 12.38976,-5.68711 12.38976,-12.43038 0,-6.74328 -5.64648,-12.38976 -12.38976,-12.38976 z m 0,21.24539 h -15.96451 v -14.17714 h -15.92388 c -3.89973,0 -7.10888,2.15298 -8.85563,4.26533 0.69057,-4.26533 4.2247,-7.79945 8.85563,-7.79945 h 31.88839 c 4.9559,0 8.85563,3.89972 8.85563,8.85563 0,4.9559 -3.89973,8.85563 -8.85563,8.85563 z"
           style="fill:#ff368a;fill-opacity:1;stroke:#9f39cf;stroke-width:0;stroke-dasharray:none;stroke-opacity:1"
           id="path1" />
        <rect
           class="cls-1"
           x="268.51581"
           y="-51.578743"
           width="78.201187"
           height="17.799326"
           rx="38.408455"
           transform="rotate(45)"
           style="fill:#ff368a;fill-opacity:1;stroke:#9f39cf;stroke-width:0;stroke-linecap:round;stroke-linejoin:round;stroke-dasharray:none;stroke-opacity:1"
           id="rect1" />
        <rect
           class="cls-1"
           x="300.11633"
           y="-34.940105"
           width="9.549819"
           height="28.552505"
           transform="rotate(45)"
           style="fill:#ff368a;fill-opacity:1;stroke:#9f39cf;stroke-width:0;stroke-linecap:round;stroke-linejoin:round;stroke-dasharray:none;stroke-opacity:1"
           id="rect2" />
        <rect
           class="cls-1"
           x="-14.751438"
           y="-324.45966"
           width="13.088585"
           height="41.495663"
           rx="75.138168"
           transform="rotate(135)"
           style="fill:#ff368a;fill-opacity:1;stroke:#9f39cf;stroke-width:0;stroke-linecap:round;stroke-linejoin:round;stroke-dasharray:none;stroke-opacity:1"
           id="rect3" />
        <path
           style="baseline-shift:baseline;display:inline;overflow:visible;opacity:1;fill:#ff368a;fill-opacity:1;stroke:#9f39cf;stroke-width:0;stroke-linecap:round;stroke-linejoin:round;stroke-dasharray:none;stroke-opacity:1;enable-background:accumulate;stop-color:#000000;stop-opacity:1"
           d="m 298.62378,106.81055 c -7.00001,0 -13.99946,2.66485 -19.33093,7.99632 l -48.80583,48.80584 a 2.2127595,2.2127595 0 0 0 0,3.12926 l 35.53464,35.53464 a 2.2127595,2.2127595 0 0 0 3.12927,0 l 48.80583,-48.80583 c 10.66293,-10.66293 10.66293,-28.00099 0,-38.66391 -5.33147,-5.33147 -12.33296,-7.99632 -19.33298,-7.99632 z m 0,4.39572 c 5.85767,0 11.71659,2.24273 16.20372,6.72986 8.97427,8.97426 8.97427,23.43112 0,32.40539 l -47.24223,47.24223 -32.40333,-32.40539 47.24017,-47.24223 c 4.48714,-4.48713 10.344,-6.72986 16.20167,-6.72986 z"
           id="path3" />
        <path
           style="baseline-shift:baseline;display:inline;overflow:visible;opacity:1;fill:#ff368a;fill-opacity:1;stroke:#9f39cf;stroke-width:0;stroke-linecap:round;stroke-linejoin:round;stroke-dasharray:none;stroke-opacity:1;enable-background:accumulate;stop-color:#000000;stop-opacity:1"
           d="m 342.90625,87.308594 a 2.1087151,2.1087151 0 0 0 -1.49219,0.617187 l -27.00195,27.001949 a 2.1087151,2.1087151 0 0 0 0,2.98243 2.1087151,2.1087151 0 0 0 2.98242,0 l 27.00195,-27.001957 a 2.1087151,2.1087151 0 0 0 0,-2.982422 2.1087151,2.1087151 0 0 0 -1.49023,-0.617187 z"
           id="line3" />
        <path
           style="baseline-shift:baseline;display:inline;overflow:visible;opacity:1;fill:#ff368a;fill-opacity:1;stroke:#9f39cf;stroke-width:0;stroke-linecap:round;stroke-linejoin:round;stroke-dasharray:none;stroke-opacity:1;enable-background:accumulate;stop-color:#000000;stop-opacity:1"
           d="m 276.74609,118.75781 a 2.1087151,2.1087151 0 0 0 0,2.98242 l 9.79297,9.79102 a 2.1087151,2.1087151 0 0 0 2.98242,0 2.1087151,2.1087151 0 0 0 0,-2.98242 l -9.79296,-9.79102 a 2.1087151,2.1087151 0 0 0 -2.98243,0 z"
           id="line4" />
        <path
           style="baseline-shift:baseline;display:inline;overflow:visible;opacity:1;fill:#ff368a;fill-opacity:1;stroke:#9f39cf;stroke-width:0;stroke-linecap:round;stroke-linejoin:round;stroke-dasharray:none;stroke-opacity:1;enable-background:accumulate;stop-color:#000000;stop-opacity:1"
           d="m 256.12695,140.19727 a 2.1087151,2.1087151 0 0 0 -1.48828,0.62109 2.1087151,2.1087151 0 0 0 0.006,2.98242 l 9.8418,9.79102 a 2.1087151,2.1087151 0 0 0 2.98242,-0.006 2.1087151,2.1087151 0 0 0 -0.008,-2.98242 l -9.83985,-9.79297 a 2.1087151,2.1087151 0 0 0 -1.49414,-0.61328 z"
           id="line5" />
        <path
           style="baseline-shift:baseline;display:inline;overflow:visible;opacity:1;fill:#ff368a;fill-opacity:1;stroke:#9f39cf;stroke-width:0;stroke-linecap:round;stroke-linejoin:round;stroke-dasharray:none;stroke-opacity:1;enable-background:accumulate;stop-color:#000000;stop-opacity:1"
           d="m 267.18555,129.14453 a 2.1087151,2.1087151 0 0 0 -1.49219,0.61719 2.1087151,2.1087151 0 0 0 0,2.98242 l 16.38672,16.38477 a 2.1087151,2.1087151 0 0 0 2.98047,0 2.1087151,2.1087151 0 0 0 0,-2.98243 l -16.38477,-16.38476 a 2.1087151,2.1087151 0 0 0 -1.49023,-0.61719 z"
           id="line6" />
        <path
           style="baseline-shift:baseline;display:inline;overflow:visible;opacity:1;fill:#ff368a;fill-opacity:1;stroke:#9f39cf;stroke-width:0;stroke-linecap:round;stroke-linejoin:round;stroke-dasharray:none;stroke-opacity:1;enable-background:accumulate;stop-color:#000000;stop-opacity:1"
           d="m 245.12891,151.25 a 2.1087151,2.1087151 0 0 0 -1.49219,0.61719 2.1087151,2.1087151 0 0 0 0,2.98242 l 16.33789,16.33594 a 2.1087151,2.1087151 0 0 0 2.98242,0 2.1087151,2.1087151 0 0 0 0,-2.98243 L 246.61914,151.86719 A 2.1087151,2.1087151 0 0 0 245.12891,151.25 Z"
           id="line7" />
      </g>
    </g>
  </g>
</svg>
