<?xml version="1.0" encoding="utf-8"?>
<svg xmlns="http://www.w3.org/2000/svg" viewBox="196.1877 89.4178 155.0494 145.5993" width="155.049px" height="145.599px" preserveAspectRatio="none"><g id="object-0" transform="matrix(11.462120056152344, 0, 0, 11.462120056152344, 76.79348754882812, 37.84869384765625)"><g style="" transform="matrix(3.544035, 0, 0, 3.544035, -60.482471, 0.678781)"><path d="M 23.517 3.822 L 22.732 3.822 C 22.566 3.822 22.426 3.961 22.426 4.127 C 22.426 4.293 22.566 4.433 22.732 4.433 L 23.517 4.433 C 23.683 4.433 23.822 4.293 23.822 4.127 C 23.822 3.961 23.683 3.822 23.517 3.822 Z M 23.517 4.345 L 23.124 4.345 L 23.124 3.996 L 22.732 3.996 C 22.636 3.996 22.557 4.049 22.514 4.101 C 22.531 3.996 22.618 3.909 22.732 3.909 L 23.517 3.909 C 23.639 3.909 23.735 4.005 23.735 4.127 C 23.735 4.249 23.639 4.345 23.517 4.345 Z" style="stroke-width: 0.087; transform-origin: 23.124px 3.739px;"/></g><g id="Layer_2" style="" transform="matrix(4.229256, 0, 0, 4.229256, -33.637257, -17.366165)"><rect class="cls-1" x="0.876" y="2.401" width="1.485" height="0.338" rx="1.93" transform="matrix(0.707107, 0.707107, -0.707107, 0.707107, 12.152334, 4.21608)" style="stroke-linecap: round; stroke-linejoin: round; stroke-width: 0.087; stroke: rgb(0, 0, 0);"/><rect class="cls-1" x="1.158" y="2.569" width="0.197" height="0.589" transform="matrix(0.707107, 0.707107, -0.707107, 0.707107, 12.25441, 4.558077)" style="stroke-linecap: round; stroke-linejoin: round; stroke-width: 0.087; stroke: rgb(0, 0, 0);"/><rect class="cls-1" x="0.817" y="2.739" width="0.27" height="0.856" rx="1.55" transform="matrix(-0.707107, 0.707107, -0.707107, -0.707107, 13.727087, 9.34166)" style="stroke-linecap: round; stroke-linejoin: round; stroke-width: 0.087; stroke: rgb(0, 0, 0);"/><path class="cls-1" d="M 12.231 5.456 C 12.504 5.456 12.725 5.677 12.725 5.95 L 12.725 7.307 C 12.725 7.307 12.725 7.307 12.725 7.307 L 11.737 7.307 C 11.737 7.307 11.737 7.307 11.737 7.307 L 11.737 5.95 C 11.737 5.677 11.958 5.456 12.231 5.456 Z" style="fill: none; stroke: rgb(0, 0, 0); stroke-linecap: round; stroke-linejoin: round; transform-box: fill-box; transform-origin: 50% 50%; stroke-width: 0.087;" transform="matrix(0.707107, 0.707107, -0.707107, 0.707107, 0, -0.000001)"/><line class="cls-1" x1="12.886" y1="5.727" x2="13.443" y2="5.17" style="fill: none; stroke: rgb(0, 0, 0); stroke-linecap: round; stroke-linejoin: round; stroke-width: 0.087;"/><line class="cls-1" x1="12.109" y1="5.806" x2="12.311" y2="6.008" style="fill: none; stroke: rgb(0, 0, 0); stroke-linecap: round; stroke-linejoin: round; stroke-width: 0.087;"/><line class="cls-1" x1="11.653" y1="6.261" x2="11.856" y2="6.463" style="fill: none; stroke: rgb(0, 0, 0); stroke-linecap: round; stroke-linejoin: round; stroke-width: 0.087;"/><line class="cls-1" x1="11.881" y1="6.033" x2="12.219" y2="6.371" style="fill: none; stroke: rgb(0, 0, 0); stroke-linecap: round; stroke-linejoin: round; stroke-width: 0.087;"/><line class="cls-1" x1="11.426" y1="6.489" x2="11.763" y2="6.826" style="fill: none; stroke: rgb(0, 0, 0); stroke-linecap: round; stroke-linejoin: round; stroke-width: 0.087;"/></g></g></svg>