<?xml version="1.0" encoding="utf-8"?>
<svg xmlns="http://www.w3.org/2000/svg" viewBox="263.537 136.645 92.638 258.499" width="92.638px" height="258.499px"><g id="object-0" transform="matrix(1, 0, 0, 1, -3.552713678800501e-15, 0)"><path style="stroke-width: 1; stroke: rgb(0, 0, 0);" d="M 351.29 337.266 C 348.591 337.266 346.402 335.078 346.402 332.378 L 346.402 168.217 C 346.402 156.403 339.34 146.421 330.981 146.421 L 317.444 146.421 C 309.087 146.421 302.024 156.402 302.024 168.217 L 302.024 185.273 C 302.024 187.972 299.836 190.162 297.137 190.162 C 294.438 190.162 292.249 187.973 292.249 185.273 L 292.249 168.217 C 292.249 150.808 303.551 136.645 317.443 136.645 L 330.98 136.645 C 344.875 136.645 356.175 150.808 356.175 168.217 L 356.175 332.378 C 356.177 335.077 353.99 337.266 351.29 337.266 Z"/><path style="stroke: rgb(0, 0, 0); fill:none; stroke-width: 6px;" d="M 332.447 342.263 C 332.447 362.56 317.017 395.144 297.99 395.144 C 278.963 395.144 263.537 362.56 263.537 342.263 L 263.537 204.031 C 263.537 183.734 278.963 186.34 297.99 186.34 C 317.017 186.34 332.447 183.735 332.447 204.031 L 332.447 342.263 Z"/><g transform="matrix(1, 0, 0, 1, 50.647282, 24.184515)"><path style="stroke: rgb(0, 0, 0);" d="M281.608,176.202c0.016,0.182,0.033,0.363,0.047,0.545 C281.64,176.566,281.626,176.379,281.608,176.202z"/><path style="stroke: rgb(0, 0, 0);" d="M281.733,177.743c0.04,0.697,0.066,1.396,0.066,2.104 C281.8,179.113,281.773,178.419,281.733,177.743z"/></g><g transform="matrix(1, 0, 0, 1, 50.647282, 24.184515)"><path style="stroke: rgb(0, 0, 0);" d="M281.526,175.295c-0.016-0.006-0.031-0.013-0.048-0.019c0.046,0.305,0.094,0.607,0.13,0.926 C281.579,175.901,281.561,175.595,281.526,175.295z"/><path style="stroke: rgb(0, 0, 0);" d="M281.655,176.747c0.031,0.326,0.059,0.656,0.078,0.996 C281.715,177.409,281.683,177.079,281.655,176.747z"/></g><g transform="matrix(1, 0, 0, 1, 50.647282, 24.184515)"><path style="stroke: rgb(0, 0, 0);" d="M281.733,177.743c-0.02-0.34-0.047-0.67-0.078-0.996c-0.014-0.182-0.031-0.363-0.047-0.545 c-0.036-0.318-0.084-0.621-0.13-0.926c-9.464-3.566-19.191-7.921-28.298-13.178c-1.898,0.027-3.848,0.057-5.838,0.057 c-2.878,0-5.67-0.06-8.341-0.09c3.054,2.042,6.257,4.057,9.606,6.018c10.746,6.291,22.232,11.325,33.191,15.314v-3.551 C281.8,179.14,281.773,178.44,281.733,177.743z"/><path style="stroke: rgb(0, 0, 0);" d="M281.8,216.442v-7.999c-9.842-3.692-19.984-8.229-29.421-13.755 c-15.606-9.136-27.984-19.602-37.008-28.536c-1.003,2.663-1.726,5.476-2.121,8.403c9.017,8.527,20.792,18.047,35.358,26.573 C259.354,207.42,270.841,212.454,281.8,216.442z"/><path style="stroke: rgb(0, 0, 0);" d="M212.89,196.69v10.57c9.062,8.613,20.959,18.272,35.719,26.914 c10.746,6.291,22.232,11.324,33.191,15.312v-7.998c-9.842-3.693-19.984-8.23-29.421-13.755 C235.284,217.727,222.07,206.129,212.89,196.69z"/><path style="stroke: rgb(0, 0, 0);" d="M212.89,229.736v10.569c9.062,8.613,20.959,18.273,35.719,26.914 c10.746,6.291,22.232,11.324,33.191,15.313v-7.999c-9.842-3.692-19.984-8.229-29.421-13.754 C235.284,250.772,222.07,239.174,212.89,229.736z"/><path style="stroke: rgb(0, 0, 0);" d="M212.89,262.782v10.568c9.062,8.613,20.959,18.273,35.719,26.914 c10.746,6.291,22.232,11.325,33.191,15.314v-8c-9.842-3.691-19.984-8.229-29.421-13.754 C235.284,283.818,222.07,272.22,212.89,262.782z"/><path style="stroke: rgb(0, 0, 0);" d="M212.89,295.827v10.569c9.062,8.613,20.959,18.272,35.719,26.913 c8.512,4.983,17.486,9.172,26.297,12.684c1.053-2.268,1.999-4.594,2.832-6.936c-8.547-3.389-17.215-7.42-25.358-12.188 C235.284,316.864,222.07,305.265,212.89,295.827z"/><path style="stroke: rgb(0, 0, 0);" d="M214.425,330.429c1.143,4.988,2.894,10.152,5.13,15.059c7.991,6.931,17.666,14.202,29.054,20.868 c1.871,1.096,3.769,2.145,5.679,3.164c2.53-1.05,4.953-2.65,7.247-4.646c-3.102-1.558-6.164-3.207-9.155-4.958 C236.212,350.452,223.52,339.566,214.425,330.429z"/></g></g></svg>