<?xml version="1.0" encoding="UTF-8" standalone="no"?>
<svg
   viewBox="263.537 136.645 92.638 258.499"
   width="92.638px"
   height="258.499px"
   version="1.1"
   id="svg13"
   sodipodi:docname="tampon.svg"
   inkscape:version="1.4.2 (ebf0e940, 2025-05-08)"
   xmlns:inkscape="http://www.inkscape.org/namespaces/inkscape"
   xmlns:sodipodi="http://sodipodi.sourceforge.net/DTD/sodipodi-0.dtd"
   xmlns="http://www.w3.org/2000/svg"
   xmlns:svg="http://www.w3.org/2000/svg">
  <defs
     id="defs13" />
  <sodipodi:namedview
     id="namedview13"
     pagecolor="#ffffff"
     bordercolor="#000000"
     borderopacity="0.25"
     inkscape:showpageshadow="2"
     inkscape:pageopacity="0.0"
     inkscape:pagecheckerboard="0"
     inkscape:deskcolor="#d1d1d1"
     inkscape:zoom="2.7728722"
     inkscape:cx="69.422601"
     inkscape:cy="166.61424"
     inkscape:window-width="1712"
     inkscape:window-height="971"
     inkscape:window-x="0"
     inkscape:window-y="39"
     inkscape:window-maximized="1"
     inkscape:current-layer="svg13" />
  <path
     style="baseline-shift:baseline;display:inline;overflow:visible;vector-effect:none;fill:#ff368a;fill-opacity:1;stroke-width:0.744357;enable-background:accumulate;stop-color:#000000"
     d="m 344.27464,322.41677 c -2.00902,0 -3.63842,-1.62865 -3.63842,-3.63842 V 196.58391 c 0,-8.79384 -5.25665,-16.22402 -11.47873,-16.22402 h -10.07637 c -6.22059,0 -11.47799,7.42943 -11.47799,16.22402 v 12.69575 c 0,2.00902 -1.62865,3.63917 -3.63767,3.63917 -2.00902,0 -3.63842,-1.6294 -3.63842,-3.63917 v -12.69575 c 0,-12.95852 8.41272,-23.50085 18.75334,-23.50085 h 10.07636 c 10.34285,0 18.75409,10.54233 18.75409,23.50085 v 122.19444 c 0.001,2.00902 -1.62643,3.63842 -3.63619,3.63842 z"
     id="path14" />
  <path
     style="baseline-shift:baseline;display:inline;overflow:visible;vector-effect:none;fill:#ff368a;fill-opacity:1;stroke-width:0.744357;enable-background:accumulate;stop-color:#000000"
     d="m 319.08065,172.71053 c -10.59358,0 -19.1265,10.75363 -19.1265,23.87323 v 12.69623 c 0,2.21092 1.80084,4.0111 4.0111,4.0111 2.21035,0 4.00964,-1.80094 4.00964,-4.0111 v -12.69623 c 0,-4.32313 1.29629,-8.30877 3.33798,-11.19445 2.04168,-2.88567 4.80564,-4.65659 7.76778,-4.65659 h 10.07644 c 2.96289,0 5.72755,1.77083 7.76923,4.65659 2.04168,2.88577 3.33798,6.87168 3.33798,11.19445 v 122.19527 c 0,2.21092 1.79948,4.00964 4.00964,4.00964 2.21093,0 4.01128,-1.80088 4.00964,-4.0111 V 196.58376 c 0,-13.11958 -8.53074,-23.87323 -19.12649,-23.87323 z m 0,0.74435 h 10.07644 c 10.08994,0 18.38214,10.33141 18.38214,23.12888 v 122.19527 c 0.001,1.80782 -1.45668,3.26529 -3.26529,3.26528 -1.80787,0 -3.26529,-1.45668 -3.26529,-3.26528 V 196.58376 c 0,-4.47108 -1.33247,-8.59699 -3.47463,-11.62477 -2.14216,-3.02779 -5.11774,-4.97063 -8.37693,-4.97063 h -10.07644 c -3.25847,0 -6.23332,1.94294 -8.37548,4.97063 -2.14216,3.02769 -3.47463,7.15331 -3.47463,11.62477 v 12.69623 c 0,1.80787 -1.4576,3.26674 -3.26529,3.26674 -1.80778,0 -3.26674,-1.45814 -3.26674,-3.26674 v -12.69623 c 0,-12.79744 8.29449,-23.12888 18.38214,-23.12888 z"
     id="path15" />
  <path
     style="baseline-shift:baseline;display:inline;overflow:visible;vector-effect:none;fill:#ff368a;fill-opacity:1;stroke-width:0.744357;enable-background:accumulate;stop-color:#000000"
     d="m 294.58955,207.74475 c -3.15726,0.0523 -6.10804,0.30582 -8.76946,1.11072 -2.66144,0.8049 -5.08681,2.29014 -6.70649,4.71475 -1.61968,2.42461 -2.39154,5.61237 -2.39154,9.67229 v 102.89431 c 0,8.11984 2.97258,18.1727 7.81575,26.47121 4.84317,8.29852 11.70659,15.12412 20.06275,15.12412 8.35618,0 15.22028,-6.82417 20.06422,-15.12267 4.84393,-8.29849 7.81721,-18.35268 7.81721,-26.47266 V 223.24251 c 0,-4.05982 -0.77298,-7.24773 -2.393,-9.67229 -1.62001,-2.42456 -4.04475,-3.90983 -6.70648,-4.71475 -5.32347,-1.60983 -11.80241,-1.01477 -18.78195,-1.01477 -3.48974,0 -6.85376,-0.14828 -10.01101,-0.0959 z m 0.0581,4.5243 c 2.97902,-0.056 6.36117,0.0378 9.95287,0.0378 7.18336,0 13.52807,-0.37464 17.48804,0.82287 1.97999,0.59875 3.31123,1.46133 4.28732,2.92218 0.97609,1.46085 1.63992,3.69669 1.63992,7.19061 v 102.89432 c 0,6.98824 -2.76856,16.61506 -7.20806,24.22069 -4.4395,7.60563 -10.4005,12.90849 -16.20722,12.90849 -5.80672,0 -11.76698,-5.30288 -16.20576,-12.90849 -4.43878,-7.60561 -7.2066,-17.2323 -7.2066,-24.22069 V 223.24251 c 0,-3.4942 0.66258,-5.72975 1.63846,-7.19062 0.97587,-1.46086 2.30632,-2.3235 4.28586,-2.92218 1.97956,-0.59868 4.55616,-0.80457 7.53517,-0.86066 z"
     id="path2" />
  <path
     style="baseline-shift:baseline;display:inline;overflow:visible;vector-effect:none;fill:#ff368a;fill-opacity:1;stroke-width:0.744357;enable-background:accumulate;stop-color:#000000"
     d="m 330.10601,220.52952 c 0.0119,0.13547 0.0246,0.2702 0.035,0.40567 -0.0112,-0.13472 -0.0216,-0.27392 -0.035,-0.40567 z"
     id="path16" />
  <path
     style="baseline-shift:baseline;display:inline;overflow:visible;vector-effect:none;fill:#ff368a;fill-opacity:1;stroke-width:0.744357;enable-background:accumulate;stop-color:#000000"
     d="m 330.47631,220.49256 -0.74146,0.0697 c 0.01,0.11215 0.0202,0.22038 0.0291,0.32857 0.002,0.0239 0.004,0.0489 0.006,0.0727 8e-5,7.5e-4 -8e-5,0.002 0,0.003 l 0.74291,-0.0596 c -0.008,-0.10695 -0.0184,-0.21058 -0.0276,-0.31403 -0.003,-0.0316 -0.006,-0.0646 -0.009,-0.0959 -1.5e-4,-0.001 1.5e-4,-0.003 0,-0.004 z"
     id="path17" />
  <path
     style="baseline-shift:baseline;display:inline;overflow:visible;vector-effect:none;fill:#ff368a;fill-opacity:1;stroke-width:0.744357;enable-background:accumulate;stop-color:#000000"
     d="m 330.19906,221.67657 c 0.0298,0.51882 0.0491,1.03913 0.0491,1.56613 7.5e-4,-0.54636 -0.0193,-1.06294 -0.0491,-1.56613 z"
     id="path18" />
  <path
     style="baseline-shift:baseline;display:inline;overflow:visible;vector-effect:none;fill:#ff368a;fill-opacity:1;stroke-width:0.744357;enable-background:accumulate;stop-color:#000000"
     d="m 330.5708,221.65416 -0.7429,0.0436 c 3e-5,4.9e-4 -2e-5,7.5e-4 0,0.001 0.0295,0.49805 0.0487,1.00559 0.048,1.5425 0,4.9e-4 0,7.5e-4 0,10e-4 h 0.74436 c 0,-0.53612 -0.0194,-1.06376 -0.0494,-1.58758 -3e-5,-4.6e-4 3e-5,-7.4e-4 0,-0.001 z"
     id="path19" />
  <path
     style="baseline-shift:baseline;display:inline;overflow:visible;vector-effect:none;fill:#ff368a;fill-opacity:1;stroke-width:0.744357;enable-background:accumulate;stop-color:#000000"
     d="m 330.04497,219.85439 c -0.0119,-0.004 -0.0231,-0.01 -0.0357,-0.0141 0.0342,0.22702 0.07,0.45182 0.0968,0.68927 -0.0216,-0.22405 -0.035,-0.45182 -0.061,-0.67513 z"
     id="path20" />
  <path
     style="baseline-shift:baseline;display:inline;overflow:visible;vector-effect:none;fill:#ff368a;fill-opacity:1;stroke-width:0.744357;enable-background:accumulate;stop-color:#000000"
     d="m 329.54876,219.28297 0.0931,0.61207 c 0.0336,0.22254 0.0662,0.43702 0.0916,0.65712 5.1e-4,0.004 7.5e-4,0.009 0.001,0.0131 2.3e-4,0.002 10e-4,0.004 10e-4,0.006 l 0.73999,-0.0771 c -1.7e-4,-0.001 1.8e-4,-0.004 0,-0.006 -4.1e-4,-0.004 -7.4e-4,-0.007 -0.001,-0.0102 -0.0199,-0.21039 -0.0325,-0.43521 -0.0596,-0.6673 l -0.0276,-0.22535 -0.21226,-0.08 c 0.006,0.002 -0.009,-0.004 -0.0421,-0.016 z"
     id="path21" />
  <path
     style="baseline-shift:baseline;display:inline;overflow:visible;vector-effect:none;fill:#ff368a;fill-opacity:1;stroke-width:0.744357;enable-background:accumulate;stop-color:#000000"
     d="m 330.141,220.93519 c 0.0231,0.24267 0.0439,0.4883 0.0581,0.74138 -0.0134,-0.24861 -0.0372,-0.49425 -0.0581,-0.74138 z"
     id="path22" />
  <path
     style="baseline-shift:baseline;display:inline;overflow:visible;vector-effect:none;fill:#ff368a;fill-opacity:1;stroke-width:0.744357;enable-background:accumulate;stop-color:#000000"
     d="m 330.5112,220.89963 -0.74145,0.0668 c 0.0192,0.22727 0.039,0.44602 0.0523,0.66295 0.001,0.0219 0.004,0.045 0.006,0.0668 3e-5,4.9e-4 -2e-5,7.5e-4 0,0.001 l 0.74291,-0.0407 c -2e-5,-5e-4 3e-5,-7.5e-4 0,-10e-4 -0.0144,-0.25853 -0.0365,-0.50777 -0.0596,-0.75163 -1.3e-4,-0.001 1.4e-4,-0.003 0,-0.004 z"
     id="path23" />
  <path
     style="baseline-shift:baseline;display:inline;overflow:visible;vector-effect:none;fill:#ff368a;fill-opacity:1;stroke-width:0.744357;enable-background:accumulate;stop-color:#000000"
     d="m 330.19906,221.67657 c -0.0149,-0.25308 -0.035,-0.49871 -0.0581,-0.74138 -0.0104,-0.13547 -0.0231,-0.2702 -0.035,-0.40567 -0.0268,-0.23671 -0.0625,-0.46225 -0.0968,-0.68927 -7.0446,-2.65438 -14.28497,-5.89606 -21.06383,-9.80915 -1.41279,0.0201 -2.86429,0.0424 -4.34556,0.0424 -2.14226,0 -4.2205,-0.0447 -6.20868,-0.067 2.27327,1.51998 4.65744,3.01986 7.1503,4.47954 7.99886,4.68275 16.54855,8.42985 24.70596,11.39909 v -2.64321 c 0.001,-0.52552 -0.0186,-1.04657 -0.0484,-1.56539 z"
     id="path24" />
  <path
     style="baseline-shift:baseline;display:inline;overflow:visible;vector-effect:none;fill:#ff368a;fill-opacity:1;stroke-width:0.744357;enable-background:accumulate;stop-color:#000000"
     d="m 297.14451,209.62087 1.03948,0.69493 c 2.27918,1.52393 4.66931,3.02728 7.16881,4.49086 8.02394,4.69743 16.59388,8.45342 24.76732,11.4285 l 0.50012,0.18173 v -3.1737 -0.001 c 10e-4,-0.5352 -0.0194,-1.06312 -0.0494,-1.58613 v -0.001 c -0.0152,-0.25859 -0.0362,-0.50859 -0.0596,-0.75454 l 0.001,0.007 c -0.0107,-0.13963 -0.0246,-0.27597 -0.0363,-0.40998 v -0.004 -0.004 c -0.028,-0.24719 -0.0649,-0.47843 -0.0989,-0.70365 l -0.0334,-0.21517 -0.20353,-0.077 c -7.02978,-2.64879 -14.25263,-5.88401 -21.00919,-9.78423 l -0.0887,-0.0509 -0.10176,0.001 c -1.41309,0.0201 -2.86359,0.0421 -4.34112,0.0421 -2.13709,0 -4.21408,-0.0445 -6.20492,-0.0669 z m 2.56454,0.77198 c 1.5938,0.0227 3.20006,0.0523 4.89066,0.0523 1.45276,0 2.87325,-0.021 4.2568,-0.0407 6.70774,3.86339 13.85253,7.06541 20.81438,9.69845 0.0235,0.15586 0.0477,0.31148 0.0654,0.46813 0.0118,0.13379 0.0236,0.26409 0.0334,0.39254 v 0.003 l 10e-4,0.004 c 0.0228,0.23937 0.0421,0.47934 0.0567,0.72691 0.0295,0.51416 0.0494,1.02718 0.048,1.54251 v 0.001 2.0906 c -7.99241,-2.93441 -16.33333,-6.59275 -24.14655,-11.16682 -2.09891,-1.22901 -4.07709,-2.49849 -6.02028,-3.77267 z"
     id="path25" />
  <path
     style="baseline-shift:baseline;display:inline;overflow:visible;vector-effect:none;fill:#ff368a;fill-opacity:1;stroke-width:0.744357;enable-background:accumulate;stop-color:#000000"
     d="m 330.24893,250.48246 v -5.95411 c -7.32597,-2.74817 -14.87524,-6.12532 -21.89974,-10.23864 -11.61644,-6.80045 -20.83009,-14.59089 -27.54718,-21.24098 -0.74659,1.98222 -1.28476,4.0761 -1.57878,6.25483 6.71187,6.34714 15.47668,13.43342 26.31899,19.77981 7.99886,4.6835 16.5493,8.43059 24.70671,11.39909 z"
     id="path26" />
  <path
     style="baseline-shift:baseline;display:inline;overflow:visible;vector-effect:none;fill:#ff368a;fill-opacity:1;stroke-width:0.744357;enable-background:accumulate;stop-color:#000000"
     d="m 280.6567,212.38023 -0.20354,0.53791 c -0.75626,2.00792 -1.30136,4.1287 -1.5992,6.33576 l -0.0247,0.189 0.13812,0.13084 c 6.72891,6.36326 15.51581,13.46692 26.38688,19.83014 8.02397,4.6982 16.59387,8.45418 24.76733,11.42851 l 0.50012,0.18173 v -6.74429 l -0.24134,-0.0901 c -7.31081,-2.74248 -14.84287,-6.11221 -21.84369,-10.21166 -11.58354,-6.78118 -20.77346,-14.55104 -27.47289,-21.18365 z m 0.35037,1.37095 c 6.6959,6.57303 15.75129,14.18383 27.15451,20.85945 6.97151,4.08229 14.44971,7.4291 21.71575,10.16658 v 5.15236 c -7.99242,-2.9337 -16.33335,-6.59203 -24.14654,-11.16682 -10.73431,-6.28317 -19.41765,-13.29208 -26.09322,-19.58736 0.26714,-1.88532 0.7557,-3.6873 1.3695,-5.42421 z"
     id="path27" />
  <path
     style="baseline-shift:baseline;display:inline;overflow:visible;vector-effect:none;fill:#ff368a;fill-opacity:1;stroke-width:0.744357;enable-background:accumulate;stop-color:#000000"
     d="m 278.95526,235.77991 v 7.86786 c 6.74537,6.41115 15.60099,13.6009 26.5877,20.03363 7.99887,4.68276 16.54856,8.42911 24.70597,11.3976 v -5.95337 c -7.32597,-2.74891 -14.87524,-6.12606 -21.89974,-10.23863 -12.72479,-7.44804 -22.56073,-16.0811 -29.39393,-23.10709 z"
     id="path28" />
  <path
     style="baseline-shift:baseline;display:inline;overflow:visible;vector-effect:none;fill:#ff368a;fill-opacity:1;stroke-width:0.744357;enable-background:accumulate;stop-color:#000000"
     d="m 278.58355,234.86359 v 8.94393 l 0.11485,0.11049 c 6.76255,6.42749 15.64004,13.63479 26.65585,20.08456 8.02396,4.69745 16.59388,8.45126 24.76733,11.4256 l 0.50011,0.18172 v -6.74283 l -0.24134,-0.0901 c -7.31083,-2.74323 -14.84286,-6.11293 -21.84369,-10.21165 -12.68873,-7.42694 -22.4999,-16.03729 -29.31488,-23.04454 z m 0.74435,1.79839 c 6.82322,6.93274 16.43088,15.28631 28.83368,22.54588 6.97149,4.08154 14.44973,7.42838 21.71575,10.16659 v 5.15089 c -7.9924,-2.93367 -16.33335,-6.5913 -24.14654,-11.16536 -10.89917,-6.38148 -19.68825,-13.50776 -26.40289,-19.87667 z"
     id="path29" />
  <path
     style="baseline-shift:baseline;display:inline;overflow:visible;vector-effect:none;fill:#ff368a;fill-opacity:1;stroke-width:0.744357;enable-background:accumulate;stop-color:#000000"
     d="m 278.95526,260.37795 v 7.86711 c 6.74537,6.41115 15.60099,13.60164 26.5877,20.03363 7.99887,4.68275 16.54856,8.4291 24.70597,11.39835 v -5.95412 c -7.32597,-2.74817 -14.87524,-6.12531 -21.89974,-10.23789 -12.72479,-7.44878 -22.56073,-16.08184 -29.39393,-23.10708 z"
     id="path30" />
  <path
     style="baseline-shift:baseline;display:inline;overflow:visible;vector-effect:none;fill:#ff368a;fill-opacity:1;stroke-width:0.744357;enable-background:accumulate;stop-color:#000000"
     d="m 278.58355,259.46083 v 8.94392 l 0.11485,0.11049 c 6.76255,6.42747 15.64001,13.63552 26.65585,20.08456 8.02396,4.69745 16.5939,8.45198 24.76733,11.42705 l 0.50011,0.18172 v -6.74282 l -0.24134,-0.0916 c -7.31081,-2.74248 -14.84286,-6.11148 -21.84369,-10.21019 -12.68875,-7.42769 -22.49989,-16.03948 -29.31488,-23.046 z m 0.74435,1.79838 c 6.82322,6.93205 16.4309,15.28705 28.83368,22.54734 6.97149,4.08154 14.44971,7.42764 21.71575,10.16513 v 5.15234 c -7.99242,-2.93438 -16.33334,-6.59275 -24.14654,-11.16681 -10.89915,-6.38073 -19.68824,-13.50775 -26.40289,-19.87667 z"
     id="path31" />
  <path
     style="baseline-shift:baseline;display:inline;overflow:visible;vector-effect:none;fill:#ff368a;fill-opacity:1;stroke-width:0.744357;enable-background:accumulate;stop-color:#000000"
     d="m 278.95526,284.97598 v 7.86637 c 6.74537,6.41115 15.60099,13.60164 26.5877,20.03363 7.99887,4.68275 16.54856,8.42985 24.70597,11.39909 v -5.95486 c -7.32597,-2.74742 -14.87524,-6.12532 -21.89974,-10.23789 -12.72479,-7.44804 -22.56073,-16.0811 -29.39393,-23.10634 z"
     id="path32" />
  <path
     style="baseline-shift:baseline;display:inline;overflow:visible;vector-effect:none;fill:#ff368a;fill-opacity:1;stroke-width:0.744357;enable-background:accumulate;stop-color:#000000"
     d="m 278.58355,284.05951 v 8.94246 l 0.11485,0.1105 c 6.76255,6.42748 15.64001,13.63552 26.65585,20.08456 8.02395,4.69744 16.59388,8.45198 24.76733,11.42705 l 0.50011,0.18318 v -6.74429 l -0.24279,-0.0916 c -7.31076,-2.74172 -14.84139,-6.11147 -21.84224,-10.21019 -12.68873,-7.42695 -22.49989,-16.03802 -29.31488,-23.04455 z m 0.74435,1.79838 c 6.82321,6.93204 16.43093,15.28634 28.83368,22.54589 6.97148,4.08152 14.44966,7.42833 21.71575,10.16513 v 5.15234 c -7.9924,-2.9344 -16.33334,-6.59274 -24.14654,-11.16681 -10.89915,-6.38073 -19.68824,-13.50775 -26.40289,-19.87666 z"
     id="path33" />
  <path
     style="baseline-shift:baseline;display:inline;overflow:visible;vector-effect:none;fill:#ff368a;fill-opacity:1;stroke-width:0.744357;enable-background:accumulate;stop-color:#000000"
     d="m 278.95526,309.57327 v 7.86711 c 6.74537,6.41115 15.60099,13.6009 26.5877,20.03289 6.33597,3.70913 13.01584,6.82724 19.57437,9.44143 0.78381,-1.68821 1.48797,-3.41958 2.10802,-5.16287 -6.36202,-2.52262 -12.81411,-5.52313 -18.87541,-9.07222 -12.72554,-7.4473 -22.56148,-16.0811 -29.39468,-23.10634 z"
     id="path34" />
  <path
     style="baseline-shift:baseline;display:inline;overflow:visible;vector-effect:none;fill:#ff368a;fill-opacity:1;stroke-width:0.744357;enable-background:accumulate;stop-color:#000000"
     d="m 278.58355,308.65674 v 8.94392 l 0.11485,0.10904 c 6.76255,6.42748 15.64002,13.63553 26.65585,20.08456 6.35591,3.72081 13.0528,6.84615 19.62515,9.46584 l 0.32711,0.13084 0.14829,-0.31984 c 0.78888,-1.69913 1.49734,-3.4407 2.12113,-5.1945 l 0.12066,-0.33875 -0.33438,-0.13229 c -6.34817,-2.51713 -12.78324,-5.51002 -18.82409,-9.04714 -12.68947,-7.42619 -22.50134,-16.03802 -29.31634,-23.04455 z m 0.74435,1.79838 c 6.82321,6.93208 16.43014,15.28703 28.83368,22.54589 5.9727,3.49721 12.3181,6.44712 18.58277,8.94682 -0.54633,1.50898 -1.15627,3.00653 -1.82601,4.47342 -6.43638,-2.5809 -12.97981,-5.63551 -19.18755,-9.26958 -10.89917,-6.38074 -19.68825,-13.50776 -26.40289,-19.87666 z"
     id="path35" />
  <path
     style="baseline-shift:baseline;display:inline;overflow:visible;vector-effect:none;fill:#ff368a;fill-opacity:1;stroke-width:0.744357;enable-background:accumulate;stop-color:#000000"
     d="m 280.09785,335.32952 c 0.8508,3.71285 2.15417,7.55672 3.81856,11.20928 5.94816,5.15914 13.14981,10.57136 21.62655,15.53325 1.3927,0.81581 2.80549,1.59664 4.22721,2.35514 1.88322,-0.78157 3.6868,-1.97254 5.39436,-3.45828 -2.309,-1.15971 -4.58822,-2.38716 -6.81459,-3.69053 -12.03477,-7.04459 -21.48216,-15.14767 -28.25209,-21.94886 z"
     id="path36" />
  <path
     style="baseline-shift:baseline;display:inline;overflow:visible;vector-effect:none;fill:#ff368a;fill-opacity:1;stroke-width:0.744357;enable-background:accumulate;stop-color:#000000"
     d="m 279.44421,334.14662 0.29077,1.26628 c 0.85679,3.73901 2.16762,7.60471 3.84245,11.28021 l 0.0334,0.0741 0.061,0.0523 c 5.96316,5.17215 13.18306,10.59828 21.68232,15.57335 1.39804,0.81895 2.81583,1.60223 4.2408,2.36246 l 0.15556,0.0829 0.16283,-0.0669 c 1.92915,-0.80064 3.76429,-2.01489 5.49545,-3.52116 l 0.4187,-0.36491 -0.49575,-0.24861 c -2.30266,-1.15652 -4.575,-2.38074 -6.79372,-3.67962 -12.00067,-7.02464 -21.42447,-15.10696 -28.17654,-21.89021 z m 1.38404,2.39153 c 6.71386,6.62239 15.80095,14.31102 27.33333,21.06154 2.06484,1.2088 4.18252,2.33642 6.31831,3.42085 -1.50719,1.25445 -3.07618,2.28683 -4.70312,2.98324 -1.36085,-0.72813 -2.71423,-1.47331 -4.04598,-2.25342 -8.42674,-4.93262 -15.58443,-10.31149 -21.50641,-15.44252 -1.44694,-3.18729 -2.56445,-6.51107 -3.39613,-9.76969 z"
     id="path37" />
</svg>
