<?xml version="1.0" encoding="iso-8859-1"?>
<!-- Uploaded to: SVG Repo, www.svgrepo.com, Generator: SVG Repo Mixer Tools -->
<svg fill="#ff368a" height="800px" width="800px" version="1.1" id="Layer_1" xmlns="http://www.w3.org/2000/svg" xmlns:xlink="http://www.w3.org/1999/xlink" 
	 viewBox="0 0 507.527 507.527" xml:space="preserve">
<g>
	<g>
		<g>
			<path d="M227.573,145.446c1.752,1.752,4.051,2.632,6.351,2.632c2.3,0,4.599-0.88,6.351-2.632L316.49,69.23
				c3.512-3.512,3.512-9.198,0-12.701c-3.503-3.512-9.189-3.512-12.701,0l-76.216,76.216
				C224.061,136.257,224.061,141.934,227.573,145.446z"/>
			<path d="M224.941,103.617c2.299,0,4.599-0.88,6.351-2.632l31.762-31.762c3.512-3.503,3.512-9.189,0-12.701
				c-3.503-3.503-9.189-3.503-12.701,0L218.59,88.284c-3.512,3.503-3.512,9.189,0,12.701
				C220.342,102.737,222.641,103.617,224.941,103.617z"/>
			<path d="M388.35,263.125c-3.512-3.512-9.189-3.512-12.701,0l-76.216,76.216c-3.512,3.512-3.512,9.198,0,12.701
				c1.752,1.761,4.051,2.632,6.351,2.632c2.291,0,4.59-0.871,6.351-2.632l76.216-76.216
				C391.862,272.314,391.862,266.637,388.35,263.125z"/>
			<path d="M376.098,308.038L344.345,339.8c-3.512,3.503-3.512,9.198,0,12.701c1.752,1.752,4.051,2.632,6.351,2.632
				s4.599-0.88,6.351-2.632l31.753-31.762c3.512-3.512,3.512-9.198,0-12.701C385.287,304.525,379.61,304.525,376.098,308.038z"/>
			<path d="M487.451,19.663C474.768,6.979,457.854,0,439.808,0c-18.037,0-34.951,6.979-47.634,19.672L89.286,323.332l-6.342-6.351
				L0.377,399.558L25.78,424.96l31.762-31.753c3.503-3.512,9.189-3.512,12.701,0c3.503,3.503,3.503,9.189,0,12.701l-31.762,31.753
				l12.701,12.71l31.762-31.762c3.512-3.512,9.189-3.512,12.701,0c3.512,3.503,3.512,9.189,0,12.701l-31.762,31.762l12.71,12.701
				l31.753-31.762c3.512-3.503,9.189-3.503,12.701,0c3.512,3.512,3.512,9.198,0,12.71l-31.753,31.753l19.052,19.052l82.567-82.567
				l-6.351-6.36l302.888-303.67C513.716,88.666,513.716,45.927,487.451,19.663z M141.465,326.791L289.675,178.58l12.701,12.701
				L154.166,339.492L141.465,326.791z M181.113,366.439l-12.701-12.701l148.211-148.211l12.701,12.701L181.113,366.439z
				 M462.04,64.126c-3.512,3.503-9.189,3.503-12.701,0c-6.728-6.737-18.639-6.755-25.402,0l-50.814,50.805
				c-1.761,1.761-4.06,2.632-6.351,2.632c-2.299,0-4.599-0.871-6.351-2.632c-3.512-3.503-3.512-9.189,0-12.701l50.814-50.814
				c6.764-6.764,15.791-10.492,25.402-10.492c9.62,0,18.639,3.728,25.402,10.492C465.552,54.937,465.552,60.614,462.04,64.126z"/>
		</g>
	</g>
</g>
</svg>