<?xml version="1.0" encoding="UTF-8" standalone="no"?>
<!-- Uploaded to: SVG Repo, www.svgrepo.com, Generator: SVG Repo Mixer Tools -->

<svg
   fill="#800a00"
   width="750.33276"
   height="497.14999"
   viewBox="0 0 30.013311 19.886"
   version="1.1"
   id="svg1"
   sodipodi:docname="bear trap.svg"
   inkscape:version="1.4.2 (ebf0e940, 2025-05-08)"
   xmlns:inkscape="http://www.inkscape.org/namespaces/inkscape"
   xmlns:sodipodi="http://sodipodi.sourceforge.net/DTD/sodipodi-0.dtd"
   xmlns="http://www.w3.org/2000/svg"
   xmlns:svg="http://www.w3.org/2000/svg">
  <defs
     id="defs1" />
  <sodipodi:namedview
     id="namedview1"
     pagecolor="#ffffff"
     bordercolor="#000000"
     borderopacity="0.25"
     inkscape:showpageshadow="2"
     inkscape:pageopacity="0.0"
     inkscape:pagecheckerboard="0"
     inkscape:deskcolor="#d1d1d1"
     inkscape:zoom="0.0325"
     inkscape:cx="353.84615"
     inkscape:cy="215.38462"
     inkscape:window-width="896"
     inkscape:window-height="245"
     inkscape:window-x="0"
     inkscape:window-y="39"
     inkscape:window-maximized="0"
     inkscape:current-layer="svg1" />
  <title
     id="title1">bear-trap</title>
  <path
     d="m 30.013311,10.557 -0.065,-0.602 V 8.742 l -0.023,0.073 c -0.028,-0.209 -0.084,-0.412 -0.167,-0.609 l -0.445,-4.091 -0.884,2.627 c -0.383,-0.243 -0.838,-0.456 -1.361,-0.632 l -1.065,-4.241 -0.866,3.809 c -0.711,-0.094 -1.496,-0.137 -2.353,-0.122 l -1.048,-3.558 -0.967,3.69 c -0.705,0.077 -1.448,0.189 -2.227,0.338 l -0.949,-2.239 -0.956,2.663 c -0.31,0.078 -0.624,0.161 -0.943,0.25 v 0.181 c -0.108,-0.024 -0.219,-0.037 -0.334,-0.037 -0.081,0 -0.161,0.006 -0.238,0.018 l 0.06,-0.345 c -0.277,-0.132 -0.551,-0.257 -0.822,-0.378 l -0.312,-2.927 -1.527,2.167 c -0.744,-0.281 -1.458,-0.519 -2.141,-0.717 l -0.227,-3.657 -1.7340003,3.182 c -0.854,-0.164 -1.646,-0.257 -2.371,-0.286 l -0.204,-3.901 -1.772,3.998 c -0.545,0.084 -1.029,0.216 -1.448,0.391 l -0.424,-2.739 -1.135,3.956 C 0.95031072,5.786 0.86031072,5.977 0.79731072,6.178 l -0.01,-0.076 -0.206,1.195 -0.167,0.582 0.074,-0.043 -0.46,2.661 c -0.404,2.66 3.49799998,5.936 12.85500028,8.814 0.342,0.354 0.821,0.575 1.352,0.575 0.589,0 1.114,-0.271 1.459,-0.694 v 0.518 c 9.771,-1.239 14.199,-3.809 14.254,-6.508 v -2.701 l 0.065,0.055 z m -15.876,5.571 c -0.227,0.012 -0.443,0.064 -0.642,0.149 l 0.01,-0.057 c -0.288,-0.088 -0.57,-0.178 -0.847,-0.268 l -0.239,-2.512 -1.573,1.879 c -0.766,-0.287 -1.4860003,-0.581 -2.1600003,-0.882 l -0.16,-4.229 -1.809,3.266 c -0.698,-0.375 -1.331,-0.756 -1.902,-1.138 l -0.251,-4.884 -1.553,3.492 c -0.631,-0.57 -1.128,-1.135 -1.499,-1.681 l 0.178,-1.567 c 2.185,-1.171 6.582,-0.996 12.5330003,1.745 0.039,0.042 0.08,0.081 0.123,0.119 -1.862,0.04 -3.259,0.674 -3.259,1.555 0,0.901 1.461,1.754 3.385,2.047 l -0.335,2.968 z m 12.796,-2.993 -0.935,-3.705 -1.079,4.77 c -0.623,0.277 -1.305,0.542 -2.049,0.791 l -1.051,-3.28 -1.032,3.89 c -0.712,0.182 -1.469,0.35 -2.27,0.502 l -1.142,-2.295 -0.778,2.616 c -0.296,0.043 -0.597,0.084 -0.904,0.123 v 0.273 c -0.205,-0.252 -0.475,-0.45 -0.783,-0.569 l 0.339,-3.006 c 2.248,0.151 4.063,-0.532 4.063,-1.535 0,-0.851 -1.303,-1.66 -3.07,-1.994 6.276,-1.654 10.602,-1.076 12.545,0.442 l -0.092,1.575 c -0.458,0.476 -1.044,0.947 -1.763,1.402 z"
     id="path1" />
</svg>
