<?xml version="1.0" encoding="UTF-8" standalone="no"?>
<!-- Uploaded to: SVG Repo, www.svgrepo.com, Generator: SVG Repo Mixer Tools -->

<svg
   fill="#800a00"
   width="617.94598"
   height="572.55084"
   viewBox="0 -8 55.615139 51.529576"
   id="Layer_1"
   data-name="Layer 1"
   version="1.1"
   sodipodi:docname="bio hazard.svg"
   inkscape:version="1.4.2 (ebf0e940, 2025-05-08)"
   xmlns:inkscape="http://www.inkscape.org/namespaces/inkscape"
   xmlns:sodipodi="http://sodipodi.sourceforge.net/DTD/sodipodi-0.dtd"
   xmlns="http://www.w3.org/2000/svg"
   xmlns:svg="http://www.w3.org/2000/svg">
  <defs
     id="defs6" />
  <sodipodi:namedview
     id="namedview6"
     pagecolor="#ffffff"
     bordercolor="#000000"
     borderopacity="0.25"
     inkscape:showpageshadow="2"
     inkscape:pageopacity="0.0"
     inkscape:pagecheckerboard="0"
     inkscape:deskcolor="#d1d1d1"
     inkscape:zoom="0.0325"
     inkscape:cx="292.30769"
     inkscape:cy="276.92308"
     inkscape:window-width="896"
     inkscape:window-height="245"
     inkscape:window-x="0"
     inkscape:window-y="39"
     inkscape:window-maximized="0"
     inkscape:current-layer="Layer_1" />
  <title
     id="title1">biohazard</title>
  <path
     d="m 41.76223,19.55 a 9,9 0 0 0 -2.79,0.58 c 0,0.24 0,0.48 0,0.73 a 11.21,11.21 0 0 1 -5.76,9.78 9.15,9.15 0 0 0 0.61,1.83 9.44,9.44 0 0 0 0.87,1.46 14.77,14.77 0 0 0 7.93,-13.07 c 0,-0.44 0,-0.87 -0.06,-1.3 h -0.35 z"
     id="path1" />
  <path
     d="m 22.38223,30.64 a 11.2,11.2 0 0 1 -5.76,-9.78 c 0,-0.25 0,-0.49 0,-0.73 a 9,9 0 0 0 -2.79,-0.58 h -0.41 -0.34 c 0,0.43 -0.07,0.86 -0.07,1.3 a 14.77,14.77 0 0 0 7.92,13.08 10,10 0 0 0 0.84,-1.45 9.83,9.83 0 0 0 0.61,-1.84 z"
     id="path2" />
  <path
     d="m 21.81223,11.42 a 11.11,11.11 0 0 1 12,0 9.08,9.08 0 0 0 1.86,-2.22 c 0.12,-0.2 0.22,-0.42 0.32,-0.63 a 14.73,14.73 0 0 0 -16.36,0 c 0.1,0.22 0.2,0.43 0.31,0.63 a 9.12,9.12 0 0 0 1.87,2.22 z"
     id="path3" />
  <path
     d="m 24.33223,20.86 a 3.46,3.46 0 0 1 2.48,-3.31 v -1.92 h -0.19 a 11.09,11.09 0 0 1 -6.35,-3 11.19,11.19 0 0 1 -2,-2.45 c -0.07,-0.12 -0.13,-0.26 -0.2,-0.39 a 11.06,11.06 0 0 1 6.03,-15.71 v -2.07 a 16.69,16.69 0 0 0 -13,16.26 16.4,16.4 0 0 0 0.25,2.73 16.36,16.36 0 0 0 -2.9999996,1.36 16.69,16.69 0 0 0 -7.61,19.38 l 1.79,-1 A 11.06,11.06 0 0 1 13.42223,17.58 c 0.17,0 0.35,0 0.52,0 a 11.24,11.24 0 0 1 8.85,5.07 l 0.11,0.16 1.6,-0.93 a 3.39,3.39 0 0 1 -0.17,-1.02 z"
     id="path4" />
  <path
     d="m 47.29223,12.36 a 16.71,16.71 0 0 0 -3,-1.37 16.19,16.19 0 0 0 0.24,-2.72 16.7,16.7 0 0 0 -13,-16.27 v 2.08 a 11.12,11.12 0 0 1 7.42,10.48 10.93,10.93 0 0 1 -1.33,5.25 c -0.07,0.13 -0.12,0.27 -0.2,0.4 a 11.09,11.09 0 0 1 -2,2.44 11,11 0 0 1 -6.36,3 h -0.24 v 1.91 a 3.47,3.47 0 0 1 2.48,3.32 3.32,3.32 0 0 1 -0.16,1 l 1.6,0.93 0.1,-0.16 a 11.24,11.24 0 0 1 8.85,-5.07 c 0.18,0 0.36,0 0.53,0 a 11,11 0 0 1 10.86,13.12 l 1.8,1 a 16.7,16.7 0 0 0 -7.59,-19.34 z"
     id="path5" />
  <path
     d="m 30.01223,23.52 a 3.37,3.37 0 0 1 -4.41,0 l -1.81,1 a 11.07,11.07 0 0 1 0.43,6.88 11.25,11.25 0 0 1 -0.6,1.9 11.75,11.75 0 0 1 -0.79,1.43 11.09,11.09 0 0 1 -16.5499996,2.39 l -1.79,1 a 16.68,16.68 0 0 0 20.5299996,3.15 16.3,16.3 0 0 0 2.79,-2 16.65,16.65 0 0 0 23.35,-1.09 l -1.79,-1 a 11.11,11.11 0 0 1 -12.75,1.13 11,11 0 0 1 -3.76,-3.58 10.54,10.54 0 0 1 -0.79,-1.43 11.25,11.25 0 0 1 -0.64,-1.85 11,11 0 0 1 0.43,-6.88 z"
     id="path6" />
</svg>
