<?xml version="1.0" encoding="UTF-8" standalone="no"?>
<!-- Uploaded to: SVG Repo, www.svgrepo.com, Generator: SVG Repo Mixer Tools -->

<svg
   height="799.99878"
   width="618.91205"
   version="1.1"
   id="_x32_"
   viewBox="0 0 396.10371 511.99922"
   xml:space="preserve"
   sodipodi:docname="black cat.svg"
   inkscape:version="1.4.2 (ebf0e940, 2025-05-08)"
   xmlns:inkscape="http://www.inkscape.org/namespaces/inkscape"
   xmlns:sodipodi="http://sodipodi.sourceforge.net/DTD/sodipodi-0.dtd"
   xmlns="http://www.w3.org/2000/svg"
   xmlns:svg="http://www.w3.org/2000/svg"><defs
   id="defs3" /><sodipodi:namedview
   id="namedview3"
   pagecolor="#ffffff"
   bordercolor="#000000"
   borderopacity="0.25"
   inkscape:showpageshadow="2"
   inkscape:pageopacity="0.0"
   inkscape:pagecheckerboard="0"
   inkscape:deskcolor="#d1d1d1"
   inkscape:zoom="0.073841744"
   inkscape:cx="1212.0515"
   inkscape:cy="2071.9987"
   inkscape:window-width="896"
   inkscape:window-height="245"
   inkscape:window-x="0"
   inkscape:window-y="39"
   inkscape:window-maximized="0"
   inkscape:current-layer="_x32_" />
<style
   type="text/css"
   id="style1">
	.st0{fill:#800a00000000000000;}
</style>
<g
   id="g3"
   style="fill:#800a00;fill-opacity:1"
   transform="translate(-57.948,-7.7418391e-4)">
	<path
   class="st0"
   d="m 358.408,347.678 c 0,0 2.348,75.11 -9.389,143.188 l 21.125,7.042 c 0,0 21.124,-89.194 11.736,-143.188 z"
   id="path1"
   style="fill:#800a00;fill-opacity:1" />
	<path
   class="st0"
   d="m 431.17,190.407 c -1.043,-1.356 -2.156,-2.599 -3.251,-3.895 0.852,-0.895 6.764,-7.128 12.884,-17.142 3.199,-5.216 6.433,-11.45 8.919,-18.56 2.486,-7.076 4.242,-15.066 4.242,-23.654 0.017,-7.32 -1.304,-15.066 -4.469,-22.707 C 446.348,96.79 441.376,89.323 434.456,82.402 422.059,70.023 415,59.244 411.001,50.28 c -3.999,-8.962 -5.025,-16.108 -5.025,-21.828 0,-2.791 0.244,-5.224 0.592,-7.39 0.365,-2.156 0.817,-3.999 1.252,-5.729 1.651,-6.606 -2.382,-13.309 -8.989,-14.961 -6.607,-1.652 -13.318,2.364 -14.97,8.98 -0.452,1.825 -1.113,4.494 -1.652,7.711 -0.522,3.234 -0.938,7.068 -0.938,11.388 0,8.884 1.774,19.82 7.198,31.913 5.424,12.127 14.395,25.367 28.531,39.494 4.852,4.851 7.824,9.519 9.684,14.014 1.844,4.477 2.59,8.85 2.608,13.284 0,5.172 -1.078,10.458 -2.851,15.482 -2.643,7.563 -6.833,14.492 -10.363,19.378 -1.756,2.452 -3.321,4.398 -4.433,5.686 -0.487,0.582 -0.852,1 -1.148,1.303 -32.253,-26.732 -72.051,-32.582 -109.832,-19.282 5.598,13.614 10.292,28.862 11.91,44.276 l 0.973,9.119 -8.919,2.225 c -2.608,0.661 -5.668,0.973 -9.336,0.973 -3.878,0 -8.085,-0.365 -11.962,-0.852 l 2.086,23.046 -51.048,2.842 c -7.215,3.478 -29.801,13.788 -47.726,16.083 9.893,50.464 34.426,176.604 47.361,250.472 h 28.167 v -107.97 l 14.083,115.021 h 28.166 c 0,0 -9.388,-166.669 61.028,-169.016 56.316,-1.878 23.472,171.363 23.472,171.363 L 417.104,512 c 0,0 72.764,-246.482 14.066,-321.593 z"
   id="path2"
   style="fill:#800a00;fill-opacity:1" />
	<path
   class="st0"
   d="m 273.908,218.574 -2.348,-25.828 c 0,0 21.125,4.703 30.514,2.356 C 297.379,150.496 264.518,105.9 264.518,105.9 l -16.43,-61.036 -42.266,42.25 h -25.819 -25.82 L 111.933,44.864 95.504,105.9 c 0,0 -32.861,44.596 -37.556,89.202 9.389,2.347 30.514,-2.356 30.514,-2.356 l -2.347,25.828 42.25,2.348 c 0,0 32.861,16.43 51.639,16.43 18.794,0 51.655,-16.43 51.655,-16.43 z"
   id="path3"
   style="fill:#800a00;fill-opacity:1" />
</g>
</svg>
