<?xml version="1.0" encoding="UTF-8" standalone="no"?>
<!-- Uploaded to: SVG Repo, www.svgrepo.com, Generator: SVG Repo Mixer Tools -->

<svg
   width="800px"
   height="800px"
   viewBox="0 0 24 24"
   id="Layer_1"
   data-name="Layer 1"
   version="1.1"
   sodipodi:docname="candle-stick-svgrepo-com.svg"
   inkscape:version="1.4.2 (ebf0e940, 2025-05-08)"
   xmlns:inkscape="http://www.inkscape.org/namespaces/inkscape"
   xmlns:sodipodi="http://sodipodi.sourceforge.net/DTD/sodipodi-0.dtd"
   xmlns="http://www.w3.org/2000/svg"
   xmlns:svg="http://www.w3.org/2000/svg">
  <sodipodi:namedview
     id="namedview8"
     pagecolor="#ffffff"
     bordercolor="#000000"
     borderopacity="0.25"
     inkscape:showpageshadow="2"
     inkscape:pageopacity="0.0"
     inkscape:pagecheckerboard="0"
     inkscape:deskcolor="#d1d1d1"
     inkscape:zoom="0.38791312"
     inkscape:cx="1248.991"
     inkscape:cy="278.41286"
     inkscape:window-width="1712"
     inkscape:window-height="971"
     inkscape:window-x="0"
     inkscape:window-y="39"
     inkscape:window-maximized="1"
     inkscape:current-layer="Layer_1" />
  <defs
     id="defs1">
    <style
       id="style1">.cls-1{fill:none;stroke:#020202;stroke-miterlimit:10;stroke-width:1.93px;}</style>
  </defs>
  <path
     style="baseline-shift:baseline;display:inline;overflow:visible;vector-effect:none;fill:#800a00;stroke-miterlimit:10;enable-background:accumulate;stop-color:#000000;stop-opacity:1;opacity:1;fill-opacity:1"
     d="m 4.2753906,8.140625 v 5.798828 c 0,2.653344 2.1708749,4.826172 4.8242188,4.826172 h 5.8007816 c 2.653343,0 4.824218,-2.172828 4.824218,-4.826172 V 8.140625 h -1.929687 v 5.798828 c 0,1.610295 -1.284237,2.896484 -2.894531,2.896484 H 9.0996094 c -1.6102945,0 -2.8945313,-1.286189 -2.8945313,-2.896484 V 8.140625 Z"
     id="path1" />
  <path
     style="baseline-shift:baseline;display:inline;overflow:visible;vector-effect:none;fill:#800a00;stroke-miterlimit:10;enable-background:accumulate;stop-color:#000000;stop-opacity:1;opacity:1;fill-opacity:1"
     d="M 12.080078,0.2890625 11.40625,0.91015625 c 0,0 -0.288252,0.26283895 -0.583984,0.61328125 -0.275437,0.326393 -0.638702,0.6695327 -0.691407,1.4140625 -0.09957,0.5866743 0.155694,1.2475019 0.560547,1.5585937 0.428101,0.328955 0.889498,0.4199219 1.337891,0.4199219 0.448393,0 0.90979,-0.090967 1.337891,-0.4199219 0.407552,-0.313166 0.667895,-0.9807633 0.5625,-1.5703124 C 13.875922,2.2218998 13.542377,1.8711372 13.285156,1.546875 13.006625,1.1957476 12.734375,0.9296875 12.734375,0.9296875 Z"
     id="path2" />
  <path
     style="baseline-shift:baseline;display:inline;overflow:visible;vector-effect:none;fill:#800a00;stroke-miterlimit:10;enable-background:accumulate;stop-color:#000000;stop-opacity:1;opacity:1;fill-opacity:1"
     d="m 18.802734,3.2265625 -0.666015,0.6132813 c 0,0 -0.288253,0.2628389 -0.583985,0.6132812 -0.272159,0.3225086 -0.627473,0.6672226 -0.6875,1.3925781 -0.112622,0.589234 0.136916,1.2665617 0.544922,1.5820313 0.430703,0.3330178 0.895527,0.4238281 1.345703,0.4238281 0.450177,0 0.913048,-0.09081 1.34375,-0.4238281 C 20.495167,7.1218901 20.728814,6.4765376 20.642578,5.9003906 20.596742,5.1909207 20.270876,4.7933375 20.009766,4.4648437 19.7306,4.1136359 19.457031,3.8535156 19.457031,3.8535156 Z"
     id="path3" />
  <path
     style="baseline-shift:baseline;display:inline;overflow:visible;vector-effect:none;fill:#800a00;stroke-miterlimit:10;enable-background:accumulate;stop-color:#000000;stop-opacity:1;opacity:1;fill-opacity:1"
     d="M 5.2929687,3.2265625 4.6269531,3.8398438 c 0,0 -0.2882524,0.2628389 -0.5839844,0.6132812 -0.2721591,0.3225086 -0.6274734,0.6672226 -0.6874999,1.3925781 -0.1126172,0.5892317 0.1369177,1.2665636 0.5449218,1.5820313 0.4307023,0.3330178 0.8935732,0.4238281 1.34375,0.4238281 0.4501769,0 0.9150008,-0.09081 1.3457031,-0.4238281 C 6.9854058,7.1218868 7.2190574,6.4765423 7.1328125,5.9003906 7.0869763,5.1909207 6.7611105,4.7933375 6.5,4.4648437 6.2208348,4.1136359 5.9472656,3.8535156 5.9472656,3.8535156 Z"
     id="path4" />
  <path
     style="baseline-shift:baseline;display:inline;overflow:visible;vector-effect:none;fill:#800a00;stroke-miterlimit:10;enable-background:accumulate;stop-color:#000000;stop-opacity:1;opacity:1;fill-opacity:1"
     d="m 11.035156,5.25 v 17.380859 h 1.929688 V 5.25 Z"
     id="line4" />
  <path
     style="baseline-shift:baseline;display:inline;overflow:visible;vector-effect:none;fill:#800a00;stroke-miterlimit:10;enable-background:accumulate;stop-color:#000000;stop-opacity:1;opacity:1;fill-opacity:1"
     d="m 3.3105469,12.974609 v 1.929688 h 3.859375 v -1.929688 z"
     id="line5" />
  <path
     style="baseline-shift:baseline;display:inline;overflow:visible;vector-effect:none;fill:#800a00;stroke-miterlimit:10;enable-background:accumulate;stop-color:#000000;stop-opacity:1;opacity:1;fill-opacity:1"
     d="m 10.070313,11.035156 v 1.929688 h 3.859375 v -1.929688 z"
     id="line6" />
  <path
     style="baseline-shift:baseline;display:inline;overflow:visible;vector-effect:none;fill:#800a00;stroke-miterlimit:10;enable-background:accumulate;stop-color:#000000;stop-opacity:1;opacity:1;fill-opacity:1"
     d="m 16.830078,12.974609 v 1.929688 h 3.859375 v -1.929688 z"
     id="line7" />
  <path
     style="baseline-shift:baseline;display:inline;overflow:visible;vector-effect:none;fill:#800a00;stroke-miterlimit:10;enable-background:accumulate;stop-color:#000000;stop-opacity:1;opacity:1;fill-opacity:1"
     d="m 8.140625,21.664062 v 1.931641 h 7.71875 v -1.931641 z"
     id="line8" />
</svg>
