<?xml version="1.0" encoding="UTF-8" standalone="no"?>
<!-- Uploaded to: SVG Repo, www.svgrepo.com, Generator: SVG Repo Mixer Tools -->

<svg
   width="579.29688"
   height="776.888"
   viewBox="0 0 17.378906 23.30664"
   id="Layer_1"
   data-name="Layer 1"
   version="1.1"
   sodipodi:docname="candlstick.svg"
   inkscape:version="1.4.2 (ebf0e940, 2025-05-08)"
   xmlns:inkscape="http://www.inkscape.org/namespaces/inkscape"
   xmlns:sodipodi="http://sodipodi.sourceforge.net/DTD/sodipodi-0.dtd"
   xmlns="http://www.w3.org/2000/svg"
   xmlns:svg="http://www.w3.org/2000/svg">
  <sodipodi:namedview
     id="namedview8"
     pagecolor="#ffffff"
     bordercolor="#000000"
     borderopacity="0.25"
     inkscape:showpageshadow="2"
     inkscape:pageopacity="0.0"
     inkscape:pagecheckerboard="0"
     inkscape:deskcolor="#d1d1d1"
     inkscape:zoom="0.38791312"
     inkscape:cx="1138.1414"
     inkscape:cy="268.10127"
     inkscape:window-width="896"
     inkscape:window-height="245"
     inkscape:window-x="0"
     inkscape:window-y="39"
     inkscape:window-maximized="0"
     inkscape:current-layer="Layer_1" />
  <defs
     id="defs1">
    <style
       id="style1">.cls-1{fill:none;stroke:#020202;stroke-miterlimit:10;stroke-width:1.93px;}</style>
  </defs>
  <path
     style="baseline-shift:baseline;display:inline;overflow:visible;opacity:1;vector-effect:none;fill:#800a00;fill-opacity:1;stroke-miterlimit:10;enable-background:accumulate;stop-color:#000000;stop-opacity:1"
     d="m 0.9648437,7.8515625 v 5.7988285 c 0,2.653343 2.1708749,4.826171 4.8242188,4.826171 h 5.8007815 c 2.653343,0 4.824218,-2.172828 4.824218,-4.826171 V 7.8515625 h -1.929687 v 5.7988285 c 0,1.610295 -1.284237,2.896484 -2.894531,2.896484 H 5.7890625 c -1.6102945,0 -2.8945313,-1.286189 -2.8945313,-2.896484 V 7.8515625 Z"
     id="path1" />
  <path
     style="baseline-shift:baseline;display:inline;overflow:visible;opacity:1;vector-effect:none;fill:#800a00;fill-opacity:1;stroke-miterlimit:10;enable-background:accumulate;stop-color:#000000;stop-opacity:1"
     d="m 8.7695311,0 -0.673828,0.62109375 c 0,0 -0.288252,0.26283895 -0.583984,0.61328125 -0.275437,0.326393 -0.638702,0.6695327 -0.691407,1.4140625 -0.09957,0.5866743 0.155694,1.2475019 0.560547,1.5585937 0.428101,0.328955 0.889498,0.4199219 1.337891,0.4199219 0.448393,0 0.90979,-0.090967 1.3378909,-0.4199219 0.407552,-0.313166 0.667895,-0.9807633 0.5625,-1.5703124 C 10.565375,1.9328373 10.23183,1.5820747 9.9746091,1.2578125 9.6960781,0.9066851 9.4238281,0.640625 9.4238281,0.640625 Z"
     id="path2" />
  <path
     style="baseline-shift:baseline;display:inline;overflow:visible;opacity:1;vector-effect:none;fill:#800a00;fill-opacity:1;stroke-miterlimit:10;enable-background:accumulate;stop-color:#000000;stop-opacity:1"
     d="m 15.492187,2.9375 -0.666015,0.6132813 c 0,0 -0.288253,0.2628389 -0.583985,0.6132812 -0.272159,0.3225086 -0.627473,0.6672226 -0.6875,1.3925781 -0.112622,0.589234 0.136916,1.2665617 0.544922,1.5820313 0.430703,0.3330178 0.895527,0.4238281 1.345703,0.4238281 0.450177,0 0.913048,-0.09081 1.34375,-0.4238281 C 17.18462,6.8328276 17.418267,6.1874751 17.332031,5.6113281 17.286195,4.9018582 16.960329,4.504275 16.699219,4.1757812 16.420053,3.8245734 16.146484,3.5644531 16.146484,3.5644531 Z"
     id="path3" />
  <path
     style="baseline-shift:baseline;display:inline;overflow:visible;opacity:1;vector-effect:none;fill:#800a00;fill-opacity:1;stroke-miterlimit:10;enable-background:accumulate;stop-color:#000000;stop-opacity:1"
     d="M 1.9824218,2.9375 1.3164062,3.5507813 c 0,0 -0.2882524,0.2628389 -0.5839844,0.6132812 C 0.4602627,4.4865711 0.1049484,4.8312851 0.0449219,5.5566406 -0.0676953,6.1458723 0.1818396,6.8232042 0.5898437,7.1386719 1.020546,7.4716897 1.4834169,7.5625 1.9335937,7.5625 2.3837706,7.5625 2.8485945,7.47169 3.2792968,7.1386719 3.6748589,6.8328243 3.9085105,6.1874798 3.8222656,5.6113281 3.7764294,4.9018582 3.4505636,4.504275 3.1894531,4.1757812 2.9102879,3.8245734 2.6367187,3.5644531 2.6367187,3.5644531 Z"
     id="path4" />
  <path
     style="baseline-shift:baseline;display:inline;overflow:visible;opacity:1;vector-effect:none;fill:#800a00;fill-opacity:1;stroke-miterlimit:10;enable-background:accumulate;stop-color:#000000;stop-opacity:1"
     d="M 7.7246091,4.9609375 V 22.341796 h 1.929688 V 4.9609375 Z"
     id="line4" />
  <path
     style="baseline-shift:baseline;display:inline;overflow:visible;opacity:1;vector-effect:none;fill:#800a00;fill-opacity:1;stroke-miterlimit:10;enable-background:accumulate;stop-color:#000000;stop-opacity:1"
     d="m 0,12.685546 v 1.929689 h 3.859375 v -1.929689 z"
     id="line5" />
  <path
     style="baseline-shift:baseline;display:inline;overflow:visible;opacity:1;vector-effect:none;fill:#800a00;fill-opacity:1;stroke-miterlimit:10;enable-background:accumulate;stop-color:#000000;stop-opacity:1"
     d="m 6.7597661,10.746094 v 1.929688 h 3.8593749 v -1.929688 z"
     id="line6" />
  <path
     style="baseline-shift:baseline;display:inline;overflow:visible;opacity:1;vector-effect:none;fill:#800a00;fill-opacity:1;stroke-miterlimit:10;enable-background:accumulate;stop-color:#000000;stop-opacity:1"
     d="m 13.519531,12.685546 v 1.929689 h 3.859375 v -1.929689 z"
     id="line7" />
  <path
     style="baseline-shift:baseline;display:inline;overflow:visible;opacity:1;vector-effect:none;fill:#800a00;fill-opacity:1;stroke-miterlimit:10;enable-background:accumulate;stop-color:#000000;stop-opacity:1"
     d="m 4.8300781,21.375 v 1.93164 H 12.548828 V 21.375 Z"
     id="line8" />
</svg>
