<?xml version="1.0" encoding="iso-8859-1"?>
<!-- Uploaded to: SVG Repo, www.svgrepo.com, Generator: SVG Repo Mixer Tools -->
<!DOCTYPE svg PUBLIC "-//W3C//DTD SVG 1.1//EN" "http://www.w3.org/Graphics/SVG/1.1/DTD/svg11.dtd">
<svg fill="#800a00" height="800px" width="800px" version="1.1" id="Capa_1" xmlns="http://www.w3.org/2000/svg" xmlns:xlink="http://www.w3.org/1999/xlink" 
	 viewBox="0 0 491.341 491.341" xml:space="preserve">
<g id="XMLID_148_">
	<path id="XMLID_150_" d="M261.171,141.587l2.637,31.676c1.013,12.176-2.783,24.02-10.666,33.349
		c-7.909,9.329-18.969,15.021-31.139,16.038l-4.456,0.372l-4.553,28.817c11.456-1.187,23-1.993,34.762-1.993
		c63.391,0,122.809,17.731,170.873,48.099l19.504-123.866c9.031-57.364-30.139-111.194-87.512-120.23
		c-45.332-7.135-88.372,15.907-108.915,54.173c1.154,0.813,2.356,1.52,3.465,2.44C254.472,118.351,260.153,129.386,261.171,141.587z
		"/>
	<path id="XMLID_149_" d="M4.155,438.784h487.186c-27.656-89.397-126.063-155.626-243.587-155.626
		c-37.64,0-73.281,6.854-105.291,19.031c3.535-70.018,1.026-20.391,5.4-106.811l71.376-5.928c6.851-0.571,11.94-6.581,11.354-13.43
		l-2.616-31.687c-0.281-3.292-1.841-6.335-4.363-8.465c-2.259-1.904-5.107-2.945-8.036-2.945c-0.336,0-0.694,0.01-1.038,0.042
		l-63.779,5.305c2.018-40.146,1.445-28.802,2.604-51.637c0.178-3.4-1.057-6.728-3.4-9.198c-2.363-2.474-5.61-3.873-9.03-3.873
		H89.699c-3.4,0-6.673,1.398-9.016,3.873c-2.338,2.47-3.573,5.797-3.413,9.198c1.527,29.814,0.878,17.241,2.928,57.498
		l-68.791,5.718c-6.844,0.57-11.92,6.587-11.366,13.429l2.63,31.687c0.281,3.292,1.859,6.336,4.362,8.466
		c2.248,1.903,5.107,2.946,8.036,2.946c0.356,0,0.682-0.01,1.039-0.042l66.951-5.563c4.425,87.43,2.477,48.707,6.508,128.575
		C48.22,356.941,17.686,395.052,4.155,438.784z"/>
</g>
</svg>