<?xml version="1.0" encoding="UTF-8" standalone="no"?>
<!-- Uploaded to: SVG Repo, www.svgrepo.com, Generator: SVG Repo Mixer Tools -->

<svg
   width="675"
   height="750"
   viewBox="0 0 54 60"
   aria-hidden="true"
   role="img"
   class="iconify iconify--emojione-monotone"
   preserveAspectRatio="xMidYMid"
   version="1.1"
   id="svg2"
   sodipodi:docname="chains.svg"
   inkscape:version="1.4.2 (ebf0e940, 2025-05-08)"
   xmlns:inkscape="http://www.inkscape.org/namespaces/inkscape"
   xmlns:sodipodi="http://sodipodi.sourceforge.net/DTD/sodipodi-0.dtd"
   xmlns="http://www.w3.org/2000/svg"
   xmlns:svg="http://www.w3.org/2000/svg">
  <defs
     id="defs2" />
  <sodipodi:namedview
     id="namedview2"
     pagecolor="#ffffff"
     bordercolor="#000000"
     borderopacity="0.25"
     inkscape:showpageshadow="2"
     inkscape:pageopacity="0.0"
     inkscape:pagecheckerboard="0"
     inkscape:deskcolor="#d1d1d1"
     showgrid="false"
     inkscape:zoom="0.94"
     inkscape:cx="336.70213"
     inkscape:cy="374.46809"
     inkscape:window-width="1712"
     inkscape:window-height="971"
     inkscape:window-x="0"
     inkscape:window-y="39"
     inkscape:window-maximized="1"
     inkscape:current-layer="svg2" />
  <path
     d="M 11.836,16.637 V 13.759 C 15.91,12.742 18.931,9.187 18.931,4.951 L 18.933,0 14.203,0.002 14.202,4.953 C 14.201,6.66 13.206,8.133 11.757,8.912 11.206,6.774 7.727,6.773 7.181,8.914 5.731,8.135 4.737,6.661 4.739,4.953 L 4.735,0 H 0.002 v 4.953 c 0.001,4.235 3.025,7.794 7.1,8.807 v 2.876 C 3.026,17.652 0.001,21.21 0,25.444 l 0.002,9.109 c 0,4.235 3.021,7.794 7.097,8.812 L 7.1,46.241 C 3.025,47.256 0.003,50.814 0.004,55.049 L 0.003,60 4.732,59.998 4.734,55.049 c 0,-1.708 0.995,-3.182 2.446,-3.961 0.55,2.139 4.03,2.139 4.574,-0.002 1.45,0.778 2.445,2.252 2.445,3.959 V 60 l 4.733,-0.002 v -4.951 c -10e-4,-4.234 -3.025,-7.794 -7.1,-8.807 v -2.875 c 4.077,-1.016 7.101,-4.575 7.101,-8.81 V 25.446 C 18.934,21.21 15.912,17.653 11.836,16.637 M 11.755,38.516 C 11.207,36.377 7.728,36.377 7.177,38.515 5.728,37.735 4.735,36.26 4.735,34.554 v -9.107 c 10e-4,-1.708 0.996,-3.183 2.446,-3.961 0.552,2.14 4.028,2.139 4.576,10e-4 1.45,0.779 2.444,2.252 2.442,3.96 l 0.002,9.107 c -0.002,1.708 -0.996,3.182 -2.446,3.962"
     fill="#800a00"
     id="path1" />
  <path
     d="m 46.902,31.449 v -2.898 c 4.074,-1.023 7.094,-4.606 7.094,-8.871 l 0.002,-9.173 C 54.002,6.244 50.977,2.66 46.897,1.637 V 0.002 L 42.166,0 v 1.637 c -4.075,1.021 -7.098,4.606 -7.098,8.87 v 9.175 c 0.002,4.264 3.023,7.849 7.098,8.871 v 2.896 c -4.074,1.022 -7.098,4.605 -7.1,8.869 l 0.002,9.175 c 0,4.266 3.022,7.849 7.099,8.872 L 42.166,59.998 46.899,60 V 58.365 C 50.976,57.342 54,53.759 54,49.495 v -9.173 c 0,-4.267 -3.021,-7.849 -7.098,-8.873 M 39.804,19.682 39.802,10.507 c -10e-4,-1.701 0.97,-3.172 2.394,-3.963 0.315,2.534 4.36,2.532 4.673,-10e-4 1.425,0.791 2.397,2.263 2.4,3.968 l -0.002,9.172 c -0.001,1.719 -0.995,3.202 -2.444,3.987 -0.551,-2.152 -4.031,-2.152 -4.578,10e-4 -1.449,-0.786 -2.442,-2.27 -2.441,-3.989 m 7.063,33.777 C 46.554,50.924 42.511,50.924 42.195,53.457 40.772,52.665 39.8,51.193 39.801,49.493 v -9.171 c 10e-4,-1.721 0.995,-3.205 2.445,-3.989 0.554,2.153 4.029,2.152 4.577,-10e-4 1.449,0.785 2.443,2.27 2.44,3.99 l 0.002,9.171 c 10e-4,1.702 -0.973,3.175 -2.398,3.966"
     fill="#800a00"
     id="path2" />
</svg>
