<?xml version="1.0" encoding="UTF-8" standalone="no"?>
<!-- Uploaded to: SVG Repo, www.svgrepo.com, Generator: SVG Repo Mixer Tools -->

<svg
   fill="#800a00"
   height="799.99847"
   width="737.74896"
   version="1.1"
   id="Capa_1"
   viewBox="0 0 454.7125 493.08006"
   xml:space="preserve"
   sodipodi:docname="church-with-bats.svg"
   inkscape:version="1.4.2 (ebf0e940, 2025-05-08)"
   xmlns:inkscape="http://www.inkscape.org/namespaces/inkscape"
   xmlns:sodipodi="http://sodipodi.sourceforge.net/DTD/sodipodi-0.dtd"
   xmlns="http://www.w3.org/2000/svg"
   xmlns:svg="http://www.w3.org/2000/svg"><defs
   id="defs1" /><sodipodi:namedview
   id="namedview1"
   pagecolor="#ffffff"
   bordercolor="#000000"
   borderopacity="0.25"
   inkscape:showpageshadow="2"
   inkscape:pageopacity="0.0"
   inkscape:pagecheckerboard="0"
   inkscape:deskcolor="#d1d1d1"
   inkscape:zoom="0.0325"
   inkscape:cx="353.84615"
   inkscape:cy="400"
   inkscape:window-width="896"
   inkscape:window-height="245"
   inkscape:window-x="0"
   inkscape:window-y="39"
   inkscape:window-maximized="0"
   inkscape:current-layer="Capa_1" />
<g
   id="XMLID_375_"
   transform="translate(-19.18453,-9.3692472e-4)">
	<path
   id="XMLID_383_"
   d="m 473.011,135.561 c -10.658,-14.809 -41.138,-11.06 -68.097,8.355 -6.881,4.964 -12.852,10.436 -17.766,16.118 -0.194,0.195 -0.42,0.308 -0.607,0.484 -1.121,-2.884 -2.576,-5.46 -4.58,-7.317 l 2.993,-3.202 c 1.299,-1.392 1.236,-3.538 -0.144,-4.852 -1.378,-1.263 -3.541,-1.199 -4.836,0.16 l -4.351,4.629 c -1.407,-0.318 -2.852,-0.593 -4.323,-0.336 -1.473,0.255 -2.719,0.991 -3.973,1.776 l -5.646,-2.882 c -1.68,-0.897 -3.747,-0.227 -4.594,1.473 -0.866,1.697 -0.195,3.765 1.484,4.609 l 3.903,2.001 c -1.258,2.414 -1.773,5.36 -1.835,8.435 -0.257,-0.109 -0.515,-0.144 -0.771,-0.273 -6.529,-3.663 -14.025,-6.833 -22.152,-9.156 -31.902,-9.199 -61.869,-2.43 -66.912,15.098 -0.445,1.57 -0.044,3.28 1.06,4.481 1.122,1.22 2.782,1.775 4.399,1.439 3.397,-0.637 6.999,-0.558 10.552,0.463 8.641,2.5 14.625,9.639 16.098,17.914 0.258,1.473 1.184,2.707 2.501,3.392 1.328,0.675 2.883,0.675 4.224,0.031 4.868,-2.353 10.565,-3.023 16.186,-1.406 7.075,2.035 12.37,7.171 14.901,13.525 0.496,1.231 1.473,2.212 2.72,2.674 1.235,0.464 2.626,0.401 3.798,-0.19 3.917,-1.955 8.528,-2.528 13.078,-1.221 4.285,1.237 19.847,13.96 24.069,13.239 4.228,-0.735 14.569,-17.975 18.216,-20.585 3.829,-2.752 8.36,-3.774 12.715,-3.25 1.311,0.159 2.627,-0.268 3.646,-1.103 0.991,-0.864 1.605,-2.115 1.648,-3.423 0.239,-6.822 3.509,-13.479 9.463,-17.785 4.758,-3.394 10.34,-4.691 15.716,-4.114 1.473,0.161 2.945,-0.387 3.974,-1.458 0.989,-1.075 1.453,-2.578 1.214,-4.036 -1.407,-8.307 1.813,-17.046 9.125,-22.297 2.996,-2.159 6.342,-3.472 9.763,-3.983 1.637,-0.243 3.007,-1.313 3.652,-2.834 0.644,-1.519 0.449,-3.263 -0.511,-4.593 z" />
	<path
   id="XMLID_382_"
   d="m 286.336,13.523 c 4.449,4.403 5.733,10.789 3.841,16.359 -0.32,0.991 -0.175,2.049 0.421,2.912 0.569,0.85 1.534,1.376 2.556,1.443 3.779,0.173 7.495,1.68 10.37,4.545 3.654,3.635 5.189,8.548 4.601,13.283 -0.113,0.93 0.176,1.844 0.764,2.565 0.596,0.687 1.461,1.103 2.388,1.149 3.06,0.098 6.084,1.299 8.417,3.634 2.211,2.193 7.462,15.189 10.314,16.183 2.813,0.964 14.945,-6.128 18.033,-6.497 3.285,-0.401 6.392,0.48 8.886,2.256 0.741,0.545 1.698,0.72 2.597,0.545 0.913,-0.175 1.697,-0.75 2.161,-1.536 2.431,-4.098 6.654,-7.075 11.761,-7.717 4.037,-0.464 7.909,0.609 10.986,2.755 0.863,0.591 1.935,0.751 2.914,0.446 0.99,-0.318 1.773,-1.087 2.113,-2.063 1.916,-5.572 6.816,-9.83 13.057,-10.595 2.563,-0.32 5.057,0 7.332,0.847 1.059,0.384 2.273,0.192 3.17,-0.526 0.897,-0.708 1.372,-1.846 1.217,-2.994 -1.536,-12.615 -21.482,-20.555 -44.467,-17.705 -5.892,0.735 -11.38,2.08 -16.299,3.922 -0.175,0.048 -0.351,0.03 -0.545,0.079 0.288,-2.128 0.258,-4.209 -0.333,-6.034 l 2.895,-0.944 c 1.285,-0.418 1.955,-1.745 1.536,-3.007 -0.413,-1.252 -1.762,-1.926 -3.01,-1.525 l -4.21,1.379 c -0.752,-0.674 -1.547,-1.331 -2.543,-1.667 -0.978,-0.333 -2,-0.303 -3.009,-0.237 l -2.5,-3.667 c -0.733,-1.107 -2.226,-1.394 -3.309,-0.641 -1.109,0.772 -1.38,2.244 -0.628,3.331 l 1.711,2.544 c -1.58,1.04 -2.876,2.672 -3.954,4.545 -0.105,-0.16 -0.288,-0.257 -0.381,-0.432 -2.752,-4.434 -6.274,-8.866 -10.483,-13.028 -16.456,-16.328 -37.06,-22.236 -46.02,-13.19 -0.803,0.813 -1.122,1.983 -0.867,3.104 0.289,1.106 1.123,2.003 2.214,2.353 2.298,0.738 4.479,2.002 6.303,3.826 z" />
	<path
   id="XMLID_376_"
   d="m 319.535,266.243 c -2.751,-10.917 -12.582,-18.552 -23.818,-18.552 H 151.796 v -95.467 h 12.214 c 2.286,0 4.386,-1.294 5.407,-3.345 1.009,-2.033 0.802,-4.483 -0.577,-6.309 L 121.492,79.566 V 40.429 h 4.962 c 4.519,0 8.197,-3.666 8.197,-8.196 0,-4.531 -3.678,-8.194 -8.197,-8.194 h -4.962 V 11.41 c 0,-4.532 -3.678,-8.197 -8.191,-8.197 -4.53,0 -8.196,3.665 -8.196,8.197 v 12.629 h -4.951 c -4.524,0 -8.189,3.663 -8.189,8.194 0,4.53 3.665,8.196 8.189,8.196 h 4.951 v 39.138 l -47.318,63.004 c -1.378,1.825 -1.604,4.275 -0.575,6.309 1.02,2.051 3.101,3.345 5.395,3.345 H 74.82 v 95.467 h -8.566 c -11.254,0 -21.048,7.636 -23.8,18.552 l -22.747,89.992 c -1.298,5.107 -0.144,10.516 3.089,14.664 3.233,4.145 8.197,6.576 13.449,6.576 h 23.85 v 98.541 c 0,9.43 7.633,17.064 17.063,17.064 H 284.8 c 9.425,0 17.064,-7.635 17.064,-17.064 v -98.541 h 23.849 c 5.283,0 10.247,-2.432 13.48,-6.576 3.234,-4.148 4.355,-9.557 3.071,-14.664 z M 96.907,221.424 v -43.029 c 0,-9.059 7.332,-16.39 16.393,-16.39 9.055,0 16.387,7.331 16.387,16.39 v 43.029 z m 34.898,225.025 H 99.02 v -43.024 c 0,-9.061 7.331,-16.391 16.392,-16.391 9.062,0 16.393,7.329 16.393,16.391 z m 65.56,0 h -32.78 v -43.024 c 0,-9.061 7.332,-16.391 16.393,-16.391 9.061,0 16.387,7.329 16.387,16.391 z m 65.565,0 h -32.779 v -43.024 c 0,-9.061 7.332,-16.391 16.392,-16.391 9.062,0 16.387,7.329 16.387,16.391 z" />
</g>
</svg>
