<?xml version="1.0" encoding="iso-8859-1"?>
<!-- Uploaded to: SVG Repo, www.svgrepo.com, Generator: SVG Repo Mixer Tools -->
<!DOCTYPE svg PUBLIC "-//W3C//DTD SVG 1.1//EN" "http://www.w3.org/Graphics/SVG/1.1/DTD/svg11.dtd">
<svg fill="#800a00" height="800px" width="800px" version="1.1" id="Capa_1" xmlns="http://www.w3.org/2000/svg" xmlns:xlink="http://www.w3.org/1999/xlink" 
	 viewBox="0 0 493.081 493.081" xml:space="preserve">
<g id="XMLID_375_">
	<path id="XMLID_383_" d="M473.011,135.561c-10.658-14.809-41.138-11.06-68.097,8.355c-6.881,4.964-12.852,10.436-17.766,16.118
		c-0.194,0.195-0.42,0.308-0.607,0.484c-1.121-2.884-2.576-5.46-4.58-7.317l2.993-3.202c1.299-1.392,1.236-3.538-0.144-4.852
		c-1.378-1.263-3.541-1.199-4.836,0.16l-4.351,4.629c-1.407-0.318-2.852-0.593-4.323-0.336c-1.473,0.255-2.719,0.991-3.973,1.776
		l-5.646-2.882c-1.68-0.897-3.747-0.227-4.594,1.473c-0.866,1.697-0.195,3.765,1.484,4.609l3.903,2.001
		c-1.258,2.414-1.773,5.36-1.835,8.435c-0.257-0.109-0.515-0.144-0.771-0.273c-6.529-3.663-14.025-6.833-22.152-9.156
		c-31.902-9.199-61.869-2.43-66.912,15.098c-0.445,1.57-0.044,3.28,1.06,4.481c1.122,1.22,2.782,1.775,4.399,1.439
		c3.397-0.637,6.999-0.558,10.552,0.463c8.641,2.5,14.625,9.639,16.098,17.914c0.258,1.473,1.184,2.707,2.501,3.392
		c1.328,0.675,2.883,0.675,4.224,0.031c4.868-2.353,10.565-3.023,16.186-1.406c7.075,2.035,12.37,7.171,14.901,13.525
		c0.496,1.231,1.473,2.212,2.72,2.674c1.235,0.464,2.626,0.401,3.798-0.19c3.917-1.955,8.528-2.528,13.078-1.221
		c4.285,1.237,19.847,13.96,24.069,13.239c4.228-0.735,14.569-17.975,18.216-20.585c3.829-2.752,8.36-3.774,12.715-3.25
		c1.311,0.159,2.627-0.268,3.646-1.103c0.991-0.864,1.605-2.115,1.648-3.423c0.239-6.822,3.509-13.479,9.463-17.785
		c4.758-3.394,10.34-4.691,15.716-4.114c1.473,0.161,2.945-0.387,3.974-1.458c0.989-1.075,1.453-2.578,1.214-4.036
		c-1.407-8.307,1.813-17.046,9.125-22.297c2.996-2.159,6.342-3.472,9.763-3.983c1.637-0.243,3.007-1.313,3.652-2.834
		C474.166,138.635,473.971,136.891,473.011,135.561z"/>
	<path id="XMLID_382_" d="M286.336,13.523c4.449,4.403,5.733,10.789,3.841,16.359c-0.32,0.991-0.175,2.049,0.421,2.912
		c0.569,0.85,1.534,1.376,2.556,1.443c3.779,0.173,7.495,1.68,10.37,4.545c3.654,3.635,5.189,8.548,4.601,13.283
		c-0.113,0.93,0.176,1.844,0.764,2.565c0.596,0.687,1.461,1.103,2.388,1.149c3.06,0.098,6.084,1.299,8.417,3.634
		c2.211,2.193,7.462,15.189,10.314,16.183c2.813,0.964,14.945-6.128,18.033-6.497c3.285-0.401,6.392,0.48,8.886,2.256
		c0.741,0.545,1.698,0.72,2.597,0.545c0.913-0.175,1.697-0.75,2.161-1.536c2.431-4.098,6.654-7.075,11.761-7.717
		c4.037-0.464,7.909,0.609,10.986,2.755c0.863,0.591,1.935,0.751,2.914,0.446c0.99-0.318,1.773-1.087,2.113-2.063
		c1.916-5.572,6.816-9.83,13.057-10.595c2.563-0.32,5.057,0,7.332,0.847c1.059,0.384,2.273,0.192,3.17-0.526
		c0.897-0.708,1.372-1.846,1.217-2.994c-1.536-12.615-21.482-20.555-44.467-17.705c-5.892,0.735-11.38,2.08-16.299,3.922
		c-0.175,0.048-0.351,0.03-0.545,0.079c0.288-2.128,0.258-4.209-0.333-6.034l2.895-0.944c1.285-0.418,1.955-1.745,1.536-3.007
		c-0.413-1.252-1.762-1.926-3.01-1.525l-4.21,1.379c-0.752-0.674-1.547-1.331-2.543-1.667c-0.978-0.333-2-0.303-3.009-0.237
		l-2.5-3.667c-0.733-1.107-2.226-1.394-3.309-0.641c-1.109,0.772-1.38,2.244-0.628,3.331l1.711,2.544
		c-1.58,1.04-2.876,2.672-3.954,4.545c-0.105-0.16-0.288-0.257-0.381-0.432c-2.752-4.434-6.274-8.866-10.483-13.028
		c-16.456-16.328-37.06-22.236-46.02-13.19c-0.803,0.813-1.122,1.983-0.867,3.104c0.289,1.106,1.123,2.003,2.214,2.353
		C282.331,10.435,284.512,11.699,286.336,13.523z"/>
	<path id="XMLID_376_" d="M319.535,266.243c-2.751-10.917-12.582-18.552-23.818-18.552H151.796v-95.467h12.214
		c2.286,0,4.386-1.294,5.407-3.345c1.009-2.033,0.802-4.483-0.577-6.309l-47.348-63.004V40.429h4.962
		c4.519,0,8.197-3.666,8.197-8.196c0-4.531-3.678-8.194-8.197-8.194h-4.962V11.41c0-4.532-3.678-8.197-8.191-8.197
		c-4.53,0-8.196,3.665-8.196,8.197v12.629h-4.951c-4.524,0-8.189,3.663-8.189,8.194c0,4.53,3.665,8.196,8.189,8.196h4.951v39.138
		l-47.318,63.004c-1.378,1.825-1.604,4.275-0.575,6.309c1.02,2.051,3.101,3.345,5.395,3.345h12.213v95.467h-8.566
		c-11.254,0-21.048,7.636-23.8,18.552l-22.747,89.992c-1.298,5.107-0.144,10.516,3.089,14.664c3.233,4.145,8.197,6.576,13.449,6.576
		h23.85v98.541c0,9.43,7.633,17.064,17.063,17.064H284.8c9.425,0,17.064-7.635,17.064-17.064v-98.541h23.849
		c5.283,0,10.247-2.432,13.48-6.576c3.234-4.148,4.355-9.557,3.071-14.664L319.535,266.243z M96.907,221.424v-43.029
		c0-9.059,7.332-16.39,16.393-16.39c9.055,0,16.387,7.331,16.387,16.39v43.029H96.907z M131.805,446.449H99.02v-43.024
		c0-9.061,7.331-16.391,16.392-16.391c9.062,0,16.393,7.329,16.393,16.391V446.449z M197.365,446.449h-32.78v-43.024
		c0-9.061,7.332-16.391,16.393-16.391c9.061,0,16.387,7.329,16.387,16.391V446.449z M262.93,446.449h-32.779v-43.024
		c0-9.061,7.332-16.391,16.392-16.391c9.062,0,16.387,7.329,16.387,16.391V446.449z"/>
</g>
</svg>