<?xml version="1.0" encoding="iso-8859-1"?>
<!-- Uploaded to: SVG Repo, www.svgrepo.com, Generator: SVG Repo Mixer Tools -->
<svg fill="#800a00" height="800px" width="800px" version="1.1" id="Layer_1" xmlns="http://www.w3.org/2000/svg" xmlns:xlink="http://www.w3.org/1999/xlink" 
	 viewBox="0 0 512 512" xml:space="preserve">
<g>
	<g>
		<path d="M512,139.57c0-15.8-6.949-30.828-18.614-41.146c6.493-9.172,9.989-20.088,9.989-31.57
			c0-30.226-24.597-54.817-54.83-54.817c-30.226,0-54.816,24.59-54.816,54.817c0,0.216,0.001,0.433,0.003,0.649
			c-12.852,2.782-24.218,10.11-32.104,20.592c-28.35-24.526-65.286-39.38-105.627-39.38c-40.342,0-77.279,14.857-105.63,39.384
			c-7.883-10.481-19.246-17.811-32.092-20.594c0.002-0.217,0.003-0.433,0.003-0.65c0-30.226-24.596-54.817-54.83-54.817
			c-30.234,0-54.829,24.59-54.829,54.816c0,11.482,3.495,22.399,9.991,31.572C6.951,108.749,0,123.777,0,139.57
			c0,21.827,13.177,41.555,32.791,50.196c-0.006,0.328-0.009,0.656-0.009,0.982c0,30.233,24.596,54.829,54.829,54.829
			c2.266,0,4.518-0.142,6.747-0.417v1.984c-20.608,8.832-34.517,29.466-34.517,52.266c0,23.037,14.166,43.818,35.104,52.511
			c4.057,48.115,29.466,92.167,69.732,119.784c0.287,0.208,0.581,0.408,0.873,0.604l0.292,0.198
			c26.689,17.963,57.866,27.457,90.161,27.457c32.297,0,63.473-9.495,90.161-27.457c0.018-0.013,0.037-0.025,0.055-0.038l0.237-0.16
			c0.292-0.196,0.587-0.399,0.875-0.607c40.267-27.617,65.675-71.67,69.731-119.785c20.934-8.694,35.097-29.473,35.097-52.507
			c0-22.797-13.907-43.43-34.511-52.264v-1.986c2.232,0.275,4.484,0.417,6.753,0.417c30.226,0,54.816-24.596,54.816-54.829
			c0-0.325-0.002-0.651-0.008-0.978C498.82,181.133,512,161.401,512,139.57z M94.357,332.107
			C83.8,324.852,77.07,312.668,77.07,299.41c0-13.244,6.733-25.437,17.287-32.694V332.107z M417.649,266.721
			c10.55,7.257,17.281,19.448,17.281,32.69c0,13.255-6.728,25.438-17.281,32.692V266.721z M94.357,210.361v17.377
			c-2.216,0.401-4.469,0.61-6.747,0.61c-20.732,0-37.599-16.867-37.599-37.599c0-1.831,0.137-3.657,0.419-5.585
			c0.631-4.299-2.054-8.308-6.222-9.532c-15.889-4.668-26.978-19.482-26.978-36.063c0-13.237,6.747-25.226,18.066-32.131
			c1.43-0.873,2.697-2.032,3.467-3.519c1.823-3.521,1.049-7.604-1.595-10.192c-7.759-7.594-11.81-17.905-11.265-28.821
			c0.94-18.78,16.015-34.182,34.77-35.537c21.984-1.59,40.381,15.841,40.381,37.486c0,2.116-0.195,4.318-0.58,6.545
			c-0.093,0.435-1.152,5.17-4.151,10.036c-2.797,4.537-6.235,7.648-10.416,9.396c-3.497,1.463-5.71,4.939-5.292,8.706l0.065,0.59
			c0.603,5.432,6.199,8.876,11.285,6.876c13.306-5.234,19.942-16.729,23.039-24.555c9.328,2.126,17.493,7.738,22.835,15.737
			C110.882,129.078,94.357,167.823,94.357,210.361z M400.421,338.318h-0.002c0,47.685-23.524,92.261-62.929,119.242
			c-0.085,0.057-0.168,0.117-0.25,0.178c-0.133,0.098-0.272,0.188-0.408,0.28l-0.287,0.194
			c-23.835,16.042-51.686,24.521-80.541,24.521c-28.855,0-56.707-8.479-80.486-24.484l-0.339-0.23
			c-0.139-0.094-0.28-0.186-0.417-0.287c-0.08-0.059-0.162-0.117-0.245-0.173c-39.404-26.981-62.929-71.556-62.929-119.242V210.36
			c0-79.631,64.785-144.417,144.417-144.417s144.417,64.785,144.417,144.417V338.318z M467.705,175.66
			c-4.156,1.208-6.712,5.365-6.102,9.651c0.255,1.795,0.385,3.623,0.385,5.437c0,20.732-16.861,37.599-37.586,37.599
			c-2.281,0-4.537-0.209-6.753-0.61v-17.378c0-42.539-16.526-81.287-43.484-110.179c5.344-7.997,13.513-13.608,22.846-15.733
			c3.096,7.827,9.732,19.321,23.036,24.554c5.086,2,10.682-1.444,11.286-6.876l0.079-0.711c0.412-3.711-1.782-7.127-5.232-8.555
			c-4.083-1.691-7.462-4.676-10.233-9.019c-3.161-4.953-4.286-9.884-4.412-10.472c-0.38-2.141-0.574-4.333-0.574-6.515
			c0-21.126,17.518-38.236,38.79-37.568c19.782,0.621,35.932,16.89,36.386,36.676c0.24,10.446-3.737,20.271-11.14,27.602
			c-1.086,1.075-1.972,2.358-2.397,3.825c-1.145,3.964,0.565,7.928,3.835,9.884c11.482,6.871,18.336,18.944,18.336,32.294
			C494.77,156.187,483.641,171.029,467.705,175.66z"/>
	</g>
</g>
<g>
	<g>
		<path d="M353.183,356.629h-46.571c2.837-6.629,4.413-13.923,4.413-21.579c0-5.308-0.771-10.437-2.18-15.297
			c5.015,1.527,10.225,2.318,15.455,2.318c11.714,0,23.5-3.878,33.263-11.843c22.514-18.368,25.886-51.627,7.518-74.141
			c-1.445-1.77-3.533-2.895-5.806-3.125c-2.272-0.229-4.544,0.451-6.314,1.895l-66.599,54.336
			c-8.708-5.783-19.143-9.164-30.358-9.164s-21.65,3.379-30.358,9.164l-66.599-54.336c-3.687-3.007-9.113-2.457-12.122,1.229
			c-18.368,22.514-14.996,55.773,7.518,74.141c9.765,7.966,21.548,11.843,33.263,11.843c5.23,0,10.44-0.791,15.456-2.318
			c-1.409,4.86-2.18,9.99-2.18,15.298c0,7.656,1.576,14.95,4.413,21.579h-46.577c-2.763,0-5.358,1.326-6.978,3.564
			c-1.621,2.238-2.069,5.117-1.205,7.742c14.998,45.611,57.343,76.255,105.37,76.255c48.021,0,90.361-30.645,105.36-76.255
			c0.863-2.625,0.415-5.504-1.205-7.742C358.541,357.955,355.945,356.629,353.183,356.629z M319.494,284.399l8.154,7.033
			c1.628,1.404,3.63,2.092,5.623,2.092c2.418,0,4.823-1.013,6.528-2.988c3.108-3.603,2.706-9.043-0.896-12.15l-5.851-5.047
			l23.313-19.021c2.717,5.757,3.83,12.163,3.17,18.66c-0.956,9.425-5.525,17.913-12.865,23.901
			c-7.34,5.989-16.573,8.764-25.997,7.804c-6.497-0.658-12.549-3.035-17.643-6.851L319.494,284.399z M165.335,296.879
			c-7.34-5.988-11.909-14.476-12.865-23.901c-0.658-6.497,0.455-12.903,3.17-18.66l23.313,19.021l-5.854,5.045
			c-3.603,3.106-4.008,8.546-0.902,12.15c1.703,1.977,4.11,2.991,6.53,2.991c1.992,0,3.994-0.687,5.62-2.089l8.162-7.036
			l16.457,13.427C196.238,307.324,178.186,307.364,165.335,296.879z M184.496,393.855c-5.091-6.016-9.464-12.713-12.951-19.995
			h12.956L184.496,393.855z M215.941,417.994c-4.986-2.354-9.743-5.139-14.219-8.319l0.008-35.815h14.211V417.994z M247.385,426.556
			c-4.839-0.442-9.589-1.244-14.215-2.399v-39.065c4.454,2.041,9.221,3.513,14.215,4.302V426.556z M278.829,424.156
			c-4.626,1.156-9.375,1.958-14.215,2.4v-37.162c4.993-0.789,9.76-2.259,14.215-4.299V424.156z M256.002,372.843
			c-20.838,0-37.791-16.953-37.791-37.791c0-20.838,16.953-37.791,37.791-37.791c20.839-0.001,37.792,16.953,37.792,37.791
			C293.794,355.89,276.841,372.843,256.002,372.843z M310.28,409.676c-4.477,3.181-9.234,5.965-14.22,8.32V373.86h14.22V409.676z
			 M327.509,393.85v-19.99h12.946C336.968,381.14,332.597,387.836,327.509,393.85z"/>
	</g>
</g>
<g>
	<g>
		<path d="M242.281,215.065c-3.364-3.363-8.819-3.364-12.184,0c-3.608,3.608-9.479,3.609-13.088,0l-29.35-29.352
			c-7.702-7.702-19.147-9.905-29.161-5.616l-4.961,2.127c-4.373,1.875-6.398,6.94-4.523,11.313c1.876,4.374,6.94,6.398,11.313,4.525
			l4.96-2.127c3.499-1.498,7.498-0.729,10.19,1.962l29.352,29.352c5.163,5.162,11.945,7.743,18.726,7.743s13.563-2.581,18.727-7.743
			C245.645,223.884,245.645,218.429,242.281,215.065z"/>
	</g>
</g>
<g>
	<g>
		<path d="M358.468,182.225l-4.962-2.127c-10.012-4.29-21.457-2.085-29.159,5.617l-29.352,29.35c-3.608,3.609-9.48,3.609-13.088,0
			c-3.366-3.364-8.818-3.363-12.184,0c-3.364,3.364-3.363,8.819,0,12.184c5.163,5.162,11.945,7.743,18.726,7.743
			s13.564-2.581,18.727-7.744l29.352-29.352c2.691-2.69,6.691-3.462,10.189-1.962l4.961,2.127c4.373,1.873,9.437-0.15,11.313-4.523
			C364.866,189.165,362.841,184.101,358.468,182.225z"/>
	</g>
</g>
</svg>