<?xml version="1.0" encoding="iso-8859-1"?>
<!-- Uploaded to: SVG Repo, www.svgrepo.com, Generator: SVG Repo Mixer Tools -->
<!DOCTYPE svg PUBLIC "-//W3C//DTD SVG 1.1//EN" "http://www.w3.org/Graphics/SVG/1.1/DTD/svg11.dtd">
<svg fill="#800a00" height="800px" width="800px" version="1.1" id="Capa_1" xmlns="http://www.w3.org/2000/svg" xmlns:xlink="http://www.w3.org/1999/xlink" 
	 viewBox="0 0 492.679 492.679" xml:space="preserve">
<path id="XMLID_576_" d="M491.279,240.235l-1.924-2.742c-35.064-50.294-61.152-88.002-77.044-135.212l2.081-2.085
	c6.045-6.042,6.045-15.832,0-21.874c-6.043-6.045-15.832-6.045-21.877,0l-0.992,0.996c-47.971-15.102-86.146-40.352-137.416-74.572
	l-5.168-3.442c-2.645-1.763-6.092-1.748-8.719,0.089l-3.021,2.108c-50.2,34.979-87.831,61.019-134.986,76.857l-2.039-2.038
	c-6.039-6.045-15.832-6.045-21.871,0c-6.043,6.042-6.043,15.832,0,21.874l0.963,0.966c-15.103,48.08-40.44,86.352-74.736,137.751
	l-3.217,4.819c-1.769,2.644-1.722,6.104,0.095,8.714l1.915,2.745c35.077,50.306,61.172,88.021,77.063,135.249l-2.082,2.084
	c-6.043,6.042-6.043,15.833,0,21.874c3.017,3.022,6.979,4.533,10.936,4.533c3.956,0,7.918-1.511,10.936-4.533l1.029-1.026
	c47.935,15.108,86.098,40.353,137.373,74.554l5.163,3.454c1.301,0.866,2.8,1.298,4.294,1.298c1.538,0,3.094-0.461,4.424-1.39
	l3.023-2.109c50.188-34.973,87.819-61.001,134.938-76.843l2.088,2.076c3.022,3.022,6.979,4.533,10.934,4.533
	c3.959,0,7.92-1.511,10.943-4.533c6.037-6.041,6.037-15.833,0-21.874l-0.988-0.982c15.11-48.102,40.447-86.376,74.754-137.789
	l3.217-4.817C493.135,246.31,493.088,242.85,491.279,240.235z M465.921,230.876h-27.795c-24.928-35.819-43.889-64.237-55.883-98.539
	l17.843-17.834C414.937,155.323,437.174,189.415,465.921,230.876z M261.806,128.002c17.785,11.564,34.492,21.202,52.619,28.402
	l-52.619,52.619V128.002z M230.87,209.024l-52.181-52.175c18.008-7.553,34.58-17.637,52.181-29.616V209.024z M208.976,230.876
	h-80.973c11.559-17.76,21.182-34.477,28.372-52.598L208.976,230.876z M209.013,261.816l-52.124,52.128
	c-7.45-17.843-17.405-34.181-29.642-52.128H209.013z M230.87,283.714v80.967c-17.767-11.556-34.474-21.187-52.588-28.385
	L230.87,283.714z M261.806,283.714l52.142,52.136c-17.999,7.546-34.552,17.636-52.142,29.604V283.714z M283.655,261.816h81.019
	c-11.557,17.772-21.191,34.489-28.384,52.628L283.655,261.816z M283.713,230.876l52.091-52.089
	c7.447,17.825,17.406,34.158,29.625,52.089H283.713z M326.513,144.326c-22.1-7.757-41.588-19.512-64.707-34.852V74.626
	c30.004,19.807,56.641,36.115,87.2,47.204L326.513,144.326z M230.87,108.476c-22.947,15.901-42.269,28.166-64.173,36.363
	l-22.344-22.343c30.168-11.512,55.953-28.033,86.517-49.129V108.476z M144.304,166.202c-7.766,22.087-19.518,41.568-34.84,64.675
	H74.629c19.791-29.996,36.089-56.632,47.166-87.184L144.304,166.202z M108.483,261.816c15.897,22.926,28.162,42.269,36.365,64.168
	l-22.331,22.329c-11.529-30.156-28.039-55.96-49.131-86.498H108.483z M166.211,348.368c22.084,7.762,41.547,19.511,64.659,34.837
	v34.852c-29.99-19.798-56.623-36.106-87.155-47.189L166.211,348.368z M261.806,384.207c22.936-15.892,42.258-28.151,64.146-36.349
	l22.344,22.344c-30.15,11.512-55.943,28.033-86.49,49.114V384.207z M348.361,326.52c7.766-22.101,19.518-41.591,34.834-64.704
	h34.852c-19.807,30.003-36.104,56.652-47.176,87.213L348.361,326.52z M384.209,230.876c-15.892-22.918-28.16-42.248-36.36-64.139
	l22.326-22.33c11.526,30.139,28.036,55.936,49.116,86.469H384.209z M361.248,109.594c-34.645-11.317-63.299-29.458-99.441-53.525
	V28.461c40.656,26.951,76.068,48.871,117.445,63.133L361.248,109.594z M230.87,26.731v27.805
	c-35.851,24.949-64.268,43.925-98.589,55.89l-17.844-17.843C155.289,77.747,189.371,55.503,230.87,26.731z M109.56,131.462
	c-11.303,34.618-29.449,63.285-53.501,99.414H28.463c26.935-40.648,48.839-76.06,63.086-117.429L109.56,131.462z M26.767,261.816
	H54.55c24.939,35.834,43.901,64.257,55.883,98.575l-17.824,17.828C77.757,337.381,55.521,303.292,26.767,261.816z M131.478,383.098
	c34.607,11.323,63.258,29.458,99.392,53.517v27.616c-40.654-26.96-76.037-48.871-117.384-63.134L131.478,383.098z M261.806,465.953
	V438.15c35.835-24.937,64.253-43.91,98.559-55.877l17.832,17.834C337.379,414.952,303.295,437.19,261.806,465.953z M383.107,361.269
	c11.303-34.636,29.441-63.317,53.512-99.453h27.601c-26.958,40.654-48.856,76.074-63.104,117.457L383.107,361.269z"/>
</svg>