<?xml version="1.0" encoding="UTF-8" standalone="no"?>
<!-- Uploaded to: SVG Repo, www.svgrepo.com, Generator: SVG Repo Mixer Tools -->

<svg
   fill="#800a00"
   height="800"
   width="687.95135"
   version="1.1"
   id="Capa_1"
   viewBox="0 0 415.19842 482.823"
   xml:space="preserve"
   sodipodi:docname="coffin.svg"
   inkscape:version="1.4.2 (ebf0e940, 2025-05-08)"
   xmlns:inkscape="http://www.inkscape.org/namespaces/inkscape"
   xmlns:sodipodi="http://sodipodi.sourceforge.net/DTD/sodipodi-0.dtd"
   xmlns="http://www.w3.org/2000/svg"
   xmlns:svg="http://www.w3.org/2000/svg"><defs
   id="defs1" /><sodipodi:namedview
   id="namedview1"
   pagecolor="#ffffff"
   bordercolor="#000000"
   borderopacity="0.25"
   inkscape:showpageshadow="2"
   inkscape:pageopacity="0.0"
   inkscape:pagecheckerboard="0"
   inkscape:deskcolor="#d1d1d1"
   inkscape:zoom="0.0325"
   inkscape:cx="323.07692"
   inkscape:cy="400"
   inkscape:window-width="896"
   inkscape:window-height="245"
   inkscape:window-x="0"
   inkscape:window-y="39"
   inkscape:window-maximized="0"
   inkscape:current-layer="Capa_1" />
<g
   id="XMLID_103_"
   transform="translate(-33.81184)">
	<path
   id="XMLID_107_"
   d="m 121.449,434.616 v 0 L 82.09,167.375 118.372,50.891 h 57.636 L 201.92,2.682 h -86.527 c -19.444,0 -36.381,12.477 -42.155,31.025 L 35.794,153.926 c -1.942,6.291 -2.476,13.056 -1.518,19.566 l 39.998,271.605 c 3.152,21.515 21.938,37.726 43.672,37.726 h 72.594 l -23.774,-4.597 c -22.035,-4.254 -41.712,-22.127 -45.317,-43.61 z" />
	<path
   id="XMLID_104_"
   d="M 434.23,49.87 C 433.191,40.703 426.336,33.267 417.281,31.507 L 256.434,0.394 C 255.082,0.126 253.73,0 252.416,0 244.755,0 237.568,4.189 233.869,11.109 l -62.647,116.595 c -1.505,2.792 -2.353,5.886 -2.495,9.037 l -12.913,288.303 c -0.473,10.435 6.776,19.647 17.041,21.624 l 155.576,30.096 c 1.346,0.254 2.697,0.378 4.012,0.378 8.79,0 16.875,-5.523 19.867,-14.093 l 95.508,-272.324 c 1.05,-2.983 1.413,-6.167 1.063,-9.306 z m -52.321,134.701 c -2.341,12.1 -12.944,20.527 -24.843,20.527 -1.597,0 -3.214,-0.156 -4.847,-0.473 l -25.107,-4.845 -31.325,161.96 c -2.322,12.098 -12.932,20.525 -24.826,20.525 -1.597,0 -3.23,-0.158 -4.847,-0.471 -13.729,-2.653 -22.724,-15.945 -20.069,-29.69 l 31.318,-161.947 -25.107,-4.864 c -13.743,-2.651 -22.718,-15.942 -20.07,-29.69 2.654,-13.731 16.01,-22.674 29.677,-20.053 l 25.121,4.863 8.336,-43.122 c 2.666,-13.73 15.991,-22.724 29.69,-20.053 13.743,2.648 22.724,15.939 20.051,29.688 l -8.318,43.106 25.107,4.848 c 13.737,2.656 22.725,15.946 20.059,29.691 z" />
</g>
</svg>
