<?xml version="1.0" encoding="UTF-8" standalone="no"?>
<!-- Uploaded to: SVG Repo, www.svgrepo.com, Generator: SVG Repo Mixer Tools -->

<svg
   width="709.60938"
   height="698.4375"
   viewBox="0 0 454.15 447"
   version="1.1"
   id="svg1"
   sodipodi:docname="devil.svg"
   inkscape:version="1.4.2 (ebf0e940, 2025-05-08)"
   xmlns:inkscape="http://www.inkscape.org/namespaces/inkscape"
   xmlns:sodipodi="http://sodipodi.sourceforge.net/DTD/sodipodi-0.dtd"
   xmlns="http://www.w3.org/2000/svg"
   xmlns:svg="http://www.w3.org/2000/svg">
  <defs
     id="defs1" />
  <sodipodi:namedview
     id="namedview1"
     pagecolor="#ffffff"
     bordercolor="#000000"
     borderopacity="0.25"
     inkscape:showpageshadow="2"
     inkscape:pageopacity="0.0"
     inkscape:pagecheckerboard="0"
     inkscape:deskcolor="#d1d1d1"
     inkscape:zoom="1.832085"
     inkscape:cx="323.40202"
     inkscape:cy="507.61837"
     inkscape:window-width="1712"
     inkscape:window-height="971"
     inkscape:window-x="0"
     inkscape:window-y="39"
     inkscape:window-maximized="1"
     inkscape:current-layer="svg1" />
  <path
     fill="#800a00"
     d="m 454.15,0 c -18.8,26.84 -35,48.42 -53.5,65.9 -24.3,23.1 -64.36834,34.58681 -106.06834,45.18681 -9.3,2.4 -9.18681,7.05708 -10.88681,11.85708 -1.8,4.9 -1.04293,15.01318 1.95707,20.21318 3,5.2 10.88489,13.51319 17.58489,14.91319 6.8,1.4 20.38441,4.05611 31.58441,-3.24389 C 370.12122,131.52637 400.85,98.2 422.85,69.3 438.65,48.55 449.65,25.89 454.15,0 Z M 0,0.1 c 4.51,25.85 15.43,48.49 31.22,69.2 21.96,28.9 52.044629,61.71223 87.54463,85.01223 11,7.3 21.18537,5.92925 27.78537,4.52925 6.8,-1.4 15.19904,-6.62829 18.19904,-11.82829 2.9,-5.2 6.07074,-15.05612 4.37074,-19.95612 -1.9,-4.8 -4.00048,-11.51366 -13.30048,-13.91366 C 114.1193,102.54341 77.65,89 53.4,65.9 34.92,48.42 18.75,26.87 0,0.06 Z m 227.05,99 c -24,0 -43.4,2.1 -59,6.2 5.5,4.1 9.5,9.4 11.8,15.2 3.8,10.4 2.3,21.9 -2.9,31.2 -5.4,9.4 -14.6,17.1 -26.6,19.6 -11.4,2.4 -24.9,-0.1 -38.8,-8.7 -2.4,11.2 -3.5,24.3 -3.5,39.5 0,47.2 6.1,69.5 12.5,86.9 5.1,14.6 11.1,26.9 12.9,45.6 l 45.2,7.9 c -2.1,-2 -4.1,-4 -6.1,-6 l -2.5,-2.7 v -3.7 c 0,-5.5 1.5,-10.8 4.5,-14.8 3.3,-4 7.5,-6.4 11.6,-7.7 5.3,-1.8 10.5,-2.2 15.9,-2.4 v -16.3 c -1.7,1.8 -3.6,3.6 -5.6,5.2 -4.8,3.8 -10.4,7 -17.4,7 -19.5,0 -31.5,-12.9 -36.4,-24.3 -3.2,-7.9 -4.2,-15.4 -4.6,-19.4 -3.7,-1.7 -7.5,-3.4 -11,-5.2 l 8,-16.2 c 15.5,7.8 34.9,15.4 51,17.2 8,0.8 15.1,0.3 20.5,-1.8 5.5,-2 9.4,-5.2 12.4,-11.3 l 8.1,-16.1 8.1,16.1 c 3,6.1 6.9,9.3 12.2,11.3 5.5,2.1 12.7,2.6 20.7,1.8 16.1,-1.8 35.5,-9.4 51,-17.2 l 8,16.2 c -3.5,1.8 -7.4,3.5 -11.2,5.2 -0.2,4 -1.2,11.5 -4.5,19.4 -5,11.4 -16.8,24.3 -36.3,24.3 -7,0 -12.7,-3.2 -17.4,-7 -2,-1.6 -4,-3.4 -5.6,-5.2 v 16.3 c 5.3,0.2 10.6,0.6 15.8,2.4 4.2,1.3 8.3,3.7 11.5,7.7 3.2,4 4.7,9.3 4.7,14.8 v 3.7 l -2.7,2.7 -6,6 45.3,-7.9 c 1.7,-18.7 7.7,-31 12.9,-45.6 6.3,-17.4 12.5,-39.7 12.5,-86.9 0,-15.2 -1.2,-28.3 -3.7,-39.5 -13.7,8.6 -27.2,11.1 -38.7,8.7 -12,-2.5 -21.3,-10.2 -26.5,-19.6 -5.3,-9.3 -6.8,-20.8 -3,-31.2 2.2,-5.8 6.2,-11.1 11.7,-15.2 -15.5,-4.1 -35,-6.2 -58.8,-6.2 z m -25,21.7 17.9,2.6 c -4.6,30.1 -16.6,52.9 -34.4,66.5 -18,13.5 -41,17.2 -64.9,10.9 l 4.7,-17.4 c 19.5,5.1 36.1,2.2 49.2,-7.8 13.3,-10.1 23.5,-28 27.5,-54.8 z m 49.8,0 c 4,26.8 14.3,44.7 27.5,54.8 13.3,10 29.8,12.9 49.3,7.8 l 4.7,17.4 c -23.8,6.3 -47,2.6 -64.8,-10.9 -17.9,-13.6 -29.9,-36.4 -34.4,-66.5 z M 66.31,180.2 c -0.14,12.3 -0.33,23.9 0.82,33.6 1.47,12.5 4.79,22.1 12.62,29.9 6.1,6.2 9,14.2 11.7,23 2.7,8.8 4.7,18.5 6.7,27.4 2,9 4,17.2 6.1,22.4 0.9,2.4 1.8,3.8 2.3,4.4 3.8,-0.3 7.8,-1.8 11.3,-4.5 -2.1,-6.6 -4.9,-13 -7.9,-21.2 -6.6,-18.1 -13.2,-43.1 -13.6,-89.6 -3.2,-3.8 -6.3,-7.6 -9.4,-11 -6.6,-7 -12.59,-12.2 -20.64,-14.4 z m 321.44,0 c -8.1,2.2 -14.1,7.4 -20.8,14.4 -3,3.4 -6.2,7.2 -9.3,11 -0.4,46.5 -7,71.5 -13.5,89.6 -3,8.2 -5.9,14.6 -7.9,21.2 3.5,2.7 7.5,4.2 11.2,4.5 0.5,-0.6 1.3,-2 2.3,-4.4 2,-5.2 4,-13.4 6,-22.4 2,-8.9 4,-18.5 6.7,-27.4 2.8,-8.8 5.7,-16.8 11.8,-23 7.9,-7.8 11.2,-17.4 12.7,-29.9 1,-9.7 0.8,-21.3 0.8,-33.6 z M 227.05,259 c -2.2,2.2 -4.5,4.1 -7,5.7 v 58.4 h -9 c -8,0 -15.5,0.3 -19.2,1.5 -1.8,0.7 -2.7,1.3 -2.9,1.8 -0.1,0.1 -0.3,0.3 -0.4,0.5 6.9,6.8 13.6,13.3 19.9,18 7.1,5.4 13.6,8.2 18.6,8.2 5,0 11.3,-2.8 18.6,-8.2 6.2,-4.7 13,-11.2 19.7,-18 0,-0.2 -0.2,-0.4 -0.2,-0.5 -0.3,-0.5 -1.1,-1.1 -3,-1.8 -3.8,-1.2 -11.1,-1.5 -19.1,-1.5 h -9 v -58.4 c -2.5,-1.6 -4.9,-3.5 -7,-5.7 z m -73.97518,4.96346 c 0.3,8.3 16.74614,25.58057 20.94614,25.58057 3.5,0 21.16441,-10.07846 22.16441,-16.67846 -5.1,-0.8 -38.01055,-7.40211 -43.11055,-8.90211 z m 143.92301,-0.85779 c -5.2,1.5 -31.69421,8.86192 -36.89421,9.66192 1,6.6 17.24638,14.39012 20.94638,14.39012 4.1,0 15.54783,-15.75204 15.94783,-24.05204 z M 134.05,343.6 c 0,11.49548 10.12448,29.10772 11.32681,31.86144 1.9,-3.3 10.56921,-22.98216 11.36921,-26.18216 C 148.89087,345.92743 143.03506,348.24432 134.05,343.6 Z m 186,0 -23.8783,3.48073 c 0.8,3.2 12.13479,25.27331 14.03479,28.57331 C 314.10253,365.31636 320.05,354.90681 320.05,343.6 Z m -151.7,16.5 c -2.7,0.1 -5.3,0.6 -7.9,1.4 -4.5,15.3 -15.4,28.5 -27.9,40 -0.1,0.1 -0.4,0.3 -0.5,0.4 3.1,-1.7 6.4,-3.3 9.4,-5.2 15.6,-9.8 29.1,-21.9 37.7,-32.5 -3.6,-3.2 -6.6,-3.9 -9.7,-4.1 z m 116.3,0 c -3.1,0.2 -6.3,0.9 -9.8,4.1 8.7,10.6 22,22.7 37.8,32.5 3,1.9 6.2,3.5 9.2,5.2 0,-0.1 -0.2,-0.3 -0.5,-0.4 -12.5,-11.5 -23.2,-24.7 -27.7,-40 -2.8,-0.8 -5.3,-1.3 -8,-1.4 z m -83.2,4.6 -3,4.3 c -2.4,3.3 -5,6.7 -8,10.1 h 73.2 c -3,-3.4 -5.8,-6.8 -8,-10.1 l -3,-4.3 -6.3,1.1 c -6,3.2 -12.3,5.3 -19.3,5.3 -7,0 -13.5,-2.1 -19.5,-5.3 z m -32.9214,24.03101 c -2.9,2.4 -7.47379,4.65436 -10.77379,6.95436 8.4,10.4 22.69519,27.91463 28.69519,36.71463 l 0.1,0.1 v 0.1 c 5,7.7 22.4,14.4 40.5,14.4 18.1,0 35.5,-6.6 40.5,-14.1 6.1,-9.1 18.1845,-26.71463 26.4845,-37.21463 -3.2,-2.3 -9.00197,-5.29126 -11.90197,-7.69126 L 256.6393,414.06398 253.15,424.9 c 0,0 -17,-11.40589 -26.1,-11.40589 -9.2,0 -26.2,11.40589 -26.2,11.40589 l -1.2786,-8.62532 z M 196.05,397.1 l 6.9,9.1 c 5.6,-1 14.7,-2.6 24.1,-2.6 9.3,0 18.5,1.6 24.1,2.6 l 6.7,-9.1 z"
     id="path1"
     sodipodi:nodetypes="ccccsccccccccccccccscccccscccccscccccscccccccccccccccsccccsscccccscccccscccccccccccccccccscccccccccccccccccccccccsccccsccccsccccsccccsccccccccccccccccccccccccccccccccscccccccscccccscccccsccc" />
</svg>
