<?xml version="1.0" encoding="UTF-8" standalone="no"?>
<!-- Uploaded to: SVG Repo, www.svgrepo.com, Generator: SVG Repo Mixer Tools -->

<svg
   fill="#800a00"
   height="800px"
   width="800px"
   version="1.1"
   id="Layer_1"
   viewBox="0 0 512 512"
   xml:space="preserve"
   sodipodi:docname="evil clown.svg"
   inkscape:version="1.4.2 (ebf0e940, 2025-05-08)"
   xmlns:inkscape="http://www.inkscape.org/namespaces/inkscape"
   xmlns:sodipodi="http://sodipodi.sourceforge.net/DTD/sodipodi-0.dtd"
   xmlns="http://www.w3.org/2000/svg"
   xmlns:svg="http://www.w3.org/2000/svg"><defs
   id="defs8" /><sodipodi:namedview
   id="namedview8"
   pagecolor="#ffffff"
   bordercolor="#000000"
   borderopacity="0.25"
   inkscape:showpageshadow="2"
   inkscape:pageopacity="0.0"
   inkscape:pagecheckerboard="0"
   inkscape:deskcolor="#d1d1d1"
   inkscape:zoom="0.68609417"
   inkscape:cx="550.21601"
   inkscape:cy="475.15343"
   inkscape:window-width="1712"
   inkscape:window-height="971"
   inkscape:window-x="0"
   inkscape:window-y="39"
   inkscape:window-maximized="1"
   inkscape:current-layer="Layer_1" />

<g
   id="g4"
   style="fill:#800900;fill-opacity:1">
	<g
   id="g3"
   style="fill:#800900;fill-opacity:1">
		<path
   d="m 512,139.57 c 0,-15.8 -6.949,-30.828 -18.614,-41.146 6.493,-9.172 9.989,-20.088 9.989,-31.57 0,-30.226 -24.597,-54.817 -54.83,-54.817 -30.226,0 -54.816,24.59 -54.816,54.817 0,0.216 0.001,0.433 0.003,0.649 -12.852,2.782 -24.218,10.11 -32.104,20.592 -28.35,-24.526 -65.286,-39.38 -105.627,-39.38 -40.342,0 -77.279,14.857 -105.63,39.384 -7.883,-10.481 -19.246,-17.811 -32.092,-20.594 0.002,-0.217 0.003,-0.433 0.003,-0.65 0,-30.226 -24.596,-54.817 -54.83,-54.817 -30.234,0 -54.829,24.59 -54.829,54.816 0,11.482 3.495,22.399 9.991,31.572 C 6.951,108.749 0,123.777 0,139.57 c 0,21.827 13.177,41.555 32.791,50.196 -0.006,0.328 -0.009,0.656 -0.009,0.982 0,30.233 24.596,54.829 54.829,54.829 2.266,0 4.518,-0.142 6.747,-0.417 v 1.984 c -20.608,8.832 -34.517,29.466 -34.517,52.266 0,23.037 14.166,43.818 35.104,52.511 4.057,48.115 29.466,92.167 69.732,119.784 0.287,0.208 0.581,0.408 0.873,0.604 l 0.292,0.198 c 26.689,17.963 57.866,27.457 90.161,27.457 32.297,0 63.473,-9.495 90.161,-27.457 0.018,-0.013 0.037,-0.025 0.055,-0.038 l 0.237,-0.16 c 0.292,-0.196 0.587,-0.399 0.875,-0.607 40.267,-27.617 65.675,-71.67 69.731,-119.785 20.934,-8.694 35.097,-29.473 35.097,-52.507 0,-22.797 -13.907,-43.43 -34.511,-52.264 v -1.986 c 2.232,0.275 4.484,0.417 6.753,0.417 30.226,0 54.816,-24.596 54.816,-54.829 0,-0.325 -0.002,-0.651 -0.008,-0.978 C 498.82,181.133 512,161.401 512,139.57 Z M 94.357,332.107 C 83.8,324.852 77.07,312.668 77.07,299.41 c 0,-13.244 6.733,-25.437 17.287,-32.694 z m 323.292,-65.386 c 10.55,7.257 17.281,19.448 17.281,32.69 0,13.255 -6.728,25.438 -17.281,32.692 z m -17.228,71.597 h -0.002 c 0,47.685 -23.524,92.261 -62.929,119.242 -0.085,0.057 -0.168,0.117 -0.25,0.178 -0.133,0.098 -0.272,0.188 -0.408,0.28 l -0.287,0.194 c -23.835,16.042 -51.686,24.521 -80.541,24.521 -28.855,0 -56.707,-8.479 -80.486,-24.484 l -0.339,-0.23 c -0.139,-0.094 -0.28,-0.186 -0.417,-0.287 -0.08,-0.059 -0.162,-0.117 -0.245,-0.173 -39.404,-26.981 -62.929,-71.556 -62.929,-119.242 V 210.36 c 0,-79.631 64.785,-144.417 144.417,-144.417 79.632,0 144.417,64.785 144.417,144.417 v 127.958 z"
   id="path1"
   sodipodi:nodetypes="scsssccsccssscscssccsccccscccccsccsscscscccsccccccccsccscsssscc"
   style="fill:#800900;fill-opacity:1" /><path
   d="M358.468,182.225l-4.962-2.127c-10.012-4.29-21.457-2.085-29.159,5.617l-29.352,29.35c-3.608,3.609-9.48,3.609-13.088,0    c-3.366-3.364-8.818-3.363-12.184,0c-3.364,3.364-3.363,8.819,0,12.184c5.163,5.162,11.945,7.743,18.726,7.743    s13.564-2.581,18.727-7.744l29.352-29.352c2.691-2.69,6.691-3.462,10.189-1.962l4.961,2.127c4.373,1.873,9.437-0.15,11.313-4.523    C364.866,189.165,362.841,184.101,358.468,182.225z"
   id="path6"
   style="fill:#800900;fill-opacity:1" /><path
   d="M242.281,215.065c-3.364-3.363-8.819-3.364-12.184,0c-3.608,3.608-9.479,3.609-13.088,0l-29.35-29.352    c-7.702-7.702-19.147-9.905-29.161-5.616l-4.961,2.127c-4.373,1.875-6.398,6.94-4.523,11.313c1.876,4.374,6.94,6.398,11.313,4.525    l4.96-2.127c3.499-1.498,7.498-0.729,10.19,1.962l29.352,29.352c5.163,5.162,11.945,7.743,18.726,7.743s13.563-2.581,18.727-7.743    C245.645,223.884,245.645,218.429,242.281,215.065z"
   id="path4"
   style="fill:#800900;fill-opacity:1" /><path
   d="m 353.183,356.629 h -46.571 c 2.837,-6.629 4.413,-13.923 4.413,-21.579 0,-5.308 -0.771,-10.437 -2.18,-15.297 5.015,1.527 10.225,2.318 15.455,2.318 11.714,0 23.5,-3.878 33.263,-11.843 22.514,-18.368 25.886,-51.627 7.518,-74.141 -1.445,-1.77 -3.533,-2.895 -5.806,-3.125 -2.272,-0.229 -4.544,0.451 -6.314,1.895 l -66.599,54.336 c -8.708,-5.783 -19.143,-9.164 -30.358,-9.164 -11.215,0 -21.65,3.379 -30.358,9.164 l -66.599,-54.336 c -3.687,-3.007 -9.113,-2.457 -12.122,1.229 -18.368,22.514 -14.996,55.773 7.518,74.141 9.765,7.966 21.548,11.843 33.263,11.843 5.23,0 10.44,-0.791 15.456,-2.318 -1.409,4.86 -2.18,9.99 -2.18,15.298 0,7.656 1.576,14.95 4.413,21.579 h -46.577 c -2.763,0 -5.358,1.326 -6.978,3.564 -1.621,2.238 -2.069,5.117 -1.205,7.742 14.998,45.611 57.343,76.255 105.37,76.255 48.021,0 90.361,-30.645 105.36,-76.255 0.863,-2.625 0.415,-5.504 -1.205,-7.742 -1.619,-2.238 -4.215,-3.564 -6.977,-3.564 z m -33.689,-72.23 8.154,7.033 c 1.628,1.404 3.63,2.092 5.623,2.092 2.418,0 4.823,-1.013 6.528,-2.988 3.108,-3.603 2.706,-9.043 -0.896,-12.15 l -5.851,-5.047 23.313,-19.021 c 2.717,5.757 3.83,12.163 3.17,18.66 -0.956,9.425 -5.525,17.913 -12.865,23.901 -7.34,5.989 -16.573,8.764 -25.997,7.804 -6.497,-0.658 -12.549,-3.035 -17.643,-6.851 z m -154.159,12.48 c -7.34,-5.988 -11.909,-14.476 -12.865,-23.901 -0.658,-6.497 0.455,-12.903 3.17,-18.66 l 23.313,19.021 -5.854,5.045 c -3.603,3.106 -4.008,8.546 -0.902,12.15 1.703,1.977 4.11,2.991 6.53,2.991 1.992,0 3.994,-0.687 5.62,-2.089 l 8.162,-7.036 16.457,13.427 c -12.728,9.497 -30.78,9.537 -43.631,-0.948 z m 19.161,96.976 c -5.091,-6.016 -9.464,-12.713 -12.951,-19.995 h 12.956 z m 31.445,24.139 c -4.986,-2.354 -9.743,-5.139 -14.219,-8.319 l 0.008,-35.815 h 14.211 v 44.134 z m 31.444,8.562 c -4.839,-0.442 -9.589,-1.244 -14.215,-2.399 v -39.065 c 4.454,2.041 9.221,3.513 14.215,4.302 z m 31.444,-2.4 c -4.626,1.156 -9.375,1.958 -14.215,2.4 v -37.162 c 4.993,-0.789 9.76,-2.259 14.215,-4.299 z m 31.451,-14.48 c -4.477,3.181 -9.234,5.965 -14.22,8.32 V 373.86 h 14.22 z m 17.229,-15.826 v -19.99 h 12.946 c -3.487,7.28 -7.858,13.976 -12.946,19.99 z"
   id="path2"
   sodipodi:nodetypes="scscscccccsccccscscsccsccsccscscccccccccccccsccccccccsccccsccccccccccccccccccc"
   style="fill:#800900;fill-opacity:1" />
	</g>
</g>


</svg>
