<?xml version="1.0" encoding="UTF-8" standalone="no"?>
<!-- Uploaded to: SVG Repo, www.svgrepo.com, Generator: SVG Repo Mixer Tools -->

<svg
   width="800px"
   height="800px"
   viewBox="0 0 512 512"
   version="1.1"
   id="svg1"
   sodipodi:docname="eyeball-svgrepo-com.svg"
   inkscape:version="1.4.2 (ebf0e940, 2025-05-08)"
   xmlns:inkscape="http://www.inkscape.org/namespaces/inkscape"
   xmlns:sodipodi="http://sodipodi.sourceforge.net/DTD/sodipodi-0.dtd"
   xmlns="http://www.w3.org/2000/svg"
   xmlns:svg="http://www.w3.org/2000/svg">
  <defs
     id="defs1" />
  <sodipodi:namedview
     id="namedview1"
     pagecolor="#ffffff"
     bordercolor="#000000"
     borderopacity="0.25"
     inkscape:showpageshadow="2"
     inkscape:pageopacity="0.0"
     inkscape:pagecheckerboard="0"
     inkscape:deskcolor="#d1d1d1"
     inkscape:zoom="0.85945295"
     inkscape:cx="445.05054"
     inkscape:cy="480.53823"
     inkscape:window-width="1712"
     inkscape:window-height="971"
     inkscape:window-x="0"
     inkscape:window-y="39"
     inkscape:window-maximized="1"
     inkscape:current-layer="svg1" />
  <path
     id="path2"
     style="fill:#800900;fill-opacity:1;stroke-width:1.27399;stroke-linecap:round"
     d="m 363.1592,213.88719 c -21.54011,-5e-5 -41.85332,3.89148 -60.20683,11.07506 -18.35351,7.18358 -49.84693,16.81439 -172.20117,-73.72221 -19.56378,-14.47632 99.04247,133.5784 91.45899,151.53206 -7.58348,17.95366 -11.74165,38.00031 -11.7417,59.54042 -2.2e-4,86.16072 66.05613,150.79549 152.21686,150.7953 86.16044,-2.1e-4 149.37321,-58.94866 149.37302,-145.1091 -2.1e-4,-86.16016 -62.73901,-154.11134 -148.89917,-154.11153 z m -1.5378,8.73574 h 0.001 c 6.38994,-0.0359 12.80429,0.37813 19.19893,1.24377 l 17.09512,17.22522 -5.4139,-15.12656 c 13.31561,2.99268 26.41481,8.01962 38.86538,15.20816 66.11406,38.17145 88.72245,122.54912 50.551,188.66377 -38.17145,66.11406 -122.54912,88.72467 -188.66377,50.55321 -9.52552,-5.4996 -18.14188,-11.96305 -25.81028,-19.18863 l 16.49412,-7.79925 -24.04975,0.0926 c -8.36232,-9.22442 -15.33798,-19.44444 -20.84111,-30.33545 l 8.33291,-9.35542 23.69691,7.21191 -9.6693,-8.98861 12.61552,-14.55467 -20.05457,7.639 -7.27439,-6.7613 -12.60817,13.85045 c -8.92451,-22.28363 -11.99436,-46.75312 -8.55417,-70.89152 l 9.48553,4.61486 v 31.47704 l 28.84911,-10.99098 h -17.85961 v -15.14126 l 10.64696,5.18087 28.85059,-12.70593 -28.85059,0.34108 -29.03141,-14.06657 c 3.00679,-13.11802 7.9936,-26.02022 15.07805,-38.29201 2.00178,-3.46666 4.13043,-6.81188 6.37685,-10.03684 l 8.6049,28.3963 40.18264,-7.89995 -32.28343,-4.80818 -8.15429,-26.49832 c 7.33438,-8.58166 15.58129,-16.09555 24.50992,-22.47961 l 3.56589,14.63479 31.59539,5.49623 10.30441,20.94916 1.37314,-29.88117 -34.34534,-6.18059 -2.74628,-11.3791 c 12.54642,-7.45376 26.16283,-12.84604 40.29585,-16.02925 l 13.28224,18.47928 28.50583,6.86937 -21.63794,-16.485 -8.20795,-11.01156 c 5.09854,-0.68745 10.24222,-1.09234 15.40663,-1.20701 0.76331,-0.0165 1.52677,-0.0282 2.29125,-0.0324 z m 47.67757,74.17 c -0.82977,-0.009 -1.66012,-0.006 -2.49047,0.0118 -29.22518,0.6016 -58.53108,17.67701 -75.27336,46.6705 -24.35304,42.17384 -13.577,94.75721 25.02668,117.04084 38.60309,22.28305 89.53693,5.32054 113.8888,-36.84977 24.35364,-42.17384 13.57642,-94.75721 -25.02668,-117.04084 -11.30971,-6.52755 -23.67735,-9.68841 -36.12497,-9.83249 z m -0.34696,10.97922 0.003,5.9e-4 c 0.67216,0.007 1.343,0.0259 2.01339,0.0529 l 10.97628,1.39005 c 6.22234,1.34314 12.27841,3.63352 17.98678,6.92964 3.37668,1.94826 6.5052,4.18115 9.38555,6.65104 l 7.82203,8.033 c 7.20853,8.86453 12.00172,19.62572 14.11876,31.23887 l 1.19378,11.20195 c 0.31873,9.45848 -1.05852,19.23539 -4.26349,28.82559 l -4.1422,10.17945 c -0.95502,1.98237 -1.98987,3.9499 -3.11308,5.89464 -3.19967,5.54077 -6.89435,10.56933 -10.96966,15.06334 l -8.06314,7.7869 c -6.54284,5.52254 -13.74681,9.87291 -21.27995,12.94557 l -11.02259,3.52546 c -12.58817,2.96562 -25.61401,2.46988 -37.66351,-1.89946 l -10.08535,-4.7185 c -12.31061,-7.16854 -21.3664,-18.07131 -26.71958,-30.87942 l -3.43578,-10.4404 c -3.73776,-15.13803 -2.8017,-32.0188 3.42475,-48.17595 l 4.60016,-10.00009 c 0.43282,-0.80506 0.87387,-1.60733 1.33491,-2.40593 6.4711,-11.20738 14.95853,-20.33434 24.55402,-27.12534 l 9.38776,-5.71822 c 10.09124,-5.23086 20.98342,-8.10063 31.80857,-8.34173 0.71685,-0.0159 1.43297,-0.0216 2.14865,-0.014 z m 9.28338,44.59315 -5.9e-4,0.001 c -0.34931,-0.004 -0.69833,-2.9e-4 -1.04823,0.007 -12.30178,0.28639 -24.87672,7.50036 -32.26873,20.27436 -10.7534,18.57999 -5.8226,40.71661 10.07286,49.87106 15.89428,9.15444 37.60867,2.33609 48.36266,-16.2439 4.94859,-8.5505 6.56871,-17.85372 5.33377,-26.29837 -2.36815,8.79161 -8.4714,15.05232 -15.62936,15.05232 -9.21325,0 -16.68127,-10.36866 -16.68127,-23.1603 0,-7.87363 2.83067,-14.82532 7.15531,-19.01001 -1.74597,-0.31285 -3.5162,-0.47869 -5.29628,-0.49398 z"
     sodipodi:nodetypes="sssssssscscccccsccccccccccccccccccccccccccccccccccccccccscccccccccccccccccccccccccccccccccccccccccsscccccc" />
</svg>
