<?xml version="1.0" encoding="UTF-8" standalone="no"?>
<!-- Uploaded to: SVG Repo, www.svgrepo.com, Generator: SVG Repo Mixer Tools -->

<svg
   width="734.3736"
   height="615.94855"
   viewBox="0 0 469.9991 394.20707"
   version="1.1"
   id="svg1"
   sodipodi:docname="fangs.svg"
   inkscape:version="1.4.2 (ebf0e940, 2025-05-08)"
   xmlns:inkscape="http://www.inkscape.org/namespaces/inkscape"
   xmlns:sodipodi="http://sodipodi.sourceforge.net/DTD/sodipodi-0.dtd"
   xmlns="http://www.w3.org/2000/svg"
   xmlns:svg="http://www.w3.org/2000/svg">
  <defs
     id="defs1" />
  <sodipodi:namedview
     id="namedview1"
     pagecolor="#ffffff"
     bordercolor="#000000"
     borderopacity="0.25"
     inkscape:showpageshadow="2"
     inkscape:pageopacity="0.0"
     inkscape:pagecheckerboard="0"
     inkscape:deskcolor="#d1d1d1"
     inkscape:zoom="0.0325"
     inkscape:cx="353.84615"
     inkscape:cy="307.69231"
     inkscape:window-width="896"
     inkscape:window-height="245"
     inkscape:window-x="0"
     inkscape:window-y="39"
     inkscape:window-maximized="0"
     inkscape:current-layer="svg1" />
  <path
     fill="#800a00"
     d="m 148.5702,47.224052 c -1.882,-14.48 -28.184,-30.424 -41.092,-30.424 -2.54,0 -4.56,0.612 -5.773,1.974 -21.810002,24.385 14.225,81.261998 14.225,81.261998 0,0 35.746,-28.784998 32.64,-52.811998 z m 128.832,60.523998 c 0,0 34.315,-54.185998 13.544,-77.359998 -1.155,-1.292 -3.083,-1.88 -5.496,-1.88 -12.308,0 -37.352,15.183 -39.142,28.98 -2.967,22.78 31.094,50.259998 31.094,50.259998 z m -53.724,-50.351998 c -1.79,-13.798 -26.845,-28.98 -39.14,-28.98 -2.414,0 -4.343,0.588 -5.497,1.88 -20.782,23.22 13.544,77.359998 13.544,77.359998 0,0 34.06,-27.386998 31.094,-50.259998 z M 37.128198,5.195868e-5 a 16.546,16.546 0 0 0 -1.664,0.08000000132 c -87.75,8.93700004 11.373,286.05599804 40.55,304.48399804 0,0 -16.984,-151.636 2.795,-244.235998 7.238,-34.107 -24.006,-60.32800004132 -41.683,-60.32800004132 z M 434.5222,0.08005196 A 16.465,16.465 0 0 0 432.8592,5.195868e-5 c -17.678,0 -48.968,26.19800004132 -41.682,60.32800004132 19.778,92.599998 2.794,244.235998 2.794,244.235998 29.223,-18.416 128.312,-295.534998 40.55,-304.48299804 z M 362.5092,16.800052 c -12.92,0 -39.258,15.945 -41.094,30.424 -3.106,23.97 32.652,52.822998 32.652,52.822998 0,0 36.024,-56.887998 14.225,-81.259998 -1.224,-1.375 -3.244,-1.987 -5.784,-1.987 z m -148.3,348.979998 c -2.032,-11.37 -25.598,-35.353 -25.598,-35.353 0,0 -20.54,23.97 -20.32,33.727 0,2.147 -1.155,23.092 2.03,26 2.876,2.645 12.84,4.043 22.62,4.043 9.468,0 18.75,-1.305 21.268,-4.042 2.31,-2.47 0.335,-22.733 0,-24.373 z m -60.04,-24.35 c -12.065,-20.69 -19.155,-51.01 -23.092,-73.733 -3.094,-17.966 -4.19,-31.174 -4.19,-31.174 -15.127,11.81 -44.292002,137.675 2.54,137.675 a 30.02,30.02 0 0 0 4.952,-0.428 c 4.62,-0.762 10.46,-4.295 15.01,-9.236 5.935,-6.43 9.456,-15.17 4.78,-23.103 z m 188.85,-104.93 c 0,0 -1.006,12.03 -3.777,28.738 -3.81,22.965 -10.98,54.74 -23.485,76.204 -3.764,6.466 -2.136,13.417 1.744,19.236 4.618,6.86 12.308,12.135 18.035,13.082 a 30.124,30.124 0 0 0 4.953,0.427 c 46.912,-0.046 17.677,-125.91 2.563,-137.734 z m -41.406,127.7 c 0.22,-9.757 -20.32,-33.726 -20.32,-33.726 0,0 -23.532,23.935 -25.518,35.307 -0.254,1.444 -2.563,21.592 0,24.386 2.564,2.794 11.812,4.04 21.268,4.04 9.78,0 19.744,-1.396 22.62,-4.04 4.387,-4.088 1.962,-25.286 1.985,-26.002 z m -143.726,5.496 0.243,0.115 v -0.44 z"
     class="cls-2"
     id="path1" />
</svg>
