<?xml version="1.0" encoding="utf-8"?>
<svg xmlns="http://www.w3.org/2000/svg" viewBox="39.421 5.864 555.053 390.843" width="555.053px" height="390.843px"><g id="object-0"><path fill="#800a00" d="M 211.8 28.341 L 165.09 41.277 C 200.41 141.619 247.213 236.667 296.743 338.577 L 430.159 352.224 C 429.774 318.644 425.651 277.306 414.732 239.181 C 448.622 189.487 475.339 128.172 507.216 62.978 L 468.358 35.208 C 445.345 90.47 422.033 146.292 386.37 199.037 C 377.365 210.178 295.153 208 287.358 200.851 C 257.427 138.115 229.134 88.266 211.8 28.341 L 211.8 28.341 Z M 327.255 70.964 C 325.979 70.954 324.704 71.034 323.44 71.203 C 313.29 72.563 304.428 79.588 298.23 91.4 C 292.03 103.212 289.031 119.507 291.364 136.925 C 293.697 154.345 300.879 169.275 309.968 179.039 C 319.056 188.803 329.455 193.248 339.605 191.889 C 349.755 190.529 358.615 183.504 364.814 171.693 C 371.012 159.881 374.01 143.586 371.677 126.168 C 369.344 108.748 362.166 93.818 353.077 84.054 C 345.125 75.511 336.169 71.038 327.255 70.964 L 327.255 70.964 Z M 237.513 248.878 L 120.533 357.304 L 140.312 359.341 L 503.342 396.707 L 594.474 253.181 L 436.423 249.658 C 438.003 255.676 439.367 261.709 440.577 267.753 L 562.179 270.464 L 494.112 377.662 L 161.937 343.47 L 244.777 266.685 C 242.32 260.751 239.897 254.815 237.513 248.878 L 237.513 248.878 Z" style="stroke-width: 1;"/><path style="stroke: rgb(0, 0, 0);" d="M 123.866 355.765 L 39.421 95.674 L 197.272 5.864 L 200.607 23.761 L 154.138 33.627 L 238.008 251.368"/></g></svg>