<?xml version="1.0" encoding="UTF-8" standalone="no"?>
<svg
   viewBox="39.421 5.864 555.053 390.843"
   width="555.053px"
   height="390.843px"
   version="1.1"
   id="svg2"
   sodipodi:docname="hatch.svg"
   inkscape:version="1.4.2 (ebf0e940, 2025-05-08)"
   xmlns:inkscape="http://www.inkscape.org/namespaces/inkscape"
   xmlns:sodipodi="http://sodipodi.sourceforge.net/DTD/sodipodi-0.dtd"
   xmlns="http://www.w3.org/2000/svg"
   xmlns:svg="http://www.w3.org/2000/svg">
  <defs
     id="defs2">
    <inkscape:path-effect
       effect="fillet_chamfer"
       id="path-effect2"
       is_visible="true"
       lpeversion="1"
       nodesatellites_param="F,0,1,1,0,10.526349,0,1 @ F,0,1,1,0,10.526349,0,1 @ F,0,1,1,0,10.526349,0,1 @ F,0,1,1,0,10.526349,0,1 @ F,0,1,1,0,10.526349,0,1 @ F,0,1,1,0,10.526349,0,1 @ F,0,1,1,0,10.526349,0,1 @ F,0,1,1,0,10.526349,0,1 @ F,0,1,1,0,10.526349,0,1 | F,0,1,1,0,10.526349,0,1 @ F,0,1,1,0,10.526349,0,1 @ F,0,1,1,0,10.526349,0,1 @ F,0,1,1,0,10.526349,0,1 @ F,0,1,1,0,10.526349,0,1 @ F,0,1,1,0,10.526349,0,1 @ F,0,1,1,0,10.526349,0,1 @ F,0,1,1,0,10.526349,0,1 @ F,0,1,1,0,10.526349,0,1 | F,0,1,1,0,10.526349,0,1 @ F,0,1,1,0,10.526349,0,1 @ F,0,1,1,0,10.526349,0,1 @ F,0,1,1,0,10.526349,0,1 @ F,0,1,1,0,10.526349,0,1 @ F,0,1,1,0,10.526349,0,1 @ F,0,1,1,0,10.526349,0,1 @ F,0,1,1,0,10.526349,0,1 @ F,0,1,1,0,10.526349,0,1 @ F,0,0,1,0,0,0,1 @ F,0,0,1,0,10.526349,0,1 @ F,0,1,1,0,10.526349,0,1"
       radius="0"
       unit="px"
       method="auto"
       mode="F"
       chamfer_steps="1"
       flexible="false"
       use_knot_distance="true"
       apply_no_radius="true"
       apply_with_radius="true"
       only_selected="false"
       hide_knots="false" />
    <inkscape:path-effect
       effect="fillet_chamfer"
       id="path-effect1"
       is_visible="true"
       lpeversion="1"
       nodesatellites_param="F,0,1,1,0,0,0,1 @ F,0,0,1,0,9.9178898,0,1 @ F,0,1,1,0,9.9178898,0,1 @ F,0,1,1,0,9.9178898,0,1 @ F,0,1,1,0,9.9178898,0,1 @ F,0,1,1,0,0,0,1"
       radius="0"
       unit="px"
       method="auto"
       mode="F"
       chamfer_steps="1"
       flexible="false"
       use_knot_distance="true"
       apply_no_radius="true"
       apply_with_radius="true"
       only_selected="false"
       hide_knots="false" />
  </defs>
  <sodipodi:namedview
     id="namedview2"
     pagecolor="#ffffff"
     bordercolor="#000000"
     borderopacity="0.25"
     inkscape:showpageshadow="2"
     inkscape:pageopacity="0.0"
     inkscape:pagecheckerboard="0"
     inkscape:deskcolor="#d1d1d1"
     inkscape:zoom="1.2375427"
     inkscape:cx="336.55404"
     inkscape:cy="154.33811"
     inkscape:window-width="1712"
     inkscape:window-height="971"
     inkscape:window-x="0"
     inkscape:window-y="39"
     inkscape:window-maximized="1"
     inkscape:current-layer="svg2" />
  <path
     fill="#800a00"
     d="m 201.65549,31.150449 -26.42098,7.317102 c -5.60266,1.551616 -8.5835,7.25631 -6.61114,12.725032 33.75902,93.603157 77.32465,182.919867 123.51729,277.917627 2.5422,5.22817 9.29068,9.94636 15.07405,10.53793 l 112.47258,11.50472 c 5.78337,0.59157 10.42912,-3.64217 10.2334,-9.45229 -0.95586,-28.3755 -4.56628,-61.10084 -12.45374,-92.35519 -1.42247,-5.63657 -0.0705,-14.05259 3.0936,-18.92949 29.57282,-45.58109 53.99082,-100.08033 82.05018,-157.975941 2.53471,-5.229923 0.77097,-12.202146 -3.95888,-15.58235 l -21.7297,-15.529198 c -4.72985,-3.380204 -10.37432,-1.769098 -12.61372,3.595821 -20.45979,49.015413 -41.70867,98.303258 -72.13207,145.333008 -3.15758,4.88111 -9.65079,11.78588 -15.2159,13.1559 -19.15277,4.71505 -60.28685,4.10824 -79.67505,0.65232 -5.67359,-1.01131 -11.95495,-7.46886 -14.48642,-12.70229 -26.54326,-54.87418 -51.40358,-100.414452 -67.9542,-152.946414 -1.74685,-5.544541 -7.58664,-8.817913 -13.1893,-7.266297 z M 323.44,71.203 c -13.35649,5.292598 -16.54986,8.002167 -19.4171,11.431798 -3.72177,4.451777 -8.05135,12.945428 -9.82898,18.473012 -2.42612,7.54407 -3.74419,16.16691 -3.61012,25.32598 0.085,5.80951 1.34151,15.19084 2.78823,20.81799 2.281,8.8721 5.8219,16.84399 10.14764,23.48358 3.16957,4.86497 9.5817,11.91989 14.34397,15.23511 3.6688,2.55401 7.46277,4.32757 11.29749,5.29443 5.60293,1.41268 15.32178,0.11099 20.35525,-2.72671 3.44447,-1.94186 6.63727,-4.65115 9.50422,-8.0803 3.72186,-4.45172 8.05127,-12.94541 9.82832,-18.47319 2.4252,-7.54396 3.74269,-16.16662 3.6084,-25.3255 -0.0852,-5.80951 -1.34163,-15.19081 -2.78794,-20.81806 -2.28026,-8.87193 -5.81966,-16.843682 -10.14448,-23.483184 -3.16912,-4.865256 -9.58139,-11.920037 -14.34351,-15.235479 -2.50284,-1.742504 -5.06394,-3.12189 -7.65645,-4.12972 C 332.13625,70.89793 325.53249,70.92323 323.44,71.203 Z m -93.83293,184.62484 -105.04774,92.34404 a 5.0693252,5.0693252 74.397094 0 0 2.45691,8.79795 l 2.93292,0.52306 a 284.68244,284.68244 7.9942432 0 0 20.83387,2.92587 l 342.08794,35.21048 a 17.022638,17.022638 154.1451 0 0 16.11343,-7.8086 l 79.8472,-125.75328 a 5.9527854,5.9527854 61.902269 0 0 -4.88085,-9.14189 l -147.57823,-3.5835 c -5.81183,-0.14112 -9.28835,4.2935 -7.91553,9.94254 1.09362,4.50018 6.54365,8.28977 12.35569,8.42183 l 110.84269,2.51854 a 5.9418886,5.9418886 61.857883 0 1 4.88114,9.12542 l -56.78202,89.4254 a 17.022724,17.022724 154.14555 0 1 -16.11351,7.80848 l -243.22422,-25.03597 -68.00874,-7.00039 a 4.7530753,4.7530753 71.575853 0 1 -2.7382,-8.21978 l 68.44392,-63.21412 c 4.27072,-3.9444 5.78198,-11.4349 3.06967,-16.57425 -2.18995,-4.14958 -7.21001,-4.55012 -11.57634,-0.71183 z"
     style="fill:#800a00;fill-opacity:1;stroke-width:1"
     id="path1"
     inkscape:path-effect="#path-effect2"
     inkscape:original-d="m 211.8,28.341 -46.71,12.936 c 35.32,100.342 82.123,195.39 131.653,297.3 l 133.416,13.647 c -0.385,-33.58 -4.508,-74.918 -15.427,-113.043 33.89,-49.694 60.607,-111.009 92.484,-176.203 L 468.358,35.208 C 445.345,90.47 422.033,146.292 386.37,199.037 377.365,210.178 295.153,208 287.358,200.851 257.427,138.115 229.134,88.266 211.8,28.341 Z m 115.455,42.623 c -1.276,-0.01 -2.551,0.07 -3.815,0.239 -10.15,1.36 -19.012,8.385 -25.21,20.197 -6.2,11.812 -9.199,28.107 -6.866,45.525 2.333,17.42 9.515,32.35 18.604,42.114 9.088,9.764 19.487,14.209 29.637,12.85 10.15,-1.36 19.01,-8.385 25.209,-20.196 6.198,-11.812 9.196,-28.107 6.863,-45.525 -2.333,-17.42 -9.511,-32.35 -18.6,-42.114 -7.952,-8.543 -16.908,-13.016 -25.822,-13.09 z m -89.742,177.914 -120.8596,106.24372 23.6586,4.21928 363.03,37.366 91.132,-143.526 -168.62473,-4.09455 c 1.58,6.018 3.22978,12.33677 4.43978,18.38077 L 562.179,270.464 494.112,377.662 240.41676,351.54821 161.937,343.47 245.84656,265.97196 c -2.457,-5.934 -5.94956,-11.15696 -8.33356,-17.09396 z"
     sodipodi:nodetypes="ccccccccccccccccccccccccccccccccc" />
  <path
     style="fill:#800a00;fill-opacity:1;stroke:none"
     d="M 123.866,355.765 42.483707,105.10715 A 12.171501,12.171501 111.1874 0 1 48.041313,90.769436 L 188.65169,10.768564 a 7.0636289,7.0636289 24.903221 0 1 10.43717,4.845489 10.611479,10.611479 124.55798 0 1 -7.85138,11.399112 l -27.42213,9.51823 a 9.4613142,9.4613142 114.50845 0 0 -5.67972,12.458135 l 83.97235,209.50887"
     id="path2"
     inkscape:path-effect="#path-effect1"
     inkscape:original-d="M 123.866,355.765 39.421,95.674 197.272,5.864 l 3.335,17.897 -46.16117,16.02256 87.66215,218.71484"
     sodipodi:nodetypes="cccccc" />
</svg>
