<?xml version="1.0" encoding="UTF-8" standalone="no"?>
<svg
   viewBox="39.421 5.864 555.053 390.843"
   width="555.053px"
   height="390.843px"
   version="1.1"
   id="svg2"
   sodipodi:docname="hatch.svg"
   inkscape:version="1.4.2 (ebf0e940, 2025-05-08)"
   xmlns:inkscape="http://www.inkscape.org/namespaces/inkscape"
   xmlns:sodipodi="http://sodipodi.sourceforge.net/DTD/sodipodi-0.dtd"
   xmlns="http://www.w3.org/2000/svg"
   xmlns:svg="http://www.w3.org/2000/svg">
  <defs
     id="defs2" />
  <sodipodi:namedview
     id="namedview2"
     pagecolor="#ffffff"
     bordercolor="#000000"
     borderopacity="0.25"
     inkscape:showpageshadow="2"
     inkscape:pageopacity="0.0"
     inkscape:pagecheckerboard="0"
     inkscape:deskcolor="#d1d1d1"
     inkscape:zoom="0.79582595"
     inkscape:cx="297.17553"
     inkscape:cy="250.05468"
     inkscape:window-width="1712"
     inkscape:window-height="971"
     inkscape:window-x="0"
     inkscape:window-y="39"
     inkscape:window-maximized="1"
     inkscape:current-layer="svg2" />
  <path
     fill="#800a00"
     d="m 211.8,28.341 -46.71,12.936 c 35.32,100.342 82.123,195.39 131.653,297.3 l 133.416,13.647 c -0.385,-33.58 -4.508,-74.918 -15.427,-113.043 33.89,-49.694 60.607,-111.009 92.484,-176.203 L 468.358,35.208 C 445.345,90.47 422.033,146.292 386.37,199.037 377.365,210.178 295.153,208 287.358,200.851 257.427,138.115 229.134,88.266 211.8,28.341 Z m 115.455,42.623 c -1.276,-0.01 -2.551,0.07 -3.815,0.239 -10.15,1.36 -19.012,8.385 -25.21,20.197 -6.2,11.812 -9.199,28.107 -6.866,45.525 2.333,17.42 9.515,32.35 18.604,42.114 9.088,9.764 19.487,14.209 29.637,12.85 10.15,-1.36 19.01,-8.385 25.209,-20.196 6.198,-11.812 9.196,-28.107 6.863,-45.525 -2.333,-17.42 -9.511,-32.35 -18.6,-42.114 -7.952,-8.543 -16.908,-13.016 -25.822,-13.09 z m -89.742,177.914 -116.98,108.426 19.779,2.037 363.03,37.366 91.132,-143.526 -158.051,-3.523 c 1.58,6.018 2.944,12.051 4.154,18.095 l 121.602,2.711 -68.067,107.198 -332.175,-34.192 82.84,-76.785 c -2.457,-5.934 -4.88,-11.87 -7.264,-17.807 z"
     style="stroke-width:1;fill:#800a00;fill-opacity:1"
     id="path1" />
  <path
     style="stroke:#000000;fill:#800a00;fill-opacity:1"
     d="M 123.866,355.765 39.421,95.674 197.272,5.864 l 3.335,17.897 -46.469,9.866 83.87,217.741"
     id="path2" />
</svg>
