<?xml version="1.0" encoding="UTF-8" standalone="no"?>
<!-- Uploaded to: SVG Repo, www.svgrepo.com, Generator: SVG Repo Mixer Tools -->

<svg
   height="800.00159"
   width="669.81091"
   version="1.1"
   id="_x32_"
   viewBox="0 0 428.67898 512.00102"
   xml:space="preserve"
   sodipodi:docname="hockey mask.svg"
   inkscape:version="1.4.2 (ebf0e940, 2025-05-08)"
   xmlns:inkscape="http://www.inkscape.org/namespaces/inkscape"
   xmlns:sodipodi="http://sodipodi.sourceforge.net/DTD/sodipodi-0.dtd"
   xmlns="http://www.w3.org/2000/svg"
   xmlns:svg="http://www.w3.org/2000/svg"><defs
   id="defs15" /><sodipodi:namedview
   id="namedview15"
   pagecolor="#ffffff"
   bordercolor="#000000"
   borderopacity="0.25"
   inkscape:showpageshadow="2"
   inkscape:pageopacity="0.0"
   inkscape:pagecheckerboard="0"
   inkscape:deskcolor="#d1d1d1"
   inkscape:zoom="0.2434501"
   inkscape:cx="264.94136"
   inkscape:cy="616.14269"
   inkscape:window-width="896"
   inkscape:window-height="245"
   inkscape:window-x="0"
   inkscape:window-y="39"
   inkscape:window-maximized="0"
   inkscape:current-layer="_x32_" />
<style
   type="text/css"
   id="style1">
	.st0{fill:#800a00000000000000;}
</style>
<g
   id="g15"
   style="fill:#800a00;fill-opacity:1"
   transform="translate(-41.661)">
	<path
   class="st0"
   d="m 455.097,261.156 c 0.517,-7.944 0.792,-15.904 0.792,-23.864 C 455.857,181.989 443.072,126.364 411.262,83.378 395.374,61.921 374.636,43.779 348.792,30.986 327.496,20.439 302.618,13.796 274.474,11.347 V 0 h -48.437 v 11.581 c -23.372,2.708 -44.376,9.133 -62.879,18.652 -37.668,19.308 -64.66,51.052 -81.955,87.944 -17.335,36.949 -25.271,79.175 -25.286,120.981 0,7.354 0.29,14.685 0.779,21.998 H 41.661 v 45.249 h 20.98 c 9.944,55.036 27.376,103.315 55.564,139.731 11.012,14.191 23.828,26.402 38.266,36.423 5.71,4.187 20.58,12.204 24.972,14.102 18.115,8.535 46.679,15.355 74.512,15.34 27.833,0.008 52.647,-4.785 74.621,-13.941 7.597,-3.273 22.006,-11.008 24.972,-13.06 24.713,-16.074 44.464,-38.913 59.432,-67.231 16.366,-30.92 27.462,-68.281 34.606,-111.364 h 20.754 v -45.249 z m -25.077,0 h -13.796 v 45.249 h 8.058 c -9.577,55.246 -26.064,98.66 -50.187,128.498 -13.787,17.092 -29.958,29.918 -49.322,38.686 -19.351,8.736 -42.016,13.431 -68.818,13.439 -26.588,-0.024 -49.087,-5.31 -68.447,-14.854 C 158.532,457.845 136.134,433.673 119.013,401.12 105.04,374.508 94.885,342.326 88.056,306.404 H 95.77 V 261.155 H 81.709 C 81.179,253.866 80.905,246.511 80.905,239.157 80.856,187.605 94.187,135.9 121.939,98.005 135.811,79.029 153.198,63.424 174.57,52.449 189.573,44.755 206.723,39.47 226.038,36.908 v 8.332 h 48.437 v -8.898 c 24.438,2.376 45.455,8.235 63.23,17.028 33.248,16.512 56.2,42.752 71.312,74.997 15.081,32.172 21.91,70.302 21.893,108.924 -0.001,7.953 -0.332,15.921 -0.89,23.865 z"
   id="path1"
   style="fill:#800a00;fill-opacity:1" />
	<path
   class="st0"
   d="m 193.395,221.362 c -30.823,-4.735 -61.383,6.724 -64.001,26.266 -3.281,24.592 5.608,48.95 24.616,54.146 36.08,9.82 73.825,-16.43 73.825,-47.608 0.001,-24.658 -13.128,-29.514 -34.44,-32.804 z"
   id="path2"
   style="fill:#800a00;fill-opacity:1" />
	<path
   class="st0"
   d="m 320.689,221.362 c -21.335,3.29 -34.44,8.146 -34.44,32.803 0,31.179 37.749,57.428 73.825,47.608 19.007,-5.196 27.898,-29.554 24.616,-54.146 -2.585,-19.541 -33.15,-31 -64.001,-26.265 z"
   id="path3"
   style="fill:#800a00;fill-opacity:1" />
	<polygon
   class="st0"
   points="255.737,218.073 308.247,190.191 203.219,190.191 "
   id="polygon3"
   style="fill:#800a00;fill-opacity:1" />
	<path
   class="st0"
   d="m 259.835,315.714 c -6.805,0 -12.304,5.504 -12.304,12.3 0,6.789 5.499,12.308 12.304,12.308 6.789,0 12.308,-5.519 12.308,-12.308 0,-6.796 -5.52,-12.3 -12.308,-12.3 z"
   id="path4"
   style="fill:#800a00;fill-opacity:1" />
	<path
   class="st0"
   d="m 226.195,358.369 c -6.319,0 -11.488,5.14 -11.488,11.492 0,6.352 5.169,11.476 11.488,11.476 6.344,0 11.488,-5.123 11.488,-11.476 0,-6.352 -5.144,-11.492 -11.488,-11.492 z"
   id="path5"
   style="fill:#800a00;fill-opacity:1" />
	<path
   class="st0"
   d="m 226.195,410.875 c -6.319,0 -11.488,5.132 -11.488,11.492 0,6.344 5.169,11.476 11.488,11.476 6.344,0 11.488,-5.132 11.488,-11.476 0,-6.36 -5.144,-11.492 -11.488,-11.492 z"
   id="path6"
   style="fill:#800a00;fill-opacity:1" />
	<path
   class="st0"
   d="m 296.763,358.369 c -6.344,0 -11.492,5.14 -11.492,11.492 0,6.352 5.148,11.476 11.492,11.476 6.34,0 11.484,-5.123 11.484,-11.476 0,-6.352 -5.144,-11.492 -11.484,-11.492 z"
   id="path7"
   style="fill:#800a00;fill-opacity:1" />
	<path
   class="st0"
   d="m 296.763,410.875 c -6.344,0 -11.492,5.132 -11.492,11.492 0,6.344 5.148,11.476 11.492,11.476 6.34,0 11.484,-5.132 11.484,-11.476 0,-6.36 -5.144,-11.492 -11.484,-11.492 z"
   id="path8"
   style="fill:#800a00;fill-opacity:1" />
	<path
   class="st0"
   d="m 219.633,164.742 c 6.804,0 12.328,-5.486 12.328,-12.275 0,-6.822 -5.524,-12.333 -12.328,-12.333 -6.789,0 -12.288,5.512 -12.288,12.333 0,6.789 5.499,12.275 12.288,12.275 z"
   id="path9"
   style="fill:#800a00;fill-opacity:1" />
	<path
   class="st0"
   d="m 169.822,126.25 c 0,6.788 5.5,12.284 12.284,12.284 6.808,0 12.328,-5.496 12.328,-12.284 0,-6.813 -5.52,-12.333 -12.328,-12.333 -6.784,0.001 -12.284,5.52 -12.284,12.333 z"
   id="path10"
   style="fill:#800a00;fill-opacity:1" />
	<path
   class="st0"
   d="m 285.271,164.742 c 6.809,0 12.312,-5.486 12.312,-12.275 0,-6.822 -5.503,-12.333 -12.312,-12.333 -6.805,0 -12.304,5.512 -12.304,12.333 0,6.789 5.499,12.275 12.304,12.275 z"
   id="path11"
   style="fill:#800a00;fill-opacity:1" />
	<path
   class="st0"
   d="m 318.386,139.949 c 6.808,0 12.304,-5.488 12.304,-12.276 0,-6.813 -5.496,-12.333 -12.304,-12.333 -6.809,0 -12.308,5.52 -12.308,12.333 -10e-4,6.789 5.499,12.276 12.308,12.276 z"
   id="path12"
   style="fill:#800a00;fill-opacity:1" />
	<path
   class="st0"
   d="m 173.592,97.366 c 6.804,0 12.332,-5.486 12.332,-12.276 0,-6.812 -5.528,-12.332 -12.332,-12.332 -6.788,0 -12.288,5.52 -12.288,12.332 0,6.79 5.5,12.276 12.288,12.276 z"
   id="path13"
   style="fill:#800a00;fill-opacity:1" />
	<path
   class="st0"
   d="m 324.063,91.694 c 6.805,0 12.308,-5.488 12.308,-12.276 0,-6.82 -5.503,-12.332 -12.308,-12.332 -6.812,0 -12.312,5.512 -12.312,12.332 0,6.788 5.499,12.276 12.312,12.276 z"
   id="path14"
   style="fill:#800a00;fill-opacity:1" />
	<polygon
   class="st0"
   points="147.448,387.075 170.42,413.324 203.219,328.014 "
   id="polygon14"
   style="fill:#800a00;fill-opacity:1" />
	<polygon
   class="st0"
   points="319.719,328.014 352.542,413.324 375.51,387.075 "
   id="polygon15"
   style="fill:#800a00;fill-opacity:1" />
</g>
</svg>
