<?xml version="1.0" encoding="iso-8859-1"?>
<!-- Uploaded to: SVG Repo, www.svgrepo.com, Generator: SVG Repo Mixer Tools -->
<svg fill="#800a00" height="800px" width="800px" version="1.1" id="Layer_1" xmlns="http://www.w3.org/2000/svg" xmlns:xlink="http://www.w3.org/1999/xlink" 
	 viewBox="0 0 512.003 512.003" xml:space="preserve">
<g>
	<g>
		<path d="M438.997,163.09l0.553-1.111c4.71-9.448,4.205-20.449-1.352-29.426c-5.556-8.977-15.176-14.337-25.734-14.337H326.82
			c-11.553,0-21.931,6.423-27.085,16.762l-13.777,27.639h-62.974c-5.51,0-10.662,2.735-13.749,7.301
			c-2.331,3.449-3.251,7.601-2.679,11.63h-6.246c-5.804,0-10.905,2.984-13.871,7.495h-24.088c-2.967-4.512-8.068-7.495-13.871-7.495
			h-13.234c-5.804,0-10.905,2.984-13.871,7.495H97.291c-2.966-4.512-8.067-7.495-13.871-7.495H70.186
			c-6.119,0-11.451,3.321-14.329,8.249c-9.313,1.455-17.95,4.973-25.43,10.07c-6.698-3.121-14.899-1.481-19.811,4.489
			c-3.828,4.653-6.958,9.818-9.3,15.353c-2.663,6.29-1.145,13.299,3.292,17.942c-1.021,4.475-1.578,9.124-1.578,13.904
			c0,4.817,0.565,9.5,1.602,14.007c-4.434,4.651-5.942,11.665-3.268,17.954c2.351,5.529,5.493,10.69,9.336,15.339
			c3.283,3.971,8.024,6.025,12.803,6.025c2.391,0,4.79-0.522,7.023-1.568c7.487,5.081,16.126,8.582,25.439,10.019
			c2.881,4.917,8.207,8.23,14.317,8.23h13.234c5.804,0,10.905-2.984,13.871-7.495h24.087c2.966,4.512,8.067,7.495,13.871,7.495
			h13.234c5.804,0,10.905-2.984,13.871-7.495h24.087c2.967,4.512,8.068,7.495,13.871,7.495h13.234
			c5.804,0,10.905-2.984,13.871-7.495h24.087c2.677,4.071,7.093,6.889,12.192,7.404c3.03,2.905,7.111,4.625,11.482,4.625h81.153
			l20.308,39.321c-5,4.969-6.449,12.789-3.042,19.385c2.948,5.71,8.749,8.985,14.761,8.985c2.564,0,5.166-0.596,7.602-1.853
			l19.321-9.978c8.144-4.206,11.337-14.219,7.13-22.362c-3.157-6.112-9.582-9.435-16.035-8.935l-12.684-24.56h36.476
			c45.07,0,81.738-36.667,81.738-81.738C512,202.237,479.974,167.466,438.997,163.09z M65.541,280.871
			c-16.165,0-29.316-13.151-29.316-29.316c0-16.165,13.151-29.316,29.316-29.316h156.828l23.531,58.631H65.541z M402.142,162.617
			h-79.093l5.587-11.207h79.091L402.142,162.617z M431.235,280.294v-71.875c21.158,0,35.938,16.09,35.938,35.938
			C467.173,264.204,452.394,280.294,431.235,280.294z"/>
	</g>
</g>
<g>
	<g>
		<circle cx="72.298" cy="251.552" r="16.897"/>
	</g>
</g>
</svg>