<?xml version="1.0" encoding="UTF-8" standalone="no"?>
<!-- Uploaded to: SVG Repo, www.svgrepo.com, Generator: SVG Repo Mixer Tools -->

<svg
   fill="#800a00"
   height="800px"
   width="800px"
   version="1.1"
   id="Capa_1"
   viewBox="0 0 465 465"
   xml:space="preserve"
   sodipodi:docname="pentagram.svg"
   inkscape:version="1.4.2 (ebf0e940, 2025-05-08)"
   xmlns:inkscape="http://www.inkscape.org/namespaces/inkscape"
   xmlns:sodipodi="http://sodipodi.sourceforge.net/DTD/sodipodi-0.dtd"
   xmlns="http://www.w3.org/2000/svg"
   xmlns:svg="http://www.w3.org/2000/svg"><defs
   id="defs3" /><sodipodi:namedview
   id="namedview3"
   pagecolor="#ffffff"
   bordercolor="#000000"
   borderopacity="0.25"
   inkscape:showpageshadow="2"
   inkscape:pageopacity="0.0"
   inkscape:pagecheckerboard="0"
   inkscape:deskcolor="#d1d1d1"
   inkscape:zoom="0.52209207"
   inkscape:cx="-85.234009"
   inkscape:cy="296.8825"
   inkscape:window-width="1712"
   inkscape:window-height="971"
   inkscape:window-x="0"
   inkscape:window-y="39"
   inkscape:window-maximized="1"
   inkscape:current-layer="g3" />
<g
   id="g3">
	<path
   d="M396.902,68.098C352.989,24.185,294.603,0,232.5,0S112.011,24.185,68.098,68.098C24.184,112.012,0,170.397,0,232.5   s24.184,120.488,68.098,164.402C112.011,440.815,170.397,465,232.5,465s120.489-24.185,164.402-68.098   C440.816,352.988,465,294.603,465,232.5S440.816,112.012,396.902,68.098z M232.5,450C112.57,450,15,352.43,15,232.5   S112.57,15,232.5,15S450,112.57,450,232.5S352.43,450,232.5,450z"
   id="path1" />
	<path
   d="M 412.439,300.259 H 287.35 c -0.116,-0.002 -0.231,-0.002 -0.347,0 h -31.253 -0.066 -40.869 l -4.874,-15 h 55.417 c 0.008,0 0.017,0.002 0.025,0.002 0.008,0 0.016,-0.002 0.025,-0.002 h 31.494 c 0.008,0 0.017,0.002 0.025,0.002 0.008,0 0.016,-0.002 0.025,-0.002 h 74.839 c 3.249,0 6.129,-2.092 7.133,-5.183 1.004,-3.09 -0.096,-6.476 -2.725,-8.385 l -60.611,-44.037 c -0.016,-0.012 -0.032,-0.023 -0.049,-0.035 l -25.473,-18.507 c -0.015,-0.011 -0.03,-0.022 -0.046,-0.033 l -53.015,-38.518 c -0.02,-0.015 -0.041,-0.03 -0.062,-0.045 L 211.485,152.02 c -0.02,-0.015 -0.041,-0.03 -0.061,-0.044 l -60.603,-44.031 c -2.628,-1.91 -6.188,-1.91 -8.816,0 -2.629,1.909 -3.729,5.295 -2.725,8.385 l 21.451,66.019 -12.76,9.271 -35.502,-109.266 c -0.775,-2.388 -2.694,-4.229 -5.111,-4.905 -2.419,-0.678 -5.013,-0.1 -6.915,1.539 C 55.675,117.532 30,173.484 30,232.5 c 0,15.714 1.816,31.391 5.397,46.595 0.576,2.443 2.336,4.438 4.689,5.312 0.848,0.314 1.731,0.469 2.61,0.469 1.562,0 3.109,-0.488 4.409,-1.433 l 101.186,-73.516 c 0.1,-0.068 0.197,-0.14 0.292,-0.213 l 25.221,-18.324 c 0.07,-0.048 0.137,-0.099 0.205,-0.148 l 32.97,-23.954 12.76,9.271 -44.758,32.52 c -0.018,0.013 -0.036,0.025 -0.054,0.039 l -25.467,18.503 -0.051,0.036 -60.61,44.036 c -2.629,1.909 -3.729,5.295 -2.725,8.385 1.004,3.091 3.884,5.183 7.133,5.183 h 69.417 c 5.14796,10.62933 6.61428,15.15623 5.80847,15.15515 L 52.561,300.261 c -2.509998,-0.003 -4.854,1.256 -6.244,3.346 -1.39,2.089 -1.643,4.736 -0.674,7.051 14.166,33.829 37.326,63.24 66.979,85.054 30.214,22.228 65.93,35.579 103.287,38.61 0.203,0.017 0.405,0.024 0.607,0.024 2.282,0 4.455,-1.042 5.883,-2.85 1.555,-1.968 2.023,-4.583 1.249,-6.968 L 175.243,275.552 c -0.006,-0.02 -0.013,-0.039 -0.019,-0.059 l -12.631,-38.874 12.76,-9.271 17.093,52.608 c 0.009,0.029 0.019,0.059 0.028,0.088 l 9.724,29.927 c 0.005,0.017 0.011,0.032 0.016,0.049 l 23.153,71.257 c 1.004,3.091 3.884,5.183 7.133,5.183 3.249,0 6.129,-2.092 7.133,-5.183 l 21.45,-66.018 h 15.772 l -35.503,109.268 c -0.775,2.385 -0.307,5 1.249,6.968 1.429,1.808 3.601,2.85 5.883,2.85 0.202,0 0.405,-0.008 0.607,-0.024 37.357,-3.031 73.073,-16.383 103.287,-38.61 29.652,-21.813 52.813,-51.225 66.979,-85.054 0.969,-2.314 0.716,-4.962 -0.674,-7.051 -1.391,-2.091 -3.734,-3.347 -6.244,-3.347 z m -110.032,-63.64 -10.93,33.64 h -15.772 l 13.943,-42.911 z"
   id="path2"
   sodipodi:nodetypes="sccccccsssssssccccccccccccccccccsccscccccccccccccscssccccscccccccccccscccccsccscsccccc" />
	<path
   d="m 364.557,78.988 c -1.902,-1.638 -4.499,-2.216 -6.915,-1.539 -2.417,0.677 -4.336,2.518 -5.111,4.905 l -35.502,109.264 -12.76,-9.271 21.451,-66.019 c 1.004,-3.09 -0.096,-6.476 -2.725,-8.385 -2.628,-1.91 -6.188,-1.91 -8.816,0 l -56.158,40.802 c -44.00758,-33.73747 -40.8854,-24.50046 -28.1565,-3.6395 2.434,3.352 7.125,4.096 10.476,1.659 L 338.231,71.928 c 2.029,-1.474 3.188,-3.865 3.085,-6.371 -0.102,-2.506 -1.449,-4.796 -3.591,-6.101 C 306.101,40.186 269.714,30 232.5,30 c -37.214,0 -73.601,10.186 -105.225,29.456 -2.142,1.305 -3.489,3.595 -3.591,6.101 -0.102,2.506 1.056,4.897 3.085,6.371 l 126.84,92.155 c 0.001,0 0.001,0.001 0.001,0.001 l 37.433,27.197 c 10e-4,0.001 0.002,0.001 0.004,0.002 l 25.365,18.429 c 0.098,0.075 0.198,0.148 0.3,0.219 l 101.182,73.513 c 1.3,0.944 2.847,1.433 4.409,1.433 0.879,0 1.763,-0.154 2.61,-0.469 2.354,-0.874 4.114,-2.868 4.689,-5.312 C 433.184,263.891 435,248.214 435,232.5 435,173.484 409.325,117.532 364.557,78.988 Z"
   id="path3"
   sodipodi:nodetypes="ccccccccccccccscsccccccccsccsc" />
</g>
</svg>
