<?xml version="1.0" encoding="UTF-8" standalone="no"?>
<!-- Uploaded to: SVG Repo, www.svgrepo.com, Generator: SVG Repo Mixer Tools -->

<svg
   fill="#800a00"
   height="800px"
   width="800px"
   version="1.1"
   id="Layer_1"
   viewBox="0 0 512 512"
   xml:space="preserve"
   sodipodi:docname="photo-murder-svgrepo-com.svg"
   inkscape:version="1.4.2 (ebf0e940, 2025-05-08)"
   xmlns:inkscape="http://www.inkscape.org/namespaces/inkscape"
   xmlns:sodipodi="http://sodipodi.sourceforge.net/DTD/sodipodi-0.dtd"
   xmlns="http://www.w3.org/2000/svg"
   xmlns:svg="http://www.w3.org/2000/svg"><defs
   id="defs8" /><sodipodi:namedview
   id="namedview8"
   pagecolor="#ffffff"
   bordercolor="#000000"
   borderopacity="0.25"
   inkscape:showpageshadow="2"
   inkscape:pageopacity="0.0"
   inkscape:pagecheckerboard="0"
   inkscape:deskcolor="#d1d1d1"
   inkscape:zoom="0.70131885"
   inkscape:cx="193.20741"
   inkscape:cy="333.65708"
   inkscape:window-width="1712"
   inkscape:window-height="971"
   inkscape:window-x="0"
   inkscape:window-y="39"
   inkscape:window-maximized="1"
   inkscape:current-layer="g3" />
<g
   id="g2">
	<g
   id="g1">
		<path
   d="m 393.699,268.644 c -9.475,-12.601 -20.176,-24.28 -31.808,-34.711 -8.126,-7.288 -19.38,-10.202 -30.111,-7.79 l -35.531,7.984 c -5.471,-4.145 -22.001,-21.933 -14.072,-81.215 2.474,-18.497 -6.139,-36.877 -21.946,-46.824 L 211.062,75.142 c -4.982,-3.137 -11.115,-4.111 -16.827,-2.676 -5.711,1.437 -10.655,5.198 -13.56,10.316 l -0.15,0.266 c -5.451,9.602 -3.116,21.488 5.551,28.261 7.907,6.18 19.583,15.605 30.313,25.411 4.261,3.894 6.491,9.436 6.121,15.206 -0.325,5.047 -0.973,9.899 -1.938,14.502 -4.549,-12.043 -6.26853,-19.37699 -13.86453,-29.10599 C 204.27847,134.21301 196.764,124.84 193.431,122.547 L 149.582,92.4 c -5.107,-3.513 -11.501,-4.731 -17.546,-3.339 -6.043,1.39 -11.263,5.279 -14.326,10.676 l -0.143,0.253 c -5.004,8.815 -3.508,19.954 3.639,27.086 8.484,8.468 22.7,22.679 32.182,32.157 5.616,5.615 10.262,12.076 13.807,19.207 11.423,22.967 32.397,63.745 49.815,89.881 -1.165,-0.279 -2.295,-0.568 -3.382,-0.864 -6.226,-1.7 -11.527,-5.925 -14.546,-11.59 -3.292,-6.179 -6.997,-12.212 -11.008,-17.928 -4.647,-6.621 -12.816,-9.028 -20.333,-5.99 -7.504,3.035 -11.701,10.436 -10.44,18.416 1.016,6.446 2.436,12.598 4.216,18.283 6.347,20.262 22.212,36.758 42.442,44.129 18.043,6.575 45.362,12.388 73.021,2.736 1.535,-0.537 2.769,0.003 3.37,0.373 0.609,0.376 1.665,1.253 1.88,2.905 l 1.416,10.865 c 1.62,12.426 9.908,22.897 21.62,27.324 l 0.594,0.226 c 4.09,1.546 8.317,2.309 12.511,2.309 6.632,0 13.181,-1.91 18.971,-5.655 9.434,-6.103 15.235,-16.036 15.92,-27.251 l 0.246,-4.018 c 0.847,-13.857 -6.582,-26.916 -18.928,-33.27 l -10.456,-5.381 c -0.769,-0.396 -1,-1.046 -1.058,-1.521 -0.057,-0.465 0.01,-1.138 0.645,-1.691 5.003,-4.357 9.811,-7.525 13.961,-9.201 6.015,5.261 17.788,14.879 32.472,23.483 7.523,4.406 16.819,2.944 22.613,-3.556 5.78,-6.484 6.167,-15.863 0.942,-22.81 z"
   id="path1"
   sodipodi:nodetypes="ccccsccccccccccccccccccccccccccccccccsccccccscccc" />
	</g>
</g>
<g
   id="g4">
	<g
   id="g3">
		<path
   d="M 469.214,0 H 42.785 c -5.141,0 -9.306,4.167 -9.306,9.306 v 415.748 c 0,5.139 4.165,9.306 9.306,9.306 5.141,0 9.306,-4.167 9.306,-9.306 V 18.612 H 459.909 V 493.389 H 52.091 v -76.995 c 0,-5.139 -4.165,-9.306 -9.306,-9.306 -5.141,0 -9.306,4.167 -9.306,9.306 v 86.301 c 0,5.139 4.165,9.306 9.306,9.306 h 426.43 c 5.141,0 9.306,-4.167 9.306,-9.306 V 9.306 C 478.52,4.167 474.354,0 469.214,0 Z"
   id="path2"
   sodipodi:nodetypes="ssssssccccssssssscs" />
	</g>
</g>
<g
   id="g6">
	<g
   id="g5">
		<path
   d="m 436.653,154.258 c 5.141,0 9.306,-4.167 9.306,-9.306 V 41.865 c 0,-5.139 -4.165,-9.306 -9.306,-9.306 H 75.346 c -5.141,0 -9.306,4.167 -9.306,9.306 v 347.582 c 0,5.139 4.165,9.306 9.306,9.306 h 361.308 c 5.141,0 9.306,-4.167 9.306,-9.306 V 126.052 c 0,-5.139 -4.165,-9.306 -9.306,-9.306 -5.141,0 -9.306,4.167 -9.306,9.306 V 380.143 H 84.651 V 51.172 h 342.696 v 93.781 c 0,5.139 4.167,9.305 9.306,9.305 z"
   id="path4"
   sodipodi:nodetypes="sssssssssssssccccss" />
	</g>
</g>
<g
   id="g8">
	<g
   id="g7">
		<path
   d="M 238.692,417.475 H 75.346 c -5.141,0 -9.306,4.167 -9.306,9.306 0,5.139 4.165,9.306 9.306,9.306 h 163.346 c 5.141,0 9.306,-4.167 9.306,-9.306 0,-5.139 -4.166,-9.306 -9.306,-9.306 z m -77.44,39.68 H 82.386 c -5.141,0 -9.306,4.167 -9.306,9.306 0,5.139 4.165,9.306 9.306,9.306 h 78.866 c 5.141,0 9.306,-4.167 9.306,-9.306 0,-5.139 -4.166,-9.306 -9.306,-9.306 z"
   id="path6"
   sodipodi:nodetypes="ssssssssssssss" />
	</g>
</g>
</svg>
