<?xml version="1.0" encoding="utf-8"?>
<svg xmlns="http://www.w3.org/2000/svg" viewBox="83.0797 301.5172 202.1585 158.8777" width="202.159px" height="158.878px" preserveAspectRatio="none"><g id="object-0"><path fill="#800a00" d="M 191.422 329.024 C 188.933 329.024 187.002 330.95 187.002 333.359 C 187.002 335.767 188.933 337.694 191.422 337.694 C 193.909 337.694 195.84 335.767 195.84 333.359 C 195.84 330.95 193.909 329.024 191.422 329.024 Z M 142.687 337.059 C 144.619 341.694 147.692 342.336 151.79 344.309 C 148.511 350.45 144.999 359.259 139.058 361.66 C 120.12 369.299 110.169 378.723 106.188 390.549 C 102.354 401.964 104.14 416.072 110.08 433.108 C 128.169 434.541 147.342 435.8 156.737 433.927 C 156.357 432.639 155.039 431.732 154.22 431.293 C 145.877 428.424 140.989 428.102 133.292 427.78 L 133.614 424.969 C 134.257 419.233 133.731 412.004 131.359 407.027 C 130.159 404.54 128.579 402.667 126.531 401.525 C 124.481 400.384 121.906 399.856 118.217 400.559 L 117.281 395.349 C 121.232 394.646 125.887 395.174 129.107 396.929 C 132.296 398.715 134.579 401.555 136.101 404.744 C 138.766 410.276 139.35 416.921 138.999 422.833 C 141.926 423.009 144.531 423.302 146.843 423.682 C 152.463 414.696 157.673 406.004 158.405 397.135 C 154.366 395.964 148.922 394.002 148.365 389.993 C 147.575 384.257 149.419 376.821 154.014 373.748 C 153.721 381.885 152.756 386.598 153.342 388.295 C 155.039 391.486 162.21 392.744 165.079 393.388 L 165.079 393.417 C 170.172 394.823 174.415 395.467 175.264 400.91 C 180.592 392.276 171.05 387.739 164.669 384.958 L 164.64 383.261 C 164.552 376.382 166.249 371.729 168.59 367.719 C 170.933 363.738 173.771 360.401 176.465 355.074 L 176.465 355.045 C 173.713 354.664 170.786 355.016 168.532 355.425 C 170.201 349.6 175.322 348.48 179.831 350.712 C 181.557 348.284 183.752 345.201 187.118 341.944 C 183.401 339.196 181.293 335.973 181.821 332.016 C 173.625 331.02 165.02 330.713 158.815 334.896 L 157.644 333.806 C 153.049 328.577 139.819 330.207 142.687 337.059 Z M 162.561 335.838 C 163.732 338.156 166.923 339.628 171.108 339.9 C 168.767 341.801 165.049 343.243 162.239 341.435 C 160.103 340.056 161.157 337.609 162.561 335.838 Z M 102.412 426.491 C 98.138 427.429 91.064 428.541 87.886 431.175 C 85.398 433.341 83.486 436.971 83.147 440.366 C 82.804 443.761 83.729 446.688 86.908 448.795 C 99.66 457.254 112.832 456.289 124.658 452.923 C 136.482 449.528 146.727 443.381 159.605 446.248 C 162.064 446.981 164.201 448.152 163.849 450.903 C 163.732 451.722 163.411 452.308 163.058 452.805 C 160.22 455.967 154.014 457.986 153.224 459.098 C 151.351 461.791 163.234 459.918 166.395 456.874 C 167.625 455.645 168.767 453.069 169 450.639 C 169.235 448.21 168.621 446.161 167.567 445.283 C 164.288 442.474 160.513 440.863 155.918 440.863 C 151.322 440.834 145.966 441.362 140.257 442.766 C 128.814 445.576 115.789 450.815 102.968 448.21 C 97.992 447.215 94.948 446.219 93.084 443.849 C 92.141 442.678 91.799 440.746 92.358 439.341 C 94.539 434.892 100.597 434.131 104.344 433.341 C 103.641 431.233 102.997 428.541 102.412 426.491 Z" style="stroke-width: 1;"/><g id="Capa_1" style="" transform="matrix(0.321021, 0, 0, 0.321021, 126.926964, 312.16391)"><g id="XMLID_313_" transform="matrix(1, 0, 0, 1, 93.583977, -33.165138)"><path id="XMLID_319_" d="M246.463,384.296c-6.044,0-10.958,13.046-10.958,19.089c0,6.029,4.914,10.928,10.958,10.928 c6.044,0,10.958-4.898,10.958-10.928C257.421,397.342,252.507,384.296,246.463,384.296z"/><path id="XMLID_318_" d="M193.401,368.127c0,11.226,9.09,20.315,20.322,20.315c10.221,0,18.611-7.574,20.029-17.419l-29.888-20.541 C197.659,353.947,193.401,360.5,193.401,368.127z"/><path id="XMLID_317_" d="M289.063,350.483l-29.872,20.529c1.404,9.856,9.795,17.431,20.014,17.431 c11.227,0,20.324-9.09,20.324-20.315C299.528,360.5,295.265,353.947,289.063,350.483z"/><path id="XMLID_314_" d="M291.374,221.701V60.313h8.965c7.256,0,13.156-5.899,13.156-13.174V13.174 C313.495,5.9,307.595,0,300.339,0h-107.75c-7.254,0-13.154,5.9-13.154,13.174V47.14c0,7.274,5.9,13.174,13.154,13.174h8.965 v161.388c-62.636,19.185-108.2,77.445-108.2,146.374c0,40.157,15.503,76.648,40.835,103.94 c12.374,13.332,29.744,20.904,47.936,20.904h128.672c18.186,0,35.582-7.572,47.944-20.904 c25.33-27.291,40.824-63.782,40.824-103.94C399.565,299.147,354.001,240.886,291.374,221.701z M296.226,419.236v2.269 c0,13.763-11.133,24.878-24.867,24.878h-49.775c-13.748,0-24.879-11.115-24.879-24.878v-2.269 c-18.199,0-32.934-14.352-32.934-32.088c0-10.061,4.85-18.946,12.311-24.815v-17.017c0-38.865,31.517-70.397,70.382-70.397 c38.868,0,70.384,31.532,70.384,70.397v16.985c7.461,5.9,12.313,14.786,12.313,24.847 C329.159,404.885,314.419,419.236,296.226,419.236z"/></g></g></g></svg>