<?xml version="1.0" encoding="UTF-8" standalone="no"?>
<!-- Uploaded to: SVG Repo, www.svgrepo.com, Generator: SVG Repo Mixer Tools -->

<svg
   version="1.1"
   id="Uploaded to svgrepo.com"
   width="600"
   height="800"
   viewBox="0 0 24 32"
   xml:space="preserve"
   sodipodi:docname="scarecrow.svg"
   inkscape:version="1.4.2 (ebf0e940, 2025-05-08)"
   xmlns:inkscape="http://www.inkscape.org/namespaces/inkscape"
   xmlns:sodipodi="http://sodipodi.sourceforge.net/DTD/sodipodi-0.dtd"
   xmlns="http://www.w3.org/2000/svg"
   xmlns:svg="http://www.w3.org/2000/svg"><defs
   id="defs1" /><sodipodi:namedview
   id="namedview1"
   pagecolor="#ffffff"
   bordercolor="#000000"
   borderopacity="0.25"
   inkscape:showpageshadow="2"
   inkscape:pageopacity="0.0"
   inkscape:pagecheckerboard="0"
   inkscape:deskcolor="#d1d1d1"
   inkscape:zoom="0.38214423"
   inkscape:cx="344.11091"
   inkscape:cy="682.9882"
   inkscape:window-width="896"
   inkscape:window-height="245"
   inkscape:window-x="0"
   inkscape:window-y="39"
   inkscape:window-maximized="0"
   inkscape:current-layer="Uploaded to svgrepo.com" />
<style
   type="text/css"
   id="style1">
	.stone_een{fill:#800a00000000;}
	.st0{fill:#800a00000000;}
</style>
<path
   class="stone_een"
   d="M 4,9 C 4,8.448 4.448,8 5,8 h 7 7 c 0.552,0 1,0.448 1,1 v 1.279 c 0,0.43 -0.275,0.813 -0.684,0.949 L 17,12 v 5 c 0,0.552 -0.448,1 -1,1 H 8 C 7.448,18 7,17.552 7,17 V 12 L 4.684,11.228 C 4.275,11.092 4,10.71 4,10.279 Z m 4,10 v 6 c 0,0.552 0.448,1 1,1 h 2.5 v -4.5 c 0,-0.276 0.224,-0.5 0.5,-0.5 0.276,0 0.5,0.224 0.5,0.5 V 26 H 15 c 0.552,0 1,-0.448 1,-1 V 19 Z M 15,5 V 4 h 1.5 C 16.776,4 17,3.776 17,3.5 17,3.224 16.776,3 16.5,3 H 15 C 15,1.343 13.657,0 12,0 10.343,0 9,1.343 9,3 H 7.5 C 7.224,3 7,3.224 7,3.5 7,3.776 7.224,4 7.5,4 H 9 v 1 c 0,1.657 1.343,3 3,3 1.657,0 3,-1.343 3,-3 z m -5,22 v 4 c 0,0.552 0.448,1 1,1 h 2 c 0.552,0 1,-0.448 1,-1 V 27 Z M 3,9 H 0.5 C 0.224,9 0,9.224 0,9.5 0,9.776 0.224,10 0.5,10 H 3 Z M 23.5,9 H 21 v 1 h 2.5 C 23.776,10 24,9.776 24,9.5 24,9.224 23.776,9 23.5,9 Z"
   id="path1"
   style="fill:#800a00;fill-opacity:1" />
</svg>
