<?xml version="1.0" encoding="UTF-8" standalone="no"?>
<!-- Uploaded to: SVG Repo, www.svgrepo.com, Generator: SVG Repo Mixer Tools -->

<svg
   fill="#800a00"
   height="800"
   width="476.46402"
   version="1.1"
   id="Capa_1"
   viewBox="0 0 121.057 203.259"
   xml:space="preserve"
   sodipodi:docname="scream.svg"
   inkscape:version="1.4.2 (ebf0e940, 2025-05-08)"
   xmlns:inkscape="http://www.inkscape.org/namespaces/inkscape"
   xmlns:sodipodi="http://sodipodi.sourceforge.net/DTD/sodipodi-0.dtd"
   xmlns="http://www.w3.org/2000/svg"
   xmlns:svg="http://www.w3.org/2000/svg"><defs
   id="defs1" /><sodipodi:namedview
   id="namedview1"
   pagecolor="#ffffff"
   bordercolor="#000000"
   borderopacity="0.25"
   inkscape:showpageshadow="2"
   inkscape:pageopacity="0.0"
   inkscape:pagecheckerboard="0"
   inkscape:deskcolor="#d1d1d1"
   inkscape:zoom="0.80429788"
   inkscape:cx="313.93841"
   inkscape:cy="289.69366"
   inkscape:window-width="1712"
   inkscape:window-height="971"
   inkscape:window-x="0"
   inkscape:window-y="39"
   inkscape:window-maximized="1"
   inkscape:current-layer="Capa_1" />
<path
   d="m 60.528,203.259 c -0.53,0 -13.042,-0.101 -18.127,-8.885 -2.966,-5.123 -6.495,-15.417 -9.908,-25.372 -2.004,-5.847 -3.897,-11.369 -5.577,-15.567 -1.641,-4.101 -3.43,-8.805 -5.161,-13.354 -3.038,-7.982 -6.178,-16.236 -8.272,-20.555 -0.697,-1.438 -1.721,-3.188 -2.907,-5.215 C 6.365,107.113 0,96.235 0,84.201 0,75.046 1.566,72.151 3.733,68.144 5.192,65.447 6.845,62.391 8.586,56.258 9.244,53.939 9.807,51.834 10.332,49.872 13.323,38.69 15.128,31.941 25.908,17.028 37.624,0.821 56.238,0 59.851,0 60.178,0 60.407,0.006 60.529,0.011 60.649,0.006 60.879,0 61.206,0 c 3.612,0 22.227,0.821 33.943,17.029 10.781,14.914 12.587,21.664 15.577,32.847 0.525,1.961 1.088,4.065 1.745,6.383 1.74,6.133 3.394,9.189 4.853,11.886 2.167,4.007 3.733,6.902 3.733,16.057 0,12.034 -6.364,22.911 -10.575,30.109 -1.187,2.028 -2.211,3.779 -2.908,5.217 -2.094,4.318 -5.233,12.569 -8.271,20.548 -1.731,4.551 -3.522,9.257 -5.163,13.36 -1.681,4.199 -3.574,9.723 -5.578,15.57 -3.413,9.954 -6.941,20.246 -9.907,25.369 -5.085,8.783 -17.596,8.884 -18.127,8.884 z M 59.851,4 C 56.58,4 39.726,4.741 29.149,19.373 18.801,33.688 17.165,39.804 14.195,50.907 c -0.53,1.98 -1.098,4.104 -1.762,6.444 -1.86,6.557 -3.702,9.961 -5.182,12.697 C 5.293,73.668 4,76.059 4,84.201 c 0,10.951 5.796,20.857 10.029,28.09 1.228,2.1 2.289,3.913 3.054,5.49 2.17,4.477 5.202,12.443 8.411,20.877 1.725,4.533 3.509,9.221 5.137,13.291 1.716,4.291 3.625,9.859 5.646,15.755 3.351,9.773 6.815,19.88 9.586,24.666 3.898,6.733 14.429,6.887 14.666,6.889 0.236,-0.002 10.767,-0.155 14.666,-6.889 2.77,-4.785 6.234,-14.89 9.584,-24.662 2.021,-5.897 3.931,-11.467 5.647,-15.759 1.629,-4.072 3.414,-8.762 5.14,-13.297 3.209,-8.431 6.239,-16.395 8.409,-20.871 0.765,-1.578 1.826,-3.392 3.055,-5.492 4.232,-7.233 10.028,-17.139 10.028,-28.089 0,-8.143 -1.294,-10.534 -3.252,-14.153 -1.479,-2.736 -3.321,-6.141 -5.182,-12.697 -0.664,-2.339 -1.231,-4.462 -1.762,-6.441 C 103.892,39.805 102.257,33.688 91.907,19.372 81.331,4.741 64.477,4 61.206,4 60.852,4 60.651,4.009 60.626,4.01 60.562,4.013 60.492,4.013 60.428,4.01 60.405,4.009 60.204,4 59.851,4 Z m 0.677,192.306 c -0.279,0 -2.819,-0.066 -5.954,-2.357 -3.487,-2.548 -6.187,-6.844 -7.6,-12.095 -1.768,-6.563 -6.023,-30.102 -3.353,-43.864 2.046,-10.549 9.677,-14.308 16.135,-14.308 0.343,0 0.605,0.012 0.771,0.023 0.165,-0.011 0.428,-0.023 0.771,-0.023 6.458,0 14.088,3.759 16.135,14.308 2.67,13.755 -1.585,37.298 -3.352,43.863 -1.414,5.251 -4.113,9.547 -7.602,12.095 -3.132,2.292 -5.671,2.358 -5.951,2.358 z m 5.62,-83.777 v 0 c -0.699,0 -1.369,-0.09 -1.938,-0.261 -1.382,-0.414 -2.713,-1.356 -3.681,-2.173 -0.967,0.817 -2.299,1.759 -3.68,2.173 -0.569,0.171 -1.24,0.261 -1.939,0.261 -2.291,0 -4.374,-0.915 -5.57,-2.448 -0.821,-1.051 -1.647,-2.914 -0.921,-5.818 1.521,-6.086 10.191,-10.828 11.174,-11.349 0.584,-0.31 1.287,-0.31 1.872,0 0.983,0.521 9.653,5.263 11.175,11.349 0.726,2.904 -0.101,4.767 -0.922,5.818 -1.197,1.533 -3.279,2.448 -5.57,2.448 z M 93.9,100.372 v 0 c -3.361,0 -6.934,-1.426 -10.332,-4.123 C 73.65,88.378 66.878,77.548 66.315,68.657 65.823,60.87 66.215,59.639 67.15,57.598 l 0.164,-0.361 c 1.048,-2.359 3.163,-3.229 3.818,-3.448 1.029,-0.426 5.002,-1.411 8.74,4.665 1.126,1.829 1.943,3.604 2.733,5.319 1.636,3.552 3.182,6.908 7.413,10.875 1.661,1.557 3.304,2.945 4.893,4.288 4.79,4.048 8.928,7.543 9.022,12.387 0.042,2.154 -0.875,4.349 -2.515,6.021 -1.913,1.952 -4.584,3.028 -7.518,3.028 z m -66.743,0 c -2.935,0 -5.605,-1.076 -7.521,-3.029 -1.64,-1.672 -2.556,-3.866 -2.514,-6.02 0.095,-4.844 4.232,-8.339 9.022,-12.387 1.589,-1.343 3.231,-2.73 4.893,-4.288 4.231,-3.967 5.777,-7.323 7.414,-10.875 0.79,-1.715 1.607,-3.489 2.732,-5.318 3.739,-6.076 7.71,-5.091 8.741,-4.665 0.655,0.219 2.77,1.089 3.818,3.448 l 0.164,0.361 c 0.911,1.989 1.327,3.29 0.835,11.059 -0.563,8.891 -7.334,19.722 -17.253,27.592 -3.399,2.696 -6.971,4.122 -10.331,4.122 z"
   id="path1"
   sodipodi:nodetypes="sccccccsccccscsccccscccccsssccccscccccccccccscsccccsccsscccscscccssscccsccccccssscccccccccccsscccccccccccs" />
</svg>
