<?xml version="1.0" encoding="UTF-8" standalone="no"?>
<!-- Uploaded to: SVG Repo, www.svgrepo.com, Generator: SVG Repo Mixer Tools -->

<svg
   height="800"
   width="638.52344"
   version="1.1"
   id="_x32_"
   viewBox="0 0 408.655 512"
   xml:space="preserve"
   sodipodi:docname="skull.svg"
   inkscape:version="1.4.2 (ebf0e940, 2025-05-08)"
   xmlns:inkscape="http://www.inkscape.org/namespaces/inkscape"
   xmlns:sodipodi="http://sodipodi.sourceforge.net/DTD/sodipodi-0.dtd"
   xmlns="http://www.w3.org/2000/svg"
   xmlns:svg="http://www.w3.org/2000/svg"><defs
   id="defs1" /><sodipodi:namedview
   id="namedview1"
   pagecolor="#ffffff"
   bordercolor="#000000"
   borderopacity="0.25"
   inkscape:showpageshadow="2"
   inkscape:pageopacity="0.0"
   inkscape:pagecheckerboard="0"
   inkscape:deskcolor="#d1d1d1"
   inkscape:zoom="0.46608784"
   inkscape:cx="404.4302"
   inkscape:cy="377.61122"
   inkscape:window-width="896"
   inkscape:window-height="245"
   inkscape:window-x="0"
   inkscape:window-y="39"
   inkscape:window-maximized="0"
   inkscape:current-layer="_x32_" />
<style
   type="text/css"
   id="style1">
	.st0{fill:#800a00000000000000;}
</style>
<g
   id="g1"
   style="fill:#800a00;fill-opacity:1"
   transform="translate(-51.673)">
	<path
   class="st0"
   d="M 255.991,0 C 112.041,0 51.673,125.376 51.673,204.328 c 0,78.933 0,97.526 0,120.766 0,23.212 37.161,74.294 74.293,51.072 0,0 0,52.244 0,66.179 0,13.925 27.866,69.655 130.025,69.655 102.173,0 130.034,-55.73 130.034,-69.655 0,-13.935 0,-66.179 0,-66.179 37.137,23.222 74.303,-27.861 74.303,-51.072 0,-23.24 0,-41.833 0,-120.766 C 460.327,125.376 399.945,0 255.991,0 Z m -58.333,464.386 h -18.179 c -7.274,0 -13.168,-5.885 -13.168,-13.163 v -28.632 h 31.347 z m 0,-54.559 h -31.347 v -28.613 c 0,-7.279 5.894,-13.182 13.168,-13.182 h 18.179 z M 174.729,286.393 c -28.846,0 -52.24,-23.406 -52.24,-52.262 0,-28.836 23.394,-52.235 52.24,-52.235 28.856,0 52.239,23.398 52.239,52.235 0,28.856 -23.383,52.262 -52.239,52.262 z m 72.268,177.993 h -31.342 v -41.795 h 31.342 z m 0,-54.559 h -31.342 v -41.795 h 31.342 z m 8.994,-89.14 c -7.172,30.528 -37.71,12.578 -28.72,-1.794 l 28.72,-44.89 28.744,44.89 c 8.974,14.372 -21.554,32.322 -28.744,1.794 z m 40.349,143.699 h -31.351 v -41.795 h 31.351 z m 0,-54.559 h -31.351 v -41.795 h 31.351 z m 49.335,41.396 c 0,7.278 -5.885,13.163 -13.163,13.163 h -18.184 v -41.795 h 31.347 z m 0,-41.396 h -31.347 v -41.795 h 18.184 c 7.278,0 13.163,5.903 13.163,13.182 z m -8.409,-123.434 c -28.859,0 -52.239,-23.406 -52.239,-52.262 0,-28.836 23.38,-52.235 52.239,-52.235 28.841,0 52.23,23.398 52.23,52.235 0,28.856 -23.389,52.262 -52.23,52.262 z"
   id="path1"
   style="fill:#800a00;fill-opacity:1" />
</g>
</svg>
