<?xml version="1.0" encoding="UTF-8" standalone="no"?>
<!-- Uploaded to: SVG Repo, www.svgrepo.com, Generator: SVG Repo Mixer Tools -->

<svg
   height="800"
   width="650.99377"
   version="1.1"
   id="_x32_"
   viewBox="0 0 416.63602 512"
   xml:space="preserve"
   sodipodi:docname="vampire.svg"
   inkscape:version="1.4.2 (ebf0e940, 2025-05-08)"
   xmlns:inkscape="http://www.inkscape.org/namespaces/inkscape"
   xmlns:sodipodi="http://sodipodi.sourceforge.net/DTD/sodipodi-0.dtd"
   xmlns="http://www.w3.org/2000/svg"
   xmlns:svg="http://www.w3.org/2000/svg"><defs
   id="defs2" /><sodipodi:namedview
   id="namedview2"
   pagecolor="#ffffff"
   bordercolor="#000000"
   borderopacity="0.25"
   inkscape:showpageshadow="2"
   inkscape:pageopacity="0.0"
   inkscape:pagecheckerboard="0"
   inkscape:deskcolor="#d1d1d1"
   inkscape:zoom="0.34985201"
   inkscape:cx="118.62159"
   inkscape:cy="617.40391"
   inkscape:window-width="896"
   inkscape:window-height="245"
   inkscape:window-x="0"
   inkscape:window-y="39"
   inkscape:window-maximized="0"
   inkscape:current-layer="_x32_" />
<style
   type="text/css"
   id="style1">
	.st0{fill:#800a00000000000000;}
</style>
<g
   id="g2"
   style="fill:#800a00;fill-opacity:1"
   transform="translate(-47.682)">
	<path
   class="st0"
   d="m 217.974,227.766 3.682,9.794 c 0,0 2.431,17.158 13.476,24.522 V 237.56 h 25.773 15.965 v 24.522 c 11.045,-7.364 13.475,-24.522 13.475,-24.522 l 3.682,-9.794 h -33.122 z"
   id="path1"
   style="fill:#800a00;fill-opacity:1" />
	<path
   class="st0"
   d="m 456.365,400.963 c -5.005,-12.814 -12.44,-22.609 -21.062,-29.829 -17.302,-14.353 -75.916,-39.687 -81.878,-41.528 13.915,-16.489 58.392,-35.567 58.392,-35.567 -17.525,-36.085 -49.705,-46.54 -62.224,-49.409 1.107,-3.388 2.064,-6.997 2.87,-10.751 6.191,-2.358 14.288,-6.185 22.242,-14.655 9.866,-10.456 19.66,-27.319 28.865,-56.55 2.064,-6.48 3.092,-11.708 3.092,-16.497 0,-3.61 -0.589,-7.068 -2.359,-10.16 -1.761,-3.164 -4.854,-5.523 -7.946,-6.552 -2.064,-0.741 -4.056,-0.956 -5.968,-0.956 -2.948,0 -15.166,6.45 -17.82,7.191 4.272,-20.178 12.584,-80.72 3.416,-113.655 C 371.245,4.95 361.17,-4.456 332.334,2.095 311.429,6.834 256,12.968 256,12.968 c 0,0 -55.429,-6.134 -76.333,-10.873 -28.837,-6.55 -38.911,2.855 -43.65,19.948 -9.168,32.936 -0.856,93.477 3.416,113.655 -2.654,-0.741 -14.871,-7.191 -17.819,-7.191 -1.913,0 -3.905,0.216 -5.969,0.956 -3.092,1.029 -6.184,3.387 -7.946,6.552 -1.769,3.092 -2.358,6.55 -2.358,10.16 0,4.79 1.028,10.018 3.092,16.497 9.204,29.231 18.999,46.094 28.866,56.55 7.952,8.47 16.05,12.297 22.242,14.655 0.805,3.754 1.762,7.364 2.869,10.751 -12.52,2.869 -44.7,13.324 -62.225,49.409 0,0 44.478,19.078 58.392,35.567 -5.962,1.841 -64.576,27.175 -81.878,41.528 -8.622,7.22 -16.058,17.014 -21.063,29.829 -5.156,12.808 -7.954,28.642 -7.954,48.23 0,3.092 0.072,6.328 0.223,9.644 0.072,2.797 1.1,5.084 2.28,6.924 2.286,3.531 5.378,6.034 9.205,8.687 6.702,4.495 16.05,8.838 27.98,13.11 35.861,12.737 95.288,24.373 168.63,24.444 73.342,-0.071 132.768,-11.707 168.631,-24.442 11.93,-4.272 21.278,-8.615 27.98,-13.11 3.826,-2.653 6.918,-5.156 9.205,-8.687 1.179,-1.841 2.208,-4.127 2.279,-6.924 0.151,-3.315 0.223,-6.552 0.223,-9.644 0,-19.588 -2.797,-35.423 -7.953,-48.23 z m -117.962,-179.31 -0.813,4.638 c -5.155,29.088 -20.106,45.362 -31.151,57.658 l -2.129,2.358 v 37.185 c 0,1.697 0.288,3.315 0.662,4.862 L 256,360.384 207.029,328.355 c 0.374,-1.546 0.661,-3.164 0.661,-4.862 v -37.185 l -2.128,-2.358 C 194.516,271.653 179.566,255.38 174.41,226.292 l -0.813,-4.638 -4.415,-1.546 c -6.63,-2.431 -12.52,-4.199 -20.106,-12.002 -7.508,-7.881 -16.418,-22.458 -25.255,-50.294 -1.69,-5.451 -2.359,-9.428 -2.28,-11.636 0,-0.661 0,-1.1 0.072,-1.474 1.179,0 3.753,0.518 6.479,1.625 4.271,1.618 9.132,4.344 12.814,6.624 1.768,1.107 3.315,2.136 4.415,2.876 l 1.18,0.877 0.367,0.223 h 0.071 l 4.717,3.538 19.661,43.959 c 0,0 4.933,-24.522 4.933,-40.5 0,-5.45 -17.158,-68.704 -1.251,-66.273 7.73,1.179 81,29.454 81,29.454 0,0 73.27,-28.276 81,-29.454 15.906,-2.431 -1.252,60.822 -1.252,66.273 0,11.578 2.582,27.599 4.013,35.567 -0.964,6.119 -0.582,10.772 2.172,12.304 11.046,6.141 23.321,-27.002 31.907,-47.864 2.704,-6.58 3.697,-11.312 3.3,-14.462 2.251,-1.201 4.588,-2.316 6.767,-3.143 2.725,-1.107 5.3,-1.625 6.479,-1.625 0.072,0.374 0.072,0.813 0.072,1.474 0.08,2.208 -0.589,6.185 -2.279,11.636 -8.838,27.837 -17.748,42.413 -25.255,50.294 -7.587,7.803 -13.476,9.571 -20.106,12.002 z"
   id="path2"
   style="fill:#800a00;fill-opacity:1" />
</g>
</svg>
