<?xml version="1.0" encoding="utf-8"?>
<svg xmlns="http://www.w3.org/2000/svg" viewBox="160.0271 -88.081 423.0393 512" width="423.039px" height="512px" preserveAspectRatio="none"><g id="object-0"><rect x="143.951" y="181.174" transform="matrix(-0.707407, -0.706807, 0.706807, -0.707407, 232.933014, 324.223022)" style="fill: rgb(160, 129, 92); stroke-width: 1;" width="0.163" height="1.357"/><path d="M 413.145 391.503 C 413.145 400.752 405.62 408.277 396.372 408.277 L 396.248 408.277 C 386.277 408.277 378.165 400.166 378.165 390.195 L 378.165 249.739 C 378.165 240.292 370.479 232.605 361.031 232.605 C 351.583 232.605 343.898 240.291 343.898 249.739 L 343.898 389.741 C 343.898 394.6 341.886 399.361 338.381 402.798 C 335.006 406.11 330.678 407.902 326.06 407.796 C 316.608 407.614 308.919 399.77 308.919 390.295 L 308.683 265.924 L 293.041 265.954 L 293.277 390.31 C 293.277 408.229 307.848 423.089 325.757 423.436 C 334.567 423.62 342.935 420.244 349.334 413.966 C 355.82 407.604 359.54 398.776 359.54 389.742 L 359.54 249.739 C 359.54 248.916 360.209 248.247 361.031 248.247 C 361.854 248.247 362.523 248.916 362.523 249.739 L 362.523 390.196 C 362.523 408.791 377.652 423.919 396.247 423.919 L 396.371 423.919 C 414.245 423.919 428.785 409.378 428.785 391.503 L 428.785 370.216 L 413.143 370.216 L 413.143 391.503 L 413.145 391.503 Z" style="stroke-width: 1;"/><polygon points="396.205 56.864 396.205 72.506 419.436 72.506 467.838 120.907 478.898 109.846 425.915 56.864" style="stroke-width: 1;"/><path d="M 308.448 138.009 C 308.44 134.416 306.289 131.207 302.967 129.835 C 299.645 128.465 295.858 129.22 293.316 131.76 L 224.336 200.74 C 221.035 204.042 216.641 205.861 211.968 205.861 C 207.294 205.861 202.907 204.044 199.609 200.741 C 192.789 193.92 192.789 182.822 199.609 176.002 L 253.662 121.95 L 242.601 110.889 L 188.548 164.942 C 175.63 177.861 175.63 198.881 188.543 211.796 C 194.791 218.056 203.11 221.503 211.968 221.503 C 220.82 221.503 229.141 218.057 235.398 211.801 L 292.838 154.36 L 293.008 245.099 L 308.65 245.071 L 308.448 138.009 Z" style="stroke-width: 1;"/><path d="M 274.46 131.739 L 285.521 120.678 L 270.228 105.385 L 303.108 72.505 L 375.35 72.505 L 375.35 56.863 L 296.629 56.863 L 259.169 94.322 L 213.444 48.599 C 224.364 35.296 230.016 19.295 221.165 10.443 C 210.998 0.28 191.399 9.241 177.293 23.347 C 163.186 37.455 154.224 57.054 164.389 67.219 C 167.421 70.25 171.292 71.581 175.607 71.581 C 183.831 71.581 193.667 66.745 202.369 59.644 L 274.46 131.739 Z M 188.352 34.409 C 198.138 24.623 207.009 21.53 209.918 21.691 C 210.058 24.581 206.987 33.47 197.2 43.257 C 187.41 53.047 178.525 56.131 175.634 55.975 C 175.495 53.084 178.566 44.194 188.352 34.409 Z" style="stroke-width: 1;"/><path d="M 361.793 44.351 C 398.305 44.351 428.009 14.647 428.009 -21.865 C 428.009 -58.377 398.304 -88.081 361.793 -88.081 C 325.282 -88.081 295.577 -58.377 295.577 -21.865 C 295.577 14.647 325.282 44.351 361.793 44.351 Z M 361.793 28.709 C 339.307 28.709 320.209 13.954 313.652 -6.38 L 326.574 -12.405 L 329.771 -5.55 L 343.946 -12.161 L 340.75 -19.016 L 352.136 -24.325 L 355.333 -17.47 L 369.51 -24.081 L 366.314 -30.935 L 377.7 -36.244 L 380.896 -29.389 L 395.071 -36 L 391.875 -42.854 L 404.582 -48.779 C 409.507 -40.978 412.369 -31.752 412.369 -21.864 C 412.368 6.022 389.68 28.709 361.793 28.709 Z M 361.793 -72.439 C 373.92 -72.439 385.06 -68.145 393.783 -61.003 L 385.263 -57.03 L 382.066 -63.885 L 367.891 -57.274 L 371.087 -50.42 L 359.701 -45.111 L 356.505 -51.966 L 342.33 -45.355 L 345.526 -38.501 L 334.14 -33.192 L 330.944 -40.047 L 316.769 -33.436 L 319.965 -26.582 L 311.235 -22.511 C 311.584 -50.1 334.122 -72.439 361.793 -72.439 Z" style="stroke-width: 1;"/><path d="M 565.802 44.94 C 551.695 30.834 532.094 21.874 521.93 32.036 C 513.119 40.848 518.683 56.747 529.508 70.014 L 457.412 142.11 L 468.473 153.171 L 484.288 137.356 L 522.931 175.997 C 526.237 179.31 528.057 183.705 528.057 188.372 C 528.057 193.04 526.236 197.434 522.937 200.74 C 516.118 207.559 505.023 207.557 498.209 200.74 L 428.282 130.815 C 425.738 128.266 421.944 127.51 418.621 128.887 C 415.295 130.262 413.146 133.477 413.146 137.078 L 413.146 172.869 L 406.117 169.592 L 409.313 162.738 L 395.138 156.127 L 391.941 162.982 L 380.555 157.673 L 383.751 150.819 L 369.576 144.208 L 366.379 151.063 L 354.993 145.753 L 358.189 138.899 L 344.014 132.288 L 340.817 139.143 L 322.343 130.529 L 315.732 144.704 L 334.206 153.318 L 331.01 160.172 L 345.185 166.783 L 348.381 159.928 L 359.767 165.238 L 356.571 172.092 L 370.746 178.703 L 373.942 171.848 L 385.328 177.157 L 382.132 184.011 L 396.307 190.622 L 399.503 183.767 L 413.142 190.127 L 413.142 275.326 L 428.784 275.326 L 428.784 153.442 L 487.144 211.802 C 500.061 224.717 521.076 224.718 533.999 211.797 C 540.251 205.532 543.696 197.213 543.696 188.372 C 543.696 179.532 540.252 171.214 533.994 164.942 L 495.346 126.295 L 540.546 81.092 C 549.292 88.271 559.204 93.175 567.484 93.175 C 571.798 93.175 575.671 91.845 578.702 88.813 C 588.871 78.647 579.909 59.049 565.802 44.94 Z M 545.894 64.849 C 536.107 55.063 533.037 46.174 533.176 43.283 C 536.047 43.133 544.957 46.215 554.742 56.001 C 564.528 65.786 567.599 74.676 567.46 77.567 C 564.593 77.709 555.681 74.638 545.894 64.849 Z" style="stroke-width: 1;"/><path d="M 464.068 216.025 C 451.556 211.103 444.834 215.223 441.943 218.117 C 439.05 221.01 434.929 227.731 439.85 240.244 C 441.887 245.421 445.241 250.881 449.518 256.096 L 387.852 317.762 L 398.913 328.823 L 413.146 314.59 L 413.146 348.318 L 428.788 348.318 L 428.788 298.947 L 460.563 267.172 C 469.309 274.351 479.221 279.255 487.501 279.255 C 491.815 279.255 495.687 277.925 498.719 274.893 C 508.884 264.727 499.921 245.128 485.815 231.021 C 478.965 224.171 471.242 218.847 464.068 216.025 Z M 465.906 250.928 C 456.119 241.142 453.049 232.252 453.188 229.362 C 456.116 229.25 464.969 232.295 474.754 242.08 C 484.54 251.865 487.611 260.755 487.472 263.646 C 484.613 263.784 475.693 260.717 465.906 250.928 Z" style="stroke-width: 1;"/></g></svg>