<?xml version="1.0" encoding="UTF-8" standalone="no"?>
<svg
   viewBox="160.0271 -88.081 423.0393 512"
   width="423.039px"
   height="512px"
   preserveAspectRatio="none"
   version="1.1"
   id="svg6"
   sodipodi:docname="voodoo.svg"
   inkscape:version="1.4.2 (ebf0e940, 2025-05-08)"
   xmlns:inkscape="http://www.inkscape.org/namespaces/inkscape"
   xmlns:sodipodi="http://sodipodi.sourceforge.net/DTD/sodipodi-0.dtd"
   xmlns="http://www.w3.org/2000/svg"
   xmlns:svg="http://www.w3.org/2000/svg">
  <defs
     id="defs6" />
  <sodipodi:namedview
     id="namedview6"
     pagecolor="#ffffff"
     bordercolor="#000000"
     borderopacity="0.25"
     inkscape:showpageshadow="2"
     inkscape:pageopacity="0.0"
     inkscape:pagecheckerboard="0"
     inkscape:deskcolor="#d1d1d1"
     inkscape:zoom="3.0861595"
     inkscape:cx="204.29923"
     inkscape:cy="353.83783"
     inkscape:window-width="1712"
     inkscape:window-height="971"
     inkscape:window-x="0"
     inkscape:window-y="39"
     inkscape:window-maximized="1"
     inkscape:current-layer="object-0" />
  <g
     id="object-0"
     style="fill:#800a00;fill-opacity:1">
    <rect
       x="143.951"
       y="181.174"
       transform="matrix(-0.707407, -0.706807, 0.706807, -0.707407, 232.933014, 324.223022)"
       style="fill:#800a00;stroke-width:1;fill-opacity:1"
       width="0.163"
       height="1.357"
       id="rect1" />
    <path
       d="M 413.145 391.503 C 413.145 400.752 405.62 408.277 396.372 408.277 L 396.248 408.277 C 386.277 408.277 378.165 400.166 378.165 390.195 L 378.165 249.739 C 378.165 240.292 370.479 232.605 361.031 232.605 C 351.583 232.605 343.898 240.291 343.898 249.739 L 343.898 389.741 C 343.898 394.6 341.886 399.361 338.381 402.798 C 335.006 406.11 330.678 407.902 326.06 407.796 C 316.608 407.614 308.919 399.77 308.919 390.295 L 308.683 265.924 L 293.041 265.954 L 293.277 390.31 C 293.277 408.229 307.848 423.089 325.757 423.436 C 334.567 423.62 342.935 420.244 349.334 413.966 C 355.82 407.604 359.54 398.776 359.54 389.742 L 359.54 249.739 C 359.54 248.916 360.209 248.247 361.031 248.247 C 361.854 248.247 362.523 248.916 362.523 249.739 L 362.523 390.196 C 362.523 408.791 377.652 423.919 396.247 423.919 L 396.371 423.919 C 414.245 423.919 428.785 409.378 428.785 391.503 L 428.785 370.216 L 413.143 370.216 L 413.143 391.503 L 413.145 391.503 Z"
       style="stroke-width:1;fill:#800a00;fill-opacity:1"
       id="path1" />
    <polygon
       points="396.205 56.864 396.205 72.506 419.436 72.506 467.838 120.907 478.898 109.846 425.915 56.864"
       style="stroke-width:1;fill:#800a00;fill-opacity:1"
       id="polygon1" />
    <path
       d="m 308.448,138.009 c -0.008,-3.593 -2.159,-6.802 -5.481,-8.174 -3.322,-1.37 -7.109,-0.615 -9.651,1.925 l -68.98,68.98 c -3.301,3.302 -7.695,5.121 -12.368,5.121 -4.674,0 -9.061,-1.817 -12.359,-5.12 -6.82,-6.821 -6.82,-17.919 0,-24.739 l 54.053,-54.052 -11.061,-11.061 -54.053,54.053 c -12.918,12.919 -12.918,33.939 -0.005,46.854 6.248,6.26 14.567,9.707 23.425,9.707 8.852,0 17.173,-3.446 23.43,-9.702 l 57.44,-57.441 0.17,114.739 15.642,-0.028 z"
       style="fill:#800a00;fill-opacity:1;stroke-width:1"
       id="path2"
       sodipodi:nodetypes="ccccsccccccsccccc" />
    <path
       d="m 274.46,131.739 11.061,-11.061 -15.293,-15.293 32.88,-32.88 H 397.35 V 56.863 H 296.629 l -37.46,37.459 -45.725,-45.723 c 10.92,-13.303 16.572,-29.304 7.721,-38.156 -10.167,-10.163 -29.766,-1.202 -43.872,12.904 -14.107,14.108 -23.069,33.707 -12.904,43.872 3.032,3.031 6.903,4.362 11.218,4.362 8.224,0 18.06,-4.836 26.762,-11.937 z"
       style="fill:#800a00;fill-opacity:1;stroke-width:1"
       id="path3"
       sodipodi:nodetypes="ccccccccccccscc" />
    <path
       d="M 361.793 44.351 C 398.305 44.351 428.009 14.647 428.009 -21.865 C 428.009 -58.377 398.304 -88.081 361.793 -88.081 C 325.282 -88.081 295.577 -58.377 295.577 -21.865 C 295.577 14.647 325.282 44.351 361.793 44.351 Z M 361.793 28.709 C 339.307 28.709 320.209 13.954 313.652 -6.38 L 326.574 -12.405 L 329.771 -5.55 L 343.946 -12.161 L 340.75 -19.016 L 352.136 -24.325 L 355.333 -17.47 L 369.51 -24.081 L 366.314 -30.935 L 377.7 -36.244 L 380.896 -29.389 L 395.071 -36 L 391.875 -42.854 L 404.582 -48.779 C 409.507 -40.978 412.369 -31.752 412.369 -21.864 C 412.368 6.022 389.68 28.709 361.793 28.709 Z M 361.793 -72.439 C 373.92 -72.439 385.06 -68.145 393.783 -61.003 L 385.263 -57.03 L 382.066 -63.885 L 367.891 -57.274 L 371.087 -50.42 L 359.701 -45.111 L 356.505 -51.966 L 342.33 -45.355 L 345.526 -38.501 L 334.14 -33.192 L 330.944 -40.047 L 316.769 -33.436 L 319.965 -26.582 L 311.235 -22.511 C 311.584 -50.1 334.122 -72.439 361.793 -72.439 Z"
       style="stroke-width:1;fill:#800a00;fill-opacity:1"
       id="path4" />
    <path
       d="M 565.802,44.94 C 551.695,30.834 532.094,21.874 521.93,32.036 c -8.811,8.812 -3.247,24.711 7.578,37.978 l -72.096,72.096 11.061,11.061 15.815,-15.815 38.643,38.641 c 3.306,3.313 5.126,7.708 5.126,12.375 0,4.668 -1.821,9.062 -5.12,12.368 -6.819,6.819 -17.914,6.817 -24.728,0 l -69.927,-69.925 c -2.544,-2.549 -6.338,-3.305 -9.661,-1.928 -3.326,1.375 -5.475,4.59 -5.475,8.191 v 35.791 l -7.029,-3.277 3.196,-6.854 -14.175,-6.611 -3.197,6.855 -11.386,-5.309 3.196,-6.854 -14.175,-6.611 -3.197,6.855 -11.386,-5.31 3.196,-6.854 -14.175,-6.611 -3.197,6.855 -18.474,-8.614 -6.611,14.175 18.474,8.614 -3.196,6.854 14.175,6.611 3.196,-6.855 11.386,5.31 -3.196,6.854 14.175,6.611 3.196,-6.855 11.386,5.309 -3.196,6.854 14.175,6.611 3.196,-6.855 13.639,6.36 v 91.199 l 14.73586,-14.67954 0.90614,-113.20446 58.36,58.36 c 12.917,12.915 33.932,12.916 46.855,-0.005 6.252,-6.265 9.697,-14.584 9.697,-23.425 0,-8.84 -3.444,-17.158 -9.702,-23.43 l -38.648,-38.647 45.2,-45.203 c 8.746,7.179 18.658,12.083 26.938,12.083 4.314,0 8.187,-1.33 11.218,-4.362 10.169,-10.166 1.207,-29.764 -12.9,-43.873 z"
       style="fill:#800a00;fill-opacity:1;stroke-width:1"
       id="path5"
       sodipodi:nodetypes="cccccccsccccscccccccccccccccccccccccccccccccccscccscc" />
    <path
       d="m 464.068,216.025 c -12.512,-4.922 -19.234,-0.802 -22.125,2.092 -2.893,2.893 -7.014,9.614 -2.093,22.127 2.037,5.177 5.391,10.637 9.668,15.852 l -61.666,61.666 11.061,11.061 14.233,-14.233 v 59.728 h 15.642 v -75.371 l 31.775,-31.775 c 8.746,7.179 18.658,12.083 26.938,12.083 4.314,0 8.186,-1.33 11.218,-4.362 10.165,-10.166 1.202,-29.765 -12.904,-43.872 -6.85,-6.85 -14.573,-12.174 -21.747,-14.996 z"
       style="fill:#800a00;fill-opacity:1;stroke-width:1"
       id="path6"
       sodipodi:nodetypes="cccccccccccsccc" />
  </g>
</svg>
