<?xml version="1.0" encoding="UTF-8" standalone="no"?>
<!-- Uploaded to: SVG Repo, www.svgrepo.com, Generator: SVG Repo Mixer Tools -->

<svg
   height="800px"
   width="800px"
   version="1.1"
   id="_x32_"
   viewBox="0 0 512 512"
   xml:space="preserve"
   sodipodi:docname="werewolf-6.svg"
   inkscape:version="1.4.2 (ebf0e940, 2025-05-08)"
   xmlns:inkscape="http://www.inkscape.org/namespaces/inkscape"
   xmlns:sodipodi="http://sodipodi.sourceforge.net/DTD/sodipodi-0.dtd"
   xmlns="http://www.w3.org/2000/svg"
   xmlns:svg="http://www.w3.org/2000/svg"><defs
   id="defs1" /><sodipodi:namedview
   id="namedview1"
   pagecolor="#ffffff"
   bordercolor="#000000"
   borderopacity="0.25"
   inkscape:showpageshadow="2"
   inkscape:pageopacity="0.0"
   inkscape:pagecheckerboard="0"
   inkscape:deskcolor="#d1d1d1"
   inkscape:zoom="0.49033777"
   inkscape:cx="204.96076"
   inkscape:cy="560.83789"
   inkscape:window-width="1712"
   inkscape:window-height="971"
   inkscape:window-x="0"
   inkscape:window-y="39"
   inkscape:window-maximized="1"
   inkscape:current-layer="_x32_" />
<style
   type="text/css"
   id="style1">
	.st0{fill:#800a00000000000000;}
</style>
<g
   id="g1"
   style="fill:#800a00;fill-opacity:1">
	<path
   class="st0"
   d="M203.094,377.929l-4.189,8.453l-9.92-5.715l-8.461,21.357c0,0-4.419-1.549-12.692-13.06   c-4.148-5.772-9.863-13.2-14.281-26.744c-3.378-10.338-5.124-16.578-5.124-16.578l7.461-1.754   c-1.681-7.124-2.698-16.643,0.746-24.423l14.708,20.84l9.854-2.304c-0.754-5.436-0.697-11.364,1.328-16.684l10.765,13.863   l20.127-4.681c4.674-1.074,9.092-16.634,10.011-21.341l1.828-9.273c0.631-3.214-0.451-6.534-2.861-8.764L192.7,263.764   l-13.635,12.626c-2.402-9.092-1.262-17.766,0.714-24.53l-11.125-10.248l-17.233,29.614c-4.345-17.84,0.68-35.607,3.132-42.625   l-7.009-6.452l9.994-37.082c-10.936-20.833,11.33-47.748,20.594-23.416c24.637,28.375,68.409,46.912,76.083,47.15   c7.682,0.254,33.204-14.159,44.01-17.07c17.167-4.64,55.98,4.05,55.98,4.05l66.736-21.004c0,0,10.503,38.64-1.812,71.992   l44.477,31.45l-29.285,28.023l40.747,34.385l-39.476,24.194l28.236,41.156C494.102,363.926,512,312.349,512,256.566   c0-141.384-114.608-256-256-256c-141.392,0-256,114.616-256,256c0,133.407,102.048,242.923,232.339,254.868   C256.73,448.683,252.188,387.75,203.094,377.929z"
   id="path1"
   style="fill:#800a00;fill-opacity:1" />
</g>
</svg>
