<?xml version="1.0" encoding="UTF-8" standalone="no"?>
<!-- Uploaded to: SVG Repo, www.svgrepo.com, Generator: SVG Repo Mixer Tools -->

<svg
   height="799.99854"
   width="678.6264"
   version="1.1"
   id="_x32_"
   viewBox="0 0 434.3209 511.99906"
   xml:space="preserve"
   sodipodi:docname="zombie.svg"
   inkscape:version="1.4.2 (ebf0e940, 2025-05-08)"
   xmlns:inkscape="http://www.inkscape.org/namespaces/inkscape"
   xmlns:sodipodi="http://sodipodi.sourceforge.net/DTD/sodipodi-0.dtd"
   xmlns="http://www.w3.org/2000/svg"
   xmlns:svg="http://www.w3.org/2000/svg"><defs
   id="defs5" /><sodipodi:namedview
   id="namedview5"
   pagecolor="#ffffff"
   bordercolor="#000000"
   borderopacity="0.25"
   inkscape:showpageshadow="2"
   inkscape:pageopacity="0.0"
   inkscape:pagecheckerboard="0"
   inkscape:deskcolor="#d1d1d1"
   inkscape:zoom="1.2358744"
   inkscape:cx="150.09616"
   inkscape:cy="483.0588"
   inkscape:window-width="896"
   inkscape:window-height="245"
   inkscape:window-x="0"
   inkscape:window-y="39"
   inkscape:window-maximized="0"
   inkscape:current-layer="_x32_" />
<style
   type="text/css"
   id="style1">
	.st0{fill:#800a00000000000000;}
</style>
<g
   id="g5"
   style="fill:#800a00;fill-opacity:1"
   transform="translate(-38.84,-2.6395317e-4)">
	<path
   class="st0"
   d="m 255.533,316.858 c 10.141,2.891 23.178,2.891 20.281,-7.256 -2.897,-10.134 -21.73,-46.356 -26.076,-37.664 -4.346,8.699 -19.218,29.835 -20.28,36.222 -1.448,8.698 15.935,5.795 26.075,8.698 z"
   id="path1"
   style="fill:#800a00;fill-opacity:1" />
	<path
   class="st0"
   d="m 357.652,327.205 c -11.293,9.882 -16.939,7.056 -29.648,9.882 -12.709,2.826 -5.646,21.176 -15.529,22.592 -9.883,1.41 -5.654,-26.828 -21.176,-24.002 -15.529,2.826 -8.473,8.473 -7.062,16.946 1.41,8.466 -8.466,9.877 -21.176,9.877 -12.709,0 -12.709,-26.822 -19.772,-25.412 -7.05,1.416 -7.05,15.536 -11.293,24.002 -4.236,8.466 -29.648,0 -29.648,-11.286 0,-11.299 -9.664,-16.134 -19.766,-21.182 -8.473,-4.236 -18.356,16.939 -4.237,26.822 14.119,9.882 2.821,40.947 14.119,40.947 11.293,0 4.237,-21.182 14.119,-19.766 9.884,1.41 9.884,14.114 9.884,19.766 0,5.64 2.826,9.876 21.175,7.056 18.355,-2.826 1.41,-18.349 11.293,-18.349 9.889,0 22.592,-4.236 22.592,4.23 0,8.479 12.71,18.356 18.356,14.119 5.646,-4.237 0,-18.349 11.293,-18.349 11.3,0 19.772,4.23 19.772,14.113 0,9.889 7.99,8.756 15.523,-0.663 9.799,-12.252 -2.06,-40.091 9.799,-47.766 20.82,-13.469 22.675,-33.454 11.382,-23.577 z"
   id="path2"
   style="fill:#800a00;fill-opacity:1" />
	<path
   class="st0"
   d="M 398.934,47.641 C 389.753,40.295 391.588,14.573 305.237,1.71 218.887,-11.154 92.123,53.152 53.539,42.129 c 1.835,23.886 55.118,64.299 49.6,64.299 -27.556,16.54 -64.299,14.699 -64.299,14.699 0,0 23.97,33.524 69.952,41.604 0.122,28.438 -0.444,92.023 -7.488,114.563 -7.906,25.29 22.051,33.068 27.556,33.068 5.511,0 -16.534,42.261 1.842,55.118 3.786,2.646 7.874,4.024 11.878,4.166 5.074,15.574 6.702,56.27 4.887,78.058 -1.912,22.972 11.479,28.715 22.966,28.715 11.486,0 5.743,-24.878 15.31,-17.229 9.573,7.648 38.282,11.486 51.68,11.486 13.398,0 0,26.789 17.222,28.708 17.235,1.912 15.316,-13.398 21.06,-26.803 5.743,-13.391 13.392,-3.824 15.31,11.486 1.919,15.317 3.824,32.54 22.972,26.803 19.135,-5.743 -1.918,-32.546 19.135,-45.938 21.053,-13.392 52.646,-77.099 60.302,-84.754 7.655,-7.662 1.223,16.766 16.534,11.022 15.31,-5.743 5.466,-52.595 18.864,-52.595 13.398,0 21.054,-5.736 26.796,-44.018 4.899,-32.655 25.669,-58.26 8.608,-62.767 3.361,-11.692 6.316,-25.812 8.203,-42.718 C 479.773,122.968 430.167,51.31 398.934,47.641 Z m -5.511,293.954 c -22.045,60.63 -80.84,106.56 -90.027,106.56 -9.187,0 -58.788,1.835 -73.487,-1.836 -14.692,-3.676 -55.112,-3.676 -60.63,-20.21 -4.191,-12.593 -8.388,-48.571 -10.146,-65.053 6.329,-8.807 8.885,-24.414 2.801,-47.019 0,36.743 -20.21,31.232 -18.375,16.534 1.841,-14.699 12.863,-42.255 1.841,-34.902 -11.029,7.339 -31.232,-16.547 -16.54,-40.42 10.127,-16.463 10.662,-63.456 14.827,-91.682 0.573,-0.07 1.134,-0.11 1.713,-0.18 69.817,-9.188 119.418,-44.103 119.418,-44.103 0,0 1.841,7.353 -12.864,36.75 49.054,0 80.086,-18.826 101.861,-36.26 6.09,38.275 27.717,89.157 30.42,93.213 3.676,5.512 12.864,-14.699 16.54,-29.397 2.021,3.65 5.125,10.333 8.718,18.536 3.386,44.31 -10.404,123.881 -16.07,139.469 z"
   id="path3"
   style="fill:#800a00;fill-opacity:1" />
	<path
   class="st0"
   d="m 228.035,233.875 c 0,-11.602 -5.24,-21.955 -13.475,-28.876 -0.56,8.016 -0.457,15.317 0.65,20.854 2.453,12.246 -22.044,13.469 -17.146,-7.352 4.9,-20.816 -11.028,-23.062 -11.028,-15.916 0,9.799 -3.67,15.916 -12.24,13.469 -4.886,-1.397 -5.402,-7.16 -5.839,-13.225 -9.864,6.799 -16.34,18.163 -16.34,31.046 0,20.835 16.881,37.716 37.716,37.716 20.822,-0.001 37.702,-16.881 37.702,-37.716 z"
   id="path4"
   style="fill:#800a00;fill-opacity:1" />
	<path
   class="st0"
   d="m 349.945,230.753 c 2.446,22.038 -2.453,31.843 -12.252,26.944 -9.799,-4.893 0,-29.397 1.224,-51.442 0.566,-10.147 -6.915,-15.613 -16.224,-17.976 -24.601,1.468 -44.09,21.877 -44.09,46.832 0,25.92 21.002,46.929 46.922,46.929 25.921,0 46.929,-21.009 46.929,-46.929 0,-12.413 -4.835,-23.693 -12.716,-32.095 -8.608,-0.045 -11.885,8.924 -9.793,27.737 z"
   id="path5"
   style="fill:#800a00;fill-opacity:1" />
</g>
</svg>
