<?xml version="1.0" encoding="utf-8"?>
<svg xmlns="http://www.w3.org/2000/svg" viewBox="231.4888 67.6375 238.9072 245.3431" width="238.907px" height="245.343px" preserveAspectRatio="none"><g id="g2805" transform="matrix(1, 0, 0, 1, -7981.0579833984375, 6.309241771697998)"><path id="path2806" d="m 0,0 c -2.11,0.209 -4.115,-0.524 -6.118,-0.635 -12.545,-0.697 -32.031,-1.022 -44.38,0.001 -1.067,0.088 -3.626,0.325 -3.991,1.45 l 18.88,79.378 17.614,-0.231 0.894,-1.268 C -12.854,59.659 -8.921,40.542 -4.526,21.541 -3.282,16.166 0.093,7.053 0.496,2.216 0.563,1.416 0.355,0.699 0,0" style="fill:#7a7978;fill-opacity:1;fill-rule:nonzero;stroke:none" transform="matrix(1.3333333,0,0,-1.3333333,8368.2325,304.95787)" clip-path="url(#clipPath2807)"/><path id="path2808" d="m 0,0 c 6.286,1.294 12.241,-3.085 10.836,-9.753 -0.674,-3.203 -8.651,-10.731 -11.13,-14.275 -19.043,-27.23 -16.349,-61.469 4.24,-86.908 3.558,-4.395 9.913,-7.775 4.848,-14.604 -7.734,-10.428 -18.335,4.782 -22.605,10.906 C -35.22,-83.923 -34.8,-44.306 -13.27,-13.759 -10.974,-10.501 -3.576,-0.736 0,0" style="fill:#7a7978;fill-opacity:1;fill-rule:nonzero;stroke:none" transform="matrix(1.3333333,0,0,-1.3333333,8252.0729,61.630533)" clip-path="url(#clipPath2809)"/><path id="path2810" d="m 0,0 c 3.507,0.57 5.804,-0.45 8.276,-2.818 19.858,-19.018 28.812,-52.031 23.501,-78.673 -2.609,-13.085 -14.346,-38.767 -25.714,-46.183 -5.688,-3.711 -13.483,1.079 -12.733,7.82 0.424,3.812 3.568,5.199 5.715,7.844 22.036,27.138 24.595,62.197 3.168,90.699 -2.226,2.961 -8.168,8.12 -8.866,11.134 C -7.699,-5.665 -4.619,-0.751 0,0" style="fill:#7a7978;fill-opacity:1;fill-rule:nonzero;stroke:none" transform="matrix(1.3333333,0,0,-1.3333333,8407.0771,61.639333)" clip-path="url(#clipPath2811)"/><path id="path2812" d="m 0,0 c 5.634,0.776 10.795,-6.305 13.54,-10.539 12.02,-18.54 12.543,-40.767 0.868,-59.578 -3.986,-6.423 -10.798,-17.281 -19.164,-10.06 -6.979,6.025 0.139,11.414 3.484,16.005 9.97,13.679 9.837,32.142 -0.003,45.85 -1.999,2.785 -5.814,5.536 -6.144,9.033 C -7.828,-4.947 -4.294,-0.591 0,0" style="fill:#7a7978;fill-opacity:1;fill-rule:nonzero;stroke:none" transform="matrix(1.3333333,0,0,-1.3333333,8377.5407,93.313067)" clip-path="url(#clipPath2813)"/><path id="path2814" d="m 0,0 c 4.717,0.685 9.883,-3.495 9.911,-8.256 0.026,-4.345 -4.103,-7.087 -6.445,-10.365 -9.05,-12.67 -10.64,-29.139 -2.269,-42.624 3.35,-5.397 12.038,-10.684 6.5,-17.82 -3.717,-4.79 -9.552,-3.974 -13.529,-0.017 -19.506,19.407 -19.364,53.518 -1.343,73.801 C -5.375,-3.255 -2.755,-0.4 0,0" style="fill:#7a7978;fill-opacity:1;fill-rule:nonzero;stroke:none" transform="matrix(1.3333333,0,0,-1.3333333,8283.8148,93.3312)" clip-path="url(#clipPath2815)"/><path id="path2816" d="M 0,0 C 28.433,3.883 30.99,-37.206 5.799,-39.307 -20.864,-41.532 -22.92,-3.13 0,0" style="fill:#7a7978;fill-opacity:1;fill-rule:nonzero;stroke:none" transform="matrix(1.3333333,0,0,-1.3333333,8327.0699,122.18813)" clip-path="url(#clipPath2817)"/></g></svg>