<?xml version="1.0" encoding="utf-8"?>
<svg xmlns="http://www.w3.org/2000/svg" viewBox="301.29 77.2107 202.6709 206.9491" width="202.671px" height="206.949px" preserveAspectRatio="none"><g id="g3704" transform="matrix(1, 0, 0, 1, -10645.374189376833, -3.314793109893799)"><path id="path3705" d="m 0,0 c 3.363,0.629 5.325,-0.108 8.24,-1.44 22.627,-10.342 45.157,-25.604 67.224,-37.32 4.971,-4.072 1.692,-8.321 -3.707,-8.7 H -66.535 c -6.496,0.542 -7.918,5.662 -2.47,9.444 13.079,9.08 32.597,18.489 47.002,26.328 C -17.79,-9.395 -3.432,-0.642 0,0" style="fill:#7a7978;fill-opacity:1;fill-rule:nonzero;stroke:none" transform="matrix(1.3333333,0,0,-1.3333333,11043.851,80.829067)" clip-path="url(#clipPath3706)"/><path id="path3707" d="m 0,0 -0.079,-47.231 c 0.426,-2.347 4.964,-1.043 5.844,-4.065 0.364,-1.251 0.262,-7.299 -0.264,-8.448 -0.548,-1.197 -1.649,-1.473 -2.845,-1.614 -6.87,-0.813 -23.716,-0.661 -30.756,-0.014 -4.705,0.432 -5.303,4.98 -4.461,8.968 1.006,4.764 4.223,2.129 6.456,5.432 l -0.189,46.353 c -4.973,1.015 -4.441,9.254 -2.031,12.338 l 29.38,0.142 C 3.487,11.163 3.29,4.423 2.883,2.316 2.588,0.784 1.275,0.482 0,0" style="fill:#7a7978;fill-opacity:1;fill-rule:nonzero;stroke:none" transform="matrix(1.3333333,0,0,-1.3333333,11064.616,173.2456)" clip-path="url(#clipPath3708)"/><path id="path3709" d="m 0,0 h 148.659 c 2.155,0 3.311,-13.354 -1.004,-13.858 L 1.951,-13.901 c -1.444,-0.171 -2.906,0.822 -3.177,2.273 -0.255,1.368 -0.26,8.525 0,9.881 C -1.066,-0.914 -0.618,-0.503 0,0" style="fill:#7a7978;fill-opacity:1;fill-rule:nonzero;stroke:none" transform="matrix(1.3333333,0,0,-1.3333333,10948.557,268.9144)" clip-path="url(#clipPath3710)"/><path id="path3711" d="m 0,0 c -0.92,-0.738 -2.738,-0.317 -2.841,-1.872 l -0.022,-45.607 c 0.08,-2.935 4.573,-1.646 5.718,-4.191 0.468,-1.039 0.469,-7.368 10e-4,-8.406 -0.513,-1.135 -2.262,-1.859 -3.45,-2 -5.901,-0.7 -20.246,-0.565 -26.298,-0.012 -5.023,0.458 -4.804,5.421 -4.071,9.568 0.78,4.412 5.857,1.506 5.858,6.03 -1.236,13.6 1.552,29.859 -0.021,43.134 -0.427,3.6 -3.233,2.208 -3.865,5.053 -0.701,3.157 -0.879,9.092 3.105,9.561 7.627,0.898 17.241,-0.506 25.063,-0.226 C 2.046,10.076 1.651,1.324 0,0" style="fill:#7a7978;fill-opacity:1;fill-rule:nonzero;stroke:none" transform="matrix(1.3333333,0,0,-1.3333333,11133.701,172.2912)" clip-path="url(#clipPath3712)"/><path id="path3713" d="m 0,0 c 1.139,0.905 3.643,0.496 4.57,2.125 l 0.255,44.839 c -0.37,3.113 -1.527,2.076 -3.021,3.42 -1.828,1.645 -2.131,9.74 0.545,10.928 L 28.095,61.311 C 30.35,60.49 29.911,51.943 29.137,50.88 28.408,49.879 26.243,49.975 26.123,48.445 L 26.097,2.841 c 0.29,-3.175 4.71,-1.324 5.752,-4.652 0.45,-1.439 0.456,-7.018 -0.144,-8.329 -0.549,-1.197 -1.649,-1.472 -2.846,-1.614 -8.376,-0.99 -18.944,0.575 -27.537,0.231 C -2.295,-10.975 -1.661,-1.32 0,0" style="fill:#7a7978;fill-opacity:1;fill-rule:nonzero;stroke:none" transform="matrix(1.3333333,0,0,-1.3333333,10958.983,239.3848)" clip-path="url(#clipPath3714)"/></g></svg>