<?xml version="1.0" encoding="utf-8"?>
<svg xmlns="http://www.w3.org/2000/svg" viewBox="271.3721 55.4272 231.9883 245.3357" width="231.988px" height="245.336px" preserveAspectRatio="none"><g id="g1396" transform="matrix(1, 0, 0, 1, -3676.6338863372803, -5.904883146286011)"><path id="path1397" d="m 0,0 c 11.577,-7.722 20.822,-8.067 32.318,0.134 1.345,0.96 2.504,3.235 4.227,3.068 0.813,-0.079 4.565,-3.809 5.97,-4.75 5.845,-3.916 11.773,-4.76 18.776,-4.28 2.533,0.174 4.61,1.246 7.026,0.911 l 1.166,-43.168 c 0.582,-1.773 9.199,-0.413 11.467,-2.002 4.277,-2.995 0.845,-11.724 -4.502,-11.291 l -161.122,10e-4 c -6.371,-0.108 -9.175,9.663 -2.958,11.991 2.829,1.059 6.457,0.96 9.443,0.939 l 0.559,43.767 c 7.347,-1.351 15.442,-1.91 22.393,1.455 1.975,0.956 8.718,6.928 9.298,6.946 1.99,0.06 2.66,-2.31 3.949,-3.349 9.492,-7.652 22.135,-8.153 32.231,-1.374 1.205,0.809 3.743,3.781 4.925,4.096 C -2.768,3.645 -1.052,0.701 0,0" style="fill:#7a7978;fill-opacity:1;fill-rule:nonzero;stroke:none" transform="matrix(1.3333333,0,0,-1.3333333,4069.4899,224.80973)" clip-path="url(#clipPath1398)"/><path id="path1399" d="m 0,0 v -26.369 h 54.156 c 4.648,0 9.798,-4.982 10.803,-9.398 1.437,-6.309 1.376,-25.591 0.695,-32.394 -1.174,-11.726 -18.353,-9.607 -24.373,-3.06 -2.828,3.077 -4.008,10.671 -8.451,10.659 -5.352,-0.013 -5.401,-7.775 -9.064,-11.167 -6.133,-5.681 -15.77,-5.572 -22.133,-0.402 -3.686,2.995 -3.778,8.835 -7.494,11.006 -5.381,3.143 -7.397,-5.847 -9.037,-8.419 -5.119,-8.031 -18.716,-8.275 -25.222,-1.703 -3.039,3.07 -4.137,10.91 -8.941,10.646 -4.461,-0.245 -5.246,-6.041 -7.378,-8.931 -5.038,-6.827 -20.116,-10.793 -24.132,-1.199 0.929,8.317 -2.468,30.264 0.759,36.908 1.547,3.185 7.546,7.454 11.065,7.454 h 53.595 V 0 C -10.052,-0.86 -5.096,-0.603 0,0" style="fill:#7a7978;fill-opacity:1;fill-rule:nonzero;stroke:none" transform="matrix(1.3333333,0,0,-1.3333333,4073.7333,118.09467)" clip-path="url(#clipPath1400)"/><path id="path1401" d="m 0,0 c 3.397,0.415 6.013,-2.941 7.675,-5.541 3.461,-5.417 7.976,-15.598 5.65,-21.852 -5.356,-14.402 -30.801,-8.475 -25.153,10.559 C -10.628,-12.787 -4.415,-0.54 0,0" style="fill:#7a7978;fill-opacity:1;fill-rule:nonzero;stroke:none" transform="matrix(1.3333333,0,0,-1.3333333,4062.3331,61.3788)" clip-path="url(#clipPath1402)"/></g></svg>