<?xml version="1.0" encoding="utf-8"?>
<svg xmlns="http://www.w3.org/2000/svg" viewBox="266.1689 95.0478 245.3418 202.5733" width="245.342px" height="202.573px" preserveAspectRatio="none"><g id="g4343" transform="matrix(1, 0, 0, 1, -12599.166418075563, 12.283099651336677)"><path id="path4344" d="m 0,0 h -74.109 c -3.373,0 -6.108,2.734 -6.108,6.107 v 30.862 c 0,3.373 2.735,6.107 6.108,6.107 H 0 c 3.373,0 6.107,-2.734 6.107,-6.107 V 6.107 C 6.107,2.734 3.373,0 0,0" style="fill:#7a7978;fill-opacity:1;fill-rule:nonzero;stroke:none" transform="matrix(1.3333333,0,0,-1.3333333,12972.291,140.19933)" clip-path="url(#clipPath4345)"/><path id="path4346" d="m 0,0 h -74.109 c -3.373,0 -6.108,2.734 -6.108,6.107 v 30.862 c 0,3.373 2.735,6.107 6.108,6.107 H 0 c 3.373,0 6.107,-2.734 6.107,-6.107 V 6.107 C 6.107,2.734 3.373,0 0,0" style="fill:#7a7978;fill-opacity:1;fill-rule:nonzero;stroke:none" transform="matrix(1.3333333,0,0,-1.3333333,13102.524,140.19933)" clip-path="url(#clipPath4347)"/><path id="path4348" d="m 0,0 h -25.268 c -3.373,0 -6.107,2.734 -6.107,6.107 v 30.862 c 0,3.373 2.734,6.107 6.107,6.107 H 0 c 3.373,0 6.107,-2.734 6.107,-6.107 V 6.107 C 6.107,2.734 3.373,0 0,0" style="fill:#7a7978;fill-opacity:1;fill-rule:nonzero;stroke:none" transform="matrix(1.3333333,0,0,-1.3333333,12907.17,212.76867)" clip-path="url(#clipPath4349)"/><path id="path4350" d="m 0,0 h -74.109 c -3.373,0 -6.108,2.734 -6.108,6.107 v 30.862 c 0,3.373 2.735,6.107 6.108,6.107 H 0 c 3.373,0 6.107,-2.734 6.107,-6.107 V 6.107 C 6.107,2.734 3.373,0 0,0" style="fill:#7a7978;fill-opacity:1;fill-rule:nonzero;stroke:none" transform="matrix(1.3333333,0,0,-1.3333333,13037.402,212.76867)" clip-path="url(#clipPath4351)"/><path id="path4352" d="m 0,0 h -74.109 c -3.373,0 -6.108,2.734 -6.108,6.107 v 30.862 c 0,3.373 2.735,6.107 6.108,6.107 H 0 c 3.373,0 6.107,-2.734 6.107,-6.107 V 6.107 C 6.107,2.734 3.373,0 0,0" style="fill:#7a7978;fill-opacity:1;fill-rule:nonzero;stroke:none" transform="matrix(1.3333333,0,0,-1.3333333,12972.291,285.338)" clip-path="url(#clipPath4353)"/><path id="path4354" d="m 0,0 h -74.109 c -3.373,0 -6.108,2.734 -6.108,6.107 v 30.862 c 0,3.373 2.735,6.107 6.108,6.107 H 0 c 3.373,0 6.107,-2.734 6.107,-6.107 V 6.107 C 6.107,2.734 3.373,0 0,0" style="fill:#7a7978;fill-opacity:1;fill-rule:nonzero;stroke:none" transform="matrix(1.3333333,0,0,-1.3333333,13102.524,285.338)" clip-path="url(#clipPath4355)"/><path id="path4356" d="m 0,0 h -25.284 c -3.373,0 -6.107,2.734 -6.107,6.107 v 30.862 c 0,3.373 2.734,6.107 6.107,6.107 H 0 c 3.373,0 6.107,-2.734 6.107,-6.107 V 6.107 C 6.107,2.734 3.373,0 0,0" style="fill:#7a7978;fill-opacity:1;fill-rule:nonzero;stroke:none" transform="matrix(1.3333333,0,0,-1.3333333,13102.534,212.76867)" clip-path="url(#clipPath4357)"/></g></svg>