<?xml version="1.0" encoding="UTF-8" standalone="no"?>
<svg xmlns="http://www.w3.org/2000/svg" xmlns:xlink="http://www.w3.org/1999/xlink" version="1.1" width="700" height="700" viewBox="505 105.5 700 700"><g id="document" fill="none" fill-rule="nonzero" font-family="none" font-weight="none" font-size="none"><rect x="505" y="75.35714" transform="scale(1,1.4)" width="700" height="500" id="Shape-1-1"/></g><g fill="#7a7978" fill-rule="nonzero" stroke="none" stroke-width="1" stroke-linecap="butt" stroke-linejoin="miter" stroke-miterlimit="10" font-family="none" font-weight="none" font-size="none"><g id="stage"><g id="layer1-1"><g id="Group-1"><g id="Group-1-1"><g id="Group-1-2"><path d="M753.70467,518.69007v-54.89467c0,-10.70133 4.29734,-16.61866 5.71067,-18.99333c14.96667,-25.15067 53.48267,-24.084 67.856,1.36533c1.20667,2.136 5.10933,10.072 5.10933,18.612v53.91067h44.25467v-52.928c0,-23.132 22.288,-39.67466 38.744,-39.83466c19.25067,-0.18667 40.916,15.62932 40.916,42.78399v49.97867h37.37066v-94.81066c0,-8.37333 -4.87334,-15.956 -12.45201,-19.51467c-48.45067,-22.752 -104.92132,-32.90267 -158.05065,-26.59067c-32.26667,3.83333 -63.32,13.80001 -93.32133,25.78534c-8.164,3.26133 -13.508,11.18 -13.508,19.972v95.15866z" id="Path-1"/></g></g></g></g></g></g></svg>