<?xml version="1.0" encoding="utf-8"?>
<svg xmlns="http://www.w3.org/2000/svg" viewBox="291.0228 58.3215 159.767 245.0318" width="159.767px" height="245.032px" preserveAspectRatio="none"><path id="path1256" d="m 0,0 c 0,-6.35 -5.148,-11.498 -11.498,-11.498 -6.351,0 -11.499,5.148 -11.499,11.498 0,6.35 5.148,11.498 11.499,11.498 C -5.148,11.498 0,6.35 0,0 m -32.19,-36.855 c -4.49,0 -8.13,3.64 -8.13,8.131 0,4.49 3.64,8.13 8.13,8.13 4.491,0 8.131,-3.64 8.131,-8.13 0,-4.491 -3.64,-8.131 -8.131,-8.131 M -52.088,4.449 c -8.943,0 -16.194,7.25 -16.194,16.194 0,8.943 7.251,16.193 16.194,16.193 8.944,0 16.194,-7.25 16.194,-16.193 0,-8.944 -7.25,-16.194 -16.194,-16.194 m 75.612,99.663 H -9.442 c -2.725,0 -4.559,-1.076 -5.769,-2.248 -1.327,-1.285 -2.178,-2.982 -2.608,-4.777 L -25.73,63.991 -82.079,63.847 c -4.863,-0.662 -7.5,-4.009 -7.681,-8.824 l 13.95,-126.721 c 1.241,-5.556 5.049,-6.605 10.168,-7.006 17.409,-1.362 45.964,-1.187 63.488,-0.008 5.65,0.381 11.341,0.986 12.135,7.681 L 23.298,54.323 c 0.257,1.154 0.102,2.425 -0.337,3.656 -1.289,3.613 -4.84,5.926 -8.676,5.926 H -9.123 l 5.349,24.576 h 27.207 c 8.501,0 9.147,15.631 0.091,15.631" style="fill:#7a7978;fill-opacity:1;fill-rule:nonzero;stroke:none" transform="matrix(1.3333332538604736, 0, 0, -1.3333332538604736, 410.70278167724615, 197.1374773979187)" clip-path="url(#clipPath1257)"/></svg>