<?xml version="1.0" encoding="utf-8"?>
<svg xmlns="http://www.w3.org/2000/svg" viewBox="222.953 51.4282 204.0719 277.3421" width="204.072px" height="277.342px" preserveAspectRatio="none"><defs><clipPath clipPathUnits="userSpaceOnUse" id="clipPath3803"><path d="M 0,276 H 276 V 0 H 0 Z" transform="translate(-201.06976,-33.991898)" id="path3803"/></clipPath></defs><path id="path3802" d="m 0,0 c -5.486,0 -10.64,3.379 -12.638,8.829 l -57.949,158.023 c -4.121,11.235 -16.609,17.025 -27.85,12.905 -11.236,-4.121 -17.026,-16.615 -12.905,-27.851 l 6.309,-17.206 c 2.56,-6.979 -1.023,-14.712 -8.002,-17.272 -6.979,-2.556 -14.711,1.023 -17.271,8.003 l -6.31,17.206 c -9.231,25.174 3.738,53.163 28.91,62.394 25.169,9.231 53.162,-3.738 62.392,-28.91 L 12.636,18.098 C 15.195,11.119 11.612,3.386 4.633,0.827 3.104,0.266 1.539,0 0,0" style="fill:#7a7978;fill-opacity:1;fill-rule:nonzero;stroke:none" transform="matrix(1.3333332538604736, 0, 0, -1.3333332538604736, 409.07505035400396, 328.7702441215515)" clip-path="url(#clipPath3803)"/></svg>