<?xml version="1.0" encoding="utf-8"?>
<svg xmlns="http://www.w3.org/2000/svg" viewBox="232.1764 83.171 277.3303 195.0286" width="277.33px" height="195.029px" preserveAspectRatio="none"><path id="path1887" d="m 0,0 h -38.658 c -10e-4,0 -10e-4,0.001 -10e-4,0.002 v 62.871 0.445 c 0,0.112 0.028,0.233 0.069,0.357 0.385,2.437 2.49,4.302 5.035,4.302 h 28.45 c 2.82,0 5.107,-2.286 5.107,-5.106 V 0.002 C 0.002,0.001 0.001,0 0,0 m -83.246,-32.419 c -27.62,-3.634 -34.075,38.934 -6.189,42.708 28.672,3.881 33.756,-39.082 6.189,-42.708 m -40.028,66.549 c -2.678,0 -4.849,2.171 -4.849,4.849 v 24.15 c 0,2.678 2.171,4.848 4.849,4.848 h 37.619 c 2.678,0 4.849,-2.17 4.849,-4.848 v -24.15 c 0,-2.678 -2.171,-4.849 -4.849,-4.849 z M 50.366,16.025 c 0,2.997 -2.429,5.427 -5.426,5.427 -2.998,0 -5.427,-2.43 -5.427,-5.427 V 0.002 C 39.513,0.001 39.512,0 39.511,0 H 27.34 c -0.001,0 -0.002,0.001 -0.002,0.002 v 62.035 c 0,21.095 -14.911,37.532 -34.89,38.796 -35.195,2.228 -73.248,1.281 -109.067,1.062 -16.744,-0.103 -28.092,-10.263 -34.148,-25.873 -8.952,-23.075 -6.483,-56.29 -6.73,-80.958 -0.024,-2.366 0.677,-4.716 2.156,-6.562 1.169,-1.458 2.725,-2.495 5.023,-2.882 0,0 0,0 0,0 l 30.836,-0.238 c 0,0 0.001,0 0.001,-10e-4 6.867,-39.375 60.085,-38.986 67.116,0.123 0,0.001 -10e-4,0.001 0,0.001 1.739,0.006 80.894,0.238 99.139,0.291 1.988,0.006 3.592,1.619 3.592,6.607 v 26.622 z" style="fill:#7a7978;fill-opacity:1;fill-rule:nonzero;stroke:none" transform="matrix(1.3333332538604736, 0, 0, -1.3333332538604736, 442.35205078125006, 219.54720640182495)" clip-path="url(#clipPath1888)"/></svg>