<?xml version="1.0" encoding="utf-8"?>
<svg xmlns="http://www.w3.org/2000/svg" viewBox="199.585 69.2752 254.8096 245.3433" width="254.81px" height="245.343px" preserveAspectRatio="none"><g id="g3837" transform="matrix(1, 0, 0, 1, -11109.010372161865, 7.946548938751221)"><path id="path3838" d="m 0,0 5.962,-19.894 c 0.414,-1.382 -0.347,-2.838 -1.716,-3.295 -2.434,-0.812 -6.066,-1.403 -7.236,-1.611 -15.825,-2.801 -34.052,-2.542 -49.678,1.84 -1.231,0.346 -1.936,1.639 -1.562,2.863 l 5.789,18.949 c 0.394,1.289 1.67,2.103 3.004,1.905 3.331,-0.496 9.12,-1.645 10.511,-1.785 6.844,-0.686 14.267,-0.665 21.118,0.002 3.975,0.386 8.569,1.869 12.193,2.146 0.005,10e-4 0.01,10e-4 0.015,10e-4 C -0.872,1.175 -0.21,0.699 0,0" style="fill:#7a7978;fill-opacity:1;fill-rule:nonzero;stroke:none" transform="matrix(1.3333333,0,0,-1.3333333,11460.702,130.5044)" clip-path="url(#clipPath3839)"/><path id="path3840" d="m 0,0 0.058,1.038 9.528,32.227 c 0.277,0.939 0.818,1.796 1.611,2.371 0.161,0.117 0.331,0.22 0.513,0.305 1.914,0.893 11.897,0.79 14.37,0.509 2.283,-0.259 3.266,-1.173 4.246,-3.276 L 39.523,0.18 C 39.822,-0.889 39.198,-2.007 38.126,-2.294 37.476,-2.469 36.815,-2.593 36.421,-2.681 25.395,-5.132 12.775,-4.606 1.687,-2.209 0.658,-1.986 -0.059,-1.052 0,0" style="fill:#7a7978;fill-opacity:1;fill-rule:nonzero;stroke:none" transform="matrix(1.3333333,0,0,-1.3333333,11401.866,110.19467)" clip-path="url(#clipPath3841)"/><path id="path3842" d="m 0,0 c 20.952,0 39.569,2.754 51.409,7.022 6.773,2.441 11.316,5.378 12.809,8.58 0.085,0.148 0.158,0.3 0.211,0.459 0.004,0.01 0.009,0.021 0.013,0.031 0.001,0.003 0.003,0.006 0.004,0.009 0.002,0.007 0.002,0.014 0.004,0.021 0.212,0.59 0.324,1.188 0.324,1.794 0,2.622 -2.054,5.111 -5.716,7.356 -0.056,0.038 -0.116,0.083 -0.171,0.117 -4.293,2.722 -19.235,8.573 -20.987,11.544 -0.957,1.622 -2.293,8.197 -3.94,8.514 -21.962,-6.475 -45.886,-6.341 -67.868,-0.124 -1.887,-0.941 -2.693,-8.422 -5.039,-9.873 -4.268,-3.388 -18.2,-7.117 -23.654,-12.926 -0.071,-0.074 -0.143,-0.148 -0.21,-0.222 -0.107,-0.119 -0.203,-0.241 -0.302,-0.361 -0.244,-0.295 -0.462,-0.592 -0.654,-0.892 -0.032,-0.051 -0.067,-0.101 -0.098,-0.152 -0.106,-0.175 -0.201,-0.35 -0.289,-0.527 -0.055,-0.11 -0.104,-0.222 -0.153,-0.335 -0.055,-0.127 -0.114,-0.255 -0.159,-0.383 -0.012,-0.032 -0.029,-0.063 -0.04,-0.096 -0.429,-1.242 -0.397,-2.251 -0.041,-3.084 C -62.779,10.346 -49.88,5.089 -31.433,2.251 -22.123,0.819 -11.409,0 0,0" style="fill:#7a7978;fill-opacity:1;fill-rule:nonzero;stroke:none" transform="matrix(1.3333333,0,0,-1.3333333,11428.301,236.7472)" clip-path="url(#clipPath3843)"/><path id="path3844" d="m 0,0 c 0,8.574 -12.126,16.128 -30.538,20.562 0.178,-0.794 0.285,-1.623 0.285,-2.496 0,-1.109 -0.165,-2.218 -0.491,-3.305 l -0.006,-0.036 -0.152,-0.457 c -0.014,-0.042 -0.028,-0.083 -0.042,-0.124 l -0.007,-0.02 -0.011,-0.027 c -0.014,-0.04 -0.028,-0.079 -0.043,-0.117 -0.137,-0.373 -0.301,-0.736 -0.494,-1.1 -2.299,-4.708 -7.629,-8.516 -16.283,-11.635 -13.038,-4.7 -32.554,-7.395 -53.546,-7.395 -11.307,0 -22.508,0.804 -32.391,2.324 -9.682,1.49 -18.088,3.669 -24.309,6.303 -3.307,1.4 -6.021,2.924 -8.171,4.588 -14.918,-3.218 -24.908,-9.093 -24.908,-15.809 0,-9.39 19.517,-17.135 44.741,-18.271 1.262,-0.057 1.976,-1.468 1.27,-2.515 -0.941,-1.393 -1.443,-2.848 -1.443,-4.345 0,-10.172 22.902,-18.418 51.153,-18.418 28.251,0 51.153,8.246 51.153,18.418 0,2.671 -1.587,5.208 -4.432,7.499 -1.1,0.885 -0.562,2.655 0.84,2.815 C -20.092,-20.384 0,-11.038 0,0" style="fill:#7a7978;fill-opacity:1;fill-rule:nonzero;stroke:none" transform="matrix(1.3333333,0,0,-1.3333333,11563.405,236.948)" clip-path="url(#clipPath3845)"/></g></svg>