<?xml version="1.0" encoding="utf-8"?>
<svg xmlns="http://www.w3.org/2000/svg" viewBox="64.7603 119.2216 381.2614 247.0464" width="381.261px" height="247.046px" preserveAspectRatio="none"><g id="object-0"><g id="g757" transform="matrix(0.8755, 0, 0, 0.8755, -1520.935547, 49.719185)" style=""><path id="path758" d="m 0,0 c -5.149,-10.417 -5.03,-21.378 -6.892,-32.351 -1.774,-10.455 -6.945,-15.267 -9.738,-24.86 0.472,-11.07 -3.01,-25.063 -1.951,-35.796 0.445,-4.512 2.66,-4.783 4.374,-7.984 1.218,-2.276 2.258,-6.032 -1.074,-6.99 -1.697,-0.488 -14.402,-0.427 -16.517,-0.092 -3.684,0.583 -3.709,4.571 -4.046,7.693 -1.387,12.853 -1.144,26.041 -2.49,38.901 -0.099,0.95 -0.567,3.931 -1.191,4.37 -1.17,0.822 -18.079,0.059 -21.35,0.279 -9.358,0.628 -18.616,3.549 -27.746,5.427 -3.939,-6.031 -10.532,-11.253 -14.229,-17.226 -3.93,-6.349 -3.709,-19.954 -1.786,-27.005 0.823,-3.014 4.444,-8.307 2.972,-11.247 -1.11,-2.218 -14.204,-2.537 -16.352,-0.893 -0.97,0.743 -1.188,2.265 -1.575,3.367 -2.304,6.546 -8.463,30.142 -7.671,36.089 0.625,4.695 3.829,9.928 4.263,15.506 0.734,9.46 -3.868,16.65 -4.94,25.626 l -1.837,-7.729 c -0.142,-10.589 1.702,-23.834 -7.75,-31.173 -2.78,-2.158 -9.61,-5.356 -11.935,-1.417 -1.852,3.137 1.939,5.772 3.104,8.392 3.192,7.181 0.656,14.199 1.128,21.73 0.928,14.837 6.047,22.883 18.112,30.698 6.071,3.933 13.634,9.148 21.101,9.796 18.105,1.57 42.822,-6.026 59.827,0.117 17.267,6.237 22.371,31.049 43.215,36.493 2.425,0.633 6.729,0.609 8.516,1.37 0.98,0.417 4.14,4.083 5.988,5.135 2.172,1.236 5.933,3.293 7.652,0.453 2.42,-3.997 -2.797,-8.227 -2.249,-10.853 L 33.04,4.93 c 3.344,-8.16 -2.047,-16.449 -11.126,-15.446 -3.885,0.429 -5.818,3.91 -9.149,5.68 C 8.862,-2.762 3.912,-2.152 0,0" style="fill:#7a7978;fill-opacity:1;fill-rule:nonzero;stroke:none" transform="matrix(1.3333333,0,0,-1.3333333,2201.2823,143.5324)" clip-path="url(#clipPath759)"/></g><g id="g882" transform="matrix(1, 0, 0, 1, -2235.574707, 77.724831)"><path id="path883" d="M 2574.11 260.858 C 2570.41 265.202 2559.26 268.578 2553.49 268.511 C 2554.13 273.935 2557.26 279.342 2554.34 284.648 C 2552.45 288.08 2548.22 290.174 2545.18 286.766 C 2543.68 285.08 2543.68 280.839 2540.89 280.028 C 2538.07 279.212 2521.43 279.575 2517.55 279.851 C 2516.03 279.959 2512.01 280.438 2510.84 280.964 C 2508.22 282.147 2508.07 289.618 2502.07 288.412 C 2501.84 288.367 2499.03 285.378 2498.88 285.075 C 2496.24 279.932 2497.97 274.346 2499.45 269.222 C 2498.86 268.67 2485.78 270.579 2483.49 270.668 C 2434.86 272.564 2385.01 269.163 2336.24 270.67 C 2326.84 269.807 2313.3 258.44 2309.01 250.271 C 2299.95 232.996 2307.13 202.822 2305.34 182.867 C 2304.8 176.842 2300.16 171.121 2300.34 167.231 C 2300.49 164.065 2304.55 160.526 2307.72 160.671 C 2311.84 160.859 2315.39 165.802 2316.76 169.317 C 2323.36 186.275 2318.18 205.018 2318.86 222.667 C 2318.89 223.528 2318.32 225.312 2319.57 225.144 C 2325.34 209.223 2331.93 192.012 2327.61 174.815 C 2322.59 154.789 2323.68 133.215 2325.97 112.495 C 2326.43 108.303 2327.01 102.003 2331.68 100.437 C 2333.7 99.765 2344.61 99.662 2346.91 100.082 C 2355.2 101.603 2351.63 114.081 2351.53 119.566 C 2351.36 129.159 2351.45 138.831 2351.89 148.413 C 2352.99 148.938 2354.09 149.477 2355.18 150.025 C 2357.99 136.027 2369.53 134.805 2370.05 134.145 C 2370.18 133.989 2369.22 131.77 2369.28 130.265 C 2369.63 121.803 2375.7 117.789 2382.84 123.159 C 2385.43 125.114 2385.95 130.707 2388.91 131.305 C 2397.82 133.103 2393.45 125.571 2398.66 123.33 C 2403.28 121.349 2407.16 123.787 2409.86 127.417 C 2414.28 133.361 2409.07 137.591 2409.95 139.057 C 2410.03 139.178 2414.11 141.482 2414.99 142.39 C 2419.41 146.962 2420.34 150.65 2421.26 150.97 C 2430.7 151.806 2438.72 151.415 2447.41 152.657 C 2451.32 153.213 2454.88 150.285 2455.09 146.341 L 2457.32 107.711 C 2457.55 103.67 2460.7 100.417 2464.72 100.001 C 2470.51 99.403 2477.88 100.282 2479.88 102.203 C 2480.55 102.859 2481.47 105.135 2481.63 106.135 C 2481.45 120.543 2482.07 134.965 2481.28 149.323 C 2481.14 151.905 2483.18 154.073 2485.78 154.073 C 2488.24 154.073 2490.24 152.097 2490.28 149.634 L 2490.89 110.329 C 2490.57 99.782 2500.66 98.818 2509.01 100.094 C 2513.14 100.725 2514.76 103.623 2515.13 107.475 C 2516.01 116.646 2514.2 125.181 2513.68 133.818 C 2513.41 137.961 2513.41 142.157 2513.32 146.342 C 2513.22 150.713 2514.49 155.017 2517.01 158.579 C 2522.01 165.583 2523.8 175.9 2526.26 183.775 C 2527.66 188.288 2530.63 192.916 2530.03 198.134 C 2537.8 194.132 2550.55 190.134 2558.95 194.442 C 2562.76 196.384 2568.57 204.671 2569.53 208.75 C 2572.91 223.048 2558.26 229.314 2558.41 241.864 C 2558.45 245.775 2560.76 250.118 2557.74 253.572 C 2563.72 254.083 2565.05 247.078 2570.2 247.115 C 2574.05 247.142 2577.47 250.203 2577.66 253.999 C 2577.72 255.111 2574.93 259.9 2574.11 260.858" style="fill: rgb(8, 7, 3); fill-opacity: 1; fill-rule: nonzero; transform-box: fill-box; transform-origin: 50% 50%; stroke: rgb(255, 255, 255); stroke-width: 4px;" clip-path="url(#clipPath884)" transform="matrix(-1, 0, 0, -1, -0.000233, -0.000006)"/></g></g></svg>