<?xml version="1.0" encoding="utf-8"?>
<svg xmlns="http://www.w3.org/2000/svg" viewBox="271.7715 97.991 245.3213 165.0988" width="245.321px" height="165.099px" preserveAspectRatio="none"><defs><clipPath clipPathUnits="userSpaceOnUse" id="clipPath3676"><path d="M 0,276 H 276 V 0 H 0 Z" transform="translate(-229.99576,-165.3814)" id="path3676"/></clipPath><clipPath clipPathUnits="userSpaceOnUse" id="clipPath3678"><path d="M 0,276 H 276 V 0 H 0 Z" transform="translate(-104.96175,-94.022305)" id="path3678"/></clipPath></defs><g id="g3674" transform="matrix(1, 0, 0, 1, -10653.568176269531, -3.4590983390808105)"><path id="path3675" d="m 0,0 v 22.903 c 0,6.422 -5.206,11.628 -11.628,11.628 h -160.735 c -6.422,0 -11.628,-5.206 -11.628,-11.628 V 0.97 Z" style="fill:#7a7978;fill-opacity:1;fill-rule:nonzero;stroke:none" transform="matrix(1.3333333,0,0,-1.3333333,11170.661,147.49147)" clip-path="url(#clipPath3676)"/><path id="path3677" d="M 0,0 C -4.889,0 -9.253,2.243 -12.124,5.754 -14.996,2.243 -19.359,0 -24.249,0 c -8.648,0 -15.658,7.01 -15.658,15.658 0,8.648 7.01,15.659 15.658,15.659 4.89,0 9.253,-2.243 12.125,-5.754 2.871,3.511 7.235,5.754 12.124,5.754 8.648,0 15.658,-7.011 15.658,-15.659 C 15.658,7.01 8.648,0 0,0 M -58.957,54.461 V -6.306 c 0,-6.422 5.206,-11.628 11.628,-11.628 h 160.734 c 6.422,0 11.628,5.206 11.628,11.628 v 59.797 z" style="fill:#7a7978;fill-opacity:1;fill-rule:nonzero;stroke:none" transform="matrix(1.3333333,0,0,-1.3333333,11003.949,242.63693)" clip-path="url(#clipPath3678)"/></g></svg>