<?xml version="1.0" encoding="utf-8"?>
<svg xmlns="http://www.w3.org/2000/svg" viewBox="294.0879 60.4015 227.5771 245.2628" width="227.577px" height="245.263px" preserveAspectRatio="none"><g id="g4218" transform="matrix(1, 0, 0, 1, -12192.123706817627, -0.9670610427856445)"><path id="path4219" d="m 0,0 c 1.386,0 2.468,-1.221 2.284,-2.595 -1.084,-8.095 -8.691,-10.19 -16.562,-10.612 -5.674,-0.304 -12.97,1.611 -18.233,0.609 -5.495,-1.046 -3.748,-16.602 -3.479,-20.753 7.708,0.019 18.537,-4.122 20.913,-12.129 0.799,-2.69 1.696,-8.49 -2.346,-8.695 -3.299,-0.167 -4.053,3.018 -6.286,4.471 -2.973,1.934 -6.907,1.199 -10.3,1.167 -0.859,-4.874 -1.55,-9.273 -3.386,-13.921 -0.72,-1.823 -4.725,-8.452 -4.781,-9.059 -0.046,-0.499 3.166,-5.346 3.779,-6.713 5.403,-12.066 0.786,-23.235 0.48,-35.333 -0.298,-11.835 9.77,-7.004 13.293,-13.191 1.163,-2.041 1.231,-7.707 -1.306,-8.828 -1.429,-0.63 -22.134,-0.672 -24.862,-0.343 -9.032,1.089 -6.589,14.58 -7.23,21.087 -0.855,8.669 -2.304,18.1 -9.124,24.228 -1.952,-3.118 -4.431,-6.083 -7.228,-8.499 -3.457,-2.986 -16.13,-9.407 -16.87,-12.715 -0.49,-2.192 0.51,-6.732 2.021,-8.407 2.258,-2.503 8.451,-2.542 11.075,-5.465 2.041,-2.273 3.276,-8.431 -0.024,-9.886 -1.524,-0.671 -20.161,-0.63 -22.961,-0.33 -4.22,0.451 -6.994,2.804 -8.319,6.784 -1.777,5.334 -3.457,20.693 -2.545,26.101 0.75,4.444 5.6,8.413 2.99,13.683 -14.73,-4.401 -32.861,-1.609 -44.689,8.482 -2.718,2.32 -10.372,9.651 -6.264,13.197 3.043,2.627 9.063,-1.657 12.948,-2.11 2.071,-0.242 5.187,-0.294 7.19,0.228 5.648,1.471 25.636,27.721 31.129,33.69 10.014,10.885 22.72,21.42 31.427,33.393 8.006,11.009 3.12,24.854 11.052,37.401 11.297,17.871 27.557,12.67 45.028,10.376 7.311,-0.961 12.556,0.227 19.618,-3.669 C 9.872,35.333 10.242,24.132 9.106,12.749 8.884,10.532 7.018,8.843 4.791,8.843 h -32.874 c -1.036,0 -1.424,-1.361 -0.539,-1.9 C -24.361,4.345 -16.359,0 -10.495,0 Z" style="fill:#7a7978;fill-opacity:1;fill-rule:nonzero;stroke:none" transform="matrix(1.3333333,0,0,-1.3333333,12701.075,125.1276)" clip-path="url(#clipPath4220)"/></g></svg>