<?xml version="1.0" encoding="utf-8"?>
<svg xmlns="http://www.w3.org/2000/svg" viewBox="307.0391 52.2247 245.3208 245.3206" width="245.321px" height="245.321px" preserveAspectRatio="none"><g id="g2555" transform="matrix(1, 0, 0, 1, -7126.300834655762, -9.114745140075684)"><path id="path2556" d="m 0,0 h -30.759 c -2.687,-6.455 -8.136,-11.38 -13.919,-15.138 -1.218,-0.792 -2.857,-0.86 -3.691,-2.266 -0.139,-0.411 0.246,-0.642 0.246,-0.745 v -29.338 c 0,-0.132 -0.703,-0.672 -0.493,-1.24 18.418,5.063 33.926,17.524 42.712,34.404 0.198,0.381 0.729,0.437 0.902,0.79 C -2.997,-9.445 -1.553,-4.318 0,0 m -98.23,0 h -29.27 c 5.366,-22.933 24.757,-42.042 47.13,-48.73 v 31.824 C -88.042,-13.747 -94.254,-7.132 -98.23,0 m -29.27,32.321 h 32.247 c 9.636,19.151 34.363,24.919 52.044,12.627 4.353,-3.026 8.293,-8.078 10.962,-12.627 h 31.751 c 0.034,1.82 -0.816,3.958 -1.471,5.736 -13.932,37.805 -58.951,54.204 -94.435,34.946 -15.343,-8.327 -26.885,-23.724 -31.098,-40.682 M -0.777,82.751 C 49.328,37.006 31.767,-47.478 -31.833,-70.775 -97.606,-94.869 -166.156,-39.811 -154.41,30.701 c 12.128,72.808 99.377,101.586 153.633,52.05" style="fill:#7a7978;fill-opacity:1;fill-rule:nonzero;stroke:none" transform="matrix(1.3333333,0,0,-1.3333333,7640.984,204.62827)" clip-path="url(#clipPath2557)"/></g></svg>