<?xml version="1.0" encoding="utf-8"?>
<svg xmlns="http://www.w3.org/2000/svg" viewBox="282.2123 58.0191 177.2578 245.3321" width="177.258px" height="245.332px" preserveAspectRatio="none"><path id="path2915" d="m 0,0 c -22.44,-3.057 -41.385,-30.312 -39.094,-52.304 0.863,-8.288 5.893,-5.027 11.406,-8.244 12.351,-7.207 11.231,-24.507 0.5,-32.705 -3.209,-2.453 -8.464,-2.28 -6.616,-8.419 1.901,-6.317 12.149,1.01 14.826,3.628 12.32,12.05 12.707,33.068 -1.75,43.599 -2.63,1.916 -9.603,3.591 -9.753,6.345 -0.381,6.997 7.475,22.532 12.309,27.831 18.22,19.969 48.854,12.233 49.168,-16.705 0.049,-4.44 -4.201,-18.327 3.828,-17.983 4.113,0.177 5.249,10.209 5.525,13.767 C 42.255,-16.672 25.65,3.495 0,0 M -1.679,26.448 C 50.86,31.85 79.432,-24.485 56.755,-68.695 46.558,-88.576 27,-98.506 18.002,-117.929 c -5.373,-11.601 -7.092,-23.716 -18.37,-32.029 -25.026,-18.447 -63.274,0.749 -66.056,31.042 -1.414,15.404 5.004,29.345 4.303,41.862 -0.276,4.936 -3.723,10.498 -4.788,15.734 -8.6,42.282 22.694,83.395 65.23,87.768" style="fill:#7a7978;fill-opacity:1;fill-rule:nonzero;stroke:none" transform="matrix(1.3333332538604736, 0, 0, -1.3333332538604736, 373.3290176391602, 93.76440763473511)" clip-path="url(#clipPath2916)"/></svg>