<?xml version="1.0" encoding="utf-8"?>
<svg xmlns="http://www.w3.org/2000/svg" viewBox="195.4863 79.4525 215.8389 202.6761" width="215.839px" height="202.676px" preserveAspectRatio="none"><path id="path4441" d="M 13388.8 148.581 C 13382.4 149.814 13383 161.081 13391.4 159.267 C 13398 157.835 13395.7 147.242 13388.8 148.581 M 13283.8 230.155 C 13281.4 230.155 13279 231.147 13277.4 232.961 C 13277.3 233.07 13277.2 233.163 13277.2 233.237 C 13273 239.094 13272.1 271.005 13270.8 280.073 C 13270.2 283.575 13267.8 284.601 13264.6 284.889 C 13257.3 285.559 13240.4 285.701 13233.2 284.87 C 13229.6 284.454 13228.9 283.107 13228 279.913 C 13224.9 268.994 13223 252.883 13221.3 241.338 C 13219.8 230.597 13218.9 219.771 13217.5 209.009 C 13215.7 210.487 13214.4 213.127 13212.8 214.849 C 13209.3 218.635 13204.6 222.355 13201.5 215.914 C 13202.5 179.15 13192.9 142.617 13220.1 112.726 C 13243.3 87.229 13277.3 86.747 13309.5 87.946 C 13303.2 102.482 13304.1 121.333 13307.9 136.531 C 13312 152.446 13324.3 173.191 13338.4 181.891 C 13341.5 183.763 13353.5 190.923 13355.3 185.162 C 13357 179.685 13349.6 179.018 13345.7 176.77 C 13320.7 162.31 13308 123.886 13314.8 96.543 C 13317.7 84.863 13323.1 82.449 13334.7 82.799 C 13352.5 83.339 13380.3 87.439 13395.2 97.402 C 13429.7 120.475 13412.2 158.849 13410.9 191.837 C 13409.8 217.199 13426.2 263.527 13393.1 277.694 C 13386.3 280.641 13388.4 277.262 13385.5 271.969 C 13384.8 270.675 13383.9 269.477 13383.1 268.302 C 13381.2 265.829 13381.9 262.295 13384.6 260.785 C 13387.9 258.941 13390.6 256.646 13392 252.446 C 13396.7 237.469 13387.4 215.681 13381.6 201.758 L 13370.8 203.21 L 13359.3 280.789 C 13359 282.937 13357.3 284.606 13355.1 284.862 L 13355.1 284.867 C 13349.9 285.473 13333 285.579 13328.1 284.807 C 13325.8 284.438 13324.5 283.185 13324.1 280.799 L 13320.7 234.599 C 13320.6 232.094 13318.5 230.155 13316 230.155 L 13283.8 230.155 Z" style="fill:#7a7978;fill-opacity:1;fill-rule:nonzero;stroke:none" clip-path="url(#clipPath4442)" transform="matrix(1, 0, 0, 1, -13005.158294677734, -3.3147929906845093)"/></svg>