<?xml version="1.0" encoding="utf-8"?>
<svg xmlns="http://www.w3.org/2000/svg" viewBox="308.582 119.3321 245.3359 194.2147" width="245.336px" height="194.215px" preserveAspectRatio="none"><g id="g4607" transform="matrix(1, 0, 0, 1, -13332.750106811523, 32.439551830291755)"><path id="path4608" d="m 0,0 c 0,-2.847 -0.227,-5.242 -0.677,-7.184 -0.452,-1.944 -1.249,-3.507 -2.394,-4.686 -1.146,-1.181 -2.674,-2.03 -4.582,-2.551 -1.91,-0.52 -4.253,-0.78 -7.027,-0.78 -2.917,0 -5.311,0.26 -7.185,0.78 -1.875,0.521 -3.384,1.37 -4.529,2.551 -1.146,1.179 -1.944,2.742 -2.396,4.686 -0.451,1.942 -0.675,4.337 -0.675,7.184 0,2.915 0.224,5.362 0.675,7.34 0.452,1.979 1.25,3.574 2.396,4.789 1.145,1.215 2.654,2.083 4.529,2.604 1.874,0.52 4.268,0.781 7.185,0.781 2.774,0 5.117,-0.261 7.027,-0.781 1.908,-0.521 3.436,-1.389 4.582,-2.604 1.145,-1.215 1.942,-2.81 2.394,-4.789 C -0.227,5.362 0,2.915 0,0 m 30.819,89.229 c 0,-5.692 -0.818,-10.828 -2.447,-15.41 C 26.741,69.239 24.449,65.282 21.5,61.95 18.549,58.619 15.009,55.945 10.88,53.933 6.749,51.919 2.186,50.635 -2.812,50.081 L -3.644,29.778 c -0.07,-1.249 -1.059,-2.187 -2.968,-2.812 -1.91,-0.624 -4.669,-0.936 -8.277,-0.936 -2.29,0 -4.217,0.052 -5.779,0.155 -1.561,0.104 -2.795,0.295 -3.696,0.573 -0.903,0.276 -1.561,0.66 -1.979,1.146 -0.416,0.484 -0.66,1.109 -0.728,1.874 l -0.937,24.572 c -0.071,2.22 0.034,4.025 0.313,5.414 0.276,1.387 0.78,2.499 1.509,3.331 0.729,0.833 1.648,1.406 2.759,1.719 1.109,0.311 2.429,0.468 3.956,0.468 h 1.458 c 3.678,0 6.854,0.588 9.526,1.77 2.673,1.179 4.877,2.741 6.613,4.685 1.733,1.943 3.001,4.233 3.8,6.872 0.797,2.637 1.198,5.449 1.198,8.434 0,3.331 -0.47,6.384 -1.406,9.162 -0.938,2.776 -2.361,5.17 -4.269,7.184 -1.911,2.012 -4.305,3.557 -7.185,4.634 -2.881,1.075 -6.264,1.613 -10.151,1.613 -3.54,0 -6.663,-0.348 -9.371,-1.041 -2.706,-0.695 -5.033,-1.458 -6.976,-2.291 -1.943,-0.832 -3.558,-1.598 -4.841,-2.29 -1.285,-0.695 -2.275,-1.041 -2.968,-1.041 -0.486,0 -0.936,0.156 -1.353,0.468 -0.416,0.313 -0.765,0.886 -1.041,1.718 -0.278,0.833 -0.505,2.012 -0.677,3.541 -0.173,1.525 -0.26,3.469 -0.26,5.83 0,2.428 0.104,4.198 0.312,5.309 0.209,1.11 0.659,2.013 1.354,2.708 0.693,0.692 2.012,1.51 3.956,2.447 1.943,0.937 4.27,1.803 6.976,2.603 2.708,0.797 5.727,1.474 9.058,2.03 3.332,0.555 6.803,0.833 10.413,0.833 8.189,0 15.201,-1.13 21.031,-3.384 5.831,-2.256 10.602,-5.293 14.316,-9.111 3.713,-3.817 6.438,-8.19 8.174,-13.118 1.734,-4.93 2.603,-10.135 2.603,-15.618" style="fill:#7a7978;fill-opacity:1;fill-rule:nonzero;stroke:none" transform="matrix(1.3333333,0,0,-1.3333333,13704.497,260.8392)" clip-path="url(#clipPath4609)"/><path id="path4610" d="m 0,0 c -0.07,-0.694 -0.279,-1.319 -0.625,-1.874 -0.348,-0.556 -0.954,-1.024 -1.822,-1.405 -0.868,-0.382 -2.049,-0.677 -3.541,-0.885 -1.493,-0.209 -3.315,-0.312 -5.466,-0.312 -2.222,0 -4.06,0.103 -5.518,0.312 -1.457,0.208 -2.62,0.503 -3.487,0.885 -0.869,0.381 -1.476,0.849 -1.822,1.405 -0.349,0.555 -0.557,1.18 -0.625,1.874 l -2.708,94.54 c 0,0.901 0.209,1.699 0.625,2.394 0.417,0.693 1.162,1.266 2.239,1.718 1.075,0.451 2.533,0.781 4.373,0.99 1.838,0.207 4.147,0.312 6.923,0.312 2.776,0 5.067,-0.122 6.872,-0.364 1.804,-0.244 3.244,-0.591 4.321,-1.042 1.076,-0.452 1.839,-1.007 2.29,-1.666 0.452,-0.66 0.677,-1.441 0.677,-2.342 z m 3.228,-30.506 c 0,-2.847 -0.227,-5.242 -0.677,-7.184 -0.452,-1.944 -1.249,-3.507 -2.396,-4.686 -1.145,-1.181 -2.654,-2.03 -4.528,-2.551 -1.874,-0.52 -4.235,-0.78 -7.081,-0.78 -2.847,0 -5.223,0.26 -7.131,0.78 -1.911,0.521 -3.42,1.37 -4.53,2.551 -1.111,1.179 -1.891,2.742 -2.342,4.686 -0.453,1.942 -0.677,4.337 -0.677,7.184 0,2.915 0.224,5.362 0.677,7.34 0.451,1.979 1.231,3.574 2.342,4.789 1.11,1.215 2.619,2.083 4.53,2.604 1.908,0.52 4.284,0.781 7.131,0.781 2.846,0 5.207,-0.261 7.081,-0.781 1.874,-0.521 3.383,-1.389 4.528,-2.604 1.147,-1.215 1.944,-2.81 2.396,-4.789 0.45,-1.978 0.677,-4.425 0.677,-7.34" style="fill:#7a7978;fill-opacity:1;fill-rule:nonzero;stroke:none" transform="matrix(1.3333333,0,0,-1.3333333,13806.827,220.16453)" clip-path="url(#clipPath4611)"/><path id="path4612" d="m 0,0 c -0.07,-0.694 -0.279,-1.319 -0.625,-1.874 -0.348,-0.556 -0.954,-1.024 -1.822,-1.405 -0.868,-0.382 -2.049,-0.677 -3.541,-0.885 -1.493,-0.209 -3.315,-0.312 -5.466,-0.312 -2.222,0 -4.06,0.103 -5.518,0.312 -1.457,0.208 -2.62,0.503 -3.487,0.885 -0.869,0.381 -1.476,0.849 -1.822,1.405 -0.349,0.555 -0.557,1.18 -0.625,1.874 l -2.708,94.54 c 0,0.901 0.209,1.699 0.625,2.394 0.417,0.693 1.162,1.266 2.239,1.718 1.075,0.451 2.533,0.781 4.373,0.99 1.838,0.207 4.147,0.312 6.923,0.312 2.776,0 5.067,-0.122 6.872,-0.364 1.804,-0.244 3.244,-0.591 4.321,-1.042 1.076,-0.452 1.839,-1.007 2.29,-1.666 0.452,-0.66 0.677,-1.441 0.677,-2.342 z m 3.228,-30.506 c 0,-2.847 -0.227,-5.242 -0.677,-7.184 -0.452,-1.944 -1.249,-3.507 -2.396,-4.686 -1.145,-1.181 -2.654,-2.03 -4.528,-2.551 -1.874,-0.52 -4.235,-0.78 -7.081,-0.78 -2.847,0 -5.223,0.26 -7.131,0.78 -1.911,0.521 -3.42,1.37 -4.53,2.551 -1.111,1.179 -1.891,2.742 -2.342,4.686 -0.453,1.942 -0.677,4.337 -0.677,7.184 0,2.915 0.224,5.362 0.677,7.34 0.451,1.979 1.231,3.574 2.342,4.789 1.11,1.215 2.619,2.083 4.53,2.604 1.908,0.52 4.284,0.781 7.131,0.781 2.846,0 5.207,-0.261 7.081,-0.781 1.874,-0.521 3.383,-1.389 4.528,-2.604 1.147,-1.215 1.944,-2.81 2.396,-4.789 0.45,-1.978 0.677,-4.425 0.677,-7.34" style="fill:#7a7978;fill-opacity:1;fill-rule:nonzero;stroke:none" transform="matrix(1.3333333,0,0,-1.3333333,13882.364,220.16453)" clip-path="url(#clipPath4613)"/></g></svg>