<?xml version="1.0" encoding="utf-8"?>
<svg xmlns="http://www.w3.org/2000/svg" viewBox="232.1787 70.1954 277.3218 220.9796" width="277.322px" height="220.98px" preserveAspectRatio="none"><g id="object-0" transform="matrix(1, 0, 0, 1, -4857.158782958984, -3.314793109893799)"><path id="path1756" d="M 5160.99 170.196 C 5160.99 164.125 5158.76 161.268 5153.76 161.268 L 5151.25 161.268 C 5149.78 161.268 5148.59 162.462 5148.59 163.934 L 5148.59 175.92 C 5148.59 177.393 5149.78 178.586 5151.25 178.586 L 5154.03 178.586 C 5158.94 178.586 5160.99 176.177 5160.99 170.196" style="fill:#7a7978;fill-opacity:1;fill-rule:nonzero;stroke:none" clip-path="url(#clipPath1757)"/><path id="path1758" d="M 5154.39 185.193 L 5151.25 185.193 C 5149.78 185.193 5148.59 186.386 5148.59 187.86 L 5148.59 201.274 C 5148.59 202.748 5149.78 203.941 5151.25 203.941 L 5154.75 203.941 C 5159.66 203.941 5161.8 200.726 5161.8 193.764 C 5161.8 188.05 5159.57 185.193 5154.39 185.193" style="fill:#7a7978;fill-opacity:1;fill-rule:nonzero;stroke:none" clip-path="url(#clipPath1759)"/><path id="path1762" d="M 5313.94 211.976 L 5310.26 211.976 C 5308.79 211.976 5307.59 210.782 5307.59 209.309 L 5307.59 203.126 C 5307.59 201.653 5308.79 200.46 5310.26 200.46 L 5313.94 200.46 C 5315.42 200.46 5316.61 201.653 5316.61 203.126 L 5316.61 209.309 C 5316.61 210.782 5315.42 211.976 5313.94 211.976 M 5297.41 211.976 L 5293.77 211.976 C 5292.53 211.976 5291.55 210.938 5291.63 209.705 C 5291.73 208.074 5291.77 204.749 5291.77 204.749 C 5289.75 210.548 5287.33 212.69 5281.52 212.69 C 5270.72 212.69 5265.72 203.405 5265.72 183.229 C 5265.72 162.161 5271.35 152.52 5283.58 152.52 C 5294.38 152.52 5299.29 158.769 5299.29 172.606 C 5299.29 173.87 5299.26 175.26 5299.21 176.442 C 5299.17 177.593 5298.22 178.498 5297.07 178.498 L 5292.72 178.498 C 5291.52 178.498 5290.55 177.51 5290.58 176.308 C 5290.6 175.324 5290.63 174.226 5290.63 173.23 C 5290.63 165.017 5288.49 161.268 5283.85 161.268 C 5278.22 161.268 5275.72 168.232 5275.72 183.408 C 5275.72 197.602 5278.22 204.12 5283.67 204.12 C 5288.31 204.12 5290.45 200.281 5290.45 191.978 C 5290.45 190.794 5289.49 189.836 5288.31 189.836 L 5285.09 189.836 C 5283.91 189.836 5282.95 188.877 5282.95 187.693 L 5282.95 185.372 C 5282.95 184.189 5283.91 183.229 5285.09 183.229 L 5297.41 183.229 C 5298.6 183.229 5299.56 184.189 5299.56 185.372 L 5299.56 209.833 C 5299.56 211.017 5298.6 211.976 5297.41 211.976 M 5309.58 151.984 L 5314.53 151.984 C 5315.58 151.984 5316.43 152.836 5316.43 153.886 L 5316.43 163.294 C 5316.43 163.372 5316.43 163.449 5316.42 163.526 L 5313.99 191.313 C 5313.91 192.296 5313.09 193.05 5312.1 193.05 C 5311.11 193.05 5310.29 192.3 5310.2 191.318 L 5307.69 163.53 C 5307.69 163.45 5307.68 163.37 5307.68 163.29 L 5307.68 153.886 C 5307.68 152.836 5308.53 151.984 5309.58 151.984 M 5256 211.976 L 5249.23 211.976 C 5248.09 211.976 5247.08 211.257 5246.71 210.185 L 5230.55 163.678 L 5230.37 163.678 L 5231.21 209.26 C 5231.24 210.752 5230.04 211.976 5228.54 211.976 L 5224.73 211.976 C 5223.26 211.976 5222.06 210.782 5222.06 209.309 L 5222.06 155.9 C 5222.06 154.428 5223.26 153.233 5224.73 153.233 L 5234.34 153.233 C 5235.48 153.233 5236.5 153.968 5236.87 155.057 L 5250.45 195.817 L 5250.54 195.817 L 5249.54 155.968 C 5249.5 154.469 5250.71 153.233 5252.21 153.233 L 5256 153.233 C 5257.47 153.233 5258.67 154.428 5258.67 155.9 L 5258.67 209.309 C 5258.67 210.782 5257.47 211.976 5256 211.976 M 5204.08 209.782 L 5202.55 201.313 C 5202.32 200.044 5201.21 199.12 5199.93 199.12 L 5191.08 199.12 C 5189.79 199.12 5188.69 200.044 5188.46 201.313 L 5186.93 209.782 C 5186.7 211.052 5185.59 211.976 5184.3 211.976 L 5179.6 211.976 C 5177.89 211.976 5176.62 210.388 5177 208.72 L 5189.1 155.312 C 5189.37 154.096 5190.45 153.233 5191.7 153.233 L 5200.56 153.233 C 5201.81 153.233 5202.89 154.092 5203.16 155.304 L 5215.42 208.713 C 5215.8 210.382 5214.53 211.976 5212.82 211.976 L 5206.7 211.976 C 5205.41 211.976 5204.31 211.053 5204.08 209.782 M 5155.01 211.976 L 5141.34 211.976 C 5139.87 211.976 5138.68 210.782 5138.68 209.309 L 5138.68 155.9 C 5138.68 154.428 5139.87 153.233 5141.34 153.233 L 5153.76 153.233 C 5164.83 153.233 5169.92 157.965 5169.92 168.321 C 5169.92 175.641 5167.69 179.926 5162.42 181.176 L 5162.42 181.265 C 5168.67 182.426 5171.44 187.157 5171.44 195.102 C 5171.44 206.709 5166.26 211.976 5155.01 211.976 M 5338.75 185.674 C 5337.92 184.529 5338.05 182.945 5339.08 181.97 C 5344.08 177.238 5359.04 165.908 5361.59 163.4 C 5366.77 158.314 5369.34 153.728 5362.58 148.928 C 5362.24 148.69 5361.85 148.532 5361.44 148.458 L 5319.66 140.906 C 5318.08 140.62 5317.05 139.078 5317.41 137.509 C 5319.31 129.27 5327.61 106.546 5325.04 100.592 C 5322.24 94.102 5315.26 97.209 5310.5 98.937 C 5304.26 101.201 5269.05 118.305 5260.38 120.961 C 5259.25 121.308 5258.01 120.93 5257.3 119.977 C 5256.28 118.594 5255.66 116.81 5254.94 115.321 C 5249.62 104.418 5244.42 86.95 5238.31 77.514 C 5235.26 72.797 5228.71 71.966 5225.08 76.54 L 5197.19 117.774 C 5196.25 119.169 5194.3 119.433 5193.02 118.34 L 5149.06 80.824 C 5144.1 77.161 5137.86 80.29 5137.57 86.192 C 5137.56 86.386 5137.57 86.586 5137.6 86.781 L 5143.59 126.758 C 5143.83 128.364 5142.67 129.806 5141.06 129.988 L 5141.02 129.992 C 5128.33 131.485 5111.06 131.326 5099.17 133.972 C 5094.87 134.928 5093.14 138.629 5093.77 142.78 C 5094.57 148.14 5112.11 165.009 5116.11 171.074 C 5116.28 171.341 5116.49 171.63 5116.69 171.933 C 5117.4 172.986 5117.32 174.373 5116.5 175.337 C 5112.29 180.28 5108.1 185.317 5103.76 190.128 C 5097.55 197.02 5080.59 207.99 5094.97 215.45 C 5095.24 215.59 5095.54 215.686 5095.84 215.734 L 5134.34 227.452 C 5135.94 227.706 5136.99 229.244 5136.66 230.824 L 5129.74 263.524 C 5129.7 263.748 5129.67 263.977 5129.68 264.205 C 5129.8 268.521 5131.6 272.132 5136.32 271.946 C 5136.63 271.934 5136.94 271.86 5137.22 271.749 L 5192.98 249.368 C 5194.31 248.853 5195.82 249.41 5196.49 250.666 L 5218.23 291.196 C 5218.33 291.382 5218.44 291.564 5218.58 291.725 C 5221.75 295.449 5227.6 295.461 5230.69 291.457 L 5258.59 250.218 C 5259.53 248.825 5261.47 248.56 5262.75 249.65 L 5307.83 287.993 C 5308.16 288.27 5308.55 288.488 5308.96 288.586 C 5313.85 289.741 5317.45 286.681 5318.14 281.86 C 5318.18 281.605 5318.17 281.342 5318.14 281.088 L 5312.78 239.113 C 5312.57 237.498 5313.77 236.045 5315.39 235.938 L 5356.74 233.21 C 5362.33 232.234 5364.71 226.304 5361.91 221.46 L 5338.75 185.674 Z" style="fill:#7a7978;fill-opacity:1;fill-rule:nonzero;stroke:none" clip-path="url(#clipPath1763)"/></g></svg>