<?xml version="1.0" encoding="utf-8"?>
<svg xmlns="http://www.w3.org/2000/svg" viewBox="259.875 56.4984 147.2598 247.0673" width="147.26px" height="247.067px" preserveAspectRatio="none"><defs><clipPath clipPathUnits="userSpaceOnUse" id="clipPath4188"><path d="M 0,276 H 276 V 0 H 0 Z" transform="translate(-192.82575,-176.89911)" id="path4188"/></clipPath></defs><g id="g4186" transform="matrix(1, 0, 0, 1, -12275.833568572998, -4.835546016693115)"><path id="path4187" d="m 0,0 c -10.99,14.312 -26.811,21.346 -44.24,25.155 -2.801,1.338 -2.062,10.093 0.716,11.247 3.054,1.269 11.58,0.932 19.586,1.032 6.093,0.076 10.943,-0.844 11.951,4.962 0.648,3.734 -0.277,8.498 -4.35,9.773 -5.942,1.859 -27.379,0.361 -35.226,0.361 -9.936,0 -20.676,1.292 -21.555,-4.859 -0.343,-2.397 3.52,-5.1 -0.396,-7.361 -0.929,-0.536 -17.575,-0.514 -21.401,-1.294 -9.16,-1.868 -11.214,-13.121 -2.875,-14.918 5.765,-1.243 15.54,0.027 21.797,-0.891 V 9.742 c 0,-1.646 0.897,-3.102 2.244,-4.047 0.381,-0.267 0.499,-0.617 -0.01,-1.176 -12.698,-4.863 -27.286,-16.483 -27.936,-30.788 -1.317,-29.021 -0.253,-64.248 -0.098,-93.557 0.037,-6.847 5.606,-12.374 12.453,-12.374 h 54.805 c 6.864,0 12.433,5.553 12.453,12.417 l 0.264,92.627 c -2.435,14.853 -12.577,23.618 -25.042,30.028 -0.819,0.421 -0.979,1.474 -0.386,2.177 1.138,1.349 1.24,3.66 1.513,3.926 0.398,0.387 9.379,-2.599 10.653,-3.129 5.167,-2.15 11.912,-6.871 16.04,-10.651 C -13.4,-9.969 -4.862,-25.315 4.436,-19.41 11.804,-14.73 3.552,-4.626 0,0" style="fill:#7a7978;fill-opacity:1;fill-rule:nonzero;stroke:none" transform="matrix(1.3333333,0,0,-1.3333333,12673.101,132.13453)" clip-path="url(#clipPath4188)"/></g></svg>