<?xml version="1.0" encoding="utf-8"?>
<svg xmlns="http://www.w3.org/2000/svg" viewBox="232.0388 89.3218 277.6059 182.7274" width="277.606px" height="182.727px" preserveAspectRatio="none"><path id="path2790" d="M 0,0 C -15.038,0.407 -13.191,-23.294 2.092,-19.631 12.379,-17.165 11.376,-0.308 0,0 m -49.439,12.676 c -0.569,0.55 -7.346,-4.282 -8.427,-5.044 -2.808,-1.979 -6.166,-4.531 -8.741,-6.779 -2.893,-2.526 -15.213,-14.514 -14.575,-17.776 0.669,-3.422 16.811,-17.911 20.376,-20.552 40.488,-29.993 86.663,-17.64 115.583,20.683 C 55.325,-14.301 43.756,-2.97 41.26,-0.781 39.474,0.786 23.642,12.983 22.458,11.859 42.057,-24.83 1.798,-63.23 -34.459,-42.99 c -20.23,11.294 -24.986,35.582 -14.98,55.666 m 26.797,39.783 c 43.198,3.56 79.825,-20.766 105.535,-53.274 5.649,-7.143 10.004,-10.733 5.263,-19.918 -6.507,-12.609 -23.809,-30.524 -35.083,-39.25 -56.665,-43.856 -118.463,-24.349 -160.496,27.361 -1.983,2.44 -10.003,12.662 -10.488,14.863 -1.416,6.421 10.538,19.743 14.948,24.737 20.976,23.755 47.705,42.793 80.321,45.481" style="fill:#7a7978;fill-opacity:1;fill-rule:nonzero;stroke:none" transform="matrix(1.3333332538604736, 0, 0, -1.3333332538604736, 389.4078750610352, 159.72867918014526)" clip-path="url(#clipPath2791)"/></svg>