<?xml version="1.0" encoding="iso-8859-1"?>
<!-- Uploaded to: SVG Repo, www.svgrepo.com, Generator: SVG Repo Mixer Tools -->
<svg fill="#7a7978" height="800px" width="800px" version="1.1" id="Layer_1" xmlns="http://www.w3.org/2000/svg" xmlns:xlink="http://www.w3.org/1999/xlink" 
	 viewBox="0 0 512 512" xml:space="preserve">
<g>
	<g>
		<path d="M495.299,0H259.114c-14.858,0-22.295,18.021-11.807,28.507l35.431,35.43C282.73,63.945,4.893,341.784,4.893,341.784
			c-6.523,6.523-6.523,17.097,0,23.615c6.523,6.523,17.091,6.524,23.615,0l65.287-65.288c0,0.001,0.001,0.002,0.001,0.002
			l23.62,23.62l-11.81,11.81c-34.205,34.211-36.554,81.533-5.567,112.52c6.523,6.523,17.091,6.524,23.615,0
			c6.523-6.518,6.523-17.092,0-23.615c-20.625-20.625-12.058-47.655,5.567-65.29l11.81-11.81l70.854,70.854
			c11.98,11.991,33.348,13.893,47.231,0l188.946-188.946l35.431,35.43c10.443,10.443,28.507,3.145,28.507-11.807V16.7
			C511.999,7.475,504.519,0,495.299,0z M242.807,387.316l-59.05-177.164l38.542-38.54l59.054,177.15L242.807,387.316z
			 M378.607,251.49L332.76,113.96l91.683,91.683L378.607,251.49z"/>
	</g>
</g>
<g>
	<g>
		<path d="M182.702,412.641c-6.524-6.523-17.092-6.523-23.615,0l-11.807,11.807c-6.523,6.518-6.523,17.097,0,23.615
			c6.523,6.523,17.091,6.524,23.615,0l11.807-11.807C189.226,429.739,189.226,419.16,182.702,412.641z"/>
	</g>
</g>
<g>
	<g>
		<path d="M123.654,471.684c-6.524-6.523-17.092-6.523-23.615,0l-11.807,11.807c-6.523,6.518-6.523,17.097,0,23.615
			c6.523,6.523,17.091,6.524,23.615,0l11.807-11.807C130.177,488.782,130.177,478.203,123.654,471.684z"/>
	</g>
</g>
<g>
	<g>
		<path d="M182.701,483.492l-11.807-11.807c-6.523-6.523-17.092-6.523-23.615,0c-6.523,6.518-6.523,17.097,0,23.615l11.807,11.807
			c6.523,6.523,17.091,6.524,23.615,0C189.224,500.589,189.224,490.01,182.701,483.492z"/>
	</g>
</g>
</svg>