<?xml version="1.0" encoding="utf-8"?>
<svg xmlns="http://www.w3.org/2000/svg" viewBox="345.9501 99.7572 245.3199 222.9893" width="245.32px" height="222.989px" preserveAspectRatio="none"><g id="g630" transform="matrix(1, 0, 0, 1, -1267.3899154663086, 27.251969814300544)"><path id="path631" d="m 0,0 c -2.82,-0.322 -5.403,-3.667 -4.088,-6.488 2.103,-4.516 8.029,-3.581 9.147,1.059 C 5.68,-2.85 2.614,0.298 0,0" style="fill:#7a7978;fill-opacity:1;fill-rule:nonzero;stroke:none" transform="matrix(1.3333333,0,0,-1.3333333,1765.7491,187.02493)" clip-path="url(#clipPath632)"/><path id="path633" d="m 0,0 c -4.14,0 -7.496,3.356 -7.496,7.496 0,4.14 3.356,7.496 7.496,7.496 4.14,0 7.496,-3.356 7.496,-7.496 C 7.496,3.356 4.14,0 0,0 m -7.933,-27.274 c -2.905,0 -5.261,2.356 -5.261,5.261 0,2.906 2.356,5.261 5.261,5.261 2.906,0 5.261,-2.355 5.261,-5.261 0,-2.905 -2.355,-5.261 -5.261,-5.261 m -2.501,-28.102 c -4.708,-7.848 -14.542,-14.864 -23.052,-17.992 -2.211,-0.813 -6.313,-1.436 -7.99,-2.272 -0.573,-0.286 -2.473,-2.845 -3.37,-3.593 -2.912,-2.428 -10.204,-5.416 -13.955,-5.147 -4.751,0.34 -1.321,6.628 -0.531,9.183 -12.383,1.409 -23.428,7.909 -32.793,15.759 -3.07,-4.25 -7.116,-7.982 -11.507,-10.857 -2.07,-1.356 -10.169,-6.603 -11.045,-1.769 -0.395,2.179 3.038,13.474 4.023,16.116 0.67,1.794 1.525,3.54 2.515,5.179 -2.339,4.381 -4.135,9.137 -5.333,13.968 -1.217,4.909 -3.301,11.238 4.543,8.206 6.797,-2.627 13.055,-8.85 17.16,-14.716 5.915,6.329 13.463,10.521 21.431,13.731 -0.73,2.374 -3.997,8.874 -3.659,10.975 0.483,3.009 8.502,2.586 10.811,2.396 5.745,-0.473 10.948,-3.171 15.542,-6.447 1.302,-0.928 3.968,-3.701 5.079,-4.083 1.263,-0.435 3.397,-0.485 4.936,-0.927 10.023,-2.878 17.284,-7.599 24.121,-15.458 3.562,-4.094 6.225,-6.999 3.074,-12.252 m -9.34,56.674 c 3.634,0 6.58,-2.946 6.58,-6.581 0,-3.634 -2.946,-6.58 -6.58,-6.58 -3.634,0 -6.58,2.946 -6.58,6.58 0,3.635 2.946,6.581 6.58,6.581 m 57.895,-32.242 c 0,20.212 -7.311,38.803 -19.559,53.564 -1.393,1.68 -0.173,4.224 2.009,4.224 v 0 c 4.426,0 8.014,3.587 8.014,8.013 v 0 c 0,4.426 -3.588,8.014 -8.014,8.014 h -148.89 c -4.426,0 -8.014,-3.588 -8.014,-8.014 v 0 c 0,-4.426 3.588,-8.013 8.014,-8.013 2.182,0 3.402,-2.544 2.009,-4.224 -12.248,-14.761 -19.559,-33.352 -19.559,-53.564 0,-30.393 16.521,-57.127 41.528,-72.665 h -2.328 c -5.733,0 -10.381,-4.648 -10.381,-10.381 0,-5.733 4.648,-10.381 10.381,-10.381 h 105.59 c 5.733,0 10.381,4.648 10.381,10.381 0,5.733 -4.648,10.381 -10.381,10.381 h -2.328 c 25.008,15.538 41.528,42.272 41.528,72.665" style="fill:#7a7978;fill-opacity:1;fill-rule:nonzero;stroke:none" transform="matrix(1.3333333,0,0,-1.3333333,1807.8319,129.66653)" clip-path="url(#clipPath634)"/></g></svg>