<?xml version="1.0" encoding="utf-8"?>
<svg xmlns="http://www.w3.org/2000/svg" viewBox="146.6787 43.1834 195.4189 245.3364" width="195.419px" height="245.336px" preserveAspectRatio="none"><g id="g3420" transform="matrix(1, 0, 0, 1, -10027.612037658691, -18.148610591888428)"><path id="path3421" d="M 0,0 C 0.018,-0.187 0.226,-1.034 0.295,-1.477 0.362,-1.906 0.504,-2.49 0.591,-2.954 0.635,-3.19 0.8,-3.746 0.886,-4.135 0.963,-4.483 1.088,-4.953 1.182,-5.317 1.214,-5.443 1.383,-5.872 1.477,-6.203 1.541,-6.43 1.684,-6.799 1.772,-7.089 1.853,-7.353 1.975,-7.694 2.068,-7.975 7.383,-21.732 17.293,-32.301 30.72,-38.4 c 0.454,-0.188 1.023,-0.416 1.477,-0.591 0.268,-0.103 0.584,-0.186 0.886,-0.295 0.335,-0.131 0.56,-0.284 0.591,-0.296 0.265,-0.098 0.604,-0.2 0.886,-0.295 0.282,-0.095 0.612,-0.208 0.886,-0.295 0.35,-0.112 0.783,-0.182 1.182,-0.296 0.342,-0.094 0.767,-0.265 0.886,-0.295 0.374,-0.095 0.82,-0.212 1.182,-0.296 0.451,-0.104 1.016,-0.206 1.476,-0.295 0.441,-0.083 0.975,-0.259 1.182,-0.295 0.558,-0.098 1.227,-0.217 1.772,-0.296 0.33,-0.043 0.691,-0.093 1.054,-0.141 h 57.666 c 0.326,0.053 0.654,0.106 0.948,0.141 0.551,0.083 1.216,0.195 1.773,0.296 0.456,0.082 1.005,0.2 1.476,0.295 0.338,0.068 0.8,0.211 1.182,0.295 0.356,0.079 0.802,0.204 1.182,0.296 0.37,0.089 0.808,0.197 1.181,0.295 0.14,0.037 0.559,0.202 0.886,0.296 0.248,0.071 0.602,0.206 0.886,0.295 0.268,0.083 0.604,0.202 0.887,0.295 0.283,0.094 0.604,0.198 0.886,0.296 0.031,0.011 0.201,0.153 0.59,0.295 0.423,0.179 0.714,0.218 0.887,0.295 13.281,5.928 22.918,15.593 28.652,28.948 0.14,0.378 0.284,0.56 0.295,0.591 0.098,0.275 0.204,0.607 0.296,0.886 0.094,0.287 0.209,0.613 0.295,0.886 0.09,0.284 0.223,0.636 0.296,0.887 0.094,0.323 0.256,0.738 0.295,0.886 0.097,0.366 0.21,0.818 0.295,1.181 0.091,0.382 0.219,0.828 0.296,1.182 0.083,0.379 0.231,0.852 0.295,1.181 0.089,0.456 0.23,1.053 0.296,1.477 0.091,0.59 0.255,1.516 0.295,2.068 -0.033,0.438 0.102,1.165 0,1.477 -0.547,1.678 -2.94,1.555 -4.431,1.772 -5.834,0.312 -12.121,-0.042 -18.018,0 -0.482,0.001 -0.995,0 -1.477,0 -3.442,0.021 -6.897,-0.014 -10.339,0 -0.978,0.001 -1.971,-0.003 -2.954,0 -0.981,0.005 -1.973,-0.005 -2.954,0 -1.476,0.012 -2.926,-0.027 -4.43,0 C 99.591,4.743 97.565,4.722 95.539,4.709 90.583,4.68 86.548,8.686 86.548,13.642 v 3.343 c 0.337,0.761 1.896,2.622 4.135,2.946 0.437,0.063 0.811,0.18 1.182,0.295 0.43,0.134 0.803,0.179 1.181,0.295 0.426,0.131 0.809,0.18 1.182,0.296 0.269,0.083 0.601,0.202 0.886,0.295 0.282,0.092 0.603,0.199 0.886,0.296 0.293,0.1 0.603,0.195 0.887,0.295 0.431,0.152 1.013,0.411 1.476,0.591 10.727,4.868 19.939,13.57 24.517,24.517 0.087,0.206 0.16,0.532 0.296,0.886 0.1,0.262 0.194,0.596 0.295,0.886 0.093,0.266 0.214,0.625 0.296,0.886 0.089,0.289 0.254,0.734 0.295,0.886 0.089,0.33 0.285,0.841 0.295,0.887 0.076,0.345 0.277,1.059 0.296,1.181 0.073,0.484 0.295,1.121 0.295,1.182 -10e-4,0.358 0.073,0.901 0,1.181 -0.176,0.676 -1.469,1.442 -2.068,1.773 H 23.04 c -1.81,-0.967 -1.849,-1.615 -1.772,-3.545 0.002,-0.061 0.221,-0.719 0.295,-1.182 0.025,-0.153 0.217,-0.811 0.296,-1.181 0.009,-0.046 0.202,-0.51 0.295,-0.886 0.024,-0.099 0.206,-0.575 0.295,-0.887 0.056,-0.194 0.426,-1.003 0.591,-1.476 4.838,-11.502 13.433,-20.069 24.812,-25.108 0.468,-0.177 1.151,-0.481 1.477,-0.591 0.289,-0.097 0.602,-0.201 0.887,-0.295 0.289,-0.096 0.608,-0.207 0.886,-0.296 0.288,-0.092 0.622,-0.215 0.886,-0.295 0.374,-0.114 0.761,-0.17 1.181,-0.296 0.369,-0.11 0.776,-0.179 1.182,-0.295 0.384,-0.109 0.767,-0.177 1.181,-0.295 0.441,-0.127 2.426,-0.066 3.25,-0.591 0.562,-0.358 0.684,-2.74 0.669,-5.487 -0.028,-5.032 -4.113,-9.059 -9.144,-9.126 -0.03,0 -0.061,0 -0.091,-0.001 -1.308,-0.027 -2.566,0.015 -3.84,0 -1.768,-0.019 -3.549,0.01 -5.317,0 -0.98,-0.002 -1.977,0 -2.954,0 -2.753,-0.012 -5.519,0.015 -8.271,0 -0.39,-0.001 -0.799,0.001 -1.182,0 -5.802,-0.029 -11.626,0.087 -17.427,0 -0.313,-0.01 -0.649,0.009 -0.887,0 -2.051,-0.037 -4.159,0.121 -6.203,0 -1.516,-0.233 -4.033,-0.114 -4.43,-2.068 -0.037,-0.177 0.011,-0.4 0,-0.59 C -0.302,1.963 -0.048,0.492 0,0" style="fill:#7a7978;fill-opacity:1;fill-rule:nonzero;stroke:none" transform="matrix(1.3333333,0,0,-1.3333333,10174.703,250.55373)" clip-path="url(#clipPath3422)"/><path id="path3423" d="m 0,0 c -13.693,0 -24.833,-11.14 -24.833,-24.833 v -49.338 h 9.031 v 49.338 c 0,8.713 7.089,15.802 15.802,15.802 8.713,0 15.803,-7.089 15.803,-15.802 v -6.775 c 0,-2.493 2.022,-4.515 4.516,-4.515 2.493,0 4.515,2.022 4.515,4.515 v 6.775 C 24.834,-11.14 13.693,0 0,0" style="fill:#7a7978;fill-opacity:1;fill-rule:nonzero;stroke:none" transform="matrix(1.3333333,0,0,-1.3333333,10311.137,61.332)" clip-path="url(#clipPath3424)"/><path id="path3425" d="M 0,0 V -35.791 H 9.031 V 0 c 0,13.693 -11.14,24.833 -24.833,24.833 -13.693,0 -24.833,-11.14 -24.833,-24.833 v -6.774 c 0,-2.494 2.022,-4.516 4.516,-4.516 2.493,0 4.515,2.022 4.515,4.516 V 0 c 0,8.713 7.089,15.803 15.802,15.803 C -7.089,15.803 0,8.713 0,0" style="fill:#7a7978;fill-opacity:1;fill-rule:nonzero;stroke:none" transform="matrix(1.3333333,0,0,-1.3333333,10253.934,112.5052)" clip-path="url(#clipPath3426)"/></g></svg>