<?xml version="1.0" encoding="utf-8"?>
<svg xmlns="http://www.w3.org/2000/svg" viewBox="187.2395 64.786 245.1411 234.6809" width="245.141px" height="234.681px" preserveAspectRatio="none"><g id="g1132" transform="matrix(1, 0, 0, 1, -2978.1899757385254, -1.8735930919647217)"><path id="path1133" d="m 0,0 c -6.307,-18.063 5.071,-33.026 -14.708,-42.226 -16.74,-7.786 -31.081,7.88 -42.981,10.441 -11.899,2.56 -21.166,-2.265 -27.882,4.516 -6.375,6.436 -1.306,13.758 -2.962,25.508 -1.657,11.749 -11.218,22.65 -1.725,35.115 7.732,10.154 27.024,7.655 35.918,9.923 14.913,3.804 20.301,9.058 29.126,13.874 C -15.663,62.364 3.957,58.315 6.37,39.94 8.135,26.507 7.365,21.094 0,0 m 63.247,-67.136 -43.513,35.317 c 20.529,28.905 15.021,70.234 -9.671,94.252 -37.016,36.006 -101.015,21.831 -119.244,-26.471 -23.85,-63.196 40.963,-122.684 101.736,-92.435 1.911,0.951 9.872,6.47 11.328,6.126 0.732,-0.173 39.795,-38.178 45.066,-41.385 1.799,-1.095 4.345,-1.956 6.449,-1.556 5.634,1.069 10.972,4.638 13.127,10.06 2.919,7.344 -0.463,11.118 -5.278,16.092" style="fill:#7a7978;fill-opacity:1;fill-rule:nonzero;stroke:none" transform="matrix(1.3333333,0,0,-1.3333333,3317.7575,176.82347)" clip-path="url(#clipPath1134)"/><path id="path1135" d="m 0,0 c 0,12.768 -10.35,23.118 -23.118,23.118 -12.768,0 -23.118,-10.35 -23.118,-23.118 0,-12.768 10.35,-23.118 23.118,-23.118 C -10.35,-23.118 0,-12.768 0,0" style="fill:#7a7978;fill-opacity:1;fill-rule:nonzero;stroke:none" transform="matrix(1.3333333,0,0,-1.3333333,3288.0033,167.99547)" clip-path="url(#clipPath1136)"/></g></svg>