<?xml version="1.0" encoding="utf-8"?>
<svg xmlns="http://www.w3.org/2000/svg" viewBox="248.1828 66.776 245.318 227.8185" width="245.318px" height="227.819px" preserveAspectRatio="none"><defs><clipPath clipPathUnits="userSpaceOnUse" id="clipPath501"><path d="M 1164 364.521 L 1532 364.521 L 1532 -3.479 L 1164 -3.479 L 1164 364.521 Z" id="path501"/></clipPath><clipPath clipPathUnits="userSpaceOnUse" id="clipPath503"><path d="M 1164 372.078 L 1532 372.078 L 1532 4.079 L 1164 4.079 L 1164 372.078 Z" id="path503"/></clipPath></defs><g id="object-0" transform="matrix(1, 0, 0, 1, -977.1583862304688, -3.314793109893799)"><path id="path500" d="M 1321.96 154.308 L 1332.77 130.877 C 1339.49 124.188 1353.4 127.888 1354.92 137.446 C 1355.69 142.306 1353.81 153.253 1353.22 158.748 C 1350.62 182.845 1347.99 205.504 1335.19 226.557 C 1336.47 241.981 1341.16 259.116 1341.75 274.381 C 1342 280.642 1341.37 286.794 1333.87 287.942 C 1311.24 291.409 1286.55 290.638 1263.76 294.43 C 1258.37 294.137 1255.67 290.681 1254.48 285.72 C 1250.63 269.762 1251.87 249.664 1248.12 233.485 C 1246.95 228.458 1244.37 225.813 1242.69 221.589 C 1236.1 204.992 1236.69 186.362 1234.35 168.858 C 1231.6 148.209 1226.44 124.909 1225.39 104.382 C 1224.94 95.676 1227.5 89.842 1237.35 89.878 C 1248.03 89.917 1249.04 99.35 1250.13 107.696 C 1251.89 121.126 1251.98 136.393 1254.46 149.578 C 1255.65 155.85 1262.81 156.901 1262.57 148.104 C 1262.03 128.69 1256.65 107.38 1255.93 87.88 C 1255.69 81.3 1256.24 75.03 1262.77 71.629 C 1273.81 65.882 1279.52 77.442 1281.27 86.477 C 1285.06 106.109 1284.95 127.346 1288.27 147.141 C 1288.81 149.016 1292.64 148.93 1294.19 148.417 C 1296.26 147.733 1295.64 141.794 1295.57 139.836 C 1295.03 124.573 1291.3 108.124 1290.6 92.828 C 1290.15 83.196 1290.76 72.246 1303.38 72.552 C 1318.13 72.91 1315.16 88.502 1316.18 98.608 C 1318.05 117.17 1319.84 135.781 1321.96 154.308" style="fill:#7a7978;fill-opacity:1;fill-rule:nonzero;stroke:none" clip-path="url(#clipPath501)"/><path id="path502" d="M 1419.1 295.986 C 1417.45 297.484 1413.94 298.327 1411.74 297.7 C 1396.15 292.283 1375.4 291.14 1360.38 285.471 C 1352.65 282.551 1355.65 278.284 1354.96 271.91 C 1353.44 257.863 1350.85 243.859 1349.14 229.828 C 1362.13 206.822 1362.69 181.93 1367.61 156.63 C 1372.47 131.62 1379.03 106.812 1384.51 81.932 C 1388.92 74.647 1399.86 75.34 1404.51 82.103 C 1408.21 87.503 1406.7 92.391 1405.76 98.218 C 1403.13 114.407 1398.19 130.34 1395.38 146.518 C 1397.34 152.468 1401.5 152.623 1403.63 146.432 C 1409.89 128.298 1410.25 103.695 1417.07 85.596 C 1419.56 78.982 1423.48 73.528 1431.33 74.23 C 1436.31 74.676 1440.06 79.062 1440.75 83.83 C 1442.12 93.282 1436.06 115.97 1433.96 126.414 C 1432.1 135.68 1430.03 144.954 1427.76 154.131 C 1427.58 157.414 1431.7 159.463 1434.18 157.174 C 1437.94 153.706 1443.83 114.288 1446.02 106.282 C 1448.23 98.176 1452.01 92.27 1461.68 94.267 C 1465.67 95.09 1471.49 100.706 1470.56 105.176 L 1447.02 212.904 C 1445.89 223.404 1437.52 231.651 1433.98 240.306 C 1428.11 254.64 1427.1 274.583 1422.25 289.646 C 1421.68 291.422 1420.42 294.795 1419.1 295.986" style="fill:#7a7978;fill-opacity:1;fill-rule:nonzero;stroke:none" clip-path="url(#clipPath503)"/></g></svg>