<?xml version="1.0" encoding="utf-8"?>
<svg xmlns="http://www.w3.org/2000/svg" viewBox="238.7432 59.5334 160.0068 245.7405" width="160.007px" height="245.74px" preserveAspectRatio="none"><g id="g2940" transform="matrix(1, 0, 0, 1, -8401.254257202148, -1.596083164215088)"><path id="path2941" d="m 0,0 c 12.744,2.168 36.171,-16.673 45.149,-25.332 11.019,-10.627 30.88,-36.993 32.65,-52.156 3.061,-26.224 -24.414,-12.67 -38.415,-11.625 -14.32,1.068 -32.507,-2.686 -45.572,-8.62 -4.946,-2.246 -13.119,-6.818 -4.67,-11.002 11.494,-1.052 24.279,0.935 35.612,-0.104 9.761,-0.895 8.667,-15.92 -0.076,-17.208 -4.509,-0.663 -7.037,2.069 -10.78,2.531 -17.697,2.183 -47.145,-8.122 -50.539,18.334 -2.489,19.396 15.19,28.486 22.893,43.698 4.295,8.483 6.133,19.964 5.62,29.435 C -8.643,-22.532 -14.32,-2.436 0,0" style="fill:#7a7978;fill-opacity:1;fill-rule:nonzero;stroke:none" transform="matrix(1.3333333,0,0,-1.3333333,8695.9571,61.359333)" clip-path="url(#clipPath2942)"/><path id="path2943" d="m 0,0 c 1.322,-1.19 2.142,-6.503 1.493,-10.501 -0.433,-2.665 -2.792,-4.589 -5.492,-4.591 l -102.781,-0.043 c -6.764,0.761 -5.779,9.174 -4.054,13.36 1.243,3.018 4.952,3.1 5.662,6.251 1.737,7.709 -0.994,20.704 0.192,29.136 0.272,1.932 1.288,4.416 3.467,4.822 L -7.91,38.32 c 1.52,-0.785 2.698,-2.356 2.966,-4.049 C -3.608,25.833 -6.185,14.311 -4.755,5.77 -3.982,1.154 -2.228,2.007 0,0" style="fill:#7a7978;fill-opacity:1;fill-rule:nonzero;stroke:none" transform="matrix(1.3333333,0,0,-1.3333333,8789.4635,286.69)" clip-path="url(#clipPath2944)"/></g></svg>