<?xml version="1.0" encoding="utf-8"?>
<svg xmlns="http://www.w3.org/2000/svg" viewBox="274.2414 58.1071 193.1999 245.1565" width="193.2px" height="245.156px" preserveAspectRatio="none"><path id="path2266" d="m 0,0 c 0.577,-2.049 5.174,-2.61 5.985,0.137 0.649,2.196 -0.058,6.119 0.145,8.691 1.015,12.887 1.316,29.791 3.466,42.071 1.377,7.865 8.018,14.221 16.05,10.063 6.832,-3.538 5.986,-11.529 5.64,-18.14 -0.767,-14.692 -3.572,-30.15 -4.789,-44.893 -0.118,-3.119 3.509,-3.841 5.71,-2.401 1.824,1.193 5.418,27.732 6.644,32.261 3.792,14.006 20.256,11.178 19.582,-1.861 -5.446,-25.943 -6.617,-54.432 -12.377,-80.095 -0.639,-2.851 -1.483,-5.57 -2.615,-8.261 -1.742,-4.143 -8.034,-11.804 -8.591,-14.524 -1.698,-8.306 0.959,-20.939 -0.173,-29.73 -0.272,-1.458 -1.616,-2.79 -3.062,-3.058 l -78.256,-0.06 c -1.982,-0.234 -3.991,1.128 -4.362,3.118 -1.041,5.574 0.554,14.309 0.01,20.398 -0.973,10.879 -16.705,20.223 -21.916,30.436 -3.001,5.883 -13.21,42.043 -13.515,48.343 -0.737,15.214 16.576,17.85 22.135,5.803 3.944,-8.547 5.166,-20.307 9.341,-29.065 11.958,-2.692 23.235,-6.032 32.259,-14.667 2.193,-2.097 4.386,-8.314 8.372,-4.828 4.3,3.762 -5.191,11.876 -8.189,14.186 -7.288,5.616 -16.472,9.071 -25.347,11.377 l -1.036,1.004 -6.036,75.164 c 0.593,7.883 7.942,13.067 15.474,9.702 5.39,-2.408 6.07,-7.77 6.788,-12.928 2.118,-15.234 2.586,-31.38 4.243,-46.732 0.734,-3.92 6.604,-3.446 6.682,0.497 1.206,19.332 -1.711,40.785 -0.055,59.861 0.711,8.188 8.342,15.244 16.296,10.795 C -3.542,71.571 0,66.654 0,64.563 Z" style="fill:#7a7978;fill-opacity:1;fill-rule:nonzero;stroke:none" transform="matrix(1.3333332538604736, 0, 0, -1.3333332538604736, 389.5038146972657, 156.8288073539734)" clip-path="url(#clipPath2267)"/></svg>