<?xml version="1.0" encoding="utf-8"?>
<svg xmlns="http://www.w3.org/2000/svg" viewBox="58.4774 56.5172 245.1776 203.1094" width="245.178px" height="203.109px" preserveAspectRatio="none"><defs><clipPath clipPathUnits="userSpaceOnUse" id="clipPath126"><path d="M 0,276 H 276 V 0 H 0 Z" transform="translate(-202.76181,-96.039602)" id="path126"/></clipPath></defs><g id="layer-MC2" transform="matrix(1, 0, 0, 1, -2.9342131614685023, -18.130630493164062)"><path id="path125" d="m 0,0 c -1.171,0.624 -2.473,1.018 -2.985,2.431 -2.225,18.467 -1.129,38.201 -3.662,56.526 -3.637,26.318 -28.46,10.481 -45.166,15.273 -9.577,2.747 -18.142,11.962 -28.485,12.28 -4.697,0.144 -9.332,-3.265 -11.881,-7.021 L -115.59,32.834 c 0.848,15.799 -6.847,31.086 -17.593,42.663 -0.797,0.858 15.006,-8.177 19.683,-32.037 0.272,-0.24 0.714,0.957 0.802,1.163 2.144,5.057 2.282,12.6 1.149,17.934 -0.809,3.812 -3.659,10.922 -11.668,18.811 -16.846,16.595 -17.95,21.515 -20.371,32.181 -0.71,3.125 -0.29,5.55 -0.289,8.631 0.001,4.585 -3.783,-0.909 -4.659,-2.211 -4.572,-6.8 -8.592,-27.191 -8.131,-35.436 0.256,-4.584 1.494,-9.117 3.139,-13.37 6.782,-16.399 14.98,-24.109 23.453,-29.462 3.214,-2.03 7.072,-4.045 10.996,-3.552 l 0.122,-0.103 c 0,0 0.878,-3.141 0.106,-9.037 -0.156,-1.188 -0.267,-2.2 -0.344,-3.068 -8.347,-3.449 -33.32,4.499 -35.377,-8.686 -0.998,-6.398 8.86,-12.062 13.634,-14.706 33.008,-18.274 101.157,-31.556 138.934,-30.882 6.7,0.119 26.968,0.836 28.92,8.772 C 29.857,-7.603 7.42,-3.956 0,0" style="fill:#7a7978;fill-opacity:1;fill-rule:nonzero;stroke:none" transform="matrix(1.3333333,0,0,-1.3333333,270.34907,239.9472)" clip-path="url(#clipPath126)"/></g></svg>