<?xml version="1.0" encoding="utf-8"?>
<svg xmlns="http://www.w3.org/2000/svg" viewBox="287.6729 86.2239 261.7209 215.682" width="261.721px" height="215.682px" preserveAspectRatio="none"><defs><clipPath clipPathUnits="userSpaceOnUse" id="clipPath1005"><path d="M 0,276 H 276 V 0 H 0 Z" transform="translate(-218.72573,-182.4858)" id="path1005"/></clipPath></defs><g id="g1003" transform="matrix(1, 0, 0, 1, -2489.357666015625, 16.567848205566413)"><path id="path1004" d="m 0,0 22.732,18.352 c 1.051,0.848 0.67,2.533 -0.644,2.846 L 8.715,24.387 c -0.72,0.171 -1.233,0.807 -1.249,1.546 L 7.169,39.679 C 7.14,41.029 5.573,41.757 4.523,40.908 L -18.21,22.557 c -0.392,-0.317 -0.615,-0.797 -0.604,-1.3 l 0.273,-12.655 c 0.011,-0.503 -0.212,-0.984 -0.604,-1.3 L -31.559,-2.72 C -39.436,5.821 -51.064,10.61 -64.724,8.481 -75.358,6.823 -83.977,0.655 -90.081,-8.012 c -7.125,10.839 -19.57,17.507 -32.638,16.984 -36.924,-1.478 -45.591,-43.594 -25.83,-70.401 5.275,-7.155 11.995,-13.809 19.284,-20.169 l -21.725,-17.538 -6.221,7.706 c -0.468,0.579 -1.376,0.484 -1.713,-0.179 l -13.915,-27.388 c -0.401,-0.79 0.32,-1.682 1.176,-1.457 l 29.706,7.827 c 0.719,0.19 1.004,1.058 0.537,1.637 l -5.534,6.854 22.667,18.3 c 11.693,-9.723 24.298,-18.84 34.517,-28.128 0,0 13.53,10.908 19.853,16.198 16.84,14.091 44.693,35.82 48.559,58.357 1.988,11.591 -0.513,22.869 -6.249,31.622 l 12.498,10.09 c 0.392,0.316 0.909,0.433 1.399,0.316 l 12.312,-2.935 c 0.49,-0.117 1.006,0 1.398,0.316" style="fill:#7a7978;fill-opacity:1;fill-rule:nonzero;stroke:none" transform="matrix(1.3333333,0,0,-1.3333333,3007.6343,124.6856)" clip-path="url(#clipPath1005)"/></g></svg>