<?xml version="1.0" encoding="utf-8"?>
<svg xmlns="http://www.w3.org/2000/svg" viewBox="26.0815 31.1637 164.7964 245.3061" width="164.796px" height="245.306px" preserveAspectRatio="none"><g id="g2680" transform="matrix(1, 0, 0, 1, -7835.520111083984, -30.18327760696411)"><path id="path2681" d="m 0,0 c -4.542,-7.451 -13.234,-24.137 -16.123,-23.207 -3.294,1.061 0.081,18.348 1.383,22.154 2.759,8.063 4.692,15.311 11.063,21.496 7.497,7.28 13.585,6.787 15.471,4.286 C 13.596,22.34 4.231,6.941 0,0 m -32.132,-21.827 c 0,0 -8.154,39.821 -5.049,44.049 4.452,6.063 16.179,4.145 18.813,-0.376 2.3,-3.947 -6.751,-43.762 -6.751,-43.762 -0.906,-3.708 -6.201,-3.641 -7.013,0.089 m -10.945,-2.159 -27.654,41.501 c -0.933,1.749 1.106,6.671 3.067,6.961 19.229,2.845 24.672,-22.861 26.487,-34.21 1.142,-7.137 1.088,-11.814 1.352,-12.928 0.469,-1.976 -2.21,-3.067 -3.252,-1.324 M 6.554,107.493 c -11.162,7.03 -27.634,10.655 -40.699,9.513 -43.65,-3.816 -68.063,-45.862 -50.584,-86.101 7.937,-18.273 23.837,-35.523 33.322,-53.149 0.087,-0.161 0.164,-0.329 0.22,-0.503 1.086,-3.344 -0.61,-6.705 -1.587,-10.203 -0.718,-2.575 -2.657,-17.679 -2.639,-24.097 0.015,-5.374 4.384,-9.719 9.757,-9.719 h 34.352 c 5.456,0 9.835,4.471 9.757,9.925 -0.108,7.682 -2.152,25.347 -3.114,28.939 -0.428,1.594 -0.34,5.212 0.252,7.5 0.06,0.234 0.156,0.455 0.274,0.666 9.741,17.438 22.885,31.279 31.273,49.276 12.601,27.034 5.343,61.625 -20.584,77.953" style="fill:#7a7978;fill-opacity:1;fill-rule:nonzero;stroke:none" transform="matrix(1.3333333,0,0,-1.3333333,7982.1672,217.63173)" clip-path="url(#clipPath2682)"/></g></svg>