<?xml version="1.0" encoding="utf-8"?>
<svg xmlns="http://www.w3.org/2000/svg" viewBox="232.1814 72.578 277.3211 216.2131" width="277.321px" height="216.213px" preserveAspectRatio="none"><path id="path250" d="m 0,0 c -1.566,-9.133 -12.853,-17.938 -19.677,-23.648 -2.562,-2.143 -8.045,-6.564 -8.045,-6.564 -7.394,6.72 -17.87,13.219 -23.819,21.289 -8.007,10.863 -4.495,27.929 10.467,28.528 5.295,0.212 10.339,-2.49 13.226,-6.882 2.473,3.512 5.966,6.011 10.275,6.683 C -6.086,21.197 1.876,10.934 0,0 m -66.193,-22.436 c 1.768,0 3.2,-1.434 3.2,-3.201 0,-1.768 -1.432,-3.201 -3.2,-3.201 h -14.961 c -1.768,0 -3.201,1.433 -3.201,3.201 0,1.767 1.433,3.201 3.201,3.201 h 4.278 v 34.277 h -4.278 c -1.768,0 -3.201,1.434 -3.201,3.201 0,1.768 1.433,3.201 3.201,3.201 h 14.961 c 1.768,0 3.2,-1.433 3.2,-3.201 0,-1.767 -1.432,-3.201 -3.2,-3.201 h -4.282 V -22.436 Z M 59.462,33.69 c -7.9,7.508 -43.048,35.849 -51.595,39.542 -3.042,1.314 -6.825,2.401 -10.131,2.405 -10.751,0.015 -9.498,-6.747 -14.46,-13.507 -12.744,-17.362 -36.641,-15.214 -47.962,2.504 -2.85,4.46 -3.364,9.984 -9.682,10.897 -9.13,1.319 -15.67,-2.728 -23.216,-7.839 -12.684,-8.59 -32.184,-24.22 -43.511,-34.533 -2.086,-1.899 -3.73,-3.633 -3.259,-6.968 0.899,-6.365 15.289,-30.31 20.15,-35.017 6.207,-6.011 15.616,0.91 22.338,2.857 v -65.714 c 0,-8.115 6.579,-14.694 14.695,-14.694 H 6.197 c 8.116,0 14.695,6.579 14.695,14.694 v 65.714 c 9.758,-2.774 16.811,-10.057 24.866,-0.242 4.278,5.212 16.05,24.278 17.407,30.359 1.149,5.154 -0.281,6.29 -3.703,9.542" style="fill:#7a7978;fill-opacity:1;fill-rule:nonzero;stroke:none" transform="matrix(1.3333332538604736, 0, 0, -1.3333332538604736, 424.76157379150396, 173.6217303276062)" clip-path="url(#clipPath251)"/></svg>