<?xml version="1.0" encoding="utf-8"?>
<svg xmlns="http://www.w3.org/2000/svg" viewBox="324.5986 59.5324 155.2998 245.3325" width="155.3px" height="245.333px" preserveAspectRatio="none"><g id="g876" transform="matrix(1, 0, 0, 1, -2109.75146484375, -1.8014400005340576)"><path id="path877" d="m 0,0 c 22.382,1.847 43.635,-5.287 56.229,-24.489 7.569,-11.542 14.222,-37.307 1.837,-47.368 -15.508,-12.601 -32.173,4.246 -46.701,-0.748 -11.793,-4.054 -20.546,-11.761 -34.291,-10.598 -35.654,3.016 -34.401,42.436 -15.701,64.176 C -28.899,-7.719 -14.851,-1.225 0,0" style="fill:#7a7978;fill-opacity:1;fill-rule:nonzero;stroke:none" transform="matrix(1.3333333,0,0,-1.3333333,2503.0503,61.709333)" clip-path="url(#clipPath878)"/><path id="path879" d="m 0,0 c 2.415,-2.041 1.333,-7.186 0.181,-9.735 l -32.326,-80.566 c -3.754,-6.357 -15.069,-6.732 -19.932,-1.682 -12.964,27.934 -23.231,57.368 -34.737,86.021 l 0.188,1.928 1.2,1.015 c 18.521,-6.85 35.086,2.549 51.632,9.718 C -26.641,5.545 -19.667,3.481 -12.55,2.17 -9.392,1.589 -1.931,1.631 0,0" style="fill:#7a7978;fill-opacity:1;fill-rule:nonzero;stroke:none" transform="matrix(1.3333333,0,0,-1.3333333,2570.2499,179.39373)" clip-path="url(#clipPath880)"/></g></svg>