<?xml version="1.0" encoding="utf-8"?>
<svg xmlns="http://www.w3.org/2000/svg" viewBox="133.7828 76.5291 245.3345 238.1353" width="245.334px" height="238.135px" preserveAspectRatio="none"><defs><clipPath clipPathUnits="userSpaceOnUse" id="clipPath628"><path d="M 0,276 H 276 V 0 H 0 Z" transform="translate(-147.048,-152.4093)" id="path628"/></clipPath></defs><g id="g626" transform="matrix(1, 0, 0, 1, -1479.5498046875, 11.596725463867195)"><path id="path627" d="m 0,0 v 13.817 c 0,1.954 13.795,31.796 15.794,35.756 0.492,0.974 0.911,1.981 1.778,2.704 L 31.414,28.742 Z m -18.69,-1.494 -31.384,30.227 13.815,23.533 c 0.904,-0.697 1.279,-1.725 1.774,-2.695 1.997,-3.919 15.795,-34.513 15.795,-36.501 z M 81.457,-22.81 C 81.033,-6.436 82.974,12.297 76.603,27.608 68.24,47.703 48.908,56.226 31.459,66.905 26.546,69.911 24.958,73.382 18.346,73.97 4.332,75.217 -22.991,75.181 -37.033,73.967 l -0.052,-0.005 c -2.654,-0.224 -5.184,-1.188 -7.342,-2.75 -16.883,-12.217 -39.6,-20.6 -49.154,-40.086 -7.897,-16.106 -7.051,-49.493 -7.376,-68.065 -0.202,-11.577 -0.065,-23.234 0.366,-34.8 1.254,-2.593 3.096,-4.118 6.003,-4.458 3.404,-0.4 17.666,-0.398 20.107,0.858 1.677,0.864 3.07,2.948 3.417,4.802 3.138,16.754 2.654,36.375 6.05,52.958 0.194,0.949 0.584,1.528 1.174,2.073 0.347,0.322 0.877,0.43 1.289,0.197 0.773,-0.437 1.248,-1.255 1.248,-2.14 v -76.468 c 0,-5.409 4.384,-9.793 9.792,-9.793 h 84.332 c 5.408,0 9.792,4.384 9.792,9.793 v 77.113 c 0,0.038 0.045,0.105 0.12,0.19 0.856,0.966 2.398,0.879 3.223,-0.114 l 0.214,-0.258 c 3.294,-16.988 3.057,-35.976 6.229,-52.779 0.591,-3.132 2.124,-5.827 5.582,-6.373 2.952,-0.467 18.024,-0.406 20.326,0.522 1.807,0.728 3.703,2.994 3.968,4.997 1.774,13.432 -0.456,33.867 -0.818,47.809" style="fill:#7a7978;fill-opacity:1;fill-rule:nonzero;stroke:none" transform="matrix(1.3333333,0,0,-1.3333333,1748.064,164.7876)" clip-path="url(#clipPath628)"/></g></svg>