<?xml version="1.0" encoding="utf-8"?>
<svg xmlns="http://www.w3.org/2000/svg" viewBox="289.5791 58.0134 162.524 245.3436" width="162.524px" height="245.344px" preserveAspectRatio="none"><path id="path1631" d="M 0,0 H 77.59 L 75.428,20.808 2.572,20.857 Z M 71.124,61.724 H 6.466 L 4.311,40.192 h 68.968 z m -4.311,40.193 H 10.776 L 8.621,81.82 H 68.969 Z M 13.65,122.013 h 49.93 l 0.78,1.463 c -0.339,6.193 -3.549,14.252 1.702,19.025 5.236,4.759 13.066,2.548 15.647,-3.813 L 99.787,-28.426 c -0.389,-6.76 -4.56,-11.278 -11.603,-10.164 -8.633,1.365 -7.94,11.762 -8.435,18.498 l -81.426,0.025 c -1.406,-0.327 -1.465,-9.48 -2.105,-11.682 -2.776,-9.544 -15.5,-9.327 -18.324,-0.026 4.281,55.479 11.916,110.809 17.156,166.269 0.498,7.557 7.641,13.424 14.949,9.351 7.741,-4.314 2.953,-14.816 3.651,-21.832" style="fill:#7a7978;fill-opacity:1;fill-rule:nonzero;stroke:none" transform="matrix(1.3333332538604736, 0, 0, -1.3333332538604736, 319.05371093750006, 251.5849413871765)" clip-path="url(#clipPath1632)"/></svg>