<?xml version="1.0" encoding="utf-8"?>
<svg xmlns="http://www.w3.org/2000/svg" viewBox="232.1756 104.7469 277.3311 151.8759" width="277.331px" height="151.876px" preserveAspectRatio="none"><path id="path2141" d="M 0,0 C 20.094,2.66 40.35,3.952 60.556,4.083 80.815,3.975 100.898,2.663 121.111,0 84.19,-8.456 36.948,-8.389 0,0 M 150.822,18.893 C 126.484,36.88 104.712,64.487 71.849,50.355 68.449,48.893 64.706,45.361 61.135,45.511 58.7,45.613 48.924,51.661 44.43,52.93 39.447,54.336 34.709,55.126 29.533,54.645 11.715,52.988 -13.038,29.037 -27.807,18.118 -33.463,13.935 -45.256,9.966 -41.22,1.432 c 1.432,-3.028 10.637,-13.018 13.478,-15.997 17.224,-18.07 43.393,-39.401 68.798,-42.918 38.336,-5.308 64.218,1.958 93.398,26.638 8.081,6.835 24.58,22.091 29.807,30.705 6.258,10.313 -6.333,13.781 -13.439,19.033" style="fill:#7a7978;fill-opacity:1;fill-rule:nonzero;stroke:none" transform="matrix(1.3333332538604736, 0, 0, -1.3333332538604736, 288.2352600097657, 177.79532957077026)" clip-path="url(#clipPath2142)"/></svg>