<?xml version="1.0" encoding="utf-8"?>
<svg xmlns="http://www.w3.org/2000/svg" viewBox="230.7725 68.9989 202.6719 219.3099" width="202.672px" height="219.31px" preserveAspectRatio="none"><g id="g3164" transform="matrix(1, 0, 0, 1, -9163.891235351562, -5.346164226531982)"><path id="path3165" d="m 0,0 c 41.908,0 76.001,-34.094 76.001,-76.001 v -50.224 H 35.197 v 50.224 c 0,19.407 -15.79,35.197 -35.197,35.197" style="fill:#7a7978;fill-opacity:1;fill-rule:nonzero;stroke:none" transform="matrix(1.3333333,0,0,-1.3333333,9496,74.345067)" clip-path="url(#clipPath3166)"/><path id="path3167" d="M 0,0 C -19.407,0 -35.197,-15.789 -35.197,-35.197 V -85.42 h -40.804 v 50.223 c 0,41.907 34.093,76.001 76.001,76.001" style="fill:#7a7978;fill-opacity:1;fill-rule:nonzero;stroke:none" transform="matrix(1.3333333,0,0,-1.3333333,9496,128.7508)" clip-path="url(#clipPath3168)"/><path id="path3169" d="M 0,0 H -19.523 C -25.4,0 -30.164,4.764 -30.164,10.641 V 28.788 H 10.641 V 10.641 C 10.641,4.764 5.877,0 0,0" style="fill:#7a7978;fill-opacity:1;fill-rule:nonzero;stroke:none" transform="matrix(1.3333333,0,0,-1.3333333,9583.1475,293.65493)" clip-path="url(#clipPath3170)"/><path id="path3171" d="M 0,0 H -19.523 C -25.4,0 -30.164,4.764 -30.164,10.641 V 28.788 H 10.641 V 10.641 C 10.641,4.764 5.877,0 0,0" style="fill:#7a7978;fill-opacity:1;fill-rule:nonzero;stroke:none" transform="matrix(1.3333333,0,0,-1.3333333,9434.8831,293.65493)" clip-path="url(#clipPath3172)"/></g></svg>