<?xml version="1.0" encoding="utf-8"?>
<svg xmlns="http://www.w3.org/2000/svg" viewBox="238.1436 94.3229 204.9297 202.3847" width="204.93px" height="202.385px" preserveAspectRatio="none"><g id="g3295" transform="matrix(1, 0, 0, 1, -9543.392038345337, 11.515323162078865)"><path id="path3296" d="m 0,0 c -7.183,-1.104 -0.586,-9.739 2.187,-12.349 14.375,-13.53 39.301,-12.558 54.15,-0.301 2.22,1.832 10.396,8.785 5.743,11.075 C 57.362,0.747 54.301,-4.654 51.255,-6.897 38.329,-16.415 19.08,-16.52 6.905,-5.615 4.857,-3.781 2.954,0.454 0,0 m 60.507,46.922 c -4.586,-0.007 -10.041,-2.186 -13.55,-5.136 -3.316,-2.787 -7.777,-9.27 -0.703,-10.082 6.695,-0.769 22.128,-0.634 28.972,-0.02 3.092,0.278 5.445,0.916 3.83,4.565 -2.758,6.235 -11.973,10.683 -18.549,10.673 m -78.15,-14.533 h 35.655 c 0.441,0 0.964,1.132 1.049,1.703 0.623,4.151 -8.5,10.897 -12.156,12.077 -6.44,2.077 -13.697,0.98 -19.165,-3.021 -1.748,-1.279 -9.507,-9.498 -5.383,-10.759 M 16.865,95.406 C 36.687,96.79 81.337,93.385 96.08,78.823 112.914,62.196 106.654,20.842 98.729,0.791 85.579,-32.476 48.911,-67.994 10.707,-52.252 c -28.446,11.721 -46.727,37.74 -54.059,67.01 -4.518,18.036 -6.964,48.385 6.192,63.369 9.204,10.482 40.244,16.316 54.025,17.279" style="fill:#7a7978;fill-opacity:1;fill-rule:nonzero;stroke:none" transform="matrix(1.3333333,0,0,-1.3333333,9844.1485,210.39307)" clip-path="url(#clipPath3297)"/></g></svg>