<?xml version="1.0" encoding="utf-8"?>
<svg xmlns="http://www.w3.org/2000/svg" viewBox="228.8623 79.3576 201.0054 202.6552" width="201.005px" height="202.655px" preserveAspectRatio="none"><g id="g1525" transform="matrix(1, 0, 0, 1, -4122.6353759765625, -3.314793109893799)"><path id="path1526" d="m 0,0 h -15.08 v 15.08 c 0,5.276 -4.277,9.553 -9.553,9.553 -5.276,0 -9.553,-4.277 -9.553,-9.553 V 0 h -15.08 c -5.276,0 -9.553,-4.277 -9.553,-9.553 0,-5.276 4.277,-9.553 9.553,-9.553 h 15.08 v -15.08 c 0,-5.276 4.277,-9.553 9.553,-9.553 5.276,0 9.553,4.277 9.553,9.553 v 15.08 H 0 c 5.276,0 9.553,4.277 9.553,9.553 C 9.553,-4.277 5.276,0 0,0" style="fill:#7a7978;fill-opacity:1;fill-rule:nonzero;stroke:none" transform="matrix(1.3333333,0,0,-1.3333333,4429.9227,115.5164)" clip-path="url(#clipPath1527)"/><path id="path1528" d="m 0,0 h 49.266 c 5.276,0 9.553,4.277 9.553,9.553 0,5.276 -4.277,9.553 -9.553,9.553 H 0 c -5.276,0 -9.553,-4.277 -9.553,-9.553 C -9.553,4.277 -5.276,0 0,0" style="fill:#7a7978;fill-opacity:1;fill-rule:nonzero;stroke:none" transform="matrix(1.3333333,0,0,-1.3333333,4474.0773,140.99133)" clip-path="url(#clipPath1529)"/><path id="path1530" d="M 0,0 C -3.73,3.73 -9.78,3.73 -13.51,0 L -24.173,-10.663 -34.837,0 c -3.73,3.73 -9.779,3.73 -13.51,0 -3.731,-3.731 -3.731,-9.78 0,-13.51 l 10.664,-10.663 -10.664,-10.664 c -3.731,-3.731 -3.731,-9.779 0,-13.51 1.866,-1.865 4.311,-2.798 6.755,-2.798 2.445,0 4.89,0.933 6.755,2.798 l 10.664,10.664 10.663,-10.664 c 1.865,-1.865 4.31,-2.798 6.755,-2.798 2.445,0 4.89,0.933 6.755,2.798 3.731,3.731 3.731,9.779 0,13.51 L -10.663,-24.173 0,-13.51 C 3.731,-9.78 3.731,-3.731 0,0" style="fill:#7a7978;fill-opacity:1;fill-rule:nonzero;stroke:none" transform="matrix(1.3333333,0,0,-1.3333333,4429.3096,205.8656)" clip-path="url(#clipPath1531)"/><path id="path1532" d="m 0,0 h -49.266 c -5.276,0 -9.553,-4.277 -9.553,-9.553 0,-5.276 4.277,-9.553 9.553,-9.553 H 0 c 5.276,0 9.553,4.277 9.553,9.553 C 9.553,-4.277 5.276,0 0,0" style="fill:#7a7978;fill-opacity:1;fill-rule:nonzero;stroke:none" transform="matrix(1.3333333,0,0,-1.3333333,4539.7655,225.3592)" clip-path="url(#clipPath1533)"/><path id="path1534" d="m 0,0 c 0,-5.094 4.129,-9.223 9.223,-9.223 5.094,0 9.223,4.129 9.223,9.223 0,5.094 -4.129,9.223 -9.223,9.223 C 4.129,9.223 0,5.094 0,0" style="fill:#7a7978;fill-opacity:1;fill-rule:nonzero;stroke:none" transform="matrix(1.3333333,0,0,-1.3333333,4494.624,203.16373)" clip-path="url(#clipPath1535)"/><path id="path1536" d="m 0,0 c -5.094,0 -9.223,-4.129 -9.223,-9.223 0,-5.094 4.129,-9.223 9.223,-9.223 5.094,0 9.223,4.129 9.223,9.223 C 9.223,-4.129 5.094,0 0,0" style="fill:#7a7978;fill-opacity:1;fill-rule:nonzero;stroke:none" transform="matrix(1.3333333,0,0,-1.3333333,4506.9217,260.73293)" clip-path="url(#clipPath1537)"/></g></svg>