<?xml version="1.0" encoding="utf-8"?>
<svg xmlns="http://www.w3.org/2000/svg" viewBox="274.5557 72.5774 246.5615 228.2587" width="246.562px" height="228.259px" preserveAspectRatio="none"><g id="g4480" transform="matrix(1, 0, 0, 1, -12977.54969215393, 2.7071666717529297)"><path id="path4481" d="M 0,0 C 0,-1.804 -0.097,-3.334 -0.289,-4.591 -0.483,-5.847 -0.758,-6.863 -1.112,-7.636 -1.466,-8.408 -1.87,-8.958 -2.32,-9.28 -2.772,-9.602 -3.286,-9.762 -3.866,-9.762 h -77.527 c -0.58,0 -1.096,0.16 -1.546,0.482 -0.452,0.322 -0.855,0.872 -1.209,1.644 -0.354,0.773 -0.628,1.789 -0.821,3.045 -0.193,1.257 -0.29,2.787 -0.29,4.591 0,1.87 0.08,3.433 0.242,4.69 0.16,1.257 0.418,2.27 0.773,3.043 0.353,0.775 0.773,1.322 1.256,1.644 0.484,0.322 1.015,0.484 1.595,0.484 h 10.247 v 34.413 h -10.247 c -0.58,0 -1.096,0.145 -1.546,0.435 -0.452,0.288 -0.855,0.804 -1.209,1.545 -0.354,0.741 -0.628,1.723 -0.821,2.949 -0.193,1.223 -0.29,2.77 -0.29,4.64 0,1.804 0.08,3.318 0.242,4.543 0.16,1.223 0.418,2.208 0.773,2.949 0.353,0.741 0.773,1.272 1.256,1.594 0.484,0.322 1.015,0.485 1.595,0.485 h 10.247 v 8.892 c 0,7.861 0.87,14.646 2.61,20.349 1.74,5.703 4.286,10.391 7.637,14.065 3.35,3.673 7.507,6.363 12.47,8.07 4.961,1.707 10.664,2.563 17.11,2.563 2.834,0 5.558,-0.211 8.168,-0.628 2.61,-0.421 5.01,-1 7.201,-1.741 2.191,-0.741 4.172,-1.611 5.946,-2.609 1.771,-1 3.06,-1.919 3.866,-2.757 0.805,-0.837 1.385,-1.531 1.74,-2.076 0.354,-0.55 0.628,-1.226 0.821,-2.03 0.194,-0.808 0.339,-1.788 0.436,-2.948 0.096,-1.16 0.144,-2.579 0.144,-4.255 0,-1.804 -0.081,-3.32 -0.241,-4.543 -0.162,-1.226 -0.403,-2.208 -0.725,-2.949 -0.323,-0.741 -0.71,-1.273 -1.16,-1.595 -0.452,-0.322 -0.935,-0.482 -1.45,-0.482 -0.903,0 -1.919,0.451 -3.045,1.352 -1.129,0.903 -2.546,1.885 -4.254,2.948 -1.707,1.063 -3.721,2.046 -6.041,2.949 -2.32,0.903 -5.092,1.354 -8.314,1.354 -3.222,0 -5.961,-0.532 -8.216,-1.595 -2.257,-1.063 -4.093,-2.611 -5.51,-4.64 -1.418,-2.03 -2.45,-4.544 -3.093,-7.539 -0.645,-2.998 -0.966,-6.429 -0.966,-10.296 v -9.859 h 26.002 c 0.58,0 1.112,-0.163 1.595,-0.485 0.483,-0.322 0.885,-0.853 1.208,-1.594 0.323,-0.741 0.58,-1.726 0.774,-2.949 0.194,-1.225 0.29,-2.739 0.29,-4.543 0,-1.87 -0.096,-3.417 -0.29,-4.64 -0.194,-1.226 -0.468,-2.208 -0.822,-2.949 -0.355,-0.741 -0.758,-1.257 -1.208,-1.545 -0.452,-0.29 -0.967,-0.435 -1.547,-0.435 H -46.012 V 9.861 h 42.146 c 0.58,0 1.111,-0.162 1.594,-0.484 C -1.788,9.055 -1.386,8.508 -1.063,7.733 -0.741,6.96 -0.483,5.947 -0.289,4.69 -0.097,3.433 0,1.87 0,0" style="fill:#7a7978;fill-opacity:1;fill-rule:nonzero;stroke:none" transform="matrix(1.3333333,0,0,-1.3333333,13365.784,253.40747)" clip-path="url(#clipPath4482)"/><path id="path4483" d="m 0,0 c 0,-5.543 -0.983,-10.537 -2.948,-14.983 -1.967,-4.447 -4.753,-8.283 -8.362,-11.504 -3.609,-3.223 -7.96,-5.8 -13.049,-7.735 -5.092,-1.932 -10.73,-3.158 -16.917,-3.671 l -2.03,-20.687 c -0.065,-0.516 -0.209,-0.966 -0.435,-1.354 -0.226,-0.387 -0.645,-0.709 -1.256,-0.966 -0.614,-0.257 -1.45,-0.466 -2.514,-0.628 -1.063,-0.16 -2.401,-0.241 -4.012,-0.241 -2.063,0 -3.721,0.094 -4.978,0.288 -1.257,0.194 -2.24,0.468 -2.948,0.822 -0.71,0.356 -1.176,0.822 -1.401,1.401 -0.227,0.581 -0.275,1.225 -0.146,1.935 l 2.03,19.621 c -2.772,0.388 -5.381,0.885 -7.83,1.5 -2.449,0.611 -4.672,1.289 -6.669,2.03 -1.999,0.739 -3.722,1.498 -5.172,2.27 -1.451,0.775 -2.546,1.532 -3.286,2.273 -0.742,0.741 -1.274,1.836 -1.596,3.286 -0.323,1.451 -0.483,3.593 -0.483,6.429 0,2.189 0.063,3.996 0.193,5.413 0.129,1.416 0.354,2.513 0.677,3.286 0.321,0.775 0.724,1.306 1.209,1.595 0.483,0.29 1.046,0.437 1.691,0.437 0.837,0 2.061,-0.485 3.673,-1.451 1.61,-0.966 3.674,-2.029 6.186,-3.189 2.514,-1.16 5.559,-2.224 9.135,-3.192 3.577,-0.966 7.783,-1.448 12.615,-1.448 7.54,0 13.147,1.401 16.82,4.205 3.673,2.802 5.51,6.523 5.51,11.163 0,3.095 -0.79,5.638 -2.368,7.638 -1.579,1.996 -3.69,3.753 -6.332,5.266 -2.642,1.514 -5.622,2.868 -8.941,4.062 -3.32,1.191 -6.718,2.464 -10.198,3.818 -3.48,1.353 -6.881,2.932 -10.198,4.737 -3.321,1.804 -6.301,4.027 -8.943,6.669 -2.643,2.642 -4.752,5.85 -6.331,9.618 -1.579,3.771 -2.368,8.33 -2.368,13.679 0,4.834 0.804,9.231 2.416,13.195 1.611,3.962 3.931,7.427 6.96,10.391 3.029,2.964 6.751,5.365 11.166,7.201 4.412,1.838 9.424,3.077 15.03,3.723 l 1.934,19.43 c 0.063,0.514 0.208,0.948 0.435,1.304 0.225,0.354 0.644,0.676 1.257,0.967 0.611,0.29 1.433,0.497 2.465,0.628 1.029,0.128 2.383,0.194 4.06,0.194 1.997,0 3.657,-0.097 4.978,-0.291 1.32,-0.194 2.335,-0.468 3.045,-0.822 0.709,-0.354 1.16,-0.82 1.353,-1.401 0.194,-0.579 0.291,-1.225 0.291,-1.933 l -1.934,-18.269 c 1.803,-0.259 3.705,-0.613 5.703,-1.064 1.997,-0.452 3.866,-0.984 5.606,-1.594 1.74,-0.615 3.319,-1.257 4.737,-1.935 1.417,-0.676 2.4,-1.289 2.949,-1.836 0.546,-0.55 0.966,-1.097 1.257,-1.644 0.289,-0.548 0.514,-1.223 0.677,-2.03 0.159,-0.806 0.272,-1.772 0.337,-2.899 0.064,-1.128 0.097,-2.435 0.097,-3.914 0,-2.001 -0.048,-3.643 -0.145,-4.931 -0.097,-1.291 -0.275,-2.273 -0.532,-2.949 -0.257,-0.675 -0.548,-1.128 -0.869,-1.353 -0.323,-0.225 -0.711,-0.338 -1.16,-0.338 -0.839,0 -2.063,0.419 -3.674,1.257 -1.611,0.835 -3.594,1.739 -5.945,2.705 -2.353,0.969 -5.059,1.87 -8.119,2.707 -3.062,0.838 -6.429,1.257 -10.102,1.257 -3.352,0 -6.22,-0.322 -8.604,-0.966 -2.384,-0.644 -4.318,-1.547 -5.8,-2.707 -1.483,-1.16 -2.578,-2.546 -3.286,-4.156 -0.71,-1.613 -1.063,-3.383 -1.063,-5.318 0,-3.03 0.805,-5.575 2.416,-7.636 1.61,-2.063 3.753,-3.834 6.429,-5.316 2.673,-1.484 5.703,-2.836 9.086,-4.061 3.384,-1.223 6.83,-2.512 10.344,-3.865 3.511,-1.354 6.959,-2.917 10.343,-4.69 3.383,-1.773 6.395,-3.962 9.038,-6.573 2.641,-2.61 4.769,-5.768 6.38,-9.474 C -0.806,9.681 0,5.219 0,0" style="fill:#7a7978;fill-opacity:1;fill-rule:nonzero;stroke:none" transform="matrix(1.3333333,0,0,-1.3333333,13498.667,215.77027)" clip-path="url(#clipPath4484)"/></g></svg>