<?xml version="1.0" encoding="utf-8"?>
<svg xmlns="http://www.w3.org/2000/svg" viewBox="88.4805 27.7355 217.9619 245.343" width="217.962px" height="245.343px" preserveAspectRatio="none"><defs><clipPath clipPathUnits="userSpaceOnUse" id="clipPath4313"><path d="M 0,276 H 276 V 0 H 0 Z" transform="translate(-94.613252,-199.0063)" id="path4313"/></clipPath><clipPath clipPathUnits="userSpaceOnUse" id="clipPath4315"><path d="M 0,276 H 276 V 0 H 0 Z" transform="translate(-123.99975,-172.4344)" id="path4315"/></clipPath><clipPath clipPathUnits="userSpaceOnUse" id="clipPath4317"><path d="M 0,276 H 276 V 0 H 0 Z" transform="translate(-103.7145,-172.4395)" id="path4317"/></clipPath></defs><g id="g4311" transform="matrix(1, 0, 0, 1, -12790.538833618164, -33.592947483062744)"><path id="path4312" d="m 0,0 c -11.228,-1.366 -15.814,-11.184 -13.665,-21.698 0.651,-3.183 4.673,-7.165 5.271,-9.42 0.671,-2.528 -0.092,-6.032 0.253,-8.842 4.594,-37.407 46.515,-34.918 49.498,-0.003 0.244,2.858 -0.818,6.354 -0.505,8.146 0.309,1.768 2.569,3.266 3.529,4.927 C 56.284,-6.289 30.483,10.333 15.91,-7.501 12.464,-2.082 6.441,0.784 0,0 m 56.95,-1.807 c 0.494,-0.315 2.557,-0.104 3.892,-0.65 17.132,-7.006 14.025,-30.146 -3.939,-33.105 0.321,-4.421 -1.181,-8.494 -2.062,-12.734 19.837,-17.865 35.45,-40.78 37.481,-67.918 0.152,-2.028 2.566,-2.998 4.098,-1.661 0.962,0.84 1.789,1.644 2.051,1.916 13.727,14.242 19.761,40.814 4.819,55.809 -4.962,4.979 -8.595,4.537 -13.536,6.849 -4.353,2.038 -5.329,12.699 1.512,12.07 16.35,-1.503 28.42,-16.243 32.386,-31.341 5.171,-19.679 -3.81,-42.248 -18.875,-55.29 -2.634,-2.28 -10.195,-6.409 -11.543,-8.046 -1.333,-1.618 -2.444,-7.806 -4.611,-10.781 -2.402,-3.298 -6.322,-5.425 -10.421,-5.669 -19.537,1.653 -42.469,-2.116 -61.594,0.026 -8.759,0.981 -10.838,10.405 -4.891,16.088 1.788,1.709 7.809,3.058 10.061,5.686 1.493,1.744 0.451,3.886 -0.648,4.96 -1.404,1.37 -6.529,4.256 -8.003,5.465 -6.063,4.972 -8.766,11.191 -13.324,16.863 -0.549,0.683 -1.652,0.278 -1.614,-0.598 l 1.307,-30.654 c -0.734,-14.29 -6.68,-18.661 -20.692,-17.83 -8.767,0.519 -14.038,6.266 -7.682,14.028 4.094,5.001 7.512,2.058 8.086,10.107 1.021,14.346 -1.218,28.993 0.754,43.317 1.361,9.882 5.399,19.096 9.658,27.995 -7.621,4.941 -10.42,12.714 -11.984,21.269 -16.675,1.219 -22.348,24.569 -7.072,32.192 1.829,0.913 6.336,1.585 6.88,2.215 0.567,0.658 3.286,8.977 4.672,11.419 17.044,30.032 58.564,26.682 72.26,-4.423 0.558,-1.268 2.209,-7.34 2.574,-7.574" style="fill:#7a7978;fill-opacity:1;fill-rule:nonzero;stroke:none" transform="matrix(1.3333333,0,0,-1.3333333,12930.151,102.65827)" clip-path="url(#clipPath4313)"/><path id="path4314" d="M 0,0 C 2.648,-2.679 0.937,-10.733 -3.525,-9.523 -9.38,-7.935 -5.061,5.12 0,0" style="fill:#7a7978;fill-opacity:1;fill-rule:nonzero;stroke:none" transform="matrix(1.3333333,0,0,-1.3333333,12969.333,138.08747)" clip-path="url(#clipPath4315)"/><path id="path4316" d="M 0,0 C 2.43,-2.525 1.019,-10.83 -3.542,-9.539 -9.121,-7.96 -4.975,5.169 0,0" style="fill:#7a7978;fill-opacity:1;fill-rule:nonzero;stroke:none" transform="matrix(1.3333333,0,0,-1.3333333,12942.286,138.08067)" clip-path="url(#clipPath4317)"/></g></svg>