<?xml version="1.0" encoding="utf-8"?>
<svg xmlns="http://www.w3.org/2000/svg" viewBox="248.1811 73.021 245.3212 215.328" width="245.321px" height="215.328px" preserveAspectRatio="none"><path id="path2665" d="M 0,0 C -0.04,0.513 -0.151,1.188 -0.216,1.726 -0.26,2.1 -0.366,2.623 -0.431,3.02 -0.483,3.335 -0.579,3.768 -0.647,4.098 -0.699,4.348 -0.8,4.683 -0.863,4.961 -0.921,5.22 -1.01,5.557 -1.079,5.824 -1.103,5.92 -1.227,6.236 -1.294,6.471 -1.346,6.652 -1.445,6.915 -1.51,7.118 -1.573,7.317 -1.656,7.563 -1.726,7.765 -1.799,7.978 -1.868,8.212 -1.941,8.413 -2.054,8.723 -2.242,9.176 -2.373,9.491 -7.603,20.249 -20.7,30.662 -30.091,37.965 -44.536,49.196 -47.859,48.852 -55.653,66.87 c -0.194,0.424 -0.294,0.769 -0.431,1.078 -0.311,0.736 -0.568,1.423 -0.863,2.157 -0.011,0.028 -0.124,0.199 -0.216,0.432 -0.151,0.366 -0.285,0.713 -0.431,1.078 -0.096,0.249 -0.139,0.446 -0.216,0.647 -0.089,0.235 -0.137,0.439 -0.215,0.647 -0.009,0.023 -0.115,0.157 -0.216,0.432 -0.196,0.514 -0.286,0.895 -0.432,1.294 -0.08,0.225 -0.14,0.433 -0.215,0.647 -0.008,0.023 -0.109,0.119 -0.216,0.432 -0.079,0.223 -0.141,0.433 -0.216,0.647 -0.077,0.221 -0.142,0.432 -0.215,0.647 -0.075,0.218 -0.143,0.43 -0.216,0.647 -0.073,0.215 -0.144,0.429 -0.216,0.647 -0.112,0.351 -0.134,0.603 -0.216,0.863 -0.063,0.202 -0.147,0.426 -0.215,0.647 -0.062,0.201 -0.148,0.425 -0.216,0.647 -0.061,0.199 -0.149,0.423 -0.216,0.647 -0.095,0.313 -0.132,0.584 -0.216,0.863 -0.058,0.195 -0.149,0.422 -0.215,0.647 -0.057,0.192 -0.151,0.422 -0.216,0.647 -0.085,0.303 -0.137,0.578 -0.216,0.863 -0.082,0.299 -0.138,0.577 -0.215,0.863 -0.031,0.115 -0.144,0.374 -0.216,0.647 -0.081,0.298 -0.14,0.575 -0.216,0.863 -0.077,0.292 -0.141,0.575 -0.215,0.863 -0.075,0.289 -0.143,0.574 -0.216,0.863 -0.073,0.287 -0.144,0.572 -0.216,0.863 -0.07,0.282 -0.145,0.572 -0.216,0.862 -0.067,0.28 -0.146,0.572 -0.215,0.863 -0.066,0.277 -0.148,0.572 -0.216,0.863 -0.064,0.276 -0.149,0.568 -0.216,0.863 -0.083,0.371 -0.137,0.719 -0.215,1.078 -0.058,0.266 -0.153,0.568 -0.216,0.863 -0.078,0.364 -0.141,0.718 -0.216,1.079 -0.074,0.36 -0.143,0.717 -0.215,1.078 -0.073,0.358 -0.145,0.716 -0.216,1.079 -0.069,0.353 -0.147,0.716 -0.216,1.078 -0.067,0.351 -0.149,0.714 -0.216,1.079 -0.019,0.104 -0.043,0.218 -0.065,0.326 -1.918,13.016 -13.132,23.008 -26.681,23.008 -14.191,0 -25.814,-10.961 -26.885,-24.877 -0.027,-0.132 -0.054,-0.267 -0.08,-0.399 -0.071,-0.362 -0.143,-0.719 -0.216,-1.078 -0.059,-0.298 -0.162,-0.605 -0.215,-0.863 -0.074,-0.36 -0.14,-0.716 -0.216,-1.078 -0.076,-0.361 -0.136,-0.712 -0.216,-1.079 -0.064,-0.294 -0.156,-0.594 -0.215,-0.863 -0.066,-0.294 -0.154,-0.591 -0.216,-0.863 -0.082,-0.357 -0.127,-0.702 -0.216,-1.078 -0.068,-0.293 -0.15,-0.586 -0.216,-0.863 -0.069,-0.291 -0.148,-0.583 -0.215,-0.863 -0.07,-0.29 -0.146,-0.58 -0.216,-0.863 -0.071,-0.289 -0.144,-0.577 -0.216,-0.863 -0.072,-0.288 -0.141,-0.574 -0.215,-0.862 -0.075,-0.29 -0.138,-0.569 -0.216,-0.863 -0.076,-0.287 -0.136,-0.567 -0.216,-0.863 -0.073,-0.269 -0.18,-0.52 -0.216,-0.647 -0.078,-0.285 -0.13,-0.561 -0.215,-0.863 -0.074,-0.26 -0.174,-0.501 -0.216,-0.647 -0.081,-0.282 -0.125,-0.555 -0.216,-0.863 -0.065,-0.224 -0.159,-0.455 -0.215,-0.647 -0.066,-0.224 -0.158,-0.452 -0.216,-0.647 -0.084,-0.281 -0.119,-0.548 -0.216,-0.863 -0.069,-0.222 -0.149,-0.44 -0.216,-0.647 -0.07,-0.221 -0.146,-0.436 -0.215,-0.647 -0.072,-0.219 -0.144,-0.433 -0.216,-0.647 -0.073,-0.217 -0.141,-0.43 -0.216,-0.647 -0.073,-0.216 -0.139,-0.427 -0.215,-0.648 -0.075,-0.214 -0.137,-0.423 -0.216,-0.647 -0.075,-0.213 -0.134,-0.421 -0.216,-0.647 -0.076,-0.211 -0.131,-0.418 -0.215,-0.647 -0.078,-0.21 -0.13,-0.415 -0.216,-0.647 -0.078,-0.21 -0.126,-0.412 -0.216,-0.647 -0.291,-0.802 -0.557,-1.573 -0.863,-2.373 -0.147,-0.365 -0.279,-0.711 -0.431,-1.079 -0.093,-0.236 -0.207,-0.409 -0.216,-0.431 -8.506,-21.492 -13.135,-20.845 -29.875,-34.082 -8.784,-6.945 -20.698,-17.094 -24.915,-27.611 -0.069,-0.205 -0.151,-0.446 -0.215,-0.647 -0.066,-0.204 -0.163,-0.464 -0.216,-0.647 -0.068,-0.231 -0.191,-0.55 -0.216,-0.647 -0.069,-0.265 -0.158,-0.606 -0.216,-0.863 -0.062,-0.277 -0.179,-0.672 -0.215,-0.863 -0.059,-0.308 -0.194,-0.731 -0.216,-0.862 -0.066,-0.4 -0.168,-0.915 -0.216,-1.295 -0.067,-0.539 -0.172,-1.206 -0.215,-1.725 -0.144,-1.961 -0.138,-4.938 0,-6.903 0.038,-0.509 0.151,-1.191 0.215,-1.726 0.048,-0.452 0.147,-1.041 0.216,-1.51 0.044,-0.301 0.152,-0.75 0.216,-1.078 0.045,-0.236 0.153,-0.598 0.215,-0.863 0.062,-0.261 0.145,-0.603 0.216,-0.863 0.035,-0.125 0.147,-0.419 0.216,-0.647 0.081,-0.289 0.135,-0.605 0.216,-0.863 0.061,-0.196 0.302,-0.718 0.431,-1.078 3.59,-9.566 10.701,-16.724 20.061,-20.708 0.37,-0.135 0.839,-0.352 1.078,-0.432 0.205,-0.068 0.454,-0.156 0.648,-0.215 0.21,-0.065 0.481,-0.17 0.647,-0.216 0.263,-0.074 0.59,-0.148 0.862,-0.216 0.269,-0.067 0.609,-0.16 0.863,-0.216 0.277,-0.06 0.622,-0.169 0.863,-0.215 0.336,-0.065 0.765,-0.166 1.079,-0.216 0.401,-0.063 0.919,-0.172 1.294,-0.216 0.544,-0.064 1.206,-0.173 1.726,-0.215 2.27,-0.165 5.473,-0.124 7.765,0 0.664,0.039 1.469,0.152 2.157,0.215 0.605,0.052 1.326,0.143 1.942,0.216 0.468,0.053 1.023,0.151 1.51,0.216 0.402,0.057 0.876,0.148 1.294,0.215 0.325,0.053 0.724,0.155 1.078,0.216 0.333,0.058 0.726,0.151 1.079,0.216 0.341,0.063 0.727,0.147 1.078,0.216 0.349,0.068 0.727,0.143 1.079,0.215 0.252,0.052 0.579,0.154 0.863,0.216 0.26,0.057 0.58,0.151 0.863,0.216 0.269,0.062 0.579,0.147 0.862,0.215 0.275,0.066 0.583,0.146 0.863,0.216 0.282,0.071 0.581,0.143 0.863,0.216 0.093,0.024 0.38,0.145 0.647,0.216 0.303,0.089 0.597,0.132 0.863,0.215 0.199,0.062 0.433,0.148 0.647,0.216 0.294,0.081 0.589,0.137 0.863,0.216 0.184,0.052 0.433,0.151 0.647,0.215 0.392,0.134 0.672,0.147 0.863,0.216 0.213,0.077 0.471,0.143 0.647,0.216 0.304,0.126 0.512,0.157 0.647,0.216 0.035,0.015 0.241,0.403 0.647,0.215 l 0.324,0.432 c -3.931,2.668 -7.831,5.577 -12.188,7.549 -0.326,0.133 -0.76,0.316 -1.078,0.432 -0.199,0.073 -0.436,0.143 -0.647,0.215 -0.247,0.097 -0.409,0.208 -0.432,0.216 -0.194,0.072 -0.439,0.145 -0.647,0.216 -0.245,0.083 -0.57,0.129 -0.863,0.216 -0.245,0.068 -0.565,0.195 -0.647,0.215 -0.278,0.07 -0.594,0.153 -0.863,0.216 -0.276,0.065 -0.61,0.163 -0.862,0.216 -0.338,0.071 -0.747,0.155 -1.079,0.216 -0.402,0.073 -0.897,0.157 -1.294,0.215 -0.469,0.061 -1.073,0.178 -1.51,0.216 -0.683,0.08 -1.479,0.161 -2.157,0.216 -3.463,0.185 -7.665,-0.54 -11.001,0.215 -1.285,0.291 -1.734,0.332 -2.157,1.726 -0.563,1.853 -0.073,3.168 1.725,3.667 2.649,0.736 9.353,0.233 12.296,0 0.746,-0.041 1.436,-0.151 2.157,-0.216 0.453,-0.052 0.874,-0.156 1.294,-0.215 0.457,-0.057 0.861,-0.147 1.294,-0.216 0.447,-0.076 0.84,-0.126 1.294,-0.216 0.314,-0.061 0.583,-0.151 0.863,-0.216 0.306,-0.069 0.566,-0.138 0.863,-0.215 0.297,-0.077 0.556,-0.129 0.863,-0.216 0.288,-0.074 0.511,-0.177 0.647,-0.216 0.293,-0.082 0.543,-0.117 0.863,-0.215 0.222,-0.076 0.417,-0.133 0.647,-0.216 0.217,-0.078 0.409,-0.125 0.647,-0.216 0.305,-0.106 0.409,-0.207 0.431,-0.215 10.453,-3.818 16.418,-11.234 25.67,-15.531 0.315,-0.134 0.759,-0.311 1.078,-0.432 0.199,-0.084 0.397,-0.201 0.432,-0.216 0.179,-0.072 0.409,-0.125 0.647,-0.215 0.194,-0.074 0.433,-0.141 0.647,-0.216 0.199,-0.07 0.448,-0.152 0.647,-0.216 0.258,-0.083 0.566,-0.129 0.863,-0.215 0.264,-0.07 0.563,-0.195 0.647,-0.216 0.274,-0.069 0.599,-0.156 0.863,-0.216 0.277,-0.063 0.613,-0.164 0.863,-0.216 0.335,-0.069 0.754,-0.159 1.078,-0.215 0.41,-0.071 0.894,-0.158 1.295,-0.216 0.468,-0.06 1.073,-0.178 1.509,-0.216 0.616,-0.073 1.337,-0.164 1.942,-0.215 2.382,-0.14 5.6,-0.143 7.981,0 0.603,0.052 1.331,0.139 1.941,0.215 0.443,0.04 1.035,0.157 1.51,0.216 0.41,0.066 0.89,0.138 1.295,0.216 0.239,0.046 0.585,0.155 0.862,0.215 0.257,0.056 0.586,0.151 0.863,0.216 0.27,0.064 0.588,0.146 0.863,0.216 0.28,0.072 0.593,0.141 0.863,0.216 0.13,0.036 0.403,0.145 0.647,0.215 0.184,0.054 0.44,0.151 0.647,0.216 0.198,0.062 0.443,0.147 0.647,0.216 0.21,0.07 0.444,0.143 0.647,0.215 0.218,0.078 0.449,0.142 0.648,0.216 0.453,0.17 1.036,0.448 1.509,0.647 8.242,3.986 14.321,10.593 23.297,14.453 0.447,0.207 0.734,0.283 1.079,0.431 0.376,0.15 0.678,0.286 1.078,0.432 0.268,0.105 0.443,0.139 0.647,0.215 0.236,0.088 0.427,0.139 0.647,0.216 0.227,0.08 0.42,0.142 0.647,0.216 0.213,0.069 0.415,0.146 0.648,0.215 0.197,0.059 0.414,0.151 0.647,0.216 0.298,0.08 0.569,0.141 0.863,0.216 0.291,0.074 0.562,0.146 0.862,0.215 0.28,0.066 0.557,0.152 0.863,0.216 0.361,0.071 0.699,0.153 1.079,0.216 0.342,0.057 0.696,0.163 1.078,0.216 0.52,0.08 0.979,0.154 1.51,0.215 0.651,0.066 1.262,0.176 1.942,0.216 2.88,0.23 9.256,0.721 11.864,0 1.096,-0.303 1.349,-0.515 1.725,-1.726 0.279,-0.898 0.25,-0.841 0,-1.725 -0.445,-1.576 -0.597,-1.589 -2.157,-1.942 -3.236,-0.731 -7.223,-0.019 -10.569,-0.215 -0.596,-0.047 -1.333,-0.144 -1.942,-0.216 -0.448,-0.043 -1.035,-0.153 -1.51,-0.216 -0.403,-0.063 -0.896,-0.138 -1.294,-0.215 -0.239,-0.047 -0.591,-0.155 -0.863,-0.216 -0.338,-0.067 -0.75,-0.139 -1.078,-0.216 -0.054,-0.013 -0.394,-0.149 -0.648,-0.216 -0.288,-0.081 -0.61,-0.134 -0.862,-0.215 -0.2,-0.064 -0.446,-0.146 -0.648,-0.216 -0.212,-0.073 -0.45,-0.143 -0.647,-0.216 -0.225,-0.083 -0.451,-0.139 -0.647,-0.216 -4.983,-1.937 -9.447,-5.342 -13.913,-8.196 -0.21,-0.068 0.295,-0.414 0.323,-0.432 0.03,-0.017 0.385,-0.11 0.648,-0.215 0.164,-0.067 0.349,-0.095 0.647,-0.216 0.133,-0.054 0.498,-0.095 0.863,-0.216 0.207,-0.067 0.457,-0.159 0.647,-0.216 0.267,-0.08 0.568,-0.133 0.863,-0.215 0.214,-0.068 0.449,-0.155 0.647,-0.216 0.262,-0.081 0.568,-0.132 0.863,-0.216 0.271,-0.077 0.574,-0.138 0.862,-0.215 0.263,-0.071 0.54,-0.188 0.647,-0.216 0.279,-0.074 0.581,-0.144 0.863,-0.216 0.279,-0.071 0.589,-0.149 0.863,-0.216 0.28,-0.067 0.597,-0.155 0.863,-0.215 0.345,-0.079 0.721,-0.14 1.079,-0.216 0.285,-0.061 0.611,-0.164 0.862,-0.216 0.348,-0.07 0.737,-0.151 1.079,-0.215 0.354,-0.067 0.74,-0.155 1.078,-0.216 0.35,-0.063 0.756,-0.164 1.079,-0.216 0.352,-0.057 0.766,-0.17 1.079,-0.216 0.489,-0.071 1.028,-0.153 1.51,-0.215 0.484,-0.067 1.042,-0.162 1.509,-0.216 0.551,-0.063 1.198,-0.17 1.726,-0.216 0.689,-0.063 1.492,-0.176 2.157,-0.215 2.293,-0.127 5.49,-0.161 7.766,0 0.523,0.047 1.188,0.145 1.725,0.215 0.371,0.041 0.889,0.157 1.295,0.216 0.304,0.044 0.742,0.155 1.078,0.216 0.156,0.028 0.592,0.154 0.863,0.215 0.034,0.008 0.404,0.152 0.647,0.216 0.283,0.075 0.6,0.138 0.863,0.216 0.188,0.055 0.436,0.15 0.647,0.216 0.194,0.06 0.446,0.147 0.647,0.215 0.209,0.071 0.451,0.144 0.647,0.216 0.319,0.117 0.755,0.298 1.079,0.431 8.906,3.935 15.455,10.907 19.198,19.846 0.072,0.195 0.145,0.439 0.216,0.647 0.095,0.242 0.207,0.409 0.215,0.431 0.073,0.195 0.143,0.436 0.216,0.647 0.081,0.234 0.12,0.549 0.216,0.863 0.067,0.246 0.197,0.573 0.215,0.647 0.067,0.269 0.163,0.613 0.216,0.863 0.062,0.293 0.185,0.696 0.216,0.863 0.061,0.333 0.172,0.777 0.216,1.078 0.058,0.409 0.174,0.921 0.215,1.295 0.075,0.595 0.174,1.359 0.216,1.941 0.133,1.911 0.139,4.78 0,6.687" style="fill:#7a7978;fill-opacity:1;fill-rule:nonzero;stroke:none" transform="matrix(1.3333332538604736, 0, 0, -1.3333332538604736, 493.3661270141602, 237.29708433151245)" clip-path="url(#clipPath2666)"/></svg>