<?xml version="1.0" encoding="utf-8"?>
<svg xmlns="http://www.w3.org/2000/svg" viewBox="252.6011 72.3195 228.939 218.2748" width="228.939px" height="218.275px" preserveAspectRatio="none"><g id="g2047" transform="matrix(1, 0, 0, 1, -5645.121299743652, -2.5433161854743958)"><path id="path2048" d="m 0,0 h 47.164 c 5.404,0 6.266,8.581 -0.38,8.581 L 0.237,8.544 C -5.55,8.544 -4.625,0 0,0 m 57.63,38.122 c -17.114,0 -36.067,-0.014 -57.855,-0.014 -4.514,-0.447 -5.083,-8.148 -0.002,-8.743 19.302,0.208 39.572,0.296 57.942,0.296 5.038,0 5.251,8.461 -0.085,8.461 M 83.595,-85.32 c 0,-7.686 -4.929,-8.893 -11.021,-8.893 -26.185,0 -66.272,-0.406 -92.41,-0.002 -4.889,0.075 -7.297,3.83 -7.297,7.502 0,0.015 -0.379,98.345 -0.133,149.402 0,4.182 3.599,6.608 7.082,6.608 l 96.519,0.015 c 1.452,0.005 2.736,-0.175 4.147,-1.201 1.984,-1.442 3.08,-3.809 3.08,-6.262 -0.003,-13.902 -0.064,-28.186 0,-40.88 0,-0.022 -0.007,-0.042 -0.02,-0.059 C 75.768,10.641 68.386,0.178 60.706,-10.232 55.599,-17.153 49.877,-23.8 44.929,-30.826 c -2.707,-3.844 -5.566,-7.56 -6.256,-12.351 -0.001,-0.007 -0.002,-0.014 -0.001,-0.021 0.445,-8.351 -1.078,-17.065 -0.428,-25.374 0.543,-6.949 6.261,-10.97 13.094,-9.735 4.19,0.758 22.048,8.95 26.533,11.317 0.983,0.518 2.492,1.315 3.33,1.96 0.745,0.573 2.396,1.644 2.396,1.591 0,0 -0.002,-21.874 -0.002,-21.881" style="fill:#7a7978;fill-opacity:1;fill-rule:nonzero;stroke:none" transform="matrix(1.3333333,0,0,-1.3333333,5934.1876,167.27893)" clip-path="url(#clipPath2049)"/><path id="path2050" d="m 0,0 c 1.508,-2.562 2.418,-5.487 2.349,-8.699 -0.144,-6.65 -9.726,-17.013 -13.738,-22.546 -18.369,-25.332 -36.795,-50.348 -55.527,-75.044 -1.18,-1.556 -2.777,-2.755 -4.599,-3.458 -7.27,-2.808 -13.404,-5.079 -20.528,-7.971 -3.313,-0.348 -2.948,2.856 -2.946,4.639 0.005,6.901 0.147,15.683 1.252,22.448 0.552,3.384 13.99,19.344 17.016,23.418 13.979,18.825 27.537,38.025 41.624,56.757 3.495,4.649 10.228,14.729 14.828,17.288 C -12.973,10.89 -3.988,6.777 0,0" style="fill:#7a7978;fill-opacity:1;fill-rule:nonzero;stroke:none" transform="matrix(1.3333333,0,0,-1.3333333,6123.5243,102.39333)" clip-path="url(#clipPath2051)"/></g></svg>