<?xml version="1.0" encoding="utf-8"?>
<svg xmlns="http://www.w3.org/2000/svg" viewBox="254.2705 67.4065 245.2754 236.4292" width="245.275px" height="236.429px" preserveAspectRatio="none"><defs><clipPath clipPathUnits="userSpaceOnUse" id="clipPath4567"><path d="M 13623.1 371.725 L 13991.1 371.725 L 13991.1 3.727 L 13623.1 3.727 L 13623.1 371.725 Z" id="path4567"/></clipPath></defs><path id="path4566" d="M 13842.7 246.257 C 13839 265.226 13855.1 274.557 13871.3 278.302 C 13875.6 279.298 13889.1 279.682 13890.9 283.522 C 13895.7 293.611 13881.4 303.067 13873.1 304.831 C 13843.5 311.071 13822 290.147 13814.7 263.249 C 13813.7 259.478 13813 249.041 13810.6 247.28 C 13802.4 241.218 13801.1 261.237 13799.7 265.86 C 13795.2 280.388 13782.1 298.229 13767.4 303.378 C 13755.1 307.709 13733.9 306.425 13725.7 294.907 C 13714.6 279.474 13733.2 280.466 13742.4 278.302 C 13759 274.392 13774.7 264.545 13772.9 245.304 L 13763.8 253.88 C 13747.9 266.348 13721.5 271.441 13706.9 254.4 C 13691.2 236.072 13710.1 213.137 13697.4 198.937 C 13692.4 193.38 13681.6 193.922 13685.2 181.932 C 13687.4 174.584 13707.6 177.904 13713.1 180.436 C 13735.5 190.881 13726.7 207.038 13728.9 225.73 C 13730.1 235.782 13739.5 238.964 13747.1 231.42 C 13771.5 207.085 13748.9 189.936 13743 168.62 C 13731.6 127.034 13739.5 80.908 13788 71.656 C 13854.8 58.916 13889.3 104.457 13871.8 167.89 C 13866.1 188.424 13846.7 198.5 13862.9 224.634 C 13866.9 231.162 13874.1 240.468 13881.8 233.3 C 13888.7 226.836 13884.2 212.086 13884.7 203.69 C 13885.8 184.609 13904.3 174.788 13922 177.876 C 13928 178.914 13930.8 180.736 13929.4 187.264 C 13927.6 195.766 13917.4 194.061 13913.9 203.262 C 13907.1 220.846 13921.1 234.804 13908.4 252.302 C 13892.3 274.601 13857.3 265.741 13842.7 246.257" style="fill:#7a7978;fill-opacity:1;fill-rule:nonzero;stroke:none" clip-path="url(#clipPath4567)" transform="matrix(1, 0, 0, 1, -13430.208984375, -2.104851007461548)"/></svg>