<?xml version="1.0" encoding="utf-8"?>
<svg xmlns="http://www.w3.org/2000/svg" viewBox="317.6208 65.7847 194.4755 245.1187" width="194.476px" height="245.119px" preserveAspectRatio="none"><g id="g374" transform="matrix(1, 0, 0, 1, -545.1416168212891, 4.344472885131836)"><path id="path375" d="m 0,0 -0.001,-0.007 c -0.132,-1.747 -1.673,-3.176 -3.425,-3.176 h -50.918 c -2.024,0 -3.722,1.514 -3.94,3.526 -1.628,15.011 -8.077,74.371 -11.925,108.358 -0.378,3.337 -5.226,3.329 -5.594,-0.008 C -79.507,75.064 -86.329,14.732 -87.99,0.086 c -0.211,-1.861 -1.791,-3.26 -3.663,-3.248 l -50.374,0.35 c -2.219,0.014 -3.968,1.892 -3.821,4.106 1.762,26.522 15.262,173.45 15.408,175.779 0,0.001 0,0.002 0,0.003 0.407,2.079 2.229,3.58 4.347,3.58 h 104.915 c 2.767,0 5.111,-2.036 5.499,-4.775 v 0" style="fill:#7a7978;fill-opacity:1;fill-rule:nonzero;stroke:none" transform="matrix(1.3333333,0,0,-1.3333333,1057.2379,302.31493)" clip-path="url(#clipPath376)"/></g></svg>