<?xml version="1.0" encoding="utf-8"?>
<svg xmlns="http://www.w3.org/2000/svg" viewBox="197.1084 67.5638 221.9131 245.3342" width="221.913px" height="245.334px" preserveAspectRatio="none"><g id="g3039" transform="matrix(1, 0, 0, 1, -8799.93468093872, 6.229689121246338)"><path id="path3040" d="m 0,0 c -1.268,0.535 -2.49,1.22 -3.79,1.687 -9.674,3.47 -27.793,3.557 -37.052,-1.143 -0.939,-0.477 -1.927,-1.169 -2.657,-1.921 -6.622,-20.536 -13.935,-58.368 -20.641,-78.874 -0.189,-0.581 -0.452,-1.222 -0.596,-1.799 -0.05,-0.2 -0.255,-0.227 0.047,-0.451 l 1.496,-0.088 c 16.81,16.836 32.955,44.95 49.312,64.735 C -9.795,-12.912 -4.227,-4.803 0,0 m -51.591,-1.232 c -0.608,0.34 -1.09,0.83 -1.687,1.196 -9.109,5.573 -31.938,5.573 -41.192,0.272 -0.51,-0.292 -2.049,-1.296 -2.159,-1.804 l 21.046,-80.894 c 0.719,-0.122 2.504,-0.421 2.903,0.203 z m -32.204,-81.152 c 0.094,0.135 -0.175,0.978 -0.251,1.225 -5.542,18.194 -12.15,54.084 -18.193,72.166 -0.754,2.256 -1.353,4.813 -2.149,7.005 -0.427,1.178 -2.285,2.211 -3.411,2.759 -9.57,4.658 -29.785,4.566 -39.287,-0.262 -0.751,-0.381 -1.358,-1.059 -2.18,-1.306 -0.056,-0.078 0.378,-0.656 0.493,-0.796 3.633,-4.457 8.366,-11.023 12.122,-15.682 16.14,-20.02 33.726,-45.087 50.471,-64.826 0.658,-0.684 1.56,-0.576 2.385,-0.283 m 91.47,79.683 -60.983,-80.025 0.086,-0.479 c 4.79,-1.411 7.5,-5.797 7.843,-10.635 l -0.001,-12.68 c -0.604,-6.147 -5.138,-11.035 -11.245,-11.131 -9.636,-0.151 -24.228,0.187 -35.268,0 -5.77,0.417 -10.084,4.183 -11.202,9.933 l 0.049,15.822 c 0.953,4.177 3.754,7.235 7.71,8.803 l -61.001,78.514 c -1.474,1.712 -1.203,4.496 -1.098,6.68 1.756,36.298 38.404,59.596 71.382,63.551 C -45.346,70.535 4.323,48.079 8.56,3.089 8.814,0.384 9.531,-0.358 7.675,-2.701" style="fill:#7a7978;fill-opacity:1;fill-rule:nonzero;stroke:none" transform="matrix(1.3333333,0,0,-1.3333333,9207.0764,149.74693)" clip-path="url(#clipPath3041)"/></g></svg>