<?xml version="1.0" encoding="utf-8"?>
<svg xmlns="http://www.w3.org/2000/svg" viewBox="332.0005 56.4348 202.658 245.0855" width="202.658px" height="245.085px" preserveAspectRatio="none"><g id="g1007" transform="matrix(1, 0, 0, 1, -2466.6705207824707, -5.022402048110962)"><path id="path1008" d="m 0,0 c -37.284,36.431 -70.347,108.451 -17.3,147.11 8.871,6.465 31.467,16.867 37.753,3.038 2.998,-6.597 8.553,-28.415 9.133,-35.643 0.267,-3.333 0.412,-8.372 -1.857,-10.987 C 18.337,95.594 -0.121,92.143 1.897,76.871 3.378,65.658 22.966,36.447 32.45,29.952 46.439,20.371 54.086,44.008 67.534,42.279 72.82,41.6 81.846,33.938 86.36,30.543 101.129,19.439 116.334,10.473 99.921,-8.45 91.494,-18.167 75.395,-25.678 62.646,-26.621 36.597,-28.548 17.855,-17.447 0,0" style="fill:#7a7978;fill-opacity:1;fill-rule:nonzero;stroke:none" transform="matrix(1.3333333,0,0,-1.3333333,2858.6289,270.75933)" clip-path="url(#clipPath1009)"/></g></svg>