<?xml version="1.0" encoding="utf-8"?>
<svg xmlns="http://www.w3.org/2000/svg" viewBox="217.3819 47.1057 277.3271 277.3347" width="277.327px" height="277.335px" preserveAspectRatio="none"><g id="g378" transform="matrix(1, 0, 0, 1, -603.9569597244263, 1.771033763885498)"><path id="path379" d="m 0,0 c -2.879,0 -5.213,2.334 -5.213,5.213 0,2.879 2.334,5.212 5.213,5.212 2.879,0 5.213,-2.333 5.213,-5.212 C 5.213,2.334 2.879,0 0,0 m 35.292,-0.166 c -0.712,2.295 -3,2.092 -4.753,2.969 -9.987,4.996 -17.602,13.809 -26.71,20.149 3.232,9.216 12.627,16.69 -4.537,14.878 -4.868,-0.514 -8.429,-3.066 -12.894,-4.563 -23.593,10.208 -68.899,17.388 -88.314,-3.368 -0.773,-0.826 -1.773,-2.213 -2.087,-3.325 -8.562,4.239 -0.087,8.26 0.446,11.184 0.996,5.467 -6.48,4.126 -9.439,1.157 -6.421,-6.443 -2.907,-16.245 4.351,-20.108 -4.746,-10.874 -4.491,-22.672 -1.268,-33.923 0.973,-3.397 2.988,-6.97 3.732,-10.165 1.843,-7.91 1.678,-17.209 3.597,-25.225 1.862,-3.326 14.056,-2.528 15.959,-0.505 1.366,1.453 1.088,13.585 1.68,16.338 h 45.819 c 1.859,-3.356 2.619,-14.752 5.043,-16.839 2.537,-2.183 11.732,-1.365 13.707,1.286 1.873,2.515 2.157,15.384 3.375,16.338 8.425,1.635 16.83,3.201 24.991,5.895 5.868,1.938 23.504,8.653 26.1,14.052 1.337,2.781 2.088,10.92 1.202,13.775" style="fill:#7a7978;fill-opacity:1;fill-rule:nonzero;stroke:none" transform="matrix(1.3333333,0,0,-1.3333333,1051.0983,252.31453)" clip-path="url(#clipPath380)"/><path id="path381" d="m 0,0 c 3.007,0 5.444,-2.437 5.444,-5.444 0,-3.006 -2.437,-5.443 -5.444,-5.443 -3.006,0 -5.444,2.437 -5.444,5.443 C -5.444,-2.437 -3.006,0 0,0 m -53.163,-66.191 c 1.486,0.4 5.2,2.233 6.1,2.173 0.94,-0.063 4.52,-2.287 6.01,-2.786 4.581,-1.536 9.931,-2.042 14.545,-0.44 0.539,-4.667 0.975,-9.389 1.385,-14.074 0.004,-0.047 0.008,-0.103 0.012,-0.152 5.463,1.317 11.432,2.074 17.856,2.255 l 0.666,18.119 c 5.071,3.948 9.888,8.223 12.463,14.289 0.528,1.243 2.224,5.97 2.224,7.001 v 8.071 H 18.94 c 6.243,0 13.239,6.061 12.668,12.626 -0.439,5.049 -6.366,14.543 -9.684,18.491 -1.256,1.495 -5.35,4.777 -5.794,6.224 -0.742,2.414 1.381,3.526 2.208,5.227 3.104,6.383 -5.084,11.169 -10.52,11.803 -11.641,1.358 -23.615,-3.853 -30.398,-13.317 -8.87,5.612 -19.681,5.073 -29.288,1.598 -0.982,-0.355 -3.293,-1.917 -3.934,-1.908 -0.381,0.005 -4.13,2.138 -5.173,2.505 -10.277,3.616 -22.384,1.992 -30.999,-4.778 -3.396,-2.669 -5.598,-6.523 -8.388,-9.14 -1.807,-1.696 -5.011,-3.11 -7.092,-4.902 -8.271,-7.116 -8.63,-17.016 -2.933,-25.964 0.553,-0.869 1.909,-1.725 2.133,-2.479 0.643,-2.161 -0.154,-6.869 0.143,-9.542 1.093,-9.845 8.523,-16.073 17.898,-17.849 l 1.455,-26.449 c -0.004,-4.863 12.56,-4.031 14.701,-2.757 2.136,1.271 2.484,5.062 2.798,7.35 0.901,6.593 0.924,13.419 1.395,20.055 5.392,-2.705 10.958,-2.798 16.701,-1.25" style="fill:#7a7978;fill-opacity:1;fill-rule:nonzero;stroke:none" transform="matrix(1.3333333,0,0,-1.3333333,973.64773,75.800267)" clip-path="url(#clipPath382)"/></g></svg>