<?xml version="1.0" encoding="utf-8"?>
<svg xmlns="http://www.w3.org/2000/svg" viewBox="418.6367 50.1898 245.333 210.1027" width="245.333px" height="210.103px" preserveAspectRatio="none"><path id="path1506" d="M 4735.04 223.621 C 4725.31 217.066 4712.12 210.814 4701.2 206.469 C 4700.7 163.13 4671.98 124.77 4630.21 113.243 C 4627.45 112.482 4617.65 111.605 4617.14 111.183 C 4616.85 110.946 4616.06 106.081 4614.61 104.181 C 4613.08 102.175 4610.41 100.746 4607.29 99.914 L 4607.29 75.641 C 4616.39 79.558 4631.88 83.613 4650.52 84.814 C 4679.17 86.661 4695.64 77.858 4695.64 69.278 C 4695.64 60.697 4679.17 51.945 4650.52 53.741 C 4631.69 54.922 4616.31 59.371 4607.29 63.341 L 4607.29 62.379 C 4607.29 59.122 4604.65 56.481 4601.39 56.481 C 4598.14 56.481 4595.5 59.122 4595.5 62.379 L 4595.5 63.341 C 4586.48 59.371 4571.1 54.922 4552.27 53.741 C 4523.62 51.945 4507.15 60.697 4507.15 69.278 C 4507.15 77.858 4523.62 86.661 4552.27 84.814 C 4570.91 83.613 4586.4 79.558 4595.5 75.641 L 4595.5 99.515 C 4591.52 100.267 4588.03 101.951 4586.22 104.63 C 4585.01 106.421 4584.59 109.963 4583.4 110.775 C 4581.66 111.963 4573.29 112.343 4570.16 113.225 C 4531.31 124.166 4503.33 158.833 4500.4 199.261 C 4499.62 209.907 4497.33 230.755 4512.23 231.323 C 4521.96 231.694 4536.66 227.125 4546.98 226.759 C 4548.78 226.695 4550.56 226.454 4552.32 227.009 C 4577.27 243.163 4598.78 270.387 4631.57 262.059 C 4655.76 255.914 4668.67 241.13 4698.12 243.721 C 4709.38 244.711 4740.54 259.03 4744.54 241.663 C 4746.83 231.717 4742.18 228.437 4735.04 223.621" style="fill:#7a7978;fill-opacity:1;fill-rule:nonzero;stroke:none" clip-path="url(#clipPath1507)" transform="matrix(1, 0, 0, 1, -4081.1587829589844, -3.314793109893799)"/></svg>