<?xml version="1.0" encoding="utf-8"?>
<svg xmlns="http://www.w3.org/2000/svg" viewBox="289.832 85.5967 277.2891 147.8987" width="277.289px" height="147.899px" preserveAspectRatio="none"><g id="g3926" transform="matrix(1, 0, 0, 1, -11395.523292541504, -24.45362949371338)"><path id="path3927" d="m 0,0 c -0.561,0.563 -1.433,1.883 -1.616,2.62 -1.436,5.805 -1.333,13.283 -2.769,19.675 -20.271,90.247 -150.093,90.26 -166.694,-8.358 -0.885,-5.259 0.749,-14.537 -6.713,-15.714 -13.762,-2.169 -13.547,5.412 -12.702,16.57 7.058,93.199 128.023,127.469 185.114,54.451 C 6.546,53.991 19.788,22.696 16.691,3.254 15.668,-3.171 3.381,-3.393 0,0" style="fill:#7a7978;fill-opacity:1;fill-rule:nonzero;stroke:none" transform="matrix(1.3333333,0,0,-1.3333333,11939.781,254.95813)" clip-path="url(#clipPath3928)"/><path id="path3929" d="m 0,0 c 33.357,3.229 64.842,-17.211 73.397,-49.879 1.618,-6.177 5.932,-21.862 -3.297,-23.315 -14.967,-2.357 -12.259,4.918 -14.784,15.287 -11.964,49.135 -79.203,51.114 -93.602,4.943 -3.373,-10.814 0.443,-23.244 -16.034,-20.235 -6.857,1.252 -5.58,9.85 -4.97,14.946 C -55.643,-27.814 -30.617,-2.963 0,0" style="fill:#7a7978;fill-opacity:1;fill-rule:nonzero;stroke:none" transform="matrix(1.3333333,0,0,-1.3333333,11813.412,159.7352)" clip-path="url(#clipPath3930)"/><path id="path3931" d="m 0,0 c 9.458,0.356 20.488,-4.399 26.402,-11.814 3.838,-4.813 10.648,-19.575 3.538,-23.608 -2.039,-1.156 -10.418,-1.183 -12.617,-0.164 -2.975,1.378 -3.055,6.282 -4.247,8.899 -4.519,9.913 -18.047,10.06 -22.616,-0.187 -1.305,-2.926 -0.972,-7.219 -4.447,-8.698 -4.329,-1.843 -14.254,-1.588 -15.222,4.487 C -31.73,-15.277 -14.961,-0.564 0,0" style="fill:#7a7978;fill-opacity:1;fill-rule:nonzero;stroke:none" transform="matrix(1.3333333,0,0,-1.3333333,11821.703,209.1784)" clip-path="url(#clipPath3932)"/></g></svg>