<?xml version="1.0" encoding="utf-8"?>
<svg xmlns="http://www.w3.org/2000/svg" viewBox="197.8818 66.7739 209.8037 245.3427" width="209.804px" height="245.343px" preserveAspectRatio="none"><g id="g3454" transform="matrix(1, 0, 0, 1, -9969.216613769531, 5.445261478424072)"><path id="path3455" d="m 0,0 c 0,-0.806 -0.43,-1.007 -1.009,-1.007 h -13.787 c 0,15.905 -0.028,28.06 -0.028,48.738 0,5.991 2.053,17.597 11.039,12.985 C -2.925,60.275 0,58.08 0,49.238 Z m -33.091,-6.454 h -95.265 c -3.008,0 -5.447,2.438 -5.447,5.447 0,3.008 2.439,5.446 5.447,5.446 h 95.265 c 3.008,0 5.447,-2.438 5.447,-5.446 0,-3.009 -2.439,-5.447 -5.447,-5.447 m -8.851,-31.734 h -77.563 c -1.87,0 -3.386,1.516 -3.386,3.386 0,1.871 1.516,3.387 3.386,3.387 h 77.563 c 1.87,0 3.387,-1.516 3.387,-3.387 0,-1.87 -1.517,-3.386 -3.387,-3.386 m 0,-18.141 h -77.563 c -1.87,0 -3.386,1.516 -3.386,3.386 0,1.87 1.516,3.386 3.386,3.386 h 77.563 c 1.87,0 3.387,-1.516 3.387,-3.386 0,-1.87 -1.517,-3.386 -3.387,-3.386 m -29.419,-18.142 h -48.144 c -1.87,0 -3.386,1.516 -3.386,3.386 0,1.87 1.516,3.387 3.386,3.387 h 48.144 c 1.87,0 3.386,-1.517 3.386,-3.387 0,-1.87 -1.516,-3.386 -3.386,-3.386 m -54.745,89.508 c 4.446,17.832 19.12,31.614 37.432,34.751 0.372,4.066 3.787,7.252 7.95,7.252 4.164,0 7.579,-3.186 7.951,-7.252 18.312,-3.136 32.986,-16.919 37.432,-34.751 0.588,-2.36 -1.186,-4.651 -3.619,-4.651 h -83.527 c -2.433,0 -4.207,2.291 -3.619,4.651 M -5.017,72.253 -130.138,72.23 c -8.339,0 -16.311,-7.405 -16.311,-15.282 l -0.202,-163.816 c 0,-6.188 7.963,-4.63 12.764,-1.92 3.017,1.703 8.745,8.846 13.728,8.846 3.848,0 11.895,-9.916 18.948,-9.916 9.567,0 14.184,9.462 20.187,9.462 6.715,0 8.977,-9.454 21.51,-9.454 7.276,0 13.322,9.318 18.154,9.313 5.486,-0.005 14.443,-11.217 22.706,-11.217 3.806,0 3.858,1.888 3.858,2.911 v 97.758 H 8.407 c 1.301,0 2.004,0.485 2.004,2.028 l 0.291,66.107 c 0,10.384 -7.564,15.203 -15.719,15.203" style="fill:#7a7978;fill-opacity:1;fill-rule:nonzero;stroke:none" transform="matrix(1.3333333,0,0,-1.3333333,10362.633,157.666)" clip-path="url(#clipPath3456)"/></g></svg>