<?xml version="1.0" encoding="utf-8"?>
<svg xmlns="http://www.w3.org/2000/svg" viewBox="252.7227 66.296 198.5859 245.3363" width="198.586px" height="245.336px" preserveAspectRatio="none"><g id="g3579" transform="matrix(1, 0, 0, 1, -10308.00119972229, 4.964245319366455)"><path id="path3580" d="m 0,0 c -4.063,0 -7.357,3.294 -7.357,7.357 0,4.064 3.294,7.358 7.357,7.358 4.063,0 7.357,-3.294 7.357,-7.358 C 7.357,3.294 4.063,0 0,0 m -7.961,28.146 c -10e-4,10e-4 -0.003,10e-4 -0.005,10e-4 h -38.22 c -0.673,-0.007 -1.721,-0.159 -2.082,1.405 -0.102,0.444 -0.148,1.789 -0.085,5.672 0.033,2.013 1.026,6.035 1.125,6.397 4.673,17.134 28.033,20.577 37.269,4.868 0.882,-1.501 3.489,-5.183 3.489,-10.267 v -6.957 c 0,-0.776 -0.717,-1.184 -1.491,-1.119 M -54.13,0 c -4.064,0 -7.358,3.294 -7.358,7.357 0,4.064 3.294,7.358 7.358,7.358 4.063,0 7.357,-3.294 7.357,-7.358 C -46.773,3.294 -50.067,0 -54.13,0 M 47.373,-103.739 c 0,0 -12.707,124.903 -12.724,124.968 -0.666,2.558 -2.53,5.261 -6.259,6.183 -2.251,0.556 -8.508,0.685 -11.201,0.763 C 13.828,28.273 10.347,28.144 7.037,28.14 6.186,28.139 5.495,28.824 5.495,29.675 v 6.546 c 0,26.794 -32.917,41.476 -53.253,24.528 C -53,56.38 -59.716,46.908 -59.716,38.613 V 28.98 c 0,-0.339 -0.228,-1.129 -1.462,-1.129 -4.163,0 -9.428,0.055 -14.036,-0.06 -6.567,-0.164 -12.049,0.358 -14.22,-6.523 -0.03,-0.094 -0.055,-0.193 -0.064,-0.292 -4.074,-42.877 -9.059,-85.766 -12.033,-128.696 -0.007,-0.093 -0.004,-0.187 0.01,-0.279 0.675,-4.419 4.662,-7.92 9.176,-8.012 H 37.46 c 0.044,0 0.088,0.002 0.132,0.006 6.849,0.64 10.174,5.584 9.781,12.266" style="fill:#7a7978;fill-opacity:1;fill-rule:nonzero;stroke:none" transform="matrix(1.3333333,0,0,-1.3333333,10696.104,151.9868)" clip-path="url(#clipPath3581)"/></g></svg>