<?xml version="1.0" encoding="utf-8"?>
<svg xmlns="http://www.w3.org/2000/svg" viewBox="238.1367 59.4974 245.3369 245.3373" width="245.337px" height="245.337px" preserveAspectRatio="none"><g id="g1916" transform="matrix(1, 0, 0, 1, -5255.193440437316, -1.8365920782089233)"><path id="path1917" d="m 0,0 c 0.75,0.524 1.799,0.29 2.227,-0.519 0.041,-0.079 0.087,-0.157 0.136,-0.233 10.351,-16.079 19.174,-33.067 28.05,-49.96 2.8,-5.331 8.887,-16.689 8.378,-22.287 -0.185,-2.041 -0.843,-5.665 -2.253,-7.52 -0.442,-0.582 -0.372,-1.395 0.146,-1.911 1.885,-1.876 5.127,-3.67 7.374,-3.851 9.823,-0.791 11.188,7.773 19.757,12.348 6.717,3.586 11.381,-4.999 7.132,-9.461 -3.702,-3.888 -8.237,-9.582 -13.477,-12.583 -7.908,-4.528 -19.084,-3.627 -26.237,1.951 -1.522,1.187 -4.548,4.954 -5.203,5.251 -1.391,0.632 -5.476,-1.351 -7.827,-0.861 -6.554,1.367 -11.786,6.155 -16.184,10.751 -7.095,7.414 -14.643,15.016 -21.325,22.726 -7.196,8.304 -13.639,17.304 -20.997,25.473 -0.739,0.82 -0.604,2.096 0.301,2.728 z" style="fill:#7a7978;fill-opacity:1;fill-rule:nonzero;stroke:none" transform="matrix(1.3333333,0,0,-1.3333333,5610.8543,174.84933)" clip-path="url(#clipPath1918)"/><path id="path1919" d="m 0,0 c -2.485,-1.737 -4.503,1.437 -5.241,2.976 -2.048,4.265 -4.089,7.203 -5.403,11.995 -7.68,28.009 19.163,55.874 47.419,51.717 12.963,-1.907 19.217,-7.83 28.131,-16.624 0.193,-0.19 2.768,-2.766 1.081,-3.945 z" style="fill:#7a7978;fill-opacity:1;fill-rule:nonzero;stroke:none" transform="matrix(1.3333333,0,0,-1.3333333,5509.2969,179.1324)" clip-path="url(#clipPath1920)"/><path id="path1921" d="m 0,0 c -1.004,0.985 -0.846,2.652 0.307,3.458 l 64.889,45.351 c 1.345,0.94 3.165,-2.164 3.093,-2.935 2.399,-8.277 3.378,-15.006 1.273,-22.862 -0.639,-2.387 -2.137,-4.46 -4.163,-5.875 L 30.075,-7.526 C 27.383,-9.406 24.103,-10.273 20.837,-9.928 13.043,-9.106 5.587,-5.481 0,0" style="fill:#7a7978;fill-opacity:1;fill-rule:nonzero;stroke:none" transform="matrix(1.3333333,0,0,-1.3333333,5514.7953,190.728)" clip-path="url(#clipPath1922)"/><path id="path1923" d="m 0,0 v 32.548 c 0,1.278 -2.29,3.013 -3.603,2.844 L -36.42,30.375 c -1.938,-0.181 -3.737,-1.253 -4.01,-3.318 l 0.01,-43.611 c -0.885,-12.903 -20.461,-14.248 -23.685,-2.18 -1.092,4.085 1.715,8.604 5.201,10.65 3.303,1.938 7.473,1.739 11.029,0.756 v 47.081 c 0,2.57 2.508,5.695 4.979,6.379 13.987,2.42 28.088,4.319 42.104,6.626 3.894,0.318 7.279,-2.147 8.089,-5.952 0.359,-18.692 0.044,-37.441 0.159,-56.155 -0.901,-8.12 -8.632,-11.897 -16.098,-9.735 -5.312,1.538 -9.263,7.371 -7.148,12.829 C -13.324,0.109 -6.11,2.055 0,0" style="fill:#7a7978;fill-opacity:1;fill-rule:nonzero;stroke:none" transform="matrix(1.3333333,0,0,-1.3333333,5728.7004,131.71467)" clip-path="url(#clipPath1924)"/></g></svg>