<?xml version="1.0" encoding="utf-8"?>
<svg xmlns="http://www.w3.org/2000/svg" viewBox="248.9824 50.3667 199.4824 245.3324" width="199.482px" height="245.332px" preserveAspectRatio="none"><g id="g2430" transform="matrix(1, 0, 0, 1, -6819.2763023376465, -10.96665906906128)"><path id="path2431" d="m 0,0 c -2.153,1.295 -4.562,0.405 -5.345,-1.982 -1.176,-3.59 -2.061,-8.155 -0.913,-9.726 0.194,-0.266 2.481,-2.847 5.155,-2.847 2.897,0 11.059,2.709 10.875,5.953 C 9.631,-6.125 4.418,-2.657 0,0 M 2.891,21.678 C 10.073,16.772 17.973,10.664 25.059,5.271 27.405,3.485 30.418,1.896 32.458,-0.384 44.025,-13.312 16.84,-27.251 7.054,-30.328 c -3.779,-1.189 -7.912,-2.147 -11.912,-2.343 -0.473,-0.024 -0.904,-0.268 -1.156,-0.669 l -5.354,-8.54 -29.43,-42.047 c -0.243,-0.346 -0.321,-0.781 -0.214,-1.19 0.093,-0.358 0.32,-0.666 0.634,-0.862 l 12.936,-8.046 c 0.054,-0.034 0.108,-0.073 0.157,-0.113 4.324,-3.562 6.556,-5.216 5.91,-11.464 -0.36,-3.481 -2.285,-4.991 -3.902,-7.522 -7.398,-11.574 -18.274,-29.84 -30.006,-36.661 -8.684,-5.049 -22.026,-7.222 -32.095,-7.904 -14.484,-0.982 -18.408,4.254 -22.661,17.024 -2.897,8.699 -4.819,19.358 -4.175,28.539 0.87,12.393 7.292,18.023 13.793,27.381 4.21,6.061 8.767,13.856 13.499,19.402 9.156,10.731 19.886,-3.492 28.63,-7.908 0.322,-0.163 0.846,-0.499 1.138,-0.297 11.733,17.359 23.824,34.559 36.139,51.504 0.268,0.368 0.339,0.838 0.202,1.272 -1.65,5.27 -2.096,11.141 -1.859,16.676 0.341,7.949 2.861,19.942 7.49,26.496 0.935,1.324 1.799,2.55 3.432,3.106 5.864,1.994 10.016,-0.668 14.641,-3.828" style="fill:#7a7978;fill-opacity:1;fill-rule:nonzero;stroke:none" transform="matrix(1.3333333,0,0,-1.3333333,7220.7103,96.259467)" clip-path="url(#clipPath2432)"/></g></svg>