<?xml version="1.0" encoding="utf-8"?>
<svg xmlns="http://www.w3.org/2000/svg" viewBox="248.1792 42.0212 245.332 277.333" width="245.332px" height="277.333px"><g id="object-0" transform="matrix(1, 0, 0, 1, -7185.15877532959, -3.314793109893799)"><path id="path2538" d="M 7559.17 213.821 C 7555.22 213.821 7552.03 210.623 7552.03 206.679 C 7552.03 202.737 7555.22 199.539 7559.17 199.539 C 7563.11 199.539 7566.31 202.737 7566.31 206.679 C 7566.31 210.623 7563.11 213.821 7559.17 213.821 M 7604.45 238.859 C 7603.45 232.405 7588.16 214.335 7584.63 204.425 C 7582.58 198.663 7583.79 194.787 7583.16 189.207 C 7574.4 111.379 7452.98 98.667 7434.96 179.955 C 7428.11 210.853 7444.57 229.626 7454.26 257.374 C 7461.5 278.094 7453.06 296.419 7454.97 317.354 C 7455.14 319.202 7455.3 320.73 7456.47 321.783 C 7457.14 322.398 7460.89 322.673 7461.81 322.669 L 7542.59 322.311 C 7543.72 322.306 7544.77 321.663 7545.22 320.627 C 7545.27 320.518 7545.3 320.425 7545.31 320.353 C 7546.29 314.95 7544.06 301.515 7544.61 295.334 C 7544.65 294.897 7544.78 294.466 7545.03 294.105 C 7547.32 290.785 7555.18 292.67 7556.8 292.669 C 7563.09 292.667 7569.33 291.055 7574.05 286.846 C 7585.51 276.629 7582.85 273.23 7584.03 260.066 C 7585.13 247.727 7587.39 251.443 7596.47 249.746 C 7602.6 248.599 7605.44 245.239 7604.45 238.859" style="fill:#7a7978;fill-opacity:1;fill-rule:nonzero;stroke:none" clip-path="url(#clipPath2539)"/><path id="path2540" d="M 7678.67 93.08 C 7678.67 66.712 7651.21 45.336 7617.33 45.336 C 7583.46 45.336 7556 66.712 7556 93.08 C 7556 114.624 7574.34 132.825 7599.52 138.767 C 7602.37 139.44 7604.46 141.908 7604.53 144.839 C 7604.61 148.585 7604.26 151.905 7603.9 154.257 C 7603.65 155.883 7605.26 157.151 7606.77 156.517 C 7611.54 154.527 7620.3 150.249 7628.49 142.984 C 7630.97 140.777 7633.93 139.125 7637.14 138.272 C 7661.29 131.86 7678.67 114.052 7678.67 93.08" style="fill:#7a7978;fill-opacity:1;fill-rule:nonzero;stroke:none" clip-path="url(#clipPath2541)"/></g></svg>