<?xml version="1.0" encoding="utf-8"?>
<svg xmlns="http://www.w3.org/2000/svg" viewBox="197.7847 56.3513 224.0943 277.1954" width="224.094px" height="277.195px" preserveAspectRatio="none"><path id="path1381" d="m 0,0 c -0.828,-1.705 -4.545,-6.812 -7.178,-10.679 -1.779,-2.612 -1.843,-4.771 -0.58,-7.667 2.507,-5.749 7.192,-14.814 4.731,-17.416 -3.2,-3.383 -13.052,-0.107 -18.705,1.934 -2.438,0.88 -5.158,0.256 -7.001,-1.567 -3.073,-3.039 -7.228,-7.521 -10.82,-8.96 -2.897,-1.16 -6.14,0.567 -6.928,3.587 -1.088,4.174 -0.033,9.153 -0.298,13.494 -0.179,2.923 -1.828,5.56 -4.304,7.124 -4.838,3.057 -11.975,6.847 -13.094,9.522 -0.84,2.008 -0.389,3.27 0.803,4.931 1.601,2.232 8.932,5.362 13.822,7.148 3.08,1.125 5.332,3.78 5.959,6.999 0.89,4.572 1.875,10.539 3.103,12.418 1.668,2.552 4.125,2.993 6.661,1.355 2.516,-1.624 4.687,-5.1 6.814,-8.446 2.379,-3.743 6.561,-5.947 10.994,-5.788 4.016,0.144 8.832,0.174 11.226,-0.036 C -0.299,7.561 2.092,4.308 0,0 m -93.249,23.546 c -28.134,-32.764 -23.317,-79.68 -11.804,-117.967 -7.372,-5.912 -23.39,-14.534 -9.615,-21.439 1.697,-0.746 3.254,-1.456 4.702,-2.135 -4.385,-4.562 -9.126,-4.948 -14.692,-5.393 -6.628,-0.531 -14.14,-1.133 -20.956,-9.507 -3.904,-4.797 -5.583,-9.837 -4.991,-14.978 0.979,-8.495 7.929,-13.959 8.225,-14.188 0.545,-0.422 1.188,-0.626 1.828,-0.626 0.893,0 1.776,0.399 2.368,1.158 1.016,1.304 0.782,3.187 -0.517,4.208 -0.053,0.041 -5.284,4.213 -5.948,10.178 -0.385,3.46 0.856,6.98 3.69,10.461 5.196,6.385 10.563,6.815 16.779,7.313 6.412,0.513 13.489,1.083 19.798,8.658 2.934,-1.478 5.322,-2.748 7.484,-3.819 4.44,-1.676 8.176,-1.074 9.889,5.721 0.674,2.671 -1.092,13.417 0.909,14.681 45.077,5.815 99.728,29.758 103.291,81.864 4.074,59.581 -71.225,91.478 -110.44,45.81" style="fill:#7a7978;fill-opacity:1;fill-rule:nonzero;stroke:none" transform="matrix(1.3333332538604736, 0, 0, -1.3333332538604736, 398.7457809448243, 116.63065481185913)" clip-path="url(#clipPath1382)"/></svg>