<?xml version="1.0" encoding="utf-8"?>
<svg xmlns="http://www.w3.org/2000/svg" viewBox="300.1816 46.789 207.7104 245.3214" width="207.71px" height="245.321px" preserveAspectRatio="none"><g id="g2303" transform="matrix(1, 0, 0, 1, -6375.963077545166, -14.550234317779541)"><path id="path2304" d="m 0,0 c -1.385,-1.153 -1.236,-0.832 -2.571,-1.236 -1.025,-0.31 -1.222,-1.486 -1.587,-2.317 -1.273,-2.903 -3.705,-7.245 -4.605,-9.997 l -0.005,-0.016 c -0.278,-0.852 0.184,-1.776 1.038,-2.048 5.315,-1.698 10.896,-3.051 16.065,-5.071 3.103,-1.213 5.522,-2.242 3.749,-6.201 -1.49,-3.326 -8.16,-8.507 -10.562,-11.559 -0.22,-0.281 -0.675,-0.254 -0.46,-0.982 8.528,-2.096 17.602,-6.919 23.339,-13.686 6.664,-7.861 8.729,-17.017 10.002,-27.019 0.095,-0.74 0.065,-1.703 -0.1,-2.695 -0.46,-2.759 -2.889,-4.759 -5.686,-4.759 l -142.772,0.009 c -3.986,0.001 -7.234,3.255 -7.17,7.241 0.012,0.741 0.057,1.41 0.11,1.927 1.903,18.664 10.439,29.94 27.586,36.559 0.681,0.263 5.858,2.1 5.85,2.918 -0.013,1.316 -3.8,3.952 -4.453,4.668 -1.832,2.009 -6.552,6.849 -6.743,9.33 -0.212,2.743 1.598,2.782 3.325,3.479 4.973,2.007 10.594,4.054 15.676,5.763 0.038,0.013 0.077,0.025 0.116,0.038 1.444,0.444 2.219,2.004 1.626,3.394 l -4.777,11.212 c -1.249,0.534 -1.711,0.484 -2.712,1.46 -4.54,4.429 -5.768,15.554 -2.094,21.063 3.007,-0.653 4.721,-0.685 6.89,-0.833 25.361,-1.736 55.658,-2.164 78.445,0.823 5.42,0.71 4.702,0.038 5.483,-3.986 C 4.101,11.821 5.193,4.325 0,0" style="fill:#7a7978;fill-opacity:1;fill-rule:nonzero;stroke:none" transform="matrix(1.3333333,0,0,-1.3333333,6837.9128,189.87933)" clip-path="url(#clipPath2305)"/><path id="path2306" d="m 0,0 c 0.75,-0.317 3.615,-1.852 4.348,-2.515 8.839,-7.983 -10.441,-12.532 -15.353,-13.474 -21.896,-4.2 -49.665,-3.222 -72.059,-2.593 -14.492,0.407 -32.453,0.396 -46.198,5.122 -1.638,0.564 -12.628,4.631 -6.45,10.979 2.169,2.229 9.456,4.335 12.62,5.112 3.215,0.789 6.523,1.202 9.78,1.73 2.781,0.451 5.052,2.48 5.837,5.186 2.325,8.02 4.149,16.235 6.704,24.162 1.792,5.56 3.459,11.06 9.188,13.756 8.534,4.015 14.263,-2.478 21.53,-4.652 10.747,-3.214 18.632,8.222 28.574,5.625 4.997,-1.306 8.414,-5.661 10.127,-10.316 l 8.515,-30.215 c 0.452,-1.602 1.698,-2.86 3.302,-3.308 C -14.143,3.092 -3.071,1.299 0,0" style="fill:#7a7978;fill-opacity:1;fill-rule:nonzero;stroke:none" transform="matrix(1.3333333,0,0,-1.3333333,6867.4868,126.43947)" clip-path="url(#clipPath2307)"/></g></svg>