<?xml version="1.0" encoding="utf-8"?>
<svg xmlns="http://www.w3.org/2000/svg" viewBox="235.6885 62.8463 240.801 245.3424" width="240.801px" height="245.342px" preserveAspectRatio="none"><g id="g1259" transform="matrix(1, 0, 0, 1, -3319.910708427429, 1.5175747871398926)"><path id="path1260" d="m 0,0 c 4.016,-5.01 7.88,-14.223 8.406,-20.628 0.255,-3.118 0.148,-18.723 -3.328,-19.583 -7.92,3.33 -16.422,6.179 -25.079,4.603 -3.442,-0.627 -10.292,-3.984 -13.483,-3.482 -2.269,0.357 -3.744,2.864 -4.879,3.529 -5.811,3.405 -15.445,6.371 -22.179,6.46 -4.86,0.065 -10.611,-1.802 -15.476,-2.344 -3.035,8.611 0.461,20.364 5.127,27.947 C -55.7,21.189 -18.011,22.47 0,0" style="fill:#7a7978;fill-opacity:1;fill-rule:nonzero;stroke:none" transform="matrix(1.3333333,0,0,-1.3333333,3720.214,133.53933)" clip-path="url(#clipPath1261)"/><path id="path1262" d="m 0,0 c -2.952,4.049 -0.715,6.329 2.036,9.921 2.045,2.669 7.717,8.554 10.257,10.857 4.751,4.307 11.646,1.794 11.818,-4.485 C 24.26,10.852 15.486,5.091 11.351,0.608 7.228,-3.076 4.025,-5.522 0,0" style="fill:#7a7978;fill-opacity:1;fill-rule:nonzero;stroke:none" transform="matrix(1.3333333,0,0,-1.3333333,3723.2597,120.32133)" clip-path="url(#clipPath1263)"/><path id="path1264" d="m 0,0 c -1.025,-1.842 -3.369,-2.816 -5.426,-3.069 -3.937,-0.483 -16.081,-0.629 -19.843,-0.034 -6.075,0.961 -5.578,10.068 -0.467,12.129 2.9,1.168 16.177,1.092 19.785,0.733 C -0.469,9.213 3.017,5.423 0,0" style="fill:#7a7978;fill-opacity:1;fill-rule:nonzero;stroke:none" transform="matrix(1.3333333,0,0,-1.3333333,3783.5508,171.31507)" clip-path="url(#clipPath1265)"/><path id="path1266" d="m 0,0 c -3.544,-3.942 -11.845,-2.454 -11.99,3.601 -0.103,4.306 -0.052,14.084 0.522,18.127 1.063,7.492 10.989,8.411 12.709,1.671 C 1.858,20.98 1.769,5.944 1.409,2.992 1.264,1.797 0.786,0.874 0,0" style="fill:#7a7978;fill-opacity:1;fill-rule:nonzero;stroke:none" transform="matrix(1.3333333,0,0,-1.3333333,3681.8779,98.588133)" clip-path="url(#clipPath1267)"/><path id="path1268" d="m 0,0 c 1.899,0.261 4.234,-0.427 5.726,-1.626 2.072,-1.666 10.217,-10.718 11.687,-12.947 1.872,-2.841 1.799,-6.215 -0.875,-8.454 -2.579,-2.161 -4.403,-2.322 -7.191,-0.779 -2.198,1.217 -12.98,11.59 -14.39,13.759 C -7.811,-5.791 -4.801,-0.659 0,0" style="fill:#7a7978;fill-opacity:1;fill-rule:nonzero;stroke:none" transform="matrix(1.3333333,0,0,-1.3333333,3602.982,89.638267)" clip-path="url(#clipPath1269)"/><path id="path1270" d="m 0,0 c 3.366,0.503 9.253,0.38 12.744,0.15 1.653,-0.109 6.973,-0.647 8.101,-1.284 3.896,-2.202 3.534,-10.953 -2.217,-11.625 -2.66,-0.311 -19.714,-0.287 -21.286,0.444 C -7.594,-10.018 -6.653,-0.995 0,0" style="fill:#7a7978;fill-opacity:1;fill-rule:nonzero;stroke:none" transform="matrix(1.3333333,0,0,-1.3333333,3574.0403,159.28413)" clip-path="url(#clipPath1271)"/><path id="path1272" d="m 0,0 c -0.775,1.926 -2.04,3.4 -3.089,4.961 -9.927,14.78 -22.44,20.501 -40.378,14.983 -1.857,-0.572 -5.381,-2.932 -7.094,-2.851 -0.874,0.041 -7.618,5.286 -9.522,6.252 -21.36,10.839 -46.914,-0.388 -54.374,-22.744 -0.736,-2.205 -1.569,-9.615 -2.372,-10.53 -0.376,-0.427 -8.353,-3.244 -10.228,-4.436 -13.94,-8.869 -15.829,-28.392 -6.436,-40.541 3.228,-4.177 8.319,-6.487 13.598,-6.487 H 18.717 c 3.857,0 7.638,1.233 10.665,3.622 5.632,4.446 9.773,10.725 11.131,17.801 C 45.541,-13.769 25.721,4.82 0,0" style="fill:#7a7978;fill-opacity:1;fill-rule:nonzero;stroke:none" transform="matrix(1.3333333,0,0,-1.3333333,3741.3377,224.81373)" clip-path="url(#clipPath1273)"/></g></svg>