<?xml version="1.0" encoding="utf-8"?>
<svg xmlns="http://www.w3.org/2000/svg" viewBox="294.4492 62.7515 231.8682 245.2548" width="231.868px" height="245.255px" preserveAspectRatio="none"><g id="g3323" transform="matrix(1, 0, 0, 1, -9473.61686706543, 1.3788208961486816)"><path id="path3324" d="m 0,0 c 21.906,-26.625 68.376,-28.222 93.524,-5.341 1.144,1.04 4.497,5.546 5.408,5.458 12.13,-6.51 28.432,-13.832 34.561,-26.978 0.778,-1.671 2.067,-5.104 2.531,-8.236 0.464,-3.136 -1.97,-6.975 -5.14,-6.995 h -164.17 c -1.018,-0.006 -2.035,0.279 -2.836,0.905 -2.54,1.987 -1.673,5.704 -0.946,8.935 C -33.431,-16.085 -13.527,-6.585 0,0" style="fill:#7a7978;fill-opacity:1;fill-rule:nonzero;stroke:none" transform="matrix(1.3333333,0,0,-1.3333333,9818.4929,250.50467)" clip-path="url(#clipPath3325)"/><path id="path3326" d="M 0,0 C 8.191,1.512 26.32,-3.273 17.865,-14.179 12.833,-20.67 1.309,-22.641 -5.321,-17.49 -13.022,-11.506 -8.182,-1.51 0,0" style="fill:#7a7978;fill-opacity:1;fill-rule:nonzero;stroke:none" transform="matrix(1.3333333,0,0,-1.3333333,9844.644,144.05)" clip-path="url(#clipPath3327)"/><path id="path3328" d="M 0,0 C 4.307,0.497 7.915,0.556 11.582,-1.996 20.89,-8.475 15.334,-18.807 5.496,-20.208 -11.383,-22.612 -22.569,-2.605 0,0" style="fill:#7a7978;fill-opacity:1;fill-rule:nonzero;stroke:none" transform="matrix(1.3333333,0,0,-1.3333333,9913.3905,144.09747)" clip-path="url(#clipPath3329)"/><path id="path3330" d="m 0,0 c -2.207,1.54 -3.534,4.069 -6.284,5.363 -7.927,3.734 -11.535,-5.484 -18.74,-7.841 -13.82,-4.521 -32.454,1.923 -36.909,16.616 -3.144,10.369 4.19,24.344 15.927,24.344 h 60.565 c 12.8,0 23.203,2.381 27.695,-12.685 C 48.738,4.045 17.166,-11.978 0,0 m 51.579,39.574 c -6.536,33.729 -35.407,53.504 -69.368,50.235 -94.5,-9.097 -58.586,-186.408 29.035,-150.81 35.012,14.223 46.852,66.933 40.333,100.575" style="fill:#7a7978;fill-opacity:1;fill-rule:nonzero;stroke:none" transform="matrix(1.3333333,0,0,-1.3333333,9897.3979,181.58613)" clip-path="url(#clipPath3331)"/></g></svg>