<?xml version="1.0" encoding="utf-8"?>
<svg xmlns="http://www.w3.org/2000/svg" viewBox="98.4043 44.6486 213.3193 244.9507" width="213.319px" height="244.951px" preserveAspectRatio="none"><g id="g3968" transform="matrix(1, 0, 0, 1, -11618.935165405273, -16.875765323638916)"><path id="path3969" d="m 0,0 c -0.464,0.962 -1.507,3.742 -6.311,3.742 h -88.908 v 80.646 c 0,3.383 -2.416,5.513 -5.59,5.513 -16.718,0 -36.419,0.068 -51.597,0.068 -4.446,0 -6.791,-2.047 -6.791,-6.125 l 0.112,-81.585 c 0,-8.468 14.664,-2.799 19.727,-7.706 2.576,-2.496 3.501,-16.823 5.124,-21.651 4.083,-12.146 14.339,-19.222 22.287,-28.002 3.508,-3.875 2.282,-5.079 1.384,-9.729 -1.126,-5.834 -3.523,-13.902 -5.314,-21.255 -0.95,-3.901 1.998,-7.66 6.013,-7.66 h 75.834 c 4.147,0 7.121,3.999 5.926,7.971 l -8.175,27.178 c 15.56,8.089 28.497,19.122 33.987,36.372 C -0.69,-17.19 2.192,-4.539 0,0" style="fill:#7a7978;fill-opacity:1;fill-rule:nonzero;stroke:none" transform="matrix(1.3333333,0,0,-1.3333333,11929.603,181.48307)" clip-path="url(#clipPath3970)"/></g></svg>