<?xml version="1.0" encoding="utf-8"?>
<svg xmlns="http://www.w3.org/2000/svg" viewBox="192.9592 56.9684 204.1296 245.2802" width="204.13px" height="245.28px" preserveAspectRatio="none"><g id="g751" transform="matrix(1, 0, 0, 1, -1828.975830078125, -4.391530990600586)"><path id="path752" d="m 0,0 v 25.098 c 0,0.463 -6.542,5.961 -6.987,6.089 -2.146,0.619 -9.57,-1.504 -12.557,-0.548 V 0 Z m 14.977,32.595 c -0.908,5.197 2.739,17.25 -0.632,21.199 -0.292,0.341 -3.461,2.826 -3.69,2.867 -1.507,0.271 -4.184,-6.249 -10.783,-3.656 -2.207,0.867 -3.343,3.56 -5.703,1.397 -5.883,-5.39 5.85,-9.494 9.034,-11.758 4.108,-2.92 7.449,-7.325 11.774,-10.049 m 37.619,28.57 c -1.179,-0.247 -1.59,-0.833 -2.338,-1.612 -1.779,-1.852 -9.055,-13.608 -10.01,-16.055 -2.291,-5.868 2.601,-5.883 6.363,-2.46 1.796,1.634 9.544,11.486 10.567,13.542 1.897,3.813 -0.246,7.493 -4.582,6.585 M 8.469,0 c 0.074,-0.105 1.749,-0.158 2.439,-0.818 2.096,-2.008 2.545,-12.352 -0.936,-13.397 -6.33,0.841 -40.398,-1.773 -43.571,0.477 -2.079,1.475 -1.992,8.263 -1.289,10.513 1.078,3.449 5.515,3.046 5.609,3.599 l 0.003,33.127 c -18.439,5.164 -26.131,28.502 -14.373,43.748 0.972,1.26 4.866,4.296 5.056,5.289 0.268,1.402 -1.146,5.367 -1.17,7.13 -0.216,16.085 12.538,32.587 28.655,35.203 1.637,0.266 6.695,0.112 7.11,0.381 0.202,0.131 1.149,3.541 1.693,4.501 12.783,22.603 44.825,23.802 58.603,1.875 0.756,-1.204 2.656,-5.96 2.959,-6.165 1.109,-0.752 4.447,-0.102 6.146,-0.369 14.108,-2.212 26.963,-15.265 28.402,-29.598 0.309,-3.078 -0.929,-11.473 -0.553,-12.885 0.302,-1.134 3.482,-3.432 4.453,-4.725 19.255,-25.638 -10.456,-58.687 -38,-42.779 L 41.333,16.333 c 0.046,-8.659 -1.058,-18.576 -0.315,-27.114 0.942,-10.825 13.456,-11.011 20.392,-14.797 5.77,-3.149 2.847,-11.433 -3.73,-10.953 H -0.352 c -3.619,0 -7.069,1.489 -7.276,5.668 -0.313,6.315 10.031,6.775 14.737,9.734 2.776,1.746 7.055,5.922 7.726,9.217 0.807,3.958 1.34,17.367 0.646,21.21 -0.509,2.819 -4.351,6.667 -7.012,7.651 C 8.937,14.535 7.848,0.887 8.469,0" style="fill:#7a7978;fill-opacity:1;fill-rule:nonzero;stroke:none" transform="matrix(1.3333333,0,0,-1.3333333,2087.5999,257.90547)" clip-path="url(#clipPath753)"/></g></svg>