<?xml version="1.0" encoding="utf-8"?>
<svg xmlns="http://www.w3.org/2000/svg" viewBox="263.7622 66.3291 277.331 194.6521" width="277.331px" height="194.652px" preserveAspectRatio="none"><defs><clipPath clipPathUnits="userSpaceOnUse" id="clipPath126"><path d="M 0,276 H 276 V 0 H 0 Z" transform="translate(-58.440001,-135.50241)" id="path126"/></clipPath><clipPath clipPathUnits="userSpaceOnUse" id="clipPath128"><path d="M 0,276 H 276 V 0 H 0 Z" transform="translate(-133.48611,-155.5828)" id="path128"/></clipPath></defs><g id="layer-MC2" transform="matrix(1, 0, 0, 1, 218.42761039733887, -20.344635486602783)"><path id="path125" d="M 0,0 C -5.045,-4.612 0.752,-13.141 7.519,-9.351 14.224,-5.596 6.39,5.842 0,0 m 28.42,-23.641 c -0.029,0.198 -0.888,1.924 -1.097,1.832 -9.962,-8.782 -23.482,-14.194 -36.695,-10.238 -27.736,8.306 -13.272,49.199 11.902,52.662 19.281,2.653 26.155,-16.45 36.888,-27.381 12.789,-13.023 49.172,-14.001 66.416,-12.009 23.831,2.753 42.414,11.329 58.873,28.55 4.14,4.332 7.395,12.395 15.012,7.688 10.789,-6.668 -3.967,-22.428 -9.902,-27.491 -1.853,-1.58 -12.442,-8.541 -12.718,-9.328 -1.925,-5.501 7.12,-7.525 10.856,-10.208 8.249,-5.921 16.495,-19.841 4.451,-26.398 -11.736,-6.389 -32.306,-8.473 -40.545,4.261 -3.303,5.104 -3.403,9.007 -4.506,14.512 -0.164,0.814 0.652,0.916 -0.822,0.667 -4.978,-0.84 -11.067,-3.688 -16.543,-4.776 -12.541,-2.491 -24.768,-1.787 -37.495,-1.809 -0.657,-7.658 8.063,-19.153 0.785,-25.395 -4.817,-4.131 -20.769,-0.953 -26.484,1.527 -10.949,4.752 -18.376,18.369 -18.376,30.11 0,3.897 0.528,9.647 0,13.224" style="fill:#7a7978;fill-opacity:1;fill-rule:nonzero;stroke:none" transform="matrix(1.3333333,0,0,-1.3333333,77.92,187.33013)" clip-path="url(#clipPath126)"/><path id="path127" d="m 0,0 c -1.028,-3.349 1.235,-6.823 4.718,-7.198 6.298,-0.678 15.22,-0.629 17.594,-0.442 0.86,0.067 2.53,0.277 4.224,0.671 2.984,0.695 4.607,3.937 3.381,6.744 -2.621,5.999 -6.2,15.821 -8.696,17.941 C 19.557,19.131 9.509,19.166 7.735,18.178 4.956,16.63 2.146,6.99 0,0 m -15.316,27.12 c -1.64,0.708 -3.547,0.166 -4.555,-1.31 -3.884,-5.69 -9.962,-13.785 -9.597,-17.13 0.158,-1.443 8.219,-5.028 9.517,-5.044 1.421,-0.018 2.118,1.524 2.868,2.419 3.954,4.713 4.775,8.893 8.59,14.182 1.057,1.465 0.552,3.529 -1.047,4.37 -1.723,0.906 -4.009,1.75 -5.776,2.513 M 48.962,5.071 c 2.111,0.675 3.875,2.313 5.718,3.816 1.416,1.154 1.644,3.233 0.523,4.676 L 44.849,26.898 c -0.889,1.145 -2.5,1.448 -3.733,0.684 -1.493,-0.926 -3.378,-2.284 -4.829,-3.495 -1.429,-1.192 -1.732,-3.265 -0.685,-4.804 L 43.724,6.913 C 44.877,5.219 47.009,4.446 48.962,5.071 M -54.405,6.709 c -1.447,0.485 -2.123,2.14 -1.514,3.539 2.146,4.929 9.07,14.809 10.497,16.502 33.12,39.302 90.45,38.254 120.733,-3.57 C 83.383,12.032 87.795,4.691 78.192,-7.253 60.424,-29.351 19.609,-34.492 -6.443,-28.752 c -20.936,4.612 -17.997,9.305 -29.556,21.986 -5.374,5.894 -9.251,10.401 -18.406,13.475" style="fill:#7a7978;fill-opacity:1;fill-rule:nonzero;stroke:none" transform="matrix(1.3333333,0,0,-1.3333333,177.98147,160.55627)" clip-path="url(#clipPath128)"/></g></svg>