<?xml version="1.0" encoding="utf-8"?>
<svg xmlns="http://www.w3.org/2000/svg" viewBox="293.5801 60.9992 239.4746 239.8867" width="239.475px" height="239.887px" preserveAspectRatio="none"><g id="g3198" transform="matrix(1, 0, 0, 1, -9082.682666778564, -3.314793109893799)"><path id="path3199" d="M 0,0 V -25.013 H 93.679 V -0.596 H 62.063 C 62.541,-4.771 60.194,-8.157 56.161,-7.858 47.495,-7.215 38.929,-7.356 26.687,-7.878 21.899,-8.083 19.984,-5.088 20.495,0 Z M 93.679,33.35 H 0 V 11.993 l 20.495,-0.086 c -0.16,2.919 -0.181,6.122 3.189,6.584 5.176,0.71 13.314,-0.658 18.339,-0.651 4.328,0.007 15.643,1.805 18.516,-0.035 1.87,-1.198 1.56,-3.909 1.524,-5.894 h 31.616 z m -125.301,0 c -0.179,0 -1.052,-0.044 -2.078,0.371 -1.528,0.617 -1.94,2.522 -1.484,4.13 1.607,5.658 8.566,19.355 10.13,22.505 0.824,1.66 3.519,7.245 5.643,10.657 1.052,1.691 2.872,2.721 4.839,2.723 l 122.047,0.151 c 2.888,0.05 4.077,-1.945 5.255,-4.187 4.49,-8.552 10.657,-21.362 14.136,-30.285 0.408,-1.046 1.54,-2.865 1.29,-3.864 -0.157,-0.63 -0.432,-2.201 -2.567,-2.201 h -14.93 V 11.315 h 10.832 c 1.782,0 2.669,-0.386 2.669,-3.361 v -19.271 c -0.019,-0.856 0.658,-1.56 1.499,-1.56 h 15.306 c 4.398,0 4.343,-6.735 0.032,-6.735 h -21.142 c -1.766,0 -3.207,1.431 -3.241,3.228 -0.096,5.142 -0.253,12.002 -0.127,15.788 h -5.828 v -24.417 c 4.271,-0.885 8.595,-0.846 8.784,-7.442 v -64.917 c -0.415,-4.647 -3.667,-7.443 -7.813,-8.373 -0.994,-0.224 -2.018,-0.285 -3.037,-0.282 l -126.09,0.28 c -3.652,0.008 -7.114,1.984 -8.69,5.279 -0.472,0.987 -0.755,2.033 -0.775,3.067 l 0.063,66.697 c 0.373,2.392 3.049,4.641 5.217,5.412 1.422,0.506 3.173,-0.185 4.117,1.173 V 33.35 Z" style="fill:#7a7978;fill-opacity:1;fill-rule:nonzero;stroke:none" transform="matrix(1.3333333,0,0,-1.3333333,9423.4084,162.8312)" clip-path="url(#clipPath3200)"/></g></svg>