<?xml version="1.0" encoding="utf-8"?>
<svg xmlns="http://www.w3.org/2000/svg" viewBox="312.7013 90.4564 245.3453 187.2286" width="245.345px" height="187.229px" preserveAspectRatio="none"><g id="g505" transform="matrix(1, 0, 0, 1, -912.6263122558594, 7.783742427825928)"><path id="path506" d="M 0,0 C -6.618,-1.442 -4.88,-12.441 2.249,-11.263 10.187,-9.952 7.819,1.704 0,0 m -0.66,-26.708 c -0.72,0 -1.082,-0.857 -0.594,-1.386 3.259,-3.529 8.117,-5.3 12.788,-6.106 1.772,-0.305 5.812,-0.859 7.494,-0.867 1.73,-0.007 3.692,0.254 5.688,0.574 2.596,0.417 4.251,-2.708 2.423,-4.596 -2.671,-2.757 -5.576,-5.264 -8.874,-7.3 -28.449,-17.559 -76.01,-8.206 -103.289,8.304 -8.098,4.901 -15.179,11.102 -22.407,17.144 -0.427,0.357 -1.08,0.197 -1.285,-0.32 -0.863,-2.167 -2.192,-7.472 -2.646,-8.63 -3.064,-7.821 -8.661,-15.187 -16.491,-18.653 -4.226,-1.87 -14.01,-5.235 -15.096,1.749 -1.019,6.561 2.127,27.092 4.953,33.308 1.779,3.912 4.842,6.519 7.787,9.46 0.341,0.34 0.305,0.898 -0.064,1.209 -9.69,8.196 -11.667,21.266 -12.71,33.295 -0.226,2.608 -0.988,8.345 -0.156,10.378 3.385,8.275 18.441,-0.458 22.822,-4.331 3.321,-2.935 6.761,-7.961 8.32,-12.127 2.082,-5.561 0.795,-20.709 10.153,-15.883 3.005,1.549 9.872,10.151 13.173,13.025 4.156,3.618 9.463,7.319 14.28,10.003 1.896,1.056 11.13,4.984 12.843,6.398 0.173,0.143 0.268,0.353 0.278,0.577 0.426,9.368 -2.894,27.12 -12.262,31.36 -5.744,2.6 -15.391,-0.011 -13.81,9.757 0.534,3.302 3.641,4.564 6.636,4.858 11.609,1.142 23.123,-7.922 26.802,-18.564 0.196,-0.567 0.917,-0.737 1.341,-0.312 5.578,5.592 13.305,11.525 21.679,10.491 5.179,-0.641 8.594,-5.912 5.494,-10.496 -2.249,-3.327 -6.335,-2.621 -9.729,-3.689 -7.172,-2.256 -11.842,-9.859 -12.006,-17.236 -0.013,-0.555 0.514,-0.96 1.047,-0.806 16.956,4.898 36.533,5.432 52.872,-1.677 C 31.676,31.377 45.32,4.97 38.92,-21.136 c -0.805,-3.281 -3.775,-5.572 -7.153,-5.572 z" style="fill:#7a7978;fill-opacity:1;fill-rule:nonzero;stroke:none" transform="matrix(1.3333333,0,0,-1.3333333,1416.6857,195.45853)" clip-path="url(#clipPath507)"/></g></svg>