<?xml version="1.0" encoding="utf-8"?>
<svg xmlns="http://www.w3.org/2000/svg" viewBox="242.0913 156.997 277.3315 59.48" width="277.332px" height="59.48px" preserveAspectRatio="none"><g id="g1787" transform="matrix(1, 0, 0, 1, -4847.242437362671, 2.736766815185547)"><path id="path1788" d="m 0,0 c 0,-0.337 -0.046,-0.75 -0.137,-1.239 -0.092,-0.49 -0.261,-1.193 -0.505,-2.111 l -10.924,-37.038 c -0.153,-0.521 -0.352,-0.941 -0.596,-1.262 -0.245,-0.322 -0.62,-0.574 -1.125,-0.757 -0.504,-0.184 -1.224,-0.306 -2.157,-0.368 -0.934,-0.06 -2.15,-0.091 -3.648,-0.091 -1.5,0 -2.724,0.039 -3.672,0.115 -0.948,0.076 -1.691,0.206 -2.226,0.39 -0.535,0.183 -0.926,0.435 -1.17,0.757 -0.245,0.321 -0.429,0.726 -0.551,1.216 l -6.885,24.876 -0.091,0.413 -0.092,-0.413 -6.334,-24.876 c -0.122,-0.521 -0.298,-0.941 -0.527,-1.262 -0.23,-0.322 -0.62,-0.574 -1.17,-0.757 -0.551,-0.184 -1.302,-0.306 -2.25,-0.368 -0.948,-0.06 -2.172,-0.091 -3.671,-0.091 -1.53,0 -2.762,0.039 -3.695,0.115 -0.934,0.076 -1.668,0.206 -2.203,0.39 -0.536,0.183 -0.926,0.435 -1.17,0.757 -0.245,0.321 -0.429,0.726 -0.551,1.216 L -66.181,-3.35 c -0.276,0.887 -0.452,1.583 -0.528,2.088 -0.077,0.505 -0.115,0.925 -0.115,1.262 0,0.306 0.084,0.574 0.253,0.803 0.168,0.23 0.474,0.413 0.918,0.551 0.443,0.138 1.039,0.236 1.79,0.298 0.749,0.061 1.689,0.092 2.822,0.092 1.223,0 2.218,-0.031 2.984,-0.092 0.763,-0.062 1.36,-0.168 1.789,-0.321 0.428,-0.154 0.727,-0.36 0.895,-0.62 0.168,-0.26 0.299,-0.573 0.391,-0.94 l 8.123,-30.062 0.091,-0.551 0.092,0.551 7.619,30.062 c 0.092,0.367 0.237,0.68 0.436,0.94 0.199,0.26 0.497,0.466 0.895,0.62 0.397,0.153 0.956,0.259 1.675,0.321 0.719,0.061 1.645,0.092 2.777,0.092 1.132,0 2.049,-0.038 2.753,-0.115 0.704,-0.077 1.262,-0.183 1.676,-0.321 0.413,-0.138 0.703,-0.321 0.872,-0.551 0.168,-0.229 0.298,-0.497 0.39,-0.803 l 8.17,-30.291 0.137,-0.505 0.092,0.551 7.802,30.062 c 0.061,0.367 0.183,0.68 0.367,0.94 0.184,0.26 0.489,0.466 0.918,0.62 0.428,0.153 1.01,0.259 1.744,0.321 0.734,0.061 1.667,0.092 2.8,0.092 1.131,0 2.057,-0.031 2.776,-0.092 C -2.058,1.59 -1.491,1.492 -1.078,1.354 -0.665,1.216 -0.383,1.033 -0.229,0.803 -0.077,0.574 0,0.306 0,0" style="fill:#7a7978;fill-opacity:1;fill-rule:nonzero;stroke:none" transform="matrix(1.3333333,0,0,-1.3333333,5178.4325,156.5856)" clip-path="url(#clipPath1789)"/><path id="path1790" d="m 0,0 c 0,-0.337 -0.046,-0.75 -0.137,-1.239 -0.092,-0.49 -0.261,-1.193 -0.505,-2.111 l -10.924,-37.038 c -0.153,-0.521 -0.352,-0.941 -0.596,-1.262 -0.245,-0.322 -0.62,-0.574 -1.125,-0.757 -0.504,-0.184 -1.224,-0.306 -2.157,-0.368 -0.934,-0.06 -2.15,-0.091 -3.648,-0.091 -1.5,0 -2.724,0.039 -3.672,0.115 -0.948,0.076 -1.691,0.206 -2.226,0.39 -0.535,0.183 -0.926,0.435 -1.17,0.757 -0.245,0.321 -0.429,0.726 -0.551,1.216 l -6.885,24.876 -0.091,0.413 -0.092,-0.413 -6.334,-24.876 c -0.122,-0.521 -0.298,-0.941 -0.527,-1.262 -0.23,-0.322 -0.62,-0.574 -1.17,-0.757 -0.551,-0.184 -1.302,-0.306 -2.25,-0.368 -0.948,-0.06 -2.172,-0.091 -3.671,-0.091 -1.53,0 -2.762,0.039 -3.695,0.115 -0.934,0.076 -1.668,0.206 -2.203,0.39 -0.536,0.183 -0.926,0.435 -1.17,0.757 -0.245,0.321 -0.429,0.726 -0.551,1.216 L -66.181,-3.35 c -0.276,0.887 -0.452,1.583 -0.528,2.088 -0.077,0.505 -0.115,0.925 -0.115,1.262 0,0.306 0.084,0.574 0.253,0.803 0.168,0.23 0.474,0.413 0.918,0.551 0.443,0.138 1.039,0.236 1.79,0.298 0.749,0.061 1.689,0.092 2.822,0.092 1.223,0 2.218,-0.031 2.984,-0.092 0.763,-0.062 1.36,-0.168 1.789,-0.321 0.428,-0.154 0.727,-0.36 0.895,-0.62 0.168,-0.26 0.299,-0.573 0.391,-0.94 l 8.123,-30.062 0.091,-0.551 0.092,0.551 7.619,30.062 c 0.092,0.367 0.237,0.68 0.436,0.94 0.199,0.26 0.497,0.466 0.895,0.62 0.397,0.153 0.956,0.259 1.675,0.321 0.719,0.061 1.645,0.092 2.777,0.092 1.132,0 2.049,-0.038 2.753,-0.115 0.704,-0.077 1.263,-0.183 1.676,-0.321 0.413,-0.138 0.703,-0.321 0.872,-0.551 0.168,-0.229 0.298,-0.497 0.39,-0.803 l 8.17,-30.291 0.137,-0.505 0.092,0.551 7.802,30.062 c 0.061,0.367 0.183,0.68 0.367,0.94 0.184,0.26 0.489,0.466 0.918,0.62 0.428,0.153 1.01,0.259 1.744,0.321 0.734,0.061 1.667,0.092 2.8,0.092 1.131,0 2.057,-0.031 2.776,-0.092 C -2.058,1.59 -1.491,1.492 -1.078,1.354 -0.665,1.216 -0.383,1.033 -0.229,0.803 -0.077,0.574 0,0.306 0,0" style="fill:#7a7978;fill-opacity:1;fill-rule:nonzero;stroke:none" transform="matrix(1.3333333,0,0,-1.3333333,5272.5491,156.5856)" clip-path="url(#clipPath1791)"/><path id="path1792" d="m 0,0 c 0,-0.337 -0.046,-0.75 -0.137,-1.239 -0.092,-0.49 -0.261,-1.193 -0.505,-2.111 l -10.924,-37.038 c -0.153,-0.521 -0.352,-0.941 -0.596,-1.262 -0.245,-0.322 -0.62,-0.574 -1.125,-0.757 -0.504,-0.184 -1.224,-0.306 -2.157,-0.368 -0.934,-0.06 -2.15,-0.091 -3.648,-0.091 -1.5,0 -2.724,0.039 -3.672,0.115 -0.948,0.076 -1.691,0.206 -2.226,0.39 -0.535,0.183 -0.926,0.435 -1.17,0.757 -0.245,0.321 -0.429,0.726 -0.551,1.216 l -6.885,24.876 -0.091,0.413 -0.092,-0.413 -6.334,-24.876 c -0.122,-0.521 -0.298,-0.941 -0.527,-1.262 -0.23,-0.322 -0.62,-0.574 -1.17,-0.757 -0.551,-0.184 -1.302,-0.306 -2.25,-0.368 -0.948,-0.06 -2.172,-0.091 -3.671,-0.091 -1.53,0 -2.762,0.039 -3.695,0.115 -0.934,0.076 -1.668,0.206 -2.203,0.39 -0.536,0.183 -0.926,0.435 -1.17,0.757 -0.245,0.321 -0.429,0.726 -0.551,1.216 L -66.181,-3.35 c -0.276,0.887 -0.452,1.583 -0.528,2.088 -0.077,0.505 -0.115,0.925 -0.115,1.262 0,0.306 0.084,0.574 0.253,0.803 0.168,0.23 0.474,0.413 0.918,0.551 0.443,0.138 1.039,0.236 1.79,0.298 0.749,0.061 1.689,0.092 2.822,0.092 1.223,0 2.218,-0.031 2.984,-0.092 0.763,-0.062 1.36,-0.168 1.789,-0.321 0.428,-0.154 0.727,-0.36 0.895,-0.62 0.168,-0.26 0.299,-0.573 0.391,-0.94 l 8.123,-30.062 0.091,-0.551 0.092,0.551 7.619,30.062 c 0.092,0.367 0.237,0.68 0.436,0.94 0.199,0.26 0.497,0.466 0.895,0.62 0.397,0.153 0.956,0.259 1.675,0.321 0.719,0.061 1.645,0.092 2.777,0.092 1.132,0 2.049,-0.038 2.753,-0.115 0.704,-0.077 1.263,-0.183 1.676,-0.321 0.413,-0.138 0.703,-0.321 0.872,-0.551 0.168,-0.229 0.298,-0.497 0.39,-0.803 l 8.17,-30.291 0.137,-0.505 0.092,0.551 7.802,30.062 c 0.061,0.367 0.183,0.68 0.367,0.94 0.184,0.26 0.489,0.466 0.918,0.62 0.428,0.153 1.01,0.259 1.744,0.321 0.734,0.061 1.667,0.092 2.8,0.092 1.131,0 2.057,-0.031 2.776,-0.092 C -2.058,1.59 -1.491,1.492 -1.078,1.354 -0.665,1.216 -0.383,1.033 -0.229,0.803 -0.077,0.574 0,0.306 0,0" style="fill:#7a7978;fill-opacity:1;fill-rule:nonzero;stroke:none" transform="matrix(1.3333333,0,0,-1.3333333,5366.6656,156.5856)" clip-path="url(#clipPath1793)"/></g></svg>