<?xml version="1.0" encoding="utf-8"?>
<svg xmlns="http://www.w3.org/2000/svg" viewBox="290.2598 262.3014 38 61" width="38px" height="61px"><g id="object-0" transform="matrix(1, 0, 0, 1, 278.25982666015625, 261.3013610839844)"><path d="M12,29.763V50.237a1.27,1.27,0,0,0,.635,1.1l17.73,10.237a1.269,1.269,0,0,0,1.27,0l17.73-10.237a1.27,1.27,0,0,0,.635-1.1V29.763a1.27,1.27,0,0,0-.635-1.1L31.635,18.427a1.269,1.269,0,0,0-1.27,0L12.635,28.664A1.27,1.27,0,0,0,12,29.763Z" style="fill:none;stroke:#460d08000000000000;stroke-linecap:round;stroke-linejoin:round;stroke-width:2px"/><line x1="17.652" y1="47.728" x2="12" y2="51" style="fill:none;stroke:#460d08000000000000;stroke-linejoin:round;stroke-width:2px"/><line x1="50" y1="29" x2="44.393" y2="32.246" style="fill:none;stroke:#460d08000000000000;stroke-linejoin:round;stroke-width:2px"/><line x1="43.982" y1="47.516" x2="50" y2="51" style="fill:none;stroke:#460d08000000000000;stroke-linejoin:round;stroke-width:2px"/><line x1="12" y1="29" x2="18.018" y2="32.484" style="fill:none;stroke:#460d08000000000000;stroke-linejoin:round;stroke-width:2px"/><line x1="31" y1="55" x2="31" y2="62" style="fill:none;stroke:#460d08000000000000;stroke-linejoin:round;stroke-width:2px"/><line x1="31" y1="18" x2="31" y2="24.676" style="fill:none;stroke:#460d08000000000000;stroke-linejoin:round;stroke-width:2px"/><path d="M30.571,25.011a15,15,0,1,0,2.69,29.819" style="fill:none;stroke:#460d08000000000000;stroke-linecap:round;stroke-linejoin:round;stroke-width:2px"/><path d="M 46 40 C 46 31.716 39.284 25 31 25 C 30.856 25 30.714 25.007 30.571 25.011 C 24.805 25.299 21.512 31.721 24.645 36.571 C 25.995 38.662 28.297 39.947 30.786 40 L 20.747 46.014 C 26.52 46.02 41.061 46.261 38.168 51.258 C 37.11 53.086 35.33 54.383 33.265 54.83 C 40.59 53.711 46.001 47.41 46 40 Z" style="stroke: rgb(0, 0, 0); stroke-linecap: round; stroke-linejoin: round; stroke-width: 2px;"/><circle cx="30.729" cy="31.957" r="2.957" style="stroke: rgb(0, 0, 0); stroke-linecap: round; stroke-linejoin: round; stroke-width: 2px; fill:none;"/><circle cx="38.729" cy="39.957" r="2.957" style="stroke: rgb(0, 0, 0); stroke-linecap: round; stroke-linejoin: round; stroke-width: 2px; fill:none;"/><circle cx="31" cy="15" r="3" style="fill:none;stroke:#460d08000000000000;stroke-linecap:round;stroke-linejoin:round;stroke-width:2px"/><polyline points="15 1 31 15 47 1" style="fill:none;stroke:#460d08000000000000;stroke-linecap:round;stroke-linejoin:round;stroke-width:2px"/></g></svg>