<?xml version="1.0" encoding="UTF-8" standalone="no"?>
<svg
   viewBox="290.2598 262.3014 19.46118 30.166107"
   width="19.46118"
   height="30.166107"
   version="1.1"
   id="svg9"
   sodipodi:docname="amulet.svg"
   inkscape:version="1.4.2 (ebf0e940, 2025-05-08)"
   xmlns:inkscape="http://www.inkscape.org/namespaces/inkscape"
   xmlns:sodipodi="http://sodipodi.sourceforge.net/DTD/sodipodi-0.dtd"
   xmlns="http://www.w3.org/2000/svg"
   xmlns:svg="http://www.w3.org/2000/svg">
  <defs
     id="defs9">
    <inkscape:path-effect
       effect="fillet_chamfer"
       id="path-effect9"
       is_visible="true"
       lpeversion="1"
       nodesatellites_param="F,0,0,1,0,0,0,1 @ F,0,0,1,0,0,0,1 @ F,0,0,1,0,0,0,1 @ F,0,0,1,0,0,0,1 @ F,0,0,1,0,0,0,1 @ F,0,0,1,0,0,0,1 @ F,0,0,1,0,0,0,1 @ F,0,0,1,0,0,0,1"
       radius="0"
       unit="px"
       method="auto"
       mode="F"
       chamfer_steps="1"
       flexible="false"
       use_knot_distance="true"
       apply_no_radius="true"
       apply_with_radius="true"
       only_selected="false"
       hide_knots="false" />
  </defs>
  <sodipodi:namedview
     id="namedview9"
     pagecolor="#ffffff"
     bordercolor="#000000"
     borderopacity="0.25"
     inkscape:showpageshadow="2"
     inkscape:pageopacity="0.0"
     inkscape:pagecheckerboard="0"
     inkscape:deskcolor="#d1d1d1"
     inkscape:zoom="17.688934"
     inkscape:cx="8.2820142"
     inkscape:cy="14.189663"
     inkscape:window-width="1712"
     inkscape:window-height="971"
     inkscape:window-x="0"
     inkscape:window-y="39"
     inkscape:window-maximized="1"
     inkscape:current-layer="g17" />
  <g
     id="g17"
     transform="matrix(0.51213593,0,0,0.51213593,141.60733,126.89326)"
     style="fill:#000080">
    <path
       id="path1"
       style="fill:#000080;fill-opacity:1;stroke-width:2px;stroke-linecap:round;stroke-linejoin:round"
       d="m 309.2598,279.55726 a 1.269,1.269 0 0 0 -0.63477,0.17187 l -17.73046,10.23633 a 1.27,1.27 0 0 0 -0.63477,1.09961 v 20.47266 a 1.27,1.27 0 0 0 0.63477,1.10156 l 17.73046,10.23633 a 1.269,1.269 0 0 0 1.26954,0 l 17.73046,-10.23633 a 1.27,1.27 0 0 0 0.63477,-1.10156 v -20.47266 a 1.27,1.27 0 0 0 -0.63477,-1.10156 l -17.73046,-10.23438 a 1.269,1.269 0 0 0 -0.63477,-0.17187 z m -1.11914,5.86914 c 8.96,0 16.25,7.29 16.25,16.25 10e-4,7.97894 -5.8149,14.77847 -13.68164,16.03906 -0.0138,0.007 -0.0121,0.008 -0.0371,0.0137 a 0.250025,0.250025 0 0 1 -0.006,-0.002 0.250025,0.250025 0 0 0 -0.002,0 c -0.009,0.004 -0.0331,0.01 -0.0723,0.0156 -0.37648,0.0521 -0.71313,-0.0508 -0.95508,-0.2461 -0.24195,-0.19525 -0.39326,-0.47336 -0.44726,-0.76562 -0.054,-0.29226 -0.0135,-0.60419 0.14258,-0.87305 0.15614,-0.26886 0.43447,-0.48626 0.80468,-0.57226 a 0.250025,0.250025 0 0 1 0.004,0 c 1.72157,-0.37267 3.20402,-1.45279 4.08594,-2.97657 0.25106,-0.43372 0.23076,-0.56783 0.19336,-0.70508 -0.0309,-0.11344 -0.14348,-0.31178 -0.51368,-0.56835 -0.72846,-0.50491 -2.35619,-1.03494 -4.26953,-1.36329 -3.83298,-0.65782 -8.88029,-0.72942 -11.75,-0.73242 -0.61637,-8e-4 -1.06659,-0.42233 -1.20312,-0.91601 -0.13653,-0.49369 0.0322,-1.08887 0.56054,-1.40625 l 7.48438,-4.48438 c -1.59411,-0.66596 -3.02712,-1.71118 -3.99414,-3.20898 -3.62382,-5.6098 0.24666,-13.15125 6.91601,-13.48438 0.004,-5.5e-4 0.0112,-0.002 0.0117,-0.002 a 0.250025,0.250025 0 0 1 0.0137,0 c 0.1242,-0.004 0.28087,-0.0117 0.46484,-0.0117 z m 0,0.5 c -0.16886,0 -0.31562,0.008 -0.44922,0.0117 a 0.250025,0.250025 0 0 1 -0.0176,0.002 c -6.30425,0.31489 -9.94299,7.41219 -6.51758,12.71485 0.99131,1.53542 2.47227,2.62974 4.15625,3.23632 a 0.250025,0.250025 0 0 1 0.0449,0.44922 l -7.85547,4.70703 c -0.33993,0.20443 -0.42004,0.53756 -0.33594,0.8418 0.0841,0.30424 0.3237,0.55027 0.7207,0.55078 2.87721,0.003 7.93714,0.0712 11.83594,0.74024 1.95254,0.33507 3.59775,0.84163 4.46875,1.44531 0.42952,0.2977 0.63864,0.58004 0.71094,0.8457 0.0658,0.24185 0.0462,0.58975 -0.24219,1.08789 -0.95236,1.64548 -2.55521,2.81247 -4.41406,3.21485 -0.2481,0.0585 -0.39162,0.1809 -0.48047,0.33398 -0.089,0.15386 -0.11819,0.34847 -0.084,0.5332 0.0342,0.18474 0.12913,0.35507 0.26758,0.4668 0.1357,0.10954 0.31,0.17134 0.55664,0.14063 v -0.002 h 0.002 c 0.005,-0.002 0.0282,-0.007 0.0703,-0.0137 a 0.250025,0.250025 0 0 0 0.002,0.002 h 0.002 l 0.002,-0.002 0.002,-0.002 h 0.002 l 0.002,-0.002 h 0.002 c 10e-4,-2.7e-4 0.004,-0.002 0.006,-0.002 a 0.250025,0.250025 0 0 1 0.006,0 c 7.64133,-1.21092 13.28811,-7.80552 13.28711,-15.55078 0,-8.68896 -7.06105,-15.75 -15.75,-15.75 z m 0.84766,3.375 c 2.17355,0 3.95703,1.78349 3.95703,3.95703 0,2.17355 -1.78348,3.95703 -3.95703,3.95703 -2.17354,0 -3.95704,-1.78348 -3.95704,-3.95703 0,-2.17354 1.7835,-3.95703 3.95704,-3.95703 z m 0,2 c -1.09266,0 -1.95704,0.86437 -1.95704,1.95703 0,1.09267 0.86438,1.95703 1.95704,1.95703 1.09267,0 1.95703,-0.86436 1.95703,-1.95703 0,-1.09266 -0.86436,-1.95703 -1.95703,-1.95703 z m 8,6 c 2.17355,0 3.95703,1.78349 3.95703,3.95703 0,2.17355 -1.78348,3.95703 -3.95703,3.95703 -2.17354,0 -3.95704,-1.78348 -3.95704,-3.95703 0,-2.17354 1.7835,-3.95703 3.95704,-3.95703 z m 0,2 c -1.09266,0 -1.95704,0.86437 -1.95704,1.95703 0,1.09267 0.86438,1.95703 1.95704,1.95703 1.09267,0 1.95703,-0.86436 1.95703,-1.95703 0,-1.09266 -0.86436,-1.95703 -1.95703,-1.95703 z" />
    <line
       x1="295.91183"
       y1="309.02936"
       x2="290.25983"
       y2="312.30136"
       style="fill:#000080;fill-opacity:1;stroke-width:2px;stroke-linejoin:round"
       id="line1" />
    <line
       x1="328.25983"
       y1="290.30136"
       x2="322.65283"
       y2="293.54736"
       style="fill:#000080;fill-opacity:1;stroke-width:2px;stroke-linejoin:round"
       id="line2" />
    <line
       x1="322.24182"
       y1="308.81735"
       x2="328.25983"
       y2="312.30136"
       style="fill:#000080;fill-opacity:1;stroke-width:2px;stroke-linejoin:round"
       id="line3" />
    <line
       x1="290.25983"
       y1="290.30136"
       x2="296.27783"
       y2="293.78537"
       style="fill:#000080;fill-opacity:1;stroke-width:2px;stroke-linejoin:round"
       id="line4" />
    <line
       x1="309.25983"
       y1="316.30136"
       x2="309.25983"
       y2="323.30136"
       style="fill:#000080;fill-opacity:1;stroke-width:2px;stroke-linejoin:round"
       id="line5" />
    <line
       x1="309.25983"
       y1="279.30136"
       x2="309.25983"
       y2="285.97736"
       style="fill:#000080;fill-opacity:1;stroke-width:2px;stroke-linejoin:round"
       id="line6" />
    <g
       id="path7"
       style="opacity:1;fill:#000080;stroke:#000000;stroke-width:0.5;stroke-dasharray:none;stroke-opacity:1"
       transform="translate(-1.1193307,0.3755991)" />
    <circle
       cx="309.25983"
       cy="276.30136"
       r="3"
       style="fill:#000080;fill-opacity:1;stroke-width:2px;stroke-linecap:round;stroke-linejoin:round"
       id="circle9" />
    <path
       style="baseline-shift:baseline;display:inline;overflow:visible;opacity:1;vector-effect:none;fill:#000080;fill-opacity:1;enable-background:accumulate;stop-color:#000000;stop-opacity:1"
       d="m 322.9814,264.39882 c -0.0683,0.98196 -0.56429,1.4959 -1.45117,1.94532 -0.88688,0.44941 -2.14274,0.72801 -3.42969,1.00195 -1.28694,0.27394 -2.60413,0.5432 -3.67968,1.10156 -1.07556,0.55836 -1.92583,1.52405 -1.96289,2.91602 v 0.0508 l 0.008,0.0527 c 0.0462,0.30217 -0.0673,0.85548 -0.34766,1.45508 -0.28035,0.59961 -0.70828,1.24711 -1.17969,1.80664 -0.4714,0.55953 -0.9928,1.03263 -1.41796,1.29297 -0.21258,0.13017 -0.39984,0.2037 -0.51954,0.22656 -0.11969,0.0229 -0.14615,0.005 -0.16015,-0.004 l -0.0332,-0.0195 -0.0332,-0.0156 c -0.42052,-0.19061 -0.61453,-0.31701 -0.80078,-0.4375 0.0962,-0.035 0.16412,-0.0651 0.27734,-0.10352 0.23187,-0.0787 0.48136,-0.16267 0.72266,-0.28906 0.2413,-0.12639 0.53663,-0.30611 0.64258,-0.70898 0.10594,-0.40288 -0.10668,-0.79335 -0.38477,-1.06836 -0.27678,-0.27373 -0.66797,-0.53316 -1.24023,-0.84375 -3.10823,-1.72001 -4.12364,-2.29943 -4.97461,-3.04883 -0.85097,-0.7494 -1.63561,-1.76914 -4.17383,-4.31641 l -0.81836,0.81641 c 2.51265,2.52161 3.2567,3.51308 4.22656,4.36719 0.96987,0.8541 2.06919,1.47209 5.17969,3.19336 l 0.002,0.002 h 0.002 c 0.49314,0.26726 0.77118,0.47426 0.92187,0.61328 -0.12523,0.0579 -0.285,0.12178 -0.47851,0.1875 -0.22588,0.0767 -0.46537,0.15395 -0.69727,0.26563 -0.23189,0.11168 -0.54616,0.25459 -0.64453,0.6914 -0.0492,0.21841 0.0121,0.45601 0.10938,0.61914 0.0973,0.16314 0.22122,0.28129 0.36718,0.39649 0.27736,0.2189 0.67404,0.43306 1.21875,0.68359 6e-4,3.7e-4 10e-4,-3.6e-4 0.002,0 0.3066,0.18887 0.66756,0.21677 0.98437,0.15625 0.31743,-0.0606 0.61487,-0.19733 0.9082,-0.37695 0.58668,-0.35924 1.16586,-0.9044 1.69727,-1.53516 0.53141,-0.63075 1.00922,-1.34703 1.34375,-2.0625 0.33453,-0.71546 0.54716,-1.42737 0.44141,-2.11914 l 0.006,0.10352 c 0.0261,-0.98064 0.48244,-1.47482 1.33984,-1.91992 0.8574,-0.44511 2.1004,-0.72425 3.38672,-0.99805 1.28632,-0.2738 2.61569,-0.54362 3.71289,-1.09961 1.0972,-0.55599 1.98497,-1.50393 2.08203,-2.89844 z"
       id="path16" />
  </g>
</svg>
