<?xml version="1.0" encoding="UTF-8" standalone="no"?>
<!-- Uploaded to: SVG Repo, www.svgrepo.com, Generator: SVG Repo Mixer Tools -->

<svg
   width="800px"
   height="800px"
   viewBox="0 0 512 512"
   version="1.1"
   id="svg1"
   sodipodi:docname="anvil.svg"
   inkscape:version="1.4.2 (ebf0e940, 2025-05-08)"
   xmlns:inkscape="http://www.inkscape.org/namespaces/inkscape"
   xmlns:sodipodi="http://sodipodi.sourceforge.net/DTD/sodipodi-0.dtd"
   xmlns="http://www.w3.org/2000/svg"
   xmlns:svg="http://www.w3.org/2000/svg">
  <defs
     id="defs1" />
  <sodipodi:namedview
     id="namedview1"
     pagecolor="#ffffff"
     bordercolor="#000000"
     borderopacity="0.25"
     inkscape:showpageshadow="2"
     inkscape:pageopacity="0.0"
     inkscape:pagecheckerboard="0"
     inkscape:deskcolor="#d1d1d1"
     inkscape:zoom="0.06625"
     inkscape:cx="400"
     inkscape:cy="400"
     inkscape:window-width="896"
     inkscape:window-height="204"
     inkscape:window-x="0"
     inkscape:window-y="39"
     inkscape:window-maximized="0"
     inkscape:current-layer="svg1" />
  <path
     fill="#460d08"
     d="M413.375 69.906L336.937 191.47l-8.25-32.69-30.218 88.97 62.655-29.375.22 29.438 127.03-50.938-70.813-1.97 47.782-68.686-73.47 39.25 21.5-95.564zM210.22 102.094l-32 14.406 16.874 55.656-177.813 80.03 12.564 27.876L207.656 200l30.406 49.47 49.313-22.19-21.344-70.343-55.81-54.843zM197.593 266.78v20.345h-88.906c15.994 38.807 51.225 65.43 88.906 74.28v32.97h58.562c-12.118 30.528-33.505 55.684-58.47 77.594H172.22v18.686H456.56V471.97h-27.406c-28.734-21.895-50.055-47.018-61.625-77.595h63.658v-29.188c19.748-6.995 39.5-19.51 59.25-36.687-19.812-17.523-39.23-27.25-59.25-31.938v-29.78H197.594z"
     id="path1"
     style="fill:#000080" />
</svg>
