<?xml version="1.0" encoding="UTF-8" standalone="no"?>
<!-- Uploaded to: SVG Repo, www.svgrepo.com, Generator: SVG Repo Mixer Tools -->

<svg
   width="739.30627"
   height="657.42188"
   viewBox="0 0 473.15602 420.75"
   version="1.1"
   id="svg1"
   sodipodi:docname="anvil.svg"
   inkscape:version="1.4.2 (ebf0e940, 2025-05-08)"
   xmlns:inkscape="http://www.inkscape.org/namespaces/inkscape"
   xmlns:sodipodi="http://sodipodi.sourceforge.net/DTD/sodipodi-0.dtd"
   xmlns="http://www.w3.org/2000/svg"
   xmlns:svg="http://www.w3.org/2000/svg">
  <defs
     id="defs1" />
  <sodipodi:namedview
     id="namedview1"
     pagecolor="#ffffff"
     bordercolor="#000000"
     borderopacity="0.25"
     inkscape:showpageshadow="2"
     inkscape:pageopacity="0.0"
     inkscape:pagecheckerboard="0"
     inkscape:deskcolor="#d1d1d1"
     inkscape:zoom="0.06625"
     inkscape:cx="369.81132"
     inkscape:cy="286.79245"
     inkscape:window-width="896"
     inkscape:window-height="245"
     inkscape:window-x="0"
     inkscape:window-y="39"
     inkscape:window-maximized="0"
     inkscape:current-layer="svg1" />
  <path
     fill="#460d08"
     d="m 396.094,0.001 -76.438,121.564 -8.25,-32.69 -30.218,88.97 62.655,-29.375 0.22,29.438 L 471.093,126.97 400.28,125 448.062,56.314 374.592,95.564 396.092,0 Z m -203.155,32.188 -32,14.406 16.874,55.656 L 0,182.281 l 12.564,27.876 177.811,-80.062 30.406,49.47 49.313,-22.19 L 248.75,87.032 192.94,32.189 Z M 180.312,196.875 V 217.22 H 91.406 c 15.994,38.807 51.225,65.43 88.906,74.28 v 32.97 h 58.562 c -12.118,30.528 -33.505,55.684 -58.47,77.594 h -25.465 v 18.686 h 284.34 V 402.065 H 411.873 C 383.139,380.17 361.818,355.047 350.248,324.47 h 63.658 v -29.188 c 19.748,-6.995 39.5,-19.51 59.25,-36.687 -19.812,-17.523 -39.23,-27.25 -59.25,-31.938 v -29.78 H 180.313 Z"
     id="path1"
     style="fill:#000080" />
</svg>
