<?xml version="1.0" encoding="utf-8"?>
<svg xmlns="http://www.w3.org/2000/svg" viewBox="248.9371 171.4602 181.6868 195.4752" width="181.687px" height="195.475px" xmlns:bx="https://boxy-svg.com" preserveAspectRatio="none"><g id="object-0" transform="matrix(0.9999999999999999, 0, 0, 0.9999999999999999, 0, 0)"><path fill="#460d08" d="M 368.866 207.952 C 362.282 208.072 355.155 211.088 349.477 216.766 C 342.104 224.139 339.231 233.969 341.346 241.863 C 320.268 232.126 321.987 231.315 300.962 217.825 C 297.58 215.655 294.435 214.663 291.624 214.53 C 286.939 214.311 283.191 216.479 280.838 219.546 C 277.073 224.452 276.68 231.684 284.51 237.813 C 294.927 245.966 304.266 251.592 311.045 257.779 C 317.823 263.966 322.006 271.407 320.561 281.292 C 319.501 288.547 315.965 294.049 311.674 298.572 C 307.384 303.095 302.358 306.793 297.762 310.89 C 288.569 319.082 280.864 328.265 282.632 349.248 C 283.749 362.505 294.1 367.754 302.662 366.833 C 306.942 366.373 310.555 364.37 312.535 360.969 C 314.514 357.567 315.118 352.428 312.189 344.937 C 309.639 338.418 313.23 331.226 318.347 325.768 C 323.464 320.309 330.713 316.092 338.114 317.374 C 340.188 317.733 341.949 318.959 343.161 320.448 C 344.373 321.937 345.174 323.678 345.836 325.568 C 347.161 329.348 347.942 333.852 348.9 338.515 C 350.817 347.841 353.487 357.306 360.001 361.503 C 372.747 369.718 385.268 367.352 390.858 361.661 C 393.653 358.814 394.858 355.329 393.922 351.2 C 392.986 347.07 389.655 342.082 382.412 337.151 C 374.467 331.742 371.448 320.938 371.049 310.249 C 370.65 299.56 372.824 288.736 377.806 282.037 C 380.115 278.931 383.697 277.632 387.763 276.192 C 391.829 274.752 396.562 273.347 401.445 271.261 C 411.21 267.089 421.467 260.451 428.01 245.482 C 433.744 232.365 429.143 223.888 422.88 220.805 C 419.748 219.263 416.122 219.082 412.661 220.595 C 409.199 222.107 405.802 225.358 403.448 231.255 C 399.036 242.312 390.281 248.615 379.799 250.203 C 377.713 250.519 375.564 250.658 373.357 250.644 C 373.207 250.55 373.057 250.452 372.906 250.36 C 374.892 249.118 376.797 247.624 378.561 245.859 C 388.655 235.765 390.329 221.062 382.296 213.029 C 378.783 209.515 373.989 207.858 368.867 207.951 L 368.866 207.952 Z M 368.08 214.384 C 371.294 214.32 374.299 215.448 376.504 217.835 C 381.546 223.291 380.5 233.265 374.165 240.12 C 367.83 246.976 358.611 248.116 353.569 242.66 C 348.527 237.204 349.574 227.22 355.909 220.364 C 359.472 216.508 363.947 214.465 368.08 214.384 Z M 290.134 222.651 L 311.182 237.917 L 307.729 243.163 L 286.451 227.729 L 290.134 222.651 Z M 415.724 230.184 L 421.128 233.374 L 408.915 254.054 L 404.54 249.134 L 415.725 230.184 L 415.724 230.184 Z M 316.27 241.61 L 329.679 251.337 C 328.796 253.33 328.017 255.344 327.349 257.401 L 312.818 246.857 L 316.27 241.611 L 316.27 241.61 Z M 340.423 248.284 C 340.668 248.279 340.91 248.281 341.157 248.284 C 351.637 248.378 363.002 250.861 372.329 257.58 C 372.185 268.754 370.691 277.371 365.184 286.538 C 360.301 283.544 355.003 280.936 349.519 279.12 L 344.325 294.648 L 354.304 296.631 L 351.88 307.7 C 342.581 307.791 333.848 307.282 325.681 302.832 L 328.179 291.448 L 338.125 293.421 L 343.455 277.473 C 339.111 276.549 334.709 276.185 330.34 276.57 C 330.897 265.42 333.266 257.117 338.23 248.358 C 338.957 248.334 339.688 248.296 340.423 248.284 Z M 399.063 252.397 L 403.522 257.422 L 378.068 267.022 C 378.321 264.781 378.469 262.484 378.551 260.13 L 399.063 252.397 Z M 318.368 303.104 L 322.617 307.721 L 305.055 323.889 L 298.014 321.843 L 318.369 303.105 L 318.368 303.104 Z M 355.688 310.701 L 363.421 327.162 L 357.63 329.597 L 350.002 313.366 L 355.689 310.701 L 355.688 310.701 Z M 296.261 327.866 L 302.62 329.712 L 303.921 358.219 L 297.647 358.502 L 296.262 327.865 L 296.261 327.866 Z M 366.621 332.629 L 380.922 355.701 L 375.592 359.006 L 360.767 335.084 L 366.621 332.628 L 366.621 332.629 Z" style="stroke-width: 1;"/><path style="stroke: rgb(0, 0, 0); fill:none;" d="M 331.166 269.591 C 334.391 268.307 340.009 268.411 342.874 270.048"/><path style="stroke: rgb(0, 0, 0); fill:none; stroke-width: 1;" d="M 331.62 265.954 C 334.845 264.67 340.463 264.774 343.328 266.411"/><path style="stroke: rgb(0, 0, 0); fill:none; stroke-width: 1;" d="M 332.327 262.347 C 335.552 261.063 341.17 261.167 344.035 262.804"/><path style="stroke: rgb(0, 0, 0); fill:none; stroke-width: 1; transform-box: fill-box; transform-origin: 50% 50%;" d="M 354.216 276.156 C 358.534 274.069 366.056 274.238 369.892 276.899" transform="matrix(0.936105, 0.35172, -0.35172, 0.936105, 0.000005, 0.000006)"/><path style="stroke: rgb(0, 0, 0); fill:none; stroke-width: 1; transform-origin: 363.342px 273.148px;" d="M 355.504 273.489 C 359.822 271.402 367.344 271.571 371.18 274.232" transform="matrix(0.936105, 0.35172, -0.35172, 0.936105, -0.000006, 0.000004)"/><path style="stroke: rgb(0, 0, 0); fill:none; stroke-width: 1; transform-origin: 364.168px 269.991px;" d="M 356.33 270.332 C 360.648 268.245 368.17 268.414 372.006 271.075" transform="matrix(0.936105, 0.35172, -0.35172, 0.936105, 0.000003, -0.000001)"/><ellipse style="stroke: rgb(0, 0, 0); transform-box: fill-box; transform-origin: 50% 50%;" cx="361.965" cy="223.994" rx="1.49" ry="2.878" transform="matrix(0.900653, 0.43454, -0.43454, 0.900653, -0.195022, -0.25165)"/><path d="M 361.012 230.555 L 363.416 236.056 L 358.608 236.056 L 361.012 230.555 Z" bx:shape="triangle 358.608 230.555 4.808 5.501 0.5 0 1@c1055d47" style="stroke: rgb(0, 0, 0); transform-box: fill-box; transform-origin: 50% 50%;" transform="matrix(0.916214, 0.40069, -0.40069, 0.916214, 1.158488, 0.363924)"/><ellipse style="stroke: rgb(0, 0, 0); stroke-width: 1; transform-origin: 361.965px 223.994px;" cx="361.965" cy="223.994" rx="1.49" ry="2.878" transform="matrix(0.900653, 0.43454, -0.43454, 0.900653, 7.538107, 3.170292)"/><g id="_x32_" style="transform-origin: 342.062px 256.328px;" transform="matrix(0.134962, -0.092163, 0.092163, 0.134962, -35.069355, -26.784204)"><g transform="matrix(1, 0, 0, 1, 86.062401, 0.328101)"><g><path class="st0" d="M 136.753 471.9 C 139.852 476.8 142.893 481.991 145.917 487.416 L 420.1 442.218 L 397.399 428.9 L 136.753 471.9 Z" style=""/><path class="st0" d="M 426.891 398.665 L 438.301 423.148 L 476.557 130.904 C 471.744 127.557 467.359 124.27 463.225 121.067 L 426.891 398.665 Z" style="transform-box: fill-box; transform-origin: 50% 50%;"/><path class="st0" d="M109.409,129.22c2.93-3.321,5.956-6.567,9.059-9.746c3.737-3.672,7.606-7.179,11.54-10.589L83.993,62.87 l36.245-14.676c2.972-1.179,4.874-4.109,4.721-7.299c-0.142-3.169-2.272-5.945-5.322-6.884L10.429,0.332 c-2.688-0.819-5.584-0.098-7.561,1.88C0.89,4.19,0.158,7.096,0.999,9.773l33.668,109.208c0.929,3.059,3.682,5.18,6.872,5.322 c3.192,0.131,6.12-1.738,7.322-4.677l14.675-36.289L109.409,129.22z"/><path class="st0" d="M500.903,85.522c-13.921-13.932-36.584-13.932-50.505,0c-2.699,2.688-4.918,5.747-6.622,9.135 c-6.982-0.405-16.752-4.459-23.046-7.07l-10.13-3.78c-3.584-1.378-7.409-2.754-11.058-3.989 c-31.34-10.545-62.439-16.314-92.424-17.177c-32.892-1.038-65.783,4.25-95.068,15.309c-29.701,11.036-58.057,29.253-82.086,52.746 c-23.429,23.953-41.633,52.32-52.67,81.978c-11.059,29.328-16.347,62.22-15.32,95.089c0.853,30.006,6.644,61.105,17.188,92.456 c1.236,3.628,2.612,7.452,3.967,11.004l3.868,10.348c2.547,6.131,6.601,15.877,7.005,22.87c-3.387,1.705-6.459,3.923-9.146,6.612 c-13.921,13.921-13.921,36.584,0,50.505c13.921,13.922,36.584,13.922,50.506,0c7.408-7.408,11.156-17.548,10.359-27.974 l0.044-0.239l-0.087-0.832c-0.306-2.961-0.82-5.551-1.301-7.824c-0.743-3.825-1.737-7.223-2.688-10.502l-0.798-2.742 c-2.534-8.086-5.278-15.691-7.9-22.772l-12.053-31.668c-1.202-3.256-2.262-6.326-3.344-9.649 c-8.807-26.444-12.829-53.228-11.999-79.584c0.896-26.674,6.95-53.02,17.55-76.186c10.25-22.423,24.466-42.825,42.266-60.614 l2.536-2.492l2.36-2.415c17.8-17.789,38.191-32.017,60.625-42.245c23.166-10.621,49.5-16.686,76.163-17.56 c26.38-0.841,53.15,3.19,79.606,11.988c3.311,1.082,6.393,2.153,9.583,3.311l31.778,12.107c7.037,2.6,14.654,5.354,22.882,7.934 l2.579,0.754c3.288,0.94,6.687,1.934,10.403,2.667c2.381,0.491,4.983,1.016,7.889,1.31l1.006,0.077l0.142-0.032 c10.403,0.787,20.554-2.962,27.94-10.359C514.825,122.096,514.825,99.432,500.903,85.522z"/></g></g></g></g></svg>