<?xml version="1.0" encoding="UTF-8" standalone="no"?>
<svg
   viewBox="248.9371 171.4602 181.6868 195.4752"
   width="181.687px"
   height="195.475px"
   preserveAspectRatio="none"
   version="1.1"
   id="svg13"
   sodipodi:docname="archer.svg"
   inkscape:version="1.4.2 (ebf0e940, 2025-05-08)"
   xmlns:inkscape="http://www.inkscape.org/namespaces/inkscape"
   xmlns:sodipodi="http://sodipodi.sourceforge.net/DTD/sodipodi-0.dtd"
   xmlns="http://www.w3.org/2000/svg"
   xmlns:svg="http://www.w3.org/2000/svg"
   xmlns:bx="https://boxy-svg.com">
  <defs
     id="defs13" />
  <sodipodi:namedview
     id="namedview13"
     pagecolor="#ffffff"
     bordercolor="#000000"
     borderopacity="0.25"
     inkscape:showpageshadow="2"
     inkscape:pageopacity="0.0"
     inkscape:pagecheckerboard="0"
     inkscape:deskcolor="#d1d1d1"
     inkscape:zoom="3.5620276"
     inkscape:cx="74.255461"
     inkscape:cy="103.17158"
     inkscape:window-width="896"
     inkscape:window-height="204"
     inkscape:window-x="0"
     inkscape:window-y="39"
     inkscape:window-maximized="0"
     inkscape:current-layer="svg13" />
  <path
     fill="#460d08"
     d="m 365.0185,207.59697 c -6.29642,0.11475 -13.11213,2.99902 -18.54212,8.42901 -7.05095,7.05096 -9.79847,16.4516 -7.77585,24.0008 -20.15734,-9.3117 -18.51342,-10.08728 -38.62008,-22.98805 -3.23427,-2.07522 -6.2419,-3.02389 -8.93012,-3.15108 -4.48037,-0.20944 -8.06466,1.86387 -10.31489,4.79691 -3.60055,4.69171 -3.97638,11.60782 3.51162,17.46912 9.962,7.79688 18.89308,13.17715 25.37598,19.09391 6.48195,5.91676 10.48224,13.03274 9.10036,22.48598 -1.01371,6.93811 -4.39526,12.19979 -8.49883,16.52523 -4.10262,4.32544 -8.90909,7.86192 -13.30434,11.77997 -8.79147,7.83418 -16.15992,16.61608 -14.46915,36.68257 1.06822,12.67795 10.9671,17.69768 19.15512,16.81691 4.09306,-0.43991 7.54824,-2.35542 9.44176,-5.60787 1.89256,-3.2534 2.47018,-8.16794 -0.33089,-15.33174 -2.43862,-6.23426 0.99553,-13.11212 5.88903,-18.33172 4.8935,-5.22056 11.82587,-9.25337 18.9036,-8.02736 1.98341,0.34331 3.6675,1.51576 4.82656,2.93973 1.15906,1.42396 1.92507,3.08892 2.55816,4.89636 1.26712,3.6149 2.01401,7.92217 2.93016,12.38149 1.83327,8.91866 4.38665,17.97024 10.61613,21.98392 12.18927,7.85618 24.16337,5.59352 29.5092,0.1511 2.67292,-2.72265 3.82529,-6.05543 2.93017,-10.00408 -0.89511,-3.94961 -4.08062,-8.71974 -11.00726,-13.43536 -7.59797,-5.17274 -10.4851,-15.50484 -10.86667,-25.72695 -0.38158,-10.22212 1.69747,-20.57334 6.46186,-26.97974 2.20814,-2.97033 5.63369,-4.2126 9.52209,-5.5897 3.8884,-1.3771 8.41467,-2.72073 13.08439,-4.71562 9.33848,-3.98977 19.14746,-10.33783 25.40467,-24.65301 5.48355,-12.54406 1.08352,-20.6508 -4.90593,-23.59914 -2.99519,-1.47464 -6.46281,-1.64774 -9.77264,-0.20082 -3.31079,1.44595 -6.55941,4.55495 -8.81059,10.19438 -4.21929,10.57405 -12.59188,16.60174 -22.61604,18.12038 -1.99489,0.30219 -4.05002,0.43512 -6.16063,0.42173 -0.14344,-0.0899 -0.28689,-0.18361 -0.4313,-0.27159 1.89926,-1.18775 3.72105,-2.6165 5.408,-4.3044 9.65311,-9.65311 11.25399,-23.7139 3.57186,-31.39603 -3.35956,-3.36051 -7.94416,-4.94514 -12.84244,-4.8562 z m -0.75167,6.15105 c 3.07361,-0.0612 5.94736,1.01753 8.05605,3.30027 4.82177,5.21769 3.82146,14.75604 -2.23684,21.31162 -6.05829,6.55654 -14.87462,7.64674 -19.69639,2.42906 -4.82177,-5.21769 -3.8205,-14.76561 2.23779,-21.32214 3.40737,-3.68758 7.68691,-5.64134 11.63939,-5.71881 z m -74.54142,7.90591 20.12865,14.5992 -3.30218,5.01687 -20.3486,-14.75987 z m 120.10439,7.20397 5.16796,3.05067 -11.67955,19.77672 -4.18391,-4.7051 10.69646,-18.12229 z m -95.10998,10.92693 12.82331,9.30214 c -0.84443,1.90594 -1.5894,3.83198 -2.22823,5.79913 l -13.8963,-10.08345 3.30122,-5.01687 z m 23.09803,6.38249 c 0.2343,-0.005 0.46573,-0.003 0.70194,0 10.02225,0.0899 20.89084,2.46444 29.81045,8.88996 -0.13771,10.68593 -1.56646,18.92655 -6.83292,27.69315 -4.66972,-2.86322 -9.73631,-5.35731 -14.98077,-7.09399 l -4.96714,14.84976 9.54314,1.89638 -2.31813,10.58552 c -8.89283,0.087 -17.24438,-0.39974 -25.05466,-4.65537 l 2.38889,-10.88676 9.51157,1.88682 5.0972,-15.25141 c -4.15426,-0.88364 -8.36399,-1.23174 -12.54216,-0.86356 0.53267,-10.66298 2.7982,-18.60332 7.54538,-26.97974 0.69524,-0.0229 1.39431,-0.0593 2.09721,-0.0708 z m 56.07868,3.93335 4.26424,4.80551 -24.34221,9.18069 c 0.24195,-2.14312 0.38349,-4.33979 0.46191,-6.59097 z m -77.17035,48.49218 4.06341,4.41534 -16.79491,15.4618 -6.73346,-1.95663 19.46592,-17.91955 z m 35.68991,7.26517 7.39524,15.74201 -5.53806,2.32864 -7.29482,-15.52205 5.4386,-2.5486 z m -56.8313,16.41526 6.08124,1.76537 1.24418,27.26185 -5.99996,0.27064 -1.32451,-29.29882 z m 67.28676,4.55496 13.67636,22.06424 -5.0972,3.16064 -14.17746,-22.87711 5.5983,-2.34873 z"
     style="fill:#000080;fill-opacity:1;stroke:#000000;stroke-width:0;stroke-dasharray:none;stroke-opacity:1"
     id="path1" />
  <path
     style="fill:#000080;fill-opacity:1;stroke:#000000;stroke-width:0;stroke-dasharray:none;stroke-opacity:1"
     d="m 328.96518,266.54365 c 3.08414,-1.22791 8.45675,-1.12845 11.19661,0.43704"
     id="path2" />
  <path
     style="fill:#000080;fill-opacity:1;stroke:#000000;stroke-width:0;stroke-dasharray:none;stroke-opacity:1"
     d="m 329.39935,263.06551 c 3.08414,-1.22791 8.45675,-1.12846 11.19661,0.43704"
     id="path3" />
  <path
     style="fill:#000080;fill-opacity:1;stroke:#000000;stroke-width:0;stroke-dasharray:none;stroke-opacity:1"
     d="m 330.07547,259.61606 c 3.08414,-1.22791 8.45675,-1.12846 11.19661,0.43704"
     id="path4" />
  <path
     style="fill:#000080;fill-opacity:1;stroke:#000000;stroke-width:0;stroke-dasharray:none;stroke-opacity:1"
     d="m 350.26166,268.20229 c 4.56753,-0.41593 11.24452,2.26545 13.78352,5.93788"
     id="path5" />
  <path
     style="fill:#000080;fill-opacity:1;stroke:#000000;stroke-width:0;stroke-dasharray:none;stroke-opacity:1"
     d="m 352.31176,266.24797 c 4.56752,-0.41592 11.24451,2.26545 13.78352,5.93788"
     id="path6" />
  <path
     style="fill:#000080;fill-opacity:1;stroke:#000000;stroke-width:0;stroke-dasharray:none;stroke-opacity:1"
     d="m 354.1131,263.69959 c 4.56753,-0.41592 11.24451,2.26545 13.78351,5.93789"
     id="path7" />
  <ellipse
     style="fill:#000080;fill-opacity:1;stroke:#000000;stroke-width:0;stroke-dasharray:none;stroke-opacity:1"
     cx="424.95517"
     cy="46.053875"
     rx="1.4249188"
     ry="2.7522926"
     transform="rotate(25.756015)"
     id="ellipse7" />
  <path
     d="m 358.26173,228.74205 -0.002,5.74113 -4.21275,-1.84236 z"
     bx:shape="triangle 358.608 230.555 4.808 5.501 0.5 0 1@c1055d47"
     style="fill:#000080;fill-opacity:1;stroke:#000000;stroke-width:0;stroke-dasharray:none;stroke-opacity:1"
     id="path8" />
  <ellipse
     style="fill:#000080;fill-opacity:1;stroke:#000000;stroke-width:0;stroke-dasharray:none;stroke-opacity:1"
     cx="418.01816"
     cy="47.117714"
     rx="1.4249188"
     ry="2.7522926"
     transform="rotate(25.756015)"
     id="ellipse8" />
  <path
     class="st0"
     d="m 308.74422,263.44518 c 0.83185,0.35929 1.68187,0.76125 2.55032,1.19492 l 31.40434,-29.99936 -4.10376,0.28189 z"
     id="path9"
     style="fill:#000080;fill-opacity:1;stroke:#000000;stroke-width:0;stroke-dasharray:none;stroke-opacity:1" />
  <path
     class="st0"
     d="m 339.73673,228.42094 3.63052,2.15429 -20.82004,-41.09085 c -0.9162,-0.008 -1.77187,-0.0455 -2.58773,-0.0946 z"
     id="path10"
     style="fill:#000080;fill-opacity:1;stroke:#000000;stroke-width:0;stroke-dasharray:none;stroke-opacity:1" />
  <path
     class="st0"
     d="m 275.01208,221.62652 c 0.0855,-0.68687 0.18992,-1.37253 0.31023,-2.05633 0.15868,-0.8033 0.34894,-1.59694 0.55614,-2.38379 l -9.99466,-1.88338 3.38453,-5.08873 c 0.27967,-0.41411 0.26692,-0.95991 -0.034,-1.35815 -0.29764,-0.39651 -0.81722,-0.56706 -1.29364,-0.41943 l -17.06353,5.27846 c -0.41912,0.13121 -0.72935,0.47951 -0.81018,0.90906 -0.081,0.42962 0.0807,0.86921 0.42518,1.1406 l 13.97075,11.12774 c 0.38952,0.31294 0.93177,0.34405 1.35601,0.0812 0.42353,-0.26444 0.63671,-0.76373 0.53282,-1.249 l -1.30437,-5.97713 z"
     id="path11"
     style="fill:#000080;fill-opacity:1;stroke:#000000;stroke-width:0;stroke-dasharray:none;stroke-opacity:1" />
  <path
     class="st0"
     d="m 321.68961,181.48127 c -3.02467,-0.5712 -5.94971,1.42626 -6.51853,4.45138 -0.11143,0.58481 -0.12822,1.17521 -0.0495,1.76268 -0.93684,0.5631 -2.55513,0.90097 -3.5976,1.11871 l -1.64061,0.40496 c -0.58403,0.13802 -1.19899,0.29755 -1.7788,0.45978 -4.97438,1.40121 -9.4967,3.3976 -13.44283,5.92902 -4.33677,2.76505 -8.11584,6.34648 -10.92086,10.35494 -2.86073,4.04216 -4.91495,8.89259 -5.94569,14.04262 -0.91276,5.15651 -0.7621,10.42221 0.42737,15.22286 1.15754,4.75999 3.37405,9.47133 6.40359,13.62312 2.75475,3.7976 6.24316,7.30105 10.36724,10.41811 0.47929,0.35932 0.99392,0.73159 1.48188,1.07062 l 1.41127,0.99467 c 0.8691,0.56682 2.25133,1.46739 2.91982,2.33436 -0.28688,0.51857 -0.48789,1.0756 -0.59768,1.65949 -0.56979,3.02371 1.42767,5.94875 4.45138,6.51853 3.02379,0.56991 5.94883,-1.42755 6.51866,-4.45147 0.30321,-1.60905 -0.10677,-3.24813 -1.12856,-4.52353 l -0.0154,-0.0347 -0.0845,-0.0997 c -0.30047,-0.3552 -0.59508,-0.64418 -0.8575,-0.89516 -0.43302,-0.42819 -0.86081,-0.77916 -1.27256,-1.11855 l -0.34466,-0.28357 c -1.03973,-0.82029 -2.06418,-1.56 -3.02669,-2.24283 l -4.34679,-3.02497 c -0.44212,-0.3143 -0.84951,-0.61711 -1.28203,-0.95064 -3.46741,-2.63682 -6.34719,-5.73927 -8.56301,-9.21411 -2.23533,-3.5217 -3.77604,-7.45569 -4.44972,-11.37991 -0.65336,-3.79748 -0.61673,-7.68366 0.11279,-11.54848 l 0.10768,-0.54515 0.0917,-0.51971 c 0.72952,-3.86482 2.1073,-7.4984 4.10132,-10.79576 2.05386,-3.41262 4.91815,-6.51643 8.28243,-8.97924 3.33067,-2.43361 7.14108,-4.27278 11.33111,-5.46901 0.52271,-0.15217 1.01489,-0.28559 1.52867,-0.41728 l 5.16857,-1.23822 c 1.1374,-0.28465 2.36325,-0.60054 3.6526,-0.99275 l 0.39932,-0.12998 c 0.50722,-0.16847 1.03353,-0.33976 1.57775,-0.57267 0.35058,-0.14648 0.73268,-0.30806 1.13367,-0.52624 l 0.13663,-0.0787 0.0155,-0.0166 c 1.41205,-0.81532 2.39178,-2.19388 2.69312,-3.79957 0.56991,-3.02379 -1.42764,-5.94897 -4.4505,-6.51725 z"
     id="path12"
     style="fill:#000080;fill-opacity:1;stroke:#000000;stroke-width:0;stroke-dasharray:none;stroke-opacity:1" />
</svg>
