<?xml version="1.0" encoding="UTF-8" standalone="no"?>
<!-- Uploaded to: SVG Repo, www.svgrepo.com, Generator: SVG Repo Mixer Tools -->

<svg
   width="738.13989"
   height="593.59595"
   viewBox="0 0 472.40953 379.90141"
   version="1.1"
   id="svg1"
   sodipodi:docname="assassin.svg"
   inkscape:version="1.4.2 (ebf0e940, 2025-05-08)"
   xmlns:inkscape="http://www.inkscape.org/namespaces/inkscape"
   xmlns:sodipodi="http://sodipodi.sourceforge.net/DTD/sodipodi-0.dtd"
   xmlns="http://www.w3.org/2000/svg"
   xmlns:svg="http://www.w3.org/2000/svg">
  <defs
     id="defs1" />
  <sodipodi:namedview
     id="namedview1"
     pagecolor="#ffffff"
     bordercolor="#000000"
     borderopacity="0.25"
     inkscape:showpageshadow="2"
     inkscape:pageopacity="0.0"
     inkscape:pagecheckerboard="0"
     inkscape:deskcolor="#d1d1d1"
     inkscape:zoom="0.06625"
     inkscape:cx="369.81132"
     inkscape:cy="286.79245"
     inkscape:window-width="896"
     inkscape:window-height="245"
     inkscape:window-x="0"
     inkscape:window-y="39"
     inkscape:window-maximized="0"
     inkscape:current-layer="svg1" />
  <path
     fill="#460d08"
     d="M 311.99998,5.2933261e-6 C 283.19298,-0.00999471 256.56098,14.149005 244.11998,40.650005 c 20.79,1.744 16,55.07 16,55.07 -11.814,16.687005 -24.73,33.186005 -36.589,50.146005 0,0 -99.046,132.283 -178.378004,168.025 -28.049,22.593 -33.305,36.532 -44.1369995,52.649 -4.877,9.54 9.2569995,14.324 11.7009995,13.2 22.726,-10.461 25.176,-20.866 47.07,-35.675 12.805,-5.026 23.839,-15.9 31.854,-11.049 34.962004,20.86 107.556004,44.28 118.271004,38.706 17.857,-9.263 -5.78,-43.585 16.174,-89.057 31.97,-3.352 58.916,-0.885 88.332,-12.094 3.483,50.279 10.106,54.59 6.766,107.092 l 71.2,1.045 0.698,-14.61 -41.814,-11.105 c 11.528,-56.054 11.816,-78.996 4.672,-127.996 -0.956,-6.622 -53.746,-8.275 -81.012,-3.79 24.449,-24.202 40.274,-45.24 47.506,-68.44 l 0.027,0.189 c 7.637,15.923 30.083,33.958 35.336,37.125 27.704,11.048 38.214,7.982 62.955,3.887 4.907,-0.784 27.47,24.537 44.807,9.597 2.642,-20.238 16.522,-20.369 -4.938,-32.71 -4.847,-2.73 -27.063,7.462 -31.418,6.898 -20.21,-2.481 -30.954,-5.211 -58.45,-12.703 -10.23,-13.187 -32.676,-56.136 -55.43,-59.744 6.535,-14.150005 28.226,-53.108005 73.664,-66.237005 -20.943,-26.54 -49.925,-39.05699971 -76.987,-39.06799971 z M 394.40498,46.722005 c -46.658,19.516 -58.266,50.4 -58.266,50.4 l 9.916,7.644005 c 0,0 9.646,-4.765 48.35,-58.044005 z m 23.04,160.005005 -4.658,11.418 c 5.233,-0.083 10.425,0.47 15.328,1.608 -12.774,30.856 -23.938,59.635 -28.181,93.094 l -0.908,7.558 4.863,-5.889 c 20.805,-25.671 32.303,-55.25 44.95,-85.78 4.203,2.656 8.24,5.885 12.071,9.35 l 4.78,-11.374 -20.518,-8.526 -31.767,66.579 24.062,-69.713 -20.021,-8.325 z"
     id="path1"
     style="fill:#000080" />
</svg>
