<?xml version="1.0" encoding="UTF-8" standalone="no"?>
<svg
   viewBox="301.3075 194.9827 90.7026 78.251"
   width="90.7026px"
   height="78.251px"
   version="1.1"
   id="svg30"
   sodipodi:docname="beggar.svg"
   inkscape:version="1.4.2 (ebf0e940, 2025-05-08)"
   xmlns:inkscape="http://www.inkscape.org/namespaces/inkscape"
   xmlns:sodipodi="http://sodipodi.sourceforge.net/DTD/sodipodi-0.dtd"
   xmlns="http://www.w3.org/2000/svg"
   xmlns:svg="http://www.w3.org/2000/svg">
  <defs
     id="defs30" />
  <sodipodi:namedview
     id="namedview30"
     pagecolor="#ffffff"
     bordercolor="#000000"
     borderopacity="0.25"
     inkscape:showpageshadow="2"
     inkscape:pageopacity="0.0"
     inkscape:pagecheckerboard="0"
     inkscape:deskcolor="#d1d1d1"
     inkscape:zoom="0.67730764"
     inkscape:cx="45.031236"
     inkscape:cy="39.1255"
     inkscape:window-width="896"
     inkscape:window-height="204"
     inkscape:window-x="0"
     inkscape:window-y="39"
     inkscape:window-maximized="0"
     inkscape:current-layer="svg30" />
  <g
     id="object-0"
     style="fill:#000080">
    <path
       d="M 361.535 221.575 C 361.699 222.349 361.83 223.119 361.925 223.904 C 361.945 224.066 361.945 224.066 361.965 224.231 C 362.009 224.588 362.052 224.946 362.095 225.303 C 362.11 225.429 362.126 225.555 362.141 225.685 C 362.433 228.08 362.699 230.477 362.962 232.876 C 363.233 235.347 363.523 237.814 363.833 240.281 C 363.848 240.396 363.862 240.511 363.877 240.63 C 363.904 240.842 363.931 241.055 363.958 241.268 C 364.01 241.684 364.046 242.081 364.046 242.501 C 363.946 242.513 363.846 242.525 363.744 242.537 C 362.023 242.765 360.851 243.4 359.72 244.722 C 358.742 246.022 358.504 247.425 358.702 249.021 C 358.887 249.964 359.294 250.816 359.861 251.589 C 359.942 251.705 360.023 251.821 360.107 251.941 C 360.924 252.899 362.223 253.461 363.448 253.622 C 363.782 253.635 364.115 253.634 364.449 253.63 C 364.582 253.629 364.582 253.629 364.716 253.628 C 364.931 253.627 365.146 253.625 365.361 253.622 C 365.466 254.384 365.57 255.147 365.673 255.91 C 365.702 256.122 365.731 256.334 365.76 256.546 C 365.89 257.488 365.992 258.409 365.959 259.362 C 364.466 259.587 362.967 259.766 361.467 259.945 C 361.336 259.961 361.205 259.977 361.069 259.993 C 359.272 260.208 357.474 260.412 355.674 260.601 C 354.315 260.745 352.961 260.91 351.607 261.098 C 349.277 261.422 346.938 261.678 344.6 261.934 C 342.526 262.161 340.452 262.394 338.381 262.651 C 336.601 262.871 334.819 263.082 333.037 263.286 C 330.638 263.561 328.241 263.84 325.843 264.122 C 325.579 264.153 325.316 264.184 325.053 264.215 C 323.37 264.412 321.689 264.611 320.009 264.818 C 319.891 264.832 319.773 264.846 319.652 264.861 C 319.126 264.926 318.6 264.991 318.074 265.058 C 317.894 265.08 317.716 265.102 317.537 265.124 C 317.311 265.153 317.311 265.153 317.08 265.182 C 316.748 265.216 316.428 265.23 316.094 265.222 C 316.084 265.122 316.074 265.023 316.065 264.921 C 316.028 264.543 315.991 264.165 315.954 263.787 C 315.93 263.547 315.907 263.307 315.884 263.067 C 315.869 262.911 315.853 262.755 315.836 262.594 C 315.816 262.383 315.816 262.383 315.795 262.167 C 315.746 261.706 315.685 261.247 315.622 260.788 C 315.5 259.883 315.393 258.977 315.289 258.071 C 315.27 257.904 315.251 257.738 315.231 257.572 C 315.191 257.222 315.15 256.871 315.111 256.521 C 315.003 255.594 314.897 254.668 314.789 253.742 C 314.778 253.649 314.767 253.557 314.757 253.461 C 314.561 251.768 314.361 250.075 314.159 248.383 C 314.144 248.264 314.13 248.145 314.115 248.022 C 313.961 246.748 313.806 245.475 313.645 244.201 C 313.63 244.089 313.616 243.976 313.601 243.86 C 313.536 243.332 313.468 242.804 313.399 242.275 C 313.377 242.091 313.353 241.906 313.329 241.722 C 313.313 241.598 313.313 241.598 313.297 241.472 C 313.244 241.055 313.213 240.649 313.224 240.229 C 313.324 240.194 313.423 240.16 313.526 240.124 C 315.314 239.472 316.482 238.626 317.356 236.914 C 317.906 235.668 317.928 234.232 317.529 232.935 C 316.932 231.435 316.01 230.292 314.539 229.587 C 313.688 229.278 312.805 229.106 311.908 228.989 C 311.783 228.612 311.777 228.344 311.781 227.95 C 311.783 227.83 311.784 227.712 311.785 227.59 C 311.786 227.499 311.787 227.408 311.789 227.315 C 314.262 226.99 316.736 226.685 319.213 226.395 C 319.657 226.344 320.1 226.291 320.543 226.24 C 321.331 226.148 322.119 226.056 322.907 225.964 C 323.555 225.888 324.202 225.812 324.849 225.736 C 325.316 225.681 325.782 225.628 326.248 225.573 C 326.454 225.549 326.66 225.525 326.865 225.501 C 327.884 225.381 328.903 225.266 329.924 225.161 C 330.849 225.066 331.771 224.955 332.691 224.837 C 335.586 224.464 338.483 224.1 341.385 223.794 C 343.905 223.528 346.417 223.218 348.931 222.899 C 351.57 222.563 354.213 222.249 356.858 221.959 C 357.149 221.927 357.44 221.894 357.731 221.862 C 358.161 221.813 358.59 221.766 359.02 221.718 C 359.149 221.704 359.278 221.69 359.41 221.674 C 360.124 221.598 360.817 221.561 361.535 221.575 Z"
       fill="#460d08"
       style="stroke-width:0.12;fill:#000080"
       id="path1" />
    <path
       d="M 372.215 229.132 C 372.57 229.238 372.847 229.381 373.165 229.569 C 373.288 229.64 373.41 229.711 373.536 229.785 C 373.733 229.901 373.733 229.901 373.934 230.02 C 374.072 230.101 374.211 230.182 374.35 230.263 C 374.639 230.432 374.927 230.601 375.215 230.77 C 375.879 231.159 376.547 231.542 377.215 231.926 C 378.368 232.591 379.519 233.26 380.667 233.933 C 380.832 234.029 380.832 234.029 381.001 234.128 C 381.106 234.19 381.211 234.253 381.319 234.317 C 381.619 234.492 381.619 234.492 381.925 234.625 C 382.626 234.949 382.865 235.282 383.135 236.002 C 383.177 236.122 383.218 236.242 383.261 236.365 C 384.171 238.747 385.44 240.937 386.83 243.069 C 388.334 245.378 389.805 247.707 390.832 250.274 C 390.881 250.396 390.929 250.517 390.98 250.643 C 391.385 251.756 391.58 252.937 391.789 254.101 C 391.821 254.274 391.821 254.274 391.853 254.451 C 392.348 257.743 391.683 261.616 389.723 264.358 C 387.748 266.965 384.855 268.157 381.686 268.637 C 381.051 268.716 380.42 268.732 379.78 268.739 C 379.646 268.741 379.513 268.744 379.376 268.746 C 378.957 268.753 378.538 268.759 378.119 268.764 C 377.832 268.769 377.546 268.773 377.259 268.778 C 376.561 268.79 375.864 268.8 375.167 268.809 C 375.168 268.73 375.168 268.651 375.169 268.569 C 375.172 268.207 375.173 267.845 375.175 267.483 C 375.176 267.359 375.177 267.234 375.178 267.106 C 375.185 265.11 374.505 263.504 373.11 262.054 C 371.31 260.44 369.344 260.224 367.035 260.08 C 366.868 258.941 366.714 257.801 366.574 256.659 C 366.553 256.487 366.531 256.315 366.509 256.144 C 366.386 255.18 366.289 254.237 366.318 253.264 C 366.442 253.205 366.442 253.205 366.568 253.144 C 368.101 252.368 369.103 251.25 369.651 249.6 C 369.72 249.305 369.76 249.022 369.786 248.719 C 369.795 248.608 369.805 248.496 369.815 248.381 C 369.879 246.897 369.386 245.575 368.47 244.415 C 367.506 243.366 366.361 242.857 365.003 242.501 C 365.108 241.614 365.396 240.83 365.705 239.997 C 365.734 239.919 365.763 239.84 365.793 239.758 C 367.136 236.127 368.83 232.619 371.37 229.669 C 371.464 229.558 371.559 229.448 371.656 229.334 C 371.938 229.108 371.938 229.108 372.215 229.132 Z"
       fill="#460d08"
       style="stroke-width:0.12;fill:#000080"
       id="path2" />
    <path
       d="M 359.904 261.015 C 360.003 261.014 360.102 261.013 360.205 261.013 C 360.532 261.01 360.86 261.009 361.188 261.008 C 361.3 261.007 361.412 261.007 361.528 261.006 C 362.124 261.004 362.719 261.002 363.315 261.001 C 363.927 261 364.539 260.996 365.151 260.991 C 365.624 260.988 366.098 260.987 366.571 260.986 C 366.796 260.986 367.022 260.984 367.247 260.982 C 369.41 260.962 371.111 261.371 372.732 262.886 C 374.107 264.358 374.389 265.917 374.339 267.844 C 374.287 269.199 373.57 270.49 372.649 271.467 C 371.617 272.409 370.399 273.127 368.975 273.13 C 368.807 273.131 368.807 273.131 368.635 273.132 C 368.512 273.132 368.39 273.132 368.264 273.132 C 368.133 273.132 368.002 273.132 367.868 273.133 C 367.429 273.134 366.99 273.135 366.551 273.135 C 366.236 273.136 365.922 273.137 365.607 273.138 C 364.663 273.14 363.718 273.141 362.774 273.142 C 362.329 273.143 361.884 273.143 361.438 273.144 C 359.957 273.146 358.477 273.148 356.996 273.149 C 356.612 273.149 356.228 273.149 355.843 273.149 C 355.7 273.149 355.7 273.149 355.554 273.149 C 354.009 273.15 352.464 273.153 350.919 273.157 C 349.331 273.161 347.743 273.163 346.155 273.164 C 345.264 273.164 344.374 273.165 343.483 273.168 C 342.724 273.171 341.965 273.172 341.206 273.171 C 340.819 273.17 340.432 273.171 340.046 273.173 C 336.543 273.19 336.543 273.19 335.077 272.21 C 334.971 272.14 334.864 272.071 334.754 272 C 334.509 271.799 334.509 271.799 334.389 271.44 C 334.513 271.428 334.636 271.416 334.763 271.404 C 335.225 271.358 335.688 271.31 336.15 271.262 C 336.349 271.241 336.548 271.221 336.748 271.202 C 338.962 270.986 340.902 270.474 342.483 268.791 C 343.939 267.002 344.288 265.082 344.195 262.83 C 345.223 262.643 346.253 262.513 347.291 262.403 C 347.763 262.352 348.235 262.301 348.707 262.249 C 348.806 262.238 348.905 262.227 349.008 262.216 C 350.175 262.087 351.34 261.947 352.506 261.806 C 354.109 261.613 355.712 261.427 357.319 261.264 C 357.442 261.251 357.565 261.238 357.692 261.225 C 357.797 261.214 357.902 261.204 358.01 261.193 C 358.301 261.162 358.301 261.162 358.561 261.095 C 359.009 261.018 359.451 261.017 359.904 261.015 Z"
       fill="#460d08"
       style="stroke-width:0.12;fill:#000080"
       id="path3" />
    <path
       d="M 314.659 259.721 C 314.895 261.812 315.132 263.904 315.376 266.059 C 317.12 265.967 318.806 265.831 320.523 265.576 C 322.004 265.357 323.49 265.194 324.981 265.042 C 326.507 264.886 328.03 264.72 329.551 264.526 C 331.299 264.304 333.051 264.111 334.802 263.912 C 336.5 263.72 338.197 263.525 339.891 263.308 C 341.005 263.165 342.122 263.055 343.239 262.95 C 343.634 264.136 343.349 265.572 342.819 266.673 C 341.869 268.375 340.66 269.37 338.814 270.005 C 338.435 270.094 338.056 270.145 337.668 270.189 C 337.502 270.21 337.502 270.21 337.331 270.232 C 335.737 270.427 334.137 270.578 332.537 270.733 C 331.793 270.806 331.048 270.88 330.303 270.954 C 330.02 270.982 329.737 271.009 329.453 271.037 C 327.85 271.196 326.246 271.362 324.642 271.53 C 322.148 271.791 319.651 272.037 317.153 272.269 C 315.176 272.452 313.202 272.652 311.23 272.872 C 305.897 273.466 305.897 273.466 303.719 271.812 C 302.485 270.758 301.532 269.382 301.385 267.733 C 301.249 265.208 301.249 265.208 301.744 264.145 C 301.794 264.038 301.843 263.931 301.895 263.82 C 302.695 262.233 303.947 261.082 305.613 260.447 C 306.104 260.303 306.567 260.242 307.074 260.195 C 307.221 260.18 307.221 260.18 307.371 260.166 C 308.434 260.064 309.5 259.983 310.567 259.908 C 310.895 259.885 311.224 259.861 311.553 259.837 C 311.767 259.821 311.982 259.806 312.196 259.791 C 312.34 259.78 312.34 259.78 312.487 259.769 C 313.216 259.719 313.923 259.721 314.659 259.721 Z"
       fill="#460d08"
       style="stroke-width:0.12;fill:#000080"
       id="path4" />
    <path
       d="M 339.382 235.065 C 338.263 235.018 341.918 234.93 342.051 234.929 C 346.691 234.917 351.837 235.993 355.257 239.325 C 356.302 240.397 356.704 241.486 356.689 242.964 C 356.661 243.659 356.546 244.086 356.154 244.654 C 356.057 244.809 356.057 244.809 355.959 244.968 C 354.938 245.988 353.465 246.487 352.08 246.761 C 351.953 246.787 351.825 246.812 351.694 246.838 C 349.239 247.29 346.685 247.338 344.195 247.284 C 344.172 247.212 344.149 247.14 344.124 247.065 C 343.449 245.174 341.925 244.052 340.178 243.197 C 337.561 241.981 334.739 241.593 331.878 241.545 C 330.258 241.305 327.951 241.981 327.99 241.775 C 328.47 239.215 329.943 237.941 331.357 237.232 C 332.724 236.546 332.693 236.695 335.832 235.588 C 337.652 234.811 341.325 235.146 339.382 235.065 Z"
       fill="#460d08"
       style="stroke-width:0.12;fill:#000080"
       id="path5" />
    <path
       d="M 329.781 201.769 C 329.982 201.768 330.183 201.766 330.385 201.765 C 330.93 201.763 331.474 201.765 332.019 201.768 C 332.591 201.769 333.161 201.769 333.733 201.768 C 334.692 201.768 335.652 201.769 336.611 201.772 C 337.719 201.776 338.827 201.776 339.934 201.774 C 341.001 201.772 342.069 201.772 343.136 201.775 C 343.589 201.776 344.043 201.776 344.496 201.775 C 345.03 201.774 345.565 201.776 346.099 201.778 C 346.295 201.78 346.491 201.78 346.687 201.778 C 348.714 201.771 348.714 201.771 349.585 202.541 C 350.231 203.512 350.151 204.585 350.129 205.708 C 350.122 206.052 350.121 206.395 350.121 206.74 C 350.12 206.961 350.118 207.181 350.115 207.402 C 350.115 207.504 350.114 207.605 350.114 207.711 C 350.093 208.596 349.871 209.339 349.218 209.976 C 348.294 210.589 347.255 210.522 346.19 210.517 C 345.994 210.518 345.797 210.52 345.601 210.521 C 345.07 210.523 344.538 210.523 344.007 210.522 C 343.563 210.521 343.119 210.522 342.675 210.523 C 341.627 210.524 340.578 210.524 339.53 210.522 C 338.449 210.521 337.369 210.522 336.29 210.526 C 335.36 210.529 334.431 210.53 333.503 210.529 C 332.949 210.528 332.395 210.529 331.841 210.532 C 331.32 210.534 330.798 210.533 330.278 210.529 C 330.087 210.529 329.897 210.529 329.705 210.532 C 327.832 210.545 327.832 210.545 327.095 209.856 C 326.638 209.362 326.351 208.927 326.342 208.246 C 326.339 208.141 326.337 208.037 326.336 207.93 C 326.334 207.817 326.334 207.705 326.333 207.589 C 326.332 207.473 326.331 207.357 326.33 207.236 C 326.329 206.99 326.327 206.743 326.327 206.497 C 326.326 206.121 326.32 205.747 326.314 205.372 C 326.313 205.131 326.312 204.892 326.311 204.652 C 326.308 204.541 326.307 204.429 326.303 204.315 C 326.311 203.335 326.615 202.807 327.294 202.12 C 328.009 201.631 328.949 201.762 329.781 201.769 Z"
       fill="#460d08"
       style="stroke-width:0.12;fill:#000080"
       id="path6" />
    <path
       d="M 338.814 243.099 C 338.935 243.145 338.935 243.145 339.058 243.192 C 340.168 243.623 341.114 244.137 342.043 244.893 C 342.144 244.97 342.246 245.046 342.351 245.125 C 343.186 245.833 343.74 246.835 343.87 247.92 C 343.905 248.752 343.653 249.468 343.09 250.097 C 342.218 250.829 341.102 251.127 340.01 251.35 C 339.911 251.373 339.811 251.396 339.708 251.42 C 338.125 251.773 336.492 251.728 334.877 251.729 C 334.649 251.729 334.419 251.73 334.191 251.73 C 333.714 251.731 333.236 251.731 332.758 251.731 C 332.152 251.731 331.546 251.733 330.94 251.735 C 330.467 251.736 329.995 251.736 329.523 251.736 C 329.299 251.736 329.076 251.737 328.853 251.738 C 323.313 251.759 323.313 251.759 321.236 250.154 C 320.669 249.585 320.366 249.028 320.354 248.219 C 320.381 247.03 320.91 246.103 321.714 245.252 C 323.151 243.915 325.142 242.882 327.095 242.621 C 329.988 241.616 335.438 241.805 338.814 243.099 Z"
       fill="#460d08"
       style="stroke-width:0.12;fill:#000080"
       id="path7" />
    <path
       d="M 327.932 211.291 C 338.055 211.35 338.055 211.35 348.381 211.411 C 348.381 213.717 347.637 215.767 346.109 217.509 C 346.007 217.638 346.007 217.638 345.903 217.77 C 344.337 219.684 341.729 220.946 339.292 221.216 C 336.102 221.378 333.436 220.478 331.032 218.365 C 329.348 216.786 328.28 214.633 327.932 212.367 C 327.932 212.012 327.932 211.657 327.932 211.291 Z"
       fill="#460d08"
       style="stroke-width:0.12;fill:#000080"
       id="path8" />
    <path
       d="M 329.247 217.629 C 329.447 217.838 329.447 217.838 329.629 218.107 C 331.186 220.219 333.807 221.589 336.367 222.016 C 339.399 222.395 342.59 221.698 345.033 219.818 C 345.853 219.137 346.687 218.381 347.305 217.509 C 349.618 217.898 351.779 219.598 353.284 221.336 C 353.284 221.415 353.284 221.494 353.284 221.575 C 350.949 221.883 348.616 222.185 346.272 222.408 C 345.275 222.505 344.282 222.62 343.289 222.748 C 342.267 222.878 341.244 222.998 340.219 223.114 C 340.133 223.124 340.047 223.133 339.958 223.144 C 338.957 223.257 337.957 223.371 336.956 223.483 C 336.485 223.536 336.015 223.59 335.543 223.642 C 335.206 223.681 334.869 223.719 334.532 223.757 C 333.482 223.876 332.434 224.001 331.388 224.144 C 330.517 224.26 329.644 224.362 328.773 224.465 C 328.451 224.503 328.129 224.543 327.808 224.581 C 326.645 224.72 325.483 224.85 324.317 224.96 C 323.569 225.033 322.826 225.129 322.081 225.238 C 321.755 225.277 321.445 225.29 321.116 225.282 C 321.184 224.664 321.383 224.191 321.662 223.645 C 321.726 223.518 321.726 223.518 321.792 223.39 C 323.213 220.658 325.5 218.847 328.28 217.62 C 328.678 217.501 328.862 217.477 329.247 217.629 Z"
       fill="#460d08"
       style="stroke-width:0.12;fill:#000080"
       id="path9" />
    <path
       d="M 335.92 194.992 C 336.092 194.991 336.264 194.991 336.437 194.99 C 336.797 194.99 337.157 194.99 337.515 194.99 C 337.973 194.991 338.43 194.988 338.887 194.986 C 339.243 194.984 339.598 194.984 339.954 194.984 C 340.122 194.984 340.291 194.984 340.458 194.983 C 342.807 194.967 344.76 195.655 346.468 197.3 C 347.303 198.183 348.381 199.619 348.381 200.887 C 341.672 200.887 334.963 200.887 328.052 200.887 C 328.299 199.152 329.366 197.709 330.682 196.583 C 332.339 195.412 333.921 194.99 335.92 194.992 Z"
       fill="#460d08"
       style="stroke-width:0.12;fill:#000080"
       id="path10" />
    <path
       d="M 367.155 244.295 C 368.078 244.999 368.749 246.145 368.949 247.284 C 369.07 248.562 368.859 249.81 368.082 250.857 C 367.936 251.025 367.787 251.189 367.633 251.35 C 367.563 251.426 367.493 251.502 367.421 251.581 C 366.523 252.464 365.384 252.839 364.143 252.852 C 363.353 252.838 362.703 252.694 362.013 252.307 C 361.873 252.231 361.873 252.231 361.731 252.153 C 360.681 251.521 359.94 250.51 359.552 249.35 C 359.313 248.062 359.405 246.736 360.1 245.61 C 361.893 243.172 364.625 242.659 367.155 244.295 Z"
       fill="#460d08"
       style="stroke-width:0.12;fill:#000080"
       id="path11" />
    <path
       d="M 315.188 230.988 C 316.083 231.721 316.621 232.662 316.931 233.772 C 317.065 235.357 316.743 236.601 315.765 237.87 C 314.894 238.819 313.774 239.332 312.497 239.416 C 310.966 239.439 309.963 239.097 308.799 238.077 C 307.742 236.945 307.422 235.757 307.451 234.234 C 307.548 232.871 308.23 231.905 309.196 230.992 C 310.976 229.464 313.35 229.686 315.188 230.988 Z"
       fill="#460d08"
       style="stroke-width:0.12;fill:#000080"
       id="path12" />
    <path
       d="M 374.689 216.313 C 377.135 216.313 379.582 216.313 382.103 216.313 C 381.905 217.063 381.708 217.813 381.505 218.585 C 381.366 219.139 381.366 219.139 381.228 219.693 C 381.081 220.277 380.923 220.859 380.765 221.44 C 380.691 221.712 380.618 221.984 380.544 222.257 C 380.506 222.398 380.468 222.539 380.429 222.685 C 380.22 223.458 380.014 224.232 379.808 225.005 C 379.77 225.149 379.731 225.293 379.692 225.441 C 379.636 225.651 379.636 225.651 379.579 225.866 C 379.542 226.003 379.505 226.141 379.466 226.283 C 379.384 226.594 379.306 226.906 379.23 227.218 C 379.209 227.3 379.189 227.383 379.168 227.468 C 379.11 227.701 379.054 227.933 378.997 228.166 C 378.957 228.28 378.916 228.393 378.874 228.51 C 378.515 228.63 378.515 228.63 378.213 228.499 C 378.095 228.432 377.977 228.365 377.856 228.296 C 377.726 228.223 377.596 228.15 377.462 228.074 C 377.326 227.996 377.19 227.919 377.05 227.837 C 376.916 227.762 376.782 227.687 376.644 227.609 C 376.268 227.395 375.894 227.182 375.526 226.956 C 375.419 226.897 375.419 226.897 375.31 226.838 C 375.074 226.694 374.881 226.557 374.689 226.358 C 374.606 225.986 374.581 225.739 374.594 225.368 C 374.593 225.221 374.593 225.221 374.593 225.07 C 374.594 224.747 374.6 224.425 374.607 224.102 C 374.608 223.878 374.61 223.653 374.61 223.428 C 374.614 222.839 374.622 222.249 374.631 221.66 C 374.641 220.952 374.645 220.244 374.65 219.537 C 374.658 218.462 374.674 217.387 374.689 216.313 Z"
       fill="#460d08"
       style="stroke-width:0.12;fill:#000080"
       id="path13" />
    <path
       d="M 389.995 218.705 C 389.053 220.625 387.916 222.468 386.834 224.313 C 386.389 225.073 385.95 225.834 385.511 226.597 C 384.659 228.075 383.801 229.549 382.94 231.021 C 382.524 230.941 382.205 230.775 381.838 230.567 C 381.719 230.499 381.6 230.432 381.477 230.362 C 381.353 230.291 381.229 230.22 381.101 230.147 C 380.978 230.077 380.855 230.008 380.728 229.936 C 380.136 229.599 379.553 229.258 378.994 228.869 C 379.062 228.27 379.259 227.775 379.515 227.236 C 379.556 227.147 379.596 227.06 379.638 226.969 C 379.771 226.682 379.906 226.396 380.04 226.111 C 380.225 225.712 380.41 225.314 380.595 224.916 C 380.642 224.816 380.688 224.716 380.736 224.613 C 381.213 223.585 381.676 222.552 382.134 221.516 C 382.225 221.309 382.317 221.104 382.409 220.897 C 382.459 220.782 382.51 220.667 382.563 220.548 C 382.701 220.26 382.701 220.26 382.94 219.901 C 383.249 219.815 383.249 219.815 383.643 219.756 C 383.789 219.732 383.934 219.711 384.085 219.687 C 384.202 219.669 384.202 219.669 384.321 219.652 C 384.727 219.592 385.134 219.528 385.54 219.463 C 385.623 219.45 385.705 219.437 385.79 219.424 C 386.73 219.274 387.662 219.083 388.593 218.887 C 388.708 218.863 388.823 218.839 388.942 218.814 C 389.042 218.793 389.142 218.772 389.245 218.75 C 389.517 218.705 389.517 218.705 389.995 218.705 Z"
       fill="#460d08"
       style="stroke-width:0.12;fill:#000080"
       id="path14" />
    <path
       d="M 309.277 239.631 C 309.378 239.666 309.378 239.666 309.48 239.701 C 310.274 239.972 311.042 240.208 311.878 240.295 C 311.974 240.306 312.07 240.316 312.168 240.326 C 312.241 240.334 312.312 240.341 312.387 240.349 C 312.401 240.482 312.401 240.482 312.416 240.617 C 312.509 241.464 312.602 242.312 312.695 243.159 C 312.744 243.595 312.792 244.03 312.839 244.465 C 312.895 244.969 312.95 245.473 313.006 245.977 C 313.014 246.06 313.024 246.142 313.033 246.227 C 313.163 247.392 313.306 248.555 313.477 249.715 C 313.551 250.225 313.599 250.713 313.582 251.231 C 312.518 251.325 311.506 250.914 310.686 250.244 C 310.296 249.86 310.024 249.433 309.756 248.959 C 309.702 248.868 309.647 248.778 309.592 248.685 C 308.257 246.181 308.617 242.547 309.158 239.87 C 309.197 239.792 309.237 239.713 309.277 239.631 Z"
       fill="#460d08"
       style="stroke-width:0.12;fill:#000080"
       id="path15" />
    <path
       d="M 374.091 227.076 C 374.563 227.283 374.992 227.55 375.428 227.823 C 375.686 227.978 375.943 228.133 376.201 228.288 C 376.329 228.366 376.457 228.445 376.589 228.525 C 377.121 228.846 377.66 229.153 378.201 229.459 C 378.405 229.576 378.609 229.692 378.812 229.808 C 378.97 229.898 378.97 229.898 379.13 229.989 C 379.788 230.365 380.445 230.741 381.101 231.119 C 381.229 231.192 381.356 231.265 381.488 231.34 C 383.686 232.605 383.686 232.605 384.016 232.935 C 384.085 233.686 384.085 233.686 383.829 234.003 C 383.412 234.185 383.157 234.179 382.701 234.131 C 382.279 233.941 381.895 233.697 381.505 233.45 C 381.269 233.306 381.034 233.163 380.798 233.019 C 380.678 232.945 380.557 232.872 380.433 232.795 C 379.861 232.45 379.278 232.124 378.695 231.799 C 377.448 231.099 376.215 230.377 374.987 229.644 C 374.702 229.475 374.416 229.306 374.129 229.139 C 373.965 229.041 373.8 228.944 373.635 228.847 C 373.56 228.803 373.486 228.76 373.409 228.715 C 372.908 228.418 372.908 228.418 372.775 228.152 C 372.723 227.532 372.723 227.532 372.895 227.21 C 373.288 226.988 373.659 226.999 374.091 227.076 Z"
       fill="#460d08"
       style="stroke-width:0.12;fill:#000080"
       id="path16" />
    <path
       d="M 336.061 235.555 C 335.796 235.821 335.553 235.939 335.217 236.108 C 333.606 236.982 332.713 238.269 332.115 239.979 C 332.068 240.105 332.022 240.231 331.974 240.36 C 331.861 240.749 331.81 241.133 331.756 241.534 C 331.912 241.527 330.174 241.504 331.278 241.534 C 331.273 241.412 331.268 241.29 331.264 241.165 C 331.319 239.447 332.437 237.887 333.641 236.74 C 334.611 235.913 334.611 235.913 335.105 235.913 C 335.105 235.834 335.105 235.755 335.105 235.674 C 335.429 235.512 335.704 235.547 336.061 235.555 Z"
       fill="#460d08"
       style="stroke-width:0.12;fill:#000080"
       id="path17" />
    <path
       d="M 347.541 235.913 C 347.417 235.955 347.293 235.997 347.165 236.041 C 345.317 236.686 343.969 237.562 343.027 239.336 C 342.614 240.202 342.371 241.078 342.16 242.012 C 341.923 242.071 341.923 242.071 341.681 242.132 C 341.61 240.398 342.572 238.863 343.707 237.625 C 344.489 236.869 346.41 235.478 347.541 235.913 Z"
       fill="#460d08"
       style="stroke-width:0.12;fill:#000080"
       id="path18" />
    <path
       d="M 341.442 235.555 C 341.363 235.594 341.283 235.633 341.201 235.674 C 339.368 236.62 338.139 237.896 337.35 239.807 C 337.146 240.449 337.023 241.111 336.898 241.773 C 336.74 241.773 336.583 241.773 336.42 241.773 C 336.388 241.133 336.483 240.617 336.712 240.024 C 336.743 239.941 336.775 239.859 336.807 239.773 C 337.569 237.882 338.864 236.665 340.605 235.674 C 340.693 235.623 340.78 235.572 340.87 235.52 C 341.084 235.435 341.084 235.435 341.442 235.555 Z"
       fill="#460d08"
       style="stroke-width:0.12;fill:#000080"
       id="path19" />
    <path
       d="M 332.235 242.371 C 332.127 242.419 332.018 242.466 331.907 242.516 C 330.416 243.201 329.438 244.064 328.767 245.599 C 328.627 245.994 328.514 246.391 328.408 246.795 C 328.33 247.035 328.251 247.274 328.169 247.513 C 328.011 247.473 327.853 247.434 327.691 247.393 C 327.792 245.914 328.601 244.55 329.646 243.532 C 331.36 242.079 331.36 242.079 332.235 242.371 Z"
       fill="#460d08"
       style="stroke-width:0.12;fill:#000080"
       id="path20" />
    <path
       d="M 351.106 237.874 C 350.841 238.01 350.575 238.137 350.301 238.256 C 348.994 238.85 348.268 239.614 347.754 240.957 C 347.563 241.594 347.471 242.237 347.399 242.897 C 347.163 242.956 347.163 242.956 346.921 243.016 C 346.789 241.716 347.261 240.491 348.014 239.437 C 348.77 238.597 349.923 237.763 351.106 237.874 Z"
       fill="#460d08"
       style="stroke-width:0.12;fill:#000080"
       id="path21" />
    <path
       d="M 336.061 242.969 C 335.899 243.038 335.899 243.038 335.734 243.11 C 334.35 243.733 333.427 244.534 332.832 245.971 C 332.632 246.555 332.485 247.148 332.354 247.752 C 332.196 247.712 332.038 247.673 331.876 247.632 C 331.997 246.155 332.731 244.812 333.823 243.814 C 335.32 242.678 335.32 242.678 336.061 242.969 Z"
       fill="#460d08"
       style="stroke-width:0.12;fill:#000080"
       id="path22" />
    <path
       d="M 326.973 242.49 C 327.17 242.49 327.368 242.49 327.571 242.49 C 327.25 242.737 326.922 242.957 326.577 243.17 C 325.137 244.133 324.571 245.507 324.223 247.154 C 323.986 247.213 323.986 247.213 323.744 247.273 C 323.604 246.037 324.321 244.922 325.047 243.975 C 325.591 243.353 326.163 242.932 326.973 242.729 C 326.973 242.65 326.973 242.572 326.973 242.49 Z"
       fill="#460d08"
       style="stroke-width:0.12;fill:#000080"
       id="path23" />
    <path
       d="M 339.888 244.045 C 339.564 244.261 339.333 244.352 338.969 244.471 C 338.169 244.785 337.664 245.335 337.243 246.075 C 336.965 246.722 336.935 247.415 336.898 248.111 C 336.661 248.17 336.661 248.17 336.42 248.23 C 336.2 247.548 336.384 246.904 336.669 246.268 C 337.182 245.298 337.929 244.554 338.947 244.127 C 339.276 244.048 339.552 244.025 339.888 244.045 Z"
       fill="#460d08"
       style="stroke-width:0.12;fill:#000080"
       id="path24" />
    <path
       d="M 327.93 246.197 C 328.134 246.393 328.281 246.54 328.408 246.795 C 328.336 247.037 328.256 247.276 328.169 247.513 C 328.011 247.473 327.853 247.434 327.691 247.393 C 327.746 246.978 327.797 246.595 327.93 246.197 Z"
       fill="#460d08"
       style="stroke-width:0.12;fill:#000080"
       id="path25" />
    <path
       d="M 328.647 245.241 C 328.544 246.266 328.544 246.266 328.288 246.676 C 328.209 246.636 328.131 246.597 328.049 246.556 C 328.028 246.089 328.024 245.756 328.288 245.36 C 328.528 245.241 328.528 245.241 328.647 245.241 Z"
       fill="#460d08"
       style="stroke-width:0.12;fill:#000080"
       id="path26" />
    <path
       d="M 336.539 240.457 C 336.618 240.576 336.697 240.694 336.779 240.816 C 336.858 240.816 336.937 240.816 337.018 240.816 C 336.978 241.132 336.939 241.448 336.898 241.773 C 336.74 241.773 336.583 241.773 336.42 241.773 C 336.403 240.884 336.403 240.884 336.539 240.457 Z"
       fill="#460d08"
       style="stroke-width:0.12;fill:#000080"
       id="path27" />
    <path
       d="M 324.223 246.078 C 324.223 246.433 324.223 246.788 324.223 247.154 C 324.065 247.193 323.907 247.233 323.744 247.273 C 323.7 246.496 323.7 246.496 323.917 246.205 C 324.103 246.078 324.103 246.078 324.223 246.078 Z"
       fill="#460d08"
       style="stroke-width:0.12;fill:#000080"
       id="path28" />
    <path
       d="M 332.593 245.36 C 332.672 245.36 332.751 245.36 332.832 245.36 C 332.793 245.676 332.754 245.992 332.713 246.317 C 332.555 246.317 332.397 246.317 332.235 246.317 C 332.459 245.629 332.459 245.629 332.593 245.36 Z"
       fill="#460d08"
       style="stroke-width:0.12;fill:#000080"
       id="path29" />
    <path
       d="M 331.876 239.022 C 331.915 239.101 331.955 239.18 331.995 239.262 C 332.074 239.262 332.153 239.262 332.235 239.262 C 332.195 239.498 332.156 239.735 332.115 239.979 C 332.036 239.9 331.957 239.821 331.876 239.74 C 331.757 239.799 331.757 239.799 331.637 239.859 C 331.716 239.583 331.795 239.307 331.876 239.022 Z"
       fill="#460d08"
       style="stroke-width:0.12;fill:#000080"
       id="path30" />
  </g>
</svg>
