<?xml version="1.0" encoding="UTF-8" standalone="no"?>
<svg
   viewBox="301.3075 194.9827 93.116373 80.397805"
   width="93.116371"
   height="80.397804"
   version="1.1"
   id="svg30"
   sodipodi:docname="beggar.svg"
   inkscape:version="1.4.2 (ebf0e940, 2025-05-08)"
   xmlns:inkscape="http://www.inkscape.org/namespaces/inkscape"
   xmlns:sodipodi="http://sodipodi.sourceforge.net/DTD/sodipodi-0.dtd"
   xmlns="http://www.w3.org/2000/svg"
   xmlns:svg="http://www.w3.org/2000/svg">
  <defs
     id="defs30" />
  <sodipodi:namedview
     id="namedview30"
     pagecolor="#ffffff"
     bordercolor="#000000"
     borderopacity="0.25"
     inkscape:showpageshadow="2"
     inkscape:pageopacity="0.0"
     inkscape:pagecheckerboard="0"
     inkscape:deskcolor="#d1d1d1"
     inkscape:zoom="10.662136"
     inkscape:cx="37.656621"
     inkscape:cy="31.982336"
     inkscape:window-width="1712"
     inkscape:window-height="971"
     inkscape:window-x="0"
     inkscape:window-y="39"
     inkscape:window-maximized="1"
     inkscape:current-layer="object-0" />
  <g
     id="object-0"
     style="fill:#000080"
     transform="translate(1.6537169,-2.764285e-5)">
    <path
       d="m 361.535,221.575 c 0.164,0.774 0.295,1.544 0.39,2.329 0.02,0.162 0.02,0.162 0.04,0.327 0.044,0.357 0.087,0.715 0.13,1.072 0.015,0.126 0.031,0.252 0.046,0.382 0.292,2.395 0.558,4.792 0.821,7.191 0.271,2.471 0.561,4.938 0.871,7.405 0.015,0.115 0.029,0.23 0.044,0.349 0.027,0.212 0.054,0.425 0.081,0.638 0.052,0.416 0.088,0.813 0.088,1.233 -0.1,0.012 -0.2,0.024 -0.302,0.036 -1.721,0.228 -2.893,0.863 -4.024,2.185 -0.978,1.3 -1.216,2.703 -1.018,4.299 0.185,0.943 0.592,1.795 1.159,2.568 0.081,0.116 0.162,0.232 0.246,0.352 0.817,0.958 2.116,1.52 3.341,1.681 0.334,0.013 0.667,0.012 1.001,0.008 0.133,-0.001 0.133,-0.001 0.267,-0.002 0.215,-10e-4 0.43,-0.003 0.645,-0.006 0.105,0.762 0.209,1.525 0.312,2.288 0.029,0.212 0.058,0.424 0.087,0.636 0.13,0.942 0.232,1.863 0.199,2.816 -1.493,0.225 -2.992,0.404 -4.492,0.583 -0.131,0.016 -0.262,0.032 -0.398,0.048 -1.797,0.215 -3.595,0.419 -5.395,0.608 -1.359,0.144 -2.713,0.309 -4.067,0.497 -2.33,0.324 -4.669,0.58 -7.007,0.836 -2.074,0.227 -4.148,0.46 -6.219,0.717 -1.78,0.22 -3.562,0.431 -5.344,0.635 -2.399,0.275 -4.796,0.554 -7.194,0.836 -0.264,0.031 -0.527,0.062 -0.79,0.093 -1.683,0.197 -3.364,0.396 -5.044,0.603 -0.118,0.014 -0.236,0.028 -0.357,0.043 -0.526,0.065 -1.052,0.13 -1.578,0.197 -0.18,0.022 -0.358,0.044 -0.537,0.066 -0.226,0.029 -0.226,0.029 -0.457,0.058 -0.332,0.034 -0.652,0.048 -0.986,0.04 -0.01,-0.1 -0.02,-0.199 -0.029,-0.301 -0.037,-0.378 -0.074,-0.756 -0.111,-1.134 -0.024,-0.24 -0.047,-0.48 -0.07,-0.72 -0.015,-0.156 -0.031,-0.312 -0.048,-0.473 -0.02,-0.211 -0.02,-0.211 -0.041,-0.427 -0.049,-0.461 -0.11,-0.92 -0.173,-1.379 -0.122,-0.905 -0.229,-1.811 -0.333,-2.717 -0.019,-0.167 -0.038,-0.333 -0.058,-0.499 -0.04,-0.35 -0.081,-0.701 -0.12,-1.051 -0.108,-0.927 -0.214,-1.853 -0.322,-2.779 -0.011,-0.093 -0.022,-0.185 -0.032,-0.281 -0.196,-1.693 -0.396,-3.386 -0.598,-5.078 -0.015,-0.119 -0.029,-0.238 -0.044,-0.361 -0.154,-1.274 -0.309,-2.547 -0.47,-3.821 -0.015,-0.112 -0.029,-0.225 -0.044,-0.341 -0.065,-0.528 -0.133,-1.056 -0.202,-1.585 -0.022,-0.184 -0.046,-0.369 -0.07,-0.553 -0.016,-0.124 -0.016,-0.124 -0.032,-0.25 -0.053,-0.417 -0.084,-0.823 -0.073,-1.243 0.1,-0.035 0.199,-0.069 0.302,-0.105 1.788,-0.652 2.956,-1.498 3.83,-3.21 0.55,-1.246 0.572,-2.682 0.173,-3.979 -0.597,-1.5 -1.519,-2.643 -2.99,-3.348 -0.851,-0.309 -1.734,-0.481 -2.631,-0.598 -0.125,-0.377 -0.131,-0.645 -0.127,-1.039 0.002,-0.12 0.003,-0.238 0.004,-0.36 10e-4,-0.091 0.002,-0.182 0.004,-0.275 2.473,-0.325 4.947,-0.63 7.424,-0.92 0.444,-0.051 0.887,-0.104 1.33,-0.155 0.788,-0.092 1.576,-0.184 2.364,-0.276 0.648,-0.076 1.295,-0.152 1.942,-0.228 0.467,-0.055 0.933,-0.108 1.399,-0.163 0.206,-0.024 0.412,-0.048 0.617,-0.072 1.019,-0.12 2.038,-0.235 3.059,-0.34 0.925,-0.095 1.847,-0.206 2.767,-0.324 2.895,-0.373 5.792,-0.737 8.694,-1.043 2.52,-0.266 5.032,-0.576 7.546,-0.895 2.639,-0.336 5.282,-0.65 7.927,-0.94 0.291,-0.032 0.582,-0.065 0.873,-0.097 0.43,-0.049 0.859,-0.096 1.289,-0.144 0.129,-0.014 0.258,-0.028 0.39,-0.044 0.714,-0.076 1.407,-0.113 2.125,-0.099 z"
       fill="#460d08"
       style="fill:#000080;stroke-width:0.12"
       id="path1" />
    <path
       d="m 372.97502,228.62532 c 0.355,0.106 0.632,0.249 0.95,0.437 0.123,0.071 0.245,0.142 0.371,0.216 0.197,0.116 0.197,0.116 0.398,0.235 0.138,0.081 0.277,0.162 0.416,0.243 0.289,0.169 0.577,0.338 0.865,0.507 0.664,0.389 1.332,0.772 2,1.156 1.153,0.665 2.304,1.334 3.452,2.007 0.165,0.096 0.165,0.096 0.334,0.195 0.105,0.062 0.21,0.125 0.318,0.189 0.3,0.175 0.3,0.175 0.606,0.308 0.701,0.324 0.94,0.657 1.21,1.377 0.042,0.12 0.083,0.24 0.126,0.363 0.91,2.382 2.179,4.572 3.569,6.704 1.504,2.309 2.975,4.638 4.002,7.205 0.049,0.122 0.097,0.243 0.148,0.369 0.405,1.113 0.6,2.294 0.809,3.458 0.032,0.173 0.032,0.173 0.064,0.35 0.495,3.292 -0.17,7.165 -2.13,9.907 -1.975,2.607 -4.868,3.799 -8.037,4.279 -2.00495,0.14597 -3.83859,0.13595 -5.84897,0.172 -0.40988,-3.07599 -0.93946,-4.7704 -2.72703,-6.755 -1.8,-1.614 -3.55282,-2.09648 -5.86182,-2.24048 -0.64862,-4.4238 -0.95778,-5.6235 -0.93018,-6.54952 0.124,-0.059 0.124,-0.059 0.25,-0.12 1.533,-0.776 1.85182,-1.45481 2.39982,-3.10481 0.069,-0.295 0.109,-0.578 0.135,-0.881 0.009,-0.111 0.019,-0.223 0.029,-0.338 0.064,-1.484 -0.429,-2.806 -1.345,-3.966 -0.964,-1.049 -1.477,-1.7413 -2.835,-2.0973 0.105,-0.887 0.44418,-1.92689 0.75318,-2.75989 0.029,-0.078 0.058,-0.157 0.088,-0.239 1.343,-3.631 3.037,-7.139 5.577,-10.089 0.094,-0.111 0.189,-0.221 0.286,-0.335 0.282,-0.226 0.282,-0.226 0.559,-0.202 z"
       fill="#460d08"
       style="fill:#000080;stroke-width:0.12"
       id="path2"
       sodipodi:nodetypes="ccccccccccccccccccccccccccccccccccc" />
    <path
       d="m 373.36743,264.69974 c 0.60133,1.85654 0.83782,2.98613 0.78782,5.02927 -0.052,1.43666 -0.769,2.80547 -1.69,3.84135 -1.032,0.99877 -2.25,1.76005 -3.674,1.76323 -0.168,10e-4 -0.168,10e-4 -0.34,0.002 h -0.371 c -0.131,0 -0.262,0 -0.396,10e-4 -0.439,10e-4 -0.878,0.002 -1.317,0.002 -0.315,10e-4 -0.629,0.002 -0.944,0.003 -0.944,0.002 -1.889,0.003 -2.833,0.004 -0.445,10e-4 -0.89,10e-4 -1.336,0.002 -1.481,0.002 -2.961,0.004 -4.442,0.005 h -1.153 -0.289 c -1.545,10e-4 -3.09,0.004 -4.635,0.008 -1.588,0.004 -3.176,0.006 -4.764,0.007 -0.891,0 -1.781,10e-4 -2.672,0.004 -0.759,0.003 -1.518,0.004 -2.277,0.003 -0.387,-0.001 -0.774,0 -1.16,0.002 -3.503,0.018 -3.503,0.018 -4.969,-1.02104 -0.106,-0.0742 -0.213,-0.14738 -0.323,-0.22266 -0.245,-0.21311 -0.245,-0.21311 -0.365,-0.59375 0.124,-0.0127 0.247,-0.0254 0.374,-0.0382 0.462,-0.0488 0.925,-0.0997 1.387,-0.15055 0.199,-0.0223 0.398,-0.0435 0.598,-0.0636 2.214,-0.22902 4.154,-0.77188 5.735,-2.55631 1.456,-1.89682 1.805,-3.93254 1.712,-6.32026 1.028,-0.19827 2.058,-0.33611 3.096,-0.45274 0.472,-0.0541 0.944,-0.10814 1.416,-0.16328 0.099,-0.0117 0.198,-0.0233 0.301,-0.035 1.167,-0.13677 2.332,-0.28521 3.498,-0.43471 1.603,-0.20463 3.206,-0.40184 4.813,-0.57466 0.123,-0.0138 0.246,-0.0276 0.373,-0.0414 0.105,-0.0117 0.21,-0.0223 0.318,-0.0339 5.02341,-0.56794 14.03363,-2.74281 15.54118,2.02521 z"
       fill="#460d08"
       style="fill:#000080;stroke-width:0.123563"
       id="path3"
       sodipodi:nodetypes="cccccsccccccccccccccccccccccccccccc" />
    <path
       d="m 313.00524,261.09913 c 0.236,2.091 0.473,4.183 0.717,6.338 1.744,-0.092 3.43,-0.228 5.147,-0.483 1.481,-0.219 2.967,-0.382 4.458,-0.534 1.526,-0.156 3.049,-0.322 4.57,-0.516 1.748,-0.222 3.5,-0.415 5.251,-0.614 1.698,-0.192 3.395,-0.387 5.089,-0.604 1.114,-0.143 2.231,-0.253 3.348,-0.358 0.395,1.186 0.11,2.622 -0.42,3.723 -0.95,1.702 -2.159,2.697 -4.005,3.332 -0.379,0.089 -0.758,0.14 -1.146,0.184 -0.166,0.021 -0.166,0.021 -0.337,0.043 -1.594,0.195 -3.194,0.346 -4.794,0.501 -0.744,0.073 -1.489,0.147 -2.234,0.221 -0.283,0.028 -0.566,0.055 -0.85,0.083 -1.603,0.159 -3.207,0.325 -4.811,0.493 -2.494,0.261 -4.991,0.507 -7.489,0.739 -1.977,0.183 -3.951,0.383 -5.923,0.603 -5.333,0.594 -5.333,0.594 -7.511,-1.06 -1.234,-1.054 -2.187,-2.43 -2.334,-4.079 -0.136,-2.525 -0.136,-2.525 0.359,-3.588 0.05,-0.107 0.099,-0.214 0.151,-0.325 0.8,-1.587 2.052,-2.738 3.718,-3.373 0.491,-0.144 0.954,-0.205 1.461,-0.252 0.147,-0.015 0.147,-0.015 0.297,-0.029 1.063,-0.102 2.129,-0.183 3.196,-0.258 0.328,-0.023 0.657,-0.047 0.986,-0.071 0.214,-0.016 0.429,-0.031 0.643,-0.046 0.144,-0.011 0.144,-0.011 0.291,-0.022 0.729,-0.05 1.436,-0.048 2.172,-0.048 z"
       fill="#460d08"
       style="fill:#000080;stroke-width:0.12"
       id="path4" />
    <path
       d="m 329.22903,202.65509 c 6.53274,0.006 13.06565,-0.009 19.59827,0.0206 1.26689,0.0673 2.08476,1.02059 2.05374,1.91446 0.0839,1.08527 0.0107,2.17648 -0.0338,3.26062 -0.13165,0.83214 -0.96005,1.66157 -2.15012,1.70288 -1.77371,0.17401 -3.56753,0.0307 -5.35009,0.079 -5.24995,-0.01 -10.50101,0.0329 -15.75026,-0.009 -1.22684,-0.16619 -2.09129,-1.1259 -2.04664,-2.03384 0.0411,-1.06439 -0.067,-2.13052 0.003,-3.19369 0.084,-0.87135 0.9982,-1.752 2.24053,-1.74565 0.47788,-0.0274 0.95711,0.002 1.43499,0.005 z"
       fill="#460d08"
       style="fill:#000080;stroke-width:0.110598"
       id="path6" />
    <path
       d="m 327.932,211.291 c 10.123,0.0464 10.123,0.0464 20.449,0.0945 0,1.81563 -0.744,3.4297 -2.272,4.80126 -0.102,0.10157 -0.102,0.10157 -0.206,0.2055 -1.566,1.50699 -4.174,2.50063 -6.611,2.71321 -3.19,0.12755 -5.856,-0.58106 -8.26,-2.24473 -1.684,-1.24323 -2.752,-2.9384 -3.1,-4.72253 0,-0.27951 0,-0.55902 0,-0.84719 z"
       fill="#460d08"
       style="fill:#000080;stroke-width:0.106479"
       id="path8" />
    <path
       d="m 328.95778,217.39097 c 0.20434,0.18207 0.20434,0.18207 0.3903,0.41642 1.59082,1.83994 4.26875,3.03346 6.88436,3.40545 3.09786,0.33018 6.35818,-0.27704 8.85424,-1.91486 0.83781,-0.59327 1.68993,-1.25189 2.32135,-2.01156 2.36325,0.33889 4.57119,1.8199 6.10888,3.33402 0,0.0688 0,0.13764 0,0.20821 -2.38572,0.26832 -4.7694,0.53142 -7.16431,0.72569 -1.01866,0.0845 -2.03323,0.18469 -3.0478,0.29621 -1.0442,0.11325 -2.08942,0.21779 -3.13669,0.31885 -0.0879,0.009 -0.17573,0.0165 -0.26667,0.0261 -1.02274,0.0984 -2.04446,0.19776 -3.06721,0.29533 -0.48123,0.0462 -0.96144,0.0932 -1.44369,0.13852 -0.34432,0.034 -0.68864,0.0671 -1.03296,0.10019 -1.07281,0.10367 -2.14357,0.21257 -3.21229,0.33715 -0.88992,0.10105 -1.78189,0.18991 -2.67181,0.27964 -0.32899,0.0331 -0.65798,0.068 -0.98596,0.10106 -1.18826,0.1211 -2.3755,0.23435 -3.56683,0.33018 -0.76425,0.0636 -1.52339,0.14723 -2.28457,0.24219 -0.33308,0.034 -0.64981,0.0453 -0.98596,0.0383 0.0695,-0.53839 0.2728,-0.95046 0.55786,-1.42612 0.0654,-0.11064 0.0654,-0.11064 0.13282,-0.22216 1.45187,-2.38006 3.78855,-3.95777 6.62894,-5.02671 0.40664,-0.10368 0.59464,-0.12458 0.988,0.008 z"
       fill="#460d08"
       style="fill:#000080;stroke-width:0.113215"
       id="path9" />
    <path
       d="m 335.92,194.992 c 0.172,-10e-4 0.344,-10e-4 0.517,-0.002 0.36,0 0.72,0 1.078,0 0.458,0.001 0.915,-0.002 1.372,-0.004 0.356,-0.002 0.711,-0.002 1.067,-0.002 0.168,0 0.337,0 0.504,-0.001 2.349,-0.016 4.302,0.672 6.01,2.317 0.835,0.883 1.913,2.319 1.913,3.587 -6.709,0 -13.418,0 -20.329,0 0.247,-1.735 1.314,-3.178 2.63,-4.304 1.657,-1.171 3.239,-1.593 5.238,-1.591 z"
       fill="#460d08"
       style="fill:#000080;stroke-width:0.12"
       id="path10" />
    <path
       d="m 366.4837,245.2804 c 0.68207,0.52024 1.17793,1.3671 1.32572,2.2088 0.0894,0.94441 -0.0665,1.86666 -0.64069,2.64037 -0.10789,0.12415 -0.218,0.24534 -0.3318,0.36431 -0.0517,0.0562 -0.10346,0.11233 -0.15667,0.17071 -0.6636,0.65251 -1.50529,0.92963 -2.42236,0.93924 -0.5838,-0.0103 -1.06413,-0.11676 -1.57403,-0.40275 -0.10345,-0.0562 -0.10345,-0.0562 -0.20839,-0.1138 -0.77593,-0.46703 -1.32351,-1.21414 -1.61023,-2.07135 -0.17662,-0.95181 -0.10863,-1.93169 0.40496,-2.76378 1.32499,-1.80163 3.34387,-2.18072 5.21349,-0.97175 z"
       fill="#460d08"
       style="fill:#000080;stroke-width:0.0886773"
       id="path11"
       sodipodi:nodetypes="ccccccccccc" />
    <path
       d="m 314.37869,231.98738 c 0.65222,0.53416 1.04428,1.2199 1.27019,2.0288 0.0976,1.15504 -0.13701,2.06158 -0.84971,2.98634 -0.63472,0.69157 -1.4509,1.06541 -2.3815,1.12662 -1.11569,0.0168 -1.84661,-0.23246 -2.69485,-0.97577 -0.77027,-0.82492 -1.00347,-1.69066 -0.98233,-2.80052 0.0707,-0.99326 0.56768,-1.69722 1.27164,-2.36255 1.29714,-1.11351 3.02715,-0.95173 4.36656,-0.003 z"
       fill="#460d08"
       style="fill:#000080;stroke-width:0.087448"
       id="path12" />
    <path
       d="m 375.59934,214.05 c 2.446,0 4.893,0 7.414,0 -0.198,0.75 -0.395,1.5 -0.598,2.272 -0.139,0.554 -0.139,0.554 -0.277,1.108 -0.147,0.584 -0.305,1.166 -0.463,1.747 -0.074,0.272 -0.147,0.544 -0.221,0.817 -0.038,0.141 -0.076,0.282 -0.115,0.428 -0.209,0.773 -0.415,1.547 -0.621,2.32 -0.038,0.144 -0.077,0.288 -0.116,0.436 -0.056,0.21 -0.056,0.21 -0.113,0.425 -0.037,0.137 -0.074,0.275 -0.113,0.417 -0.082,0.311 -0.16,0.623 -0.236,0.935 -0.021,0.082 -0.041,0.165 -0.062,0.25 -0.058,0.233 -0.114,0.465 -0.171,0.698 -0.04,0.114 -0.081,0.227 -0.123,0.344 -0.359,0.12 -0.359,0.12 -0.661,-0.011 -0.118,-0.067 -0.236,-0.134 -0.357,-0.203 -0.13,-0.073 -0.26,-0.146 -0.394,-0.222 -0.136,-0.078 -0.272,-0.155 -0.412,-0.237 -0.134,-0.075 -0.268,-0.15 -0.406,-0.228 -0.376,-0.214 -0.75,-0.427 -1.118,-0.653 -0.107,-0.059 -0.107,-0.059 -0.216,-0.118 -0.236,-0.144 -0.429,-0.281 -0.621,-0.48 -0.083,-0.372 -0.108,-0.619 -0.095,-0.99 -0.001,-0.147 -0.001,-0.147 -0.001,-0.298 0.001,-0.323 0.007,-0.645 0.014,-0.968 0.001,-0.224 0.003,-0.449 0.003,-0.674 0.004,-0.589 0.012,-1.179 0.021,-1.768 0.01,-0.708 0.014,-1.416 0.019,-2.123 0.008,-1.075 0.024,-2.15 0.039,-3.224 z"
       fill="#460d08"
       style="fill:#000080;stroke-width:0.12"
       id="path13" />
    <path
       d="m 390.90534,216.442 c -0.942,1.92 -2.079,3.763 -3.161,5.608 -0.445,0.76 -0.884,1.521 -1.323,2.284 -0.852,1.478 -1.71,2.952 -2.571,4.424 -0.416,-0.08 -0.735,-0.246 -1.102,-0.454 -0.119,-0.068 -0.238,-0.135 -0.361,-0.205 -0.124,-0.071 -0.248,-0.142 -0.376,-0.215 -0.123,-0.07 -0.246,-0.139 -0.373,-0.211 -0.592,-0.337 -1.175,-0.678 -1.734,-1.067 0.068,-0.599 0.265,-1.094 0.521,-1.633 0.041,-0.089 0.081,-0.176 0.123,-0.267 0.133,-0.287 0.268,-0.573 0.402,-0.858 0.185,-0.399 0.37,-0.797 0.555,-1.195 0.047,-0.1 0.093,-0.2 0.141,-0.303 0.477,-1.028 0.94,-2.061 1.398,-3.097 0.091,-0.207 0.183,-0.412 0.275,-0.619 0.05,-0.115 0.101,-0.23 0.154,-0.349 0.138,-0.288 0.138,-0.288 0.377,-0.647 0.309,-0.086 0.309,-0.086 0.703,-0.145 0.146,-0.024 0.291,-0.045 0.442,-0.069 0.117,-0.018 0.117,-0.018 0.236,-0.035 0.406,-0.06 0.813,-0.124 1.219,-0.189 0.083,-0.013 0.165,-0.026 0.25,-0.039 0.94,-0.15 1.872,-0.341 2.803,-0.537 0.115,-0.024 0.23,-0.048 0.349,-0.073 0.1,-0.021 0.2,-0.042 0.303,-0.064 0.272,-0.045 0.272,-0.045 0.75,-0.045 z"
       fill="#460d08"
       style="fill:#000080;stroke-width:0.12"
       id="path14" />
    <path
       d="m 309.13299,239.631 c 0.077,0.035 0.077,0.035 0.15474,0.07 0.60525,0.271 1.19068,0.507 1.82794,0.594 0.0732,0.011 0.14635,0.021 0.22106,0.031 0.0556,0.008 0.10977,0.015 0.16694,0.023 0.0107,0.133 0.0107,0.133 0.0221,0.268 0.0709,0.847 0.14178,1.695 0.21268,2.542 0.0374,0.436 0.0739,0.871 0.10976,1.306 0.0427,0.504 0.0846,1.008 0.1273,1.512 0.006,0.083 0.0137,0.165 0.0206,0.25 0.0991,1.165 0.20811,2.328 0.33845,3.488 0.0564,0.51 0.093,0.998 0.08,1.516 -0.81106,0.094 -1.58248,-0.317 -2.20754,-0.987 -0.29729,-0.384 -0.50463,-0.811 -0.70892,-1.285 -0.0412,-0.091 -0.0831,-0.181 -0.12501,-0.274 -1.01764,-2.504 -0.74322,-6.138 -0.33083,-8.815 0.0297,-0.078 0.0602,-0.157 0.0907,-0.239 z"
       fill="#460d08"
       style="fill:#000080;stroke-width:0.10477"
       id="path15" />
    <path
       d="m 374.66208,225.58337 c 0.472,0.207 0.901,0.474 1.337,0.747 0.258,0.155 0.515,0.31 0.773,0.465 0.128,0.078 0.256,0.157 0.388,0.237 0.532,0.321 1.071,0.628 1.612,0.934 0.204,0.117 0.408,0.233 0.611,0.349 0.158,0.09 0.158,0.09 0.318,0.181 0.658,0.376 1.315,0.752 1.971,1.13 0.128,0.073 0.255,0.146 0.387,0.221 2.198,1.265 2.198,1.265 2.528,1.595 0.069,0.751 0.069,0.751 -0.187,1.068 -0.417,0.182 -0.672,0.176 -1.128,0.128 -0.422,-0.19 -0.806,-0.434 -1.196,-0.681 -0.236,-0.144 -0.471,-0.287 -0.707,-0.431 -0.12,-0.074 -0.241,-0.147 -0.365,-0.224 -0.572,-0.345 -1.155,-0.671 -1.738,-0.996 -1.247,-0.7 -2.48,-1.422 -3.708,-2.155 -0.285,-0.169 -0.571,-0.338 -0.858,-0.505 -0.164,-0.098 -0.329,-0.195 -0.494,-0.292 -0.075,-0.044 -0.149,-0.087 -0.226,-0.132 -0.501,-0.297 -0.501,-0.297 -0.634,-0.563 -0.052,-0.62 -0.052,-0.62 0.12,-0.942 0.393,-0.222 0.764,-0.211 1.196,-0.134 z"
       fill="#460d08"
       style="fill:#000080;stroke-width:0.12"
       id="path16" />
  </g>
</svg>
