<?xml version="1.0" encoding="UTF-8" standalone="no"?>
<!-- Uploaded to: SVG Repo, www.svgrepo.com, Generator: SVG Repo Mixer Tools -->

<svg
   fill="#460d08"
   width="704"
   height="667.1875"
   viewBox="0 0 44 41.699219"
   version="1.1"
   id="svg1"
   sodipodi:docname="castle.svg"
   inkscape:version="1.4.2 (ebf0e940, 2025-05-08)"
   xmlns:inkscape="http://www.inkscape.org/namespaces/inkscape"
   xmlns:sodipodi="http://sodipodi.sourceforge.net/DTD/sodipodi-0.dtd"
   xmlns="http://www.w3.org/2000/svg"
   xmlns:svg="http://www.w3.org/2000/svg">
  <defs
     id="defs1" />
  <sodipodi:namedview
     id="namedview1"
     pagecolor="#ffffff"
     bordercolor="#000000"
     borderopacity="0.25"
     inkscape:showpageshadow="2"
     inkscape:pageopacity="0.0"
     inkscape:pagecheckerboard="0"
     inkscape:deskcolor="#d1d1d1"
     inkscape:zoom="0.06625"
     inkscape:cx="354.71698"
     inkscape:cy="316.98113"
     inkscape:window-width="896"
     inkscape:window-height="245"
     inkscape:window-x="0"
     inkscape:window-y="39"
     inkscape:window-maximized="0"
     inkscape:current-layer="svg1" />
  <path
     d="M 22,0 15.902344,8.699219 H 12 v 6 c 0,0.523438 0.191406,1.054688 0.566406,1.433594 0.378907,0.375 0.910157,0.566406 1.433594,0.566406 v 5 h -1 v -2 H 7 v 2 H 6 v -2 H 0 v 6 c 0,0.523438 0.191406,1.054688 0.570313,1.433594 0.375,0.375 0.90625,0.566406 1.429687,0.566406 v 14 h 15 v -6 c 0,-2.800781 2.199219,-5 5,-5 2.800781,0 5,2.199219 5,5 v 6 h 15 v -14 c 0.523438,0 1.054688,-0.191406 1.433594,-0.566406 C 43.808594,26.753907 44,26.222657 44,25.699219 v -6 h -6 v 2 h -1 v -2 h -6 v 2 h -1 v -5 c 0.523438,0 1.054688,-0.191406 1.433594,-0.566406 C 31.808594,15.753907 32,15.222657 32,14.699219 v -6 h -3.902344 z m -8,10.699219 h 2 v 2 h 5 v -2 h 2 v 2 h 5 v -2 h 2 v 4 H 14 Z m -12,11 h 2 v 2 h 5 v -2 h 2 v 2 h 5 v -2 h 2 v 4 H 2 Z m 24,0 h 2 v 2 h 5 v -2 h 2 v 2 h 5 v -2 h 2 v 4 H 26 Z m -17,9 c 0.601563,0 1,0.398438 1,1 v 3 H 8 v -3 c 0,-0.601562 0.398438,-1 1,-1 z m 25,0 c 0.601563,0 1,0.398438 1,1 v 3 h -2 v -3 c 0,-0.601562 0.398438,-1 1,-1 z"
     id="path1"
     style="fill:#000080" />
</svg>
