<?xml version="1.0" encoding="UTF-8" standalone="no"?>
<!-- Uploaded to: SVG Repo, www.svgrepo.com, Generator: SVG Repo Mixer Tools -->

<svg
   fill="#460d08"
   width="800px"
   height="800px"
   viewBox="0 0 50 50"
   version="1.1"
   id="svg1"
   sodipodi:docname="castle.svg"
   inkscape:version="1.4.2 (ebf0e940, 2025-05-08)"
   xmlns:inkscape="http://www.inkscape.org/namespaces/inkscape"
   xmlns:sodipodi="http://sodipodi.sourceforge.net/DTD/sodipodi-0.dtd"
   xmlns="http://www.w3.org/2000/svg"
   xmlns:svg="http://www.w3.org/2000/svg">
  <defs
     id="defs1" />
  <sodipodi:namedview
     id="namedview1"
     pagecolor="#ffffff"
     bordercolor="#000000"
     borderopacity="0.25"
     inkscape:showpageshadow="2"
     inkscape:pageopacity="0.0"
     inkscape:pagecheckerboard="0"
     inkscape:deskcolor="#d1d1d1"
     inkscape:zoom="0.06625"
     inkscape:cx="400"
     inkscape:cy="400"
     inkscape:window-width="896"
     inkscape:window-height="204"
     inkscape:window-x="0"
     inkscape:window-y="39"
     inkscape:window-maximized="0"
     inkscape:current-layer="svg1" />
  <path
     d="M25 4.300781L18.902344 13L15 13L15 19C15 19.523438 15.191406 20.054688 15.566406 20.433594C15.945313 20.808594 16.476563 21 17 21L17 26L16 26L16 24L10 24L10 26L9 26L9 24L3 24L3 30C3 30.523438 3.191406 31.054688 3.570313 31.433594C3.945313 31.808594 4.476563 32 5 32L5 46L20 46L20 40C20 37.199219 22.199219 35 25 35C27.800781 35 30 37.199219 30 40L30 46L45 46L45 32C45.523438 32 46.054688 31.808594 46.433594 31.433594C46.808594 31.054688 47 30.523438 47 30L47 24L41 24L41 26L40 26L40 24L34 24L34 26L33 26L33 21C33.523438 21 34.054688 20.808594 34.433594 20.433594C34.808594 20.054688 35 19.523438 35 19L35 13L31.097656 13 Z M 17 15L19 15L19 17L24 17L24 15L26 15L26 17L31 17L31 15L33 15L33 19L17 19 Z M 5 26L7 26L7 28L12 28L12 26L14 26L14 28L19 28L19 26L21 26L21 30L5 30 Z M 29 26L31 26L31 28L36 28L36 26L38 26L38 28L43 28L43 26L45 26L45 30L29 30 Z M 12 35C12.601563 35 13 35.398438 13 36L13 39L11 39L11 36C11 35.398438 11.398438 35 12 35 Z M 37 35C37.601563 35 38 35.398438 38 36L38 39L36 39L36 36C36 35.398438 36.398438 35 37 35Z"
     id="path1"
     style="fill:#000080" />
</svg>
