<?xml version="1.0" encoding="UTF-8" standalone="no"?>
<!-- Uploaded to: SVG Repo, www.svgrepo.com, Generator: SVG Repo Mixer Tools -->

<svg
   fill="#460d08"
   version="1.1"
   id="Layer_1"
   viewBox="0 0 512 512"
   xml:space="preserve"
   sodipodi:docname="chest.svg"
   inkscape:version="1.4.2 (ebf0e940, 2025-05-08)"
   xmlns:inkscape="http://www.inkscape.org/namespaces/inkscape"
   xmlns:sodipodi="http://sodipodi.sourceforge.net/DTD/sodipodi-0.dtd"
   xmlns="http://www.w3.org/2000/svg"
   xmlns:svg="http://www.w3.org/2000/svg"><defs
   id="defs14" /><sodipodi:namedview
   id="namedview14"
   pagecolor="#ffffff"
   bordercolor="#000000"
   borderopacity="0.25"
   inkscape:showpageshadow="2"
   inkscape:pageopacity="0.0"
   inkscape:pagecheckerboard="0"
   inkscape:deskcolor="#d1d1d1"
   inkscape:zoom="0.10351562"
   inkscape:cx="256"
   inkscape:cy="256"
   inkscape:window-width="896"
   inkscape:window-height="204"
   inkscape:window-x="0"
   inkscape:window-y="39"
   inkscape:window-maximized="0"
   inkscape:current-layer="Layer_1" />
<g
   id="g2"
   style="fill:#000080">
	<g
   id="g1"
   style="fill:#000080">
		<path
   d="M109.897,95.06c-41.708,0-78.062,23.355-96.675,57.673H271.9c9.17-22.783,24.151-42.621,43.102-57.673H109.897z"
   id="path1"
   style="fill:#000080" />
	</g>
</g>
<g
   id="g4"
   style="fill:#000080">
	<g
   id="g3"
   style="fill:#000080">
		<polygon
   points="196.92,271.197 196.92,312.878 64.892,312.878 64.892,271.197 0,271.197 0,328.87 261.812,328.87     261.812,271.197   "
   id="polygon2"
   style="fill:#000080" />
	</g>
</g>
<g
   id="g6"
   style="fill:#000080">
	<g
   id="g5"
   style="fill:#000080">
		<rect
   y="359.267"
   width="261.809"
   height="57.673"
   id="rect4"
   style="fill:#000080" />
	</g>
</g>
<g
   id="g8"
   style="fill:#000080">
	<g
   id="g7"
   style="fill:#000080">
		<path
   d="M2.18,183.129C0.753,190.186,0,197.484,0,204.956v35.846h64.892v-41.681h132.029v41.681h64.892v-35.846    c0-7.424,0.585-14.713,1.701-21.827H2.18z"
   id="path6"
   style="fill:#000080" />
	</g>
</g>
<g
   id="g10"
   style="fill:#000080">
	<g
   id="g9"
   style="fill:#000080">
		<rect
   x="292.204"
   y="271.2"
   width="219.792"
   height="145.737"
   id="rect8"
   style="fill:#000080" />
	</g>
</g>
<g
   id="g12"
   style="fill:#000080">
	<g
   id="g11"
   style="fill:#000080">
		<path
   d="M402.104,95.06c-60.597,0-109.897,49.299-109.897,109.896v35.846H512v-35.846C512,144.359,462.701,95.06,402.104,95.06z     M454.902,204.955c0-29.113-23.685-52.798-52.798-52.798v-30.396c45.873,0,83.194,37.321,83.194,83.194H454.902z"
   id="path10"
   style="fill:#000080" />
	</g>
</g>
<g
   id="g14"
   style="fill:#000080">
	<g
   id="g13"
   style="fill:#000080">
		<path
   d="M95.288,229.517v52.966h71.237v-52.966H95.288z M146.104,271.226h-30.396v-30.453h30.396V271.226z"
   id="path12"
   style="fill:#000080" />
	</g>
</g>
</svg>
