<?xml version="1.0" encoding="UTF-8" standalone="no"?>
<!-- Uploaded to: SVG Repo, www.svgrepo.com, Generator: SVG Repo Mixer Tools -->

<svg
   fill="#460d08"
   width="800px"
   height="800px"
   viewBox="0 0 36 36"
   version="1.1"
   preserveAspectRatio="xMidYMid meet"
   id="svg6"
   sodipodi:docname="colins.svg"
   inkscape:version="1.4.2 (ebf0e940, 2025-05-08)"
   xmlns:inkscape="http://www.inkscape.org/namespaces/inkscape"
   xmlns:sodipodi="http://sodipodi.sourceforge.net/DTD/sodipodi-0.dtd"
   xmlns="http://www.w3.org/2000/svg"
   xmlns:svg="http://www.w3.org/2000/svg">
  <defs
     id="defs6" />
  <sodipodi:namedview
     id="namedview6"
     pagecolor="#ffffff"
     bordercolor="#000000"
     borderopacity="0.25"
     inkscape:showpageshadow="2"
     inkscape:pageopacity="0.0"
     inkscape:pagecheckerboard="0"
     inkscape:deskcolor="#d1d1d1"
     inkscape:zoom="0.1818465"
     inkscape:cx="475.67592"
     inkscape:cy="896.36041"
     inkscape:window-width="1712"
     inkscape:window-height="971"
     inkscape:window-x="0"
     inkscape:window-y="39"
     inkscape:window-maximized="1"
     inkscape:current-layer="svg6" />
  <title
     id="title1">coin-bag-solid</title>
  <path
     d="M24.89,26h7.86c-.66-8.71-4.41-14.12-9.22-17.32L25.72,3.9a1,1,0,0,0-.91-1.4H11.1a1,1,0,0,0-.91,1.4l1.2,2.6H21.51l-.9,2H18.76A24.9,24.9,0,0,1,20,13.19a24.49,24.49,0,0,1,.32,3l-1.58,1.11a22.54,22.54,0,0,0-.32-3.86A21.74,21.74,0,0,0,17,8.5h-1a28.22,28.22,0,0,0-2.48,3.7,23.91,23.91,0,0,0-1.49,3.46l-1.37-.91a22.78,22.78,0,0,1,1.47-3.34A30.81,30.81,0,0,1,14.05,8.5H12.3l.08.17C7.08,12.2,3.05,18.4,3.05,28.75A1.65,1.65,0,0,0,4.61,30.5h8A2.67,2.67,0,0,1,14.21,26a2.67,2.67,0,0,1-.37-1.34,2.7,2.7,0,0,1,2.7-2.7h6a2.7,2.7,0,0,1,2.7,2.7A2.63,2.63,0,0,1,24.89,26Z"
     class="clr-i-solid clr-i-solid-path-1"
     id="path1"
     style="fill:#000080" />
  <path
     d="M21.6,28.5a1,1,0,0,0-1-1h-6a1,1,0,0,0,0,2h6A1,1,0,0,0,21.6,28.5Z"
     class="clr-i-solid clr-i-solid-path-2"
     id="path2"
     style="fill:#000080" />
  <path
     d="M22.54,23.5h-6a1,1,0,0,0,0,2h6a1,1,0,0,0,0-2Z"
     class="clr-i-solid clr-i-solid-path-3"
     id="path3"
     style="fill:#000080" />
  <path
     d="M22,31.5H16a1,1,0,0,0,0,2h6a1,1,0,0,0,0-2Z"
     class="clr-i-solid clr-i-solid-path-4"
     id="path4"
     style="fill:#000080" />
  <path
     d="M32.7,31.5h-7a1,1,0,0,0,0,2h7a1,1,0,0,0,0-2Z"
     class="clr-i-solid clr-i-solid-path-5"
     id="path5"
     style="fill:#000080" />
  <path
     d="M33.7,27.5h-7a1,1,0,0,0,0,2h7a1,1,0,0,0,0-2Z"
     class="clr-i-solid clr-i-solid-path-6"
     id="path6"
     style="fill:#000080" />
</svg>
