<?xml version="1.0" encoding="UTF-8" standalone="no"?>
<svg
   viewBox="166.5155 141.6647 138.03421 143.9935"
   width="138.03445"
   height="143.99367"
   preserveAspectRatio="none"
   version="1.1"
   id="svg4"
   sodipodi:docname="crown.svg"
   inkscape:version="1.4.2 (ebf0e940, 2025-05-08)"
   xmlns:inkscape="http://www.inkscape.org/namespaces/inkscape"
   xmlns:sodipodi="http://sodipodi.sourceforge.net/DTD/sodipodi-0.dtd"
   xmlns="http://www.w3.org/2000/svg"
   xmlns:svg="http://www.w3.org/2000/svg">
  <defs
     id="defs4" />
  <sodipodi:namedview
     id="namedview4"
     pagecolor="#ffffff"
     bordercolor="#000000"
     borderopacity="0.25"
     inkscape:showpageshadow="2"
     inkscape:pageopacity="0.0"
     inkscape:pagecheckerboard="0"
     inkscape:deskcolor="#d1d1d1"
     inkscape:zoom="3.1131701"
     inkscape:cx="33.888286"
     inkscape:cy="82.552508"
     inkscape:window-width="896"
     inkscape:window-height="245"
     inkscape:window-x="0"
     inkscape:window-y="39"
     inkscape:window-maximized="0"
     inkscape:current-layer="svg4" />
  <g
     id="g2"
     style="fill:#000080;fill-opacity:1"
     transform="matrix(0.16415338,0,0,0.16415338,166.51548,171.13881)">
    <path
       d="m 521.345,425.167 c -45.408,37.885 -151.069,54.844 -235.648,54.844 -84.572,0 -190.234,-16.955 -235.644,-54.838 -9.737,-8.125 -24.211,-6.812 -32.323,2.918 -8.118,9.734 -6.814,24.205 2.919,32.324 48.428,40.398 149.989,65.492 265.048,65.492 115.068,0 216.633,-25.098 265.052,-65.498 9.733,-8.123 11.037,-22.596 2.919,-32.324 -8.122,-9.733 -22.596,-11.038 -32.323,-2.918 z"
       id="path1"
       style="fill:#000080;fill-opacity:1" />
    <path
       d="m 563.597,174.442 c -5.4,-3.026 -12.078,-2.516 -16.934,1.3 -0.396,0.312 -40.074,30.964 -90.282,30.964 -65.176,0 -117.795,-50.937 -156.4,-151.4 -2.271,-5.912 -7.949,-9.81 -14.28,-9.81 -6.332,0 -12.011,3.898 -14.281,9.81 -38.602,100.46 -91.225,151.4 -156.397,151.4 -49.844,0 -89.909,-30.673 -90.279,-30.964 -4.869,-3.812 -11.542,-4.327 -16.938,-1.3 -5.389,3.029 -8.427,9.002 -7.699,15.141 l 23.647,199.42 c 0.453,3.848 2.354,7.375 5.306,9.879 46.484,39.344 144.827,63.787 256.643,63.787 111.812,0 210.151,-24.439 256.639,-63.787 2.956,-2.5 4.854,-6.031 5.307,-9.879 l 23.647,-199.42 c 0.728,-6.139 -2.314,-12.112 -7.699,-15.141 z m -268.31,237.228 -26.032,-39.268 -20.285,-30.6 46.316,-69.873 46.315,69.869 -20.284,30.6 z M 88.984,341.799 c 0,-15.092 10.79,-27.326 24.101,-27.326 13.311,0 24.101,12.234 24.101,27.326 0,15.092 -10.79,27.326 -24.101,27.326 -13.311,0 -24.101,-12.234 -24.101,-27.326 z m 384.719,27.407 c -13.348,0 -24.171,-12.268 -24.171,-27.402 0,-15.134 10.823,-27.402 24.171,-27.402 13.348,0 24.171,12.268 24.171,27.402 0,15.134 -10.823,27.402 -24.171,27.402 z"
       id="path2"
       style="fill:#000080;fill-opacity:1" />
  </g>
  <path
     style="baseline-shift:baseline;display:inline;overflow:visible;opacity:1;vector-effect:none;fill:#000080;fill-opacity:1;stroke-linecap:round;stroke-linejoin:round;enable-background:accumulate;stop-color:#000000;stop-opacity:1"
     d="m 282.95974,141.6647 c -3.782,0 -7.50996,0.9933 -10.79883,2.89648 -14.08931,8.13437 -14.08719,29.25015 0.002,37.38867 l 0.004,0.002 c 1.16498,0.67206 2.38607,1.03106 3.5957,1.45508 l -0.0952,99.75377 c 4.85744,3.11728 3.31813,2.43418 7.2925,2.43373 3.97437,4.5e-4 3.57784,0.20739 7.00681,-2.6242 l 0.19046,-99.73127 c 8.04629,-2.99425 14.39257,-10.44056 14.39257,-19.98438 0,-11.83796 -9.75187,-21.58984 -21.58984,-21.58984 z m 2.05315,6.61994 c 4.06623,0 12.4768,7.82394 12.4768,11.89018 0,4.39003 0.24353,4.82459 -3.48841,4.8118 -2.0853,-3.62782 -3.60247,-5.91762 -5.86077,-8.59394 -2.77357,-2.46834 -4.74997,-4.16854 -7.38039,-4.29519 z"
     id="primary"
     sodipodi:nodetypes="cccccccccscccscccc" />
</svg>
