<?xml version="1.0" encoding="UTF-8" standalone="no"?>
<!-- Uploaded to: SVG Repo, www.svgrepo.com, Generator: SVG Repo Mixer Tools -->

<svg
   width="637.5"
   height="729.87799"
   viewBox="0 0 408 467.12191"
   version="1.1"
   id="svg1"
   sodipodi:docname="d20.svg"
   inkscape:version="1.4.2 (ebf0e940, 2025-05-08)"
   xmlns:inkscape="http://www.inkscape.org/namespaces/inkscape"
   xmlns:sodipodi="http://sodipodi.sourceforge.net/DTD/sodipodi-0.dtd"
   xmlns="http://www.w3.org/2000/svg"
   xmlns:svg="http://www.w3.org/2000/svg">
  <defs
     id="defs1">
    <inkscape:path-effect
       effect="fillet_chamfer"
       id="path-effect1"
       is_visible="true"
       lpeversion="1"
       nodesatellites_param="F,0,1,1,0,4.7982571,0,1 @ F,0,1,1,0,4.7982571,0,1 @ F,0,1,1,0,4.7982571,0,1 | F,0,1,1,0,4.7982571,0,1 @ F,0,1,1,0,4.7982571,0,1 @ F,0,1,1,0,4.7982571,0,1 | F,0,1,1,0,4.7982571,0,1 @ F,0,1,1,0,4.7982571,0,1 @ F,0,1,1,0,4.7982571,0,1 @ F,0,1,1,0,4.7982571,0,1 @ F,0,1,1,0,4.7982571,0,1 @ F,0,1,1,0,4.7982571,0,1 @ F,0,1,1,0,4.7982571,0,1 @ F,0,1,1,0,4.7982571,0,1 @ F,0,1,1,0,4.7982571,0,1 @ F,0,1,1,0,4.7982571,0,1 @ F,0,1,1,0,4.7982571,0,1 @ F,0,1,1,0,4.7982571,0,1 @ F,0,1,1,0,4.7982571,0,1 @ F,0,1,1,0,4.7982571,0,1 @ F,0,1,1,0,4.7982571,0,1 @ F,0,1,1,0,4.7982571,0,1 @ F,0,1,1,0,4.7982571,0,1 @ F,0,1,1,0,4.7982571,0,1 @ F,0,1,1,0,4.7982571,0,1 @ F,0,1,1,0,4.7982571,0,1 @ F,0,1,1,0,4.7982571,0,1 @ F,0,1,1,0,4.7982571,0,1 @ F,0,1,1,0,4.7982571,0,1 @ F,0,1,1,0,4.7982571,0,1 @ F,0,1,1,0,4.7982571,0,1 @ F,0,1,1,0,4.7982571,0,1 | F,0,1,1,0,4.7982571,0,1 @ F,0,1,1,0,4.7982571,0,1 @ F,0,1,1,0,4.7982571,0,1 @ F,0,1,1,0,4.7982571,0,1 @ F,0,1,1,0,4.7982571,0,1 @ F,0,1,1,0,4.7982571,0,1 @ F,0,1,1,0,4.7982571,0,1 @ F,0,1,1,0,4.7982571,0,1 @ F,0,1,1,0,4.7982571,0,1 @ F,0,1,1,0,4.7982571,0,1 @ F,0,1,1,0,4.7982571,0,1 | F,0,1,1,0,4.7982571,0,1 @ F,0,1,1,0,4.7982571,0,1 @ F,0,1,1,0,4.7982571,0,1 @ F,0,1,1,0,4.7982571,0,1 @ F,0,1,1,0,4.7982571,0,1 @ F,0,1,1,0,4.7982571,0,1 @ F,0,1,1,0,4.7982571,0,1 @ F,0,1,1,0,4.7982571,0,1 @ F,0,1,1,0,4.7982571,0,1 | F,0,1,1,0,4.7982571,0,1 @ F,0,1,1,0,4.7982571,0,1 @ F,0,1,1,0,4.7982571,0,1 @ F,0,1,1,0,4.7982571,0,1 @ F,0,1,1,0,4.7982571,0,1 @ F,0,1,1,0,4.7982571,0,1 @ F,0,1,1,0,4.7982571,0,1 @ F,0,1,1,0,4.7982571,0,1 @ F,0,1,1,0,4.7982571,0,1 | F,0,1,1,0,4.7982571,0,1 @ F,0,1,1,0,4.7982571,0,1 @ F,0,1,1,0,4.7982571,0,1 | F,0,1,1,0,4.7982571,0,1 @ F,0,1,1,0,4.7982571,0,1 @ F,0,1,1,0,4.7982571,0,1 | F,0,0,1,0,4.7982571,0,1 @ F,0,1,1,0,4.7982571,0,1 @ F,0,1,1,0,4.7982571,0,1 | F,0,1,1,0,4.7982571,0,1 @ F,0,1,1,0,4.7982571,0,1 @ F,0,1,1,0,4.7982571,0,1 @ F,0,1,1,0,4.7982571,0,1 @ F,0,1,1,0,4.7982571,0,1 @ F,0,1,1,0,4.7982571,0,1 @ F,0,1,1,0,4.7982571,0,1 @ F,0,1,1,0,4.7982571,0,1 @ F,0,1,1,0,4.7982571,0,1 @ F,0,1,1,0,4.7982571,0,1 @ F,0,1,1,0,4.7982571,0,1 @ F,0,1,1,0,4.7982571,0,1 @ F,0,1,1,0,4.7982571,0,1 @ F,0,1,1,0,4.7982571,0,1 | F,0,1,1,0,4.7982571,0,1 @ F,0,1,1,0,4.7982571,0,1 @ F,0,1,1,0,4.7982571,0,1 @ F,0,1,1,0,4.7982571,0,1 @ F,0,1,1,0,4.7982571,0,1 @ F,0,1,1,0,4.7982571,0,1 @ F,0,1,1,0,4.7982571,0,1 @ F,0,1,1,0,4.7982571,0,1 @ F,0,1,1,0,4.7982571,0,1 @ F,0,1,1,0,4.7982571,0,1 @ F,0,1,1,0,4.7982571,0,1 @ F,0,1,1,0,4.7982571,0,1 @ F,0,1,1,0,4.7982571,0,1 @ F,0,1,1,0,4.7982571,0,1 @ F,0,1,1,0,4.7982571,0,1 @ F,0,1,1,0,4.7982571,0,1 @ F,0,1,1,0,4.7982571,0,1 @ F,0,1,1,0,4.7982571,0,1 @ F,0,1,1,0,4.7982571,0,1 @ F,0,1,1,0,4.7982571,0,1 @ F,0,1,1,0,4.7982571,0,1 @ F,0,1,1,0,4.7982571,0,1 | F,0,1,1,0,4.7982571,0,1 @ F,0,1,1,0,4.7982571,0,1 @ F,0,1,1,0,4.7982571,0,1 | F,0,1,1,0,4.7982571,0,1 @ F,0,1,1,0,4.7982571,0,1 @ F,0,1,1,0,4.7982571,0,1 | F,0,1,1,0,4.7982571,0,1 @ F,0,1,1,0,4.7982571,0,1 @ F,0,1,1,0,4.7982571,0,1 @ F,0,1,1,0,4.7982571,0,1 | F,0,1,1,0,4.7982571,0,1 @ F,0,1,1,0,4.7982571,0,1 @ F,0,1,1,0,4.7982571,0,1 @ F,0,1,1,0,4.7982571,0,1 @ F,0,1,1,0,4.7982571,0,1 @ F,0,1,1,0,4.7982571,0,1 @ F,0,1,1,0,4.7982571,0,1 @ F,0,1,1,0,4.7982571,0,1 @ F,0,1,1,0,4.7982571,0,1 | F,0,1,1,0,4.7982571,0,1 @ F,0,1,1,0,4.7982571,0,1 @ F,0,1,1,0,4.7982571,0,1 @ F,0,1,1,0,4.7982571,0,1 @ F,0,1,1,0,4.7982571,0,1 @ F,0,1,1,0,4.7982571,0,1 @ F,0,1,1,0,4.7982571,0,1 @ F,0,1,1,0,4.7982571,0,1 @ F,0,1,1,0,4.7982571,0,1 | F,0,1,1,0,4.7982571,0,1 @ F,0,1,1,0,4.7982571,0,1 @ F,0,1,1,0,4.7982571,0,1 @ F,0,1,1,0,4.7982571,0,1 @ F,0,1,1,0,4.7982571,0,1 @ F,0,1,1,0,4.7982571,0,1 @ F,0,1,1,0,4.7982571,0,1 @ F,0,1,1,0,4.7982571,0,1 @ F,0,1,1,0,4.7982571,0,1 @ F,0,1,1,0,4.7982571,0,1 | F,0,1,1,0,4.7982571,0,1 @ F,0,1,1,0,4.7982571,0,1 @ F,0,1,1,0,4.7982571,0,1 @ F,0,1,1,0,4.7982571,0,1 @ F,0,1,1,0,4.7982571,0,1 @ F,0,1,1,0,4.7982571,0,1 | F,0,1,1,0,4.7982571,0,1 @ F,0,1,1,0,4.7982571,0,1 @ F,0,1,1,0,4.7982571,0,1 @ F,0,1,1,0,4.7982571,0,1 | F,0,1,1,0,4.7982571,0,1 @ F,0,1,1,0,4.7982571,0,1 @ F,0,1,1,0,4.7982571,0,1 @ F,0,1,1,0,4.7982571,0,1 @ F,0,1,1,0,4.7982571,0,1 @ F,0,1,1,0,4.7982571,0,1 @ F,0,1,1,0,4.7982571,0,1 @ F,0,1,1,0,4.7982571,0,1 @ F,0,1,1,0,4.7982571,0,1 @ F,0,1,1,0,4.7982571,0,1 @ F,0,1,1,0,4.7982571,0,1 | F,0,1,1,0,4.7982571,0,1 @ F,0,1,1,0,4.7982571,0,1 @ F,0,1,1,0,4.7982571,0,1 @ F,0,1,1,0,4.7982571,0,1 @ F,0,1,1,0,4.7982571,0,1 | F,0,1,1,0,4.7982571,0,1 @ F,0,1,1,0,4.7982571,0,1 @ F,0,1,1,0,4.7982571,0,1 @ F,0,1,1,0,4.7982571,0,1 | F,0,1,1,0,4.7982571,0,1 @ F,0,1,1,0,4.7982571,0,1 @ F,0,1,1,0,4.7982571,0,1 | F,0,1,1,0,4.7982571,0,1 @ F,0,1,1,0,4.7982571,0,1 @ F,0,1,1,0,4.7982571,0,1 @ F,0,1,1,0,4.7982571,0,1 @ F,0,1,1,0,4.7982571,0,1 @ F,0,1,1,0,4.7982571,0,1 @ F,0,1,1,0,4.7982571,0,1 @ F,0,1,1,0,4.7982571,0,1 @ F,0,1,1,0,4.7982571,0,1 @ F,0,1,1,0,4.7982571,0,1 | F,0,1,1,0,4.7982571,0,1 @ F,0,1,1,0,4.7982571,0,1 @ F,0,1,1,0,4.7982571,0,1 @ F,0,1,1,0,4.7982571,0,1 @ F,0,1,1,0,4.7982571,0,1 @ F,0,1,1,0,4.7982571,0,1 @ F,0,1,1,0,4.7982571,0,1 @ F,0,1,1,0,4.7982571,0,1 @ F,0,1,1,0,4.7982571,0,1 @ F,0,1,1,0,4.7982571,0,1 @ F,0,1,1,0,4.7982571,0,1 @ F,0,1,1,0,4.7982571,0,1 @ F,0,1,1,0,4.7982571,0,1 @ F,0,1,1,0,4.7982571,0,1 @ F,0,1,1,0,4.7982571,0,1 @ F,0,1,1,0,4.7982571,0,1 @ F,0,1,1,0,4.7982571,0,1 @ F,0,1,1,0,4.7982571,0,1 @ F,0,1,1,0,4.7982571,0,1 | F,0,1,1,0,4.7982571,0,1 @ F,0,1,1,0,4.7982571,0,1 @ F,0,1,1,0,4.7982571,0,1 @ F,0,1,1,0,4.7982571,0,1 @ F,0,1,1,0,4.7982571,0,1 @ F,0,1,1,0,4.7982571,0,1 @ F,0,1,1,0,4.7982571,0,1 @ F,0,1,1,0,4.7982571,0,1 | F,0,1,1,0,4.7982571,0,1 @ F,0,1,1,0,4.7982571,0,1 @ F,0,1,1,0,4.7982571,0,1 @ F,0,1,1,0,4.7982571,0,1 @ F,0,1,1,0,4.7982571,0,1 @ F,0,1,1,0,4.7982571,0,1 @ F,0,1,1,0,4.7982571,0,1 @ F,0,1,1,0,4.7982571,0,1 @ F,0,1,1,0,4.7982571,0,1 @ F,0,1,1,0,4.7982571,0,1 @ F,0,1,1,0,4.7982571,0,1 @ F,0,1,1,0,4.7982571,0,1 @ F,0,1,1,0,4.7982571,0,1 @ F,0,1,1,0,4.7982571,0,1 @ F,0,1,1,0,4.7982571,0,1 @ F,0,1,1,0,4.7982571,0,1 @ F,0,1,1,0,4.7982571,0,1 @ F,0,1,1,0,4.7982571,0,1 @ F,0,1,1,0,4.7982571,0,1 @ F,0,1,1,0,4.7982571,0,1 @ F,0,1,1,0,4.7982571,0,1 @ F,0,1,1,0,4.7982571,0,1 | F,0,1,1,0,4.7982571,0,1 @ F,0,1,1,0,4.7982571,0,1 @ F,0,1,1,0,4.7982571,0,1 @ F,0,1,1,0,4.7982571,0,1 | F,0,1,1,0,4.7982571,0,1 @ F,0,1,1,0,4.7982571,0,1 @ F,0,1,1,0,4.7982571,0,1 @ F,0,1,1,0,4.7982571,0,1 @ F,0,1,1,0,4.7982571,0,1 @ F,0,1,1,0,4.7982571,0,1"
       radius="0"
       unit="px"
       method="auto"
       mode="F"
       chamfer_steps="1"
       flexible="false"
       use_knot_distance="true"
       apply_no_radius="true"
       apply_with_radius="true"
       only_selected="false"
       hide_knots="false" />
  </defs>
  <sodipodi:namedview
     id="namedview1"
     pagecolor="#ffffff"
     bordercolor="#000000"
     borderopacity="0.25"
     inkscape:showpageshadow="2"
     inkscape:pageopacity="0.0"
     inkscape:pagecheckerboard="0"
     inkscape:deskcolor="#d1d1d1"
     inkscape:zoom="1.2249147"
     inkscape:cx="394.72136"
     inkscape:cy="442.47979"
     inkscape:window-width="1712"
     inkscape:window-height="971"
     inkscape:window-x="0"
     inkscape:window-y="39"
     inkscape:window-maximized="1"
     inkscape:current-layer="svg1" />
  <path
     fill="#460d08"
     d="M 191.95502,2.5809723 24.044979,109.71903 a 1.3443828,1.3443828 73.111236 0 0 0.75216,2.4774 L 191.20286,108.60357 A 4.9029741,4.9029741 134.38156 0 0 196,103.70174 L 196,4.7982571 A 2.6301999,2.6301999 28.729674 0 0 191.95502,2.5809723 Z M 212,4.7982571 V 103.70174 a 4.9031548,4.9031548 45.619494 0 0 4.79714,4.90201 l 166.10572,3.5925 a 1.34629,1.34629 106.91199 0 0 0.75416,-2.48035 L 216.04298,2.5841018 A 2.6277859,2.6277859 151.2925 0 0 212,4.7982571 Z m 47.84453,45.8221439 c 2.51187,0.607537 6.51188,2.146252 8.73974,3.573594 0.74822,0.479368 3.11615,2.190081 4.71087,4.296914 0.17275,0.228231 1.6779,2.165787 2.43754,4.690962 0.32338,1.075005 2.20276,0.666821 4.61919,-0.408254 2.17042,-0.965618 6.18677,-1.958753 8.82011,-1.759175 0.56936,0.04315 1.14502,0.113573 1.72589,0.211595 2.6079,0.440084 6.63436,2.066888 8.93024,3.385705 0.92467,0.531155 1.78101,1.094474 2.56619,1.689957 2.10474,1.59624 4.76981,5.058761 5.87515,7.461711 0.0661,0.143684 0.13027,0.287626 0.19255,0.431825 1.04783,2.426441 1.75992,6.750533 1.46525,9.375066 -0.0143,0.126973 -0.16752,2.431186 -1.19707,4.858915 -0.0166,0.03914 -0.58061,2.258209 -2.26066,4.287723 -0.0382,0.0461 -1.25999,1.957227 -3.37451,3.540423 -0.10684,0.07999 -1.87258,1.554698 -4.2979,2.602725 -0.12661,0.05471 -0.25419,0.10819 -0.38273,0.160441 -2.44995,0.995832 -6.76801,1.666822 -9.39694,1.402252 -0.95279,-0.0959 -1.93368,-0.25923 -2.94268,-0.49003 -2.58092,-0.590373 -6.62312,-2.169356 -8.84095,-3.612026 -0.50967,-0.331532 -0.99414,-0.679172 -1.45343,-1.04332 -2.06884,-1.640294 -4.46865,-5.290946 -5.46608,-7.742842 -0.89679,-2.204517 -2.92824,-2.729188 -5.42629,-1.878886 -1.44521,0.491926 -4.85388,1.074895 -7.46225,0.688385 -0.43767,-0.06485 -0.8845,-0.146599 -1.34086,-0.244855 -2.58815,-0.557232 -6.60162,-2.17594 -8.89604,-3.498308 -1.07105,-0.617292 -3.7271,-2.391563 -5.46434,-4.385002 -0.41809,-0.479752 -2.1865,-2.551284 -3.18074,-4.997106 -0.90995,-2.238471 -1.25651,-6.422998 -0.82151,-9.030914 0.31625,-1.895999 1.72562,-5.174942 2.97773,-7.287876 3.1,-3.26 3.1,-3.26 3.1,-3.26 6.47875,-3.250277 9.75235,-3.716428 11.3,-3.67 z m -99.20273,5.707952 c 1.904,0.887898 3.53888,2.319715 4.28394,4.260747 0.93248,2.429262 -0.97879,6.598486 -2.6184,8.677507 -2.93365,3.719858 -6.62951,6.780003 -10.89337,8.962472 -2.3569,1.206392 -6.44214,2.585942 -8.99304,3.302778 -4.28926,1.205338 -8.59034,1.952826 -12.75047,1.516795 -2.62924,-0.275576 -6.36058,-2.385932 -8.61202,-3.781632 -2.33414,-1.446963 -5.11052,-2.841664 -7.33993,-3.003624 -2.4191,-0.175739 -3.88635,4.478543 -4.0339,7.124377 -0.46644,8.364091 -0.24294,8.895198 -6.21898,11.262091 C 101.00282,95.625294 99,94.251747 99,91.601743 V 76.798257 c 0,-2.650004 1.99684,-5.609211 4.54942,-6.316906 7.26446,-2.014046 14.88058,-2.13918 22.13732,0.726717 2.46246,0.972495 6.23365,3.157103 8.8203,3.691978 5.62777,1.163726 11.82944,-0.337421 16.23725,-3.898348 2.05412,-1.659454 3.6629,-6.516989 1.44388,-7.528513 -1.43489,-0.654088 -3.49886,-0.626303 -5.51389,-0.33701 -2.62068,0.376242 -5.89438,-1.302906 -4.72773,-3.598682 1.25339,-2.466453 4.84456,-3.367819 8.27617,-3.799581 C 152.85147,55.407165 155.44727,55.26 156,55.26 Z M 253.7,60.08 c -4.76857,3.602957 -6.17114,6.8508 -5.49724,9.363294 0.34389,1.282056 2.12366,4.148573 4.31572,5.60102 1.38547,0.918002 4.69688,2.331752 7.33178,2.454914 1.85862,0.08687 5.75221,-0.764891 7.37535,-2.793729 0.83181,-1.039732 2.24318,-4.288695 1.56637,-6.801967 -0.36741,-1.364332 -2.27901,-4.216254 -4.46951,-5.674843 -1.56333,-1.040969 -5.06151,-2.498068 -7.69471,-2.508828 -0.0706,-2.88e-4 -1.40503,0.02514 -2.92776,0.360139 z m 28.5,10.44 c -4.95831,4.041902 -6.3761,7.509701 -5.96852,10.095388 0.26169,1.660063 1.90061,4.949022 3.95612,6.582583 0.0173,0.01375 0.0346,0.02746 0.0521,0.04116 2.07662,1.633138 6.19764,3.235934 8.83378,3.355157 2.1773,0.09847 6.22193,-0.933009 7.93457,-2.905298 1.29316,-1.489229 2.81681,-5.179709 2.5107,-7.786172 -0.2274,-1.936224 -2.30443,-5.264931 -4.38453,-6.882892 -1.71946,-1.33744 -5.44325,-2.856848 -8.0731,-3.104017 -0.91374,-0.08588 -3.17527,-0.03651 -4.86108,0.604095 z m -96.9971,54.18518 -177.4057958,3.88964 a 3.4091818,3.4091818 124.13794 0 0 -3.119221,4.60051 L 73.322117,317.10467 a 2.2754366,2.2754366 4.9032044 0 0 4.096893,0.35146 L 187.58099,128.74387 a 2.6854738,2.6854738 59.50925 0 0 -2.37809,-4.03869 z m 35.22238,4.03503 110.54944,188.71958 a 2.2691746,2.2691746 174.94903 0 0 4.08677,-0.3612 l 67.87702,-183.89718 a 3.4225285,3.4225285 55.758985 0 0 -3.13561,-4.60681 l -177.0058,-3.8892 a 2.6805609,2.6805609 120.44875 0 0 -2.37182,4.03481 z M 201.57895,136.24268 89.421047,328.15732 A 2.753402,2.753402 60.15134 0 0 91.798257,332.3 H 316.30174 a 2.7522149,2.7522149 119.838 0 0 2.37567,-4.14178 L 206.42259,136.24178 a 2.8053745,2.8053745 179.98934 0 0 -4.84364,9e-4 z m 120.9965,16.63006 15.2491,33.75452 a 4.7722168,4.7722168 20.532331 0 0 6.33738,2.37352 4.0072637,4.0072637 32.750994 0 1 4.79125,3.08196 l 0.19364,0.43452 a 4.818486,4.818486 110.85923 0 1 -2.4213,6.35434 3.9997646,3.9997646 97.68784 0 0 -0.75648,5.60403 l 2.36192,5.24874 a 4.8059312,4.8059312 110.72647 0 1 -2.40344,6.35166 l -1.65504,0.74794 a 4.7905952,4.7905952 20.726473 0 1 -6.34152,-2.3996 l -2.36192,-5.24874 a 4.7969362,4.7969362 20.764367 0 0 -6.34413,-2.40539 l -21.44982,9.65952 a 4.7900588,4.7900588 20.805469 0 1 -6.33785,-2.40821 c -1.06992,-2.38677 -1.61365,-6.4453 -1.2046,-9.06354 1.48716,-9.51904 3.97158,-24.94269 7.40335,-46.22103 0.42193,-2.61616 1.56989,-5.09515 2.56401,-5.53698 l 0.8,-0.3 3.1,-1.5 a 4.3012273,4.3012273 39.941387 0 1 8.47545,1.47274 z M 96,160.6 c 6.48961,0.94568 9.80266,2.45259 11.93447,4.01931 2.99296,2.19959 5.10072,4.96339 6.37056,8.24412 0.95452,2.4661 1.49931,6.78109 1.38162,9.42512 -0.21087,4.73734 -1.52194,10.05539 -3.93321,15.92953 -1.00618,2.45117 -2.87476,6.32492 -4.15928,8.64241 -3.05369,5.50936 -6.33615,9.87799 -9.822894,13.08143 -1.949293,1.79091 -5.575097,4.19083 -8.070831,5.06457 -3.314389,1.16035 -6.729526,1.31189 -10.276676,0.47026 -2.574343,-0.61082 -6.518303,-2.44179 -8.657447,-3.99946 -2.004629,-1.45972 -3.568661,-3.13329 -4.70009,-5.03672 -1.348601,-2.26878 -2.311048,-6.54059 -2.453339,-9.18363 -0.07905,-1.46829 -0.01558,-2.86003 0.190397,-4.18402 0.405946,-2.60934 3.349621,-3.67784 5.758647,-2.5737 l 0.876146,0.40156 c 2.409026,1.10414 3.367199,4.03358 3.437117,6.65325 0.02433,0.91136 0.376882,4.06109 2.292326,5.80386 1.380286,1.25584 4.859767,2.90715 7.485367,2.82816 2.594195,-0.078 6.533763,-2.15338 8.360215,-4.05176 1.114777,-1.15868 2.246624,-2.60424 3.39978,-4.33243 1.470475,-2.20375 3.270254,-5.56813 4.187122,-7.40186 -4.940508,2.42798 -7.632332,3.26412 -10.253072,2.99787 -0.328018,-0.0333 -0.658323,-0.0786 -0.991004,-0.13596 -2.604169,-0.44865 -6.577127,-2.32478 -8.58049,-4.04661 -1.2362,-1.06247 -2.333717,-2.31254 -3.288278,-3.75447 -1.460113,-2.2056 -3.09846,-6.26945 -3.348405,-8.89739 -0.241516,-2.53931 0.09573,-5.23854 0.99121,-8.10795 0.788793,-2.52754 1.81481,-4.50026 1.870039,-4.55549 3.214403,-5.22666 5.365283,-7.70107 7.48282,-9.28381 0.709798,-0.53053 3.138671,-2.11572 5.637675,-2.98182 0.28365,-0.0983 0.568795,-0.18996 0.855436,-0.27482 C 92.509748,160.60936 95.282024,160.6 96,160.6 Z m -96,9.89826 v 163.60348 a 4.3773621,4.3773621 42.373625 0 0 4.778107,4.35898 l 52.443786,-4.82144 a 3.6778923,3.6778923 122.21763 0 0 3.112478,-4.93916 L 1.6656286,170.19988 A 0.85953895,0.85953895 169.844 0 0 0,170.49826 Z m 406.33673,-0.2975 -58.57346,158.49848 a 3.6804541,3.6804541 57.771546 0 0 3.11477,4.94074 l 52.34392,4.82004 A 4.3767147,4.3767147 137.63059 0 0 408,334.10174 V 170.49826 a 0.85823861,0.85823861 10.140952 0 0 -1.66327,-0.2975 z m -91.01067,0.83467 c -1.28363,7.91224 -2.80487,17.51632 -4.64557,28.73035 -0.42922,2.61494 1.1793,3.85432 3.59681,2.7689 l 10.8454,-4.86936 a 4.7620955,4.7620955 110.60418 0 0 2.37892,-6.32763 l -4.20324,-9.17538 a 1954.6329,1954.6329 65.528108 0 1 -3.97532,-8.73438 l -1.24612,-2.75586 c -1.09184,-2.41463 -2.32651,-2.25245 -2.75088,0.36336 z M 92.1,171.5 c -5.692681,4.52249 -7.557578,8.44009 -7.983192,11.04707 -0.01648,0.10092 -0.03171,0.20168 -0.04569,0.30229 -0.362048,2.60495 0.850729,6.98347 2.637836,8.90829 1.435025,1.5456 5.121733,3.32139 7.743784,3.2087 2.188806,-0.0941 5.894576,-1.85038 7.724856,-3.74581 0.0819,-0.0848 0.16307,-0.171 0.24353,-0.25857 1.78704,-1.94509 3.73318,-5.92902 3.98329,-8.55308 0.23159,-2.42979 -0.73466,-6.67096 -2.47153,-8.6394 C 102.46822,172.10956 98.838217,170.40001 96.4,170.4 Z m 112.29826,46.6 6.00348,0 a 4.7982571,4.7982571 45 0 1 4.79826,4.79826 v 74.60348 A 4.7982571,4.7982571 135 0 1 210.40174,302.3 h -6.00348 A 4.7982571,4.7982571 45 0 1 199.6,297.50174 v -60.60348 c 0,-2.65001 -1.79092,-3.61159 -4.02335,-2.18377 -4.35944,2.78822 -8.04238,4.98292 -11.03302,6.55254 -2.34528,1.2309 -6.30673,2.90546 -8.72833,3.98173 A 2.616108,2.616108 64.114917 0 1 173.9,241.30174 v -4.40348 a 7.3833756,7.3833756 123.01876 0 1 4.3847,-6.74702 c 1.05782,-0.47014 3.88249,-1.72038 6.22652,-2.95535 2.99513,-1.57801 6.68701,-3.72027 11.0597,-6.49053 2.23848,-1.41816 6.17733,-2.60536 8.82734,-2.60536 z M 401.8,224.3 c 4.07162,3.94551 4.46686,5.12604 4.70141,6.33683 0.50029,2.58262 -0.0104,6.91142 -0.007,9.56141 0.0208,15.7072 0.15614,32.41353 -7.23557,46.38438 -1.23865,2.34114 -3.86915,5.70145 -6.15896,6.61738 -3.77372,-6.24954 -3.10533,-9.12751 -1.6861,-11.68586 1.28144,-2.30995 4.43285,-0.80806 5.58357,-2.1335 0.62843,-0.72383 1.28432,-1.8014 1.88407,-2.92979 1.24323,-2.33903 2.71313,-6.39495 3.17843,-9.00019 0.39765,-2.22652 0.66861,-4.65165 0.55017,-6.168 -0.11955,-1.53044 -2.68198,2.90147 -3.98376,5.15625 -1.02448,1.77448 -2.51245,3.46496 -3.97542,4.36089 -1.94476,1.19099 -4.78785,-2.82999 -5.31238,-5.42551 -2.33894,-11.57369 0.99106,-23.88549 6.09056,-34.59575 1.1391,-2.39239 3.50166,-6.2811 5.87086,-6.47854 z M 10,228.8 v 56.30174 c 0,2.65001 -1.6333072,3.28029 -2.7289875,0.88308 -2.3984788,-5.24754 -1.2846772,-11.59145 -1.1186252,-17.6937 0.072013,-2.64642 -0.4226147,-6.93408 -0.3491981,-9.58028 0.1279981,-4.6135 0.9159326,-9.39807 0.3940757,-13.7825 -0.31206,-2.62179 -3.2342827,-5.77631 -4.2872142,-8.13147 -0.93010242,-2.08041 -1.45407197,-4.6648 -1.57190859,-6.67905 -0.0973056,-1.6633 4.32466179,-0.2409 5.40831289,-2.02448 C 6.7981714,226.3623 9.1835097,226.67712 10,228.8 Z m 386.1376,10.57482 c -0.021,0.0691 -0.63501,2.19166 -1.18413,4.78378 -0.69302,3.27144 -1.13357,6.74628 -0.76034,10.01632 0.29937,2.62286 3.38841,3.71391 4.69536,1.46805 1.10061,-1.89128 1.69338,-4.29158 2.16337,-6.64017 0.51992,-2.59803 1.64956,-6.92183 0.91781,-9.4253 -0.0312,-0.10666 -0.0641,-0.21233 -0.0985,-0.31682 -0.78953,-2.39212 -5.0066,-2.27271 -5.73353,0.11414 z M 27.03723,250.09917 c 1.01829,1.21569 1.938915,2.78679 2.761875,4.33788 1.241843,2.34058 2.73642,6.34345 3.426104,8.90212 0.958666,3.55657 1.61007,5.8321 1.964328,7.4624 0.551446,2.53776 -2.068242,3.48621 -3.546149,1.3019 -0.217387,-0.3213 -0.406434,-0.63676 -0.571643,-0.94466 -1.247714,-2.32542 -2.005063,-6.63836 -3.024692,-9.0836 -0.931576,-2.23407 -3.731775,-2.3024 -4.40181,0.21812 -0.375256,1.41163 -0.53924,2.96775 -0.608167,4.50934 -0.118347,2.64693 1.734623,2.9858 3.578017,3.89915 0.214282,0.10617 1.442246,2.07065 2.595438,4.45619 5.078745,10.50609 8.385939,23.0129 6.048586,34.6157 C 34.736196,312.36953 33.104578,314.89248 32,315.5 21.935671,307.20137 20.233059,298.33612 18.833129,290.22483 c -0.450651,-2.6111 -1.015314,-6.86574 -1.167205,-9.51133 -0.523817,-9.12366 -0.356771,-18.26663 1.313908,-27.22572 C 19.46555,250.88309 21.270179,247.90001 23,247.9 Z m 356.00332,6.75243 c 1.16793,8.92558 -0.62385,30.39398 -0.98068,46.05098 -0.0604,2.64906 -1.23911,6.59308 -2.69377,8.80813 A 1.4355625,1.4355625 50.056474 0 1 377.6,309.60174 v -32.70348 c 0,-2.65001 -1.0536,-2.89635 -2.80867,-0.91516 -2.49108,2.81204 -4.41105,3.16813 -4.25239,-0.0929 0.1285,-2.64102 1.69126,-6.71085 2.65046,-9.18112 1.91568,-4.93351 3.49523,-8.4137 4.79441,-10.67154 1.27669,-2.21873 4.73133,-1.67282 5.05674,0.81407 z M 22.964958,283.19163 c -0.641262,2.91927 -0.321546,6.26613 0.183273,9.38663 0.423175,2.61583 1.518339,6.82544 3.0904,8.94797 1.161852,1.56869 2.388938,2.47278 3.147623,1.9711 2.136677,-1.41287 0.673901,-6.74476 0.716549,-9.39435 0.0412,-2.55954 -0.0482,-5.09409 -0.790379,-7.43829 C 28.518334,284.15653 26.153206,280.86045 25,278.9 Z m 71.279812,68.64316 106.51046,116.03042 a 4.4006745,4.4006745 179.97472 0 0 6.48642,-0.003 l 106.3167,-116.0247 A 2.1112883,2.1112883 66.249954 0 0 312.00174,348.3 H 95.798257 a 2.1087618,2.1087618 113.72477 0 0 -1.553487,3.53479 z m -29.023394,-2.80117 -44.442752,4.03276 a 1.6471593,1.6471593 103.7616 0 0 -0.741204,3.0264 l 55.92516,35.91444 c 2.229806,1.43195 2.714829,0.89906 0.996296,-1.1175 -0.355765,-0.41746 -0.714025,-0.83925 -1.068965,-1.26478 -1.695899,-2.03317 -4.130675,-5.57967 -5.744004,-7.68187 -3.269087,-4.25968 -6.842903,-8.17188 -11.749262,-10.83728 -2.325505,-1.26334 -6.223558,-3.07149 -8.158218,-4.88023 -2.252538,-2.10591 -0.785264,-2.14099 2.238231,-1.22308 C 55.011799,365.77213 55.56403,364.00001 57,364 c 5.13517,2.1247 5.849962,2.5789 6.52336,3.04728 2.158621,1.50142 4.809521,4.93748 6.453712,7.01574 l 19.045856,24.07396 a 28.720422,28.720422 42.166415 0 0 7.015683,6.35394 l 56.922779,36.51816 a 0.62468119,0.62468119 130.0993 0 0 0.798,-0.94768 L 73.240613,352.1386 a 9.6868741,9.6868741 21.166007 0 0 -8.019237,-3.10498 z m 269.738054,3.10502 -35.91886,39.22272 c -1.78972,1.95434 -1.2924,2.60698 0.90124,1.12429 3.17439,-2.14558 6.05928,-4.71678 9.02428,-7.10293 2.06385,-1.66093 5.53758,-4.7827 8.13391,-4.78272 -2.83073,4.67731 -3.73322,5.67096 -4.60263,6.63844 -1.77041,1.9701 -4.58849,5.21082 -6.30218,7.23161 -6.79738,8.01544 -12.55498,17.30627 -21.24065,23.13813 -2.19807,1.47585 -2.84238,0.69087 -1.22375,-1.40735 l 13.03842,-16.90166 c 1.61863,-2.09822 1.06071,-2.73934 -1.30658,-1.54888 -2.15776,1.08509 -5.41361,3.4339 -7.20347,5.3881 l -33.81832,36.92322 a 0.62904348,0.62904348 49.955639 0 0 0.80256,0.95495 l 66.4132,-42.43312 c 2.23311,-1.4268 6.05351,-4.02383 6.62478,-6.59639 0.26934,-1.21294 -1.3056,-0.80903 -4.13671,0.6971 -2.3391,1.24438 -6.0457,3.41639 -8.39074,4.65062 l -2.90786,1.53046 c -2.34504,1.23423 -2.8786,0.57582 -1.08063,-1.37052 9.90358,-10.72085 22.12553,-19.23987 33.23991,-28.8172 2.00727,-1.72968 5.51353,-4.14572 7.81457,-5.45892 0.82399,-0.47024 1.65846,-0.9496 2.4517,-1.39487 2.30113,-1.29169 3.65384,-0.1285 2.04686,1.61821 -0.28487,0.30965 -1.84758,2.24582 -3.48711,4.32776 l -6.66274,8.46062 c -1.63953,2.08194 -1.48879,1.84692 1.07613,1.22396 1.52524,-0.37044 -1.19647,3.10233 -4.4171,5.65109 -2.06663,1.6355 -4.99205,3.79207 -6.32766,5.29464 l 50.45924,-32.31243 a 1.6445973,1.6445973 76.284937 0 0 -0.73772,-3.02278 l -44.24304,-4.02958 a 9.682651,9.682651 158.84322 0 0 -8.01905,3.10343 z M 184,365.5 v 38.60174 A 4.7982571,4.7982571 135 0 1 179.20174,408.9 h -3.40348 A 4.7982571,4.7982571 45 0 1 171,404.10174 v -20.40348 c 0,-2.65001 -2.13619,-5.31438 -4.76324,-5.09862 -2.15414,0.17692 -4.3705,0.60511 -6.52367,0.68266 -2.6284,0.0947 -6.96149,-3.01821 -5.47738,-4.77344 0.3075,-0.36368 0.70164,-0.69406 1.15457,-0.97497 2.19865,-1.36365 6.80026,-0.6253 9.38833,-1.1754 0.15126,-0.0322 0.3015,-0.0678 0.45042,-0.10725 2.49191,-0.66076 5.33478,-4.3098 7.71367,-5.45601 0.72936,-0.35141 1.46866,-0.63336 2.21876,-0.85353 2.53401,-0.74379 6.57722,-0.60322 8.83854,-0.4417 z m 30,0.7 c 4.91468,0.46381 5.0599,0.46402 5.20411,0.46348 2.64891,-0.01 6.94414,-0.0635 9.59415,-0.0635 h 16.00348 c 2.65001,0 5.95976,2.14758 5.3491,4.67417 -0.0516,0.21338 -0.11485,0.42165 -0.19015,0.62299 -0.86898,2.32352 -5.80729,2.82063 -8.45179,2.71193 -0.70723,-0.0291 -1.41446,-0.0651 -2.1217,-0.0909 -2.64405,-0.0963 -6.9412,0.18612 -9.57092,-0.11691 -1.70045,-0.19595 -3.42161,-0.39904 -5.15908,-0.32874 -2.63179,0.10649 -6.74532,2.43695 -7.10993,4.98006 -0.0357,0.24905 -0.0516,0.49206 -0.0462,0.72356 0.0485,2.08573 5.55615,0.76016 8.17252,0.34818 0.45966,-0.0724 0.9139,-0.12992 1.36465,-0.17009 2.62639,-0.23401 6.8928,0.6429 9.47989,1.21494 4.0356,0.89233 8.04635,2.26711 11.17044,4.79268 2.05222,1.65906 4.5573,5.36042 4.99394,7.95389 0.0949,0.56341 0.14387,1.13357 0.14314,1.70375 -0.003,2.61871 -2.25119,6.5486 -4.23091,8.29031 -2.90544,2.55614 -6.75776,3.98996 -10.60743,4.96778 -2.56802,0.65228 -6.75657,1.62551 -9.368,2.07157 -1.42832,0.24397 -4.76385,0.006 -7.39643,-0.29656 -4.0811,-0.46896 -8.19707,-1.30137 -11.63355,-3.49735 -2.22405,-1.42122 -5.83551,-4.76359 -5.62562,-7.31066 0.0161,-0.19548 0.0499,-0.38548 0.10211,-0.56785 0.66874,-2.3379 6.10985,-2.25251 8.72238,-1.83574 0.54635,0.0872 1.0877,0.21118 1.60905,0.38523 2.44723,0.81705 5.10918,4.78246 7.63396,5.41577 1.34525,0.33744 2.80312,0.40809 4.23881,0.32249 2.64154,-0.15751 7.00194,-0.93212 9.22644,-2.3364 0.41677,-0.2631 0.80693,-0.55831 1.16049,-0.88662 1.88813,-1.75329 2.31611,-6.69795 0.7698,-8.76311 -0.38747,-0.51749 -0.85115,-0.98438 -1.36943,-1.39452 -2.0559,-1.62691 -6.43466,-2.73911 -9.06082,-2.6165 -2.72176,0.12707 -5.49099,1.00869 -8.27731,1.70377 -2.56752,0.64051 -6.88695,1.64016 -9.45339,1.11582 -0.71253,-0.14557 -1.39854,-0.38326 -2.00433,-0.72859 -2.18733,-1.24688 -1.70646,-6.03479 -0.88732,-8.55418 0.34205,-1.05201 0.67655,-2.10383 0.95234,-3.1691 0.66204,-2.55714 0.63254,-7.05177 1.99096,-9.29155 1.29835,-2.1407 4.68254,-3.00677 4.6826,-2.44355 z m 128.74326,7.75996 c -0.78708,0.66388 -1.62862,1.37829 -2.45214,2.07489 -2.02309,1.71127 -5.34488,4.43631 -7.3849,6.12771 l -8.41244,6.97488 c -2.04002,1.6914 -1.77279,2.09797 0.53302,0.79231 5.55638,-3.14628 10.69754,-6.7819 15.00774,-11.44139 1.79864,-1.94439 4.79161,-5.04509 6.32986,-7.20087 0.10197,-0.14291 -1.60206,0.9694 -3.62114,2.67247 z m -239.38623,13.09326 c 0.76687,0.5308 1.53164,1.13534 2.25321,1.75772 2.00463,1.72905 4.76764,5.03722 6.46735,7.07033 l 19.84482,23.73746 c 1.69971,2.03311 0.96636,3.18009 -1.43242,2.06229 -4.13794,-1.92825 -7.41746,-4.80234 -10.48298,-8.34303 -1.73425,-2.00307 -4.36086,-5.40671 -5.95616,-7.52247 -3.93373,-5.21709 -7.86818,-10.7136 -13.64335,-13.94422 -2.307941,-1.29105 -6.395629,-2.78731 -8.415442,-4.49694 -2.252514,-1.90659 -1.114416,-2.56781 1.686256,-1.63802 C 96.188555,386.5697 97.461489,385.20001 99,385.2 Z"
     id="path1"
     style="fill:#000080"
     inkscape:path-effect="#path-effect1"
     inkscape:original-d="M 196,0 20,112.3 196,108.5 Z m 16,0 v 108.5 l 175.7,3.8 z m 43.1,49.97 c 2.8,0.06 5.8,0.75 9.2,2.08 2.3,0.91 4.1,1.91 5.6,3.07 1.5,1.15 2.8,2.5 3.7,3.79 1.5,2.06 2.2,4.04 2.6,6.25 2.4,-1.77 5.2,-2.98 8.2,-3.84 3.4,-0.73 7.2,-0.35 11.1,1.23 4.6,1.82 8.1,4.19 10.3,7.11 2.2,2.93 3.5,5.97 4,9.13 0.3,1.71 0.3,3.41 0.1,5.01 -0.1,1.7 -0.6,3.3 -1.2,4.7 -0.5,1.5 -1.2,3 -2.3,4.3 -1,1.3 -2.1,2.6 -3.5,3.6 -2.5,2 -5.5,3.3 -9.1,3.9 -3.6,0.6 -7.7,0 -12.3,-1.8 -4,-1.6 -7,-3.8 -9,-6.7 -1.6,-2.6 -2.9,-5.5 -3.4,-8.4 -2,1.5 -4.2,2.5 -6.9,2.9 -3,0.6 -6.5,0 -10.7,-1.6 -2.4,-1 -4.5,-2.1 -6.2,-3.3 -1.8,-1.3 -3.2,-2.61 -4.3,-4.08 -2.1,-2.58 -3.2,-5.37 -3.5,-8.35 -0.2,-2.9 0.2,-5.65 1.1,-8.15 0.5,-1.29 1.3,-2.57 2.1,-3.92 1,-1.1 2,-2.21 3.1,-3.26 2.4,-1.77 5.2,-2.97 8.5,-3.53 0.9,-0.12 1.8,-0.17 2.8,-0.14 z M 156,55.26 c 4.8,0.05 10.9,3.57 9,10.04 -4,6.9 -10.3,12.17 -18,14.8 -7.4,2.5 -15,4.4 -22,1.9 -3,-2.3 -13,-9.4 -15,-3.4 -1.2,15.3 1,13 -11,17.8 V 72 c 10,-3.9 21,-4.5 31,1.3 8,4.2 19,1.5 24,-5.8 1,-6.5 -8,-4.5 -12,-3.3 -3,-8.3 7.8,-8.43 13,-8.9 0.3,-0.03 0.6,-0.04 1,-0.04 z m 100.5,4.46 c -0.9,0.01 -1.8,0.14 -2.8,0.36 -2.4,0.61 -4.2,2.17 -5.1,4.67 -1,2.42 -0.8,4.74 0.6,6.88 1.4,2.22 3.3,3.73 6,4.78 2.9,1.15 5.4,1.41 8,0.73 2.5,-0.56 4.3,-2.12 5.2,-4.54 1,-2.5 0.8,-4.82 -0.7,-7.01 -1.4,-2.14 -3.5,-3.77 -6.4,-4.92 -1.6,-0.66 -3.2,-0.96 -4.8,-0.95 z m 28.9,10.15 c -1.1,0.05 -2.2,0.27 -3.2,0.65 -2.7,1.17 -4.5,2.96 -5.4,5.39 -1,2.5 -0.9,5.09 0.4,7.59 1.2,2.6 3.6,4.6 7.2,6.1 2.9,1.1 5.8,1.3 8.6,0.6 2.8,-0.8 4.7,-2.7 5.8,-5.6 1.1,-2.9 1.1,-5.53 -0.5,-8.01 -1.5,-2.47 -3.7,-4.37 -6.6,-5.51 -2.3,-0.9 -4.4,-1.29 -6.3,-1.21 z M 190,124.6 3,128.7 75,321.6 Z m 28,0 115.4,197 71.2,-192.9 z m -14,7.5 -117,200.2 h 234.1 z m 116.6,16.4 19.2,42.5 7.2,-3.3 4.1,9.2 -7.1,3.2 6.3,14 -10.4,4.7 -6.3,-14 -30.2,13.6 -3.9,-8.7 c 1.4,-9.2 4.4,-27.8 8.9,-55.7 l 1.8,-0.8 0.8,-0.3 3.1,-1.5 z M 94.7,160.6 H 96 c 2.9,0 5.5,0.5 7.8,1.6 6.9,3.2 10.7,8.4 11.7,15.3 0.9,6.9 -1,15.3 -5.7,25.1 -4.7,9.7 -10,16.5 -15.8,20.3 -6,3.8 -12.3,4.1 -19.1,1 -5.9,-2.8 -9.4,-6.7 -10.6,-11.9 -1.2,-5.3 -0.9,-9.7 0.9,-13.5 l 9.6,4.4 c -0.9,1.7 -1.1,3.8 -0.8,6.3 0.3,2.6 1.9,4.5 5,6 3.1,1.4 6.1,1.3 9.2,-0.2 3.1,-1.4 6.3,-5.2 9.7,-11.3 0.5,-1 1.1,-2.1 1.7,-3.3 -1.8,1.2 -3.6,2 -5.5,2.6 -3.2,0.9 -6.6,0.5 -10.3,-1.2 -4.3,-2 -7.5,-5.5 -9.5,-10.6 -2.1,-5 -1.5,-10.7 1.6,-17.2 l 0.1,-0.1 c 1.1,-2.3 2.4,-4.4 4,-6 1.4,-1.7 3.1,-3.1 4.8,-4.2 3.1,-1.9 6.4,-3 9.9,-3.1 z M 0,165.7 v 173.2 l 62,-5.7 z m 408,0 -61.9,167.5 61.9,5.7 z m -91.9,0.6 c -1.6,9.7 -3.6,22.5 -6.2,38.2 l 19.6,-8.8 -8.2,-17.9 z m -219.7,4.1 c -1.5,0.1 -2.9,0.4 -4.3,1.1 -3,1.4 -5.1,3.5 -6.5,6.5 -1.6,3.4 -2.1,6.5 -1.2,9.6 0.9,3 2.7,5.1 5.4,6.4 2.8,1.3 5.7,1.3 8.5,0 2.8,-1.3 5.1,-3.6 6.8,-7 1.4,-2.9 1.7,-5.9 1,-9 -0.8,-3.1 -2.6,-5.3 -5.4,-6.6 -1.4,-0.7 -2.9,-1 -4.3,-1 z m 103.2,47.7 h 15.6 v 84.2 h -15.6 v -70.2 c -8.8,5.8 -15.3,9.6 -19.4,11.2 l -6.3,2.8 v -14 l 6.3,-2.8 c 4.1,-1.8 10.6,-5.4 19.4,-11.2 z m 201.7,6.2 h 0.5 c 3.6,0.3 5.7,7 4.7,11.1 -0.1,18.6 1.1,39.2 -9.7,55.3 -0.9,1.2 -2.2,1.9 -3.7,2.5 -5.8,-4.1 -3,-11.3 1.2,-15.5 1,7.3 5.5,-2.9 6.6,-5.6 1.3,-3.2 3.6,-17.7 -1,-10.2 0.7,4 -6.8,13.1 -9.3,8.1 -5,-14.4 0,-30.5 7,-43.5 1.3,-1.4 2.5,-2.1 3.7,-2.2 z M 8,225.2 c 1,0.1 1,1 2,3.6 v 61.1 c -7,-7 -3,-17.4 -4,-26.4 -1,-7.6 2,-16.3 -1,-23.2 -5,-1.7 -6,-17 -3,-12.7 4,4.8 4,-2.7 6,-2.4 z m 390.9,10.6 c -1,0 -2,1 -2.8,3.7 -1.6,5.9 -3.3,13.4 -0.7,19.3 5.1,-2 5.4,-9.6 6.6,-14.5 1.2,-3.3 -0.9,-8.4 -3.1,-8.5 z M 23,247.9 c 4,-0.5 7,7.2 9,10.8 3.28,12.7 4.21,13.9 3,16.8 -5,-3.7 -4.87,-7.4 -5.36,-8.9 -1,-3 -1.64,-5.3 -3.64,-8.4 -3.34,2.8 -3,9.1 -3,13.4 0,-1.6 1,-2.3 4,-0.7 7,12.6 12,29.1 7,43.5 l -2,1.1 c -11,-5.8 -12,-19.4 -14,-30 -1,-12.3 -1,-24.7 2,-36.7 1,-0.6 2,-0.9 3,-0.9 z m 358.2,4.8 c 4.5,0.3 0.8,35.2 0.8,55 l -4.4,6.7 v -42.3 c -4.6,7.5 -9.1,9.1 -6.1,-0.9 4.9,-13.4 7.9,-18.6 9.7,-18.5 z M 25,278.9 c -4,4.7 -2,12.8 -1,18.4 2,5.5 7,10.2 6,1.6 0,-5.7 1,-11.8 -3,-16.4 0,-0.6 -1,-1.9 -2,-3.6 z m 66,69.4 113,123.1 112.8,-123.1 z m -21,0.3 -54,4.9 64,41.1 c -2,-2.7 -5,-5.7 -7,-8.8 -5,-6.9 -10,-13.6 -19,-16.6 -9,-6.5 -4,-5.3 3,-2.6 -1,-1.8 -1,-2.6 0,-2.6 2,-0.2 9,4.2 10,6.3 l 25,31.6 65,41.7 z m 268.2,0 -42.4,46.3 c 6.4,-3.1 11.3,-8.5 17,-12.4 2.4,-1.4 3.7,-1.9 4.3,-1.9 2.1,0 -5.4,7.1 -7.7,10.3 -9.4,9.8 -16,23 -28.6,29.1 l 18.9,-24.5 c -2.3,1.3 -6,3.2 -8.2,4.1 l -40.3,44 74.5,-47.6 c 5.4,-6.7 1.9,-5.6 -5.7,-0.9 l -11.4,6 c 11.4,-13.7 26.8,-23.6 40,-35.6 3.2,-1.5 9.5,-5.6 11,-5.7 0.8,-0.1 0.2,1 -2.8,4.2 l -12.6,16 c 10,-7.6 0.9,3.9 -4.5,5.5 -0.7,1 -1.4,2 -2.2,2.9 L 392,353.5 Z m -158.3,16.7 c 1.4,0 2.7,0.1 4.1,0.2 v 43.4 h -13 v -30 c -5,-1.4 -11,1.7 -16,-0.3 -4,-2.9 1,-6.8 5,-5.9 3,-0.1 7,0.2 9,-3.2 3.4,-3.1 7,-4.2 10.9,-4.2 z M 213,366 c 0,0 1,0.1 1,0.2 4,0.8 7,0.3 10,0.4 h 25.6 c 1.5,3 0.8,7.8 -3.3,7.9 -3.9,0.5 -7.8,-0.4 -11.7,0.2 -4.7,0.2 -9.6,-1.8 -14.6,0.4 -3,1.7 -4,8.5 1,6.1 4,-1.1 7.3,-1.8 10.8,-0.9 7,1.1 15,2.9 19.1,9.2 2.1,3.1 2.7,7.3 0.7,10.7 -3.6,6.5 -11.6,8.4 -18.3,9.7 -2.4,0.4 -4.7,1.4 -7.3,1.2 -7,-0.6 -15,-1.1 -20,-7.1 -3,-2.5 -3,-7.1 2,-6.7 3,-0.1 8,-0.4 10,3.5 3,3.7 9,3 13,2 3.6,-0.5 7.5,-2.6 7.6,-6.7 0.6,-4.2 -3.1,-7.2 -6.9,-7.8 -5.7,-2.3 -11.7,1.4 -17.7,1.8 -3,1.1 -9,0.5 -9,-4.4 1,-4.2 3,-8.1 3,-12.5 0,-3 2,-7 5,-7.2 z m 133.5,5 c -0.2,-0.2 -7,5.8 -9.9,8.1 l -15.8,13.1 c 8.6,-4.4 16.5,-9.6 22.3,-17.4 2.6,-2.6 3.5,-3.7 3.4,-3.8 z M 99,385.2 c 3,0 8,4.6 10,7 l 26,31.1 c -8,-2.1 -13,-7.1 -18,-13.7 -6,-7.3 -11,-16.6 -21,-19.6 -9,-5 -5,-6.4 2,-2.2 0,-1.9 0,-2.6 1,-2.6 z"
     sodipodi:nodetypes="cccccccccccccccccccccscccccccccccccccccccccccccccccccccccccccccscccccccccccccccccccccccccccccccscccccccccccccccccccccccccccccccccccccccsccccccccccccccccccccccccccccccccccccccccccccccccccccccccccccccccccccccccccccccsccccccccccccccccscccccccscccccccccccccccccccccscscccsscccccs"
     transform="translate(0,-2.1680572)" />
</svg>
