<?xml version="1.0" encoding="UTF-8" standalone="no"?>
<svg
   viewBox="209.7 151.679 176.821 165.39"
   width="176.821px"
   height="165.39px"
   version="1.1"
   id="svg2"
   sodipodi:docname="dwarf.svg"
   inkscape:version="1.4.2 (ebf0e940, 2025-05-08)"
   xmlns:inkscape="http://www.inkscape.org/namespaces/inkscape"
   xmlns:sodipodi="http://sodipodi.sourceforge.net/DTD/sodipodi-0.dtd"
   xmlns="http://www.w3.org/2000/svg"
   xmlns:svg="http://www.w3.org/2000/svg">
  <defs
     id="defs2" />
  <sodipodi:namedview
     id="namedview2"
     pagecolor="#ffffff"
     bordercolor="#000000"
     borderopacity="0.25"
     inkscape:showpageshadow="2"
     inkscape:pageopacity="0.0"
     inkscape:pagecheckerboard="0"
     inkscape:deskcolor="#d1d1d1"
     inkscape:zoom="0.32045468"
     inkscape:cx="88.936132"
     inkscape:cy="82.695"
     inkscape:window-width="896"
     inkscape:window-height="204"
     inkscape:window-x="0"
     inkscape:window-y="39"
     inkscape:window-maximized="0"
     inkscape:current-layer="svg2" />
  <g
     id="object-0"
     transform="matrix(1, 0, 0, 1, 0, 1.4210854715202004e-14)"
     style="fill:#000080">
    <path
       d="M 309.083 190.398 C 309.083 169.014 326.419 151.679 347.802 151.679 L 347.802 177.491 L 350.605 180.295 L 362.221 168.679 L 369.522 175.98 L 357.905 187.595 L 360.709 190.398 L 386.521 190.398 C 386.521 211.781 369.186 229.117 347.802 229.117 L 347.802 203.305 L 344.999 200.502 L 311.441 234.058 L 304.142 226.759 L 337.698 193.201 L 334.895 190.398 L 309.083 190.398 Z"
       fill="#460d08"
       style="stroke-width:1;fill:#000080"
       id="path1" />
    <path
       fill="#460d08"
       d="M 224.314 179.735 C 203.203 209.407 222.808 215.12 234.972 221.828 C 237.076 217.252 239.492 213.102 242.732 209.208 C 227.952 202.927 225.281 189.256 224.314 179.735 Z M 297.415 179.735 C 296.449 189.256 293.777 202.927 278.998 209.208 C 282.238 213.102 284.654 217.252 286.757 221.828 C 298.95 215.12 318.504 209.407 297.415 179.735 Z M 260.865 201.08 C 247.99 208.924 243.158 216.541 238.582 228.023 C 252.196 231.349 269.505 231.349 283.147 228.023 C 278.572 216.541 273.74 208.924 260.865 201.08 Z M 230.397 231.377 C 228.89 234.305 223.405 252.608 223.348 257.468 C 224.684 256.076 226.048 254.655 227.384 253.234 L 229.26 254.882 C 229.572 247.606 232.841 239.875 236.394 232.855 C 234.546 232.4 232.272 231.917 230.397 231.377 Z M 291.333 231.377 C 289.571 231.86 286.984 232.486 285.336 232.855 C 288.86 239.875 292.157 247.606 292.441 254.882 L 294.346 253.234 L 298.382 257.468 C 301.366 253.944 292.839 234.305 291.333 231.377 Z M 241.993 233.878 L 239.747 240.643 C 246.228 242.49 252.139 244.224 259.358 246.327 L 257.511 251.159 C 255.919 250.704 254.271 250.249 252.651 249.766 C 251.827 251.415 249.951 252.495 247.904 252.495 C 245.005 252.495 242.703 250.448 242.703 247.947 C 242.703 247.578 242.732 247.237 242.817 246.896 L 238.099 245.56 L 234.148 257.412 L 244.409 267.16 L 248.558 259.486 L 273.143 259.486 L 277.321 267.16 L 287.581 257.412 L 283.631 245.56 C 282.096 245.986 280.561 246.412 279.055 246.867 C 279.168 247.208 279.197 247.578 279.197 247.947 C 279.197 250.448 276.895 252.495 273.967 252.495 C 271.892 252.495 270.017 251.386 269.192 249.738 C 267.515 250.221 265.867 250.676 264.219 251.159 L 262.343 246.327 C 268.937 244.394 274.962 242.661 281.982 240.643 L 279.708 233.878 C 266.151 237.033 255.578 237.033 241.993 233.878 Z M 229.714 260.822 L 209.7 281.769 L 223.177 281.769 L 217.948 295.412 L 234.29 295.412 L 230.112 302.688 L 240.771 299.59 L 260.865 317.069 L 280.959 299.59 L 291.589 302.688 L 287.411 295.412 L 303.753 295.412 L 298.552 281.769 L 312.024 281.769 L 291.987 260.822 L 275.673 275.005 L 269.448 264.148 L 252.196 264.148 L 245.972 275.005 L 229.714 260.822 Z M 255.635 268.127 L 266.094 268.127 L 266.094 273.243 L 255.635 273.243 L 255.635 268.127 Z"
       style="stroke-width:1;fill:#000080"
       id="path2" />
  </g>
</svg>
