<?xml version="1.0" encoding="UTF-8" standalone="no"?>
<!-- Uploaded to: SVG Repo, www.svgrepo.com, Generator: SVG Repo Mixer Tools -->

<svg
   width="800px"
   height="800px"
   viewBox="0 0 512 512"
   version="1.1"
   id="svg1"
   sodipodi:docname="egg.svg"
   inkscape:version="1.4.2 (ebf0e940, 2025-05-08)"
   xmlns:inkscape="http://www.inkscape.org/namespaces/inkscape"
   xmlns:sodipodi="http://sodipodi.sourceforge.net/DTD/sodipodi-0.dtd"
   xmlns="http://www.w3.org/2000/svg"
   xmlns:svg="http://www.w3.org/2000/svg">
  <defs
     id="defs1" />
  <sodipodi:namedview
     id="namedview1"
     pagecolor="#ffffff"
     bordercolor="#000000"
     borderopacity="0.25"
     inkscape:showpageshadow="2"
     inkscape:pageopacity="0.0"
     inkscape:pagecheckerboard="0"
     inkscape:deskcolor="#d1d1d1"
     inkscape:zoom="0.06625"
     inkscape:cx="400"
     inkscape:cy="400"
     inkscape:window-width="896"
     inkscape:window-height="204"
     inkscape:window-x="0"
     inkscape:window-y="39"
     inkscape:window-maximized="0"
     inkscape:current-layer="svg1" />
  <path
     fill="#460d08"
     d="M256 32C160 32 96 192 96 320c0 64 32 160 160 160s160-96 160-160c0-128-64-288-160-288zm74.1 89.2l11.8 13.6-53 46.7 8.8 14.6c31.1 34.3 62.9 65.8 97.4 96.4l-12 13.4-19.6-17.3-25.7 114.6-17.6-4 16.4-73c-46.8-15-93.2-31.5-140.1-46.3-3.9 1.6-8 2.9-12 4.3l-6.7 36.6 51 31.9-9.6 15.2-44.9-28.1-5.4 29.8-17.8-3.2 13.8-75.4-33.9 11.8-6-17 63.7-22.2 21.6-9.3 70.9-50.9-32.9-54.8 15.4-9.2 15.8 26.4 50.6-44.6zM288 236.5c-22.1.2-37.7 13-44.6 42.7 47.1 16.7 71.4-.2 84.5-33.4-14.9-6.2-28.3-9.5-39.9-9.3zm-6 6.9a10.24 10.37 0 0 0-1.1 4.8 10.24 10.37 0 0 0 10.2 10.4 10.24 10.37 0 0 0 9.6-6.8 18.38 17.35 0 0 1 2.5 8.7 18.38 17.35 0 0 1-18.4 17.3 18.38 17.35 0 0 1-18.3-17.3 18.38 17.35 0 0 1 15.5-17.1z"
     id="path1"
     style="fill:#000080" />
</svg>
