<?xml version="1.0" encoding="UTF-8" standalone="no"?>
<!-- Uploaded to: SVG Repo, www.svgrepo.com, Generator: SVG Repo Mixer Tools -->

<svg
   width="500"
   height="700"
   viewBox="0 0 320 448"
   version="1.1"
   id="svg1"
   sodipodi:docname="egg.svg"
   inkscape:version="1.4.2 (ebf0e940, 2025-05-08)"
   xmlns:inkscape="http://www.inkscape.org/namespaces/inkscape"
   xmlns:sodipodi="http://sodipodi.sourceforge.net/DTD/sodipodi-0.dtd"
   xmlns="http://www.w3.org/2000/svg"
   xmlns:svg="http://www.w3.org/2000/svg">
  <defs
     id="defs1" />
  <sodipodi:namedview
     id="namedview1"
     pagecolor="#ffffff"
     bordercolor="#000000"
     borderopacity="0.25"
     inkscape:showpageshadow="2"
     inkscape:pageopacity="0.0"
     inkscape:pagecheckerboard="0"
     inkscape:deskcolor="#d1d1d1"
     inkscape:zoom="0.06625"
     inkscape:cx="249.0566"
     inkscape:cy="347.16981"
     inkscape:window-width="896"
     inkscape:window-height="245"
     inkscape:window-x="0"
     inkscape:window-y="39"
     inkscape:window-maximized="0"
     inkscape:current-layer="svg1" />
  <path
     fill="#460d08"
     d="M 160,0 C 64,0 0,160 0,288 0,352 32,448 160,448 288,448 320,352 320,288 320,160 256,0 160,0 Z m 74.1,89.2 11.8,13.6 -53,46.7 8.8,14.6 c 31.1,34.3 62.9,65.8 97.4,96.4 l -12,13.4 -19.6,-17.3 -25.7,114.6 -17.6,-4 16.4,-73 c -46.8,-15 -93.2,-31.5 -140.1,-46.3 -3.9,1.6 -8,2.9 -12,4.3 l -6.7,36.6 51,31.9 -9.6,15.2 -44.9,-28.1 -5.4,29.8 -17.8,-3.2 13.8,-75.4 -33.9,11.8 -6,-17 63.7,-22.2 21.6,-9.3 70.9,-50.9 -32.9,-54.8 15.4,-9.2 15.8,26.4 z M 192,204.5 c -22.1,0.2 -37.7,13 -44.6,42.7 47.1,16.7 71.4,-0.2 84.5,-33.4 -14.9,-6.2 -28.3,-9.5 -39.9,-9.3 z m -6,6.9 a 10.24,10.37 0 0 0 -1.1,4.8 10.24,10.37 0 0 0 10.2,10.4 10.24,10.37 0 0 0 9.6,-6.8 18.38,17.35 0 0 1 2.5,8.7 18.38,17.35 0 0 1 -18.4,17.3 18.38,17.35 0 0 1 -18.3,-17.3 18.38,17.35 0 0 1 15.5,-17.1 z"
     id="path1"
     style="fill:#000080" />
</svg>
