<?xml version="1.0" encoding="UTF-8" standalone="no"?>
<!-- Uploaded to: SVG Repo, www.svgrepo.com, Generator: SVG Repo Mixer Tools -->

<svg
   width="700"
   height="671.875"
   viewBox="0 0 448 430"
   version="1.1"
   id="svg1"
   sodipodi:docname="elf.svg"
   inkscape:version="1.4.2 (ebf0e940, 2025-05-08)"
   xmlns:inkscape="http://www.inkscape.org/namespaces/inkscape"
   xmlns:sodipodi="http://sodipodi.sourceforge.net/DTD/sodipodi-0.dtd"
   xmlns="http://www.w3.org/2000/svg"
   xmlns:svg="http://www.w3.org/2000/svg">
  <defs
     id="defs1" />
  <sodipodi:namedview
     id="namedview1"
     pagecolor="#ffffff"
     bordercolor="#000000"
     borderopacity="0.25"
     inkscape:showpageshadow="2"
     inkscape:pageopacity="0.0"
     inkscape:pagecheckerboard="0"
     inkscape:deskcolor="#d1d1d1"
     inkscape:zoom="0.92052507"
     inkscape:cx="301.45838"
     inkscape:cy="333.50531"
     inkscape:window-width="1712"
     inkscape:window-height="971"
     inkscape:window-x="0"
     inkscape:window-y="39"
     inkscape:window-maximized="1"
     inkscape:current-layer="svg1" />
  <path
     fill="#460d08"
     d="m 224,0 c -28.25,0 -58.36,18.25 -81.166,44.857 -3.138,3.66 -6.123,7.477 -8.947,11.403 l 41.20332,-18.296981 25.40119,15.645419 C 200.99751,46.672438 201.695,30.29 205.197,25.037 209.265,18.937 215.934,14 224,14 c 8.066,0 14.735,4.936 18.803,11.037 3.502,5.253 4.88174,21.1816 5.38774,28.1166 l 22.89958,-14.280905 44.84203,20.343753 C 313.10835,55.290448 308.303,48.518 305.166,44.857 282.36,18.25 252.25,0 224,0 Z m -0.22742,24.267753 c -0.77,0 -8.69815,2.937609 -10.42115,5.521609 -1.724,2.588 -3.40142,14.934666 -3.40142,19.939666 0,3.83 1.53226,9.109353 2.70226,11.684353 l 11.57515,10.36999 11.12031,-9.915152 c 1.17,-2.575 2.02,-8.764029 2.02,-12.594029 0,-5.006 -3.04193,-16.670409 -4.76593,-19.257409 -1.723,-2.583 -8.05922,-5.749028 -8.82922,-5.749028 z M 176,49.816 l -51.81974,20.899352 31.03435,5.8428 c 16.922,2.09 45.16992,4.563095 65.24692,5.004095 C 219.07753,80.262247 206.692,71.09 205.618,69.562 L 176,49.817 Z m 96,0 -29.617,19.747 c -1.075,1.527 -10.27667,9.790571 -11.65967,11.089571 20.077,-0.442 45.14306,-0.639905 62.06606,-2.729905 l 28.98458,-7.207314 z M 0,71 c 33.318,33.318 62.704712,99.00819 75.253712,135.77219 3.176,-25.792 5.748239,-53.74177 10.855239,-76.34277 1.177,-5.203 6.574903,-19.44318 7.796903,-24.18818 C 72.977854,89.845239 12.818,71 0,71 Z m 448,0 c -12.818,0 -74.24142,19.266429 -95.16942,35.66243 1.222,4.745 5.35633,18.56499 6.53233,23.76699 5.108,22.6 8.10143,50.55077 11.27643,76.34277 C 383.19034,170.00819 414.683,104.318 448,71 Z M 116.53,81.086 c -4.642,8.756 -10.375,25.398 -14.97,45.73 -5.475,24.23 -10.06,53.44 -13.257,81.444 -2.72,23.812 -4.36,66.30094 -4.832,84.57094 6.863,-23.28 20.38228,-70.47556 31.17028,-98.89656 14.948,-39.38 41.90381,-79.77657 68.18181,-102.70757 L 116.532,81.086 Z m 214.94,0 -62.08019,10.562 c 26.277,22.93 49.4431,62.063 64.3911,101.444 10.788,28.42 23.04371,70.98447 29.90571,94.26347 -0.474,-18.27 -1.27162,-55.28347 -3.99062,-79.09547 -3.197,-28.003 -7.782,-57.213 -13.258,-81.444 -4.595,-20.332 -10.328,-36.974 -14.97,-45.73 z m -128.755,10.62 -6.69,3.345 c -6.37,3.187 -12.575,8.02 -18.574,14.118 6.667,0.82 12.99,2.112 18.59,3.863 8.714,2.728 16.785,5.412 20.364,14.75 l -16.808,6.44 c 0.716,1.868 -2.263,-1.923 -8.932,-4.01 -6.67,-2.085 -15.925,-3.606 -25.332,-3.99 -0.636,-0.025 -1.273,-0.033 -1.91,-0.048 -3.23,4.555 -6.38,9.44 -9.442,14.596 4.823,-1.175 9.422,-1.768 14.02,-1.768 12,0 24,4 40,12 0,16 -16,32 -32,32 -9.86,0 -25.784,-6.078 -36.563,-14.484 -4.653,9.97 -9.01,20.393 -13.023,30.964 -2.324,6.122 -4.538,12.267 -6.662,18.38 9.174,24.796 21.778,46.163 35.352,63.615 13.475,17.326 27.913,30.755 40.576,39.666 C 208.342,330.05 219.75,334 224,334 c 4.25,0 15.658,-3.95 28.32,-12.86 12.663,-8.91 27.1,-22.34 40.576,-39.665 13.574,-17.452 26.178,-38.82 35.352,-63.614 -2.124,-6.113 -4.338,-12.258 -6.662,-18.38 -4.013,-10.57 -8.37,-20.995 -13.024,-30.964 C 297.784,176.922 281.86,183 272,183 c -16,0 -32,-16 -32,-32 16,-8 28,-12 40,-12 4.598,0 9.197,0.593 14.02,1.768 -3.043,-5.124 -6.173,-9.98 -9.383,-14.512 -9.19,0.424 -18.187,1.915 -24.707,3.955 -6.67,2.087 -9.648,5.878 -8.932,4.01 l -16.81,-6.44 c 3.58,-9.338 11.653,-12.022 20.37,-14.75 4.95,-1.548 10.476,-2.728 16.296,-3.55 -6.093,-6.248 -12.4,-11.19 -18.88,-14.43 l -6.69,-3.345 c -7.034,0.196 -14.15,0.295 -21.284,0.295 -7.133,0 -14.25,-0.1 -21.285,-0.295 z M 168,151 c -4.41828,0 -8,3.58172 -8,8 0,4.41828 3.58172,8 8,8 4.41828,0 8,-3.58172 8,-8 0,-4.41828 -3.58172,-8 -8,-8 z m 111.648,0 c -4.41828,0 -8,3.58172 -8,8 0,4.41828 3.58172,8 8,8 4.41828,0 8,-3.58172 8,-8 0,-4.41828 -3.58172,-8 -8,-8 z M 208,215 224,219.098 240,215 c 0,16 -16,16 -16,16 0,0 -16,0 -16,-16 z m -96.836,28.87 c -4.49,14.25 -8.274,27.123 -11.822,39.16 -9.37,62.528 -29.578,99.06 -52.65,146.353 4.716,-0.48 9.643,-1.316 14.462,-2.922 10.293,-3.43 19.87,-9.632 26.795,-23.485 l 8.05,-16.1 8.05,16.1 c 7.835,15.668 12.134,21.143 14.272,22.773 1.07,0.815 1.84,1.144 3.942,1.793 0.25,0.08 0.683,0.214 0.984,0.308 12.907,-29.755 25.753,-81.982 27.535,-123.414 -3.33,-3.765 -6.635,-7.728 -9.887,-11.91 -10.863,-13.966 -21.126,-30.27 -29.732,-48.655 z m 225.672,0 c -8.606,18.385 -18.87,34.688 -29.732,48.655 -3.252,4.18 -6.557,8.144 -9.887,11.91 1.824,42.395 15.232,96.096 28.435,125.454 0.942,-0.053 1.702,-0.12 2.155,-0.21 1.098,-0.223 0.9,-0.08 1.836,-1.022 1.873,-1.886 6.306,-9.683 14.306,-25.683 l 8.05,-16.1 8.05,16.1 c 6.927,13.853 16.503,20.055 26.796,23.486 5.303,1.77 10.72,2.63 15.857,3.073 -17.65,-45.806 -38.75,-79.5 -50.51,-134.562 -4.353,-14.547 -9.39,-32.163 -15.357,-51.1 z M 208,247 c 0,0 16,0 16,6.693 C 224,247 240,247 240,247 c 16,0 32,16 48,16 0,0 -28.9,29.78 -48,32 -5.653,0.657 -16,-5.96 -16,-5.96 0,0 -10.347,6.617 -16,5.96 -19.1,-2.22 -48,-32 -48,-32 16,0 32.012,-15.997 48,-16 z m -40.482,74.475 c -0.435,4.7 -0.954,9.44 -1.58,14.207 l 1.55,2.326 25.91,38.865 24.24,-24.236 1.048,-1.05 c -10.23,-1.496 -21.165,-7.142 -33.366,-15.728 -5.783,-4.07 -11.77,-8.882 -17.802,-14.385 z m 112.964,0 c -6.033,5.503 -12.02,10.314 -17.802,14.384 -12.2,8.585 -23.134,14.23 -33.364,15.728 l 25.286,25.285 25.91,-38.865 1.55,-2.326 c -0.626,-4.767 -1.145,-9.508 -1.58,-14.207 z m -121.38,33.842 c -4.95,25.17 -14.582,55.79 -22.34,74.683 h 75.478 l -28.166,-35.072 -24.972,-39.61 z m 132.356,-3.84 -27.532,43.45 L 235.76,430 h 76.76 c -7.76,-18.893 -16.11,-53.353 -21.062,-78.523 z M 224,365.327 199,391.609 224,423.622 250.28,391.608 224,365.326 Z"
     id="path1"
     style="fill:#000080"
     sodipodi:nodetypes="scccccscccccsscscccscscccccccccccccccccccccccccccccccccccccccccccccccccscscscccscccccscsccsccccscscsssssssssscccccccccccccccccccccccccscccccccccccscccccccccccccccccccccccccccccccccccccc" />
</svg>
