<?xml version="1.0" encoding="UTF-8" standalone="no"?>
<!-- Uploaded to: SVG Repo, www.svgrepo.com, Generator: SVG Repo Mixer Tools -->

<svg
   width="742.65674"
   height="696.76886"
   viewBox="0 0 475.30031 445.93207"
   version="1.1"
   id="svg1"
   sodipodi:docname="goblin.svg"
   inkscape:version="1.4.2 (ebf0e940, 2025-05-08)"
   xmlns:inkscape="http://www.inkscape.org/namespaces/inkscape"
   xmlns:sodipodi="http://sodipodi.sourceforge.net/DTD/sodipodi-0.dtd"
   xmlns="http://www.w3.org/2000/svg"
   xmlns:svg="http://www.w3.org/2000/svg">
  <defs
     id="defs1">
    <inkscape:path-effect
       effect="fillet_chamfer"
       id="path-effect1"
       is_visible="true"
       lpeversion="1"
       nodesatellites_param="F,0,1,1,0,2.4021288,0,1 @ F,0,1,1,0,2.4021288,0,1 @ F,0,1,1,0,2.4021288,0,1 @ F,0,1,1,0,2.4021288,0,1 @ F,0,1,1,0,2.4021288,0,1 @ F,0,1,1,0,2.4021288,0,1 @ F,0,1,1,0,2.4021288,0,1 @ F,0,1,1,0,2.4021288,0,1 @ F,0,1,1,0,2.4021288,0,1 @ F,0,1,1,0,2.4021288,0,1 @ F,0,1,1,0,2.4021288,0,1 @ F,0,1,1,0,2.4021288,0,1 @ F,0,1,1,0,2.4021288,0,1 @ F,0,1,1,0,2.4021288,0,1 @ F,0,1,1,0,2.4021288,0,1 @ F,0,0,1,0,2.4021288,0,1 @ F,0,1,1,0,2.4021288,0,1 @ F,0,1,1,0,2.4021288,0,1 | F,0,1,1,0,2.4021288,0,1 @ F,0,1,1,0,2.4021288,0,1 @ F,0,1,1,0,2.4021288,0,1 @ F,0,1,1,0,2.4021288,0,1 | F,0,1,1,0,2.4021288,0,1 @ F,0,1,1,0,2.4021288,0,1 @ F,0,1,1,0,2.4021288,0,1 @ F,0,1,1,0,2.4021288,0,1 | F,0,1,1,0,2.4021288,0,1 @ F,0,1,1,0,2.4021288,0,1 @ F,0,1,1,0,2.4021288,0,1 @ F,0,1,1,0,2.4021288,0,1 @ F,0,1,1,0,2.4021288,0,1 | F,0,1,1,0,2.4021288,0,1 @ F,0,1,1,0,2.4021288,0,1 @ F,0,1,1,0,2.4021288,0,1 @ F,0,1,1,0,2.4021288,0,1 @ F,0,1,1,0,2.4021288,0,1 | F,0,1,1,0,2.4021288,0,1 @ F,0,1,1,0,2.4021288,0,1 @ F,0,1,1,0,2.4021288,0,1 @ F,0,1,1,0,2.4021288,0,1 @ F,0,1,1,0,2.4021288,0,1 @ F,0,1,1,0,2.4021288,0,1 @ F,0,1,1,0,2.4021288,0,1 @ F,0,1,1,0,2.4021288,0,1 @ F,0,1,1,0,2.4021288,0,1 @ F,0,1,1,0,2.4021288,0,1 @ F,0,1,1,0,2.4021288,0,1 @ F,0,1,1,0,2.4021288,0,1 @ F,0,1,1,0,2.4021288,0,1 @ F,0,1,1,0,2.4021288,0,1 @ F,0,1,1,0,2.4021288,0,1 @ F,0,1,1,0,2.4021288,0,1 @ F,0,1,1,0,2.4021288,0,1 @ F,0,1,1,0,2.4021288,0,1 @ F,0,1,1,0,2.4021288,0,1 | F,0,1,1,0,2.4021288,0,1 @ F,0,1,1,0,2.4021288,0,1 @ F,0,1,1,0,2.4021288,0,1 @ F,0,1,1,0,2.4021288,0,1 @ F,0,1,1,0,2.4021288,0,1 @ F,0,1,1,0,2.4021288,0,1 @ F,0,1,1,0,2.4021288,0,1 @ F,0,1,1,0,2.4021288,0,1 @ F,0,1,1,0,2.4021288,0,1 @ F,0,1,1,0,2.4021288,0,1 @ F,0,1,1,0,2.4021288,0,1 @ F,0,1,1,0,2.4021288,0,1 @ F,0,1,1,0,2.4021288,0,1 @ F,0,1,1,0,2.4021288,0,1 @ F,0,1,1,0,2.4021288,0,1 @ F,0,1,1,0,2.4021288,0,1 @ F,0,1,1,0,2.4021288,0,1 @ F,0,1,1,0,2.4021288,0,1 @ F,0,1,1,0,2.4021288,0,1 @ F,0,1,1,0,2.4021288,0,1 @ F,0,1,1,0,2.4021288,0,1 | F,0,1,1,0,2.4021288,0,1 @ F,0,1,1,0,2.4021288,0,1 @ F,0,1,1,0,2.4021288,0,1 @ F,0,1,1,0,2.4021288,0,1 @ F,0,1,1,0,2.4021288,0,1 | F,0,1,1,0,2.4021288,0,1 @ F,0,1,1,0,2.4021288,0,1 @ F,0,1,1,0,2.4021288,0,1 @ F,0,1,1,0,2.4021288,0,1 @ F,0,1,1,0,2.4021288,0,1 | F,0,1,1,0,2.4021288,0,1 @ F,0,1,1,0,2.4021288,0,1 @ F,0,1,1,0,2.4021288,0,1 @ F,0,1,1,0,2.4021288,0,1 | F,0,1,1,0,2.4021288,0,1 @ F,0,1,1,0,2.4021288,0,1 @ F,0,1,1,0,2.4021288,0,1 @ F,0,1,1,0,2.4021288,0,1 | F,0,1,1,0,2.4021288,0,1 @ F,0,1,1,0,2.4021288,0,1 @ F,0,1,1,0,2.4021288,0,1 @ F,0,1,1,0,2.4021288,0,1 @ F,0,1,1,0,2.4021288,0,1 @ F,0,1,1,0,2.4021288,0,1 @ F,0,1,1,0,2.4021288,0,1 @ F,0,1,1,0,2.4021288,0,1 @ F,0,1,1,0,2.4021288,0,1 @ F,0,1,1,0,2.4021288,0,1 @ F,0,1,1,0,2.4021288,0,1 @ F,0,1,1,0,2.4021288,0,1 | F,0,1,1,0,2.4021288,0,1 @ F,0,1,1,0,2.4021288,0,1 @ F,0,1,1,0,2.4021288,0,1 | F,0,1,1,0,2.4021288,0,1 @ F,0,1,1,0,2.4021288,0,1 @ F,0,1,1,0,2.4021288,0,1 | F,0,1,1,0,2.4021288,0,1 @ F,0,1,1,0,2.4021288,0,1 @ F,0,1,1,0,2.4021288,0,1 @ F,0,1,1,0,2.4021288,0,1 @ F,0,1,1,0,2.4021288,0,1 | F,0,1,1,0,2.4021288,0,1 @ F,0,1,1,0,2.4021288,0,1 @ F,0,1,1,0,2.4021288,0,1 @ F,0,1,1,0,2.4021288,0,1 | F,0,1,1,0,2.4021288,0,1 @ F,0,1,1,0,2.4021288,0,1 @ F,0,1,1,0,2.4021288,0,1 @ F,0,1,1,0,2.4021288,0,1 | F,0,1,1,0,2.4021288,0,1 @ F,0,1,1,0,2.4021288,0,1 @ F,0,1,1,0,2.4021288,0,1 @ F,0,1,1,0,2.4021288,0,1"
       radius="0"
       unit="px"
       method="auto"
       mode="F"
       chamfer_steps="1"
       flexible="false"
       use_knot_distance="true"
       apply_no_radius="true"
       apply_with_radius="true"
       only_selected="false"
       hide_knots="false" />
  </defs>
  <sodipodi:namedview
     id="namedview1"
     pagecolor="#ffffff"
     bordercolor="#000000"
     borderopacity="0.25"
     inkscape:showpageshadow="2"
     inkscape:pageopacity="0.0"
     inkscape:pagecheckerboard="0"
     inkscape:deskcolor="#d1d1d1"
     inkscape:zoom="0.60565583"
     inkscape:cx="-55.311941"
     inkscape:cy="411.12458"
     inkscape:window-width="1712"
     inkscape:window-height="971"
     inkscape:window-x="0"
     inkscape:window-y="39"
     inkscape:window-maximized="1"
     inkscape:current-layer="svg1" />
  <path
     fill="#460d08"
     d="m 253.6031,33.138766 c -7.98369,0.884932 -18.95682,5.97856 -30.73688,14.596035 -1.07073,0.783276 -2.78408,2.083936 -3.82936,2.900866 -12.65868,9.893249 -26.03493,23.190629 -38.67734,37.486698 -0.87884,0.993799 -2.2952,2.612606 -3.16354,3.615599 -18.22732,21.053676 -34.65533,43.862736 -45.53838,60.761656 -0.7183,1.11535 -0.43424,2.66868 0.62708,3.46469 l 45.73864,34.30538 a 11.894314,11.894314 25.453351 0 0 4.25209,2.02389 l 44.56918,11.14184 a 2.5940292,2.5940292 151.23532 0 0 3.09003,-1.69628 l 0.76876,-2.30628 a 2.4020444,2.4020444 153.43596 0 1 3.03845,-1.51916 l 12.51634,4.1726 a 2.0912335,2.0912335 67.394944 0 1 1.21253,2.91219 l -19.92902,40.2297 a 5.4664694,5.4664694 92.630815 0 0 -0.20188,4.3937 l 27.45746,71.18987 a 0.90151166,0.90151166 179.47967 0 0 1.68799,-0.0153 l 25.84759,-70.82089 a 5.9836517,5.9836517 88.177701 0 0 -0.14178,-4.45616 l -17.76271,-40.47376 a 2.1912064,2.1912064 113.93391 0 1 1.31348,-2.95932 l 12.51634,-4.1726 a 2.4017294,2.4017294 26.567801 0 1 3.03815,1.51926 l 0.76836,2.30608 a 2.5936881,2.5936881 28.768434 0 0 3.08973,1.69638 l 44.56918,-11.14184 a 11.89461,11.89461 154.54693 0 0 4.2521,-2.02388 l 45.73962,-34.3054 c 1.06132,-0.79601 1.34538,-2.34934 0.62707,-3.46471 -10.88305,-16.89892 -27.31106,-39.70798 -45.53838,-60.761646 -0.86833,-1.002982 -2.28471,-2.621761 -3.16359,-3.615539 -12.64238,-14.295193 -26.01856,-27.592535 -38.67639,-37.486598 -1.04522,-0.817003 -2.75853,-2.117696 -3.82928,-2.900936 -11.78087,-8.617514 -22.75411,-13.711166 -30.73783,-14.596104 -1.31792,-0.146082 -3.47589,-0.146082 -4.79381,-1e-6 z m -87.08612,96.394184 35.19361,23.14603 a 15.837379,15.837379 41.956594 0 1 3.53229,3.17565 l 24.72181,30.07667 a 0.43464825,0.43464825 130.32488 0 1 -0.55356,0.65215 l -71.84226,-41.5929 a 2.4017276,2.4017276 75.073368 0 1 -0.87497,-3.28221 l 6.6122,-11.41668 a 2.2694426,2.2694426 166.70508 0 1 3.21088,-0.75871 z m 182.17692,0.75871 6.6122,11.41668 a 2.4017276,2.4017276 104.92663 0 1 -0.87497,3.28221 l -71.84226,41.5929 a 0.34310288,0.34310288 51.802679 0 1 -0.42007,-0.53386 l 31.37618,-32.86322 a 25.933534,25.933534 138.96594 0 1 3.6085,-3.14058 l 28.38682,-20.42962 a 2.1756775,2.1756775 12.089894 0 1 3.1536,0.67549 z M 18.874017,148.35742 c 30.606001,31.99809 60.555785,70.76217 73.843805,107.85687 0.44739,1.24892 1.33388,1.33823 2.043107,0.21713 0.833309,-1.31723 1.710591,-2.61465 2.62244,-3.89308 0.770331,-1.08002 2.062029,-2.80033 2.881911,-3.84327 4.21974,-5.36778 9.0518,-10.49702 13.99187,-15.53619 0.92865,-0.94728 1.06663,-2.59267 0.35889,-3.71466 -7.42787,-11.77552 -10.14026,-25.95685 -11.11228,-38.48692 -0.10261,-1.32267 -0.99635,-3.08073 -2.02533,-3.91812 -27.775765,-22.60412 -51.511221,-35.59338 -81.889434,-40.08185 -1.312393,-0.19391 -1.631982,0.44137 -0.714979,1.40009 z M 492.413,146.95734 c -30.37732,4.48848 -54.11365,17.47774 -81.88943,40.08185 -1.02898,0.83739 -1.92272,2.59545 -2.02532,3.91812 -0.97193,12.5301 -3.68358,26.71145 -11.1122,38.48699 -0.70778,1.12194 -0.56979,2.76737 0.35893,3.71474 4.94003,5.03925 9.77205,10.16907 13.99175,15.53627 0.81986,1.04282 2.11143,2.76314 2.88182,3.84316 0.91193,1.27846 1.7893,2.57559 2.62222,3.8926 0.70906,1.12117 1.59504,1.03215 2.04246,-0.21677 13.28895,-37.09471 43.23875,-75.85879 73.84476,-107.85689 0.917,-0.95871 0.5974,-1.59398 -0.71499,-1.40007 z M 121.069,170.254 c -0.0186,18.10269 -1.16803,41.97736 7.86855,53.58191 0.81443,1.04587 2.34698,2.5615 3.28515,3.49952 l 2.9666,2.96614 a 2.4017513,2.4017513 90 0 1 0,3.39686 l -2.9666,2.96614 c -0.93817,0.93802 -2.46247,2.45614 -3.36759,3.42599 -6.24121,6.68762 -9.88117,13.21875 -14.24263,19.37006 -0.76641,1.08092 -2.06214,2.79696 -2.82104,3.88504 -3.11282,4.46307 -5.13346,8.54852 -6.08068,12.15322 -0.33697,1.28235 0.53124,2.73073 1.77343,3.19653 l 76.61962,28.73118 c 1.24219,0.4658 2.85622,-0.0445 3.62395,-1.1264 3.83101,-5.39896 7.9637,-10.48027 12.2312,-14.94543 0.9166,-0.95905 2.43949,-2.47826 3.37755,-3.41637 l 12.63198,-12.63278 a 0.95360587,0.95360587 23.345944 0 1 1.62751,0.70247 l -0.528,17.85684 c -0.0392,1.32608 -0.10328,3.47607 -0.13943,4.80223 -0.17973,6.59375 -0.2754,12.74423 -0.20311,18.60721 0.0163,1.32647 1.04654,2.77923 2.28875,3.24502 l 26.34158,9.87724 a 1.0605413,1.0605413 134.3759 0 0 1.35704,-1.38692 L 215.59917,251.2303 A 3.5481035,3.5481035 34.098695 0 0 212.30487,249 h -46.17574 a 5.7995588,5.7995588 157.50107 0 0 -4.10076,1.6985 l -9.96674,9.966 a 2.4022187,2.4022187 0.00107187 0 1 -3.39719,-6e-5 l -9.32888,-9.32888 a 2.402235,2.402235 89.998734 0 1 -7e-5,-3.3972 l 7.91502,-7.91572 a 4.3125121,4.3125121 105.87906 0 0 1.14836,-4.03692 l -12.43074,-52.83544 a 6.6193083,6.6193083 56.814951 0 0 -2.47185,-3.77954 l -10.42756,-7.82048 c -1.06134,-0.79599 -1.95693,-1.3765 -1.99972,-1.29626 z m 267.86423,1.29619 -10.42846,7.82062 a 6.6189612,6.6189612 123.18601 0 0 -2.4719,3.77947 l -12.43074,52.83544 a 4.3125121,4.3125121 74.120943 0 0 1.14836,4.03692 l 7.91502,7.91572 a 2.402235,2.402235 90.001266 0 1 -7e-5,3.3972 l -9.32888,9.32888 a 2.4023086,2.4023086 179.99786 0 1 -3.39725,1.3e-4 l -9.96762,-9.96614 A 5.7998657,5.7998657 22.497856 0 0 345.87087,249 h -46.17574 a 3.5480635,3.5480635 145.90101 0 0 -3.29428,2.23031 l -31.1127,77.77938 a 1.0605053,1.0605053 45.622779 0 0 1.35703,1.38685 l 26.34364,-9.87908 c 1.24219,-0.46583 2.27222,-1.9187 2.28847,-3.24526 0.0718,-5.86217 -0.0233,-12.01232 -0.20289,-18.60519 -0.0361,-1.32609 -0.10028,-3.47601 -0.13961,-4.80208 l -0.52958,-17.85686 a 0.95352663,0.95352663 156.65064 0 1 1.62735,-0.70251 l 12.63288,12.63288 c 0.93809,0.93809 2.46094,2.45735 3.37744,3.41651 4.26679,4.46539 8.39933,9.54784 12.23028,14.94633 0.76775,1.0819 2.38183,1.5921 3.62402,1.12628 l 50.69364,-19.01012 a 568281.22,568281.22 159.4442 0 1 4.49837,-1.68686 l 21.42762,-8.03516 c 1.24219,-0.46581 2.11045,-1.91417 1.77351,-3.19651 -0.94719,-3.60494 -2.96789,-7.68958 -6.08084,-12.15313 -0.75887,-1.08813 -2.05957,-2.80346 -2.78343,-3.91495 -3.99653,-6.13673 -5.81058,-12.65097 -11.74114,-19.32112 -0.88124,-0.99113 -2.40844,-2.50712 -3.34661,-3.44514 l -2.9666,-2.96614 a 2.4017513,2.4017513 90 0 1 0,-3.39686 l 2.9666,-2.96614 c 0.93817,-0.93802 2.47284,-2.45326 3.2742,-3.50925 8.80924,-11.60838 5.56332,-35.47475 5.32928,-51.17093 -0.0198,-1.32604 -0.0464,-2.46528 -0.0878,-2.54625 l 0.001,0 z m -231.03877,22.97326 7.31697,34.1278 A 2.9717321,2.9717321 38.949515 0 0 168.11713,231 h 12.48074 a 2.7349414,2.7349414 138.70681 0 0 2.71208,-2.38205 l 2.47484,-19.01981 a 2.6855072,2.6855072 55.601668 0 0 -2.02294,-2.95462 l -8.42173,-2.06697 a 11.622943,11.622943 25.466708 0 1 -4.24768,-2.02301 l -11.78676,-8.9284 a 0.89227793,0.89227793 147.52137 0 0 -1.41122,0.89831 z m 195.27448,0.11577 -12.85924,9.0697 a 10.913822,10.913822 157.21731 0 1 -4.32588,1.8169 l -10.21493,1.86922 a 2.2714984,2.2714984 123.02915 0 0 -1.79919,2.76744 l 4.4666,18.50247 A 3.0510206,3.0510206 38.214057 0 0 331.40213,231 h 12.48074 a 3.0302517,3.0302517 141.59558 0 0 2.9503,-2.33875 l 7.75059,-33.06779 a 0.91280197,0.91280197 33.9978 0 0 -1.41482,-0.95424 z m -154.50542,16.60569 2.05434,17.36959 A 2.7029768,2.7029768 41.627414 0 0 203.40213,231 l 14.37574,0 a 3.1963641,3.1963641 143.07444 0 0 3.07024,-2.30735 l 3.37912,-11.66983 a 2.2520407,2.2520407 59.301834 0 0 -1.67749,-2.82542 l -21.82276,-4.81992 a 1.7071051,1.7071051 137.85481 0 0 -2.06346,1.86743 z m 111.8002,-1.14689 -22.59316,5.48375 a 2.0411007,2.0411007 116.71186 0 0 -1.39833,2.77885 l 4.41175,10.42712 A 3.6246434,3.6246434 33.533289 0 0 294.22213,231 l 14.37574,0 a 2.6117261,2.6117261 137.39378 0 0 2.60261,-2.39375 l 1.39711,-16.68107 a 1.7315008,1.7315008 40.572346 0 0 -2.13387,-1.82716 z m -204.69869,70.67429 c -0.074,1.68017 -0.16584,3.91188 -0.23478,5.59217 -0.0544,1.32516 0.11707,3.45282 0.41221,4.74621 8.2659,36.22319 33.94546,76.19496 63.76203,115.52385 0.80149,1.05718 2.10475,2.76835 2.9146,3.81914 14.62122,18.97135 30.02062,35.69421 44.28095,47.82009 1.01066,0.85939 2.66698,2.23187 3.70229,3.0614 13.10322,10.49877 25.14072,16.43708 33.00344,17.49371 1.31386,0.17656 3.47461,0.17656 4.78848,-1e-5 7.86273,-1.05663 19.90023,-6.99495 33.00343,-17.49371 1.03531,-0.82952 2.69162,-2.202 3.70229,-3.06139 14.26033,-12.12589 29.65973,-28.84875 44.28095,-47.8201 0.80984,-1.05079 2.1134,-2.76173 2.91146,-3.82151 29.83122,-39.61463 55.83,-88.39516 64.10575,-124.9938 0.29259,-1.29397 0.48048,-2.91221 0.39287,-3.60336 l -46.69457,70.04429 a 16.561933,16.561933 131.94173 0 1 -3.17779,3.53652 l -99.07328,82.56138 a 2.8825433,2.8825433 0 0 1 -3.69072,0 l -99.07328,-82.56138 a 16.311072,16.311072 48.1834 0 1 -3.16905,-3.54232 l -44.70299,-67.69566 c -0.73106,-1.10706 -1.38596,-0.93083 -1.44429,0.39448 z m 27.60895,19.9304 c 11.57334,12.15017 18.60178,29.87444 30.83184,41.15425 0.97482,0.89908 2.14489,0.56123 2.68209,-0.65118 2.30673,-5.20612 7.28205,-13.31264 10.21982,-18.53215 0.65041,-1.15559 0.17761,-2.55768 -1.02625,-3.11513 l -42.22067,-19.55033 c -1.20386,-0.55745 -1.40177,-0.266 -0.48683,0.69454 z m 243.3806,1.94135 -40.80472,17.32338 c -1.22117,0.51844 -1.70575,1.88923 -1.00853,3.01761 3.08995,5.00077 8.65264,12.25292 11.12927,17.2302 0.59043,1.18658 1.72195,1.47837 2.66013,0.54046 11.29484,-11.29174 18.02986,-25.25596 28.62257,-37.27038 0.87721,-0.99494 0.62245,-1.35971 -0.59872,-0.84127 z m -174.5001,5.9047 c -2.01209,4.70547 -5.49958,14.81663 -7.39133,19.56098 -0.49112,1.23169 -1.479,3.14301 -2.09695,4.31695 -0.17826,0.33865 -0.35867,0.68391 -0.5408,1.03502 -0.61089,1.17763 -1.57966,3.09813 -2.16515,4.2886 -2.92272,5.94267 -5.8627,12.55069 -7.24353,16.90924 -0.40049,1.26413 0.16898,3.03975 1.15195,3.93071 l 19.49351,17.66881 c 0.98297,0.89096 1.47944,0.57883 1.21328,-0.7205 -3.11979,-15.23 -1.15644,-51.15262 -1.32277,-66.74689 -0.0141,-1.32633 -0.57708,-1.46163 -1.09821,-0.24292 z m 105.04443,-0.77153 c -0.10789,15.53747 2.40526,50.89602 -0.65483,66.06943 -0.26214,1.29983 0.25858,1.63972 1.2717,0.7832 L 326.9618,358.5279 c 1.01312,-0.85652 1.61038,-2.60398 1.24425,-3.87881 -1.64552,-5.72952 -5.4942,-15.33579 -8.98864,-22.21387 -0.60087,-1.18268 -1.59911,-3.08848 -2.12734,-4.30509 -2.13463,-4.9165 -6.4008,-15.74519 -8.65566,-20.619 -0.5562,-1.2022 -1.12629,-1.06049 -1.1355,0.2661 z m -15.71162,27.99173 -24.98421,8.29694 a 3.3288372,3.3288372 125.81467 0 0 -2.27971,3.15919 v 63.61666 c 0,1.32666 0.66667,1.55798 1.51683,0.53956 8.34573,-9.99757 18.03766,-17.73129 22.88961,-24.08195 0.80498,-1.05362 1.85956,-2.93075 2.3689,-4.15545 6.14242,-14.76945 1.56806,-32.10446 2.53414,-45.74259 0.0937,-1.32265 -0.78651,-2.05047 -2.04556,-1.63236 z m -73.23335,1.63646 c 0.88607,14.35129 -4.54186,38.09874 3.88804,52.02775 0.68626,1.13393 1.99857,2.84227 2.82889,3.87692 5.01002,6.2429 10.75616,11.77854 19.4104,19.0677 1.0147,0.85465 1.85258,0.4663 1.86551,-0.86029 l 0.62981,-64.63085 a 3.2824178,3.2824178 54.361023 0 0 -2.25902,-3.15083 l -24.30214,-7.9731 c -1.26055,-0.41356 -2.14323,0.3188 -2.06149,1.6427 z"
     id="path1"
     style="fill:#000080"
     sodipodi:nodetypes="scccccccccccccccccscccccccccccccccccccccccccccccccccccccccccccccccccccscsccccccccccccccccccccccccccccccccccccsccccccccccccccccccsccccccccccccccsccc"
     inkscape:path-effect="#path-effect1"
     inkscape:original-d="m 256,33 c -8.5,0 -21.318,5.745 -35.06,16.17 -13.743,10.425 -28.429,25.055 -42.167,40.756 -19.597,22.397 -37.26,47.053 -48.41,64.597 l 49.582,37.188 49.23,12.307 2.288,-6.864 17.074,5.692 -22.06162,44.53468 29.1863,75.67229 27.49473,-75.33397 -19.69341,-44.873 17.074,-5.692 2.287,6.864 49.23,-12.307 49.583,-37.188 c -11.15,-17.544 -28.813,-42.2 -48.41,-64.597 C 319.489,74.226 304.803,59.596 291.061,49.17 277.318,38.745 264.5,33 256,33 Z m -91.49,95.213 39.20757,25.78593 27.77243,33.78807 -76,-44 z m 182.98,0 9.02,15.574 -76,44 34.69378,-36.33804 z M 17.21,146.625 c 31.804,32.973 63.213,73.408 76.3,111.857 1.59,-2.708 3.38,-5.333 5.292,-7.882 5.009,-6.68 11.036,-12.972 17.14,-19.153 -8.95,-12.884 -11.752,-29.088 -12.605,-42.886 C 74.029,164.419 49.421,150.868 17.21,146.625 Z m 477.582,0 c -32.21,4.243 -56.819,17.794 -86.127,41.936 -0.853,13.798 -3.654,30.002 -12.605,42.886 6.104,6.181 12.131,12.474 17.14,19.153 1.912,2.55 3.703,5.174 5.291,7.882 13.088,-38.449 44.497,-78.884 76.301,-111.857 z m -373.645,23.484 c -0.023,0.045 -0.054,0.1 -0.078,0.145 0.137,16.376 -1.833,44.095 9.455,55.383 l 6.364,6.363 -6.364,6.363 c -8,8 -11.9,15.805 -17.324,23.037 -4.688,6.251 -7.327,11.823 -7.965,16.452 l 81.118,30.418 c 4.7,-6.847 9.904,-13.253 15.285,-18.633 l 16.029,-16.03 -0.67,22.659 c -0.25,8.431 -0.383,16.131 -0.232,23.41 L 247.605,331.24 214.707,249 h -50.98 l -13.364,13.363 -12.726,-12.726 11.312,-11.313 -13.531,-57.512 z m 269.708,0 -14.272,10.703 -13.531,57.512 11.312,11.313 -12.726,12.726 L 348.273,249 h -50.98 l -32.897,82.24 30.842,-11.566 c 0.15,-7.278 0.018,-14.978 -0.232,-23.408 l -0.672,-22.659 16.03,16.03 c 5.38,5.38 10.584,11.788 15.284,18.634 l 55.192,-20.697 25.926,-9.722 c -0.638,-4.63 -3.277,-10.2 -7.965,-16.452 -5.424,-7.232 -6.764,-15.037 -14.764,-23.037 l -6.364,-6.363 6.364,-6.363 c 11.288,-11.288 6.758,-39.007 6.895,-55.383 -0.024,-0.045 -0.055,-0.1 -0.078,-0.145 z M 157.39089,192.1747 165.715,231 H 183 l 3.09474,-23.78391 -13.08751,-3.21211 z m 197.74104,1.08001 -16.78522,11.83872 -14.94071,2.734 L 329,231 h 17.285 z M 198.38138,208.85941 201,231 h 19.18 l 4.71534,-16.28453 z m 114.41669,0.67202 -27.26186,6.61693 L 291.82,231 H 311 Z m -206.91244,68.84189 c -0.0552,0.41699 -0.43259,9.97048 -0.45531,10.39051 7.79,37.424 34.64668,78.98817 65.72768,119.78317 15.682,20.582 32.34,38.649 47.582,51.271 C 233.983,472.441 248,479 256,479 c 8,0 22.017,-6.559 37.26,-19.182 15.242,-12.622 31.9,-30.689 47.582,-51.271 31.081,-40.795 58.277,-91.832 66.066,-129.256 -0.02,-0.41 -0.063,-0.83 -0.117,-1.256 L 358.764,350.078 256,435.715 153.236,350.078 Z m 25.7954,20.6255 c 13.18536,12.70206 20.35129,32.79037 34.3295,44.44202 1.753,-5.409 9.33373,-17.33399 12.25073,-22.87299 z m 247.28467,2.70652 -45.22696,19.20082 c 2.917,5.539 11.51267,16.11073 13.26567,21.51973 12.94471,-12.11164 19.86681,-27.73432 31.96129,-40.72055 z m -175.6616,4.68516 c -1.782,2.76 -7.8781,21.1205 -9.4041,23.9185 -0.8604,1.57774 -1.80278,3.37757 -2.7686,5.29124 -3.82734,7.5835 -8.02268,16.9547 -8.94255,21.3768 l 23.05315,20.89525 c -4.116,-14.232 -1.4659,-56.80479 -1.9379,-71.48179 z m 104.03854,-1.01494 c -0.472,14.677 2.85473,56.57316 -1.26127,70.80516 l 22.71484,-19.20368 C 327.64421,351.43904 322.371,338.139 318.1,330.309 c -1.527,-2.798 -8.97536,-22.17344 -10.75736,-24.93344 z m -13.47564,29.63634 -29.54363,9.81106 v 68.42092 c 9.52069,-11.99554 21.39108,-20.83402 25.77709,-27.91562 8.04,-16.081 1.90154,-35.70136 3.76654,-50.31636 z m -75.734,0.002 c 1.864,14.614 -5.44025,42.10601 5.45812,56.40403 5.71068,7.49209 12.13126,13.68196 22.73225,22.50158 L 247,344.48464 Z"
     transform="translate(-18.350847,-33.029235)" />
</svg>
