<?xml version="1.0" encoding="UTF-8" standalone="no"?>
<!-- Uploaded to: SVG Repo, www.svgrepo.com, Generator: SVG Repo Mixer Tools -->

<svg
   width="737.79846"
   height="748.05469"
   viewBox="0 0 472.19102 478.755"
   version="1.1"
   id="svg1"
   sodipodi:docname="griffin.svg"
   inkscape:version="1.4.2 (ebf0e940, 2025-05-08)"
   xmlns:inkscape="http://www.inkscape.org/namespaces/inkscape"
   xmlns:sodipodi="http://sodipodi.sourceforge.net/DTD/sodipodi-0.dtd"
   xmlns="http://www.w3.org/2000/svg"
   xmlns:svg="http://www.w3.org/2000/svg">
  <defs
     id="defs1" />
  <sodipodi:namedview
     id="namedview1"
     pagecolor="#ffffff"
     bordercolor="#000000"
     borderopacity="0.25"
     inkscape:showpageshadow="2"
     inkscape:pageopacity="0.0"
     inkscape:pagecheckerboard="0"
     inkscape:deskcolor="#d1d1d1"
     inkscape:zoom="0.06625"
     inkscape:cx="369.81132"
     inkscape:cy="362.26415"
     inkscape:window-width="896"
     inkscape:window-height="245"
     inkscape:window-x="0"
     inkscape:window-y="39"
     inkscape:window-maximized="0"
     inkscape:current-layer="svg1" />
  <path
     fill="#460d08"
     d="m 199.85,0 c 4.052,15.357 3.397,24.041 25.824,32.28 -11.984,2.437 -17.24,4.507 -36.502,-4.966 3.663,15.35 4.19,26.554 30.022,29.95 -12.1,29.8 -9.43,68.721 6.771,101.05 C 182.269,117.118 156.049,7.872 160.894,0.406 144.316,15.624 131.593,30.846 122.521,52 c -17.433,59.912 -22.848,130.145 11.465,186.052 18.791,24.069 46.468,35.866 82.117,25.237 -19.815,21.2 -61.112,22.051 -60.274,51.793 -23.867,0.12 -62.388,50.074 -80.752,28.255 -17.04,-20.245 42.624,-48.484 36.143,-74.14 C 106.312,249.77 68.534,242.995 40.99,219.554 48.905,190.405 25.562,180.36 0,173.859 c 12.544,14.59 14.274,38.384 8.67,52.271 0.993,0.497 13.347,-1.809 17.945,2.08 19.335,16.358 78.757,33.365 61.193,52.356 -21.627,23.384 -54.648,50.988 -38.718,75.239 18.849,28.694 75.356,19.427 105.27,-3.641 -0.646,21.619 -16.875,46.225 -47.435,52.722 -11.366,1.646 -5.19,37.526 -33.92,56.473 5.498,4.408 31.43,21.09 38.424,16.185 16.572,-11.619 36.787,-25.491 61.875,1.211 -7.23,-29.056 -14.994,-37.351 -56.01,-30.507 8.758,-9.139 37.773,-18.964 55.918,-10.903 54.972,-19.776 31.988,-37.868 66.926,-72.05 30.825,9.253 22.75,44.758 43.98,56.726 29.066,-5.264 44.414,-10.73 51.756,-2.137 7.306,9.274 11.514,11.72 29.24,11.084 11.7,2.646 23.577,15.721 2.686,33.266 40.79,-5.645 37.187,-35.145 10.467,-53.123 8.726,-30.173 36.299,-6.263 48.135,3.957 -6.592,-41.814 -51.232,-51.059 -69.44,-16.371 -11.71,-8.922 -21.316,-18.63 -40.031,-20.047 3.35,-27.712 -1.264,-36.928 -8.512,-55.35 15.492,-14.416 27.208,-27.594 37.441,-44.102 37.842,7.222 90.616,15.978 79.995,51.612 40.211,-42.77 -8.803,-40.885 -4.623,-54.281 4.071,-13.05 30.22,-16.567 39.304,4.453 4,-40.592 -44.39,-41.118 -52.69,-21.375 -19.237,-0.065 -27.955,-9.57 -43.263,-19.854 a 159.814,159.814 0 0 0 6.06,-26.912 c 16.883,-4.655 34.953,-7.128 49.891,-20.533 25.367,9.855 42.736,-4.934 42.174,-27.07 0,0 -32.033,35.189 -33.7,-1.795 -0.681,-15.082 18.625,-29.18 43.183,-13.656 -17.624,-40.296 -63.094,-24.75 -62.852,16.8 -15.843,7.322 -28.376,7.113 -41.28,2.614 -10.32,-30.437 -43.035,-39.44 -60.757,-52.116 -10.889,-7.788 9.06,-25.721 27.973,-17.61 18.912,8.11 36.923,-1.29 45.836,-10.24 -26.242,2.808 -48.716,-14.667 -48.141,-17.93 0.6,-3.41 29.811,-7.592 51.326,5.825 C 382.731,42.539 353.463,41.347 332.216,40.025 313.424,5.088 288.917,1.441 261.154,15.277 241.81,13.896 217.422,8.612 199.851,0 Z M 65.248,6.751 a 2.007,2.007 0 0 0 -0.265,0.604 c 0.09,-0.202 0.174,-0.402 0.265,-0.604 z M 64.983,7.355 C 21.53,103.889 48.88,187.125 106.071,222.914 85.124,172.761 88.141,116.447 100.104,66.344 80.946,40.88 63.227,13.535 64.983,7.355 Z m 221.45,17.627 c 1.756,0 29.795,15.652 29.795,15.652 l -23.078,3.16 z"
     id="path1"
     style="fill:#000080" />
</svg>
