<?xml version="1.0" encoding="UTF-8" standalone="no"?>
<svg
   viewBox="232.828 244.87 109.636 83.769"
   width="109.636px"
   height="83.769px"
   version="1.1"
   id="svg13"
   sodipodi:docname="island.svg"
   inkscape:version="1.4.2 (ebf0e940, 2025-05-08)"
   xmlns:inkscape="http://www.inkscape.org/namespaces/inkscape"
   xmlns:sodipodi="http://sodipodi.sourceforge.net/DTD/sodipodi-0.dtd"
   xmlns="http://www.w3.org/2000/svg"
   xmlns:svg="http://www.w3.org/2000/svg">
  <defs
     id="defs13">
    <inkscape:path-effect
       effect="fillet_chamfer"
       id="path-effect1"
       is_visible="true"
       lpeversion="1"
       nodesatellites_param="F,0,1,1,0,1.6168307,0,1 @ F,0,0,1,0,1.6168307,0,1 @ F,0,1,1,0,1.6168307,0,1 @ F,0,1,1,0,1.6168307,0,1 @ F,0,1,1,0,1.6168307,0,1 @ F,0,1,1,0,1.6168307,0,1 @ F,0,1,1,0,1.6168307,0,1 @ F,0,1,1,0,1.6168307,0,1 @ F,0,1,1,0,1.6168307,0,1"
       radius="0"
       unit="px"
       method="auto"
       mode="F"
       chamfer_steps="1"
       flexible="false"
       use_knot_distance="true"
       apply_no_radius="true"
       apply_with_radius="true"
       only_selected="false"
       hide_knots="false" />
  </defs>
  <sodipodi:namedview
     id="namedview13"
     pagecolor="#ffffff"
     bordercolor="#000000"
     borderopacity="0.25"
     inkscape:showpageshadow="2"
     inkscape:pageopacity="0.0"
     inkscape:pagecheckerboard="0"
     inkscape:deskcolor="#d1d1d1"
     inkscape:zoom="9.1127579"
     inkscape:cx="45.81489"
     inkscape:cy="44.33345"
     inkscape:window-width="1712"
     inkscape:window-height="971"
     inkscape:window-x="0"
     inkscape:window-y="39"
     inkscape:window-maximized="1"
     inkscape:current-layer="object-0" />
  <g
     id="object-0"
     transform="matrix(1, 0, 0, 1, -7.105427357601002e-15, 0)"
     style="fill:#000080;fill-opacity:1">
    <g
       transform="matrix(1, 0, 0, 1, 19.913378, 0.329741)"
       id="g3"
       style="fill:#000080;fill-opacity:1">
      <path
         d="M 264.556 266.289 L 256.216 266.289 C 255.036 266.289 254.626 265.499 255.316 264.539 L 259.486 258.699 C 259.976 257.999 260.796 257.999 261.286 258.699 L 265.456 264.539 C 266.146 265.499 265.736 266.289 264.556 266.289 Z"
         fill="#292D32"
         style="stroke-width:1;fill:#000080;fill-opacity:1"
         id="path1" />
      <path
         d="M 265.976 274.228 L 254.796 274.228 C 253.216 274.228 252.676 273.178 253.606 271.898 L 257.596 266.288 L 263.176 266.288 L 267.166 271.898 C 268.096 273.178 267.556 274.228 265.976 274.228 Z"
         fill="#292D32"
         style="stroke-width:1;fill:#000080;fill-opacity:1"
         id="path2" />
      <path
         d="M 261.136 274.229 L 261.136 278.229 C 261.136 278.639 260.796 278.979 260.386 278.979 C 259.976 278.979 259.636 278.639 259.636 278.229 L 259.636 274.229 L 261.136 274.229 Z"
         fill="#292D32"
         style="stroke-width:1;fill:#000080;fill-opacity:1"
         id="path3" />
    </g>
    <path
       fill="#460d08"
       d="m 327.45417,278.73438 -80.86634,0.0192 a 0.85919841,0.85919841 117.97295 0 0 -0.71176,1.34015 l 15.78286,23.36346 a 0.80343593,0.80343593 172.38325 0 0 1.4263,-0.19074 l 1.06154,-3.11698 a 0.48791106,0.48791106 2.0147174 0 1 0.93363,0.0328 l 3.2492,12.3173 a 0.68861414,0.68861414 8.2918099 0 0 1.25385,0.18273 l 4.4941,-7.37376 a 0.78714845,0.78714845 5.4021678 0 1 1.40918,0.13326 l 8.13154,21.68324 a 0.88175811,0.88175811 8.0495678 0 0 1.53299,0.2168 l 13.51348,-18.15884 a 1.9302245,1.9302245 166.60679 0 1 2.41149,-0.5742 l 3.28554,1.64224 a 1.901617,1.901617 166.18512 0 0 2.3923,-0.58826 l 21.37086,-29.61772 a 0.82690722,0.82690722 62.899487 0 0 -0.67076,-1.31076 z"
       style="fill:#000080;fill-opacity:1;stroke-width:1"
       id="path4"
       inkscape:path-effect="#path-effect1"
       inkscape:original-d="m 329.071,278.734 -84.1,0.02 17.593,26.043 2.104,-6.178 4.074,15.444 6.177,-10.135 9.267,24.711 15.444,-20.753 6.178,3.088 z" />
    <g
       transform="matrix(0.726619, 0, 0, 0.726619, 81.219963, 77.508858)"
       style="fill:#000080;fill-opacity:1"
       id="g7">
      <path
         d="M 264.556 266.289 L 256.216 266.289 C 255.036 266.289 254.626 265.499 255.316 264.539 L 259.486 258.699 C 259.976 257.999 260.796 257.999 261.286 258.699 L 265.456 264.539 C 266.146 265.499 265.736 266.289 264.556 266.289 Z"
         fill="#292D32"
         style="stroke-width:1;fill:#000080;fill-opacity:1"
         id="path5" />
      <path
         d="M 265.976 274.228 L 254.796 274.228 C 253.216 274.228 252.676 273.178 253.606 271.898 L 257.596 266.288 L 263.176 266.288 L 267.166 271.898 C 268.096 273.178 267.556 274.228 265.976 274.228 Z"
         fill="#292D32"
         style="stroke-width:1;fill:#000080;fill-opacity:1"
         id="path6" />
      <path
         d="M 261.136 274.229 L 261.136 278.229 C 261.136 278.639 260.796 278.979 260.386 278.979 C 259.976 278.979 259.636 278.639 259.636 278.229 L 259.636 274.229 L 261.136 274.229 Z"
         fill="#292D32"
         style="stroke-width:1;fill:#000080;fill-opacity:1"
         id="path7" />
    </g>
    <g
       transform="matrix(0.730693, 0, 0, 0.730693, 99.369339, 75.985329)"
       style="fill:#000080;fill-opacity:1"
       id="g10">
      <path
         d="M 264.556 266.289 L 256.216 266.289 C 255.036 266.289 254.626 265.499 255.316 264.539 L 259.486 258.699 C 259.976 257.999 260.796 257.999 261.286 258.699 L 265.456 264.539 C 266.146 265.499 265.736 266.289 264.556 266.289 Z"
         fill="#292D32"
         style="stroke-width:1;fill:#000080;fill-opacity:1"
         id="path8" />
      <path
         d="M 265.976 274.228 L 254.796 274.228 C 253.216 274.228 252.676 273.178 253.606 271.898 L 257.596 266.288 L 263.176 266.288 L 267.166 271.898 C 268.096 273.178 267.556 274.228 265.976 274.228 Z"
         fill="#292D32"
         style="stroke-width:1;fill:#000080;fill-opacity:1"
         id="path9" />
      <path
         d="M 261.136 274.229 L 261.136 278.229 C 261.136 278.639 260.796 278.979 260.386 278.979 C 259.976 278.979 259.636 278.639 259.636 278.229 L 259.636 274.229 L 261.136 274.229 Z"
         fill="#292D32"
         style="stroke-width:1;fill:#000080;fill-opacity:1"
         id="path10" />
    </g>
    <path
       d="M 327.828 296.165 C 332.447 296.165 336.192 299.909 336.192 304.528 L 338.282 304.528 C 340.591 304.528 342.464 306.401 342.464 308.709 L 313.193 308.709 C 313.193 305.247 316.001 302.437 319.465 302.437 L 319.728 302.437 C 320.657 298.83 323.931 296.165 327.828 296.165 Z"
       fill="#460d08"
       style="stroke-width:1;fill:#000080;fill-opacity:1"
       id="path11" />
    <path
       d="M 247.463 309.431 C 252.082 309.431 255.827 313.175 255.827 317.794 L 257.917 317.794 C 260.226 317.794 262.099 319.667 262.099 321.975 L 232.828 321.975 C 232.828 318.513 235.636 315.703 239.1 315.703 L 239.363 315.703 C 240.292 312.096 243.566 309.431 247.463 309.431 Z"
       fill="#460d08"
       style="stroke-width:1;fill:#000080;fill-opacity:1"
       id="path12" />
    <path
       d="M 314.896 244.87 C 319.515 244.87 323.26 248.614 323.26 253.233 L 325.35 253.233 C 327.659 253.233 329.532 255.106 329.532 257.414 L 300.261 257.414 C 300.261 253.952 303.069 251.142 306.533 251.142 L 306.796 251.142 C 307.725 247.535 310.999 244.87 314.896 244.87 Z"
       fill="#460d08"
       style="stroke-width:1;fill:#000080;fill-opacity:1"
       id="path13" />
  </g>
</svg>
