<?xml version="1.0" encoding="utf-8"?>
<svg xmlns="http://www.w3.org/2000/svg" viewBox="232.828 244.87 109.636 83.769" width="109.636px" height="83.769px"><g id="object-0" transform="matrix(1, 0, 0, 1, -7.105427357601002e-15, 0)"><g transform="matrix(1, 0, 0, 1, 19.913378, 0.329741)"><path d="M 264.556 266.289 L 256.216 266.289 C 255.036 266.289 254.626 265.499 255.316 264.539 L 259.486 258.699 C 259.976 257.999 260.796 257.999 261.286 258.699 L 265.456 264.539 C 266.146 265.499 265.736 266.289 264.556 266.289 Z" fill="#292D32" style="stroke-width: 1;"/><path d="M 265.976 274.228 L 254.796 274.228 C 253.216 274.228 252.676 273.178 253.606 271.898 L 257.596 266.288 L 263.176 266.288 L 267.166 271.898 C 268.096 273.178 267.556 274.228 265.976 274.228 Z" fill="#292D32" style="stroke-width: 1;"/><path d="M 261.136 274.229 L 261.136 278.229 C 261.136 278.639 260.796 278.979 260.386 278.979 C 259.976 278.979 259.636 278.639 259.636 278.229 L 259.636 274.229 L 261.136 274.229 Z" fill="#292D32" style="stroke-width: 1;"/></g><path fill="#460d08" d="M 329.071 278.734 L 244.971 278.754 L 262.564 304.797 L 264.668 298.619 L 268.742 314.063 L 274.919 303.928 L 284.186 328.639 L 299.63 307.886 L 305.808 310.974 L 329.071 278.734 Z" style="stroke-width: 1;"/><g transform="matrix(0.726619, 0, 0, 0.726619, 81.219963, 77.508858)" style=""><path d="M 264.556 266.289 L 256.216 266.289 C 255.036 266.289 254.626 265.499 255.316 264.539 L 259.486 258.699 C 259.976 257.999 260.796 257.999 261.286 258.699 L 265.456 264.539 C 266.146 265.499 265.736 266.289 264.556 266.289 Z" fill="#292D32" style="stroke-width: 1;"/><path d="M 265.976 274.228 L 254.796 274.228 C 253.216 274.228 252.676 273.178 253.606 271.898 L 257.596 266.288 L 263.176 266.288 L 267.166 271.898 C 268.096 273.178 267.556 274.228 265.976 274.228 Z" fill="#292D32" style="stroke-width: 1;"/><path d="M 261.136 274.229 L 261.136 278.229 C 261.136 278.639 260.796 278.979 260.386 278.979 C 259.976 278.979 259.636 278.639 259.636 278.229 L 259.636 274.229 L 261.136 274.229 Z" fill="#292D32" style="stroke-width: 1;"/></g><g transform="matrix(0.730693, 0, 0, 0.730693, 99.369339, 75.985329)" style=""><path d="M 264.556 266.289 L 256.216 266.289 C 255.036 266.289 254.626 265.499 255.316 264.539 L 259.486 258.699 C 259.976 257.999 260.796 257.999 261.286 258.699 L 265.456 264.539 C 266.146 265.499 265.736 266.289 264.556 266.289 Z" fill="#292D32" style="stroke-width: 1;"/><path d="M 265.976 274.228 L 254.796 274.228 C 253.216 274.228 252.676 273.178 253.606 271.898 L 257.596 266.288 L 263.176 266.288 L 267.166 271.898 C 268.096 273.178 267.556 274.228 265.976 274.228 Z" fill="#292D32" style="stroke-width: 1;"/><path d="M 261.136 274.229 L 261.136 278.229 C 261.136 278.639 260.796 278.979 260.386 278.979 C 259.976 278.979 259.636 278.639 259.636 278.229 L 259.636 274.229 L 261.136 274.229 Z" fill="#292D32" style="stroke-width: 1;"/></g><path d="M 327.828 296.165 C 332.447 296.165 336.192 299.909 336.192 304.528 L 338.282 304.528 C 340.591 304.528 342.464 306.401 342.464 308.709 L 313.193 308.709 C 313.193 305.247 316.001 302.437 319.465 302.437 L 319.728 302.437 C 320.657 298.83 323.931 296.165 327.828 296.165 Z" fill="#460d08" style="stroke-width: 1;"/><path d="M 247.463 309.431 C 252.082 309.431 255.827 313.175 255.827 317.794 L 257.917 317.794 C 260.226 317.794 262.099 319.667 262.099 321.975 L 232.828 321.975 C 232.828 318.513 235.636 315.703 239.1 315.703 L 239.363 315.703 C 240.292 312.096 243.566 309.431 247.463 309.431 Z" fill="#460d08" style="stroke-width: 1;"/><path d="M 314.896 244.87 C 319.515 244.87 323.26 248.614 323.26 253.233 L 325.35 253.233 C 327.659 253.233 329.532 255.106 329.532 257.414 L 300.261 257.414 C 300.261 253.952 303.069 251.142 306.533 251.142 L 306.796 251.142 C 307.725 247.535 310.999 244.87 314.896 244.87 Z" fill="#460d08" style="stroke-width: 1;"/></g></svg>