<?xml version="1.0" encoding="utf-8"?>
<svg xmlns="http://www.w3.org/2000/svg" viewBox="381.5361 203.274 101.0909 120.23" width="101.091px" height="120.23px" preserveAspectRatio="none"><g id="object-0"><path d="M 467.887 278.324 C 467.797 281.384 466.857 285.794 465.067 285.994 L 460.087 286.254 C 459.117 286.254 458.597 285.024 458.537 284.194 L 458.697 282.854 C 458.517 282.814 458.327 282.744 458.157 282.624 C 457.797 282.384 457.107 281.664 457.037 280.624 C 456.967 279.544 457.547 278.444 458.777 277.364 C 458.977 277.184 459.187 277.034 459.397 276.884 C 460.117 276.364 460.637 275.984 460.697 274.454 C 460.747 273.374 458.757 266.654 457.407 262.404 L 453.307 253.174 C 452.797 265.404 451.507 271.244 451.497 271.304 C 451.467 271.414 451.407 271.504 451.327 271.574 L 437.407 283.044 C 437.297 283.134 437.167 283.174 437.027 283.154 C 436.891 283.142 436.768 283.073 436.687 282.964 L 427.107 270.214 C 427.044 270.126 427.009 270.021 427.007 269.914 L 427.007 252.074 C 425.077 253.724 421.277 256.914 418.397 258.354 C 416.577 259.274 408.887 260.344 402.827 261.154 C 401.447 261.344 400.067 261.154 398.897 261.384 C 398.307 261.504 397.767 261.734 397.317 262.164 C 396.767 262.694 395.877 262.994 394.897 263.144 C 392.897 263.454 390.557 263.084 390.167 262.504 C 389.497 261.514 389.777 258.944 389.837 257.224 C 389.957 253.894 394.787 252.064 398.137 253.294 C 399.777 253.034 409.357 250.494 414.417 249.134 C 415.367 248.204 422.547 241.234 425.417 239.484 C 428.067 237.874 433.637 237.444 435.337 237.354 L 435.137 227.324 C 435.137 227.174 435.197 227.034 435.297 226.944 C 435.407 226.844 435.547 226.794 435.697 226.814 L 444.657 227.834 C 444.907 227.864 445.097 228.074 445.097 228.334 L 445.137 237.514 C 447.227 237.574 455.287 238.014 458.987 240.944 C 462.667 243.864 465.787 259.494 465.917 260.154 L 465.917 260.164 C 466.007 260.634 468.067 271.844 467.887 278.324 Z" fill="#460d08" style="stroke-width: 1;"/><path d="M 449.827 219.944 L 430.187 219.944 C 428.067 219.944 426.337 221.794 426.337 224.044 C 426.337 226.304 428.067 228.144 430.187 228.144 L 449.827 228.144 C 451.947 228.144 453.677 226.294 453.677 224.044 C 453.677 221.784 451.937 219.944 449.827 219.944 L 449.827 219.944 Z" fill="#460d08" style="stroke-width: 1;"/><path d="M 440.007 205.804 C 433.757 205.804 427.967 212.494 427.967 222.114 C 427.967 231.684 433.937 236.414 440.007 236.414 C 446.077 236.414 452.047 231.684 452.047 222.114 C 452.047 212.484 446.257 205.804 440.007 205.804 Z" fill="#460d08" style="stroke-width: 1;"/><g fill="#49362e" transform="matrix(1, 0, 0, 1, 375.006775, 198.50354)"><ellipse cx="59.09" cy="24.45" rx="1.77" ry="1.83" style="fill:none;"/><ellipse cx="70.91" cy="24.45" rx="1.77" ry="1.83" style="fill:none;"/></g><path d="M 441.397 226.274 C 441.357 226.254 441.317 226.254 441.277 226.244 L 438.737 226.244 C 438.697 226.244 438.657 226.254 438.617 226.274 C 438.387 226.364 438.257 226.604 438.367 226.864 C 438.477 227.114 438.977 227.834 439.997 227.834 C 441.017 227.834 441.527 227.124 441.627 226.864 C 441.747 226.604 441.627 226.364 441.397 226.274 L 441.397 226.274 Z" fill="#460d08" style="stroke-width: 1;"/><path d="M 443.027 229.184 C 441.887 229.864 438.127 229.864 436.987 229.184 C 436.327 228.794 435.657 229.394 435.927 229.984 C 436.197 230.574 438.247 231.934 440.017 231.934 C 441.787 231.934 443.807 230.574 444.077 229.984 C 444.347 229.384 443.687 228.794 443.027 229.184 Z" fill="#460d08" style="stroke-width: 1;"/><path d="M 440.017 203.274 C 440.007 203.274 440.007 203.274 440.017 203.274 L 440.007 203.274 C 423.677 203.354 427.017 222.004 427.017 222.004 L 428.197 225.164 C 428.197 225.164 429.837 217.944 430.567 215.984 C 430.937 214.994 431.967 214.414 433.007 214.604 C 434.607 214.894 437.157 215.254 439.967 215.254 L 440.027 215.254 C 442.837 215.254 445.387 214.894 446.987 214.604 C 448.027 214.414 449.057 214.994 449.427 215.984 C 450.167 217.944 451.797 225.164 451.797 225.164 C 452.107 224.854 452.977 222.004 452.977 222.004 C 452.977 222.004 456.337 203.354 440.017 203.274 Z" fill="#460d08" style="stroke-width: 1;"/><path d="M 479.657 304.564 C 479.457 304.624 479.257 304.674 479.057 304.714 C 478.427 304.844 477.777 304.884 477.137 304.884 C 476.227 304.884 475.307 304.804 474.397 304.754 C 473.767 304.724 473.147 304.704 472.517 304.704 C 470.957 304.704 469.397 304.814 467.847 305.014 C 466.777 305.154 465.657 305.224 464.627 305.524 C 464.367 305.604 462.027 306.504 461.937 306.504 C 461.637 306.504 461.747 305.164 461.657 304.604 C 461.527 303.844 461.327 303.134 461.057 302.414 C 460.077 299.764 457.817 298.024 456.697 295.484 C 456.177 294.304 455.927 292.954 456.207 291.684 C 456.357 291.004 456.887 289.254 457.257 288.854 C 457.077 289.054 456.677 289.144 456.437 289.264 C 455.797 289.584 455.197 289.984 454.657 290.444 C 453.367 291.554 452.457 293.054 451.707 294.574 C 450.147 297.704 449.197 301.614 449.747 305.124 C 450.227 308.174 451.947 310.974 453.707 313.444 C 451.837 314.954 449.597 316.354 447.307 316.354 C 447.097 316.354 446.887 316.344 446.677 316.314 C 443.007 315.874 441.007 314.374 441.007 308.374 C 441.007 288.624 453.507 291.934 451.507 270.814 C 451.497 270.704 451.417 270.664 451.267 270.664 C 450.077 270.664 444.577 273.774 437.617 273.774 C 437.277 273.774 436.927 273.764 436.587 273.754 C 428.547 273.394 427.457 269.074 427.077 269.074 C 427.057 269.074 427.027 269.094 427.007 269.134 C 424.947 272.954 423.797 278.254 423.007 282.514 C 419.757 299.974 422.227 315.974 432.887 321.634 C 435.277 322.904 438.197 323.504 441.217 323.504 C 447.467 323.504 454.127 320.924 457.387 316.384 C 460.357 317.524 463.027 318.014 465.417 318.014 C 477.277 318.014 482.287 305.994 482.627 302.024 C 482.177 303.294 480.967 304.164 479.657 304.564 L 479.657 304.564 Z M 461.907 307.504 L 461.957 307.504 C 461.937 307.514 461.927 307.514 461.907 307.514 L 461.637 307.514 L 461.637 307.504 L 461.907 307.504 Z" fill="#460d08" style="stroke-width: 1;"/><g><path d="M 426.407 276.514 C 426.407 276.514 426.437 276.664 426.507 276.884 C 426.577 277.084 426.707 277.354 426.877 277.604 C 427.057 277.864 427.277 278.114 427.547 278.364 C 427.667 278.494 427.837 278.594 427.967 278.724 C 428.107 278.844 428.267 278.954 428.427 279.044 C 428.437 279.054 428.647 279.184 428.647 279.174 C 428.687 279.204 428.767 279.234 428.837 279.264 C 428.987 279.304 429.137 279.394 429.307 279.424 C 429.637 279.504 429.977 279.544 430.297 279.544 C 430.617 279.534 430.917 279.504 431.137 279.454 C 431.367 279.404 431.507 279.364 431.507 279.364 L 431.587 279.444 C 431.587 279.444 431.507 279.544 431.337 279.684 C 431.167 279.834 430.907 280.024 430.547 280.174 C 430.197 280.324 429.747 280.424 429.257 280.414 C 428.777 280.404 428.247 280.264 427.817 279.984 C 426.947 279.424 426.357 278.504 426.217 277.744 C 426.067 276.974 426.327 276.464 426.297 276.484 L 426.407 276.514 L 426.407 276.514 Z" fill="#460d08" style="stroke-width: 1; fill:none;"/><path d="M 433.497 279.864 C 433.497 279.864 433.617 279.924 433.817 280.034 C 433.997 280.124 434.267 280.254 434.547 280.374 C 434.837 280.494 435.147 280.594 435.457 280.684 C 435.617 280.734 435.777 280.744 435.937 280.784 C 436.097 280.814 436.247 280.834 436.407 280.844 C 436.417 280.854 436.647 280.874 436.657 280.864 C 436.707 280.874 436.797 280.864 436.877 280.864 C 437.037 280.844 437.197 280.864 437.357 280.844 C 437.677 280.814 437.997 280.754 438.297 280.684 C 438.887 280.534 439.397 280.324 439.397 280.324 L 439.487 280.384 C 439.487 280.384 439.427 280.484 439.297 280.634 C 439.167 280.794 438.977 281.004 438.697 281.214 C 438.417 281.424 438.067 281.624 437.657 281.774 C 437.247 281.914 436.767 281.984 436.307 281.954 C 435.367 281.864 434.537 281.344 434.067 280.844 C 433.87 280.646 433.699 280.424 433.557 280.184 C 433.457 280.014 433.407 279.914 433.407 279.914 L 433.497 279.864 L 433.497 279.864 Z" fill="#460d08" style="stroke-width: 1; fill:none;"/><path d="M 435.467 283.624 C 435.467 283.624 435.567 283.704 435.757 283.844 C 435.917 283.964 436.167 284.134 436.417 284.294 C 436.687 284.454 436.977 284.604 437.267 284.744 C 437.417 284.814 437.577 284.854 437.717 284.924 C 437.867 284.984 438.017 285.024 438.167 285.054 C 438.177 285.064 438.397 285.114 438.417 285.114 C 438.467 285.124 438.547 285.134 438.627 285.144 C 438.787 285.154 438.947 285.194 439.107 285.194 C 439.427 285.214 439.757 285.204 440.067 285.184 C 440.667 285.134 441.207 285.004 441.207 285.004 L 441.287 285.084 C 441.287 285.084 441.207 285.174 441.057 285.304 C 440.907 285.444 440.677 285.614 440.377 285.784 C 440.077 285.944 439.687 286.094 439.257 286.174 C 438.827 286.254 438.347 286.244 437.897 286.144 C 436.977 285.914 436.247 285.264 435.857 284.694 C 435.657 284.414 435.527 284.154 435.457 283.964 C 435.377 283.774 435.347 283.674 435.347 283.674 L 435.467 283.624 L 435.467 283.624 Z" fill="#460d08" style="stroke-width: 1; fill:none;"/><path d="M 440.427 280.834 L 440.777 280.914 C 440.977 280.954 441.267 281.004 441.567 281.044 C 441.877 281.074 442.207 281.084 442.527 281.084 C 442.687 281.084 442.857 281.044 443.017 281.044 C 443.177 281.034 443.337 281.004 443.477 280.964 C 443.487 280.964 443.717 280.924 443.727 280.914 C 443.777 280.904 443.857 280.874 443.927 280.854 C 444.067 280.794 444.237 280.764 444.377 280.684 C 444.677 280.554 444.957 280.404 445.227 280.244 C 445.477 280.084 445.717 279.914 445.877 279.784 C 446.047 279.644 446.147 279.564 446.147 279.564 L 446.257 279.594 C 446.257 279.594 446.227 279.704 446.157 279.894 C 446.087 280.084 445.967 280.354 445.777 280.644 C 445.577 280.934 445.307 281.234 444.947 281.494 C 444.597 281.754 444.157 281.964 443.707 282.064 C 442.777 282.264 441.827 281.994 441.227 281.644 C 440.927 281.474 440.697 281.284 440.557 281.144 C 440.407 281.004 440.337 280.914 440.337 280.914 L 440.427 280.834 L 440.427 280.834 Z" fill="#460d08" style="stroke-width: 1; fill:none;"/><path d="M 424.407 283.054 C 424.417 283.044 424.417 283.224 424.487 283.444 C 424.547 283.654 424.677 283.934 424.857 284.194 C 424.947 284.324 425.067 284.454 425.177 284.584 C 425.307 284.704 425.447 284.844 425.587 284.974 C 425.737 285.104 425.897 285.224 426.057 285.354 C 426.207 285.484 426.417 285.604 426.567 285.694 C 426.697 285.784 426.747 285.804 426.817 285.844 C 426.897 285.874 426.987 285.924 427.077 285.954 C 427.247 286.034 427.437 286.104 427.627 286.154 C 427.817 286.184 428.007 286.264 428.197 286.284 C 428.387 286.304 428.567 286.334 428.747 286.344 C 429.097 286.364 429.417 286.344 429.657 286.314 C 429.897 286.284 430.047 286.254 430.047 286.254 L 430.117 286.344 C 430.117 286.344 430.017 286.434 429.817 286.574 C 429.617 286.714 429.317 286.874 428.927 286.994 C 428.537 287.114 428.057 287.174 427.547 287.134 C 427.037 287.094 426.487 286.954 426.017 286.674 C 425.077 286.104 424.367 285.184 424.197 284.364 C 424.097 283.964 424.137 283.604 424.197 283.374 C 424.257 283.134 424.317 283.024 424.317 283.024 L 424.407 283.054 L 424.407 283.054 Z" fill="#460d08" style="stroke-width: 1; fill:none;"/><path d="M 430.537 286.304 C 430.537 286.304 430.637 286.384 430.817 286.534 C 430.977 286.664 431.207 286.844 431.457 287.014 C 431.717 287.184 431.997 287.354 432.287 287.514 C 432.427 287.594 432.587 287.644 432.727 287.714 C 432.877 287.784 433.027 287.834 433.177 287.874 C 433.187 287.884 433.407 287.954 433.417 287.954 C 433.467 287.974 433.547 287.984 433.627 288.004 C 433.787 288.024 433.937 288.074 434.107 288.084 C 434.427 288.124 434.757 288.134 435.067 288.124 C 435.367 288.114 435.657 288.084 435.867 288.054 C 436.087 288.024 436.217 288.004 436.217 288.004 L 436.297 288.084 C 436.297 288.084 436.217 288.164 436.057 288.294 C 435.897 288.424 435.667 288.584 435.347 288.734 C 434.727 289.034 433.767 289.224 432.857 288.944 C 431.957 288.664 431.257 287.974 430.897 287.384 C 430.717 287.094 430.597 286.824 430.537 286.634 C 430.467 286.444 430.447 286.334 430.447 286.334 L 430.537 286.304 L 430.537 286.304 Z" fill="#460d08" style="stroke-width: 1; fill:none;"/><path d="M 437.257 288.354 L 437.557 288.544 C 437.727 288.644 437.977 288.784 438.237 288.914 C 438.507 289.034 438.807 289.154 439.097 289.244 C 439.247 289.294 439.397 289.304 439.547 289.354 C 439.697 289.384 439.837 289.404 439.987 289.414 C 440.177 289.434 440.267 289.444 440.427 289.444 C 440.577 289.424 440.727 289.444 440.887 289.424 C 441.197 289.394 441.507 289.334 441.797 289.264 C 442.367 289.114 442.867 288.904 442.867 288.904 L 442.957 288.964 C 442.957 288.964 442.897 289.064 442.777 289.214 C 442.37 289.737 441.822 290.133 441.197 290.354 C 440.797 290.494 440.337 290.564 439.877 290.534 C 438.947 290.434 438.167 289.884 437.737 289.364 C 437.517 289.104 437.377 288.864 437.287 288.684 C 437.197 288.504 437.157 288.404 437.157 288.404 L 437.257 288.354 L 437.257 288.354 Z" fill="#460d08" style="stroke-width: 1; fill:none;"/><path d="M 423.387 292.054 C 423.387 292.054 423.417 292.204 423.477 292.404 C 423.537 292.584 423.657 292.844 423.807 293.074 C 423.977 293.314 424.167 293.544 424.397 293.774 C 424.507 293.894 424.657 293.994 424.767 294.114 C 424.897 294.224 425.027 294.334 425.167 294.424 C 425.276 294.508 425.393 294.582 425.517 294.644 C 425.647 294.694 425.777 294.784 425.917 294.814 C 426.207 294.904 426.507 294.974 426.807 295.004 C 427.097 295.024 427.387 295.014 427.587 294.984 C 427.807 294.954 427.937 294.934 427.937 294.934 L 428.017 295.014 C 428.017 295.014 427.937 295.104 427.767 295.224 C 427.607 295.354 427.347 295.514 427.017 295.634 C 426.677 295.754 426.267 295.824 425.817 295.784 C 425.377 295.754 424.897 295.594 424.497 295.314 C 423.727 294.744 423.217 293.874 423.127 293.164 C 423.027 292.444 423.287 291.984 423.267 291.994 L 423.387 292.054 Z" fill="#460d08" style="stroke-width: 1; fill:none;"/><path d="M 428.137 295.064 C 428.137 295.064 428.237 295.144 428.407 295.274 C 428.557 295.384 428.787 295.544 429.017 295.704 C 429.257 295.854 429.527 296.004 429.787 296.134 C 429.917 296.204 430.067 296.244 430.187 296.314 C 430.317 296.374 430.457 296.414 430.587 296.454 C 430.587 296.464 430.797 296.524 430.807 296.524 C 430.847 296.544 430.917 296.554 430.997 296.564 C 431.137 296.574 431.277 296.634 431.427 296.644 C 431.717 296.684 432.017 296.704 432.297 296.714 C 432.857 296.714 433.377 296.644 433.377 296.644 L 433.457 296.724 C 433.457 296.724 433.377 296.804 433.237 296.914 C 433.097 297.034 432.877 297.184 432.587 297.324 C 432.017 297.604 431.117 297.774 430.277 297.524 C 429.437 297.264 428.797 296.624 428.467 296.084 C 428.297 295.814 428.187 295.564 428.127 295.384 C 428.067 295.204 428.037 295.104 428.037 295.104 L 428.137 295.064 L 428.137 295.064 Z" fill="#460d08" style="stroke-width: 1; fill:none;"/><path d="M 433.557 296.814 C 433.557 296.814 433.657 296.884 433.837 296.994 C 433.997 297.094 434.227 297.224 434.467 297.344 C 434.717 297.464 434.987 297.574 435.247 297.664 C 435.377 297.714 435.517 297.724 435.647 297.774 C 435.777 297.814 435.907 297.834 436.027 297.844 C 436.207 297.874 436.267 297.884 436.417 297.894 C 436.547 297.884 436.687 297.914 436.827 297.904 C 437.107 297.894 437.387 297.874 437.667 297.834 C 438.197 297.744 438.687 297.584 438.687 297.584 L 438.777 297.654 C 438.777 297.654 438.717 297.744 438.597 297.874 C 438.2 298.341 437.675 298.681 437.087 298.854 C 436.707 298.964 436.277 299.004 435.857 298.954 C 435.007 298.814 434.307 298.254 433.937 297.764 C 433.747 297.514 433.627 297.284 433.557 297.114 C 433.487 296.944 433.457 296.854 433.457 296.854 L 433.557 296.814 L 433.557 296.814 Z" fill="#460d08" style="stroke-width: 1; fill:none;"/><path d="M 430.287 274.674 C 430.287 274.674 430.397 274.774 430.577 274.934 C 430.747 275.084 430.997 275.284 431.267 275.494 C 431.547 275.694 431.867 275.894 432.197 276.074 C 432.357 276.164 432.547 276.224 432.707 276.314 C 432.877 276.384 433.047 276.444 433.227 276.484 C 433.247 276.494 433.477 276.564 433.507 276.564 C 433.567 276.584 433.667 276.594 433.757 276.614 C 433.937 276.624 434.127 276.674 434.307 276.684 C 434.677 276.704 435.047 276.694 435.387 276.664 C 435.727 276.624 436.037 276.574 436.267 276.524 C 436.507 276.474 436.637 276.444 436.637 276.444 L 436.717 276.524 C 436.717 276.524 436.627 276.614 436.457 276.764 C 436.287 276.914 436.027 277.104 435.687 277.274 C 435.347 277.444 434.907 277.594 434.427 277.664 C 433.947 277.734 433.417 277.714 432.917 277.574 C 431.907 277.284 431.117 276.524 430.707 275.884 C 430.497 275.564 430.367 275.264 430.287 275.054 C 430.207 274.844 430.177 274.724 430.177 274.724 L 430.287 274.674 L 430.287 274.674 Z" fill="#460d08" style="stroke-width: 1; fill:none;"/><path d="M 439.257 276.534 C 439.257 276.534 439.397 276.544 439.617 276.574 C 439.827 276.604 440.137 276.654 440.447 276.724 C 440.767 276.774 441.097 276.824 441.417 276.844 C 441.577 276.864 441.747 276.844 441.907 276.854 C 442.067 276.864 442.267 276.844 442.417 276.844 C 442.537 276.844 442.637 276.844 442.687 276.834 C 442.757 276.834 442.847 276.814 442.917 276.804 C 443.077 276.784 443.227 276.774 443.377 276.734 C 443.517 276.684 443.677 276.674 443.817 276.624 C 443.957 276.574 444.097 276.524 444.237 276.464 C 444.579 276.301 444.906 276.11 445.217 275.894 L 445.317 275.934 C 445.317 275.934 445.277 276.044 445.187 276.214 C 445.097 276.394 444.957 276.644 444.727 276.904 C 444.507 277.164 444.187 277.424 443.797 277.614 C 443.407 277.804 442.947 277.914 442.487 277.944 C 441.557 278.004 440.647 277.684 440.087 277.294 C 439.517 276.914 439.187 276.604 439.187 276.604 L 439.257 276.534 L 439.257 276.534 Z" fill="#460d08" style="stroke-width: 1; fill:none;"/><path d="M 428.057 281.734 C 428.057 281.734 428.167 281.834 428.347 281.994 C 428.517 282.144 428.767 282.344 429.037 282.554 C 429.317 282.754 429.637 282.954 429.967 283.134 C 430.127 283.224 430.317 283.284 430.477 283.374 C 430.647 283.444 430.817 283.504 430.997 283.544 C 431.017 283.554 431.247 283.624 431.277 283.624 C 431.337 283.644 431.437 283.654 431.527 283.674 C 431.707 283.684 431.897 283.734 432.077 283.744 C 432.447 283.764 432.817 283.754 433.157 283.724 C 433.497 283.684 433.807 283.634 434.037 283.584 C 434.277 283.534 434.407 283.504 434.407 283.504 L 434.487 283.584 C 434.487 283.584 434.397 283.674 434.227 283.824 C 434.057 283.974 433.797 284.164 433.457 284.334 C 433.117 284.504 432.677 284.654 432.197 284.724 C 431.717 284.794 431.187 284.774 430.687 284.634 C 429.677 284.344 428.887 283.584 428.477 282.944 C 428.267 282.624 428.137 282.324 428.057 282.114 C 427.977 281.904 427.947 281.784 427.947 281.784 L 428.057 281.734 L 428.057 281.734 Z" fill="#460d08" style="stroke-width: 1; fill:none;"/><path d="M 433.287 291.664 C 433.287 291.664 433.387 291.744 433.577 291.884 C 433.737 292.004 433.987 292.174 434.237 292.334 C 434.507 292.494 434.797 292.644 435.087 292.784 C 435.237 292.854 435.397 292.894 435.537 292.964 C 435.687 293.024 435.837 293.064 435.987 293.094 C 435.997 293.104 436.217 293.154 436.237 293.154 C 436.287 293.164 436.367 293.174 436.447 293.184 C 436.607 293.194 436.767 293.234 436.927 293.234 C 437.247 293.254 437.577 293.244 437.887 293.224 C 438.487 293.174 439.027 293.044 439.027 293.044 L 439.107 293.124 C 439.107 293.124 439.027 293.214 438.877 293.344 C 438.727 293.484 438.497 293.654 438.197 293.824 C 437.897 293.984 437.507 294.134 437.077 294.214 C 436.647 294.294 436.167 294.284 435.717 294.184 C 434.797 293.954 434.067 293.304 433.677 292.734 C 433.477 292.454 433.347 292.194 433.277 292.004 C 433.197 291.814 433.167 291.714 433.167 291.714 L 433.287 291.664 L 433.287 291.664 Z" fill="#460d08" style="stroke-width: 1; fill:none;"/><path d="M 426.057 288.494 C 426.057 288.494 426.157 288.594 426.327 288.784 C 426.477 288.944 426.717 289.174 426.967 289.394 C 427.227 289.624 427.537 289.844 427.847 290.054 C 427.997 290.164 428.177 290.234 428.337 290.334 C 428.497 290.424 428.667 290.504 428.837 290.554 C 428.847 290.564 429.087 290.654 429.117 290.654 C 429.177 290.674 429.267 290.704 429.357 290.724 C 429.537 290.754 429.717 290.824 429.897 290.834 C 430.267 290.884 430.637 290.904 430.977 290.904 C 431.317 290.894 431.627 290.874 431.857 290.834 C 432.097 290.804 432.237 290.784 432.237 290.784 L 432.307 290.874 C 432.307 290.874 432.207 290.964 432.027 291.094 C 431.847 291.224 431.567 291.394 431.207 291.544 C 430.847 291.684 430.407 291.804 429.917 291.824 C 429.437 291.854 428.907 291.774 428.417 291.604 C 427.437 291.224 426.707 290.404 426.357 289.724 C 426.177 289.384 426.067 289.084 426.007 288.864 C 425.947 288.644 425.927 288.524 425.927 288.524 L 426.057 288.494 L 426.057 288.494 Z" fill="#460d08" style="stroke-width: 1; fill:none;"/><path d="M 431.287 300.664 C 431.287 300.664 431.387 300.744 431.577 300.884 C 431.737 301.004 431.987 301.174 432.237 301.334 C 432.507 301.494 432.797 301.644 433.087 301.784 C 433.237 301.854 433.397 301.894 433.537 301.964 C 433.687 302.024 433.837 302.064 433.987 302.094 C 433.997 302.104 434.217 302.154 434.237 302.154 C 434.287 302.164 434.367 302.174 434.447 302.184 C 434.607 302.194 434.767 302.234 434.927 302.234 C 435.247 302.254 435.577 302.244 435.887 302.224 C 436.487 302.174 437.027 302.044 437.027 302.044 L 437.107 302.124 C 437.107 302.124 437.027 302.214 436.877 302.344 C 436.727 302.484 436.497 302.654 436.197 302.824 C 435.897 302.984 435.507 303.134 435.077 303.214 C 434.647 303.294 434.167 303.284 433.717 303.184 C 432.797 302.954 432.067 302.304 431.677 301.734 C 431.477 301.454 431.347 301.194 431.277 301.004 C 431.197 300.814 431.167 300.714 431.167 300.714 L 431.287 300.664 L 431.287 300.664 Z" fill="#460d08" style="stroke-width: 1; fill:none;"/><path d="M 424.057 298.494 C 424.057 298.494 424.157 298.594 424.327 298.784 C 424.477 298.944 424.717 299.174 424.967 299.394 C 425.227 299.624 425.537 299.844 425.847 300.054 C 425.997 300.164 426.177 300.234 426.337 300.334 C 426.497 300.424 426.667 300.504 426.837 300.554 C 426.847 300.564 427.087 300.654 427.117 300.654 C 427.177 300.674 427.267 300.704 427.357 300.724 C 427.537 300.754 427.717 300.824 427.897 300.834 C 428.267 300.884 428.637 300.904 428.977 300.904 C 429.317 300.894 429.627 300.874 429.857 300.834 C 430.097 300.804 430.237 300.784 430.237 300.784 L 430.307 300.874 C 430.307 300.874 430.207 300.964 430.027 301.094 C 429.847 301.224 429.567 301.394 429.207 301.544 C 428.847 301.684 428.407 301.804 427.917 301.824 C 427.437 301.854 426.907 301.774 426.417 301.604 C 425.437 301.224 424.707 300.404 424.357 299.724 C 424.177 299.384 424.067 299.084 424.007 298.864 C 423.947 298.644 423.927 298.524 423.927 298.524 L 424.057 298.494 L 424.057 298.494 Z" fill="#460d08" style="stroke-width: 1; fill:none;"/><path d="M 427.697 303.194 C 427.697 303.194 427.817 303.274 428.017 303.414 C 428.207 303.534 428.487 303.704 428.777 303.874 C 429.087 304.034 429.427 304.184 429.777 304.324 C 429.947 304.394 430.137 304.424 430.317 304.484 C 430.497 304.534 430.677 304.574 430.857 304.584 C 430.877 304.594 431.117 304.624 431.147 304.624 C 431.217 304.634 431.307 304.634 431.397 304.634 C 431.577 304.624 431.767 304.654 431.957 304.624 C 432.327 304.594 432.687 304.534 433.027 304.454 C 433.357 304.364 433.657 304.274 433.877 304.194 C 434.107 304.104 434.237 304.064 434.237 304.064 L 434.327 304.134 C 434.327 304.134 434.257 304.234 434.107 304.404 C 433.957 304.574 433.727 304.804 433.407 305.024 C 433.087 305.244 432.687 305.454 432.217 305.584 C 431.757 305.714 431.217 305.764 430.707 305.704 C 429.667 305.554 428.777 304.914 428.277 304.334 C 428.027 304.044 427.847 303.774 427.747 303.574 C 427.637 303.374 427.597 303.264 427.597 303.264 L 427.697 303.194 L 427.697 303.194 Z" fill="#460d08" style="stroke-width: 1; fill:none;"/><path d="M 459.247 313.554 C 459.247 313.554 459.527 313.104 460.067 312.544 C 460.607 311.984 461.417 311.324 462.297 310.794 C 463.187 310.274 464.157 309.874 464.907 309.684 C 465.657 309.474 466.187 309.454 466.187 309.454 C 466.187 309.454 465.777 309.794 465.137 310.204 C 464.507 310.624 463.657 311.144 462.797 311.654 C 461.937 312.154 461.077 312.644 460.397 312.994 C 459.747 313.354 459.247 313.554 459.247 313.554 L 459.247 313.554 Z" fill="#460d08" style="stroke-width: 1; fill:none;"/><path d="M 465.367 313.224 C 465.367 313.224 465.737 312.894 466.267 312.484 C 466.807 312.064 467.497 311.514 468.167 310.944 C 468.847 310.384 469.507 309.794 470.017 309.344 C 470.527 308.894 470.907 308.594 470.907 308.594 C 470.907 308.594 470.807 309.074 470.467 309.704 C 470.137 310.334 469.537 311.104 468.807 311.714 C 468.437 312.014 468.047 312.294 467.647 312.504 C 467.257 312.714 466.877 312.884 466.527 312.994 C 465.857 313.204 465.367 313.224 465.367 313.224 L 465.367 313.224 Z" fill="#460d08" style="stroke-width: 1; fill:none;"/><path d="M 471.217 312.844 C 471.217 312.844 471.287 312.754 471.427 312.604 C 471.557 312.464 471.747 312.254 471.977 312.004 C 473.031 310.857 473.963 309.604 474.757 308.264 C 475.087 307.704 475.337 307.294 475.337 307.294 C 475.337 307.294 475.417 307.764 475.297 308.454 C 475.247 308.804 475.127 309.194 474.957 309.604 C 474.787 310.014 474.537 310.414 474.277 310.804 C 473.987 311.174 473.667 311.524 473.327 311.804 C 472.987 312.084 472.647 312.314 472.327 312.464 C 471.677 312.794 471.217 312.844 471.217 312.844 L 471.217 312.844 Z" fill="#460d08" style="stroke-width: 1; fill:none;"/><path d="M 455.637 311.704 C 455.637 311.704 455.667 311.574 455.747 311.364 C 455.817 311.154 455.907 310.864 456.027 310.504 C 456.575 308.829 456.933 307.098 457.097 305.344 C 457.167 304.614 457.227 304.094 457.227 304.094 C 457.227 304.094 457.497 304.544 457.677 305.314 C 457.777 305.694 457.827 306.144 457.837 306.634 C 457.847 307.124 457.787 307.644 457.697 308.164 C 457.577 308.674 457.427 309.174 457.217 309.624 C 457.007 310.064 456.787 310.464 456.547 310.774 C 456.057 311.404 455.637 311.704 455.637 311.704 L 455.637 311.704 Z" fill="#460d08" style="stroke-width: 1; fill:none;"/><path d="M 454.597 309.254 C 454.597 309.254 454.437 309.134 454.207 308.864 C 453.977 308.594 453.687 308.154 453.497 307.564 C 453.297 306.974 453.187 306.254 453.197 305.484 C 453.207 305.094 453.237 304.714 453.297 304.314 C 453.357 303.924 453.427 303.534 453.507 303.144 C 453.677 302.374 453.857 301.634 453.987 300.934 C 454.107 300.244 454.167 299.594 454.167 299.034 C 454.157 298.474 454.087 298.004 454.007 297.674 C 453.927 297.344 453.857 297.154 453.857 297.154 C 453.857 297.154 453.997 297.294 454.187 297.594 C 454.377 297.894 454.607 298.364 454.737 298.964 C 454.877 299.564 454.927 300.284 454.867 301.054 C 454.817 301.814 454.647 302.594 454.497 303.354 C 454.407 303.734 454.327 304.104 454.257 304.474 C 454.197 304.834 454.117 305.204 454.077 305.544 C 453.997 306.234 453.987 306.884 454.057 307.434 C 454.117 307.984 454.257 308.444 454.377 308.764 C 454.497 309.064 454.597 309.254 454.597 309.254 L 454.597 309.254 Z" fill="#460d08" style="stroke-width: 1; fill:none;"/></g><path d="M 398.897 261.384 C 398.307 261.504 397.767 261.734 397.317 262.164 C 396.767 262.694 395.877 262.994 394.897 263.144 L 394.117 263.184 L 394.277 255.514 C 394.277 255.514 395.697 258.004 398.177 257.974 L 398.897 261.384 L 398.897 261.384 Z" fill="#460d08" style="stroke-width: 1;"/><path d="M 392.337 234.624 C 392.587 234.574 392.817 234.524 392.917 234.484 C 396.147 233.884 397.957 231.144 397.647 227.384 C 397.647 226.744 397.517 226.004 397.447 225.564 C 397.427 225.444 397.417 225.354 397.407 225.304 L 396.397 221.384 L 396.737 221.274 C 396.977 221.154 397.167 220.934 397.247 220.674 C 397.347 220.354 397.277 219.974 397.057 219.614 L 395.147 216.524 C 394.797 215.954 394.227 215.884 393.847 216.064 C 393.667 216.144 393.277 216.404 393.267 217.054 L 393.247 220.694 C 393.247 221.154 393.407 221.524 393.697 221.744 C 393.937 221.934 394.257 221.984 394.537 221.904 L 394.647 221.874 L 395.607 225.544 C 395.777 227.014 395.547 228.364 394.957 229.344 C 394.597 229.964 393.147 230.734 392.027 231.214 L 390.117 219.374 L 390.417 219.324 C 390.687 219.244 390.907 219.054 391.017 218.804 C 391.167 218.494 391.147 218.114 390.977 217.724 L 389.517 214.394 C 389.247 213.774 388.687 213.624 388.287 213.754 C 388.107 213.814 387.677 214.004 387.577 214.654 L 387.047 218.244 C 386.977 218.694 387.087 219.094 387.347 219.354 C 387.567 219.574 387.877 219.674 388.157 219.634 L 388.237 219.624 L 389.207 231.634 C 388.007 231.514 386.397 231.214 385.897 230.704 C 385.127 229.924 384.547 228.554 384.367 227.104 L 384.417 223.134 L 384.647 223.124 L 384.777 223.094 C 385.047 223.054 385.297 222.894 385.447 222.654 C 385.697 222.274 385.627 221.814 385.557 221.584 L 384.587 218.084 C 384.407 217.444 383.897 217.234 383.467 217.294 C 383.277 217.324 382.817 217.494 382.637 218.114 L 381.607 221.654 C 381.477 222.094 381.527 222.604 381.747 222.904 C 381.927 223.154 382.207 223.504 382.507 223.504 L 382.617 223.504 L 382.567 227.194 L 382.577 227.104 C 382.587 227.154 382.587 227.244 382.597 227.354 C 382.627 227.804 382.677 228.554 382.827 229.134 C 383.417 232.904 385.807 235.114 389.027 234.944 C 389.177 234.964 389.367 234.974 389.597 234.964 L 399.317 320.274 L 402.067 319.954 L 392.337 234.624 L 392.337 234.624 Z" fill="#460d08" style="stroke-width: 1;"/><path d="M 458.697 282.864 C 459.097 282.384 459.557 282.004 460.027 281.654 C 460.507 281.314 460.997 281.004 461.517 280.734 L 461.587 280.694 L 461.637 280.684 C 461.927 280.624 462.187 280.604 462.487 280.654 C 462.767 280.694 463.207 280.854 463.347 281.294 C 463.417 281.494 463.397 281.664 463.367 281.814 C 463.327 281.944 463.287 282.044 463.247 282.154 C 463.157 282.374 463.057 282.594 462.927 282.814 C 462.837 282.574 462.807 282.334 462.767 282.094 C 462.747 281.984 462.747 281.844 462.727 281.754 C 462.707 281.674 462.687 281.614 462.657 281.604 C 462.617 281.594 462.557 281.574 462.387 281.574 C 462.237 281.584 462.017 281.604 461.867 281.644 L 461.987 281.594 C 461.487 281.894 460.957 282.144 460.417 282.374 C 459.877 282.584 459.317 282.774 458.697 282.864 L 458.697 282.864 Z" fill="#460d08" style="stroke-width: 1;"/><g transform="matrix(1, 0, 0, 1, 375.006775, 198.50354)"><path d="M18.8 62.42c.2.74-.25 1.51-.99 1.71l-1.91.51c-.74.2-1.51-.25-1.71-.99c-.2-.74.24-1.51.99-1.71l1.91-.51c.74-.21 1.51.24 1.71.99z" style=""/><path d="M18.65 60.29c.09.78-.45 1.47-1.23 1.56l-2.56.31c-.77.09-1.47-.45-1.56-1.23c-.09-.78.45-1.47 1.23-1.56l2.56-.31c.76-.09 1.46.46 1.56 1.23z" style=""/><path d="M18.78 57.85v.11c.01.76-.59 1.38-1.35 1.4l-2.87.05c-.76.01-1.39-.59-1.4-1.35v-.11a1.38 1.38 0 0 1 1.35-1.4l2.87-.05c.77-.02 1.39.59 1.4 1.35z" style=""/><path d="M19.33 56.27c-.16.74-.88 1.22-1.63 1.07l-3.07-.64a1.49 1.49 0 0 1-.37-.14a1.39 1.39 0 0 1-.7-1.49c.16-.74.88-1.22 1.63-1.07l3.07.64c.75.15 1.22.88 1.07 1.63z" style=""/><path d="M14.7 62.18c.52-.39 1.08-.56 1.65-.68c.57-.09 1.16-.13 1.78.06c-.52.4-1.08.57-1.65.68c-.57.09-1.16.13-1.78-.06z" style=""/><path d="M14.42 59.39c.55-.3 1.11-.37 1.67-.39c.56.01 1.11.07 1.67.36c-.55.3-1.11.38-1.67.39c-.55 0-1.11-.07-1.67-.36z" style=""/><path d="M17.87 57.46c-.67.14-1.29.06-1.89-.08c-.6-.16-1.18-.37-1.71-.81c.67-.14 1.29-.06 1.89.08c.59.16 1.18.37 1.71.81z" style=""/><path d="M15.49 57.95c-.48.93.7 1.72 1.37 1.79c.67.07 1.1-.51 1.35-1.14c.91-2.21 1.55-2.06 2.26-2.04c.99.03 3.4.69 3.31-.65c-.09-1.35-2.94-2.54-4.24-2.34c-2.79.45-3.81 3.94-4.05 4.38z" style=""/><path d="M23.16 59.47c-1.6.39-3.34-.8-3.93-2.34l-.06-.15l-.03-.07c-.01-.03-.03-.06 0 0c.04.08.14.12.22.12c.08.01.2-.1.21-.15l-.22.56c-.16.37-.32.72-.49 1.08c-.3.66-.84 1.62-1.87 1.76c-.96.13-2.01-.63-1.93-1.71c.13-.82.36-1.59.77-2.3c.79-1.4 2.17-2.49 3.72-2.69c-1.54.34-2.73 1.53-3.29 2.9a7.8 7.8 0 0 0-.57 2.14c-.05.54.64 1.05 1.19.92c.28-.04.55-.2.76-.44c.22-.23.36-.56.54-.91c.17-.34.33-.69.47-1.04l.22-.53c.04-.14.24-.32.42-.32c.18-.02.37.08.47.24c.05.1.05.12.06.13l.02.06l.05.13c.25.67.68 1.27 1.23 1.72c.28.22.61.39.95.52c.35.14.71.19 1.09.37z" style=""/></g><ellipse transform="matrix(0.064393, -0.997925, 0.997925, 0.064393, 376.483646, 306.330655)" cx="58.24" cy="53.12" rx="0.88" ry="0.75" style="stroke-width: 1;"/><ellipse transform="matrix(0.064393, -0.997925, 0.997925, 0.064393, 390.078282, 320.852772)" cx="72.78" cy="53.14" rx="0.88" ry="0.75" style="stroke-width: 1;"/><g fill="#613e31" transform="matrix(1, 0, 0, 1, 375.006775, 198.50354)"><path d="M73.68 21.54s-.83-1.3-2.74-1.29c-1.91 0-2.74 1.3-2.74 1.3c-.07.09-.11.21-.11.33c0 .31.25.57.57.57c.07 0 .22-.05.24-.05c1.14-.48 2.04-.48 2.04-.48s.89 0 2.04.47c.01.01.17.05.24.05c.31 0 .57-.25.57-.57a.719.719 0 0 0-.11-.33z" style="fill: rgb(0, 0, 0);"/><path d="M61.78 21.57s-.83-1.3-2.74-1.29c-1.91 0-2.74 1.3-2.74 1.3c-.07.09-.11.21-.11.33c0 .31.26.57.57.57c.06 0 .22-.05.24-.05c1.15-.48 2.04-.48 2.04-.48s.89 0 2.04.47c.01.01.17.05.24.05c.31 0 .57-.25.57-.57c0-.13-.04-.24-.11-.33z" style="fill: rgb(0, 0, 0);"/></g></g></svg>