<?xml version="1.0" encoding="UTF-8" standalone="no"?>
<svg
   viewBox="381.5361 203.274 101.0909 120.23"
   width="101.091px"
   height="120.23px"
   preserveAspectRatio="none"
   version="1.1"
   id="svg44"
   sodipodi:docname="merman.svg"
   inkscape:version="1.4.2 (ebf0e940, 2025-05-08)"
   xmlns:inkscape="http://www.inkscape.org/namespaces/inkscape"
   xmlns:sodipodi="http://sodipodi.sourceforge.net/DTD/sodipodi-0.dtd"
   xmlns="http://www.w3.org/2000/svg"
   xmlns:svg="http://www.w3.org/2000/svg">
  <defs
     id="defs44" />
  <sodipodi:namedview
     id="namedview44"
     pagecolor="#ffffff"
     bordercolor="#000000"
     borderopacity="0.25"
     inkscape:showpageshadow="2"
     inkscape:pageopacity="0.0"
     inkscape:pagecheckerboard="0"
     inkscape:deskcolor="#d1d1d1"
     inkscape:zoom="5.0525914"
     inkscape:cx="39.088853"
     inkscape:cy="41.068035"
     inkscape:window-width="896"
     inkscape:window-height="204"
     inkscape:window-x="0"
     inkscape:window-y="39"
     inkscape:window-maximized="0"
     inkscape:current-layer="svg44" />
  <path
     id="path1"
     style="fill:#000080;fill-opacity:1;stroke-width:1"
     d="m 442.12985,232.81892 -4.25586,1.64649 c -0.14648,-0.0195 -1.08793,-1.3119 -1.23437,-1.2793 l -0.002,0.002 h -0.002 l -0.002,0.002 h -0.002 l -0.002,0.002 -0.002,0.002 -0.002,0.002 -0.002,0.002 v 0.002 0.002 0.002 l -0.002,0.002 v 0.002 0.002 0.002 c 0.0165,0.11691 0.65761,0.45106 -0.71289,0.85156 l -0.57227,3.29102 c -1.7,0.09 -7.26992,0.52086 -9.91992,2.13086 -2.87,1.75 -10.05,8.71843 -11,9.64844 -5.06,1.35999 -14.6393,3.90015 -16.2793,4.16015 -1.40883,-0.51727 -3.07868,-0.49394 -4.55078,-0.0449 -0.0992,-0.0471 -0.20714,-0.0828 -0.32031,-0.10547 l -3.07031,-0.63867 c -0.75,-0.15 -1.46891,0.32836 -1.62891,1.06836 -0.11775,0.59618 0.16545,1.19974 0.69922,1.49023 0.0104,0.005 0.0208,0.009 0.0312,0.0137 -0.66246,0.12153 -1.14043,0.70351 -1.13086,1.37696 v 0.10937 c 0.009,0.69354 0.53376,1.25475 1.20312,1.33985 -0.68906,0.16182 -1.14596,0.80793 -1.0625,1.53125 0.0839,0.72696 0.6959,1.24399 1.40235,1.23828 -0.44646,0.33294 -0.66635,0.91555 -0.51367,1.48047 0.2,0.74 0.97093,1.19023 1.71093,0.99023 l 0.38672,-0.10351 c 0.95714,0.22481 2.34768,0.29817 3.60352,0.10351 0.98,-0.15 1.86992,-0.44853 2.41992,-0.97851 0.45,-0.43001 0.99008,-0.66125 1.58008,-0.78125 1.17,-0.23001 2.54969,-0.0385 3.92969,-0.22852 6.06,-0.81 13.75031,-1.88078 15.57031,-2.80078 2.88,-1.44 6.67937,-4.6293 8.60937,-6.2793 v 17.83985 c 0.002,0.107 0.0366,0.21082 0.0996,0.29882 0,0 1.70664,3.37319 11.2851,5.20542 9.36513,-0.91619 7.41971,-0.55565 12.93561,-3.84409 0.08,-0.07 0.13992,-0.16148 0.16992,-0.27148 0.01,-0.06 1.30054,-5.89891 1.81054,-18.12891 l 4.09961,9.23047 c 1.35,4.25 3.33907,10.96883 3.28907,12.04883 -0.06,1.53 -0.57883,1.90969 -1.29883,2.42969 -0.21,0.15 -0.4211,0.30046 -0.6211,0.48046 -1.23,1.08 -1.81023,2.17977 -1.74023,3.25977 0.07,1.04 0.76109,1.76 1.12109,2 0.17,0.12 0.35907,0.19047 0.53907,0.23047 l -0.16016,1.33984 c 0.06,0.83 0.58078,2.06055 1.55078,2.06055 l 4.98047,-0.25977 c 1.79,-0.2 2.73031,-4.60992 2.82031,-7.66992 0.18,-6.48 -1.8807,-17.69015 -1.9707,-18.16015 v -0.01 c -0.13,-0.66 -3.24969,-16.29094 -6.92969,-19.21094 -3.7,-2.93 -11.75961,-3.36969 -13.84961,-3.42969 l -0.74219,-2.93359 c 0,-0.26 -2.01562,-1.73172 -2.26562,-1.76172 z m -8.92773,17.93555 c 0.0326,-0.002 0.0652,-0.002 0.0977,0 0.41296,0.0269 0.72237,0.4412 0.69141,0.92578 -0.0312,0.48488 -0.39143,0.85647 -0.80469,0.83008 -0.41296,-0.0269 -0.72237,-0.4412 -0.69141,-0.92578 0.0279,-0.44128 0.33048,-0.79655 0.70704,-0.83008 z m 14.55078,0.0137 c 0.0326,-0.002 0.0652,-0.002 0.0976,0 0.41375,0.0257 0.72431,0.44036 0.69336,0.92578 -0.0312,0.48582 -0.39266,0.85778 -0.80664,0.83008 -0.41365,-0.0269 -0.72332,-0.4424 -0.6914,-0.92773 0.0287,-0.44053 0.33106,-0.79473 0.70703,-0.82813 z"
     sodipodi:nodetypes="ccccccccccccccccccccccccccccccccscsccccccccccccccccccccccccccccccccccccccccccccsc" />
  <path
     id="path2"
     style="stroke-width:1;fill:#000080;fill-opacity:1"
     d="M 440.0068 205.8033 C 433.84451 205.8033 428.13081 212.30829 427.97165 221.7115 C 426.97376 222.00827 426.31854 222.66406 426.33688 224.04353 C 426.38264 227.48442 427.22648 227.05119 428.39352 226.29158 C 429.85959 233.0613 434.89696 236.41463 440.0068 236.41463 C 445.04793 236.41463 450.02051 233.15109 451.56149 226.56306 C 452.75594 227.26566 453.67672 227.22091 453.67672 224.46541 C 453.67672 223.08777 453.03061 222.36968 452.04782 222.01423 C 452.00817 212.43764 446.2353 205.8033 440.0068 205.8033 z M 445.94626 218.75447 C 447.85626 218.74447 448.68649 220.04353 448.68649 220.04353 C 448.74939 220.14293 448.78697 220.25629 448.79587 220.37361 C 448.79587 220.69361 448.53751 220.94392 448.22751 220.94392 C 448.15971 220.94392 448.00581 220.90649 447.98727 220.89509 L 447.98727 220.89314 C 446.83727 220.42314 445.94626 220.42439 445.94626 220.42439 C 445.94626 220.42439 445.04719 220.42339 443.90719 220.90291 C 443.88719 220.90291 443.73696 220.95369 443.66696 220.95369 C 443.34696 220.95369 443.09665 220.69338 443.09665 220.38338 C 443.09665 220.26336 443.13605 220.1433 443.20602 220.0533 C 443.20602 220.0533 444.03626 218.75447 445.94626 218.75447 z M 434.04587 218.78377 C 435.95587 218.77377 436.7861 220.07283 436.7861 220.07283 C 436.8561 220.16283 436.89743 220.27291 436.89743 220.40291 C 436.89743 220.72291 436.63712 220.97322 436.32712 220.97322 C 436.26152 220.97322 436.11686 220.93904 436.09079 220.92634 L 436.08883 220.92439 L 436.08688 220.92439 C 434.93688 220.45439 434.04587 220.45369 434.04587 220.45369 C 434.04587 220.45369 433.1568 220.45416 432.0068 220.93416 C 431.9868 220.93416 431.82657 220.98298 431.76657 220.98298 C 431.45657 220.98298 431.19626 220.72267 431.19626 220.41267 C 431.19626 220.29267 431.23756 220.17259 431.30758 220.08259 C 431.30758 220.08259 432.13587 218.78377 434.04587 218.78377 z M 438.73727 226.2447 L 441.27633 226.2447 C 441.31633 226.2547 441.35743 226.2537 441.39743 226.274 C 441.62743 226.364 441.7479 226.60384 441.6279 226.86384 C 441.5279 227.12384 441.01704 227.83455 439.99704 227.83455 C 438.97704 227.83455 438.47618 227.11384 438.36618 226.86384 C 438.25618 226.60384 438.38618 226.364 438.61618 226.274 C 438.65618 226.254 438.69728 226.2447 438.73727 226.2447 z M 443.5068 229.05916 C 443.95821 229.08869 444.27962 229.53494 444.07712 229.98494 C 443.80712 230.57494 441.78657 231.93416 440.01657 231.93416 C 438.24657 231.93416 436.19673 230.57494 435.92672 229.98494 C 435.65672 229.39494 436.32727 228.79416 436.98727 229.18416 C 438.12727 229.86416 441.88633 229.86416 443.02633 229.18416 C 443.19133 229.08666 443.35633 229.04931 443.5068 229.05916 z " />
  <path
     id="path7"
     style="stroke-width:1;fill:#000080;fill-opacity:1"
     d="M 427.0693 269.07478 C 427.04989 269.07916 427.0243 269.09837 427.0068 269.13338 C 424.9468 272.95337 423.7968 278.25423 423.0068 282.51423 C 419.7568 299.97423 422.22766 315.97337 432.88766 321.63338 C 435.27766 322.90337 438.19774 323.50447 441.21774 323.50447 C 447.46774 323.50447 454.12766 320.92338 457.38766 316.38338 C 460.35766 317.52337 463.02696 318.01423 465.41696 318.01423 C 477.27696 318.01423 482.2879 305.994 482.6279 302.024 C 482.1779 303.294 480.96719 304.16306 479.65719 304.56306 C 479.45719 304.62306 479.25758 304.67345 479.05758 304.71345 C 478.42758 304.84345 477.77766 304.88338 477.13766 304.88338 C 476.22766 304.88338 475.30743 304.80447 474.39743 304.75447 C 473.76743 304.72447 473.14657 304.70369 472.51657 304.70369 C 470.95657 304.70369 469.39665 304.81423 467.84665 305.01423 C 466.77665 305.15423 465.6579 305.224 464.6279 305.524 C 464.3679 305.604 462.02649 306.50447 461.93649 306.50447 C 461.63649 306.50447 461.74719 305.16408 461.65719 304.60408 C 461.52719 303.84408 461.32758 303.13461 461.05758 302.41463 C 460.07758 299.76463 457.81626 298.02494 456.69626 295.48494 C 456.17626 294.30494 455.92798 292.95416 456.20797 291.68416 C 456.35735 291.00702 456.88312 289.26954 457.2529 288.85994 C 457.07072 289.05635 456.67443 289.14527 456.43649 289.26423 C 455.79649 289.58423 455.19719 289.98392 454.65719 290.44392 C 453.36719 291.55392 452.45797 293.05478 451.70797 294.57478 C 450.14797 297.70478 449.19704 301.61361 449.74704 305.12361 C 450.22704 308.17361 451.94797 310.97392 453.70797 313.44392 C 451.83797 314.95392 449.59758 316.35408 447.30758 316.35408 C 447.09758 316.35408 446.88673 316.34306 446.67672 316.31306 C 443.00672 315.87306 441.0068 314.37361 441.0068 308.37361 C 441.0068 288.62361 453.5068 291.93306 451.5068 270.81306 C 451.4968 270.70306 451.41657 270.66463 451.26657 270.66463 C 450.07657 270.66463 444.57618 273.774 437.61618 273.774 C 437.27618 273.774 436.92688 273.76447 436.58688 273.75447 C 428.54688 273.39447 427.45712 269.07478 427.07712 269.07478 C 427.07587 269.07478 427.07255 269.07486 427.07126 269.07478 L 427.0693 269.07478 z M 430.2861 274.67439 C 430.2861 274.67439 430.39712 274.77416 430.57712 274.93416 C 430.74712 275.08416 430.99657 275.2847 431.26657 275.4947 C 431.54657 275.6947 431.86626 275.89478 432.19626 276.07478 C 432.35626 276.16478 432.54798 276.22306 432.70797 276.31306 C 432.87797 276.38306 433.04751 276.44494 433.22751 276.48494 C 433.24751 276.49494 433.4768 276.56306 433.5068 276.56306 C 433.5668 276.58306 433.6668 276.59384 433.7568 276.61384 C 433.9368 276.62384 434.12758 276.67416 434.30758 276.68416 C 434.67758 276.70416 435.04766 276.69461 435.38766 276.66463 C 435.72766 276.62462 436.03657 276.574 436.26657 276.524 C 436.50657 276.474 436.63766 276.44392 436.63766 276.44392 L 436.71774 276.524 C 436.71774 276.524 436.62797 276.61423 436.45797 276.76423 C 436.28797 276.91423 436.02649 277.104 435.68649 277.274 C 435.34649 277.444 434.90672 277.59463 434.42672 277.66463 C 433.94673 277.73462 433.41696 277.71478 432.91696 277.57478 C 431.90696 277.28478 431.11798 276.52337 430.70797 275.88338 C 430.49797 275.56338 430.3661 275.2633 430.2861 275.0533 C 430.2061 274.8433 430.17672 274.72322 430.17672 274.72322 L 430.2861 274.67439 z M 445.21774 275.89314 L 445.31735 275.93416 C 445.31735 275.93416 445.27649 276.04345 445.18649 276.21345 C 445.09649 276.39345 444.95751 276.64486 444.72751 276.90486 C 444.50751 277.16486 444.18782 277.42384 443.79782 277.61384 C 443.40782 277.80384 442.94727 277.91392 442.48727 277.94392 C 441.55727 278.00392 440.64688 277.68353 440.08688 277.29353 C 439.51688 276.91353 439.18649 276.60408 439.18649 276.60408 L 439.2568 276.53377 C 439.2568 276.53377 439.39618 276.54478 439.61618 276.57478 C 439.82618 276.60478 440.13626 276.65322 440.44626 276.72322 C 440.76626 276.77322 441.09696 276.82431 441.41696 276.84431 C 441.57696 276.86431 441.74719 276.84408 441.90719 276.85408 C 442.06719 276.86408 442.26696 276.84431 442.41696 276.84431 C 442.53696 276.84431 442.63649 276.84455 442.68649 276.83455 C 442.75649 276.83455 442.84696 276.8133 442.91696 276.8033 C 443.07696 276.7833 443.2279 276.77494 443.3779 276.73494 C 443.5179 276.68494 443.67735 276.67361 443.81735 276.62361 C 443.95735 276.57361 444.09727 276.52345 444.23727 276.46345 C 444.57927 276.30045 444.90674 276.10914 445.21774 275.89314 z M 426.29782 276.48298 L 426.29977 276.48298 L 426.29977 276.48494 L 426.40719 276.51423 C 426.40719 276.51423 426.4368 276.66336 426.5068 276.88338 C 426.5768 277.08337 426.7079 277.35408 426.8779 277.60408 C 427.0579 277.86408 427.27782 278.11384 427.54782 278.36384 C 427.66782 278.49384 427.83774 278.59322 427.96774 278.72322 C 428.10774 278.84322 428.26673 278.95353 428.42672 279.04353 C 428.4361 279.05291 428.62237 279.16831 428.64547 279.17439 L 428.64743 279.17439 C 428.68743 279.20439 428.76688 279.23423 428.83688 279.26423 C 428.98688 279.30423 429.13758 279.39439 429.30758 279.42439 C 429.63758 279.50439 429.97782 279.54353 430.29782 279.54353 C 430.61782 279.53353 430.91766 279.50369 431.13766 279.45369 C 431.36766 279.40369 431.5068 279.36384 431.5068 279.36384 L 431.58688 279.44392 C 431.58688 279.44392 431.50688 279.54416 431.33688 279.68416 C 431.16688 279.83416 430.90782 280.02439 430.54782 280.17439 C 430.19782 280.32439 429.7468 280.42462 429.2568 280.41463 C 428.7768 280.40463 428.24735 280.26494 427.81735 279.98494 C 426.94735 279.42494 426.35774 278.5047 426.21774 277.7447 C 426.07923 277.03369 426.29024 276.54194 426.29977 276.48689 L 426.29977 276.48494 L 426.29782 276.48494 L 426.29782 276.48298 z M 446.14743 279.56306 L 446.2568 279.59431 C 446.2568 279.59431 446.22719 279.70314 446.15719 279.89314 C 446.08719 280.08314 445.96633 280.35314 445.77633 280.64314 C 445.57633 280.93314 445.30626 281.2347 444.94626 281.4947 C 444.59626 281.7547 444.15797 281.96306 443.70797 282.06306 C 442.77797 282.26306 441.82751 281.99314 441.22751 281.64314 C 440.92751 281.47314 440.69758 281.28314 440.55758 281.14314 C 440.40758 281.00314 440.33688 280.91463 440.33688 280.91463 L 440.42672 280.83455 L 440.77633 280.91463 C 440.97633 280.95463 441.26735 281.00353 441.56735 281.04353 C 441.87735 281.07353 442.20633 281.08455 442.52633 281.08455 C 442.68633 281.08455 442.85657 281.04353 443.01657 281.04353 C 443.17657 281.03353 443.33751 281.00345 443.47751 280.96345 C 443.48688 280.96345 443.69201 280.92726 443.72555 280.91463 L 443.72751 280.91463 C 443.77751 280.90463 443.85672 280.87408 443.92672 280.85408 C 444.06672 280.79408 444.2379 280.76416 444.3779 280.68416 C 444.6779 280.55416 444.95751 280.4047 445.22751 280.2447 C 445.47751 280.0847 445.7179 279.91377 445.8779 279.78377 C 446.0479 279.64377 446.14743 279.56306 446.14743 279.56306 z M 433.49704 279.86384 C 433.49704 279.86384 433.61735 279.92377 433.81735 280.03377 C 433.99735 280.12377 434.26782 280.25361 434.54782 280.37361 C 434.83782 280.49361 435.14797 280.59416 435.45797 280.68416 C 435.61798 280.73416 435.77649 280.74377 435.93649 280.78377 C 436.09649 280.81377 436.24719 280.83431 436.40719 280.84431 L 436.40915 280.84431 L 436.4111 280.84627 C 436.44241 280.85597 436.62393 280.8714 436.65524 280.8658 L 436.65719 280.86384 C 436.70719 280.87384 436.7979 280.86384 436.8779 280.86384 C 437.0379 280.84384 437.19641 280.86431 437.35641 280.84431 C 437.67641 280.81431 437.99782 280.75416 438.29782 280.68416 C 438.88782 280.53416 439.39743 280.32478 439.39743 280.32478 L 439.48727 280.38338 C 439.48727 280.38338 439.42782 280.48338 439.29782 280.63338 C 439.16782 280.79338 438.97626 281.00345 438.69626 281.21345 C 438.41626 281.42345 438.06719 281.624 437.65719 281.774 C 437.24719 281.914 436.76758 281.98369 436.30758 281.95369 C 435.36758 281.86369 434.53735 281.34431 434.06735 280.84431 C 433.87035 280.64631 433.69958 280.42416 433.55758 280.18416 C 433.45758 280.01416 433.40719 279.91463 433.40719 279.91463 L 433.49704 279.86384 z M 428.05758 281.73494 C 428.05758 281.73494 428.16665 281.8347 428.34665 281.9947 C 428.51665 282.1447 428.7661 282.3433 429.0361 282.5533 C 429.3161 282.7533 429.63774 282.95337 429.96774 283.13338 C 430.12774 283.22337 430.31751 283.28361 430.47751 283.37361 C 430.64751 283.44361 430.81704 283.50353 430.99704 283.54353 C 431.01704 283.55353 431.24633 283.62361 431.27633 283.62361 C 431.33633 283.64361 431.43633 283.65439 431.52633 283.67439 C 431.70633 283.68439 431.89712 283.7347 432.07712 283.7447 C 432.44712 283.7647 432.81719 283.75322 433.15719 283.72322 C 433.49719 283.68322 433.8061 283.63455 434.0361 283.58455 C 434.2761 283.53455 434.40719 283.50447 434.40719 283.50447 L 434.48727 283.58455 C 434.48727 283.58455 434.39751 283.67478 434.22751 283.82478 C 434.05751 283.97478 433.79798 284.16455 433.45797 284.33455 C 433.11798 284.50455 432.67626 284.65322 432.19626 284.72322 C 431.71626 284.79322 431.18649 284.77337 430.68649 284.63338 C 429.67649 284.34337 428.88751 283.58392 428.47751 282.94392 C 428.26751 282.62392 428.13758 282.32384 428.05758 282.11384 C 427.97758 281.90384 427.94626 281.78377 427.94626 281.78377 L 428.05758 281.73494 z M 424.31735 283.024 L 424.40719 283.0533 L 424.40915 283.0533 L 424.40915 283.05525 C 424.41715 283.07728 424.42383 283.24455 424.48727 283.44392 C 424.54727 283.65392 424.67641 283.93392 424.85641 284.19392 C 424.94641 284.32392 425.06672 284.45455 425.17672 284.58455 C 425.30672 284.70455 425.44688 284.84322 425.58688 284.97322 C 425.73688 285.10322 425.89758 285.22408 426.05758 285.35408 C 426.20758 285.48408 426.41735 285.60392 426.56735 285.69392 C 426.69735 285.78392 426.74735 285.80431 426.81735 285.84431 C 426.89735 285.87431 426.98712 285.92369 427.07712 285.95369 C 427.24712 286.03369 427.4379 286.10486 427.6279 286.15486 C 427.8179 286.18486 428.00626 286.26377 428.19626 286.28377 C 428.38626 286.30377 428.56704 286.33431 428.74704 286.34431 C 429.09704 286.36431 429.41719 286.34306 429.65719 286.31306 C 429.89719 286.28306 430.04782 286.25447 430.04782 286.25447 L 430.11618 286.34431 C 430.11618 286.34431 430.01735 286.43478 429.81735 286.57478 C 429.61735 286.71478 429.31672 286.8747 428.92672 286.9947 C 428.53672 287.1147 428.05782 287.17338 427.54782 287.13338 C 427.03782 287.09337 426.48657 286.95439 426.01657 286.67439 C 425.07657 286.10439 424.36626 285.18384 424.19626 284.36384 C 424.09626 283.96384 424.13626 283.60361 424.19626 283.37361 C 424.25626 283.13361 424.31735 283.024 424.31735 283.024 z M 435.46774 283.62361 C 435.46774 283.62361 435.5668 283.70431 435.7568 283.84431 C 435.9168 283.96431 436.16696 284.13353 436.41696 284.29353 C 436.68696 284.45353 436.97657 284.6047 437.26657 284.7447 C 437.41657 284.8147 437.57774 284.85439 437.71774 284.92439 C 437.86774 284.98439 438.01696 285.0233 438.16696 285.0533 L 438.16696 285.05525 L 438.16891 285.05525 L 438.17087 285.0572 C 438.20335 285.07094 438.39821 285.11384 438.41696 285.11384 C 438.46696 285.12384 438.5479 285.13314 438.6279 285.14314 C 438.7879 285.15314 438.94641 285.19392 439.10641 285.19392 C 439.42641 285.21392 439.75735 285.20416 440.06735 285.18416 C 440.66735 285.13416 441.20797 285.00447 441.20797 285.00447 L 441.2861 285.08455 C 441.2861 285.08455 441.20758 285.1733 441.05758 285.3033 C 440.90758 285.4433 440.6779 285.61377 440.3779 285.78377 C 440.0779 285.94377 439.6868 286.09439 439.2568 286.17439 C 438.8268 286.25439 438.34743 286.24314 437.89743 286.14314 C 436.97743 285.91314 436.24641 285.26392 435.85641 284.69392 C 435.65641 284.41392 435.52797 284.15345 435.45797 283.96345 C 435.37797 283.77345 435.34665 283.67439 435.34665 283.67439 L 435.46774 283.62361 z M 430.5361 286.3033 C 430.5361 286.3033 430.63735 286.38377 430.81735 286.53377 C 430.97735 286.66377 431.20797 286.84423 431.45797 287.01423 C 431.71797 287.18423 431.9961 287.35423 432.2861 287.51423 C 432.4261 287.59423 432.58751 287.64345 432.72751 287.71345 C 432.87751 287.78345 433.02672 287.83361 433.17672 287.87361 C 433.18672 287.88361 433.40696 287.95369 433.41696 287.95369 C 433.46696 287.97369 433.5479 287.98447 433.6279 288.00447 C 433.7879 288.02447 433.93641 288.07455 434.10641 288.08455 C 434.42641 288.12455 434.75735 288.13361 435.06735 288.12361 C 435.36735 288.11361 435.65618 288.0833 435.86618 288.0533 C 436.08618 288.0233 436.21774 288.00447 436.21774 288.00447 L 436.29782 288.08455 C 436.29782 288.08455 436.21758 288.16353 436.05758 288.29353 C 435.89758 288.42353 435.66665 288.58494 435.34665 288.73494 C 434.72665 289.03494 433.76641 289.22392 432.85641 288.94392 C 431.95641 288.66392 431.25743 287.97337 430.89743 287.38338 C 430.71743 287.09337 430.5961 286.82337 430.5361 286.63338 C 430.4661 286.44338 430.44626 286.33455 430.44626 286.33455 L 430.5361 286.3033 z M 437.2568 288.35408 L 437.55758 288.54353 C 437.72758 288.64353 437.97727 288.78463 438.23727 288.91463 C 438.50727 289.03463 438.80665 289.1547 439.09665 289.2447 C 439.24665 289.2947 439.39782 289.30408 439.54782 289.35408 C 439.69782 289.38408 439.83727 289.40463 439.98727 289.41463 C 440.17727 289.43462 440.26673 289.44392 440.42672 289.44392 C 440.57673 289.42392 440.72766 289.44439 440.88766 289.42439 C 441.19766 289.39439 441.50782 289.33423 441.79782 289.26423 C 442.36782 289.11423 442.86618 288.90486 442.86618 288.90486 L 442.95797 288.96345 C 442.95797 288.96345 442.89633 289.06345 442.77633 289.21345 C 442.36933 289.73645 441.82126 290.13308 441.19626 290.35408 C 440.79626 290.49408 440.3379 290.56377 439.8779 290.53377 C 438.9479 290.43377 438.16727 289.88384 437.73727 289.36384 C 437.51727 289.10384 437.3761 288.86416 437.2861 288.68416 C 437.1961 288.50416 437.15719 288.40486 437.15719 288.40486 L 437.2568 288.35408 z M 426.05758 288.4947 C 426.05758 288.4947 426.15712 288.59377 426.32712 288.78377 C 426.47712 288.94377 426.71774 289.17314 426.96774 289.39314 C 427.22774 289.62314 427.53665 289.8433 427.84665 290.0533 C 427.99665 290.1633 428.17688 290.23455 428.33688 290.33455 C 428.49688 290.42455 428.66688 290.5033 428.83688 290.5533 C 428.84657 290.56298 429.07482 290.64957 429.11618 290.65486 C 429.17618 290.67486 429.26641 290.70322 429.35641 290.72322 C 429.53641 290.75322 429.71743 290.82455 429.89743 290.83455 C 430.26743 290.88455 430.63751 290.90486 430.97751 290.90486 C 431.31751 290.89486 431.62641 290.87455 431.85641 290.83455 C 432.09641 290.80455 432.23727 290.78377 432.23727 290.78377 L 432.30758 290.87361 C 432.30758 290.87361 432.20633 290.96431 432.02633 291.09431 C 431.84633 291.22431 431.56797 291.39353 431.20797 291.54353 C 430.84797 291.68353 430.40696 291.80478 429.91696 291.82478 C 429.43696 291.85478 428.90696 291.77408 428.41696 291.60408 C 427.43696 291.22408 426.70641 290.40322 426.35641 289.72322 C 426.17641 289.38322 426.0668 289.08384 426.0068 288.86384 C 425.9468 288.64384 425.92672 288.524 425.92672 288.524 L 426.05758 288.4947 z M 433.2861 291.66463 C 433.2861 291.66463 433.38712 291.74337 433.57712 291.88338 C 433.73712 292.00338 433.98727 292.17455 434.23727 292.33455 C 434.50727 292.49455 434.79688 292.64377 435.08688 292.78377 C 435.23688 292.85377 435.3961 292.89345 435.5361 292.96345 C 435.6861 293.02345 435.83727 293.06431 435.98727 293.09431 L 435.98922 293.09431 L 435.99118 293.09627 C 436.02366 293.11 436.21852 293.15486 436.23727 293.15486 C 436.28727 293.16486 436.36626 293.17416 436.44626 293.18416 C 436.60626 293.19416 436.76673 293.23494 436.92672 293.23494 C 437.24672 293.25494 437.57766 293.24322 437.88766 293.22322 C 438.48766 293.17322 439.02633 293.04353 439.02633 293.04353 L 439.10641 293.12361 C 439.10641 293.12361 439.0279 293.21431 438.8779 293.34431 C 438.7279 293.48431 438.49626 293.65478 438.19626 293.82478 C 437.89626 293.98478 437.50712 294.13345 437.07712 294.21345 C 436.64712 294.29345 436.16774 294.28416 435.71774 294.18416 C 434.79774 293.95416 434.06673 293.30494 433.67672 292.73494 C 433.47672 292.45494 433.34633 292.19447 433.27633 292.00447 C 433.19633 291.81447 433.16696 291.71345 433.16696 291.71345 L 433.2861 291.66463 z M 423.26852 291.9947 L 423.38766 292.0533 C 423.38766 292.0533 423.41751 292.20486 423.47751 292.40486 C 423.53751 292.58486 423.65758 292.84478 423.80758 293.07478 C 423.97758 293.31478 424.16743 293.544 424.39743 293.774 C 424.50743 293.894 424.65657 293.99384 424.76657 294.11384 C 424.89657 294.22384 425.02696 294.33439 425.16696 294.42439 C 425.27596 294.50839 425.39257 294.58114 425.51657 294.64314 C 425.64657 294.69314 425.77696 294.78306 425.91696 294.81306 C 426.20696 294.90306 426.50758 294.97447 426.80758 295.00447 C 427.09758 295.02447 427.38688 295.01494 427.58688 294.98494 C 427.80688 294.95494 427.93649 294.93416 427.93649 294.93416 L 428.01657 295.01423 C 428.01657 295.01423 427.93657 295.10322 427.76657 295.22322 C 427.60657 295.35322 427.34657 295.51337 427.01657 295.63338 C 426.67657 295.75338 426.26735 295.82377 425.81735 295.78377 C 425.37735 295.75377 424.89704 295.59306 424.49704 295.31306 C 423.72704 294.74306 423.2179 293.87462 423.1279 293.16463 C 423.03121 292.46846 423.27061 292.0149 423.26852 291.9947 z M 428.13766 295.06306 C 428.13766 295.06306 428.23719 295.144 428.40719 295.274 C 428.55719 295.384 428.78657 295.54369 429.01657 295.70369 C 429.25657 295.85369 429.5261 296.00338 429.7861 296.13338 C 429.9161 296.20337 430.06649 296.24306 430.18649 296.31306 C 430.31649 296.37306 430.45688 296.41369 430.58688 296.45369 L 430.58688 296.45564 L 430.58883 296.45564 C 430.61194 296.47047 430.79821 296.524 430.80758 296.524 C 430.84758 296.544 430.91704 296.55306 430.99704 296.56306 C 431.13704 296.57306 431.27672 296.63314 431.42672 296.64314 C 431.71672 296.68314 432.01782 296.70345 432.29782 296.71345 C 432.85782 296.71345 433.3779 296.64314 433.3779 296.64314 L 433.45797 296.72322 C 433.45797 296.72322 433.37727 296.80462 433.23727 296.91463 C 433.09727 297.03463 432.87688 297.18478 432.58688 297.32478 C 432.01688 297.60478 431.11633 297.774 430.27633 297.524 C 429.43633 297.264 428.79774 296.62455 428.46774 296.08455 C 428.29774 295.81455 428.1879 295.56338 428.1279 295.38338 C 428.0679 295.20337 428.0361 295.10408 428.0361 295.10408 L 428.13766 295.06306 z M 433.55758 296.81306 C 433.55758 296.81306 433.65688 296.8847 433.83688 296.9947 C 433.99688 297.0947 434.22774 297.22431 434.46774 297.34431 C 434.71774 297.46431 434.98704 297.57463 435.24704 297.66463 C 435.37704 297.71463 435.51743 297.724 435.64743 297.774 C 435.77743 297.814 435.90633 297.83431 436.02633 297.84431 C 436.20633 297.87431 436.26696 297.88314 436.41696 297.89314 C 436.54696 297.88314 436.68712 297.91486 436.82712 297.90486 C 437.10712 297.89486 437.38696 297.87455 437.66696 297.83455 C 438.19696 297.74455 438.68649 297.58455 438.68649 297.58455 L 438.77633 297.65486 C 438.77633 297.65486 438.71665 297.74361 438.59665 297.87361 C 438.19965 298.34061 437.67488 298.68108 437.08688 298.85408 C 436.70688 298.96408 436.27641 299.00369 435.85641 298.95369 C 435.00641 298.81369 434.30649 298.25423 433.93649 297.76423 C 433.74649 297.51423 433.62758 297.28384 433.55758 297.11384 C 433.48758 296.94384 433.45797 296.85408 433.45797 296.85408 L 433.55758 296.81306 z M 453.85641 297.15486 C 453.85641 297.15486 453.99649 297.29431 454.18649 297.59431 C 454.37649 297.89431 454.60727 298.36345 454.73727 298.96345 C 454.87727 299.56345 454.92618 300.2833 454.86618 301.0533 C 454.81618 301.8133 454.64704 302.59408 454.49704 303.35408 C 454.40704 303.73408 454.3268 304.10322 454.2568 304.47322 C 454.1968 304.83322 454.11712 305.20353 454.07712 305.54353 C 453.99712 306.23353 453.98758 306.88416 454.05758 307.43416 C 454.11758 307.98416 454.2579 308.44423 454.3779 308.76423 C 454.4979 309.06423 454.59665 309.25447 454.59665 309.25447 C 454.59665 309.25447 454.43797 309.13384 454.20797 308.86384 C 453.97798 308.59384 453.68704 308.15306 453.49704 307.56306 C 453.29704 306.97306 453.18626 306.25494 453.19626 305.48494 C 453.20626 305.09494 453.23782 304.71306 453.29782 304.31306 C 453.35782 303.92306 453.4268 303.53314 453.5068 303.14314 C 453.6768 302.37314 453.85727 301.63416 453.98727 300.93416 C 454.10727 300.24416 454.16696 299.59377 454.16696 299.03377 C 454.15696 298.47377 454.0868 298.00439 454.0068 297.67439 C 453.9268 297.34439 453.85641 297.15486 453.85641 297.15486 z M 424.05758 298.4947 C 424.05758 298.4947 424.15712 298.59377 424.32712 298.78377 C 424.47712 298.94377 424.71774 299.17314 424.96774 299.39314 C 425.22774 299.62314 425.53665 299.8433 425.84665 300.0533 C 425.99665 300.1633 426.17688 300.23455 426.33688 300.33455 C 426.49688 300.42455 426.66688 300.5033 426.83688 300.5533 C 426.84657 300.56298 427.07482 300.64957 427.11618 300.65486 C 427.17618 300.67486 427.26641 300.70322 427.35641 300.72322 C 427.53641 300.75322 427.71743 300.82455 427.89743 300.83455 C 428.26743 300.88455 428.63751 300.90486 428.97751 300.90486 C 429.31751 300.89486 429.62641 300.87455 429.85641 300.83455 C 430.09641 300.80455 430.23727 300.78377 430.23727 300.78377 L 430.30758 300.87361 C 430.30758 300.87361 430.20633 300.96431 430.02633 301.09431 C 429.84633 301.22431 429.56797 301.39353 429.20797 301.54353 C 428.84797 301.68353 428.40696 301.80478 427.91696 301.82478 C 427.43696 301.85478 426.90696 301.77408 426.41696 301.60408 C 425.43696 301.22408 424.70641 300.40322 424.35641 299.72322 C 424.17641 299.38322 424.0668 299.08384 424.0068 298.86384 C 423.9468 298.64384 423.92672 298.524 423.92672 298.524 L 424.05758 298.4947 z M 431.2861 300.66463 C 431.2861 300.66463 431.38712 300.74337 431.57712 300.88338 C 431.73712 301.00338 431.98727 301.17455 432.23727 301.33455 C 432.50727 301.49455 432.79688 301.64377 433.08688 301.78377 C 433.23688 301.85377 433.3961 301.89345 433.5361 301.96345 C 433.6861 302.02345 433.83727 302.06431 433.98727 302.09431 L 433.98922 302.09431 L 433.99118 302.09627 C 434.02366 302.11 434.21852 302.15486 434.23727 302.15486 C 434.28727 302.16486 434.36626 302.17416 434.44626 302.18416 C 434.60626 302.19416 434.76673 302.23494 434.92672 302.23494 C 435.24672 302.25494 435.57766 302.24322 435.88766 302.22322 C 436.48766 302.17322 437.02633 302.04353 437.02633 302.04353 L 437.10641 302.12361 C 437.10641 302.12361 437.0279 302.21431 436.8779 302.34431 C 436.7279 302.48431 436.49626 302.65478 436.19626 302.82478 C 435.89626 302.98478 435.50712 303.13345 435.07712 303.21345 C 434.64712 303.29345 434.16774 303.28416 433.71774 303.18416 C 432.79774 302.95416 432.06673 302.30494 431.67672 301.73494 C 431.47672 301.45494 431.34633 301.19447 431.27633 301.00447 C 431.19633 300.81447 431.16696 300.71345 431.16696 300.71345 L 431.2861 300.66463 z M 427.69626 303.19392 C 427.69626 303.19392 427.81657 303.27462 428.01657 303.41463 C 428.20657 303.53463 428.48633 303.70361 428.77633 303.87361 C 429.08633 304.03361 429.42633 304.18478 429.77633 304.32478 C 429.94633 304.39478 430.13735 304.42494 430.31735 304.48494 C 430.49735 304.53494 430.67641 304.57455 430.85641 304.58455 C 430.87641 304.59455 431.11743 304.62361 431.14743 304.62361 C 431.21743 304.63361 431.30743 304.63338 431.39743 304.63338 C 431.57743 304.62338 431.76797 304.65361 431.95797 304.62361 C 432.32797 304.59361 432.68633 304.53369 433.02633 304.45369 C 433.35633 304.36369 433.6579 304.27392 433.8779 304.19392 C 434.1079 304.10392 434.23727 304.06306 434.23727 304.06306 L 434.32712 304.13338 C 434.32712 304.13338 434.25641 304.23486 434.10641 304.40486 C 433.95641 304.57486 433.72719 304.804 433.40719 305.024 C 433.08719 305.244 432.68774 305.45455 432.21774 305.58455 C 431.75774 305.71455 431.21797 305.76369 430.70797 305.70369 C 429.66798 305.55369 428.77633 304.91455 428.27633 304.33455 C 428.02633 304.04455 427.84704 303.77478 427.74704 303.57478 C 427.63704 303.37478 427.59665 303.26423 427.59665 303.26423 L 427.69626 303.19392 z M 457.22751 304.09431 C 457.22751 304.09431 457.49672 304.54306 457.67672 305.31306 C 457.77672 305.69306 457.82688 306.14337 457.83688 306.63338 C 457.84688 307.12338 457.78626 307.64463 457.69626 308.16463 C 457.57626 308.67462 457.42774 309.17361 457.21774 309.62361 C 457.00774 310.06361 456.78782 310.464 456.54782 310.774 C 456.05782 311.404 455.63766 311.70369 455.63766 311.70369 C 455.63766 311.70369 455.66704 311.57384 455.74704 311.36384 C 455.81704 311.15384 455.90633 310.86447 456.02633 310.50447 C 456.57433 308.82947 456.93265 307.09831 457.09665 305.34431 C 457.16665 304.61431 457.22751 304.09431 457.22751 304.09431 z M 475.33688 307.29353 C 475.33688 307.29353 475.41782 307.76369 475.29782 308.45369 C 475.24782 308.80369 475.12797 309.19408 474.95797 309.60408 C 474.78797 310.01408 474.53633 310.4133 474.27633 310.8033 C 473.98633 311.1733 473.66712 311.5233 473.32712 311.8033 C 472.98712 312.0833 472.64712 312.31345 472.32712 312.46345 C 471.67712 312.79345 471.21774 312.84431 471.21774 312.84431 C 471.21774 312.84431 471.28672 312.75408 471.42672 312.60408 C 471.55672 312.46408 471.74751 312.25447 471.97751 312.00447 C 473.03151 310.85747 473.9628 309.60423 474.7568 308.26423 C 475.0868 307.70423 475.33688 307.29353 475.33688 307.29353 z M 461.63766 307.50447 L 461.90719 307.50447 L 461.95797 307.50447 C 461.93797 307.51447 461.92719 307.51423 461.90719 307.51423 L 461.63766 307.51423 L 461.63766 307.50447 z M 470.90719 308.59431 C 470.90719 308.59431 470.80774 309.07369 470.46774 309.70369 C 470.13774 310.33369 469.53758 311.10345 468.80758 311.71345 C 468.43758 312.01345 468.04743 312.29447 467.64743 312.50447 C 467.25743 312.71447 466.87633 312.8847 466.52633 312.9947 C 465.85633 313.2047 465.36618 313.22322 465.36618 313.22322 C 465.36618 313.22322 465.73657 312.89494 466.26657 312.48494 C 466.80657 312.06494 467.49696 311.51392 468.16696 310.94392 C 468.84696 310.38392 469.50657 309.79431 470.01657 309.34431 C 470.52657 308.89431 470.90719 308.59431 470.90719 308.59431 z M 466.18649 309.45369 C 466.18649 309.45369 465.77766 309.79369 465.13766 310.20369 C 464.50766 310.62369 463.65782 311.14486 462.79782 311.65486 C 461.93782 312.15486 461.07743 312.6447 460.39743 312.9947 C 459.74743 313.3547 459.24704 313.5533 459.24704 313.5533 C 459.24704 313.5533 459.52735 313.10353 460.06735 312.54353 C 460.60735 311.98353 461.41782 311.32353 462.29782 310.79353 C 463.18782 310.27353 464.15719 309.87416 464.90719 309.68416 C 465.65719 309.47416 466.18649 309.45369 466.18649 309.45369 z " />
  <path
     d="m 392.337,234.624 c 0.25,-0.05 0.48,-0.1 0.58,-0.14 3.23,-0.6 5.04,-3.34 4.73,-7.1 0,-0.64 -0.13,-1.38 -0.2,-1.82 -0.02,-0.12 -0.03,-0.21 -0.04,-0.26 l -1.01,-3.92 0.34,-0.11 c 0.24,-0.12 0.43,-0.34 0.51,-0.6 0.1,-0.32 0.03,-0.7 -0.19,-1.06 l -1.91,-3.09 c -0.35,-0.57 -0.92,-0.64 -1.3,-0.46 -0.18,0.08 -0.57,0.34 -0.58,0.99 l -0.02,3.64 c 0,0.46 0.16,0.83 0.45,1.05 0.24,0.19 0.56,0.24 0.84,0.16 l 0.11,-0.03 0.96,3.67 c 0.17,1.47 -0.06,2.82 -0.65,3.8 -0.36,0.62 -1.81,1.39 -2.93,1.87 l -1.91,-11.84 0.3,-0.05 c 0.27,-0.08 0.49,-0.27 0.6,-0.52 0.15,-0.31 0.13,-0.69 -0.04,-1.08 l -1.46,-3.33 c -0.27,-0.62 -0.83,-0.77 -1.23,-0.64 -0.18,0.06 -0.61,0.25 -0.71,0.9 l -0.53,3.59 c -0.07,0.45 0.04,0.85 0.3,1.11 0.22,0.22 0.53,0.32 0.81,0.28 l 0.08,-0.01 0.97,12.01 c -1.2,-0.12 -2.81,-0.42 -3.31,-0.93 -0.77,-0.78 -1.35,-2.15 -1.53,-3.6 l 0.05,-3.97 0.23,-0.01 0.13,-0.03 c 0.27,-0.04 0.52,-0.2 0.67,-0.44 0.25,-0.38 0.18,-0.84 0.11,-1.07 l -0.97,-3.5 c -0.18,-0.64 -0.69,-0.85 -1.12,-0.79 -0.19,0.03 -0.65,0.2 -0.83,0.82 l -1.03,3.54 c -0.13,0.44 -0.08,0.95 0.14,1.25 0.18,0.25 0.46,0.6 0.76,0.6 h 0.11 l -0.05,3.69 0.01,-0.09 c 0.01,0.05 0.01,0.14 0.02,0.25 0.03,0.45 0.08,1.2 0.23,1.78 0.59,3.77 2.98,5.98 6.2,5.81 0.15,0.02 0.34,0.03 0.57,0.02 l 9.72,85.31 2.75,-0.32 z"
     fill="#460d08"
     style="stroke-width:1;fill:#000080"
     id="path32" />
</svg>
