<?xml version="1.0" encoding="UTF-8" standalone="no"?>
<!-- Uploaded to: SVG Repo, www.svgrepo.com, Generator: SVG Repo Mixer Tools -->

<svg
   fill="#460d08"
   width="699.08081"
   height="733.42719"
   viewBox="0 0 29.594712 31.048723"
   version="1.1"
   id="svg1"
   sodipodi:docname="phoenix.svg"
   inkscape:version="1.4.2 (ebf0e940, 2025-05-08)"
   xmlns:inkscape="http://www.inkscape.org/namespaces/inkscape"
   xmlns:sodipodi="http://sodipodi.sourceforge.net/DTD/sodipodi-0.dtd"
   xmlns="http://www.w3.org/2000/svg"
   xmlns:svg="http://www.w3.org/2000/svg">
  <defs
     id="defs1" />
  <sodipodi:namedview
     id="namedview1"
     pagecolor="#ffffff"
     bordercolor="#000000"
     borderopacity="0.25"
     inkscape:showpageshadow="2"
     inkscape:pageopacity="0.0"
     inkscape:pagecheckerboard="0"
     inkscape:deskcolor="#d1d1d1"
     inkscape:zoom="0.06625"
     inkscape:cx="354.71698"
     inkscape:cy="362.26415"
     inkscape:window-width="896"
     inkscape:window-height="245"
     inkscape:window-x="0"
     inkscape:window-y="39"
     inkscape:window-maximized="0"
     inkscape:current-layer="svg1" />
  <g
     id="g1"
     style="fill:#000080"
     transform="translate(-2.1365477,-1.40831)">
    <path
       d="m 16.455,1.4094 c 0,-2e-7 -2.9253,-0.034011 -5.5115,1.058 C 8.443,3.5232 6.6898,6.7971 5.5986,6.3089 4.5408,5.83567 5.23691,5.0283 6.9071,3.191 2.7872,5.2509 0.9382,8.8755 2.9591,14.79 c 1.578,4.6186 7.3341,8.6681 12.994,10.673 1.4744,0.52228 1.8379,2.8369 1.8379,2.8369 0,0 -0.77041,-1.5676 -1.9329,-2.2898 -1.4203,-0.88243 -2.5006,-0.88661 -5.6386,-2.3313 -2.7426,-1.2627 -4.4739,-3.5597 -4.4739,-3.5597 4e-7,0 0.49163,1.1659 -0.17647,1.3886 -0.66809,0.2227 -1.7329,-0.23446 -2.9049,-3.5631 0.32449,3.4642 1.3601,4.1443 3.101,5.8456 2.2076,2.1574 10.913,3.9605 9.9795,6.0261 -0.97502,2.1577 -7.7392,-0.75329 -7.7392,-0.75329 5.8647,3.7948 8.3663,3.5276 10.059,3.252 1.6928,-0.27557 4.7245,-1.1218 5.0789,-4.9798 0.35431,-3.858 -3.806,-4.803 -6.1809,-7.1452 -1.8735,-1.8476 -1.9351,-2.7295 -1.9699,-4.1498 -0.03944,-1.611 1.0663,-2.9211 2.687,-2.8559 2.1724,0.08749 2.4163,1.3579 2.5708,2.0999 0.16408,0.78767 -0.01233,2.029 -0.82998,2.5885 0.52273,0.57305 1.2295,0.63124 1.9289,0.34343 0.79819,-0.3285 1.1463,-1.051 1.2019,-1.8583 0.78002,-0.58598 1.4578,-2.0571 0.81176,-4.2153 -0.69471,-2.321 -2.6211,-3.5193 -2.816,-5.8619 -0.06884,-0.8276 -0.29828,-2.9523 2.4298,-4.6782 -4.4919,0.87028 -4.8798,4.7617 -4.8798,4.7617 0,0 -0.41746,-0.36191 -0.27828,-1.6981 -0.86295,1.0021 -0.61222,2.9509 -0.61222,2.9509 0,0 -1.3659,-0.12343 -3.039,1.156 3.11,-0.45273 4.5576,0.30068 5.5704,1.2798 1.8696,1.8075 2.0671,4.1136 2.0671,4.1136 0,0 -0.25619,0.06902 -0.39398,-0.11797 -0.15747,-0.31494 -0.52165,-0.03923 -0.71849,-0.33449 -0.15747,-0.21652 -0.08467,-1.1006 -0.32088,-1.8873 -0.09606,-0.31994 -0.38997,-0.94404 -1.0122,-1.4934 -0.8804,-0.77732 -2.2361,-1.4634 -4.5188,-1.352 -2.2826,0.11135 -4.3708,3.396 -4.0646,7.3489 0.3616,4.6679 4.7468,6.4911 4.7468,6.4911 0,0 1.5181,0.71327 0.17543,-0.85487 1.3233,0.42233 2.9838,2.2137 3.0952,5.4984 -1.0021,-3.7302 -3.1165,-3.9064 -4.8954,-5.1214 -1.464,-0.99994 -5.7746,-3.1484 -6.1842,-10.153 -0.46924,-8.0243 8.7409,-10.782 8.7409,-10.782 z m 8.8539,3.2304 c 0,0 -1.3583,2.8937 0.92498,6.8698 -1.181,-0.98419 -2.185,-0.86614 -2.185,-0.86614 0,0 3.5641,3.3598 2.5592,6.7514 -1.371,4.6277 -4.8229,5.4133 -4.8229,5.4133 0,0 5.6689,4.724 -1.2992,9.3496 3.7596,-0.86609 8.1098,-2.2831 10.059,-7.9914 -1.1023,1.5353 -3.7299,4.335 -4.409,3.5428 -0.78996,-0.92153 3.7742,-3.2316 4.8223,-5.2258 1.2935,-2.4611 1.1812,-7.8245 -2.0272,-11.072 0.96451,3.051 0.96474,5.5377 0.23624,7.4802 -0.58371,1.5564 -1.2834,3.0954 -2.2637,4.1336 -1.0891,1.1534 -1.9685,2.4208 -2.1653,3.1688 0.07873,-1.5747 0.60106,-2.5384 1.516,-3.6413 2.0778,-2.5049 3.1922,-6.2049 2.6373,-8.2477 -0.55115,-2.0471 -1.5671,-3.7259 -2.972,-5.7473 -0.69756,-1.0037 -0.61028,-3.9175 -0.61028,-3.9175 z"
       fill-opacity="0.99048"
       id="path1"
       style="fill:#000080" />
  </g>
</svg>
