<?xml version="1.0" encoding="UTF-8" standalone="no"?>
<!-- Uploaded to: SVG Repo, www.svgrepo.com, Generator: SVG Repo Mixer Tools -->

<svg
   fill="#460d08"
   height="800"
   width="591.3031"
   version="1.1"
   id="Layer_1"
   viewBox="0 0 378.43398 512"
   xml:space="preserve"
   sodipodi:docname="potion.svg"
   inkscape:version="1.4.2 (ebf0e940, 2025-05-08)"
   xmlns:inkscape="http://www.inkscape.org/namespaces/inkscape"
   xmlns:sodipodi="http://sodipodi.sourceforge.net/DTD/sodipodi-0.dtd"
   xmlns="http://www.w3.org/2000/svg"
   xmlns:svg="http://www.w3.org/2000/svg"><defs
   id="defs2" /><sodipodi:namedview
   id="namedview2"
   pagecolor="#ffffff"
   bordercolor="#000000"
   borderopacity="0.25"
   inkscape:showpageshadow="2"
   inkscape:pageopacity="0.0"
   inkscape:pagecheckerboard="0"
   inkscape:deskcolor="#d1d1d1"
   inkscape:zoom="0.18096052"
   inkscape:cx="328.801"
   inkscape:cy="392.35078"
   inkscape:window-width="1712"
   inkscape:window-height="971"
   inkscape:window-x="0"
   inkscape:window-y="39"
   inkscape:window-maximized="1"
   inkscape:current-layer="Layer_1" />
<g
   id="g2"
   style="fill:#000080"
   transform="translate(-66.783)">
	<g
   id="g1"
   style="fill:#000080">
		<path
   d="M 333.913,150.57 V 97.316 C 353.348,90.424 367.304,71.854 367.304,50.087 367.304,22.468 344.836,0 317.217,0 H 194.783 c -27.619,0 -50.087,22.468 -50.087,50.087 0,21.767 13.956,40.337 33.391,47.229 v 53.256 C 111.065,181.033 66.783,248.821 66.783,322.783 66.783,427.119 151.663,512 256,512 c 104.337,0 189.217,-84.881 189.217,-189.217 0,-73.962 -44.282,-141.751 -111.304,-172.213 z m -72.028,275.91 c -1.644,1.402 -3.733,2.175 -5.894,2.172 -2.149,-0.003 -4.227,-0.776 -5.864,-2.17 -41.606,-35.493 -66.356,-52.896 -66.356,-81.199 0,-21.739 15.87,-38.772 36.119,-38.772 9.445,0 17.348,3.391 24.174,10.365 l 11.935,12.2 11.935,-12.201 c 6.826,-6.973 14.728,-10.365 24.174,-10.365 20.25,0 36.119,17.033 36.119,38.772 0.002,28.364 -25.004,45.932 -66.342,81.198 z M 248.978,218.597 c -36.018,16.673 -76.663,18.796 -113.87,6.399 16.997,-20.992 39.433,-37.725 65.619,-47.714 6.478,-2.468 10.75,-8.674 10.75,-15.598 v -61.51 h 16.696 c 9.217,0 16.696,-7.473 16.696,-16.696 0,-9.223 -7.479,-16.696 -16.696,-16.696 h -33.391 c -9.206,0 -16.696,-7.49 -16.696,-16.696 0,-9.206 7.49,-16.696 16.696,-16.696 h 122.435 c 9.206,0 16.696,7.49 16.696,16.696 0,9.206 -7.49,16.696 -16.696,16.696 h -33.391 c -9.217,0 -16.696,7.473 -16.696,16.696 0,9.223 7.479,16.696 16.696,16.696 h 16.696 v 61.511 c 0,6.924 4.272,13.131 10.75,15.598 16.381,6.249 31.231,15.206 44.267,26.123 -35.883,-5.321 -72.865,-0.425 -106.561,15.191 z"
   id="path1"
   style="fill:#000080" />
	</g>
</g>
</svg>
