<?xml version="1.0" encoding="UTF-8" standalone="no"?>
<!-- Uploaded to: SVG Repo, www.svgrepo.com, Generator: SVG Repo Mixer Tools -->

<svg
   fill="#460d08"
   height="800px"
   width="800px"
   version="1.1"
   id="Layer_1"
   viewBox="0 0 512 512"
   xml:space="preserve"
   sodipodi:docname="potion.svg"
   inkscape:version="1.4.2 (ebf0e940, 2025-05-08)"
   xmlns:inkscape="http://www.inkscape.org/namespaces/inkscape"
   xmlns:sodipodi="http://sodipodi.sourceforge.net/DTD/sodipodi-0.dtd"
   xmlns="http://www.w3.org/2000/svg"
   xmlns:svg="http://www.w3.org/2000/svg"><defs
   id="defs2" /><sodipodi:namedview
   id="namedview2"
   pagecolor="#ffffff"
   bordercolor="#000000"
   borderopacity="0.25"
   inkscape:showpageshadow="2"
   inkscape:pageopacity="0.0"
   inkscape:pagecheckerboard="0"
   inkscape:deskcolor="#d1d1d1"
   inkscape:zoom="0.06625"
   inkscape:cx="400"
   inkscape:cy="400"
   inkscape:window-width="896"
   inkscape:window-height="204"
   inkscape:window-x="0"
   inkscape:window-y="39"
   inkscape:window-maximized="0"
   inkscape:current-layer="Layer_1" />
<g
   id="g2"
   style="fill:#000080">
	<g
   id="g1"
   style="fill:#000080">
		<path
   d="M333.913,150.57V97.316c19.435-6.892,33.391-25.462,33.391-47.229C367.304,22.468,344.836,0,317.217,0H194.783    c-27.619,0-50.087,22.468-50.087,50.087c0,21.767,13.956,40.337,33.391,47.229v53.256    c-67.022,30.461-111.304,98.249-111.304,172.211C66.783,427.119,151.663,512,256,512s189.217-84.881,189.217-189.217    C445.217,248.821,400.935,181.032,333.913,150.57z M261.885,426.48c-1.644,1.402-3.733,2.175-5.894,2.172    c-2.149-0.003-4.227-0.776-5.864-2.17c-41.606-35.493-66.356-52.896-66.356-81.199c0-21.739,15.87-38.772,36.119-38.772    c9.445,0,17.348,3.391,24.174,10.365l11.935,12.2l11.935-12.201c6.826-6.973,14.728-10.365,24.174-10.365    c20.25,0,36.119,17.033,36.119,38.772C328.229,373.646,303.223,391.214,261.885,426.48z M248.978,218.597    c-36.018,16.673-76.663,18.796-113.87,6.399c16.997-20.992,39.433-37.725,65.619-47.714c6.478-2.468,10.75-8.674,10.75-15.598    v-61.51h16.696c9.217,0,16.696-7.473,16.696-16.696s-7.479-16.696-16.696-16.696h-33.391c-9.206,0-16.696-7.49-16.696-16.696    s7.49-16.696,16.696-16.696h122.435c9.206,0,16.696,7.49,16.696,16.696s-7.49,16.696-16.696,16.696h-33.391    c-9.217,0-16.696,7.473-16.696,16.696s7.479,16.696,16.696,16.696h16.696v61.511c0,6.924,4.272,13.131,10.75,15.598    c16.381,6.249,31.231,15.206,44.267,26.123C319.656,198.085,282.674,202.981,248.978,218.597z"
   id="path1"
   style="fill:#000080" />
	</g>
</g>
</svg>
