<?xml version="1.0" encoding="UTF-8" standalone="no"?>
<!-- Uploaded to: SVG Repo, www.svgrepo.com, Generator: SVG Repo Mixer Tools -->

<svg
   width="532.21722"
   height="691.99573"
   viewBox="0 0 42.577378 55.359658"
   aria-hidden="true"
   role="img"
   class="iconify iconify--emojione-monotone"
   preserveAspectRatio="xMidYMid"
   version="1.1"
   id="svg2"
   sodipodi:docname="ring.svg"
   inkscape:version="1.4.2 (ebf0e940, 2025-05-08)"
   xmlns:inkscape="http://www.inkscape.org/namespaces/inkscape"
   xmlns:sodipodi="http://sodipodi.sourceforge.net/DTD/sodipodi-0.dtd"
   xmlns="http://www.w3.org/2000/svg"
   xmlns:svg="http://www.w3.org/2000/svg">
  <defs
     id="defs2">
    <inkscape:path-effect
       effect="fillet_chamfer"
       id="path-effect1"
       is_visible="true"
       lpeversion="1"
       nodesatellites_param="F,0,1,1,0,0,0,1 @ F,0,1,1,0,0.29186441,0,1 @ F,0,1,1,0,0.29186441,0,1 @ F,0,1,1,0,0.29186441,0,1 @ F,0,1,1,0,0.29186441,0,1 @ F,0,1,1,0,0.29186441,0,1 @ F,0,1,1,0,0.29186441,0,1 @ F,0,1,1,0,0.29186441,0,1 @ F,0,1,1,0,0.29186441,0,1 @ F,0,1,1,0,0,0,1 | F,0,1,1,0,0,0,1 @ F,0,1,1,0,0.29186441,0,1 @ F,0,1,1,0,0.29186441,0,1 @ F,0,1,1,0,0.29186441,0,1 @ F,0,1,1,0,0,0,1 | F,0,1,1,0,0,0,1 @ F,0,1,1,0,0.29186441,0,1 @ F,0,1,1,0,0.29186441,0,1 @ F,0,1,1,0,0.29186441,0,1 @ F,0,1,1,0,0,0,1 | F,0,1,1,0,0,0,1 @ F,0,1,1,0,0.29186441,0,1 @ F,0,1,1,0,0.29186441,0,1 @ F,0,1,1,0,0.29186441,0,1 @ F,0,1,1,0,0,0,1 | F,0,1,1,0,0,0,1 @ F,0,1,1,0,0.29186441,0,1 @ F,0,1,1,0,0.29186441,0,1 @ F,0,1,1,0,0.29186441,0,1 @ F,0,1,1,0,0,0,1 | F,0,1,1,0,0,0,1 @ F,0,1,1,0,0.29186441,0,1 @ F,0,1,1,0,0.29186441,0,1 @ F,0,1,1,0,0.29186441,0,1 @ F,0,1,1,0,0,0,1 | F,0,1,1,0,0,0,1 @ F,0,1,1,0,0.29186441,0,1 @ F,0,1,1,0,0.29186441,0,1 @ F,0,1,1,0,0.29186441,0,1 @ F,0,1,1,0,0,0,1 | F,0,1,1,0,0,0,1 @ F,0,1,1,0,0.29186441,0,1 @ F,0,1,1,0,0.29186441,0,1 @ F,0,1,1,0,0.29186441,0,1 @ F,0,1,1,0,0,0,1"
       radius="0"
       unit="px"
       method="auto"
       mode="F"
       chamfer_steps="1"
       flexible="false"
       use_knot_distance="true"
       apply_no_radius="true"
       apply_with_radius="true"
       only_selected="false"
       hide_knots="false" />
  </defs>
  <sodipodi:namedview
     id="namedview2"
     pagecolor="#ffffff"
     bordercolor="#000000"
     borderopacity="0.25"
     inkscape:showpageshadow="2"
     inkscape:pageopacity="0.0"
     inkscape:pagecheckerboard="0"
     inkscape:deskcolor="#d1d1d1"
     inkscape:zoom="2.2383646"
     inkscape:cx="255.54371"
     inkscape:cy="39.761172"
     inkscape:window-width="1712"
     inkscape:window-height="971"
     inkscape:window-x="0"
     inkscape:window-y="39"
     inkscape:window-maximized="1"
     inkscape:current-layer="svg2" />
  <path
     d="m 26.087,17.312 8.66284,-6.60012 a 0.31953113,0.31953113 100.2876 0 0 0.07697,-0.424067 L 31.436189,4.8871867 A 0.52785574,0.52785574 28.939284 0 0 30.989136,4.64 l -19.399272,0 A 0.52793158,0.52793158 151.0642 0 0 11.142781,4.8871678 L 7.7512189,10.287832 a 0.31947472,0.31947472 79.714332 0 0 0.076951,0.424036 l 8.4316604,6.423264 c 0.128224,0.09768 0.103822,0.201445 -0.05399,0.234279 -9.5850894,1.994235 -16.08311029,10.53544 -16.20412058,20.797736 -0.001900565,0.161177 -0.001921514,0.422532 2.0425e-4,0.583709 0.15360854,11.646701 9.48715563,21.089904 20.99523933,21.247151 0.161166,0.0022 0.422516,0.0022 0.583692,0 11.508081,-0.157257 20.841622,-9.600466 20.995222,-21.247169 0.0021,-0.161167 0.0021,-0.422516 2.04e-4,-0.583696 C 42.454068,27.803028 35.827709,19.193368 26.087,17.312 M 22.67,14.115 h -2.486136 a 0.47996892,0.47996892 31.303376 0 1 -0.426149,-0.259138 l -1.18343,-2.283724 A 0.1774799,0.1774799 121.30338 0 1 18.731864,11.313 h 5.097272 a 0.17753615,0.17753615 58.688563 0 1 0.157652,0.259175 L 22.67,14.115 m 7.408,-7.539 1.692946,2.5585943 A 0.15685257,0.15685257 118.25429 0 1 31.640136,9.378 H 26.574864 A 0.37595319,0.37595319 37.823326 0 1 26.210646,9.095246 L 25.638354,6.858754 A 0.22658361,0.22658361 127.82333 0 1 25.857864,6.576 H 30.078 m -3.918,4.737 h 4.402136 a 0.09783251,0.09783251 71.468926 0 1 0.05896,0.175901 l -3.244194,2.450198 A 0.87072113,0.87072113 161.46893 0 1 26.852136,14.115 H 25.000864 A 0.17753615,0.17753615 58.688563 0 1 24.843212,13.855825 L 26.16,11.313 M 18.971,6.576 h 4.342136 a 0.37595319,0.37595319 37.823326 0 1 0.364218,0.282754 l 0.572292,2.236492 A 0.22658361,0.22658361 127.82333 0 1 24.030136,9.378 H 18.533864 A 0.22564596,0.22564596 52.291705 0 1 18.315488,9.0955388 L 18.971,6.576 m -6.471,0 h 4.218136 a 0.22564596,0.22564596 52.291705 0 1 0.218376,0.2824612 L 16.354488,9.0955388 A 0.37751545,0.37751545 142.2917 0 1 15.989136,9.378 H 10.937864 A 0.15685257,0.15685257 61.74571 0 1 10.807054,9.1345943 L 12.5,6.576 m -0.779,4.737 h 4.389136 a 0.47981685,0.47981685 31.311437 0 1 0.426076,0.259175 l 1.182576,2.28365 A 0.17753615,0.17753615 121.31144 0 1 17.561136,14.115 H 15.707864 A 0.86791281,0.86791281 18.586922 0 1 15.183441,13.938645 L 11.721,11.313 m 9.568,45.151 c -10.575669,0 -17.468732,-7.065695 -17.5923104,-17.713158 -0.00187,-0.161172 -0.00187,-0.422519 9e-7,-0.5837 0.122478,-10.546375 6.8909765,-17.426289 17.3004745,-17.552379 0.161167,-0.002 0.422513,-0.002 0.583692,0 10.409484,0.126082 17.177014,7.00506 17.299453,17.552402 0.0019,0.161168 0.0019,0.422512 10e-7,0.583693 C 38.756755,49.399282 31.864673,56.464 21.289,56.464"
     fill="#460d08"
     id="path1"
     style="fill:#000080"
     sodipodi:nodetypes="ccccccsssccccccccccccccccccccccccccccccccsssc"
     inkscape:path-effect="#path-effect1"
     inkscape:original-d="M 26.087,17.312 34.982,10.535 31.281,4.64 H 11.298 l -3.702,5.895 8.896,6.777 C 6.659,19.212 0,27.965 0,38.459 0,50.338 9.551,60 21.289,60 33.027,60 42.578,50.338 42.578,38.459 42.578,27.965 35.919,19.211 26.087,17.312 M 22.67,14.115 H 19.892 L 18.44,11.313 h 5.681 l -1.451,2.802 m 7.408,-7.539 1.854,2.802 H 26.283 L 25.566,6.576 h 4.512 m -3.918,4.737 h 4.694 l -3.71,2.802 H 24.709 L 26.16,11.313 M 18.971,6.576 h 4.634 l 0.717,2.802 h -6.08 l 0.729,-2.802 m -6.471,0 h 4.51 L 16.281,9.378 H 10.646 L 12.5,6.576 m -0.779,4.737 h 4.681 l 1.451,2.802 h -2.437 l -3.695,-2.802 m 9.568,45.151 c -10.672,0 -17.594,-7.195 -17.594,-18.005 0,-10.81 6.923,-17.846 17.594,-17.846 10.671,0 17.593,7.035 17.593,17.846 0,10.811 -6.921,18.005 -17.593,18.005"
     transform="translate(-3.1088952e-4,-4.64)" />
</svg>
