<?xml version="1.0" encoding="UTF-8" standalone="no"?>
<!-- Uploaded to: SVG Repo, www.svgrepo.com, Generator: SVG Repo Mixer Tools -->

<svg
   width="800px"
   height="800px"
   viewBox="0 0 64 64"
   aria-hidden="true"
   role="img"
   class="iconify iconify--emojione-monotone"
   preserveAspectRatio="xMidYMid meet"
   version="1.1"
   id="svg2"
   sodipodi:docname="ring.svg"
   inkscape:version="1.4.2 (ebf0e940, 2025-05-08)"
   xmlns:inkscape="http://www.inkscape.org/namespaces/inkscape"
   xmlns:sodipodi="http://sodipodi.sourceforge.net/DTD/sodipodi-0.dtd"
   xmlns="http://www.w3.org/2000/svg"
   xmlns:svg="http://www.w3.org/2000/svg">
  <defs
     id="defs2" />
  <sodipodi:namedview
     id="namedview2"
     pagecolor="#ffffff"
     bordercolor="#000000"
     borderopacity="0.25"
     inkscape:showpageshadow="2"
     inkscape:pageopacity="0.0"
     inkscape:pagecheckerboard="0"
     inkscape:deskcolor="#d1d1d1"
     inkscape:zoom="0.76808665"
     inkscape:cx="374.30673"
     inkscape:cy="490.83004"
     inkscape:window-width="1712"
     inkscape:window-height="971"
     inkscape:window-x="0"
     inkscape:window-y="39"
     inkscape:window-maximized="1"
     inkscape:current-layer="svg2" />
  <path
     d="M 35.998,19.312 45.693,9.495 41.992,2 H 22.009 l -3.702,7.495 9.696,9.817 C 18.17,21.212 10.711,29.965 10.711,40.459 10.711,52.338 20.262,62 32,62 43.738,62 53.289,52.338 53.289,40.459 53.289,29.965 45.83,21.211 35.998,19.312 m -2.617,-4.637 h -2.778 l -1.452,-4.402 h 5.681 l -1.451,4.402 M 40.789,3.936 42.963,8.338 H 36.994 L 36.277,3.936 h 4.512 m -3.918,6.337 h 5.334 l -4.35,4.402 H 35.42 l 1.451,-4.402 M 29.682,3.936 h 4.634 l 0.717,4.402 h -6.08 l 0.729,-4.402 m -6.471,0 h 4.51 l -0.729,4.402 h -5.955 l 2.174,-4.402 m -1.419,6.337 h 5.321 l 1.451,4.402 H 26.127 L 21.792,10.273 M 32,59.264 c -10.672,0 -18.394,-7.995 -18.394,-18.805 0,-10.81 7.723,-18.646 18.394,-18.646 10.671,0 18.393,7.835 18.393,18.646 0,10.811 -7.721,18.805 -18.393,18.805"
     fill="#460d08"
     id="path1"
     style="fill:#000080"
     sodipodi:nodetypes="ccccccsssccccccccccccccccccccccccccccccccsssc" />
</svg>
