<?xml version="1.0" encoding="UTF-8" standalone="no"?>
<!-- Uploaded to: SVG Repo, www.svgrepo.com, Generator: SVG Repo Mixer Tools -->

<svg
   fill="#460d08"
   width="800px"
   height="800px"
   viewBox="0 0 32 32"
   version="1.1"
   id="svg1"
   sodipodi:docname="rune.svg"
   inkscape:version="1.4.2 (ebf0e940, 2025-05-08)"
   xmlns:inkscape="http://www.inkscape.org/namespaces/inkscape"
   xmlns:sodipodi="http://sodipodi.sourceforge.net/DTD/sodipodi-0.dtd"
   xmlns="http://www.w3.org/2000/svg"
   xmlns:svg="http://www.w3.org/2000/svg">
  <defs
     id="defs1">
    <inkscape:path-effect
       effect="spiro"
       id="path-effect3"
       is_visible="true"
       lpeversion="1" />
    <inkscape:path-effect
       effect="spiro"
       id="path-effect2"
       is_visible="true"
       lpeversion="1" />
  </defs>
  <sodipodi:namedview
     id="namedview1"
     pagecolor="#ffffff"
     bordercolor="#000000"
     borderopacity="0.25"
     inkscape:showpageshadow="2"
     inkscape:pageopacity="0.0"
     inkscape:pagecheckerboard="0"
     inkscape:deskcolor="#d1d1d1"
     inkscape:zoom="0.40342177"
     inkscape:cx="-251.59772"
     inkscape:cy="59.491087"
     inkscape:window-width="1712"
     inkscape:window-height="971"
     inkscape:window-x="0"
     inkscape:window-y="39"
     inkscape:window-maximized="1"
     inkscape:current-layer="svg1" />
  <title
     id="title1">rune-stone</title>
  <path
     id="path1"
     style="fill:#000080"
     d="M 9.5229688 0.64601562 L 4.9201562 6.2898438 C 5.1766013 7.0165211 8.6598349 19.270652 10.150391 24.669531 L 23.308203 28.360781 L 31.377969 14.392969 L 26.822031 5.9210156 L 9.5229688 0.64601562 z M 8.223125 1.1623438 L 5.3047656 2.2958594 L 1.2986719 6.8071875 L 6.6320312 28.071016 L 20.266016 31.311016 L 22.705469 29.275078 L 9.199375 25.301328 L 3.9886719 6.0567969 L 8.223125 1.1623438 z M 11.015625 3.6640625 L 13.029297 6.0820312 L 11.347656 7.8183594 A 0.23999999 0.23999999 0 0 1 11.291016 7.8183594 L 11.070312 12.283203 A 0.23999999 0.23999999 0 0 1 10.818359 12.509766 A 0.23999999 0.23999999 0 0 1 10.589844 12.257812 L 11.015625 3.6640625 z M 14.076172 4.8632812 A 0.2475425 0.2475425 0 0 1 14.310547 5.1230469 L 14.220156 6.9327344 A 0.2475425 0.2475425 0 0 1 14.240312 6.9511719 L 15.452656 8.1872656 L 15.560547 5.4511719 A 0.2475425 0.2475425 0 0 1 15.816406 5.2148438 A 0.2475425 0.2475425 0 0 1 16.054688 5.4707031 L 15.730469 13.695312 A 0.2475425 0.2475425 0 0 1 15.472656 13.931641 A 0.2475425 0.2475425 0 0 1 15.236328 13.675781 L 15.426094 8.8610938 A 0.2475425 0.2475425 0 0 1 15.386719 8.828125 L 14.186641 7.6030469 L 13.90625 13.216797 A 0.2475425 0.2475425 0 0 1 13.646484 13.451172 A 0.2475425 0.2475425 0 0 1 13.412109 13.191406 L 13.816406 5.0996094 A 0.2475425 0.2475425 0 0 1 14.076172 4.8632812 z M 11.433594 4.9160156 L 11.324219 7.1542969 L 12.384766 6.0566406 L 11.433594 4.9160156 z M 18.03125 5.3535156 L 19.791016 8.4550781 L 18.375 10.076172 L 19.521484 14.341797 A 0.23999999 0.23999999 0 0 1 19.351562 14.634766 A 0.23999999 0.23999999 0 0 1 19.056641 14.464844 L 18.183594 11.210938 L 18.033203 13.882812 A 0.23999999 0.23999999 0 0 1 17.779297 14.109375 A 0.23999999 0.23999999 0 0 1 17.552734 13.855469 L 18.03125 5.3535156 z M 18.419922 7.0097656 L 18.28125 9.453125 L 19.205078 8.3945312 L 18.419922 7.0097656 z M 22.857266 7.2364062 A 0.23999999 0.23999999 0 0 1 22.976562 7.2714844 A 0.23999999 0.23999999 0 0 1 23.056641 7.6015625 L 21.234375 10.603516 L 23.376953 10.326172 L 21.271484 14.804688 A 0.23999999 0.23999999 0 0 1 20.953125 14.919922 A 0.23999999 0.23999999 0 0 1 20.837891 14.601562 L 22.570312 10.914062 L 20.304688 11.208984 L 22.646484 7.3515625 A 0.23999999 0.23999999 0 0 1 22.857266 7.2364062 z M 25.484375 7.7382812 L 26.494141 10.574219 A 0.23999999 0.23999999 0 0 1 26.347656 10.880859 A 0.23999999 0.23999999 0 0 1 26.041016 10.736328 L 25.556094 9.3729688 L 25.099609 15.933594 A 0.23999999 0.23999999 0 0 1 24.84375 16.15625 A 0.23999999 0.23999999 0 0 1 24.621094 15.900391 L 25.095391 9.084375 L 24.175781 10.347656 A 0.23999999 0.23999999 0 0 1 23.839844 10.400391 A 0.23999999 0.23999999 0 0 1 23.787109 10.064453 L 25.484375 7.7382812 z M 13.005859 14.884766 L 14.34375 17.261719 L 15.548828 16.226562 A 0.23999999 0.23999999 0 0 1 15.888672 16.253906 A 0.23999999 0.23999999 0 0 1 15.861328 16.591797 L 14.210938 18.005859 L 13.34375 16.464844 L 12.818359 22.236328 L 13.886719 21.203125 L 14.894531 23.029297 A 0.23999999 0.23999999 0 0 1 14.800781 23.355469 A 0.23999999 0.23999999 0 0 1 14.474609 23.261719 L 13.769531 21.986328 L 12.222656 23.482422 L 13.005859 14.884766 z M 17.341797 16.210938 L 18.298828 19.478516 L 19.46875 17.279297 L 19.919922 17.40625 L 19.474609 24.642578 A 0.23999999 0.23999999 0 0 1 19.220703 24.867188 A 0.23999999 0.23999999 0 0 1 18.996094 24.613281 L 19.373047 18.478516 L 18.167969 20.742188 L 17.253906 17.621094 L 16.783203 24.152344 A 0.23999999 0.23999999 0 0 1 16.525391 24.373047 A 0.23999999 0.23999999 0 0 1 16.302734 24.117188 L 16.871094 16.259766 L 17.341797 16.210938 z M 22.310313 17.640547 A 0.23999999 0.23999999 0 0 1 22.341797 17.640625 A 0.23999999 0.23999999 0 0 1 22.564453 17.896484 L 22.432266 19.922969 L 23.423828 18.517578 A 0.23999999 0.23999999 0 0 1 23.757812 18.460938 A 0.23999999 0.23999999 0 0 1 23.814453 18.794922 L 22.372422 20.839375 L 22.074219 25.410156 A 0.23999999 0.23999999 0 0 1 21.820312 25.632812 A 0.23999999 0.23999999 0 0 1 21.595703 25.378906 L 21.891016 20.852578 L 20.800781 17.992188 A 0.23999999 0.23999999 0 0 1 20.939453 17.681641 A 0.23999999 0.23999999 0 0 1 21.031484 17.666406 A 0.23999999 0.23999999 0 0 1 21.248047 17.820312 L 21.965937 19.704219 L 22.085938 17.865234 A 0.23999999 0.23999999 0 0 1 22.310313 17.640547 z " />
</svg>
