<?xml version="1.0" encoding="UTF-8" standalone="no"?>
<!-- Uploaded to: SVG Repo, www.svgrepo.com, Generator: SVG Repo Mixer Tools -->

<svg
   width="750"
   height="750.02502"
   viewBox="0 0 60 60.002002"
   aria-hidden="true"
   role="img"
   class="iconify iconify--emojione-monotone"
   preserveAspectRatio="xMidYMid"
   version="1.1"
   id="svg8"
   sodipodi:docname="scroll.svg"
   inkscape:version="1.4.2 (ebf0e940, 2025-05-08)"
   xmlns:inkscape="http://www.inkscape.org/namespaces/inkscape"
   xmlns:sodipodi="http://sodipodi.sourceforge.net/DTD/sodipodi-0.dtd"
   xmlns="http://www.w3.org/2000/svg"
   xmlns:svg="http://www.w3.org/2000/svg">
  <defs
     id="defs8" />
  <sodipodi:namedview
     id="namedview8"
     pagecolor="#ffffff"
     bordercolor="#000000"
     borderopacity="0.25"
     inkscape:showpageshadow="2"
     inkscape:pageopacity="0.0"
     inkscape:pagecheckerboard="0"
     inkscape:deskcolor="#d1d1d1"
     inkscape:zoom="0.06625"
     inkscape:cx="369.81132"
     inkscape:cy="362.26415"
     inkscape:window-width="896"
     inkscape:window-height="245"
     inkscape:window-x="0"
     inkscape:window-y="39"
     inkscape:window-maximized="0"
     inkscape:current-layer="svg8" />
  <path
     d="M 58.711,50.708 H 58.698 V 9.3 h 0.013 C 59.423,9.3 60,8.719 60,8.002 60,7.285 59.423,6.704 58.711,6.704 h -0.99 c 0.193,-0.393 0.313,-0.83 0.313,-1.298 A 2.928,2.928 0 0 0 55.116,2.468 H 54.03 v -1.3 c 0,-0.641 -0.517,-1.161 -1.154,-1.161 -0.635,0 -1.151,0.52 -1.151,1.161 V 2.467 H 50.639 A 2.929,2.929 0 0 0 47.72,5.405 c 0,0.469 0.119,0.905 0.313,1.298 h -0.99 a 1.3,1.3 0 0 0 -1.079,2.006 c -2.93,0.49 -9.125,1.347 -16.631,1.347 -5.428,0 -10.548,-0.47 -15.297,-1.347 0.135,-0.205 0.214,-0.45 0.214,-0.714 0,-0.718 -0.578,-1.298 -1.289,-1.298 H 11.969 C 12.163,6.303 12.282,5.866 12.282,5.398 A 2.927,2.927 0 0 0 9.365,2.46 H 8.279 V 1.162 A 1.159,1.159 0 0 0 7.125,0 C 6.487,0 5.971,0.52 5.971,1.162 V 2.46 H 4.885 c -1.611,0 -2.916,1.315 -2.916,2.938 0,0.469 0.119,0.906 0.313,1.299 H 1.289 C 0.577,6.697 0,7.277 0,7.995 0,8.711 0.577,9.293 1.289,9.293 H 1.302 V 50.7 H 1.289 C 0.577,50.7 0,51.281 0,51.997 c 0,0.719 0.577,1.299 1.289,1.299 H 2.28 a 2.95,2.95 0 0 0 -0.312,1.299 c 0,1.623 1.305,2.938 2.916,2.938 H 5.97 v 1.299 c 0,0.642 0.517,1.162 1.154,1.162 0.637,0 1.153,-0.521 1.153,-1.162 v -1.299 h 1.084 a 2.928,2.928 0 0 0 2.919,-2.938 c 0,-0.469 -0.119,-0.905 -0.313,-1.299 h 0.992 c 0.69,0 1.252,-0.55 1.284,-1.239 3.187,0.52 9.226,1.312 16.421,1.312 5.329,0 10.392,-0.432 15.097,-1.277 a 1.289,1.289 0 0 0 1.28,1.213 h 0.99 c -0.194,0.393 -0.313,0.83 -0.313,1.299 a 2.93,2.93 0 0 0 2.919,2.938 h 1.086 v 1.299 c 0,0.641 0.517,1.161 1.151,1.161 0.638,0 1.154,-0.521 1.154,-1.161 V 57.54 h 1.086 c 1.611,0 2.916,-1.315 2.916,-2.938 0,-0.469 -0.119,-0.906 -0.312,-1.299 h 0.991 c 0.712,0 1.289,-0.581 1.289,-1.299 A 1.29,1.29 0 0 0 58.711,50.708 M 48.928,49.771 V 10.237 h 7.896 V 49.77 H 48.928 Z M 11.072,49.763 H 3.177 V 10.231 h 7.896 v 39.532 z m 1.875,0.166 V 10.441 c 5.062,0.989 10.567,1.49 16.385,1.49 8.328,0 15.122,-1.045 17.717,-1.506 v 39.514 c -5.041,1.032 -10.549,1.554 -16.384,1.554 -8.597,0 -15.513,-1.15 -17.718,-1.564"
     fill="#460d08"
     id="path1"
     style="fill:#000080" />
  <path
     d="m 29.998,15.816 c -8.457,0 -13.089,-1.373 -13.135,-1.386 l -0.273,0.897 c 0.192,0.058 4.795,1.427 13.408,1.427 9.195,0 13.639,-1.37 13.822,-1.428 l -0.281,-0.894 c -0.044,0.013 -4.489,1.384 -13.541,1.384"
     fill="#460d08"
     id="path2"
     style="fill:#000080" />
  <path
     d="m 29.998,20.098 c -8.457,0 -13.089,-1.373 -13.135,-1.386 l -0.273,0.897 c 0.192,0.058 4.795,1.426 13.408,1.426 9.195,0 13.639,-1.37 13.822,-1.428 l -0.281,-0.894 c -0.044,0.014 -4.489,1.385 -13.541,1.385"
     fill="#460d08"
     id="path3"
     style="fill:#000080" />
  <path
     d="m 29.998,24.379 c -8.457,0 -13.089,-1.372 -13.135,-1.386 L 16.59,23.89 c 0.192,0.058 4.795,1.426 13.408,1.426 v -0.937"
     fill="#460d08"
     id="path4"
     style="fill:#000080" />
  <path
     d="m 29.998,32.941 c -2.291,0 -4.509,-0.1 -6.592,-0.297 l -0.088,0.934 c 2.111,0.199 4.359,0.301 6.68,0.301 9.195,0 13.638,-1.369 13.822,-1.428 l -0.281,-0.895 c -0.044,0.015 -4.489,1.385 -13.541,1.385"
     fill="#460d08"
     id="path5"
     style="fill:#000080" />
  <path
     d="m 29.998,37.224 c -8.457,0 -13.089,-1.372 -13.135,-1.386 l -0.273,0.896 c 0.192,0.059 4.795,1.427 13.408,1.427 9.195,0 13.639,-1.37 13.822,-1.429 l -0.281,-0.893 c -0.044,0.015 -4.489,1.385 -13.541,1.385"
     fill="#460d08"
     id="path6"
     style="fill:#000080" />
  <path
     d="m 29.998,41.506 c -8.457,0 -13.089,-1.373 -13.135,-1.387 l -0.273,0.897 c 0.192,0.058 4.795,1.427 13.408,1.427 9.195,0 13.639,-1.37 13.822,-1.429 L 43.539,40.12 c -0.044,0.015 -4.489,1.386 -13.541,1.386"
     fill="#460d08"
     id="path7"
     style="fill:#000080" />
  <path
     d="m 16.59,45.298 c 0.192,0.058 4.795,1.426 13.408,1.426 v -0.938 c -8.457,0 -13.089,-1.372 -13.135,-1.386 l -0.273,0.898"
     fill="#460d08"
     id="path8"
     style="fill:#000080" />
</svg>
