<?xml version="1.0" encoding="UTF-8" standalone="no"?>
<!-- Uploaded to: SVG Repo, www.svgrepo.com, Generator: SVG Repo Mixer Tools -->

<svg
   width="749.41522"
   height="752.3504"
   viewBox="0 0 479.62574 481.50426"
   version="1.1"
   id="svg1"
   sodipodi:docname="sword.svg"
   inkscape:version="1.4.2 (ebf0e940, 2025-05-08)"
   xmlns:inkscape="http://www.inkscape.org/namespaces/inkscape"
   xmlns:sodipodi="http://sodipodi.sourceforge.net/DTD/sodipodi-0.dtd"
   xmlns="http://www.w3.org/2000/svg"
   xmlns:svg="http://www.w3.org/2000/svg">
  <defs
     id="defs1" />
  <sodipodi:namedview
     id="namedview1"
     pagecolor="#ffffff"
     bordercolor="#000000"
     borderopacity="0.25"
     inkscape:showpageshadow="2"
     inkscape:pageopacity="0.0"
     inkscape:pagecheckerboard="0"
     inkscape:deskcolor="#d1d1d1"
     inkscape:zoom="0.57212274"
     inkscape:cx="381.91105"
     inkscape:cy="134.5865"
     inkscape:window-width="1712"
     inkscape:window-height="971"
     inkscape:window-x="0"
     inkscape:window-y="39"
     inkscape:window-maximized="1"
     inkscape:current-layer="svg1" />
  <path
     fill="#460d08"
     d="m 124.38875,0 87.813,128.725 -60.87,-39.916 34.925,62.864 L 16.62275,41.91 h -0.003 c 40.207,71.33 82.046,134.913 129.23,191.764 L 282.00275,97.52 C 236.83875,60.468 185.32875,28.196 124.38875,0 Z m 347.145,9.496 -120.488,46.067 -248.33244,249.11244 13.213,13.215 L 361.42975,71.6 l 78.078,-29.85 -29.402,78.56 -247.586,247.09 13.213,13.214 250.45,-249.946 45.35,-121.172 z m -86.294,73.484 -259.95,259.95 c -11.956,-17.32 -11.687,-40.444 0.25,-57.764 l -31.26,-31.255 c -28.637,34.832 -28.588,85.102 0.167,119.864 l -64.048,64.045 c -2.528,-0.95 -5.184,-1.43 -7.842,-1.43 -5.74,0 -11.476,2.216 -15.908,6.647 -8.864,8.865 -8.866,22.953 0,31.82 8.864,8.863 22.954,8.863 31.818,0 6.512,-6.513 8.234,-15.844 5.178,-23.853 l 64.057,-64.056 c 34.788,28.437 85.12,28.65 119.817,0.203 l -31.262,-31.26 c -17.28,11.84 -40.352,11.907 -57.68,0.18 l 259.876,-259.874 -13.214,-13.215 z m -2.196,117.01 -136.795,136.797 c 55.29,48.057 118.235,90.138 192.464,127.216 l -61.867,-118.743 102.78,68.85 -117.75,-164.645 86.816,42.908 c -20.895,-33.04 -42.523,-63.772 -65.65,-92.382 z"
     id="path1"
     style="fill:#000080"
     sodipodi:nodetypes="cccccccccccccccccccccccccccscccccccccccccccccccc" />
</svg>
