<?xml version="1.0" encoding="UTF-8" standalone="no"?>
<svg
   viewBox="221.6558 159.7398 219.9307 221.2426"
   width="219.931px"
   height="221.243px"
   preserveAspectRatio="none"
   version="1.1"
   id="svg2"
   sodipodi:docname="torch.svg"
   inkscape:version="1.4.2 (ebf0e940, 2025-05-08)"
   xmlns:inkscape="http://www.inkscape.org/namespaces/inkscape"
   xmlns:sodipodi="http://sodipodi.sourceforge.net/DTD/sodipodi-0.dtd"
   xmlns="http://www.w3.org/2000/svg"
   xmlns:svg="http://www.w3.org/2000/svg">
  <defs
     id="defs2" />
  <sodipodi:namedview
     id="namedview2"
     pagecolor="#ffffff"
     bordercolor="#000000"
     borderopacity="0.25"
     inkscape:showpageshadow="2"
     inkscape:pageopacity="0.0"
     inkscape:pagecheckerboard="0"
     inkscape:deskcolor="#d1d1d1"
     inkscape:zoom="1.98746"
     inkscape:cx="120.50557"
     inkscape:cy="104.40462"
     inkscape:window-width="896"
     inkscape:window-height="204"
     inkscape:window-x="0"
     inkscape:window-y="39"
     inkscape:window-maximized="0"
     inkscape:current-layer="svg2" />
  <g
     id="object-0"
     transform="matrix(0.4108940064907074, 0, 0, 0.4108940064907074, 214.52554383167762, 157.18694474391089)"
     style="fill:#000080;fill-opacity:1">
    <path
       d="M347.945,265.363l26.459-47.651c21.027-36.69,26.346-68.721,15.794-95.189c-13.98-35.05-50.497-46.375-52.033-46.835 c-3.549-1.067-7.333,0.217-9.502,3.185c-2.169,2.959-2.239,6.968-0.174,10.014c20.254,29.739-7.801,51.495-11.038,53.864 c-0.382,0.269-0.746,0.573-1.076,0.911c-4.556,4.547-9.155,6.595-13.763,6.318c-8.583-0.547-16.835-8.886-19.256-12.028 c-0.234-0.304-0.486-0.599-0.772-0.877c-9.181-9.181-6.222-30.347-4.313-37.723c0.095-0.356,0.165-0.738,0.217-1.111 c3.549-28.169-2.17-49.742-16.992-64.113c-24.446-23.708-64.061-17.79-65.744-17.53c-3.228,0.503-5.884,2.777-6.899,5.884 c-1.015,3.107-0.191,6.517,2.117,8.826c8.756,8.756,13.13,16.87,12.661,23.448c-0.434,5.953-4.816,9.277-4.894,9.337 c-0.425,0.295-0.824,0.633-1.189,0.998c-9.737,9.728-16.497,7.099-18.71,6.266c-4.738-1.822-7.732-6.352-9.416-9.841 c-4.391-9.068-10.622-18.527-18.536-28.125C134.519,13.572,109.171,3.401,84.742,6.89c-37.454,5.32-58.134,31.596-58.993,32.716 c-1.762,2.291-2.274,5.311-1.362,8.062c0.92,2.742,3.15,4.851,5.936,5.615c18.328,5.025,32.855,11.42,43.19,19.013 c10.327,7.593,10.9,19.005,8.001,27.153c-2.907,8.175-10.813,16.714-23.448,16.054c-15.386-0.755-28.559-6.17-28.681-6.222 c-2.69-1.12-5.745-0.824-8.14,0.781c-2.412,1.597-3.87,4.287-3.888,7.185c-0.043,8.53,0.26,16.774,0.903,24.498 c3.636,43.39,24.932,95.111,72.99,98.122c15.386,0.955,26.954,7.081,32.187,12.045c14.05,13.303,19.985,25.288,17.668,35.588 c-3.749,16.549-28.42,27.917-37.61,30.902c-2.187,0.712-4.018,2.265-5.059,4.322c-1.05,2.057-1.241,4.443-0.521,6.63 c0.165,0.512,16.323,47.677,76.843,47.677c4.513,0,9.285-0.269,14.31-0.833c16.184-1.822,32.889-7.003,49.994-15.568 l32.994-18.467l52.632,48.423l72.114-72.114L347.945,265.363z M231.382,281.157l-28.941-26.624 c-1.168-1.072-2.255-2.208-3.275-3.389c1.023,1.181,2.111,2.315,3.275,3.389l14.154,13.017l85.556-26.32l13.017,14.154 L231.382,281.157z M192.661,240.9c-2.187-4.929-3.419-10.301-3.532-15.881c-0.009-0.399,0.087-0.772,0.087-1.172l77.494-21.131 l13.234,14.379L192.661,240.9z M196.323,247.33c-0.519-0.759-1.011-1.532-1.487-2.313 C195.313,245.799,195.806,246.572,196.323,247.33z M288.076,200.287l3.046,3.315l-5.545-6.031l-12.054-13.095 c-10.917-11.863-25.808-18.58-41.932-18.918c-15.941-0.304-31.267,5.762-42.661,17.156s-17.486,26.546-17.156,42.67 c0.338,16.115,7.047,31.006,18.918,41.923l21.487,19.76l2.152,1.979l44.292,40.752l-27.683,15.499 c-14.926,7.463-29.661,12.062-43.815,13.659c-43.173,4.851-62.013-16.011-69.111-27.674c12.887-5.814,35.18-18.701,40.005-39.893 c3.801-16.722-3.818-34.235-22.649-52.076c-9.962-9.442-26.051-15.707-43.034-16.775c-34.642-2.161-53.482-42.86-56.78-82.232 c-0.295-3.558-0.512-7.246-0.66-11.03c6.049,1.588,13.841,3.15,22.311,3.567c18.675,0.955,34.382-9.919,40.656-27.57 c6.274-17.625,0.746-36.057-14.067-46.956c-9.121-6.699-20.74-12.522-34.677-17.382c8.07-6.5,21.009-14.44,38.07-16.861 c18.519-2.629,37.766,5.181,50.306,20.367c7.029,8.522,12.514,16.809,16.297,24.637c4.365,9.034,10.873,15.421,18.805,18.475 c7.229,2.777,21.539,5.155,36.777-9.745c2.612-2.039,10.431-9.112,11.516-21.278c0.677-7.55-1.388-15.308-6.153-23.188 c10.865,0.729,24.906,3.732,34.729,13.295c10.57,10.301,14.562,26.754,11.863,48.918c-1.423,5.719-8.001,36.231,8.583,53.396 c2.534,3.185,14.614,17.2,31.475,18.345c6.647,0.443,16.696-1.093,26.754-10.865c12.193-9.008,28.472-29.219,24.411-54.029 c8.062,5.78,16.662,14.362,21.521,26.555c8.496,21.304,3.541,48.258-14.779,80.228l-23.734,42.722L288.076,200.287z"
       id="path1"
       style="fill:#000080;fill-opacity:1" />
    <polygon
       points="408.564,331.252 337.474,402.342 363.048,425.868 432.09,356.826    "
       id="polygon1"
       style="fill:#000080;fill-opacity:1" />
    <path
       d="M 540.72 469.365 L 440.82 364.116 L 371.081 432.592 L 477.319 532.766 C 485.945 540.706 496.827 544.655 507.692 544.655 C 519.19 544.655 530.654 540.238 539.427 531.473 C 556.479 514.404 557.052 487.12 540.72 469.365 Z"
       id="path2"
       style="fill:#000080;fill-opacity:1" />
  </g>
</svg>
