<?xml version="1.0" encoding="UTF-8" standalone="no"?>
<!-- Uploaded to: SVG Repo, www.svgrepo.com, Generator: SVG Repo Mixer Tools -->

<svg
   height="800px"
   width="800px"
   version="1.1"
   id="_x32_"
   viewBox="0 0 512 512"
   xml:space="preserve"
   sodipodi:docname="unicorn.svg"
   inkscape:version="1.4.2 (ebf0e940, 2025-05-08)"
   xmlns:inkscape="http://www.inkscape.org/namespaces/inkscape"
   xmlns:sodipodi="http://sodipodi.sourceforge.net/DTD/sodipodi-0.dtd"
   xmlns="http://www.w3.org/2000/svg"
   xmlns:svg="http://www.w3.org/2000/svg"><defs
   id="defs4" /><sodipodi:namedview
   id="namedview4"
   pagecolor="#ffffff"
   bordercolor="#000000"
   borderopacity="0.25"
   inkscape:showpageshadow="2"
   inkscape:pageopacity="0.0"
   inkscape:pagecheckerboard="0"
   inkscape:deskcolor="#d1d1d1"
   inkscape:zoom="0.06625"
   inkscape:cx="400"
   inkscape:cy="400"
   inkscape:window-width="896"
   inkscape:window-height="204"
   inkscape:window-x="0"
   inkscape:window-y="39"
   inkscape:window-maximized="0"
   inkscape:current-layer="_x32_" />
<style
   type="text/css"
   id="style1">
	.st0{fill:#460d08;}
</style>
<g
   id="g4"
   style="fill:#000080">
	<path
   class="st0"
   d="M499.453,272.301L347.456,140.766L329.118,94.32c-1.396-3.545-4.661-6.012-8.462-6.386   c-3.794-0.368-7.483,1.42-9.54,4.623L84.529,445.016h231.672l38.937-98.48l90.728,18.02c13.908,3.065,28.32-2.281,36.856-13.671   l22.014-29.348C516.177,306.278,513.871,284.776,499.453,272.301z"
   id="path1"
   style="fill:#000080" />
	<path
   class="st0"
   d="M174.329,187.368c-14.886,19.696,7.964,37.759-6.916,57.468c-14.886,19.696-37.734,1.638-52.62,21.334   c-14.886,19.696,7.963,37.766-6.911,57.462c-14.879,19.696-37.734,1.633-52.613,21.322c-14.88,19.696,7.976,37.76-6.911,57.462   C33.479,422.112,6.823,414.279,0,445.016h61.475l188.062-289.309C215.248,169.796,189.215,167.659,174.329,187.368z"
   id="path2"
   style="fill:#000080" />
	<path
   class="st0"
   d="M469.414,74.949c1.028-2.586,0.081-5.545-2.262-7.054c-2.343-1.495-5.427-1.121-7.346,0.898l-21.764,22.911   l23.603,2.66L469.414,74.949z"
   id="path3"
   style="fill:#000080" />
	<polygon
   class="st0"
   points="440.689,146.754 391.054,141.165 383.315,149.309 426.009,183.466  "
   id="polygon3"
   style="fill:#000080" />
	<polygon
   class="st0"
   points="455.394,109.979 424.034,106.452 405.06,126.416 446.939,131.127  "
   id="polygon4"
   style="fill:#000080" />
</g>
</svg>
