<?xml version="1.0" encoding="UTF-8" standalone="no"?>
<!-- Uploaded to: SVG Repo, www.svgrepo.com, Generator: SVG Repo Mixer Tools -->

<svg
   width="736.40002"
   height="740.5672"
   viewBox="0 0 471.29602 473.96301"
   version="1.1"
   id="svg1"
   sodipodi:docname="wand.svg"
   inkscape:version="1.4.2 (ebf0e940, 2025-05-08)"
   xmlns:inkscape="http://www.inkscape.org/namespaces/inkscape"
   xmlns:sodipodi="http://sodipodi.sourceforge.net/DTD/sodipodi-0.dtd"
   xmlns="http://www.w3.org/2000/svg"
   xmlns:svg="http://www.w3.org/2000/svg">
  <defs
     id="defs1" />
  <sodipodi:namedview
     id="namedview1"
     pagecolor="#ffffff"
     bordercolor="#000000"
     borderopacity="0.25"
     inkscape:showpageshadow="2"
     inkscape:pageopacity="0.0"
     inkscape:pagecheckerboard="0"
     inkscape:deskcolor="#d1d1d1"
     inkscape:zoom="0.06625"
     inkscape:cx="369.81132"
     inkscape:cy="362.26415"
     inkscape:window-width="896"
     inkscape:window-height="245"
     inkscape:window-x="0"
     inkscape:window-y="39"
     inkscape:window-maximized="0"
     inkscape:current-layer="svg1" />
  <path
     fill="#460d08"
     d="m 360.066,0.003 4.06,50.167 54.32,2.856 2.677,54.306 50.173,3.898 L 463.302,8.35 360.066,0 Z m -17.844,11.227 -113.356,113.356 44.086,3.566 72.837,-72.842 -3.566,-44.08 z m 16.696,57.38 -72.98,72.983 2.19,41.692 41.526,2.05 73.004,-73.01 -2.046,-41.522 -41.694,-2.192 z m 56.836,57.05 -72.457,72.46 3.433,44.213 113.24,-113.237 z m -196.213,16.92 7.483,92.525 -43.234,-43.235 c -0.846,7.773 -2.35,14.887 -4.5,21.356 l 78.48,78.482 c 6.443,-2.176 13.52,-3.72 21.244,-4.613 l -42.5,-42.5 92.203,7.164 -3.723,-47.943 -54.648,-2.696 -2.868,-54.662 -47.94,-3.877 z m -48.855,88.472 c -4.9,7.32 -11.07,13.37 -18.474,18.187 l 69.585,69.584 c 4.836,-7.382 10.892,-13.547 18.2,-18.458 l -69.31,-69.312 z m -36.392,26.7 c -6.41,2.14 -13.407,3.69 -20.983,4.66 l 29.25,29.25 0.34,-0.34 13.215,13.216 -0.34,0.34 52.697,52.697 c 1.007,-7.542 2.585,-14.51 4.75,-20.894 l -78.93,-78.93 z M 118.442,293.973 0.002,412.057 v 22.17 L 129.35,304.879 118.445,293.975 Z m 24.12,24.12 L 0,460.653 v 13.31 h 53.73 l 122.35,-122.35 -33.518,-33.517 z"
     id="path1"
     style="fill:#000080" />
</svg>
