<?xml version="1.0" encoding="UTF-8" standalone="no"?>
<!-- Uploaded to: SVG Repo, www.svgrepo.com, Generator: SVG Repo Mixer Tools -->

<svg
   width="800px"
   height="800px"
   viewBox="0 0 400 400"
   fill="none"
   version="1.1"
   id="svg10"
   sodipodi:docname="wizard.svg"
   inkscape:version="1.4.2 (ebf0e940, 2025-05-08)"
   xmlns:inkscape="http://www.inkscape.org/namespaces/inkscape"
   xmlns:sodipodi="http://sodipodi.sourceforge.net/DTD/sodipodi-0.dtd"
   xmlns="http://www.w3.org/2000/svg"
   xmlns:svg="http://www.w3.org/2000/svg">
  <defs
     id="defs10" />
  <sodipodi:namedview
     id="namedview10"
     pagecolor="#ffffff"
     bordercolor="#000000"
     borderopacity="0.25"
     inkscape:showpageshadow="2"
     inkscape:pageopacity="0.0"
     inkscape:pagecheckerboard="0"
     inkscape:deskcolor="#d1d1d1"
     inkscape:zoom="1.2443311"
     inkscape:cx="403.02777"
     inkscape:cy="339.13802"
     inkscape:window-width="1712"
     inkscape:window-height="971"
     inkscape:window-x="0"
     inkscape:window-y="39"
     inkscape:window-maximized="1"
     inkscape:current-layer="svg10" />
  <path
     style="baseline-shift:baseline;display:inline;overflow:visible;opacity:1;vector-effect:none;fill:#000080;fill-opacity:1;stroke:none;stroke-linecap:round;stroke-linejoin:round;stroke-opacity:0.9;enable-background:accumulate;stop-color:#000000;stop-opacity:1"
     d="m 200.81836,150.21289 c -4.41828,0 -8,3.58172 -8,8 0,4.41828 3.58172,8 8,8 20.95874,0 41.94492,1.43057 63.51562,1.75781 4.41772,0.0663 8.05276,-3.46118 8.11914,-7.8789 0.0663,-4.41697 -3.46,-8.05169 -7.87695,-8.11914 -21.01129,-0.31876 -42.08055,-1.75977 -63.75781,-1.75977 z"
     id="path1"
     sodipodi:nodetypes="ssscccs" />
  <path
     style="baseline-shift:baseline;display:inline;overflow:visible;opacity:1;vector-effect:none;fill:#000080;fill-opacity:1;stroke:none;stroke-linecap:round;stroke-linejoin:round;stroke-opacity:0.9;enable-background:accumulate;stop-color:#000000;stop-opacity:1"
     d="m 234.84766,42.113281 c -0.74315,-0.0047 -1.44077,0.07579 -2.03907,0.251953 -2.39317,0.704662 -3.50814,1.818027 -4.38672,2.703125 -1.75715,1.770197 -2.63812,3.35598 -3.64453,5.191407 -2.0128,3.670852 -3.91759,8.212399 -5.74218,12.90039 -1.8246,4.687991 -3.51012,9.452073 -4.77539,13.154297 -1.26238,3.69373 -1.86623,5.498974 -2.26954,6.886719 -6.7013,22.902298 -8.93153,45.818598 -13.33007,67.494138 -0.87901,4.3298 1.91828,8.55242 6.24804,9.43164 4.33043,0.87892 8.55334,-1.91944 9.43164,-6.25 4.61546,-22.74445 6.85717,-45.16989 13.00586,-66.183591 0.002,-0.0052 0.004,-0.01042 0.006,-0.01563 -0.2093,0.720848 0.83295,-2.629801 2.04883,-6.1875 1.03939,-3.041278 2.45561,-6.93703 3.88672,-10.708984 1.6796,8.431162 3.47754,18.660454 5.15625,29.548825 1.82772,11.85489 3.5044,24.00471 4.7168,33.95312 1.2124,9.94841 1.93164,18.20917 1.93164,20.26172 0,4.41828 3.58172,8 8,8 4.41828,0 8,-3.58172 8,-8 0,-4.53045 -0.81154,-12.04464 -2.04883,-22.19726 -1.23729,-10.15263 -2.93113,-22.42959 -4.78516,-34.455077 -1.85402,-12.025497 -3.86246,-23.7752 -5.75781,-32.964844 -0.94767,-4.594821 -1.85799,-8.53362 -2.76953,-11.703125 -0.45577,-1.584752 -0.90053,-2.967433 -1.44727,-4.294922 -0.54673,-1.327488 -0.6692,-2.52681 -3.08789,-4.683593 -1.4917,-1.330313 -4.11822,-2.118682 -6.34765,-2.132813 z"
     id="path2"
     sodipodi:nodetypes="ssssssccccccscsssssssssscss" />
  <path
     style="baseline-shift:baseline;display:inline;overflow:visible;opacity:1;vector-effect:none;fill:#000080;fill-opacity:1;stroke-linecap:round;stroke-linejoin:round;enable-background:accumulate;stop-color:#000000;stop-opacity:1;stroke:none;stroke-opacity:0.89999998"
     d="m 235.92383,184.04102 c -4.13229,-0.13796 -8.58292,0.68024 -13.58203,2.26562 -0.60475,0.38365 -1.15524,0.84677 -1.63672,1.37695 -3.49243,-1.02396 -7.23587,0.43843 -9.10938,3.5586 -4.9768,9.58188 -5.16585,21.16269 -1.93554,31.51758 1.7917,5.74637 9.84709,27.20501 14.23393,30.15348 4.38731,2.94879 7.2208,1.56709 11.44236,-0.0425 8.44313,-3.21916 11.16171,-25.83396 14.90378,-33.72037 3.74208,-7.88641 6.36568,-16.9603 1.9043,-25.69336 -2.23069,-4.36653 -6.92262,-7.89089 -12.18555,-8.95117 -1.31573,-0.26507 -2.65772,-0.41886 -4.03515,-0.46484 z m -2.54102,16.13085 c 1.60668,-0.17527 2.74931,-0.11673 3.41602,0.0176 1.33341,0.26864 0.91284,0.18511 1.09765,0.54688 0.36963,0.72353 0.4016,6.25872 -2.11132,11.55469 -2.50547,5.28024 -7.20259,9.72888 -8.59961,10.27734 -0.26008,-0.26235 -1.24305,-1.33604 -2.25196,-4.57227 v -0.002 c -1.68589,-5.40421 -1.51157,-11.95292 -0.0996,-16.63672 0.7677,0.18237 1.55816,0.25016 2.34571,0.20117 2.52563,-0.80095 4.59644,-1.21144 6.20312,-1.38672 z"
     id="path3"
     sodipodi:nodetypes="sccccsssssssssscccccss" />
  <path
     style="baseline-shift:baseline;display:inline;overflow:visible;opacity:1;vector-effect:none;fill:#000080;fill-opacity:1;stroke:none;stroke-linecap:round;stroke-linejoin:round;stroke-opacity:0.9;enable-background:accumulate;stop-color:#000000;stop-opacity:1"
     d="m 170.25391,171.55078 c -2.33079,0.0834 -4.50915,1.17974 -5.96485,3.00195 -4.23206,5.29977 -6.34288,12.05873 -7.03125,19.69336 v 0.002 c -0.2095,2.32877 -1.63948,8.053 -2.81836,13.92968 -1.17887,5.87669 -2.60649,12.00718 -0.3457,18.84375 2.29112,6.92673 7.9177,9.26296 12.90625,11.27539 4.98855,2.01244 10.51614,3.48094 15.80469,5.08594 5.28855,1.60501 10.30461,3.36148 13.65039,5.23242 3.34578,1.87095 4.45995,3.38463 4.72851,4.46875 v 0.004 c 3.7567,15.14585 -0.0766,31.42646 -8.4707,76.41602 -0.39455,2.11263 0.1908,4.53841 1.08594,6.04101 0.89514,1.50261 1.88318,2.30742 2.69726,2.88477 1.62816,1.1547 2.84544,1.54201 4.10352,1.9375 2.51616,0.79097 5.18982,1.23608 8.33789,1.63281 6.29614,0.79345 14.23102,1.19336 22.08984,1.19336 7.45351,0 14.81998,0.20194 21.22071,-0.29102 3.20036,-0.24647 6.15899,-0.62456 9.11132,-1.59765 2.9507,-0.97256 6.50252,-2.7355 8.50586,-6.77735 3.28262,-6.61938 2.27149,-12.85323 1.26954,-19.92187 -1.00196,-7.06864 -2.75289,-14.82947 -4.29102,-22.3711 -0.28107,-1.37814 -0.48171,-2.65094 -0.74219,-4.00585 0.0173,0.0328 0.0295,0.0571 0.0469,0.0898 3.61077,6.83131 7.34373,13.57442 10.76367,18.73047 1.70997,2.57802 3.24218,4.72716 5.22461,6.66211 0.99121,0.96747 2.03257,1.97117 4.11914,2.83203 2.08657,0.86085 6.50703,0.95888 9.24023,-1.2461 h 0.002 c 6.02616,-4.86335 7.76909,-11.48231 9.27539,-17.19726 1.50629,-5.71496 2.66501,-11.18775 3.59179,-13.22656 l 13.72536,7.66805 c 8.90567,-21.21003 -9.23281,-20.8106 -8.74489,-28.09778 0.21285,-3.18007 -1.48204,-6.18316 -4.31445,-7.64453 -20.38019,-10.5187 -36.84665,-22.2063 -49.50201,-34.93169 -3.11566,-3.13333 -8.18157,-3.1473 -11.31446,-0.0312 -3.13332,3.11566 -3.14729,8.18156 -0.0312,11.31445 12.94316,13.01478 29.22836,24.6263 48.47071,35.06055 -0.61233,3.59331 -1.47178,6.99552 -2.85547,10.04101 -2.44522,5.37919 -3.22585,10.94274 -4.49805,15.76953 -0.16563,0.62843 -0.37448,0.9867 -0.55664,1.56446 -2.57792,-4.13287 -5.47729,-9.11778 -8.45117,-14.74414 -3.50223,-6.62594 -6.90122,-13.40955 -9.49219,-18.53516 -1.29549,-2.5628 -2.38176,-4.69654 -3.23242,-6.28906 -0.42533,-0.79626 -0.76878,-1.42893 -1.18164,-2.09766 -0.20643,-0.33436 -0.36589,-0.6329 -0.91406,-1.29687 -0.27409,-0.33199 -0.51387,-0.76405 -1.75586,-1.60938 -0.621,-0.42266 -1.54375,-1.07251 -3.47461,-1.33008 -1.93086,-0.25756 -5.1149,0.64627 -6.75977,2.30469 -5.72763,5.77744 -6.044,13.25125 -5.71484,20.54297 0.32915,7.29172 1.81944,15.15839 3.39844,22.90039 1.57899,7.742 3.26575,15.34428 4.12695,21.41992 0.68608,4.84021 0.4143,8.06538 0.30664,9.375 -0.98849,0.25695 -2.41536,0.55594 -4.58008,0.72266 -5.03852,0.38804 -12.29369,0.24414 -19.99219,0.24414 -7.29317,0 -14.82648,-0.40506 -20.08984,-1.06836 -0.59638,-0.0752 -0.721,-0.14725 -1.25586,-0.23047 7.48933,-39.51499 11.70231,-57.8194 7.03125,-76.65625 -1.74593,-7.04787 -7.10656,-11.6003 -12.44922,-14.58789 -5.34265,-2.98759 -11.2303,-4.884 -16.8125,-6.57812 -5.5822,-1.69413 -10.89196,-3.17194 -14.46484,-4.61329 -2.40642,-0.97077 -3.41963,-1.94468 -3.70899,-2.03906 -0.1493,-1.1639 -0.10393,-5.34034 0.84961,-10.09375 1.036,-5.16444 2.6027,-10.49094 3.06641,-15.64258 v -0.002 c 0.0512,-0.56717 0.20932,-0.88083 0.2793,-1.40625 7.93432,8.48191 37.86611,30.20892 43.10948,35.49695 3.11057,3.13691 -7.18569,-6.32873 -4.04818,-9.43868 3.1382,-3.11078 3.16005,-8.17671 0.0488,-11.31445 -7.15631,-7.21728 -23.45234,-21.13253 -36.16287,-34.9001 -1.58257,-1.71417 -3.83452,-2.65218 -6.16601,-2.56836 z"
     id="path4"
     sodipodi:nodetypes="scccscssscccssssssscssccsssccsccsccccccscssssssscssscsssccssscscccccssss" />
  <path
     style="baseline-shift:baseline;display:inline;overflow:visible;vector-effect:none;fill:#000080;fill-opacity:1;stroke-linecap:round;stroke-linejoin:round;enable-background:accumulate;stop-color:#000000;stop-opacity:1;opacity:1;stroke:none;stroke-opacity:0.89999998"
     d="m 151.76367,176.23437 c -1.13939,0.0322 -2.16794,0.14415 -3.02539,0.2461 a 8,8 0 0 0 -7,8.88867 8,8 0 0 0 8.88867,7 c 1.93621,-0.23021 2.21454,0.34878 1.30664,-0.57422 a 8,8 0 0 0 11.3125,0.0918 8,8 0 0 0 0.0937,-11.3125 c -3.74692,-3.80925 -8.158,-4.43641 -11.57617,-4.33985 z"
     id="path5" />
  <path
     style="baseline-shift:baseline;display:inline;overflow:visible;opacity:1;vector-effect:none;fill:#000080;fill-opacity:1;stroke:none;stroke-linecap:round;stroke-linejoin:round;stroke-opacity:0.9;enable-background:accumulate;stop-color:#000000;stop-opacity:1"
     d="m 106.7207,78.523437 c -1.67358,0.168365 -3.3272,0.53363 -4.9414,1.101563 -12.913593,4.543467 -19.525209,20.94419 -13.138675,38.70898 1.332043,3.70433 17.917785,6.25896 19.699465,4.68173 3.54567,-3.13879 11.26529,-9.33366 9.67854,-13.74633 -4.42947,-12.321012 -14.49475,-13.295997 -10.92879,-14.55063 3.56596,-1.254633 10.13633,-0.281185 14.96485,12.50977 21.80685,57.77299 31.97216,115.05904 50.23648,175.54759 1.27729,4.2294 6.15512,13.65909 10.38461,12.38209 4.23019,-1.27644 3.01023,-12.06561 1.73338,-16.29568 C 166.56548,219.76707 159.60453,161.39713 137.02539,101.57813 131.06622,85.792031 118.43582,77.344888 106.7207,78.523437 Z"
     id="path6"
     sodipodi:nodetypes="sscscscccccs" />
  <path
     style="baseline-shift:baseline;display:inline;overflow:visible;vector-effect:none;fill:#000080;fill-opacity:1;stroke-linecap:round;stroke-linejoin:round;enable-background:accumulate;stop-color:#000000;stop-opacity:1;opacity:1;stroke:none;stroke-opacity:0.89999998"
     d="m 247.20703,333.06641 a 8,8 0 0 0 -9.41992,6.26562 c -0.53757,2.67472 -0.88007,5.04975 -0.51172,7.82422 0.36835,2.77447 2.09226,6.26149 4.70703,8.14453 5.22954,3.76608 9.11455,2.69922 13.38086,2.69922 a 8,8 0 0 0 8,-8 8,8 0 0 0 -8,-8 c -0.97226,0 -1.31846,-0.10326 -2.02148,-0.17969 a 8,8 0 0 0 -6.13477,-8.7539 z"
     id="path7" />
  <path
     style="baseline-shift:baseline;display:inline;overflow:visible;vector-effect:none;fill:#000080;fill-opacity:1;stroke-linecap:round;stroke-linejoin:round;enable-background:accumulate;stop-color:#000000;stop-opacity:1;opacity:1;stroke:none;stroke-opacity:0.89999998"
     d="m 222.36719,331.83594 a 8,8 0 0 0 -6.93164,8.9414 c 0.0755,0.59675 0.0831,0.45088 0.11914,0.72461 -0.66948,0.16791 -1.54157,0.39444 -3.00391,0.53516 a 8,8 0 0 0 -7.19531,8.72851 8,8 0 0 0 8.72851,7.19727 c 4.13595,-0.398 8.4369,-0.61162 12.66797,-4.22852 4.23107,-3.61689 5.2204,-9.71696 4.55664,-14.96484 a 8,8 0 0 0 -8.9414,-6.93359 z"
     id="path8" />
  <path
     style="baseline-shift:baseline;display:inline;overflow:visible;opacity:1;vector-effect:none;fill:#000080;fill-opacity:1;stroke:none;stroke-linecap:round;stroke-linejoin:round;stroke-opacity:0.9;enable-background:accumulate;stop-color:#000000;stop-opacity:1"
     d="m 256.06445,156.80469 c -4.40024,-0.38702 -8.28142,2.86552 -8.66992,7.26562 -1.14143,12.95313 -1.44789,24.84668 -6.27539,30.98438 -2.73019,3.47295 -2.12862,8.50149 1.34375,11.23242 3.47244,2.73064 8.50091,2.12995 11.23242,-1.3418 9.74851,-12.3943 8.61815,-27.91182 9.63672,-39.4707 0.38698,-4.40094 -2.86669,-8.28243 -7.26758,-8.66992 z"
     id="path9"
     sodipodi:nodetypes="ccccccc" />
  <path
     style="baseline-shift:baseline;display:inline;overflow:visible;opacity:1;vector-effect:none;fill:#000080;fill-opacity:1;stroke:none;stroke-linecap:round;stroke-linejoin:round;stroke-opacity:0.9;enable-background:accumulate;stop-color:#000000;stop-opacity:1"
     d="m 210.15625,156.77539 c -4.41749,-0.12805 -8.10198,3.35004 -8.22852,7.76758 -0.16626,5.76892 0.61392,12.84403 1.61133,19.39453 0.99742,6.5505 1.68662,11.36347 3.54492,15.76562 1.71874,4.06946 6.4106,5.97558 10.48047,4.25782 4.07022,-1.71798 5.97731,-6.41006 4.25977,-10.48047 30.68241,1.98705 33.1918,-20.92089 32.28247,-26.8929 -0.90933,-5.972 -36.29255,2.15442 -36.18482,-1.58366 0.12806,-4.41675 -3.34886,-8.10092 -7.76562,-8.22852 z"
     id="path10"
     sodipodi:nodetypes="ccscccscc" />
</svg>
