<?xml version="1.0" encoding="UTF-8" standalone="no"?>
<!-- Uploaded to: SVG Repo, www.svgrepo.com, Generator: SVG Repo Mixer Tools -->

<svg
   width="657.36469"
   height="746.21179"
   viewBox="0 0 13.969 15.857001"
   version="1.1"
   class="si-glyph si-glyph-alien"
   id="svg1"
   sodipodi:docname="alien.svg"
   inkscape:version="1.4.2 (ebf0e940, 2025-05-08)"
   xmlns:inkscape="http://www.inkscape.org/namespaces/inkscape"
   xmlns:sodipodi="http://sodipodi.sourceforge.net/DTD/sodipodi-0.dtd"
   xmlns="http://www.w3.org/2000/svg"
   xmlns:svg="http://www.w3.org/2000/svg">
  <sodipodi:namedview
     id="namedview1"
     pagecolor="#ffffff"
     bordercolor="#000000"
     borderopacity="0.25"
     inkscape:showpageshadow="2"
     inkscape:pageopacity="0.0"
     inkscape:pagecheckerboard="0"
     inkscape:deskcolor="#d1d1d1"
     inkscape:zoom="0.77074839"
     inkscape:cx="236.78285"
     inkscape:cy="350.30887"
     inkscape:window-width="1712"
     inkscape:window-height="971"
     inkscape:window-x="0"
     inkscape:window-y="39"
     inkscape:window-maximized="1"
     inkscape:current-layer="svg1" />
  <title
     id="title1">1155</title>
  <defs
     id="defs1" />
  <g
     stroke="none"
     stroke-width="1"
     fill="none"
     fill-rule="evenodd"
     id="g1"
     style="fill:#00a6bd;fill-opacity:1"
     transform="translate(-2.031,-0.143)">
    <path
       d="M 9.014,0.143 C 5.159,0.143 2.031,3.122 2.031,6.794 2.031,10.469 7.209,16 9.014,16 10.822,16 16,10.469 16,6.794 16,3.122 12.873,0.143 9.014,0.143 Z M 7.895,10.895 C 7.579,11.213 6.481,10.624 5.447,9.574 4.411,8.528 3.829,7.42 4.145,7.1 4.46,6.779 5.557,7.369 6.592,8.417 c 1.033,1.048 1.619,2.155 1.303,2.478 z m 2.219,-0.008 c -0.32,-0.32 0.27,-1.426 1.321,-2.473 1.049,-1.047 2.158,-1.636 2.48,-1.314 0.32,0.318 -0.271,1.424 -1.32,2.47 -1.05,1.047 -2.161,1.634 -2.481,1.317 z"
       fill="#434343"
       class="si-glyph-fill"
       id="path1"
       style="fill:#00a6bd;fill-opacity:1" />
  </g>
</svg>
