<?xml version="1.0" encoding="UTF-8" standalone="no"?>
<!-- Uploaded to: SVG Repo, www.svgrepo.com, Generator: SVG Repo Mixer Tools -->

<svg
   fill="#00a6bd"
   height="800"
   width="624.14221"
   version="1.1"
   id="Layer_1"
   viewBox="0 0 399.45102 512"
   xml:space="preserve"
   sodipodi:docname="android.svg"
   inkscape:version="1.4.2 (ebf0e940, 2025-05-08)"
   xmlns:inkscape="http://www.inkscape.org/namespaces/inkscape"
   xmlns:sodipodi="http://sodipodi.sourceforge.net/DTD/sodipodi-0.dtd"
   xmlns="http://www.w3.org/2000/svg"
   xmlns:svg="http://www.w3.org/2000/svg"><defs
   id="defs10" /><sodipodi:namedview
   id="namedview10"
   pagecolor="#ffffff"
   bordercolor="#000000"
   borderopacity="0.25"
   inkscape:showpageshadow="2"
   inkscape:pageopacity="0.0"
   inkscape:pagecheckerboard="0"
   inkscape:deskcolor="#d1d1d1"
   inkscape:zoom="0.0325"
   inkscape:cx="292.30769"
   inkscape:cy="400"
   inkscape:window-width="896"
   inkscape:window-height="245"
   inkscape:window-x="0"
   inkscape:window-y="39"
   inkscape:window-maximized="0"
   inkscape:current-layer="Layer_1" />
<g
   id="g2"
   transform="translate(-56.274)">
	<g
   id="g1">
		<path
   d="M 409.55,70.347 C 374.452,24.326 321.356,0 256,0 190.644,0 137.548,24.326 102.451,70.347 c -30.209,39.611 -46.177,93.382 -46.177,155.5 0,67.981 19.424,137.928 53.291,191.905 C 147.701,478.529 199.706,512 256,512 c 56.294,0 108.3,-33.471 146.434,-94.248 33.868,-53.977 53.291,-123.923 53.291,-191.905 10e-4,-62.118 -15.967,-115.889 -46.175,-155.5 z m -289.775,295.624 38.521,6.948 9.294,65.003 c -19.075,-19.215 -35.237,-44.063 -47.815,-71.951 z m 119.529,15.534 h -33.776 v 33.391 h 33.776 v 62.386 c -11.848,-1.871 -23.193,-5.7 -33.959,-11.205 L 187.94,344.336 105.914,329.541 C 95.401,296.205 89.666,260.457 89.666,225.848 c 0,-47.361 10.765,-90.154 30.551,-122.404 v 49.54 h 33.391 V 65.389 c 10.576,-8.396 22.332,-15.141 35.224,-20.241 v 95.992 l 50.472,28.57 z m 0,-250.165 -17.081,-9.669 V 36.038 c 5.535,-0.912 11.232,-1.583 17.081,-2.022 z m 33.392,-97.324 c 5.85,0.44 11.546,1.111 17.081,2.022 v 85.633 l -17.081,9.669 z m 71.715,403.905 9.294,-65.003 38.521,-6.949 c -12.579,27.89 -28.741,52.738 -47.815,71.952 z m -20.35,-93.587 -17.406,121.741 c -10.766,5.505 -22.112,9.335 -33.96,11.206 v -62.386 h 33.776 V 381.504 H 272.695 V 169.71 l 50.472,-28.571 V 45.147 c 12.892,5.1 24.648,11.846 35.224,20.241 v 87.596 h 33.391 v -49.54 c 19.785,32.249 30.551,75.042 30.551,122.403 0,34.609 -5.736,70.359 -16.248,103.693 z"
   id="path1" />
	</g>
</g>
<g
   id="g4"
   transform="translate(-56.274)">
	<g
   id="g3">
		<path
   d="m 343.335,203.788 c -29.668,0 -53.806,24.137 -53.806,53.806 0,29.669 24.138,53.807 53.806,53.807 29.669,0 53.807,-24.137 53.807,-53.807 0,-29.668 -24.138,-53.806 -53.807,-53.806 z m 0,74.221 c -11.256,0 -20.414,-9.158 -20.414,-20.415 0,-11.256 9.158,-20.414 20.414,-20.414 11.256,0 20.415,9.158 20.415,20.414 0,11.257 -9.159,20.415 -20.415,20.415 z"
   id="path2" />
	</g>
</g>
<g
   id="g6"
   transform="translate(-56.274)">
	<g
   id="g5">
		<circle
   cx="343.32901"
   cy="257.59201"
   r="13.866"
   id="circle4" />
	</g>
</g>
<g
   id="g8"
   transform="translate(-56.274)">
	<g
   id="g7">
		<path
   d="m 168.665,203.788 c -29.668,0 -53.806,24.138 -53.806,53.806 0,29.669 24.137,53.807 53.806,53.807 29.669,0 53.807,-24.138 53.807,-53.807 0,-29.668 -24.138,-53.806 -53.807,-53.806 z m 0,74.221 c -11.256,0 -20.414,-9.158 -20.414,-20.415 0,-11.256 9.158,-20.414 20.414,-20.414 11.257,0 20.415,9.158 20.415,20.414 0,11.257 -9.158,20.415 -20.415,20.415 z"
   id="path6" />
	</g>
</g>
<g
   id="g10"
   transform="translate(-56.274)">
	<g
   id="g9">
		<circle
   cx="168.659"
   cy="257.59201"
   r="13.866"
   id="circle8" />
	</g>
</g>
</svg>
