<?xml version="1.0" encoding="UTF-8" standalone="no"?>
<!-- Uploaded to: SVG Repo, www.svgrepo.com, Generator: SVG Repo Mixer Tools -->

<svg
   height="800px"
   width="800px"
   version="1.1"
   id="_x32_"
   viewBox="0 0 512 512"
   xml:space="preserve"
   sodipodi:docname="galaxy-svgrepo-com.svg"
   inkscape:version="1.4.2 (ebf0e940, 2025-05-08)"
   xmlns:inkscape="http://www.inkscape.org/namespaces/inkscape"
   xmlns:sodipodi="http://sodipodi.sourceforge.net/DTD/sodipodi-0.dtd"
   xmlns="http://www.w3.org/2000/svg"
   xmlns:svg="http://www.w3.org/2000/svg"><defs
   id="defs9" /><sodipodi:namedview
   id="namedview9"
   pagecolor="#ffffff"
   bordercolor="#000000"
   borderopacity="0.25"
   inkscape:showpageshadow="2"
   inkscape:pageopacity="0.0"
   inkscape:pagecheckerboard="0"
   inkscape:deskcolor="#d1d1d1"
   showgrid="false"
   inkscape:zoom="0.94"
   inkscape:cx="399.46809"
   inkscape:cy="400"
   inkscape:window-width="1712"
   inkscape:window-height="971"
   inkscape:window-x="0"
   inkscape:window-y="39"
   inkscape:window-maximized="1"
   inkscape:current-layer="_x32_" />
<style
   type="text/css"
   id="style1">
	.st0{fill:#00a6bd000000000000;}
</style>

<g
   id="g10"
   transform="matrix(0.48836109,0,0,0.48836109,134.12766,127.32927)"
   style="fill:#00a6bd;fill-opacity:1"><circle
     style="fill:#00a6bd;fill-opacity:1"
     cx="256"
     cy="255.88"
     r="32.681"
     id="circle1" /><g
     id="g2"
     style="fill:#00a6bd;fill-opacity:1">
	<path
   style="fill:#00a6bd;fill-opacity:1"
   d="m 434.175,180.856 c -9.641,-3.708 -19.927,-7.073 -30.742,-10.093 2.792,-10.876 5.021,-21.467 6.631,-31.671 8.376,-53.114 -0.88,-90.372 -26.063,-104.912 -7.321,-4.227 -15.734,-6.371 -25.005,-6.371 -29.284,0 -66.288,21.749 -103.618,58.478 C 247.223,78.278 239.031,70.922 230.865,64.318 189.056,30.506 152.159,19.893 126.978,34.432 110.794,43.775 100.952,62.857 98.517,89.61 c -0.41,4.494 2.902,8.468 7.396,8.876 4.508,0.416 8.467,-2.902 8.876,-7.396 1.349,-14.809 5.974,-34.204 20.358,-42.508 18.639,-10.764 49.783,-0.398 85.443,28.439 7.781,6.292 15.593,13.309 23.379,20.952 -15.657,16.66 -31.239,35.833 -46.2,57.025 -26.319,2.396 -51.387,6.414 -74.394,11.926 -4.028,-15.661 -6.795,-30.603 -8.16,-44.475 -0.441,-4.49 -4.422,-7.772 -8.931,-7.33 -4.49,0.441 -7.773,4.44 -7.33,8.931 1.444,14.678 4.366,30.465 8.624,46.987 -10.454,2.948 -20.404,6.222 -29.752,9.817 C 27.638,200.158 0,226.804 0,255.882 c 0,29.078 27.638,55.724 77.825,75.027 9.641,3.708 19.927,7.073 30.742,10.093 -2.792,10.876 -5.021,21.467 -6.631,31.671 -8.376,53.114 0.88,90.372 26.063,104.912 7.321,4.227 15.734,6.371 25.005,6.371 28.948,0 65.439,-21.26 102.332,-57.225 7.903,7.719 15.839,14.825 23.751,21.223 29.588,23.929 56.711,36.239 78.967,36.238 9.192,-0.001 17.559,-2.102 24.92,-6.352 25.183,-14.54 34.439,-51.798 26.063,-104.912 -1.609,-10.203 -3.838,-20.793 -6.63,-31.668 16.819,-4.632 32.289,-10.088 45.991,-16.297 4.11,-1.863 5.932,-6.704 4.069,-10.814 -1.863,-4.11 -6.705,-5.933 -10.814,-4.069 -12.976,5.88 -27.645,11.057 -43.62,15.46 -6.605,-22.072 -15.4,-45.113 -26.119,-68.421 11.2,-24.099 20.355,-47.936 27.172,-70.739 60.639,16.979 96.573,43.795 96.573,69.502 0,16.609 -14.484,30.314 -26.635,38.884 -3.688,2.601 -4.568,7.698 -1.967,11.386 2.601,3.689 7.699,4.568 11.386,1.967 C 500.397,292.634 512,274.57 512,255.882 512,226.804 484.362,200.158 434.175,180.856 Z M 358.995,44.151 c 6.366,0 12.031,1.406 16.835,4.181 18.641,10.763 25.236,42.916 18.091,88.215 -1.531,9.703 -3.649,19.782 -6.306,30.142 -23.102,-5.477 -48.258,-9.456 -74.656,-11.803 -14.811,-20.962 -30.356,-40.131 -46.162,-56.922 2.892,-2.852 5.787,-5.619 8.676,-8.281 31.865,-29.363 61.526,-45.532 83.522,-45.532 z m -103.594,65.527 c 12.328,13.14 24.511,27.797 36.301,43.686 -11.731,-0.639 -23.652,-0.971 -35.702,-0.971 -12.452,0 -24.77,0.35 -36.88,1.032 11.773,-15.861 23.972,-30.579 36.281,-43.747 z m -0.058,293.754 c -12.765,-13.53 -25.378,-28.695 -37.568,-45.171 12.543,0.734 25.31,1.111 38.225,1.111 12.439,0 24.763,-0.363 36.898,-1.056 -12.179,16.41 -24.813,31.603 -37.555,45.116 z M 256,343.031 c -17.555,0 -34.4,-0.68 -50.453,-1.943 -9.017,-13.155 -17.739,-26.994 -26.043,-41.378 -8.173,-14.156 -15.692,-28.44 -22.503,-42.654 7.07,-14.882 14.932,-29.862 23.526,-44.748 8.323,-14.414 17.157,-28.392 26.337,-41.73 15.658,-1.197 32.059,-1.844 49.136,-1.844 16.638,0 32.633,0.614 47.925,1.753 9.188,13.363 18.073,27.436 26.525,42.074 8.551,14.812 16.377,29.717 23.421,44.525 -6.775,14.099 -14.261,28.277 -22.397,42.37 -8.306,14.387 -17.125,28.34 -26.286,41.656 -16.031,1.261 -32.496,1.919 -49.188,1.919 z m -71.478,-3.981 c -20.102,-2.323 -38.762,-5.587 -55.781,-9.597 5.168,-17.2 11.719,-35.034 19.531,-53.15 5.336,10.554 11.033,21.104 17.08,31.577 6.175,10.695 12.581,21.102 19.17,31.17 z m 1.296,-166.486 c -6.657,10.151 -13.157,20.688 -19.442,31.574 -6.463,11.194 -12.527,22.452 -18.167,33.692 -8.217,-18.866 -15.096,-37.448 -20.467,-55.284 17.651,-4.204 37.084,-7.608 58.076,-9.982 z M 16.34,255.882 c 0,-25.569 35.55,-52.236 95.599,-69.229 6.792,22.661 15.906,46.429 27.022,70.424 -10.69,23.271 -19.461,46.273 -26.05,68.308 C 52.274,308.406 16.34,281.59 16.34,255.882 Z m 136.665,211.732 c -6.366,0 -12.031,-1.406 -16.835,-4.181 -18.641,-10.763 -25.236,-42.917 -18.091,-88.215 1.531,-9.703 3.649,-19.782 6.306,-30.142 22.352,5.3 46.625,9.195 72.086,11.568 15.198,21.577 31.175,41.268 47.42,58.442 -2.455,2.398 -4.912,4.737 -7.364,6.997 -31.865,29.363 -61.526,45.531 -83.522,45.531 z m 239.893,-92.143 c 7.145,45.299 0.55,77.453 -18.091,88.215 -18.642,10.762 -49.783,0.397 -85.443,-28.439 -7.509,-6.072 -15.048,-12.819 -22.563,-20.152 16.08,-16.97 32.095,-36.606 47.456,-58.367 25.526,-2.343 49.917,-6.206 72.322,-11.448 2.663,10.378 4.786,20.473 6.319,30.191 z m -10.709,-45.919 c -17.5,4.067 -36.288,7.266 -55.927,9.526 6.629,-10.113 13.102,-20.609 19.361,-31.451 6.01,-10.41 11.67,-20.873 16.971,-31.327 7.839,18.149 14.411,36.018 19.595,53.252 z M 362.67,237.887 c -5.612,-11.176 -11.643,-22.367 -18.069,-33.497 -6.338,-10.979 -12.919,-21.654 -19.692,-31.971 21.085,2.338 40.607,5.712 58.351,9.892 -5.399,17.968 -12.313,36.629 -20.59,55.576 z"
   id="path1-0" />
	<path
   style="fill:#00a6bd;fill-opacity:1"
   d="m 256,215.031 c -22.526,0 -40.851,18.325 -40.851,40.851 0,22.526 18.325,40.851 40.851,40.851 22.526,0 40.851,-18.325 40.851,-40.851 0,-22.526 -18.325,-40.851 -40.851,-40.851 z m 0,65.362 c -13.515,0 -24.511,-10.996 -24.511,-24.511 0,-13.515 10.996,-24.511 24.511,-24.511 13.515,0 24.511,10.996 24.511,24.511 0,13.515 -10.996,24.511 -24.511,24.511 z"
   id="path2-0" />
</g></g></svg>
