<?xml version="1.0" encoding="UTF-8" standalone="no"?>
<!-- Uploaded to: SVG Repo, www.svgrepo.com, Generator: SVG Repo Mixer Tools -->

<svg
   width="666.66669"
   height="733.33331"
   viewBox="0 0 20.000001 21.999999"
   fill="none"
   version="1.1"
   id="svg1"
   sodipodi:docname="binary.svg"
   inkscape:version="1.4.2 (ebf0e940, 2025-05-08)"
   xmlns:inkscape="http://www.inkscape.org/namespaces/inkscape"
   xmlns:sodipodi="http://sodipodi.sourceforge.net/DTD/sodipodi-0.dtd"
   xmlns="http://www.w3.org/2000/svg"
   xmlns:svg="http://www.w3.org/2000/svg">
  <defs
     id="defs1" />
  <sodipodi:namedview
     id="namedview1"
     pagecolor="#ffffff"
     bordercolor="#000000"
     borderopacity="0.25"
     inkscape:showpageshadow="2"
     inkscape:pageopacity="0.0"
     inkscape:pagecheckerboard="0"
     inkscape:deskcolor="#d1d1d1"
     inkscape:zoom="0.23029267"
     inkscape:cx="158.49397"
     inkscape:cy="312.64564"
     inkscape:window-width="1712"
     inkscape:window-height="971"
     inkscape:window-x="0"
     inkscape:window-y="39"
     inkscape:window-maximized="1"
     inkscape:current-layer="svg1" />
  <path
     fill-rule="evenodd"
     clip-rule="evenodd"
     d="M 6.29289,0.29289 C 6.48043,0.10536 6.73478,0 7,0 h 8 c 1.6569,0 3,1.34315 3,3 V 6 C 18,6.55228 17.5523,7 17,7 16.4477,7 16,6.55228 16,6 V 3 C 16,2.44772 15.5523,2 15,2 H 8 V 7 C 8,7.55228 7.5523,8 7,8 H 2 v 11 c 0,0.5523 0.44772,1 1,1 h 2 c 0.55228,0 1,0.4477 1,1 0,0.5523 -0.44772,1 -1,1 H 3 C 1.34315,22 0,20.6569 0,19 V 7 C 0,6.73478 0.10536,6.48043 0.29289,6.29289 Z M 3.41421,6 H 6 V 3.41421 Z M 16,17 c 0,-0.5523 0.4477,-1 1,-1 h 1 c 0.5523,0 1,0.4477 1,1 v 4 c 0,0.5523 -0.4477,1 -1,1 -0.5523,0 -1,-0.4477 -1,-1 v -3 c -0.5523,0 -1,-0.4477 -1,-1 z m -6,2 c 0,-0.5523 0.4477,-1 1,-1 0.5523,0 1,0.4477 1,1 0,0.5523 -0.4477,1 -1,1 -0.5523,0 -1,-0.4477 -1,-1 z m 1,-3 c -1.6569,0 -3,1.3431 -3,3 0,1.6569 1.3431,3 3,3 1.6569,0 3,-1.3431 3,-3 0,-1.6569 -1.3431,-3 -3,-3 z m 6,-5 c -0.5523,0 -1,0.4477 -1,1 0,0.5523 0.4477,1 1,1 0.5523,0 1,-0.4477 1,-1 0,-0.5523 -0.4477,-1 -1,-1 z m -3,1 c 0,-1.6569 1.3431,-3 3,-3 1.6569,0 3,1.3431 3,3 0,1.6569 -1.3431,3 -3,3 -1.6569,0 -3,-1.3431 -3,-3 z M 10,9 c -0.5523,0 -1,0.4477 -1,1 0,0.5523 0.4477,1 1,1 v 3 c 0,0.5523 0.4477,1 1,1 0.5523,0 1,-0.4477 1,-1 V 10 C 12,9.4477 11.5523,9 11,9 Z"
     fill="#00a6bd"
     id="path1" />
</svg>
