<?xml version="1.0" encoding="utf-8"?><!-- Uploaded to: SVG Repo, www.svgrepo.com, Generator: SVG Repo Mixer Tools -->
<svg version="1.1" id="Uploaded to svgrepo.com" xmlns="http://www.w3.org/2000/svg" xmlns:xlink="http://www.w3.org/1999/xlink" 
	 width="800px" height="800px" viewBox="0 0 32 32" xml:space="preserve">
<style type="text/css">
	.stone_een{fill:#00a6bd000000;}
</style>
<path class="stone_een" d="M18.646,6.354c-0.195-0.195-0.195-0.512,0-0.707s0.512-0.195,0.707,0l0.908,0.908
	C20.705,6.211,21.268,6,22,6s1.295,0.211,1.739,0.554l0.908-0.908c0.195-0.195,0.512-0.195,0.707,0s0.195,0.512,0,0.707
	l-0.972,0.972C24.801,8.035,25,8.959,25,10c0,2.209-0.791,4-3,4c-2.209,0-3-1.791-3-4c0-1.041,0.199-1.965,0.619-2.674L18.646,6.354
	z M7.619,7.326C7.199,8.035,7,8.959,7,10c0,2.209,0.791,4,3,4c2.209,0,3-1.791,3-4c0-1.041-0.199-1.965-0.619-2.674l0.972-0.972
	c0.195-0.195,0.195-0.512,0-0.707s-0.512-0.195-0.707,0l-0.908,0.908C11.295,6.211,10.732,6,10,6S8.705,6.211,8.261,6.554
	L7.354,5.646c-0.195-0.195-0.512-0.195-0.707,0s-0.195,0.512,0,0.707L7.619,7.326z M28.819,12.169C28.939,11.789,29,11.398,29,11
	c0-1.868-1.296-3.414-3.03-3.849L25.591,7.53C25.853,8.229,26,9.051,26,10c0,3.131-1.495,5-4,5c-2.505,0-4-1.869-4-5
	c0-0.949,0.147-1.771,0.409-2.469l-0.375-0.375c-0.801,0.198-1.512,0.617-2.039,1.221c-0.527-0.601-1.234-1.021-2.031-1.22
	l-0.374,0.374C13.853,8.229,14,9.051,14,10c0,3.131-1.495,5-4,5c-2.505,0-4-1.869-4-5c0-0.949,0.147-1.771,0.409-2.47L6.03,7.151
	C4.296,7.586,3,9.132,3,11c0,0.398,0.061,0.789,0.181,1.169C2.43,12.911,2,13.921,2,15c0,1.429,0.78,2.736,2,3.44V19
	c0,1.474,0.81,2.75,2,3.444V25c0,0.552,0.448,1,1,1h1c0.552,0,1-0.448,1-1v-2.132c0.349-0.092,0.686-0.229,1-0.414
	c0.314,0.184,0.651,0.322,1,0.414V25c0,0.552,0.448,1,1,1h1c0.552,0,1-0.448,1-1v-2.556c1.19-0.694,2-1.97,2-3.444
	c0,1.474,0.81,2.75,2,3.444V25c0,0.552,0.448,1,1,1h1c0.552,0,1-0.448,1-1v-2.132c0.349-0.092,0.686-0.229,1-0.414
	c0.314,0.184,0.651,0.322,1,0.414V25c0,0.552,0.448,1,1,1h1c0.552,0,1-0.448,1-1v-2.556c1.19-0.694,2-1.97,2-3.444v-0.56
	c1.22-0.705,2-2.011,2-3.44C30,13.921,29.57,12.911,28.819,12.169z"/>
</svg>