<?xml version="1.0" encoding="UTF-8" standalone="no"?>
<!-- Uploaded to: SVG Repo, www.svgrepo.com, Generator: SVG Repo Mixer Tools -->

<svg
   version="1.1"
   id="Uploaded to svgrepo.com"
   width="700"
   height="512.50623"
   viewBox="0 0 28 20.500249"
   xml:space="preserve"
   sodipodi:docname="clone.svg"
   inkscape:version="1.4.2 (ebf0e940, 2025-05-08)"
   xmlns:inkscape="http://www.inkscape.org/namespaces/inkscape"
   xmlns:sodipodi="http://sodipodi.sourceforge.net/DTD/sodipodi-0.dtd"
   xmlns="http://www.w3.org/2000/svg"
   xmlns:svg="http://www.w3.org/2000/svg"><defs
   id="defs1" /><sodipodi:namedview
   id="namedview1"
   pagecolor="#ffffff"
   bordercolor="#000000"
   borderopacity="0.25"
   inkscape:showpageshadow="2"
   inkscape:pageopacity="0.0"
   inkscape:pagecheckerboard="0"
   inkscape:deskcolor="#d1d1d1"
   inkscape:zoom="0.94847381"
   inkscape:cx="440.18084"
   inkscape:cy="279.39622"
   inkscape:window-width="1712"
   inkscape:window-height="971"
   inkscape:window-x="0"
   inkscape:window-y="39"
   inkscape:window-maximized="1"
   inkscape:current-layer="Uploaded to svgrepo.com" />
<style
   type="text/css"
   id="style1">
	.stone_een{fill:#00a6bd000000;}
</style>
<path
   class="stone_een"
   d="m 16.646,0.85425 c -0.195,-0.195 -0.195,-0.512 0,-0.707 0.195,-0.195 0.512,-0.195 0.707,0 l 0.908,0.908 c 0.444,-0.344 1.007,-0.555 1.739,-0.555 0.732,0 1.295,0.211 1.739,0.554 l 0.908,-0.908 c 0.195,-0.195 0.512,-0.195 0.707,0 0.195,0.195 0.195,0.512 0,0.707 l -0.972,0.972 c 0.419,0.71 0.618,1.634 0.618,2.675 0,2.209 -0.791,4 -3,4 -2.209,0 -3,-1.791 -3,-4 0,-1.041 0.199,-1.965 0.619,-2.674 z M 5.619,1.82625 C 5.199,2.53525 5,3.45925 5,4.50025 c 0,2.209 0.791,4 3,4 2.209,0 3,-1.791 3,-4 0,-1.041 -0.199,-1.965 -0.619,-2.674 l 0.972,-0.972 c 0.195,-0.195 0.195,-0.512 0,-0.707 -0.195,-0.195 -0.512,-0.195 -0.707,0 l -0.908,0.908 C 9.295,0.71125 8.732,0.50025 8,0.50025 c -0.732,0 -1.295,0.211 -1.739,0.554 l -0.907,-0.908 c -0.195,-0.195 -0.512,-0.195 -0.707,0 -0.195,0.195 -0.195,0.512 0,0.707 z m 21.2,4.843 c 0.12,-0.38 0.181,-0.771 0.181,-1.169 0,-1.868 -1.296,-3.414 -3.03,-3.849 l -0.379,0.379 c 0.262,0.699 0.409,1.521 0.409,2.47 0,3.131 -1.495,5 -4,5 -2.505,0 -4,-1.869 -4,-5 0,-0.949 0.147,-1.771 0.409,-2.469 l -0.375,-0.375 c -0.801,0.198 -1.512,0.617 -2.039,1.221 -0.527,-0.601 -1.234,-1.021 -2.031,-1.22 l -0.374,0.374 c 0.263,0.698 0.41,1.52 0.41,2.469 0,3.131 -1.495,5 -4,5 -2.505,0 -4,-1.869 -4,-5 0,-0.949 0.147,-1.771 0.409,-2.47 L 4.03,1.65125 C 2.296,2.08625 1,3.63225 1,5.50025 c 0,0.398 0.061,0.789 0.181,1.169 C 0.43,7.41125 0,8.42125 0,9.50025 c 0,1.429 0.78,2.736 2,3.44 v 0.56 c 0,1.474 0.81,2.75 2,3.444 v 2.556 c 0,0.552 0.448,1 1,1 h 1 c 0.552,0 1,-0.448 1,-1 v -2.132 c 0.349,-0.092 0.686,-0.229 1,-0.414 0.314,0.184 0.651,0.322 1,0.414 v 2.132 c 0,0.552 0.448,1 1,1 h 1 c 0.552,0 1,-0.448 1,-1 v -2.556 c 1.19,-0.694 2,-1.97 2,-3.444 0,1.474 0.81,2.75 2,3.444 v 2.556 c 0,0.552 0.448,1 1,1 h 1 c 0.552,0 1,-0.448 1,-1 v -2.132 c 0.349,-0.092 0.686,-0.229 1,-0.414 0.314,0.184 0.651,0.322 1,0.414 v 2.132 c 0,0.552 0.448,1 1,1 h 1 c 0.552,0 1,-0.448 1,-1 v -2.556 c 1.19,-0.694 2,-1.97 2,-3.444 v -0.56 c 1.22,-0.705 2,-2.011 2,-3.44 0,-1.079 -0.43,-2.089 -1.181,-2.831 z"
   id="path1"
   style="fill:#00a6bd;fill-opacity:1" />
</svg>
