<?xml version="1.0" encoding="UTF-8" standalone="no"?>
<svg
   viewBox="153.298 68.254 226.626 226.626"
   width="226.626px"
   height="226.626px"
   version="1.1"
   id="svg32"
   sodipodi:docname="crypto.svg"
   inkscape:version="1.4.2 (ebf0e940, 2025-05-08)"
   xmlns:inkscape="http://www.inkscape.org/namespaces/inkscape"
   xmlns:sodipodi="http://sodipodi.sourceforge.net/DTD/sodipodi-0.dtd"
   xmlns="http://www.w3.org/2000/svg"
   xmlns:svg="http://www.w3.org/2000/svg">
  <defs
     id="defs32" />
  <sodipodi:namedview
     id="namedview32"
     pagecolor="#ffffff"
     bordercolor="#000000"
     borderopacity="0.25"
     inkscape:showpageshadow="2"
     inkscape:pageopacity="0.0"
     inkscape:pagecheckerboard="0"
     inkscape:deskcolor="#d1d1d1"
     inkscape:zoom="2.649255"
     inkscape:cx="36.425335"
     inkscape:cy="117.39149"
     inkscape:window-width="1712"
     inkscape:window-height="971"
     inkscape:window-x="0"
     inkscape:window-y="39"
     inkscape:window-maximized="1"
     inkscape:current-layer="svg32" />
  <path
     id="path1"
     style="stroke-width:1;fill:#00a6bd;fill-opacity:1"
     d="M 266.6105 68.254 C 204.0295 68.254 153.298 118.9855 153.298 181.5665 C 153.298 244.1475 204.0295 294.88095 266.6105 294.88095 C 329.1915 294.88095 379.92495 244.1475 379.92495 181.5665 C 379.92495 118.9855 329.1915 68.254 266.6105 68.254 z M 270.90738 73.72275 A 5.6529999 5.6529999 0 0 1 276.55972 79.375094 A 5.6529999 5.6529999 0 0 1 270.90738 85.027438 A 5.6529999 5.6529999 0 0 1 265.25503 79.375094 A 5.6529999 5.6529999 0 0 1 270.90738 73.72275 z M 250.03042 76.650484 A 5.6529999 5.6529999 0 0 1 255.68277 82.304781 A 5.6529999 5.6529999 0 0 1 250.03042 87.957125 A 5.6529999 5.6529999 0 0 1 244.37613 82.304781 A 5.6529999 5.6529999 0 0 1 250.03042 76.650484 z M 290.798 77.537203 A 5.6529999 5.6529999 0 0 1 296.45034 83.189547 A 5.6529999 5.6529999 0 0 1 290.798 88.841891 A 5.6529999 5.6529999 0 0 1 285.1437 83.189547 A 5.6529999 5.6529999 0 0 1 290.798 77.537203 z M 231.27652 82.353609 A 5.6529999 5.6529999 0 0 1 236.93081 88.007906 A 5.6529999 5.6529999 0 0 1 231.27652 93.66025 A 5.6529999 5.6529999 0 0 1 225.62417 88.007906 A 5.6529999 5.6529999 0 0 1 231.27652 82.353609 z M 309.17691 83.961031 A 5.6529999 5.6529999 0 0 1 314.82925 89.613375 A 5.6529999 5.6529999 0 0 1 309.17691 95.265719 A 5.6529999 5.6529999 0 0 1 303.52261 89.613375 A 5.6529999 5.6529999 0 0 1 309.17691 83.961031 z M 214.17886 91.086031 A 5.6529999 5.6529999 0 0 1 219.8312 96.738375 A 5.6529999 5.6529999 0 0 1 214.17886 102.39267 A 5.6529999 5.6529999 0 0 1 208.52456 96.738375 A 5.6529999 5.6529999 0 0 1 214.17886 91.086031 z M 326.60464 94.005953 A 5.6529999 5.6529999 0 0 1 332.25698 99.658297 A 5.6529999 5.6529999 0 0 1 326.60464 105.31064 A 5.6529999 5.6529999 0 0 1 320.9523 99.658297 A 5.6529999 5.6529999 0 0 1 326.60464 94.005953 z M 198.43863 102.4747 A 5.6529999 5.6529999 0 0 1 204.09292 108.12705 A 5.6529999 5.6529999 0 0 1 198.43863 113.78134 A 5.6529999 5.6529999 0 0 1 192.78628 108.12705 A 5.6529999 5.6529999 0 0 1 198.43863 102.4747 z M 268.048 106.68369 L 312.29214 180.2833 L 268.048 160.90048 L 268.048 106.68369 z M 265.14175 106.70517 L 265.14175 160.90048 L 221.51089 180.01181 L 265.14175 106.70517 z M 340.58316 107.13486 A 5.6529999 5.6529999 0 0 1 346.2355 112.78916 A 5.6529999 5.6529999 0 0 1 340.58316 118.4415 A 5.6529999 5.6529999 0 0 1 334.93081 112.78916 A 5.6529999 5.6529999 0 0 1 340.58316 107.13486 z M 185.30972 116.45322 A 5.6529999 5.6529999 0 0 1 190.96206 122.10752 A 5.6529999 5.6529999 0 0 1 185.30972 127.75986 A 5.6529999 5.6529999 0 0 1 179.65738 122.10752 A 5.6529999 5.6529999 0 0 1 185.30972 116.45322 z M 351.97183 122.87509 A 5.6529999 5.6529999 0 0 1 357.62613 128.52744 A 5.6529999 5.6529999 0 0 1 351.97183 134.17978 A 5.6529999 5.6529999 0 0 1 346.31948 128.52744 A 5.6529999 5.6529999 0 0 1 351.97183 122.87509 z M 175.2648 133.88291 A 5.6529999 5.6529999 0 0 1 180.91714 139.53525 A 5.6529999 5.6529999 0 0 1 175.2648 145.18759 A 5.6529999 5.6529999 0 0 1 169.6105 139.53525 A 5.6529999 5.6529999 0 0 1 175.2648 133.88291 z M 360.70425 139.97275 A 5.6529999 5.6529999 0 0 1 366.35659 145.62705 A 5.6529999 5.6529999 0 0 1 360.70425 151.27939 A 5.6529999 5.6529999 0 0 1 355.05191 145.62705 A 5.6529999 5.6529999 0 0 1 360.70425 139.97275 z M 168.84097 152.26181 A 5.6529999 5.6529999 0 0 1 174.49331 157.91416 A 5.6529999 5.6529999 0 0 1 168.84097 163.5665 A 5.6529999 5.6529999 0 0 1 163.18667 157.91416 A 5.6529999 5.6529999 0 0 1 168.84097 152.26181 z M 366.40738 158.7247 A 5.6529999 5.6529999 0 0 1 372.05972 164.379 A 5.6529999 5.6529999 0 0 1 366.40738 170.03134 A 5.6529999 5.6529999 0 0 1 360.75503 164.379 A 5.6529999 5.6529999 0 0 1 366.40738 158.7247 z M 265.14175 164.07431 L 265.14175 210.23056 L 220.05972 183.82236 L 265.14175 164.07431 z M 268.048 164.07431 L 313.16323 183.83603 L 268.048 210.23056 L 268.048 164.07431 z M 165.02652 172.15048 A 5.6529999 5.6529999 0 0 1 170.67886 177.80478 A 5.6529999 5.6529999 0 0 1 165.02652 183.45713 A 5.6529999 5.6529999 0 0 1 159.37417 177.80478 A 5.6529999 5.6529999 0 0 1 165.02652 172.15048 z M 368.13784 178.41416 A 5.6530032 5.6530032 0 0 1 373.81753 184.04111 A 5.6530032 5.6530032 0 0 1 368.19253 189.7208 A 5.6530032 5.6530032 0 0 1 362.51284 184.0958 A 5.6530032 5.6530032 0 0 1 368.13784 178.41416 z M 220.36245 193.29697 L 265.14175 219.51377 L 265.14175 256.64072 L 220.36245 193.29697 z M 312.8273 193.29697 L 268.048 256.64072 L 268.048 219.51377 L 312.8273 193.29697 z M 169.59292 193.47275 A 5.6529999 5.6529999 0 0 1 175.26089 199.10947 A 5.6529999 5.6529999 0 0 1 169.62222 204.77744 A 5.6529999 5.6529999 0 0 1 163.95425 199.14072 A 5.6529999 5.6529999 0 0 1 169.59292 193.47275 z M 364.41909 198.32236 A 5.6530032 5.6530032 0 0 1 370.09878 203.94931 A 5.6530032 5.6530032 0 0 1 364.47378 209.629 A 5.6530032 5.6530032 0 0 1 358.79409 204.004 A 5.6530032 5.6530032 0 0 1 364.41909 198.32236 z M 175.34488 212.20908 A 5.6529999 5.6529999 0 0 1 181.0148 217.8458 A 5.6529999 5.6529999 0 0 1 175.37613 223.51572 A 5.6529999 5.6529999 0 0 1 169.70816 217.87705 A 5.6529999 5.6529999 0 0 1 175.34488 212.20908 z M 358.08316 216.73252 A 5.6530032 5.6530032 0 0 1 363.7648 222.35752 A 5.6530032 5.6530032 0 0 1 358.13784 228.03916 A 5.6530032 5.6530032 0 0 1 352.45816 222.4122 A 5.6530032 5.6530032 0 0 1 358.08316 216.73252 z M 184.12417 229.28525 A 5.6529999 5.6529999 0 0 1 189.79214 234.92197 A 5.6529999 5.6529999 0 0 1 184.15347 240.58994 A 5.6529999 5.6529999 0 0 1 178.4855 234.95322 A 5.6529999 5.6529999 0 0 1 184.12417 229.28525 z M 348.12222 234.20908 A 5.6530032 5.6530032 0 0 1 353.80386 239.83408 A 5.6530032 5.6530032 0 0 1 348.17691 245.51377 A 5.6530032 5.6530032 0 0 1 342.49722 239.88877 A 5.6530032 5.6530032 0 0 1 348.12222 234.20908 z M 195.55581 244.99228 A 5.6529999 5.6529999 0 0 1 201.22378 250.63095 A 5.6529999 5.6529999 0 0 1 195.58511 256.29892 A 5.6529999 5.6529999 0 0 1 189.91714 250.66025 A 5.6529999 5.6529999 0 0 1 195.55581 244.99228 z M 335.05972 248.25009 A 5.6530032 5.6530032 0 0 1 340.73941 253.87705 A 5.6530032 5.6530032 0 0 1 335.11441 259.55673 A 5.6530032 5.6530032 0 0 1 329.43472 253.93173 A 5.6530032 5.6530032 0 0 1 335.05972 248.25009 z M 209.56948 258.08603 A 5.6529999 5.6529999 0 0 1 215.23745 263.72275 A 5.6529999 5.6529999 0 0 1 209.59878 269.39072 A 5.6529999 5.6529999 0 0 1 203.93081 263.754 A 5.6529999 5.6529999 0 0 1 209.56948 258.08603 z M 319.37613 259.71494 A 5.6530032 5.6530032 0 0 1 325.05581 265.34189 A 5.6530032 5.6530032 0 0 1 319.43081 271.02158 A 5.6530032 5.6530032 0 0 1 313.75113 265.39463 A 5.6530032 5.6530032 0 0 1 319.37613 259.71494 z M 227.02456 268.08408 A 5.6529999 5.6529999 0 0 1 232.69253 273.7208 A 5.6529999 5.6529999 0 0 1 227.05386 279.38877 A 5.6529999 5.6529999 0 0 1 221.38589 273.75205 A 5.6529999 5.6529999 0 0 1 227.02456 268.08408 z M 302.31948 268.52939 A 5.6530032 5.6530032 0 0 1 307.99917 274.15439 A 5.6530032 5.6530032 0 0 1 302.37417 279.83603 A 5.6530032 5.6530032 0 0 1 296.69448 274.20908 A 5.6530032 5.6530032 0 0 1 302.31948 268.52939 z M 283.59488 274.32236 A 5.6530032 5.6530032 0 0 1 289.27456 279.94736 A 5.6530032 5.6530032 0 0 1 283.64956 285.629 A 5.6530032 5.6530032 0 0 1 277.96988 280.00205 A 5.6530032 5.6530032 0 0 1 283.59488 274.32236 z M 245.42105 274.45713 A 5.6529999 5.6529999 0 0 1 251.08902 280.0958 A 5.6529999 5.6529999 0 0 1 245.45034 285.76377 A 5.6529999 5.6529999 0 0 1 239.78238 280.12705 A 5.6529999 5.6529999 0 0 1 245.42105 274.45713 z M 265.31948 278.21884 A 5.6529999 5.6529999 0 0 1 270.98941 283.85556 A 5.6529999 5.6529999 0 0 1 265.35073 289.52353 A 5.6529999 5.6529999 0 0 1 259.68277 283.88681 A 5.6529999 5.6529999 0 0 1 265.31948 278.21884 z " />
</svg>
