<?xml version="1.0" encoding="utf-8"?>
<svg xmlns="http://www.w3.org/2000/svg" viewBox="153.298 68.254 226.626 226.626" width="226.626px" height="226.626px"><g id="object-0"><g id="Capa_1"/><g id="Layer_1"><path fill="#231F20" d="M 266.611 68.254 C 204.03 68.254 153.298 118.986 153.298 181.567 C 153.298 244.148 204.03 294.88 266.611 294.88 C 329.192 294.88 379.924 244.148 379.924 181.567 C 379.924 118.986 329.192 68.254 266.611 68.254 Z M 265.142 256.64 L 220.362 193.296 L 265.142 219.514 L 265.142 256.64 Z M 265.142 210.23 L 220.059 183.822 L 265.142 164.074 L 265.142 210.23 Z M 265.142 160.901 L 221.511 180.011 L 265.142 106.705 L 265.142 160.901 Z M 268.048 106.683 L 312.292 180.283 L 268.048 160.901 L 268.048 106.683 Z M 268.048 256.64 L 268.048 219.514 L 312.828 193.296 L 268.048 256.64 Z M 268.048 210.231 L 268.048 164.075 L 313.164 183.837 L 268.048 210.231 Z" style="stroke-width: 1;"/></g><g transform="matrix(1, 0, 0, 1, 3.835372, -0.822759)"><ellipse style="stroke: rgb(0, 0, 0); fill:none;" cx="267.072" cy="80.198" rx="5.653" ry="5.653"/><ellipse style="stroke: rgb(0, 0, 0); fill:none; stroke-width: 1;" cx="336.748" cy="113.611" rx="5.653" ry="5.653"/><ellipse style="stroke: rgb(0, 0, 0); fill:none; stroke-width: 1;" cx="305.341" cy="90.436" rx="5.653" ry="5.653"/><ellipse style="stroke: rgb(0, 0, 0); fill:none; stroke-width: 1;" cx="356.869" cy="146.449" rx="5.653" ry="5.653"/><ellipse style="stroke: rgb(0, 0, 0); fill:none; stroke-width: 1;" cx="348.137" cy="129.35" rx="5.653" ry="5.653"/><ellipse style="stroke: rgb(0, 0, 0); fill:none; stroke-width: 1;" cx="362.572" cy="165.201" rx="5.653" ry="5.653"/><ellipse style="stroke: rgb(0, 0, 0); fill:none; stroke-width: 1;" cx="322.769" cy="100.481" rx="5.653" ry="5.653"/><ellipse style="stroke: rgb(0, 0, 0); fill:none; stroke-width: 1;" cx="286.962" cy="84.012" rx="5.653" ry="5.653"/></g><g transform="matrix(0.004808, 0.999989, -0.999989, 0.004808, 5.005195, 7.912367)" style="transform-origin: 266.361px 177.834px;"><ellipse style="stroke: rgb(0, 0, 0); fill:none;" cx="267.072" cy="80.198" rx="5.653" ry="5.653"/><ellipse style="stroke: rgb(0, 0, 0); fill:none; stroke-width: 1;" cx="336.748" cy="113.611" rx="5.653" ry="5.653"/><ellipse style="stroke: rgb(0, 0, 0); fill:none; stroke-width: 1;" cx="305.341" cy="90.436" rx="5.653" ry="5.653"/><ellipse style="stroke: rgb(0, 0, 0); fill:none; stroke-width: 1;" cx="356.869" cy="146.449" rx="5.653" ry="5.653"/><ellipse style="stroke: rgb(0, 0, 0); fill:none; stroke-width: 1;" cx="348.137" cy="129.35" rx="5.653" ry="5.653"/><ellipse style="stroke: rgb(0, 0, 0); fill:none; stroke-width: 1;" cx="362.572" cy="165.201" rx="5.653" ry="5.653"/><ellipse style="stroke: rgb(0, 0, 0); fill:none; stroke-width: 1;" cx="322.769" cy="100.481" rx="5.653" ry="5.653"/><ellipse style="stroke: rgb(0, 0, 0); fill:none; stroke-width: 1;" cx="286.962" cy="84.012" rx="5.653" ry="5.653"/></g><g transform="matrix(-0.999996, 0.002685, -0.002685, -0.999996, -96.904671, 118.769218)" style="transform-origin: 314.822px 122.7px;"><ellipse style="stroke: rgb(0, 0, 0); fill:none;" cx="267.072" cy="80.198" rx="5.653" ry="5.653"/><ellipse style="stroke: rgb(0, 0, 0); fill:none; stroke-width: 1;" cx="336.748" cy="113.611" rx="5.653" ry="5.653"/><ellipse style="stroke: rgb(0, 0, 0); fill:none; stroke-width: 1;" cx="305.341" cy="90.436" rx="5.653" ry="5.653"/><ellipse style="stroke: rgb(0, 0, 0); fill:none; stroke-width: 1;" cx="356.869" cy="146.449" rx="5.653" ry="5.653"/><ellipse style="stroke: rgb(0, 0, 0); fill:none; stroke-width: 1;" cx="348.137" cy="129.35" rx="5.653" ry="5.653"/><ellipse style="stroke: rgb(0, 0, 0); fill:none; stroke-width: 1;" cx="362.572" cy="165.201" rx="5.653" ry="5.653"/><ellipse style="stroke: rgb(0, 0, 0); fill:none; stroke-width: 1;" cx="322.769" cy="100.481" rx="5.653" ry="5.653"/><ellipse style="stroke: rgb(0, 0, 0); fill:none; stroke-width: 1;" cx="286.962" cy="84.012" rx="5.653" ry="5.653"/></g><g transform="matrix(0, -1, 1, 0, -105.553078, 7.266556)" style="transform-origin: 314.822px 122.7px;"><ellipse style="stroke: rgb(0, 0, 0); fill:none;" cx="267.072" cy="80.198" rx="5.653" ry="5.653"/><ellipse style="stroke: rgb(0, 0, 0); fill:none; stroke-width: 1;" cx="336.748" cy="113.611" rx="5.653" ry="5.653"/><ellipse style="stroke: rgb(0, 0, 0); fill:none; stroke-width: 1;" cx="305.341" cy="90.436" rx="5.653" ry="5.653"/><ellipse style="stroke: rgb(0, 0, 0); fill:none; stroke-width: 1;" cx="356.869" cy="146.449" rx="5.653" ry="5.653"/><ellipse style="stroke: rgb(0, 0, 0); fill:none; stroke-width: 1;" cx="348.137" cy="129.35" rx="5.653" ry="5.653"/><ellipse style="stroke: rgb(0, 0, 0); fill:none; stroke-width: 1;" cx="362.572" cy="165.201" rx="5.653" ry="5.653"/><ellipse style="stroke: rgb(0, 0, 0); fill:none; stroke-width: 1;" cx="322.769" cy="100.481" rx="5.653" ry="5.653"/><ellipse style="stroke: rgb(0, 0, 0); fill:none; stroke-width: 1;" cx="286.962" cy="84.012" rx="5.653" ry="5.653"/></g></g></svg>