<?xml version="1.0" encoding="utf-8"?>
<svg xmlns="http://www.w3.org/2000/svg" viewBox="153.861 127.4278 151.056 151.0938" width="151.056px" height="151.094px" preserveAspectRatio="none"><g id="object-1" transform="matrix(1, 0, 0, 1, -1.7763568394002505e-15, 0)"><g id="object-0"><g><path d="M 236.075 149.985 C 238.656 151.974 240.344 154.653 240.884 157.88 C 240.993 159.29 241.039 160.697 241.068 162.111 C 241.08 162.567 241.099 163.023 241.123 163.478 C 241.32 167.291 241.32 167.291 240.224 168.825 C 239.416 169.602 239.416 169.602 238.603 170.239 C 237.826 170.95 237.795 171.311 237.642 172.322 C 239.094 172.548 240.463 172.521 241.71 171.661 C 242.954 170.594 244.055 169.384 245.158 168.175 C 245.799 167.474 246.453 166.785 247.111 166.099 C 248.977 164.148 250.827 162.18 252.656 160.194 C 253.78 158.976 254.921 157.777 256.074 156.587 C 256.507 156.134 256.932 155.674 257.35 155.208 C 259.184 153.163 260.797 151.416 263.63 151.072 C 266.406 150.938 268.72 150.937 270.929 152.749 C 271.446 153.312 271.944 153.893 272.421 154.491 C 272.686 154.79 272.951 155.088 273.219 155.385 C 273.857 156.105 272.681 156.962 273.06 158.199 C 271.704 159.967 272.305 160.362 270.404 161.494 C 266.195 164.109 262.284 167.039 258.476 170.204 C 258.303 170.348 258.129 170.491 257.95 170.64 C 248.859 178.203 243.498 186.458 242.304 198.384 C 241.499 207.384 241.594 216.427 241.842 225.449 C 241.853 225.853 241.864 226.256 241.874 226.66 C 242.158 237.154 242.719 247.626 243.537 258.092 C 241.848 258.136 240.16 258.168 238.471 258.189 C 237.897 258.198 237.323 258.21 236.749 258.225 C 235.922 258.247 235.096 258.257 234.269 258.264 C 233.886 258.278 233.886 258.278 233.495 258.292 C 232.126 258.293 231.385 258.184 230.392 257.197 C 230.042 256.765 230.042 256.765 229.684 256.324 C 228.942 256.642 228.541 256.865 228.046 257.518 C 226.95 258.391 225.929 258.239 224.568 258.207 C 224.301 258.205 224.034 258.204 223.76 258.202 C 222.91 258.195 222.06 258.18 221.21 258.166 C 220.633 258.16 220.057 258.154 219.48 258.15 C 218.067 258.137 216.654 258.116 215.242 258.092 C 215.283 257.602 215.283 257.602 215.324 257.102 C 216.174 246.802 216.732 236.494 217.03 226.164 C 217.047 225.561 217.065 224.96 217.083 224.358 C 218.094 197.852 218.094 197.852 205.896 175.262 C 203.827 173.092 201.602 171.117 199.307 169.191 C 199.027 168.955 199.027 168.955 198.742 168.714 C 193.984 164.711 188.992 160.91 187.416 159.6 C 186.865 159.142 185.934 155.221 186.364 154.648 C 187.789 152.899 189.192 151.375 191.511 151.034 C 194.295 150.868 196.763 150.901 198.999 152.716 C 200.078 153.723 201.063 154.8 202.047 155.899 C 202.489 156.362 202.934 156.824 203.379 157.284 C 204.539 158.489 205.678 159.712 206.811 160.943 C 208.632 162.914 210.48 164.859 212.336 166.797 C 212.978 167.473 213.606 168.16 214.235 168.849 C 216.503 171.42 216.503 171.42 219.656 172.459 C 220.485 172.435 220.485 172.435 221.136 172.322 C 220.863 170.954 220.436 170.462 219.358 169.672 C 217.877 168.222 217.901 166.741 217.877 164.775 C 217.88 164.252 217.887 163.73 217.898 163.207 C 217.913 162.419 217.904 161.633 217.893 160.845 C 217.892 157.013 218.622 154.062 221.21 151.101 C 225.529 147.267 231.242 146.828 236.075 149.985 Z" fill="#010102" style="stroke-width: 0.295;"/><path d="M 229.297 127.429 C 229.725 127.43 229.725 127.43 230.161 127.431 C 234.379 127.444 238.506 127.566 242.653 128.406 C 242.923 128.46 243.194 128.513 243.472 128.569 C 245.374 128.955 247.258 129.397 249.137 129.88 C 249.471 129.965 249.471 129.965 249.811 130.052 C 267.312 134.632 282.444 146.228 292.464 161.122 C 291.441 162.177 290.61 162.948 289.222 163.48 C 288.66 163.466 288.66 163.466 288.043 163.185 C 287.565 162.592 287.15 162.015 286.735 161.38 C 283.089 156.069 278.437 151.161 273.306 147.269 C 273.153 147.15 273.001 147.031 272.844 146.908 C 258.122 135.409 239.131 130.503 220.658 132.587 C 203.071 134.806 185.849 143.852 174.709 157.811 C 172.196 161.062 169.814 164.385 167.791 167.965 C 167.502 168.476 167.207 168.982 166.911 169.489 C 164.173 174.293 162.166 179.612 160.864 184.98 C 160.717 185.575 160.558 186.165 160.397 186.755 C 156.185 202.612 159.157 219.098 165.43 233.923 C 164.069 234.604 162.707 235.285 161.304 235.986 C 156.509 227.258 153.928 216.532 153.876 206.573 C 153.874 206.308 153.872 206.042 153.869 205.769 C 153.864 204.917 153.862 204.066 153.862 203.215 C 153.862 202.924 153.862 202.633 153.861 202.333 C 153.866 198.062 153.999 193.915 154.82 189.712 C 154.891 189.315 154.891 189.315 154.964 188.911 C 157.56 174.561 164.47 161.29 174.567 150.806 C 174.754 150.612 174.94 150.418 175.132 150.217 C 177.827 147.421 180.567 144.845 183.704 142.554 C 184.044 142.3 184.383 142.047 184.722 141.795 C 187.136 140.015 189.642 138.429 192.252 136.953 C 192.46 136.835 192.669 136.716 192.883 136.594 C 199.698 132.757 207.11 130.184 214.763 128.608 C 215.077 128.543 215.077 128.543 215.397 128.477 C 220.008 127.597 224.617 127.411 229.297 127.429 Z" fill="#000101" style="stroke-width: 0.295;"/><path d="M 201.612 159.276 C 203.086 160.468 205.081 163.149 206.333 164.571 C 212.443 172.165 209.77 171.224 218.109 175.146 C 220.148 175.223 225.558 175.576 225.558 174.975 C 228.086 174.975 230.615 174.975 233.221 174.975 C 233.221 175.559 240.311 175.882 243.652 173.249 C 245.555 171.643 246.549 170.512 248.189 168.644 C 248.977 167.758 250.86 165.677 251.675 164.815 C 253.257 163.133 254.474 161.698 256.003 159.968 C 256.329 160.245 258.042 162.56 258.367 162.838 C 258.549 162.992 258.73 163.146 258.917 163.305 C 259.621 163.923 260.274 164.576 260.927 165.249 C 260.455 166.418 259.754 166.817 258.873 167.688 C 258.712 167.85 258.126 168.399 257.961 168.565 C 257.431 169.096 257.288 169.037 256.756 169.566 C 256.388 169.934 255.822 170.092 255.454 170.46 C 254.682 171.231 253.316 172.618 252.543 173.387 C 251.55 174.376 250.614 175.382 249.623 176.373 C 248.863 177.133 248.76 178.057 247.999 178.816 C 247.633 179.182 247.267 179.547 246.901 179.912 C 246.392 180.421 246.021 181.359 245.511 181.866 C 245.358 182.019 244.286 184.594 244.129 184.752 C 243.085 185.786 240.296 197.993 239.968 197.993 C 239.968 197.312 239.116 218.803 239.116 238.344 C 236.587 238.344 234.058 238.344 231.452 238.344 C 231.452 232.022 231.452 225.7 231.452 219.186 C 229.993 219.186 228.534 219.186 227.031 219.186 C 227.031 225.411 227.031 231.636 227.031 238.05 C 225.864 238.05 221.364 238.113 220.161 238.113 C 220.161 229.845 219.853 221.545 219.853 213.027 C 223.744 213.027 231.276 212.997 235.284 212.997 C 235.284 211.538 235.284 210.079 235.284 208.576 C 231.296 208.576 227.308 208.576 223.2 208.576 C 223.2 209.354 223.2 210.132 223.2 210.933 C 222.033 210.933 220.865 210.933 219.663 210.933 C 219.663 208.502 219.663 206.07 219.663 203.565 C 220.83 203.565 221.997 203.565 223.2 203.565 C 223.2 204.343 223.2 205.121 223.2 205.923 C 227.285 205.923 231.37 205.923 235.579 205.923 C 235.579 204.367 235.579 202.81 235.579 201.207 C 231.494 201.207 223.917 201.352 219.708 201.352 C 219.708 198.92 215.511 188.738 215.511 186.232 C 216.403 186.76 224.984 194.894 225.877 195.422 C 227.595 196.381 229.228 196.405 231.158 196.196 C 233.869 195.296 235.468 193.674 236.758 191.186 C 237.402 189.251 237.441 186.694 236.555 184.83 C 235.31 182.782 233.415 181.349 231.158 180.575 C 228.67 180.241 226.754 180.654 224.673 182.049 C 223.237 183.267 222.219 184.763 221.431 186.47 C 220.575 186.006 213.097 181.406 213.097 182.107 C 211.099 180.469 211.444 179.468 209.624 177.639 C 209.284 177.298 209.259 176.511 208.918 176.17 C 208.028 175.278 207.45 174.09 206.56 173.197 C 205.65 172.284 204.342 171.093 203.431 170.181 C 201.648 168.394 198.43 166.188 196.648 164.4 C 197.148 163.329 201.329 159.548 201.612 159.276 Z" style="stroke-width: 0.295; fill:none;"/><path d="M 288.927 241.587 C 289.513 241.852 290.095 242.123 290.677 242.397 C 291.002 242.547 291.327 242.698 291.661 242.853 C 292.464 243.355 292.464 243.355 292.699 243.914 C 292.806 245.022 291.953 245.801 291.303 246.634 C 291.079 246.929 291.079 246.929 290.85 247.231 C 290.41 247.809 289.964 248.382 289.516 248.955 C 289.302 249.233 289.088 249.51 288.868 249.797 C 284.892 254.87 280.29 259.601 275.074 263.397 C 274.735 263.65 274.396 263.902 274.058 264.155 C 271.643 265.935 269.136 267.518 266.527 268.997 C 266.323 269.114 266.119 269.231 265.909 269.352 C 254.806 275.67 242.222 278.572 229.518 278.521 C 229.232 278.521 228.947 278.52 228.653 278.519 C 207.585 278.444 189.061 269.659 174.268 254.921 C 169.846 250.431 169.846 250.431 168.673 247.776 C 169.716 246.917 170.784 246.154 171.915 245.418 C 172.97 245.849 173.466 246.392 174.144 247.297 C 177.338 251.408 181.057 255.208 185.178 258.387 C 185.339 258.511 185.5 258.636 185.666 258.764 C 194.07 265.222 203.717 269.822 214.071 272.106 C 214.646 272.238 215.218 272.388 215.788 272.538 C 226.676 275.267 239.431 274.069 250.021 270.766 C 250.273 270.687 250.526 270.609 250.786 270.527 C 261.528 267.105 270.743 261.409 278.906 253.671 C 279.054 253.531 279.201 253.392 279.354 253.248 C 283.041 249.748 285.954 245.692 288.927 241.587 Z" fill="#010101" style="stroke-width: 0.295;"/><path d="M 284.801 178.807 C 285.738 179.251 286.362 179.714 287.085 180.465 C 287.266 180.651 287.446 180.837 287.633 181.029 C 287.836 181.242 287.836 181.242 288.043 181.459 C 287.648 182.338 287.213 182.952 286.532 183.63 C 286.343 183.821 286.153 184.011 285.958 184.206 C 285.751 184.412 285.544 184.617 285.33 184.828 C 285.112 185.047 284.893 185.266 284.668 185.491 C 283.945 186.213 283.22 186.933 282.496 187.653 C 281.994 188.154 281.493 188.654 280.991 189.155 C 279.672 190.472 278.35 191.788 277.029 193.103 C 275.68 194.445 274.334 195.79 272.987 197.133 C 270.344 199.77 267.699 202.405 265.053 205.039 C 266.469 206.742 267.988 208.31 269.555 209.874 C 269.824 210.144 270.094 210.414 270.372 210.692 C 271.106 211.428 271.842 212.163 272.577 212.897 C 273.35 213.669 274.123 214.442 274.895 215.215 C 276.192 216.513 277.49 217.81 278.788 219.107 C 280.284 220.602 281.779 222.097 283.274 223.593 C 284.562 224.882 285.85 226.171 287.139 227.459 C 287.907 228.226 288.674 228.993 289.441 229.762 C 290.297 230.619 291.154 231.475 292.012 232.33 C 292.262 232.581 292.513 232.833 292.771 233.092 C 294.037 234.353 295.323 235.571 296.681 236.733 C 297.408 237.363 298.086 238.038 298.764 238.721 C 299.036 238.993 299.307 239.266 299.587 239.547 C 299.865 239.828 300.144 240.108 300.422 240.389 C 300.709 240.678 300.997 240.967 301.284 241.255 C 301.98 241.955 302.675 242.654 303.369 243.355 C 303.113 243.67 302.855 243.982 302.596 244.294 C 302.452 244.469 302.308 244.643 302.16 244.823 C 301.439 245.591 300.651 246.228 299.832 246.892 C 298.862 245.928 297.892 244.964 296.924 243.999 C 296.595 243.672 296.266 243.345 295.936 243.018 C 295.459 242.545 294.983 242.07 294.508 241.596 C 294.363 241.453 294.219 241.31 294.071 241.164 C 293.303 240.396 292.575 239.61 291.871 238.783 C 290.489 237.199 289 235.726 287.512 234.243 C 287.195 233.927 286.878 233.61 286.562 233.293 C 285.708 232.439 284.854 231.586 283.999 230.734 C 283.103 229.84 282.209 228.946 281.314 228.051 C 279.623 226.361 277.93 224.671 276.238 222.982 C 274.31 221.057 272.383 219.131 270.456 217.206 C 266.495 213.247 262.532 209.29 258.569 205.333 C 259.9 203.737 261.311 202.256 262.783 200.79 C 263.142 200.432 263.142 200.432 263.507 200.066 C 264.291 199.282 265.076 198.5 265.861 197.717 C 266.407 197.172 266.953 196.626 267.499 196.081 C 268.786 194.795 270.073 193.51 271.36 192.226 C 272.827 190.762 274.293 189.298 275.759 187.833 C 278.772 184.824 281.786 181.815 284.801 178.807 Z" fill="#010101" style="stroke-width: 0.295;"/><path d="M 183.115 209.165 C 183.711 210.875 184.193 212.616 184.681 214.36 C 184.773 214.687 184.864 215.014 184.959 215.352 C 185.576 217.572 186.151 219.8 186.697 222.039 C 187.196 224.065 187.769 226.066 188.352 228.069 C 188.933 230.08 189.448 232.104 189.943 234.138 C 190.401 236.006 190.927 237.847 191.508 239.681 C 191.838 240.751 191.985 241.65 191.957 242.765 C 189.009 242.805 186.062 242.843 183.114 242.881 C 181.744 242.898 180.374 242.916 179.004 242.934 C 171.335 243.037 163.668 243.079 155.999 243.06 C 155.999 241.504 155.999 239.948 155.999 238.344 C 162.534 238.323 169.066 238.382 175.6 238.481 C 176.82 238.499 178.04 238.517 179.26 238.534 C 181.626 238.568 183.991 238.603 186.357 238.639 C 186.035 237.439 185.713 236.24 185.391 235.04 C 185.302 234.706 185.212 234.371 185.119 234.027 C 184.511 231.764 183.884 229.508 183.244 227.255 C 182.474 224.528 181.766 221.791 181.094 219.038 C 180.599 217.03 180.05 215.045 179.422 213.074 C 179.1 212.034 178.918 211.139 178.989 210.049 C 181.762 209.034 181.762 209.034 183.115 209.165 Z" fill="#010202" style="stroke-width: 0.295;"/><path d="M 301.896 180.87 C 302.981 185.167 303.98 189.439 304.548 193.838 C 304.587 194.135 304.587 194.135 304.626 194.438 C 304.825 196.079 304.894 197.696 304.903 199.349 C 304.906 199.747 304.906 199.747 304.909 200.154 C 304.914 201.009 304.916 201.863 304.917 202.718 C 304.917 203.009 304.917 203.301 304.917 203.601 C 304.913 207.878 304.78 212.03 303.959 216.239 C 303.911 216.503 303.864 216.768 303.815 217.04 C 302.864 222.294 301.544 228.04 298.948 232.744 C 297.266 232.618 296.174 231.906 294.822 230.976 C 295.021 229.854 295.327 228.81 295.695 227.731 C 295.809 227.392 295.924 227.052 296.042 226.702 C 296.282 225.996 296.523 225.291 296.763 224.586 C 297.988 220.958 298.933 217.366 299.538 213.586 C 299.599 213.202 299.661 212.818 299.724 212.422 C 301.023 203.127 300.311 193.51 297.704 184.516 C 297.482 183.556 297.431 182.735 297.474 181.754 C 297.989 181.547 298.505 181.346 299.022 181.146 C 299.309 181.033 299.596 180.92 299.892 180.804 C 300.755 180.564 301.067 180.621 301.896 180.87 Z" fill="#010102" style="stroke-width: 0.295;"/><path d="M 302.19 164.364 C 303.535 165.858 304.121 167.058 304.253 169.08 C 303.905 173.383 299.641 176.586 296.565 179.22 C 295.788 179.869 295.01 180.516 294.232 181.165 C 291.412 178.344 288.591 175.523 285.685 172.617 C 287.671 170.3 287.671 170.3 288.606 169.383 C 288.806 169.185 289.007 168.986 289.213 168.783 C 289.417 168.583 289.62 168.383 289.829 168.177 C 291.473 166.576 291.473 166.576 292.98 164.85 C 294.053 163.586 295.302 163.098 296.866 162.633 C 298.908 162.549 300.595 163.066 302.19 164.364 Z" fill="#000101" style="stroke-width: 0.295;"/><path d="M 180.612 190.633 C 182.855 192.321 183.54 194.536 184.202 197.173 C 184.326 197.643 184.326 197.643 184.453 198.123 C 184.618 198.746 184.78 199.37 184.94 199.995 C 185.244 201.165 185.572 202.328 185.903 203.49 C 186.062 204.154 186.062 204.154 186.062 205.039 C 183.705 205.917 181.294 206.568 178.859 207.194 C 178.549 207.276 178.238 207.358 177.918 207.443 C 177.621 207.517 177.324 207.592 177.018 207.669 C 176.752 207.737 176.486 207.806 176.212 207.876 C 175.385 207.995 174.782 207.901 173.978 207.691 C 173.929 207.503 173.88 207.314 173.83 207.12 C 173.603 206.248 173.376 205.376 173.149 204.504 C 173.072 204.208 172.995 203.912 172.916 203.607 C 172.839 203.311 172.762 203.016 172.683 202.712 C 172.605 202.413 172.527 202.115 172.448 201.807 C 172.29 201.215 172.127 200.624 171.958 200.035 C 171.272 197.639 170.714 195.183 171.786 192.825 C 174.525 189.946 176.833 188.849 180.612 190.633 Z" fill="#030304" style="stroke-width: 0.295;"/><path d="M 224.882 153.263 C 227.348 150.831 233.355 151.135 234.989 154.933 C 237.087 157.899 236.925 161.672 236.649 165.164 C 236.276 167.11 235.106 168.265 233.585 169.445 C 232.631 169.964 224.102 170.095 223.358 168.863 C 223.079 167.41 221.689 166.631 221.589 164.982 C 221.426 162.274 221.378 160.952 221.378 160.276 C 221.4 157.977 224.651 153.491 224.882 153.263 Z" style="stroke-width: 0.295; fill:none;"/><path d="M 261.811 195.902 C 261.811 197.361 261.811 198.82 261.811 200.323 C 261.2 200.496 261.2 200.496 260.576 200.673 C 259.061 201.178 258.233 201.923 257.297 203.215 C 256.825 204.719 256.937 206.047 257.555 207.47 C 258.255 208.733 259.026 209.179 260.337 209.754 C 260.823 209.852 261.31 209.949 261.811 210.049 C 261.811 211.508 261.811 212.967 261.811 214.47 C 258.958 214.47 256.812 213.502 254.737 211.523 C 252.664 208.963 252.065 206.542 252.379 203.27 C 252.642 202.29 253.03 201.482 253.558 200.618 C 253.683 200.411 253.808 200.205 253.937 199.993 C 255.852 197.166 258.442 195.902 261.811 195.902 Z" fill="#060708" style="stroke-width: 0.295;"/><path d="M 195.199 234.513 C 196.712 235.075 197.134 236.237 197.789 237.632 C 198.729 240.277 198.308 242.728 197.124 245.223 C 195.729 247.648 193.752 248.809 191.073 249.545 C 188.31 249.984 185.985 249.42 183.704 247.776 C 183.312 247.126 183.312 247.126 183.115 246.597 C 183.282 246.455 183.449 246.313 183.62 246.167 C 183.836 245.98 184.053 245.794 184.275 245.602 C 184.491 245.418 184.706 245.233 184.928 245.043 C 185.498 244.57 185.498 244.57 185.768 243.944 C 187.168 244.497 187.168 244.497 187.831 244.829 C 189.508 245.003 190.815 244.902 192.252 243.944 C 193.387 242.692 193.51 241.512 193.5 239.884 C 193.408 239.012 193.057 238.456 192.547 237.755 C 192.547 237.56 192.547 237.366 192.547 237.165 C 193.052 236.677 193.052 236.677 193.707 236.134 C 194.586 235.429 194.586 235.429 195.199 234.513 Z" fill="#020303" style="stroke-width: 0.295;"/><path d="M 231.452 242.765 C 233.981 242.765 236.51 242.765 239.116 242.765 C 239.116 246.364 239.116 249.963 239.116 253.671 C 238.18 253.707 237.243 253.744 236.279 253.781 C 235.987 253.797 235.696 253.814 235.395 253.83 C 234.177 253.853 233.154 253.817 232.152 253.072 C 230.852 251.513 231.274 249.137 231.342 247.223 C 231.351 246.791 231.359 246.359 231.366 245.927 C 231.384 244.872 231.419 243.82 231.452 242.765 Z" style="stroke-width: 0.295; fill:none;"/><path d="M 219.663 242.765 C 222.094 242.765 224.526 242.765 227.031 242.765 C 227.065 244.082 227.094 245.397 227.112 246.714 C 227.12 247.162 227.13 247.609 227.142 248.056 C 227.16 248.701 227.169 249.345 227.175 249.99 C 227.183 250.377 227.191 250.765 227.199 251.164 C 226.988 252.466 226.606 252.891 225.558 253.671 C 224.849 253.838 224.849 253.838 224.124 253.815 C 223.888 253.811 223.653 253.807 223.41 253.804 C 222.969 253.784 222.969 253.784 222.518 253.763 C 221.576 253.733 220.634 253.702 219.663 253.671 C 219.663 250.072 219.663 246.473 219.663 242.765 Z" style="stroke-width: 0.295; fill:none;"/><path d="M 223.494 208.576 C 227.385 208.576 231.276 208.576 235.284 208.576 C 235.284 210.034 235.284 211.493 235.284 212.997 C 231.393 212.997 227.503 212.997 223.494 212.997 C 223.494 211.538 223.494 210.079 223.494 208.576 Z" fill="#00a6bd" style="stroke-width: 0.295;"/><path d="M 223.494 201.502 C 227.385 201.502 231.276 201.502 235.284 201.502 C 235.284 202.863 235.284 204.225 235.284 205.628 C 231.393 205.628 227.503 205.628 223.494 205.628 C 223.494 204.266 223.494 202.905 223.494 201.502 Z" fill="#00a6bd" style="stroke-width: 0.295;"/><path d="M 230.273 184.701 C 231.388 185.302 232.365 185.905 232.926 187.059 C 233.12 188.185 233.184 189.227 232.636 190.256 C 231.636 191.512 230.846 191.983 229.297 192.217 C 227.85 192.021 227.117 191.359 226.147 190.302 C 225.633 189.274 225.681 188.18 225.852 187.059 C 226.86 185.212 228.209 184.491 230.273 184.701 Z" style="stroke-width: 0.295; fill:none;"/><path d="M 265.065 153.76 C 265.854 154.084 268.577 154.793 270.346 157.151 C 268.887 158.61 264.302 162.127 262.798 163.63 C 261.756 163.109 262.268 163.118 261.449 162.325 C 261.238 162.124 259.499 160.526 259.281 160.32 C 258.836 159.71 258.549 159.21 258.557 158.632 C 259.661 156.316 262.54 153.794 265.065 153.76 Z" style="stroke-width: 0.295; fill:none;"/><path d="M 193.949 153.787 C 195.538 154.216 198.905 156.179 199.757 157.567 C 199.764 158.465 195.725 161.52 195.475 161.762 C 195.286 161.94 195.098 162.118 194.905 162.301 C 194.04 161.912 188.395 158.471 188.592 157.053 C 189.761 155.187 191.705 153.663 193.949 153.787 Z" style="stroke-width: 0.295; fill:none;"/></g></g></g></svg>