<?xml version="1.0" encoding="UTF-8" standalone="no"?>
<svg
   viewBox="153.861 127.4278 151.056 151.0938"
   width="151.056px"
   height="151.094px"
   preserveAspectRatio="none"
   version="1.1"
   id="svg19"
   sodipodi:docname="force field.svg"
   inkscape:version="1.4.2 (ebf0e940, 2025-05-08)"
   xmlns:inkscape="http://www.inkscape.org/namespaces/inkscape"
   xmlns:sodipodi="http://sodipodi.sourceforge.net/DTD/sodipodi-0.dtd"
   xmlns="http://www.w3.org/2000/svg"
   xmlns:svg="http://www.w3.org/2000/svg">
  <defs
     id="defs19" />
  <sodipodi:namedview
     id="namedview19"
     pagecolor="#ffffff"
     bordercolor="#000000"
     borderopacity="0.25"
     inkscape:showpageshadow="2"
     inkscape:pageopacity="0.0"
     inkscape:pagecheckerboard="0"
     inkscape:deskcolor="#d1d1d1"
     inkscape:zoom="4.3895348"
     inkscape:cx="79.849008"
     inkscape:cy="82.468876"
     inkscape:window-width="1712"
     inkscape:window-height="971"
     inkscape:window-x="0"
     inkscape:window-y="39"
     inkscape:window-maximized="1"
     inkscape:current-layer="svg19" />
  <path
     id="path1"
     style="stroke-width:0.295;fill:#00a6bd;fill-opacity:1"
     d="M 229.41764 147.88871 C 226.51079 147.86116 223.64005 148.94497 221.21061 151.1016 C 218.62261 154.0626 217.89125 157.01373 217.89225 160.84573 C 217.90325 161.63373 217.91311 162.41905 217.89811 163.20705 C 217.88711 163.73005 217.87963 164.25241 217.87663 164.77541 C 217.90063 166.74141 217.87609 168.22189 219.35709 169.67189 C 220.43509 170.46189 220.86339 170.95427 221.13639 172.32227 C 220.48539 172.43527 220.48492 172.43499 219.65592 172.45899 C 216.50292 171.41999 216.50205 171.42062 214.23405 168.84962 C 213.60505 168.16062 212.97761 167.47289 212.33561 166.79689 C 210.47961 164.85889 208.63122 162.91438 206.81022 160.94338 C 205.67722 159.71238 204.53858 158.48823 203.37858 157.28323 C 202.93358 156.82323 202.48855 156.36147 202.04655 155.89847 C 201.06255 154.79947 200.07867 153.72383 198.99967 152.71683 C 196.76367 150.90183 194.29539 150.86724 191.51139 151.03324 C 189.19239 151.37424 187.78991 152.89947 186.36491 154.64847 C 185.93491 155.22147 186.86469 159.14163 187.41569 159.59963 C 188.99169 160.90963 193.98386 164.71186 198.74186 168.71486 C 199.02686 168.95586 199.02631 168.95542 199.30631 169.19142 C 201.60131 171.11742 203.82716 173.09172 205.89616 175.26172 C 218.09416 197.85172 218.09466 197.85136 217.08366 224.35736 C 217.06566 224.95936 217.04792 225.561 217.03092 226.164 C 216.73292 236.494 216.17389 246.80146 215.32389 257.10146 C 215.28289 257.60146 215.28286 257.60169 215.24186 258.09169 C 216.65386 258.11569 218.06714 258.13729 219.48014 258.15029 C 220.05714 258.15429 220.63361 258.15991 221.21061 258.16591 C 222.06061 258.17991 222.90944 258.19407 223.75944 258.20107 C 224.03344 258.20307 224.30103 258.20493 224.56803 258.20693 C 225.92903 258.23893 226.95055 258.39048 228.04655 257.51748 C 228.54155 256.86448 228.94127 256.64212 229.68327 256.32412 C 230.04127 256.76512 230.04225 256.76516 230.39225 257.19716 C 231.38525 258.18416 232.12677 258.29387 233.49577 258.29287 C 233.88677 258.27887 233.8862 258.27757 234.2692 258.26357 C 235.0962 258.25657 235.92267 258.24651 236.74967 258.22451 C 237.32367 258.20951 237.89638 258.19835 238.47038 258.18935 C 240.15938 258.16835 241.84778 258.13569 243.53678 258.09169 C 242.71878 247.62569 242.15867 237.15409 241.87467 226.66009 C 241.86467 226.25609 241.85247 225.85316 241.84147 225.44916 C 241.59347 216.42716 241.49936 207.38474 242.30436 198.38474 C 243.49836 186.45874 248.85984 178.20364 257.95084 170.64064 C 258.12984 170.49164 258.30323 170.34714 258.47623 170.20314 C 262.28423 167.03814 266.19497 164.10916 270.40397 161.49416 C 272.30497 160.36216 271.70422 159.96724 273.06022 158.19924 C 272.68122 156.96224 273.85642 156.1048 273.21842 155.3848 C 272.95042 155.0878 272.68655 154.78927 272.42155 154.49027 C 271.94455 153.89227 271.44636 153.31108 270.92936 152.74808 C 268.72036 150.93608 266.40653 150.9383 263.63053 151.0723 C 260.79753 151.4163 259.18328 153.16206 257.34928 155.20706 C 256.93128 155.67306 256.50689 156.13492 256.07389 156.58792 C 254.92089 157.77792 253.77992 158.97538 252.65592 160.19338 C 250.82692 162.17938 248.977 164.14863 247.111 166.09963 C 246.453 166.78563 245.79888 167.47479 245.15788 168.17579 C 244.05488 169.38479 242.95461 170.59317 241.71061 171.66017 C 240.46361 172.52017 239.09425 172.54827 237.64225 172.32227 C 237.79525 171.31127 237.82619 170.94929 238.60319 170.23829 C 239.41619 169.60129 239.41628 169.60123 240.22428 168.82423 C 241.32028 167.29023 241.31972 167.29153 241.12272 163.47853 C 241.09872 163.02353 241.08003 162.56735 241.06803 162.11135 C 241.03903 160.69735 240.99344 159.29089 240.88444 157.88089 C 240.34444 154.65389 238.65684 151.97341 236.07584 149.98441 C 233.96141 148.60322 231.67853 147.91014 229.41764 147.88871 z M 229.48991 151.70511 C 231.7678 151.76535 234.07078 152.79725 234.98991 154.93362 C 237.08791 157.89962 236.92411 161.67208 236.64811 165.16408 C 236.27511 167.11008 235.10661 168.26532 233.58561 169.44532 C 232.63161 169.96432 224.10109 170.09529 223.35709 168.86329 C 223.07809 167.41029 221.68952 166.63144 221.58952 164.98244 C 221.42652 162.27444 221.37858 160.95141 221.37858 160.27541 C 221.40058 157.97641 224.65148 153.4917 224.88248 153.2637 C 225.96136 152.1997 227.71821 151.65826 229.48991 151.70511 z M 265.06413 153.7598 C 265.85313 154.0838 268.57638 154.79242 270.34538 157.15042 C 268.88638 158.60942 264.3025 162.12788 262.7985 163.63088 C 261.7565 163.10988 262.26789 163.11724 261.44889 162.32424 C 261.23789 162.12324 259.49892 160.52634 259.28092 160.32034 C 258.83592 159.71034 258.54831 159.21084 258.55631 158.63284 C 259.66031 156.31684 262.53913 153.7938 265.06413 153.7598 z M 193.53092 153.78323 C 193.66871 153.77843 193.80864 153.77939 193.94889 153.78714 C 195.53789 154.21614 198.90548 156.17843 199.75748 157.56643 C 199.76448 158.46443 195.72428 161.51974 195.47428 161.76174 C 195.28528 161.93974 195.09892 162.1178 194.90592 162.3008 C 194.04092 161.9118 188.39447 158.47076 188.59147 157.05276 C 189.68741 155.30339 191.46407 153.85533 193.53092 153.78323 z M 229.53092 184.66601 C 229.76731 184.66278 230.01511 184.67491 230.27311 184.70116 C 231.38811 185.30216 232.36445 185.90458 232.92545 187.05858 C 233.11945 188.18458 233.18439 189.22684 232.63639 190.25584 C 231.63639 191.51184 230.84555 191.98278 229.29655 192.21678 C 227.84955 192.02078 227.11616 191.35972 226.14616 190.30272 C 225.63216 189.27472 225.68023 188.17958 225.85123 187.05858 C 226.73323 185.44246 227.87621 184.68858 229.53092 184.66601 z M 223.49381 201.50192 L 235.28483 201.50192 L 235.28483 205.62887 L 223.49381 205.62887 L 223.49381 201.50192 z M 223.49381 208.57613 L 235.28483 208.57613 L 235.28483 212.99605 L 223.49381 212.99605 L 223.49381 208.57613 z M 219.66373 242.76554 L 227.03092 242.76554 C 227.06492 244.08254 227.09495 245.39776 227.11295 246.71476 C 227.12095 247.16276 227.13025 247.60955 227.14225 248.05655 C 227.16025 248.70155 227.16945 249.34514 227.17545 249.99014 C 227.18345 250.37714 227.19089 250.76497 227.19889 251.16397 C 226.98789 252.46597 226.60627 252.89178 225.55827 253.67178 C 224.84927 253.83878 224.84967 253.83736 224.12467 253.81436 C 223.88867 253.81036 223.65283 253.80759 223.40983 253.80459 C 222.96883 253.78459 222.96825 253.78458 222.51725 253.76358 C 221.57525 253.73358 220.63473 253.70278 219.66373 253.67178 L 219.66373 242.76554 z M 231.4528 242.76554 L 239.11686 242.76554 L 239.11686 253.67178 C 238.18086 253.70778 237.24297 253.74415 236.27897 253.78115 C 235.98697 253.79715 235.6952 253.81398 235.3942 253.82998 C 234.1762 253.85298 233.15402 253.81717 232.15202 253.07217 C 230.85202 251.51317 231.27347 249.13657 231.34147 247.22257 C 231.35047 246.79057 231.35986 246.35965 231.36686 245.92765 C 231.38486 244.87265 231.4198 243.82054 231.4528 242.76554 z " />
  <path
     d="m 229.297,127.429 c 0.428,0.001 0.428,0.001 0.864,0.002 4.218,0.013 8.345,0.135 12.492,0.975 0.27,0.054 0.541,0.107 0.819,0.163 1.902,0.386 3.786,0.828 5.665,1.311 0.334,0.085 0.334,0.085 0.674,0.172 17.501,4.58 32.633,16.176 42.653,31.07 -1.023,1.055 -1.854,1.826 -3.242,2.358 -0.562,-0.014 -0.562,-0.014 -1.179,-0.295 -0.478,-0.593 -0.893,-1.17 -1.308,-1.805 -3.646,-5.311 -8.298,-10.219 -13.429,-14.111 -0.153,-0.119 -0.305,-0.238 -0.462,-0.361 -14.722,-11.499 -33.713,-16.405 -52.186,-14.321 -17.587,2.219 -34.809,11.265 -45.949,25.224 -2.513,3.251 -4.895,6.574 -6.918,10.154 -0.289,0.511 -0.584,1.017 -0.88,1.524 -2.738,4.804 -4.745,10.123 -6.047,15.491 -0.147,0.595 -0.306,1.185 -0.467,1.775 -4.212,15.857 -1.24,32.343 5.033,47.168 -1.361,0.681 -2.723,1.362 -4.126,2.063 -4.795,-8.728 -7.376,-19.454 -7.428,-29.413 -0.002,-0.265 -0.004,-0.531 -0.007,-0.804 -0.005,-0.852 -0.007,-1.703 -0.007,-2.554 0,-0.291 0,-0.582 -0.001,-0.882 0.005,-4.271 0.138,-8.418 0.959,-12.621 0.071,-0.397 0.071,-0.397 0.144,-0.801 2.596,-14.35 9.506,-27.621 19.603,-38.105 0.187,-0.194 0.373,-0.388 0.565,-0.589 2.695,-2.796 5.435,-5.372 8.572,-7.663 0.34,-0.254 0.679,-0.507 1.018,-0.759 2.414,-1.78 4.92,-3.366 7.53,-4.842 0.208,-0.118 0.417,-0.237 0.631,-0.359 6.815,-3.837 14.227,-6.41 21.88,-7.986 0.314,-0.065 0.314,-0.065 0.634,-0.131 4.611,-0.88 9.22,-1.066 13.9,-1.048 z"
     fill="#000101"
     style="stroke-width:0.295;fill:#00a6bd;fill-opacity:1"
     id="path2" />
  <path
     d="m 288.927,241.587 c 0.586,0.265 1.168,0.536 1.75,0.81 0.325,0.15 0.65,0.301 0.984,0.456 0.803,0.502 0.803,0.502 1.038,1.061 0.107,1.108 -0.746,1.887 -1.396,2.72 -0.224,0.295 -0.224,0.295 -0.453,0.597 -0.44,0.578 -0.886,1.151 -1.334,1.724 -0.214,0.278 -0.428,0.555 -0.648,0.842 -3.976,5.073 -8.578,9.804 -13.794,13.6 -0.339,0.253 -0.678,0.505 -1.016,0.758 -2.415,1.78 -4.922,3.363 -7.531,4.842 -0.204,0.117 -0.408,0.234 -0.618,0.355 -11.103,6.318 -23.687,9.22 -36.391,9.169 -0.286,0 -0.571,-0.001 -0.865,-0.002 -21.068,-0.075 -39.592,-8.86 -54.385,-23.598 -4.422,-4.49 -4.422,-4.49 -5.595,-7.145 1.043,-0.859 2.111,-1.622 3.242,-2.358 1.055,0.431 1.551,0.974 2.229,1.879 3.194,4.111 6.913,7.911 11.034,11.09 0.161,0.124 0.322,0.249 0.488,0.377 8.404,6.458 18.051,11.058 28.405,13.342 0.575,0.132 1.147,0.282 1.717,0.432 10.888,2.729 23.643,1.531 34.233,-1.772 0.252,-0.079 0.505,-0.157 0.765,-0.239 10.742,-3.422 19.957,-9.118 28.12,-16.856 0.148,-0.14 0.295,-0.279 0.448,-0.423 3.687,-3.5 6.6,-7.556 9.573,-11.661 z"
     fill="#010101"
     style="stroke-width:0.295;fill:#00a6bd;fill-opacity:1"
     id="path4" />
  <path
     d="m 284.801,178.807 c 0.937,0.444 1.561,0.907 2.284,1.658 0.181,0.186 0.361,0.372 0.548,0.564 0.203,0.213 0.203,0.213 0.41,0.43 -0.395,0.879 -0.83,1.493 -1.511,2.171 -0.189,0.191 -0.379,0.381 -0.574,0.576 -0.207,0.206 -0.414,0.411 -0.628,0.622 -0.218,0.219 -0.437,0.438 -0.662,0.663 -0.723,0.722 -1.448,1.442 -2.172,2.162 -0.502,0.501 -1.003,1.001 -1.505,1.502 -1.319,1.317 -2.641,2.633 -3.962,3.948 -1.349,1.342 -2.695,2.687 -4.042,4.03 -2.643,2.637 -5.288,5.272 -7.934,7.906 1.416,1.703 2.935,3.271 4.502,4.835 0.269,0.27 0.539,0.54 0.817,0.818 0.734,0.736 1.47,1.471 2.205,2.205 0.773,0.772 1.546,1.545 2.318,2.318 1.297,1.298 2.595,2.595 3.893,3.892 1.496,1.495 2.991,2.99 4.486,4.486 1.288,1.289 2.576,2.578 3.865,3.866 0.768,0.767 1.535,1.534 2.302,2.303 0.856,0.857 1.713,1.713 2.571,2.568 0.25,0.251 0.501,0.503 0.759,0.762 1.266,1.261 2.552,2.479 3.91,3.641 0.727,0.63 1.405,1.305 2.083,1.988 0.272,0.272 0.543,0.545 0.823,0.826 0.278,0.281 0.557,0.561 0.835,0.842 0.287,0.289 0.575,0.578 0.862,0.866 0.696,0.7 1.391,1.399 2.085,2.1 -0.256,0.315 -0.514,0.627 -0.773,0.939 -0.144,0.175 -0.288,0.349 -0.436,0.529 -0.721,0.768 -1.509,1.405 -2.328,2.069 -0.97,-0.964 -1.94,-1.928 -2.908,-2.893 -0.329,-0.327 -0.658,-0.654 -0.988,-0.981 -0.477,-0.473 -0.953,-0.948 -1.428,-1.422 -0.145,-0.143 -0.289,-0.286 -0.437,-0.432 -0.768,-0.768 -1.496,-1.554 -2.2,-2.381 -1.382,-1.584 -2.871,-3.057 -4.359,-4.54 -0.317,-0.316 -0.634,-0.633 -0.95,-0.95 -0.854,-0.854 -1.708,-1.707 -2.563,-2.559 -0.896,-0.894 -1.79,-1.788 -2.685,-2.683 -1.691,-1.69 -3.384,-3.38 -5.076,-5.069 -1.928,-1.925 -3.855,-3.851 -5.782,-5.776 -3.961,-3.959 -7.924,-7.916 -11.887,-11.873 1.331,-1.596 2.742,-3.077 4.214,-4.543 0.359,-0.358 0.359,-0.358 0.724,-0.724 0.784,-0.784 1.569,-1.566 2.354,-2.349 0.546,-0.545 1.092,-1.091 1.638,-1.636 1.287,-1.286 2.574,-2.571 3.861,-3.855 1.467,-1.464 2.933,-2.928 4.399,-4.393 3.013,-3.009 6.027,-6.018 9.042,-9.026 z"
     fill="#010101"
     style="stroke-width:0.295;fill:#00a6bd;fill-opacity:1"
     id="path5" />
  <path
     d="m 183.115,209.165 c 0.596,1.71 1.078,3.451 1.566,5.195 0.092,0.327 0.183,0.654 0.278,0.992 0.617,2.22 1.192,4.448 1.738,6.687 0.499,2.026 1.072,4.027 1.655,6.03 0.581,2.011 1.096,4.035 1.591,6.069 0.458,1.868 0.984,3.709 1.565,5.543 0.33,1.07 0.477,1.969 0.449,3.084 -2.948,0.04 -5.895,0.078 -8.843,0.116 -1.37,0.017 -2.74,0.035 -4.11,0.053 -7.669,0.103 -15.336,0.145 -23.005,0.126 0,-1.556 0,-3.112 0,-4.716 6.535,-0.021 13.067,0.038 19.601,0.137 1.22,0.018 2.44,0.036 3.66,0.053 2.366,0.034 4.731,0.069 7.097,0.105 -0.322,-1.2 -0.644,-2.399 -0.966,-3.599 -0.089,-0.334 -0.179,-0.669 -0.272,-1.013 -0.608,-2.263 -1.235,-4.519 -1.875,-6.772 -0.77,-2.727 -1.478,-5.464 -2.15,-8.217 -0.495,-2.008 -1.044,-3.993 -1.672,-5.964 -0.322,-1.04 -0.504,-1.935 -0.433,-3.025 2.773,-1.015 2.773,-1.015 4.126,-0.884 z"
     fill="#010202"
     style="stroke-width:0.295;fill:#00a6bd;fill-opacity:1"
     id="path6" />
  <path
     d="m 301.896,180.87 c 1.085,4.297 2.084,8.569 2.652,12.968 0.039,0.297 0.039,0.297 0.078,0.6 0.199,1.641 0.268,3.258 0.277,4.911 0.003,0.398 0.003,0.398 0.006,0.805 0.005,0.855 0.007,1.709 0.008,2.564 0,0.291 0,0.583 0,0.883 -0.004,4.277 -0.137,8.429 -0.958,12.638 -0.048,0.264 -0.095,0.529 -0.144,0.801 -0.951,5.254 -2.271,11 -4.867,15.704 -1.682,-0.126 -2.774,-0.838 -4.126,-1.768 0.199,-1.122 0.505,-2.166 0.873,-3.245 0.114,-0.339 0.229,-0.679 0.347,-1.029 0.24,-0.706 0.481,-1.411 0.721,-2.116 1.225,-3.628 2.17,-7.22 2.775,-11 0.061,-0.384 0.123,-0.768 0.186,-1.164 1.299,-9.295 0.587,-18.912 -2.02,-27.906 -0.222,-0.96 -0.273,-1.781 -0.23,-2.762 0.515,-0.207 1.031,-0.408 1.548,-0.608 0.287,-0.113 0.574,-0.226 0.87,-0.342 0.863,-0.24 1.175,-0.183 2.004,0.066 z"
     fill="#010102"
     style="stroke-width:0.295;fill:#00a6bd;fill-opacity:1"
     id="path7" />
  <path
     d="m 302.19,164.364 c 1.345,1.494 1.931,2.694 2.063,4.716 -0.348,4.303 -4.612,7.506 -7.688,10.14 -0.777,0.649 -1.555,1.296 -2.333,1.945 -2.82,-2.821 -5.641,-5.642 -8.547,-8.548 1.986,-2.317 1.986,-2.317 2.921,-3.234 0.2,-0.198 0.401,-0.397 0.607,-0.6 0.204,-0.2 0.407,-0.4 0.616,-0.606 1.644,-1.601 1.644,-1.601 3.151,-3.327 1.073,-1.264 2.322,-1.752 3.886,-2.217 2.042,-0.084 3.729,0.433 5.324,1.731 z"
     fill="#000101"
     style="stroke-width:0.295;fill:#00a6bd;fill-opacity:1"
     id="path8" />
  <path
     d="m 180.612,190.633 c 2.243,1.688 2.928,3.903 3.59,6.54 0.124,0.47 0.124,0.47 0.251,0.95 0.165,0.623 0.327,1.247 0.487,1.872 0.304,1.17 0.632,2.333 0.963,3.495 0.159,0.664 0.159,0.664 0.159,1.549 -2.357,0.878 -4.768,1.529 -7.203,2.155 -0.31,0.082 -0.621,0.164 -0.941,0.249 -0.297,0.074 -0.594,0.149 -0.9,0.226 -0.266,0.068 -0.532,0.137 -0.806,0.207 -0.827,0.119 -1.43,0.025 -2.234,-0.185 -0.049,-0.188 -0.098,-0.377 -0.148,-0.571 -0.227,-0.872 -0.454,-1.744 -0.681,-2.616 -0.077,-0.296 -0.154,-0.592 -0.233,-0.897 -0.077,-0.296 -0.154,-0.591 -0.233,-0.895 -0.078,-0.299 -0.156,-0.597 -0.235,-0.905 -0.158,-0.592 -0.321,-1.183 -0.49,-1.772 -0.686,-2.396 -1.244,-4.852 -0.172,-7.21 2.739,-2.879 5.047,-3.976 8.826,-2.192 z"
     fill="#030304"
     style="stroke-width:0.295;fill:#00a6bd;fill-opacity:1"
     id="path9" />
  <path
     d="m 261.811,195.902 c 0,1.459 0,2.918 0,4.421 -0.611,0.173 -0.611,0.173 -1.235,0.35 -1.515,0.505 -2.343,1.25 -3.279,2.542 -0.472,1.504 -0.36,2.832 0.258,4.255 0.7,1.263 1.471,1.709 2.782,2.284 0.486,0.098 0.973,0.195 1.474,0.295 0,1.459 0,2.918 0,4.421 -2.853,0 -4.999,-0.968 -7.074,-2.947 -2.073,-2.56 -2.672,-4.981 -2.358,-8.253 0.263,-0.98 0.651,-1.788 1.179,-2.652 0.125,-0.207 0.25,-0.413 0.379,-0.625 1.915,-2.827 4.505,-4.091 7.874,-4.091 z"
     fill="#060708"
     style="stroke-width:0.295;fill:#00a6bd;fill-opacity:1"
     id="path11" />
  <path
     d="m 195.199,234.513 c 1.513,0.562 1.935,1.724 2.59,3.119 0.94,2.645 0.519,5.096 -0.665,7.591 -1.395,2.425 -3.372,3.586 -6.051,4.322 -2.763,0.439 -5.088,-0.125 -7.369,-1.769 -0.392,-0.65 -0.392,-0.65 -0.589,-1.179 0.167,-0.142 0.334,-0.284 0.505,-0.43 0.216,-0.187 0.433,-0.373 0.655,-0.565 0.216,-0.184 0.431,-0.369 0.653,-0.559 0.57,-0.473 0.57,-0.473 0.84,-1.099 1.4,0.553 1.4,0.553 2.063,0.885 1.677,0.174 2.984,0.073 4.421,-0.885 1.135,-1.252 1.258,-2.432 1.248,-4.06 -0.092,-0.872 -0.443,-1.428 -0.953,-2.129 0,-0.195 0,-0.389 0,-0.59 0.505,-0.488 0.505,-0.488 1.16,-1.031 0.879,-0.705 0.879,-0.705 1.492,-1.621 z"
     fill="#020303"
     style="stroke-width:0.295;fill:#00a6bd;fill-opacity:1"
     id="path12" />
</svg>
