<?xml version="1.0" encoding="utf-8"?>
<svg xmlns="http://www.w3.org/2000/svg" viewBox="144.123 149.618 270.145 269.9404" width="270.145px" height="269.94px" preserveAspectRatio="none"><g id="object-0"><path d="M 272.839 149.646 C 273.309 149.642 273.778 149.638 274.262 149.634 C 275.768 149.624 277.274 149.62 278.781 149.619 C 279.295 149.619 279.81 149.619 280.34 149.618 C 287.934 149.627 295.276 149.879 302.723 151.483 C 303.207 151.582 303.691 151.68 304.19 151.781 C 317.468 154.516 341.796 160.199 349.749 172.128 C 349.679 172.745 349.61 173.361 349.538 173.997 C 349.775 176.41 349.983 176.629 351.715 178.145 C 352.556 178.805 353.406 179.451 354.265 180.085 C 354.693 180.418 355.121 180.751 355.562 181.094 C 357.72 182.783 357.72 182.783 360.072 184.172 C 360.663 184.006 361.254 183.841 361.864 183.67 C 364.352 183.589 364.603 183.763 366.38 185.318 C 367.155 186.073 367.919 186.838 368.674 187.612 C 369.051 187.976 369.427 188.34 369.816 188.715 C 373.753 192.537 373.753 192.537 373.947 194.459 C 373.927 195.044 373.927 195.044 373.907 195.641 C 373.897 196.032 373.886 196.422 373.875 196.824 C 373.855 197.374 373.855 197.374 373.835 197.935 C 373.835 200.533 375.291 202.007 376.774 204.064 C 377.182 204.668 377.182 204.668 377.598 205.284 C 378.391 206.386 379.128 207.356 380.144 208.258 C 381.885 208.368 381.885 208.368 383.584 208.258 C 386.071 210.201 387.463 212.602 388.889 215.355 C 389.108 215.776 389.326 216.196 389.552 216.629 C 397.764 232.86 402.644 251.253 402.574 269.491 C 402.574 270.079 402.574 270.667 402.575 271.273 C 402.574 273.197 402.57 275.121 402.565 277.045 C 402.564 278.386 402.563 279.728 402.563 281.07 C 402.56 284.587 402.555 288.103 402.548 291.62 C 402.543 295.214 402.54 298.809 402.537 302.403 C 402.531 309.445 402.521 316.487 402.509 323.528 C 403.322 323.648 403.322 323.648 404.151 323.77 C 407.427 324.373 409.685 326.622 411.9 329.012 C 413.972 332.12 414.161 334.754 414.171 338.389 C 414.175 338.878 414.179 339.366 414.183 339.869 C 414.189 340.897 414.191 341.926 414.191 342.954 C 414.194 344.53 414.215 346.106 414.236 347.681 C 414.24 348.682 414.242 349.683 414.243 350.683 C 414.251 351.155 414.259 351.626 414.268 352.111 C 414.242 355.357 414.242 355.357 413.071 356.629 C 411.174 357.634 409.725 357.57 407.581 357.559 C 406.968 357.559 406.968 357.559 406.343 357.559 C 404.996 357.558 403.65 357.545 402.303 357.531 C 401.368 357.528 400.432 357.525 399.497 357.524 C 397.038 357.517 394.579 357.5 392.121 357.481 C 389.611 357.464 387.1 357.456 384.59 357.447 C 379.667 357.429 374.744 357.399 369.821 357.363 C 369.651 357.937 369.651 357.937 369.478 358.522 C 369.327 359.029 369.176 359.537 369.021 360.06 C 368.872 360.56 368.724 361.06 368.571 361.577 C 367.849 363.912 367.005 366.193 366.129 368.474 C 365.964 368.922 365.8 369.369 365.63 369.83 C 365.465 370.263 365.298 370.695 365.127 371.141 C 364.982 371.524 364.837 371.908 364.688 372.304 C 363.887 373.79 363.115 374.649 361.792 375.715 C 359.964 376.006 359.964 376.006 357.778 376.012 C 357.378 376.016 356.979 376.02 356.567 376.024 C 355.25 376.034 353.934 376.027 352.616 376.02 C 351.699 376.021 350.782 376.023 349.865 376.026 C 347.945 376.029 346.024 376.024 344.104 376.014 C 341.643 376.001 339.183 376.008 336.722 376.022 C 334.829 376.031 332.936 376.028 331.042 376.022 C 330.135 376.02 329.227 376.022 328.32 376.027 C 327.052 376.033 325.784 376.024 324.516 376.012 C 323.794 376.01 323.072 376.008 322.329 376.006 C 320.169 375.662 319.523 375.132 318.207 373.421 C 317.42 371.81 317.42 371.81 316.728 369.975 C 316.352 368.985 316.352 368.985 315.967 367.975 C 315.713 367.288 315.458 366.601 315.197 365.894 C 314.933 365.203 314.67 364.512 314.399 363.799 C 312.473 358.691 312.473 358.691 312.473 357.363 C 312.062 357.369 311.651 357.376 311.229 357.383 C 307.356 357.44 303.483 357.484 299.611 357.512 C 297.619 357.527 295.629 357.547 293.638 357.579 C 291.347 357.617 289.057 357.63 286.766 357.644 C 286.053 357.658 285.341 357.673 284.607 357.688 C 279.099 357.69 279.099 357.69 277.304 355.984 C 276.343 354.496 276.343 354.496 276.343 353.349 C 272.18 353.349 268.016 353.349 263.727 353.349 C 263.348 354.295 262.97 355.241 262.58 356.216 C 260.576 357.552 259.792 357.499 257.429 357.476 C 256.762 357.472 256.095 357.468 255.408 357.464 C 254.711 357.454 254.014 357.445 253.296 357.435 C 252.593 357.43 251.889 357.425 251.164 357.419 C 249.426 357.406 247.687 357.387 245.949 357.363 C 245.851 357.707 245.753 358.051 245.653 358.406 C 244.591 362.057 243.34 365.589 241.934 369.12 C 241.738 369.631 241.541 370.143 241.338 370.67 C 241.145 371.158 240.951 371.646 240.751 372.149 C 240.579 372.586 240.407 373.024 240.229 373.476 C 239.64 374.568 239.64 374.568 237.92 375.715 C 236.16 375.868 236.16 375.868 233.97 375.882 C 233.571 375.886 233.172 375.889 232.76 375.893 C 231.44 375.904 230.12 375.906 228.8 375.907 C 227.882 375.911 226.964 375.915 226.047 375.919 C 224.122 375.926 222.198 375.928 220.274 375.927 C 217.809 375.927 215.344 375.943 212.879 375.962 C 210.983 375.976 209.088 375.978 207.192 375.977 C 206.284 375.978 205.375 375.984 204.466 375.992 C 203.194 376.004 201.924 376 200.652 375.993 C 199.568 375.996 199.568 375.996 198.461 375.999 C 196.294 375.663 195.653 375.137 194.335 373.421 C 193.548 371.81 193.548 371.81 192.856 369.975 C 192.479 368.985 192.479 368.985 192.095 367.975 C 191.841 367.288 191.586 366.601 191.324 365.894 C 190.929 364.857 190.929 364.857 190.527 363.799 C 188.6 358.691 188.6 358.691 188.6 357.363 C 188.081 357.367 187.561 357.371 187.026 357.375 C 182.132 357.41 177.238 357.435 172.344 357.453 C 169.827 357.461 167.312 357.474 164.795 357.493 C 162.367 357.512 159.939 357.522 157.511 357.527 C 156.585 357.529 155.658 357.536 154.732 357.545 C 153.434 357.558 152.137 357.559 150.839 357.559 C 149.731 357.564 149.731 357.564 148.601 357.57 C 146.614 357.35 145.791 357.103 144.442 355.643 C 144.209 353.938 144.121 352.449 144.137 350.743 C 144.135 350.261 144.133 349.777 144.131 349.279 C 144.129 348.256 144.133 347.233 144.143 346.21 C 144.155 344.655 144.143 343.101 144.129 341.547 C 144.13 340.55 144.133 339.554 144.137 338.557 C 144.13 337.867 144.13 337.867 144.123 337.163 C 144.186 333.307 145.309 330.317 147.863 327.403 C 152.545 323.528 152.545 323.528 155.912 323.528 C 155.908 322.803 155.904 322.078 155.9 321.331 C 155.865 314.44 155.839 307.549 155.822 300.658 C 155.814 297.117 155.802 293.575 155.782 290.034 C 155.763 286.606 155.753 283.178 155.748 279.749 C 155.745 278.452 155.739 277.155 155.73 275.859 C 155.497 242.423 166.933 211.197 190.321 187.039 C 190.607 186.738 190.894 186.436 191.189 186.126 C 211.801 164.487 242.774 149.82 272.839 149.646 Z" fill="#020201" style="stroke-width: 1;"/><path d="M 279.031 157.612 C 279.456 157.614 279.88 157.615 280.317 157.616 C 302.358 157.731 324.708 164.26 342.997 176.78 C 344.733 177.65 346.214 177.17 348.029 176.716 C 350.608 176.716 350.608 176.716 352.242 178.056 C 352.763 178.475 352.763 178.475 353.294 178.903 C 353.65 179.198 354.006 179.494 354.372 179.799 C 355.084 180.377 355.795 180.955 356.507 181.533 C 356.977 181.92 356.977 181.92 357.455 182.315 C 358.293 182.979 359.182 183.579 360.072 184.172 C 360.674 184.018 361.278 183.864 361.899 183.706 C 364.374 183.584 364.609 183.768 366.38 185.318 C 367.155 186.073 367.919 186.838 368.674 187.612 C 369.239 188.158 369.239 188.158 369.816 188.715 C 373.753 192.537 373.753 192.537 373.947 194.459 C 373.927 195.044 373.927 195.044 373.907 195.641 C 373.897 196.032 373.886 196.422 373.875 196.824 C 373.855 197.374 373.855 197.374 373.835 197.935 C 373.835 200.701 375.929 202.599 377.582 204.713 C 378.297 205.666 378.939 206.673 379.57 207.684 C 379.389 208.839 379.389 208.839 378.997 209.978 C 378.056 213.377 378.732 215.077 380.383 218.014 C 380.67 218.509 380.958 219.003 381.254 219.512 C 385.728 227.647 388.896 235.939 391.219 244.925 C 391.351 245.429 391.483 245.933 391.619 246.452 C 394.199 257.082 394.729 267.723 394.649 278.613 C 394.645 279.919 394.643 281.225 394.641 282.531 C 394.634 285.923 394.618 289.315 394.599 292.708 C 394.581 296.188 394.573 299.667 394.564 303.147 C 394.546 309.941 394.516 316.734 394.481 323.528 C 386.721 323.528 378.962 323.528 370.968 323.528 C 370.946 321.437 370.925 319.345 370.902 317.19 C 370.876 315.169 370.847 313.148 370.817 311.127 C 370.798 309.719 370.782 308.313 370.769 306.906 C 370.75 304.886 370.719 302.866 370.687 300.846 C 370.682 299.9 370.682 299.9 370.676 298.935 C 370.665 298.349 370.654 297.763 370.642 297.16 C 370.636 296.645 370.629 296.129 370.623 295.597 C 370.484 294.261 370.484 294.261 369.698 293.255 C 368.338 292.331 367.433 292.332 365.793 292.312 C 365.208 292.3 364.623 292.289 364.02 292.278 C 363.389 292.274 362.758 292.27 362.108 292.267 C 361.461 292.256 360.814 292.246 360.148 292.235 C 358.079 292.204 356.011 292.185 353.942 292.166 C 352.541 292.147 351.14 292.127 349.739 292.106 C 346.301 292.057 342.864 292.018 339.426 291.986 C 338.764 286.88 338.551 281.751 338.295 276.612 C 338.244 275.617 338.194 274.623 338.143 273.628 C 338.037 271.55 337.933 269.472 337.829 267.394 C 337.697 264.744 337.562 262.095 337.426 259.445 C 337.321 257.393 337.218 255.34 337.115 253.288 C 337.066 252.312 337.016 251.335 336.966 250.359 C 336.815 247.413 336.682 244.467 336.559 241.52 C 336.525 240.909 336.492 240.298 336.457 239.669 C 336.438 239.156 336.42 238.644 336.401 238.117 C 336.382 237.697 336.362 237.278 336.342 236.846 C 336.647 235.352 337.38 234.921 338.602 234.064 C 339.019 233.8 339.437 233.535 339.867 233.263 C 344.144 230.192 346.492 224.758 347.455 219.727 C 348.319 212.155 347.25 206.052 342.724 199.763 C 338.108 194.297 332.316 190.9 325.089 190.205 C 318.132 189.823 312.024 191.787 306.695 196.327 C 302.402 200.349 298.95 205.556 298.572 211.589 C 298.381 219.485 299.436 226.302 305.017 232.344 C 305.388 232.547 305.758 232.75 306.14 232.959 C 307.576 233.778 308.549 234.506 309.605 235.785 C 310.145 238.367 309.885 240.844 309.659 243.458 C 309.61 244.223 309.563 244.988 309.519 245.753 C 309.423 247.357 309.316 248.96 309.199 250.562 C 309.031 252.91 308.914 255.259 308.814 257.611 C 308.637 261.792 308.436 265.973 308.228 270.153 C 308.151 271.719 308.076 273.284 308.001 274.85 C 307.911 276.744 307.817 278.638 307.723 280.533 C 307.69 281.223 307.658 281.914 307.624 282.625 C 307.591 283.269 307.558 283.914 307.525 284.578 C 307.498 285.139 307.47 285.699 307.441 286.277 C 307.294 288.189 307.008 290.088 306.738 291.986 C 298.979 291.986 291.219 291.986 283.225 291.986 C 283.219 288.973 283.214 285.959 283.208 282.853 C 283.189 272.917 283.157 262.981 283.119 253.044 C 283.097 247.017 283.078 240.99 283.07 234.963 C 283.062 229.712 283.047 224.46 283.021 219.208 C 283.008 216.426 283 213.644 283 210.863 C 283 208.246 282.99 205.629 282.972 203.012 C 282.967 202.05 282.966 201.089 282.969 200.126 C 282.973 198.816 282.963 197.506 282.949 196.196 C 282.947 195.461 282.945 194.727 282.942 193.971 C 282.815 192.166 282.815 192.166 281.603 191.087 C 279.679 190.15 278.396 190.565 276.343 191.053 C 274.857 191.621 273.447 192.21 272.011 192.879 C 271.597 193.067 271.182 193.254 270.756 193.448 C 269.86 193.854 268.965 194.263 268.071 194.673 C 266.143 195.559 264.21 196.433 262.277 197.308 C 261.259 197.769 260.242 198.23 259.224 198.692 C 254.133 201 249.017 203.249 243.895 205.489 C 241.439 206.563 238.985 207.641 236.531 208.717 C 233.86 209.888 231.19 211.059 228.519 212.229 C 226.31 213.195 224.104 214.168 221.898 215.14 C 221.26 215.419 220.621 215.698 219.963 215.985 C 219.103 216.365 219.103 216.365 218.227 216.753 C 217.733 216.969 217.24 217.186 216.732 217.409 C 215.469 217.974 215.469 217.974 214.407 219.154 C 214.282 220.829 214.228 222.451 214.224 224.128 C 214.218 224.642 214.213 225.157 214.206 225.688 C 214.189 227.394 214.179 229.101 214.169 230.808 C 214.159 231.988 214.147 233.17 214.136 234.351 C 214.106 237.464 214.084 240.578 214.062 243.69 C 214.04 246.866 214.01 250.041 213.981 253.216 C 213.925 259.449 213.877 265.682 213.834 271.914 C 213.092 271.923 212.351 271.931 211.588 271.94 C 208.845 271.973 206.103 272.018 203.361 272.065 C 202.172 272.084 200.984 272.1 199.796 272.113 C 198.09 272.132 196.385 272.162 194.68 272.195 C 194.147 272.198 193.613 272.202 193.063 272.206 C 192.569 272.217 192.076 272.228 191.568 272.24 C 191.132 272.246 190.696 272.253 190.248 272.26 C 188.938 272.408 188.938 272.408 188.027 274.208 C 187.904 275.801 187.848 277.338 187.844 278.931 C 187.835 279.653 187.835 279.653 187.826 280.39 C 187.808 281.981 187.799 283.573 187.789 285.165 C 187.779 286.269 187.767 287.371 187.756 288.475 C 187.726 291.379 187.703 294.284 187.682 297.189 C 187.655 300.674 187.62 304.159 187.586 307.643 C 187.535 312.938 187.495 318.233 187.453 323.528 C 179.694 323.528 171.935 323.528 163.941 323.528 C 163.901 316.214 163.87 308.899 163.851 301.585 C 163.843 298.187 163.831 294.789 163.81 291.391 C 163.792 288.1 163.782 284.81 163.777 281.519 C 163.774 280.275 163.768 279.032 163.758 277.788 C 163.563 250.911 170.595 224.876 187.303 203.452 C 187.941 202.632 188.567 201.802 189.189 200.971 C 207.382 177.519 235.293 162.243 264.58 158.318 C 269.399 157.71 274.178 157.586 279.031 157.612 Z" style="stroke-width: 1; fill:none;"/><path d="M 165.642 331.055 C 166.658 331.051 167.673 331.046 168.689 331.038 C 171.479 331.024 174.269 331.034 177.06 331.049 C 180.069 331.06 183.079 331.048 186.088 331.04 C 191.984 331.026 197.879 331.035 203.775 331.05 C 210.638 331.067 217.501 331.064 224.364 331.062 C 236.608 331.056 248.851 331.071 261.095 331.097 C 272.981 331.121 284.866 331.129 296.752 331.12 C 309.69 331.11 322.626 331.109 335.563 331.124 C 336.943 331.125 338.321 331.127 339.7 331.128 C 340.379 331.129 341.057 331.13 341.756 331.13 C 346.543 331.136 351.328 331.134 356.115 331.131 C 361.945 331.127 367.776 331.133 373.607 331.153 C 376.583 331.162 379.559 331.168 382.536 331.161 C 385.259 331.154 387.981 331.161 390.705 331.179 C 391.691 331.183 392.678 331.182 393.664 331.176 C 395.003 331.168 396.34 331.178 397.679 331.192 C 398.424 331.193 399.168 331.195 399.934 331.196 C 402.566 331.67 403.497 332.554 405.377 334.424 C 406.125 335.921 406.015 337.02 406.006 338.694 C 406.004 339.311 406.002 339.928 406 340.564 C 405.996 341.211 405.991 341.858 405.986 342.524 C 405.984 343.176 405.981 343.827 405.978 344.498 C 405.971 346.11 405.962 347.722 405.95 349.334 C 405.295 349.337 404.64 349.338 403.965 349.34 C 388.047 349.387 372.129 349.439 356.211 349.5 C 354.68 349.505 353.15 349.511 351.619 349.517 C 351.238 349.518 350.858 349.52 350.466 349.521 C 344.3 349.544 338.134 349.563 331.967 349.58 C 325.643 349.598 319.32 349.62 312.996 349.646 C 309.443 349.66 305.89 349.673 302.336 349.681 C 298.995 349.688 295.654 349.7 292.313 349.718 C 291.083 349.723 289.854 349.726 288.624 349.727 C 286.952 349.729 285.28 349.738 283.608 349.748 C 282.87 349.747 282.87 349.747 282.117 349.745 C 279.531 349.658 279.531 349.658 277.49 351.055 C 277.301 351.812 277.112 352.569 276.917 353.349 C 272.375 353.349 267.833 353.349 263.153 353.349 C 262.585 351.929 262.585 351.929 262.006 350.481 C 260.89 349.365 258.751 349.82 257.227 349.817 C 256.559 349.813 256.559 349.813 255.877 349.809 C 254.373 349.8 252.869 349.795 251.365 349.79 C 250.292 349.785 249.218 349.779 248.144 349.773 C 245.22 349.758 242.296 349.746 239.372 349.734 C 236.319 349.722 233.267 349.706 230.215 349.691 C 224.43 349.662 218.646 349.636 212.862 349.611 C 206.278 349.583 199.694 349.552 193.111 349.52 C 179.564 349.454 166.017 349.393 152.471 349.334 C 152.37 347.125 152.309 344.915 152.256 342.704 C 152.227 342.081 152.198 341.458 152.168 340.817 C 152.157 340.209 152.146 339.6 152.135 338.974 C 152.117 338.418 152.099 337.862 152.08 337.29 C 152.553 335.208 153.094 333.924 154.563 332.364 C 157.759 330.451 162.029 331.016 165.642 331.055 Z" style="stroke-width: 1;"/><path d="M 275.196 200.229 C 275.196 207.231 275.196 214.233 275.196 221.448 C 269.031 221.591 269.031 221.591 267.098 221.619 C 263.873 221.7 263.873 221.7 261.025 223.063 C 260.098 224.377 260.098 224.377 260.357 226.43 C 260.523 227.057 260.688 227.684 260.859 228.33 C 262.302 229.052 263.389 229.022 265.003 229.085 C 265.594 229.109 266.186 229.133 266.795 229.158 C 267.724 229.192 267.724 229.192 268.673 229.226 C 269.609 229.263 269.609 229.263 270.563 229.301 C 272.107 229.362 273.652 229.42 275.196 229.477 C 275.196 232.315 275.196 235.154 275.196 238.079 C 274.312 238.094 273.428 238.109 272.517 238.124 C 271.355 238.156 270.193 238.189 269.031 238.222 C 268.157 238.235 268.157 238.235 267.266 238.247 C 263.952 238.313 263.952 238.313 261.025 239.694 C 260.098 241.008 260.098 241.008 260.357 243.061 C 260.523 243.688 260.688 244.315 260.859 244.961 C 262.302 245.683 263.389 245.653 265.003 245.716 C 265.594 245.74 266.186 245.764 266.795 245.789 C 267.415 245.811 268.035 245.833 268.673 245.857 C 269.609 245.894 269.609 245.894 270.563 245.932 C 272.107 245.993 273.652 246.051 275.196 246.108 C 275.196 249.136 275.196 252.164 275.196 255.283 C 274.216 255.305 273.236 255.326 272.226 255.349 C 270.946 255.386 269.666 255.424 268.386 255.463 C 267.739 255.475 267.092 255.489 266.426 255.502 C 265.808 255.522 265.191 255.543 264.555 255.564 C 263.699 255.586 263.699 255.586 262.826 255.609 C 262.136 255.732 262.136 255.732 261.433 255.857 C 260.078 257.517 260.078 257.517 260.393 259.621 C 260.657 261.74 260.657 261.74 262.58 262.739 C 268.825 263.022 268.825 263.022 275.196 263.312 C 275.196 282.994 275.196 302.676 275.196 322.954 C 270.276 322.954 265.355 322.954 260.286 322.954 C 260.283 321.51 260.281 320.066 260.278 318.578 C 260.269 313.805 260.243 309.033 260.209 304.26 C 260.19 301.367 260.176 298.473 260.173 295.58 C 260.171 292.787 260.154 289.994 260.129 287.202 C 260.121 286.137 260.119 285.072 260.121 284.006 C 260.124 282.513 260.109 281.022 260.09 279.53 C 260.095 279.089 260.1 278.649 260.105 278.196 C 260.058 275.996 259.777 274.872 258.476 273.075 C 256.571 271.72 255.624 271.551 253.308 271.536 C 252.598 271.525 251.888 271.513 251.156 271.502 C 250.416 271.504 249.675 271.507 248.912 271.509 C 247.885 271.496 247.885 271.496 246.837 271.484 C 244.283 271.457 241.728 271.454 239.174 271.449 C 233.461 271.413 227.748 271.378 221.862 271.341 C 221.862 255.633 221.862 239.925 221.862 223.742 C 227.016 221.165 232.095 218.712 237.382 216.466 C 238.868 215.829 240.353 215.191 241.838 214.551 C 242.238 214.378 242.637 214.206 243.05 214.028 C 249.054 211.434 255.026 208.766 261.003 206.107 C 261.585 205.849 262.167 205.589 262.768 205.323 C 264.429 204.584 266.089 203.845 267.75 203.106 C 268.254 202.881 268.758 202.657 269.277 202.426 C 269.738 202.22 270.2 202.014 270.676 201.802 C 271.08 201.623 271.484 201.443 271.9 201.257 C 274.167 200.229 274.167 200.229 275.196 200.229 Z" style="stroke-width: 1; fill:none;"/><path d="M 283.225 300.015 C 309.531 300.015 335.836 300.015 362.939 300.015 C 362.939 307.774 362.939 315.533 362.939 323.528 C 336.633 323.528 310.328 323.528 283.225 323.528 C 283.225 315.769 283.225 308.009 283.225 300.015 Z" style="stroke-width: 1; fill:none;"/><path d="M 195.482 303.678 C 214.218 303.678 229.673 322.534 252.257 323.528 C 233.521 323.528 214.786 323.528 195.482 323.528 C 195.482 317.472 195.482 309.918 195.482 303.678 Z" style="stroke-width: 1; fill:none;"/><path d="M 195.482 279.37 C 214.218 279.37 232.954 279.37 252.257 279.37 C 252.257 285.426 252.257 312.159 252.257 318.398 C 233.521 318.398 214.786 297.721 195.482 297.721 C 195.482 291.665 195.482 285.609 195.482 279.37 Z" style="stroke-width: 1; fill:none;"/><path d="M 317.06 239.799 C 321.035 239.799 325.009 239.799 329.104 239.799 C 329.152 240.832 329.202 241.863 329.252 242.927 C 329.416 246.372 329.581 249.817 329.746 253.261 C 329.847 255.346 329.947 257.43 330.045 259.515 C 330.142 261.534 330.238 263.554 330.335 265.573 C 330.39 266.701 330.443 267.831 330.497 268.96 C 330.701 273.177 330.956 277.385 331.287 281.595 C 331.449 285.055 331.398 288.522 331.398 291.986 C 325.909 291.986 320.421 291.986 314.767 291.986 C 315.162 280.795 315.643 269.611 316.177 258.425 C 316.277 256.313 316.377 254.202 316.477 252.09 C 316.671 247.993 316.865 243.896 317.06 239.799 Z" style="stroke-width: 1; fill:none;"/><path d="M 321.648 357.363 C 334.517 357.363 347.386 357.363 360.645 357.363 C 359.603 360.837 358.477 364.29 357.204 367.686 C 346.606 367.686 336.008 367.686 325.089 367.686 C 321.648 359.084 321.648 359.084 321.648 357.363 Z" style="stroke-width: 1; fill:none;"/><path d="M 197.776 357.363 C 210.645 357.363 223.514 357.363 236.773 357.363 C 236.199 360.804 236.199 360.804 233.332 367.686 C 222.734 367.686 212.136 367.686 201.217 367.686 C 197.776 358.51 197.776 358.51 197.776 357.363 Z" style="stroke-width: 1; fill:none;"/><path d="M 331.57 199.915 C 335.39 202.104 337.967 205.238 339.426 209.405 C 339.426 209.972 339.426 210.54 339.426 211.125 C 328.639 211.125 317.852 211.125 306.738 211.125 C 307.478 206.684 309.208 204.606 312.365 201.519 C 318.601 197.118 324.59 196.668 331.57 199.915 Z" style="stroke-width: 1; fill:none;"/><path d="M 306.738 219.154 C 317.525 219.154 328.312 219.154 339.426 219.154 C 338.57 223.435 336.557 226.576 333.12 229.293 C 329.002 232.006 324.82 233.017 319.928 232.344 C 315.099 231.184 310.955 228.37 308.2 224.206 C 307.287 222.466 306.738 221.133 306.738 219.154 Z" style="stroke-width: 1; fill:none;"/><path d="M 237.346 384.89 C 238.855 386.155 239.555 387.173 239.84 389.139 C 239.908 390.8 239.896 392.441 239.855 394.102 C 239.854 394.672 239.854 395.241 239.853 395.828 C 239.795 400.607 239.795 400.607 238.493 402.668 C 236.699 403.566 235.307 403.447 233.332 403.242 C 231.74 401.962 231.114 400.901 230.82 398.876 C 230.728 397.052 230.725 395.247 230.751 393.421 C 230.742 392.792 230.734 392.163 230.724 391.515 C 230.727 390.912 230.73 390.31 230.733 389.689 C 230.736 389.14 230.738 388.59 230.741 388.024 C 231.038 386.611 231.038 386.611 232.078 385.576 C 233.95 384.553 235.253 384.592 237.346 384.89 Z" fill="#020100" style="stroke-width: 1;"/><path d="M 323.082 384.568 C 325.413 384.943 325.945 385.367 327.383 387.184 C 327.68 388.61 327.68 388.61 327.688 390.193 C 327.691 390.768 327.693 391.343 327.696 391.934 C 327.688 392.531 327.678 393.128 327.67 393.744 C 327.678 394.338 327.687 394.933 327.696 395.546 C 327.683 398.168 327.654 399.895 326.346 402.205 C 325.089 403.242 325.089 403.242 323.046 403.529 C 321.075 403.242 321.075 403.242 320 402.453 C 318.238 399.909 318.63 397.175 318.601 394.174 C 318.585 393.601 318.568 393.029 318.551 392.439 C 318.529 389.857 318.517 388.221 319.813 385.943 C 321.075 384.89 321.075 384.89 323.082 384.568 Z" fill="#020100" style="stroke-width: 1;"/><path d="M 363.069 183.603 C 365.911 184.35 367.187 185.714 369.14 187.827 C 369.468 188.166 369.795 188.505 370.133 188.853 C 373.997 192.886 373.997 192.886 374.086 195.641 C 374.054 196.86 374.054 196.86 373.835 197.935 C 372.441 199.209 371.476 199.572 369.63 199.875 C 367.441 199.561 366.383 198.274 364.946 196.716 C 364.67 196.426 364.394 196.136 364.11 195.837 C 363.331 195.013 362.561 194.18 361.792 193.347 C 361.447 193.003 361.102 192.658 360.745 192.303 C 359.322 190.811 358.922 189.889 358.602 187.827 C 358.925 185.892 358.925 185.892 359.82 184.458 C 361.219 183.598 361.219 183.598 363.069 183.603 Z" fill="#020303" style="stroke-width: 1;"/><path d="M 360.067 384.702 C 361.6 384.953 362.003 385.377 362.939 386.611 C 363.162 388.148 363.162 388.148 363.167 389.98 C 363.17 390.64 363.172 391.299 363.174 391.979 C 363.167 392.667 363.161 393.356 363.154 394.066 C 363.16 394.755 363.167 395.444 363.174 396.154 C 363.172 396.814 363.17 397.473 363.167 398.152 C 363.166 398.757 363.163 399.362 363.162 399.985 C 362.939 401.521 362.939 401.521 362.132 402.561 C 360.998 403.406 360.346 403.732 358.925 403.815 C 357.32 403.013 356.179 402.216 354.91 400.948 C 354.564 398.9 354.535 396.82 354.444 394.747 C 354.407 394.174 354.371 393.602 354.333 393.012 C 354.086 387.796 354.086 387.796 356.057 385.464 C 357.131 384.39 358.636 384.755 360.067 384.702 Z" fill="#00a6bd" style="stroke-width: 1;"/><path d="M 201.791 384.89 C 203.062 385.712 203.388 386.22 203.835 387.647 C 204.312 390.052 204.074 392.488 203.977 394.926 C 203.966 395.471 203.955 396.016 203.944 396.577 C 203.784 400.58 203.784 400.58 202.404 402.438 C 200.438 403.769 200.438 403.769 198.923 403.815 C 197.636 403.157 196.509 402.548 195.482 401.521 C 195.32 399.064 195.349 396.6 195.339 394.138 C 195.327 393.444 195.315 392.749 195.303 392.034 C 195.3 391.37 195.297 390.705 195.294 390.021 C 195.288 389.408 195.283 388.796 195.277 388.166 C 195.482 386.611 195.482 386.611 196.285 385.552 C 197.961 384.344 199.818 384.586 201.791 384.89 Z" fill="#00a6bd" style="stroke-width: 1;"/><path d="M 342.289 384.702 C 343.813 384.951 344.222 385.394 345.161 386.611 C 345.53 388.863 345.427 391.142 345.412 393.421 C 345.423 394.046 345.435 394.671 345.447 395.314 C 345.444 399.879 345.444 399.879 344.106 402.223 C 342.867 403.242 342.867 403.242 341.147 403.565 C 338.935 403.15 338.435 402.792 337.132 400.948 C 336.717 398.864 336.653 396.796 336.594 394.676 C 336.563 394.108 336.531 393.541 336.499 392.956 C 336.303 387.825 336.303 387.825 338.279 385.464 C 339.353 384.39 340.858 384.755 342.289 384.702 Z" fill="#020200" style="stroke-width: 1;"/><path d="M 218.495 384.725 C 219.568 384.89 219.568 384.89 220.679 385.607 C 222.402 388.444 221.882 391.744 221.755 394.926 C 221.744 395.471 221.733 396.016 221.722 396.577 C 221.562 400.563 221.562 400.563 220.22 402.451 C 218.512 403.553 217.545 403.615 215.554 403.242 C 213.986 401.951 213.333 400.895 213.05 398.876 C 212.972 397.053 212.976 395.246 213.009 393.421 C 213.005 392.792 213.001 392.163 212.997 391.515 C 213.034 386.903 213.034 386.903 214.066 385.573 C 215.513 384.493 216.749 384.654 218.495 384.725 Z" fill="#020200" style="stroke-width: 1;"/><path d="M 235.339 408.081 C 237.346 408.403 237.346 408.403 238.744 409.515 C 239.957 411.892 240.095 413.814 239.64 416.432 C 238.78 418.188 238.78 418.188 237.346 419.299 C 235.65 419.651 234.533 419.525 232.759 419.299 C 231.773 418.634 231.773 418.634 231.038 417.579 C 230.789 415.986 230.789 415.986 230.787 414.174 C 230.776 413.577 230.765 412.981 230.753 412.366 C 231.239 409.516 232.553 408.528 235.339 408.081 Z" fill="#030200" style="stroke-width: 1;"/><path d="M 322.759 408.081 C 325.083 408.507 325.918 408.802 327.383 410.697 C 328.215 416.388 328.215 416.388 326.646 418.634 C 325.232 419.591 323.86 419.607 322.188 419.53 C 321.075 419.299 321.075 419.299 319.641 418.188 C 318.478 415.813 318.32 413.868 318.781 411.271 C 319.893 409.174 320.418 408.529 322.759 408.081 Z" fill="#020200" style="stroke-width: 1;"/><path d="M 361.219 408.403 C 362.188 409.046 362.188 409.046 362.939 410.124 C 363.167 411.862 363.167 411.862 363.154 413.851 C 363.158 414.508 363.163 415.164 363.167 415.841 C 362.939 417.579 362.939 417.579 362.208 418.659 C 360.451 419.796 358.644 419.611 356.631 419.299 C 355.394 418.502 355.067 417.932 354.48 416.611 C 354.189 413.922 354.35 411.559 355.842 409.263 C 357.738 408.066 359.019 408.123 361.219 408.403 Z" fill="#010100" style="stroke-width: 1;"/><path d="M 200.644 408.403 C 202.256 409.228 202.256 409.228 203.511 410.697 C 204.277 413.218 204.4 415.17 203.296 417.579 C 202.364 418.726 202.364 418.726 201.791 419.299 C 197.623 419.568 197.623 419.568 196.208 418.663 C 195.137 417.063 195.254 415.757 195.267 413.851 C 195.26 412.867 195.26 412.867 195.253 411.862 C 195.482 410.124 195.482 410.124 196.252 409.046 C 197.773 408.017 198.855 408.153 200.644 408.403 Z" fill="#010000" style="stroke-width: 1;"/><path d="M 217.275 408.116 C 218.995 408.403 218.995 408.403 220.321 409.228 C 221.714 411.343 221.992 413.343 221.862 415.858 C 221.207 417.287 220.664 418.204 219.568 419.299 C 215.388 419.569 215.388 419.569 213.988 418.643 C 212.956 417.135 213.011 415.987 213.009 414.174 C 212.998 413.577 212.987 412.981 212.975 412.366 C 213.428 409.714 214.644 408.555 217.275 408.116 Z" fill="#040300" style="stroke-width: 1;"/><path d="M 341.469 408.439 C 344.039 409.14 344.039 409.14 345.161 410.697 C 345.389 412.31 345.389 412.31 345.376 414.138 C 345.38 414.741 345.385 415.345 345.389 415.966 C 345.161 417.579 345.161 417.579 344.43 418.641 C 342.682 419.804 340.871 419.611 338.853 419.299 C 337.616 418.502 337.289 417.932 336.702 416.611 C 336.409 413.904 336.59 411.552 338.064 409.228 C 339.426 408.403 339.426 408.403 341.469 408.439 Z" fill="#030300" style="stroke-width: 1;"/></g></svg>