<?xml version="1.0" encoding="UTF-8" standalone="no"?>
<svg
   viewBox="144.123 149.618 270.145 269.9404"
   width="270.145px"
   height="269.94px"
   preserveAspectRatio="none"
   version="1.1"
   id="svg25"
   sodipodi:docname="future city.svg"
   inkscape:version="1.4.2 (ebf0e940, 2025-05-08)"
   xmlns:inkscape="http://www.inkscape.org/namespaces/inkscape"
   xmlns:sodipodi="http://sodipodi.sourceforge.net/DTD/sodipodi-0.dtd"
   xmlns="http://www.w3.org/2000/svg"
   xmlns:svg="http://www.w3.org/2000/svg">
  <defs
     id="defs25" />
  <sodipodi:namedview
     id="namedview25"
     pagecolor="#ffffff"
     bordercolor="#000000"
     borderopacity="0.25"
     inkscape:showpageshadow="2"
     inkscape:pageopacity="0.0"
     inkscape:pagecheckerboard="0"
     inkscape:deskcolor="#d1d1d1"
     inkscape:zoom="2.5119973"
     inkscape:cx="155.85208"
     inkscape:cy="130.57339"
     inkscape:window-width="1712"
     inkscape:window-height="971"
     inkscape:window-x="0"
     inkscape:window-y="39"
     inkscape:window-maximized="1"
     inkscape:current-layer="svg25" />
  <path
     style="baseline-shift:baseline;display:inline;overflow:visible;opacity:1;vector-effect:none;fill:#00a6bd;fill-opacity:1;enable-background:accumulate;stop-color:#000000;stop-opacity:1"
     d="m 280.33594,147.01758 c -0.52682,9.9e-4 -1.04069,0.002 -1.55469,0.002 h -0.002 c -1.51045,0.001 -3.02225,0.004 -4.53516,0.0137 h -0.002 -0.002 c -0.48444,0.004 -0.95386,0.01 -1.42382,0.0137 -30.89773,0.1813 -62.40706,15.131 -83.50977,37.28516 v 0.002 h -0.002 c -0.28996,0.3047 -0.57104,0.60126 -0.85157,0.89649 -23.87217,24.65812 -35.55947,56.6064 -35.32226,90.64648 0.009,1.29198 0.0146,2.58592 0.0176,3.87891 0.005,3.43023 0.0142,6.86172 0.0332,10.29297 0.02,3.53708 0.033,7.07619 0.041,10.61523 0.0168,6.80798 -0.14316,28.7597 -0.10886,35.56768 0.32551,5.28503 246.69117,4.28791 251.99935,0.95268 0.0104,-6.32116 0.02,-28.45901 0.0254,-34.78129 0.003,-3.59335 0.007,-7.18692 0.0117,-10.7793 v -0.002 c 0.007,-3.51734 0.0107,-7.03345 0.0137,-10.55078 v -0.002 c 0,-1.3394 9.5e-4,-2.67983 0.002,-4.01953 v -0.004 c 0.005,-1.9236 0.0107,-3.84803 0.0117,-5.77343 v -0.002 -0.002 c -9.9e-4,-0.59925 -0.002,-1.18347 -0.002,-1.76758 v -0.0117 c 0.0697,-18.70462 -4.92259,-37.47182 -13.30274,-54.03515 l -0.006,-0.0137 -0.008,-0.0156 c -0.22355,-0.4283 -0.44112,-0.84651 -0.66015,-1.26758 l -0.002,-0.004 c -1.45935,-2.81714 -3.07612,-5.65337 -6.00976,-7.94532 l -0.78125,-0.60937 -0.98828,0.0644 c -1.14584,0.0742 -1.5385,0.026 -2.09571,0 -0.53336,-0.5608 -1.03589,-1.10044 -1.60742,-1.89453 -0.001,-0.002 -0.003,-0.002 -0.004,-0.004 -0.35597,-0.5271 -0.39428,-0.58338 -0.78125,-1.15625 l -0.0215,-0.0332 -0.0234,-0.0332 c -1.60893,-2.23168 -2.44365,-2.98029 -2.44531,-4.60352 0.0157,-0.44084 0.0167,-0.51507 0.0352,-1.02148 l 0.002,-0.0117 v -0.0117 c 0.0108,-0.39334 0.0213,-0.77776 0.0312,-1.16601 v -0.0215 c 0.0189,-0.56518 0.0194,-0.58578 0.0391,-1.16016 l 0.006,-0.17382 -0.0176,-0.17578 c -0.097,-0.961 -0.34436,-2.31428 -1.13672,-3.41602 -0.79235,-1.10174 -1.80103,-2.02064 -3.76953,-3.93164 l -0.004,-0.004 -0.002,-0.002 c -0.3676,-0.35438 -0.72601,-0.69928 -1.08593,-1.04688 l -0.0547,-0.0547 c -0.75176,-0.76983 -1.51358,-1.53354 -2.28711,-2.28711 l -0.0488,-0.0488 -0.0527,-0.0449 c -0.89799,-0.7858 -1.61415,-1.46632 -2.77539,-1.91016 -1.16125,-0.44384 -2.22976,-0.42147 -3.53711,-0.3789 l -0.31446,0.01 -0.30273,0.084 c -0.21474,0.0602 -0.42145,0.11857 -0.63281,0.17773 -1.1834,-0.706 -1.64847,-0.95321 -3.36524,-2.29688 l -0.002,-0.002 -0.004,-0.004 c -0.44078,-0.34284 -0.86887,-0.67482 -1.29687,-1.00782 l -0.0254,-0.0215 -0.0274,-0.0195 c -0.81769,-0.60352 -1.62468,-1.21763 -2.42382,-1.84375 -0.77533,-0.68419 -1.03014,-0.97357 -1.03711,-0.98633 -0.006,-0.0113 -0.0984,-0.44988 -0.18946,-1.20508 0.0585,-0.51861 0.11651,-1.02987 0.17383,-1.53516 l 0.10742,-0.94531 -0.52734,-0.79101 c -4.54955,-6.82404 -13.07505,-11.27652 -22.03906,-14.61524 -8.96402,-3.33872 -18.478,-5.45995 -25.15821,-6.83594 h -0.004 l -0.006,-0.002 c -0.49017,-0.0992 -0.96325,-0.19444 -1.43555,-0.29101 -7.73607,-1.66627 -15.27625,-1.91477 -22.92578,-1.92383 h -0.004 z m -1.55469,5.20117 c 0.514,0 1.03128,0.001 1.56445,0 7.53553,0.009 14.67468,0.26545 21.83008,1.80664 l 0.0137,0.002 0.0117,0.002 c 0.48737,0.0997 0.97354,0.19975 1.47266,0.30078 6.59737,1.35904 15.87993,3.44558 24.38476,6.61328 8.15445,3.03719 15.38854,7.1832 18.98047,12.01562 -0.028,0.24847 -0.0554,0.49328 -0.084,0.7461 l -0.0312,0.27344 0.0273,0.27343 c 0.12499,1.27253 0.24304,2.32389 0.83203,3.40235 0.58899,1.07846 1.34488,1.68237 2.21875,2.44726 l 0.0527,0.0449 0.0547,0.043 c 0.86214,0.67659 1.73274,1.33982 2.61133,1.98828 0.40849,0.31783 0.81734,0.63549 1.23828,0.96289 2.158,1.689 2.43902,1.88054 4.79102,3.26954 l 0.95508,0.56445 1.07031,-0.29883 c 0.46847,-0.13158 0.94496,-0.26577 1.42578,-0.40039 0.75356,-0.006 1.23435,0.0235 1.25977,0.0332 0.0298,0.0114 0.34737,0.22027 1.17773,0.94336 0.733,0.71535 1.4569,1.44081 2.17383,2.17578 l 0.0273,0.0274 0.0274,0.0273 c 0.37534,0.36241 0.75298,0.72606 1.14453,1.10352 1.96122,1.90415 2.92215,2.89877 3.16211,3.23242 0.2144,0.29812 0.12076,0.18693 0.16601,0.80469 -0.0105,0.30707 -0.0155,0.46171 -0.0312,0.93164 v 0.01 0.01 c -0.01,0.38646 -0.0222,0.77432 -0.0332,1.17773 l 0.002,-0.0215 c -0.02,0.55 -0.021,0.55033 -0.041,1.11133 l -0.002,0.0469 v 0.0469 c 1e-5,3.56941 2.07423,5.76833 3.42969,7.64843 0.34718,0.51397 0.38551,0.57119 0.7793,1.1543 l 0.0215,0.0332 0.0234,0.0312 c 0.8166,1.1348 1.68845,2.29843 2.92969,3.40039 l 0.66992,0.59375 0.89258,0.0566 c 1.16036,0.0733 1.78324,0.0245 2.51367,0 1.68531,1.50282 2.83411,3.28051 4.08594,5.69726 l 0.002,0.002 v 0.002 c 0.21656,0.4163 0.43238,0.83487 0.6582,1.26758 0.002,0.003 0.004,0.006 0.006,0.01 8.03333,15.88819 12.79667,33.89164 12.72852,51.64844 v 0.006 0.004 c 0,0.588 -10e-4,1.17834 0,1.78711 -10e-4,1.91935 -0.005,3.84058 -0.01,5.76172 v 0.002 0.002 c -10e-4,1.341 -0.002,2.68405 -0.002,4.02734 -0.003,3.51536 -0.009,7.02956 -0.0156,10.54492 v 0.002 c -0.005,3.59496 -0.007,7.1892 -0.01,10.7832 -0.006,7.04102 -0.0173,14.08254 -0.0293,21.12305 l -0.004,2.24804 c -0.55475,13.2533 -239.6765,8.08497 -241.3794,0.35752 l -0.0156,-2.61524 c -0.004,-0.72435 -0.008,-1.44929 -0.0117,-2.19531 v -0.002 c -0.035,-6.88809 -0.0611,-13.77598 -0.0781,-20.66407 -0.008,-3.54295 -0.019,-7.08789 -0.0391,-10.63281 -0.019,-3.42345 -0.0302,-6.84696 -0.0352,-10.27344 v -0.002 -0.002 c -0.003,-1.30101 -0.009,-2.60037 -0.0176,-3.90039 -0.22879,-32.83192 10.95555,-63.33626 33.85937,-86.99414 l 0.008,-0.01 0.008,-0.008 c 0.28557,-0.30055 0.57332,-0.60135 0.86719,-0.91016 20.11951,-21.12198 50.55146,-35.50466 79.78125,-35.67383 h 0.004 0.004 c 0.46874,-0.004 0.93582,-0.008 1.41797,-0.0117 1.49844,-0.01 2.99906,-0.0146 4.50195,-0.0156 z"
     id="path1"
     sodipodi:nodetypes="cssscscccccsccccccssssssscsssccccccccccccccccccccsccsccccccccscccccccccccccccssccccsccccccccsccccscccccccccscccccsccccccccscccccccccccccscscscscsscccccssccscscccccsccccc" />
  <path
     d="m 165.642,331.055 c 78.09706,0.0156 156.19497,0.0452 234.292,0.141 8.39277,0.56143 7.71937,15.93184 4.031,18.144 -81.71492,0.32234 -163.42993,0.66701 -245.14424,0.0218 -9.7364,3.12611 -7.81438,-11.87738 -4.25776,-16.99781 3.3546,-1.94579 7.38981,-1.33075 11.079,-1.309 z"
     style="fill:#00a6bd;fill-opacity:1;stroke:none;stroke-width:0;stroke-dasharray:none;stroke-opacity:1"
     id="path3" />
  <path
     d="m 273.196,210.229 c 0,7.002 0,14.004 0,21.219 -6.165,0.143 -6.165,0.143 -8.098,0.171 -3.225,0.081 -3.225,0.081 -6.073,1.444 -0.927,1.314 -0.927,1.314 -0.668,3.367 0.166,0.627 0.331,1.254 0.502,1.9 1.443,0.722 2.53,0.692 4.144,0.755 0.591,0.024 1.183,0.048 1.792,0.073 0.929,0.034 0.929,0.034 1.878,0.068 0.936,0.037 0.936,0.037 1.89,0.075 1.544,0.061 3.089,0.119 4.633,0.176 0,2.838 0,5.677 0,8.602 -0.884,0.015 -1.768,0.03 -2.679,0.045 -1.162,0.032 -2.324,0.065 -3.486,0.098 -0.874,0.013 -0.874,0.013 -1.765,0.025 -3.314,0.066 -3.314,0.066 -6.241,1.447 -0.927,1.314 -0.927,1.314 -0.668,3.367 0.166,0.627 0.331,1.254 0.502,1.9 1.443,0.722 2.53,0.692 4.144,0.755 0.591,0.024 1.183,0.048 1.792,0.073 0.62,0.022 1.24,0.044 1.878,0.068 0.936,0.037 0.936,0.037 1.89,0.075 1.544,0.061 3.089,0.119 4.633,0.176 0,3.028 0,6.056 0,9.175 -0.98,0.022 -1.96,0.043 -2.97,0.066 -1.28,0.037 -2.56,0.075 -3.84,0.114 -0.647,0.012 -1.294,0.026 -1.96,0.039 -0.618,0.02 -1.235,0.041 -1.871,0.062 -0.856,0.022 -0.856,0.022 -1.729,0.045 -0.69,0.123 -0.69,0.123 -1.393,0.248 -1.355,1.66 -1.355,1.66 -1.04,3.764 0.264,2.119 0.264,2.119 2.187,3.118 6.245,0.283 6.245,0.283 12.616,0.573 0,19.682 0,39.364 0,59.642 -4.92,0 -9.841,0 -14.91,0 -0.003,-1.444 -0.005,-2.888 -0.008,-4.376 -0.009,-4.773 -0.035,-9.545 -0.069,-14.318 -0.019,-2.893 -0.033,-5.787 -0.036,-8.68 -0.002,-2.793 -0.019,-5.586 -0.044,-8.378 -0.008,-1.065 -0.01,-2.13 -0.008,-3.196 0.003,-1.493 -0.012,-2.984 -0.031,-4.476 0.005,-0.441 0.01,-0.881 0.015,-1.334 -0.047,-2.2 -0.328,-3.324 -1.629,-5.121 -1.905,-1.355 -2.852,-1.524 -5.168,-1.539 -0.71,-0.011 -1.42,-0.023 -2.152,-0.034 -0.74,0.002 -1.481,0.005 -2.244,0.007 -1.027,-0.013 -1.027,-0.013 -2.075,-0.025 -2.554,-0.027 -5.109,-0.03 -7.663,-0.035 -5.713,-0.036 -11.426,-0.071 -17.312,-0.108 0,-15.708 0,-31.416 0,-47.599 5.154,-2.577 10.233,-5.03 15.52,-7.276 1.486,-0.637 2.971,-1.275 4.456,-1.915 0.4,-0.173 0.799,-0.345 1.212,-0.523 6.004,-2.594 11.976,-5.262 17.953,-7.921 0.582,-0.258 1.164,-0.518 1.765,-0.784 1.661,-0.739 3.321,-1.478 4.982,-2.217 0.504,-0.225 1.008,-0.449 1.527,-0.68 0.461,-0.206 0.923,-0.412 1.399,-0.624 0.404,-0.179 0.808,-0.359 1.224,-0.545 2.267,-1.028 2.267,-1.028 3.296,-1.028 z"
     style="fill:#00a6bd;fill-opacity:1;stroke-width:1"
     id="path4" />
  <path
     d="m 283.225,308.015 c 26.306,0 52.611,0 79.714,0 0,7.759 0,15.518 0,23.513 -26.306,0 -52.611,0 -79.714,0 0,-7.759 0,-15.519 0,-23.513 z"
     style="fill:#00a6bd;fill-opacity:1;stroke-width:1"
     id="path5" />
  <path
     d="m 195.482,311.678 c 18.736,0 34.191,18.856 56.775,19.85 -18.736,0 -37.471,0 -56.775,0 0,-6.056 0,-13.61 0,-19.85 z"
     style="fill:#00a6bd;fill-opacity:1;stroke-width:1"
     id="path6" />
  <path
     d="m 195.482,287.37 c 18.736,0 37.472,0 56.775,0 0,6.056 0,32.789 0,39.028 -18.736,0 -37.471,-20.677 -56.775,-20.677 0,-6.056 0,-12.112 0,-18.351 z"
     style="fill:#00a6bd;fill-opacity:1;stroke-width:1"
     id="path7" />
  <path
     d="m 317.06,243.13232 c 3.975,0 7.949,0 12.044,0 0.048,1.28373 0.098,2.56497 0.148,3.88722 0.164,4.28116 0.329,8.56232 0.494,12.84224 0.101,2.59106 0.201,5.18089 0.299,7.77195 0.097,2.50905 0.193,5.01934 0.29,7.52838 0.055,1.40179 0.108,2.80606 0.162,4.20909 0.204,5.24053 0.459,10.46989 0.79,15.70173 0.162,4.2998 0.111,8.6083 0.111,12.91307 -5.489,0 -10.977,0 -16.631,0 0.395,-13.90725 0.876,-27.8058 1.41,-41.70683 0.1,-2.62462 0.2,-5.24799 0.3,-7.87261 0.194,-5.09141 0.388,-10.18283 0.583,-15.27424 z"
     style="fill:#00a6bd;fill-opacity:1;stroke-width:1.11477"
     id="path8" />
  <path
     d="m 321.648,349.363 c 12.869,0 25.738,0 38.997,0 -1.042,3.474 -2.168,6.927 -3.441,10.323 -10.598,0 -21.196,0 -32.115,0 -3.441,-8.602 -3.441,-8.602 -3.441,-10.323 z"
     style="fill:#00a6bd;fill-opacity:1;stroke-width:1"
     id="path9" />
  <path
     d="m 197.776,349.363 c 12.869,0 25.738,0 38.997,0 -0.574,3.441 -0.574,3.441 -3.441,10.323 -10.598,0 -21.196,0 -32.115,0 -3.441,-9.176 -3.441,-9.176 -3.441,-10.323 z"
     style="fill:#00a6bd;fill-opacity:1;stroke-width:1"
     id="path10" />
  <path
     d="m 331.57,207.915 c 3.82,2.189 6.397,5.323 7.856,9.49 0,0.567 0,1.135 0,1.72 -10.787,0 -21.574,0 -32.688,0 0.74,-4.441 2.47,-6.519 5.627,-9.606 6.236,-4.401 12.225,-4.851 19.205,-1.604 z"
     style="fill:#00a6bd;fill-opacity:1;stroke-width:1"
     id="path11" />
  <path
     d="m 306.738,227.154 c 10.787,0 21.574,0 32.688,0 -0.856,4.281 -2.869,7.422 -6.306,10.139 -4.118,2.713 -8.3,3.724 -13.192,3.051 -4.829,-1.16 -8.973,-3.974 -11.728,-8.138 -0.913,-1.74 -1.462,-3.073 -1.462,-5.052 z"
     style="fill:#00a6bd;fill-opacity:1;stroke-width:1"
     id="path12" />
  <path
     d="m 237.346,364.89 c 1.509,1.265 2.209,2.283 2.494,4.249 0.068,1.661 0.056,3.302 0.015,4.963 -10e-4,0.57 -10e-4,1.139 -0.002,1.726 -0.058,4.779 -0.058,4.779 -1.36,6.84 -1.794,0.898 -3.186,0.779 -5.161,0.574 -1.592,-1.28 -2.218,-2.341 -2.512,-4.366 -0.092,-1.824 -0.095,-3.629 -0.069,-5.455 -0.009,-0.629 -0.017,-1.258 -0.027,-1.906 0.003,-0.603 0.006,-1.205 0.009,-1.826 0.003,-0.549 0.005,-1.099 0.008,-1.665 0.297,-1.413 0.297,-1.413 1.337,-2.448 1.872,-1.023 3.175,-0.984 5.268,-0.686 z"
     fill="#020100"
     style="fill:#00a6bd;fill-opacity:1;stroke-width:1"
     id="path13" />
  <path
     d="m 323.082,364.568 c 2.331,0.375 2.863,0.799 4.301,2.616 0.297,1.426 0.297,1.426 0.305,3.009 0.003,0.575 0.005,1.15 0.008,1.741 -0.008,0.597 -0.018,1.194 -0.026,1.81 0.008,0.594 0.017,1.189 0.026,1.802 -0.013,2.622 -0.042,4.349 -1.35,6.659 -1.257,1.037 -1.257,1.037 -3.3,1.324 -1.971,-0.287 -1.971,-0.287 -3.046,-1.076 -1.762,-2.544 -1.37,-5.278 -1.399,-8.279 -0.016,-0.573 -0.033,-1.145 -0.05,-1.735 -0.022,-2.582 -0.034,-4.218 1.262,-6.496 1.262,-1.053 1.262,-1.053 3.269,-1.375 z"
     fill="#020100"
     style="fill:#00a6bd;fill-opacity:1;stroke-width:1"
     id="path14" />
  <path
     d="m 360.067,364.702 c 1.533,0.251 1.936,0.675 2.872,1.909 0.223,1.537 0.223,1.537 0.228,3.369 0.003,0.66 0.005,1.319 0.007,1.999 -0.007,0.688 -0.013,1.377 -0.02,2.087 0.006,0.689 0.013,1.378 0.02,2.088 -0.002,0.66 -0.004,1.319 -0.007,1.998 -10e-4,0.605 -0.004,1.21 -0.005,1.833 -0.223,1.536 -0.223,1.536 -1.03,2.576 -1.134,0.845 -1.786,1.171 -3.207,1.254 -1.605,-0.802 -2.746,-1.599 -4.015,-2.867 -0.346,-2.048 -0.375,-4.128 -0.466,-6.201 -0.037,-0.573 -0.073,-1.145 -0.111,-1.735 -0.247,-5.216 -0.247,-5.216 1.724,-7.548 1.074,-1.074 2.579,-0.709 4.01,-0.762 z"
     fill="#00a6bd"
     style="fill:#00a6bd;fill-opacity:1;stroke-width:1"
     id="path16" />
  <path
     d="m 201.791,364.89 c 1.271,0.822 1.597,1.33 2.044,2.757 0.477,2.405 0.239,4.841 0.142,7.279 -0.011,0.545 -0.022,1.09 -0.033,1.651 -0.16,4.003 -0.16,4.003 -1.54,5.861 -1.966,1.331 -1.966,1.331 -3.481,1.377 -1.287,-0.658 -2.414,-1.267 -3.441,-2.294 -0.162,-2.457 -0.133,-4.921 -0.143,-7.383 -0.012,-0.694 -0.024,-1.389 -0.036,-2.104 -0.003,-0.664 -0.006,-1.329 -0.009,-2.013 -0.006,-0.613 -0.011,-1.225 -0.017,-1.855 0.205,-1.555 0.205,-1.555 1.008,-2.614 1.676,-1.208 3.533,-0.966 5.506,-0.662 z"
     fill="#00a6bd"
     style="fill:#00a6bd;fill-opacity:1;stroke-width:1"
     id="path17" />
  <path
     d="m 342.289,364.702 c 1.524,0.249 1.933,0.692 2.872,1.909 0.369,2.252 0.266,4.531 0.251,6.81 0.011,0.625 0.023,1.25 0.035,1.893 -0.003,4.565 -0.003,4.565 -1.341,6.909 -1.239,1.019 -1.239,1.019 -2.959,1.342 -2.212,-0.415 -2.712,-0.773 -4.015,-2.617 -0.415,-2.084 -0.479,-4.152 -0.538,-6.272 -0.031,-0.568 -0.063,-1.135 -0.095,-1.72 -0.196,-5.131 -0.196,-5.131 1.78,-7.492 1.074,-1.074 2.579,-0.709 4.01,-0.762 z"
     fill="#020200"
     style="fill:#00a6bd;fill-opacity:1;stroke-width:1"
     id="path18" />
  <path
     d="m 218.495,364.725 c 1.073,0.165 1.073,0.165 2.184,0.882 1.723,2.837 1.203,6.137 1.076,9.319 -0.011,0.545 -0.022,1.09 -0.033,1.651 -0.16,3.986 -0.16,3.986 -1.502,5.874 -1.708,1.102 -2.675,1.164 -4.666,0.791 -1.568,-1.291 -2.221,-2.347 -2.504,-4.366 -0.078,-1.823 -0.074,-3.63 -0.041,-5.455 -0.004,-0.629 -0.008,-1.258 -0.012,-1.906 0.037,-4.612 0.037,-4.612 1.069,-5.942 1.447,-1.08 2.683,-0.919 4.429,-0.848 z"
     fill="#020200"
     style="fill:#00a6bd;fill-opacity:1;stroke-width:1"
     id="path19" />
  <path
     d="m 235.339,388.081 c 2.007,0.322 2.007,0.322 3.405,1.434 1.213,2.377 1.351,4.299 0.896,6.917 -0.86,1.756 -0.86,1.756 -2.294,2.867 -1.696,0.352 -2.813,0.226 -4.587,0 -0.986,-0.665 -0.986,-0.665 -1.721,-1.72 -0.249,-1.593 -0.249,-1.593 -0.251,-3.405 -0.011,-0.597 -0.022,-1.193 -0.034,-1.808 0.486,-2.85 1.8,-3.838 4.586,-4.285 z"
     fill="#030200"
     style="fill:#00a6bd;fill-opacity:1;stroke-width:1"
     id="path20" />
  <path
     d="m 322.759,388.081 c 2.324,0.426 3.159,0.721 4.624,2.616 0.832,5.691 0.832,5.691 -0.737,7.937 -1.414,0.957 -2.786,0.973 -4.458,0.896 -1.113,-0.231 -1.113,-0.231 -2.547,-1.342 -1.163,-2.375 -1.321,-4.32 -0.86,-6.917 1.112,-2.097 1.637,-2.742 3.978,-3.19 z"
     fill="#020200"
     style="fill:#00a6bd;fill-opacity:1;stroke-width:1"
     id="path21" />
  <path
     d="m 361.219,388.403 c 0.969,0.643 0.969,0.643 1.72,1.721 0.228,1.738 0.228,1.738 0.215,3.727 0.004,0.657 0.009,1.313 0.013,1.99 -0.228,1.738 -0.228,1.738 -0.959,2.818 -1.757,1.137 -3.564,0.952 -5.577,0.64 -1.237,-0.797 -1.564,-1.367 -2.151,-2.688 -0.291,-2.689 -0.13,-5.052 1.362,-7.348 1.896,-1.197 3.177,-1.14 5.377,-0.86 z"
     fill="#010100"
     style="fill:#00a6bd;fill-opacity:1;stroke-width:1"
     id="path22" />
  <path
     d="m 200.644,388.403 c 1.612,0.825 1.612,0.825 2.867,2.294 0.766,2.521 0.889,4.473 -0.215,6.882 -0.932,1.147 -0.932,1.147 -1.505,1.72 -4.168,0.269 -4.168,0.269 -5.583,-0.636 -1.071,-1.6 -0.954,-2.906 -0.941,-4.812 -0.007,-0.984 -0.007,-0.984 -0.014,-1.989 0.229,-1.738 0.229,-1.738 0.999,-2.816 1.521,-1.029 2.603,-0.893 4.392,-0.643 z"
     fill="#010000"
     style="fill:#00a6bd;fill-opacity:1;stroke-width:1"
     id="path23" />
  <path
     d="m 217.275,388.116 c 1.72,0.287 1.72,0.287 3.046,1.112 1.393,2.115 1.671,4.115 1.541,6.63 -0.655,1.429 -1.198,2.346 -2.294,3.441 -4.18,0.27 -4.18,0.27 -5.58,-0.656 -1.032,-1.508 -0.977,-2.656 -0.979,-4.469 -0.011,-0.597 -0.022,-1.193 -0.034,-1.808 0.453,-2.652 1.669,-3.811 4.3,-4.25 z"
     fill="#040300"
     style="fill:#00a6bd;fill-opacity:1;stroke-width:1"
     id="path24" />
  <path
     d="m 341.469,388.439 c 2.57,0.701 2.57,0.701 3.692,2.258 0.228,1.613 0.228,1.613 0.215,3.441 0.004,0.603 0.009,1.207 0.013,1.828 -0.228,1.613 -0.228,1.613 -0.959,2.675 -1.748,1.163 -3.559,0.97 -5.577,0.658 -1.237,-0.797 -1.564,-1.367 -2.151,-2.688 -0.293,-2.707 -0.112,-5.059 1.362,-7.383 1.362,-0.825 1.362,-0.825 3.405,-0.789 z"
     fill="#030300"
     style="fill:#00a6bd;fill-opacity:1;stroke-width:1"
     id="path25" />
</svg>
