<?xml version="1.0" encoding="UTF-8" standalone="no"?>
<!-- Uploaded to: SVG Repo, www.svgrepo.com, Generator: SVG Repo Mixer Tools -->

<svg
   width="800px"
   height="800px"
   viewBox="0 0 24 24"
   fill="none"
   version="1.1"
   id="svg8"
   sodipodi:docname="black-hole-svgrepo-com.svg"
   inkscape:version="1.4.2 (ebf0e940, 2025-05-08)"
   xmlns:inkscape="http://www.inkscape.org/namespaces/inkscape"
   xmlns:sodipodi="http://sodipodi.sourceforge.net/DTD/sodipodi-0.dtd"
   xmlns="http://www.w3.org/2000/svg"
   xmlns:svg="http://www.w3.org/2000/svg">
  <defs
     id="defs8" />
  <sodipodi:namedview
     id="namedview8"
     pagecolor="#ffffff"
     bordercolor="#000000"
     borderopacity="0.25"
     inkscape:showpageshadow="2"
     inkscape:pageopacity="0.0"
     inkscape:pagecheckerboard="0"
     inkscape:deskcolor="#d1d1d1"
     inkscape:zoom="1.0657198"
     inkscape:cx="388.93902"
     inkscape:cy="472.91983"
     inkscape:window-width="1712"
     inkscape:window-height="971"
     inkscape:window-x="0"
     inkscape:window-y="39"
     inkscape:window-maximized="1"
     inkscape:current-layer="svg8" />
  <path
     style="baseline-shift:baseline;display:inline;overflow:visible;opacity:1;vector-effect:none;fill:#00a6bd;stroke-linecap:round;enable-background:accumulate;stop-color:#000000;stop-opacity:1;fill-opacity:1"
     d="m 12,9.25 c -1.379986,0.2257477 -0.533401,1.785282 0.501102,1.552878 1.505191,0.40785 1.956875,2.204071 2.046744,3.570395 0.148953,2.626782 -1.079278,5.623028 -3.70119,6.57849 -0.8987925,0.457009 -3.129774,-0.07892 -2.3769861,1.578567 1.1779977,0.499859 2.5428301,-0.01532 3.6546911,-0.513579 3.038334,-1.58074 4.327701,-5.350283 3.834476,-8.600606 C 15.695597,11.377022 14.264972,9.2252243 12,9.25 Z"
     id="path1" />
  <path
     style="baseline-shift:baseline;display:inline;overflow:visible;opacity:1;vector-effect:none;fill:#00a6bd;stroke-linecap:round;enable-background:accumulate;stop-color:#000000;stop-opacity:1;fill-opacity:1"
     d="M 15.310547,1.25 C 12.690793,1.1745049 10.206064,2.8334292 9.1467599,5.2081012 8.0269843,7.6338868 7.8102294,10.702943 9.2651373,13.03837 9.9281659,14.050512 11.080721,14.76967 12.310547,14.75 13.732006,14.488116 12.85179,12.906864 11.809628,13.197122 10.305402,12.788286 9.8550425,10.992307 9.7633191,9.6267271 9.6130278,6.9999334 10.842363,4.003698 13.463892,3.0482369 14.349889,2.6542101 16.63736,3.0080342 15.840877,1.4696699 15.702434,1.3300511 15.507167,1.2491688 15.310547,1.25 Z"
     id="path2" />
  <path
     style="baseline-shift:baseline;display:inline;overflow:visible;opacity:1;vector-effect:none;fill:#00a6bd;stroke-linecap:round;stroke-dasharray:2, 2;enable-background:accumulate;stop-color:#000000;stop-opacity:1;fill-opacity:1"
     d="m 12.359375,9.1386719 c -0.841811,0.044936 -1.655812,0.4194354 -2.248048,1.0175841 -0.8159915,1.105236 0.764843,1.601115 1.359449,0.813878 0.474414,-0.429942 1.2775,-0.160767 1.614475,-0.75342 0.25182,-0.4638621 -0.152706,-1.1550819 -0.725876,-1.0780421 z m 2.306641,0.4804687 c -1.362512,-0.3698169 -1.200131,1.3458644 -0.221709,1.5741214 0.576522,0.269679 0.955223,0.867108 1.613435,0.959773 1.198147,-0.247432 0.577809,-1.430583 -0.134157,-1.778203 C 15.53107,10.082064 15.110589,9.8250957 14.666016,9.6191406 Z m 2.242187,2.6582034 c -0.763127,0.675848 0.110333,1.347202 0.372457,1.994444 0.199262,0.740934 1.134025,1.6587 1.679919,0.68919 0.175984,-0.681891 -0.341935,-1.290915 -0.623887,-1.879862 -0.289224,-0.492883 -0.711753,-1.257977 -1.428489,-0.803772 z m 1.761719,3.568359 c -1.014044,0.257308 -0.511025,1.289332 -0.696511,2.006496 -0.448172,0.91604 0.7054,2.234535 1.348861,0.903667 0.188105,-0.729299 0.238112,-1.491059 0.16998,-2.240235 l -0.272395,-0.505249 -0.54987,-0.164673 z m -1.050781,3.802734 c -0.540352,0.209738 -0.743964,0.774837 -1.16021,1.130907 -0.82082,1.174736 0.948582,1.606319 1.418801,0.676232 0.36108,-0.420212 0.927655,-1.007333 0.452538,-1.564181 L 18.183543,19.761766 17.61909,19.648484 Z"
     id="path3" />
  <path
     style="baseline-shift:baseline;display:inline;overflow:visible;opacity:1;vector-effect:none;fill:#00a6bd;stroke-linecap:round;stroke-dasharray:2, 2;enable-background:accumulate;stop-color:#000000;stop-opacity:1;fill-opacity:1"
     d="m 7.3066406,1.9472656 c -0.657603,0.1451109 -0.9975494,0.7611196 -1.3808594,1.25 C 5.3885277,4.6114867 7.1304854,4.4935997 7.5292969,3.5703125 8.1341512,3.1181873 8.3639782,2.0384896 7.3066406,1.9472656 Z M 5.8964844,4.6953125 C 4.8806239,4.6039612 4.8828442,5.7111551 4.8047578,6.4113116 4.7844284,7.0843904 4.6462858,8.1285148 5.6425781,8.1542969 6.4708155,8.0582142 6.2818644,7.1681391 6.29687,6.5839807 6.2719432,5.9218519 6.8499925,4.9760677 5.8964844,4.6953125 Z M 5.7675781,8.6445313 C 4.8706894,9.140507 5.5187625,10.024026 5.8192919,10.646921 6.1570822,11.212208 6.5501076,12.172089 7.4043006,11.722654 8.0748345,11.257527 7.5304185,10.56733 7.2196559,10.077143 6.807977,9.5177477 6.7585011,8.3904614 5.7675781,8.6445313 Z m 2.4863282,3.2011717 c -1.3090626,0.345833 -0.4080304,1.543323 0.3176611,1.912577 0.5053129,0.306627 1.0075038,0.760122 1.6488496,0.648829 1.002681,-0.480553 0.26689,-1.435298 -0.4493263,-1.656034 C 9.23533,12.484802 8.880305,11.92074 8.2539063,11.845703 Z m 4.9062497,0.917969 c -0.342504,0.354319 -0.817058,0.578081 -1.31056,0.60157 -1.44897,0.348134 -0.316179,1.862057 0.632734,1.422512 0.750133,-0.182168 1.547429,-0.574921 1.919128,-1.27659 0.234297,-0.673131 -0.704188,-1.306187 -1.241302,-0.747492 z"
     id="path4" />
  <path
     style="baseline-shift:baseline;display:inline;overflow:visible;opacity:1;vector-effect:none;fill:#00a6bd;stroke-linecap:round;stroke-dasharray:2, 2;enable-background:accumulate;stop-color:#000000;stop-opacity:1;fill-opacity:1"
     d="m 17.164062,4.6347656 c -1.138914,-0.252778 -1.670134,1.6960127 -0.155103,1.5077378 0.713953,-0.1068383 1.411792,0.2532518 2.110388,0.059533 C 20.034314,5.5059254 19.07053,4.67961 18.292969,4.7070239 17.919411,4.6501875 17.541685,4.6298538 17.164062,4.6347656 Z m -2.621093,0.5449219 c -0.675199,0.262706 -1.316084,0.6131012 -1.910143,1.0273405 -1.031167,1.0933952 0.646428,1.6830079 1.334311,0.9208749 0.484481,-0.363249 1.183789,-0.4240258 1.52743,-0.9428179 0.277728,-0.5503281 -0.336684,-1.273033 -0.951598,-1.0053975 z m 6.416015,0.5898437 C 19.69927,5.192519 19.547028,6.8899678 20.470703,7.2773439 20.993277,8.0801424 22.617098,7.9602329 22.103306,6.777046 21.785396,6.3811319 21.369907,6.0639318 20.958984,5.7695312 Z m -8.90625,1.8144532 C 11.18474,7.0389572 10.691876,8.0337654 10.272089,8.6024277 9.9230548,9.1609129 9.3116757,9.9815418 10.136723,10.488281 c 0.982839,0.299697 1.097411,-0.8221705 1.58717,-1.347828 0.35596,-0.4389665 0.937976,-1.0273452 0.328841,-1.5564686 z M 9.9902344,10.996094 c -0.9984415,0.229609 -0.6871968,1.304662 -0.4177982,1.966625 0.2703603,0.547238 0.6045458,1.179698 1.2643278,1.311632 1.112893,-0.105798 0.760215,-1.169428 0.235499,-1.668888 -0.420928,-0.549146 -0.07464,-1.602578 -1.0820286,-1.609369 z"
     id="path5" />
  <path
     style="baseline-shift:baseline;display:inline;overflow:visible;opacity:1;vector-effect:none;fill:#00a6bd;stroke-linecap:round;stroke-dasharray:2, 2;enable-background:accumulate;stop-color:#000000;stop-opacity:1;fill-opacity:1"
     d="m 13.474609,9.7265625 c -1.223128,0.1579471 -0.604613,1.2261075 -0.160166,1.8027415 0.311196,0.538482 0.07342,1.492466 1.005849,1.474615 0.8241,-0.07564 0.757407,-1.011594 0.556533,-1.588623 -0.240888,-0.688418 -0.62735,-1.5003428 -1.402216,-1.6887335 z m 0.701172,3.7851565 c -0.983279,-0.301629 -1.099193,0.82162 -1.589117,1.347828 -0.911273,0.639721 -0.377508,2.489506 0.813319,1.383949 0.497569,-0.632719 1.081809,-1.302419 1.205446,-2.116263 -0.02009,-0.262578 -0.190095,-0.506128 -0.429648,-0.615514 z M 3.3769531,16.302734 c -1.433689,-0.816173 -1.4660782,1.144063 -0.4843748,1.58203 0.6659843,0.95267 2.396892,-0.0783 1.2450398,-0.935582 -0.2713239,-0.193554 -0.525633,-0.410166 -0.760665,-0.646448 z m 8.0214849,0.132813 c -0.750809,0.06954 -1.282789,0.680938 -1.9865442,0.911378 -1.4084718,0.468871 -0.1499951,2.018319 0.7732752,1.299084 0.614292,-0.319084 1.312763,-0.593715 1.748002,-1.146691 0.210043,-0.414337 -0.03817,-0.983307 -0.534733,-1.063771 z m -5.6386724,1.27539 c -1.6238677,0.01849 -0.6915401,1.741005 0.3842491,1.598782 0.6142141,0.04586 1.2873241,0.159859 1.8594418,-0.111842 C 8.9242442,18.347135 7.5739384,17.66473 6.7402344,17.85935 6.4097636,17.841002 6.0804739,17.793327 5.7597656,17.710937 Z"
     id="path6" />
  <path
     style="baseline-shift:baseline;display:inline;overflow:visible;opacity:1;vector-effect:none;fill:#00a6bd;stroke-linecap:round;enable-background:accumulate;stop-color:#000000;stop-opacity:1;fill-opacity:1"
     d="M 13.705078,8.3125 C 11.81072,8.4987646 9.7276141,9.6002022 9.3202339,11.61046 8.7858569,12.640353 10.456006,13.833548 10.75,12.310547 c -0.04564,-1.529595 1.611482,-2.293712 2.904838,-2.4700704 2.709855,-0.4123964 5.913768,0.6501044 7.150351,3.2581794 0.685163,0.952773 -0.07223,3.424242 1.725141,2.742221 0.499859,-1.177998 -0.01532,-2.54283 -0.513579,-3.654691 C 20.496772,9.2296136 16.864723,7.9426339 13.705078,8.3125 Z"
     id="path7" />
  <path
     style="baseline-shift:baseline;display:inline;overflow:visible;opacity:1;vector-effect:none;fill:#00a6bd;stroke-linecap:round;enable-background:accumulate;stop-color:#000000;stop-opacity:1;fill-opacity:1"
     d="m 2,8.25 c -1.3954759,0.6500279 -0.5125853,2.592611 -0.091963,3.723546 1.4758368,3.051402 5.1639853,4.408329 8.3877581,4.026063 1.894985,-0.185384 3.977027,-1.289129 4.383971,-3.299393 C 15.263883,11.654774 13.598221,10.43278 13.25,12 c 0.04577,1.529735 -1.610224,2.296548 -2.904838,2.47123 C 7.6352011,14.881369 4.4314273,13.820456 3.1948114,11.211892 2.6881192,10.36864 2.9491079,9.2973565 2.5303301,8.4696699 2.3918868,8.3300511 2.1966195,8.2491688 2,8.25 Z"
     id="path8" />
</svg>
