<?xml version="1.0" encoding="UTF-8" standalone="no"?>
<!-- Uploaded to: SVG Repo, www.svgrepo.com, Generator: SVG Repo Mixer Tools -->

<svg
   width="716.35742"
   height="716.2254"
   viewBox="0 0 21.490723 21.486762"
   fill="none"
   version="1.1"
   id="svg8"
   sodipodi:docname="galaxy.svg"
   inkscape:version="1.4.2 (ebf0e940, 2025-05-08)"
   xmlns:inkscape="http://www.inkscape.org/namespaces/inkscape"
   xmlns:sodipodi="http://sodipodi.sourceforge.net/DTD/sodipodi-0.dtd"
   xmlns="http://www.w3.org/2000/svg"
   xmlns:svg="http://www.w3.org/2000/svg">
  <defs
     id="defs8" />
  <sodipodi:namedview
     id="namedview8"
     pagecolor="#ffffff"
     bordercolor="#000000"
     borderopacity="0.25"
     inkscape:showpageshadow="2"
     inkscape:pageopacity="0.0"
     inkscape:pagecheckerboard="0"
     inkscape:deskcolor="#d1d1d1"
     inkscape:zoom="0.55956241"
     inkscape:cx="315.42505"
     inkscape:cy="386.01592"
     inkscape:window-width="1712"
     inkscape:window-height="971"
     inkscape:window-x="0"
     inkscape:window-y="39"
     inkscape:window-maximized="1"
     inkscape:current-layer="svg8" />
  <path
     style="baseline-shift:baseline;display:inline;overflow:visible;opacity:1;vector-effect:none;fill:#00a6bd;fill-opacity:1;stroke-linecap:round;enable-background:accumulate;stop-color:#000000;stop-opacity:1"
     d="m 10.756437,8.0024752 c -1.3799861,0.2257477 -0.533401,1.785282 0.501102,1.552878 1.505191,0.40785 1.956875,2.2040708 2.046744,3.5703948 0.148953,2.626782 -1.079278,5.623028 -3.7011901,6.57849 -0.8987925,0.457009 -3.129774,-0.07892 -2.3769861,1.578567 1.1779977,0.499859 2.5428301,-0.01532 3.6546912,-0.513579 3.038334,-1.58074 4.327701,-5.350283 3.834476,-8.600606 -0.26324,-2.039123 -1.693865,-4.1909205 -3.958837,-4.1661448 z"
     id="path1" />
  <path
     style="baseline-shift:baseline;display:inline;overflow:visible;opacity:1;vector-effect:none;fill:#00a6bd;fill-opacity:1;stroke-linecap:round;enable-background:accumulate;stop-color:#000000;stop-opacity:1"
     d="M 14.066984,0.00247519 C 11.44723,-0.07301991 8.9625009,1.5859044 7.9031968,3.9605764 6.7834212,6.386362 6.5666663,9.4554182 8.0215742,11.790845 c 0.6630286,1.012142 1.8155837,1.7313 3.0454098,1.71163 1.421459,-0.261884 0.541243,-1.843136 -0.500919,-1.552878 C 9.0618389,11.540761 8.6114794,9.7447822 8.519756,8.3792023 8.3694647,5.7524086 9.5987999,2.7561732 12.220329,1.8007121 c 0.885997,-0.3940268 3.173468,-0.040203 2.376985,-1.57856701 -0.138443,-0.1396188 -0.33371,-0.2205011 -0.53033,-0.2196699 z"
     id="path2" />
  <path
     style="baseline-shift:baseline;display:inline;overflow:visible;opacity:1;vector-effect:none;fill:#00a6bd;fill-opacity:1;stroke-linecap:round;stroke-dasharray:2, 2;enable-background:accumulate;stop-color:#000000;stop-opacity:1"
     d="m 11.115812,7.8911471 c -0.841811,0.044936 -1.6558121,0.4194354 -2.2480481,1.0175841 -0.8159915,1.1052358 0.764843,1.6011148 1.3594491,0.813878 0.474414,-0.429942 1.2775,-0.160767 1.614475,-0.75342 0.25182,-0.4638621 -0.152706,-1.1550819 -0.725876,-1.0780421 z m 2.306641,0.4804687 C 12.059941,8.0017989 12.222322,9.7174802 13.200744,9.9457372 13.777266,10.215416 14.155967,10.812845 14.814179,10.90551 16.012326,10.658078 15.391988,9.4749272 14.680022,9.1273072 14.287507,8.8345392 13.867026,8.5775709 13.422453,8.3716158 Z m 2.242187,2.6582032 c -0.763127,0.675848 0.110333,1.347202 0.372457,1.994444 0.199262,0.740934 1.134025,1.6587 1.679919,0.68919 C 17.893,13.031562 17.375081,12.422538 17.093129,11.833591 16.803905,11.340708 16.381376,10.575614 15.66464,11.029819 Z m 1.761719,3.568359 c -1.014044,0.257308 -0.511025,1.289332 -0.696511,2.006496 -0.448172,0.91604 0.7054,2.234535 1.348861,0.903667 0.188105,-0.729299 0.238112,-1.491059 0.16998,-2.240235 l -0.272395,-0.505249 -0.54987,-0.164673 z m -1.050781,3.802734 c -0.540352,0.209738 -0.743964,0.774837 -1.16021,1.130907 -0.82082,1.174736 0.948582,1.606319 1.418801,0.676232 0.36108,-0.420212 0.927655,-1.007333 0.452538,-1.564181 L 16.93998,18.514241 16.375527,18.400959 Z"
     id="path3" />
  <path
     style="baseline-shift:baseline;display:inline;overflow:visible;opacity:1;vector-effect:none;fill:#00a6bd;fill-opacity:1;stroke-linecap:round;stroke-dasharray:2, 2;enable-background:accumulate;stop-color:#000000;stop-opacity:1"
     d="M 6.0630775,0.69974079 C 5.4054745,0.84485169 5.0655281,1.4608604 4.6822181,1.9497408 4.1449646,3.3639619 5.8869223,3.2460749 6.2857338,2.3227877 6.8905881,1.8706625 7.1204151,0.79096479 6.0630775,0.69974079 Z M 4.6529213,3.4477877 C 3.6370608,3.3564364 3.6392811,4.4636303 3.5611947,5.1637868 3.5408653,5.8368656 3.4027227,6.88099 4.399015,6.9067721 5.2272524,6.8106894 5.0383013,5.9206143 5.0533069,5.3364559 5.0283801,4.6743271 5.6064294,3.7285429 4.6529213,3.4477877 Z M 4.524015,7.3970065 C 3.6271263,7.8929822 4.2751994,8.7765012 4.5757288,9.3993962 4.9135191,9.9646832 5.3065445,10.924564 6.1607375,10.475129 6.8312714,10.010002 6.2868554,9.3198052 5.9760928,8.8296182 5.5644139,8.2702229 5.514938,7.1429366 4.524015,7.3970065 Z m 2.4863282,3.2011715 c -1.3090626,0.345833 -0.4080304,1.543323 0.3176611,1.912577 0.5053129,0.306627 1.0075038,0.760122 1.6488496,0.648829 1.002681,-0.480553 0.26689,-1.435298 -0.4493263,-1.656034 C 7.9917669,11.237277 7.6367419,10.673215 7.0103432,10.598178 Z m 4.9062498,0.917969 c -0.342504,0.354319 -0.817058,0.578081 -1.31056,0.60157 -1.4489701,0.348134 -0.316179,1.862057 0.632734,1.422512 0.750133,-0.182168 1.547429,-0.574921 1.919128,-1.27659 0.234297,-0.673131 -0.704188,-1.306187 -1.241302,-0.747492 z"
     id="path4" />
  <path
     style="baseline-shift:baseline;display:inline;overflow:visible;opacity:1;vector-effect:none;fill:#00a6bd;fill-opacity:1;stroke-linecap:round;stroke-dasharray:2, 2;enable-background:accumulate;stop-color:#000000;stop-opacity:1"
     d="m 15.920499,3.3872408 c -1.138914,-0.252778 -1.670134,1.6960127 -0.155103,1.5077378 0.713953,-0.1068383 1.411792,0.2532518 2.110388,0.059533 0.914967,-0.696111 -0.04882,-1.5224264 -0.826378,-1.4950125 -0.373558,-0.056836 -0.751284,-0.07717 -1.128907,-0.072258 z m -2.621093,0.5449219 c -0.675199,0.262706 -1.316084,0.6131012 -1.910143,1.0273405 -1.031167,1.0933952 0.646428,1.6830079 1.334311,0.9208749 0.484481,-0.363249 1.183789,-0.4240258 1.52743,-0.9428179 0.277728,-0.5503281 -0.336684,-1.273033 -0.951598,-1.0053975 z m 6.416015,0.5898437 C 18.455707,3.9449942 18.303465,5.642443 19.22714,6.0298191 19.749714,6.8326176 21.373535,6.7127081 20.859743,5.5295212 20.541833,5.1336071 20.126344,4.816407 19.715421,4.5220064 Z m -8.90625,1.8144532 C 9.9411769,5.7914324 9.4483129,6.7862406 9.0285259,7.3549029 8.6794917,7.9133881 8.0681126,8.734017 8.8931599,9.2407562 9.8759989,9.5404532 9.9905709,8.4185857 10.48033,7.8929282 10.83629,7.4539617 11.418306,6.865583 10.809171,6.3364596 Z M 8.7466713,9.7485692 c -0.9984415,0.229609 -0.6871968,1.3046618 -0.4177982,1.9666248 0.2703603,0.547238 0.6045458,1.179698 1.2643278,1.311632 1.1128931,-0.105798 0.7602151,-1.169428 0.235499,-1.668888 -0.420928,-0.549146 -0.07464,-1.6025778 -1.0820286,-1.6093688 z"
     id="path5" />
  <path
     style="baseline-shift:baseline;display:inline;overflow:visible;opacity:1;vector-effect:none;fill:#00a6bd;fill-opacity:1;stroke-linecap:round;stroke-dasharray:2, 2;enable-background:accumulate;stop-color:#000000;stop-opacity:1"
     d="m 12.231046,8.4790377 c -1.223128,0.1579471 -0.604613,1.2261075 -0.160166,1.8027413 0.311196,0.538482 0.07342,1.492466 1.005849,1.474615 0.8241,-0.07564 0.757407,-1.011594 0.556533,-1.588623 -0.240888,-0.6884178 -0.62735,-1.5003426 -1.402216,-1.6887333 z m 0.701172,3.7851563 c -0.983279,-0.301629 -1.099193,0.82162 -1.589117,1.347828 -0.911273,0.639721 -0.377508,2.489506 0.813319,1.383949 0.497569,-0.632719 1.081809,-1.302419 1.205446,-2.116263 -0.02009,-0.262578 -0.190095,-0.506128 -0.429648,-0.615514 z M 2.13339,15.055209 c -1.43368902,-0.816173 -1.46607822,1.144063 -0.4843748,1.58203 0.6659843,0.95267 2.396892,-0.0783 1.2450398,-0.935582 C 2.6227311,15.508103 2.368422,15.291491 2.13339,15.055209 Z m 8.021485,0.132813 c -0.7508091,0.06954 -1.2827891,0.680938 -1.9865443,0.911378 -1.4084718,0.468871 -0.1499951,2.018319 0.7732752,1.299084 0.614292,-0.319084 1.3127631,-0.593715 1.7480021,-1.146691 0.210043,-0.414337 -0.03817,-0.983307 -0.534733,-1.063771 z m -5.6386725,1.27539 c -1.6238677,0.01849 -0.6915401,1.741005 0.3842491,1.598782 0.6142141,0.04586 1.2873241,0.159859 1.8594418,-0.111842 C 7.6806811,17.09961 6.3303753,16.417205 5.4966713,16.611825 5.1662005,16.593477 4.8369108,16.545802 4.5162025,16.463412 Z"
     id="path6" />
  <path
     style="baseline-shift:baseline;display:inline;overflow:visible;opacity:1;vector-effect:none;fill:#00a6bd;fill-opacity:1;stroke-linecap:round;enable-background:accumulate;stop-color:#000000;stop-opacity:1"
     d="m 12.461515,7.0649752 c -1.894358,0.1862646 -3.977464,1.2877022 -4.3848442,3.2979598 -0.534377,1.029893 1.1357721,2.223088 1.4297661,0.700087 -0.04564,-1.5295948 1.6114821,-2.2937118 2.9048381,-2.4700702 2.709855,-0.4123964 5.913768,0.6501044 7.150351,3.2581792 0.685163,0.952773 -0.07223,3.424242 1.725141,2.742221 0.499859,-1.177998 -0.01532,-2.54283 -0.513579,-3.654691 C 19.253209,7.9820888 15.62116,6.6951091 12.461515,7.0649752 Z"
     id="path7" />
  <path
     style="baseline-shift:baseline;display:inline;overflow:visible;opacity:1;vector-effect:none;fill:#00a6bd;fill-opacity:1;stroke-linecap:round;enable-background:accumulate;stop-color:#000000;stop-opacity:1"
     d="m 0.75643688,7.0024752 c -1.3954759,0.6500279 -0.5125853,2.592611 -0.091963,3.7235458 C 2.1403107,13.777423 5.8284592,15.13435 9.0522319,14.752084 10.947217,14.5667 13.029259,13.462955 13.436203,11.452691 14.02032,10.407249 12.354658,9.1852552 12.006437,10.752475 12.052207,12.28221 10.396213,13.049023 9.1015989,13.223705 6.391638,13.633844 3.1878642,12.572931 1.9512483,9.9643672 1.4445561,9.1211152 1.7055448,8.0498317 1.286767,7.2221451 1.1483237,7.0825263 0.95305638,7.001644 0.75643688,7.0024752 Z"
     id="path8" />
</svg>
