<?xml version="1.0" encoding="UTF-8" standalone="no"?>
<!-- Uploaded to: SVG Repo, www.svgrepo.com, Generator: SVG Repo Mixer Tools -->

<svg
   fill="#00a6bd"
   width="654.41144"
   height="714.49371"
   viewBox="0 0 29.448515 32.152217"
   version="1.1"
   preserveAspectRatio="xMidYMid"
   id="svg6"
   sodipodi:docname="helix.svg"
   inkscape:version="1.4.2 (ebf0e940, 2025-05-08)"
   xmlns:inkscape="http://www.inkscape.org/namespaces/inkscape"
   xmlns:sodipodi="http://sodipodi.sourceforge.net/DTD/sodipodi-0.dtd"
   xmlns="http://www.w3.org/2000/svg"
   xmlns:svg="http://www.w3.org/2000/svg">
  <defs
     id="defs6" />
  <sodipodi:namedview
     id="namedview6"
     pagecolor="#ffffff"
     bordercolor="#000000"
     borderopacity="0.25"
     inkscape:showpageshadow="2"
     inkscape:pageopacity="0.0"
     inkscape:pagecheckerboard="0"
     inkscape:deskcolor="#d1d1d1"
     inkscape:zoom="0.77926117"
     inkscape:cx="119.98545"
     inkscape:cy="334.93264"
     inkscape:window-width="896"
     inkscape:window-height="245"
     inkscape:window-x="0"
     inkscape:window-y="39"
     inkscape:window-maximized="0"
     inkscape:current-layer="svg6" />
  <title
     id="title1">helix-line</title>
  <path
     class="clr-i-outline clr-i-outline-path-1"
     d="m 5.1454931,11.221761 a 0.9,0.9 0 0 1 -0.49,-1.6600001 l 8.9299999,-5.73 a 0.90972523,0.90972523 0 1 1 1,1.52 L 5.6354931,11.071761 a 0.9,0.9 0 0 1 -0.49,0.15 z"
     id="path1" />
  <path
     class="clr-i-outline clr-i-outline-path-2"
     d="m 9.5154931,13.261761 a 0.9,0.9 0 0 1 -0.49,-1.66 L 14.265493,8.2317609 a 0.90972523,0.90972523 0 1 1 1,1.52 l -5.26,3.4000001 a 0.9,0.9 0 0 1 -0.4899999,0.11 z"
     id="path2" />
  <path
     class="clr-i-outline clr-i-outline-path-3"
     d="m 15.985493,28.381761 a 0.9,0.9 0 0 1 -0.49,-1.66 l 8.93,-5.73 a 0.90972523,0.90972523 0 0 1 1,1.52 l -8.96,5.73 a 0.9,0.9 0 0 1 -0.48,0.14 z"
     id="path3" />
  <path
     class="clr-i-outline clr-i-outline-path-4"
     d="m 15.185493,24.091761 a 0.9,0.9 0 0 1 -0.49,-1.66 l 5.25,-3.37 a 0.90555232,0.90555232 0 1 1 1,1.51 l -5.28,3.38 a 0.89,0.89 0 0 1 -0.48,0.14 z"
     id="path4" />
  <path
     class="clr-i-outline clr-i-outline-path-5"
     d="m 17.825493,3.8417609 a 3.59,3.59 0 0 1 0.15,3.53 l -2.88,5.7800001 h 2.25 l 2.43,-4.8700001 a 5.61,5.61 0 0 0 -5,-8.13999995 H 9.5254931 l -1,1.99999995 h 6.2199999 a 3.61,3.61 0 0 1 3.08,1.7 z"
     id="path5" />
  <path
     class="clr-i-outline clr-i-outline-path-1"
     d="m 29.175493,18.931761 a 5.53,5.53 0 0 0 -5.25,-3.78 H 5.5754931 a 3.54,3.54 0 0 1 -3.56,-3.67 3.61,3.61 0 0 1 0.42,-1.5400001 l 4.26,-8.49 a 1.0017609,1.0017609 0 1 0 -1.79,-0.89999995 L 0.66549307,8.9917609 a 5.67,5.67 0 0 0 -0.4,4.3800001 5.53,5.53 0 0 0 5.28000003,3.78 h 7.5999999 l -3.4399999,6.87 a 5.64,5.64 0 0 0 1.4999999,6.92 5.38,5.38 0 0 0 3.47,1.21 h 5.25 l 1,-2 h -6.23 a 3.58,3.58 0 0 1 -3.22,-5.21 l 3.9,-7.79 h 8.54 a 3.42,3.42 0 0 1 2.15,0.71 3.57,3.57 0 0 1 1,4.43 l -4.12,8.22 a 1.0017609,1.0017609 0 1 0 1.79,0.9 l 4.06,-8.1 a 5.67,5.67 0 0 0 0.38,-4.38 z"
     id="path6" />
</svg>
