<?xml version="1.0" encoding="UTF-8" standalone="no"?>
<!-- Uploaded to: SVG Repo, www.svgrepo.com, Generator: SVG Repo Mixer Tools -->

<svg
   fill="#00a6bd"
   width="800px"
   height="800px"
   viewBox="0 0 36 36"
   version="1.1"
   preserveAspectRatio="xMidYMid meet"
   id="svg6"
   sodipodi:docname="helix-svgrepo-com.svg"
   inkscape:version="1.4.2 (ebf0e940, 2025-05-08)"
   xmlns:inkscape="http://www.inkscape.org/namespaces/inkscape"
   xmlns:sodipodi="http://sodipodi.sourceforge.net/DTD/sodipodi-0.dtd"
   xmlns="http://www.w3.org/2000/svg"
   xmlns:svg="http://www.w3.org/2000/svg">
  <defs
     id="defs6" />
  <sodipodi:namedview
     id="namedview6"
     pagecolor="#ffffff"
     bordercolor="#000000"
     borderopacity="0.25"
     inkscape:showpageshadow="2"
     inkscape:pageopacity="0.0"
     inkscape:pagecheckerboard="0"
     inkscape:deskcolor="#d1d1d1"
     inkscape:zoom="0.77926117"
     inkscape:cx="203.39779"
     inkscape:cy="375.99718"
     inkscape:window-width="1712"
     inkscape:window-height="971"
     inkscape:window-x="0"
     inkscape:window-y="39"
     inkscape:window-maximized="1"
     inkscape:current-layer="svg6" />
  <title
     id="title1">helix-line</title>
  <path
     class="clr-i-outline clr-i-outline-path-1"
     d="M8.88,13.07a.9.9,0,0,1-.49-1.66l8.93-5.73a.9.9,0,1,1,1,1.52L9.37,12.92A.9.9,0,0,1,8.88,13.07Z"
     id="path1" />
  <path
     class="clr-i-outline clr-i-outline-path-2"
     d="M13.25,15.11a.9.9,0,0,1-.49-1.66L18,10.08a.9.9,0,1,1,1,1.52L13.74,15A.9.9,0,0,1,13.25,15.11Z"
     id="path2" />
  <path
     class="clr-i-outline clr-i-outline-path-3"
     d="M19.72,30.23a.9.9,0,0,1-.49-1.66l8.93-5.73a.9.9,0,0,1,1,1.52L20.2,30.09A.9.9,0,0,1,19.72,30.23Z"
     id="path3" />
  <path
     class="clr-i-outline clr-i-outline-path-4"
     d="M18.92,25.94a.9.9,0,0,1-.49-1.66l5.25-3.37a.9.9,0,1,1,1,1.51L19.4,25.8A.89.89,0,0,1,18.92,25.94Z"
     id="path4" />
  <path
     class="clr-i-outline clr-i-outline-path-5"
     d="M21.56,5.69a3.59,3.59,0,0,1,.15,3.53L18.83,15h2.25l2.43-4.87a5.61,5.61,0,0,0-5-8.14H13.26l-1,2h6.22A3.61,3.61,0,0,1,21.56,5.69Z"
     id="path5" />
  <path
     class="clr-i-outline clr-i-outline-path-1"
     d="M32.91,20.78A5.53,5.53,0,0,0,27.66,17H9.31a3.54,3.54,0,0,1-3.56-3.67,3.61,3.61,0,0,1,.42-1.54l4.26-8.49a1,1,0,1,0-1.79-.9L4.4,10.84A5.67,5.67,0,0,0,4,15.22,5.53,5.53,0,0,0,9.28,19h7.6l-3.44,6.87a5.64,5.64,0,0,0,1.5,6.92A5.38,5.38,0,0,0,18.41,34h5.25l1-2H18.43a3.58,3.58,0,0,1-3.22-5.21L19.11,19h8.54a3.42,3.42,0,0,1,2.15.71,3.57,3.57,0,0,1,1,4.43l-4.12,8.22a1,1,0,1,0,1.79.9l4.06-8.1A5.67,5.67,0,0,0,32.91,20.78Z"
     id="path6" />
</svg>
