<?xml version="1.0" encoding="UTF-8" standalone="no"?>
<!-- Uploaded to: SVG Repo, www.svgrepo.com, Generator: SVG Repo Mixer Tools -->

<svg
   fill="#00a6bd"
   version="1.1"
   id="Layer_1"
   viewBox="0 0 512 512"
   xml:space="preserve"
   sodipodi:docname="flying-car-svgrepo-com.svg"
   inkscape:version="1.4.2 (ebf0e940, 2025-05-08)"
   xmlns:inkscape="http://www.inkscape.org/namespaces/inkscape"
   xmlns:sodipodi="http://sodipodi.sourceforge.net/DTD/sodipodi-0.dtd"
   xmlns="http://www.w3.org/2000/svg"
   xmlns:svg="http://www.w3.org/2000/svg"><defs
   id="defs24" /><sodipodi:namedview
   id="namedview24"
   pagecolor="#ffffff"
   bordercolor="#000000"
   borderopacity="0.25"
   inkscape:showpageshadow="2"
   inkscape:pageopacity="0.0"
   inkscape:pagecheckerboard="0"
   inkscape:deskcolor="#d1d1d1"
   inkscape:zoom="1.2783594"
   inkscape:cx="255.40549"
   inkscape:cy="174.44234"
   inkscape:window-width="1712"
   inkscape:window-height="971"
   inkscape:window-x="0"
   inkscape:window-y="39"
   inkscape:window-maximized="1"
   inkscape:current-layer="Layer_1" />
<g
   id="g2">
	<g
   id="g1">
		<path
   d="M140.016,251.179c-8.077,0-14.629,6.552-14.629,14.629h29.257C154.645,257.731,148.093,251.179,140.016,251.179z"
   id="path1" />
	</g>
</g>
<g
   id="g4">
	<g
   id="g3">
		<path
   d="M371.984,251.179c-8.077,0-14.629,6.552-14.629,14.629h29.257C386.612,257.731,380.061,251.179,371.984,251.179z"
   id="path2" />
	</g>
</g>
<g
   id="g6">
	<g
   id="g5">
		<rect
   x="256"
   y="184.83"
   width="15.673"
   height="15.673"
   id="rect4" />
	</g>
</g>
<g
   id="g8">
	<g
   id="g7">
		<path
   d="M 469.206,190.16358 390.247,153.487 331.115,78.715 c -5.483,-6.934 -13.698,-10.91 -22.538,-10.91 H 123.754 L 97.789,153.487 H 60.604 c -27.367,0 -46.179101,27.49949 -45.218921,54.84964 l 0.309605,35.48051 64.280137,0.26808 2.894541,-4.48078 C 115.96577,188.37084 138.40123,202.2947 195.94096,230.47624 l 119.33163,-1.52453 71.51315,-27.05191 50.83983,43.1932 47.79298,-1.12866 c 18.15857,-0.42882 20.46722,-21.7113 20.46722,-21.7113 l -0.11569,-8.79972 C 504.42681,198.79028 478.99233,194.70934 469.206,190.16358 Z M 114.166,153.487 135.382,83.479 h 16.901 l -21.216,70.008 z m 33.28,0 21.216,-70.008 h 69.075 l 55.365,70.008 z m 165.638,0 -55.365,-70.008 h 50.859 c 4.018,0 7.752,1.808 10.244,4.959 l 51.442,65.049 z"
   id="path6"
   sodipodi:nodetypes="sccsccssccsccccsccsccccccccccccsccc" />
	</g>
</g>
<g
   id="g10">
	<g
   id="g9">
		<path
   d="M461.845,228.719v15.673h34.482v12.539h-55.436c-1.954-15.386-8.963-29.597-20.171-40.635    c-13.074-12.877-30.383-19.969-48.736-19.969c-18.354,0-35.662,7.092-48.737,19.969c-3.848,3.79-7.188,7.961-10.011,12.419    H198.765c-2.823-4.458-6.164-8.629-10.012-12.419c-13.074-12.877-30.382-19.969-48.736-19.969s-35.662,7.092-48.737,19.969    c-11.208,11.038-18.217,25.249-20.171,40.635H15.673v-12.539h34.482v-15.673H0v43.886h86.101l0.129-7.706    c0.487-29.168,24.616-52.898,53.787-52.898c29.171,0,53.3,23.73,53.787,52.898l0.128,7.706h124.137l0.129-7.706    c0.487-29.168,24.616-52.898,53.787-52.898s53.3,23.73,53.787,52.898l0.128,7.706H512v-43.886H461.845z M303.076,256.932h-94.153    c-0.544-4.288-1.496-8.48-2.808-12.543h99.768C304.572,248.451,303.621,252.643,303.076,256.932z"
   id="path8" />
	</g>
</g>
<g
   id="g12">
	<g
   id="g11">
		<path
   d="M170.77,234.11c-8.577-8.415-19.826-12.937-31.617-12.698c-24.011,0.46-43.545,20.378-43.545,44.401v26.117    c0,7.203,5.859,13.061,13.061,13.061h42.841v107.854h15.673V304.992h4.18c7.202,0,13.061-5.859,13.061-13.061v-25.395    C184.424,254.442,179.447,242.623,170.77,234.11z M139.453,237.084c7.536-0.152,14.793,2.772,20.34,8.215    c3.598,3.53,6.222,7.921,7.67,12.673h-55.07C115.79,246.155,126.631,237.328,139.453,237.084z M168.751,289.318h-57.469v-15.673    h57.469V289.318z"
   id="path10" />
	</g>
</g>
<g
   id="g14">
	<g
   id="g13">
		<path
   d="M402.737,234.109c-8.577-8.414-19.854-12.936-31.617-12.697c-24.01,0.459-43.545,20.377-43.545,44.4v26.117    c0,7.202,5.859,13.061,13.061,13.061h4.18v97.405h15.673v-97.405h22.988v81.732h15.673v-81.732h4.18    c7.202,0,13.061-5.859,13.061-13.061v-25.395C416.392,254.441,411.414,242.622,402.737,234.109z M371.42,237.084    c7.536-0.152,14.793,2.772,20.34,8.215c3.598,3.53,6.223,7.921,7.671,12.673h-55.07    C347.758,246.155,358.599,237.328,371.42,237.084z M400.718,289.318h-57.469v-15.673h57.469V289.318z"
   id="path12" />
	</g>
</g>
<g
   id="g16">
	<g
   id="g15">
		<rect
   x="112.849"
   y="319.852"
   width="15.673"
   height="61.649"
   id="rect14" />
	</g>
</g>
<g
   id="g18">
	<g
   id="g17">
		<rect
   x="112.849"
   y="397.175"
   width="15.673"
   height="15.673"
   id="rect16" />
	</g>
</g>
<g
   id="g20">
	<g
   id="g19">
		<rect
   x="151.51"
   y="428.522"
   width="15.673"
   height="15.673"
   id="rect18" />
	</g>
</g>
<g
   id="g22">
	<g
   id="g21">
		<rect
   x="383.478"
   y="402.399"
   width="15.673"
   height="15.673"
   id="rect20" />
	</g>
</g>
<g
   id="g24">
	<g
   id="g23">
		<rect
   x="344.816"
   y="418.073"
   width="15.673"
   height="15.673"
   id="rect22" />
	</g>
</g>
</svg>
