<?xml version="1.0" encoding="UTF-8" standalone="no"?>
<!-- Uploaded to: SVG Repo, www.svgrepo.com, Generator: SVG Repo Mixer Tools -->

<svg
   fill="#00a6bd"
   version="1.1"
   id="Layer_1"
   viewBox="0 0 32 32"
   xml:space="preserve"
   sodipodi:docname="machine-learning-03-svgrepo-com.svg"
   inkscape:version="1.4.2 (ebf0e940, 2025-05-08)"
   xmlns:inkscape="http://www.inkscape.org/namespaces/inkscape"
   xmlns:sodipodi="http://sodipodi.sourceforge.net/DTD/sodipodi-0.dtd"
   xmlns="http://www.w3.org/2000/svg"
   xmlns:svg="http://www.w3.org/2000/svg"><defs
   id="defs1" /><sodipodi:namedview
   id="namedview1"
   pagecolor="#ffffff"
   bordercolor="#000000"
   borderopacity="0.25"
   inkscape:showpageshadow="2"
   inkscape:pageopacity="0.0"
   inkscape:pagecheckerboard="0"
   inkscape:deskcolor="#d1d1d1"
   inkscape:zoom="19.762016"
   inkscape:cx="20.316753"
   inkscape:cy="14.978229"
   inkscape:window-width="1712"
   inkscape:window-height="971"
   inkscape:window-x="0"
   inkscape:window-y="39"
   inkscape:window-maximized="1"
   inkscape:current-layer="Layer_1" />
<path
   id="machine--learning--03_1_"
   d="m 29.36,15.695 v -3.389 c 0.575,-0.159 1,-0.681 1,-1.305 0,-0.75 -0.61,-1.36 -1.36,-1.36 -0.191,0 -0.372,0.04 -0.537,0.111 L 26.098,6.796 C 26.261,6.572 26.36,6.298 26.36,6 26.36,5.25 25.75,4.64 25,4.64 c -0.401,0 -0.758,0.177 -1.007,0.454 L 20.334,3.264 C 20.351,3.179 20.36,3.091 20.36,3 20.36,2.25 19.75,1.64 19,1.64 c -0.625,0 -1.147,0.425 -1.306,1 h -4.389 c -0.159,-0.575 -0.681,-1 -1.305,-1 -0.75,0 -1.36,0.61 -1.36,1.36 0,0.091 0.01,0.179 0.027,0.264 l -2.66,1.33 C 7.758,4.318 7.401,4.14 7,4.14 6.25,4.14 5.64,4.75 5.64,5.5 c 0,0.273 0.082,0.526 0.221,0.739 L 3.598,8.785 C 3.417,8.695 3.216,8.64 3,8.64 2.25,8.64 1.64,9.25 1.64,10 c 0,0.625 0.425,1.146 1,1.305 v 1.389 c -0.575,0.159 -1,0.681 -1,1.305 0,0.75 0.61,1.36 1.36,1.36 0.546,0 0.8293665,-0.251147 1.0463665,-0.520204 l 3.6332513,2.029408 C 7.5044398,17.627058 8.298,18.36 9,18.36 c 0.091,0 0.179,-0.01 0.264,-0.027 l 2.83,1.659 c -0.276,0.25 -0.454,0.607 -0.454,1.008 0,0.75 0.61,1.36 1.36,1.36 0.47,0 0.885,-0.24 1.13,-0.604 l 1.518,1.173 C 15.646,22.953 15.64,22.976 15.64,23 c 0,0.625 0.740283,1.394722 1.540485,1.28348 l 0.95281,1.669502 C 17.873578,26.168283 17.64,26.375 17.64,27 c 0,0.75 0.61,1.36 1.36,1.36 0.75,0 1.36,-0.61 1.36,-1.36 0,-0.624 -0.920445,-1.518584 -1.619306,-1.204659 l -0.94155,-1.783104 C 18.160202,23.594255 18.36,23.365018 18.36,22.999 c 0,-0.452 -0.224,-0.85 -0.564,-1.098 l 0.682,-1.82 3.163,0.904 c 0,0.005 -10e-4,0.01 -10e-4,0.015 0,0.624 0.425,1.147 1,1.306 v 3.389 c -0.575,0.159 -1,0.681 -1,1.306 0,0.75 0.61,1.36 1.36,1.36 0.75,0 1.36,-0.61 1.36,-1.36 0,-0.624 -0.425,-1.147 -1,-1.306 v -3.389 c 0.575,-0.159 1,-0.681 1,-1.306 0,-0.149 -0.03,-0.29 -0.074,-0.424 l 3.828,-2.553 c 0.239,0.208 0.546,0.337 0.886,0.337 0.75,0 1.36,-0.61 1.36,-1.36 0,-0.624 -0.425,-1.146 -1,-1.305 z m -8.006,-0.763 c -0.002,-0.045 -0.007,-0.09 -0.014,-0.134 l 3.049,-1.355 3.313,2.899 z M 20,15.64 c -0.353,0 -0.64,-0.287 -0.64,-0.64 0,-0.353 0.287,-0.64 0.64,-0.64 0.353,0 0.64,0.287 0.64,0.64 0,0.353 -0.287,0.64 -0.64,0.64 z m 0,-2 c -0.75,0 -1.36,0.61 -1.36,1.36 0,0.452 0.224,0.85 0.564,1.097 l -1.166,3.11 -1.902,-0.543 -1.465,-5.126 5.463,-3.756 0.628,0.489 3.028,2.65 -2.745,1.22 C 20.796,13.838 20.423,13.64 20,13.64 Z M 9.131,15.653 8.122,9.85 11.734,9.489 V 9.485 c 0.196,0.51 0.687,0.875 1.266,0.875 0.005,0 0.009,-10e-4 0.014,-10e-4 l 0.823,2.879 -3.966,2.726 C 9.666,15.792 9.412,15.681 9.131,15.653 Z M 13,9.64 c -0.353,0 -0.64,-0.287 -0.64,-0.64 0,-0.353 0.287,-0.64 0.64,-0.64 0.353,0 0.64,0.287 0.64,0.64 0,0.353 -0.287,0.64 -0.64,0.64 z m -2.72,6.917 3.765,-2.589 1.275,4.463 -4.962,-1.418 c 0,-0.005 10e-4,-0.009 10e-4,-0.014 10e-4,-0.155 -0.031,-0.302 -0.079,-0.442 z M 24.129,7.036 C 24.366,7.235 24.667,7.36 25,7.36 c 0.191,0 0.372,-0.04 0.537,-0.111 l 2.365,2.955 C 27.739,10.428 27.64,10.702 27.64,11 c 0,0.069 0.01,0.135 0.02,0.201 L 24.516,12.598 21.221,9.715 20.757,9.354 Z m 4.122,8.83 -3.138,-2.745 2.841,-1.262 c 0.176,0.213 0.412,0.371 0.686,0.446 v 3.389 c -0.139,0.039 -0.271,0.095 -0.389,0.172 z M 29.64,11 c 0,0.353 -0.287,0.64 -0.64,0.64 -0.353,0 -0.64,-0.287 -0.64,-0.64 0,-0.353 0.287,-0.64 0.64,-0.64 0.353,0 0.64,0.287 0.64,0.64 z M 25,5.36 c 0.353,0 0.64,0.287 0.64,0.64 0,0.353 -0.287,0.64 -0.64,0.64 -0.353,0 -0.64,-0.287 -0.64,-0.64 0,-0.353 0.287,-0.64 0.64,-0.64 z m -6,-3 c 0.353,0 0.64,0.287 0.64,0.64 0,0.353 -0.287,0.64 -0.64,0.64 -0.353,0 -0.64,-0.287 -0.64,-0.64 0,-0.353 0.287,-0.64 0.64,-0.64 z m 0,2 c 0.401,0 0.758,-0.177 1.007,-0.454 l 3.659,1.83 C 23.649,5.821 23.64,5.909 23.64,6 c 0,0.156 0.032,0.303 0.08,0.443 L 20.16,8.891 13.256,3.521 C 13.277,3.47 13.291,3.415 13.306,3.36 h 4.389 c 0.158,0.575 0.68,1 1.305,1 z m -7,-2 c 0.353,0 0.64,0.287 0.64,0.64 0,0.353 -0.287,0.64 -0.64,0.64 C 11.647,3.64 11.36,3.353 11.36,3 11.36,2.647 11.647,2.36 12,2.36 Z M 10.993,3.906 C 11.242,4.182 11.599,4.36 12,4.36 c 0.304,0 0.583,-0.104 0.81,-0.274 l 6.728,5.232 -5.075,3.489 -0.757,-2.65 C 14.096,9.918 14.36,9.491 14.36,9 14.36,8.25 13.75,7.64 13,7.64 c -0.673,0 -1.229,0.492 -1.337,1.135 V 8.772 L 7.998,9.138 7.578,6.726 C 8.039,6.508 8.36,6.042 8.36,5.5 8.36,5.409 8.35,5.321 8.333,5.236 Z M 4.265,9.511 C 4.231,9.423 4.19,9.339 4.139,9.261 L 6.402,6.715 c 0.143,0.071 0.3,0.115 0.467,0.132 L 7.28,9.21 Z M 7,4.86 C 7.353,4.86 7.64,5.147 7.64,5.5 7.64,5.853 7.353,6.14 7,6.14 6.647,6.14 6.36,5.853 6.36,5.5 6.36,5.147 6.647,4.86 7,4.86 Z M 2.36,10 C 2.36,9.647 2.647,9.36 3,9.36 3.353,9.36 3.64,9.647 3.64,10 3.64,10.353 3.353,10.64 3,10.64 2.647,10.64 2.36,10.353 2.36,10 Z M 3,14.64 c -0.353,0 -0.64,-0.287 -0.64,-0.64 0,-0.353 0.287,-0.64 0.64,-0.64 0.353,0 0.64,0.287 0.64,0.64 0,0.353 -0.287,0.64 -0.64,0.64 z M 7.9043979,16.196131 4.3203822,14.142105 C 4.2613822,13.581105 3.89,12.841 3.359,12.694 v -1.389 c 0.503,-0.139 0.888,-0.556 0.977,-1.077 l 3.067,-0.307 1.018,5.853 c -0.162911,0.09907 -0.3816021,0.134131 -0.5166021,0.422131 z M 8.36,17 c 0,-0.353 0.287,-0.64 0.64,-0.64 0.353,0 0.64,0.287 0.64,0.64 0,0.353 -0.287,0.64 -0.64,0.64 C 8.647,17.64 8.36,17.353 8.36,17 Z M 13,21.64 c -0.353,0 -0.64,-0.287 -0.64,-0.64 0,-0.353 0.287,-0.64 0.64,-0.64 0.353,0 0.64,0.287 0.64,0.64 0,0.353 -0.287,0.64 -0.64,0.64 z m 1.353,-0.569 C 14.354,21.047 14.36,21.024 14.36,21 c 0,-0.75 -0.61,-1.36 -1.36,-1.36 -0.091,0 -0.179,0.01 -0.264,0.027 l -2.83,-1.659 c 0.098,-0.088 0.182,-0.189 0.251,-0.302 l 5.396,1.541 0.742,2.596 c -0.168,0.103 -0.315,0.238 -0.425,0.402 z M 19.64,27 c 0,0.353 -0.287,0.64 -0.64,0.64 -0.353,0 -0.64,-0.287 -0.64,-0.64 0,-0.353 0.287,-0.64 0.64,-0.64 0.353,0 0.64,0.287 0.64,0.64 z M 17,23.64 c -0.353,0 -0.64,-0.287 -0.64,-0.64 0,-0.353 0.287,-0.64 0.64,-0.64 0.353,0 0.64,0.287 0.64,0.64 0,0.353 -0.287,0.64 -0.64,0.64 z m 0.121,-1.988 C 17.08,21.648 17.041,21.64 17,21.64 c -0.005,0 -0.009,10e-4 -0.014,10e-4 l -0.618,-2.162 1.416,0.404 z m 1.611,-2.246 1.147,-3.059 c 0.041,0.004 0.08,0.012 0.121,0.012 0.519,0 0.967,-0.296 1.196,-0.725 l 6.451,1.433 c 0.006,0.124 0.03,0.243 0.068,0.356 l -3.828,2.553 C 23.647,19.769 23.34,19.64 23,19.64 c -0.491,0 -0.918,0.264 -1.158,0.655 z M 23.64,27 c 0,0.353 -0.287,0.64 -0.64,0.64 -0.353,0 -0.64,-0.287 -0.64,-0.64 0,-0.353 0.287,-0.64 0.64,-0.64 0.353,0 0.64,0.287 0.64,0.64 z M 23,21.64 c -0.353,0 -0.64,-0.287 -0.64,-0.64 0,-0.353 0.287,-0.64 0.64,-0.64 0.353,0 0.64,0.287 0.64,0.64 0,0.353 -0.287,0.64 -0.64,0.64 z m 6,-4 c -0.353,0 -0.64,-0.287 -0.64,-0.64 0,-0.353 0.287,-0.64 0.64,-0.64 0.353,0 0.64,0.287 0.64,0.64 0,0.353 -0.287,0.64 -0.64,0.64 z"
   sodipodi:nodetypes="ccssccssccssccssccssccssccssccsccssccsccsssccscccsccsssccsccssccccccsssssssccccccccsccccsccccssssscccccccsccscccccccccccssssssssssssssssccscccccsssssscsccccssccccsccccccccsssssssssssssssccccccccsssssssssscsscccccccsssssssssscsccccccsccccsccsssssssssssssss" />
<rect
   id="_Transparent_Rectangle"
   style="fill:none;"
   width="32"
   height="32" />
<rect
   style="fill:#00a6bd;fill-opacity:1;stroke-width:0"
   id="rect1"
   width="0.73446268"
   height="6.2918992"
   x="14.9439"
   y="-10.313712"
   transform="rotate(46.177436)" /><rect
   style="fill:#00a6bd;fill-opacity:1;stroke-width:0"
   id="rect1-5"
   width="0.78211248"
   height="8.0127268"
   x="24.29505"
   y="-5.5386004"
   transform="matrix(0.87907559,0.47668239,-0.48229875,0.8760068,0,0)" /><rect
   style="fill:#00a6bd;fill-opacity:1;stroke-width:0"
   id="rect1-5-7"
   width="0.75028676"
   height="7.5999637"
   x="15.58394"
   y="2.5519793"
   transform="matrix(0.88321379,0.46897058,-0.49009768,0.87166752,0,0)" /><rect
   style="fill:#00a6bd;fill-opacity:1;stroke-width:0"
   id="rect1-3"
   width="0.73099941"
   height="4.2776656"
   x="10.918168"
   y="4.9415112"
   transform="matrix(0.99606238,-0.08865519,0.19287101,0.98122412,0,0)" /><rect
   style="fill:#00a6bd;fill-opacity:1;stroke-width:0"
   id="rect1-3-3"
   width="0.77424258"
   height="4.8415089"
   x="9.3808956"
   y="20.96553"
   transform="matrix(0.97511501,-0.22169959,0.52151202,0.85324394,0,0)" /><path
   id="rect1-3-3-0"
   style="stroke-width:0"
   d="m 2.2618638,14.915063 1.1818024,-0.870598 0.1835792,7.556132 -1.4808607,0.610408 z"
   sodipodi:nodetypes="ccccc"
   transform="matrix(0.99999613,0.00278178,0.7548092,0.65594441,0,0)" /></svg>
