<?xml version="1.0" encoding="UTF-8" standalone="no"?>
<!-- Uploaded to: SVG Repo, www.svgrepo.com, Generator: SVG Repo Mixer Tools -->

<svg
   fill="#00a6bd"
   version="1.1"
   id="Layer_1"
   viewBox="0 0 28.719999 26.721001"
   xml:space="preserve"
   sodipodi:docname="machine brain.svg"
   inkscape:version="1.4.2 (ebf0e940, 2025-05-08)"
   width="28.719999"
   height="26.721001"
   xmlns:inkscape="http://www.inkscape.org/namespaces/inkscape"
   xmlns:sodipodi="http://sodipodi.sourceforge.net/DTD/sodipodi-0.dtd"
   xmlns="http://www.w3.org/2000/svg"
   xmlns:svg="http://www.w3.org/2000/svg"><defs
   id="defs1" /><sodipodi:namedview
   id="namedview1"
   pagecolor="#ffffff"
   bordercolor="#000000"
   borderopacity="0.25"
   inkscape:showpageshadow="2"
   inkscape:pageopacity="0.0"
   inkscape:pagecheckerboard="0"
   inkscape:deskcolor="#d1d1d1"
   inkscape:zoom="19.762016"
   inkscape:cx="18.697485"
   inkscape:cy="13.358961"
   inkscape:window-width="1712"
   inkscape:window-height="971"
   inkscape:window-x="0"
   inkscape:window-y="39"
   inkscape:window-maximized="1"
   inkscape:current-layer="Layer_1" />
<path
   id="machine--learning--03_1_"
   d="m 27.72,14.055 v -3.389 c 0.575,-0.159 1,-0.681 1,-1.305 0,-0.75 -0.61,-1.36 -1.36,-1.36 -0.191,0 -0.372,0.04 -0.537,0.111 L 24.458,5.156 C 24.621,4.932 24.72,4.658 24.72,4.36 24.72,3.61 24.11,3 23.36,3 22.959,3 22.602,3.177 22.353,3.454 L 18.694,1.624 C 18.711,1.539 18.72,1.451 18.72,1.36 18.72,0.61 18.11,0 17.36,0 16.735,0 16.213,0.425 16.054,1 H 11.665 C 11.506,0.425 10.984,0 10.36,0 9.61,0 9,0.61 9,1.36 9,1.451 9.01,1.539 9.027,1.624 l -2.66,1.33 C 6.118,2.678 5.761,2.5 5.36,2.5 4.61,2.5 4,3.11 4,3.86 4,4.133 4.082,4.386 4.221,4.599 L 1.958,7.145 C 1.777,7.055 1.576,7 1.36,7 0.61,7 0,7.61 0,8.36 0,8.985 0.425,9.506 1,9.665 v 1.389 c -0.575,0.159 -1,0.681 -1,1.305 0,0.75 0.61,1.36 1.36,1.36 0.546,0 0.8293665,-0.251147 1.0463665,-0.520204 l 3.6332513,2.029408 C 5.8644398,15.987058 6.658,16.72 7.36,16.72 c 0.091,0 0.179,-0.01 0.264,-0.027 l 2.83,1.659 C 10.178,18.602 10,18.959 10,19.36 c 0,0.75 0.61,1.36 1.36,1.36 0.47,0 0.885,-0.24 1.13,-0.604 l 1.518,1.173 C 14.006,21.313 14,21.336 14,21.36 c 0,0.625 0.740283,1.394722 1.540485,1.28348 l 0.95281,1.669502 C 16.233578,24.528283 16,24.735 16,25.36 c 0,0.75 0.61,1.36 1.36,1.36 0.75,0 1.36,-0.61 1.36,-1.36 0,-0.624 -0.920445,-1.518584 -1.619306,-1.204659 l -0.94155,-1.783104 C 16.520202,21.954255 16.72,21.725018 16.72,21.359 c 0,-0.452 -0.224,-0.85 -0.564,-1.098 l 0.682,-1.82 3.163,0.904 c 0,0.005 -0.001,0.01 -0.001,0.015 0,0.624 0.425,1.147 1,1.306 v 3.389 c -0.575,0.159 -1,0.681 -1,1.306 0,0.75 0.61,1.36 1.36,1.36 0.75,0 1.36,-0.61 1.36,-1.36 0,-0.624 -0.425,-1.147 -1,-1.306 v -3.389 c 0.575,-0.159 1,-0.681 1,-1.306 0,-0.149 -0.03,-0.29 -0.074,-0.424 l 3.828,-2.553 c 0.239,0.208 0.546,0.337 0.886,0.337 0.75,0 1.36,-0.61 1.36,-1.36 0,-0.624 -0.425,-1.146 -1,-1.305 z M 19.714,13.292 C 19.712,13.247 19.707,13.202 19.7,13.158 l 3.049,-1.355 3.313,2.899 z M 18.36,14 c -0.353,0 -0.64,-0.287 -0.64,-0.64 0,-0.353 0.287,-0.64 0.64,-0.64 0.353,0 0.64,0.287 0.64,0.64 0,0.353 -0.287,0.64 -0.64,0.64 z m 0,-2 C 17.61,12 17,12.61 17,13.36 c 0,0.452 0.224,0.85 0.564,1.097 l -1.166,3.11 -1.902,-0.543 -1.465,-5.126 5.463,-3.756 0.628,0.489 3.028,2.65 -2.745,1.22 C 19.156,12.198 18.783,12 18.36,12 Z M 7.491,14.013 6.482,8.21 10.094,7.849 V 7.845 c 0.196,0.51 0.687,0.875 1.266,0.875 0.005,0 0.009,-0.001 0.014,-0.001 l 0.823,2.879 -3.966,2.726 C 8.026,14.152 7.772,14.041 7.491,14.013 Z M 11.36,8 C 11.007,8 10.72,7.713 10.72,7.36 10.72,7.007 11.007,6.72 11.36,6.72 11.713,6.72 12,7.007 12,7.36 12,7.713 11.713,8 11.36,8 Z m -2.72,6.917 3.765,-2.589 1.275,4.463 -4.962,-1.418 c 0,-0.005 10e-4,-0.009 10e-4,-0.014 C 8.72,15.204 8.688,15.057 8.64,14.917 Z M 22.489,5.396 c 0.237,0.199 0.538,0.324 0.871,0.324 0.191,0 0.372,-0.04 0.537,-0.111 l 2.365,2.955 C 26.099,8.788 26,9.062 26,9.36 c 0,0.069 0.01,0.135 0.02,0.201 L 22.876,10.958 19.581,8.075 19.117,7.714 Z m 4.122,8.83 -3.138,-2.745 2.841,-1.262 c 0.176,0.213 0.412,0.371 0.686,0.446 v 3.389 c -0.139,0.039 -0.271,0.095 -0.389,0.172 z M 28,9.36 C 28,9.713 27.713,10 27.36,10 27.007,10 26.72,9.713 26.72,9.36 c 0,-0.353 0.287,-0.64 0.64,-0.64 0.353,0 0.64,0.287 0.64,0.64 z M 23.36,3.72 C 23.713,3.72 24,4.007 24,4.36 24,4.713 23.713,5 23.36,5 23.007,5 22.72,4.713 22.72,4.36 c 0,-0.353 0.287,-0.64 0.64,-0.64 z m -6,-3 C 17.713,0.72 18,1.007 18,1.36 18,1.713 17.713,2 17.36,2 17.007,2 16.72,1.713 16.72,1.36 c 0,-0.353 0.287,-0.64 0.64,-0.64 z m 0,2 c 0.401,0 0.758,-0.177 1.007,-0.454 l 3.659,1.83 C 22.009,4.181 22,4.269 22,4.36 c 0,0.156 0.032,0.303 0.08,0.443 L 18.52,7.251 11.616,1.881 C 11.637,1.83 11.651,1.775 11.666,1.72 h 4.389 c 0.158,0.575 0.68,1 1.305,1 z m -7,-2 C 10.713,0.72 11,1.007 11,1.36 11,1.713 10.713,2 10.36,2 10.007,2 9.72,1.713 9.72,1.36 9.72,1.007 10.007,0.72 10.36,0.72 Z M 9.353,2.266 c 0.249,0.276 0.606,0.454 1.007,0.454 0.304,0 0.583,-0.104 0.81,-0.274 l 6.728,5.232 -5.075,3.489 -0.757,-2.65 C 12.456,8.278 12.72,7.851 12.72,7.36 12.72,6.61 12.11,6 11.36,6 10.687,6 10.131,6.492 10.023,7.135 V 7.132 L 6.358,7.498 5.938,5.086 C 6.399,4.868 6.72,4.402 6.72,3.86 6.72,3.769 6.71,3.681 6.693,3.596 Z M 2.625,7.871 C 2.591,7.783 2.55,7.699 2.499,7.621 L 4.762,5.075 c 0.143,0.071 0.3,0.115 0.467,0.132 L 5.64,7.57 Z M 5.36,3.22 C 5.713,3.22 6,3.507 6,3.86 6,4.213 5.713,4.5 5.36,4.5 5.007,4.5 4.72,4.213 4.72,3.86 4.72,3.507 5.007,3.22 5.36,3.22 Z M 0.72,8.36 C 0.72,8.007 1.007,7.72 1.36,7.72 1.713,7.72 2,8.007 2,8.36 2,8.713 1.713,9 1.36,9 1.007,9 0.72,8.713 0.72,8.36 Z M 1.36,13 C 1.007,13 0.72,12.713 0.72,12.36 0.72,12.007 1.007,11.72 1.36,11.72 1.713,11.72 2,12.007 2,12.36 2,12.713 1.713,13 1.36,13 Z M 6.2643979,14.556131 2.6803822,12.502105 C 2.6213822,11.941105 2.25,11.201 1.719,11.054 V 9.665 C 2.222,9.526 2.607,9.109 2.696,8.588 L 5.763,8.281 6.781,14.134 C 6.618089,14.23307 6.3993979,14.268131 6.2643979,14.556131 Z M 6.72,15.36 c 0,-0.353 0.287,-0.64 0.64,-0.64 C 7.713,14.72 8,15.007 8,15.36 8,15.713 7.713,16 7.36,16 7.007,16 6.72,15.713 6.72,15.36 Z M 11.36,20 c -0.353,0 -0.64,-0.287 -0.64,-0.64 0,-0.353 0.287,-0.64 0.64,-0.64 0.353,0 0.64,0.287 0.64,0.64 0,0.353 -0.287,0.64 -0.64,0.64 z m 1.353,-0.569 c 0.001,-0.024 0.007,-0.047 0.007,-0.071 0,-0.75 -0.61,-1.36 -1.36,-1.36 -0.091,0 -0.179,0.01 -0.264,0.027 L 8.266,16.368 C 8.364,16.28 8.448,16.179 8.517,16.066 l 5.396,1.541 0.742,2.596 c -0.168,0.103 -0.315,0.238 -0.425,0.402 z M 18,25.36 c 0,0.353 -0.287,0.64 -0.64,0.64 -0.353,0 -0.64,-0.287 -0.64,-0.64 0,-0.353 0.287,-0.64 0.64,-0.64 0.353,0 0.64,0.287 0.64,0.64 z M 15.36,22 c -0.353,0 -0.64,-0.287 -0.64,-0.64 0,-0.353 0.287,-0.64 0.64,-0.64 0.353,0 0.64,0.287 0.64,0.64 0,0.353 -0.287,0.64 -0.64,0.64 z m 0.121,-1.988 C 15.44,20.008 15.401,20 15.36,20 c -0.005,0 -0.009,0.001 -0.014,0.001 l -0.618,-2.162 1.416,0.404 z m 1.611,-2.246 1.147,-3.059 c 0.041,0.004 0.08,0.012 0.121,0.012 0.519,0 0.967,-0.296 1.196,-0.725 l 6.451,1.433 c 0.006,0.124 0.03,0.243 0.068,0.356 l -3.828,2.553 C 22.007,18.129 21.7,18 21.36,18 c -0.491,0 -0.918,0.264 -1.158,0.655 z M 22,25.36 c 0,0.353 -0.287,0.64 -0.64,0.64 -0.353,0 -0.64,-0.287 -0.64,-0.64 0,-0.353 0.287,-0.64 0.64,-0.64 0.353,0 0.64,0.287 0.64,0.64 z M 21.36,20 c -0.353,0 -0.64,-0.287 -0.64,-0.64 0,-0.353 0.287,-0.64 0.64,-0.64 0.353,0 0.64,0.287 0.64,0.64 0,0.353 -0.287,0.64 -0.64,0.64 z m 6,-4 c -0.353,0 -0.64,-0.287 -0.64,-0.64 0,-0.353 0.287,-0.64 0.64,-0.64 0.353,0 0.64,0.287 0.64,0.64 0,0.353 -0.287,0.64 -0.64,0.64 z"
   sodipodi:nodetypes="ccssccssccssccssccssccssccssccsccssccsccsssccscccsccsssccsccssccccccsssssssccccccccsccccsccccssssscccccccsccscccccccccccssssssssssssssssccscccccsssssscsccccssccccsccccccccsssssssssssssssccccccccsssssssssscsscccccccsssssssssscsccccccsccccsccsssssssssssssss" />
<rect
   id="_Transparent_Rectangle"
   style="fill:none"
   width="32"
   height="32"
   x="-1.64"
   y="-1.64" />
<rect
   style="fill:#00a6bd;fill-opacity:1;stroke-width:0"
   id="rect1"
   width="0.73446268"
   height="6.2918992"
   x="12.625079"
   y="-10.266053"
   transform="rotate(46.177436)" /><rect
   style="fill:#00a6bd;fill-opacity:1;stroke-width:0"
   id="rect1-5"
   width="0.78211248"
   height="8.0127268"
   x="22.067383"
   y="-6.1985388"
   transform="matrix(0.87907559,0.47668239,-0.48229875,0.8760068,0,0)" /><rect
   style="fill:#00a6bd;fill-opacity:1;stroke-width:0"
   id="rect1-5-7"
   width="0.75028676"
   height="7.5999637"
   x="13.349998"
   y="1.8724235"
   transform="matrix(0.88321379,0.46897058,-0.49009768,0.87166752,0,0)" /><rect
   style="fill:#00a6bd;fill-opacity:1;stroke-width:0"
   id="rect1-3"
   width="0.73099941"
   height="4.2776656"
   x="9.6180658"
   y="3.1526632"
   transform="matrix(0.99606238,-0.08865519,0.19287101,0.98122412,0,0)" /><rect
   style="fill:#00a6bd;fill-opacity:1;stroke-width:0"
   id="rect1-3-3"
   width="0.77424258"
   height="4.8415089"
   x="8.8067894"
   y="18.894283"
   transform="matrix(0.97511501,-0.22169959,0.52151202,0.85324394,0,0)" /><path
   id="rect1-3-3-0"
   style="stroke-width:0"
   d="m 11.879882,8.1497442 0.524662,-0.5677764 5.887017,4.9569132 -1.020114,0.396274 z"
   sodipodi:nodetypes="ccccc" /></svg>
