<?xml version="1.0" encoding="UTF-8" standalone="no"?>
<!-- Uploaded to: SVG Repo, www.svgrepo.com, Generator: SVG Repo Mixer Tools -->

<svg
   version="1.1"
   id="_x32_"
   width="605.02814"
   height="800"
   viewBox="0 0 387.21801 512"
   xml:space="preserve"
   sodipodi:docname="nuclear waste.svg"
   inkscape:version="1.4.2 (ebf0e940, 2025-05-08)"
   xmlns:inkscape="http://www.inkscape.org/namespaces/inkscape"
   xmlns:sodipodi="http://sodipodi.sourceforge.net/DTD/sodipodi-0.dtd"
   xmlns="http://www.w3.org/2000/svg"
   xmlns:svg="http://www.w3.org/2000/svg"><defs
   id="defs1" /><sodipodi:namedview
   id="namedview1"
   pagecolor="#ffffff"
   bordercolor="#000000"
   borderopacity="0.25"
   inkscape:showpageshadow="2"
   inkscape:pageopacity="0.0"
   inkscape:pagecheckerboard="0"
   inkscape:deskcolor="#d1d1d1"
   inkscape:zoom="0.64671169"
   inkscape:cx="138.39243"
   inkscape:cy="561.30113"
   inkscape:window-width="1712"
   inkscape:window-height="971"
   inkscape:window-x="0"
   inkscape:window-y="39"
   inkscape:window-maximized="1"
   inkscape:current-layer="_x32_" />
<style
   type="text/css"
   id="style1">
<![CDATA[
	.st0{fill:#00a6bd000000000000;}
]]>
</style>
<g
   id="g1"
   style="fill:#00a6bd;fill-opacity:1"
   transform="translate(-62.391)">
	<path
   class="st0"
   d="m 436.703,187.875 c 7.141,0 12.906,-5.781 12.906,-12.906 0,-7.125 -5.766,-12.906 -12.906,-12.906 h -5.719 V 25.813 h 5.719 c 7.141,0 12.906,-5.781 12.906,-12.906 C 449.609,5.782 443.844,0 436.703,0 H 75.297 c -7.125,0 -12.906,5.781 -12.906,12.906 0,7.125 5.781,12.906 12.906,12.906 h 5.719 v 116.75 h 45.906 c 5.391,0 9.75,4.359 9.75,9.75 0,5.375 -4.359,9.75 -9.75,9.75 H 81.016 75.297 c -7.125,0 -12.906,5.781 -12.906,12.906 0,7.125 5.781,12.906 12.906,12.906 h 5.719 v 116.75 h 45.906 c 5.391,0 9.75,4.359 9.75,9.75 0,5.375 -4.359,9.75 -9.75,9.75 H 81.016 75.297 c -7.125,0 -12.906,5.781 -12.906,12.906 0,7.125 5.781,12.906 12.906,12.906 h 5.719 v 136.25 h -5.719 c -7.125,0 -12.906,5.781 -12.906,12.906 0,7.125 5.781,12.908 12.906,12.908 h 361.406 c 7.141,0 12.906,-5.781 12.906,-12.906 0,-7.125 -5.766,-12.906 -12.906,-12.906 h -5.719 v -136.25 h 5.719 c 7.141,0 12.906,-5.781 12.906,-12.906 0,-7.125 -5.766,-12.906 -12.906,-12.906 h -5.719 v -136.25 h 5.719 z m -191.797,54.5 c 3.734,-6.469 12.031,-8.688 18.484,-4.953 2.063,1.188 3.766,2.891 4.953,4.922 2.406,4.188 2.406,9.375 0,13.547 -3.719,6.469 -12.016,8.688 -18.484,4.953 -2.063,-1.188 -3.766,-2.891 -4.938,-4.938 -2.421,-4.172 -2.421,-9.343 -0.015,-13.531 z M 155,246.266 c -1.078,-1.141 -1.625,-2.688 -1.5,-4.25 0,0 -0.094,-3.313 0.563,-7.922 1.797,-12.734 6.016,-25.063 12.469,-36.25 6.469,-11.188 15.047,-21 25.156,-28.938 3.656,-2.859 6.594,-4.438 6.594,-4.438 1.281,-0.875 2.875,-1.188 4.406,-0.844 1.531,0.359 2.844,1.328 3.625,2.688 l 31.313,54.234 c 1.438,2.469 0.797,5.578 -1.453,7.313 0,0 0.078,-0.438 -1.594,1.219 -1.656,1.641 -3.094,3.516 -4.297,5.578 -1.172,2.063 -2.078,4.25 -2.688,6.5 -0.594,2.266 -0.25,2 -0.25,2 -0.375,2.797 -2.766,4.906 -5.594,4.906 h -62.625 c -1.578,10e-4 -3.062,-0.656 -4.125,-1.796 z m 148.703,92.328 c -0.469,1.5 -1.531,2.719 -2.938,3.406 0,0 -2.813,1.734 -7.141,3.484 -11.922,4.797 -24.703,7.297 -37.625,7.328 -12.922,-0.031 -25.703,-2.531 -37.641,-7.328 -4.313,-1.75 -7.141,-3.469 -7.141,-3.469 -1.406,-0.688 -2.469,-1.922 -2.922,-3.422 -0.469,-1.5 -0.281,-3.141 0.5,-4.484 l 31.313,-54.234 c 1.422,-2.453 4.438,-3.484 7.063,-2.391 0,0 -0.422,0.172 1.844,0.766 2.25,0.609 4.594,0.938 6.984,0.938 2.375,0 4.734,-0.328 6.984,-0.938 2.25,-0.61 1.844,-0.766 1.844,-0.766 2.625,-1.078 5.625,-0.078 7.063,2.391 l 31.297,54.234 c 0.797,1.36 0.969,2.969 0.516,4.485 z M 358.5,242.016 c 0.109,1.578 -0.438,3.109 -1.5,4.25 -1.062,1.141 -2.563,1.797 -4.125,1.797 H 290.25 c -2.844,0 -5.234,-2.094 -5.594,-4.906 0,0 0.328,0.266 -0.25,-2 -0.609,-2.25 -1.5,-4.438 -2.703,-6.5 -1.188,-2.063 -2.641,-3.938 -4.297,-5.594 -1.656,-1.641 -1.578,-1.203 -1.578,-1.203 -2.266,-1.734 -2.891,-4.844 -1.453,-7.313 l 31.297,-54.234 c 0.797,-1.359 2.109,-2.328 3.609,-2.688 1.531,-0.344 3.141,-0.031 4.438,0.844 0,0 2.922,1.563 6.578,4.438 10.125,7.938 18.688,17.75 25.172,28.938 6.438,11.188 10.656,23.516 12.453,36.25 0.672,4.608 0.578,7.921 0.578,7.921 z"
   id="path1"
   style="fill:#00a6bd;fill-opacity:1" />
</g>
</svg>
