<?xml version="1.0" encoding="UTF-8" standalone="no"?>
<!-- Uploaded to: SVG Repo, www.svgrepo.com, Generator: SVG Repo Mixer Tools -->

<svg
   width="712.13379"
   height="600"
   viewBox="0 0 21.364014 18"
   version="1.1"
   id="svg1"
   sodipodi:docname="planet.svg"
   inkscape:version="1.4.2 (ebf0e940, 2025-05-08)"
   xmlns:inkscape="http://www.inkscape.org/namespaces/inkscape"
   xmlns:sodipodi="http://sodipodi.sourceforge.net/DTD/sodipodi-0.dtd"
   xmlns="http://www.w3.org/2000/svg"
   xmlns:svg="http://www.w3.org/2000/svg">
  <defs
     id="defs1" />
  <sodipodi:namedview
     id="namedview1"
     pagecolor="#ffffff"
     bordercolor="#000000"
     borderopacity="0.25"
     inkscape:showpageshadow="2"
     inkscape:pageopacity="0.0"
     inkscape:pagecheckerboard="0"
     inkscape:deskcolor="#d1d1d1"
     inkscape:zoom="0.88665602"
     inkscape:cx="47.932906"
     inkscape:cy="319.17676"
     inkscape:window-width="1712"
     inkscape:window-height="971"
     inkscape:window-x="0"
     inkscape:window-y="39"
     inkscape:window-maximized="1"
     inkscape:current-layer="svg1" />
  <title
     id="title1">planet_fill</title>
  <path
     id="形状"
     style="fill:#00a6bd;fill-opacity:1"
     d="m 10.670808,0 c -4.97055,0 -9.0000584,4.02944 -9.0000584,9 0,0.5545 0.050342,1.098418 0.1466016,1.625918 0.087417,0.493514 0.1956222,0.816683 0.270544,1.038569 0.3145441,0.931545 0.3523435,0.963383 0.4544364,1.20399 0.2218001,0.4652 0.4823405,0.908332 0.7774805,1.325332 l -0.3036914,0.0293 C 2.6507432,14.25042 2.1544598,14.247663 2.0142848,13.997988 L 2.0141676,13.869551 C 2.0319545,13.696885 2.1165849,13.512093 2.2195973,13.338926 2.3163894,13.205088 2.282339,13.226917 2.3927216,13.169061 2.2659005,12.974748 2.2074862,12.784372 2.1367175,12.662857 2.0417387,12.499771 1.9528961,12.246424 1.9022971,12.093977 L 1.5968629,10.86457 1.3696363,11.123027 c -0.038113,0.04459 -0.076315,0.08992 -0.114375,0.135938 l -0.226289,0.284004 c -0.7813967,1.020698 -1.41438467,2.307457 -0.750586,3.457207 0.7302254,1.264753 2.3016209,1.337131 3.6488086,1.130976 l 0.3456446,-0.05953 0.331289,-0.0685 0.1589649,-0.0365 c 1.97724,-0.4683 4.623337,-1.606124 7.9076366,-3.502324 3.2844,-1.8963 5.592811,-3.61897 6.987011,-5.09707 l 0.22336,-0.243516 0.225293,-0.2613282 c 0.898303,-1.0787034 1.71866,-2.5424127 0.95666,-3.862207 -0.573699,-0.9936462 -1.720306,-1.1997113 -2.843906,-1.1299219 -0.749126,0.046983 -1.28521,0.1140669 -1.431741,0.1792673 0.106727,0.1623362 0.57651,0.5529176 0.723622,0.758838 0,0 0.792744,0.9068947 0.914749,1.0864189 0,0 0.168042,-0.028372 0.275303,-0.044407 0.236575,0.00114 0.469477,0.035559 0.626133,0.1519922 l 0.0038,-0.00217 0.03223,0.081563 c 0.06265,0.2601866 -0.168725,0.6494147 -0.356836,0.9223828 L 18.845222,5.2292578 C 18.629022,4.7614178 18.373913,4.3152895 18.083913,3.8950195 17.667874,3.4022822 17.633862,3.3514172 17.139372,2.8303478 L 16.504109,2.1460547 C 14.933109,0.8077347 12.896308,0 10.670808,0 Z m 8.989101,9.446309 c -0.6802,0.6031 -1.474291,1.227099 -2.381191,1.869199 -1.1158,0.79 -2.402488,1.607471 -3.857988,2.447871 -1.4551,0.8401 -2.806091,1.545441 -4.0478906,2.116641 -1.0105698,0.4649 -1.9488312,0.840974 -2.8120312,1.128574 C 7.7928882,17.642194 9.1901084,18 10.670808,18 c 4.8209,0 8.756501,-3.790491 8.989101,-8.553691 z"
     sodipodi:nodetypes="sscscccccccsccccccccccccccscccscccccccccscscccsc" />
</svg>
