<?xml version="1.0" encoding="UTF-8" standalone="no"?>
<!-- Uploaded to: SVG Repo, www.svgrepo.com, Generator: SVG Repo Mixer Tools -->

<svg
   width="800px"
   height="800px"
   viewBox="0 0 24 24"
   version="1.1"
   id="svg1"
   sodipodi:docname="planet-svgrepo-com.svg"
   inkscape:version="1.4.2 (ebf0e940, 2025-05-08)"
   xmlns:inkscape="http://www.inkscape.org/namespaces/inkscape"
   xmlns:sodipodi="http://sodipodi.sourceforge.net/DTD/sodipodi-0.dtd"
   xmlns="http://www.w3.org/2000/svg"
   xmlns:svg="http://www.w3.org/2000/svg">
  <defs
     id="defs1" />
  <sodipodi:namedview
     id="namedview1"
     pagecolor="#ffffff"
     bordercolor="#000000"
     borderopacity="0.25"
     inkscape:showpageshadow="2"
     inkscape:pageopacity="0.0"
     inkscape:pagecheckerboard="0"
     inkscape:deskcolor="#d1d1d1"
     inkscape:zoom="2.3011411"
     inkscape:cx="51.061624"
     inkscape:cy="485.41135"
     inkscape:window-width="1712"
     inkscape:window-height="971"
     inkscape:window-x="0"
     inkscape:window-y="39"
     inkscape:window-maximized="1"
     inkscape:current-layer="svg1" />
  <title
     id="title1">planet_fill</title>
  <path
     id="形状"
     style="fill:#00a6bd;fill-opacity:1"
     d="m 11.999883,3 c -4.9705504,0 -9.0000588,4.02944 -9.0000588,9 0,0.5545 0.050342,1.098418 0.1466016,1.625918 0.087417,0.493514 0.1956222,0.816683 0.270544,1.038569 0.3145441,0.931545 0.3523435,0.963383 0.4544364,1.20399 0.2218001,0.4652 0.4823405,0.908332 0.7774805,1.325332 l -0.3036914,0.0293 C 3.9798178,17.25042 3.4835344,17.247663 3.3433594,16.997988 L 3.3432422,16.869551 C 3.3610291,16.696885 3.4456595,16.512093 3.5486719,16.338926 3.645464,16.205088 3.6114136,16.226917 3.7217962,16.169061 3.5949751,15.974748 3.5365608,15.784372 3.4657921,15.662857 3.3708133,15.499771 3.2819707,15.246424 3.2313717,15.093977 L 2.9259375,13.86457 2.6987109,14.123027 c -0.038113,0.04459 -0.076315,0.08992 -0.114375,0.135938 l -0.226289,0.284004 c -0.7813967,1.020698 -1.41438467,2.307457 -0.750586,3.457207 0.7302254,1.264753 2.3016209,1.337131 3.6488086,1.130976 l 0.3456446,-0.05953 0.331289,-0.0685 0.1589649,-0.0365 c 1.97724,-0.4683 4.623337,-1.606124 7.907637,-3.502324 3.2844,-1.8963 5.592811,-3.61897 6.987011,-5.09707 l 0.22336,-0.243516 0.225293,-0.2613282 c 0.898303,-1.0787034 1.71866,-2.5424127 0.95666,-3.862207 -0.573699,-0.9936462 -1.720306,-1.1997113 -2.843906,-1.1299219 -0.749126,0.046983 -1.28521,0.1140669 -1.431741,0.1792673 0.106727,0.1623362 0.57651,0.5529176 0.723622,0.758838 0,0 0.792744,0.9068947 0.914749,1.0864189 0,0 0.168042,-0.028372 0.275303,-0.044407 0.236575,0.00114 0.469477,0.035559 0.626133,0.1519922 l 0.0038,-0.00217 0.03223,0.081563 c 0.06265,0.2601866 -0.168725,0.6494147 -0.356836,0.9223828 L 20.174297,8.2292578 C 19.958097,7.7614178 19.702988,7.3152895 19.412988,6.8950195 18.996949,6.4022822 18.962937,6.3514172 18.468447,5.8303478 L 17.833184,5.1460547 C 16.262184,3.8077347 14.225383,3 11.999883,3 Z m 8.989101,9.446309 c -0.6802,0.6031 -1.474291,1.227099 -2.381191,1.869199 -1.1158,0.79 -2.402488,1.607471 -3.857988,2.447871 -1.4551,0.8401 -2.806091,1.545441 -4.047891,2.116641 -1.0105698,0.4649 -1.9488312,0.840974 -2.8120312,1.128574 C 9.1219628,20.642194 10.519183,21 11.999883,21 c 4.8209,0 8.756501,-3.790491 8.989101,-8.553691 z"
     sodipodi:nodetypes="sscscccccccsccccccccccccccscccscccccccccscscccsc" />
</svg>
