<?xml version="1.0" encoding="UTF-8" standalone="no"?>
<svg
   viewBox="104.0964 117.861 435.3105 249.215"
   width="435.31px"
   height="249.215px"
   preserveAspectRatio="none"
   version="1.1"
   id="svg2"
   sodipodi:docname="raygun.svg"
   inkscape:version="1.4.2 (ebf0e940, 2025-05-08)"
   xmlns:inkscape="http://www.inkscape.org/namespaces/inkscape"
   xmlns:sodipodi="http://sodipodi.sourceforge.net/DTD/sodipodi-0.dtd"
   xmlns="http://www.w3.org/2000/svg"
   xmlns:svg="http://www.w3.org/2000/svg">
  <defs
     id="defs2" />
  <sodipodi:namedview
     id="namedview2"
     pagecolor="#ffffff"
     bordercolor="#000000"
     borderopacity="0.25"
     inkscape:showpageshadow="2"
     inkscape:pageopacity="0.0"
     inkscape:pagecheckerboard="0"
     inkscape:deskcolor="#d1d1d1"
     inkscape:zoom="1.7502503"
     inkscape:cx="168.26165"
     inkscape:cy="113.69802"
     inkscape:window-width="1712"
     inkscape:window-height="971"
     inkscape:window-x="0"
     inkscape:window-y="39"
     inkscape:window-maximized="1"
     inkscape:current-layer="svg2" />
  <path
     d="m 246.798,187.708 c -13.076,0 -45.99755,9.49631 -45.99755,22.57231 0,13.076 32.92155,24.85769 45.99755,24.85769 13.076,0 4.28918,-11.21035 4.28918,-24.28635 0,-13.076 8.78682,-23.14365 -4.28918,-23.14365 z"
     style="stroke-width:1;fill:#00a6bd;fill-opacity:1"
     id="path1"
     sodipodi:nodetypes="sssss" />
  <path
     d="m 508.189,207.423 v -13.782 c 0,-2.209 -1.791,-4 -4,-4 h -14.278 v -1.313 c 0,-2.209 -1.791,-4 -4,-4 -2.209,0 -4,1.791 -4,4 v 1.313 h -11.997 v -1.313 c 0,-2.209 -1.791,-4 -4,-4 -2.209,0 -4,1.791 -4,4 v 1.313 h -14.588 c -2.209,0 -4,1.791 -4,4 v 1.672 h -53.291 c -5.404,-9.598 -15.672,-18.29 -30.192,-25.327 -21.385,-10.366 -49.729,-16.074 -79.811,-16.074 -2.2,0 -4.388,0.04 -6.567,0.101 v -6.746 h 34.596 c 1.524,0 2.916,-0.866 3.589,-2.233 0.673,-1.367 0.511,-2.998 -0.419,-4.206 L 294.76,119.422 c -0.757,-0.984 -1.928,-1.561 -3.17,-1.561 h -16.211 c -30.393,0 -60.646,7.564 -87.489,21.875 -1.62,0.863 -2.444,2.719 -1.999,4.499 0.445,1.781 2.045,3.03 3.881,3.03 h 34.574 v 13.793 c -8.708,2.411 -16.829,5.39 -24.125,8.927 -13.806,6.691 -23.767,14.879 -29.359,23.919 h -20.948 c -2.209,0 -4,1.791 -4,4 v 27.037 c 0,2.209 1.791,4 4,4 h 20.947 c 1.995,3.226 4.548,6.342 7.633,9.321 l -9.321,20.665 c -0.923,-0.101 -1.854,-0.152 -2.793,-0.152 -6.283,0 -12.279,2.336 -16.895,6.371 L 148.8,264.83 c -2.004,-0.927 -4.382,-0.05 -5.308,1.956 -0.729,1.582 -0.327,3.381 0.853,4.531 -0.028,0.046 -0.059,0.09 -0.087,0.137 l -5.132,8.765 -1.301,-0.6 c -2.005,-0.927 -4.382,-0.05 -5.308,1.957 -0.925,2.006 -0.049,4.382 1.957,5.307 l 0.591,0.272 -5.09,8.693 -1.678,-0.774 c -2.005,-0.927 -4.382,-0.048 -5.308,1.956 -0.925,2.007 -0.049,4.383 1.957,5.308 l 0.968,0.446 -5.09,8.693 -2.068,-0.954 c -2.005,-0.926 -4.382,-0.049 -5.308,1.956 -0.925,2.007 -0.049,4.383 1.957,5.308 l 1.358,0.626 -3.171,5.417 c -0.641,1.095 -1.191,2.232 -1.658,3.397 l -2.161,-0.997 c -2.005,-0.927 -4.382,-0.048 -5.308,1.956 -0.925,2.007 -0.049,4.383 1.957,5.308 l 3.712,1.712 c -0.191,3.097 0.178,6.234 1.126,9.25 2.163,6.882 7.161,12.562 13.711,15.582 l 10.136,4.675 c 3.399,1.568 7.005,2.363 10.716,2.363 6.77,0 13.109,-2.69 17.794,-7.202 l 3.724,1.718 c 0.542,0.251 1.112,0.369 1.673,0.369 1.512,0 2.959,-0.862 3.635,-2.325 0.925,-2.007 0.049,-4.383 -1.957,-5.308 l -2.172,-1.002 c 0.539,-1.027 1.024,-2.09 1.424,-3.202 l 2.216,-6.16 1.462,0.674 c 0.542,0.251 1.112,0.369 1.673,0.369 1.512,0 2.959,-0.862 3.635,-2.325 0.925,-2.007 0.049,-4.383 -1.957,-5.308 l -2.094,-0.966 3.407,-9.469 1.123,0.518 c 0.542,0.251 1.112,0.369 1.673,0.369 1.512,0 2.959,-0.862 3.635,-2.325 0.925,-2.007 0.049,-4.383 -1.957,-5.308 l -1.755,-0.809 3.408,-9.47 0.77,0.355 c 0.542,0.251 1.112,0.369 1.673,0.369 1.512,0 2.96,-0.862 3.635,-2.326 0.925,-2.006 0.049,-4.382 -1.957,-5.307 l -1.402,-0.646 c 0,0 3.422,-9.533 3.465,-9.655 0.179,0.024 0.358,0.058 0.536,0.058 1.512,0 2.96,-0.862 3.635,-2.325 0.925,-2.007 0.049,-4.383 -1.957,-5.308 l -0.798,-0.368 c 0.079,-4.316 -0.943,-8.529 -2.907,-12.271 l 9.267,-20.547 c 0.608,0.308 1.221,0.615 1.845,0.917 1.478,0.716 2.997,1.405 4.539,2.077 l -1.755,3.733 c -3.047,6.485 -3.386,13.769 -0.953,20.507 2.432,6.736 7.341,12.122 13.821,15.163 3.673,1.729 7.543,2.546 11.358,2.546 10.073,0 19.747,-5.704 24.315,-15.415 l 6.381,-13.587 c 7.206,0.694 14.601,1.05 22.105,1.05 3.381,0 6.852,-0.077 10.315,-0.23 2.139,-0.095 3.824,-1.855 3.824,-3.996 v -6.218 c 4.781,-0.258 9.445,-0.679 13.968,-1.255 v 5.04 c 0,2.209 1.791,4 4,4 2.209,0 4,-1.791 4,-4 v -6.247 c 4.651,-0.808 9.134,-1.774 13.404,-2.902 v 4.085 c 0,2.209 1.791,4 4,4 2.209,0 4,-1.791 4,-4 v -6.456 c 4.803,-1.584 9.29,-3.373 13.405,-5.346 v 2.208 c 0,2.209 1.791,4 4,4 2.209,0 4,-1.791 4,-4 v -6.571 c 6.5,-4.016 11.681,-8.568 15.246,-13.513 h 69.132 v 1.673 c 0,2.209 1.791,4 4,4 h 14.588 v 1.312 c 0,2.209 1.791,4 4,4 2.209,0 4,-1.791 4,-4 v -1.312 h 11.997 v 1.312 c 0,2.209 1.791,4 4,4 2.209,0 4,-1.791 4,-4 v -1.312 h 14.278 c 2.209,0 4,-1.791 4,-4 V 215.423 Z M 207.661,139.266 c 21.431,-8.804 44.532,-13.404 67.718,-13.404 h 14.242 l 10.315,13.404 z m -61.834,219.81 c -2.546,0 -5.024,-0.548 -7.366,-1.627 l -10.136,-4.675 c -4.571,-2.108 -7.92,-5.915 -9.43,-10.717 -0.324,-1.032 -0.533,-2.075 -0.666,-3.12 l 37.3,17.204 c -2.823,1.865 -6.175,2.935 -9.702,2.935 z m 16.593,-11.661 c -0.321,0.893 -0.713,1.747 -1.163,2.56 l -42.034,-19.387 c 0.352,-0.927 0.763,-1.838 1.277,-2.716 l 3.566,-6.091 40.806,18.821 z m 5.17,-14.369 -39.464,-18.202 5.09,-8.693 37.782,17.426 z m 6.126,-17.024 -36.439,-16.807 5.09,-8.693 34.757,16.031 z m -27.289,-32.436 c 0,0 4.985,-8.487 5.111,-8.684 l 31.673,14.608 c -0.087,0.285 -3.369,9.487 -3.369,9.487 z m 11.412,-14.587 c 2.578,-1.429 5.511,-2.224 8.542,-2.224 2.554,0 5.033,0.546 7.368,1.622 5.321,2.455 8.847,7.173 9.912,12.511 z m 86.466,9.07 c -4.419,9.395 -15.646,13.445 -25.03,9.032 -4.548,-2.135 -7.993,-5.913 -9.699,-10.64 -1.707,-4.728 -1.469,-9.837 0.669,-14.388 l 1.957,-4.164 c 1.201,0.441 2.424,0.864 3.656,1.279 -1.126,8.265 1.096,16.567 6.33,23.25 0.789,1.008 1.964,1.534 3.152,1.534 0.862,0 1.731,-0.277 2.463,-0.851 1.739,-1.362 2.045,-3.876 0.683,-5.615 -3.601,-4.598 -5.28,-10.229 -4.841,-15.914 8.156,2.295 16.847,4.073 25.907,5.304 z m 41.865,-66.4 v 49.18 c -2.065,0.058 -4.119,0.086 -6.139,0.086 -28.897,0 -56.002,-5.424 -76.322,-15.272 -19.397,-9.402 -30.081,-21.562 -30.081,-34.239 0,-12.677 10.683,-24.837 30.081,-34.239 20.174,-9.778 47.038,-15.188 75.702,-15.265 v 8.122 c 0,2.209 1.791,4 4,4 2.209,0 4,-1.791 4,-4 v -7.996 c 2.991,0.097 5.962,0.24 8.898,0.453 v 7.543 c 0,2.209 1.791,4 4,4 2.209,0 4,-1.791 4,-4 v -6.801 c 3.007,0.332 5.975,0.723 8.898,1.177 v 5.625 c 0,2.209 1.791,4 4,4 2.209,0 4,-1.791 4,-4 v -4.224 c 13.006,2.588 24.934,6.417 35.146,11.367 17.482,8.474 27.886,19.188 29.77,30.485 H 290.17 c -2.209,-0.002 -4,1.789 -4,3.998 z m 8,38.815 V 215.67 h 13.968 v 33.458 c -4.53,0.617 -9.192,1.081 -13.968,1.356 z m 21.969,-2.642 V 215.67 h 13.404 v 29.064 c -4.252,1.2 -8.736,2.24 -13.404,3.108 z m 21.404,-5.648 V 215.67 h 13.405 v 20.699 c -4.011,2.136 -8.508,4.089 -13.405,5.825 z m 21.405,-10.8 v -15.725 h 12.27 c -1.458,5.629 -5.774,10.975 -12.27,15.725 z m 35.21206,-25.59465 C 393.74471,205.39785 393.797,204.997 393.341,203.312 h 49.984 l 0.12494,2.97781 c 0,0 -47.04057,-0.32626 -49.28988,-0.49046 z M 451.326,225.206 v -27.565 h 10.588 v 27.565 z m 18.588,0 v -27.565 h 11.997 v 27.565 z m 30.274,0 H 489.91 v -27.565 h 10.278 z"
     style="stroke-width:1;fill:#00a6bd;fill-opacity:1"
     id="path2"
     sodipodi:nodetypes="csscsssccssscsscccsccssccssccsccccsssscccsccccccccccccccccccccsccccccccsccsccccccscccccscccccsccccscsccccccccsccscsccsssccsssccssscccsscsssccssscsscccscccscccccscccccccccccccccccccccccsccccccccccscccccscscsccsssccsssccssscsccsccccccccccccccccccccccccccccccccccccccc" />
</svg>
