<?xml version="1.0" encoding="utf-8"?>
<svg xmlns="http://www.w3.org/2000/svg" viewBox="104.0964 117.861 435.3105 249.215" width="435.31px" height="249.215px" preserveAspectRatio="none"><g id="object-0"><path d="M 246.798 187.708 C 233.722 187.708 223.083 198.347 223.083 211.423 C 223.083 224.499 233.722 235.138 246.798 235.138 C 259.874 235.138 270.513 224.499 270.513 211.423 C 270.513 198.347 259.874 187.708 246.798 187.708 Z M 262.513 211.423 C 262.513 214.306 261.719 217.001 260.359 219.326 L 238.895 197.862 C 241.22 196.502 243.916 195.708 246.799 195.708 C 255.463 195.708 262.513 202.758 262.513 211.423 Z M 231.083 211.423 C 231.083 208.54 231.877 205.845 233.237 203.519 L 254.701 224.983 C 252.376 226.344 249.68 227.138 246.797 227.138 C 238.133 227.138 231.083 220.088 231.083 211.423 Z" style="stroke-width: 1;"/><path d="M 525.835 197.848 C 519.741 197.848 514.574 201.884 512.863 207.423 L 508.189 207.423 L 508.189 193.641 C 508.189 191.432 506.398 189.641 504.189 189.641 L 489.911 189.641 L 489.911 188.328 C 489.911 186.119 488.12 184.328 485.911 184.328 C 483.702 184.328 481.911 186.119 481.911 188.328 L 481.911 189.641 L 469.914 189.641 L 469.914 188.328 C 469.914 186.119 468.123 184.328 465.914 184.328 C 463.705 184.328 461.914 186.119 461.914 188.328 L 461.914 189.641 L 447.326 189.641 C 445.117 189.641 443.326 191.432 443.326 193.641 L 443.326 195.313 L 390.035 195.313 C 384.631 185.715 374.363 177.023 359.843 169.986 C 338.458 159.62 310.114 153.912 280.032 153.912 C 277.832 153.912 275.644 153.952 273.465 154.013 L 273.465 147.267 L 308.061 147.267 C 309.585 147.267 310.977 146.401 311.65 145.034 C 312.323 143.667 312.161 142.036 311.231 140.828 L 294.76 119.422 C 294.003 118.438 292.832 117.861 291.59 117.861 L 275.379 117.861 C 244.986 117.861 214.733 125.425 187.89 139.736 C 186.27 140.599 185.446 142.455 185.891 144.235 C 186.336 146.016 187.936 147.265 189.772 147.265 L 224.346 147.265 L 224.346 161.058 C 215.638 163.469 207.517 166.448 200.221 169.985 C 186.415 176.676 176.454 184.864 170.862 193.904 L 149.914 193.904 C 147.705 193.904 145.914 195.695 145.914 197.904 L 145.914 224.941 C 145.914 227.15 147.705 228.941 149.914 228.941 L 170.861 228.941 C 172.856 232.167 175.409 235.283 178.494 238.262 L 169.173 258.927 C 168.25 258.826 167.319 258.775 166.38 258.775 C 160.097 258.775 154.101 261.111 149.485 265.146 L 148.8 264.83 C 146.796 263.903 144.418 264.78 143.492 266.786 C 142.763 268.368 143.165 270.167 144.345 271.317 C 144.317 271.363 144.286 271.407 144.258 271.454 L 139.126 280.219 L 137.825 279.619 C 135.82 278.692 133.443 279.569 132.517 281.576 C 131.592 283.582 132.468 285.958 134.474 286.883 L 135.065 287.155 L 129.975 295.848 L 128.297 295.074 C 126.292 294.147 123.915 295.026 122.989 297.03 C 122.064 299.037 122.94 301.413 124.946 302.338 L 125.914 302.784 L 120.824 311.477 L 118.756 310.523 C 116.751 309.597 114.374 310.474 113.448 312.479 C 112.523 314.486 113.399 316.862 115.405 317.787 L 116.763 318.413 L 113.592 323.83 C 112.951 324.925 112.401 326.062 111.934 327.227 L 109.773 326.23 C 107.768 325.303 105.391 326.182 104.465 328.186 C 103.54 330.193 104.416 332.569 106.422 333.494 L 110.134 335.206 C 109.943 338.303 110.312 341.44 111.26 344.456 C 113.423 351.338 118.421 357.018 124.971 360.038 L 135.107 364.713 C 138.506 366.281 142.112 367.076 145.823 367.076 C 152.593 367.076 158.932 364.386 163.617 359.874 L 167.341 361.592 C 167.883 361.843 168.453 361.961 169.014 361.961 C 170.526 361.961 171.973 361.099 172.649 359.636 C 173.574 357.629 172.698 355.253 170.692 354.328 L 168.52 353.326 C 169.059 352.299 169.544 351.236 169.944 350.124 L 172.16 343.964 L 173.622 344.638 C 174.164 344.889 174.734 345.007 175.295 345.007 C 176.807 345.007 178.254 344.145 178.93 342.682 C 179.855 340.675 178.979 338.299 176.973 337.374 L 174.879 336.408 L 178.286 326.939 L 179.409 327.457 C 179.951 327.708 180.521 327.826 181.082 327.826 C 182.594 327.826 184.041 326.964 184.717 325.501 C 185.642 323.494 184.766 321.118 182.76 320.193 L 181.005 319.384 L 184.413 309.914 L 185.183 310.269 C 185.725 310.52 186.295 310.638 186.856 310.638 C 188.368 310.638 189.816 309.776 190.491 308.312 C 191.416 306.306 190.54 303.93 188.534 303.005 L 187.132 302.359 C 187.132 302.359 190.554 292.826 190.597 292.704 C 190.776 292.728 190.955 292.762 191.133 292.762 C 192.645 292.762 194.093 291.9 194.768 290.437 C 195.693 288.43 194.817 286.054 192.811 285.129 L 192.013 284.761 C 192.092 280.445 191.07 276.232 189.106 272.49 L 198.373 251.943 C 198.981 252.251 199.594 252.558 200.218 252.86 C 201.696 253.576 203.215 254.265 204.757 254.937 L 203.002 258.67 C 199.955 265.155 199.616 272.439 202.049 279.177 C 204.481 285.913 209.39 291.299 215.87 294.34 C 219.543 296.069 223.413 296.886 227.228 296.886 C 237.301 296.886 246.975 291.182 251.543 281.471 L 257.924 267.884 C 265.13 268.578 272.525 268.934 280.029 268.934 C 283.41 268.934 286.881 268.857 290.344 268.704 C 292.483 268.609 294.168 266.849 294.168 264.708 L 294.168 258.49 C 298.949 258.232 303.613 257.811 308.136 257.235 L 308.136 262.275 C 308.136 264.484 309.927 266.275 312.136 266.275 C 314.345 266.275 316.136 264.484 316.136 262.275 L 316.136 256.028 C 320.787 255.22 325.27 254.254 329.54 253.126 L 329.54 257.211 C 329.54 259.42 331.331 261.211 333.54 261.211 C 335.749 261.211 337.54 259.42 337.54 257.211 L 337.54 250.755 C 342.343 249.171 346.83 247.382 350.945 245.409 L 350.945 247.617 C 350.945 249.826 352.736 251.617 354.945 251.617 C 357.154 251.617 358.945 249.826 358.945 247.617 L 358.945 241.046 C 365.445 237.03 370.626 232.478 374.191 227.533 L 443.323 227.533 L 443.323 229.206 C 443.323 231.415 445.114 233.206 447.323 233.206 L 461.911 233.206 L 461.911 234.518 C 461.911 236.727 463.702 238.518 465.911 238.518 C 468.12 238.518 469.911 236.727 469.911 234.518 L 469.911 233.206 L 481.908 233.206 L 481.908 234.518 C 481.908 236.727 483.699 238.518 485.908 238.518 C 488.117 238.518 489.908 236.727 489.908 234.518 L 489.908 233.206 L 504.186 233.206 C 506.395 233.206 508.186 231.415 508.186 229.206 L 508.186 215.423 L 512.86 215.423 C 514.571 220.962 519.739 224.998 525.832 224.998 C 533.317 224.998 539.407 218.908 539.407 211.423 C 539.407 203.938 533.32 197.848 525.835 197.848 Z M 207.661 139.266 C 229.092 130.462 252.193 125.862 275.379 125.862 L 289.621 125.862 L 299.936 139.266 L 207.661 139.266 Z M 232.345 147.266 L 265.464 147.266 L 265.464 154.379 C 253.919 155.101 242.772 156.668 232.345 159.036 L 232.345 147.266 Z M 153.914 220.942 L 153.914 201.905 L 167.138 201.905 C 166.144 205.014 165.629 208.194 165.629 211.424 C 165.629 214.654 166.144 217.834 167.138 220.943 L 153.914 220.943 L 153.914 220.942 Z M 145.827 359.076 C 143.281 359.076 140.803 358.528 138.461 357.449 L 128.325 352.774 C 123.754 350.666 120.405 346.859 118.895 342.057 C 118.571 341.025 118.362 339.982 118.229 338.937 L 155.529 356.141 C 152.706 358.006 149.354 359.076 145.827 359.076 Z M 162.42 347.415 C 162.099 348.308 161.707 349.162 161.257 349.975 L 119.223 330.588 C 119.575 329.661 119.986 328.75 120.5 327.872 L 124.066 321.781 L 164.872 340.602 L 162.42 347.415 Z M 167.59 333.046 L 128.126 314.844 L 133.216 306.151 L 170.998 323.577 L 167.59 333.046 Z M 173.716 316.022 L 137.277 299.215 L 142.367 290.522 L 177.124 306.553 L 173.716 316.022 Z M 146.427 283.586 C 146.427 283.586 151.412 275.099 151.538 274.902 L 183.211 289.51 C 183.124 289.795 179.842 298.997 179.842 298.997 L 146.427 283.586 Z M 157.839 268.999 C 160.417 267.57 163.35 266.775 166.381 266.775 C 168.935 266.775 171.414 267.321 173.749 268.397 C 179.07 270.852 182.596 275.57 183.661 280.908 L 157.839 268.999 Z M 183.546 265.364 C 182.501 264.429 181.369 263.569 180.155 262.798 C 179.188 262.184 177.918 261.513 176.979 261.082 L 184.846 243.641 C 186.867 245.154 189.04 246.621 191.361 248.038 L 183.546 265.364 Z M 244.305 278.069 C 239.886 287.464 228.659 291.514 219.275 287.101 C 214.727 284.966 211.282 281.188 209.576 276.461 C 207.869 271.733 208.107 266.624 210.245 262.073 L 212.202 257.909 C 213.403 258.35 214.626 258.773 215.858 259.188 C 214.732 267.453 216.954 275.755 222.188 282.438 C 222.977 283.446 224.152 283.972 225.34 283.972 C 226.202 283.972 227.071 283.695 227.803 283.121 C 229.542 281.759 229.848 279.245 228.486 277.506 C 224.885 272.908 223.206 267.277 223.645 261.592 C 231.801 263.887 240.492 265.665 249.552 266.896 L 244.305 278.069 Z M 286.17 211.669 L 286.17 260.849 C 284.105 260.907 282.051 260.935 280.031 260.935 C 251.134 260.935 224.029 255.511 203.709 245.663 C 184.312 236.261 173.628 224.101 173.628 211.424 C 173.628 198.747 184.311 186.587 203.709 177.185 C 223.883 167.407 250.747 161.997 279.411 161.92 L 279.411 170.042 C 279.411 172.251 281.202 174.042 283.411 174.042 C 285.62 174.042 287.411 172.251 287.411 170.042 L 287.411 162.046 C 290.402 162.143 293.373 162.286 296.309 162.499 L 296.309 170.042 C 296.309 172.251 298.1 174.042 300.309 174.042 C 302.518 174.042 304.309 172.251 304.309 170.042 L 304.309 163.241 C 307.316 163.573 310.284 163.964 313.207 164.418 L 313.207 170.043 C 313.207 172.252 314.998 174.043 317.207 174.043 C 319.416 174.043 321.207 172.252 321.207 170.043 L 321.207 165.819 C 334.213 168.407 346.141 172.236 356.353 177.186 C 373.835 185.66 384.239 196.374 386.123 207.671 L 290.17 207.671 C 287.961 207.669 286.17 209.46 286.17 211.669 Z M 294.17 250.484 L 294.17 215.67 L 308.138 215.67 L 308.138 249.128 C 303.608 249.745 298.946 250.209 294.17 250.484 Z M 316.139 247.842 L 316.139 215.67 L 329.543 215.67 L 329.543 244.734 C 325.291 245.934 320.807 246.974 316.139 247.842 Z M 337.543 242.194 L 337.543 215.67 L 350.948 215.67 L 350.948 236.369 C 346.937 238.505 342.44 240.458 337.543 242.194 Z M 358.948 231.394 L 358.948 215.669 L 371.218 215.669 C 369.76 221.298 365.444 226.644 358.948 231.394 Z M 378.388 219.533 C 378.822 218.262 379.159 216.973 379.387 215.669 L 390.428 215.669 C 392.628 215.669 394.416 213.9 394.428 211.7 C 394.431 211.607 394.384 209.418 394.285 208.423 C 394.114 206.702 393.797 204.997 393.341 203.312 L 443.325 203.312 L 443.325 219.533 L 378.388 219.533 L 378.388 219.533 Z M 451.326 225.206 L 451.326 197.641 L 461.914 197.641 L 461.914 225.206 L 451.326 225.206 Z M 469.914 225.206 L 469.914 197.641 L 481.911 197.641 L 481.911 225.206 L 469.914 225.206 Z M 500.188 225.206 L 489.91 225.206 L 489.91 197.641 L 500.188 197.641 L 500.188 225.206 Z M 525.835 216.998 C 522.761 216.998 520.26 214.497 520.26 211.423 C 520.26 208.349 522.761 205.848 525.835 205.848 C 528.909 205.848 531.41 208.349 531.41 211.423 C 531.41 214.497 528.909 216.998 525.835 216.998 Z" style="stroke-width: 1;"/></g></svg>