<?xml version="1.0" encoding="UTF-8" standalone="no"?>
<!-- Uploaded to: SVG Repo, www.svgrepo.com, Generator: SVG Repo Mixer Tools -->

<svg
   width="733.33331"
   height="600"
   viewBox="0 0 21.999999 18"
   fill="none"
   version="1.1"
   id="svg1"
   sodipodi:docname="robot.svg"
   inkscape:version="1.4.2 (ebf0e940, 2025-05-08)"
   xmlns:inkscape="http://www.inkscape.org/namespaces/inkscape"
   xmlns:sodipodi="http://sodipodi.sourceforge.net/DTD/sodipodi-0.dtd"
   xmlns="http://www.w3.org/2000/svg"
   xmlns:svg="http://www.w3.org/2000/svg">
  <defs
     id="defs1" />
  <sodipodi:namedview
     id="namedview1"
     pagecolor="#ffffff"
     bordercolor="#000000"
     borderopacity="0.25"
     inkscape:showpageshadow="2"
     inkscape:pageopacity="0.0"
     inkscape:pagecheckerboard="0"
     inkscape:deskcolor="#d1d1d1"
     inkscape:zoom="0.0325"
     inkscape:cx="353.84615"
     inkscape:cy="307.69231"
     inkscape:window-width="896"
     inkscape:window-height="245"
     inkscape:window-x="0"
     inkscape:window-y="39"
     inkscape:window-maximized="0"
     inkscape:current-layer="svg1" />
  <path
     fill="#00a6bd"
     fill-rule="evenodd"
     d="M 11,0 A 2,2 0 0 0 10,3.732 V 5 H 7 C 3.8,5 3,7.667 3,9 v 7 c 0,0.667 0.4,2 2,2 h 1 v -4 a 1,1 0 0 1 1,-1 h 8 a 1,1 0 0 1 1,1 v 4 h 1 c 1.6,0 2,-1.333 2,-2 V 9 C 19,5.8 16.333,5 15,5 H 12 V 3.732 A 2,2 0 0 0 11,0 Z m 3,18 v -3 h -2 v 3 z m -4,0 V 15 H 8 v 3 z m 10,-3 v -5 c 0.667,0 2,0.4 2,2 v 1 c 0,0.667 -0.4,2 -2,2 z M 2,10 v 5 C 0.4,15 0,13.667 0,13 V 12 C 0,10.4 1.333,10 2,10 Z M 8,9 a 1,1 0 1 0 0,2 h 10e-4 a 1,1 0 1 0 0,-2 z m 5,1 a 1,1 0 0 1 1,-1 h 10e-4 a 1,1 0 1 1 0,2 H 14 a 1,1 0 0 1 -1,-1 z"
     clip-rule="evenodd"
     id="path1" />
</svg>
