<?xml version="1.0" encoding="UTF-8" standalone="no"?>
<!-- Uploaded to: SVG Repo, www.svgrepo.com, Generator: SVG Repo Mixer Tools -->

<svg
   height="800px"
   width="800px"
   version="1.1"
   id="_x32_"
   viewBox="0 0 512 512"
   xml:space="preserve"
   sodipodi:docname="satellite.svg"
   inkscape:version="1.4.2 (ebf0e940, 2025-05-08)"
   xmlns:inkscape="http://www.inkscape.org/namespaces/inkscape"
   xmlns:sodipodi="http://sodipodi.sourceforge.net/DTD/sodipodi-0.dtd"
   xmlns="http://www.w3.org/2000/svg"
   xmlns:svg="http://www.w3.org/2000/svg"><defs
   id="defs7"><inkscape:path-effect
   effect="fillet_chamfer"
   id="path-effect8"
   is_visible="true"
   lpeversion="1"
   nodesatellites_param="F,0,1,1,0,10.201301,0,1 @ F,0,1,1,0,10.201301,0,1 @ F,0,0,1,0,10.201301,0,1"
   radius="0"
   unit="px"
   method="auto"
   mode="F"
   chamfer_steps="1"
   flexible="false"
   use_knot_distance="true"
   apply_no_radius="true"
   apply_with_radius="true"
   only_selected="false"
   hide_knots="false" /><inkscape:path-effect
   effect="fillet_chamfer"
   id="path-effect7"
   is_visible="true"
   lpeversion="1"
   nodesatellites_param="F,0,0,1,0,0,0,1 @ F,0,0,1,0,0,0,1 @ F,0,0,1,0,10.524457,0,1 @ F,0,0,1,0,13.235034,0,1"
   radius="0"
   unit="px"
   method="auto"
   mode="F"
   chamfer_steps="1"
   flexible="false"
   use_knot_distance="true"
   apply_no_radius="true"
   apply_with_radius="true"
   only_selected="false"
   hide_knots="false" /><inkscape:path-effect
   effect="fillet_chamfer"
   id="path-effect6"
   is_visible="true"
   lpeversion="1"
   nodesatellites_param="F,0,1,1,0,6.6572743,0,1 @ F,0,1,1,0,6.6572743,0,1 @ F,0,0,1,0,6.6572743,0,1 @ F,0,1,1,0,6.6572743,0,1 | F,0,1,1,0,6.6572743,0,1 @ F,0,1,1,0,6.6572743,0,1 @ F,0,1,1,0,6.6572743,0,1 @ F,0,1,1,0,6.6572743,0,1 | F,0,1,1,0,6.6572743,0,1 @ F,0,1,1,0,6.6572743,0,1 @ F,0,1,1,0,6.6572743,0,1 @ F,0,1,1,0,6.6572743,0,1 | F,0,1,1,0,6.6572743,0,1 @ F,0,1,1,0,6.6572743,0,1 @ F,0,1,1,0,6.6572743,0,1 @ F,0,1,1,0,6.6572743,0,1 | F,0,1,1,0,6.6572743,0,1 @ F,0,1,1,0,6.6572743,0,1 @ F,0,1,1,0,6.6572743,0,1 @ F,0,1,1,0,6.6572743,0,1 | F,0,1,1,0,6.6572743,0,1 @ F,0,1,1,0,6.6572743,0,1 @ F,0,1,1,0,6.6572743,0,1 @ F,0,1,1,0,6.6572743,0,1 | F,0,1,1,0,6.6572743,0,1 @ F,0,1,1,0,6.6572743,0,1 @ F,0,1,1,0,6.6572743,0,1 @ F,0,1,1,0,6.6572743,0,1"
   radius="0"
   unit="px"
   method="auto"
   mode="F"
   chamfer_steps="1"
   flexible="false"
   use_knot_distance="true"
   apply_no_radius="true"
   apply_with_radius="true"
   only_selected="false"
   hide_knots="false" /><inkscape:path-effect
   effect="fillet_chamfer"
   id="path-effect5"
   is_visible="true"
   lpeversion="1"
   nodesatellites_param="F,0,1,1,0,9.1054084,0,1 @ F,0,1,1,0,9.1054084,0,1 @ F,0,1,1,0,9.1054084,0,1 @ F,0,0,1,0,9.1054084,0,1 | F,0,1,1,0,9.1054084,0,1 @ F,0,1,1,0,9.1054084,0,1 @ F,0,1,1,0,9.1054084,0,1 @ F,0,1,1,0,9.1054084,0,1 | F,0,1,1,0,9.1054084,0,1 @ F,0,1,1,0,9.1054084,0,1 @ F,0,1,1,0,9.1054084,0,1 @ F,0,1,1,0,9.1054084,0,1 | F,0,1,1,0,9.1054084,0,1 @ F,0,1,1,0,9.1054084,0,1 @ F,0,1,1,0,9.1054084,0,1 @ F,0,1,1,0,9.1054084,0,1 | F,0,1,1,0,9.1054084,0,1 @ F,0,1,1,0,9.1054084,0,1 @ F,0,1,1,0,9.1054084,0,1 @ F,0,1,1,0,9.1054084,0,1 | F,0,1,1,0,9.1054084,0,1 @ F,0,1,1,0,9.1054084,0,1 @ F,0,1,1,0,9.1054084,0,1 @ F,0,1,1,0,9.1054084,0,1 | F,0,1,1,0,9.1054084,0,1 @ F,0,1,1,0,9.1054084,0,1 @ F,0,1,1,0,9.1054084,0,1 @ F,0,1,1,0,9.1054084,0,1"
   radius="0"
   unit="px"
   method="auto"
   mode="F"
   chamfer_steps="1"
   flexible="false"
   use_knot_distance="true"
   apply_no_radius="true"
   apply_with_radius="true"
   only_selected="false"
   hide_knots="false" /><inkscape:path-effect
   effect="fillet_chamfer"
   id="path-effect4"
   is_visible="true"
   lpeversion="1"
   nodesatellites_param="F,0,0,1,0,0,0,1 @ F,0,0,1,0,0,0,1 @ F,0,0,1,0,0,0,1 @ F,0,0,1,0,0,0,1"
   radius="0"
   unit="px"
   method="auto"
   mode="F"
   chamfer_steps="1"
   flexible="false"
   use_knot_distance="true"
   apply_no_radius="true"
   apply_with_radius="true"
   only_selected="false"
   hide_knots="false" /><inkscape:path-effect
   effect="fillet_chamfer"
   id="path-effect3"
   is_visible="true"
   lpeversion="1"
   nodesatellites_param="F,0,0,1,0,5.4818579,0,1 @ F,0,1,1,0,5.4818579,0,1 @ F,0,1,1,0,5.4818579,0,1 @ F,0,1,1,0,5.4818579,0,1 @ F,0,1,1,0,5.4818579,0,1 @ F,0,1,1,0,5.4818579,0,1"
   radius="0"
   unit="px"
   method="auto"
   mode="F"
   chamfer_steps="1"
   flexible="false"
   use_knot_distance="true"
   apply_no_radius="true"
   apply_with_radius="true"
   only_selected="false"
   hide_knots="false" /><inkscape:path-effect
   effect="fillet_chamfer"
   id="path-effect2"
   is_visible="true"
   lpeversion="1"
   nodesatellites_param="F,0,1,1,0,5.7650099,0,1 @ F,0,0,1,0,5.7650099,0,1 @ F,0,1,1,0,5.7650099,0,1 @ F,0,1,1,0,5.7650099,0,1 @ F,0,1,1,0,5.7650099,0,1 @ F,0,1,1,0,5.7650099,0,1"
   radius="0"
   unit="px"
   method="auto"
   mode="F"
   chamfer_steps="1"
   flexible="false"
   use_knot_distance="true"
   apply_no_radius="true"
   apply_with_radius="true"
   only_selected="false"
   hide_knots="false" /><inkscape:path-effect
   effect="fillet_chamfer"
   id="path-effect1"
   is_visible="true"
   lpeversion="1"
   nodesatellites_param="F,0,1,1,0,3.7114669,0,1 @ F,0,1,1,0,3.7114669,0,1 @ F,0,0,1,0,3.7114669,0,1 @ F,0,1,1,0,3.7114669,0,1 @ F,0,1,1,0,3.7114669,0,1 @ F,0,1,1,0,3.7114669,0,1 @ F,0,1,1,0,3.7114669,0,1 @ F,0,1,1,0,3.7114669,0,1"
   radius="0"
   unit="px"
   method="auto"
   mode="F"
   chamfer_steps="1"
   flexible="false"
   use_knot_distance="true"
   apply_no_radius="true"
   apply_with_radius="true"
   only_selected="false"
   hide_knots="false" />
	
	
	
	
	
	
	
	
</defs><sodipodi:namedview
   id="namedview7"
   pagecolor="#ffffff"
   bordercolor="#000000"
   borderopacity="0.25"
   inkscape:showpageshadow="2"
   inkscape:pageopacity="0.0"
   inkscape:pagecheckerboard="0"
   inkscape:deskcolor="#d1d1d1"
   inkscape:zoom="0.5875364"
   inkscape:cx="317.42714"
   inkscape:cy="464.65207"
   inkscape:window-width="1712"
   inkscape:window-height="971"
   inkscape:window-x="0"
   inkscape:window-y="39"
   inkscape:window-maximized="1"
   inkscape:current-layer="_x32_" />
<style
   type="text/css"
   id="style1">
	.st0{fill:#00a6bd000000000000;}
</style>
<path
   class="st0"
   d="m 253.50979,267.9121 c -24.82291,31.40544 -24.82239,76.02804 0.002,107.44539 3.49092,4.41813 10.0063,4.38808 13.9903,0.40437 L 375.76233,267.50914 c 3.984,-3.98371 4.01596,-10.50048 -0.40046,-13.99357 -31.41319,-24.84567 -76.04028,-24.84543 -107.45907,7.4e-4 -4.4167,3.49275 -10.90136,9.97823 -14.39301,14.39579 z"
   id="path1"
   style="fill:#00a6bd;fill-opacity:1"
   inkscape:path-effect="#path-effect8"
   inkscape:original-d="m 260.288,260.296 c -33.86,33.869 -33.86,88.793 0,122.679 L 382.976,260.296 c -33.878,-33.886 -88.802,-33.886 -122.688,0 z"
   sodipodi:nodetypes="cccc" /><polygon
   class="st0"
   points="281.553,201.87 135.467,55.819 55.819,135.467 201.888,281.536 "
   id="polygon1"
   style="fill:#00a6bd;fill-opacity:1"
   inkscape:path-effect="#path-effect7"
   d="M 201.888,281.536 281.553,201.87 142.90981,63.260023 a 10.525718,10.525718 179.99657 0 0 -14.88472,8.92e-4 L 65.177582,126.10842 a 13.235034,13.235034 90 0 0 0,18.71716 z" /><path
   class="st0"
   d="M 408.58232,63.355873 349.92668,4.7071272 a 6.6574475,6.6574475 179.99738 0 0 -9.41493,4.308e-4 L 227.81625,117.41044 a 6.6578836,6.6578836 90.000745 0 0 -1.2e-4,9.41524 l 58.64874,58.65564 a 6.6566651,6.6566651 7.4517449e-4 0 0 9.41438,1.2e-4 L 408.58275,72.770558 a 6.6571011,6.6571011 89.997378 0 0 -4.3e-4,-9.414685 z m -86.60806,61.446057 -6.44252,-6.43886 a 6.6553851,6.6553851 89.991869 0 1 -0.001,-9.41347 l 16.5292,-16.529196 a 6.6591651,6.6591651 179.99186 0 1 9.41614,-0.0013 l 6.43352,6.429866 a 6.6576932,6.6576932 89.981927 0 1 0.003,9.415107 l -16.52346,16.53492 a 6.6568543,6.6568543 179.98193 0 1 -9.41451,0.003 z M 383.3936,72.770404 368.4984,87.665596 a 6.655594,6.655594 0.00723158 0 1 -9.41362,-0.0012 l -6.42956,-6.432816 a 6.658955,6.658955 90.007232 0 1 0.001,-9.415996 l 14.8872,-14.887192 a 6.658955,6.658955 179.99277 0 1 9.41599,-0.0012 l 6.43282,6.42957 a 6.655594,6.655594 89.992768 0 1 0.001,9.413619 z m -33.46601,-42.848189 6.42382,6.42057 a 6.6580584,6.6580584 89.982155 0 1 0.003,9.415362 l -14.88168,14.892706 a 6.6529198,6.6529198 179.99753 0 1 -9.41173,4.07e-4 l -6.42986,-6.43352 a 6.659028,6.659028 90.008725 0 1 0.001,-9.416047 l 14.879,-14.878386 a 6.659093,6.659093 179.99335 0 1 9.41609,-0.0011 z m -35.475,35.482999 6.41582,6.412572 a 6.6589287,6.6589287 89.978403 0 1 0.004,9.415976 l -16.51592,16.532476 a 6.6558285,6.6558285 179.97751 0 1 -9.41378,0.0037 l -6.43352,-6.429866 a 6.6542296,6.6542296 89.996835 0 1 -5.2e-4,-9.412654 l 16.52756,-16.521826 a 6.6601121,6.6601121 179.99773 0 1 9.41681,-3.73e-4 z M 253.0234,117.4106 267.9106,102.5234 a 6.6572743,6.6572743 0 0 1 9.4148,0 l 6.4272,6.4272 a 6.6546724,6.6546724 90.011199 0 1 -0.002,9.41296 l -14.89352,14.88188 a 6.6596669,6.6596669 0.01210336 0 1 -9.4165,-0.002 l -6.41748,-6.4179 a 6.6574845,6.6574845 90.000905 0 1 1.4e-4,-9.41495 z m 51.31715,12.12666 6.4359,6.43548 a 6.6570643,6.6570643 89.999096 0 1 1.5e-4,9.41466 l -14.8872,14.8872 a 6.6574845,6.6574845 179.9991 0 1 -9.41495,1.4e-4 l -6.4189,-6.41848 a 6.6617225,6.6617225 89.979055 0 1 -0.003,-9.41796 l 14.87678,-14.8976 a 6.6528288,6.6528288 179.97906 0 1 9.41166,-0.003 z"
   id="path2"
   style="fill:#00a6bd;fill-opacity:1"
   inkscape:path-effect="#path-effect6"
   inkscape:original-d="M 413.29,68.063 345.219,0 l -122.11,122.118 68.063,68.071 z m -86.607,61.445 -15.86,-15.851 25.944,-25.944 15.851,15.842 z m 61.418,-61.445 -24.31,24.31 -15.842,-15.85 24.302,-24.302 z M 345.219,25.216 361.06,41.049 336.767,65.36 320.925,49.509 Z M 309.744,60.699 325.577,76.524 299.651,102.476 283.8,86.634 Z m -61.428,61.419 24.302,-24.302 15.842,15.842 -24.312,24.293 z m 51.317,2.712 15.851,15.85 -24.302,24.302 -15.834,-15.833 z"
   sodipodi:nodetypes="ccccccccccccccccccccccccccccccccccc" /><path
   class="st0"
   d="m 6.4478744,351.64812 55.1932516,55.18676 a 9.1059435,9.1059435 179.99832 0 0 12.87737,-3.8e-4 L 183.7595,297.5935 a 9.1048732,9.1048732 89.998316 0 0 -3.7e-4,-12.87662 l -55.17526,-55.16876 a 9.1072859,9.1072859 0.0025387 0 0 -12.87831,-5.7e-4 L 6.448445,338.77245 a 9.1035314,9.1035314 90.002539 0 0 -5.706e-4,12.87567 z m 86.6416216,-61.42662 2.965008,2.965 a 9.1069877,9.1069877 89.995032 0 1 0.0011,12.87811 l -13.068242,13.07278 a 9.1012445,9.1012445 0.00316695 0 1 -12.874046,-7.1e-4 l -2.968666,-2.97036 a 9.1079945,9.1079945 90.008135 0 1 0.0018,-12.87882 l 13.066008,-13.066 a 9.1054084,9.1054084 0 0 1 12.876992,0 z m -61.427132,48.54987 11.416272,-11.41674 a 9.1078085,9.1078085 179.99127 0 1 12.878689,-0.002 l 2.96135,2.95966 a 9.1061934,9.1061934 89.981251 0 1 0.0042,12.87755 l -11.420778,11.42924 a 9.0997396,9.0997396 179.99662 0 1 -12.872982,7.6e-4 l -2.968258,-2.96976 a 9.1078946,9.1078946 90.006642 0 1 0.0015,-12.87875 z m 29.975686,42.86859 -2.9661,-2.96292 a 9.0990271,9.0990271 89.989341 0 1 -0.0024,-12.87248 l 11.44089,-11.43712 a 9.1069064,9.1069064 0.0047126 0 1 12.878051,0.001 l 2.956008,2.956 a 9.1070942,9.1070942 89.994696 0 1 0.0012,12.87819 l -11.428392,11.43262 a 9.1086089,9.1086089 179.97933 0 1 -12.879254,0.005 z m 35.496454,-35.47846 -2.974008,-2.974 a 9.1069877,9.1069877 89.995032 0 1 -0.0011,-12.87811 l 13.068241,-13.07278 a 9.1012445,9.1012445 0.00316695 0 1 12.87405,7.1e-4 l 2.96866,2.97036 a 9.1111547,9.1111547 89.998197 0 1 4.1e-4,12.88105 l -13.06148,13.07054 a 9.1022502,9.1022502 179.99006 0 1 -12.874756,0.002 z m 61.419326,-48.54968 -11.40966,11.41436 a 9.1061197,9.1061197 179.98597 0 1 -12.87749,0.003 l -2.97036,-2.96866 a 9.1026357,9.1026357 89.992454 0 1 -0.002,-12.87503 l 11.41674,-11.41628 a 9.1055958,9.1055958 5.8962047e-4 0 1 12.87713,1.4e-4 l 2.964,2.964 a 9.107283,9.107283 89.994103 0 1 0.001,12.87832 z m -51.33281,-15.60283 -2.96304,-2.95798 a 9.0957804,9.0957804 89.981469 0 1 -0.004,-12.87018 l 11.45036,-11.44566 a 9.1046929,9.1046929 0.01402846 0 1 12.87649,0.003 l 2.95966,2.96134 a 9.1061226,9.1061226 90.014033 0 1 -0.003,12.8775 l -11.43236,11.42766 a 9.115048,9.115048 179.98147 0 1 -12.8838,0.004 z"
   id="path3"
   style="fill:#00a6bd;fill-opacity:1"
   inkscape:path-effect="#path-effect5"
   inkscape:original-d="M 0.009,345.21 68.08,413.273 190.198,291.155 122.145,223.11 Z M 86.651,283.783 102.493,299.625 76.55,325.577 60.708,309.726 Z M 25.224,345.21 49.517,320.916 65.359,336.749 41.066,361.06 Z M 68.08,388.075 52.23,372.242 76.55,347.93 92.383,363.763 Z m 35.493,-35.475 -15.851,-15.851 25.943,-25.952 15.842,15.851 z m 61.418,-61.428 -24.284,24.294 -15.851,-15.842 24.294,-24.293 z m -51.326,-2.73 -15.851,-15.824 24.33,-24.32 15.833,15.842 z"
   sodipodi:nodetypes="ccccccccccccccccccccccccccccccccccc" /><path
   class="st0"
   d="m 363.421,338.522 c -6.862,-6.846 -18.009,-6.854 -24.855,0 -6.89,6.864 -6.89,18.019 -0.017,24.882 6.881,6.872 18.01,6.872 24.872,0 6.872,-6.863 6.872,-17.992 0,-24.882 z"
   id="path4"
   style="fill:#00a6bd;fill-opacity:1"
   inkscape:path-effect="#path-effect4"
   inkscape:original-d="m 363.421,338.522 c -6.862,-6.846 -18.009,-6.854 -24.855,0 -6.89,6.864 -6.89,18.019 -0.017,24.882 6.881,6.872 18.01,6.872 24.872,0 6.872,-6.863 6.872,-17.992 0,-24.882 z"
   sodipodi:nodetypes="ccccc" /><path
   class="st0"
   d="m 492.55087,384.00335 c -5.52929,23.96918 -17.13954,46.73927 -34.90089,65.86989 -2.0598,2.2186 -5.53253,5.69056 -7.75137,7.75011 -19.14393,17.76962 -41.91266,29.38837 -65.86249,34.93972 -2.94918,0.68359 -4.89851,3.54806 -4.32661,6.5211 l 1.44898,7.53266 c 0.5719,2.97304 3.44829,4.92907 6.40057,4.25885 27.46395,-6.23479 53.66805,-19.60116 75.53027,-40.06126 2.21041,-2.06864 5.68247,-5.54067 7.75098,-7.75121 20.45853,-21.86321 33.80914,-48.07439 40.02938,-75.54653 0.66854,-2.95266 -1.28908,-5.82793 -4.26244,-6.39814 l -7.5405,-1.44608 c -2.97336,-0.57021 -5.83539,1.38099 -6.51588,4.33089 z"
   id="path5"
   style="fill:#00a6bd;fill-opacity:1"
   inkscape:path-effect="#path-effect3"
   inkscape:original-d="m 493.683,378.64 c -5.292,27.61 -18.536,53.888 -39.837,75.18 -21.31,21.31 -47.587,34.562 -75.172,39.881 l 3.52,18.299 c 31.087,-5.976 60.831,-20.993 84.835,-44.997 24.004,-24.004 39.002,-53.756 44.962,-84.852 z"
   sodipodi:nodetypes="ccccscc" /><path
   class="st0"
   d="m 460.76146,371.24311 -7.00092,-1.27622 c -3.1323,-0.571 -6.11825,1.51086 -6.86853,4.60468 -3.69906,15.2533 -11.01247,29.73567 -22.02777,42.10928 -2.11676,2.37778 -5.77114,6.03109 -8.14929,8.14744 -12.38091,11.01797 -26.87431,18.34481 -42.11816,22.06438 -3.09275,0.75465 -5.17116,3.74407 -4.59677,6.87575 l 1.28096,6.98416 c 0.57439,3.13168 3.58365,5.2214 6.68386,4.49748 18.80465,-4.39102 36.77794,-13.46937 51.95093,-27.22858 2.35834,-2.1386 6.01126,-5.79125 8.14955,-8.14987 13.7441,-15.16035 22.81205,-33.13922 27.19678,-51.95035 0.7227,-3.1005 -1.36834,-6.10715 -4.50064,-6.67815 z"
   id="path6"
   style="fill:#00a6bd;fill-opacity:1"
   inkscape:path-effect="#path-effect2"
   inkscape:original-d="m 466.433,372.277 -18.344,-3.344 c -3.484,19.089 -12.489,37.248 -27.181,51.94 -14.7,14.692 -32.877,23.714 -51.948,27.225 l 3.361,18.325 c 22.608,-4.124 44.312,-14.92 61.769,-32.377 17.44,-17.438 28.225,-39.152 32.343,-61.769 z"
   sodipodi:nodetypes="ccccccc" /><path
   class="st0"
   d="m 403.69707,398.41569 c 8.52118,-9.46931 14.01672,-20.7455 16.51558,-32.47917 0.42691,-2.0046 -0.96238,-3.91154 -2.98633,-4.23599 l -11.06664,-1.77406 c -2.02395,-0.32445 -3.91689,1.05737 -4.38206,3.05326 -1.87542,8.0468 -5.61501,15.67854 -11.29633,22.23016 -1.34262,1.54829 -2.52929,2.71869 -2.52929,2.72311 -9.27726,8.21101 -16.90394,11.95552 -24.94395,13.82731 -1.996,0.46468 -3.37655,2.35618 -3.05028,4.37984 l 1.78446,11.0677 c 0.32627,2.02366 2.23448,3.41134 4.23874,2.98283 11.71806,-2.50527 22.98656,-7.99981 32.4531,-16.52122 1.5233,-1.37121 2.69954,-2.55759 2.70893,-2.56146 z"
   id="path7"
   style="fill:#00a6bd;fill-opacity:1"
   inkscape:path-effect="#path-effect1"
   inkscape:original-d="m 401.143,401.108 c 10.926,-10.928 17.492,-24.645 19.748,-38.82 l -18.396,-2.949 c -1.703,10.532 -6.495,20.538 -14.543,28.586 v 0.008 c -8.065,8.049 -18.062,12.849 -28.585,14.543 l 2.966,18.396 c 14.156,-2.265 27.866,-8.829 38.793,-19.757 z"
   sodipodi:nodetypes="ccccccccc" />
</svg>
