<?xml version="1.0" encoding="UTF-8" standalone="no"?>
<svg
   viewBox="254.9698 223.078 92.4874 100.3609"
   width="92.4874px"
   height="100.361px"
   preserveAspectRatio="none"
   version="1.1"
   id="svg15"
   sodipodi:docname="Spacestation.svg"
   inkscape:version="1.4.2 (ebf0e940, 2025-05-08)"
   xmlns:inkscape="http://www.inkscape.org/namespaces/inkscape"
   xmlns:sodipodi="http://sodipodi.sourceforge.net/DTD/sodipodi-0.dtd"
   xmlns="http://www.w3.org/2000/svg"
   xmlns:svg="http://www.w3.org/2000/svg">
  <defs
     id="defs15" />
  <sodipodi:namedview
     id="namedview15"
     pagecolor="#ffffff"
     bordercolor="#000000"
     borderopacity="0.25"
     inkscape:showpageshadow="2"
     inkscape:pageopacity="0.0"
     inkscape:pagecheckerboard="0"
     inkscape:deskcolor="#d1d1d1"
     inkscape:zoom="6.5230462"
     inkscape:cx="54.345775"
     inkscape:cy="43.078033"
     inkscape:window-width="1712"
     inkscape:window-height="971"
     inkscape:window-x="0"
     inkscape:window-y="39"
     inkscape:window-maximized="1"
     inkscape:current-layer="svg15" />
  <path
     style="baseline-shift:baseline;display:inline;overflow:visible;opacity:1;vector-effect:none;fill:#00a6bd;fill-opacity:1;enable-background:accumulate;stop-color:#000000;stop-opacity:1"
     d="m 325.07406,232.35547 -0.53321,1.92773 c -0.29069,-0.0803 -0.17939,-0.081 -0.11133,-0.0293 0.0681,0.0517 0.18225,0.14784 0.32227,0.27343 0.28003,0.25119 0.66511,0.62271 1.11133,1.07422 0.89243,0.90302 2.03346,2.12725 3.16601,3.41992 1.13256,1.29268 2.25996,2.65808 3.125,3.83204 0.86505,1.17395 1.45704,2.27368 1.51368,2.51367 0.18603,0.78833 0.5972,1.86703 0.77148,3.75976 0.17428,1.89274 0.0939,4.51204 -0.83789,8.00391 -1.86166,6.97638 -7.15026,17.43888 -20.63867,32.19531 -15.33296,13.65625 -26.93532,18.74504 -34.82031,20.17774 -3.94575,0.71693 -6.96512,0.52352 -9.07422,0.0391 -2.10911,-0.48447 -3.35545,-1.38907 -3.51172,-1.58203 -1.8837,-2.32256 -4.57691,-5.02642 -6.38281,-6.64063 l -1.33399,1.49219 c 1.71222,1.53047 4.39013,4.22338 6.16211,6.4082 0.75765,0.93552 2.21831,1.72001 4.61914,2.27149 2.40084,0.55147 5.69392,0.74087 9.87891,-0.0195 8.36997,-1.52082 20.28663,-6.83091 35.82812,-20.68164 l 0.0391,-0.0352 0.0332,-0.0371 c 13.66185,-14.93618 19.15485,-25.66007 21.13281,-33.07227 0.98898,-3.70609 1.0936,-6.58362 0.89844,-8.70312 -0.19516,-2.1195 -0.70794,-3.56725 -0.81836,-4.03516 -0.23982,-1.01625 -0.93195,-1.99682 -1.84961,-3.24218 -0.91766,-1.24537 -2.07208,-2.63878 -3.23047,-3.96094 -1.15839,-1.32216 -2.31733,-2.56999 -3.24609,-3.50977 -0.46438,-0.46988 -0.86947,-0.86046 -1.19922,-1.15625 -0.16488,-0.14789 -0.31052,-0.2715 -0.44922,-0.37695 -0.13871,-0.10545 -0.1804,-0.20052 -0.56445,-0.30664 z"
     id="path1" />
  <path
     d="m 329.51128,257.37269 c 0.32757,-0.98271 0.65514,-2.293 0.98272,-3.27571 0,0 0,0 0,0 2.62057,-8.51685 1.96542,-15.39585 -2.293,-19.65428 -7.53414,-7.53414 -23.91271,-3.60328 -41.27399,9.82714 l -2.293,-2.293 c -0.65514,4.25843 -2.62057,8.51686 -6.22385,12.12014 -3.27571,3.27571 -7.20657,5.56871 -11.13742,6.22386 -0.32758,0 -0.65515,0 -0.98272,0 l 2.293,2.29299 c -13.43042,17.03371 -17.36128,33.41228 -9.82714,41.27399 2.62057,2.62057 6.22386,3.93085 10.48228,3.93085 10.80986,0 26.20571,-8.18928 40.61884,-22.27484 9.172,-9.172 16.051,-19.32671 19.65428,-28.17114 z m -34.06741,32.10199 c -4.25843,3.27571 -8.18929,5.56871 -11.79257,7.53414 l 5.56871,-14.08556 z m 12.12014,-25.22299 14.08556,-5.56871 c -1.96543,3.93085 -4.586,8.18928 -7.86171,12.12014 z m 16.37856,-25.22299 c 1.96543,1.96543 2.293,6.22386 0.98271,11.13743 l -22.60242,9.17199 -0.65514,-0.65514 7.86171,-19.98185 c 6.879,-2.293 11.79257,-1.96543 14.41314,0.32757 z m -22.92999,3.60329 -4.25843,10.80985 -4.586,-4.586 c 2.94815,-2.293 5.89629,-4.25843 8.84443,-6.22385 z m -22.92999,29.15384 -10.48228,4.25843 c 1.63785,-2.62057 3.60328,-5.56871 5.89628,-8.51686 z m -14.41314,27.51599 c -2.293,-2.293 -2.62057,-7.53414 0,-14.41314 l 19.32671,-7.86171 0.98271,0.98272 -8.84442,22.27484 c -5.24114,1.31029 -9.49957,0.98272 -11.465,-0.98271 z"
     id="path2"
     style="fill:#00a6bd;fill-opacity:1;stroke:none;stroke-width:3.27571" />
  <path
     d="m 263.55153,258.303 c 1.69354,1.66406 8.54633,-0.0328 13.37473,-5.10356 5.23787,-5.49665 8.37272,-11.29794 4.31084,-15.29103 -2.02767,-1.99491 -9.39802,0.34067 -13.82678,5.34269 -5.0315,5.68663 -7.9174,11.0588 -3.85879,15.0519 z"
     style="fill:#00a6bd;fill-opacity:1;stroke:none;stroke-width:3.27571"
     id="path3" />
  <path
     d="M 338.95516,295.68871 324.21445,280.948 c -2.62057,3.27571 -4.91357,7.19674 -8.18928,10.47245 -3.27571,3.27572 -7.20657,5.57854 -10.48228,8.19911 l 14.74071,14.74071 c 1.63786,1.63786 3.60328,2.293 6.22385,2.293 0.65515,0 1.31029,0 2.293,-0.32757 2.94814,-0.65514 5.56871,-2.293 7.86171,-4.586 5.24114,-5.24114 6.22386,-12.12014 2.293,-16.05099 z"
     id="path4"
     style="fill:#00a6bd;fill-opacity:1;stroke:none;stroke-width:3.27571" />
  <path
     style="fill:#00a6bd;fill-opacity:1;stroke:none;stroke-width:0.153216"
     d="m 259.08109,262.79759 c 0,0.72165 -0.58528,1.30739 -1.30693,1.30739 -0.72165,0 -1.30801,-0.58559 -1.30801,-1.30739 0,-0.7218 0.58636,-1.30739 1.30801,-1.30739 0.72165,0 1.30693,0.58574 1.30693,1.30739"
     id="path5" />
  <path
     style="fill:#00a6bd;fill-opacity:1;stroke:none;stroke-width:0.153216"
     d="m 343.74672,253.2104 c 0,0.72165 -0.58682,1.3074 -1.30846,1.3074 -0.72165,0 -1.30694,-0.58575 -1.30694,-1.3074 0,-0.72164 0.58529,-1.30739 1.30694,-1.30739 0.72164,0 1.30846,0.58575 1.30846,1.30739"
     id="path6" />
  <path
     style="fill:#00a6bd;fill-opacity:1;stroke:none;stroke-width:0.153216"
     d="m 275.67193,290.31457 c 0,0.72165 -0.58574,1.30739 -1.30739,1.30739 -0.72165,0 -1.30739,-0.58574 -1.30739,-1.30739 0,-0.72165 0.58574,-1.30739 1.30739,-1.30739 0.72165,0 1.30739,0.58574 1.30739,1.30739"
     id="path7" />
  <path
     style="fill:#00a6bd;fill-opacity:1;stroke:none;stroke-width:0.153216"
     d="m 347.45715,287.19846 c 0,0.72165 -0.58574,1.30739 -1.30739,1.30739 -0.72165,0 -1.30739,-0.58574 -1.30739,-1.30739 0,-0.72165 0.58574,-1.30739 1.30739,-1.30739 0.72165,0 1.30739,0.58574 1.30739,1.30739"
     id="path8" />
  <path
     style="fill:#00a6bd;fill-opacity:1;stroke:none;stroke-width:0.153216"
     d="m 289.10622,229.61514 c 0.4955,0.37262 0.93875,0.81587 1.31137,1.31138 0.37263,-0.49551 0.8145,-0.93876 1.31138,-1.31138 -0.49688,-0.37262 -0.93875,-0.81588 -1.31138,-1.31138 -0.37262,0.4955 -0.81587,0.93876 -1.31137,1.31138 m 1.31137,6.53711 c -0.72164,0 -1.30739,-0.58574 -1.30739,-1.30739 0,-2.16249 -1.75984,-3.92233 -3.92233,-3.92233 -0.7218,0 -1.30754,-0.58574 -1.30754,-1.30739 0,-0.72165 0.58574,-1.30739 1.30739,-1.30739 2.16249,0 3.92233,-1.75984 3.92233,-3.92233 0,-0.72165 0.58574,-1.30739 1.30739,-1.30739 0.72165,0 1.30755,0.58559 1.30755,1.30723 0,2.16249 1.75984,3.92233 3.92233,3.92233 0.72164,0 1.30739,0.58575 1.30739,1.3074 0,0.72164 -0.58559,1.30754 -1.30739,1.30754 -2.16249,0 -3.92233,1.75984 -3.92233,3.92233 0,0.72165 -0.58575,1.30739 -1.3074,1.30739"
     id="path9" />
  <path
     style="fill:#00a6bd;fill-opacity:1;stroke:none;stroke-width:0.153216"
     d="m 297.96057,315.59429 2.07301,2.07362 2.07455,-2.07362 -2.07455,-2.07363 z m 2.07301,5.77103 -5.77011,-5.77103 5.77011,-5.77103 5.77165,5.77103 z"
     id="path10" />
  <path
     style="fill:#00a6bd;fill-opacity:1;stroke:none;stroke-width:0.153216"
     d="m 300.03358,312.97935 c -0.72164,0 -1.30693,-0.58574 -1.30693,-1.30739 v -2.61494 c 0,-0.72164 0.58529,-1.30739 1.30693,-1.30739 0.72165,0 1.30847,0.58575 1.30847,1.30739 v 2.61494 c 0,0.72165 -0.58682,1.30739 -1.30847,1.30739"
     id="path11" />
  <path
     style="fill:#00a6bd;fill-opacity:1;stroke:none;stroke-width:0.153216"
     d="m 306.57131,316.90168 h -2.6154 c -0.72164,0 -1.30693,-0.58574 -1.30693,-1.30739 0,-0.72165 0.58529,-1.30739 1.30693,-1.30739 h 2.6154 c 0.72165,0 1.30693,0.58574 1.30693,1.30739 0,0.72165 -0.58528,1.30739 -1.30693,1.30739"
     id="path12" />
  <path
     style="fill:#00a6bd;fill-opacity:1;stroke:none;stroke-width:0.153216"
     d="m 300.03358,323.43895 c -0.72164,0 -1.30693,-0.58575 -1.30693,-1.30739 v -2.61494 c 0,-0.72165 0.58529,-1.30739 1.30693,-1.30739 0.72165,0 1.30847,0.58574 1.30847,1.30739 v 2.61494 c 0,0.72164 -0.58682,1.30739 -1.30847,1.30739"
     id="path13" />
  <path
     style="fill:#00a6bd;fill-opacity:1;stroke:none;stroke-width:0.153216"
     d="m 296.11125,316.90168 h -2.61386 c -0.72165,0 -1.30847,-0.58574 -1.30847,-1.30739 0,-0.72165 0.58682,-1.30739 1.30847,-1.30739 h 2.61386 c 0.72165,0 1.30847,0.58574 1.30847,1.30739 0,0.72165 -0.58682,1.30739 -1.30847,1.30739"
     id="path14" />
  <path
     style="fill:#00a6bd;fill-opacity:1;stroke:none;stroke-width:0.153216"
     d="m 323.67788,246.90863 c 0,0.72165 -0.58682,1.30739 -1.30847,1.30739 -0.72164,0 -1.30693,-0.58574 -1.30693,-1.30739 0,-0.72165 0.58529,-1.30739 1.30693,-1.30739 0.72165,0 1.30847,0.58574 1.30847,1.30739"
     id="path15" />
</svg>
