<?xml version="1.0" encoding="UTF-8" standalone="no"?>
<!-- Uploaded to: SVG Repo, www.svgrepo.com, Generator: SVG Repo Mixer Tools -->

<svg
   fill="#00a6bd"
   height="800"
   width="521.86877"
   version="1.1"
   id="Layer_1"
   viewBox="0 0 333.99602 512"
   xml:space="preserve"
   sodipodi:docname="spaceship.svg"
   inkscape:version="1.4.2 (ebf0e940, 2025-05-08)"
   xmlns:inkscape="http://www.inkscape.org/namespaces/inkscape"
   xmlns:sodipodi="http://sodipodi.sourceforge.net/DTD/sodipodi-0.dtd"
   xmlns="http://www.w3.org/2000/svg"
   xmlns:svg="http://www.w3.org/2000/svg"><defs
   id="defs10" /><sodipodi:namedview
   id="namedview10"
   pagecolor="#ffffff"
   bordercolor="#000000"
   borderopacity="0.25"
   inkscape:showpageshadow="2"
   inkscape:pageopacity="0.0"
   inkscape:pagecheckerboard="0"
   inkscape:deskcolor="#d1d1d1"
   inkscape:zoom="0.0325"
   inkscape:cx="230.76923"
   inkscape:cy="400"
   inkscape:window-width="896"
   inkscape:window-height="245"
   inkscape:window-x="0"
   inkscape:window-y="39"
   inkscape:window-maximized="0"
   inkscape:current-layer="Layer_1" />
<g
   id="g2"
   transform="translate(-89.002)">
	<g
   id="g1">
		<path
   d="M 348.479,395.31 H 163.521 l -9.214,46.069 h 36.864 c 0.198,3.882 0.753,7.877 1.772,11.943 5.898,23.533 24.824,42.294 56.251,55.763 L 256,512 l 6.805,-2.916 c 31.427,-13.468 50.353,-32.23 56.251,-55.763 1.019,-4.067 1.574,-8.061 1.772,-11.943 h 36.864 z"
   id="path1" />
	</g>
</g>
<g
   id="g4"
   transform="translate(-89.002)">
	<g
   id="g3">
		<path
   d="m 142.253,372.47 -4.117,-11.426 c -2.203,-6.119 -14.204,-40.084 -24.068,-80.469 l -25.066,20.052 v 109.686 l 53.932,-35.954 z"
   id="path2" />
	</g>
</g>
<g
   id="g6"
   transform="translate(-89.002)">
	<g
   id="g5">
		<path
   d="m 397.933,280.575 c -9.864,40.386 -21.866,74.352 -24.071,80.476 l -4.115,11.419 -0.681,1.889 53.932,35.954 V 300.627 Z"
   id="path4" />
	</g>
</g>
<g
   id="g8"
   transform="translate(-89.002)">
	<g
   id="g7">
		<path
   d="m 256,176.484 c -9.526,0 -17.276,7.75 -17.276,17.276 0,9.526 7.75,17.276 17.276,17.276 9.526,0 17.276,-7.75 17.276,-17.276 0,-9.526 -7.75,-17.276 -17.276,-17.276 z"
   id="path6" />
	</g>
</g>
<g
   id="g10"
   transform="translate(-89.002)">
	<g
   id="g9">
		<path
   d="M 265.824,6.793 256,0 246.176,6.792 C 241.639,9.928 135.07,84.795 135.07,188.213 c 0,61.675 34.122,157.091 35.574,161.124 l 4.115,11.42 h 162.483 l 4.115,-11.42 C 342.808,345.306 376.93,249.89 376.93,188.215 376.93,84.795 270.361,9.929 265.824,6.793 Z M 256,245.587 c -28.577,0 -51.827,-23.25 -51.827,-51.827 0,-28.578 23.25,-51.827 51.827,-51.827 28.577,0 51.827,23.25 51.827,51.827 0,28.577 -23.25,51.827 -51.827,51.827 z"
   id="path8" />
	</g>
</g>
</svg>
