<?xml version="1.0" encoding="utf-8"?>
<svg xmlns="http://www.w3.org/2000/svg" viewBox="254.9698 223.078 92.4874 100.3609" width="92.4874px" height="100.361px" preserveAspectRatio="none"><g id="object-3"><g id="object-2"><g transform="matrix(1, 0, 0, 1, 48.799171, 21.800964)" id="object-1"><g id="Icons" style="" transform="matrix(3.275713, 0, 0, 3.275713, -847.929687, -688.560852)"><g transform="matrix(1, 0, 0, 1, 319.748444, 271.816467)"><path style="stroke: rgb(0, 0, 0); fill:none; stroke-width: 0.610554px;" d="M 3.594 24.414 C 4.131 24.894 4.951 25.718 5.509 26.406 C 6.067 27.095 11.001 29.149 20.432 20.744 C 28.73 11.672 27.017 7.802 26.836 7.035 C 26.655 6.268 24.062 3.49 23.834 3.427"/><path d="M24.8,10.3c0.1-0.3,0.2-0.7,0.3-1c0,0,0,0,0,0c0.8-2.6,0.6-4.7-0.7-6c-2.3-2.3-7.3-1.1-12.6,3l-0.7-0.7 c-0.2,1.3-0.8,2.6-1.9,3.7c-1,1-2.2,1.7-3.4,1.9c-0.1,0-0.2,0-0.3,0l0.7,0.7c-4.1,5.2-5.3,10.2-3,12.6c0.8,0.8,1.9,1.2,3.2,1.2 c3.3,0,8-2.5,12.4-6.8C21.6,16.1,23.7,13,24.8,10.3z M14.4,20.1c-1.3,1-2.5,1.7-3.6,2.3l1.7-4.3L14.4,20.1z M18.1,12.4l4.3-1.7 c-0.6,1.2-1.4,2.5-2.4,3.7L18.1,12.4z M23.1,4.7c0.6,0.6,0.7,1.9,0.3,3.4l-6.9,2.8l-0.2-0.2l2.4-6.1C20.8,3.9,22.3,4,23.1,4.7z M16.1,5.8l-1.3,3.3l-1.4-1.4C14.3,7,15.2,6.4,16.1,5.8z M9.1,14.7L5.9,16c0.5-0.8,1.1-1.7,1.8-2.6L9.1,14.7z M4.7,23.1 c-0.7-0.7-0.8-2.3,0-4.4l5.9-2.4l0.3,0.3l-2.7,6.8C6.6,23.8,5.3,23.7,4.7,23.1z"/><path d="M 4.664 10.584 C 5.181 11.092 7.273 10.574 8.747 9.026 C 10.346 7.348 11.303 5.577 10.063 4.358 C 9.444 3.749 7.194 4.462 5.842 5.989 C 4.306 7.725 3.425 9.365 4.664 10.584 Z" style=""/><path d="M 27.683 21.997 L 23.183 17.497 C 22.383 18.497 21.683 19.694 20.683 20.694 C 19.683 21.694 18.483 22.397 17.483 23.197 L 21.983 27.697 C 22.483 28.197 23.083 28.397 23.883 28.397 C 24.083 28.397 24.283 28.397 24.583 28.297 C 25.483 28.097 26.283 27.597 26.983 26.897 C 28.583 25.297 28.883 23.197 27.683 21.997 Z"/></g></g><g transform="matrix(0.153216, 0, 0, 0.153216, 196.290848, 208.261566)"><g id="object-0"><path style="stroke-width: 1;" d="M 91.316 213.653 C 91.316 218.363 87.496 222.186 82.786 222.186 C 78.076 222.186 74.249 218.364 74.249 213.653 C 74.249 208.942 78.076 205.12 82.786 205.12 C 87.496 205.12 91.316 208.943 91.316 213.653"/><path style="stroke-width: 1;" d="M 643.906 151.08 C 643.906 155.79 640.076 159.613 635.366 159.613 C 630.656 159.613 626.836 155.79 626.836 151.08 C 626.836 146.37 630.656 142.547 635.366 142.547 C 640.076 142.547 643.906 146.37 643.906 151.08"/><path style="stroke-width: 1;" d="M 199.6 393.249 C 199.6 397.959 195.777 401.782 191.067 401.782 C 186.357 401.782 182.534 397.959 182.534 393.249 C 182.534 388.539 186.357 384.716 191.067 384.716 C 195.777 384.716 199.6 388.539 199.6 393.249"/><path style="stroke-width: 1;" d="M 668.123 372.911 C 668.123 377.621 664.3 381.444 659.59 381.444 C 654.88 381.444 651.057 377.621 651.057 372.911 C 651.057 368.201 654.88 364.378 659.59 364.378 C 664.3 364.378 668.123 368.201 668.123 372.911"/><path style="stroke-width: 1;" d="M 287.282 -2.92 C 290.516 -0.488 293.409 2.405 295.841 5.639 C 298.273 2.405 301.157 -0.488 304.4 -2.92 C 301.157 -5.352 298.273 -8.245 295.841 -11.479 C 293.409 -8.245 290.516 -5.352 287.282 -2.92 M 295.841 39.746 C 291.131 39.746 287.308 35.923 287.308 31.213 C 287.308 17.099 275.822 5.613 261.708 5.613 C 256.997 5.613 253.174 1.79 253.174 -2.92 C 253.174 -7.63 256.997 -11.453 261.707 -11.453 C 275.821 -11.453 287.307 -22.939 287.307 -37.053 C 287.307 -41.763 291.13 -45.586 295.84 -45.586 C 300.55 -45.586 304.374 -41.764 304.374 -37.054 C 304.374 -22.94 315.86 -11.454 329.974 -11.454 C 334.684 -11.454 338.507 -7.631 338.507 -2.921 C 338.507 1.789 334.685 5.613 329.974 5.613 C 315.86 5.613 304.374 17.099 304.374 31.213 C 304.374 35.923 300.551 39.746 295.841 39.746"/><path style="stroke-width: 1;" d="M 345.072 558.243 L 358.602 571.777 L 372.142 558.243 L 358.602 544.709 L 345.072 558.243 Z M 358.602 595.909 L 320.942 558.243 L 358.602 520.577 L 396.272 558.243 L 358.602 595.909 Z"/><path style="stroke-width: 1;" d="M 358.602 541.176 C 353.892 541.176 350.072 537.353 350.072 532.643 L 350.072 515.576 C 350.072 510.866 353.892 507.043 358.602 507.043 C 363.312 507.043 367.142 510.866 367.142 515.576 L 367.142 532.643 C 367.142 537.353 363.312 541.176 358.602 541.176"/><path style="stroke-width: 1;" d="M 401.272 566.776 L 384.202 566.776 C 379.492 566.776 375.672 562.953 375.672 558.243 C 375.672 553.533 379.492 549.71 384.202 549.71 L 401.272 549.71 C 405.982 549.71 409.802 553.533 409.802 558.243 C 409.802 562.953 405.982 566.776 401.272 566.776"/><path style="stroke-width: 1;" d="M 358.602 609.443 C 353.892 609.443 350.072 605.62 350.072 600.91 L 350.072 583.843 C 350.072 579.133 353.892 575.31 358.602 575.31 C 363.312 575.31 367.142 579.133 367.142 583.843 L 367.142 600.91 C 367.142 605.62 363.312 609.443 358.602 609.443"/><path style="stroke-width: 1;" d="M 333.002 566.776 L 315.942 566.776 C 311.232 566.776 307.402 562.953 307.402 558.243 C 307.402 553.533 311.232 549.71 315.942 549.71 L 333.002 549.71 C 337.712 549.71 341.542 553.533 341.542 558.243 C 341.542 562.953 337.712 566.776 333.002 566.776"/><path style="stroke-width: 1;" d="M 512.922 109.95 C 512.922 114.66 509.092 118.483 504.382 118.483 C 499.672 118.483 495.852 114.66 495.852 109.95 C 495.852 105.24 499.672 101.417 504.382 101.417 C 509.092 101.417 512.922 105.24 512.922 109.95"/></g></g></g><g id="Layer_1" transform="matrix(0.153216, 0, 0, 0.153216, 196.290848, 208.261566)" style=""/></g></g></svg>