<?xml version="1.0" encoding="UTF-8" standalone="no"?>
<!-- Uploaded to: SVG Repo, www.svgrepo.com, Generator: SVG Repo Mixer Tools -->

<svg
   width="733.25311"
   height="738.4574"
   viewBox="0 0 469.28199 472.61273"
   version="1.1"
   id="svg1"
   sodipodi:docname="telepathy.svg"
   inkscape:version="1.4.2 (ebf0e940, 2025-05-08)"
   xmlns:inkscape="http://www.inkscape.org/namespaces/inkscape"
   xmlns:sodipodi="http://sodipodi.sourceforge.net/DTD/sodipodi-0.dtd"
   xmlns="http://www.w3.org/2000/svg"
   xmlns:svg="http://www.w3.org/2000/svg">
  <defs
     id="defs1" />
  <sodipodi:namedview
     id="namedview1"
     pagecolor="#ffffff"
     bordercolor="#000000"
     borderopacity="0.25"
     inkscape:showpageshadow="2"
     inkscape:pageopacity="0.0"
     inkscape:pagecheckerboard="0"
     inkscape:deskcolor="#d1d1d1"
     inkscape:zoom="0.18095513"
     inkscape:cx="-980.90613"
     inkscape:cy="994.72171"
     inkscape:window-width="1712"
     inkscape:window-height="971"
     inkscape:window-x="0"
     inkscape:window-y="39"
     inkscape:window-maximized="1"
     inkscape:current-layer="svg1" />
  <path
     fill="#00a6bd"
     d="m 107.5,0.01875309 c -0.73,0.03 -1.536,0.107 -2.407,0.218 C 71.213,4.6397531 46.123,37.164753 46.123,78.393753 c 0,17.885 4.538,35.767997 12.626,50.156997 -11.006,4.402 -20.227,11.366 -27.5,20.094 -9.996,11.996 -16.582,27.018 -21.124,43.5 C 1.039,225.10775 0,264.37875 0,299.76975 v 9.343 h 42.031 l 9.968,154.75 0.563,8.75 h 117.905 l 0.564,-8.75 9.97,-154.75 h 42.03 v -9.344 c 0,-35.39 -1.04,-74.66 -10.125,-107.625 -4.544,-16.48 -11.13,-31.503 -21.126,-43.5 -7.273,-8.727 -16.494,-15.69 -27.5,-20.093 4.88,-8.683 8.453,-18.635 10.53,-29.093997 l 65.814,15.937997 16.218,3.937 -5.155,-15.906 -12.75,-39.344997 53.47,13.625 c -0.003,0.23 0,0.457 0,0.688 0,17.884 4.535,35.766997 12.624,50.155997 -11.007,4.402 -20.26,11.366 -27.53,20.094 -9.998,11.996 -16.553,27.018 -21.095,43.5 -9.086,32.963 -10.158,72.234 -10.158,107.625 v 9.343 h 42.064 l 1.968,30.875 v 1.408 h 0.094 l 7.875,122.468 0.562,8.75 h 117.906 l 0.564,-8.75 7.844,-122.28 h 0.125 l 0.03,-2.126 1.938,-30.344 h 42.064 v -9.344 c 0,-35.39 -1.04,-74.66 -10.125,-107.625 -4.544,-16.48 -11.13,-31.503 -21.126,-43.5 -7.273,-8.727 -16.525,-15.69 -27.53,-20.093 8.087,-14.39 12.623,-32.271997 12.623,-50.155997 0,-41.23 -25.056,-73.7549999 -58.937,-78.15699991 h -0.03 c -1.743,-0.22 -3.205,-0.254 -4.376,-0.218 -0.893,0.028 -1.45,0.068 -2,0.094 -0.56,-0.026 -1.136,-0.065 -2.03,-0.093 -1.173,-0.037 -2.635,-0.003 -4.377,0.218 h -0.03 C 323.01,3.9207531 300.872,27.268753 294.374,58.928753 l -67.217,-17.13 -16.44,-4.188 5.22,16.125 12.813,39.564 -51.875,-12.53 c 0.017,-0.795 0.03,-1.583 0.03,-2.376 0,-41.23 -25.056,-73.7549999 -58.937,-78.15699991 h -0.03 c -1.742,-0.22 -3.204,-0.254 -4.375,-0.218 -0.91,0.03 -1.5,0.07 -2.063,0.094 -0.56,-0.026 -1.135,-0.065 -2.03,-0.093 -0.586,-0.0200000036 -1.24,-0.032 -1.97,0 z m 3.406,18.81199991 c 0.433,0.006 0.7,0 1.218,0 5.338,0 10.785,1.384 15.875,3.78 l 0.093,-0.155 c 16.9,7.98 29.447,27.32 30.094,53.78 l -19.28,-4.655 c -3.217,-12.606 -14.644,-21.906 -28.25,-21.906 -16.103,0 -29.157,13.053 -29.157,29.155 0,16.102 13.052,29.155997 29.156,29.155997 11.977,0 22.262,-7.234 26.75,-17.559997 l 19.093,4.624 c -2.573,13.024997 -7.828,25.175997 -14.22,32.874997 l -10.155,12.218 15.593,2.937 c 12.813,2.408 22.09,8.375 29.72,17.53 7.63,9.158 13.393,21.712 17.47,36.5 7.434,26.98 9.063,60.967 9.31,93.282 h -24.874 l 0.563,-58.593 -18.69,-0.188 -1.06,109.78 0.03,0.002 -7.22,112.53 h -32.778 v -139.717 h -18.688 v 139.72 H 70.093 l -7.25,-112.345 h 0.063 l 1.06,-109.78 -18.686,-0.19 -0.563,58.782 H 18.813 c 0.25,-32.315 1.908,-66.303 9.344,-93.28 4.075,-14.79 9.806,-27.344 17.436,-36.5 7.63,-9.157 16.907,-15.124 29.72,-17.532 l 15.593,-2.938 -10.126,-12.218 c -9.083,-10.943 -15.97,-30.869997 -15.97,-49.531997 0,-27.573 12.788,-47.748 30.157,-55.938 l 0.064,0.156 c 5.09,-2.397 10.536,-3.78 15.875,-3.78 z m 246.25,0 c 0.44,0.006 0.722,0 1.25,0 5.337,0 10.784,1.384 15.874,3.78 l 0.062,-0.124 c 17.33,8.21 30.094,28.368 30.094,55.907 0,18.664 -6.855,38.589997 -15.938,49.531997 l -10.156,12.218 15.625,2.937 c 12.813,2.408 22.06,8.375 29.69,17.53 7.63,9.158 13.39,21.712 17.467,36.5 7.436,26.98 9.096,60.967 9.344,93.282 h -24.717 l 0.562,-58.593 -18.688,-0.188 -1.03,107.03 -7.408,115.284 h -32.906 v -139.72 h -18.688 v 139.72 h -31.25 l -7.344,-114.533 1.063,-107.593 -18.688,-0.188 -0.593,58.78 -25.72,0.002 c 0.25,-32.316 1.91,-66.304 9.345,-93.282 4.075,-14.79 9.838,-27.343 17.467,-36.5 7.63,-9.156 16.876,-15.123 29.688,-17.53 l 15.625,-2.94 -10.156,-12.217 c -8.415,-10.138 -14.902,-27.995997 -15.813,-45.406997 l 16.72,4.25 c 3.46,12.237 14.685,21.217997 28.03,21.217997 16.105,0 29.158,-13.052997 29.158,-29.154997 0,-16.102 -13.056,-29.155 -29.158,-29.155 -12.17,0 -22.57,7.466 -26.936,18.06 l -16.625,-4.218 c 3.687,-19.918 14.76,-34.387 28.81,-41.03 l 0.064,0.124 c 5.09,-2.397 10.536,-3.78 15.875,-3.78 z"
     id="path1" />
</svg>
