<?xml version="1.0" encoding="UTF-8" standalone="no"?>
<!-- Uploaded to: SVG Repo, www.svgrepo.com, Generator: SVG Repo Mixer Tools -->

<svg
   fill="#00a6bd"
   height="799.99915"
   width="702.57446"
   version="1.1"
   id="Capa_1"
   viewBox="0 0 537.46946 611.99935"
   xml:space="preserve"
   sodipodi:docname="telescope.svg"
   inkscape:version="1.4.2 (ebf0e940, 2025-05-08)"
   xmlns:inkscape="http://www.inkscape.org/namespaces/inkscape"
   xmlns:sodipodi="http://sodipodi.sourceforge.net/DTD/sodipodi-0.dtd"
   xmlns="http://www.w3.org/2000/svg"
   xmlns:svg="http://www.w3.org/2000/svg"><defs
   id="defs5" /><sodipodi:namedview
   id="namedview5"
   pagecolor="#ffffff"
   bordercolor="#000000"
   borderopacity="0.25"
   inkscape:showpageshadow="2"
   inkscape:pageopacity="0.0"
   inkscape:pagecheckerboard="0"
   inkscape:deskcolor="#d1d1d1"
   inkscape:zoom="0.0325"
   inkscape:cx="323.07692"
   inkscape:cy="400"
   inkscape:window-width="896"
   inkscape:window-height="245"
   inkscape:window-x="0"
   inkscape:window-y="39"
   inkscape:window-maximized="0"
   inkscape:current-layer="Capa_1" />
<g
   id="g5"
   transform="translate(-37.265,3.6614075e-4)">
	<g
   id="g4">
		<path
   d="m 549.343,392.746 c 0,-10.293 -7.692,-18.714 -17.094,-18.714 H 55.979 c -10.336,0 -18.714,8.379 -18.714,18.714 V 410.5 c 0,10.336 8.379,18.714 18.714,18.714 h 476.269 c 9.402,0 17.094,-8.422 17.094,-18.714 z"
   id="path1" />
		<path
   d="m 55.979,460.517 c -10.336,0 -18.714,8.379 -18.714,18.714 v 114.054 c 0,10.336 8.379,18.714 18.714,18.714 h 474.649 c 10.336,0 18.714,-8.379 18.714,-18.714 V 479.232 c 0,-10.336 -8.379,-18.714 -18.714,-18.714 H 55.979 Z"
   id="path2" />
		<path
   d="m 557.651,264.789 5.982,-1.802 c 8.572,-2.582 13.207,-11.833 10.167,-20.254 -11.733,-32.494 -28.79,-62.337 -50.837,-88.901 -15.889,-19.144 -33.934,-36.055 -53.891,-50.58 l 24.697,-45.993 c 4.89,-9.106 1.472,-20.452 -7.634,-25.341 L 430.851,2.23 C 421.745,-2.66 410.399,0.759 405.51,9.864 l -26.152,48.703 c -17.679,-5.352 -35.845,-9.053 -54.387,-11.055 -34.322,-3.705 -68.621,-1.44 -102.189,6.729 -8.699,2.117 -13.85,11.09 -11.268,19.663 l 1.802,5.982 c 2.388,7.926 10.552,12.603 18.597,10.655 29.266,-7.085 59.15,-9.043 89.04,-5.816 57.994,6.261 113.839,32.977 155.637,73.924 6.182,6.056 12.044,12.427 17.571,19.086 19.2,23.134 34.076,49.127 44.335,77.436 2.821,7.783 11.229,12.006 19.155,9.618 z"
   id="path3" />
		<path
   d="m 437.403,162.228 c -26.089,-20.684 -56.728,-35.876 -90.173,-43.833 -17.308,-4.118 -35.366,-6.302 -53.934,-6.302 -128.214,0 -232.157,103.944 -232.157,232.148 H 525.444 C 525.443,270.476 491.039,204.75 437.403,162.228 Z"
   id="path4" />
	</g>
</g>
</svg>
