<?xml version="1.0" encoding="UTF-8" standalone="no"?>
<!-- Uploaded to: SVG Repo, www.svgrepo.com, Generator: SVG Repo Mixer Tools -->

<svg
   width="714.04688"
   height="698"
   viewBox="0 0 456.99 446.72"
   version="1.1"
   id="svg1"
   sodipodi:docname="teleport.svg"
   inkscape:version="1.4.2 (ebf0e940, 2025-05-08)"
   xmlns:inkscape="http://www.inkscape.org/namespaces/inkscape"
   xmlns:sodipodi="http://sodipodi.sourceforge.net/DTD/sodipodi-0.dtd"
   xmlns="http://www.w3.org/2000/svg"
   xmlns:svg="http://www.w3.org/2000/svg">
  <defs
     id="defs1" />
  <sodipodi:namedview
     id="namedview1"
     pagecolor="#ffffff"
     bordercolor="#000000"
     borderopacity="0.25"
     inkscape:showpageshadow="2"
     inkscape:pageopacity="0.0"
     inkscape:pagecheckerboard="0"
     inkscape:deskcolor="#d1d1d1"
     inkscape:zoom="0.085055849"
     inkscape:cx="511.42867"
     inkscape:cy="423.25132"
     inkscape:window-width="896"
     inkscape:window-height="245"
     inkscape:window-x="0"
     inkscape:window-y="39"
     inkscape:window-maximized="0"
     inkscape:current-layer="svg1" />
  <path
     fill="#00a6bd"
     d="m 223.367,0 c -18.64,2.424 -35.677,23.574 -37.043,51.49 v 0.02 c -0.057,1.186 -0.097,2.38 -0.097,3.59 0,16.362 5.658,30.827 13.942,40.818 l 10.127,12.213 -15.592,2.933 c -10.75,2.025 -18.622,7.702 -25.373,16.978 -2.285,3.14 -4.384,6.707 -6.31,10.62 -57.54,-6.44 -97.91,-21.06 -97.91,-37.952 0,-17.363 42.647,-31.983 102.75,-37.97 -0.213,-2.51 -0.323,-5.057 -0.323,-7.636 v -0.002 c 0,-0.84 0.024,-1.674 0.047,-2.51 -96.43,6.77 -167.298,29.15 -167.3,55.71 -0.002,25.33 64.462,46.86 154.074,54.67 -0.19,0.742 -0.394,1.465 -0.576,2.216 -2.36,9.72 -4.05,20.22 -5.268,31.03 -0.01,0 -0.02,0 -0.03,0.002 -0.418,3.653 -0.78,7.34 -1.095,11.046 l 0.05,-0.005 c -1.316,15.777 -1.772,31.88 -1.893,46.95 h 35.894 l 2.115,28.4 c -68.24,-4.994 -118.444,-21.004 -118.444,-39.843 0,-13.243 24.83,-24.89 63.27,-32.33 0.3,-4.056 0.66,-8.115 1.076,-12.162 -76.42,9.353 -129.17,29.168 -129.172,52.086 -0.002,28.17 79.71,51.643 185.098,56.768 l 5.94,79.77 c 10.5,2.648 24.84,4.162 39.017,4.068 13.79,-0.092 27.235,-1.71 36.45,-4 l 5.263,-79.846 c 105.308,-5.14 184.935,-28.605 184.935,-56.76 0,-23.013 -53.196,-42.895 -130.13,-52.2 0.304,4.02 0.557,8.047 0.755,12.07 38.883,7.43 63.965,19.17 63.965,32.536 0,18.84 -49.804,34.85 -117.908,39.844 l 1.87,-28.402 h 34.18 c -0.012,-15.113 -0.127,-31.27 -1.033,-47.094 0.01,0 0.02,0.002 0.032,0.004 -0.214,-3.687 -0.472,-7.352 -0.782,-10.986 l -0.02,-0.002 c -0.94,-11.157 -2.367,-21.984 -4.546,-31.967 -0.09,-0.405 -0.184,-0.803 -0.275,-1.206 89.518,-7.826 153.893,-29.344 153.893,-54.656 0,-26.787 -72.076,-49.332 -169.77,-55.887 0.025,0.895 0.053,1.788 0.053,2.688 0,2.5 -0.104,4.97 -0.304,7.407 61.19,5.836 104.61,20.61 104.61,38.2 0,16.805 -39.633,31.355 -96.524,37.848 -2.01,-4.283 -4.26,-8.15 -6.762,-11.505 -6.83,-9.167 -15.063,-14.81 -27.14,-16.682 l -15.913,-2.47 10.037,-12.59 c 6.928,-8.69 11.912,-20.715 13.057,-34.268 h 0.002 c 0.163,-1.95 0.25,-3.93 0.25,-5.938 0,-0.77 -0.022,-1.532 -0.048,-2.29 -0.015,-0.48 -0.033,-0.958 -0.057,-1.434 h -0.002 c -1.48,-29.745 -20.507,-51.3 -41.076,-51.3 -2.528,0 -3.966,-0.087 -4.03,-0.08 H 223.37 Z M 168.573,333.105 C 71.463,339.76 0,362.215 0,388.905 c 0,31.932 102.243,57.815 228.367,57.815 126.124,0 228.366,-25.882 228.366,-57.814 0,-26.608 -71.02,-49.004 -167.67,-55.736 l -0.655,9.93 c 60.363,6.055 103.074,20.956 103.074,38.394 0,22.81 -73.032,41.298 -163.12,41.298 -90.088,0 -163.12,-18.49 -163.12,-41.297 0,-17.533 43.18,-32.502 104.07,-38.493 l -0.74,-9.895 z"
     id="path1" />
</svg>
