<?xml version="1.0" encoding="iso-8859-1"?>
<!-- Uploaded to: SVG Repo, www.svgrepo.com, Generator: SVG Repo Mixer Tools -->
<svg fill="#00a6bd" height="800px" width="800px" version="1.1" id="Capa_1" xmlns="http://www.w3.org/2000/svg" xmlns:xlink="http://www.w3.org/1999/xlink" 
	 viewBox="0 0 612 612" xml:space="preserve">
<g>
	<g>
		<path d="M549.343,392.746c0-10.293-7.692-18.714-17.094-18.714H55.979c-10.336,0-18.714,8.379-18.714,18.714V410.5
			c0,10.336,8.379,18.714,18.714,18.714h476.269c9.402,0,17.094-8.422,17.094-18.714L549.343,392.746L549.343,392.746z"/>
		<path d="M55.979,460.517c-10.336,0-18.714,8.379-18.714,18.714v114.054c0,10.336,8.379,18.714,18.714,18.714h474.649
			c10.336,0,18.714-8.379,18.714-18.714V479.232c0-10.336-8.379-18.714-18.714-18.714H55.979z"/>
		<path d="M557.651,264.789l5.982-1.802c8.572-2.582,13.207-11.833,10.167-20.254c-11.733-32.494-28.79-62.337-50.837-88.901
			c-15.889-19.144-33.934-36.055-53.891-50.58l24.697-45.993c4.89-9.106,1.472-20.452-7.634-25.341L430.851,2.23
			c-9.106-4.89-20.452-1.471-25.341,7.634l-26.152,48.703c-17.679-5.352-35.845-9.053-54.387-11.055
			c-34.322-3.705-68.621-1.44-102.189,6.729c-8.699,2.117-13.85,11.09-11.268,19.663l1.802,5.982
			c2.388,7.926,10.552,12.603,18.597,10.655c29.266-7.085,59.15-9.043,89.04-5.816c57.994,6.261,113.839,32.977,155.637,73.924
			c6.182,6.056,12.044,12.427,17.571,19.086c19.2,23.134,34.076,49.127,44.335,77.436
			C541.317,262.954,549.725,267.177,557.651,264.789z"/>
		<path d="M437.403,162.228c-26.089-20.684-56.728-35.876-90.173-43.833c-17.308-4.118-35.366-6.302-53.934-6.302
			c-128.214,0-232.157,103.944-232.157,232.148h464.305C525.443,270.476,491.039,204.75,437.403,162.228z"/>
	</g>
</g>
</svg>