<?xml version="1.0" encoding="UTF-8" standalone="no"?>
<!-- Uploaded to: SVG Repo, www.svgrepo.com, Generator: SVG Repo Mixer Tools -->

<svg
   width="800px"
   height="800px"
   viewBox="0 0 512 512"
   version="1.1"
   id="svg1"
   sodipodi:docname="turret-svgrepo-com.svg"
   inkscape:version="1.4.2 (ebf0e940, 2025-05-08)"
   xmlns:inkscape="http://www.inkscape.org/namespaces/inkscape"
   xmlns:sodipodi="http://sodipodi.sourceforge.net/DTD/sodipodi-0.dtd"
   xmlns="http://www.w3.org/2000/svg"
   xmlns:svg="http://www.w3.org/2000/svg">
  <defs
     id="defs1" />
  <sodipodi:namedview
     id="namedview1"
     pagecolor="#ffffff"
     bordercolor="#000000"
     borderopacity="0.25"
     inkscape:showpageshadow="2"
     inkscape:pageopacity="0.0"
     inkscape:pagecheckerboard="0"
     inkscape:deskcolor="#d1d1d1"
     inkscape:zoom="1.6718"
     inkscape:cx="476.43259"
     inkscape:cy="611.31715"
     inkscape:window-width="1712"
     inkscape:window-height="971"
     inkscape:window-x="0"
     inkscape:window-y="39"
     inkscape:window-maximized="1"
     inkscape:current-layer="svg1" />
  <path
     id="path1"
     style="fill:#00a6bd;fill-opacity:1"
     d="M 130.72,61 C 106,61.11 106,62.875 106,91 H 76 l -15,30 v 60 l 15,30 h 30 c 0,30 0,30 30,30 h 120 c 30,0 30,0 30,-30 h 15 l 15,-30 H 496 V 121 H 316 L 301,91 h -15 c 0,-30 0,-30 -30,-30 H 136 c -1.875,0 -3.633,-0.007 -5.28,0 z M 316.40375,136.79375 480.725,137.625 v 8.96125 H 326.38375 Z M 166,256.92 c -8.28427,0 -15,6.71573 -15,15 v 45 c 0,8.28427 6.71573,15 15,15 h 60 c 8.28427,0 15,-6.71573 15,-15 v -45 c 0,-8.28427 -6.71573,-15 -15,-15 z m -15,93.48 c -30,0 -45,30 -45,30 -15,0 -30,0 -30,15 l -60,15 v 15 h 360 v -15 l -60,-15 c 0,-15 -15,-15 -30,-15 0,0 -15,-30 -45,-30 z m 95.0187,20.29129 c 0,0 -21.89202,-5.46389 -5.69112,-9.85141 16.2009,-4.38752 29.40934,19.54092 29.40934,19.54092 0,0 -20.51765,0.67522 -22.03048,-0.71359 -1.51283,-1.38883 -1.68774,-8.97592 -1.68774,-8.97592 z"
     sodipodi:nodetypes="cccccccssccccccccssccccccssssssssssccccccccssczczc" />
</svg>
