<?xml version="1.0" encoding="UTF-8" standalone="no"?>
<!-- Uploaded to: SVG Repo, www.svgrepo.com, Generator: SVG Repo Mixer Tools -->

<svg
   version="1.1"
   id="Icons"
   viewBox="0 0 26 29.018393"
   xml:space="preserve"
   sodipodi:docname="vr.svg"
   inkscape:version="1.4.2 (ebf0e940, 2025-05-08)"
   width="26"
   height="29.018393"
   xmlns:inkscape="http://www.inkscape.org/namespaces/inkscape"
   xmlns:sodipodi="http://sodipodi.sourceforge.net/DTD/sodipodi-0.dtd"
   xmlns="http://www.w3.org/2000/svg"
   xmlns:svg="http://www.w3.org/2000/svg"><defs
   id="defs3" /><sodipodi:namedview
   id="namedview3"
   pagecolor="#ffffff"
   bordercolor="#000000"
   borderopacity="0.25"
   inkscape:showpageshadow="2"
   inkscape:pageopacity="0.0"
   inkscape:pagecheckerboard="0"
   inkscape:deskcolor="#d1d1d1"
   inkscape:zoom="21.660484"
   inkscape:cx="5.0552887"
   inkscape:cy="4.2935329"
   inkscape:window-width="1712"
   inkscape:window-height="971"
   inkscape:window-x="0"
   inkscape:window-y="39"
   inkscape:window-maximized="1"
   inkscape:current-layer="Icons" />
<style
   type="text/css"
   id="style1">
	.st0{fill:none;stroke:#00a6bd000000000000;stroke-width:2;stroke-linecap:round;stroke-linejoin:round;stroke-miterlimit:10;}
</style>

<path
   id="path2"
   style="baseline-shift:baseline;display:inline;overflow:visible;opacity:1;vector-effect:none;fill:#00a6bd;fill-opacity:1;stroke-linecap:round;stroke-linejoin:round;stroke-miterlimit:10;enable-background:accumulate;stop-color:#000000;stop-opacity:1"
   d="M 16.349609,0.02034496 C 11.801478,-0.20151514 8.53069,1.379018 7.09375,5.3582357 c -0.07055,0.093428 5.466943,0.9916925 5.888287,0.7958392 4.636882,-2.0431046 6.634377,0.120186 7.779682,1.6436139 0.707987,1.5079789 1.141333,2.9522012 0.707031,4.5898442 -0.297416,1.148358 -1.268172,2.563357 -2.774711,3.506811 -1.269302,0.764977 -2.665346,0.899473 -5.580758,-0.0947 l -1.53811,0.298692 C 10.965049,16.215217 10.102693,16.411583 9.4525685,16.5516 8.3988513,16.688292 8.1046988,16.7526 7.1061486,16.894888 6.4101008,17.023611 5.4982198,17.067738 5.5,17.162923 l 0.00391,0.859375 -0.099609,1.601563 v 0.002 c -0.2626722,2.773122 2.4402276,4.943518 5.083984,4.15039 0.02106,-0.0065 0.04191,-0.01363 0.0625,-0.02148 0.0019,-7e-4 -0.646232,0.25464 0.0059,-0.002 0.991011,-0.642082 2.401256,-0.800798 3.5625,-1.117187 1.406387,-0.439496 2.285156,-1.757422 2.285156,-3.169922 -6.48e-4,-0.248681 0.200538,-0.450741 0.449219,-0.451172 0.248681,4.31e-4 0.449866,0.202492 0.449218,0.451172 0,1.7875 -1.120448,3.468792 -2.914062,4.029296 -0.0058,0.0014 -0.01169,0.0027 -0.01758,0.0039 l -3.298828,0.90039 c -0.148738,0.04066 -1.056641,3.44336 -1.056641,3.44336 C 9.906299,28.45549 10.377446,29.018299 11,29.018392 h 12 c 0.655202,-3.68e-4 1.133075,-0.620154 0.966797,-1.253906 l -1,-3.800782 -0.0039,-0.01562 C 22.149458,21.055901 22.776758,17.947688 24.441406,15.358236 25.449428,13.790203 26,11.903968 26,9.9187829 26,4.6541763 21.587743,0.24768046 16.349609,0.02034496 Z"
   sodipodi:nodetypes="ccccccccccccccccccccccccccccccssc" /><path
   id="path1"
   style="baseline-shift:baseline;display:inline;overflow:visible;opacity:1;vector-effect:none;fill:#00a6bd;fill-opacity:1;stroke-linecap:round;stroke-linejoin:round;stroke-miterlimit:10;enable-background:accumulate;stop-color:#000000;stop-opacity:1"
   d="M 3.140625,5.3113607 C 1.4729336,5.3430524 0,6.5613604 0,8.2176109 v 5.9003901 c 0,1.811111 1.6925578,3.037339 3.3828125,2.896485 0.02616,-0.0022 0.052222,-0.0055 0.078125,-0.0098 l 8.0000005,-1.298828 -0.06055,0.0039 c 0.135193,-0.01554 0.369662,-0.05828 0.591797,-0.166015 0.659577,-0.202253 1.401766,-0.205285 2.18164,0.02148 0.592856,0.231148 1.208526,0.353516 1.826172,0.353516 3.109379,0 5.604388,-2.917723 4.875,-6.1132821 C 20.483598,7.9877405 18.996463,6.5176411 17.0957,6.1374885 c -1.251431,-0.2502862 -2.464474,-0.00311 -3.443359,0.4863282 -0.01651,0.00801 -0.03279,0.016481 -0.04883,0.025391 -0.441752,0.25243 -1.052018,0.3205812 -1.552735,0.1328125 -0.02521,-0.0055 -0.05061,-0.010055 -0.07617,-0.013628 -0.05198,-0.028949 -0.181964,-0.1314614 -0.486328,-0.1484375 L 3.5605469,5.3308919 c -0.027844,-0.00444 -0.055864,-0.0077 -0.083984,-0.00977 C 3.3640324,5.3124701 3.2518044,5.3092479 3.140625,5.3113607 Z M 16,9.0183919 c 1.092725,0 2,0.907275 2,2.0000001 0,1.092725 -0.907275,2 -2,2 -1.092725,0 -2,-0.907275 -2,-2 0,-1.0927251 0.907275,-2.0000001 2,-2.0000001 z" />


</svg>
