<?xml version="1.0" encoding="UTF-8" standalone="no"?>
<!-- Uploaded to: SVG Repo, www.svgrepo.com, Generator: SVG Repo Mixer Tools -->

<svg
   version="1.1"
   id="Icons"
   viewBox="0 0 32 32"
   xml:space="preserve"
   sodipodi:docname="vr-glasses-goggles-headset-head-svgrepo-com.svg"
   inkscape:version="1.4.2 (ebf0e940, 2025-05-08)"
   xmlns:inkscape="http://www.inkscape.org/namespaces/inkscape"
   xmlns:sodipodi="http://sodipodi.sourceforge.net/DTD/sodipodi-0.dtd"
   xmlns="http://www.w3.org/2000/svg"
   xmlns:svg="http://www.w3.org/2000/svg"><defs
   id="defs3" /><sodipodi:namedview
   id="namedview3"
   pagecolor="#ffffff"
   bordercolor="#000000"
   borderopacity="0.25"
   inkscape:showpageshadow="2"
   inkscape:pageopacity="0.0"
   inkscape:pagecheckerboard="0"
   inkscape:deskcolor="#d1d1d1"
   inkscape:zoom="14.705815"
   inkscape:cx="14.518066"
   inkscape:cy="14.348066"
   inkscape:window-width="1712"
   inkscape:window-height="971"
   inkscape:window-x="0"
   inkscape:window-y="39"
   inkscape:window-maximized="1"
   inkscape:current-layer="Icons" />
<style
   type="text/css"
   id="style1">
	.st0{fill:none;stroke:#00a6bd000000000000;stroke-width:2;stroke-linecap:round;stroke-linejoin:round;stroke-miterlimit:10;}
</style>

<path
   id="path2"
   style="baseline-shift:baseline;display:inline;overflow:visible;opacity:1;vector-effect:none;stroke-linecap:round;stroke-linejoin:round;stroke-miterlimit:10;enable-background:accumulate;stop-color:#000000;stop-opacity:1;fill:#00a6bd;fill-opacity:1"
   d="M 18.349609,2.0019531 C 13.801478,1.780093 10.53069,3.3606261 9.09375,7.3398438 c -0.1882105,0.5199483 5.643434,1.0946456 6.226562,0.8105468 4.636882,-2.0431046 6.122731,0.4206976 7.441407,1.6289063 0.503095,1.8389591 0.92068,2.3375241 0.707031,4.5898441 -0.02948,0.943466 -1.346977,2.45303 -2.853516,3.396484 -1.285063,0.96987 -2.586541,1.0098 -5.501953,0.01563 l -1.648437,0.314453 c -0.610122,0.116878 -1.976828,0.297483 -2.626953,0.4375 C 9.7841738,18.6699 10.025894,18.560837 9.0273438,18.703125 8.331296,18.831848 7.4982198,18.828693 7.5,19.144531 l 0.00391,0.859375 -0.099609,1.601563 v 0.002 c -0.2626722,2.773122 2.4402276,4.943518 5.0839841,4.15039 0.02106,-0.0065 0.04191,-0.01363 0.0625,-0.02148 0.0019,-7e-4 -0.646232,0.25464 0.0059,-0.002 0.991011,-0.642082 2.401256,-0.800798 3.5625,-1.117187 1.406387,-0.439496 2.285156,-1.757422 2.285156,-3.169922 -6.48e-4,-0.248681 0.200538,-0.450741 0.449219,-0.451172 0.248681,4.31e-4 0.449866,0.202492 0.449218,0.451172 0,1.7875 -1.120448,3.468792 -2.914062,4.029296 -0.0058,0.0014 -0.01169,0.0027 -0.01758,0.0039 l -3.298828,0.90039 c -0.148738,0.04066 -1.056641,3.44336 -1.056641,3.44336 C 11.906299,30.437098 12.377446,30.999907 13,31 h 12 c 0.655202,-3.68e-4 1.133075,-0.620154 0.966797,-1.253906 l -1,-3.800782 -0.0039,-0.01562 C 24.149458,23.037509 24.776758,19.929296 26.441406,17.339844 27.449428,15.771811 28,13.885576 28,11.900391 28,6.6357844 23.587743,2.2292886 18.349609,2.0019531 Z"
   sodipodi:nodetypes="ccccccccccccccccccccccccccccccssc" /><path
   id="path1"
   style="baseline-shift:baseline;display:inline;overflow:visible;opacity:1;vector-effect:none;stroke-linecap:round;stroke-linejoin:round;stroke-miterlimit:10;enable-background:accumulate;stop-color:#000000;stop-opacity:1;fill:#00a6bd;fill-opacity:1"
   d="M 5.140625 7.2929688 C 3.4729336 7.3246605 2 8.5429685 2 10.199219 L 2 16.099609 C 2 17.91072 3.6925578 19.136948 5.3828125 18.996094 C 5.4089725 18.993894 5.4350345 18.990628 5.4609375 18.986328 L 13.460938 17.6875 L 13.400391 17.691406 C 13.535584 17.675863 13.770053 17.633122 13.992188 17.525391 C 14.651765 17.323138 15.393954 17.320106 16.173828 17.546875 C 16.766684 17.778023 17.382354 17.900391 18 17.900391 C 21.109379 17.900391 23.604388 14.982668 22.875 11.787109 C 22.483601 9.9693926 20.996466 8.4992932 19.095703 8.1191406 C 17.844272 7.8688544 16.631229 8.1160306 15.652344 8.6054688 C 15.635834 8.6134788 15.619556 8.6219494 15.603516 8.6308594 C 15.161764 8.8832894 14.551498 8.9514406 14.050781 8.7636719 C 14.025571 8.7581319 14.000169 8.753573 13.974609 8.75 C 13.922627 8.7210506 13.792645 8.6185386 13.488281 8.6015625 L 5.5605469 7.3125 C 5.5327029 7.30806 5.5046825 7.3048044 5.4765625 7.3027344 C 5.3640324 7.2940782 5.2518044 7.290856 5.140625 7.2929688 z M 18 11 C 19.092725 11 20 11.907275 20 13 C 20 14.092725 19.092725 15 18 15 C 16.907275 15 16 14.092725 16 13 C 16 11.907275 16.907275 11 18 11 z " />


</svg>
