<?xml version="1.0" encoding="utf-8"?>
<svg xmlns="http://www.w3.org/2000/svg" viewBox="184.163 162.2226 164.297 190.2866" width="164.297px" height="190.287px" preserveAspectRatio="none"><g id="object-0"><path d="M 340.811 183.171 C 345.6 187.723 348.011 191.371 348.46 197.979 C 348.216 204.371 345.732 209.243 341.311 213.796 C 335.245 218.569 327.22 224.796 319.311 224.796 C 319.311 225.456 319.311 226.116 319.311 226.796 C 317.81 227.894 316.258 228.924 314.686 229.921 C 305.522 236.19 298.923 246.451 296.589 257.409 C 295.516 266.643 295.943 275.809 298.311 284.796 C 299.209 284.943 300.106 285.09 301.03 285.241 C 316.065 287.944 334.012 292.339 343.874 304.921 C 344.715 306.194 345.532 307.484 346.311 308.796 C 346.786 309.58 347.26 310.363 347.749 311.171 C 348.923 316.648 348.224 321.894 345.811 326.921 C 331.437 343.451 308.869 349.513 287.618 351.569 C 255.918 353.746 217.464 353.847 191.811 332.421 C 187.023 327.869 184.612 324.22 184.163 317.612 C 184.407 311.208 187.082 306.499 191.311 301.796 C 201.71 292.597 220.163 284.796 234.311 284.796 C 238.397 270.751 237.377 257.012 230.909 243.968 C 224.928 233.498 215.988 226.474 204.917 221.936 C 197.07 218.501 188.867 212.796 185.311 204.796 C 183.871 198.804 183.759 194.022 186.983 188.659 C 196.339 175.533 213.161 170.267 228.311 166.796 C 229.01 166.632 229.709 166.468 230.429 166.3 C 264.25 158.817 313.208 160.115 340.811 183.171 Z M 247.311 171.796 C 248.301 174.392 248.301 174.392 250.311 176.796 C 253.639 177.57 253.639 177.57 257.499 177.46 C 258.547 177.467 258.547 177.467 259.617 177.474 C 261.093 177.478 262.569 177.469 264.045 177.448 C 266.305 177.421 268.56 177.447 270.819 177.479 C 272.254 177.476 273.689 177.47 275.124 177.46 C 276.43 177.454 277.736 177.449 279.081 177.443 C 282.501 177.127 282.501 177.127 284.261 174.254 C 284.781 173.037 284.781 173.037 285.311 171.796 C 281.524 170.915 278.013 170.667 274.128 170.663 C 272.953 170.662 271.778 170.66 270.567 170.659 C 269.348 170.663 268.13 170.667 266.874 170.671 C 265.659 170.667 264.444 170.663 263.192 170.659 C 262.016 170.66 260.84 170.662 259.628 170.663 C 258.56 170.664 257.492 170.665 256.392 170.666 C 253.29 170.797 250.359 171.221 247.311 171.796 Z M 228.186 174.483 C 227.439 174.663 226.691 174.842 225.921 175.027 C 214.55 177.872 199.602 182.483 193.089 193.007 C 191.722 196.153 191.763 198.444 192.311 201.796 C 196.366 210.642 206.33 215.301 214.987 218.671 C 231.443 224.24 248.125 226.201 265.436 226.108 C 266.152 226.107 266.867 226.105 267.604 226.103 C 291.127 226.002 318.5 223.585 337.007 207.288 C 339.45 204.494 340.264 202.157 340.749 198.483 C 340.179 193.677 338.751 191.158 335.311 187.796 C 326.182 180.97 315.417 177.117 304.436 174.483 C 303.723 174.312 303.009 174.14 302.274 173.963 C 298.217 173.05 294.467 172.62 290.311 172.796 C 290.538 173.373 290.765 173.951 290.999 174.546 C 291.311 176.796 291.311 176.796 289.874 178.796 C 289.358 179.456 288.843 180.116 288.311 180.796 C 288.311 182.116 288.311 183.436 288.311 184.796 C 286.991 185.126 285.671 185.456 284.311 185.796 C 283.981 187.116 283.651 188.436 283.311 189.796 C 284.544 189.966 285.776 190.136 287.046 190.311 C 309.281 193.516 309.281 193.516 318.311 198.796 C 319.061 200.921 319.061 200.921 319.311 202.796 C 321.261 202.601 321.261 202.601 323.311 201.796 C 324.596 199.812 324.596 199.812 325.311 197.796 C 320.869 192.243 314.953 190.019 308.311 187.796 C 307.321 187.796 306.331 187.796 305.311 187.796 C 305.971 185.816 306.631 183.836 307.311 181.796 C 313.564 182.905 318.548 184.679 324.147 187.675 C 326.394 188.91 326.394 188.91 329.311 189.796 C 331.532 193.769 331.784 197.31 331.311 201.796 C 328.486 208.217 323.529 210.342 317.311 212.796 C 285.59 224.391 243.826 223.964 212.311 211.796 C 207.398 209.294 203.387 207.086 201.311 201.796 C 200.848 196.703 201.259 193.892 204.311 189.796 C 215.323 182.294 228.381 179.857 241.311 177.796 C 241.641 176.146 241.971 174.496 242.311 172.796 C 237.399 172.588 232.938 173.341 228.186 174.483 Z M 255.311 183.796 C 255.971 185.446 256.631 187.096 257.311 188.796 C 263.251 188.796 269.191 188.796 275.311 188.796 C 275.971 187.146 276.631 185.496 277.311 183.796 C 269.799 182.851 262.824 182.851 255.311 183.796 Z M 208.311 195.796 C 207.449 197.785 207.449 197.785 207.311 199.796 C 208.478 201.629 208.478 201.629 210.311 202.796 C 211.301 202.796 212.291 202.796 213.311 202.796 C 213.394 202.177 213.476 201.558 213.561 200.921 C 214.311 198.796 214.311 198.796 215.901 197.819 C 226.702 193.233 237.678 190.916 249.311 189.796 C 248.651 187.816 247.991 185.836 247.311 183.796 C 235.268 183.796 217.258 187.364 208.311 195.796 Z M 260.311 195.796 C 260.641 201.736 260.971 207.676 261.311 213.796 C 264.611 213.796 267.911 213.796 271.311 213.796 C 271.806 204.886 271.806 204.886 272.311 195.796 C 268.351 195.796 264.391 195.796 260.311 195.796 Z M 220.311 203.796 C 220.311 204.456 220.311 205.116 220.311 205.796 C 230.997 210.749 242.516 213.417 254.311 212.796 C 254.339 211.067 254.358 209.338 254.374 207.608 C 254.386 206.645 254.397 205.682 254.409 204.69 C 254.316 201.94 253.933 199.471 253.311 196.796 C 241.779 196.078 230.56 198.455 220.311 203.796 Z M 280.311 196.796 C 278.04 202.19 278.107 207.057 278.311 212.796 C 290.107 213.417 301.625 210.749 312.311 205.796 C 311.654 202.661 311.654 202.661 309.194 201.698 C 299.537 198.32 290.557 196.46 280.311 196.796 Z M 230.311 229.796 C 230.721 230.296 231.13 230.797 231.552 231.313 C 240.029 241.83 245.2 255.759 244.593 269.401 C 242.744 285.138 237.468 296.577 226.311 307.796 C 225.755 308.367 225.198 308.938 224.624 309.526 C 223.535 310.631 222.426 311.717 221.311 312.796 C 245.616 324.009 282.172 323.529 307.124 314.608 C 308.529 314.027 309.93 313.433 311.311 312.796 C 310.672 312.177 310.033 311.558 309.374 310.921 C 308.351 309.881 307.331 308.839 306.311 307.796 C 305.26 306.756 305.26 306.756 304.186 305.694 C 292.926 294.016 288.883 280.733 288.948 264.855 C 289.195 252.235 293.068 243.036 300.311 232.796 C 300.971 231.806 301.631 230.816 302.311 229.796 C 301.388 229.937 300.465 230.079 299.515 230.225 C 289.268 231.665 279.235 232.108 268.893 232.057 C 266.314 232.046 263.735 232.057 261.155 232.069 C 250.715 232.077 240.638 231.379 230.311 229.796 Z M 197.311 306.796 C 194.348 310.243 192.472 312.43 191.936 316.983 C 192.42 321.897 193.808 324.372 197.311 327.796 C 222.528 346.651 261.198 347.575 290.999 343.546 C 302.919 341.755 314.05 339.177 324.936 333.858 C 325.6 333.535 326.264 333.211 326.948 332.877 C 331.109 330.726 334.123 328.297 337.311 324.796 C 337.91 324.177 338.508 323.558 339.124 322.921 C 340.921 319.705 340.749 317.42 340.311 313.796 C 335.874 304.114 325.395 300.152 316.021 296.661 C 312.144 295.285 308.388 294.34 304.311 293.796 C 305.792 297.698 307.69 298.853 311.311 300.796 C 314.568 302.082 317.855 303.249 321.155 304.417 C 325.04 306.114 328.12 308.15 330.624 311.608 C 331.915 315.718 331.964 319.355 330.179 323.296 C 323.5 332.238 308.644 334.635 298.311 336.796 C 297.816 333.331 297.816 333.331 297.311 329.796 C 298.183 329.649 299.054 329.502 299.952 329.351 C 308.257 327.787 316.356 325.861 323.311 320.796 C 324.676 318.222 324.676 318.222 325.311 315.796 C 323.999 314.233 323.999 314.233 322.311 312.796 C 321.321 312.796 320.331 312.796 319.311 312.796 C 319.219 313.724 319.219 313.724 319.124 314.671 C 318.311 316.796 318.311 316.796 316.05 317.808 C 315.146 318.134 314.242 318.46 313.311 318.796 C 312.577 319.114 311.842 319.433 311.085 319.761 C 285.857 329.991 246.765 329.991 221.538 319.761 C 220.436 319.283 220.436 319.283 219.311 318.796 C 218.408 318.47 217.504 318.144 216.573 317.808 C 214.311 316.796 214.311 316.796 213.499 314.671 C 213.437 314.052 213.375 313.433 213.311 312.796 C 211.361 312.991 211.361 312.991 209.311 313.796 C 208.027 315.78 208.027 315.78 207.311 317.796 C 215.656 328.227 231.689 330.059 244.154 331.587 C 247.539 331.915 250.916 331.919 254.311 331.893 C 255.033 331.892 255.754 331.891 256.497 331.889 C 258.768 331.884 261.04 331.871 263.311 331.858 C 264.865 331.853 266.418 331.849 267.972 331.845 C 271.752 331.834 275.531 331.817 279.311 331.796 C 279.311 334.106 279.311 336.416 279.311 338.796 C 229.656 339.632 229.656 339.632 208.632 328.065 C 206.267 326.682 206.267 326.682 203.311 325.796 C 201.091 321.822 200.839 318.281 201.311 313.796 C 204.493 306.564 211.15 304.439 218.081 301.702 C 219.775 301.047 221.475 300.407 223.182 299.788 C 225.44 298.736 226.754 297.729 228.311 295.796 C 228.311 295.136 228.311 294.476 228.311 293.796 C 218.222 293.796 204.826 300.516 197.311 306.796 Z" fill="#00a6bd" style="stroke-width: 1;"/><path d="M 272.311 262.796 C 274.621 262.796 276.931 262.796 279.311 262.796 C 279.311 265.766 279.311 268.736 279.311 271.796 C 277.001 271.796 274.691 271.796 272.311 271.796 C 272.311 268.826 272.311 265.856 272.311 262.796 Z" fill="#00a6bd" style="stroke-width: 1;"/><path d="M 273.311 247.796 C 275.621 248.126 277.931 248.456 280.311 248.796 C 280.354 251.129 280.352 253.463 280.311 255.796 C 279.311 256.796 279.311 256.796 275.749 256.858 C 274.615 256.838 273.48 256.817 272.311 256.796 C 272.641 253.826 272.971 250.856 273.311 247.796 Z" fill="#00a6bd" style="stroke-width: 1;"/><path d="M 253.311 262.796 C 255.621 262.796 257.931 262.796 260.311 262.796 C 260.311 265.766 260.311 268.736 260.311 271.796 C 258.312 271.838 256.311 271.837 254.311 271.796 C 253.311 270.796 253.311 270.796 253.214 268.948 C 253.246 266.897 253.279 264.847 253.311 262.796 Z" fill="#00a6bd" style="stroke-width: 1;"/><path d="M 259.311 247.796 C 259.641 250.766 259.971 253.736 260.311 256.796 C 258.001 256.796 255.691 256.796 253.311 256.796 C 252.981 254.156 252.651 251.516 252.311 248.796 C 254.802 248.109 256.69 247.796 259.311 247.796 Z" fill="#00a6bd" style="stroke-width: 1;"/><path d="M 272.311 277.796 C 274.644 277.753 276.978 277.755 279.311 277.796 C 280.311 278.796 280.311 278.796 280.374 282.358 C 280.353 283.493 280.333 284.627 280.311 285.796 C 278.001 285.796 275.691 285.796 273.311 285.796 C 272.981 283.156 272.651 280.516 272.311 277.796 Z" fill="#00a6bd" style="stroke-width: 1;"/><path d="M 253.311 277.796 C 255.621 277.796 257.931 277.796 260.311 277.796 C 260.436 283.546 260.436 283.546 259.311 285.796 C 257.001 285.796 254.691 285.796 252.311 285.796 C 252.186 280.046 252.186 280.046 253.311 277.796 Z" fill="#00a6bd" style="stroke-width: 1;"/><path d="M 282.311 291.796 C 282.641 293.776 282.971 295.756 283.311 297.796 C 281.001 298.456 278.691 299.116 276.311 299.796 C 275.055 296.89 274.311 295 274.311 291.796 C 277.598 290.996 279.022 290.699 282.311 291.796 Z" fill="#00a6bd" style="stroke-width: 1;"/><path d="M 251.311 290.796 C 253.621 291.126 255.931 291.456 258.311 291.796 C 257.981 294.436 257.651 297.076 257.311 299.796 C 254.968 299.54 252.633 299.203 250.311 298.796 C 249.311 296.796 249.311 296.796 250.249 293.671 C 250.775 292.248 250.775 292.248 251.311 290.796 Z" fill="#00a6bd" style="stroke-width: 1;"/><path d="M 257.311 234.796 C 257.641 237.106 257.971 239.416 258.311 241.796 C 256.001 242.456 253.691 243.116 251.311 243.796 C 250.651 241.156 249.991 238.516 249.311 235.796 C 253.311 234.796 253.311 234.796 257.311 234.796 Z" fill="#00a6bd" style="stroke-width: 1;"/><path d="M 276.311 234.796 C 278.621 235.126 280.931 235.456 283.311 235.796 C 283.056 238.139 282.719 240.474 282.311 242.796 C 280.311 243.796 280.311 243.796 277.186 242.858 C 276.238 242.508 275.289 242.157 274.311 241.796 C 274.971 239.486 275.631 237.176 276.311 234.796 Z" fill="#00a6bd" style="stroke-width: 1;"/><path d="M 294.311 177.796 C 296.951 178.126 299.591 178.456 302.311 178.796 C 302.056 181.139 301.719 183.474 301.311 185.796 C 298.45 187.227 296.378 186.396 293.311 185.796 C 293.641 183.156 293.971 180.516 294.311 177.796 Z" fill="#00a6bd" style="stroke-width: 1;"/><path d="M 288.374 330.733 C 289.828 330.764 289.828 330.764 291.311 330.796 C 291.641 333.106 291.971 335.416 292.311 337.796 C 290.001 338.126 287.691 338.456 285.311 338.796 C 284.931 336.47 284.599 334.135 284.311 331.796 C 285.311 330.796 285.311 330.796 288.374 330.733 Z" fill="#00a6bd" style="stroke-width: 1;"/><path d="M 285.311 302.796 C 285.971 304.446 286.631 306.096 287.311 307.796 C 284.999 309.358 284.999 309.358 282.311 310.796 C 281.321 310.466 280.331 310.136 279.311 309.796 C 278.981 308.146 278.651 306.496 278.311 304.796 C 281.311 302.796 281.311 302.796 285.311 302.796 Z" fill="#00a6bd" style="stroke-width: 1;"/><path d="M 247.311 302.796 C 250.281 303.291 250.281 303.291 253.311 303.796 C 253.936 305.608 253.936 305.608 254.311 307.796 C 253.321 309.281 253.321 309.281 252.311 310.796 C 250.291 310.194 248.29 309.523 246.311 308.796 C 245.981 308.136 245.651 307.476 245.311 306.796 C 246.249 304.671 246.249 304.671 247.311 302.796 Z" fill="#00a6bd" style="stroke-width: 1;"/></g></svg>