<?xml version="1.0" encoding="UTF-8" standalone="no"?>
<!-- Created with Inkscape (http://www.inkscape.org/) -->

<svg
   width="73.375923mm"
   height="73.351166mm"
   viewBox="0 0 73.375923 73.351166"
   version="1.1"
   id="svg1"
   inkscape:version="1.4.2 (ebf0e940, 2025-05-08)"
   sodipodi:docname="archery.svg"
   xmlns:inkscape="http://www.inkscape.org/namespaces/inkscape"
   xmlns:sodipodi="http://sodipodi.sourceforge.net/DTD/sodipodi-0.dtd"
   xmlns="http://www.w3.org/2000/svg"
   xmlns:svg="http://www.w3.org/2000/svg">
  <sodipodi:namedview
     id="namedview1"
     pagecolor="#ffffff"
     bordercolor="#000000"
     borderopacity="0.25"
     inkscape:showpageshadow="2"
     inkscape:pageopacity="0.0"
     inkscape:pagecheckerboard="0"
     inkscape:deskcolor="#d1d1d1"
     inkscape:document-units="mm"
     inkscape:zoom="0.023162177"
     inkscape:cx="151.10842"
     inkscape:cy="129.5215"
     inkscape:window-width="896"
     inkscape:window-height="245"
     inkscape:window-x="0"
     inkscape:window-y="39"
     inkscape:window-maximized="0"
     inkscape:current-layer="layer1" />
  <defs
     id="defs1">
    <clipPath
       clipPathUnits="userSpaceOnUse"
       id="clipPath4706">
      <path
         d="M 0,276 H 276 V 0 H 0 Z"
         transform="translate(-65.971502,-138.012)"
         id="path4706" />
    </clipPath>
    <clipPath
       clipPathUnits="userSpaceOnUse"
       id="clipPath4704">
      <path
         d="M 0,276 H 276 V 0 H 0 Z"
         transform="translate(-206.05726,-117.93321)"
         id="path4704" />
    </clipPath>
  </defs>
  <g
     inkscape:label="Layer 1"
     inkscape:groupmode="layer"
     id="layer1"
     transform="translate(-71.702099,-111.91875)">
    <path
       id="path4703"
       d="m 0,0 c -0.222,0.164 -0.697,0.556 -1.022,0.795 -1.308,0.965 -2.439,2.047 -4.119,2.529 -0.19,-0.056 -1.824,-3.333 -1.807,-3.53 0.091,-1.055 7.25,-5.134 7.062,-9.54 -0.247,-5.784 -8.343,-5.199 -12.383,-4.797 -0.225,-0.614 4.303,-6.167 5.024,-6.361 1.075,-0.29 3.289,1.504 4.116,2.267 2.926,2.699 5.489,7.872 5.859,11.823 C 2.836,-5.682 2.791,-2.44 2.153,-1.65 2.003,-1.465 0.403,-0.298 0,0 M 35.233,100.094 C 33.781,95.998 29.181,88.895 26.843,84.819 23.674,79.294 20.066,74.241 17.445,68.452 20.757,65.406 21.878,61.912 20.074,57.756 16.67,49.913 11.447,41.624 7.529,33.919 5.891,30.697 4.325,27.39 2.801,24.113 5.078,22.664 7.334,20.687 9.6,19.281 c 5.982,-3.711 7.89,-4.83 14.941,-6.007 1.938,-0.323 -2.051,-20.265 -4.085,-20.033 -4.599,0.526 -3.831,0.505 -8.385,1.459 -0.09,-8.546 -4.462,-16.952 -11.4,-21.896 4.076,-5.41 10.736,-7.287 6.305,-15.056 -2.024,-3.55 -5.262,-6.95 -9.734,-6.272 -4.173,0.633 -10.641,9.855 -14.109,13.084 -0.867,0.807 -2.07,1.933 -3.189,2.324 l -0.715,-13.59 c -1.048,-9.325 -1.534,-19.271 -2.675,-28.49 -0.133,-1.075 -0.308,-2.285 -0.684,-3.524 -1.314,-4.338 -6.135,-6.283 -10.2,-4.463 -6.15,3.69 -14.749,6.11 -20.669,9.834 -3.621,2.279 -4.118,6.037 -2.801,9.837 3.997,11.528 10.961,23.194 15.303,34.874 0.571,1.538 1.405,2.965 2.427,4.249 1.3,1.634 2.609,3.26 3.592,5.093 -0.064,2.603 1.726,6.67 1.197,9.168 -0.967,4.568 -6.852,6.407 -4.335,12.712 L 15.999,93.94 c 0.222,0.405 0.067,0.576 -0.162,0.898 -1.265,1.769 -4.47,2.681 -5.795,5.44 -2.006,4.176 1.268,9.04 5.931,8.677 1.68,-0.131 5.296,-2.694 6.568,-2.32 0.466,0.137 1.756,1.653 2.841,2.192 5.119,2.538 9.469,0.301 10.472,-5.347 0.285,-1.599 -0.177,-2.134 -0.621,-3.386"
       style="fill:#ff342d;fill-opacity:1;fill-rule:nonzero;stroke:none"
       transform="matrix(0.35277776,0,0,-0.35277776,132.39854,155.6847)"
       clip-path="url(#clipPath4704)" />
    <path
       id="path4705"
       d="m 0,0 c 2.848,-1.363 5.76,-2.7 8.618,-4.044 l 36.63,-17.242 c 1.797,2.793 6.099,6.654 5,10.01 L 28.471,48.926 C 9.564,40.694 -5.622,25.366 -15.041,7.008 -15.041,7.008 -2.059,0.986 0,0 M 81.244,56.272 C 73.286,58.654 61.613,57.93 53.449,56.506 51.073,56.091 36.671,52.754 36.289,51.093 L 57.912,-7.826 c 1.423,-2.248 7.005,-2.838 9.351,-4.665 L 96.642,50.11 c -4.908,2.075 -10.301,4.636 -15.398,6.162 M 7.347,74.296 11.32,100.015 c 0.115,0.743 0.311,1.476 0.636,2.155 0.339,0.709 0.725,1.207 1.303,1.521 1.006,0.547 2.265,0.291 3.095,-0.498 L 34.776,83.585 c 0.504,-0.536 0.824,-1.246 0.776,-1.98 -0.227,-3.53 -7.571,-2.054 -8.519,-4.104 -0.485,-1.046 3.754,-13.089 4.516,-13.433 0.279,-0.126 0.842,0.225 1.481,0.407 14.623,4.172 27.736,7.866 43.155,5.798 10.242,-1.374 18.821,-6.043 28.028,-10.168 2.691,-1.205 5.955,-0.145 8.18,-2.815 5.337,-6.404 -3.563,-13.575 -8.136,-10.754 l -29.855,-63.12 -0.021,-1.034 7.922,-21.767 c -0.605,-10.308 -11.504,-1.029 -15.944,-2.319 -4.48,-1.303 -6.539,-17.143 -14.452,-9.34 -2.786,7.177 -5.365,14.63 -8.459,21.575 -15.32,6.981 -30.38,14.568 -45.725,21.492 -4.936,2.227 -10.131,4.028 -15.047,6.512 -0.706,0.356 -2.308,1.73 -2.449,1.681 -0.081,-0.028 -0.58,-0.993 -1.04,-1.372 -6.037,-4.972 -15.613,2.945 -8.811,9.21 0.846,0.778 2.185,0.945 2.783,1.768 2.088,2.875 3.923,8.849 5.805,12.338 9.505,17.62 25.884,31.812 44.418,39.032 0.513,0.727 -3.932,11.542 -4.897,13.034 C 15.558,72.418 10.814,68.231 8.223,71.082 7.442,71.94 7.17,73.148 7.347,74.296"
       style="fill:#ff342d;fill-opacity:1;fill-rule:nonzero;stroke:none"
       transform="matrix(0.35277776,0,0,-0.35277776,82.9794,148.60135)"
       clip-path="url(#clipPath4706)" />
  </g>
</svg>
