<?xml version="1.0" encoding="UTF-8" standalone="no"?>
<!-- Created with Inkscape (http://www.inkscape.org/) -->

<svg
   width="73.337059mm"
   height="64.836639mm"
   viewBox="0 0 73.337059 64.836639"
   version="1.1"
   id="svg1"
   inkscape:version="1.4.2 (ebf0e940, 2025-05-08)"
   sodipodi:docname="ballgames.svg"
   xmlns:inkscape="http://www.inkscape.org/namespaces/inkscape"
   xmlns:sodipodi="http://sodipodi.sourceforge.net/DTD/sodipodi-0.dtd"
   xmlns="http://www.w3.org/2000/svg"
   xmlns:svg="http://www.w3.org/2000/svg">
  <sodipodi:namedview
     id="namedview1"
     pagecolor="#ffffff"
     bordercolor="#000000"
     borderopacity="0.25"
     inkscape:showpageshadow="2"
     inkscape:pageopacity="0.0"
     inkscape:pagecheckerboard="0"
     inkscape:deskcolor="#d1d1d1"
     inkscape:document-units="mm"
     inkscape:zoom="0.023162177"
     inkscape:cx="-151.10842"
     inkscape:cy="172.69534"
     inkscape:window-width="896"
     inkscape:window-height="245"
     inkscape:window-x="0"
     inkscape:window-y="39"
     inkscape:window-maximized="0"
     inkscape:current-layer="layer1" />
  <defs
     id="defs1">
    <clipPath
       clipPathUnits="userSpaceOnUse"
       id="clipPath3807">
      <path
         d="M 0,276 H 276 V 0 H 0 Z"
         transform="translate(-155.316,-199.8082)"
         id="path3807" />
    </clipPath>
    <clipPath
       clipPathUnits="userSpaceOnUse"
       id="clipPath3805">
      <path
         d="M 0,276 H 276 V 0 H 0 Z"
         transform="translate(-105.86175,-107.15901)"
         id="path3805" />
    </clipPath>
    <clipPath
       clipPathUnits="userSpaceOnUse"
       id="clipPath3803">
      <path
         d="M 0,276 H 276 V 0 H 0 Z"
         transform="translate(-160.73925,-94.452505)"
         id="path3803" />
    </clipPath>
  </defs>
  <g
     inkscape:label="Layer 1"
     inkscape:groupmode="layer"
     id="layer1"
     transform="translate(-146.04993,-104.775)">
    <path
       id="path3802"
       d="m 0,0 25.05,-25.05 c 4.005,-4.005 6.728,-9.18 7.949,-15.108 v 0 l 7.444,-7.444 c 1.159,-1.159 3.321,-0.875 4.83,0.634 l 0.847,0.848 8.846,8.845 0.847,0.848 c 1.509,1.508 1.793,3.671 0.634,4.829 l -7.444,7.444 v 0 c -5.927,1.221 -11.102,3.944 -15.108,7.949 L 8.845,8.845 c -4.139,4.14 -4.892,10.96 -1.948,17.637 l 3.776,8.563 h 10e-4 l -98.641,98.642 c -2.906,2.905 -8.328,2.193 -12.111,-1.59 l -23.174,-23.173 c -3.783,-3.784 -4.495,-9.206 -1.589,-12.111 L -26.2,-1.829 -17.636,1.948 C -10.959,4.892 -4.139,4.139 0,0"
       style="fill:#ff342d;fill-opacity:1;fill-rule:nonzero;stroke:none"
       transform="matrix(0.35277776,0,0,-0.35277776,190.72173,152.56719)"
       clip-path="url(#clipPath3803)" />
    <path
       id="path3804"
       d="m 0,0 c -13.369,-14.671 -29.302,-27.921 -40.633,-42.216 -2.42,-6.356 7.382,-14.687 13.232,-11.089 13.835,11.312 26.234,27.389 40.276,40.43 z"
       style="fill:#ff342d;fill-opacity:1;fill-rule:nonzero;stroke:none"
       transform="matrix(0.35277776,0,0,-0.35277776,171.36217,148.08462)"
       clip-path="url(#clipPath3805)" />
    <path
       id="path3806"
       d="m 0,0 c 1.483,-1.796 7.456,-5.827 7.298,-8.017 l -10.54,-9.827 c -0.387,0.119 -4.488,4.935 -4.505,5.404 C -7.867,-9.177 -1.048,-3.35 0,0 m 6.776,6.573 c 0.066,0.081 1.305,0.068 1.992,0.633 1.474,1.21 9.879,7.829 10.833,7.751 0.381,-0.031 4.485,-4.639 5.422,-5.378 L 13.636,-1.775 C 12.922,0.066 5.494,5.018 6.776,6.573 M 36.66,-3.773 c -2.227,-1.228 -9.55,-10.271 -11.183,-9.848 -0.396,0.103 -5.509,4.989 -5.475,5.448 L 31.324,3.191 Z m 12.05,23.441 c 2.312,0.827 6.707,-2.23 9.218,-2.684 L 43.886,3.065 37.697,8.751 c -0.07,0.772 9.954,10.538 11.013,10.917 M 65.129,11.615 C 66.878,11.82 71.275,6.843 71.046,5.388 70.844,4.1 56.176,-8.941 55.007,-8.671 c -0.821,0.19 -5.673,4.951 -5.637,5.429 2.714,1.669 14.034,14.654 15.759,14.857 m 9.497,-13.967 c 1.203,-0.239 1.469,-3.011 1.669,-4.046 0.293,-1.518 0.998,-5.338 0.574,-6.568 -0.362,-1.048 -9.441,-8.629 -10.244,-8.422 -0.572,0.148 -4.49,4.708 -5.593,5.477 4.138,4.867 10.158,8.39 13.594,13.559 m -3.574,-36.209 c -0.199,-1.157 -8.057,-11.738 -9.018,-11.662 -0.741,1.822 -5.825,4.517 -5.395,6.186 l 10.625,9.894 c 1.08,0.108 3.975,-3.331 3.788,-4.418 M 42.974,-65.286 c -1.252,0.426 -2.95,3.572 -4.14,4.554 l 11.37,10.385 6.235,-6.17 c -2.075,-1.791 -11.502,-9.438 -13.465,-8.769 m 12.52,43.858 c 0.812,-1.392 5.272,-5.325 5.378,-6.391 0.104,-1.04 -9.197,-8.722 -10.537,-10.338 -1.317,-0.001 -6.481,6.168 -6.214,6.548 2.468,0.099 10.24,10.265 11.373,10.181 m -7.193,5.038 c -0.259,-0.756 -9.205,-9.307 -10.293,-9.13 -1.247,0.202 -5.856,4.822 -5.537,6.092 0.198,0.792 9.24,8.066 10.495,9.771 1.84,-0.922 6.045,-4.663 5.335,-6.733 M 27.169,-48.062 c 2.207,0.941 9.566,9.684 10.659,9.786 1.785,0.167 3.806,-5.182 6.2,-5.137 0.225,-1.164 -0.398,-1.278 -0.905,-1.905 -0.882,-1.09 -9.059,-8.912 -9.718,-8.918 -1.579,-0.014 -4.97,4.954 -6.236,6.174 m -5.558,6.372 -6.206,5.138 c 2.012,1.518 8.996,9.994 10.699,10.164 1.178,0.118 4.603,-4.795 6.164,-5.514 z M 9.344,-29.745 c -0.924,0.201 -5.836,4.893 -5.526,6.128 0.163,0.649 9.116,9.082 9.782,9.147 1.288,0.126 5.249,-4.135 6.031,-5.471 -0.047,-0.709 -9.593,-9.956 -10.287,-9.804 m -15.982,-3.69 c 2.3,2.036 4.346,3.693 4.714,3.6 1.041,-0.261 4.273,-5.252 5.538,-6.256 l -4.025,-3.57 5.93,-5.93 c 1.875,1.82 3.292,3.107 3.631,3.153 1.006,0.137 5.558,-5.17 5.304,-6.148 -0.17,-0.656 -1.219,-1.83 -2.685,-3.255 l 6.014,-6.014 c 1.268,1.17 2.536,2.334 3.791,3.498 l 5.429,-6.291 c -0.912,-0.56 -2.085,-1.719 -3.347,-3.08 l 4.353,-4.353 -2.763,-6.265 -3.511,-7.961 c 2.921,0.268 5.857,0.665 8.856,1.365 34.663,8.095 66.548,47.467 52.829,83.626 C 69.829,38.507 26.577,35.356 1.28,13.803 -7.855,6.02 -16.644,-6.26 -21.265,-18.807 Z"
       style="fill:#ff342d;fill-opacity:1;fill-rule:nonzero;stroke:none"
       transform="matrix(0.35277776,0,0,-0.35277776,188.80853,115.40005)"
       clip-path="url(#clipPath3807)" />
  </g>
</svg>
