<?xml version="1.0" encoding="UTF-8" standalone="no"?>
<!-- Created with Inkscape (http://www.inkscape.org/) -->

<svg
   width="73.377342mm"
   height="46.448006mm"
   viewBox="0 0 73.377342 46.448006"
   version="1.1"
   id="svg1"
   inkscape:version="1.4.2 (ebf0e940, 2025-05-08)"
   sodipodi:docname="bike.svg"
   xmlns:inkscape="http://www.inkscape.org/namespaces/inkscape"
   xmlns:sodipodi="http://sodipodi.sourceforge.net/DTD/sodipodi-0.dtd"
   xmlns="http://www.w3.org/2000/svg"
   xmlns:svg="http://www.w3.org/2000/svg">
  <sodipodi:namedview
     id="namedview1"
     pagecolor="#ffffff"
     bordercolor="#000000"
     borderopacity="0.25"
     inkscape:showpageshadow="2"
     inkscape:pageopacity="0.0"
     inkscape:pagecheckerboard="0"
     inkscape:deskcolor="#d1d1d1"
     inkscape:document-units="mm"
     inkscape:zoom="0.023162177"
     inkscape:cx="-2741.5385"
     inkscape:cy="345.39067"
     inkscape:window-width="896"
     inkscape:window-height="245"
     inkscape:window-x="0"
     inkscape:window-y="39"
     inkscape:window-maximized="0"
     inkscape:current-layer="layer1" />
  <defs
     id="defs1">
    <clipPath
       clipPathUnits="userSpaceOnUse"
       id="clipPath387">
      <path
         d="M 0,276 H 276 V 0 H 0 Z"
         transform="translate(-85.292305,-118.5273)"
         id="path387" />
    </clipPath>
  </defs>
  <g
     inkscape:label="Layer 1"
     inkscape:groupmode="layer"
     id="layer1"
     transform="translate(-831.58542,-56.620832)">
    <path
       id="path386"
       d="m 0,0 h 18.693 c -0.269,2.887 -1.204,5.583 -2.455,8.178 -0.56,1.161 -5.102,7.775 -5.609,7.935 0,0 -0.676,-0.242 -1.144,-0.818 z m 94.335,-24.904 c 12.581,-12.833 34.624,-10.643 44.511,4.344 13.443,20.378 -2.563,45.286 -26.042,44.398 l 8.817,-28.782 c 0.125,-6.187 -8.255,-7.686 -10.434,-2.146 l -8.704,27.709 C 84.881,12.459 80.625,-10.92 94.335,-24.904 M 18.693,-10.31 H -11.28 c -2.398,0 -4.68,5.511 -3.241,7.755 L 1.286,21.59 c -23.711,9.831 -48.199,-15.335 -36.85,-38.778 11.947,-24.68 49.015,-19.873 54.257,6.878 m 5.794,46.392 C 23.299,36.361 23.237,35.68 22.663,35.015 20.72,32.759 19.314,29.278 17.448,26.83 22.902,21.727 27.527,15.635 30.149,8.553 c 0.565,-1.525 1.704,-8.489 2.142,-8.489 0.882,0 4.539,-0.061 5.737,-0.061 z m 57.374,7.735 H 33.518 L 49.31,4.523 Z M 25.783,63.148 c -0.375,-0.352 2.284,-9.172 4.189,-9.022 l 59.814,0.134 c 1.424,0.417 10.719,13.953 10.721,15.657 0.002,2.598 -3.172,4.444 -5.49,4.771 -6.194,0.875 -17.915,-1.296 -23.013,0.192 -3.775,1.101 -5.114,7.905 -0.937,9.691 2.194,0.938 22.412,0.831 25.934,0.478 10.794,-1.083 16.727,-12.389 12.593,-22.239 -1.159,-2.761 -6.369,-8.221 -6.401,-10.277 -0.042,-2.623 2.461,-7.797 3.857,-11.98 0.882,-2.64 3.553,-4.302 6.3,-3.86 0.386,0.062 0.746,0.101 1.062,0.096 16.973,-0.28 33.087,-10.602 39.308,-26.491 14.356,-36.665 -25.892,-70.681 -59.809,-50.768 -30.086,17.664 -26.497,58.461 3.791,73.328 L 95.078,41.881 53.686,-7.595 c -1.208,-1.443 -2.896,-2.42 -4.76,-2.688 -5.484,-0.789 -11.444,-0.306 -16.74,-0.306 -5.247,-29.243 -37.325,-45.476 -63.557,-29.471 -32.895,20.072 -22.957,69.341 14.464,75.97 9.551,1.692 16.793,-0.257 25.83,-2.965 1.095,3.044 10.315,13.923 10.115,16.095 -1.188,1.828 -4.637,13.255 -5.475,13.813 -1.89,1.259 -7.517,-0.854 -10.954,1.292 -4.461,2.785 -4.43,10.91 -0.017,10.91 l 34.832,0.053 c 3.293,0 4.593,-7.047 2.124,-9.838 -0.381,-0.431 -1.852,-2.122 -3.774,-2.122 z"
       style="fill:#ff342d;fill-opacity:1;fill-rule:nonzero;stroke:none"
       transform="matrix(0.35277776,0,0,-0.35277776,849.67997,86.714341)"
       clip-path="url(#clipPath387)" />
  </g>
</svg>
