<?xml version="1.0" encoding="UTF-8" standalone="no"?>
<!-- Created with Inkscape (http://www.inkscape.org/) -->

<svg
   width="73.481384mm"
   height="73.37912mm"
   viewBox="0 0 73.481384 73.37912"
   version="1.1"
   id="svg1"
   inkscape:version="1.4.2 (ebf0e940, 2025-05-08)"
   sodipodi:docname="boardgames.svg"
   xmlns:inkscape="http://www.inkscape.org/namespaces/inkscape"
   xmlns:sodipodi="http://sodipodi.sourceforge.net/DTD/sodipodi-0.dtd"
   xmlns="http://www.w3.org/2000/svg"
   xmlns:svg="http://www.w3.org/2000/svg">
  <sodipodi:namedview
     id="namedview1"
     pagecolor="#ffffff"
     bordercolor="#000000"
     borderopacity="0.25"
     inkscape:showpageshadow="2"
     inkscape:pageopacity="0.0"
     inkscape:pagecheckerboard="0"
     inkscape:deskcolor="#d1d1d1"
     inkscape:document-units="mm"
     inkscape:zoom="0.023162177"
     inkscape:cx="151.10842"
     inkscape:cy="129.5215"
     inkscape:window-width="896"
     inkscape:window-height="245"
     inkscape:window-x="0"
     inkscape:window-y="39"
     inkscape:window-maximized="0"
     inkscape:current-layer="layer1" />
  <defs
     id="defs1">
    <clipPath
       clipPathUnits="userSpaceOnUse"
       id="clipPath4069">
      <path
         d="M 0,276 H 276 V 0 H 0 Z"
         transform="translate(-205.99951,-128.2522)"
         id="path4069" />
    </clipPath>
    <clipPath
       clipPathUnits="userSpaceOnUse"
       id="clipPath4067">
      <path
         d="M 0,276 H 276 V 0 H 0 Z"
         transform="translate(-218.60776,-97.655702)"
         id="path4067" />
    </clipPath>
    <clipPath
       clipPathUnits="userSpaceOnUse"
       id="clipPath4065">
      <path
         d="M 0,276 H 276 V 0 H 0 Z"
         transform="translate(-171.41175,-56.748699)"
         id="path4065" />
    </clipPath>
    <clipPath
       clipPathUnits="userSpaceOnUse"
       id="clipPath4063">
      <path
         d="M 0,276 H 276 V 0 H 0 Z"
         transform="translate(-161.8305,-121.0255)"
         id="path4063" />
    </clipPath>
    <clipPath
       clipPathUnits="userSpaceOnUse"
       id="clipPath4061">
      <path
         d="M 0,276 H 276 V 0 H 0 Z"
         transform="translate(-106.614,-71.453402)"
         id="path4061" />
    </clipPath>
  </defs>
  <g
     inkscape:label="Layer 1"
     inkscape:groupmode="layer"
     id="layer1"
     transform="translate(-71.702156,-111.91875)">
    <path
       id="path4060"
       d="m 0,0 c -1.004,3.239 -6.071,5.567 -6.099,5.999 -0.189,2.927 4.292,4.687 1.616,11.638 -1.799,4.67 -6.992,6.525 -7.809,8.777 -1.321,3.641 -7.424,37.884 -7.363,41.484 0.012,0.737 5.771,9.724 6.718,13.133 4.599,16.552 -8.078,33.364 -23.067,33.184 -14.989,0.18 -27.666,-16.632 -23.066,-33.184 0.947,-3.409 6.706,-12.396 6.718,-13.133 0.061,-3.6 -6.043,-37.843 -7.363,-41.484 -0.817,-2.252 -6.011,-4.107 -7.809,-8.777 -2.677,-6.951 1.805,-8.711 1.615,-11.638 -0.028,-0.432 -5.094,-2.76 -6.098,-5.999 -2.366,-7.629 2.796,-14.087 10.245,-16.585 3.965,-1.33 14.711,-2.88 25.758,-2.868 11.047,-0.012 22.038,1.856 25.759,2.868 C -2.665,-14.523 2.366,-7.629 0,0"
       style="fill:#ff342d;fill-opacity:1;fill-rule:nonzero;stroke:none"
       transform="matrix(0.35277776,0,0,-0.35277776,97.309211,172.08327)"
       clip-path="url(#clipPath4061)" />
    <path
       id="path4062"
       d="m 0,0 c -0.025,1.759 1.997,2.348 2.448,4.326 2.028,8.912 -3.485,8.76 -6.181,14.211 -1.689,3.413 -4.059,10.713 -4.884,14.489 -0.722,3.309 -3.193,26.173 -2.28,27.578 0.522,0.805 8.073,0.893 8.374,5.568 0.369,5.712 -6.326,5.063 -7.077,6.228 -0.628,0.972 0.274,10.081 -0.122,12.469 -0.281,1.693 -1.716,2.702 -1.825,3.379 -0.07,0.433 3.878,5.236 4.625,7.449 5.59,16.54 -5.299,25.233 -16.192,25.276 -10.892,-0.043 -21.782,-8.736 -16.192,-25.276 0.748,-2.213 4.695,-7.016 4.625,-7.449 -0.109,-0.677 -1.544,-1.686 -1.825,-3.379 -0.395,-2.388 0.506,-11.497 -0.121,-12.469 -0.752,-1.165 -7.446,-0.516 -7.078,-6.228 0.301,-4.675 7.852,-4.763 8.374,-5.568 0.914,-1.405 -1.557,-24.269 -2.28,-27.578 -0.824,-3.776 -3.195,-11.076 -4.883,-14.489 -2.697,-5.451 -8.21,-5.299 -6.181,-14.211 0.45,-1.978 2.472,-2.567 2.447,-4.326 -6.897,-1.394 -8.895,-8.404 -5.755,-14.252 1.202,-3.755 7.456,-8.587 28.869,-8.587 23.58,0 28.27,4.945 28.989,8.811 C 8.846,-8.225 6.809,-1.376 0,0"
       style="fill:#ff342d;fill-opacity:1;fill-rule:nonzero;stroke:none"
       transform="matrix(0.35277776,0,0,-0.35277776,116.78836,154.59533)"
       clip-path="url(#clipPath4063)" />
    <path
       id="path4064"
       d="m 0,0 c -16.002,0 -28.974,3.047 -28.974,6.807 0,3.759 12.972,6.806 28.974,6.806 16.002,0 28.974,-3.047 28.974,-6.806 C 28.974,3.047 16.002,0 0,0 m 0,19.642 c -20.786,0 -37.637,-5.747 -37.637,-12.835 V -9.919 c 0,-7.089 16.851,-12.835 37.637,-12.835 20.786,0 37.637,5.746 37.637,12.835 V 6.807 C 37.637,13.895 20.786,19.642 0,19.642"
       style="fill:#ff342d;fill-opacity:1;fill-rule:nonzero;stroke:none"
       transform="matrix(0.35277776,0,0,-0.35277776,120.16842,177.27076)"
       clip-path="url(#clipPath4065)" />
    <path
       id="path4066"
       d="m 0,0 c -10.082,0 -18.255,1.92 -18.255,4.289 0,2.368 8.173,4.288 18.255,4.288 10.082,0 18.255,-1.92 18.255,-4.288 C 18.255,1.92 10.082,0 0,0 m 0,12.375 c -13.096,0 -23.713,-3.62 -23.713,-8.086 V -6.249 c 0,-4.467 10.617,-8.087 23.713,-8.087 13.096,0 23.713,3.62 23.713,8.087 V 4.289 c 0,4.466 -10.617,8.086 -23.713,8.086"
       style="fill:#ff342d;fill-opacity:1;fill-rule:nonzero;stroke:none"
       transform="matrix(0.35277776,0,0,-0.35277776,136.81812,162.83968)"
       clip-path="url(#clipPath4067)" />
    <path
       id="path4068"
       d="m 0,0 c -7.941,0 -14.379,1.512 -14.379,3.378 0,1.866 6.438,3.378 14.379,3.378 7.941,0 14.379,-1.512 14.379,-3.378 C 14.379,1.512 7.941,0 0,0 m 0,9.748 c -10.316,0 -18.678,-2.852 -18.678,-6.37 v -8.301 c 0,-3.518 8.362,-6.369 18.678,-6.369 10.316,0 18.678,2.851 18.678,6.369 v 8.301 c 0,3.518 -8.362,6.37 -18.678,6.37"
       style="fill:#ff342d;fill-opacity:1;fill-rule:nonzero;stroke:none"
       transform="matrix(0.35277776,0,0,-0.35277776,132.37021,152.04591)"
       clip-path="url(#clipPath4069)" />
  </g>
</svg>
