<?xml version="1.0" encoding="UTF-8" standalone="no"?>
<!-- Created with Inkscape (http://www.inkscape.org/) -->

<svg
   width="63.430267mm"
   height="69.14447mm"
   viewBox="0 0 63.430267 69.14447"
   version="1.1"
   id="svg1"
   inkscape:version="1.4.2 (ebf0e940, 2025-05-08)"
   sodipodi:docname="church.svg"
   xmlns:inkscape="http://www.inkscape.org/namespaces/inkscape"
   xmlns:sodipodi="http://sodipodi.sourceforge.net/DTD/sodipodi-0.dtd"
   xmlns="http://www.w3.org/2000/svg"
   xmlns:svg="http://www.w3.org/2000/svg">
  <sodipodi:namedview
     id="namedview1"
     pagecolor="#ffffff"
     bordercolor="#000000"
     borderopacity="0.25"
     inkscape:showpageshadow="2"
     inkscape:pageopacity="0.0"
     inkscape:pagecheckerboard="0"
     inkscape:deskcolor="#d1d1d1"
     inkscape:document-units="mm"
     inkscape:zoom="0.023162177"
     inkscape:cx="-2957.4076"
     inkscape:cy="0"
     inkscape:window-width="896"
     inkscape:window-height="245"
     inkscape:window-x="0"
     inkscape:window-y="39"
     inkscape:window-maximized="0"
     inkscape:current-layer="layer1" />
  <defs
     id="defs1">
    <clipPath
       clipPathUnits="userSpaceOnUse"
       id="clipPath3259">
      <path
         d="M 0,276 H 276 V 0 H 0 Z"
         transform="translate(-225.09368,-110.1826)"
         id="path3259" />
    </clipPath>
  </defs>
  <g
     inkscape:label="Layer 1"
     inkscape:groupmode="layer"
     id="layer1"
     transform="translate(-893.4979,-148.16667)">
    <path
       id="path3258"
       d="m 0,0 -51.903,25.317 v 11.062 c 4.668,-2.206 9.62,2.588 7.628,7.367 l -37.097,45.223 v 15.088 h 12.133 c 2.978,0 5.579,2.247 5.772,5.22 0.211,3.257 -2.369,5.965 -5.581,5.965 h -12.324 v 10.79 c 0,2.978 -2.247,5.579 -5.219,5.772 -3.257,0.211 -5.965,-2.369 -5.965,-5.581 v -10.981 h -12.132 c -2.979,0 -5.58,-2.248 -5.772,-5.22 -0.212,-3.257 2.368,-5.965 5.58,-5.965 h 12.324 V 89.779 c -0.888,-1.041 -33.279,-39.04 -36.444,-45.226 -3.185,-5.309 2.319,-10.842 7.816,-8.174 V 25.896 l -52.89,-24.978 c -6.566,-4.693 -0.978,-13.043 6.087,-9.934 l 0.049,-50.584 c 0,-2.627 3.733,-4.584 5.195,-4.584 h 54.839 v 46.441 c 0,9.314 10.319,18.532 21.928,18.532 10.045,0 19.987,-7.614 19.987,-17.135 v -47.838 h 54.839 c 2.174,0 5.195,1.783 5.195,4.584 l 0.049,50.584 c 2.745,-1.296 5.703,-0.502 7.443,1.33 C 3.778,-5.327 2.924,-1.426 0,0"
       style="fill:#ff342d;fill-opacity:1;fill-rule:nonzero;stroke:none"
       transform="matrix(0.35277776,0,0,-0.35277776,955.93771,194.66845)"
       clip-path="url(#clipPath3259)" />
  </g>
</svg>
