<?xml version="1.0" encoding="UTF-8" standalone="no"?>
<!-- Created with Inkscape (http://www.inkscape.org/) -->

<svg
   width="73.361832mm"
   height="73.378197mm"
   viewBox="0 0 73.361832 73.378197"
   version="1.1"
   id="svg1"
   inkscape:version="1.4.2 (ebf0e940, 2025-05-08)"
   sodipodi:docname="climbing.svg"
   xmlns:inkscape="http://www.inkscape.org/namespaces/inkscape"
   xmlns:sodipodi="http://sodipodi.sourceforge.net/DTD/sodipodi-0.dtd"
   xmlns="http://www.w3.org/2000/svg"
   xmlns:svg="http://www.w3.org/2000/svg">
  <sodipodi:namedview
     id="namedview1"
     pagecolor="#ffffff"
     bordercolor="#000000"
     borderopacity="0.25"
     inkscape:showpageshadow="2"
     inkscape:pageopacity="0.0"
     inkscape:pagecheckerboard="0"
     inkscape:deskcolor="#d1d1d1"
     inkscape:document-units="mm"
     inkscape:zoom="0.023162177"
     inkscape:cx="151.10842"
     inkscape:cy="129.5215"
     inkscape:window-width="896"
     inkscape:window-height="245"
     inkscape:window-x="0"
     inkscape:window-y="39"
     inkscape:window-maximized="0"
     inkscape:current-layer="layer1" />
  <defs
     id="defs1">
    <clipPath
       clipPathUnits="userSpaceOnUse"
       id="clipPath909">
      <path
         d="M 0,276 H 276 V 0 H 0 Z"
         transform="translate(-234.26633,-241.99561)"
         id="path909" />
    </clipPath>
    <clipPath
       clipPathUnits="userSpaceOnUse"
       id="clipPath907">
      <path
         d="M 0,276 H 276 V 0 H 0 Z"
         transform="translate(-153.7452,-207.08881)"
         id="path907" />
    </clipPath>
    <clipPath
       clipPathUnits="userSpaceOnUse"
       id="clipPath905">
      <path
         d="M 0,276 H 276 V 0 H 0 Z"
         transform="translate(-48.300376,-67.971804)"
         id="path905" />
    </clipPath>
    <clipPath
       clipPathUnits="userSpaceOnUse"
       id="clipPath903">
      <path
         d="M 0,276 H 276 V 0 H 0 Z"
         transform="translate(-34.550626,-111.2779)"
         id="path903" />
    </clipPath>
  </defs>
  <g
     inkscape:label="Layer 1"
     inkscape:groupmode="layer"
     id="layer1"
     transform="translate(-71.966651,-111.91875)">
    <path
       id="path902"
       d="m 0,0 c 0.49,-0.497 9.053,3.157 11.852,4.122 0.693,3.977 1.096,7.072 3.643,10.352 4.262,5.488 14.107,7.444 20.755,8.678 11.081,2.055 15.745,-4.485 17.533,-14.417 3.46,-19.213 5.21,-38.85 8.671,-58.078 1.059,-15.689 -14.528,-19.701 -24.954,-9.874 -3.977,3.748 -5.637,9.083 -8.302,13.617 l -11.391,-4.239 c -0.395,-0.161 -0.231,-0.551 -0.204,-0.884 0.123,-1.491 2.658,-6.463 3.513,-8.007 4.013,-7.244 10.462,-13.514 18.274,-16.54 18.691,-7.239 37.306,5.881 35.986,25.927 -1.297,19.704 -7.117,40.846 -9.154,60.849 -0.371,3.64 -1.314,7.211 -2.926,10.496 C 54.71,39.497 34.077,38.583 16.383,30.453 4.498,24.992 -2.635,13.22 0,0"
       style="fill:#ff342d;fill-opacity:1;fill-rule:nonzero;stroke:none"
       transform="matrix(0.35277776,0,0,-0.35277776,72.159305,158.03305)"
       clip-path="url(#clipPath903)" />
    <path
       id="path904"
       d="m 0,0 c 0.315,-0.291 1.221,-0.819 1.888,-0.819 1.256,0 10.329,3.454 11.38,4.02 2.481,1.334 1.654,2.925 0.992,5.132 C 11.131,18.784 6.574,29.134 2.585,39.724 2.043,40.689 1.17,42.093 0.378,41.786 -1.634,41.007 -8.949,38.419 -10.539,37.765 -12.651,36.895 -12.88,35.932 -12.069,33.684 -8.225,21.321 -5.244,11.805 -0.931,1.76 -0.708,1.241 -0.391,0.362 0,0"
       style="fill:#ff342d;fill-opacity:1;fill-rule:nonzero;stroke:none"
       transform="matrix(0.35277776,0,0,-0.35277776,77.009911,173.31048)"
       clip-path="url(#clipPath905)" />
    <path
       id="path906"
       d="m 0,0 c 0,-8.121 -6.586,-14.704 -14.71,-14.704 -8.124,0 -14.71,6.583 -14.71,14.704 0,8.121 6.586,14.704 14.71,14.704 C -6.586,14.704 0,8.121 0,0"
       style="fill:#ff342d;fill-opacity:1;fill-rule:nonzero;stroke:none"
       transform="matrix(0.35277776,0,0,-0.35277776,114.2085,124.23309)"
       clip-path="url(#clipPath907)" />
    <path
       id="path908"
       d="m 0,0 h -40.519 c -4.249,0 -7.693,-3.444 -7.693,-7.692 V -25.06 c -0.296,-0.117 -0.601,-0.301 -0.898,-0.598 -6.657,-7.795 -16.972,-19.731 -26.502,-24.127 -9.178,-4.235 -25.654,-0.77 -32.823,-7.9 -3.042,-3.026 -4.347,-9.006 -5.533,-13.201 -2.352,-8.32 -8.032,-28.016 -7.08,-35.77 1.335,-10.869 17.328,-17.774 25.557,-23.295 1.324,-0.888 6.698,-4.423 7.374,-5.226 1.893,-2.248 4.868,-12.746 6.242,-16.239 1.636,-4.163 5.688,-16.214 7.97,-19.007 3.987,-4.88 12.889,-3.41 15.008,2.525 0.852,2.386 0.563,5.067 0.032,7.514 -1.91,8.789 -6.317,22.442 -9.395,31.07 -0.514,1.441 -2.115,5.374 -2.865,6.493 -2.018,3.009 -7.137,5.005 -10.163,6.957 -1.404,0.906 -3.164,2.214 -4.336,3.404 l 18.477,4.265 15.015,-20.482 c 1.162,-1.423 2.507,-2.419 3.92,-3.057 v 0 c 0.002,-0.001 0.004,-0.001 0.005,-0.002 0.321,-0.144 0.644,-0.27 0.97,-0.377 0.005,-0.002 0.01,-0.004 0.016,-0.005 0.647,-0.211 1.303,-0.354 1.959,-0.425 0.061,-0.007 0.122,-0.008 0.183,-0.014 0.243,-0.021 0.485,-0.035 0.726,-0.039 0.044,0 0.089,-0.007 0.133,-0.007 0.056,0 0.111,0.009 0.168,0.01 0.246,0.004 0.49,0.018 0.733,0.04 0.085,0.008 0.169,0.013 0.253,0.023 0.317,0.037 0.631,0.088 0.941,0.156 0.058,0.013 0.114,0.03 0.171,0.044 0.256,0.06 0.508,0.131 0.757,0.212 0.093,0.03 0.186,0.062 0.278,0.095 0.23,0.082 0.456,0.174 0.679,0.273 0.071,0.031 0.144,0.06 0.215,0.093 0.283,0.134 0.559,0.281 0.827,0.441 0.063,0.038 0.122,0.079 0.183,0.118 0.209,0.131 0.412,0.27 0.61,0.417 0.08,0.059 0.158,0.119 0.236,0.181 0.194,0.154 0.382,0.317 0.564,0.487 0.052,0.048 0.106,0.093 0.157,0.142 0.223,0.218 0.434,0.449 0.635,0.689 0.053,0.064 0.101,0.131 0.152,0.196 0.148,0.189 0.29,0.383 0.423,0.585 0.056,0.084 0.112,0.169 0.165,0.255 0.138,0.225 0.267,0.458 0.386,0.697 0.027,0.054 0.057,0.104 0.083,0.158 0.137,0.291 0.258,0.593 0.364,0.904 0.03,0.086 0.054,0.176 0.082,0.264 0.074,0.238 0.138,0.482 0.193,0.731 0.023,0.103 0.046,0.205 0.065,0.309 0.056,0.303 0.099,0.612 0.126,0.928 0.003,0.039 0.01,0.077 0.013,0.116 0.025,0.354 0.026,0.719 0.013,1.089 -0.004,0.105 -0.014,0.212 -0.021,0.319 -0.019,0.283 -0.05,0.569 -0.093,0.861 -0.017,0.114 -0.032,0.228 -0.053,0.343 -0.07,0.394 -0.155,0.792 -0.271,1.199 -0.853,3.008 -3.313,5.267 -4.948,7.65 -0.272,0.396 -0.554,0.812 -0.844,1.241 -0.236,0.35 -0.48,0.714 -0.727,1.082 -0.048,0.072 -0.093,0.139 -0.141,0.211 -1.914,2.862 -4.124,6.228 -6.364,9.479 -10e-4,0.001 -10e-4,0.002 -0.002,0.003 -2.673,3.879 -5.389,7.592 -7.697,10.069 -0.148,0.158 -3.166,2.522 -3.353,2.63 -1.983,1.144 -5.308,1.613 -7.572,1.327 -8.42,-1.543 -16.82,-5.702 -25.1,-7.381 -1.664,-0.338 0.147,1.562 0.342,2.162 2.421,7.412 4.461,14.96 7.211,22.263 7.365,1.983 13.71,4.995 19.481,9.998 5.61,4.863 12.669,11.301 16.688,17.721 v -42.323 c 4.175,-4.599 8.88,-11.671 13.047,-17.94 1.189,-1.789 2.313,-3.48 3.278,-4.886 0.273,-0.399 0.705,-0.938 1.162,-1.508 1.691,-2.113 4.007,-5.006 5.159,-9.068 1.759,-6.194 0.664,-12.53 -3.003,-17.383 -3.653,-4.835 -9.504,-7.722 -15.65,-7.722 -1.352,0 -2.688,0.144 -3.993,0.416 v -58.118 c 0,-4.248 3.444,-7.692 7.693,-7.692 H 0 c 4.249,0 7.693,3.444 7.693,7.692 V -7.692 C 7.693,-3.444 4.249,0 0,0"
       style="fill:#ff342d;fill-opacity:1;fill-rule:nonzero;stroke:none"
       transform="matrix(0.35277776,0,0,-0.35277776,142.61456,111.91875)"
       clip-path="url(#clipPath909)" />
  </g>
</svg>
