<?xml version="1.0" encoding="UTF-8" standalone="no"?>
<!-- Created with Inkscape (http://www.inkscape.org/) -->

<svg
   width="75.532219mm"
   height="63.406925mm"
   viewBox="0 0 75.532219 63.406925"
   version="1.1"
   id="svg1"
   inkscape:version="1.4.2 (ebf0e940, 2025-05-08)"
   sodipodi:docname="cooking.svg"
   xmlns:inkscape="http://www.inkscape.org/namespaces/inkscape"
   xmlns:sodipodi="http://sodipodi.sourceforge.net/DTD/sodipodi-0.dtd"
   xmlns="http://www.w3.org/2000/svg"
   xmlns:svg="http://www.w3.org/2000/svg">
  <sodipodi:namedview
     id="namedview1"
     pagecolor="#ffffff"
     bordercolor="#000000"
     borderopacity="0.25"
     inkscape:showpageshadow="2"
     inkscape:pageopacity="0.0"
     inkscape:pagecheckerboard="0"
     inkscape:deskcolor="#d1d1d1"
     inkscape:document-units="mm"
     inkscape:zoom="0.023162177"
     inkscape:cx="151.10842"
     inkscape:cy="129.5215"
     inkscape:window-width="896"
     inkscape:window-height="245"
     inkscape:window-x="0"
     inkscape:window-y="39"
     inkscape:window-maximized="0"
     inkscape:current-layer="layer1" />
  <defs
     id="defs1">
    <clipPath
       clipPathUnits="userSpaceOnUse"
       id="clipPath1826">
      <path
         d="M 0,276 H 276 V 0 H 0 Z"
         transform="translate(-131.8008,-153.00021)"
         id="path1826" />
    </clipPath>
    <clipPath
       clipPathUnits="userSpaceOnUse"
       id="clipPath1824">
      <path
         d="M 0,276 H 276 V 0 H 0 Z"
         transform="translate(-132.06053,-179.1063)"
         id="path1824" />
    </clipPath>
    <clipPath
       clipPathUnits="userSpaceOnUse"
       id="clipPath1822">
      <path
         d="M 0,276 H 276 V 0 H 0 Z"
         transform="translate(-215.56478,-201.3241)"
         id="path1822" />
    </clipPath>
    <clipPath
       clipPathUnits="userSpaceOnUse"
       id="clipPath1820">
      <path
         d="M 0,276 H 276 V 0 H 0 Z"
         transform="translate(-147.636,-86.5)"
         id="path1820" />
    </clipPath>
  </defs>
  <g
     inkscape:label="Layer 1"
     inkscape:groupmode="layer"
     id="layer1"
     transform="translate(-70.643685,-116.68125)">
    <path
       id="path1819"
       d="m 0,0 -68.931,-27.778 -3.338,8.282 68.931,27.778 z m -69.982,9.88 44.628,17.984 c 1.462,0.589 3.123,-0.118 3.712,-1.579 0.589,-1.462 -0.118,-3.124 -1.579,-3.712 L -67.85,4.588 c -1.461,-0.589 -3.123,0.118 -3.712,1.58 -0.589,1.461 0.118,3.123 1.58,3.712 m 24.326,38.237 3.642,-9.035 -23.349,-9.409 -3.641,9.035 z m -29.481,23.452 c 1.463,0.355 4.563,-0.071 5.28,0.219 0.495,0.201 3.389,3.478 4.929,4.334 9.517,5.284 21.453,-2.427 21.75,-12.994 0.077,-2.717 -1.842,-8.639 -4.399,-9.67 -6.802,-2.741 -15.229,-6.144 -22.437,-9.049 -0.975,-0.393 -2.031,-0.56 -3.076,-0.452 -14.538,1.5 -17.236,23.922 -2.047,27.612 m 76.835,-48.57 -33.384,82.829 c -0.953,2.365 -3.456,3.87 -6.58,2.611 l -79.341,-31.966 c -2.257,-0.91 -2.584,-3.121 -1.881,-4.864 14.948,-36.451 28.555,-71.939 43.933,-108.152 0.594,-1.473 2.102,-2.274 3.871,-1.561 L 3.019,-7.991 c 7.233,2.915 1.208,16.332 -1.401,22.886 1.116,1.585 1.998,3.343 0.08,8.104"
       style="fill:#ff342d;fill-opacity:1;fill-rule:nonzero;stroke:none"
       transform="matrix(0.35277776,0,0,-0.35277776,112.91292,166.55277)"
       clip-path="url(#clipPath1820)" />
    <path
       id="path1821"
       d="m 0,0 c -3.692,0 -6.684,2.993 -6.684,6.684 0,3.692 2.992,6.685 6.684,6.685 3.692,0 6.684,-2.993 6.684,-6.685 C 6.684,2.993 3.692,0 0,0 m -28.603,0 c -3.692,0 -6.684,2.993 -6.684,6.684 0,3.692 2.992,6.685 6.684,6.685 3.692,0 6.684,-2.993 6.684,-6.685 C -21.919,2.993 -24.911,0 -28.603,0 m -28.603,0 c -3.692,0 -6.684,2.993 -6.684,6.684 0,3.692 2.992,6.685 6.684,6.685 3.691,0 6.684,-2.993 6.684,-6.685 C -50.522,2.993 -53.515,0 -57.206,0 m 77.741,26.544 h -99.747 c -3.346,0 -4.552,-2.625 -4.552,-4.836 V -11.046 H 26.36 v 32.754 c 0,2.665 -2.254,4.836 -5.825,4.836"
       style="fill:#ff342d;fill-opacity:1;fill-rule:nonzero;stroke:none"
       transform="matrix(0.35277776,0,0,-0.35277776,136.87668,126.04538)"
       clip-path="url(#clipPath1822)" />
    <path
       id="path1823"
       d="m 0,0 17.499,-43.419 v 23.892 c 0,2.946 2.388,5.334 5.334,5.334 h 63.938 c 2.946,0 5.334,-2.388 5.334,-5.334 v -43.508 c 0,-2.946 -2.388,-5.334 -5.334,-5.334 h -59.35 c 0.584,-1.922 0.903,-3.742 0.952,-5.479 0.083,-2.965 0.433,-5.924 1.374,-8.737 2.28,-6.816 3.367,-13.325 0.894,-19.148 -0.2,-0.471 -0.422,-0.927 -0.665,-1.37 l 74.676,0.015 c 2.173,-0.089 5.212,1.898 5.212,4.826 V 0 Z"
       style="fill:#ff342d;fill-opacity:1;fill-rule:nonzero;stroke:none"
       transform="matrix(0.35277776,0,0,-0.35277776,107.41823,133.88333)"
       clip-path="url(#clipPath1824)" />
    <path
       id="path1825"
       d="m 0,0 v -63.254 l 12.498,5.036 3.337,-8.282 -15.536,-6.261 c 0.894,-2.54 3.748,-4.241 7.545,-4.241 l 4.785,10e-4 6.225,2.51 c 7.233,2.915 1.208,16.332 -1.401,22.886 1.116,1.584 1.998,3.343 0.08,8.103 z"
       style="fill:#ff342d;fill-opacity:1;fill-rule:nonzero;stroke:none"
       transform="matrix(0.35277776,0,0,-0.35277776,107.32661,143.09298)"
       clip-path="url(#clipPath1826)" />
  </g>
</svg>
