<?xml version="1.0" encoding="UTF-8" standalone="no"?>
<!-- Created with Inkscape (http://www.inkscape.org/) -->

<svg
   width="73.362137mm"
   height="73.377556mm"
   viewBox="0 0 73.362137 73.377556"
   version="1.1"
   id="svg1"
   inkscape:version="1.4.2 (ebf0e940, 2025-05-08)"
   sodipodi:docname="crossword.svg"
   xmlns:inkscape="http://www.inkscape.org/namespaces/inkscape"
   xmlns:sodipodi="http://sodipodi.sourceforge.net/DTD/sodipodi-0.dtd"
   xmlns="http://www.w3.org/2000/svg"
   xmlns:svg="http://www.w3.org/2000/svg">
  <sodipodi:namedview
     id="namedview1"
     pagecolor="#ffffff"
     bordercolor="#000000"
     borderopacity="0.25"
     inkscape:showpageshadow="2"
     inkscape:pageopacity="0.0"
     inkscape:pagecheckerboard="0"
     inkscape:deskcolor="#d1d1d1"
     inkscape:document-units="mm"
     inkscape:zoom="0.023162177"
     inkscape:cx="151.10842"
     inkscape:cy="129.5215"
     inkscape:window-width="896"
     inkscape:window-height="245"
     inkscape:window-x="0"
     inkscape:window-y="39"
     inkscape:window-maximized="0"
     inkscape:current-layer="layer1" />
  <defs
     id="defs1">
    <clipPath
       clipPathUnits="userSpaceOnUse"
       id="clipPath2729">
      <path
         d="M 0,276 H 276 V 0 H 0 Z"
         id="path2729" />
    </clipPath>
    <clipPath
       clipPathUnits="userSpaceOnUse"
       id="clipPath2731">
      <path
         d="M 0,276 H 276 V 0 H 0 Z"
         transform="translate(-239.64301,-151.7428)"
         id="path2731" />
    </clipPath>
  </defs>
  <g
     inkscape:label="Layer 1"
     inkscape:groupmode="layer"
     id="layer1"
     transform="translate(-71.966691,-111.91876)">
    <path
       id="path2728"
       d="M 107.914,168.124 H 82.238 v 25.677 h 25.676 z m 0,-73.874 H 82.238 v 25.677 h 25.676 z m -36.937,0 H 45.3 v 25.677 h 25.677 z m 48.197,25.677 h 25.677 V 94.25 h -25.677 z m 0,36.937 h 25.677 v -25.677 h -25.677 z m 0,36.937 h 25.677 v -25.677 h -25.677 z m 0,36.937 h 25.677 v -25.677 h -25.677 z m 36.937,-36.937 h 25.676 V 168.124 H 156.111 Z M 135.358,57.313 H 119.174 V 82.99 h 25.677 v -5.266 c 1.788,2.332 3.93,5.051 6.495,8.264 1.561,1.956 2.909,3.645 3.547,4.504 0.406,0.546 0.812,1.1 1.218,1.649 v 33.416 31.307 h 31.307 16.245 c 3.709,4.725 7.171,8.404 10.851,10.45 0.531,0.296 1.072,0.56 1.617,0.81 h -23.083 v 25.677 h 25.677 v -24.673 c 2.204,0.697 4.503,1.055 6.878,1.055 h 0.001 c 1.469,0 2.934,-0.154 4.381,-0.424 v 29.672 c 0,3.109 -2.521,5.63 -5.63,5.63 h -36.937 -31.307 v 31.307 c 0,3.109 -2.521,5.63 -5.63,5.63 h -36.937 c -3.109,0 -5.63,-2.521 -5.63,-5.63 V 205.061 H 76.607 c -3.109,0 -5.63,-2.521 -5.63,-5.63 v -36.937 c 0,-3.109 2.521,-5.63 5.63,-5.63 h 31.307 V 131.187 H 76.607 39.67 c -3.109,0 -5.63,-2.521 -5.63,-5.63 V 88.62 c 0,-3.109 2.521,-5.63 5.63,-5.63 h 36.937 31.307 V 51.683 c 0,-3.109 2.521,-5.63 5.63,-5.63 h 21.195 c 0.087,3.717 0.266,7.582 0.619,11.26"
       style="fill:#ff342d;fill-opacity:1;fill-rule:nonzero;stroke:none"
       transform="matrix(0.35277776,0,0,-0.35277776,59.958136,197.29027)"
       clip-path="url(#clipPath2729)" />
    <path
       id="path2730"
       d="m 0,0 c 1.508,-2.562 2.418,-5.487 2.349,-8.699 -0.144,-6.65 -9.726,-17.013 -13.738,-22.546 -18.369,-25.332 -36.795,-50.348 -55.527,-75.044 -1.18,-1.556 -2.777,-2.755 -4.599,-3.458 -7.27,-2.808 -13.404,-5.079 -20.528,-7.971 -3.313,-0.348 -2.948,2.856 -2.946,4.639 0.005,6.901 0.147,15.683 1.252,22.448 0.552,3.384 13.99,19.344 17.016,23.418 13.979,18.825 27.537,38.025 41.624,56.757 3.495,4.649 10.228,14.729 14.828,17.288 C -12.973,10.89 -3.988,6.777 0,0"
       style="fill:#ff342d;fill-opacity:1;fill-rule:nonzero;stroke:none"
       transform="matrix(0.35277776,0,0,-0.35277776,144.49886,143.75878)"
       clip-path="url(#clipPath2731)" />
  </g>
</svg>
