<?xml version="1.0" encoding="UTF-8" standalone="no"?>
<!-- Created with Inkscape (http://www.inkscape.org/) -->

<svg
   width="58.607918mm"
   height="73.376495mm"
   viewBox="0 0 58.607918 73.376495"
   version="1.1"
   id="svg1"
   inkscape:version="1.4.2 (ebf0e940, 2025-05-08)"
   sodipodi:docname="dancing.svg"
   xmlns:inkscape="http://www.inkscape.org/namespaces/inkscape"
   xmlns:sodipodi="http://sodipodi.sourceforge.net/DTD/sodipodi-0.dtd"
   xmlns="http://www.w3.org/2000/svg"
   xmlns:svg="http://www.w3.org/2000/svg">
  <sodipodi:namedview
     id="namedview1"
     pagecolor="#ffffff"
     bordercolor="#000000"
     borderopacity="0.25"
     inkscape:showpageshadow="2"
     inkscape:pageopacity="0.0"
     inkscape:pagecheckerboard="0"
     inkscape:deskcolor="#d1d1d1"
     inkscape:document-units="mm"
     inkscape:zoom="0.023162177"
     inkscape:cx="-64.760751"
     inkscape:cy="-172.69534"
     inkscape:window-width="896"
     inkscape:window-height="245"
     inkscape:window-x="0"
     inkscape:window-y="39"
     inkscape:window-maximized="0"
     inkscape:current-layer="layer1" />
  <defs
     id="defs1">
    <clipPath
       clipPathUnits="userSpaceOnUse"
       id="clipPath2336">
      <path
         d="M 0,276 H 276 V 0 H 0 Z"
         transform="translate(-125.08013,-212.95441)"
         id="path2336" />
    </clipPath>
    <clipPath
       clipPathUnits="userSpaceOnUse"
       id="clipPath2334">
      <path
         d="M 0,276 H 276 V 0 H 0 Z"
         transform="translate(-173.84213,-222.18711)"
         id="path2334" />
    </clipPath>
    <clipPath
       clipPathUnits="userSpaceOnUse"
       id="clipPath2332">
      <path
         d="M 0,276 H 276 V 0 H 0 Z"
         transform="translate(-145.06283,-161.75721)"
         id="path2332" />
    </clipPath>
  </defs>
  <g
     inkscape:label="Layer 1"
     inkscape:groupmode="layer"
     id="layer1"
     transform="translate(-130.70417,-191.82291)">
    <path
       id="path2331"
       d="m 0,0 c -5.45,-1.511 -12.184,-2.247 -17.541,0.002 1.749,-6.1 3.38,-12.268 4.292,-18.575 1.298,-8.969 0.003,-17.988 6.674,-25.287 1.175,3.812 7.499,10.632 7.828,14.156 0.28,3.002 -1.168,9.082 -1.275,12.448 C -0.204,-11.519 0.169,-5.734 0,0 m -6.901,-97.13 c -0.881,0.072 -0.966,-0.229 -1.301,-0.886 -3.802,-7.457 -4.726,-22.697 -11.535,-27.315 -4.68,-3.173 -12.035,-3.109 -13.68,3.254 -2.715,10.503 5.809,27.702 6.464,38.732 -1.596,0.325 -3.14,-0.602 -4.629,-0.557 -1.915,0.059 -5.604,1.46 -7.295,0.945 -1.373,-0.418 -13.448,-14.673 -15.638,-17.007 -3.732,-3.975 -6.889,-8.048 -10.601,-12.043 -3.192,-3.436 -7.128,-7.966 -10.722,-11.132 -9.83,-8.655 -18.553,-0.571 -12.038,10.781 6.946,12.1 21.294,21.888 28.952,33.722 -11.343,2.592 -21.674,3.832 -13.419,17.801 7.648,12.945 20.379,25.074 28.19,38.243 3.458,12.856 -8.211,27.159 -5.068,39.531 1.865,7.344 11.799,10.854 18.629,10.499 10.943,-0.568 15.611,-15.285 29.367,-8.347 13.091,6.602 14.293,23.82 34.941,17.432 11.73,-3.63 24.304,-20.805 30.118,-31.302 6.072,-10.962 -4.198,-16.744 -12.635,-21.619 -3.283,-1.897 -8.982,-3.808 -11.705,-5.871 -0.409,-0.31 -0.671,-0.515 -0.511,-1.077 2.286,-9.939 4.004,-20.026 6.459,-29.925 1.106,-4.46 2.154,-10.228 3.785,-14.389 4.814,-12.288 17.368,-28.002 23.817,-40.734 2.445,-4.825 4.602,-9.289 1.198,-14.382 -3.914,-5.856 -12.324,-6.64 -17.442,-1.857 -4.354,4.068 -11.887,16.481 -15.563,22.041 -5.066,7.661 -10.487,15.525 -14.387,23.842 -1.26,2.687 -8.946,23.619 -10.235,23.596 -4.435,-6.234 -9.121,-12.831 -12.26,-19.727 l 15.56,-36.494 c 1.671,-4.324 3.035,-9.632 -1.13,-12.987 -7.118,-5.734 -12.485,-1.929 -16.197,5.066 -3.568,6.724 -6.281,15.163 -9.489,22.166"
       style="fill:#ff342d;fill-opacity:1;fill-rule:nonzero;stroke:none"
       transform="matrix(0.35277776,0,0,-0.35277776,162.49969,220.13012)"
       clip-path="url(#clipPath2332)" />
    <path
       id="path2333"
       d="m 0,0 c 0,10.941 -8.87,19.811 -19.811,19.811 -10.942,0 -19.811,-8.87 -19.811,-19.811 0,-10.941 8.869,-19.811 19.811,-19.811 C -8.87,-19.811 0,-10.941 0,0"
       style="fill:#ff342d;fill-opacity:1;fill-rule:nonzero;stroke:none"
       transform="matrix(0.35277776,0,0,-0.35277776,172.65238,198.81179)"
       clip-path="url(#clipPath2334)" />
    <path
       id="path2335"
       d="m 0,0 c 0,10.339 -8.381,18.72 -18.72,18.72 -10.338,0 -18.719,-8.381 -18.719,-18.72 0,-10.339 8.381,-18.72 18.719,-18.72 C -8.381,-18.72 0,-10.339 0,0"
       style="fill:#ff342d;fill-opacity:1;fill-rule:nonzero;stroke:none"
       transform="matrix(0.35277776,0,0,-0.35277776,155.45023,202.06889)"
       clip-path="url(#clipPath2336)" />
  </g>
</svg>
