<?xml version="1.0" encoding="UTF-8" standalone="no"?>
<!-- Created with Inkscape (http://www.inkscape.org/) -->

<svg
   width="71.544044mm"
   height="73.378189mm"
   viewBox="0 0 71.544044 73.378189"
   version="1.1"
   id="svg1"
   inkscape:version="1.4.2 (ebf0e940, 2025-05-08)"
   sodipodi:docname="disco.svg"
   xmlns:inkscape="http://www.inkscape.org/namespaces/inkscape"
   xmlns:sodipodi="http://sodipodi.sourceforge.net/DTD/sodipodi-0.dtd"
   xmlns="http://www.w3.org/2000/svg"
   xmlns:svg="http://www.w3.org/2000/svg">
  <sodipodi:namedview
     id="namedview1"
     pagecolor="#ffffff"
     bordercolor="#000000"
     borderopacity="0.25"
     inkscape:showpageshadow="2"
     inkscape:pageopacity="0.0"
     inkscape:pagecheckerboard="0"
     inkscape:deskcolor="#d1d1d1"
     inkscape:document-units="mm"
     inkscape:zoom="0.14470596"
     inkscape:cx="190.04055"
     inkscape:cy="172.76414"
     inkscape:window-width="896"
     inkscape:window-height="245"
     inkscape:window-x="0"
     inkscape:window-y="39"
     inkscape:window-maximized="0"
     inkscape:current-layer="layer1" />
  <defs
     id="defs1">
    <clipPath
       clipPathUnits="userSpaceOnUse"
       id="clipPath3541">
      <path
         d="M 0,276 H 276 V 0 H 0 Z"
         transform="translate(-193.38975,-196.56981)"
         id="path3541" />
    </clipPath>
    <clipPath
       clipPathUnits="userSpaceOnUse"
       id="clipPath3539">
      <path
         d="M 0,276 H 276 V 0 H 0 Z"
         transform="translate(-201.33376,-54.328801)"
         id="path3539" />
    </clipPath>
    <clipPath
       clipPathUnits="userSpaceOnUse"
       id="clipPath3537">
      <path
         d="M 0,276 H 276 V 0 H 0 Z"
         transform="translate(-39.192751,-208.2637)"
         id="path3537" />
    </clipPath>
    <clipPath
       clipPathUnits="userSpaceOnUse"
       id="clipPath3535">
      <path
         d="M 0,276 H 276 V 0 H 0 Z"
         id="path3535" />
    </clipPath>
    <clipPath
       clipPathUnits="userSpaceOnUse"
       id="clipPath3533">
      <path
         d="M 0,276 H 276 V 0 H 0 Z"
         transform="translate(-70.758002,-157.93101)"
         id="path3533" />
    </clipPath>
    <clipPath
       clipPathUnits="userSpaceOnUse"
       id="clipPath3531">
      <path
         d="M 0,276 H 276 V 0 H 0 Z"
         transform="translate(-104.69475,-163.93251)"
         id="path3531" />
    </clipPath>
    <clipPath
       clipPathUnits="userSpaceOnUse"
       id="clipPath3529">
      <path
         d="M 0,276 H 276 V 0 H 0 Z"
         transform="translate(-171.30525,-80.769205)"
         id="path3529" />
    </clipPath>
    <clipPath
       clipPathUnits="userSpaceOnUse"
       id="clipPath3527">
      <path
         d="M 0,276 H 276 V 0 H 0 Z"
         transform="translate(-61.998752,-119.35011)"
         id="path3527" />
    </clipPath>
    <clipPath
       clipPathUnits="userSpaceOnUse"
       id="clipPath3525">
      <path
         d="M 0,276 H 276 V 0 H 0 Z"
         transform="translate(-165.02025,-163.93251)"
         id="path3525" />
    </clipPath>
    <clipPath
       clipPathUnits="userSpaceOnUse"
       id="clipPath3523">
      <path
         d="M 0,276 H 276 V 0 H 0 Z"
         transform="translate(-110.17125,-65.212299)"
         id="path3523" />
    </clipPath>
    <clipPath
       clipPathUnits="userSpaceOnUse"
       id="clipPath3521">
      <path
         d="M 0,276 H 276 V 0 H 0 Z"
         transform="translate(-172.77825,-157.93101)"
         id="path3521" />
    </clipPath>
    <clipPath
       clipPathUnits="userSpaceOnUse"
       id="clipPath3519">
      <path
         d="M 0,276 H 276 V 0 H 0 Z"
         transform="translate(-165.82875,-179.4894)"
         id="path3519" />
    </clipPath>
    <clipPath
       clipPathUnits="userSpaceOnUse"
       id="clipPath3517">
      <path
         d="M 0,276 H 276 V 0 H 0 Z"
         transform="translate(-166.572,-157.93101)"
         id="path3517" />
    </clipPath>
    <clipPath
       clipPathUnits="userSpaceOnUse"
       id="clipPath3515">
      <path
         d="M 0,276 H 276 V 0 H 0 Z"
         transform="translate(-170.454,-119.35011)"
         id="path3515" />
    </clipPath>
    <clipPath
       clipPathUnits="userSpaceOnUse"
       id="clipPath3513">
      <path
         d="M 0,276 H 276 V 0 H 0 Z"
         transform="translate(-172.77825,-86.770705)"
         id="path3513" />
    </clipPath>
    <clipPath
       clipPathUnits="userSpaceOnUse"
       id="clipPath3511">
      <path
         d="M 0,276 H 276 V 0 H 0 Z"
         transform="translate(-110.97975,-80.769205)"
         id="path3511" />
    </clipPath>
  </defs>
  <g
     inkscape:label="Layer 1"
     inkscape:groupmode="layer"
     id="layer1"
     transform="translate(-72.760364,-111.91875)">
    <path
       id="path3510"
       d="m 0,0 c 5.869,-20.556 15.859,-34.418 26.942,-34.483 0.026,0 0.052,-0.001 0.078,-0.001 0.026,0 0.052,0.001 0.079,0.001 C 38.181,-34.417 48.171,-20.556 54.04,0 Z"
       style="fill:#ff342d;fill-opacity:1;fill-rule:nonzero;stroke:none"
       transform="matrix(0.35277776,0,0,-0.35277776,98.085222,168.79704)"
       clip-path="url(#clipPath3511)" />
    <path
       id="path3512"
       d="m 0,0 h 32.464 c 5.19,9.787 8.304,20.841 8.759,32.579 H 3.679 C 3.491,21.123 2.23,10.073 0,0"
       style="fill:#ff342d;fill-opacity:1;fill-rule:nonzero;stroke:none"
       transform="matrix(0.35277776,0,0,-0.35277776,119.88636,166.67984)"
       clip-path="url(#clipPath3513)" />
    <path
       id="path3514"
       d="m 0,0 h -64.908 c 0.204,-11.655 1.591,-22.734 3.882,-32.579 H -3.882 C -1.591,-22.734 -0.204,-11.655 0,0"
       style="fill:#ff342d;fill-opacity:1;fill-rule:nonzero;stroke:none"
       transform="matrix(0.35277776,0,0,-0.35277776,119.06642,155.18655)"
       clip-path="url(#clipPath3515)" />
    <path
       id="path3516"
       d="m 0,0 h -57.144 c -2.291,-9.846 -3.678,-20.924 -3.882,-32.579 H 3.882 C 3.678,-20.924 2.291,-9.846 0,0"
       style="fill:#ff342d;fill-opacity:1;fill-rule:nonzero;stroke:none"
       transform="matrix(0.35277776,0,0,-0.35277776,117.69693,141.57607)"
       clip-path="url(#clipPath3517)" />
    <path
       id="path3518"
       d="M 0,0 C 2.129,-4.744 3.961,-9.968 5.477,-15.557 H 35.87 C 26.996,-1.992 13.909,8.566 -1.535,14.255 -4.309,15.277 -6.832,12.153 -5.219,9.678 -3.359,6.825 -1.613,3.594 0,0"
       style="fill:#ff342d;fill-opacity:1;fill-rule:nonzero;stroke:none"
       transform="matrix(0.35277776,0,0,-0.35277776,117.43473,133.97075)"
       clip-path="url(#clipPath3519)" />
    <path
       id="path3520"
       d="M 0,0 C 2.23,-10.073 3.491,-21.123 3.679,-32.579 H 41.223 C 40.768,-20.841 37.654,-9.787 32.464,0 Z"
       style="fill:#ff342d;fill-opacity:1;fill-rule:nonzero;stroke:none"
       transform="matrix(0.35277776,0,0,-0.35277776,119.88636,141.57607)"
       clip-path="url(#clipPath3521)" />
    <path
       id="path3522"
       d="M 0,0 C -2.129,4.744 -3.961,9.968 -5.477,15.557 H -35.87 c 8.874,-13.565 21.961,-24.123 37.405,-29.812 2.774,-1.022 5.297,2.102 3.684,4.577 C 3.359,-6.825 1.613,-3.594 0,0"
       style="fill:#ff342d;fill-opacity:1;fill-rule:nonzero;stroke:none"
       transform="matrix(0.35277776,0,0,-0.35277776,97.800001,174.28517)"
       clip-path="url(#clipPath3523)" />
    <path
       id="path3524"
       d="m 0,0 c -5.869,20.556 -15.859,34.417 -26.94,34.483 -0.027,0 -0.054,0.001 -0.08,0.001 -0.027,0 -0.053,-0.001 -0.08,-0.001 C -38.182,34.417 -48.171,20.556 -54.04,0 Z"
       style="fill:#ff342d;fill-opacity:1;fill-rule:nonzero;stroke:none"
       transform="matrix(0.35277776,0,0,-0.35277776,117.14951,139.45887)"
       clip-path="url(#clipPath3525)" />
    <path
       id="path3526"
       d="M 0,0 C 0.456,-11.738 3.57,-22.792 8.759,-32.579 H 41.223 C 38.994,-22.506 37.732,-11.457 37.544,0 Z"
       style="fill:#ff342d;fill-opacity:1;fill-rule:nonzero;stroke:none"
       transform="matrix(0.35277776,0,0,-0.35277776,80.805814,155.18655)"
       clip-path="url(#clipPath3527)" />
    <path
       id="path3528"
       d="m 0,0 c -1.516,-5.589 -3.347,-10.813 -5.477,-15.557 -1.612,-3.594 -3.359,-6.825 -5.218,-9.677 -1.614,-2.476 0.91,-5.6 3.683,-4.578 C 8.432,-24.123 21.52,-13.565 30.393,0 Z"
       style="fill:#ff342d;fill-opacity:1;fill-rule:nonzero;stroke:none"
       transform="matrix(0.35277776,0,0,-0.35277776,119.36672,168.79704)"
       clip-path="url(#clipPath3529)" />
    <path
       id="path3530"
       d="m 0,0 c 1.516,5.589 3.347,10.813 5.477,15.557 1.612,3.594 3.359,6.825 5.218,9.677 1.614,2.476 -0.91,5.6 -3.683,4.578 C -8.432,24.123 -21.52,13.565 -30.393,0 Z"
       style="fill:#ff342d;fill-opacity:1;fill-rule:nonzero;stroke:none"
       transform="matrix(0.35277776,0,0,-0.35277776,95.868014,139.45887)"
       clip-path="url(#clipPath3531)" />
    <path
       id="path3532"
       d="m 0,0 c -5.19,-9.787 -8.304,-20.841 -8.759,-32.579 h 37.544 c 0.188,11.456 1.45,22.506 3.679,32.579 z"
       style="fill:#ff342d;fill-opacity:1;fill-rule:nonzero;stroke:none"
       transform="matrix(0.35277776,0,0,-0.35277776,83.895883,141.57607)"
       clip-path="url(#clipPath3533)" />
    <path
       id="path3534"
       d="m 142.287,193.927 h -8.574 v 48.072 h 8.574 z"
       style="fill:#ff342d;fill-opacity:1;fill-rule:nonzero;stroke:none"
       transform="matrix(0.35277776,0,0,-0.35277776,58.934033,197.29062)"
       clip-path="url(#clipPath3535)" />
    <path
       id="path3536"
       d="m 0,0 13.314,-5.139 c 4.633,-1.788 8.296,-5.45 10.084,-10.084 l 5.139,-13.314 5.139,13.314 c 1.788,4.634 5.45,8.296 10.084,10.084 L 57.074,0 44.119,4.87 C 39.468,6.618 35.773,10.25 33.944,14.871 L 28.537,28.537 23.398,15.223 C 21.61,10.589 17.947,6.927 13.314,5.139 Z"
       style="fill:#ff342d;fill-opacity:1;fill-rule:nonzero;stroke:none"
       transform="matrix(0.35277776,0,0,-0.35277776,72.760364,123.81981)"
       clip-path="url(#clipPath3537)" />
    <path
       id="path3538"
       d="m 0,0 9.485,-3.661 c 3.301,-1.274 5.911,-3.883 7.185,-7.184 l 3.661,-9.486 3.661,9.486 c 1.274,3.301 3.883,5.91 7.184,7.184 L 40.661,0 31.432,3.469 c -3.314,1.246 -5.946,3.834 -7.249,7.125 L 20.331,20.331 16.67,10.845 C 15.396,7.544 12.786,4.935 9.485,3.661 Z"
       style="fill:#ff342d;fill-opacity:1;fill-rule:nonzero;stroke:none"
       transform="matrix(0.35277776,0,0,-0.35277776,129.96011,178.12462)"
       clip-path="url(#clipPath3539)" />
    <path
       id="path3540"
       d="m 0,0 9.485,-3.661 c 3.301,-1.274 5.911,-3.883 7.185,-7.184 l 3.661,-9.486 3.661,9.486 c 1.274,3.301 3.883,5.91 7.184,7.184 L 40.661,0 31.432,3.469 c -3.314,1.246 -5.946,3.834 -7.249,7.125 L 20.331,20.331 16.67,10.845 C 15.396,7.544 12.786,4.935 9.485,3.661 Z"
       style="fill:#ff342d;fill-opacity:1;fill-rule:nonzero;stroke:none"
       transform="matrix(0.35277776,0,0,-0.35277776,127.15764,127.94516)"
       clip-path="url(#clipPath3541)" />
  </g>
</svg>
