<?xml version="1.0" encoding="UTF-8" standalone="no"?>
<!-- Created with Inkscape (http://www.inkscape.org/) -->

<svg
   width="73.374588mm"
   height="64.910622mm"
   viewBox="0 0 73.374588 64.910622"
   version="1.1"
   id="svg1"
   inkscape:version="1.4.2 (ebf0e940, 2025-05-08)"
   sodipodi:docname="film.svg"
   xmlns:inkscape="http://www.inkscape.org/namespaces/inkscape"
   xmlns:sodipodi="http://sodipodi.sourceforge.net/DTD/sodipodi-0.dtd"
   xmlns="http://www.w3.org/2000/svg"
   xmlns:svg="http://www.w3.org/2000/svg">
  <sodipodi:namedview
     id="namedview1"
     pagecolor="#ffffff"
     bordercolor="#000000"
     borderopacity="0.25"
     inkscape:showpageshadow="2"
     inkscape:pageopacity="0.0"
     inkscape:pagecheckerboard="0"
     inkscape:deskcolor="#d1d1d1"
     inkscape:document-units="mm"
     inkscape:zoom="0.023162177"
     inkscape:cx="-366.97759"
     inkscape:cy="172.69534"
     inkscape:window-width="896"
     inkscape:window-height="245"
     inkscape:window-x="0"
     inkscape:window-y="39"
     inkscape:window-maximized="0"
     inkscape:current-layer="layer1" />
  <defs
     id="defs1">
    <clipPath
       clipPathUnits="userSpaceOnUse"
       id="clipPath1953">
      <path
         d="M 0,276 H 276 V 0 H 0 Z"
         transform="translate(-124.10513,-84.963902)"
         id="path1953" />
    </clipPath>
    <clipPath
       clipPathUnits="userSpaceOnUse"
       id="clipPath1951">
      <path
         d="M 0,276 H 276 V 0 H 0 Z"
         transform="translate(-211.05061,-156.1938)"
         id="path1951" />
    </clipPath>
  </defs>
  <g
     inkscape:label="Layer 1"
     inkscape:groupmode="layer"
     id="layer1"
     transform="translate(-203.19995,-104.51041)">
    <path
       id="path1950"
       d="m 0,0 c -6.71,0 -12.15,5.438 -12.15,12.146 0,6.708 5.44,12.146 12.15,12.146 6.71,0 12.15,-5.438 12.15,-12.146 C 12.15,5.438 6.71,0 0,0 m -29.261,29.04 c -6.813,0 -12.336,5.521 -12.336,12.332 0,6.811 5.523,12.332 12.336,12.332 6.813,0 12.336,-5.521 12.336,-12.332 0,-6.811 -5.523,-12.332 -12.336,-12.332 m 17.192,42.296 c -27.739,7.657 -51.676,-3.321 -65.45,-21.928 18.419,-5.393 34.267,-16.782 45.292,-31.923 0.829,0.424 1.767,0.668 2.762,0.668 3.36,0 6.084,-2.723 6.084,-6.082 0,-1.983 -0.954,-3.739 -2.423,-4.85 3.235,-6.09 5.758,-12.613 7.459,-19.465 0.836,-1.663 1.318,-3.534 1.318,-5.522 0,-0.224 -0.022,-0.441 -0.034,-0.662 0.811,-4.739 1.257,-9.603 1.257,-14.573 0,-5.139 -0.477,-10.163 -1.342,-15.054 9.679,1.815 18.86,5.926 27.148,13.082 35.784,30.895 23.945,93.606 -22.071,106.309"
       style="fill:#ff342d;fill-opacity:1;fill-rule:nonzero;stroke:none"
       transform="matrix(0.35277776,0,0,-0.35277776,265.65791,130.54577)"
       clip-path="url(#clipPath1951)" />
    <path
       id="path1952"
       d="m 0,0 c 0,8.447 -6.85,15.294 -15.299,15.294 -8.45,0 -15.299,-6.847 -15.299,-15.294 0,-8.447 6.849,-15.294 15.299,-15.294 C -6.85,-15.294 0,-8.447 0,0 m -7.626,37.009 c 0,4.166 -3.379,7.544 -7.546,7.544 -4.167,0 -7.546,-3.378 -7.546,-7.544 0,-4.166 3.379,-7.543 7.546,-7.543 4.167,0 7.546,3.377 7.546,7.543 m 44.38,0.154 c 0,8.349 -6.77,15.117 -15.121,15.117 -8.351,0 -15.121,-6.768 -15.121,-15.117 0,-8.348 6.77,-15.116 15.121,-15.116 8.351,0 15.121,6.768 15.121,15.116 m -73.402,-0.061 c 0,8.321 -6.747,15.066 -15.07,15.066 -8.324,0 -15.071,-6.745 -15.071,-15.066 0,-8.32 6.747,-15.065 15.071,-15.065 8.323,0 15.07,6.745 15.07,15.065 m 36.524,36.25 c 0,8.448 -6.85,15.296 -15.301,15.296 -8.45,0 -15.301,-6.848 -15.301,-15.296 0,-8.447 6.851,-15.296 15.301,-15.296 8.451,0 15.301,6.849 15.301,15.296 m 41.531,-86.381 h 40.547 c 14.969,0 24.103,-15.522 23.939,-22.46 l -93.343,0.03 c -27.435,-6.602 -54.608,-4.936 -76.674,14.116 -44.385,38.322 -29.701,116.105 27.376,131.861 73.934,20.41 126.12,-65.886 78.155,-123.547"
       style="fill:#ff342d;fill-opacity:1;fill-rule:nonzero;stroke:none"
       transform="matrix(0.35277776,0,0,-0.35277776,234.98548,155.6741)"
       clip-path="url(#clipPath1953)" />
  </g>
</svg>
