<?xml version="1.0" encoding="UTF-8" standalone="no"?>
<!-- Created with Inkscape (http://www.inkscape.org/) -->

<svg
   width="64.902641mm"
   height="64.913857mm"
   viewBox="0 0 64.902641 64.913857"
   version="1.1"
   id="svg1"
   inkscape:version="1.4.2 (ebf0e940, 2025-05-08)"
   sodipodi:docname="fishing.svg"
   xmlns:inkscape="http://www.inkscape.org/namespaces/inkscape"
   xmlns:sodipodi="http://sodipodi.sourceforge.net/DTD/sodipodi-0.dtd"
   xmlns="http://www.w3.org/2000/svg"
   xmlns:svg="http://www.w3.org/2000/svg">
  <sodipodi:namedview
     id="namedview1"
     pagecolor="#ffffff"
     bordercolor="#000000"
     borderopacity="0.25"
     inkscape:showpageshadow="2"
     inkscape:pageopacity="0.0"
     inkscape:pagecheckerboard="0"
     inkscape:deskcolor="#d1d1d1"
     inkscape:document-units="mm"
     inkscape:zoom="0.023162177"
     inkscape:cx="107.93459"
     inkscape:cy="129.5215"
     inkscape:window-width="896"
     inkscape:window-height="245"
     inkscape:window-x="0"
     inkscape:window-y="39"
     inkscape:window-maximized="0"
     inkscape:current-layer="layer1" />
  <defs
     id="defs1">
    <clipPath
       clipPathUnits="userSpaceOnUse"
       id="clipPath4325">
      <path
         d="M 0,276 H 276 V 0 H 0 Z"
         transform="translate(-150.0045,-205.5514)"
         id="path4325" />
    </clipPath>
    <clipPath
       clipPathUnits="userSpaceOnUse"
       id="clipPath4323">
      <path
         d="M 0,276 H 276 V 0 H 0 Z"
         transform="translate(-150.0045,-200.35471)"
         id="path4323" />
    </clipPath>
    <clipPath
       clipPathUnits="userSpaceOnUse"
       id="clipPath4321">
      <path
         d="M 0,276 H 276 V 0 H 0 Z"
         transform="translate(-222.97651,-217.30371)"
         id="path4321" />
    </clipPath>
  </defs>
  <g
     inkscape:label="Layer 1"
     inkscape:groupmode="layer"
     id="layer1"
     transform="translate(-76.199949,-116.15208)">
    <path
       id="path4320"
       d="m 0,0 -101.58,-114.722 c 10.403,-0.426 17.965,-11.467 17.048,-21.343 -2.004,-21.576 -31.605,-27.384 -38.54,-4.427 -0.181,0.596 0.369,0.959 -0.81,0.782 -4.41,-4.721 -8.503,-9.785 -12.9,-14.511 -3.034,-3.26 -10.346,-11.953 -13.442,-13.966 -6.054,-3.938 -12.183,2.627 -15.32,7.258 -1.583,2.336 -2.061,3.873 -1.381,6.755 0.852,3.606 12.464,14.221 15.63,17.685 9.324,10.2 18.361,20.671 27.946,30.632 5.404,3.967 9.328,-0.577 9.941,-0.302 L 0.551,11.555 c 1.9,1.962 5.24,1.301 6.165,-1.269 0.007,-0.021 0.015,-0.042 0.022,-0.063 l 0.286,-178.17 c -0.524,-5.484 -7.031,-3.647 -7.031,1.094 0,10.732 -0.082,19.29 0,28.465 C 0.405,-92.244 0.303,-46.082 0,0"
       style="fill:#ff342d;fill-opacity:1;fill-rule:nonzero;stroke:none"
       transform="matrix(0.35277776,0,0,-0.35277776,138.62468,120.63102)"
       clip-path="url(#clipPath4321)" />
    <path
       id="path4322"
       d="m 0,0 v -18.968 c 0,-9.44 -7.03,-13.795 -16.866,-13.795 -33.094,0 -38.847,0.08 -72.247,0.08 -7.872,0 -14.867,7.424 -14.867,13.715 V 0 Z"
       style="fill:#ff342d;fill-opacity:1;fill-rule:nonzero;stroke:none"
       transform="matrix(0.35277776,0,0,-0.35277776,112.88178,126.61026)"
       clip-path="url(#clipPath4323)" />
    <path
       id="path4324"
       d="m 0,0 h -36.919 c 0,2.629 0.691,7.164 -4.079,7.164 -7.467,0 -14.6,0.135 -21.669,0.135 -5.357,0 -4.393,-5.484 -4.393,-7.299 h -36.92 v 10.134 c 0,5.792 4.808,14.235 14.867,14.235 l 73.287,0.079 C -7.444,24.448 0,16.855 0,10.134 Z"
       style="fill:#ff342d;fill-opacity:1;fill-rule:nonzero;stroke:none"
       transform="matrix(0.35277776,0,0,-0.35277776,112.88178,124.77698)"
       clip-path="url(#clipPath4325)" />
  </g>
</svg>
