<?xml version="1.0" encoding="UTF-8" standalone="no"?>
<!-- Created with Inkscape (http://www.inkscape.org/) -->

<svg
   width="73.31604mm"
   height="56.559967mm"
   viewBox="0 0 73.31604 56.559967"
   version="1.1"
   id="svg1"
   inkscape:version="1.4.2 (ebf0e940, 2025-05-08)"
   sodipodi:docname="football.svg"
   xmlns:inkscape="http://www.inkscape.org/namespaces/inkscape"
   xmlns:sodipodi="http://sodipodi.sourceforge.net/DTD/sodipodi-0.dtd"
   xmlns="http://www.w3.org/2000/svg"
   xmlns:svg="http://www.w3.org/2000/svg">
  <sodipodi:namedview
     id="namedview1"
     pagecolor="#ffffff"
     bordercolor="#000000"
     borderopacity="0.25"
     inkscape:showpageshadow="2"
     inkscape:pageopacity="0.0"
     inkscape:pagecheckerboard="0"
     inkscape:deskcolor="#d1d1d1"
     inkscape:document-units="mm"
     inkscape:zoom="0.023162177"
     inkscape:cx="151.10842"
     inkscape:cy="86.347668"
     inkscape:window-width="896"
     inkscape:window-height="245"
     inkscape:window-x="0"
     inkscape:window-y="39"
     inkscape:window-maximized="0"
     inkscape:current-layer="layer1" />
  <defs
     id="defs1">
    <clipPath
       clipPathUnits="userSpaceOnUse"
       id="clipPath1163">
      <path
         d="M 0,276 H 276 V 0 H 0 Z"
         transform="translate(-97.684802,-75.830604)"
         id="path1163" />
    </clipPath>
    <clipPath
       clipPathUnits="userSpaceOnUse"
       id="clipPath1161">
      <path
         d="M 0,276 H 276 V 0 H 0 Z"
         transform="translate(-228.15233,-164.0971)"
         id="path1161" />
    </clipPath>
  </defs>
  <g
     inkscape:label="Layer 1"
     inkscape:groupmode="layer"
     id="layer1"
     transform="translate(-71.966654,-120.12084)">
    <path
       id="path1160"
       d="m 0,0 -8.953,-3.877 c -0.353,10.708 1.427,21.579 6.051,31.249 L 0,31.932 Z m 0,-36.11 -10.15,-1.193 v 19.696 L 0,-13.429 Z m 0,-36.408 -9.876,3.557 -0.191,18.442 L 0,-49.24 Z m -18.21,94.303 h -12.239 l 3.582,15.518 h 15.523 z m -4.476,-30.439 h -10.152 l 0.598,17.905 h 10.748 c -1.299,-5.868 -1.194,-11.417 -1.194,-17.905 m -0.002,-29.843 h -10.747 v 17.906 h 10.747 z m 0,-29.843 h -10.747 v 17.309 h 10.747 z m -20.3,90.125 h -23.284 l 1.194,15.518 h 26.27 z m -2.388,-30.439 h -22.091 c 0.161,4.463 -0.206,8.987 -0.027,13.452 0.064,1.607 0.976,2.928 0.024,4.449 7.468,1.009 15.203,0.846 22.686,-10e-4 z m 0,-29.843 h -22.091 v 17.906 h 22.091 z m 0,-29.843 h -22.091 v 17.309 h 22.091 z M -78.81,21.785 h -22.688 l -0.597,15.518 h 24.479 z M -79.407,-8.654 -99.701,-8.658 V 9.848 h 20.294 z m 0,-29.843 h -20.3 v 17.906 h 20.3 z m -32.838,29.843 h -22.091 l -1.188,18.502 23.279,-0.597 z m -28.658,45.957 h 26.27 c 0.687,-5.131 1.305,-10.335 1.194,-15.518 h -23.285 c -0.783,5.258 -2.237,10.578 -4.179,15.518 M -157.64,-8.654 c 0.09,5.975 -0.109,12.019 -1.194,17.905 h 11.363 l 0.597,-17.905 z m -10.13,45.957 h 14.926 l 3.582,-15.518 h -12.24 z m -1.792,-74.606 -10.15,0.596 v 22.383 0.988 c 4.48,-1.949 6.311,-2.668 10.15,-4.271 z m -0.623,-32.206 -10.124,-3.009 v 23.278 l 10.219,-1.411 c 0,-2.403 -0.095,-17.421 -0.095,-18.858 m -9.527,100.844 c 8.19,-9.63 8.124,-23.33 9.553,-35.209 -0.674,-0.508 -8.336,3.005 -9.553,3.874 z M 6.292,52.248 -188.232,52.088 c -3.886,0 -5.833,-3.817 -5.833,-7.897 l 0.001,-122.999 c 0.07,-4.356 3.397,-8.05 7.927,-7.878 4.875,0.187 11.357,3.441 17.135,5.273 -0.051,0.434 -0.082,0.874 -0.118,1.312 -0.022,0.207 -0.038,0.416 -0.056,0.624 -0.003,0.045 -0.008,0.09 -0.011,0.136 -0.111,1.263 -0.178,2.539 -0.178,3.83 0,15.702 8.375,29.446 20.901,37.014 h -9.157 v 17.905 h 11.344 v -16.677 c 3.697,1.95 7.708,3.378 11.941,4.19 v 12.487 h 22.091 v -14.002 c 8.89,-3.021 16.478,-8.848 21.705,-16.437 h 11.133 V -68.34 h -4.13 c 0.39,-2.333 0.603,-4.727 0.603,-7.171 0,-1.607 -0.095,-3.191 -0.265,-4.753 l 67.381,-0.009 c 6.19,-0.678 16.593,-6.56 22.085,-6.584 3.16,-0.014 7.184,2.245 7.184,5.368 L 13.76,45.389 c 0,3.459 -3.214,6.859 -7.468,6.859"
       style="fill:#ff342d;fill-opacity:1;fill-rule:nonzero;stroke:none"
       transform="matrix(0.35277776,0,0,-0.35277776,140.42847,138.55277)"
       clip-path="url(#clipPath1161)" />
    <path
       id="path1162"
       d="m 0,0 c -0.403,-0.118 -4.717,-5.971 -4.784,-6.488 -0.067,-0.517 0.188,-1.186 0.33,-1.698 0.246,-0.891 1.689,-5.033 2.102,-5.57 0.646,-0.839 4.696,-1.252 5.869,-1.291 1.339,-0.044 6.243,0.318 7.185,1.02 1.126,0.838 2.184,6.271 2.865,7.771 C 13.51,-5.895 9.661,-0.651 9.29,-0.323 8.929,-0.004 8.875,0.001 8.4,0.065 5.908,0.404 2.586,-0.167 0,0 M 24.297,14.556 C 23.454,14.561 17.612,13.085 17.074,12.593 15.975,11.59 14.38,4.821 13.677,3.055 c 0.922,-0.938 3.628,-6.026 4.482,-6.274 0.619,-0.18 2.035,-0.082 2.758,-0.051 0.859,0.038 5.181,0.459 5.697,0.697 0.754,0.349 2.744,4.578 3.135,5.561 0.445,1.12 1.791,4.757 1.344,5.697 -1.255,0.892 -5.63,5.864 -6.796,5.871 m -40.402,0.035 c -0.513,-0.092 -6.335,-5.384 -6.481,-5.833 -0.487,-1.492 3.106,-10.777 4.505,-11.388 2.906,-0.335 5.843,-0.76 8.773,-0.594 0.445,0.136 3.908,5.199 4.125,5.848 0.239,0.718 0.188,1.071 0.017,1.781 -0.238,0.987 -3.039,7.707 -3.574,8.188 -0.557,0.501 -6.66,2.124 -7.365,1.998 m 8.445,22.504 c -1.202,-0.203 -5.056,-3.221 -6.079,-4.174 -1.003,-0.934 -3.105,-2.978 -3.074,-4.337 0.02,-0.891 1.773,-8.157 2.185,-8.58 0.376,-0.387 6.908,-1.864 7.667,-1.809 0.79,0.056 1.142,0.455 1.745,0.832 1.119,0.7 5.709,4.065 6.314,4.939 1.027,1.485 0.384,3.475 0.259,5.118 -0.071,0.93 0.241,2.679 -0.239,3.342 -2.505,1.066 -5.16,3.464 -7.591,4.429 -0.457,0.181 -0.632,0.334 -1.187,0.24 M 23.022,20.073 c 0.461,0.461 2.477,8.489 2.331,9.204 -0.371,1.818 -8.314,8.487 -10.022,8.319 L 7.105,32.538 C 6.821,32.076 6.889,24.829 7.222,24.271 l 7.697,-6.197 c 2.659,0.402 5.552,1.02 8.103,1.999 m 13.865,-7.307 c 0,-17.993 -14.586,-32.579 -32.58,-32.579 -17.993,0 -32.58,14.586 -32.58,32.579 0,17.994 14.587,32.58 32.58,32.58 17.994,0 32.58,-14.586 32.58,-32.58"
       style="fill:#ff342d;fill-opacity:1;fill-rule:nonzero;stroke:none"
       transform="matrix(0.35277776,0,0,-0.35277776,94.402423,169.69122)"
       clip-path="url(#clipPath1163)" />
  </g>
</svg>
