<?xml version="1.0" encoding="UTF-8" standalone="no"?>
<!-- Created with Inkscape (http://www.inkscape.org/) -->

<svg
   width="73.374458mm"
   height="73.377777mm"
   viewBox="0 0 73.374458 73.377777"
   version="1.1"
   id="svg1"
   inkscape:version="1.4.2 (ebf0e940, 2025-05-08)"
   sodipodi:docname="gym.svg"
   xmlns:inkscape="http://www.inkscape.org/namespaces/inkscape"
   xmlns:sodipodi="http://sodipodi.sourceforge.net/DTD/sodipodi-0.dtd"
   xmlns="http://www.w3.org/2000/svg"
   xmlns:svg="http://www.w3.org/2000/svg">
  <sodipodi:namedview
     id="namedview1"
     pagecolor="#ffffff"
     bordercolor="#000000"
     borderopacity="0.25"
     inkscape:showpageshadow="2"
     inkscape:pageopacity="0.0"
     inkscape:pagecheckerboard="0"
     inkscape:deskcolor="#d1d1d1"
     inkscape:document-units="mm"
     inkscape:zoom="0.023162177"
     inkscape:cx="-6324.9667"
     inkscape:cy="906.65051"
     inkscape:window-width="896"
     inkscape:window-height="245"
     inkscape:window-x="0"
     inkscape:window-y="39"
     inkscape:window-maximized="0"
     inkscape:current-layer="layer1" />
  <defs
     id="defs1">
    <clipPath
       clipPathUnits="userSpaceOnUse"
       id="clipPath520">
      <path
         d="M 0,276 H 276 V 0 H 0 Z"
         transform="translate(-132.44393,-211.75131)"
         id="path520" />
    </clipPath>
    <clipPath
       clipPathUnits="userSpaceOnUse"
       id="clipPath518">
      <path
         d="M 0,276 H 276 V 0 H 0 Z"
         transform="translate(-76.005227,-120.00261)"
         id="path518" />
    </clipPath>
    <clipPath
       clipPathUnits="userSpaceOnUse"
       id="clipPath516">
      <path
         d="M 0,276 H 276 V 0 H 0 Z"
         transform="translate(-196.58408,-167.8354)"
         id="path516" />
    </clipPath>
    <clipPath
       clipPathUnits="userSpaceOnUse"
       id="clipPath514">
      <path
         d="M 0,276 H 276 V 0 H 0 Z"
         transform="translate(-100.92128,-61.595604)"
         id="path514" />
    </clipPath>
    <clipPath
       clipPathUnits="userSpaceOnUse"
       id="clipPath512">
      <path
         d="M 0,276 H 276 V 0 H 0 Z"
         transform="translate(-237.37981,-141.73851)"
         id="path512" />
    </clipPath>
  </defs>
  <g
     inkscape:label="Layer 1"
     inkscape:groupmode="layer"
     id="layer1"
     transform="translate(-1779.5876,93.927086)">
    <path
       id="path511"
       d="m 0,0 -1.696,-1.41 -16.349,19.672 1.697,1.41 c 5.432,4.514 13.496,3.77 18.01,-1.662 v 0 C 6.176,12.578 5.432,4.514 0,0"
       style="fill:#ff342d;fill-opacity:1;fill-rule:nonzero;stroke:none"
       transform="matrix(0.35277776,0,0,-0.35277776,1851.3339,-58.557658)"
       clip-path="url(#clipPath512)" />
    <path
       id="path513"
       d="m 0,0 1.696,1.41 16.349,-19.672 -1.697,-1.41 c -5.432,-4.514 -13.496,-3.77 -18.01,1.662 v 0 C -6.176,-12.578 -5.432,-4.514 0,0"
       style="fill:#ff342d;fill-opacity:1;fill-rule:nonzero;stroke:none"
       transform="matrix(0.35277776,0,0,-0.35277776,1803.1944,-30.285024)"
       clip-path="url(#clipPath514)" />
    <path
       id="path515"
       d="m 0,0 -21.34,-17.734 c -2.992,-2.487 -3.402,-6.929 -0.915,-9.921 l 12.064,-14.517 -43.837,-36.43 -12.064,14.517 c -2.487,2.993 -6.929,3.403 -9.921,0.916 l -21.34,-17.734 c -2.992,-2.487 -3.402,-6.929 -0.915,-9.921 l 16.567,-19.935 0.498,-0.6 16.567,-19.936 c 2.487,-2.992 6.929,-3.402 9.921,-0.915 l 21.34,17.734 c 2.992,2.486 3.402,6.928 0.915,9.921 l -12.064,14.517 43.837,36.43 12.064,-14.518 c 2.487,-2.992 6.929,-3.402 9.921,-0.915 l 21.34,17.734 c 2.992,2.486 3.402,6.928 0.915,9.921 L 9.921,-0.916 C 7.434,2.077 2.992,2.487 0,0"
       style="fill:#ff342d;fill-opacity:1;fill-rule:nonzero;stroke:none"
       transform="matrix(0.35277776,0,0,-0.35277776,1836.9421,-67.764062)"
       clip-path="url(#clipPath516)" />
    <path
       id="path517"
       d="m 0,0 c -16.543,0 -30.001,13.458 -30.001,30.001 0,16.542 13.458,30.001 30.001,30.001 16.543,0 30.001,-13.459 30.001,-30.001 C 30.001,13.458 16.543,0 0,0 m 7.21,71.372 v 50.62 H -7.21 V 71.372 C -26.969,67.952 -42.001,50.737 -42.001,30.001 -42.001,6.804 -23.196,-12 0,-12 c 23.196,0 42.001,18.804 42.001,42.001 0,20.736 -15.032,37.951 -34.791,41.371"
       style="fill:#ff342d;fill-opacity:1;fill-rule:nonzero;stroke:none"
       transform="matrix(0.35277776,0,0,-0.35277776,1794.4046,-50.889715)"
       clip-path="url(#clipPath518)" />
    <path
       id="path519"
       d="M 0,0 V 30.247 H -13.912 V 0 c -10.064,-1.742 -18.853,-7.196 -24.912,-14.898 3.807,-1.361 7.382,-3.16 10.675,-5.331 5.289,5.69 12.83,9.259 21.193,9.259 15.959,0 28.942,-12.983 28.942,-28.942 0,-15.677 -12.531,-28.473 -28.102,-28.92 -0.541,-4.017 -1.558,-7.882 -2.994,-11.54 0.713,-0.038 1.431,-0.058 2.154,-0.058 22.378,0 40.519,18.14 40.519,40.518 C 33.563,-19.907 19.061,-3.3 0,0"
       style="fill:#ff342d;fill-opacity:1;fill-rule:nonzero;stroke:none"
       transform="matrix(0.35277776,0,0,-0.35277776,1814.3149,-83.256617)"
       clip-path="url(#clipPath520)" />
  </g>
</svg>
