<?xml version="1.0" encoding="UTF-8" standalone="no"?>
<!-- Created with Inkscape (http://www.inkscape.org/) -->

<svg
   width="73.496361mm"
   height="64.911766mm"
   viewBox="0 0 73.496361 64.911766"
   version="1.1"
   id="svg1"
   inkscape:version="1.4.2 (ebf0e940, 2025-05-08)"
   sodipodi:docname="hockey.svg"
   xmlns:inkscape="http://www.inkscape.org/namespaces/inkscape"
   xmlns:sodipodi="http://sodipodi.sourceforge.net/DTD/sodipodi-0.dtd"
   xmlns="http://www.w3.org/2000/svg"
   xmlns:svg="http://www.w3.org/2000/svg">
  <sodipodi:namedview
     id="namedview1"
     pagecolor="#ffffff"
     bordercolor="#000000"
     borderopacity="0.25"
     inkscape:showpageshadow="2"
     inkscape:pageopacity="0.0"
     inkscape:pagecheckerboard="0"
     inkscape:deskcolor="#d1d1d1"
     inkscape:document-units="mm"
     inkscape:zoom="0.023162177"
     inkscape:cx="194.28225"
     inkscape:cy="-215.86917"
     inkscape:window-width="896"
     inkscape:window-height="245"
     inkscape:window-x="0"
     inkscape:window-y="39"
     inkscape:window-maximized="0"
     inkscape:current-layer="layer1" />
  <defs
     id="defs1">
    <clipPath
       clipPathUnits="userSpaceOnUse"
       id="clipPath3134">
      <path
         d="M 0,276 H 276 V 0 H 0 Z"
         id="path3134" />
    </clipPath>
    <clipPath
       clipPathUnits="userSpaceOnUse"
       id="clipPath3132">
      <path
         d="M 0,276 H 276 V 0 H 0 Z"
         transform="translate(-107.05898,-128.07951)"
         id="path3132" />
    </clipPath>
    <clipPath
       clipPathUnits="userSpaceOnUse"
       id="clipPath3130">
      <path
         d="M 0,276 H 276 V 0 H 0 Z"
         transform="translate(-230.12543,-210.68751)"
         id="path3130" />
    </clipPath>
  </defs>
  <g
     inkscape:label="Layer 1"
     inkscape:groupmode="layer"
     id="layer1"
     transform="translate(-54.504184,-207.43334)">
    <path
       id="path3129"
       d="m 0,0 c 5.264,0.628 15.071,-7.032 10.836,-12.953 -24.2,-35.764 -48.044,-71.794 -72.619,-107.302 -6.504,-9.397 -23.027,-36.458 -31.689,-41.106 -1.806,-0.969 -5.068,-2.303 -7.051,-2.563 -7.985,-1.048 -30.971,-0.97 -39.095,-0.061 -4.641,0.52 -10.199,4.825 -9.925,9.86 0.109,2.015 2.578,11.126 3.477,13.07 1.457,3.152 4.958,6.189 8.495,6.614 12.658,1.519 28.672,-1.598 41.27,-0.059 0.759,0.093 1.495,0.019 2.007,0.741 L -4.25,-2.675 C -3.365,-1.288 -1.631,-0.195 0,0"
       style="fill:#ff342d;fill-opacity:1;fill-rule:nonzero;stroke:none"
       transform="matrix(0.35277776,0,0,-0.35277776,123.81317,214.24671)"
       clip-path="url(#clipPath3130)" />
    <path
       id="path3131"
       d="m 0,0 c 3.668,0.616 16.96,0.585 20.786,0.117 4.714,-0.575 6.966,-4.788 7.335,-9.099 0.46,-5.355 0.712,-12.988 -5.108,-15.356 -3.342,-1.359 -16.391,-1.228 -20.447,-0.864 -4.808,0.431 -8.456,2.741 -9.065,7.815 C -7.177,-11.74 -7.281,-1.223 0,0"
       style="fill:#ff342d;fill-opacity:1;fill-rule:nonzero;stroke:none"
       transform="matrix(0.35277776,0,0,-0.35277776,80.398064,243.38897)"
       clip-path="url(#clipPath3132)" />
    <path
       id="path3133"
       d="M 48.114,167.321 H 64.891 V 152.065 H 48.114 Z m 0,24.207 H 64.891 V 176.272 H 48.114 Z m 0,24.207 H 64.891 V 200.479 H 48.114 Z M 72.833,167.321 H 89.61 V 152.065 H 72.833 Z m 0,24.207 H 89.61 V 176.272 H 72.833 Z m 0,24.207 H 89.61 V 200.479 H 72.833 Z m 24.718,-48.414 h 16.777 V 152.065 H 97.551 Z m 0,24.207 h 16.777 V 176.272 H 97.551 Z m 0,24.207 h 16.777 V 200.479 H 97.551 Z m 24.718,-48.414 h 16.777 v -15.256 h -16.777 z m 0,24.207 h 16.777 v -15.256 h -16.777 z m 0,24.207 h 16.777 v -15.256 h -16.777 z m 24.718,-48.414 h 16.777 v -15.256 h -16.777 z m 0,24.207 h 16.777 v -15.256 h -16.777 z m 0,24.207 h 16.777 v -15.256 h -16.777 z m 24.719,-24.207 h 16.777 v -15.256 h -16.777 z m 0,24.207 h 16.777 v -15.256 h -16.777 z m -2.465,-72.509 6.072,8.84 h -3.607 v 15.255 h 14.087 l 16.198,23.582 0.01,23.749 c 0,10.682 -8.874,15.349 -18.778,15.349 -43.404,0 -90.577,-0.007 -131.948,-0.007 -9.691,-0.766 -17.616,-6.057 -17.616,-15.931 l 0.026,-86.649 c 0,-7.765 14.429,-7.791 14.429,-0.092 v 15.904 h 0.066 z"
       style="fill:#ff342d;fill-opacity:1;fill-rule:nonzero;stroke:none"
       transform="matrix(0.35277776,0,0,-0.35277776,42.630037,288.57258)"
       clip-path="url(#clipPath3134)" />
  </g>
</svg>
