<?xml version="1.0" encoding="UTF-8" standalone="no"?>
<!-- Created with Inkscape (http://www.inkscape.org/) -->

<svg
   width="73.485756mm"
   height="73.376511mm"
   viewBox="0 0 73.485756 73.376511"
   version="1.1"
   id="svg1"
   inkscape:version="1.4.2 (ebf0e940, 2025-05-08)"
   sodipodi:docname="instruments.svg"
   xmlns:inkscape="http://www.inkscape.org/namespaces/inkscape"
   xmlns:sodipodi="http://sodipodi.sourceforge.net/DTD/sodipodi-0.dtd"
   xmlns="http://www.w3.org/2000/svg"
   xmlns:svg="http://www.w3.org/2000/svg">
  <sodipodi:namedview
     id="namedview1"
     pagecolor="#ffffff"
     bordercolor="#000000"
     borderopacity="0.25"
     inkscape:showpageshadow="2"
     inkscape:pageopacity="0.0"
     inkscape:pagecheckerboard="0"
     inkscape:deskcolor="#d1d1d1"
     inkscape:document-units="mm"
     inkscape:zoom="0.023162177"
     inkscape:cx="151.10842"
     inkscape:cy="129.5215"
     inkscape:window-width="896"
     inkscape:window-height="245"
     inkscape:window-x="0"
     inkscape:window-y="39"
     inkscape:window-maximized="0"
     inkscape:current-layer="layer1" />
  <defs
     id="defs1">
    <clipPath
       clipPathUnits="userSpaceOnUse"
       id="clipPath4452">
      <path
         d="M 0,276 H 276 V 0 H 0 Z"
         transform="translate(-178.848,-138.02721)"
         id="path4452" />
    </clipPath>
    <clipPath
       clipPathUnits="userSpaceOnUse"
       id="clipPath4450">
      <path
         d="M 0,276 H 276 V 0 H 0 Z"
         transform="translate(-155.286,-47.986801)"
         id="path4450" />
    </clipPath>
  </defs>
  <g
     inkscape:label="Layer 1"
     inkscape:groupmode="layer"
     id="layer1"
     transform="translate(-71.702037,-111.91875)">
    <path
       id="path4449"
       d="m 0,0 h -108.472 v 33.6 h 7.948 1.728 4.536 V 15.048 h 7.105 V 33.6 h 3.125 V 15.048 h 7.105 V 33.6 h 11.23 2.866 V 15.048 h 7.106 V 33.6 h 3.124 V 15.048 h 7.105 V 33.6 h 12.392 1.705 V 15.048 h 7.105 V 33.6 h 1.375 1.749 V 15.048 h 7.106 V 33.6 H -11.28 0 Z m -11.011,84.448 c -5.312,0.806 -10.765,0.128 -16,1.314 -13.583,3.079 -19.942,18.076 -28.485,27.525 -10.607,11.733 -23.599,18.334 -39.848,16.39 -11.129,-1.332 -24.708,-13.395 -26.237,-24.681 l 0.134,-118.985 h 1.782 130.857 1.783 l 0.284,71.79 c -1.474,14.187 -9.914,24.471 -24.27,26.647"
       style="fill:#ff342d;fill-opacity:1;fill-rule:nonzero;stroke:none"
       transform="matrix(0.35277776,0,0,-0.35277776,114.59311,180.36025)"
       clip-path="url(#clipPath4450)" />
    <path
       id="path4451"
       d="M 0,0 C 7.546,-7.008 21.155,-10.456 26.677,0.759 32.022,11.613 24.782,18.728 15.533,23.044 Z M -16.058,10.354 -6.482,3.906 9.772,26.994 8.616,27.868 c -2.322,1.757 -4.795,3.306 -7.388,4.631 l -1.71,0.873 z m -14.961,10.293 c -0.309,-0.975 0.227,-0.588 0.595,-0.845 1.051,-0.735 7.387,-5.062 7.907,-5.064 1.357,-0.004 13.461,19.834 15.727,22.114 0.138,0.925 -4.026,3.165 -4.972,3.695 -0.951,0.532 -4.047,2.529 -4.757,2.114 z m 8.226,26.208 c -4.302,1.777 -7.605,3.771 -12.374,1.768 -6.613,-2.778 -9.662,-12.281 -6.881,-18.686 0.466,-1.073 4.324,-6.02 5.268,-5.338 z m -44.809,15.044 c -3.868,-0.144 -12.81,-4.399 -10.621,3.37 2.583,9.172 14.63,27.006 21.242,34.165 2.048,2.218 6.481,7.432 8.679,2.437 1.313,-2.983 1.37,-6.222 3.157,-9.788 6.617,-13.203 19.764,-23.194 30.84,-32.252 0.64,0.686 4.464,5.562 4.449,5.934 -0.016,0.401 -1.502,0.811 -1.804,1.291 -0.723,1.148 -0.237,3.137 1.149,3.54 2.134,0.622 10.767,-4.261 11.576,-6.372 1.678,-4.379 -4.078,-2.23 -4.723,-2.598 -0.289,-0.166 -3.617,-5.309 -3.56,-5.637 2.77,-2.747 4.918,-4.152 8.132,-7.2 1.8,2.623 4.09,5.046 4.579,6.872 0.296,1.102 -1.82,2.968 -0.613,4.697 1.441,2.064 11.638,-3.706 11.179,-6.99 -0.438,-3.13 -3.905,-1.221 -4.11,-1.362 -0.345,-0.235 -3.852,-6.221 -4.158,-7.167 l 9.798,-6.261 c -0.015,1.432 4.075,5.896 4.068,6.479 -0.004,0.316 -1.299,0.963 -1.484,2.09 -0.783,4.77 2.391,3.455 5.146,2.002 2.31,-1.218 6.808,-3.76 6.273,-6.675 -0.466,-2.541 -3.415,-0.703 -3.591,-0.825 -0.716,-0.496 -3.061,-6.184 -4.7,-6.955 L 57.282,11.172 c 2.691,2.822 6.916,1.329 5.65,-2.648 C 62.767,8.005 57.72,0.22 57.323,-0.107 56.582,-0.718 55.035,-0.947 54.115,-0.794 51.647,-0.382 52.869,2.912 51.781,4.153 L 35.202,14.236 C 40.748,-4.254 22.617,-20.313 4.811,-12.266 -9.171,-2.278 -25.57,5.989 -39.315,16.101 c -15.186,11.172 -15.559,27.039 -1.084,39.041 -8.39,2.629 -18.256,7.091 -27.203,6.757"
       style="fill:#ff342d;fill-opacity:1;fill-rule:nonzero;stroke:none"
       transform="matrix(0.35277776,0,0,-0.35277776,122.90526,148.596)"
       clip-path="url(#clipPath4452)" />
  </g>
</svg>
