<?xml version="1.0" encoding="UTF-8" standalone="no"?>
<!-- Created with Inkscape (http://www.inkscape.org/) -->

<svg
   width="73.374619mm"
   height="73.35257mm"
   viewBox="0 0 73.374619 73.35257"
   version="1.1"
   id="svg1"
   inkscape:version="1.4.2 (ebf0e940, 2025-05-08)"
   sodipodi:docname="kareoke.svg"
   xmlns:inkscape="http://www.inkscape.org/namespaces/inkscape"
   xmlns:sodipodi="http://sodipodi.sourceforge.net/DTD/sodipodi-0.dtd"
   xmlns="http://www.w3.org/2000/svg"
   xmlns:svg="http://www.w3.org/2000/svg">
  <sodipodi:namedview
     id="namedview1"
     pagecolor="#ffffff"
     bordercolor="#000000"
     borderopacity="0.25"
     inkscape:showpageshadow="2"
     inkscape:pageopacity="0.0"
     inkscape:pagecheckerboard="0"
     inkscape:deskcolor="#d1d1d1"
     inkscape:document-units="mm"
     inkscape:zoom="0.062290941"
     inkscape:cx="-2159.2225"
     inkscape:cy="240.80548"
     inkscape:window-width="896"
     inkscape:window-height="245"
     inkscape:window-x="0"
     inkscape:window-y="39"
     inkscape:window-maximized="0"
     inkscape:current-layer="layer1" />
  <defs
     id="defs1">
    <clipPath
       clipPathUnits="userSpaceOnUse"
       id="clipPath3005">
      <path
         d="M 0,276 H 276 V 0 H 0 Z"
         transform="translate(-228.75743,-105.5662)"
         id="path3005" />
    </clipPath>
    <clipPath
       clipPathUnits="userSpaceOnUse"
       id="clipPath3003">
      <path
         d="M 0,276 H 276 V 0 H 0 Z"
         transform="translate(-232.14833,-112.7172)"
         id="path3003" />
    </clipPath>
    <clipPath
       clipPathUnits="userSpaceOnUse"
       id="clipPath3001">
      <path
         d="M 0,276 H 276 V 0 H 0 Z"
         transform="translate(-169.51808,-115.3585)"
         id="path3001" />
    </clipPath>
    <clipPath
       clipPathUnits="userSpaceOnUse"
       id="clipPath2999">
      <path
         d="M 0,276 H 276 V 0 H 0 Z"
         transform="translate(-44.413801,-185.1886)"
         id="path2999" />
    </clipPath>
    <clipPath
       clipPathUnits="userSpaceOnUse"
       id="clipPath2997">
      <path
         d="M 0,276 H 276 V 0 H 0 Z"
         transform="translate(-92.606702,-199.2082)"
         id="path2997" />
    </clipPath>
    <clipPath
       clipPathUnits="userSpaceOnUse"
       id="clipPath2995">
      <path
         d="M 0,276 H 276 V 0 H 0 Z"
         transform="translate(-138.09683,-199.18521)"
         id="path2995" />
    </clipPath>
    <clipPath
       clipPathUnits="userSpaceOnUse"
       id="clipPath2993">
      <path
         d="M 0,276 H 276 V 0 H 0 Z"
         transform="translate(-115.365,-199.198)"
         id="path2993" />
    </clipPath>
    <clipPath
       clipPathUnits="userSpaceOnUse"
       id="clipPath2991">
      <path
         d="M 0,276 H 276 V 0 H 0 Z"
         transform="translate(-69.895127,-199.155)"
         id="path2991" />
    </clipPath>
    <clipPath
       clipPathUnits="userSpaceOnUse"
       id="clipPath2989">
      <path
         d="M 0,276 H 276 V 0 H 0 Z"
         transform="translate(-160.8666,-199.13841)"
         id="path2989" />
    </clipPath>
  </defs>
  <g
     inkscape:label="Layer 1"
     inkscape:groupmode="layer"
     id="layer1"
     transform="translate(-1608.1374,-225.95416)">
    <path
       id="path2988"
       d="m 0,0 c 0,-3.464 -2.809,-6.273 -6.275,-6.273 -3.465,0 -6.274,2.809 -6.274,6.273 0,3.464 2.809,6.273 6.274,6.273 C -2.809,6.273 0,3.464 0,0"
       style="fill:#ff342d;fill-opacity:1;fill-rule:nonzero;stroke:none"
       transform="matrix(0.35277776,0,0,-0.35277776,1652.8915,241.07217)"
       clip-path="url(#clipPath2989)" />
    <path
       id="path2990"
       d="m 0,0 c 0,-3.459 -2.805,-6.263 -6.265,-6.263 -3.46,0 -6.265,2.804 -6.265,6.263 0,3.459 2.805,6.263 6.265,6.263 C -2.805,6.263 0,3.459 0,0"
       style="fill:#ff342d;fill-opacity:1;fill-rule:nonzero;stroke:none"
       transform="matrix(0.35277776,0,0,-0.35277776,1620.7988,241.06632)"
       clip-path="url(#clipPath2991)" />
    <path
       id="path2992"
       d="m 0,0 c 0,-3.453 -2.8,-6.252 -6.254,-6.252 -3.454,0 -6.254,2.799 -6.254,6.252 0,3.453 2.8,6.252 6.254,6.252 C -2.8,6.252 0,3.453 0,0"
       style="fill:#ff342d;fill-opacity:1;fill-rule:nonzero;stroke:none"
       transform="matrix(0.35277776,0,0,-0.35277776,1636.8395,241.05115)"
       clip-path="url(#clipPath2993)" />
    <path
       id="path2994"
       d="m 0,0 c 0,-3.448 -2.796,-6.243 -6.245,-6.243 -3.449,0 -6.246,2.795 -6.246,6.243 0,3.448 2.797,6.243 6.246,6.243 C -2.796,6.243 0,3.448 0,0"
       style="fill:#ff342d;fill-opacity:1;fill-rule:nonzero;stroke:none"
       transform="matrix(0.35277776,0,0,-0.35277776,1644.8588,241.05566)"
       clip-path="url(#clipPath2995)" />
    <path
       id="path2996"
       d="m 0,0 c 0,-3.443 -2.792,-6.234 -6.236,-6.234 -3.444,0 -6.236,2.791 -6.236,6.234 0,3.443 2.792,6.234 6.236,6.234 C -2.792,6.234 0,3.443 0,0"
       style="fill:#ff342d;fill-opacity:1;fill-rule:nonzero;stroke:none"
       transform="matrix(0.35277776,0,0,-0.35277776,1628.8109,241.04755)"
       clip-path="url(#clipPath2997)" />
    <path
       id="path2998"
       d="m 0,0 v 28.127 h 64.397 0.611 64.397 L 129.404,0 H 65.008 64.702 64.397 Z m 43.631,45.213 c 7.348,0 14.105,-0.014 20.766,-0.028 v -0.002 c 0.101,10e-4 0.204,10e-4 0.305,10e-4 0.102,0 0.204,0 0.306,-10e-4 v 0.002 c 6.66,0.014 13.418,0.028 20.765,0.028 4.546,0 6.833,-2.645 7.618,-6.741 H 65.008 64.397 36.014 c 0.784,4.096 3.072,6.741 7.617,6.741 M 64.702,-89.668 h 0.306 l 35.363,0.006 c 4.46,8.234 9.141,16.471 14.263,24.442 0.271,0.469 0.575,0.912 0.907,1.33 0.965,1.212 1.412,2.741 1.16,4.269 -1.236,7.488 0.035,13.993 1.728,19.949 0.532,2.531 1.911,4.853 3.58,6.602 0.689,0.722 1.17,1.6 1.444,2.559 0.827,2.897 2.629,5.077 3.873,6.31 3.881,3.828 7.655,7.536 12.343,10.518 -0.017,15.978 0.007,31.886 0.145,47.713 0,3.157 -0.622,4.458 -3.987,4.458 -9.638,0 -21.739,-0.019 -31.452,-0.019 -1.976,9.5 -8.248,18.335 -17.118,18.335 -7.672,0 -15.097,-0.037 -22.555,-0.077 -7.457,0.04 -14.883,0.077 -22.554,0.077 -8.871,0 -15.143,-8.835 -17.119,-18.335 -9.712,0 -21.814,0.019 -31.452,0.019 -3.365,0 -3.986,-1.301 -3.986,-4.458 0.341,-39.322 0,-79.124 0,-119.329 0,-3.97 9.802,-4.367 9.802,-4.367 0,0 -0.21,-5.981 3.94,-5.981 h 11.496 c 3.497,0 2.778,5.919 3.219,5.987 l 46.349,-0.008 z"
       style="fill:#ff342d;fill-opacity:1;fill-rule:nonzero;stroke:none"
       transform="matrix(0.35277776,0,0,-0.35277776,1611.8095,245.99335)"
       clip-path="url(#clipPath2999)" />
    <path
       id="path3000"
       d="m 0,0 c -0.617,0.431 -1.479,0.239 -1.831,-0.427 -0.034,-0.065 -0.071,-0.129 -0.112,-0.191 -8.511,-13.221 -15.766,-27.19 -23.064,-41.081 -2.303,-4.383 -7.308,-13.722 -6.889,-18.326 0.152,-1.678 0.692,-4.658 1.852,-6.183 0.364,-0.479 0.306,-1.147 -0.12,-1.571 -1.55,-1.543 -4.215,-3.018 -6.063,-3.167 -8.077,-0.65 -9.2,6.392 -16.246,10.153 -5.523,2.949 -9.358,-4.109 -5.864,-7.779 3.044,-3.197 6.773,-7.879 11.082,-10.346 6.502,-3.724 15.692,-2.983 21.573,1.604 1.252,0.976 3.74,4.073 4.279,4.318 1.143,0.519 4.502,-1.112 6.435,-0.708 5.39,1.124 9.692,5.061 13.308,8.84 5.833,6.096 12.04,12.347 17.535,18.687 5.917,6.828 11.214,14.228 17.265,20.945 0.607,0.674 0.496,1.723 -0.248,2.243 z"
       style="fill:#ff342d;fill-opacity:1;fill-rule:nonzero;stroke:none"
       transform="matrix(0.35277776,0,0,-0.35277776,1655.9435,270.62786)"
       clip-path="url(#clipPath3001)" />
    <path
       id="path3002"
       d="M 0,0 C 2.044,-1.428 3.702,1.182 4.31,2.447 5.994,5.954 7.672,8.37 8.753,12.31 15.068,35.341 -7.005,58.253 -30.239,54.835 -40.898,53.267 -46.04,48.397 -53.37,41.166 c -0.159,-0.157 -2.276,-2.274 -0.889,-3.244 z"
       style="fill:#ff342d;fill-opacity:1;fill-rule:nonzero;stroke:none"
       transform="matrix(0.35277776,0,0,-0.35277776,1678.0381,271.55965)"
       clip-path="url(#clipPath3003)" />
    <path
       id="path3004"
       d="m 0,0 c 0.826,0.81 0.695,2.18 -0.253,2.843 l -53.355,37.291 c -1.107,0.773 -2.603,-1.779 -2.543,-2.414 -1.973,-6.805 -2.778,-12.338 -1.048,-18.798 0.526,-1.963 1.758,-3.668 3.424,-4.831 l 29.045,-20.28 c 2.214,-1.545 4.911,-2.258 7.596,-1.975 C -10.725,-7.488 -4.594,-4.507 0,0"
       style="fill:#ff342d;fill-opacity:1;fill-rule:nonzero;stroke:none"
       transform="matrix(0.35277776,0,0,-0.35277776,1676.8418,274.08237)"
       clip-path="url(#clipPath3005)" />
  </g>
</svg>
