<?xml version="1.0" encoding="UTF-8" standalone="no"?>
<!-- Created with Inkscape (http://www.inkscape.org/) -->

<svg
   width="47.537155mm"
   height="75.451622mm"
   viewBox="0 0 47.537155 75.451622"
   version="1.1"
   id="svg1"
   inkscape:version="1.4.2 (ebf0e940, 2025-05-08)"
   sodipodi:docname="lectern.svg"
   xmlns:inkscape="http://www.inkscape.org/namespaces/inkscape"
   xmlns:sodipodi="http://sodipodi.sourceforge.net/DTD/sodipodi-0.dtd"
   xmlns="http://www.w3.org/2000/svg"
   xmlns:svg="http://www.w3.org/2000/svg">
  <sodipodi:namedview
     id="namedview1"
     pagecolor="#ffffff"
     bordercolor="#000000"
     borderopacity="0.25"
     inkscape:showpageshadow="2"
     inkscape:pageopacity="0.0"
     inkscape:pagecheckerboard="0"
     inkscape:deskcolor="#d1d1d1"
     inkscape:document-units="mm"
     inkscape:zoom="0.023162177"
     inkscape:cx="-1489.4973"
     inkscape:cy="0"
     inkscape:window-width="896"
     inkscape:window-height="245"
     inkscape:window-x="0"
     inkscape:window-y="39"
     inkscape:window-maximized="0"
     inkscape:current-layer="layer1" />
  <defs
     id="defs1">
    <clipPath
       clipPathUnits="userSpaceOnUse"
       id="clipPath1560">
      <path
         d="M 0,276 H 276 V 0 H 0 Z"
         transform="translate(-205.37573,-174.5266)"
         id="path1560" />
    </clipPath>
    <clipPath
       clipPathUnits="userSpaceOnUse"
       id="clipPath1558">
      <path
         d="M 0,276 H 276 V 0 H 0 Z"
         id="path1558" />
    </clipPath>
  </defs>
  <g
     inkscape:label="Layer 1"
     inkscape:groupmode="layer"
     id="layer1"
     transform="translate(-501.64998,-144.99167)">
    <path
       id="path1557"
       d="m 157.833,121.79 h -39.665 v 13.716 h 39.665 z M 184.77,50.66 c -1.98,0.941 -5.39,2.625 -14.18,1.607 l 11.144,102.781 H 95.361 94.502 L 104.961,52.265 C 96.422,53.31 85.914,50.577 84.58,40.759 84.318,38.834 83.907,28.12 86.074,28.12 h 104.019 c 2.129,0 1.776,10.685 1.55,12.695 -0.47,4.17 -3.111,8.057 -6.873,9.845"
       style="fill:#ff342d;fill-opacity:1;fill-rule:nonzero;stroke:none"
       transform="matrix(0.35277776,0,0,-0.35277776,476.73515,230.3634)"
       clip-path="url(#clipPath1558)" />
    <path
       id="path1559"
       d="M 0,0 C 0,0.16 -0.001,0.338 -0.002,0.52 -0.001,5.509 0,15.908 0,18.458 c 0,4.395 -2.97,6.533 -6.71,7.116 h -3.295 -2.001 l -3.043,16.412 c -0.57,3.072 -2.444,5.739 -5.141,7.315 l -13.426,7.851 c 0.022,0.262 0.04,0.524 0.04,0.791 0,5.262 -4.266,9.529 -9.529,9.529 -5.263,0 -9.529,-4.267 -9.529,-9.529 0,-5.263 4.266,-9.53 9.529,-9.53 2.189,0 4.2,0.746 5.809,1.987 l 13.227,-7.734 c 0.767,-0.449 1.3,-1.207 1.462,-2.082 l 2.783,-15.01 h -95.103 l 2.783,15.01 c 0.162,0.875 0.695,1.633 1.462,2.082 l 13.227,7.734 c 1.609,-1.241 3.619,-1.987 5.809,-1.987 5.262,0 9.529,4.267 9.529,9.53 0,5.262 -4.267,9.529 -9.529,9.529 -5.263,0 -9.53,-4.267 -9.53,-9.529 0,-0.267 0.019,-0.529 0.04,-0.791 l -13.426,-7.851 c -2.697,-1.576 -4.57,-4.243 -5.14,-7.315 l -3.043,-16.412 h -2.002 -3.294 c -3.74,-0.583 -6.71,-2.721 -6.71,-7.116 0,-2.55 0.001,-12.949 0.001,-17.938 -0.001,-0.182 -0.001,-0.36 -0.001,-0.52 0,-0.014 0.001,-0.028 0.001,-0.042 0,-0.198 0,-0.388 0,-0.562 -0.001,-0.174 -0.001,-0.339 -0.001,-0.488 0,-0.015 0.001,-0.03 0.001,-0.045 v -0.552 c 0,-0.51 0.082,-1.007 0.22,-1.489 0.783,-3.72 3.646,-6.264 7.336,-6.264 h 0.539 c 0.464,-0.082 0.921,-0.131 1.357,-0.131 l 13.963,0.017 c 0.111,-0.006 0.225,-0.017 0.333,-0.017 l 43.626,0.055 43.626,-0.055 c 0.109,0 0.223,0.011 0.334,0.017 l 13.962,-0.017 c 0.437,0 0.894,0.049 1.358,0.131 h 0.538 c 3.691,0 6.554,2.544 7.337,6.264 0.138,0.482 0.219,0.979 0.219,1.489 v 0.552 c 0,0.015 0.002,0.03 0.002,0.045 0,0.149 -0.001,0.314 -0.002,0.488 0,0.174 0,0.364 0,0.562 C -0.001,-0.028 0,-0.014 0,0"
       style="fill:#ff342d;fill-opacity:1;fill-rule:nonzero;stroke:none"
       transform="matrix(0.35277776,0,0,-0.35277776,549.18714,168.79429)"
       clip-path="url(#clipPath1560)" />
  </g>
</svg>
