<?xml version="1.0" encoding="UTF-8" standalone="no"?>
<!-- Created with Inkscape (http://www.inkscape.org/) -->

<svg
   width="100.87444mm"
   height="85.819084mm"
   viewBox="0 0 100.87444 85.819084"
   version="1.1"
   id="svg1"
   inkscape:version="1.4.2 (ebf0e940, 2025-05-08)"
   sodipodi:docname="makeup.svg"
   xml:space="preserve"
   xmlns:inkscape="http://www.inkscape.org/namespaces/inkscape"
   xmlns:sodipodi="http://sodipodi.sourceforge.net/DTD/sodipodi-0.dtd"
   xmlns="http://www.w3.org/2000/svg"
   xmlns:svg="http://www.w3.org/2000/svg"><sodipodi:namedview
     id="namedview1"
     pagecolor="#ffffff"
     bordercolor="#000000"
     borderopacity="0.25"
     inkscape:showpageshadow="2"
     inkscape:pageopacity="0.0"
     inkscape:pagecheckerboard="0"
     inkscape:deskcolor="#d1d1d1"
     inkscape:document-units="mm"
     inkscape:zoom="1.6398822"
     inkscape:cx="258.86005"
     inkscape:cy="166.47537"
     inkscape:window-width="1712"
     inkscape:window-height="971"
     inkscape:window-x="0"
     inkscape:window-y="39"
     inkscape:window-maximized="1"
     inkscape:current-layer="layer1" /><defs
     id="defs1"><clipPath
       clipPathUnits="userSpaceOnUse"
       id="clipPath2475"><path
         d="M 0,276 H 276 V 0 H 0 Z"
         transform="translate(-191.38043,-141.9999)"
         id="path2475" /></clipPath><clipPath
       clipPathUnits="userSpaceOnUse"
       id="clipPath2473"><path
         d="M 0,276 H 276 V 0 H 0 Z"
         transform="translate(-164.1342,-72.930699)"
         id="path2473" /></clipPath><clipPath
       clipPathUnits="userSpaceOnUse"
       id="clipPath2471"><path
         d="M 0,276 H 276 V 0 H 0 Z"
         transform="translate(-89.576102,-179.424)"
         id="path2471" /></clipPath><clipPath
       clipPathUnits="userSpaceOnUse"
       id="clipPath2469"><path
         d="M 0,276 H 276 V 0 H 0 Z"
         transform="translate(-90.834602,-175.4121)"
         id="path2469" /></clipPath><clipPath
       clipPathUnits="userSpaceOnUse"
       id="clipPath2467"><path
         d="M 0,276 H 276 V 0 H 0 Z"
         transform="translate(-174.9888,-181.63011)"
         id="path2467" /></clipPath><clipPath
       clipPathUnits="userSpaceOnUse"
       id="clipPath2465"><path
         d="M 0,276 H 276 V 0 H 0 Z"
         transform="translate(-176.12453,-186.4938)"
         id="path2465" /></clipPath><clipPath
       clipPathUnits="userSpaceOnUse"
       id="clipPath2463"><path
         d="M 0,276 H 276 V 0 H 0 Z"
         transform="translate(-69.061802,-152.40741)"
         id="path2463" /></clipPath><clipPath
       clipPathUnits="userSpaceOnUse"
       id="clipPath2461"><path
         d="M 0,276 H 276 V 0 H 0 Z"
         transform="translate(-58.099726,-140.33601)"
         id="path2461" /></clipPath></defs><g
     inkscape:label="Layer 1"
     inkscape:groupmode="layer"
     id="layer1"
     transform="translate(-67.754013,-90.570565)"><path
       id="path2460"
       d="m 0,0 c 7.184,-9.47 13.532,-19.539 20.484,-29.203 7.189,-9.995 14.418,-20.27 21.996,-30.04 3.698,-4.768 9.88,-14.07 13.855,-13.905 4.164,0.172 6.191,4.989 4.315,8.616 -3.015,5.829 -9.03,14.078 -12.804,20.013 -10.249,16.119 -21.385,31.67 -31.678,47.773 -0.907,1.418 -3.426,5.375 -3.426,5.375 0,0 -0.772,-0.522 -0.884,-0.598 z"
       style="fill:#ff342d;fill-opacity:1;fill-rule:nonzero;stroke:none"
       transform="matrix(0.35277776,0,0,-0.35277776,80.202368,147.78297)"
       clip-path="url(#clipPath2461)" /><path
       id="path2462"
       d="m 0,0 -18.961,27.997 c -3.002,4.432 -11.876,4.732 -15.162,-0.157 -2.815,-4.186 1.414,-15.059 3.688,-19.111 3.938,-7.018 10.893,-13.172 17.567,-17.444 z"
       style="fill:#ff342d;fill-opacity:1;fill-rule:nonzero;stroke:none"
       transform="matrix(0.35277776,0,0,-0.35277776,84.069545,143.52445)"
       clip-path="url(#clipPath2463)" /><path
       id="path2464"
       d="M 0,0 10.997,30.219 C 14.573,57.168 -35.468,64.868 -45.913,42.046 -51.68,29.445 -40.083,12.29 -36.787,0 Z"
       style="fill:#ff342d;fill-opacity:1;fill-rule:nonzero;stroke:none"
       transform="matrix(0.35277776,0,0,-0.35277776,121.83889,131.49952)"
       clip-path="url(#clipPath2465)" /><path
       id="path2466"
       d="m 0,0 h -33.813 c -0.44,0 -0.662,-0.736 -0.663,-1.244 -0.02,-6.964 1.16,-14.057 1.57,-21 1.059,-17.922 1.196,-37.093 3.063,-54.815 1.102,-10.453 7.828,-10.103 16.77,-9.479 6.302,0.439 8.151,3.613 8.73,9.547 z"
       style="fill:#ff342d;fill-opacity:1;fill-rule:nonzero;stroke:none"
       transform="matrix(0.35277776,0,0,-0.35277776,121.43824,133.21533)"
       clip-path="url(#clipPath2467)" /><path
       id="path2468"
       d="m 0,0 c 2.5,-7.968 3.538,-9.826 5.215,-14.673 8.262,-23.878 17.823,-47.537 25.753,-71.653 4.136,-8.793 15.925,-4.035 14.822,3.349 -0.827,5.537 -3.102,11.067 -4.477,16.435 -4.023,15.703 -7.971,31.577 -12.239,47.222 -2.384,8.736 -4.989,17.385 -7.565,26.067 z"
       style="fill:#ff342d;fill-opacity:1;fill-rule:nonzero;stroke:none"
       transform="matrix(0.35277776,0,0,-0.35277776,91.750505,135.4089)"
       clip-path="url(#clipPath2469)" /><path
       id="path2470"
       d="M 0,0 22.179,6.882 C 21.77,18.238 23.303,32.705 12.894,40.313 3.926,46.867 -7.729,43.79 -11.685,33.227 -16.319,20.851 -6.005,9.972 0,0"
       style="fill:#ff342d;fill-opacity:1;fill-rule:nonzero;stroke:none"
       transform="matrix(0.35277776,0,0,-0.35277776,91.306534,133.99359)"
       clip-path="url(#clipPath2471)" /><path
       id="path2472"
       d="m 0,0 18.164,-7.011 c 6.322,-2.439 11.318,-7.436 13.758,-13.757 l 7.011,-18.164 7.01,18.164 c 2.44,6.321 7.436,11.318 13.758,13.757 L 77.865,0 60.191,6.644 C 53.846,9.029 48.804,13.985 46.31,20.288 L 38.933,38.933 31.922,20.768 C 29.482,14.447 24.486,9.45 18.164,7.011 Z"
       style="fill:#ff342d;fill-opacity:1;fill-rule:nonzero;stroke:none"
       transform="matrix(0.35277776,0,0,-0.35277776,67.754013,107.99296)"
       clip-path="url(#clipPath2473)" /><path
       id="path2474"
       d="m 0,0 10.875,-4.197 c 3.784,-1.461 6.776,-4.452 8.236,-8.237 l 4.197,-10.874 4.197,10.874 c 1.461,3.785 4.452,6.776 8.237,8.237 L 46.617,0 36.035,3.978 c -3.798,1.427 -6.817,4.394 -8.31,8.168 L 23.308,23.308 19.111,12.434 C 17.651,8.649 14.659,5.658 10.875,4.197 Z"
       style="fill:#ff342d;fill-opacity:1;fill-rule:nonzero;stroke:none"
       transform="matrix(0.35277776,0,0,-0.35277776,99.631206,98.793109)"
       clip-path="url(#clipPath2475)" /><g
       style="fill:#ff342d;fill-opacity:1"
       id="g1"
       transform="matrix(0.86305146,2.0917893,-2.0917893,0.86305146,162.14348,89.958228)"><g
         id="hairbrush"
         style="fill:#ff342d;fill-opacity:1">
	<path
   d="m 28.851,24.482 -9.343,-7.717 c -0.316,0.57 -0.711,1.095 -1.179,1.563 -0.468,0.468 -0.996,0.854 -1.57,1.171 l 7.725,9.353 c 0.557,0.673 1.372,1.081 2.243,1.122 0.874,0.043 1.724,-0.287 2.342,-0.906 0.618,-0.617 0.946,-1.468 0.905,-2.34 -0.04,-0.874 -0.449,-1.688 -1.123,-2.246 z"
   id="path1"
   style="fill:#ff342d;fill-opacity:1" />
	<path
   d="m 4.108,14.338 c 2.665,2.666 5.92,4.107 8.669,4.107 1.623,0 3.071,-0.502 4.119,-1.55 C 19.722,14.07 18.576,8.345 14.34,4.107 11.672,1.441 8.418,0 5.668,0 4.045,0 2.598,0.502 1.549,1.55 -1.275,4.375 -0.13,10.101 4.108,14.338 Z M 2.699,2.697 C 3.471,1.925 4.561,1.515 5.851,1.515 c 2.387,0 5.171,1.358 7.445,3.635 3.659,3.658 4.736,8.313 2.452,10.598 -0.773,0.773 -1.864,1.182 -3.154,1.182 -2.387,0 -5.169,-1.357 -7.445,-3.634 C 3.438,11.585 2.228,9.566 1.745,7.611 1.236,5.565 1.576,3.82 2.699,2.697 Z"
   id="path2"
   style="fill:#ff342d;fill-opacity:1" />
	<path
   d="m 5.866,12.58 c 2.059,2.058 4.637,3.336 6.729,3.336 1.017,0 1.858,-0.306 2.438,-0.885 1.85,-1.852 0.75,-5.963 -2.452,-9.165 C 10.522,3.808 7.944,2.529 5.852,2.529 4.837,2.529 3.996,2.836 3.416,3.414 2.552,4.276 2.309,5.68 2.728,7.367 3.168,9.145 4.284,10.996 5.866,12.58 Z M 4.759,9.054 c -0.333,-0.333 -0.333,-0.874 0,-1.206 0.333,-0.334 0.874,-0.334 1.206,0 0.334,0.332 0.334,0.873 0,1.206 -0.332,0.333 -0.873,0.333 -1.206,0 z m 1.545,1.544 c -0.335,-0.333 -0.335,-0.873 0,-1.206 0.332,-0.333 0.873,-0.333 1.205,0 0.334,0.333 0.334,0.873 0,1.206 -0.332,0.334 -0.873,0.334 -1.205,0 z M 9.053,9.054 c -0.333,0.333 -0.872,0.333 -1.206,0 -0.333,-0.333 -0.333,-0.874 0,-1.206 0.334,-0.334 0.873,-0.334 1.206,0 0.335,0.332 0.335,0.873 0,1.206 z m 0.339,0.338 c 0.333,-0.333 0.872,-0.333 1.207,0 0.332,0.333 0.332,0.873 0,1.206 -0.335,0.334 -0.874,0.334 -1.207,0 -0.333,-0.333 -0.333,-0.873 0,-1.206 z m -1.545,2.751 c -0.333,-0.333 -0.333,-0.873 0,-1.207 0.334,-0.334 0.873,-0.334 1.206,0 0.335,0.334 0.335,0.874 0,1.207 -0.333,0.333 -0.872,0.333 -1.206,0 z m 2.752,1.544 c -0.335,0.333 -0.874,0.333 -1.207,0 -0.333,-0.333 -0.333,-0.874 0,-1.206 0.333,-0.334 0.872,-0.334 1.207,0 0.332,0.332 0.332,0.873 0,1.206 z m 0.337,-2.751 c 0.334,-0.334 0.873,-0.334 1.207,0 0.332,0.334 0.332,0.874 0,1.207 -0.334,0.333 -0.873,0.333 -1.207,0 -0.333,-0.333 -0.333,-0.873 0,-1.207 z m 0.772,3.523 c -0.333,-0.334 -0.333,-0.873 0,-1.207 0.334,-0.334 0.874,-0.334 1.207,0 0.333,0.334 0.333,0.873 0,1.207 -0.333,0.332 -0.873,0.332 -1.207,0 z m 2.75,-1.545 c -0.334,0.334 -0.873,0.334 -1.206,0 -0.333,-0.333 -0.333,-0.873 0,-1.207 0.333,-0.332 0.872,-0.332 1.206,0 0.334,0.334 0.334,0.874 0,1.207 z M 13.686,9.392 c 0.334,0.333 0.334,0.873 0,1.206 -0.333,0.334 -0.873,0.334 -1.206,0 -0.333,-0.333 -0.333,-0.873 0,-1.206 0.333,-0.333 0.873,-0.333 1.206,0 z M 12.143,7.848 c 0.332,0.332 0.332,0.873 0,1.206 -0.334,0.333 -0.873,0.333 -1.207,0 -0.333,-0.333 -0.333,-0.874 0,-1.206 0.334,-0.334 0.873,-0.334 1.207,0 z M 10.599,6.303 c 0.332,0.334 0.332,0.874 0,1.207 -0.335,0.334 -0.874,0.334 -1.207,0 -0.333,-0.333 -0.333,-0.873 0,-1.207 0.333,-0.333 0.872,-0.333 1.207,0 z M 7.847,4.76 c 0.334,-0.334 0.873,-0.334 1.206,0 0.335,0.332 0.335,0.872 0,1.205 C 8.72,6.299 8.181,6.299 7.847,5.965 7.514,5.632 7.514,5.092 7.847,4.76 Z M 7.509,7.51 c -0.332,0.334 -0.873,0.334 -1.205,0 -0.335,-0.333 -0.335,-0.873 0,-1.207 0.332,-0.333 0.873,-0.333 1.205,0 0.334,0.334 0.334,0.874 0,1.207 z M 5.532,3.986 c 0.332,-0.333 0.873,-0.333 1.206,0 0.333,0.334 0.333,0.873 0,1.207 -0.333,0.333 -0.874,0.333 -1.206,0 C 5.199,4.859 5.199,4.32 5.532,3.986 Z M 3.988,5.531 c 0.332,-0.334 0.872,-0.334 1.206,0 0.333,0.333 0.333,0.873 0,1.207 C 4.86,7.07 4.32,7.07 3.988,6.738 3.653,6.404 3.653,5.864 3.988,5.531 Z"
   id="path3"
   style="fill:#ff342d;fill-opacity:1" />
</g><g
         id="Layer_1"
         style="fill:#ff342d;fill-opacity:1">
</g></g></g></svg>
