<?xml version="1.0" encoding="UTF-8" standalone="no"?>
<!-- Created with Inkscape (http://www.inkscape.org/) -->

<svg
   width="73.440926mm"
   height="73.169174mm"
   viewBox="0 0 73.440926 73.169174"
   version="1.1"
   id="svg1"
   inkscape:version="1.4.2 (ebf0e940, 2025-05-08)"
   sodipodi:docname="mma.svg"
   xmlns:inkscape="http://www.inkscape.org/namespaces/inkscape"
   xmlns:sodipodi="http://sodipodi.sourceforge.net/DTD/sodipodi-0.dtd"
   xmlns="http://www.w3.org/2000/svg"
   xmlns:svg="http://www.w3.org/2000/svg">
  <sodipodi:namedview
     id="namedview1"
     pagecolor="#ffffff"
     bordercolor="#000000"
     borderopacity="0.25"
     inkscape:showpageshadow="2"
     inkscape:pageopacity="0.0"
     inkscape:pagecheckerboard="0"
     inkscape:deskcolor="#d1d1d1"
     inkscape:document-units="mm"
     inkscape:zoom="0.023162177"
     inkscape:cx="151.10842"
     inkscape:cy="129.5215"
     inkscape:window-width="896"
     inkscape:window-height="245"
     inkscape:window-x="0"
     inkscape:window-y="39"
     inkscape:window-maximized="0"
     inkscape:current-layer="layer1" />
  <defs
     id="defs1">
    <clipPath
       clipPathUnits="userSpaceOnUse"
       id="clipPath2604">
      <path
         d="M 0,276 H 276 V 0 H 0 Z"
         transform="translate(-57.588601,-141.8652)"
         id="path2604" />
    </clipPath>
    <clipPath
       clipPathUnits="userSpaceOnUse"
       id="clipPath2602">
      <path
         d="M 0,276 H 276 V 0 H 0 Z"
         transform="translate(-176.71583,-56.368899)"
         id="path2602" />
    </clipPath>
    <clipPath
       clipPathUnits="userSpaceOnUse"
       id="clipPath2600">
      <path
         d="M 0,276 H 276 V 0 H 0 Z"
         transform="translate(-186.06668,-61.461902)"
         id="path2600" />
    </clipPath>
  </defs>
  <g
     inkscape:label="Layer 1"
     inkscape:groupmode="layer"
     id="layer1"
     transform="translate(-71.702019,-111.91875)">
    <path
       id="path2599"
       d="m 0,0 c 2.917,0.229 5.59,2.732 7.879,4.441 26.529,19.817 71.227,55.46 33.587,87.374 -12.39,10.504 -33.569,27.273 -50.292,17.212 -8.578,-5.161 -16.448,-21.459 -19.562,-30.912 -0.877,-2.662 -1.498,-8.881 -3.85,-10.163 -1.834,-1 -4.435,0.412 -4.864,2.514 -0.629,3.086 3.337,14.155 4.744,17.361 1.237,2.82 5.931,10.39 6.181,12.428 0.567,4.63 -4.51,6.424 -8.286,6.178 -10.965,-0.715 -21.816,-17.88 -24.533,-27.497 -2.625,-9.289 -1.803,-34.523 5.651,-41.256 C -38.014,26.141 -21.607,13.793 -5.179,1.429 -3.745,0.35 -1.801,-0.141 0,0"
       style="fill:#ff342d;fill-opacity:1;fill-rule:nonzero;stroke:none"
       transform="matrix(0.35277776,0,0,-0.35277776,125.4125,175.39804)"
       clip-path="url(#clipPath2600)" />
    <path
       id="path2601"
       d="m 0,0 -47.464,35.582 c -1.397,1.048 -3.259,1.353 -4.863,0.663 -0.543,-0.234 -1.05,-0.566 -1.492,-0.998 -2.575,-2.509 -9.363,-11.918 -10.391,-15.227 -0.521,-1.676 -0.588,-3.376 -0.247,-4.994 0.405,-1.923 2.121,-4.444 3.691,-5.626 13.844,-10.423 26.798,-20.3 39.902,-30.162 3.681,-2.771 9.367,-1.784 12.623,1.539 2.28,2.327 8.121,10.043 9.68,12.866 0.071,0.129 0.137,0.258 0.196,0.389 C 2.592,-3.871 1.844,-1.382 0,0"
       style="fill:#ff342d;fill-opacity:1;fill-rule:nonzero;stroke:none"
       transform="matrix(0.35277776,0,0,-0.35277776,122.11372,177.19474)"
       clip-path="url(#clipPath2602)" />
    <path
       id="path2603"
       d="m 0,0 c 0.912,-0.345 -1.328,-6.676 -1.524,-7.722 -1.623,-8.682 -1.097,-16.674 2.996,-24.73 3.666,-7.217 11.709,4.818 13.651,8.397 1.821,3.357 3.025,7.156 4.579,10.637 1.32,-3.244 3.323,-6.849 5.388,-9.699 2.893,-3.993 8.077,-8.274 12.405,-10.615 0.324,-0.175 3.099,-1.391 3.296,-1.436 4.976,-1.132 5.629,7.961 5.586,11.32 -0.137,10.722 -5.365,21.194 -12.67,28.845 -3.77,3.949 -8.134,6.771 -12.53,9.923 3.413,2.199 7.469,3.146 11.197,4.721 20.931,8.843 40.994,17.908 61.445,27.854 5.748,2.796 13.203,6.061 18.656,9.184 2.029,1.162 2.966,3.01 2.359,5.204 C 111.997,72.145 102.631,83.222 94.163,89.337 70.928,106.118 34.362,101.655 15.457,79.919 1.917,64.35 -1.794,43.876 5.275,24.333 4.338,24.012 3.629,24.606 2.573,24.546 -9.092,23.884 -17.98,14.724 -22.434,4.585 c -2.695,-6.134 -1.521,-8.157 5.374,-8.466 0.925,-0.042 5.172,-0.536 8.116,0.463 z"
       style="fill:#ff342d;fill-opacity:1;fill-rule:nonzero;stroke:none"
       transform="matrix(0.35277776,0,0,-0.35277776,80.088287,147.03354)"
       clip-path="url(#clipPath2604)" />
  </g>
</svg>
