<?xml version="1.0" encoding="UTF-8" standalone="no"?>
<!-- Created with Inkscape (http://www.inkscape.org/) -->

<svg
   width="73.37709mm"
   height="36.990566mm"
   viewBox="0 0 73.37709 36.990566"
   version="1.1"
   id="svg1"
   inkscape:version="1.4.2 (ebf0e940, 2025-05-08)"
   sodipodi:docname="motorsports.svg"
   xmlns:inkscape="http://www.inkscape.org/namespaces/inkscape"
   xmlns:sodipodi="http://sodipodi.sourceforge.net/DTD/sodipodi-0.dtd"
   xmlns="http://www.w3.org/2000/svg"
   xmlns:svg="http://www.w3.org/2000/svg">
  <sodipodi:namedview
     id="namedview1"
     pagecolor="#ffffff"
     bordercolor="#000000"
     borderopacity="0.25"
     inkscape:showpageshadow="2"
     inkscape:pageopacity="0.0"
     inkscape:pagecheckerboard="0"
     inkscape:deskcolor="#d1d1d1"
     inkscape:document-units="mm"
     inkscape:zoom="0.23314041"
     inkscape:cx="117.95467"
     inkscape:cy="4.2892607"
     inkscape:window-width="896"
     inkscape:window-height="245"
     inkscape:window-x="0"
     inkscape:window-y="39"
     inkscape:window-maximized="0"
     inkscape:current-layer="layer1" />
  <defs
     id="defs1">
    <clipPath
       clipPathUnits="userSpaceOnUse"
       id="clipPath1433">
      <path
         d="M 0,276 H 276 V 0 H 0 Z"
         transform="translate(-193.9974,-105.3906)"
         id="path1433" />
    </clipPath>
  </defs>
  <g
     inkscape:label="Layer 1"
     inkscape:groupmode="layer"
     id="layer1"
     transform="translate(-71.702017,-129.91042)">
    <path
       id="path1432"
       d="m 0,0 c -3.648,0 -6.606,2.958 -6.606,6.606 0,3.648 2.958,6.606 6.606,6.606 3.648,0 6.606,-2.958 6.606,-6.606 C 6.606,2.958 3.648,0 0,0 m -129.393,0 c -3.648,0 -6.605,2.958 -6.605,6.606 0,3.648 2.957,6.606 6.605,6.606 3.649,0 6.606,-2.958 6.606,-6.606 0,-3.648 -2.957,-6.606 -6.606,-6.606 m -8.62,10.616 c -0.008,0.153 -0.023,0.305 -0.023,0.46 0,0.638 0.065,1.26 0.188,1.861 -0.09,-0.758 -0.144,-1.533 -0.165,-2.321 m 183.245,6.676 c -3.429,3.234 -23.454,14.364 -28.627,16.902 -24.795,12.167 -39.562,5.525 -64.094,8.27 -15.485,1.733 -6.137,20.283 -16.432,22.591 -4.514,1.012 -28.743,0.785 -33.91,0.103 -4.456,-0.589 -30.242,-11.712 -31.37,-10.502 l -1.633,13.008 c 3.424,-0.281 10.859,-0.205 12.029,3.83 0.951,3.28 0.885,11.61 -3.034,12.882 -3.25,1.056 -16.579,0.574 -20.816,0.393 -4.742,-0.204 -8.545,-0.364 -15.01,-1.249 -3.331,-1.309 -1.757,-14.426 -0.603,-15.645 2.151,-2.271 11.314,-1.121 14.419,-0.21 -0.167,-4.549 4.775,-24.87 3.126,-27.507 -0.166,-0.267 -3.225,-1.184 -4.209,-1.887 -34.548,-24.679 -3.282,-70.3 29.718,-54.904 7.327,3.418 12.052,9.944 15.824,16.866 l 70.07,-0.167 c 10.644,-23.496 38.128,-26.698 54.607,-6.776 1.285,1.554 3,6.227 4.607,6.774 3.69,1.258 15.955,-2.013 17.188,2.326 0.224,0.788 0.956,7.738 0.918,8.72 -0.065,1.702 -1.487,4.973 -2.768,6.182"
       style="fill:#ff342d;fill-opacity:1;fill-rule:nonzero;stroke:none"
       transform="matrix(0.35277776,0,0,-0.35277776,128.14527,159.90957)"
       clip-path="url(#clipPath1433)" />
  </g>
</svg>
