<?xml version="1.0" encoding="UTF-8" standalone="no"?>
<!-- Created with Inkscape (http://www.inkscape.org/) -->

<svg
   width="64.910591mm"
   height="66.711258mm"
   viewBox="0 0 64.910591 66.711258"
   version="1.1"
   id="svg1"
   inkscape:version="1.4.2 (ebf0e940, 2025-05-08)"
   sodipodi:docname="music.svg"
   xmlns:inkscape="http://www.inkscape.org/namespaces/inkscape"
   xmlns:sodipodi="http://sodipodi.sourceforge.net/DTD/sodipodi-0.dtd"
   xmlns="http://www.w3.org/2000/svg"
   xmlns:svg="http://www.w3.org/2000/svg">
  <sodipodi:namedview
     id="namedview1"
     pagecolor="#ffffff"
     bordercolor="#000000"
     borderopacity="0.25"
     inkscape:showpageshadow="2"
     inkscape:pageopacity="0.0"
     inkscape:pagecheckerboard="0"
     inkscape:deskcolor="#d1d1d1"
     inkscape:document-units="mm"
     inkscape:zoom="0.023162177"
     inkscape:cx="-8051.92"
     inkscape:cy="43.173834"
     inkscape:window-width="896"
     inkscape:window-height="245"
     inkscape:window-x="0"
     inkscape:window-y="39"
     inkscape:window-maximized="0"
     inkscape:current-layer="layer1" />
  <defs
     id="defs1">
    <clipPath
       clipPathUnits="userSpaceOnUse"
       id="clipPath649">
      <path
         d="M 0,276 H 276 V 0 H 0 Z"
         transform="translate(-184.68848,-201.69901)"
         id="path649" />
    </clipPath>
    <clipPath
       clipPathUnits="userSpaceOnUse"
       id="clipPath647">
      <path
         d="M 0,276 H 276 V 0 H 0 Z"
         transform="translate(-109.66928,-177.76551)"
         id="path647" />
    </clipPath>
    <clipPath
       clipPathUnits="userSpaceOnUse"
       id="clipPath645">
      <path
         d="M 0,276 H 276 V 0 H 0 Z"
         transform="translate(-126.17483,-100.7359)"
         id="path645" />
    </clipPath>
  </defs>
  <g
     inkscape:label="Layer 1"
     inkscape:groupmode="layer"
     id="layer1"
     transform="translate(-2240.7562,-138.11249)">
    <path
       id="path644"
       d="m 0,0 c -0.01,-0.22 -1.245,-0.844 0.233,-0.721 6.895,3.788 19.418,3.458 20.167,-6.536 0,-13.33 0.001,-25.504 0.001,-38.362 0,-7.989 -7.397,-9.607 -14.355,-8.974 -4.581,0.418 -5.135,2.873 -8.122,4.009 -3.129,1.19 -5.191,0.917 -8.557,3.087 -12.525,8.076 -12.613,31.007 -1.994,40.716 0.635,13.018 -1.684,26.842 2.299,39.42 C 7.408,88.653 93.839,80.379 96.585,14.088 96.834,8.07 95.568,-1.974 96.576,-7.265 c 0.34,-1.788 5.875,-6.21 6.666,-11.285 1.48,-9.503 0.521,-21.784 -7.636,-28.031 -3.74,-2.864 -6.939,-2.601 -10.338,-4.217 -1.326,-0.631 -2.481,-2.342 -4.234,-3.045 -3.514,-1.409 -10.814,-1.207 -14.038,1 -4.37,2.991 -3.893,6.086 -3.893,14.056 v 29.104 c 0,12.954 11.169,13.039 20.84,8.47 C 84.2,13.814 84.829,27.9 75.414,40.463 56.9,65.171 16.586,61.396 3.656,33.212 2.465,30.615 0,23.474 0,20.859 0,14.017 0.317,6.785 0,0"
       style="fill:#ff342d;fill-opacity:1;fill-rule:nonzero;stroke:none"
       transform="matrix(0.35277776,0,0,-0.35277776,2269.0412,185.51387)"
       clip-path="url(#clipPath645)" />
    <path
       id="path646"
       d="m 0,0 v 32.208 c 0,1.264 -2.266,2.981 -3.565,2.814 L -36.04,30.058 c -1.917,-0.179 -3.698,-1.24 -3.968,-3.284 l 0.01,-43.155 c -0.876,-12.768 -20.247,-14.099 -23.438,-2.157 -1.08,4.042 1.698,8.513 5.147,10.538 3.269,1.919 7.395,1.721 10.914,0.749 v 46.589 c 0,2.543 2.482,5.635 4.927,6.312 13.841,2.394 27.795,4.274 41.664,6.557 3.853,0.315 7.203,-2.124 8.005,-5.89 0.355,-18.497 0.044,-37.05 0.157,-55.568 -0.891,-8.036 -8.541,-11.773 -15.93,-9.634 -5.257,1.522 -9.166,7.294 -7.073,12.696 C -13.185,0.108 -6.046,2.033 0,0"
       style="fill:#ff342d;fill-opacity:1;fill-rule:nonzero;stroke:none"
       transform="matrix(0.35277776,0,0,-0.35277776,2263.2184,158.33954)"
       clip-path="url(#clipPath647)" />
    <path
       id="path648"
       d="m 0,0 3.795,20.038 c 0.149,0.787 -1.059,2.122 -1.887,2.171 l -20.789,0.738 c -1.214,0.114 -2.447,-0.336 -2.855,-1.575 l -5.079,-26.851 c -2.049,-7.841 -14.258,-6.386 -14.836,1.42 -0.196,2.642 2.059,5.096 4.444,5.95 2.259,0.808 4.803,0.199 6.878,-0.821 l 5.489,28.986 c 0.3,1.582 2.208,3.214 3.809,3.347 8.894,-0.141 17.797,-0.616 26.695,-0.83 C 8.098,32.315 9.895,30.403 9.95,27.966 7.992,16.416 5.612,4.91 3.5,-6.625 c -1.501,-4.894 -6.701,-6.318 -11.046,-4.117 -3.091,1.566 -4.843,5.618 -2.904,8.732 C -8.19,1.621 -3.522,1.977 0,0"
       style="fill:#ff342d;fill-opacity:1;fill-rule:nonzero;stroke:none"
       transform="matrix(0.35277776,0,0,-0.35277776,2289.6835,149.89633)"
       clip-path="url(#clipPath649)" />
  </g>
</svg>
