<?xml version="1.0" encoding="UTF-8" standalone="no"?>
<!-- Created with Inkscape (http://www.inkscape.org/) -->

<svg
   width="73.374313mm"
   height="62.969154mm"
   viewBox="0 0 73.374313 62.969154"
   version="1.1"
   id="svg1"
   inkscape:version="1.4.2 (ebf0e940, 2025-05-08)"
   sodipodi:docname="painting.svg"
   xmlns:inkscape="http://www.inkscape.org/namespaces/inkscape"
   xmlns:sodipodi="http://sodipodi.sourceforge.net/DTD/sodipodi-0.dtd"
   xmlns="http://www.w3.org/2000/svg"
   xmlns:svg="http://www.w3.org/2000/svg">
  <sodipodi:namedview
     id="namedview1"
     pagecolor="#ffffff"
     bordercolor="#000000"
     borderopacity="0.25"
     inkscape:showpageshadow="2"
     inkscape:pageopacity="0.0"
     inkscape:pagecheckerboard="0"
     inkscape:deskcolor="#d1d1d1"
     inkscape:document-units="mm"
     inkscape:zoom="0.023162177"
     inkscape:cx="151.10842"
     inkscape:cy="129.5215"
     inkscape:window-width="896"
     inkscape:window-height="245"
     inkscape:window-x="0"
     inkscape:window-y="39"
     inkscape:window-maximized="0"
     inkscape:current-layer="layer1" />
  <defs
     id="defs1">
    <clipPath
       clipPathUnits="userSpaceOnUse"
       id="clipPath3936">
      <path
         d="M 0,276 H 276 V 0 H 0 Z"
         transform="translate(-235.85551,-100.9992)"
         id="path3936" />
    </clipPath>
    <clipPath
       clipPathUnits="userSpaceOnUse"
       id="clipPath3934">
      <path
         d="M 0,276 H 276 V 0 H 0 Z"
         transform="translate(-177.2325,-207.71791)"
         id="path3934" />
    </clipPath>
    <clipPath
       clipPathUnits="userSpaceOnUse"
       id="clipPath3932">
      <path
         d="M 0,276 H 276 V 0 H 0 Z"
         transform="translate(-91.105502,-112.9015)"
         id="path3932" />
    </clipPath>
  </defs>
  <g
     inkscape:label="Layer 1"
     inkscape:groupmode="layer"
     id="layer1"
     transform="translate(-71.702054,-116.94584)">
    <path
       id="path3931"
       d="m 0,0 c 0,5.506 -4.465,9.97 -9.974,9.97 -5.508,0 -9.973,-4.464 -9.973,-9.97 0,-5.506 4.465,-9.97 9.973,-9.97 C -4.465,-9.97 0,-5.506 0,0 m -21.593,29.402 c 0,5.346 -4.335,9.679 -9.682,9.679 -5.347,0 -9.682,-4.333 -9.682,-9.679 0,-5.345 4.335,-9.679 9.682,-9.679 5.347,0 9.682,4.334 9.682,9.679 m 15.83,33.174 c 0,5.356 -4.343,9.697 -9.7,9.697 -5.358,0 -9.701,-4.341 -9.701,-9.697 0,-5.355 4.343,-9.697 9.701,-9.697 5.357,0 9.7,4.342 9.7,9.697 m 33.676,16.197 c 0,5.532 -4.486,10.017 -10.02,10.017 -5.534,0 -10.02,-4.485 -10.02,-10.017 0,-5.531 4.486,-10.016 10.02,-10.016 5.534,0 10.02,4.485 10.02,10.016 M 13.079,107.212 C 39.449,109.893 70.746,90.349 56.88,61.436 48.631,44.233 28.178,47.559 23.341,28.041 19.998,14.555 29.934,6.385 21.75,-10.126 8.097,-37.674 -27.521,-29.15 -44.127,-9.222 -79.48,33.201 -36.635,102.157 13.079,107.212"
       style="fill:#ff342d;fill-opacity:1;fill-rule:nonzero;stroke:none"
       transform="matrix(0.35277776,0,0,-0.35277776,91.845825,157.28465)"
       clip-path="url(#clipPath3932)" />
    <path
       id="path3933"
       d="m 0,0 42.029,-0.06 c 6.956,0 8.508,-5.815 8.999,-12.871 l 5.313,-84.474 H -51.701 c 0.81,3.541 0.992,7.934 0.652,11.586 -0.676,7.264 -5.072,11.964 -1.232,19.806 3.303,6.744 10.863,8.097 16.69,11.808 19.048,12.134 24.679,33.06 15.046,53.539 5.477,0 5.02,6.898 5.02,12.027 0,6.544 6.567,10.346 12.179,6.83 C -2.594,17.719 0,15.756 0,11.701 Z"
       style="fill:#ff342d;fill-opacity:1;fill-rule:nonzero;stroke:none"
       transform="matrix(0.35277776,0,0,-0.35277776,122.22952,123.83554)"
       clip-path="url(#clipPath3934)" />
    <path
       id="path3935"
       d="m 0,0 -111.356,0.076 c -0.826,0.057 -1.346,-0.145 -1.959,-0.692 -0.685,-0.611 -3.905,-7.325 -5.348,-9.232 -0.777,-1.028 -1.857,-2.334 -2.849,-3.49 v 10e-4 c -0.008,-0.01 -0.016,-0.02 -0.024,-0.029 -0.177,-0.206 -0.351,-0.406 -0.52,-0.6 -0.782,-0.933 -1.381,-1.899 0.326,-1.899 h 9.418 c -2.468,-9.06 -8.695,-23.17 -7.988,-30.39 0.677,-6.924 12.602,-7.554 14.988,-0.794 l 10.233,31.184 h 20.548 v -30.812 c 0,-2.535 3.352,-5.023 7.623,-5.023 4.261,0 7.622,2.488 7.622,5.023 v 30.812 h 21.211 c 0.408,-1.451 0.626,-1.679 0.898,-2.536 2.641,-8.326 5.94,-19.744 9.044,-28.084 3.513,-9.435 15.289,-6.333 15.299,2.46 0.006,4.39 -9.042,27.118 -8.007,28.16 h 20.216 c 3.554,0 5.091,2.477 5.767,3.634 C 7.754,-7.762 4.958,0 0,0"
       style="fill:#ff342d;fill-opacity:1;fill-rule:nonzero;stroke:none"
       transform="matrix(0.35277776,0,0,-0.35277776,142.91041,161.48352)"
       clip-path="url(#clipPath3936)" />
  </g>
</svg>
