<?xml version="1.0" encoding="UTF-8" standalone="no"?>
<!-- Created with Inkscape (http://www.inkscape.org/) -->

<svg
   width="73.37339mm"
   height="73.379929mm"
   viewBox="0 0 73.37339 73.379929"
   version="1.1"
   id="svg1"
   inkscape:version="1.4.2 (ebf0e940, 2025-05-08)"
   sodipodi:docname="reading.svg"
   xmlns:inkscape="http://www.inkscape.org/namespaces/inkscape"
   xmlns:sodipodi="http://sodipodi.sourceforge.net/DTD/sodipodi-0.dtd"
   xmlns="http://www.w3.org/2000/svg"
   xmlns:svg="http://www.w3.org/2000/svg">
  <sodipodi:namedview
     id="namedview1"
     pagecolor="#ffffff"
     bordercolor="#000000"
     borderopacity="0.25"
     inkscape:showpageshadow="2"
     inkscape:pageopacity="0.0"
     inkscape:pagecheckerboard="0"
     inkscape:deskcolor="#d1d1d1"
     inkscape:document-units="mm"
     inkscape:zoom="0.023162177"
     inkscape:cx="-582.84676"
     inkscape:cy="-604.43368"
     inkscape:window-width="896"
     inkscape:window-height="245"
     inkscape:window-x="0"
     inkscape:window-y="39"
     inkscape:window-maximized="0"
     inkscape:current-layer="layer1" />
  <defs
     id="defs1">
    <clipPath
       clipPathUnits="userSpaceOnUse"
       id="clipPath4196">
      <path
         d="M 0,276 H 276 V 0 H 0 Z"
         transform="translate(-109.42875,-126.28581)"
         id="path4196" />
    </clipPath>
    <clipPath
       clipPathUnits="userSpaceOnUse"
       id="clipPath4194">
      <path
         d="M 0,276 H 276 V 0 H 0 Z"
         transform="translate(-207.91576,-128.28561)"
         id="path4194" />
    </clipPath>
  </defs>
  <g
     inkscape:label="Layer 1"
     inkscape:groupmode="layer"
     id="layer1"
     transform="translate(-260.35007,-306.12291)">
    <path
       id="path4193"
       d="m 0,0 -44.653,20.835 c -3.252,1.517 -4.658,5.383 -3.14,8.635 v 0 c 1.517,3.253 5.383,4.659 8.635,3.141 L 5.495,11.777 C 8.747,10.259 10.153,6.393 8.636,3.141 v 0 C 7.118,-0.111 3.252,-1.517 0,0 m -24.745,-21.46 -32.554,15.19 c -3.252,1.517 -4.659,5.384 -3.141,8.636 v 0 c 1.517,3.252 5.383,4.658 8.636,3.141 l 32.554,-15.19 c 3.252,-1.517 4.659,-5.384 3.141,-8.636 v 0 c -1.517,-3.252 -5.384,-4.658 -8.636,-3.141 m 56.759,35.12 c 4.137,8.865 1.041,12.047 -1.925,13.431 l -9.318,4.347 2.835,6.075 c 1.314,2.817 -6.97,6.552 -8.234,3.842 l -2.835,-6.075 -16.902,7.886 2.835,6.076 c 1.152,2.469 -6.633,6.143 -7.801,3.639 l -2.834,-6.075 -15.602,7.28 2.834,6.075 c 1.146,2.456 -6.898,6.7 -8.232,3.841 -1.201,-2.574 -1.625,-3.543 -2.834,-6.075 -12.963,6.048 -14.851,8.795 -18.572,0.819 l -49.927,-106.899 c -2.591,-5.554 -0.334,-7.054 3.03,-8.624 15.019,-7.008 69.124,-32.253 75.773,-35.355 5.249,-2.449 7.063,-2.772 7.791,-1.214 z"
       style="fill:#ff342d;fill-opacity:1;fill-rule:nonzero;stroke:none"
       transform="matrix(0.35277776,0,0,-0.35277776,321.72355,346.23692)"
       clip-path="url(#clipPath4194)" />
    <path
       id="path4195"
       d="m 0,0 c 0.96,-0.058 2.491,-0.366 4.168,-0.729 l 30.685,65.703 c 1.236,2.648 4.995,10.705 13.989,10.704 2.646,0 5.056,-0.711 7.721,-1.847 -3.073,12.264 -6.262,24.419 -10.46,35.7 -1.71,4.594 -4.319,6.929 -9.401,5.962 -7.528,-1.432 -19.444,-5.212 -26.603,-8.12 -9.117,-3.704 -17.395,-9.376 -23.752,-16.859 -3.912,1.544 -8.365,2.411 -12.565,2.726 -7.243,0.544 -15.549,-0.448 -22.616,-2.1 -5.664,-1.324 -17.92,-4.307 -22.775,-6.616 -2.881,-1.37 -4.5,-5.068 -3.65,-8.144 l 22.88,-80.361 c 1.6,-4.521 5.673,-5.631 10.038,-4.818 C -27.759,-6.086 -15.696,0.956 0,0"
       style="fill:#ff342d;fill-opacity:1;fill-rule:nonzero;stroke:none"
       transform="matrix(0.35277776,0,0,-0.35277776,286.97952,346.9424)"
       clip-path="url(#clipPath4196)" />
  </g>
</svg>
