<?xml version="1.0" encoding="UTF-8" standalone="no"?>
<!-- Created with Inkscape (http://www.inkscape.org/) -->

<svg
   width="73.374474mm"
   height="73.398758mm"
   viewBox="0 0 73.374474 73.398758"
   version="1.1"
   id="svg1"
   inkscape:version="1.4.2 (ebf0e940, 2025-05-08)"
   sodipodi:docname="reiki.svg"
   xmlns:inkscape="http://www.inkscape.org/namespaces/inkscape"
   xmlns:sodipodi="http://sodipodi.sourceforge.net/DTD/sodipodi-0.dtd"
   xmlns="http://www.w3.org/2000/svg"
   xmlns:svg="http://www.w3.org/2000/svg">
  <sodipodi:namedview
     id="namedview1"
     pagecolor="#ffffff"
     bordercolor="#000000"
     borderopacity="0.25"
     inkscape:showpageshadow="2"
     inkscape:pageopacity="0.0"
     inkscape:pagecheckerboard="0"
     inkscape:deskcolor="#d1d1d1"
     inkscape:document-units="mm"
     inkscape:zoom="0.023162177"
     inkscape:cx="-4554.8395"
     inkscape:cy="-604.43368"
     inkscape:window-width="896"
     inkscape:window-height="245"
     inkscape:window-x="0"
     inkscape:window-y="39"
     inkscape:window-maximized="0"
     inkscape:current-layer="layer1" />
  <defs
     id="defs1">
    <clipPath
       clipPathUnits="userSpaceOnUse"
       id="clipPath3678">
      <path
         d="M 0,276 H 276 V 0 H 0 Z"
         transform="translate(-144.6525,-242.06101)"
         id="path3678" />
    </clipPath>
    <clipPath
       clipPathUnits="userSpaceOnUse"
       id="clipPath3676">
      <path
         d="M 0,276 H 276 V 0 H 0 Z"
         transform="translate(-226.21351,-242.06101)"
         id="path3676" />
    </clipPath>
    <clipPath
       clipPathUnits="userSpaceOnUse"
       id="clipPath3674">
      <path
         d="M 0,276 H 276 V 0 H 0 Z"
         transform="translate(-167.2755,-211.25521)"
         id="path3674" />
    </clipPath>
    <clipPath
       clipPathUnits="userSpaceOnUse"
       id="clipPath3672">
      <path
         d="M 0,276 H 276 V 0 H 0 Z"
         transform="translate(-144.57825,-171.6151)"
         id="path3672" />
    </clipPath>
    <clipPath
       clipPathUnits="userSpaceOnUse"
       id="clipPath3670">
      <path
         d="M 0,276 H 276 V 0 H 0 Z"
         transform="translate(-129.10875,-176.4336)"
         id="path3670" />
    </clipPath>
    <clipPath
       clipPathUnits="userSpaceOnUse"
       id="clipPath3668">
      <path
         d="M 0,276 H 276 V 0 H 0 Z"
         transform="translate(-146.58975,-110.37231)"
         id="path3668" />
    </clipPath>
    <clipPath
       clipPathUnits="userSpaceOnUse"
       id="clipPath3666">
      <path
         d="M 0,276 H 276 V 0 H 0 Z"
         transform="translate(-59.258251,-99.2914)"
         id="path3666" />
    </clipPath>
  </defs>
  <g
     inkscape:label="Layer 1"
     inkscape:groupmode="layer"
     id="layer1"
     transform="translate(-1311.275,-306.12291)">
    <path
       id="path3665"
       d="m 0,0 c 3.222,-0.849 5.947,-3.272 9.131,-4.726 18.821,-8.596 48.326,-8.912 67.247,-0.462 2.584,1.154 8.772,5.487 10.679,5.178 2.088,-0.338 11.444,-5.825 13.504,-7.404 17.207,-13.193 14.954,-30.73 -2.016,-42.783 -27.878,-19.801 -85.896,-20.965 -112.5,1.558 C -36.246,-29.766 -22.348,-9.018 0,0"
       style="fill:#ff342d;fill-opacity:1;fill-rule:nonzero;stroke:none"
       transform="matrix(0.35277776,0,0,-0.35277776,1320.1841,356.48886)"
       clip-path="url(#clipPath3666)" />
    <path
       id="path3667"
       d="m 0,0 c -18.191,-18.379 -59.958,-18.44 -81.055,-5.22 -13.48,8.447 -18.628,23.141 -5.441,34.9 2.33,2.078 11.85,8.23 14.595,8.263 0.735,0.009 5.162,-4.051 6.899,-4.937 14.515,-7.406 37.378,-5.614 49.982,4.958 C 1.604,32.156 15.563,15.724 0,0"
       style="fill:#ff342d;fill-opacity:1;fill-rule:nonzero;stroke:none"
       transform="matrix(0.35277776,0,0,-0.35277776,1350.9927,352.57976)"
       clip-path="url(#clipPath3668)" />
    <path
       id="path3669"
       d="m 0,0 c 7.147,-7.249 6.424,-15.688 -1.1,-22.284 -9.886,-8.667 -26.78,-10.342 -39.004,-6.719 -13.438,3.984 -25.346,16.788 -12.451,29.259 C -39.755,12.635 -12.597,12.778 0,0"
       style="fill:#ff342d;fill-opacity:1;fill-rule:nonzero;stroke:none"
       transform="matrix(0.35277776,0,0,-0.35277776,1344.8258,329.2748)"
       clip-path="url(#clipPath3670)" />
    <path
       id="path3671"
       d="m 0,0 c 1.805,2.623 5.395,3.286 8.018,1.481 l 59.48,-40.937 c 1.797,-1.237 2.647,-3.31 2.441,-5.337 l 26.285,-18.09 c 1.253,-0.862 1.569,-2.576 0.707,-3.829 -0.862,-1.252 -2.576,-1.569 -3.828,-0.707 l -26.285,18.091 c -1.82,-0.917 -4.06,-0.863 -5.857,0.373 L 1.481,-8.018 C -1.142,-6.213 -1.805,-2.623 0,0"
       style="fill:#ff342d;fill-opacity:1;fill-rule:nonzero;stroke:none"
       transform="matrix(0.35277776,0,0,-0.35277776,1350.2831,330.97466)"
       clip-path="url(#clipPath3672)" />
    <path
       id="path3673"
       d="m 0,0 c 2.482,1.994 6.111,1.598 8.105,-0.884 l 45.219,-56.294 c 1.366,-1.701 1.585,-3.93 0.806,-5.813 l 19.983,-24.877 c 0.952,-1.185 0.763,-2.918 -0.423,-3.87 -1.185,-0.952 -2.918,-0.763 -3.87,0.422 l -19.983,24.877 c -2.006,-0.355 -4.136,0.339 -5.502,2.04 L -0.884,-8.105 C -2.878,-5.623 -2.482,-1.994 0,0"
       style="fill:#ff342d;fill-opacity:1;fill-rule:nonzero;stroke:none"
       transform="matrix(0.35277776,0,0,-0.35277776,1358.2901,316.99052)"
       clip-path="url(#clipPath3674)" />
    <path
       id="path3675"
       d="m 0,0 c -8.648,-7.837 -14.201,-23.509 -5.172,-32.277 0.902,-0.779 1.953,-1.45 3,-2.01 10.891,-5.475 11.686,-17.073 5.155,-26.281 -2.034,-2.933 -4.561,-5.509 -7.502,-7.491 4.392,6.958 10.08,18.432 3.197,25.154 -2.365,2.26 -5.977,3.109 -8.412,5.373 C -22.458,-26.615 -14.63,-4.309 0,0"
       style="fill:#ff342d;fill-opacity:1;fill-rule:nonzero;stroke:none"
       transform="matrix(0.35277776,0,0,-0.35277776,1379.0822,306.12291)"
       clip-path="url(#clipPath3676)" />
    <path
       id="path3677"
       d="m 0,0 c -6.662,-6.673 -10.983,-19.116 -3.864,-26.155 0.704,-0.61 1.522,-1.14 2.338,-1.584 9.195,-4.628 9.978,-14.669 4.236,-22.339 -1.752,-2.406 -3.919,-4.494 -6.436,-6.045 3.955,6.563 8.65,18.049 -0.441,22.103 C -20.012,-27.249 -14.818,-3.953 0,0"
       style="fill:#ff342d;fill-opacity:1;fill-rule:nonzero;stroke:none"
       transform="matrix(0.35277776,0,0,-0.35277776,1350.3093,306.12291)"
       clip-path="url(#clipPath3678)" />
  </g>
</svg>
