<?xml version="1.0" encoding="UTF-8" standalone="no"?>
<!-- Created with Inkscape (http://www.inkscape.org/) -->

<svg
   width="273.79849mm"
   height="197.72594mm"
   viewBox="0 0 273.7985 197.72593"
   version="1.1"
   id="svg1"
   inkscape:version="1.4.2 (ebf0e940, 2025-05-08)"
   sodipodi:docname="rugby baseball.svg"
   xml:space="preserve"
   xmlns:inkscape="http://www.inkscape.org/namespaces/inkscape"
   xmlns:sodipodi="http://sodipodi.sourceforge.net/DTD/sodipodi-0.dtd"
   xmlns="http://www.w3.org/2000/svg"
   xmlns:svg="http://www.w3.org/2000/svg"><sodipodi:namedview
     id="namedview1"
     pagecolor="#ffffff"
     bordercolor="#000000"
     borderopacity="0.25"
     inkscape:showpageshadow="2"
     inkscape:pageopacity="0.0"
     inkscape:pagecheckerboard="0"
     inkscape:deskcolor="#d1d1d1"
     inkscape:document-units="mm"
     inkscape:zoom="0.59095693"
     inkscape:cx="542.34071"
     inkscape:cy="460.27043"
     inkscape:window-width="1712"
     inkscape:window-height="971"
     inkscape:window-x="0"
     inkscape:window-y="39"
     inkscape:window-maximized="1"
     inkscape:current-layer="layer1" /><defs
     id="defs1"><clipPath
       clipPathUnits="userSpaceOnUse"
       id="clipPath2080"><path
         d="M 0,276 H 276 V 0 H 0 Z"
         transform="translate(-229.09823,-157.12611)"
         id="path2080" /></clipPath><clipPath
       clipPathUnits="userSpaceOnUse"
       id="clipPath2078"><path
         d="M 0,276 H 276 V 0 H 0 Z"
         transform="translate(-45.687076,-200.96101)"
         id="path2078" /></clipPath></defs><g
     inkscape:label="Layer 1"
     inkscape:groupmode="layer"
     id="layer1"
     transform="translate(84.57973,37.21989)"><g
       style="fill:#ff342d;fill-opacity:1"
       id="g1"
       transform="matrix(8.8194444,0,0,8.8194444,-102.2186,-54.858766)"><path
         d="M 21.9127,5.93144 C 21.7537,3.85169 20.1483,2.24627 18.0686,2.08725 17.0016,2.00568 15.7566,1.96613 14.4449,2.03623 l 7.5189,7.51892 c 0.0701,-1.3117 0.0305,-2.55678 -0.0511,-3.62371 z"
         fill="#1c274c"
         id="path1"
         style="fill:#ff342d;fill-opacity:1" /><path
         d="m 2.08725,18.0686 c 0.15902,2.0797 1.76444,3.6851 3.84419,3.8441 1.06718,0.0816 2.31259,0.1212 3.62463,0.051 L 2.03628,14.4439 c -0.07017,1.3121 -0.03062,2.5575 0.05097,3.6247 z"
         fill="#1c274c"
         id="path2"
         style="fill:#ff342d;fill-opacity:1" /><path
         fill-rule="evenodd"
         clip-rule="evenodd"
         d="M 2.22237,12.5087 C 2.59084,9.91642 3.48404,7.27724 5.38064,5.38064 7.27745,3.48383 9.917,2.59064 12.5095,2.22225 l 9.2682,9.26825 c -0.3683,2.5925 -1.2615,5.232 -3.1583,7.1289 -1.8966,1.8966 -4.5358,2.7898 -7.1281,3.1582 z M 11.9426,8.1601 c 0.2929,-0.29289 0.7678,-0.29289 1.0606,0 l 0.8882,0.8881 0.8881,-0.8881 c 0.2928,-0.29289 0.7677,-0.29289 1.0606,0 0.2929,0.29289 0.2929,0.76777 0,1.06066 l -0.8881,0.88814 0.8881,0.8881 c 0.2929,0.2929 0.2929,0.7677 0,1.0606 -0.2929,0.2929 -0.7678,0.2929 -1.0606,0 l -0.8881,-0.8881 -0.8306,0.8306 0.8881,0.8881 c 0.2929,0.2929 0.2929,0.7678 0,1.0607 -0.2929,0.2929 -0.7678,0.2929 -1.0607,0 l -0.8881,-0.8881 -0.8306,0.8306 0.8881,0.8881 c 0.2929,0.2928 0.2929,0.7677 0,1.0606 -0.2929,0.2929 -0.7677,0.2929 -1.0606,0 L 10.1089,14.952 9.22076,15.8401 c -0.29289,0.2929 -0.76777,0.2929 -1.06066,0 -0.29289,-0.2929 -0.29289,-0.7678 0,-1.0606 L 9.0482,13.8914 8.1601,13.0032 c -0.29289,-0.2928 -0.29289,-0.7677 0,-1.0606 0.29289,-0.2929 0.76777,-0.2929 1.06066,0 l 0.88814,0.8881 0.8305,-0.8306 -0.8881,-0.8881 c -0.29285,-0.2929 -0.29285,-0.7678 0,-1.0607 0.2929,-0.29285 0.7678,-0.29285 1.0607,0 l 0.8881,0.8881 0.8306,-0.8305 -0.8881,-0.88814 c -0.2929,-0.29289 -0.2929,-0.76777 0,-1.06066 z"
         fill="#1c274c"
         id="path3"
         style="fill:#ff342d;fill-opacity:1" /></g><g
       style="fill:#ff342d;fill-opacity:1"
       id="g2"
       transform="matrix(1.4785486,0,0,1.4785486,115.2802,-3.0338777)"><path
         id="Baseball"
         d="m 89.862,125.614 c -0.022,0.209 -0.068,0.411 -0.094,0.619 -0.085,0.65 -0.174,1.3 -0.308,1.933 -0.04,0.189 -0.1,0.371 -0.144,0.558 -0.153,0.647 -0.313,1.291 -0.516,1.917 -0.044,0.138 -0.1,0.27 -0.149,0.407 -0.229,0.67 -0.474,1.332 -0.757,1.975 -0.037,0.083 -0.081,0.162 -0.118,0.245 -0.313,0.69 -0.649,1.368 -1.022,2.023 -0.02,0.036 -0.044,0.07 -0.064,0.105 -0.4,0.7 -0.83,1.374 -1.293,2.025 l -0.008,0.011 a 25.313,25.313 0 0 1 -3.266,3.748 c -0.463,0.436 -0.933,0.865 -1.428,1.265 a 25.189,25.189 0 0 1 -2.835,1.963 c -0.227,0.137 -0.448,0.283 -0.679,0.413 -0.361,0.2 -0.737,0.383 -1.109,0.568 -0.31,0.154 -0.619,0.31 -0.937,0.451 -0.351,0.156 -0.71,0.3 -1.069,0.438 -0.359,0.138 -0.727,0.277 -1.1,0.4 q -0.511,0.173 -1.032,0.324 c -0.416,0.12 -0.837,0.226 -1.262,0.324 -0.322,0.075 -0.642,0.152 -0.968,0.214 -0.5,0.094 -1,0.165 -1.5,0.229 -0.271,0.035 -0.539,0.081 -0.813,0.107 -0.788,0.075 -1.584,0.121 -2.391,0.121 -0.807,0 -1.627,-0.046 -2.426,-0.122 -0.3,-0.029 -0.583,-0.082 -0.876,-0.12 -0.492,-0.065 -0.985,-0.131 -1.468,-0.224 -0.363,-0.071 -0.718,-0.162 -1.076,-0.249 -0.393,-0.094 -0.786,-0.189 -1.172,-0.3 -0.386,-0.111 -0.79,-0.25 -1.18,-0.387 -0.322,-0.112 -0.644,-0.227 -0.96,-0.351 q -0.635,-0.251 -1.251,-0.536 -0.388,-0.178 -0.768,-0.37 c -0.443,-0.223 -0.88,-0.454 -1.307,-0.7 -0.195,-0.113 -0.385,-0.232 -0.577,-0.35 -0.462,-0.285 -0.919,-0.576 -1.361,-0.889 -0.122,-0.086 -0.238,-0.179 -0.358,-0.268 -0.49,-0.361 -0.974,-0.73 -1.436,-1.124 -0.49,-0.419 -0.974,-0.845 -1.43,-1.3 a 25.053,25.053 0 0 1 -5.337,-7.866 c -0.013,-0.031 -0.031,-0.06 -0.044,-0.091 -0.284,-0.668 -0.528,-1.357 -0.754,-2.053 -0.027,-0.084 -0.065,-0.164 -0.091,-0.249 -0.2,-0.648 -0.362,-1.313 -0.511,-1.982 -0.032,-0.141 -0.078,-0.276 -0.108,-0.419 -0.132,-0.643 -0.219,-1.3 -0.3,-1.963 -0.022,-0.176 -0.062,-0.347 -0.08,-0.524 a 25.34,25.34 0 0 1 0,-5.119 c 0.018,-0.177 0.058,-0.348 0.08,-0.524 0.081,-0.66 0.168,-1.319 0.3,-1.963 0.029,-0.142 0.076,-0.277 0.108,-0.419 0.149,-0.669 0.309,-1.335 0.511,-1.982 0.026,-0.085 0.064,-0.165 0.091,-0.249 0.226,-0.7 0.47,-1.385 0.754,-2.053 0.013,-0.031 0.031,-0.06 0.044,-0.091 a 25.05,25.05 0 0 1 5.337,-7.866 c 0.456,-0.455 0.94,-0.881 1.43,-1.3 0.462,-0.395 0.946,-0.763 1.436,-1.124 0.12,-0.088 0.236,-0.181 0.358,-0.268 0.441,-0.313 0.9,-0.6 1.361,-0.889 0.192,-0.118 0.382,-0.237 0.577,-0.35 0.427,-0.248 0.865,-0.479 1.307,-0.7 q 0.381,-0.191 0.768,-0.37 0.617,-0.284 1.251,-0.536 c 0.316,-0.125 0.638,-0.239 0.96,-0.351 0.39,-0.136 0.781,-0.27 1.18,-0.386 0.399,-0.116 0.779,-0.207 1.172,-0.3 0.357,-0.086 0.713,-0.178 1.076,-0.248 0.483,-0.093 0.975,-0.159 1.468,-0.224 0.292,-0.039 0.58,-0.092 0.876,-0.12 C 63.373,98.046 64.181,98 65,98 c 0.819,0 1.634,0.045 2.436,0.123 0.312,0.03 0.616,0.087 0.925,0.129 0.477,0.064 0.954,0.126 1.422,0.217 0.393,0.077 0.776,0.177 1.162,0.272 0.363,0.089 0.728,0.174 1.084,0.279 0.439,0.13 0.87,0.279 1.3,0.431 0.28,0.1 0.56,0.2 0.835,0.306 0.473,0.188 0.938,0.392 1.4,0.607 0.207,0.1 0.413,0.195 0.616,0.3 0.5,0.251 0.99,0.517 1.47,0.8 0.139,0.082 0.276,0.167 0.413,0.251 0.52,0.321 1.03,0.654 1.524,1.011 0.073,0.053 0.143,0.108 0.216,0.161 0.538,0.4 1.064,0.81 1.568,1.248 0.504,0.438 0.974,0.86 1.43,1.322 a 25.124,25.124 0 0 1 4.235,5.731 l 0.012,0.024 q 0.559,1.042 1.022,2.14 c 0.034,0.08 0.057,0.165 0.09,0.246 0.27,0.663 0.522,1.337 0.736,2.027 0.061,0.2 0.1,0.405 0.156,0.605 0.165,0.584 0.329,1.168 0.451,1.768 0.077,0.379 0.117,0.771 0.176,1.156 0.068,0.435 0.153,0.865 0.2,1.307 a 25.044,25.044 0 0 1 -0.009,5.155 z m -40.02,-18.533 a 21.939,21.939 0 0 0 0,31.838 c 0.268,-0.245 0.527,-0.508 0.779,-0.781 l -1.439,-0.958 c -0.244,-0.162 -0.237,-0.508 0.015,-0.773 a 0.748,0.748 0 0 1 0.9,-0.185 l 1.375,0.915 a 18.841,18.841 0 0 0 1.406,-2.108 l -1.56,-0.283 a 0.5,0.5 0 0 1 -0.315,-0.712 0.725,0.725 0 0 1 0.742,-0.52 l 1.78,0.323 a 21.977,21.977 0 0 0 1.053,-2.5 l -1.266,0.091 c -0.3,0.021 -0.518,-0.252 -0.5,-0.609 a 0.706,0.706 0 0 1 0.576,-0.686 l 1.6,-0.115 a 24.978,24.978 0 0 0 0.6,-2.628 l -1.25,0.09 c -0.3,0.021 -0.518,-0.251 -0.5,-0.609 a 0.706,0.706 0 0 1 0.576,-0.686 l 1.377,-0.1 c 0.091,-0.787 0.15,-1.589 0.171,-2.4 l -1.448,0.486 a 0.525,0.525 0 0 1 -0.644,-0.465 0.688,0.688 0 0 1 0.372,-0.806 l 1.72,-0.577 c -0.021,-0.814 -0.093,-1.607 -0.189,-2.388 l -1.379,0.311 c -0.285,0.064 -0.525,-0.225 -0.536,-0.647 a 0.855,0.855 0 0 1 0.5,-0.879 l 1.193,-0.269 c -0.14,-0.767 -0.3,-1.522 -0.5,-2.253 l -1.458,0.5 a 0.521,0.521 0 0 1 -0.65,-0.46 0.706,0.706 0 0 1 0.389,-0.814 l 1.363,-0.465 a 22.133,22.133 0 0 0 -0.969,-2.451 l -0.7,0.678 a 0.71,0.71 0 0 1 -0.958,-0.087 0.637,0.637 0 0 1 -0.1,-0.914 l 1.061,-1.025 c -0.261,-0.459 -0.535,-0.9 -0.825,-1.324 l -1.02,1.021 a 0.676,0.676 0 0 1 -0.935,-0.088 0.659,0.659 0 0 1 -0.1,-0.924 l 1.173,-1.174 a 15.22,15.22 0 0 0 -1.48,-1.59 z M 65,101 a 21.894,21.894 0 0 0 -13.764,4.852 17.629,17.629 0 0 1 1.44,1.513 l 1.93,-0.375 a 0.71,0.71 0 0 1 0.743,0.516 0.519,0.519 0 0 1 -0.329,0.724 l -1.47,0.286 a 21.179,21.179 0 0 1 1.442,2.321 l 1.772,-0.344 a 0.71,0.71 0 0 1 0.743,0.516 0.519,0.519 0 0 1 -0.329,0.725 L 55.6,112.04 a 24.4,24.4 0 0 1 1.108,2.884 l 1.653,-0.239 a 0.919,0.919 0 0 1 0.88,0.631 c 0.152,0.4 0,0.758 -0.329,0.806 l -1.783,0.258 c 0.195,0.759 0.352,1.54 0.483,2.333 l 1.661,0.1 a 0.691,0.691 0 0 1 0.579,0.683 0.531,0.531 0 0 1 -0.513,0.618 l -1.543,-0.092 c 0.088,0.759 0.153,1.528 0.172,2.315 l 1.67,0.56 a 0.688,0.688 0 0 1 0.372,0.806 0.525,0.525 0 0 1 -0.644,0.465 l -1.4,-0.47 c -0.023,0.895 -0.093,1.773 -0.2,2.636 a 0.39,0.39 0 0 1 0.079,0.027 l 1.778,1.162 a 0.677,0.677 0 0 1 0.141,0.871 0.536,0.536 0 0 1 -0.747,0.29 l -1.476,-0.964 a 26.292,26.292 0 0 1 -0.623,2.657 l 1.675,1.095 a 0.677,0.677 0 0 1 0.141,0.871 0.536,0.536 0 0 1 -0.747,0.29 l -1.466,-0.958 a 23.7,23.7 0 0 1 -1.21,2.856 l 1.371,1 a 0.876,0.876 0 0 1 0.153,1.045 c -0.18,0.385 -0.541,0.54 -0.806,0.348 l -1.445,-1.051 a 21.34,21.34 0 0 1 -1.409,2.106 l 1.211,0.792 a 0.677,0.677 0 0 1 0.141,0.871 0.536,0.536 0 0 1 -0.747,0.29 l -1.434,-0.938 a 16,16 0 0 1 -1.114,1.161 21.919,21.919 0 0 0 27.088,0.329 18.2,18.2 0 0 1 -1.507,-1.741 l -1.407,0.274 A 0.709,0.709 0 0 1 74.665,138.501 0.52,0.52 0 0 1 75,137.77 l 1,-0.195 a 22,22 0 0 1 -1.329,-2.342 l -1.411,0.275 a 0.709,0.709 0 0 1 -0.741,-0.516 0.52,0.52 0 0 1 0.328,-0.724 l 1.263,-0.246 a 25.356,25.356 0 0 1 -1.016,-2.913 l -1.428,0.207 a 0.917,0.917 0 0 1 -0.877,-0.631 c -0.152,-0.4 0,-0.758 0.328,-0.806 l 1.6,-0.232 c -0.176,-0.771 -0.315,-1.563 -0.429,-2.367 l -1.529,-0.091 a 0.691,0.691 0 0 1 -0.577,-0.683 0.531,0.531 0 0 1 0.512,-0.618 l 1.442,0.086 c -0.071,-0.764 -0.121,-1.536 -0.125,-2.326 l -1.615,-0.543 a 0.689,0.689 0 0 1 -0.371,-0.806 0.524,0.524 0 0 1 0.642,-0.465 l 1.393,0.469 c 0.037,-0.891 0.119,-1.765 0.235,-2.623 a 0.4,0.4 0 0 1 -0.115,-0.039 l -1.78,-1.164 a 0.679,0.679 0 0 1 -0.141,-0.871 0.534,0.534 0 0 1 0.745,-0.29 l 1.522,1 a 26.912,26.912 0 0 1 0.645,-2.641 l -1.745,-1.144 a 0.679,0.679 0 0 1 -0.141,-0.871 0.534,0.534 0 0 1 0.745,-0.29 l 1.547,1.014 a 23.942,23.942 0 0 1 1.222,-2.838 l -1.467,-1.07 a 0.878,0.878 0 0 1 -0.152,-1.045 c 0.18,-0.384 0.54,-0.54 0.8,-0.348 l 1.55,1.131 a 21.155,21.155 0 0 1 1.424,-2.1 l -1.335,-0.875 a 0.679,0.679 0 0 1 -0.141,-0.871 0.534,0.534 0 0 1 0.745,-0.29 L 77.8,107.1 A 15.547,15.547 0 0 1 78.914,105.959 21.9,21.9 0 0 0 65,101 Z m 15.268,6.181 c -0.266,0.236 -0.523,0.49 -0.774,0.755 l 1.325,0.884 c 0.243,0.162 0.237,0.508 -0.015,0.773 a 0.745,0.745 0 0 1 -0.9,0.185 l -1.275,-0.851 a 18.449,18.449 0 0 0 -1.4,2.061 l 1.461,0.266 a 0.5,0.5 0 0 1 0.314,0.712 0.723,0.723 0 0 1 -0.74,0.52 l -1.695,-0.309 a 22.076,22.076 0 0 0 -1.071,2.482 l 1.2,-0.087 c 0.3,-0.021 0.517,0.251 0.495,0.609 a 0.705,0.705 0 0 1 -0.575,0.686 l -1.549,0.111 a 25.608,25.608 0 0 0 -0.635,2.63 l 1.238,-0.089 c 0.3,-0.021 0.517,0.251 0.495,0.609 a 0.705,0.705 0 0 1 -0.575,0.686 l -1.382,0.1 c -0.1,0.791 -0.175,1.6 -0.21,2.42 l 1.492,-0.5 a 0.524,0.524 0 0 1 0.642,0.465 0.689,0.689 0 0 1 -0.371,0.806 l -1.807,0.608 c 0.006,0.813 0.062,1.606 0.141,2.388 l 1.513,-0.342 c 0.284,-0.064 0.523,0.225 0.534,0.647 a 0.856,0.856 0 0 1 -0.494,0.879 l -1.362,0.308 c 0.123,0.779 0.269,1.546 0.452,2.289 l 1.675,-0.573 a 0.519,0.519 0 0 1 0.648,0.46 0.706,0.706 0 0 1 -0.388,0.814 l -1.608,0.549 a 23.064,23.064 0 0 0 0.95,2.622 l 0.964,-0.934 a 0.707,0.707 0 0 1 0.955,0.087 0.638,0.638 0 0 1 0.1,0.914 l -1.352,1.311 c 0.251,0.472 0.515,0.928 0.794,1.363 l 1.34,-1.345 a 0.673,0.673 0 0 1 0.932,0.088 0.66,0.66 0 0 1 0.1,0.924 l -1.526,1.532 a 15.546,15.546 0 0 0 1.4,1.612 21.937,21.937 0 0 0 0.535,-32.124 z"
         transform="translate(-40,-98)"
         style="fill:#ff342d;fill-opacity:1" /></g><g
       id="g3"
       transform="matrix(0.26458333,0,0,0.26458333,141.4424,179.60494)"><g
         id="g4"
         transform="matrix(8.1865451,0,0,8.1865451,-226.41278,-423.24687)"
         style="fill:#ff342d;fill-opacity:1"><path
           style="baseline-shift:baseline;display:inline;overflow:visible;opacity:1;vector-effect:none;fill:#ff342d;fill-opacity:1;stroke-linecap:round;stroke-linejoin:round;stroke-miterlimit:10;enable-background:accumulate;stop-color:#000000;stop-opacity:1"
           d="m 15.912109,4.5273437 c -4.958718,0 -8.9999996,4.0412819 -8.9999996,9.0000003 0,4.958718 4.0412816,9 8.9999996,9 4.958718,0 9,-4.041282 9,-9 0,-4.9587184 -4.041282,-9.0000003 -9,-9.0000003 z m 0,2 c 3.877838,0 7,3.1221622 7,7.0000003 0,3.877838 -3.122162,7 -7,7 -3.877838,0 -6.9999996,-3.122162 -6.9999996,-7 0,-3.8778381 3.1221616,-7.0000003 6.9999996,-7.0000003 z"
           id="circle1" /><path
           style="baseline-shift:baseline;display:inline;overflow:visible;opacity:1;vector-effect:none;fill:#ff342d;fill-opacity:1;stroke-width:0.691056;stroke-linecap:round;stroke-linejoin:round;stroke-miterlimit:10;enable-background:accumulate;stop-color:#000000;stop-opacity:1"
           d="m 10.600634,21.57361 c -0.224214,-0.0202 -0.45605,0.003 -0.6445318,0.06436 -0.3923819,0.128439 -0.4921153,0.384547 -0.2226559,0.571764 1.5369287,1.071215 3.8354557,7.593808 6.2074477,7.593808 2.371993,0 4.380623,-6.522593 5.917552,-7.593808 0.269459,-0.187217 0.169726,-0.443325 -0.222656,-0.571764 -0.392539,-0.128496 -0.928941,-0.08044 -1.197266,0.107264 -1.308803,0.912215 -2.949238,1.38697 -4.642578,1.38697 -1.693339,0 -3.333775,-0.474755 -4.642578,-1.38697 -0.129232,-0.08998 -0.328087,-0.151724 -0.552734,-0.171622 z"
           id="path1-8"
           sodipodi:nodetypes="cccscscsscc" /><path
           style="baseline-shift:baseline;display:inline;overflow:visible;opacity:1;vector-effect:none;fill:#ff342d;fill-opacity:1;stroke-linecap:round;stroke-linejoin:round;stroke-miterlimit:10;enable-background:accumulate;stop-color:#000000;stop-opacity:1"
           d="m 16,23.089844 c -0.914499,5.38e-4 -1.655712,0.741751 -1.65625,1.65625 v 16.478515 c -5.4e-4,0.915261 0.740989,1.657664 1.65625,1.658203 0.915261,-5.39e-4 1.65679,-0.742942 1.65625,-1.658203 V 24.746094 C 17.655712,23.831595 16.914499,23.090382 16,23.089844 Z"
           id="line1"
           sodipodi:nodetypes="ccccccc" /></g></g></g><style
     type="text/css"
     id="style1">
	.st0{fill:none;stroke:#000000;stroke-width:2;stroke-linecap:round;stroke-linejoin:round;stroke-miterlimit:10;}
</style></svg>
