<?xml version="1.0" encoding="UTF-8" standalone="no"?>
<!-- Created with Inkscape (http://www.inkscape.org/) -->

<svg
   width="65.039635mm"
   height="73.379272mm"
   viewBox="0 0 65.039635 73.379272"
   version="1.1"
   id="svg1"
   inkscape:version="1.4.2 (ebf0e940, 2025-05-08)"
   sodipodi:docname="running.svg"
   xmlns:inkscape="http://www.inkscape.org/namespaces/inkscape"
   xmlns:sodipodi="http://sodipodi.sourceforge.net/DTD/sodipodi-0.dtd"
   xmlns="http://www.w3.org/2000/svg"
   xmlns:svg="http://www.w3.org/2000/svg">
  <sodipodi:namedview
     id="namedview1"
     pagecolor="#ffffff"
     bordercolor="#000000"
     borderopacity="0.25"
     inkscape:showpageshadow="2"
     inkscape:pageopacity="0.0"
     inkscape:pagecheckerboard="0"
     inkscape:deskcolor="#d1d1d1"
     inkscape:document-units="mm"
     inkscape:zoom="0.023162177"
     inkscape:cx="-3000.5815"
     inkscape:cy="-388.56451"
     inkscape:window-width="896"
     inkscape:window-height="245"
     inkscape:window-x="0"
     inkscape:window-y="39"
     inkscape:window-maximized="0"
     inkscape:current-layer="layer1" />
  <defs
     id="defs1">
    <clipPath
       clipPathUnits="userSpaceOnUse"
       id="clipPath262">
      <path
         d="M 0,276 H 276 V 0 H 0 Z"
         transform="translate(-75.856404,-72.117504)"
         id="path262" />
    </clipPath>
    <clipPath
       clipPathUnits="userSpaceOnUse"
       id="clipPath260">
      <path
         d="M 0,276 H 276 V 0 H 0 Z"
         transform="translate(-108.3276,-74.296104)"
         id="path260" />
    </clipPath>
    <clipPath
       clipPathUnits="userSpaceOnUse"
       id="clipPath258">
      <path
         d="M 0,276 H 276 V 0 H 0 Z"
         transform="translate(-216.03621,-130.61271)"
         id="path258" />
    </clipPath>
    <clipPath
       clipPathUnits="userSpaceOnUse"
       id="clipPath256">
      <path
         d="M 0,276 H 276 V 0 H 0 Z"
         transform="translate(-81.140102,-43.726704)"
         id="path256" />
    </clipPath>
    <clipPath
       clipPathUnits="userSpaceOnUse"
       id="clipPath254">
      <path
         d="M 0,276 H 276 V 0 H 0 Z"
         transform="translate(-131.97591,-100.50021)"
         id="path254" />
    </clipPath>
    <clipPath
       clipPathUnits="userSpaceOnUse"
       id="clipPath252">
      <path
         d="M 0,276 H 276 V 0 H 0 Z"
         transform="translate(-90.8194,-225.43311)"
         id="path252" />
    </clipPath>
  </defs>
  <g
     inkscape:label="Layer 1"
     inkscape:groupmode="layer"
     id="layer1"
     transform="translate(-904.08124,-248.97292)">
    <path
       id="path251"
       d="m 0,0 h -24.629 v 13.709 c 0,1.096 2.008,2.306 3.114,2.483 3.074,0.492 14.741,0.481 17.905,0.064 C -2.285,16.081 0,14.281 0,13.15 Z"
       style="fill:#ff342d;fill-opacity:1;fill-rule:nonzero;stroke:none"
       transform="matrix(0.35277776,0,0,-0.35277776,920.02255,254.81674)"
       clip-path="url(#clipPath252)" />
    <path
       id="path253"
       d="m 0,0 c -3.739,-0.743 -3.508,-5.207 0.148,-6.941 2.034,-0.965 17.324,-5.174 19.34,-5.229 4.14,-0.113 5.409,4.791 2.292,6.646 C 20.385,-4.695 4.148,-0.226 2.125,-0.023 1.352,0.054 0.814,0.162 0,0 M 7.96,13.474 C 4.03,12.693 4.2,8.359 8.111,6.529 9.964,5.662 25.15,1.417 26.873,1.368 c 4.149,-0.118 5.472,4.755 1.902,6.837 -1.381,0.804 -16.771,5.05 -18.688,5.24 -0.771,0.077 -1.305,0.192 -2.127,0.029 m 7.349,14.081 c -3.282,-0.663 -3.979,-5.204 -0.903,-6.772 4.275,-0.328 20.371,-6.98 23.278,-5.269 2.657,1.564 2.158,5.084 -0.612,6.496 -2.266,1.155 -16.827,5.136 -19.622,5.53 -0.786,0.111 -1.335,0.178 -2.141,0.015 M 60.704,-8.99 c -7.314,-3.489 -14.629,-7.15 -21.759,-11.003 -28.028,-15.147 -57.74,-36.546 -91.61,-31.172 -9.863,1.565 -3.791,13.286 1.05,17.61 4.792,4.279 9.663,4.936 15.038,7.622 19.387,9.688 30.256,32.698 40.524,50.723 3.722,6.533 4.135,8.374 6.776,15.269 2.552,6.664 11.172,24.081 19.773,15.177 7.124,-7.375 4.078,-26.79 21.891,-23.151 9.737,1.99 9.565,17.574 16.22,18.728 C 73.574,51.675 80.872,44.17 81.357,39.27 67.887,34.193 57.858,22.726 58.321,7.733 58.4,5.17 61.168,-8.258 60.704,-8.99"
       style="fill:#ff342d;fill-opacity:1;fill-rule:nonzero;stroke:none"
       transform="matrix(0.35277776,0,0,-0.35277776,934.54165,298.89029)"
       clip-path="url(#clipPath254)" />
    <path
       id="path255"
       d="m 0,0 c 39.963,-3.524 72.966,21.666 106.559,38.898 4.522,2.319 36.071,18.275 38.157,17.955 1.327,-0.204 3.448,-2.264 3.844,-3.546 1.857,-6.022 -5.454,-9.385 -10.191,-12.416 C 127.167,33.722 111.709,29.304 99.785,22.518 86.661,15.049 76.426,4.109 61.768,-1.32 46.709,-6.899 22.435,-13.93 7.831,-6.554 6.995,-6.132 -1.368,-1.199 0,0"
       style="fill:#ff342d;fill-opacity:1;fill-rule:nonzero;stroke:none"
       transform="matrix(0.35277776,0,0,-0.35277776,916.60791,318.91872)"
       clip-path="url(#clipPath256)" />
    <path
       id="path257"
       d="m 0,0 8.584,-23.262 -23.882,-11.642 c -0.486,3.838 -2.234,7.402 -2.476,11.304 C -18.484,-12.103 -10.992,-2.747 0,0"
       style="fill:#ff342d;fill-opacity:1;fill-rule:nonzero;stroke:none"
       transform="matrix(0.35277776,0,0,-0.35277776,964.19625,288.26727)"
       clip-path="url(#clipPath258)" />
    <path
       id="path259"
       d="M 0,0 C -1.842,-1.437 -3.766,-2.777 -5.788,-3.993 -3.615,-3.348 -1.565,-1.895 0,0"
       style="fill:#ff342d;fill-opacity:1;fill-rule:nonzero;stroke:none"
       transform="matrix(0.35277776,0,0,-0.35277776,926.19905,308.13451)"
       clip-path="url(#clipPath260)" />
    <path
       id="path261"
       d="m 0,0 c 4.155,3.682 8.312,5.273 11.979,6.677 1.618,0.618 3.145,1.203 4.652,1.95 7.309,3.626 13.405,9.632 18.745,16.635 v 41.836 c 0,6.37 -5.686,9.675 -5.67,16.166 0.017,6.406 4.912,10.537 5.619,15.662 0.788,5.701 0.415,19.648 -0.883,25.231 -2.079,8.934 -8.614,16.941 -16.464,21.581 l -30.536,0.138 c -8.408,-5.036 -16.143,-14.822 -17.188,-24.764 -0.512,-4.866 -0.74,-18.138 -0.034,-22.757 0.772,-5.058 5.579,-8.553 5.578,-15.089 0,-6.306 -5.615,-10.531 -5.615,-16.168 0,-19.217 0.137,-39.978 0.137,-58.412 0,-4.944 5.892,-10.875 10.957,-10.875 H -2.14 C -1.411,-1.353 -0.684,-0.607 0,0"
       style="fill:#ff342d;fill-opacity:1;fill-rule:nonzero;stroke:none"
       transform="matrix(0.35277776,0,0,-0.35277776,914.74393,308.90307)"
       clip-path="url(#clipPath262)" />
  </g>
</svg>
