<?xml version="1.0" encoding="UTF-8" standalone="no"?>
<!-- Created with Inkscape (http://www.inkscape.org/) -->

<svg
   width="64.911568mm"
   height="54.295841mm"
   viewBox="0 0 64.911568 54.295841"
   version="1.1"
   id="svg1"
   inkscape:version="1.4.2 (ebf0e940, 2025-05-08)"
   sodipodi:docname="sewing.svg"
   xmlns:inkscape="http://www.inkscape.org/namespaces/inkscape"
   xmlns:sodipodi="http://sodipodi.sourceforge.net/DTD/sodipodi-0.dtd"
   xmlns="http://www.w3.org/2000/svg"
   xmlns:svg="http://www.w3.org/2000/svg">
  <sodipodi:namedview
     id="namedview1"
     pagecolor="#ffffff"
     bordercolor="#000000"
     borderopacity="0.25"
     inkscape:showpageshadow="2"
     inkscape:pageopacity="0.0"
     inkscape:pagecheckerboard="0"
     inkscape:deskcolor="#d1d1d1"
     inkscape:document-units="mm"
     inkscape:zoom="0.023162177"
     inkscape:cx="107.93459"
     inkscape:cy="86.347668"
     inkscape:window-width="896"
     inkscape:window-height="245"
     inkscape:window-x="0"
     inkscape:window-y="39"
     inkscape:window-maximized="0"
     inkscape:current-layer="layer1" />
  <defs
     id="defs1">
    <clipPath
       clipPathUnits="userSpaceOnUse"
       id="clipPath4579">
      <path
         d="M 0,276 H 276 V 0 H 0 Z"
         transform="translate(-179.34675,-151.33131)"
         id="path4579" />
    </clipPath>
    <clipPath
       clipPathUnits="userSpaceOnUse"
       id="clipPath4577">
      <path
         d="M 0,276 H 276 V 0 H 0 Z"
         transform="translate(-178.1925,-159.4282)"
         id="path4577" />
    </clipPath>
  </defs>
  <g
     inkscape:label="Layer 1"
     inkscape:groupmode="layer"
     id="layer1"
     transform="translate(-75.935382,-121.44375)">
    <path
       id="path4576"
       d="M 0,0 C -16.687,-2.847 -13.857,-31.472 3.268,-30.584 22.278,-29.598 19.994,3.411 0,0 m -123.206,-27.135 c -4.133,0.689 -6.906,4.432 -7.279,8.392 -1.954,20.75 1.508,44.529 0.02,65.601 0.097,3.246 3.295,7.338 6.371,8.14 2.543,0.664 18.943,0.692 21.655,0.142 6.296,-1.277 12.865,-12.518 21.005,-11.5 l 86.235,0.022 c -2.133,14.156 15.451,14.23 13.346,0 5.247,0.04 10.909,1.396 14.514,-3.261 0.518,-0.669 1.743,-3.162 1.743,-5.151 v -8.415 h 13.643 c 2.803,0 3.65,-3.979 3.753,-5.583 0.088,-1.373 -0.579,-2.607 -0.587,-3.969 -0.045,-8.227 1.179,-21.506 -0.006,-29.007 -1.016,-6.424 -12.843,-4.439 -17.377,-3.805 l -1.748,-48.748 h 13.642 c 2.867,0 4.473,-4.152 4.785,-6.244 0.654,-4.392 0.56,-14.458 0.171,-19.021 -0.359,-4.202 -1.873,-8.837 -6.254,-8.837 l -170.402,-0.004 c -1.719,0 -4.658,2.065 -5.209,4.078 -0.836,3.052 -0.393,14.665 -0.413,18.735 -0.006,1.362 -0.677,2.598 -0.587,3.97 0.175,2.666 2.697,7.059 5.18,7.059 l 87.987,0.251 c 2.47,0.153 3.91,1.769 4.772,3.935 1.971,4.95 3.088,15.739 4.044,21.492 1.165,7.013 4.429,23.145 3.601,29.379 -0.739,5.562 -5.067,9.091 -10.692,9.089 -11.766,-0.005 -28.106,0.406 -39.496,-0.602 -10.805,-0.957 -10.713,-12.586 -14.184,-20.06 -2.608,-5.616 -7.618,-6.279 -13.367,-6.078 v -15.96 c 0,-3.06 -9.565,-3.762 -9.565,0.751 0,2.904 0.172,15.683 0.172,15.683 -2.765,0.32 -6.839,-0.914 -9.473,-0.474"
       style="fill:#ff342d;fill-opacity:1;fill-rule:nonzero;stroke:none"
       transform="matrix(0.35277776,0,0,-0.35277776,122.57024,141.03226)"
       clip-path="url(#clipPath4577)" />
    <path
       id="path4578"
       d="M 0,0 C 8.676,1.918 10.357,-12.828 2.137,-13.8 -5.807,-14.739 -6.912,-1.528 0,0"
       style="fill:#ff342d;fill-opacity:1;fill-rule:nonzero;stroke:none"
       transform="matrix(0.35277776,0,0,-0.35277776,122.97744,143.88866)"
       clip-path="url(#clipPath4579)" />
  </g>
</svg>
