<?xml version="1.0" encoding="UTF-8" standalone="no"?>
<!-- Created with Inkscape (http://www.inkscape.org/) -->

<svg
   width="64.911461mm"
   height="53.488174mm"
   viewBox="0 0 64.911461 53.488174"
   version="1.1"
   id="svg1"
   inkscape:version="1.4.2 (ebf0e940, 2025-05-08)"
   sodipodi:docname="shopping.svg"
   xmlns:inkscape="http://www.inkscape.org/namespaces/inkscape"
   xmlns:sodipodi="http://sodipodi.sourceforge.net/DTD/sodipodi-0.dtd"
   xmlns="http://www.w3.org/2000/svg"
   xmlns:svg="http://www.w3.org/2000/svg">
  <sodipodi:namedview
     id="namedview1"
     pagecolor="#ffffff"
     bordercolor="#000000"
     borderopacity="0.25"
     inkscape:showpageshadow="2"
     inkscape:pageopacity="0.0"
     inkscape:pagecheckerboard="0"
     inkscape:deskcolor="#d1d1d1"
     inkscape:document-units="mm"
     inkscape:zoom="0.023162177"
     inkscape:cx="107.93459"
     inkscape:cy="86.347668"
     inkscape:window-width="896"
     inkscape:window-height="245"
     inkscape:window-x="0"
     inkscape:window-y="39"
     inkscape:window-maximized="0"
     inkscape:current-layer="layer1" />
  <defs
     id="defs1">
    <clipPath
       clipPathUnits="userSpaceOnUse"
       id="clipPath778">
      <path
         d="M 0,276 H 276 V 0 H 0 Z"
         transform="translate(-131.96933,-75.512604)"
         id="path778" />
    </clipPath>
    <clipPath
       clipPathUnits="userSpaceOnUse"
       id="clipPath776">
      <path
         d="M 0,276 H 276 V 0 H 0 Z"
         transform="translate(-205.07251,-75.409899)"
         id="path776" />
    </clipPath>
    <clipPath
       clipPathUnits="userSpaceOnUse"
       id="clipPath774">
      <path
         d="M 0,276 H 276 V 0 H 0 Z"
         transform="translate(-105.3678,-119.46981)"
         id="path774" />
    </clipPath>
  </defs>
  <g
     inkscape:label="Layer 1"
     inkscape:groupmode="layer"
     id="layer1"
     transform="translate(-75.935407,-121.70833)">
    <path
       id="path773"
       d="m 0,0 c 2.139,-6.845 2.335,-11.703 10.618,-12.71 l 87.519,-0.056 c 8.241,-0.967 6.775,-13.222 -1.294,-13.433 L 4.132,-26.223 c -6.604,0.311 -12.495,4.8 -14.539,11.026 l -25.061,95.724 c -1.554,0 -16.219,-0.011 -19.691,0.764 -6.015,1.344 -5.389,11.151 0.639,12.512 3.568,0.805 19.981,0.571 24.188,0.166 2.893,-0.278 5.724,-1.72 7.224,-4.281 2.104,-3.592 2.191,-10.757 4.031,-13.863 0.391,-0.66 0.625,-1.061 1.49,-1.066 l 134.911,0.032 c 4.761,0 7.595,-3.626 7.286,-7.924 C 120.087,47.109 115.728,29.229 111.052,11.357 109.99,7.295 107.312,3.65 103.494,1.659 102.947,1.374 100.265,0 95.678,0 Z"
       style="fill:#ff342d;fill-opacity:1;fill-rule:nonzero;stroke:none"
       transform="matrix(0.35277776,0,0,-0.35277776,96.879138,154.98942)"
       clip-path="url(#clipPath774)" />
    <path
       id="path775"
       d="m 0,0 c 0,-7.301 -5.921,-13.22 -13.224,-13.22 -7.303,0 -13.224,5.919 -13.224,13.22 0,7.301 5.921,13.22 13.224,13.22 C -5.921,13.22 0,7.301 0,0"
       style="fill:#ff342d;fill-opacity:1;fill-rule:nonzero;stroke:none"
       transform="matrix(0.35277776,0,0,-0.35277776,132.05274,170.53278)"
       clip-path="url(#clipPath776)" />
    <path
       id="path777"
       d="m 0,0 c 0,-7.139 -5.789,-12.927 -12.931,-12.927 -7.141,0 -12.931,5.788 -12.931,12.927 0,7.139 5.79,12.927 12.931,12.927 C -5.789,12.927 0,7.139 0,0"
       style="fill:#ff342d;fill-opacity:1;fill-rule:nonzero;stroke:none"
       transform="matrix(0.35277776,0,0,-0.35277776,106.26356,170.49655)"
       clip-path="url(#clipPath778)" />
  </g>
</svg>
