<?xml version="1.0" encoding="UTF-8" standalone="no"?>
<!-- Created with Inkscape (http://www.inkscape.org/) -->

<svg
   width="73.38446mm"
   height="73.377823mm"
   viewBox="0 0 73.38446 73.377823"
   version="1.1"
   id="svg1"
   inkscape:version="1.4.2 (ebf0e940, 2025-05-08)"
   sodipodi:docname="skating.svg"
   xmlns:inkscape="http://www.inkscape.org/namespaces/inkscape"
   xmlns:sodipodi="http://sodipodi.sourceforge.net/DTD/sodipodi-0.dtd"
   xmlns="http://www.w3.org/2000/svg"
   xmlns:svg="http://www.w3.org/2000/svg">
  <sodipodi:namedview
     id="namedview1"
     pagecolor="#ffffff"
     bordercolor="#000000"
     borderopacity="0.25"
     inkscape:showpageshadow="2"
     inkscape:pageopacity="0.0"
     inkscape:pagecheckerboard="0"
     inkscape:deskcolor="#d1d1d1"
     inkscape:document-units="mm"
     inkscape:zoom="0.066234861"
     inkscape:cx="264.21132"
     inkscape:cy="241.56463"
     inkscape:window-width="896"
     inkscape:window-height="245"
     inkscape:window-x="0"
     inkscape:window-y="39"
     inkscape:window-maximized="0"
     inkscape:current-layer="layer1" />
  <defs
     id="defs1">
    <clipPath
       clipPathUnits="userSpaceOnUse"
       id="clipPath2864">
      <path
         d="M 0,276 H 276 V 0 H 0 Z"
         transform="translate(-224.16563,-100.5871)"
         id="path2864" />
    </clipPath>
    <clipPath
       clipPathUnits="userSpaceOnUse"
       id="clipPath2862">
      <path
         d="M 0,276 H 276 V 0 H 0 Z"
         transform="translate(-118.2933,-51.734904)"
         id="path2862" />
    </clipPath>
    <clipPath
       clipPathUnits="userSpaceOnUse"
       id="clipPath2860">
      <path
         d="M 0,276 H 276 V 0 H 0 Z"
         transform="translate(-240.31853,-144.3063)"
         id="path2860" />
    </clipPath>
    <clipPath
       clipPathUnits="userSpaceOnUse"
       id="clipPath2858">
      <path
         d="M 0,276 H 276 V 0 H 0 Z"
         transform="translate(-66.475577,-120.02931)"
         id="path2858" />
    </clipPath>
    <clipPath
       clipPathUnits="userSpaceOnUse"
       id="clipPath2856">
      <path
         d="M 0,276 H 276 V 0 H 0 Z"
         transform="translate(-73.195577,-238.09431)"
         id="path2856" />
    </clipPath>
  </defs>
  <g
     inkscape:label="Layer 1"
     inkscape:groupmode="layer"
     id="layer1"
     transform="translate(59.531321,-306.12292)">
    <path
       id="path2855"
       d="m 0,0 c -0.83,-1.07 -1.007,-2.941 -1.011,-4.286 -0.036,-12.506 5.616,-23.578 0.605,-36.142 -5.689,-14.262 -18.138,-18.085 -29.34,-26.187 -7.312,-5.289 -10.157,-9.804 -9.337,-19.219 0.599,-6.881 4.11,-7.706 10.308,-6.432 29.532,7.311 60.553,10.962 90.04,18.017 3.463,0.828 9.731,1.714 10.3,5.953 -0.195,16.445 -2.001,34.463 -14.018,46.811 -4.744,4.875 -11.053,7.547 -15.489,11.488 C 37.62,-6.055 36,1.036 29.652,3.236 25.302,4.744 10.15,3.338 5.165,2.422 3.536,2.123 1.035,1.335 0,0"
       style="fill:#ff342d;fill-opacity:1;fill-rule:nonzero;stroke:none"
       transform="matrix(0.35277776,0,0,-0.35277776,-45.695555,307.49878)"
       clip-path="url(#clipPath2856)" />
    <path
       id="path2857"
       d="M 0,0 C 3.89,0.344 6.764,3.774 6.421,7.663 6.077,11.551 2.645,14.425 -1.244,14.081 -5.134,13.737 -8.009,10.307 -7.665,6.418 -7.321,2.53 -3.89,-0.344 0,0 m 64.847,6.023 c 4.095,0.362 7.121,3.974 6.759,8.067 -0.362,4.093 -3.974,7.118 -8.069,6.756 -4.094,-0.362 -7.12,-3.973 -6.759,-8.066 0.362,-4.094 3.975,-7.119 8.069,-6.757 m -96.648,4.764 c 0.94,4.259 4.462,7.472 8.744,8.301 l 86.464,16.73 c 3.111,0.602 6.203,1.3 9.271,2.093 l 6.699,1.731 c 0.412,-1.828 0.893,-3.569 1.136,-5.451 0.212,-1.642 -6.122,-5.585 -6.028,-6.575 0.06,-0.644 5.791,-4.354 6.838,-10.588 3.91,-23.283 -28.906,-29.675 -34.362,-7.498 -1.234,5.015 0.089,8.393 1.511,13.093 L 13.668,16.439 C 23.823,-5.947 -4.301,-19.182 -15.029,-2.569 c -0.665,1.03 -2.136,5.073 -2.383,5.218 -0.881,0.519 -7.887,-3.193 -12.123,0.353 -2.367,1.981 -2.894,4.937 -2.266,7.785"
       style="fill:#ff342d;fill-opacity:1;fill-rule:nonzero;stroke:none"
       transform="matrix(0.35277776,0,0,-0.35277776,-48.066222,349.14949)"
       clip-path="url(#clipPath2858)" />
    <path
       id="path2859"
       d="M 0,0 C -3.199,-8.956 -10.089,-15.98 -18.217,-20.751 L -160.17,-86.128 c -8.527,-3.925 -29.401,5.543 -20.158,9.798 57.631,26.526 98.459,45.319 152.098,70.008 4.173,2.695 8.096,5.685 11.917,8.884 3.307,2.77 10.541,11.664 14.002,12.183 C 4.086,15.705 1.142,3.199 0,0"
       style="fill:#ff342d;fill-opacity:1;fill-rule:nonzero;stroke:none"
       transform="matrix(0.35277776,0,0,-0.35277776,13.261707,340.5851)"
       clip-path="url(#clipPath2860)" />
    <path
       id="path2861"
       d="M 0,0 C -1.113,2.419 -3.978,3.477 -6.398,2.363 -8.817,1.25 -9.876,-1.614 -8.763,-4.033 -7.65,-6.452 -4.785,-7.511 -2.365,-6.397 0.054,-5.283 1.113,-2.419 0,0 m 9.872,4.613 c 3.639,-7.906 0.178,-17.265 -7.73,-20.905 -7.908,-3.641 -17.269,-0.182 -20.908,7.723 -3.639,7.906 -0.178,17.266 7.73,20.906 7.909,3.64 17.27,0.182 20.908,-7.724"
       style="fill:#ff342d;fill-opacity:1;fill-rule:nonzero;stroke:none"
       transform="matrix(0.35277776,0,0,-0.35277776,-29.78608,373.24223)"
       clip-path="url(#clipPath2862)" />
    <path
       id="path2863"
       d="M 0,0 C -1.106,2.404 -3.952,3.455 -6.357,2.348 -8.761,1.242 -9.813,-1.604 -8.707,-4.008 -7.601,-6.411 -4.755,-7.463 -2.35,-6.356 0.054,-5.249 1.106,-2.404 0,0 m 9.938,4.727 c 3.63,-7.888 0.178,-17.225 -7.712,-20.857 -7.89,-3.631 -17.229,-0.181 -20.859,7.706 -3.63,7.887 -0.177,17.225 7.712,20.856 7.89,3.632 17.229,0.182 20.859,-7.705"
       style="fill:#ff342d;fill-opacity:1;fill-rule:nonzero;stroke:none"
       transform="matrix(0.35277776,0,0,-0.35277776,7.5633229,356.00826)"
       clip-path="url(#clipPath2864)" />
  </g>
</svg>
