<?xml version="1.0" encoding="UTF-8" standalone="no"?>
<!-- Created with Inkscape (http://www.inkscape.org/) -->

<svg
   width="67.826813mm"
   height="64.911812mm"
   viewBox="0 0 67.826813 64.911812"
   version="1.1"
   id="svg1"
   inkscape:version="1.4.2 (ebf0e940, 2025-05-08)"
   sodipodi:docname="swimming.svg"
   xmlns:inkscape="http://www.inkscape.org/namespaces/inkscape"
   xmlns:sodipodi="http://sodipodi.sourceforge.net/DTD/sodipodi-0.dtd"
   xmlns="http://www.w3.org/2000/svg"
   xmlns:svg="http://www.w3.org/2000/svg">
  <sodipodi:namedview
     id="namedview1"
     pagecolor="#ffffff"
     bordercolor="#000000"
     borderopacity="0.25"
     inkscape:showpageshadow="2"
     inkscape:pageopacity="0.0"
     inkscape:pagecheckerboard="0"
     inkscape:deskcolor="#d1d1d1"
     inkscape:document-units="mm"
     inkscape:zoom="0.19304823"
     inkscape:cx="934.99952"
     inkscape:cy="108.78111"
     inkscape:window-width="896"
     inkscape:window-height="245"
     inkscape:window-x="0"
     inkscape:window-y="39"
     inkscape:window-maximized="0"
     inkscape:current-layer="layer1" />
  <defs
     id="defs1">
    <clipPath
       clipPathUnits="userSpaceOnUse"
       id="clipPath3386">
      <path
         d="M 0,276 H 276 V 0 H 0 Z"
         transform="translate(-217.18673,-62.800202)"
         id="path3386" />
    </clipPath>
    <clipPath
       clipPathUnits="userSpaceOnUse"
       id="clipPath3384">
      <path
         d="M 0,276 H 276 V 0 H 0 Z"
         transform="translate(-194.25743,-136.49511)"
         id="path3384" />
    </clipPath>
  </defs>
  <g
     inkscape:label="Layer 1"
     inkscape:groupmode="layer"
     id="layer1"
     transform="translate(1804.4582,-310.35625)">
    <path
       id="path3383"
       d="M 0,0 H -44.21 V 2.024 2.025 16.842 H 0 Z M -44.21,43.157 H 0.009 V 26.579 H -44.21 Z M 9.231,90.372 C 2.09,86.099 0.099,80.126 0.012,72.246 -0.058,65.888 0.023,59.487 0,53.157 h -44.21 v 20.92 c 0,2.59 2.1,5.438 3.682,6.845 6.219,5.533 15.542,1.784 16.314,-6.323 0.148,-1.552 -0.243,-2.854 0.323,-4.413 1.712,-4.715 8.813,-4.017 9.618,0.796 1.413,8.445 -4.564,18.105 -12.39,21.169 -12.342,4.831 -25.973,-3.839 -27.556,-16.749 0,-33.557 0.227,-62.86 0.227,-94.23 v -6.646 c 0,-2.702 2.19,-4.892 4.891,-4.892 v 0 c 2.702,0 4.891,2.19 4.891,4.892 V -10 H 0 v -10.394 c 0,-0.021 0.007,-0.046 0.009,-0.068 v -5.012 c 0,-2.702 2.19,-4.892 4.892,-4.892 2.701,0 4.891,2.19 4.891,4.892 V 2.024 c 0,0.111 -0.01,0.22 -0.017,0.329 -0.055,23.705 -0.281,47.429 0.248,71.084 0.124,5.573 4.702,10.175 10.273,9.973 3.309,-0.121 6.562,-1.856 8.342,-5.431 1.388,-2.789 0.72,-4.354 1.161,-6.997 0.906,-5.429 9.148,-5.369 9.914,0.486 2.094,15.995 -16.604,27.207 -30.482,18.904"
       style="fill:#ff342d;fill-opacity:1;fill-rule:nonzero;stroke:none"
       transform="matrix(0.35277776,0,0,-0.35277776,-1750.6986,343.34313)"
       clip-path="url(#clipPath3384)" />
    <path
       id="path3385"
       d="m 0,0 c -0.213,-0.119 -0.427,-0.239 -0.635,-0.334 -14.361,-6.508 -21.878,4.162 -33.265,4.162 -7.221,0.001 -12.693,-4.72 -19.904,-5.724 -11.005,-1.531 -13.161,1.342 -21.875,4.679 -12.584,4.818 -12.877,-0.315 -23.11,-3.497 -18.064,-5.616 -23.674,6.35 -38.03,4.346 -6.965,-0.972 -11.338,-5.886 -19.747,-5.159 -0.632,0.054 -1.233,0.168 -1.807,0.325 v 12.808 c 1.541,-0.285 2.992,-0.488 3.943,-0.449 9.036,0.372 14.238,7.881 21.953,7.801 5.674,-0.059 11.502,-5.341 16.716,-7.037 16.432,-5.347 21.627,8.542 34.385,7.109 7.711,-0.866 12.489,-8.515 22.647,-8.64 11.232,-0.139 17.646,9.956 27.656,8.545 4.974,-0.701 9.089,-4.945 13.587,-6.622 C -10.051,9.541 -5.629,10.415 0,12.37 Z M 10.375,94.194 H 0.001 V 67.348 H 0 V 25.645 c -0.213,-0.118 -0.427,-0.239 -0.635,-0.333 -14.361,-6.508 -21.878,4.161 -33.265,4.162 -7.221,0 -12.693,-4.72 -19.904,-5.724 -11.005,-1.532 -13.161,1.342 -21.875,4.679 -12.584,4.818 -12.877,-0.316 -23.11,-3.498 -18.064,-5.616 -23.674,6.35 -38.03,4.347 -6.965,-0.972 -11.338,-5.887 -19.747,-5.16 -0.632,0.055 -1.233,0.169 -1.807,0.326 v 12.807 c 1.541,-0.285 2.992,-0.487 3.943,-0.448 9.036,0.372 14.238,7.881 21.953,7.8 5.674,-0.059 11.502,-5.34 16.716,-7.036 12.162,-3.958 18.168,2.62 25.641,5.727 v 50.9 h -78.629 c -3.628,0 -6.57,-2.942 -6.57,-6.57 V 67.348 -9.256 -10.231 c 0,-3.629 2.942,-6.57 6.57,-6.57 H 10.375 c 3.629,0 6.571,2.941 6.571,6.57 v 0.975 76.604 20.276 c 0,3.628 -2.942,6.57 -6.571,6.57"
       style="fill:#ff342d;fill-opacity:1;fill-rule:nonzero;stroke:none"
       transform="matrix(0.35277776,0,0,-0.35277776,-1742.6096,369.34105)"
       clip-path="url(#clipPath3386)" />
  </g>
</svg>
