<?xml version="1.0" encoding="UTF-8" standalone="no"?>
<!-- Created with Inkscape (http://www.inkscape.org/) -->

<svg
   width="64.840073mm"
   height="73.376724mm"
   viewBox="0 0 64.840073 73.376724"
   version="1.1"
   id="svg1"
   inkscape:version="1.4.2 (ebf0e940, 2025-05-08)"
   sodipodi:docname="tattoo.svg"
   xmlns:inkscape="http://www.inkscape.org/namespaces/inkscape"
   xmlns:sodipodi="http://sodipodi.sourceforge.net/DTD/sodipodi-0.dtd"
   xmlns="http://www.w3.org/2000/svg"
   xmlns:svg="http://www.w3.org/2000/svg">
  <sodipodi:namedview
     id="namedview1"
     pagecolor="#ffffff"
     bordercolor="#000000"
     borderopacity="0.25"
     inkscape:showpageshadow="2"
     inkscape:pageopacity="0.0"
     inkscape:pagecheckerboard="0"
     inkscape:deskcolor="#d1d1d1"
     inkscape:document-units="mm"
     inkscape:zoom="0.12834943"
     inkscape:cx="19.478077"
     inkscape:cy="101.286"
     inkscape:window-width="896"
     inkscape:window-height="245"
     inkscape:window-x="0"
     inkscape:window-y="39"
     inkscape:window-maximized="0"
     inkscape:current-layer="layer1" />
  <defs
     id="defs1">
    <clipPath
       clipPathUnits="userSpaceOnUse"
       id="clipPath2207">
      <path
         d="M 0,276 H 276 V 0 H 0 Z"
         transform="translate(-166.27223,-67.005399)"
         id="path2207" />
    </clipPath>
    <clipPath
       clipPathUnits="userSpaceOnUse"
       id="clipPath2205">
      <path
         d="M 0,276 H 276 V 0 H 0 Z"
         transform="translate(-145.0068,-104.9004)"
         id="path2205" />
    </clipPath>
  </defs>
  <g
     inkscape:label="Layer 1"
     inkscape:groupmode="layer"
     id="layer1"
     transform="translate(-76.200025,-111.91875)">
    <path
       id="path2204"
       d="M 0,0 C -0.117,0.953 -0.486,1.372 -1.093,1.944 -1.222,2.065 -1.267,2.322 -1.384,2.407 -1.824,2.73 -3.188,2.869 -3.739,2.755 -4.604,2.575 -5.75,1.395 -5.871,0.51 c -0.216,-1.578 -0.051,-2.863 1.509,-3.521 1.259,-0.531 2.109,-0.503 3.254,0.276 C -0.243,-2.147 0.125,-1.021 0,0"
       style="fill:#ff342d;fill-opacity:1;fill-rule:nonzero;stroke:none"
       transform="matrix(0.35277776,0,0,-0.35277776,111.09899,160.28385)"
       clip-path="url(#clipPath2205)" />
    <path
       id="path2206"
       d="m 0,0 c -0.074,-0.175 -0.681,-1.116 -0.798,-1.221 -1.193,-1.082 -2.527,0.968 -3.083,0.642 -0.082,-0.049 -0.783,-1.396 -0.962,-1.651 -4.838,-6.884 -8.905,-7.359 -15.515,-11.258 -1.097,-0.647 -2.03,-1.773 -2.923,-2.297 -0.6,-0.352 -1.366,-0.582 -2.002,-0.164 -0.164,0.107 -0.22,0.383 -0.361,0.48 -5.503,3.805 -11.886,5.674 -16.41,10.869 -1.086,1.246 -1.894,2.701 -2.858,4.034 -1.641,-1.367 -2.876,-1.475 -3.659,0.731 -0.589,1.66 -0.679,7.519 -0.26,9.252 0.26,1.073 1.345,3.129 2.694,2.786 0.538,-0.136 3.867,-2.997 4.509,-3.583 0.764,-0.697 2.968,-2.724 3.441,-3.461 1.208,-1.881 -2.432,-2.881 -2.43,-3.107 0.708,-0.65 1.271,-1.602 1.934,-2.272 1.352,-1.363 4.505,-3.915 6.225,-4.721 1.293,-0.606 2.769,-0.921 4.188,-1.013 0.058,0.014 0.522,0.847 0.568,0.986 0.187,0.564 0.555,2.599 0.555,3.148 v 22.812 h -9.347 c -0.08,0 -1.173,0.308 -1.311,0.373 -1.823,0.861 -2.072,3.782 -0.45,4.923 0.111,0.078 1.025,0.596 1.087,0.596 h 10.021 c -0.096,0.552 0.176,1.754 -0.085,2.188 -0.235,0.389 -1.756,0.911 -2.217,1.237 -5.582,3.952 -4.535,12.946 1.874,15.269 9.884,3.581 17.636,-10.177 6.636,-16.238 -0.185,-0.102 -0.482,-0.074 -0.482,-0.099 v -2.357 h 9.516 c 0.071,0 1.18,-0.445 1.323,-0.529 1.848,-1.089 1.688,-4.011 -0.166,-5.005 -0.127,-0.069 -0.923,-0.358 -0.989,-0.358 h -9.684 V -2.157 c 0,-0.463 0.353,-2.183 0.517,-2.682 0.052,-0.159 0.31,-0.819 0.372,-0.887 0.238,-0.262 1.795,-0.098 2.188,-0.012 2.658,0.578 5.676,3 7.622,4.84 0.981,0.927 1.825,1.989 2.771,2.95 -0.977,0.768 -3.45,1.515 -2.43,3.107 0.468,0.73 2.682,2.77 3.442,3.461 0.932,0.849 2.002,1.575 2.983,2.323 0.452,0.344 0.754,1.001 1.561,1.217 C -0.702,12.614 0.353,9.798 0.471,8.447 0.618,6.756 0.599,1.425 0,0 M 63.607,61.943 C 61.444,67.349 47.265,71.841 41.773,72.278 30.25,73.194 12.99,69.032 3.825,61.76 2.607,60.793 -1.801,55.805 -2.471,55.727 c -1.362,-0.16 -3.471,2.074 -4.87,2.714 -14.752,6.755 -27.68,2.715 -39.403,-7.683 -3.986,-3.534 -8.584,-10.585 -12.539,-13.166 -0.77,-0.502 -1.309,-0.639 -1.496,0.313 3.596,11.834 6.206,24.095 7.169,36.449 0.827,10.597 0.213,21.443 2.802,31.86 1.865,7.503 8.216,13.31 10.962,20.423 7.536,-7.022 16.944,-9.807 27.216,-8.984 5.038,0.403 11.306,2.778 15.453,5.163 12.867,7.401 14.817,17.42 9.2,30.878 -9.483,22.723 -42.788,26.193 -62.439,15.475 -15.894,-8.668 -18.57,-18.662 -26.396,-33.374 -20.359,-38.268 -39.66,-69.465 -43.177,-114.609 -0.52,-6.679 -0.135,-18.455 2.287,-24.657 2.06,-5.277 11.81,-9.253 16.894,-11.2 33.509,-12.833 72.383,-17.239 107.711,-10.907 3.324,0.596 10.082,3.025 12.74,2.87 0.848,-0.05 9.525,-4.903 11.657,-5.723 6.717,-2.581 14.568,-4.319 21.785,-4.516 4.868,-0.132 9.098,-0.484 10.522,5.07 -0.374,29.921 0,59.695 0,89.82"
       style="fill:#ff342d;fill-opacity:1;fill-rule:nonzero;stroke:none"
       transform="matrix(0.35277776,0,0,-0.35277776,118.60096,173.65237)"
       clip-path="url(#clipPath2207)" />
  </g>
</svg>
