<?xml version="1.0" encoding="UTF-8" standalone="no"?>
<!-- Created with Inkscape (http://www.inkscape.org/) -->

<svg
   width="67.490639mm"
   height="64.911819mm"
   viewBox="0 0 67.490639 64.911819"
   version="1.1"
   id="svg1"
   inkscape:version="1.4.2 (ebf0e940, 2025-05-08)"
   sodipodi:docname="theatre.svg"
   xmlns:inkscape="http://www.inkscape.org/namespaces/inkscape"
   xmlns:sodipodi="http://sodipodi.sourceforge.net/DTD/sodipodi-0.dtd"
   xmlns="http://www.w3.org/2000/svg"
   xmlns:svg="http://www.w3.org/2000/svg">
  <sodipodi:namedview
     id="namedview1"
     pagecolor="#ffffff"
     bordercolor="#000000"
     borderopacity="0.25"
     inkscape:showpageshadow="2"
     inkscape:pageopacity="0.0"
     inkscape:pagecheckerboard="0"
     inkscape:deskcolor="#d1d1d1"
     inkscape:document-units="mm"
     inkscape:zoom="0.023162177"
     inkscape:cx="107.93459"
     inkscape:cy="129.5215"
     inkscape:window-width="896"
     inkscape:window-height="245"
     inkscape:window-x="0"
     inkscape:window-y="39"
     inkscape:window-maximized="0"
     inkscape:current-layer="layer1" />
  <defs
     id="defs1">
    <clipPath
       clipPathUnits="userSpaceOnUse"
       id="clipPath1695">
      <path
         d="M 0,276 H 276 V 0 H 0 Z"
         transform="translate(-233.65583,-45.999001)"
         id="path1695" />
    </clipPath>
    <clipPath
       clipPathUnits="userSpaceOnUse"
       id="clipPath1693">
      <path
         d="M 0,276 H 276 V 0 H 0 Z"
         transform="translate(-164.9916,-45.999001)"
         id="path1693" />
    </clipPath>
    <clipPath
       clipPathUnits="userSpaceOnUse"
       id="clipPath1691">
      <path
         d="M 0,276 H 276 V 0 H 0 Z"
         transform="translate(-96.323777,-45.999001)"
         id="path1691" />
    </clipPath>
    <clipPath
       clipPathUnits="userSpaceOnUse"
       id="clipPath1689">
      <path
         d="M 0,276 H 276 V 0 H 0 Z"
         id="path1689" />
    </clipPath>
    <clipPath
       clipPathUnits="userSpaceOnUse"
       id="clipPath1687">
      <path
         d="M 0,276 H 276 V 0 H 0 Z"
         id="path1687" />
    </clipPath>
    <clipPath
       clipPathUnits="userSpaceOnUse"
       id="clipPath1685">
      <path
         d="M 0,276 H 276 V 0 H 0 Z"
         transform="translate(-215.08801,-120.6213)"
         id="path1685" />
    </clipPath>
  </defs>
  <g
     inkscape:label="Layer 1"
     inkscape:groupmode="layer"
     id="layer1"
     transform="translate(-74.877028,-116.15208)">
    <path
       id="path1684"
       d="m 0,0 h -21.315 c -0.379,1.81 0.587,7.294 -0.115,8.411 -0.107,0.17 -2.814,1.112 -3.656,1.672 -9.395,6.248 -17.24,14.827 -21.439,25.442 -2.447,6.186 -4.349,14.144 -3.21,20.578 -2.535,-0.934 -3.992,-2.183 -6.859,-2.742 -7.581,-1.479 -16.626,1.795 -19.784,9.149 -5.98,-9.51 -19.116,-11.911 -28.064,-4.979 V 45.812 c 0,-10.052 -11.493,-26.461 -19.175,-32.68 -1.755,-1.421 -8.845,-4.983 -9.128,-5.432 -0.666,-1.053 0.756,-7.7 -1.182,-7.7 h -20.249 V 74.577 H 0 Z"
       style="fill:#ff342d;fill-opacity:1;fill-rule:nonzero;stroke:none"
       transform="matrix(0.35277776,0,0,-0.35277776,135.81735,154.73881)"
       clip-path="url(#clipPath1685)" />
    <path
       id="path1686"
       d="M 221.482,205.108 H 54.517 v 24.893 h 166.965 z"
       style="fill:#ff342d;fill-opacity:1;fill-rule:nonzero;stroke:none"
       transform="matrix(0.35277776,0,0,-0.35277776,59.939084,197.29132)"
       clip-path="url(#clipPath1687)" />
    <path
       id="path1688"
       d="M 221.859,92.921 H 54.141 v 16.336 h 167.718 z"
       style="fill:#ff342d;fill-opacity:1;fill-rule:nonzero;stroke:none"
       transform="matrix(0.35277776,0,0,-0.35277776,59.939084,197.29132)"
       clip-path="url(#clipPath1689)" />
    <path
       id="path1690"
       d="m 0,0 v 21.232 c 0,8.089 -6.557,14.646 -14.646,14.646 h -24.688 c -8.088,0 -14.646,-6.557 -14.646,-14.646 L -53.98,0"
       style="fill:#ff342d;fill-opacity:1;fill-rule:nonzero;stroke:none"
       transform="matrix(0.35277776,0,0,-0.35277776,93.919971,181.0639)"
       clip-path="url(#clipPath1691)" />
    <path
       id="path1692"
       d="m 0,0 v 21.232 c 0,8.089 -6.557,14.646 -14.646,14.646 h -24.688 c -8.088,0 -14.646,-6.557 -14.646,-14.646 L -53.98,0"
       style="fill:#ff342d;fill-opacity:1;fill-rule:nonzero;stroke:none"
       transform="matrix(0.35277776,0,0,-0.35277776,118.14445,181.0639)"
       clip-path="url(#clipPath1693)" />
    <path
       id="path1694"
       d="m 0,0 v 21.232 c 0,8.089 -6.557,14.646 -14.646,14.646 h -24.688 c -8.088,0 -14.646,-6.557 -14.646,-14.646 L -53.98,0"
       style="fill:#ff342d;fill-opacity:1;fill-rule:nonzero;stroke:none"
       transform="matrix(0.35277776,0,0,-0.35277776,142.36767,181.0639)"
       clip-path="url(#clipPath1695)" />
  </g>
</svg>
