<?xml version="1.0" encoding="UTF-8" standalone="no"?>
<!-- Created with Inkscape (http://www.inkscape.org/) -->

<svg
   width="93.459724mm"
   height="74.128288mm"
   viewBox="0 0 93.459725 74.128288"
   version="1.1"
   id="svg1"
   inkscape:version="1.4.2 (ebf0e940, 2025-05-08)"
   sodipodi:docname="wintasting.svg"
   xmlns:inkscape="http://www.inkscape.org/namespaces/inkscape"
   xmlns:sodipodi="http://sodipodi.sourceforge.net/DTD/sodipodi-0.dtd"
   xmlns="http://www.w3.org/2000/svg"
   xmlns:svg="http://www.w3.org/2000/svg">
  <sodipodi:namedview
     id="namedview1"
     pagecolor="#ffffff"
     bordercolor="#000000"
     borderopacity="0.25"
     inkscape:showpageshadow="2"
     inkscape:pageopacity="0.0"
     inkscape:pagecheckerboard="0"
     inkscape:deskcolor="#d1d1d1"
     inkscape:document-units="mm"
     inkscape:zoom="0.84604973"
     inkscape:cx="140.06269"
     inkscape:cy="235.21076"
     inkscape:window-width="1712"
     inkscape:window-height="971"
     inkscape:window-x="0"
     inkscape:window-y="39"
     inkscape:window-maximized="1"
     inkscape:current-layer="layer1" />
  <defs
     id="defs1">
    <clipPath
       clipPathUnits="userSpaceOnUse"
       id="clipPath1036">
      <path
         d="M 0,276 H 276 V 0 H 0 Z"
         transform="translate(-112.83038,-187.44291)"
         id="path1036" />
    </clipPath>
    <clipPath
       clipPathUnits="userSpaceOnUse"
       id="clipPath1034">
      <path
         d="M 0,276 H 276 V 0 H 0 Z"
         transform="translate(-186.84803,-44.822004)"
         id="path1034" />
    </clipPath>
    <clipPath
       clipPathUnits="userSpaceOnUse"
       id="clipPath1034-3">
      <path
         d="M 0,276 H 276 V 0 H 0 Z"
         transform="translate(-186.84803,-44.822004)"
         id="path1034-9" />
    </clipPath>
    <clipPath
       clipPathUnits="userSpaceOnUse"
       id="clipPath1034-36">
      <path
         d="M 0,276 H 276 V 0 H 0 Z"
         transform="translate(-186.84803,-44.822004)"
         id="path1034-5" />
    </clipPath>
  </defs>
  <g
     inkscape:label="Layer 1"
     inkscape:groupmode="layer"
     id="layer1"
     transform="translate(-60.676981,-111.91875)">
    <path
       id="path1033"
       d="m 0,0 h 9.816 c 3.505,0 9.579,-10.828 6.862,-10.828 h -45.11 c -2.68,0 3.96,10.828 6.431,10.828 h 10.493 v 41.619 c -8.72,3.894 -18.781,11.788 -20.134,21.831 -0.996,7.396 1.39,30.096 3.369,37.563 0.168,0.631 0.367,1.237 0.752,1.742 0.229,0.301 0.603,0.455 0.98,0.455 l 40.484,0.017 c 0.609,0 1.412,-0.192 1.54,-0.934 0.275,-1.601 3.668,-19.674 4.142,-29.551 C 20.385,56.918 14.048,48.138 0,41.619 Z"
       style="fill:#ff342d;fill-opacity:1;fill-rule:nonzero;stroke:none"
       transform="matrix(0.35277776,0,0,-0.35277776,125.81171,181.47944)"
       clip-path="url(#clipPath1034)" />
    <path
       id="path1035"
       d="m 0,0 -0.15,31.733 c 2.659,4.823 2.813,14.093 2.1,19.618 -0.14,1.087 -0.262,2.134 -1.382,2.679 -0.767,0.374 -6.157,0.513 -11.461,0.529 -5.304,-0.016 -10.694,-0.155 -11.461,-0.529 -1.119,-0.545 -1.242,-1.592 -1.382,-2.679 -0.712,-5.525 -0.559,-14.795 2.101,-19.618 L -21.786,0 c -12.065,-7.516 -21.578,-16.271 -21.578,-31.214 0,-44.721 0.012,-69.834 0.012,-111.704 0.766,-4.623 4.616,-8.835 9.317,-9.636 3.363,-0.572 13.239,-0.869 23.142,-0.891 9.903,0.022 19.779,0.319 23.142,0.891 4.701,0.801 8.551,5.013 9.317,9.636 0,41.87 0.013,66.983 0.013,111.704 C 21.579,-16.271 12.065,-7.516 0,0"
       style="fill:#ff342d;fill-opacity:1;fill-rule:nonzero;stroke:none"
       transform="matrix(0.35277776,0,0,-0.35277776,99.699933,131.16595)"
       clip-path="url(#clipPath1036)" />
    <path
       id="path1033-1"
       d="m 0,0 h 9.816 c 3.505,0 9.579,-10.828 6.862,-10.828 h -45.11 c -2.68,0 3.96,10.828 6.431,10.828 h 10.493 v 41.619 c -8.72,3.894 -18.781,11.788 -20.134,21.831 -0.996,7.396 1.39,30.096 3.369,37.563 0.168,0.631 0.367,1.237 0.752,1.742 0.229,0.301 0.603,0.455 0.98,0.455 l 40.484,0.017 c 0.609,0 1.412,-0.192 1.54,-0.934 0.275,-1.601 3.668,-19.674 4.142,-29.551 C 20.385,56.918 14.048,48.138 0,41.619 Z"
       style="fill:#ff342d;fill-opacity:1;fill-rule:nonzero;stroke:none"
       transform="matrix(0.35277776,0,0,-0.35277776,147.19194,181.47943)"
       clip-path="url(#clipPath1034-3)" />
    <path
       id="path1033-14"
       d="m 0,0 h 9.816 c 3.505,0 9.579,-10.828 6.862,-10.828 h -45.11 c -2.68,0 3.96,10.828 6.431,10.828 h 10.493 v 41.619 c -8.72,3.894 -18.781,11.788 -20.134,21.831 -0.996,7.396 1.39,30.096 3.369,37.563 0.168,0.631 0.367,1.237 0.752,1.742 0.229,0.301 0.603,0.455 0.98,0.455 l 40.484,0.017 c 0.609,0 1.412,-0.192 1.54,-0.934 0.275,-1.601 3.668,-19.674 4.142,-29.551 C 20.385,56.918 14.048,48.138 0,41.619 Z"
       style="fill:#ff342d;fill-opacity:1;fill-rule:nonzero;stroke:none"
       transform="matrix(0.35277776,0,0,-0.35277776,71.922087,182.22716)"
       clip-path="url(#clipPath1034-36)" />
  </g>
</svg>
