<?xml version="1.0" encoding="UTF-8" standalone="no"?>
<!-- Created with Inkscape (http://www.inkscape.org/) -->

<svg
   width="64.913223mm"
   height="53.415073mm"
   viewBox="0 0 64.913223 53.415073"
   version="1.1"
   id="svg1"
   inkscape:version="1.4.2 (ebf0e940, 2025-05-08)"
   sodipodi:docname="yoga.svg"
   xmlns:inkscape="http://www.inkscape.org/namespaces/inkscape"
   xmlns:sodipodi="http://sodipodi.sourceforge.net/DTD/sodipodi-0.dtd"
   xmlns="http://www.w3.org/2000/svg"
   xmlns:svg="http://www.w3.org/2000/svg">
  <sodipodi:namedview
     id="namedview1"
     pagecolor="#ffffff"
     bordercolor="#000000"
     borderopacity="0.25"
     inkscape:showpageshadow="2"
     inkscape:pageopacity="0.0"
     inkscape:pagecheckerboard="0"
     inkscape:deskcolor="#d1d1d1"
     inkscape:document-units="mm"
     inkscape:zoom="0.1816667"
     inkscape:cx="222.93574"
     inkscape:cy="66.055033"
     inkscape:window-width="896"
     inkscape:window-height="245"
     inkscape:window-x="0"
     inkscape:window-y="39"
     inkscape:window-maximized="0"
     inkscape:current-layer="layer1" />
  <defs
     id="defs1">
    <clipPath
       clipPathUnits="userSpaceOnUse"
       id="clipPath127">
      <path
         d="M 0,276 H 276 V 0 H 0 Z"
         transform="translate(-104.9698,-73.898402)"
         id="path127" />
    </clipPath>
    <clipPath
       clipPathUnits="userSpaceOnUse"
       id="clipPath125">
      <path
         d="M 0,276 H 276 V 0 H 0 Z"
         transform="translate(-167.1966,-197.10321)"
         id="path125" />
    </clipPath>
  </defs>
  <g
     inkscape:label="Layer 1"
     inkscape:groupmode="layer"
     id="layer1"
     transform="translate(-75.935417,-121.70833)">
    <path
       id="path124"
       d="m 0,0 c 0,-9.17 -7.436,-16.603 -16.609,-16.603 -9.173,0 -16.609,7.433 -16.609,16.603 0,9.17 7.436,16.603 16.609,16.603 C -7.436,16.603 0,9.17 0,0"
       style="fill:#ff342d;fill-opacity:1;fill-rule:nonzero;stroke:none"
       transform="matrix(0.35277776,0,0,-0.35277776,118.69201,127.5655)"
       clip-path="url(#clipPath125)" />
    <path
       id="path126"
       d="m 0,0 c 13.99,14.293 27.907,29.035 43.226,41.737 8.44,-3.648 19.178,-5.351 27.316,-9.315 1.111,-0.542 1.947,-0.854 2.756,-1.895 C 76.668,21.011 76.071,10.047 77.739,0 Z M 119.231,0 H 93.635 v 35.745 c 0,0.241 -0.711,3.916 -0.852,4.38 C 89.764,50.06 67.711,55.899 59.58,61.608 l 4.53,22.253 c 0.407,1.044 1.504,1.383 2.527,1.542 13.663,1.306 27.618,1.368 41.237,2.951 2.795,0.325 6.474,0.644 8.732,2.314 4.037,2.986 3.772,10.011 -1.441,11.356 l -141.559,0.237 c -6.837,-1.046 -6.744,-11.506 0.212,-13.083 L 27.933,84.861 V 63.645 L -19.107,0 H -53.17 c -3.205,0 -5.803,-2.598 -5.803,-5.803 0,-3.204 2.598,-5.802 5.803,-5.802 h 172.401 c 3.204,0 5.802,2.598 5.802,5.802 0,3.205 -2.598,5.803 -5.802,5.803"
       style="fill:#ff342d;fill-opacity:1;fill-rule:nonzero;stroke:none"
       transform="matrix(0.35277776,0,0,-0.35277776,96.73978,171.02942)"
       clip-path="url(#clipPath127)" />
  </g>
</svg>
