<?xml version="1.0" encoding="UTF-8" standalone="no"?>
<!-- Created with Inkscape (http://www.inkscape.org/) -->

<svg
   width="104.51041mm"
   height="170.52396mm"
   viewBox="0 0 104.51041 170.52396"
   version="1.1"
   id="svg1"
   inkscape:version="1.4.2 (ebf0e940, 2025-05-08)"
   sodipodi:docname="armoire.svg"
   xmlns:inkscape="http://www.inkscape.org/namespaces/inkscape"
   xmlns:sodipodi="http://sodipodi.sourceforge.net/DTD/sodipodi-0.dtd"
   xmlns="http://www.w3.org/2000/svg"
   xmlns:svg="http://www.w3.org/2000/svg">
  <sodipodi:namedview
     id="namedview1"
     pagecolor="#ffffff"
     bordercolor="#000000"
     borderopacity="0.25"
     inkscape:showpageshadow="2"
     inkscape:pageopacity="0.0"
     inkscape:pagecheckerboard="0"
     inkscape:deskcolor="#d1d1d1"
     inkscape:document-units="mm"
     inkscape:zoom="0.79565"
     inkscape:cx="219.31754"
     inkscape:cy="189.78194"
     inkscape:window-width="1712"
     inkscape:window-height="971"
     inkscape:window-x="0"
     inkscape:window-y="39"
     inkscape:window-maximized="1"
     inkscape:current-layer="Cupboard-2" />
  <defs
     id="defs1">
    <clipPath
       clipPathUnits="userSpaceOnUse"
       id="clipPath4096">
      <path
         d="M 0,276 H 276 V 0 H 0 Z"
         transform="translate(-99.151502,-150.91461)"
         id="path4096" />
    </clipPath>
    <clipPath
       clipPathUnits="userSpaceOnUse"
       id="clipPath4094">
      <path
         d="M 0,276 H 276 V 0 H 0 Z"
         transform="translate(-187.6275,-228.62431)"
         id="path4094" />
    </clipPath>
  </defs>
  <g
     inkscape:label="Layer 1"
     inkscape:groupmode="layer"
     id="layer1"
     transform="translate(-58.973183,-49.52021)">
    <g
       data-name="Cupboard"
       id="Cupboard-2"
       transform="matrix(3.3072916,0,0,3.3072916,5.3950591,28.948856)">
      <path
         class="cls-6"
         d="m 47.76,9.22 a 3,3 0 0 0 -3,-3 H 19.2 a 3,3 0 0 0 -3,3 V 54.9 a 2.9,2.9 0 0 0 2.89,2.88 c 1.64,0 2.27,-1.37 2.74,-2.36 l 1.91,-4.11 h 16.52 l 1.91,4.11 c 0.47,1 1.1,2.36 2.75,2.36 A 2.89,2.89 0 0 0 47.8,54.9 Z M 33,49.31 v -7 h 12.76 v 7 z m -14.78,0 v -7 H 31 v 7 z M 45.76,9.22 V 40.35 H 33 V 8.22 h 11.76 a 1,1 0 0 1 1,1 z M 19.2,8.22 H 31 V 40.35 H 18.2 V 9.22 a 1,1 0 0 1 1,-1 z M 20,54.57 c -0.42,0.91 -0.61,1.21 -0.92,1.21 A 0.89,0.89 0 0 1 18.19,54.9 v -3.59 h 3.34 z m 24.91,1.21 c -0.32,0 -0.51,-0.3 -0.93,-1.21 l -1.53,-3.26 h 3.35 v 3.59 a 0.89,0.89 0 0 1 -0.88,0.88 z"
         id="path1"
         style="display:inline;fill:#2eb81b;fill-opacity:1" />
      <path
         class="cls-6"
         d="m 28.227298,29.43 c 0.562221,-0.0029 1.016873,-0.635149 1.016869,-1.414019 v -2.37619 c 0.08868,-2.000902 -2.126259,-2.000902 -2.037575,0 v 2.37619 c 0,0.780941 0.456986,1.414019 1.020706,1.414019 z"
         id="path2"
         style="fill:#2eb81b;fill-opacity:1;stroke-width:0.451644"
         sodipodi:nodetypes="ccccsc" />
      <path
         class="cls-6"
         d="m 35.517371,29.475403 c 0.562221,-0.0029 1.016873,-0.635149 1.016869,-1.414019 v -2.37619 c 0.08868,-2.000902 -2.126259,-2.000902 -2.037575,0 v 2.37619 c 0,0.780941 0.456986,1.414019 1.020706,1.414019 z"
         id="path2-6"
         style="fill:#2eb81b;fill-opacity:1;stroke-width:0.451644"
         sodipodi:nodetypes="ccccsc" />
      <path
         class="cls-6"
         d="m 25.42,44.83 h -1.65 a 1,1 0 1 0 0,2 h 1.65 a 1,1 0 0 0 0,-2 z"
         id="path4"
         style="fill:#2eb81b;fill-opacity:1" />
      <path
         class="cls-6"
         d="m 40.2,44.83 h -1.65 a 1,1 0 0 0 0,2 h 1.65 a 1,1 0 0 0 0,-2 z"
         id="path5"
         style="fill:#2eb81b;fill-opacity:1" />
    </g>
  </g>
</svg>
