<?xml version="1.0" encoding="UTF-8" standalone="no"?>
<!-- Created with Inkscape (http://www.inkscape.org/) -->

<svg
   width="64.913094mm"
   height="55.666359mm"
   viewBox="0 0 64.913094 55.666359"
   version="1.1"
   id="svg1"
   inkscape:version="1.4.2 (ebf0e940, 2025-05-08)"
   sodipodi:docname="bath.svg"
   xmlns:inkscape="http://www.inkscape.org/namespaces/inkscape"
   xmlns:sodipodi="http://sodipodi.sourceforge.net/DTD/sodipodi-0.dtd"
   xmlns="http://www.w3.org/2000/svg"
   xmlns:svg="http://www.w3.org/2000/svg">
  <sodipodi:namedview
     id="namedview1"
     pagecolor="#ffffff"
     bordercolor="#000000"
     borderopacity="0.25"
     inkscape:showpageshadow="2"
     inkscape:pageopacity="0.0"
     inkscape:pagecheckerboard="0"
     inkscape:deskcolor="#d1d1d1"
     inkscape:document-units="mm"
     inkscape:zoom="0.023162177"
     inkscape:cx="107.93459"
     inkscape:cy="86.347668"
     inkscape:window-width="896"
     inkscape:window-height="245"
     inkscape:window-x="0"
     inkscape:window-y="39"
     inkscape:window-maximized="0"
     inkscape:current-layer="layer1" />
  <defs
     id="defs1">
    <clipPath
       clipPathUnits="userSpaceOnUse"
       id="clipPath3586">
      <path
         d="M 0,276 H 276 V 0 H 0 Z"
         transform="translate(-175.377,-209.46741)"
         id="path3586" />
    </clipPath>
    <clipPath
       clipPathUnits="userSpaceOnUse"
       id="clipPath3584">
      <path
         d="M 0,276 H 276 V 0 H 0 Z"
         transform="translate(-200.86051,-188.9013)"
         id="path3584" />
    </clipPath>
    <clipPath
       clipPathUnits="userSpaceOnUse"
       id="clipPath3582">
      <path
         d="M 0,276 H 276 V 0 H 0 Z"
         transform="translate(-171.9345,-173.9928)"
         id="path3582" />
    </clipPath>
    <clipPath
       clipPathUnits="userSpaceOnUse"
       id="clipPath3580">
      <path
         d="M 0,276 H 276 V 0 H 0 Z"
         transform="translate(-70.946252,-151.6891)"
         id="path3580" />
    </clipPath>
  </defs>
  <g
     inkscape:label="Layer 1"
     inkscape:groupmode="layer"
     id="layer1"
     transform="translate(-75.935517,-120.65)">
    <path
       id="path3579"
       d="m 0,0 h 154.223 c 6.953,0 4.829,-7.8 3.215,-10.233 -2.964,-4.471 -8.054,-1.763 -9.17,-3.254 -3.386,-11.762 -4.96,-24.36 -8.184,-36.1 -2.692,-9.807 -7.469,-18.417 -17.424,-22.283 0.398,-5.42 8.286,-15.825 1.538,-19.617 -10.109,-5.68 -11.672,12.243 -14.897,17.53 l -84.122,0.01 c -0.825,-0.226 -4.717,-13.562 -6.351,-15.886 -1.974,-2.809 -6.022,-3.288 -8.838,-1.432 -6.3,4.152 1.37,13.477 1.855,18.853 -11.082,4.573 -15.557,13.442 -18.499,24.449 -3.054,11.423 -4.871,23.247 -7.868,34.691 -4.018,0.426 -9.154,-0.093 -10.201,5.024 C -26.385,-0.123 -18.544,0 -12.424,0 v 28.891 c 0,4.817 1.832,7.782 3.649,9.518 C 2.278,48.97 22.734,44.633 24.708,28.214 25.327,23.066 23.795,17.718 17.615,18.399 9.404,19.303 17.021,29.823 6.516,31.205 4.104,31.522 0,30.129 0,23.003 Z"
       style="fill:#2eb81b;fill-opacity:1;fill-rule:nonzero;stroke:none"
       transform="matrix(0.35277776,0,0,-0.35277776,84.737025,143.65404)"
       clip-path="url(#clipPath3580)" />
    <path
       id="path3581"
       d="m 0,0 c 0,6.305 -5.112,11.417 -11.417,11.417 -6.305,0 -11.417,-5.112 -11.417,-11.417 0,-6.305 5.112,-11.417 11.417,-11.417 C -5.112,-11.417 0,-6.305 0,0"
       style="fill:#2eb81b;fill-opacity:1;fill-rule:nonzero;stroke:none"
       transform="matrix(0.35277776,0,0,-0.35277776,120.36344,135.78579)"
       clip-path="url(#clipPath3582)" />
    <path
       id="path3583"
       d="m 0,0 c 0,5.207 -4.221,9.429 -9.429,9.429 -5.207,0 -9.429,-4.222 -9.429,-9.429 0,-5.207 4.222,-9.429 9.429,-9.429 C -4.221,-9.429 0,-5.207 0,0"
       style="fill:#2eb81b;fill-opacity:1;fill-rule:nonzero;stroke:none"
       transform="matrix(0.35277776,0,0,-0.35277776,130.56789,130.5264)"
       clip-path="url(#clipPath3584)" />
    <path
       id="path3585"
       d="m 0,0 c 0,4.103 -3.326,7.43 -7.43,7.43 -4.103,0 -7.43,-3.327 -7.43,-7.43 0,-4.103 3.327,-7.43 7.43,-7.43 C -3.326,-7.43 0,-4.103 0,0"
       style="fill:#2eb81b;fill-opacity:1;fill-rule:nonzero;stroke:none"
       transform="matrix(0.35277776,0,0,-0.35277776,121.57787,123.27114)"
       clip-path="url(#clipPath3586)" />
  </g>
</svg>
