<?xml version="1.0" encoding="UTF-8" standalone="no"?>
<!-- Created with Inkscape (http://www.inkscape.org/) -->

<svg
   width="62.727459mm"
   height="64.907578mm"
   viewBox="0 0 62.727459 64.907578"
   version="1.1"
   id="svg1"
   inkscape:version="1.4.2 (ebf0e940, 2025-05-08)"
   sodipodi:docname="bookshelf.svg"
   xmlns:inkscape="http://www.inkscape.org/namespaces/inkscape"
   xmlns:sodipodi="http://sodipodi.sourceforge.net/DTD/sodipodi-0.dtd"
   xmlns="http://www.w3.org/2000/svg"
   xmlns:svg="http://www.w3.org/2000/svg">
  <sodipodi:namedview
     id="namedview1"
     pagecolor="#ffffff"
     bordercolor="#000000"
     borderopacity="0.25"
     inkscape:showpageshadow="2"
     inkscape:pageopacity="0.0"
     inkscape:pagecheckerboard="0"
     inkscape:deskcolor="#d1d1d1"
     inkscape:document-units="mm"
     inkscape:zoom="0.023162177"
     inkscape:cx="107.93459"
     inkscape:cy="129.5215"
     inkscape:window-width="896"
     inkscape:window-height="245"
     inkscape:window-x="0"
     inkscape:window-y="39"
     inkscape:window-maximized="0"
     inkscape:current-layer="layer1" />
  <defs
     id="defs1">
    <clipPath
       clipPathUnits="userSpaceOnUse"
       id="clipPath768">
      <path
         d="M 0,276 H 276 V 0 H 0 Z"
         transform="translate(-207.03188,-146.8081)"
         id="path768" />
    </clipPath>
  </defs>
  <g
     inkscape:label="Layer 1"
     inkscape:groupmode="layer"
     id="layer1"
     transform="translate(-77.258329,-116.15209)">
    <path
       id="path767"
       d="m 0,0 h -67.675 l -0.132,40.243 5.067,-10.164 v 0 l 6.006,-12.044 8.372,-16.79 h 0.001 l 0.125,-0.25 c 1.137,-2.28 7.272,-0.066 9.289,0.94 1.818,0.907 7.152,3.499 8.28,6 l 3.336,-6.69 h 0.001 l 0.124,-0.25 c 1.138,-2.28 7.272,-0.066 9.29,0.94 2.231,1.112 9.757,4.763 8.308,7.669 l -0.191,0.383 -14.379,28.835 -5.905,11.843 c -1.45,2.906 -8.894,-0.909 -11.125,-2.021 -1.594,-0.795 -5.324,-3.188 -6.264,-5.282 l -3.642,7.303 c -1.449,2.906 -8.894,-0.909 -11.124,-2.021 -1.327,-0.662 -4.135,-2.432 -5.583,-4.215 l -0.003,0.876 c 0,2.549 -6.478,3.305 -8.733,3.305 -2.493,0 -10.857,0.092 -10.857,-3.156 V 0 h -8.459 v 35.941 h -10.574 c -0.399,3.546 1.563,10.259 -2.844,11.573 -3.148,0.939 -14.885,1.366 -16.374,-1.876 L -125.481,0 h -11.984 V 62.015 H 0 Z m 0,-80.338 h -11.76 v 27.807 c 0,5.601 0.178,16.921 -5.34,17.633 -6.388,0.824 -14.061,1.602 -15.513,-5.995 -0.538,-0.011 -0.305,2.887 -1.247,3.874 -2.19,2.296 -12.733,2.548 -16.746,0.866 -1.379,1.863 -4.394,3.767 -5.781,4.459 -2.231,1.112 -9.676,4.926 -11.125,2.02 l -5.905,-11.843 -14.379,-28.834 -0.191,-0.383 c -1.449,-2.906 6.077,-6.557 8.308,-7.669 2.018,-1.006 8.152,-3.22 9.29,-0.94 l 0.124,0.25 h 0.001 l 8.372,16.79 6.007,12.044 h -0.001 l 3.72,7.461 v -37.54 h -85.299 v 59.196 H 0 Z M 19.198,70.656 c 0,9.199 -6.34,12.526 -13.181,12.526 l -149.505,0.005 c -7.937,-0.072 -13.738,-5.092 -14.449,-13.039 l 0.003,-156.501 c 0,-8.097 5.15,-14.45 13.743,-14.45 H 6.725 c 5.215,0 12.474,2.853 12.474,11.254 0.898,55.393 0.9,104.812 -0.001,160.205"
       style="fill:#2eb81b;fill-opacity:1;fill-rule:nonzero;stroke:none"
       transform="matrix(0.35277776,0,0,-0.35277776,132.97499,145.49861)"
       clip-path="url(#clipPath768)" />
  </g>
</svg>
