<?xml version="1.0" encoding="UTF-8" standalone="no"?>
<!-- Created with Inkscape (http://www.inkscape.org/) -->

<svg
   width="64.791161mm"
   height="63.825409mm"
   viewBox="0 0 64.791161 63.825409"
   version="1.1"
   id="svg1"
   inkscape:version="1.4.2 (ebf0e940, 2025-05-08)"
   sodipodi:docname="bunk bed.svg"
   xmlns:inkscape="http://www.inkscape.org/namespaces/inkscape"
   xmlns:sodipodi="http://sodipodi.sourceforge.net/DTD/sodipodi-0.dtd"
   xmlns="http://www.w3.org/2000/svg"
   xmlns:svg="http://www.w3.org/2000/svg">
  <sodipodi:namedview
     id="namedview1"
     pagecolor="#ffffff"
     bordercolor="#000000"
     borderopacity="0.25"
     inkscape:showpageshadow="2"
     inkscape:pageopacity="0.0"
     inkscape:pagecheckerboard="0"
     inkscape:deskcolor="#d1d1d1"
     inkscape:document-units="mm"
     inkscape:zoom="0.60996473"
     inkscape:cx="112.30158"
     inkscape:cy="177.05942"
     inkscape:window-width="1712"
     inkscape:window-height="971"
     inkscape:window-x="0"
     inkscape:window-y="39"
     inkscape:window-maximized="1"
     inkscape:current-layer="layer1" />
  <defs
     id="defs1">
    <clipPath
       clipPathUnits="userSpaceOnUse"
       id="clipPath1409">
      <path
         d="M 0,276 H 276 V 0 H 0 Z"
         transform="translate(-218.29891,-124.357)"
         id="path1409" />
    </clipPath>
  </defs>
  <g
     inkscape:label="Layer 1"
     inkscape:groupmode="layer"
     id="layer1"
     transform="translate(-60.324937,-113.50625)">
    <path
       id="path1408"
       d="m 0,0 -3.517,6.985 c -11.521,17.312 -37.255,5.988 -44.365,-9.722 l -95.23,-0.162 c -16.755,-1.128 -8.266,-18.427 -10.988,-28.328 -0.766,-2.787 -5.801,-2.232 -5.801,-0.956 v 63.35 H 0 Z m 11.484,98.626 c 0,6.257 -11.484,6.51 -11.484,0 V 77.041 l -3.517,6.986 c -11.521,17.311 -37.255,5.987 -44.365,-9.722 l -95.23,-0.162 c -16.755,-1.129 -8.266,-18.428 -10.988,-28.328 -0.367,-1.335 -1.713,-1.898 -3.016,-1.988 h -0.775 c -1.101,0.082 -2.01,0.49 -2.01,1.031 v 53.768 c 0,7.156 -12.208,7.451 -12.208,0 l -0.02,-169.463 c 0,-7.975 12.228,-7.975 12.228,0 v 22.731 H 0 v -22.731 c 0,-7.471 11.531,-5.981 11.531,0 0,53.088 -0.047,116.374 -0.047,169.463"
       style="fill:#2eb81b;fill-opacity:1;fill-rule:nonzero;stroke:none"
       transform="matrix(0.35277776,0,0,-0.35277776,121.04822,150.23189)"
       clip-path="url(#clipPath1409)" />
  </g>
</svg>
