<?xml version="1.0" encoding="UTF-8" standalone="no"?>
<!-- Created with Inkscape (http://www.inkscape.org/) -->

<svg
   width="116.38745mm"
   height="96.38562mm"
   viewBox="0 0 116.38745 96.38562"
   version="1.1"
   id="svg1"
   xml:space="preserve"
   inkscape:version="1.4.2 (ebf0e940, 2025-05-08)"
   sodipodi:docname="controller+joystick.svg"
   xmlns:inkscape="http://www.inkscape.org/namespaces/inkscape"
   xmlns:sodipodi="http://sodipodi.sourceforge.net/DTD/sodipodi-0.dtd"
   xmlns="http://www.w3.org/2000/svg"
   xmlns:svg="http://www.w3.org/2000/svg"><sodipodi:namedview
     id="namedview1"
     pagecolor="#ffffff"
     bordercolor="#000000"
     borderopacity="0.25"
     inkscape:showpageshadow="2"
     inkscape:pageopacity="0.0"
     inkscape:pagecheckerboard="0"
     inkscape:deskcolor="#d1d1d1"
     inkscape:document-units="mm"
     inkscape:zoom="1.3509961"
     inkscape:cx="122.50221"
     inkscape:cy="145.07814"
     inkscape:window-width="1712"
     inkscape:window-height="971"
     inkscape:window-x="0"
     inkscape:window-y="39"
     inkscape:window-maximized="1"
     inkscape:current-layer="layer1" /><defs
     id="defs1"><inkscape:path-effect
       effect="fillet_chamfer"
       id="path-effect1"
       is_visible="true"
       lpeversion="1"
       nodesatellites_param="F,0,1,1,0,0.91633216,0,1 @ F,0,1,1,0,0.91633216,0,1 @ F,0,1,1,0,0.91633216,0,1 @ F,0,1,1,0,0.91633216,0,1 @ F,0,1,1,0,0.91633216,0,1 @ F,0,1,1,0,0.91633216,0,1 | F,0,1,1,0,0.91633216,0,1 @ F,0,1,1,0,0.91633216,0,1 @ F,0,1,1,0,0.91633216,0,1 @ F,0,1,1,0,0.91633216,0,1 @ F,0,1,1,0,0.91633216,0,1 @ F,0,1,1,0,0.91633216,0,1 | F,0,1,1,0,0.91633216,0,1 @ F,0,1,1,0,0.91633216,0,1 @ F,0,0,1,0,0.91633216,0,1 @ F,0,1,1,0,0.91633216,0,1 | F,0,1,1,0,0.91633216,0,1 @ F,0,1,1,0,0.91633216,0,1 @ F,0,1,1,0,0.91633216,0,1 @ F,0,1,1,0,0.91633216,0,1 | F,0,1,1,0,0.91633216,0,1 @ F,0,1,1,0,0.91633216,0,1 @ F,0,1,1,0,0.91633216,0,1 @ F,0,1,1,0,0.91633216,0,1 | F,0,1,1,0,0.91633216,0,1 @ F,0,1,1,0,0.91633216,0,1 @ F,0,1,1,0,0.91633216,0,1 @ F,0,1,1,0,0.91633216,0,1 | F,0,1,1,0,0.91633216,0,1 @ F,0,1,1,0,0.91633216,0,1 @ F,0,1,1,0,0.91633216,0,1 @ F,0,1,1,0,0.91633216,0,1"
       radius="0"
       unit="px"
       method="auto"
       mode="F"
       chamfer_steps="1"
       flexible="false"
       use_knot_distance="true"
       apply_no_radius="true"
       apply_with_radius="true"
       only_selected="false"
       hide_knots="false" /><clipPath
       clipPathUnits="userSpaceOnUse"
       id="clipPath4350"><path
         d="M 0,276 H 276 V 0 H 0 Z"
         transform="translate(-191.9625,-147.004)"
         id="path4350" /></clipPath></defs><g
     inkscape:label="Layer 1"
     inkscape:groupmode="layer"
     id="layer1"
     transform="translate(-60.212309,-158.68884)"><path
       id="path4349"
       d="m 0,0 c -3.355,0 -6.075,2.72 -6.075,6.075 0,3.355 2.72,6.075 6.075,6.075 3.355,0 6.075,-2.72 6.075,-6.075 C 6.075,2.72 3.355,0 0,0 m -8.462,19.689 c -0.417,-2.949 -2.944,-5.219 -6.008,-5.219 -3.355,0 -6.075,2.72 -6.075,6.075 0,3.355 2.72,6.075 6.075,6.075 3.146,0 5.734,-2.392 6.044,-5.457 0.09,-0.494 0.082,-0.99 -0.036,-1.474 M -14.47,-14.47 c -3.355,0 -6.075,2.72 -6.075,6.075 0,3.355 2.72,6.075 6.075,6.075 3.355,0 6.075,-2.72 6.075,-6.075 0,-3.355 -2.72,-6.075 -6.075,-6.075 M -28.94,0 c -3.355,0 -6.075,2.72 -6.075,6.075 0,3.355 2.72,6.075 6.075,6.075 3.355,0 6.075,-2.72 6.075,-6.075 C -22.865,2.72 -25.585,0 -28.94,0 m -52.415,1.741 h -8.41 v -8.41 c 0,-3.036 -2.461,-5.496 -5.496,-5.496 -3.036,0 -5.496,2.46 -5.496,5.496 v 8.41 h -8.411 c -3.035,0 -5.496,2.461 -5.496,5.496 0,3.036 2.461,5.496 5.496,5.496 h 8.411 v 8.411 c 0,3.035 2.46,5.496 5.496,5.496 3.035,0 5.496,-2.461 5.496,-5.496 v -8.411 h 8.41 c 3.036,0 5.496,-2.46 5.496,-5.496 0,-3.035 -2.46,-5.496 -5.496,-5.496 M 37.103,-40.346 c -7.852,22.683 -12.27,47.665 -20.264,70.15 -3.18,8.944 -11.142,17.533 -20.4,20.162 -9.798,2.784 -18.376,-1.496 -26.699,-6.269 -2.151,-1.233 -4.585,-1.873 -7.065,-1.862 -11.209,0.049 -26.006,-0.327 -37.75,0.852 -2.692,0.27 -11.114,5.853 -14.902,7.071 -12.95,4.164 -26.977,-3.34 -32.77,-15.124 -1.711,-3.479 -2.181,-6.323 -3.266,-9.831 -6.813,-22.038 -12.727,-44.363 -19.29,-66.476 -3.528,-15.801 7.463,-29.864 24.095,-26.624 12.327,2.401 21.16,17.316 29.199,25.951 6.097,6.55 10.197,8.913 19.479,9.455 10.658,0.622 24.83,0.521 35.534,0.003 17.64,-0.855 21.036,-10.935 31.669,-22.416 2.732,-2.95 5.958,-6.865 9.246,-9.129 18.243,-12.564 38.773,3.064 33.184,24.087"
       style="fill:#2eb81b;fill-opacity:1;fill-rule:nonzero;stroke:none"
       transform="matrix(0.31943019,-0.23833302,-0.23833302,-0.31943019,107.86726,174.46547)"
       clip-path="url(#clipPath4350)" /><path
       fill="#000000"
       d="m 151.08059,180.37159 c -3.61173,0.32116 -6.76943,2.76956 -7.91084,6.33662 -0.15419,0.48184 -0.32744,1.28626 -0.38527,1.78882 -0.50063,4.35065 2.14124,8.44243 6.31231,9.77693 0.48181,0.15415 1.2862,0.32737 1.78876,0.38519 4.35035,0.50049 8.44196,-2.14126 9.77657,-6.3123 0.15417,-0.48181 0.3274,-1.28619 0.38522,-1.78875 0.50049,-4.35035 -2.14122,-8.44206 -6.31196,-9.77658 -0.4818,-0.15417 -1.2862,-0.32736 -1.78876,-0.38519 -0.0121,-0.001 -0.0242,-0.003 -0.0363,-0.004 -0.50277,-0.0558 -0.91432,-0.056 -0.91441,-0.056 z m -5.54953,20.55332 -5.13663,23.85143 a 0.73999998,0.73999998 51.076788 0 0 0.72341,0.89579 h 6.02829 a 1.1346753,1.1346753 141.07662 0 0 1.10924,-0.8958 l 4.78799,-22.23311 c 0.10654,-0.49474 -0.21516,-0.84718 -0.72081,-0.82951 -0.68325,0.0239 -1.3757,-0.01 -2.07152,-0.10514 -0.50125,-0.0689 -1.30474,-0.24184 -1.78991,-0.38537 -0.67374,-0.19932 -1.31876,-0.45408 -1.93177,-0.75727 -0.45352,-0.22431 -0.80537,-0.43672 -0.80537,-0.43681 z m -11.95668,28.65423 -1.32561,6.91603 a 0.75737813,0.75737813 50.425169 0 0 0.74384,0.89995 h 20.72494 a 0.75737898,0.75737898 129.57486 0 0 0.74384,-0.89995 l -1.3256,-6.91603 a 1.1086453,1.1086453 39.574863 0 0 -1.08882,-0.89995 H 134.6632 a 1.1086465,1.1086465 140.42517 0 0 -1.08882,0.89995 z m -20.79104,8.03519 v 6.88327 a 0.91633216,0.91633216 45 0 0 0.91633,0.91633 h 3.1791 a 0.91633216,0.91633216 135 0 0 0.91633,-0.91633 v -6.88327 a 0.91633216,0.91633216 45 0 0 -0.91633,-0.91633 h -3.1791 a 0.91633216,0.91633216 135 0 0 -0.91633,0.91633 z m 15.44516,-0.0164 -1.32561,6.91603 a 0.75737813,0.75737813 50.425169 0 0 0.74384,0.89995 l 31.4167,0 a 0.75737898,0.75737898 129.57486 0 0 0.74384,-0.89995 l -1.3256,-6.91603 a 1.1086453,1.1086453 39.574863 0 0 -1.08882,-0.89995 l -28.07553,0 a 1.1086465,1.1086465 140.42517 0 0 -1.08882,0.89995 z m 40.68656,0.0164 v 6.88327 a 0.91633216,0.91633216 45 0 0 0.91633,0.91633 h 3.1791 a 0.91633216,0.91633216 135 0 0 0.91633,-0.91633 v -6.88327 a 0.91633216,0.91633216 45 0 0 -0.91633,-0.91633 h -3.1791 a 0.91633216,0.91633216 135 0 0 -0.91633,0.91633 z m -58.80466,8.01882 v 8.52498 a 0.91633216,0.91633216 45 0 0 0.91633,0.91633 h 64.6567 a 0.91633216,0.91633216 135 0 0 0.91633,-0.91633 v -8.52498 a 0.91633216,0.91633216 45 0 0 -0.91633,-0.91633 h -64.6567 a 0.91633216,0.91633216 135 0 0 -0.91633,0.91633 z"
       id="path1"
       style="fill:#2eb81b;fill-opacity:1;stroke-width:0.167058"
       inkscape:path-effect="#path-effect1"
       inkscape:original-d="m 151.99586,180.33625 c -4.28121,-0.0488 -8.12407,2.90097 -9.06227,7.25703 -1.07218,4.97835 2.06986,9.84477 7.04821,10.91678 4.97801,1.07202 9.84427,-2.06986 10.91645,-7.04821 1.07202,-4.97801 -2.06986,-9.84443 -7.04787,-10.91645 -0.62229,-0.13398 -1.24292,-0.20214 -1.85435,-0.20915 z m -6.27188,19.69287 -5.52247,25.64301 h 7.86095 l 5.17381,-24.02471 c -1.26697,0.13966 -2.57571,0.0847 -3.88746,-0.19779 -1.31207,-0.28234 -2.52759,-0.77131 -3.62483,-1.42034 z m -11.97711,28.65007 -1.67059,8.71593 h 22.5576 l -1.67058,-8.71593 z m -20.96353,8.01881 v 8.71593 h 5.01176 V 236.698 Z m 15.61765,0 -1.67059,8.71593 h 33.24936 l -1.67058,-8.71593 z m 40.51407,0 v 8.71593 h 5.01176 V 236.698 Z m -58.80466,8.01882 v 10.35764 h 66.48936 v -10.35764 z"
       sodipodi:nodetypes="ssccssscccccccccccccccccccccccccccccccc" /></g></svg>
