<svg height="182.0" viewBox="76.0 83.0 186.0 182.0" width="186.0" xmlns="http://www.w3.org/2000/svg" xmlns:xlink="http://www.w3.org/1999/xlink">
<path d="M 299 289.519531 C 299 295.042969 294.523438 299.519531 289 299.519531 L 53 299.519531 C 47.476562 299.519531 43 295.042969 43 289.519531 L 43 52.480469 C 43 46.957031 47.476562 42.480469 53 42.480469 L 289 42.480469 C 294.523438 42.480469 299 46.957031 299 52.480469 Z M 23 23 L 23 319 L 319 319 L 319 23 Z M 23 23 " fill="rgb(38.301086%, 76.535034%, 19.815063%)" fill-opacity="1" fill-rule="nonzero"/>
<path d="M 200.234375 213.46875 C 191.925781 215.390625 193.453125 230.605469 203.679688 229.4375 C 214.367188 228.214844 212.777344 210.570312 200.234375 213.46875 M 169.046875 213.480469 C 159.972656 215.3125 162.324219 230.9375 172.484375 229.4375 C 182.8125 227.910156 180.800781 211.105469 169.046875 213.480469 M 137.21875 213.480469 C 127.925781 215.375 130.617188 230.527344 140.03125 229.441406 C 151.113281 228.160156 148.871094 211.101562 137.21875 213.480469 M 202.746094 181.660156 C 192.613281 183.398438 194.640625 199.402344 204.941406 198.832031 C 216.261719 198.207031 215.429688 179.484375 202.746094 181.660156 M 169.675781 181.660156 C 159.363281 183.429688 161.457031 199.398438 171.867188 198.835938 C 183.46875 198.207031 181.769531 179.589844 169.675781 181.660156 M 135.980469 181.660156 C 125.664062 183.4375 127.765625 199.398438 138.171875 198.835938 C 149.570312 198.21875 148.5 179.507812 135.980469 181.660156 M 203.367188 149.234375 C 194.460938 150.886719 194.5625 165.0625 203.886719 166.507812 C 217.789062 168.660156 217.820312 146.554688 203.367188 149.234375 M 168.421875 149.226562 C 159.53125 151.0625 160.496094 166.257812 170.769531 166.605469 C 183.515625 167.039062 183.050781 146.210938 168.421875 149.226562 M 133.464844 149.214844 C 130.703125 149.847656 127.695312 154.1875 127.4375 156.957031 C 126.535156 166.542969 140.425781 170.773438 144.375 161.371094 C 147.507812 153.914062 141.230469 147.4375 133.464844 149.214844 M 241.703125 129.121094 C 242.625 129.121094 243.457031 129.8125 243.496094 130.734375 C 243.503906 130.902344 243.484375 131.066406 243.441406 131.210938 C 237.820312 163.023438 236.792969 196.925781 230.90625 228.53125 C 229.398438 236.628906 225.898438 242.070312 219.398438 245.070312 C 216.488281 246.414062 213.292969 247.023438 210.089844 247.023438 L 130.1875 247.023438 C 124.53125 247.023438 119.277344 244.105469 115.800781 239.699219 C 113.621094 236.933594 112.332031 233.570312 111.886719 230.078125 L 99.296875 131.273438 C 99.09375 130.617188 99.023438 129.121094 100.875 129.121094 Z M 241.703125 129.121094 " fill="rgb(8.178711%, 7.424927%, 6.562805%)" fill-opacity="1" fill-rule="nonzero"/>
<path d="M 102.296875 94.976562 L 238.785156 94.976562 C 254.527344 94.976562 254.257812 120.382812 238.785156 120.382812 L 102.8125 120.382812 C 87.890625 120.382812 87.765625 94.976562 102.296875 94.976562 " fill="rgb(8.178711%, 7.424927%, 6.562805%)" fill-opacity="1" fill-rule="nonzero"/>
<path d="M 0 0 L -27 0 M 288 0 L 315 0 M 0 -276 L -27 -276 M 288 -276 L 315 -276 M 6 6 L 6 33 M 6 -282 L 6 -309 M 282 6 L 282 33 M 282 -282 L 282 -309 " fill="none" stroke="rgb(100%, 100%, 100%)" stroke-linecap="butt" stroke-linejoin="miter" stroke-miterlimit="10" stroke-opacity="1" stroke-width="1.25" transform="matrix(1, 0, 0, -1, 27, 33)"/>
<path d="M 0 0 L -27 0 M 288 0 L 315 0 M 0 -276 L -27 -276 M 288 -276 L 315 -276 M 6 6 L 6 33 M 6 -282 L 6 -309 M 282 6 L 282 33 M 282 -282 L 282 -309 " fill="none" stroke="rgb(0%, 0%, 0%)" stroke-linecap="butt" stroke-linejoin="miter" stroke-miterlimit="10" stroke-opacity="1" stroke-width="0.25" transform="matrix(1, 0, 0, -1, 27, 33)"/>
</svg>