<svg height="140.0" viewBox="71.0 103.0 208.0 140.0" width="208.0" xmlns="http://www.w3.org/2000/svg" xmlns:xlink="http://www.w3.org/1999/xlink">
<path d="M 299 289.519531 C 299 295.042969 294.523438 299.519531 289 299.519531 L 53 299.519531 C 47.476562 299.519531 43 295.042969 43 289.519531 L 43 52.480469 C 43 46.957031 47.476562 42.480469 53 42.480469 L 289 42.480469 C 294.523438 42.480469 299 46.957031 299 52.480469 Z M 23 23 L 23 319 L 319 319 L 319 23 Z M 23 23 " fill="rgb(38.301086%, 76.535034%, 19.815063%)" fill-opacity="1" fill-rule="nonzero"/>
<path d="M 108.996094 219.585938 C 108.226562 225.808594 104.117188 226.492188 98.550781 225.644531 C 92.664062 224.746094 93.664062 215.507812 93.402344 211.058594 C 86.726562 211.292969 79 206.066406 79 199.394531 C 79 191.75 79 175.960938 79 157.9375 C 82.167969 142.710938 104.035156 143.644531 105.578125 159.183594 C 105.878906 162.199219 104.894531 175.554688 106.1875 176.84375 C 108.476562 179.125 111.375 175.257812 113.222656 174.125 C 116.464844 172.132812 120.492188 170.605469 124.324219 170.605469 C 152.632812 170.605469 187.878906 170.636719 218.382812 170.636719 C 222.15625 171.070312 225.238281 172.316406 228.445312 174.21875 C 230.28125 175.308594 235.367188 179.371094 236.324219 174.203125 C 237.882812 165.824219 232.753906 156.128906 241.296875 149.683594 C 246.5 145.757812 252.648438 146.164062 257.136719 149.371094 C 260.800781 151.988281 262.902344 156.40625 262.90625 160.910156 C 262.921875 175.558594 263 187.140625 263 198.171875 C 263 203.644531 258.886719 208.523438 253.710938 210.320312 C 251.832031 210.972656 250.339844 210.914062 248.574219 211.515625 C 247.972656 215.664062 249.003906 224.921875 243.265625 225.695312 C 236.140625 226.65625 233.613281 225.082031 232.773438 218.121094 C 232.558594 216.34375 232.390625 213.667969 232.765625 212.039062 L 108.996094 212.035156 C 108.785156 214.4375 109.285156 217.242188 108.996094 219.585938 " fill="rgb(8.178711%, 7.424927%, 6.562805%)" fill-opacity="1" fill-rule="nonzero"/>
<path d="M 111.429688 157.230469 C 110.703125 151.820312 105.613281 145.417969 100.730469 143.085938 C 99.671875 142.582031 95.613281 141.523438 95.445312 141.296875 C 94.867188 140.515625 94.785156 136.015625 94.84375 134.800781 C 95.269531 125.558594 102.085938 116.761719 111.652344 116.046875 L 230.59375 116.050781 C 240.460938 117.65625 247.007812 127.003906 246.933594 136.777344 C 246.929688 137.332031 246.472656 141.140625 246.347656 141.332031 C 246.1875 141.585938 241.792969 142.734375 240.722656 143.265625 C 236.816406 145.191406 230.332031 149.964844 230.332031 156.746094 L 230.332031 167.460938 C 230.332031 167.632812 229.871094 168.113281 229.335938 167.984375 C 228.03125 167.664062 225.894531 166.269531 224.210938 165.785156 C 221.585938 165.03125 218.210938 164.273438 215.488281 164.273438 L 126.757812 164.273438 C 124.082031 164.621094 121.355469 164.851562 118.734375 165.507812 C 116.609375 166.042969 114.089844 167.578125 112.425781 167.984375 C 111.890625 168.113281 111.429688 167.632812 111.429688 167.460938 C 111.429688 164.402344 111.8125 160.082031 111.429688 157.230469 " fill="rgb(8.178711%, 7.424927%, 6.562805%)" fill-opacity="1" fill-rule="nonzero"/>
<path d="M 0 0 L -27 0 M 288 0 L 315 0 M 0 -276 L -27 -276 M 288 -276 L 315 -276 M 6 6 L 6 33 M 6 -282 L 6 -309 M 282 6 L 282 33 M 282 -282 L 282 -309 " fill="none" stroke="rgb(100%, 100%, 100%)" stroke-linecap="butt" stroke-linejoin="miter" stroke-miterlimit="10" stroke-opacity="1" stroke-width="1.25" transform="matrix(1, 0, 0, -1, 27, 33)"/>
<path d="M 0 0 L -27 0 M 288 0 L 315 0 M 0 -276 L -27 -276 M 288 -276 L 315 -276 M 6 6 L 6 33 M 6 -282 L 6 -309 M 282 6 L 282 33 M 282 -282 L 282 -309 " fill="none" stroke="rgb(0%, 0%, 0%)" stroke-linecap="butt" stroke-linejoin="miter" stroke-miterlimit="10" stroke-opacity="1" stroke-width="0.25" transform="matrix(1, 0, 0, -1, 27, 33)"/>
</svg>