<svg height="227.0" viewBox="65.0 61.0 211.0 227.0" width="211.0" xmlns="http://www.w3.org/2000/svg" xmlns:xlink="http://www.w3.org/1999/xlink">
<path d="M 299 289.519531 C 299 295.042969 294.523438 299.519531 289 299.519531 L 53 299.519531 C 47.476562 299.519531 43 295.042969 43 289.519531 L 43 52.480469 C 43 46.957031 47.476562 42.480469 53 42.480469 L 289 42.480469 C 294.523438 42.480469 299 46.957031 299 52.480469 Z M 23 23 L 23 319 L 319 319 L 319 23 Z M 23 23 " fill="rgb(38.301086%, 76.535034%, 19.815063%)" fill-opacity="1" fill-rule="nonzero"/>
<path d="M 247.269531 158.605469 C 244.121094 158.605469 241.570312 156.050781 241.570312 152.90625 C 241.570312 149.757812 244.121094 147.207031 247.269531 147.207031 C 250.414062 147.207031 252.96875 149.757812 252.96875 152.90625 C 252.96875 156.050781 250.414062 158.605469 247.269531 158.605469 M 228.234375 223.488281 C 228.234375 230.273438 223.882812 234.027344 217.082031 234.632812 L 105.753906 234.632812 C 99.125 234.339844 95.265625 229 94.640625 222.777344 L 94.640625 147.105469 C 94.640625 139.796875 97.753906 135.789062 105.296875 134.824219 L 215.730469 134.609375 C 222.902344 135.226562 227.558594 138.164062 228.234375 145.75 Z M 263.589844 236.324219 L 263.5 132.328125 C 262.761719 125.785156 254.226562 117.070312 247.683594 117.070312 L 187.882812 117.070312 C 201.167969 102.789062 214.890625 88.921875 228.746094 75.179688 C 230.367188 71.421875 227.496094 66.804688 223.363281 67.011719 C 219.746094 67.195312 216.035156 73.074219 213.578125 75.550781 C 200.566406 88.660156 187.359375 101.574219 174.382812 114.71875 C 174.367188 114.730469 174.355469 114.746094 174.339844 114.757812 C 172.628906 116.433594 169.863281 116.363281 168.160156 114.679688 L 121.675781 68.390625 C 116.828125 64.242188 110.546875 70.414062 113.519531 75.566406 C 125.21875 88.734375 140.855469 100.691406 152.089844 114.011719 C 152.882812 114.953125 153.703125 115.871094 154.097656 117.070312 L 93.617188 117.070312 C 87.527344 117.070312 79.054688 125.425781 78.476562 131.652344 L 78.410156 236.300781 C 79.984375 246.707031 87.710938 252.171875 100.035156 252.171875 C 100.855469 252.945312 94.660156 266.324219 94.84375 269.300781 C 95.148438 274.269531 102.101562 276.875 105.738281 273.066406 L 120.453125 252.316406 L 220.660156 252.164062 L 221.992188 252.855469 C 226.484375 258.394531 230.34375 265.703125 234.902344 271.027344 C 237.464844 274.023438 239.84375 276.371094 243.90625 274.058594 C 250.535156 270.289062 242.867188 257.6875 241.261719 252.175781 C 253.941406 252.175781 262.332031 247.402344 263.589844 236.324219 " fill="rgb(8.178711%, 7.424927%, 6.562805%)" fill-opacity="1" fill-rule="nonzero"/>
<path d="M 105.664062 166.65625 L 114.167969 166.65625 L 122.671875 192.167969 L 122.722656 192.167969 L 122.082031 166.65625 L 127.589844 166.65625 L 127.589844 201.847656 L 120.796875 201.847656 L 110.742188 172.914062 L 110.636719 172.914062 L 111.171875 201.847656 L 105.664062 201.847656 Z M 105.664062 166.65625 " fill="rgb(8.178711%, 7.424927%, 6.562805%)" fill-opacity="1" fill-rule="nonzero"/>
<path d="M 132.292969 166.65625 L 147.910156 166.65625 L 147.910156 171.898438 L 138.230469 171.898438 L 138.230469 182.113281 L 145.984375 182.113281 L 145.984375 186.175781 L 138.230469 186.175781 L 138.230469 196.605469 L 148.285156 196.605469 L 148.285156 201.847656 L 132.292969 201.847656 Z M 132.292969 166.65625 " fill="rgb(8.178711%, 7.424927%, 6.562805%)" fill-opacity="1" fill-rule="nonzero"/>
<path d="M 150.578125 166.65625 L 157.15625 166.65625 L 160.847656 193.289062 L 161.0625 193.289062 L 165.019531 166.710938 L 171.117188 166.710938 L 175.179688 193.289062 L 175.394531 193.289062 L 179.03125 166.65625 L 184.96875 166.65625 L 178.5 201.847656 L 171.597656 201.847656 L 167.855469 176.550781 L 167.640625 176.550781 L 163.683594 201.847656 L 157.050781 201.847656 Z M 150.578125 166.65625 " fill="rgb(8.178711%, 7.424927%, 6.562805%)" fill-opacity="1" fill-rule="nonzero"/>
<path d="M 187.371094 189.601562 L 192.667969 189.601562 C 192.667969 195.484375 193.894531 197.40625 197.105469 197.40625 C 199.941406 197.40625 201.332031 195.75 201.332031 192.753906 C 201.332031 190.667969 200.632812 189.601562 199.726562 188.851562 C 198.871094 188.15625 197.320312 187.460938 195.179688 186.550781 C 193.039062 185.695312 191.222656 184.679688 190.046875 183.609375 C 188.601562 182.378906 187.316406 180.027344 187.316406 176.175781 C 187.316406 169.972656 191.007812 166.226562 197.105469 166.226562 C 204.273438 166.226562 206.519531 169.917969 206.519531 179.332031 L 201.222656 179.332031 C 201.222656 172.644531 200.046875 171.039062 197.265625 171.039062 C 194.804688 171.039062 193.253906 172.644531 193.253906 175.695312 C 193.253906 178.207031 193.894531 179.332031 194.699219 180.078125 C 195.660156 180.882812 197.425781 181.683594 199.40625 182.539062 C 201.597656 183.449219 203.203125 184.25 204.539062 185.425781 C 206.089844 186.820312 207.269531 189.117188 207.269531 192.328125 C 207.269531 198.371094 203.738281 202.273438 197.105469 202.273438 C 189.457031 202.273438 187.371094 197.460938 187.371094 189.601562 " fill="rgb(8.178711%, 7.424927%, 6.562805%)" fill-opacity="1" fill-rule="nonzero"/>
<path d="M 211.863281 172.753906 L 211.863281 165.90625 L 217.105469 165.90625 L 217.105469 172.753906 L 215.554688 190.507812 L 213.46875 190.507812 Z M 211.808594 194.949219 L 217.210938 194.949219 L 217.210938 201.847656 L 211.808594 201.847656 Z M 211.808594 194.949219 " fill="rgb(8.178711%, 7.424927%, 6.562805%)" fill-opacity="1" fill-rule="nonzero"/>
<path d="M 0 0 L -27 0 M 288 0 L 315 0 M 0 -276 L -27 -276 M 288 -276 L 315 -276 M 6 6 L 6 33 M 6 -282 L 6 -309 M 282 6 L 282 33 M 282 -282 L 282 -309 " fill="none" stroke="rgb(100%, 100%, 100%)" stroke-linecap="butt" stroke-linejoin="miter" stroke-miterlimit="10" stroke-opacity="1" stroke-width="1.25" transform="matrix(1, 0, 0, -1, 27, 33)"/>
<path d="M 0 0 L -27 0 M 288 0 L 315 0 M 0 -276 L -27 -276 M 288 -276 L 315 -276 M 6 6 L 6 33 M 6 -282 L 6 -309 M 282 6 L 282 33 M 282 -282 L 282 -309 " fill="none" stroke="rgb(0%, 0%, 0%)" stroke-linecap="butt" stroke-linejoin="miter" stroke-miterlimit="10" stroke-opacity="1" stroke-width="0.25" transform="matrix(1, 0, 0, -1, 27, 33)"/>
</svg>