<svg height="213.0" viewBox="94.0 68.0 161.0 213.0" width="161.0" xmlns="http://www.w3.org/2000/svg" xmlns:xlink="http://www.w3.org/1999/xlink">
<path d="M 299 289.519531 C 299 295.042969 294.523438 299.519531 289 299.519531 L 53 299.519531 C 47.476562 299.519531 43 295.042969 43 289.519531 L 43 52.480469 C 43 46.957031 47.476562 42.480469 53 42.480469 L 289 42.480469 C 294.523438 42.480469 299 46.957031 299 52.480469 Z M 23 23 L 23 319 L 319 319 L 319 23 Z M 23 23 " fill="rgb(38.301086%, 76.535034%, 19.815063%)" fill-opacity="1" fill-rule="nonzero"/>
<path d="M 127.070312 166.632812 C 125.417969 166.972656 124.539062 168.242188 124.285156 169.839844 C 123.71875 173.441406 123.734375 186.972656 124.21875 190.671875 C 124.84375 195.472656 131.207031 195.316406 131.976562 191.222656 C 132.578125 188.011719 132.417969 173.949219 132 170.386719 C 131.667969 167.527344 129.972656 166.039062 127.070312 166.632812 M 231.449219 156.410156 L 231.449219 254.945312 C 231.449219 260.175781 228.925781 262.992188 222.828125 262.992188 L 120.355469 263.003906 C 113.214844 263.003906 110.550781 259.871094 110.550781 253.753906 L 110.550781 156.410156 Z M 231.449219 156.410156 " fill="rgb(8.178711%, 7.424927%, 6.562805%)" fill-opacity="1" fill-rule="nonzero"/>
<path d="M 127.070312 110.667969 C 125.417969 111.007812 124.539062 112.277344 124.285156 113.875 C 123.921875 116.171875 123.988281 134.851562 124.558594 136.152344 C 125.851562 139.097656 131.265625 138.871094 131.957031 134.644531 C 132.546875 131.019531 132.449219 118.25 132 114.421875 C 131.667969 111.5625 129.972656 110.074219 127.070312 110.667969 M 231.449219 148.667969 L 110.550781 148.667969 L 110.550781 87.644531 C 110.550781 82.148438 114 79.289062 118.953125 79.289062 L 222.828125 78.996094 C 228.617188 78.996094 231.449219 81.832031 231.449219 87.644531 Z M 231.449219 148.667969 " fill="rgb(8.178711%, 7.424927%, 6.562805%)" fill-opacity="1" fill-rule="nonzero"/>
<path d="M 0 0 L -27 0 M 288 0 L 315 0 M 0 -276 L -27 -276 M 288 -276 L 315 -276 M 6 6 L 6 33 M 6 -282 L 6 -309 M 282 6 L 282 33 M 282 -282 L 282 -309 " fill="none" stroke="rgb(100%, 100%, 100%)" stroke-linecap="butt" stroke-linejoin="miter" stroke-miterlimit="10" stroke-opacity="1" stroke-width="1.25" transform="matrix(1, 0, 0, -1, 27, 33)"/>
<path d="M 0 0 L -27 0 M 288 0 L 315 0 M 0 -276 L -27 -276 M 288 -276 L 315 -276 M 6 6 L 6 33 M 6 -282 L 6 -309 M 282 6 L 282 33 M 282 -282 L 282 -309 " fill="none" stroke="rgb(0%, 0%, 0%)" stroke-linecap="butt" stroke-linejoin="miter" stroke-miterlimit="10" stroke-opacity="1" stroke-width="0.25" transform="matrix(1, 0, 0, -1, 27, 33)"/>
</svg>