<svg height="205.0" viewBox="66.0 72.0 198.0 205.0" width="198.0" xmlns="http://www.w3.org/2000/svg" xmlns:xlink="http://www.w3.org/1999/xlink">
<path d="M 299 289.519531 C 299 295.042969 294.523438 299.519531 289 299.519531 L 53 299.519531 C 47.476562 299.519531 43 295.042969 43 289.519531 L 43 52.480469 C 43 46.957031 47.476562 42.480469 53 42.480469 L 289 42.480469 C 294.523438 42.480469 299 46.957031 299 52.480469 Z M 23 23 L 23 319 L 319 319 L 319 23 Z M 23 23 " fill="rgb(38.301086%, 76.535034%, 19.815063%)" fill-opacity="1" fill-rule="nonzero"/>
<path d="M 195.53125 227.558594 C 194.757812 233.453125 190.804688 238.046875 187.269531 242.523438 C 192.109375 245.328125 197.792969 248.828125 197.460938 255.222656 C 197.253906 259.183594 193.992188 262.597656 190.144531 262.597656 L 134.773438 262.597656 C 130.519531 262.550781 127.707031 258.058594 124.800781 256.566406 C 122.855469 255.5625 119.371094 255.113281 117.050781 254.132812 C 100.214844 247.011719 88.269531 236.101562 88.273438 216.417969 C 88.273438 211.339844 90.550781 199.097656 96.160156 197.28125 C 103.777344 194.820312 102.410156 209.132812 103.871094 213.839844 C 105.84375 220.210938 110.414062 225.292969 115.925781 228.832031 C 116.605469 219.667969 119.617188 211.023438 124.332031 203.175781 C 133.757812 187.484375 149.929688 177.484375 158.070312 160.515625 C 159.425781 157.6875 161.015625 151.761719 162.476562 149.648438 C 162.910156 149.023438 163.121094 148.636719 163.984375 148.621094 C 164.699219 148.609375 171.566406 152.648438 173.261719 153.382812 C 182.542969 157.402344 194.007812 160.683594 204.128906 161.351562 C 208.492188 161.640625 214.839844 160.640625 218.746094 161.378906 C 219.566406 161.53125 220.289062 161.84375 220.675781 162.632812 C 221.394531 164.109375 222.171875 172.785156 222.292969 175.019531 C 223.433594 195.664062 219.273438 215.671875 225.003906 235.964844 C 226.726562 242.082031 228.628906 239.871094 233.296875 242.3125 C 241.589844 246.648438 246.65625 260.765625 235.28125 262.527344 C 231.8125 263.0625 220.417969 263.019531 216.839844 262.582031 C 215.390625 262.40625 213 261.410156 211.855469 260.5625 C 206.824219 256.828125 201.722656 236.277344 197.785156 229.4375 C 197.238281 228.484375 196.9375 227.308594 195.53125 227.558594 " fill="rgb(8.178711%, 7.424927%, 6.562805%)" fill-opacity="1" fill-rule="nonzero"/>
<path d="M 219.722656 151.179688 C 201.195312 152.21875 182.597656 148.457031 166.953125 138.351562 C 170.058594 128.222656 172.898438 120.683594 169.4375 110.101562 C 168.144531 106.136719 165.511719 102.789062 164.019531 98.96875 C 154.125 73.617188 178.730469 75.707031 192.039062 87.507812 C 193.074219 88.425781 195.410156 91.691406 195.949219 91.875 C 198.660156 92.804688 206.496094 91.589844 210.324219 92.144531 C 216.597656 93.050781 217.515625 96.195312 221.683594 99.242188 C 228.761719 104.414062 240.621094 100.925781 248.65625 102.199219 C 254.683594 103.152344 253.832031 112.515625 253.457031 117.109375 C 252.609375 127.507812 247.820312 134.289062 237.988281 137.929688 C 229.542969 141.058594 217.058594 138.246094 219.722656 151.179688 " fill="rgb(8.178711%, 7.424927%, 6.562805%)" fill-opacity="1" fill-rule="nonzero"/>
<path d="M 0 0 L -27 0 M 288 0 L 315 0 M 0 -276 L -27 -276 M 288 -276 L 315 -276 M 6 6 L 6 33 M 6 -282 L 6 -309 M 282 6 L 282 33 M 282 -282 L 282 -309 " fill="none" stroke="rgb(100%, 100%, 100%)" stroke-linecap="butt" stroke-linejoin="miter" stroke-miterlimit="10" stroke-opacity="1" stroke-width="1.25" transform="matrix(1, 0, 0, -1, 27, 33)"/>
<path d="M 0 0 L -27 0 M 288 0 L 315 0 M 0 -276 L -27 -276 M 288 -276 L 315 -276 M 6 6 L 6 33 M 6 -282 L 6 -309 M 282 6 L 282 33 M 282 -282 L 282 -309 " fill="none" stroke="rgb(0%, 0%, 0%)" stroke-linecap="butt" stroke-linejoin="miter" stroke-miterlimit="10" stroke-opacity="1" stroke-width="0.25" transform="matrix(1, 0, 0, -1, 27, 33)"/>
</svg>