<?xml version="1.0" encoding="UTF-8" standalone="no"?>
<!-- Created with Inkscape (http://www.inkscape.org/) -->

<svg
   width="100.16395mm"
   height="80.56057mm"
   viewBox="0 0 100.16395 80.56057"
   version="1.1"
   id="svg1"
   xml:space="preserve"
   inkscape:version="1.4.2 (ebf0e940, 2025-05-08)"
   sodipodi:docname="DIY.svg"
   xmlns:inkscape="http://www.inkscape.org/namespaces/inkscape"
   xmlns:sodipodi="http://sodipodi.sourceforge.net/DTD/sodipodi-0.dtd"
   xmlns="http://www.w3.org/2000/svg"
   xmlns:svg="http://www.w3.org/2000/svg"><sodipodi:namedview
     id="namedview1"
     pagecolor="#ffffff"
     bordercolor="#000000"
     borderopacity="0.25"
     inkscape:showpageshadow="2"
     inkscape:pageopacity="0.0"
     inkscape:pagecheckerboard="0"
     inkscape:deskcolor="#d1d1d1"
     inkscape:document-units="mm"
     inkscape:zoom="0.81654058"
     inkscape:cx="212.48179"
     inkscape:cy="178.80312"
     inkscape:window-width="1712"
     inkscape:window-height="971"
     inkscape:window-x="0"
     inkscape:window-y="39"
     inkscape:window-maximized="1"
     inkscape:current-layer="layer1" /><defs
     id="defs1"><clipPath
       clipPathUnits="userSpaceOnUse"
       id="clipPath3316"><path
         d="M 0,276 H 276 V 0 H 0 Z"
         transform="translate(-214.68931,-111.3205)"
         id="path3316" /></clipPath><clipPath
       clipPathUnits="userSpaceOnUse"
       id="clipPath3314"><path
         d="M 0,276 H 276 V 0 H 0 Z"
         transform="translate(-144.80273,-241.99441)"
         id="path3314" /></clipPath></defs><g
     inkscape:label="Layer 1"
     inkscape:groupmode="layer"
     id="layer1"
     transform="translate(-386.55621,43.959915)"><path
       id="path3313"
       d="m 0,0 c -29.163,0 -50.86,-0.009 -79.683,-0.009 -14.667,0 -17.058,-10.765 -17.058,-15.506 v -3.906 h -8.525 c -3.063,0 -5.532,-2.521 -5.532,-6.225 v -40.339 c 0,-8.552 3.813,-9.272 10.569,-9.272 h 52.287 v -15.282 c -5.188,0 -9.962,0.486 -9.962,-4.441 l -0.037,-54.631 c 0,-0.156 0.02,-0.299 0.024,-0.452 l 29.954,12.239 c -0.007,14.113 -0.023,29.261 -0.023,42.844 0,4.555 -4.324,4.441 -9.961,4.441 v 20.865 c 0,3.219 -1.505,4.959 -5.624,4.959 l -52.067,0.006 c -3.586,0 -5.219,0.922 -5.219,5.293 v 28.24 h 4.116 v -3.168 -0.008 -1.575 c 0,-8.446 6.89,-14.07 14.577,-14.07 l 83.902,0.011 c 8.085,0 13.94,8.548 14.433,16.137 C 17.038,-20.475 17.645,0 0,0"
       style="fill:#2eb81b;fill-opacity:1;fill-rule:nonzero;stroke:none"
       transform="matrix(0.35277776,0,0,-0.35277776,425.64328,-36.777083)"
       clip-path="url(#clipPath3314)" /><path
       id="path3315"
       d="M 0,0 -5.545,13.572 -1.13,15.376 4.416,1.804 C 4.914,0.585 4.329,-0.807 3.11,-1.306 1.891,-1.804 0.498,-1.219 0,0 m -39.74,-16.237 -5.545,13.571 4.416,1.804 5.545,-13.571 c 0.498,-1.22 -0.086,-2.612 -1.306,-3.11 -1.219,-0.498 -2.611,0.086 -3.11,1.306 m -39.739,-16.238 -5.545,13.572 4.415,1.804 5.545,-13.572 c 0.499,-1.219 -0.086,-2.611 -1.305,-3.11 -1.22,-0.498 -2.612,0.087 -3.11,1.306 m -39.74,-16.237 -5.545,13.571 4.415,1.804 5.546,-13.571 c 0.498,-1.22 -0.087,-2.612 -1.306,-3.11 -1.219,-0.498 -2.612,0.086 -3.11,1.306 m 12.117,20.788 2.155,-5.274 c 0.498,-1.219 -0.086,-2.612 -1.306,-3.11 -1.219,-0.498 -2.611,0.086 -3.11,1.306 l -2.154,5.274 z m 13.247,5.412 2.154,-5.273 c 0.499,-1.22 -0.086,-2.612 -1.305,-3.11 -1.22,-0.499 -2.612,0.086 -3.11,1.305 l -2.155,5.274 z m 26.493,10.825 2.154,-5.273 c 0.499,-1.22 -0.086,-2.612 -1.305,-3.11 v 0 c -1.22,-0.499 -2.612,0.086 -3.11,1.305 l -2.155,5.274 z m 13.246,5.413 2.155,-5.274 c 0.498,-1.219 -0.086,-2.612 -1.306,-3.11 -1.219,-0.498 -2.611,0.086 -3.11,1.306 l -2.154,5.274 z m 26.493,10.825 2.155,-5.274 c 0.498,-1.219 -0.086,-2.612 -1.306,-3.11 -1.219,-0.498 -2.611,0.086 -3.11,1.306 l -2.154,5.274 z m 13.247,5.412 2.154,-5.273 c 0.499,-1.22 -0.086,-2.612 -1.305,-3.11 -1.219,-0.499 -2.612,0.086 -3.11,1.305 l -2.155,5.274 z m 24.961,15.13 -6.683,-2.731 -6.758,-2.761 -4.416,-1.804 -8.831,-3.608 -4.415,-1.805 -8.831,-3.608 -4.416,-1.804 -8.831,-3.608 -4.415,-1.805 -8.831,-3.608 -4.416,-1.804 -8.831,-3.608 -4.415,-1.805 -8.831,-3.608 -4.416,-1.804 -8.831,-3.608 -4.415,-1.805 -8.831,-3.608 -4.416,-1.804 -8.831,-3.608 -4.415,-1.805 -10.05,-4.106 -3.37,-1.377 16.723,-40.927 150.494,61.491 z"
       style="fill:#2eb81b;fill-opacity:1;fill-rule:nonzero;stroke:none"
       transform="matrix(0.35277776,0,0,-0.35277776,450.29771,9.3217652)"
       clip-path="url(#clipPath3316)" /><g
       id="g1"
       transform="matrix(1.367633e-4,0.10168554,0.12640454,-2.6346886e-4,421.97641,-47.930726)"
       style="fill:#2eb81b;fill-opacity:1">
	<path
   class="st0"
   d="m 50.448,345.976 c -13.915,13.916 -13.915,36.484 0,50.4 L 155.63,501.548 c 13.914,13.932 36.484,13.932 50.4,0.017 L 283.075,424.511 127.494,268.93 Z m 128.484,118.66 c -3.121,3.12 -8.209,3.137 -11.33,0.008 l -80.24,-80.24 c -3.129,-3.12 -3.12,-8.21 0,-11.338 l 33.504,-33.496 91.57,91.562 z"
   id="path1"
   style="fill:#2eb81b;fill-opacity:1" />
	<polygon
   class="st0"
   points="437.965,85.493 471.988,75.571 396.416,0 141.566,254.858 275.516,388.809 309.193,378.369 294.619,348.841 333.105,334.456 318.514,304.929 357,290.552 342.401,261.042 380.887,246.665 366.288,217.163 404.782,202.786 390.174,173.26 428.661,158.891 414.078,129.38 452.548,115.004 "
   id="polygon1"
   style="fill:#2eb81b;fill-opacity:1" />
</g></g><style
     type="text/css"
     id="style1">
	.st0{fill:#000000;}
</style></svg>
