<?xml version="1.0" encoding="UTF-8" standalone="no"?>
<!-- Created with Inkscape (http://www.inkscape.org/) -->

<svg
   width="58.367657mm"
   height="64.854324mm"
   viewBox="0 0 58.367657 64.854324"
   version="1.1"
   id="svg1"
   inkscape:version="1.4.2 (ebf0e940, 2025-05-08)"
   sodipodi:docname="dog.svg"
   xmlns:inkscape="http://www.inkscape.org/namespaces/inkscape"
   xmlns:sodipodi="http://sodipodi.sourceforge.net/DTD/sodipodi-0.dtd"
   xmlns="http://www.w3.org/2000/svg"
   xmlns:svg="http://www.w3.org/2000/svg">
  <sodipodi:namedview
     id="namedview1"
     pagecolor="#ffffff"
     bordercolor="#000000"
     borderopacity="0.25"
     inkscape:showpageshadow="2"
     inkscape:pageopacity="0.0"
     inkscape:pagecheckerboard="0"
     inkscape:deskcolor="#d1d1d1"
     inkscape:document-units="mm"
     inkscape:zoom="0.023162177"
     inkscape:cx="107.93459"
     inkscape:cy="129.5215"
     inkscape:window-width="896"
     inkscape:window-height="245"
     inkscape:window-x="0"
     inkscape:window-y="39"
     inkscape:window-maximized="0"
     inkscape:current-layer="layer1" />
  <defs
     id="defs1">
    <clipPath
       clipPathUnits="userSpaceOnUse"
       id="clipPath516">
      <path
         d="M 0,276 H 276 V 0 H 0 Z"
         transform="translate(-186.72428,-157.8219)"
         id="path516" />
    </clipPath>
    <clipPath
       clipPathUnits="userSpaceOnUse"
       id="clipPath514">
      <path
         d="M 0,276 H 276 V 0 H 0 Z"
         transform="translate(-162.52928,-81.439802)"
         id="path514" />
    </clipPath>
  </defs>
  <g
     inkscape:label="Layer 1"
     inkscape:groupmode="layer"
     id="layer1"
     transform="translate(-79.375001,-116.15208)">
    <path
       id="path513"
       d="m 0,0 c -0.77,-5.894 -4.725,-10.486 -8.259,-14.963 4.84,-2.805 10.523,-6.304 10.19,-12.699 -0.206,-3.963 -3.467,-7.375 -7.317,-7.375 h -55.371 c -4.253,0.046 -7.067,4.538 -9.97,6.032 -1.945,1.002 -5.43,1.451 -7.753,2.433 -16.835,7.121 -28.778,18.03 -28.775,37.713 10e-4,5.081 2.276,17.323 7.887,19.136 7.615,2.462 6.249,-11.851 7.708,-16.556 1.975,-6.373 6.545,-11.452 12.057,-14.992 0.678,9.165 3.691,17.809 8.407,25.657 9.426,15.69 25.598,25.69 33.737,42.657 1.357,2.83 2.947,8.754 4.407,10.869 0.431,0.624 0.643,1.01 1.506,1.026 0.714,0.013 7.584,-4.026 9.277,-4.759 9.283,-4.023 20.747,-7.301 30.867,-7.971 4.366,-0.29 10.714,0.71 14.62,-0.025 0.821,-0.155 1.541,-0.465 1.927,-1.257 0.72,-1.477 1.497,-10.151 1.62,-12.384 1.138,-20.645 -3.022,-40.652 2.708,-60.946 1.726,-6.117 3.627,-3.906 8.295,-6.347 8.292,-4.336 13.359,-18.456 1.983,-20.215 -3.466,-0.536 -14.861,-0.494 -18.44,-0.056 -1.449,0.176 -3.842,1.172 -4.984,2.019 C 11.294,-29.269 6.192,-8.719 2.256,-1.876 1.709,-0.925 1.41,0.25 0,0"
       style="fill:#2eb81b;fill-opacity:1;fill-rule:nonzero;stroke:none"
       transform="matrix(0.35277776,0,0,-0.35277776,117.21218,168.53244)"
       clip-path="url(#clipPath514)" />
    <path
       id="path515"
       d="m 0,0 c -18.529,-1.039 -37.125,2.723 -52.771,12.825 3.106,10.13 5.946,17.668 2.485,28.253 -1.295,3.962 -3.928,7.31 -5.42,11.132 -9.895,25.35 14.712,23.26 28.02,11.461 1.037,-0.92 3.371,-4.183 3.909,-4.367 2.712,-0.93 10.549,0.283 14.375,-0.27 6.277,-0.907 7.193,-4.053 11.363,-7.1 C 9.036,46.763 20.895,50.251 28.932,48.98 34.961,48.026 34.109,38.661 33.734,34.067 32.884,23.67 28.096,16.89 18.265,13.249 9.82,10.121 -2.666,12.931 0,0"
       style="fill:#2eb81b;fill-opacity:1;fill-rule:nonzero;stroke:none"
       transform="matrix(0.35277776,0,0,-0.35277776,125.74764,141.58653)"
       clip-path="url(#clipPath516)" />
  </g>
</svg>
