<?xml version="1.0" encoding="UTF-8" standalone="no"?>
<!-- Created with Inkscape (http://www.inkscape.org/) -->

<svg
   width="73.371025mm"
   height="71.830772mm"
   viewBox="0 0 73.371025 71.830772"
   version="1.1"
   id="svg1"
   inkscape:version="1.4.2 (ebf0e940, 2025-05-08)"
   sodipodi:docname="electric meter.svg"
   xmlns:inkscape="http://www.inkscape.org/namespaces/inkscape"
   xmlns:sodipodi="http://sodipodi.sourceforge.net/DTD/sodipodi-0.dtd"
   xmlns="http://www.w3.org/2000/svg"
   xmlns:svg="http://www.w3.org/2000/svg">
  <sodipodi:namedview
     id="namedview1"
     pagecolor="#ffffff"
     bordercolor="#000000"
     borderopacity="0.25"
     inkscape:showpageshadow="2"
     inkscape:pageopacity="0.0"
     inkscape:pagecheckerboard="0"
     inkscape:deskcolor="#d1d1d1"
     inkscape:document-units="mm"
     inkscape:zoom="0.01"
     inkscape:cx="-8650"
     inkscape:cy="-15500"
     inkscape:window-width="1712"
     inkscape:window-height="971"
     inkscape:window-x="0"
     inkscape:window-y="39"
     inkscape:window-maximized="1"
     inkscape:current-layer="layer1" />
  <defs
     id="defs1">
    <clipPath
       clipPathUnits="userSpaceOnUse"
       id="clipPath3455">
      <path
         d="M 0,276 H 276 V 0 H 0 Z"
         transform="translate(-205.41976,-151.0905)"
         id="path3455" />
    </clipPath>
    <clipPath
       clipPathUnits="userSpaceOnUse"
       id="clipPath3453">
      <path
         d="M 0,276 H 276 V 0 H 0 Z"
         transform="translate(-201.09976,-166.88061)"
         id="path3453" />
    </clipPath>
    <clipPath
       clipPathUnits="userSpaceOnUse"
       id="clipPath3451">
      <path
         d="M 0,276 H 276 V 0 H 0 Z"
         transform="translate(-209.01751,-239.65851)"
         id="path3451" />
    </clipPath>
    <clipPath
       clipPathUnits="userSpaceOnUse"
       id="clipPath3449">
      <path
         d="M 0,276 H 276 V 0 H 0 Z"
         transform="translate(-58.551751,-139.2237)"
         id="path3449" />
    </clipPath>
    <clipPath
       clipPathUnits="userSpaceOnUse"
       id="clipPath3447">
      <path
         d="M 0,276 H 276 V 0 H 0 Z"
         transform="translate(-135.429,-153.5047)"
         id="path3447" />
    </clipPath>
    <clipPath
       clipPathUnits="userSpaceOnUse"
       id="clipPath3445">
      <path
         d="M 0,276 H 276 V 0 H 0 Z"
         transform="translate(-114.054,-153.5047)"
         id="path3445" />
    </clipPath>
    <clipPath
       clipPathUnits="userSpaceOnUse"
       id="clipPath3443">
      <path
         d="M 0,276 H 276 V 0 H 0 Z"
         transform="translate(-92.679752,-153.5047)"
         id="path3443" />
    </clipPath>
    <clipPath
       clipPathUnits="userSpaceOnUse"
       id="clipPath3441">
      <path
         d="M 0,276 H 276 V 0 H 0 Z"
         transform="translate(-71.304752,-153.5047)"
         id="path3441" />
    </clipPath>
  </defs>
  <g
     inkscape:label="Layer 1"
     inkscape:groupmode="layer"
     id="layer1"
     transform="translate(-2370.9312,-4250.2667)">
    <path
       id="path3440"
       d="m 0,0 h -4.798 c -2.874,0 -5.204,2.33 -5.204,5.204 v 11.632 c 0,2.874 2.33,5.204 5.204,5.204 H 0 c 2.874,0 5.204,-2.33 5.204,-5.204 V 5.204 C 5.204,2.33 2.874,0 0,0"
       style="fill:#2eb81b;fill-opacity:1;fill-rule:nonzero;stroke:none"
       transform="matrix(0.35277776,0,0,-0.35277776,2384.0881,4280.7124)"
       clip-path="url(#clipPath3441)" />
    <path
       id="path3442"
       d="m 0,0 h -4.798 c -2.874,0 -5.204,2.33 -5.204,5.204 v 11.632 c 0,2.874 2.33,5.204 5.204,5.204 H 0 c 2.874,0 5.204,-2.33 5.204,-5.204 V 5.204 C 5.204,2.33 2.874,0 0,0"
       style="fill:#2eb81b;fill-opacity:1;fill-rule:nonzero;stroke:none"
       transform="matrix(0.35277776,0,0,-0.35277776,2391.6287,4280.7124)"
       clip-path="url(#clipPath3443)" />
    <path
       id="path3444"
       d="m 0,0 h -4.798 c -2.874,0 -5.204,2.33 -5.204,5.204 v 11.632 c 0,2.874 2.33,5.204 5.204,5.204 H 0 c 2.874,0 5.204,-2.33 5.204,-5.204 V 5.204 C 5.204,2.33 2.874,0 0,0"
       style="fill:#2eb81b;fill-opacity:1;fill-rule:nonzero;stroke:none"
       transform="matrix(0.35277776,0,0,-0.35277776,2399.1691,4280.7124)"
       clip-path="url(#clipPath3445)" />
    <path
       id="path3446"
       d="m 0,0 h -4.798 c -2.874,0 -5.204,2.33 -5.204,5.204 v 11.632 c 0,2.874 2.33,5.204 5.204,5.204 H 0 c 2.874,0 5.204,-2.33 5.204,-5.204 V 5.204 C 5.204,2.33 2.874,0 0,0"
       style="fill:#2eb81b;fill-opacity:1;fill-rule:nonzero;stroke:none"
       transform="matrix(0.35277776,0,0,-0.35277776,2406.7097,4280.7124)"
       clip-path="url(#clipPath3447)" />
    <path
       id="path3448"
       d="m 0,0 c -4.282,0 -7.754,3.471 -7.754,7.754 v 36.321 c 0,4.282 3.472,7.754 7.754,7.754 h 85.088 c 4.283,0 7.754,-3.472 7.754,-7.754 V 7.754 C 92.842,3.471 89.371,0 85.088,0 Z m 60.612,-38.726 c -1.709,-6.151 -9.573,-20.55 -15.135,-27.671 -1.577,-2.02 -4.829,-0.855 -4.739,1.707 0.224,6.346 3.351,12.332 4.149,18.692 0.168,1.344 -0.709,2.605 -2.03,2.903 -5.841,1.318 -11.476,3.294 -17.044,5.469 -1.358,0.53 -2.022,2.047 -1.519,3.416 3.428,9.332 10.871,16.331 17.822,23.37 1.728,1.749 4.675,0.396 4.522,-2.058 -0.034,-0.543 -0.088,-1.084 -0.172,-1.623 -0.491,-3.16 -5.589,-12.638 -5.183,-14.059 0.83,-2.903 11.802,-5.855 17.257,-6.874 1.511,-0.283 2.484,-1.791 2.072,-3.272 m 71.815,33.806 v -13.965 c 0,-5.836 4.731,-10.568 10.568,-10.568 h 4.288 v -30.734 c 0,-10.993 -8.943,-19.935 -19.935,-19.935 H 76.733 v 4.732 h 14.825 c 9.84,0 17.817,7.977 17.817,17.817 V 51.17 c 0,9.84 -7.977,17.816 -17.817,17.816 H -6.725 c -9.84,0 -17.817,-7.976 -17.817,-17.816 V -57.573 c 0,-9.84 7.977,-17.817 17.817,-17.817 H 8.1 v -11.956 c 0,-8.663 7.023,-15.685 15.686,-15.685 h 37.261 c 6.797,0 12.582,4.323 14.76,10.369 h 51.541 c 17.906,0 32.474,14.568 32.474,32.475 v 30.734 h 4.289 c 5.836,0 10.567,4.732 10.567,10.568 V -4.92 Z"
       style="fill:#2eb81b;fill-opacity:1;fill-rule:nonzero;stroke:none"
       transform="matrix(0.35277776,0,0,-0.35277776,2379.5891,4285.7504)"
       clip-path="url(#clipPath3449)" />
    <path
       id="path3450"
       d="m 0,0 c 22.987,2.215 38.917,-20.635 30.851,-41.916 -2.244,-5.92 -6.988,-9.966 -9.346,-15.577 -1.539,-3.663 -1.388,-9.948 -6.237,-9.948 -8.35,0 -14.873,-0.102 -24.503,-0.102 -4.803,0 -4.491,5.689 -5.814,9.22 -2.18,5.819 -6.946,10.163 -9.345,15.973 C -32.13,-23.618 -20.47,-1.972 0,0"
       style="fill:#2eb81b;fill-opacity:1;fill-rule:nonzero;stroke:none"
       transform="matrix(0.35277776,0,0,-0.35277776,2432.6701,4250.3193)"
       clip-path="url(#clipPath3451)" />
    <path
       id="path3452"
       d="m 0,0 c 3.909,0.966 19.03,0.698 22.662,-0.064 5.23,-1.098 4.805,-10.468 -0.256,-10.468 l -22.991,0.047 C -4.564,-10.485 -6.428,-1.588 0,0"
       style="fill:#2eb81b;fill-opacity:1;fill-rule:nonzero;stroke:none"
       transform="matrix(0.35277776,0,0,-0.35277776,2429.8769,4275.9937)"
       clip-path="url(#clipPath3453)" />
    <path
       id="path3454"
       d="M 0,0 C 1.562,0.395 11.619,0.246 12.894,-0.004 16.185,-0.649 14.149,-7.363 10.333,-8.352 6.953,-9.228 0.459,-9.123 -0.807,-4.998 -1.194,-3.738 -1.608,-0.406 0,0"
       style="fill:#2eb81b;fill-opacity:1;fill-rule:nonzero;stroke:none"
       transform="matrix(0.35277776,0,0,-0.35277776,2431.4009,4281.5641)"
       clip-path="url(#clipPath3455)" />
  </g>
</svg>
