<?xml version="1.0" encoding="UTF-8" standalone="no"?>
<!-- Created with Inkscape (http://www.inkscape.org/) -->

<svg
   width="64.826706mm"
   height="59.261147mm"
   viewBox="0 0 64.826706 59.261147"
   version="1.1"
   id="svg1"
   inkscape:version="1.4.2 (ebf0e940, 2025-05-08)"
   sodipodi:docname="fireplace.svg"
   xmlns:inkscape="http://www.inkscape.org/namespaces/inkscape"
   xmlns:sodipodi="http://sodipodi.sourceforge.net/DTD/sodipodi-0.dtd"
   xmlns="http://www.w3.org/2000/svg"
   xmlns:svg="http://www.w3.org/2000/svg">
  <sodipodi:namedview
     id="namedview1"
     pagecolor="#ffffff"
     bordercolor="#000000"
     borderopacity="0.25"
     inkscape:showpageshadow="2"
     inkscape:pageopacity="0.0"
     inkscape:pagecheckerboard="0"
     inkscape:deskcolor="#d1d1d1"
     inkscape:document-units="mm"
     inkscape:zoom="0.01"
     inkscape:cx="-11350"
     inkscape:cy="18800"
     inkscape:window-width="1712"
     inkscape:window-height="971"
     inkscape:window-x="0"
     inkscape:window-y="39"
     inkscape:window-maximized="1"
     inkscape:current-layer="layer1" />
  <defs
     id="defs1">
    <clipPath
       clipPathUnits="userSpaceOnUse"
       id="clipPath4479">
      <path
         d="M 0,276 H 276 V 0 H 0 Z"
         transform="translate(-161.49075,-120.0709)"
         id="path4479" />
    </clipPath>
    <clipPath
       clipPathUnits="userSpaceOnUse"
       id="clipPath4477">
      <path
         d="M 0,276 H 276 V 0 H 0 Z"
         transform="translate(-182.98125,-75.481202)"
         id="path4477" />
    </clipPath>
    <clipPath
       clipPathUnits="userSpaceOnUse"
       id="clipPath4475">
      <path
         d="M 0,276 H 276 V 0 H 0 Z"
         transform="translate(-229.54876,-218.23041)"
         id="path4475" />
    </clipPath>
  </defs>
  <g
     inkscape:label="Layer 1"
     inkscape:groupmode="layer"
     id="layer1"
     transform="translate(-3089.5395,4818.5916)">
    <path
       id="path4474"
       d="M 0,0 C -0.273,1.763 -1.997,3.762 -3.763,3.762 L -179.628,3.703 c -1.994,0 -3.176,-2.018 -3.455,-4.07 -0.458,-3.368 -0.451,-13.764 -0.041,-17.175 0.247,-2.057 2.097,-4.079 4.162,-4.079 58.555,0.09 117.181,-0.337 175.694,0.214 1.711,0 2.996,1.704 3.258,3.549 C 0.424,-14.807 0.463,-2.993 0,0"
       style="fill:#2eb81b;fill-opacity:1;fill-rule:nonzero;stroke:none"
       transform="matrix(0.35277776,0,0,-0.35277776,3154.2492,-4817.2645)"
       clip-path="url(#clipPath4475)" />
    <path
       id="path4476"
       d="m 0,0 h -89.598 v 64.31 c 0,11.535 12.764,19.899 23.102,19.899 14.138,0 29.426,-0.002 43.392,-0.002 C -11.323,84.207 0,74.559 0,62.161 Z M 41.394,0 H 32.972 V 113.573 H -122.57 V 0 h -8.063 c -2.156,0 -4.585,-2.296 -4.847,-4.47 -0.284,-2.357 -0.344,-11.758 0.09,-13.899 0.329,-1.622 1.71,-3.104 3.346,-3.104 l 175.141,0.065 c 1.541,0 2.431,1.95 2.694,3.398 0.446,2.455 0.346,10.171 0.097,12.829 C 45.695,-3.125 43.489,0 41.394,0"
       style="fill:#2eb81b;fill-opacity:1;fill-rule:nonzero;stroke:none"
       transform="matrix(0.35277776,0,0,-0.35277776,3137.8212,-4766.9057)"
       clip-path="url(#clipPath4477)" />
    <path
       id="path4478"
       d="m 0,0 c -1.863,-0.589 -6.137,-8.337 -8.611,-9.479 0.814,10.337 1.26,21.033 -6.087,29.209 -2.036,2.265 -8.302,7.427 -11.108,8.24 -6.544,1.898 -2.305,-4.791 -2.544,-8.911 -0.681,-11.719 -18.738,-20.026 -22.457,-31.681 -2.269,-7.113 -0.101,-19.13 5.632,-24.269 1.945,-1.744 9.341,-6.83 11.495,-4.676 0.972,0.972 -0.629,6.797 -0.734,8.268 -0.568,7.932 2.513,15.599 8.427,20.945 1.363,1.232 3.267,2.274 4.407,2.726 0.504,0.2 1.062,-0.118 1.15,-0.653 0.604,-3.642 -2.225,-6.864 0.99,-12.349 1.445,-2.465 4.411,-3.779 5.762,-5.636 1.545,-2.126 2.001,-4.551 2.188,-7.192 0.197,-2.781 -1.928,-6.906 2.288,-5.874 7.826,1.915 13.87,15.79 14.884,23.112 C 6.475,-12.491 4.543,-4.125 2.318,-0.806 1.655,0.182 1.096,0.347 0,0"
       style="fill:#2eb81b;fill-opacity:1;fill-rule:nonzero;stroke:none"
       transform="matrix(0.35277776,0,0,-0.35277776,3130.2398,-4782.636)"
       clip-path="url(#clipPath4479)" />
  </g>
</svg>
