<?xml version="1.0" encoding="UTF-8" standalone="no"?>
<!-- Created with Inkscape (http://www.inkscape.org/) -->

<svg
   width="42.651184mm"
   height="76.136398mm"
   viewBox="0 0 42.651184 76.136398"
   version="1.1"
   id="svg1"
   inkscape:version="1.4.2 (ebf0e940, 2025-05-08)"
   sodipodi:docname="fridge.svg"
   xmlns:inkscape="http://www.inkscape.org/namespaces/inkscape"
   xmlns:sodipodi="http://sodipodi.sourceforge.net/DTD/sodipodi-0.dtd"
   xmlns="http://www.w3.org/2000/svg"
   xmlns:svg="http://www.w3.org/2000/svg">
  <sodipodi:namedview
     id="namedview1"
     pagecolor="#ffffff"
     bordercolor="#000000"
     borderopacity="0.25"
     inkscape:showpageshadow="2"
     inkscape:pageopacity="0.0"
     inkscape:pagecheckerboard="0"
     inkscape:deskcolor="#d1d1d1"
     inkscape:document-units="mm"
     showgrid="true"
     inkscape:zoom="1.6506994"
     inkscape:cx="-32.410505"
     inkscape:cy="159.32641"
     inkscape:window-width="1712"
     inkscape:window-height="971"
     inkscape:window-x="0"
     inkscape:window-y="39"
     inkscape:window-maximized="1"
     inkscape:current-layer="layer1">
    <inkscape:grid
       id="grid1"
       units="mm"
       originx="-87.3125"
       originy="-116.15208"
       spacingx="0.99999998"
       spacingy="1"
       empcolor="#0099e5"
       empopacity="0.30196078"
       color="#0099e5"
       opacity="0.14901961"
       empspacing="5"
       enabled="true"
       visible="true" />
  </sodipodi:namedview>
  <defs
     id="defs1">
    <clipPath
       clipPathUnits="userSpaceOnUse"
       id="clipPath389">
      <path
         d="M 0,276 H 276 V 0 H 0 Z"
         transform="translate(-94.0696,-198.3307)"
         id="path389" />
    </clipPath>
    <clipPath
       clipPathUnits="userSpaceOnUse"
       id="clipPath387">
      <path
         d="M 0,276 H 276 V 0 H 0 Z"
         transform="translate(-94.0696,-142.36551)"
         id="path387" />
    </clipPath>
  </defs>
  <g
     inkscape:label="Layer 1"
     inkscape:groupmode="layer"
     id="layer1"
     transform="translate(-87.312498,-116.15208)">
    <path
       id="path386"
       d="m 0,0 c -1.653,-0.339 -2.532,-1.608 -2.784,-3.207 -0.567,-3.599 -0.55,-17.13 -0.068,-20.831 0.625,-4.799 6.991,-4.645 7.758,-0.551 0.601,3.213 0.441,17.275 0.026,20.835 C 4.598,-0.892 2.905,0.596 0,0 m 104.381,10.226 v -125.535 c 0,-5.233 -2.525,-8.05 -8.623,-8.05 l -102.474,-0.01 c -7.14,0 -9.804,3.134 -9.804,9.251 V 10.226 Z M 31.716005,-11.957385 c -0.567,-3.599 -0.55,-16.62962 -0.068,-20.33062 0.625,-4.799 27.991001,-4.645 28.758001,-0.551 0.601,3.213 0.441,17.275 0.026,20.835"
       style="fill:#2eb81b;fill-opacity:1;fill-rule:nonzero;stroke:none"
       transform="matrix(0.35277776,0,0,-0.35277776,93.140387,147.06889)"
       clip-path="url(#clipPath387)"
       sodipodi:nodetypes="ccsccccsccscccscc" />
    <path
       id="path388"
       d="m 0,0 c -1.653,-0.339 -2.532,-1.608 -2.784,-3.207 -0.362,-2.296 -0.297,-20.976 0.274,-22.276 1.293,-2.944 6.705,-2.718 7.396,1.509 0.593,3.625 0.492,16.393 0.046,20.22 C 4.598,-0.892 2.905,0.596 0,0 M 104.381,-37.999 H -16.52 v 61.025 c 0,5.493 3.452,8.353 8.405,8.353 l 103.873,0.294 c 5.788,0 8.623,-2.836 8.623,-8.647 z"
       style="fill:#2eb81b;fill-opacity:1;fill-rule:nonzero;stroke:none"
       transform="matrix(0.35277776,0,0,-0.35277776,93.140387,127.32561)"
       clip-path="url(#clipPath389)" />
    <ellipse
       style="fill:#2eb81b;stroke-width:3.175;stroke-linecap:round"
       id="path1"
       cx="94.62075"
       cy="189.34883"
       rx="2.9689789"
       ry="2.7405961" />
    <ellipse
       style="fill:#2eb81b;stroke-width:3.175;stroke-linecap:round"
       id="path1-7"
       cx="123.93597"
       cy="189.54788"
       rx="2.9689789"
       ry="2.7405961" />
  </g>
</svg>
