<?xml version="1.0" encoding="UTF-8" standalone="no"?>
<!-- Created with Inkscape (http://www.inkscape.org/) -->

<svg
   width="195.32864mm"
   height="186.38367mm"
   viewBox="0 0 195.32864 186.38367"
   version="1.1"
   id="svg1"
   xml:space="preserve"
   inkscape:version="1.4.2 (ebf0e940, 2025-05-08)"
   sodipodi:docname="car key.svg"
   xmlns:inkscape="http://www.inkscape.org/namespaces/inkscape"
   xmlns:sodipodi="http://sodipodi.sourceforge.net/DTD/sodipodi-0.dtd"
   xmlns="http://www.w3.org/2000/svg"
   xmlns:svg="http://www.w3.org/2000/svg"><sodipodi:namedview
     id="namedview1"
     pagecolor="#ffffff"
     bordercolor="#000000"
     borderopacity="0.25"
     inkscape:showpageshadow="2"
     inkscape:pageopacity="0.0"
     inkscape:pagecheckerboard="0"
     inkscape:deskcolor="#d1d1d1"
     inkscape:document-units="mm"
     inkscape:zoom="0.67682818"
     inkscape:cx="460.23497"
     inkscape:cy="350.16272"
     inkscape:window-width="1712"
     inkscape:window-height="971"
     inkscape:window-x="0"
     inkscape:window-y="39"
     inkscape:window-maximized="1"
     inkscape:current-layer="layer1" /><defs
     id="defs1"><inkscape:path-effect
       effect="fillet_chamfer"
       id="path-effect1"
       is_visible="true"
       lpeversion="1"
       nodesatellites_param="F,0,1,1,0,2.2112473,0,1 @ F,0,1,1,0,2.2112473,0,1 @ F,0,1,1,0,2.2112473,0,1 @ F,0,1,1,0,2.2112473,0,1 @ F,0,1,1,0,2.2112473,0,1 @ F,0,1,1,0,2.2112473,0,1 @ F,0,1,1,0,2.2112473,0,1 | F,0,1,1,0,2.2112473,0,1 @ F,0,1,1,0,2.2112473,0,1 @ F,0,1,1,0,2.2112473,0,1 @ F,0,1,1,0,2.2112473,0,1 @ F,0,0,1,0,2.2112473,0,1 @ F,0,1,1,0,2.2112473,0,1 @ F,0,1,1,0,2.2112473,0,1 @ F,0,1,1,0,2.2112473,0,1 @ F,0,1,1,0,2.2112473,0,1 | F,0,1,1,0,2.2112473,0,1 @ F,0,1,1,0,2.2112473,0,1 @ F,0,1,1,0,2.2112473,0,1 @ F,0,1,1,0,2.2112473,0,1 | F,0,1,1,0,2.2112473,0,1 @ F,0,1,1,0,2.2112473,0,1 @ F,0,1,1,0,2.2112473,0,1 @ F,0,1,1,0,2.2112473,0,1 | F,0,1,1,0,2.2112473,0,1 @ F,0,1,1,0,2.2112473,0,1 @ F,0,1,1,0,2.2112473,0,1 @ F,0,1,1,0,2.2112473,0,1 @ F,0,1,1,0,2.2112473,0,1 @ F,0,1,1,0,2.2112473,0,1 @ F,0,1,1,0,2.2112473,0,1 @ F,0,1,1,0,2.2112473,0,1 @ F,0,1,1,0,2.2112473,0,1 @ F,0,1,1,0,2.2112473,0,1 @ F,0,1,1,0,2.2112473,0,1 @ F,0,1,1,0,2.2112473,0,1 @ F,0,1,1,0,2.2112473,0,1 @ F,0,1,1,0,2.2112473,0,1 @ F,0,1,1,0,2.2112473,0,1 @ F,0,1,1,0,2.2112473,0,1 @ F,0,1,1,0,2.2112473,0,1 @ F,0,1,1,0,2.2112473,0,1 @ F,0,1,1,0,2.2112473,0,1 @ F,0,1,1,0,2.2112473,0,1 | F,0,1,1,0,2.2112473,0,1 @ F,0,1,1,0,2.2112473,0,1 @ F,0,1,1,0,2.2112473,0,1 @ F,0,1,1,0,2.2112473,0,1 @ F,0,1,1,0,2.2112473,0,1 @ F,0,1,1,0,2.2112473,0,1 @ F,0,1,1,0,2.2112473,0,1 @ F,0,1,1,0,2.2112473,0,1 @ F,0,1,1,0,2.2112473,0,1 | F,0,1,1,0,2.2112473,0,1 @ F,0,1,1,0,2.2112473,0,1 @ F,0,1,1,0,2.2112473,0,1 @ F,0,1,1,0,2.2112473,0,1 | F,0,1,1,0,2.2112473,0,1 @ F,0,1,1,0,2.2112473,0,1 @ F,0,1,1,0,2.2112473,0,1 @ F,0,1,1,0,2.2112473,0,1 | F,0,1,1,0,2.2112473,0,1 @ F,0,1,1,0,2.2112473,0,1 @ F,0,1,1,0,2.2112473,0,1 @ F,0,1,1,0,2.2112473,0,1 | F,0,1,1,0,2.2112473,0,1 @ F,0,1,1,0,2.2112473,0,1 @ F,0,1,1,0,2.2112473,0,1 @ F,0,1,1,0,2.2112473,0,1"
       radius="0"
       unit="px"
       method="auto"
       mode="F"
       chamfer_steps="1"
       flexible="false"
       use_knot_distance="true"
       apply_no_radius="true"
       apply_with_radius="true"
       only_selected="false"
       hide_knots="false" /><clipPath
       clipPathUnits="userSpaceOnUse"
       id="clipPath4350"><path
         d="M 0,276 H 276 V 0 H 0 Z"
         transform="translate(-191.9625,-147.004)"
         id="path4350" /></clipPath></defs><g
     inkscape:label="Layer 1"
     inkscape:groupmode="layer"
     id="layer1"
     transform="translate(-137.28568,-141.75817)"><path
       fill="#000000"
       d="m 232.98411,142.77096 -93.73255,48.27005 a 1.2976156,1.2976156 93.158087 0 0 -0.12331,2.23489 l 1.37501,0.9123 a 3.8403488,3.8403488 3.6305187 0 0 3.82488,0.24268 l 88.63954,-43.81326 a 4.4736213,4.4736213 180 0 1 3.96462,0 l 88.63955,43.81326 a 3.8406089,3.8406089 176.37116 0 0 3.82495,-0.24258 l 1.37488,-0.91208 a 1.2975384,1.2975384 86.84378 0 0 -0.12324,-2.23481 l -93.73257,-48.27084 a 1.2948832,1.2948832 27.238331 0 0 -1.96588,-1.01199 z m -0.0119,15.64647 -84.92786,42.46393 a 3.5778733,3.5778733 121.71747 0 0 -1.9778,3.20015 l 0,121.84907 a 2.2112473,2.2112473 45 0 0 2.21125,2.21125 h 7.97985 a 2.2112473,2.2112473 135 0 0 2.21125,-2.21125 V 209.63694 a 2.2112473,2.2112473 135 0 1 2.21125,-2.21125 h 148.53973 a 2.2112473,2.2112473 45 0 1 2.21125,2.21125 v 116.29364 a 2.2112473,2.2112473 45 0 0 2.21125,2.21125 h 7.97985 a 2.2112473,2.2112473 135 0 0 2.21125,-2.21125 V 204.08151 a 3.5778731,3.5778731 58.282524 0 0 -1.9778,-3.20015 l -84.92787,-42.46393 a 4.4224948,4.4224948 180 0 0 -3.9556,0 z m -65.82167,59.48773 v 3.01891 a 2.2112473,2.2112473 45 0 0 2.21125,2.21125 h 131.17645 a 2.2112473,2.2112473 135 0 0 2.21125,-2.21125 v -3.01891 a 2.2112473,2.2112473 45 0 0 -2.21125,-2.21125 H 169.36177 a 2.2112473,2.2112473 135 0 0 -2.21125,2.21125 z m 0,14.88282 v 3.0189 a 2.2112473,2.2112473 45 0 0 2.21125,2.21125 h 131.17645 a 2.2112473,2.2112473 135 0 0 2.21125,-2.21125 v -3.0189 a 2.2112473,2.2112473 45 0 0 -2.21125,-2.21125 l -131.17645,0 a 2.2112473,2.2112473 135 0 0 -2.21125,2.21125 z m 39.16006,12.98504 c -1.66941,0.49627 -3.05314,1.5359 -4.23629,2.78595 -0.83902,0.88646 -2.01708,2.48606 -2.66061,3.52352 -0.99055,1.59693 -1.8779,3.38383 -2.68666,5.31135 -0.47246,1.12604 -1.16553,2.98164 -1.55484,4.1391 -1.1735,3.48886 -2.11827,7.24714 -2.74932,10.98016 -0.20355,1.20408 -1.29134,1.93006 -2.49009,1.6977 -2.27087,-0.4402 -4.75945,-0.66629 -6.35692,-0.0506 -1.10107,0.42435 -1.88727,2.54292 -1.40248,3.63145 0.70814,1.59005 2.63588,3.08064 4.80138,4.33506 1.05653,0.61203 1.7558,1.65541 1.57477,2.42546 -0.78546,4.20058 -1.01017,6.43652 -1.09887,8.71955 -0.0474,1.22021 -0.0474,3.20109 0,4.42133 0.0887,2.28311 0.31344,4.51916 0.6618,6.55269 0.20616,1.20349 0.65209,3.13649 1.0434,4.29285 0.12826,0.37903 0.26144,0.73825 0.39709,1.076 0.45472,1.13223 1.94782,1.99081 3.16906,1.99081 h 84.45599 c 1.22124,0 2.71436,-0.8586 3.16909,-1.99087 0.13565,-0.33775 0.26882,-0.69697 0.39708,-1.076 0.39129,-1.15633 0.83722,-3.08932 1.0434,-4.29284 0.34836,-2.03353 0.57308,-4.26958 0.66178,-6.55269 0.0474,-1.22021 0.0474,-3.20109 0,-4.42133 -0.0887,-2.28312 -0.31343,-4.51916 -0.66179,-6.55269 -0.20617,-1.20349 -0.58158,-2.79264 -0.81163,-3.54926 4.11487,-2.29747 6.04261,-3.78806 6.75073,-5.37812 0.48475,-1.08851 -0.30147,-3.2071 -1.40259,-3.63144 -1.5975,-0.61562 -4.08608,-0.38951 -6.35694,0.0507 -1.19869,0.23237 -2.28636,-0.49365 -2.48984,-1.69777 -0.63085,-3.73303 -1.57563,-7.49132 -2.74934,-10.98018 -0.38937,-1.15742 -1.08251,-3.01299 -1.55499,-4.13904 -0.80878,-1.92757 -1.69619,-3.7145 -2.68691,-5.31146 -0.64359,-1.03741 -1.82166,-2.63701 -2.66065,-3.52352 -1.183,-1.25 -2.56666,-2.28958 -4.23602,-2.78583 -1.16648,-0.34676 -3.17105,-0.31347 -4.39229,-0.31347 l -48.49417,0 c -1.22124,0 -3.22583,-0.0333 -4.39233,0.31348 z m 4.39233,7.12793 48.49417,0 c 1.22124,0 3.04316,0.53268 3.79953,1.44704 0.16665,0.20145 0.8872,1.16784 1.495,2.22623 0.57127,0.99478 1.14869,2.15751 1.70159,3.43712 0.48431,1.12088 1.17714,2.97699 1.55599,4.13788 0.94016,2.88092 1.70619,6.02984 2.24534,9.12899 0.2093,1.20308 -0.61031,1.91721 -1.79956,1.63988 -8.63751,-2.01425 -18.28039,-2.16255 -31.03436,-2.17268 -1.22089,-9.7e-4 -3.20063,-9.7e-4 -4.42187,0 -12.75395,0.0101 -22.39681,0.1585 -31.03433,2.17283 -1.18891,0.27726 -2.00825,-0.43697 -1.79895,-1.64009 0.53915,-3.09918 1.30517,-6.24822 2.24532,-9.129 0.37884,-1.16086 1.07172,-3.017 1.55607,-4.13795 0.55287,-1.27956 1.13024,-2.44224 1.7014,-3.43697 0.60769,-1.05837 1.75279,-2.72342 2.74776,-3.42318 0.1891,-0.13299 1.32566,-0.2501 2.5469,-0.2501 z m -6.65526,36.33116 c 1.90706,0.6622 3.41745,2.17259 4.07964,4.07965 0.39873,1.14829 0.39873,3.19285 0,4.34114 -0.6622,1.90706 -2.17258,3.41744 -4.07964,4.07964 -1.14829,0.39873 -3.19285,0.39873 -4.34114,0 -1.90706,-0.6622 -3.41744,-2.17258 -4.07964,-4.07964 -0.39873,-1.14829 -0.39873,-3.19285 0,-4.34114 0.6622,-1.90707 2.17258,-3.41745 4.07964,-4.07965 1.14829,-0.39873 3.19285,-0.39873 4.34114,0 z m 66.14583,0 c 1.90706,0.6622 3.41745,2.17259 4.07964,4.07965 0.39873,1.14829 0.39873,3.19285 0,4.34114 -0.6622,1.90706 -2.17258,3.41744 -4.07964,4.07964 -1.14829,0.39873 -3.19285,0.39873 -4.34114,0 -1.90706,-0.6622 -3.41744,-2.17258 -4.07964,-4.07964 -0.39873,-1.14829 -0.39873,-3.19285 0,-4.34114 0.6622,-1.90707 2.17258,-3.41745 4.07964,-4.07965 1.14829,-0.39873 3.19285,-0.39873 4.34114,0 z m -77.82486,32.02592 v 4.67255 a 2.2112473,2.2112473 45 0 0 2.21125,2.21125 l 7.97984,0 a 2.2112473,2.2112473 135 0 0 2.21125,-2.21125 v -4.67255 a 2.2112473,2.2112473 45 0 0 -2.21125,-2.21125 h -7.97984 a 2.2112473,2.2112473 135 0 0 -2.21125,2.21125 z m 72.76041,0 v 4.67255 a 2.2112473,2.2112473 45 0 0 2.21125,2.21125 h 7.97984 a 2.2112473,2.2112473 135 0 0 2.21125,-2.21125 v -4.67255 a 2.2112473,2.2112473 45 0 0 -2.21125,-2.21125 h -7.97984 a 2.2112473,2.2112473 135 0 0 -2.21125,2.21125 z"
       id="path1"
       style="fill:#2eb81b;fill-opacity:1;stroke-width:0.413411"
       sodipodi:nodetypes="ccccccccccccccccccccccccccccsccccccssccssccscccsscccccscsccsssssssssscccccccccc"
       inkscape:path-effect="#path-effect1"
       inkscape:original-d="m 234.94999,141.75858 -97.66431,50.29481 5.06015,3.35732 92.60416,-45.77292 92.60417,45.77292 5.06016,-3.3569 -97.66433,-50.29564 z m 0,15.66995 -88.88346,44.44173 v 126.27157 h 12.40235 V 207.42569 h 152.96223 v 120.71614 h 12.40235 V 201.87026 Z m -67.79947,58.26538 v 7.44141 h 135.59895 v -7.44141 z m 0,14.88282 v 7.4414 h 135.59895 v -7.4414 z m 41.34114,14.88281 c -3.51399,0 -5.95023,2.28369 -7.83414,4.79557 -1.88351,2.51148 -3.4214,5.66415 -4.74514,9.19427 -1.76527,4.70835 -3.11712,10.05996 -3.82323,15.24951 -3.60577,-0.92397 -9.11489,-1.83182 -10.05582,0.93969 -0.97317,2.86659 3.03609,5.61536 6.89074,7.53111 -0.13229,0.44111 -0.26045,0.89711 -0.37455,1.38245 -0.74124,3.14978 -1.14184,7.04412 -1.14184,10.93019 0,3.88606 0.4006,7.7804 1.14184,10.9306 0.52586,2.2349 1.28489,4.03737 1.96123,5.19244 h 88.87849 c 0.67635,-1.15507 1.43537,-2.95754 1.96123,-5.19244 0.74125,-3.1502 1.14184,-7.04454 1.14184,-10.9306 0,-3.88607 -0.40059,-7.78041 -1.14184,-10.9306 -0.11076,-0.46438 -0.23567,-0.92528 -0.37455,-1.38204 3.85465,-1.91575 7.86391,-4.66452 6.89074,-7.53111 -0.94092,-2.77151 -6.45005,-1.86366 -10.05582,-0.93969 -0.70569,-5.18955 -2.05755,-10.54116 -3.82323,-15.24951 -1.32374,-3.53012 -2.86163,-6.68279 -4.74555,-9.19427 -1.8835,-2.51188 -4.31974,-4.79557 -7.83373,-4.79557 z m 0,7.44141 h 52.91667 c -0.20671,0 0.66435,0.19678 1.88102,1.81901 1.21708,1.62264 2.57307,4.25772 3.7298,7.34218 1.51846,4.04937 2.68221,8.86231 3.31886,13.40032 -9.67589,-2.66609 -20.43079,-2.71776 -35.38802,-2.71776 -14.95722,0 -25.71212,0.0517 -35.38801,2.71776 0.63665,-4.53801 1.8004,-9.35136 3.31886,-13.40032 1.15673,-3.08446 2.51272,-5.71954 3.72939,-7.34218 1.21708,-1.62223 2.08814,-1.81901 1.88143,-1.81901 z m -6.61458,35.96679 c 3.65313,0 6.61458,2.96146 6.61458,6.61459 0,3.65313 -2.96145,6.61458 -6.61458,6.61458 -3.65313,0 -6.61458,-2.96145 -6.61458,-6.61458 0,-3.65313 2.96145,-6.61459 6.61458,-6.61459 z m 66.14583,0 c 3.65313,0 6.61458,2.96146 6.61458,6.61459 0,3.65313 -2.96145,6.61458 -6.61458,6.61458 -3.65313,0 -6.61458,-2.96145 -6.61458,-6.61458 0,-3.65313 2.96145,-6.61459 6.61458,-6.61459 z m -75.65429,30.17904 v 9.09505 h 12.40234 v -9.09505 z m 72.76041,0 v 9.09505 h 12.40234 v -9.09505 z" /></g></svg>
