<?xml version="1.0" encoding="UTF-8" standalone="no"?>
<!-- Created with Inkscape (http://www.inkscape.org/) -->

<svg
   width="87.907127mm"
   height="95.081253mm"
   viewBox="0 0 87.907127 95.081253"
   version="1.1"
   id="svg1"
   inkscape:version="1.4.2 (ebf0e940, 2025-05-08)"
   sodipodi:docname="gardening.svg"
   xmlns:inkscape="http://www.inkscape.org/namespaces/inkscape"
   xmlns:sodipodi="http://sodipodi.sourceforge.net/DTD/sodipodi-0.dtd"
   xmlns="http://www.w3.org/2000/svg"
   xmlns:svg="http://www.w3.org/2000/svg">
  <sodipodi:namedview
     id="namedview1"
     pagecolor="#ffffff"
     bordercolor="#000000"
     borderopacity="0.25"
     inkscape:showpageshadow="2"
     inkscape:pageopacity="0.0"
     inkscape:pagecheckerboard="0"
     inkscape:deskcolor="#d1d1d1"
     inkscape:document-units="mm"
     inkscape:zoom="1.0773706"
     inkscape:cx="146.18925"
     inkscape:cy="205.12904"
     inkscape:window-width="1712"
     inkscape:window-height="971"
     inkscape:window-x="0"
     inkscape:window-y="39"
     inkscape:window-maximized="1"
     inkscape:current-layer="layer1" />
  <defs
     id="defs1">
    <clipPath
       clipPathUnits="userSpaceOnUse"
       id="clipPath1270">
      <path
         d="M 0,276 H 276 V 0 H 0 Z"
         transform="translate(-134.5683,-165.98901)"
         id="path1270" />
    </clipPath>
    <clipPath
       clipPathUnits="userSpaceOnUse"
       id="clipPath1272">
      <path
         d="M 0,276 H 276 V 0 H 0 Z"
         transform="translate(-209.64653,-173.51901)"
         id="path1272" />
    </clipPath>
    <clipPath
       clipPathUnits="userSpaceOnUse"
       id="clipPath1274">
      <path
         d="M 0,276 H 276 V 0 H 0 Z"
         transform="translate(-153.7974,-95.5831)"
         id="path1274" />
    </clipPath>
    <clipPath
       clipPathUnits="userSpaceOnUse"
       id="clipPath1276">
      <path
         d="M 0,276 H 276 V 0 H 0 Z"
         transform="translate(-201.56551,-123.8236)"
         id="path1276" />
    </clipPath>
    <clipPath
       clipPathUnits="userSpaceOnUse"
       id="clipPath1278">
      <path
         d="M 0,276 H 276 V 0 H 0 Z"
         transform="translate(-117.97793,-165.8806)"
         id="path1278" />
    </clipPath>
    <clipPath
       clipPathUnits="userSpaceOnUse"
       id="clipPath1280">
      <path
         d="M 0,276 H 276 V 0 H 0 Z"
         transform="translate(-164.65433,-140.05)"
         id="path1280" />
    </clipPath>
    <clipPath
       clipPathUnits="userSpaceOnUse"
       id="clipPath1282">
      <path
         d="M 0,276 H 276 V 0 H 0 Z"
         transform="translate(-132.99158,-37.664903)"
         id="path1282" />
    </clipPath>
    <clipPath
       clipPathUnits="userSpaceOnUse"
       id="clipPath1284">
      <path
         d="M 0,276 H 276 V 0 H 0 Z"
         transform="translate(-138.5853,-123.8236)"
         id="path1284" />
    </clipPath>
  </defs>
  <g
     inkscape:label="Layer 1"
     inkscape:groupmode="layer"
     id="layer1"
     transform="translate(-11.747476,-68.221165)">
    <path
       id="path1269"
       d="m 0,0 c 2.432,-1.18 7.748,-2.524 9.442,-3.646 1.49,-0.987 3.065,-4.217 4.549,-8.439 3.637,1.676 7.726,3.155 10.828,3.155 2.142,0 3.651,-0.654 4.672,-1.389 -0.036,9.521 0.312,21.875 0.49,27.539 0.056,1.759 1.37,3.196 3.108,3.467 19.736,3.08 35.884,16.725 43.147,34.981 1.144,2.877 4.828,16.174 2.347,16.591 C 44.023,78.068 21.881,46.613 21.881,26.929 V -8.092 L 15.197,2.286 C 14.8,2.901 14.608,3.622 14.623,4.354 15.112,27.525 1.246,50.515 -22.02,56.223 c -2.296,0.563 -7.653,2.181 -9.481,0.737 -1.82,-1.438 0.065,-12.041 0.564,-14.701 C -27.359,23.201 -17.524,8.504 0,0"
       style="fill:#2eb81b;fill-opacity:1;fill-rule:nonzero;stroke:none"
       transform="matrix(0.35277776,0,0,-0.35277776,71.635424,117.81486)"
       clip-path="url(#clipPath1270)" />
    <path
       id="path1271"
       d="m 0,0 c -15.627,3.048 -30.721,-5.524 -38.162,-18.984 -1.325,-2.397 -2.013,-5.129 -3.105,-7.441 0.583,-2.116 1.252,-4.955 1.415,-6.501 0.148,-1.404 0.231,-2.813 0.257,-4.218 1.833,0.3 3.741,-0.192 5.634,0.078 14.737,2.101 26.761,9.726 33.18,23.331 C 0.628,-10.748 4.663,-0.91 0,0"
       style="fill:#2eb81b;fill-opacity:1;fill-rule:nonzero;stroke:none"
       transform="matrix(0.35277776,0,0,-0.35277776,98.121353,115.15844)"
       clip-path="url(#clipPath1272)" />
    <path
       id="path1273"
       d="m 0,0 -29.313,-0.186 4.359,-26.627 c 0.434,-2.253 1.834,-4.652 5.844,-5.624 4.639,-0.306 8.802,-0.56 12.618,-0.758 0.719,5.428 1.56,10.82 3.502,15.503 0.959,0.497 2.355,0.312 3.205,0.989 C 1.466,-15.707 5.388,0 0,0"
       style="fill:#2eb81b;fill-opacity:1;fill-rule:nonzero;stroke:none"
       transform="matrix(0.35277776,0,0,-0.35277776,78.419023,142.6525)"
       clip-path="url(#clipPath1274)" />
    <path
       id="path1275"
       d="m 0,0 h -32.953 c -0.526,-2.049 -1.186,-4.029 -1.989,-5.903 -3.405,-7.959 -9.086,-13.835 -16.427,-16.994 -0.163,-0.07 -0.325,-0.133 -0.488,-0.201 l 4.056,0.026 h 0.017 0.016 c 3.329,0 6.021,-2.016 7.202,-5.394 0.963,-2.753 0.984,-6.575 0.064,-11.361 -1.387,-7.212 -3.099,-8.576 -3.83,-9.159 -0.846,-0.674 -1.727,-1.058 -2.51,-1.294 -1.086,-3.442 -1.691,-7.318 -2.236,-11.395 12.298,-0.495 20.925,-0.23 30.835,1.155 4.338,0.607 6.408,4.915 6.431,5.051 l 5.361,31.383 c 0.241,1.41 1.278,2.58 2.671,2.907 1.033,0.243 2.131,0.726 2.675,2.091 0.55,1.38 2.757,14.761 2.713,16.283 C 1.582,-1.911 1.842,0 0,0"
       style="fill:#2eb81b;fill-opacity:1;fill-rule:nonzero;stroke:none"
       transform="matrix(0.35277776,0,0,-0.35277776,95.270547,132.68987)"
       clip-path="url(#clipPath1276)" />
    <path
       id="path1277"
       d="m 0,0 c -2.334,3.29 -21.596,23.582 -23.997,23.582 v 0 c -15.32,-12.737 -37.733,-29.333 -30.614,-52.319 3.621,-11.692 14.583,-20.819 23.278,-23.572 1.194,-0.378 3.481,-0.78 4.024,-1.219 1.104,-0.892 1.611,-13.034 3.056,-13.034 h 8.302 l -9.088,56.547 c 0,0 5.023,-10.811 8.633,-20.181 1.737,-4.507 2.94,-9.201 3.593,-13.987 l 1.062,-7.784 C 5.743,-39.332 13.493,-19.015 0,0"
       style="fill:#2eb81b;fill-opacity:1;fill-rule:nonzero;stroke:none"
       transform="matrix(0.35277776,0,0,-0.35277776,65.782708,117.8531)"
       clip-path="url(#clipPath1278)" />
    <path
       id="path1279"
       d="m 0,0 c -0.217,2.058 -2.19,10.017 -3.426,11.267 -0.4,0.404 -1.044,0.574 -1.841,0.574 -3.463,0 -9.839,-3.196 -11.909,-4.283 -17.485,-9.177 -29.153,-26.423 -28.239,-46.445 -0.02,-0.557 0.182,-0.769 0.465,-0.769 0.412,0 0.995,0.447 1.312,0.926 3.42,5.165 6.373,10.718 10.5,15.398 3.618,4.103 7.565,7.736 11.899,11.177 l -9.109,-16.065 -4.527,-9.802 c 6.331,0.805 12.404,1.077 18.374,3.647 C -3.336,-28.711 1.417,-13.421 0,0"
       style="fill:#2eb81b;fill-opacity:1;fill-rule:nonzero;stroke:none"
       transform="matrix(0.35277776,0,0,-0.35277776,82.249105,126.96556)"
       clip-path="url(#clipPath1280)" />
    <path
       id="path1281"
       d="m 0,0 c 5.583,0.477 9.539,2.777 11.315,8.265 3.162,9.771 2.517,22.355 6.5,31.961 0.96,0.497 2.356,0.312 3.206,0.99 1.25,0.996 5.173,16.702 -0.215,16.702 L -59.508,57.41 c -4.604,0 -1.256,-12.195 -0.127,-14.898 1.187,-2.841 3.453,-1.334 4.754,-2.24 1.28,-0.892 4.625,-26.481 5.762,-30.601 1.82,-6.59 5.158,-9.078 12.007,-9.671 4.767,-0.413 11.622,-0.617 18.485,-0.617 6.908,0 13.824,0.207 18.627,0.617"
       style="fill:#2eb81b;fill-opacity:1;fill-rule:nonzero;stroke:none"
       transform="matrix(0.35277776,0,0,-0.35277776,71.07919,163.08475)"
       clip-path="url(#clipPath1282)" />
    <path
       id="path1283"
       d="m 0,0 h -14.689 c -2.997,-6.183 -4.669,-13.028 -4.699,-20.271 0.564,-0.501 1.229,-0.722 1.877,-0.884 0.231,-0.058 0.448,-0.144 0.658,-0.242 3.124,4.844 5.949,9.943 9.784,14.291 C -4.842,-4.58 -2.49,-2.234 0,0"
       style="fill:#2eb81b;fill-opacity:1;fill-rule:nonzero;stroke:none"
       transform="matrix(0.35277776,0,0,-0.35277776,73.052532,132.68987)"
       clip-path="url(#clipPath1284)" />
    <g
       id="g5"
       transform="matrix(0.24803544,0.07929205,-0.06065898,0.18974888,-7.5540526,53.078018)"
       style="fill:#2eb81b;fill-opacity:1">
      <path
         style="fill:#2eb81b;fill-opacity:1"
         d="m 246.984,19.991 c 2.754,0 4.995,-2.241 4.995,-4.996 0,-2.755 -2.241,-4.995 -4.995,-4.995 h -52.997 c -2.754,0 -4.996,2.241 -4.996,4.995 0,2.754 2.241,4.996 4.996,4.996 z"
         id="path1" />
      <path
         style="fill:#2eb81b;fill-opacity:1"
         d="m 215.109,69.532 0.001,7.053 h 10.859 l 0.004,-7.053 c -0.016,-2.139 1.33,-4.131 3.476,-4.807 7.235,-2.276 12.084,-7.501 15.348,-13.5 -6.837,5.059 -15.236,8.054 -24.312,8.054 -9.075,0 -17.473,-2.994 -24.31,-8.053 3.277,6.024 8.153,11.268 15.438,13.528 2.145,0.665 3.496,2.644 3.496,4.778 z"
         id="path2" />
      <polygon
         style="fill:#2eb81b;fill-opacity:1"
         points="225.963,86.585 215.111,86.585 215.131,240.083 225.876,240.083 "
         id="polygon2" />
      <path
         style="fill:#2eb81b;fill-opacity:1"
         d="m 230.83,327.217 c -2.761,0 -5,-2.239 -5,-5 h -0.001 l 0.041,-72.135 h -10.738 l 0.009,72.125 c 0,0.003 0.001,0.006 0.001,0.01 0,2.761 -2.239,5 -5,5 h -33.638 c -0.199,16.398 0.873,70.766 22.757,93.74 6.012,6.311 12.971,9.594 21.225,10.009 8.253,-0.415 15.212,-3.698 21.224,-10.009 21.884,-22.974 22.956,-77.343 22.757,-93.74 z m 13.781,15.395 -19.811,33.856 c -0.928,1.587 -2.596,2.472 -4.31,2.476 v 10e-4 c -0.002,0 -0.003,-10e-4 -0.005,-10e-4 -0.002,0 -0.003,10e-4 -0.005,10e-4 v -10e-4 c -1.714,-0.004 -3.382,-0.889 -4.31,-2.476 l -19.81,-33.857 c -1.395,-2.383 -0.593,-5.446 1.79,-6.84 2.383,-1.396 5.446,-0.593 6.84,1.79 l 15.494,26.481 15.495,-26.481 c 1.395,-2.384 4.457,-3.185 6.84,-1.79 2.385,1.394 3.186,4.457 1.792,6.841 z"
         id="path3" />
      <path
         style="fill:#2eb81b;fill-opacity:1"
         d="m 242.82,335.771 c -2.384,-1.395 -5.446,-0.593 -6.84,1.79 l -15.495,26.481 -15.494,-26.481 c -1.394,-2.383 -4.457,-3.186 -6.84,-1.79 -2.384,1.395 -3.185,4.457 -1.79,6.84 l 19.81,33.857 c 0.928,1.587 2.596,2.472 4.31,2.476 v 10e-4 c 0.002,0 0.003,-10e-4 0.005,-10e-4 0.001,0 0.003,10e-4 0.005,10e-4 v -10e-4 c 1.714,-0.004 3.382,-0.889 4.31,-2.476 l 19.811,-33.856 c 1.393,-2.384 0.592,-5.447 -1.792,-6.841 z"
         id="path4" />
      <path
         style="fill:#2eb81b;fill-opacity:1"
         d="M 269.344,317.217 H 235.829 V 72.986 c 24.6,-10.614 26.15,-57.953 26.15,-57.991 C 261.979,6.727 255.252,0 246.984,0 h -52.997 c -8.269,0 -14.996,6.727 -14.996,14.995 0,0.105 1.556,47.381 26.15,57.99 v 244.232 h -33.514 c -2.666,0 -4.863,2.092 -4.994,4.755 -0.151,3.076 -3.365,75.685 25.38,105.874 7.453,7.828 18.184,13.125 28.473,13.125 10.289,0 21.019,-5.297 28.472,-13.124 28.744,-30.189 25.53,-102.798 25.379,-105.875 -0.13,-2.662 -2.327,-4.755 -4.993,-4.755 z M 188.991,14.995 c 0,-2.754 2.241,-4.995 4.996,-4.995 h 52.997 c 2.754,0 4.995,2.241 4.995,4.995 0,2.754 -2.241,4.996 -4.995,4.996 h -52.997 c -2.754,0 -4.996,-2.241 -4.996,-4.996 z m 4.996,14.996 h 52.997 c 0.821,0 1.622,-0.084 2.408,-0.212 -4.844,11.461 -15.975,19.5 -28.907,19.5 -12.932,0 -24.063,-8.039 -28.907,-19.5 0.787,0.128 1.587,0.212 2.409,0.212 z m 2.188,21.235 c 6.837,5.059 15.235,8.053 24.31,8.053 9.076,0 17.474,-2.995 24.312,-8.054 -3.264,5.999 -8.113,11.225 -15.348,13.5 -2.147,0.675 -3.492,2.668 -3.476,4.807 l -0.004,7.053 H 215.11 l -0.001,-7.053 c 0.001,-2.133 -1.351,-4.112 -3.495,-4.778 -7.286,-2.261 -12.162,-7.504 -15.439,-13.528 z m 29.788,35.359 -0.087,153.497 h -10.745 l -0.02,-153.497 z m 15.747,334.372 c -6.011,6.311 -12.97,9.594 -21.224,10.009 -8.253,-0.415 -15.213,-3.698 -21.225,-10.009 -21.884,-22.974 -22.956,-77.342 -22.757,-93.74 h 33.638 c 2.761,0 5,-2.239 5,-5 0,-0.003 -0.001,-0.006 -0.001,-0.01 l -0.009,-72.125 h 10.738 l -0.041,72.135 h 0.001 c 0,2.761 2.239,5 5,5 h 33.637 c 0.199,16.398 -0.873,70.767 -22.757,93.74 z"
         id="path5" />
    </g>
  </g>
</svg>
