<?xml version="1.0" encoding="UTF-8" standalone="no"?>
<!-- Created with Inkscape (http://www.inkscape.org/) -->

<svg
   width="40.076965mm"
   height="73.376366mm"
   viewBox="0 0 40.076965 73.376366"
   version="1.1"
   id="svg1"
   inkscape:version="1.4.2 (ebf0e940, 2025-05-08)"
   sodipodi:docname="grandfather clock.svg"
   xmlns:inkscape="http://www.inkscape.org/namespaces/inkscape"
   xmlns:sodipodi="http://sodipodi.sourceforge.net/DTD/sodipodi-0.dtd"
   xmlns="http://www.w3.org/2000/svg"
   xmlns:svg="http://www.w3.org/2000/svg">
  <sodipodi:namedview
     id="namedview1"
     pagecolor="#ffffff"
     bordercolor="#000000"
     borderopacity="0.25"
     inkscape:showpageshadow="2"
     inkscape:pageopacity="0.0"
     inkscape:pagecheckerboard="0"
     inkscape:deskcolor="#d1d1d1"
     inkscape:document-units="mm"
     inkscape:zoom="0.78729098"
     inkscape:cx="74.305436"
     inkscape:cy="190.52676"
     inkscape:window-width="1712"
     inkscape:window-height="971"
     inkscape:window-x="0"
     inkscape:window-y="39"
     inkscape:window-maximized="1"
     inkscape:current-layer="layer1" />
  <defs
     id="defs1">
    <clipPath
       clipPathUnits="userSpaceOnUse"
       id="clipPath1911">
      <path
         d="M 0,276 H 276 V 0 H 0 Z"
         transform="translate(-137.99993,-150.3129)"
         id="path1911" />
    </clipPath>
    <clipPath
       clipPathUnits="userSpaceOnUse"
       id="clipPath1909">
      <path
         d="M 0,276 H 276 V 0 H 0 Z"
         transform="translate(-120.14228,-171.39471)"
         id="path1909" />
    </clipPath>
  </defs>
  <g
     inkscape:label="Layer 1"
     inkscape:groupmode="layer"
     id="layer1"
     transform="translate(-72.495773,-108.74375)">
    <path
       id="path1908"
       d="m 0,0 c -1.427,0 -2.788,0.826 -3.403,2.214 -0.832,1.879 0.016,4.076 1.894,4.908 l 15.88,7.034 10.846,19.098 c 1.014,1.786 3.285,2.412 5.071,1.397 1.787,-1.014 2.412,-3.285 1.398,-5.071 L 19.628,8.348 1.505,0.32 C 1.015,0.103 0.503,0 0,0"
       style="fill:#2eb81b;fill-opacity:1;fill-rule:nonzero;stroke:none"
       transform="matrix(0.35277776,0,0,-0.35277776,86.234473,133.65099)"
       clip-path="url(#clipPath1909)" />
    <path
       id="path1910"
       d="m 0,0 c -18.509,0 -33.514,15.005 -33.514,33.515 0,18.509 15.005,33.514 33.514,33.514 18.509,0 33.514,-15.005 33.514,-33.514 C 33.514,15.005 18.509,0 0,0 m 0,-85.785 c -9.017,0 -16.326,7.309 -16.326,16.326 0,7.634 5.247,14.026 12.326,15.812 v 36.538 h 8 v -36.537 c 7.079,-1.787 12.327,-8.179 12.327,-15.813 0,-9.017 -7.31,-16.326 -16.327,-16.326 M 46.402,-101.103 46.4,70.09 h 8.002 c 0,12.398 -1.449,21.595 -8.519,21.595 -27.169,0 -65.886,-0.06 -92.785,-0.06 -7.632,0 -8.304,-11.541 -8.304,-21.535 h 8.005 v -171.201 c 0,-0.549 -9.601,1.196 -9.601,-3.6 v -11.6 H 56.802 c -2.272,8.465 2.917,17.058 -10.4,15.208"
       style="fill:#2eb81b;fill-opacity:1;fill-rule:nonzero;stroke:none"
       transform="matrix(0.35277776,0,0,-0.35277776,92.534255,141.08818)"
       clip-path="url(#clipPath1911)" />
  </g>
</svg>
