<?xml version="1.0" encoding="UTF-8" standalone="no"?>
<!-- Created with Inkscape (http://www.inkscape.org/) -->

<svg
   width="56.084923mm"
   height="64.727173mm"
   viewBox="0 0 56.084923 64.727173"
   version="1.1"
   id="svg1"
   inkscape:version="1.4.2 (ebf0e940, 2025-05-08)"
   sodipodi:docname="laundry basket.svg"
   xmlns:inkscape="http://www.inkscape.org/namespaces/inkscape"
   xmlns:sodipodi="http://sodipodi.sourceforge.net/DTD/sodipodi-0.dtd"
   xmlns="http://www.w3.org/2000/svg"
   xmlns:svg="http://www.w3.org/2000/svg">
  <sodipodi:namedview
     id="namedview1"
     pagecolor="#ffffff"
     bordercolor="#000000"
     borderopacity="0.25"
     inkscape:showpageshadow="2"
     inkscape:pageopacity="0.0"
     inkscape:pagecheckerboard="0"
     inkscape:deskcolor="#d1d1d1"
     inkscape:document-units="mm"
     inkscape:zoom="2.1000682"
     inkscape:cx="138.32884"
     inkscape:cy="87.616201"
     inkscape:window-width="1712"
     inkscape:window-height="971"
     inkscape:window-x="0"
     inkscape:window-y="39"
     inkscape:window-maximized="1"
     inkscape:current-layer="layer1" />
  <defs
     id="defs1">
    <clipPath
       clipPathUnits="userSpaceOnUse"
       id="clipPath643">
      <path
         d="M 0,276 H 276 V 0 H 0 Z"
         transform="translate(-69.298127,-214.02401)"
         id="path643" />
    </clipPath>
    <clipPath
       clipPathUnits="userSpaceOnUse"
       id="clipPath641">
      <path
         d="M 0,276 H 276 V 0 H 0 Z"
         transform="translate(-167.2326,-95.530802)"
         id="path641" />
    </clipPath>
  </defs>
  <g
     inkscape:label="Layer 1"
     inkscape:groupmode="layer"
     id="layer1"
     transform="translate(-80.433322,-127.78071)">
    <path
       id="path640"
       d="M 0,0 C -8.305,-1.92 -6.78,-17.138 3.449,-15.967 14.134,-14.745 12.545,2.9 0,0 m -31.187,-0.01 c -9.071,-1.832 -6.721,-17.457 3.439,-15.957 10.329,1.525 8.315,18.331 -3.439,15.957 m -31.825,-10e-4 c -9.295,-1.896 -6.604,-17.048 2.812,-15.96 11.081,1.28 8.84,18.337 -2.812,15.96 M 2.515,31.808 C -7.62,30.069 -5.592,14.065 4.707,14.636 16.031,15.264 15.196,33.984 2.515,31.808 m -33.072,0 c -10.311,-1.767 -8.219,-17.737 2.191,-17.173 11.604,0.627 9.903,19.245 -2.191,17.173 m -33.696,0 c -10.317,-1.776 -8.214,-17.736 2.191,-17.173 11.399,0.616 10.329,19.328 -2.191,17.173 M 3.136,64.235 C -5.771,62.584 -5.669,48.406 3.654,46.962 17.558,44.809 17.588,66.914 3.136,64.235 m -34.948,0.006 c -8.891,-1.833 -7.925,-17.028 2.348,-17.377 12.746,-0.433 12.284,20.394 -2.348,17.377 m -34.956,0.012 c -2.76,-0.633 -5.768,-4.971 -6.029,-7.741 -0.901,-9.584 12.99,-13.818 16.94,-4.414 3.134,7.458 -3.146,13.934 -10.911,12.155 M 41.469,84.348 c 0.922,0 1.757,-0.691 1.794,-1.612 0.007,-0.17 -0.01,-0.333 -0.056,-0.478 -5.62,-31.814 -6.647,-65.714 -12.533,-97.322 -1.508,-8.094 -5.01,-13.537 -11.509,-16.539 -2.909,-1.343 -6.104,-1.952 -9.308,-1.952 h -79.902 c -5.655,0 -10.91,2.917 -14.386,7.324 -2.18,2.765 -3.468,6.129 -3.913,9.622 l -12.593,98.804 c -0.2,0.658 -0.273,2.153 1.581,2.153 z"
       style="fill:#2eb81b;fill-opacity:1;fill-rule:nonzero;stroke:none"
       transform="matrix(0.35277776,0,0,-0.35277776,118.7883,180.67043)"
       clip-path="url(#clipPath641)" />
    <path
       id="path642"
       d="m 0,0 h 136.486 c 15.742,0 15.475,-25.405 0,-25.405 H 0.515 C -14.406,-25.405 -14.531,0 0,0"
       style="fill:#2eb81b;fill-opacity:1;fill-rule:nonzero;stroke:none"
       transform="matrix(0.35277776,0,0,-0.35277776,84.239196,138.86866)"
       clip-path="url(#clipPath643)"
       sodipodi:nodetypes="csssc" />
    <path
       style="fill:#2eb81b;fill-opacity:1;stroke-width:3.175;stroke-linecap:round"
       id="path1"
       d="m 131.3939,137.32433 c -5.53851,-3.57669 -4.35392,-5.76147 -8.93992,-3.93554 -0.99562,0.45204 -1.86357,1.08894 -2.67306,1.82168 -0.12157,0.0743 -0.23388,0.16649 -0.36471,0.22293 -4.73124,-1.02636 -3.44355,-0.97182 -5.62435,-2.23433 -0.34546,-0.19999 -0.6182,-0.50516 -0.92731,-0.75775 -0.47334,-0.39024 -1.06767,-0.88923 -1.56218,-1.26416 -1.68419,-1.2769 -3.53983,-2.36735 -5.50601,-3.14182 -0.38847,-0.11046 -0.61573,-0.19237 -1.02777,-0.23309 -0.90618,-0.0895 -1.81713,0.12074 -2.70759,0.24915 -2.444586,0.52122 -4.803667,1.36159 -7.152046,2.20662 -2.787477,1.03828 -6.597267,6.04927 -9.399429,7.04747 21.803695,-0.14619 32.603175,0.0725 45.884375,0.0188 z"
       sodipodi:nodetypes="ccccsccccccccc" />
  </g>
</svg>
