<?xml version="1.0" encoding="UTF-8" standalone="no"?>
<!-- Created with Inkscape (http://www.inkscape.org/) -->

<svg
   width="60.732212mm"
   height="73.381783mm"
   viewBox="0 0 60.732212 73.381783"
   version="1.1"
   id="svg1"
   inkscape:version="1.4.2 (ebf0e940, 2025-05-08)"
   sodipodi:docname="mailbox.svg"
   xmlns:inkscape="http://www.inkscape.org/namespaces/inkscape"
   xmlns:sodipodi="http://sodipodi.sourceforge.net/DTD/sodipodi-0.dtd"
   xmlns="http://www.w3.org/2000/svg"
   xmlns:svg="http://www.w3.org/2000/svg">
  <sodipodi:namedview
     id="namedview1"
     pagecolor="#ffffff"
     bordercolor="#000000"
     borderopacity="0.25"
     inkscape:showpageshadow="2"
     inkscape:pageopacity="0.0"
     inkscape:pagecheckerboard="0"
     inkscape:deskcolor="#d1d1d1"
     inkscape:document-units="mm"
     inkscape:zoom="0.01"
     inkscape:cx="150"
     inkscape:cy="150"
     inkscape:window-width="896"
     inkscape:window-height="204"
     inkscape:window-x="0"
     inkscape:window-y="39"
     inkscape:window-maximized="0"
     inkscape:current-layer="layer1" />
  <defs
     id="defs1">
    <clipPath
       clipPathUnits="userSpaceOnUse"
       id="clipPath4608">
      <path
         d="M 0,276 H 276 V 0 H 0 Z"
         id="path4608" />
    </clipPath>
    <clipPath
       clipPathUnits="userSpaceOnUse"
       id="clipPath4606">
      <path
         d="M 0,276 H 276 V 0 H 0 Z"
         transform="translate(-224.05051,-111.4005)"
         id="path4606" />
    </clipPath>
    <clipPath
       clipPathUnits="userSpaceOnUse"
       id="clipPath4604">
      <path
         d="M 0,276 H 276 V 0 H 0 Z"
         transform="translate(-163.575,-162.69171)"
         id="path4604" />
    </clipPath>
  </defs>
  <g
     inkscape:label="Layer 1"
     inkscape:groupmode="layer"
     id="layer1"
     transform="translate(-62.177001,-108.74374)">
    <path
       id="path4603"
       d="m 0,0 c 0,-6.041 -12.465,-6.272 -12.465,0.036 l -0.042,74.081 c -0.028,2.706 2.281,5.187 4.804,5.187 10.61,0 23.456,0.01 33.737,0.01 2.466,0 4.08,-1.942 4.372,-4.371 0.484,-4.029 0.453,-15.096 -0.01,-19.157 -0.171,-1.506 -1.423,-4.37 -3.123,-4.37 L 0,51.416 Z"
       style="fill:#2eb81b;fill-opacity:1;fill-rule:nonzero;stroke:none"
       transform="matrix(0.35277776,0,0,-0.35277776,101.56535,136.72396)"
       clip-path="url(#clipPath4604)" />
    <path
       id="path4605"
       d="m 0,0 c 0,19.948 0.015,40.181 0.015,61.188 0,13.724 -13.199,30.186 -27.918,30.186 H -53.878 V 51.555 c 0,-6.988 -6.545,-11.308 -13.485,-11.308 -7.661,0 -13.07,5.966 -13.07,11.308 v 39.819 h -38.042 c 3.685,-1.765 7.101,-4.11 10.123,-6.99 7.531,-7.18 11.851,-17.024 11.851,-27.01 0,-9.339 0.005,-18.631 0.009,-27.943 0.004,-9.352 0.009,-18.725 0.009,-28.183 V 1.12 l -0.009,-0.128 c -0.174,-2.628 -0.86,-4.855 -1.957,-6.569 h 17.244 v -68.289 c 0,-1.559 1.252,-2.996 3.648,-3.279 2.342,-0.277 13.744,-0.412 15.791,-0.002 1.404,0.281 2.498,1.882 2.498,3.281 V -5.577 H -4.427 C -3.04,-5.577 0.362,-1.769 0,0"
       style="fill:#2eb81b;fill-opacity:1;fill-rule:nonzero;stroke:none"
       transform="matrix(0.35277776,0,0,-0.35277776,122.89976,154.81836)"
       clip-path="url(#clipPath4606)" />
    <path
       id="path4607"
       d="M 104.447,155.278 H 65.192 v 11.37 h 39.255 z m 17.252,13.496 c 0,9.119 -4.022,17.898 -10.658,24.223 -21.34,20.342 -58.679,6.966 -58.679,-21.928 0,-18.778 -0.439,-39.96 -0.439,-59.189 0.328,-3.077 2.359,-5.838 5.635,-6.057 l 59.29,0.001 c 3.511,0.138 4.67,3.838 4.869,6.824 0,18.876 -0.018,37.409 -0.018,56.126"
       style="fill:#2eb81b;fill-opacity:1;fill-rule:nonzero;stroke:none"
       transform="matrix(0.35277776,0,0,-0.35277776,43.859721,194.11798)"
       clip-path="url(#clipPath4608)" />
  </g>
</svg>
