<?xml version="1.0" encoding="UTF-8" standalone="no"?>
<!-- Created with Inkscape (http://www.inkscape.org/) -->

<svg
   width="211.66667mm"
   height="159.06833mm"
   viewBox="0 0 211.66667 159.06833"
   version="1.1"
   id="svg1"
   xml:space="preserve"
   sodipodi:docname="moving.svg"
   inkscape:version="1.4.2 (ebf0e940, 2025-05-08)"
   xmlns:inkscape="http://www.inkscape.org/namespaces/inkscape"
   xmlns:sodipodi="http://sodipodi.sourceforge.net/DTD/sodipodi-0.dtd"
   xmlns="http://www.w3.org/2000/svg"
   xmlns:svg="http://www.w3.org/2000/svg"><sodipodi:namedview
     id="namedview1"
     pagecolor="#ffffff"
     bordercolor="#000000"
     borderopacity="0.25"
     inkscape:showpageshadow="2"
     inkscape:pageopacity="0.0"
     inkscape:pagecheckerboard="0"
     inkscape:deskcolor="#d1d1d1"
     inkscape:document-units="mm"
     inkscape:zoom="0.85284811"
     inkscape:cx="630.24118"
     inkscape:cy="383.42115"
     inkscape:window-width="1712"
     inkscape:window-height="971"
     inkscape:window-x="0"
     inkscape:window-y="39"
     inkscape:window-maximized="1"
     inkscape:current-layer="svg1" /><defs
     id="defs1"><inkscape:path-effect
   effect="fillet_chamfer"
   id="path-effect4"
   is_visible="true"
   lpeversion="1"
   nodesatellites_param="F,0,0,1,0,5.6073894,0,1 @ F,0,0,1,0,5.6073894,0,1 @ F,0,0,1,0,0,0,1 @ F,0,0,1,0,5.6073894,0,1 @ F,0,0,1,0,0,0,1 @ F,0,0,1,0,5.6073894,0,1 @ F,0,0,1,0,5.6073894,0,1 @ F,0,0,1,0,5.6073894,0,1 @ F,0,0,1,0,5.6073894,0,1 | F,0,0,1,0,5.6073894,0,1 @ F,0,0,1,0,5.6073894,0,1 @ F,0,0,1,0,5.6073894,0,1 @ F,0,0,1,0,5.6073894,0,1 @ F,0,0,1,0,5.6073894,0,1"
   radius="0"
   unit="px"
   method="auto"
   mode="F"
   chamfer_steps="1"
   flexible="false"
   use_knot_distance="true"
   apply_no_radius="true"
   apply_with_radius="true"
   only_selected="false"
   hide_knots="false" /><inkscape:path-effect
   effect="fillet_chamfer"
   id="path-effect3"
   is_visible="true"
   lpeversion="1"
   nodesatellites_param="F,0,0,1,0,0,0,1 @ F,0,0,1,0,0,0,1 @ F,0,0,1,0,0,0,1 @ F,0,0,1,0,0,0,1"
   radius="0"
   unit="px"
   method="auto"
   mode="F"
   chamfer_steps="1"
   flexible="false"
   use_knot_distance="true"
   apply_no_radius="true"
   apply_with_radius="true"
   only_selected="false"
   hide_knots="false" /><inkscape:path-effect
   effect="fillet_chamfer"
   id="path-effect2"
   is_visible="true"
   lpeversion="1"
   nodesatellites_param="F,0,0,1,0,0,0,1 @ F,0,0,1,0,0,0,1 @ F,0,0,1,0,0,0,1 @ F,0,0,1,0,0,0,1"
   radius="0"
   unit="px"
   method="auto"
   mode="F"
   chamfer_steps="1"
   flexible="false"
   use_knot_distance="true"
   apply_no_radius="true"
   apply_with_radius="true"
   only_selected="false"
   hide_knots="false" /><inkscape:path-effect
   effect="fillet_chamfer"
   id="path-effect1"
   is_visible="true"
   lpeversion="1"
   nodesatellites_param="F,0,0,1,0,11.350232,0,1 @ F,0,0,1,0,11.350232,0,1 @ F,0,0,1,0,0,0,1 @ F,0,0,1,0,11.350232,0,1 @ F,0,0,1,0,0,0,1 @ F,0,0,1,0,11.350232,0,1 @ F,0,0,1,0,11.350232,0,1 | F,0,0,1,0,11.350232,0,1 @ F,0,0,1,0,11.350232,0,1 @ F,0,0,1,0,11.350232,0,1 @ F,0,0,1,0,11.350232,0,1 @ F,0,0,1,0,11.350232,0,1 @ F,0,0,1,0,11.350232,0,1 @ F,0,0,1,0,11.350232,0,1 @ F,0,0,1,0,11.350232,0,1 @ F,0,0,1,0,11.350232,0,1"
   radius="0"
   unit="px"
   method="auto"
   mode="F"
   chamfer_steps="1"
   flexible="false"
   use_knot_distance="true"
   apply_no_radius="true"
   apply_with_radius="true"
   only_selected="false"
   hide_knots="false" /><inkscape:path-effect
   effect="fillet_chamfer"
   id="path-effect10"
   is_visible="true"
   lpeversion="1"
   nodesatellites_param=""
   radius="0"
   unit="px"
   method="auto"
   mode="F"
   chamfer_steps="1"
   flexible="false"
   use_knot_distance="true"
   apply_no_radius="true"
   apply_with_radius="true"
   only_selected="false"
   hide_knots="false" /><inkscape:path-effect
   effect="fillet_chamfer"
   id="path-effect9"
   is_visible="true"
   lpeversion="1"
   nodesatellites_param="F,0,0,1,0,0,0,1 @ F,0,0,1,0,0,0,1 @ F,0,0,1,0,0,0,1 @ F,0,0,1,0,0,0,1 @ F,0,0,1,0,0,0,1 @ F,0,0,1,0,0,0,1 @ F,0,0,1,0,0,0,1 @ F,0,0,1,0,0,0,1 @ F,0,0,1,0,0,0,1 | F,0,0,1,0,0,0,1 @ F,0,0,1,0,0,0,1 @ F,0,0,1,0,0,0,1 @ F,0,0,1,0,0,0,1 @ F,0,0,1,0,0,0,1"
   radius="0"
   unit="px"
   method="auto"
   mode="F"
   chamfer_steps="1"
   flexible="false"
   use_knot_distance="true"
   apply_no_radius="true"
   apply_with_radius="true"
   only_selected="false"
   hide_knots="false" /><clipPath
   clipPathUnits="userSpaceOnUse"
   id="clipPath2425"><path
     d="M 0,276 H 276 V 0 H 0 Z"
     transform="translate(-100.7178,-159.3855)"
     id="path2425" /></clipPath><clipPath
   clipPathUnits="userSpaceOnUse"
   id="clipPath2423"><path
     d="M 0,276 H 276 V 0 H 0 Z"
     transform="translate(-67.914077,-131.6826)"
     id="path2423" /></clipPath><clipPath
   clipPathUnits="userSpaceOnUse"
   id="clipPath2421"><path
     d="M 0,276 H 276 V 0 H 0 Z"
     transform="translate(-179.87948,-125.7028)"
     id="path2421" /></clipPath><clipPath
   clipPathUnits="userSpaceOnUse"
   id="clipPath2419"><path
     d="M 0,276 H 276 V 0 H 0 Z"
     transform="translate(-217.46303,-104.94201)"
     id="path2419" /></clipPath>
	
</defs><path
     d="m 134.334,370.83 c -21.381,0 -38.777,17.396 -38.777,38.778 0,21.382 17.396,38.777 38.777,38.777 21.382,0 38.778,-17.395 38.778,-38.777 0,-21.383 -17.395,-38.778 -38.778,-38.778 z"
     id="path4"
     style="fill:#2eb81b;fill-opacity:1"
     transform="matrix(0.41341146,0,0,0.41341146,0,-26.29917)"
     inkscape:path-effect="#path-effect3"
     inkscape:original-d="m 134.334,370.83 c -21.381,0 -38.777,17.396 -38.777,38.778 0,21.382 17.396,38.777 38.777,38.777 21.382,0 38.778,-17.395 38.778,-38.777 0,-21.383 -17.395,-38.778 -38.778,-38.778 z" /><path
     d="m 419.486,370.83 c -21.381,0 -38.777,17.396 -38.777,38.778 0,21.382 17.396,38.777 38.777,38.777 21.382,0 38.778,-17.395 38.778,-38.777 0,-21.383 -17.396,-38.778 -38.778,-38.778 z"
     id="path6"
     style="fill:#2eb81b;fill-opacity:1"
     transform="matrix(0.41341146,0,0,0.41341146,0,-26.29917)"
     inkscape:path-effect="#path-effect2"
     inkscape:original-d="m 419.486,370.83 c -21.381,0 -38.777,17.396 -38.777,38.778 0,21.382 17.396,38.777 38.777,38.777 21.382,0 38.778,-17.395 38.778,-38.777 0,-21.383 -17.396,-38.778 -38.778,-38.778 z" /><path
     d="M 0,74.965232 V 383.04577 A 11.350232,11.350232 45 0 0 11.350232,394.396 H 66.846 c 6.139682,-27.25235 28.391774,-48.47326 56.18903,-53.06037 6.17801,-1.0195 16.42193,-1.0195 22.59994,-10e-6 27.7979,4.58718 50.04944,25.80883 56.19003,53.06038 h 99.43877 A 11.350232,11.350232 135 0 0 312.614,383.04577 V 74.965232 A 11.350232,11.350232 45 0 0 301.26377,63.615 H 11.350232 A 11.350232,11.350232 135 0 0 0,74.965232 Z M 207.943,210.371 v 64.95077 A 11.350232,11.350232 135 0 1 196.59277,286.672 H 107.05923 A 11.350232,11.350232 45 0 1 95.709,275.32177 V 221.72123 A 9.202349,9.202349 60.709419 0 0 89.342,210.371 6.3750263,6.3750263 99.994914 0 1 79.398167,202.39077 l 64.356663,-63.63154 a 11.479504,11.479504 1.7792911e-4 0 1 16.14229,5e-5 l 64.35576,63.63144 a 4.6638367,4.6638367 112.33787 0 1 -3.27911,7.98028 z"
     id="path1"
     style="fill:#2eb81b;fill-opacity:1"
     transform="matrix(0.41341146,0,0,0.41341146,0,-26.29917)"
     inkscape:path-effect="#path-effect1"
     inkscape:original-d="m 0,63.615 v 330.781 h 66.846 c 6.952,-30.858 34.562,-53.983 67.489,-53.983 32.928,0 60.537,23.126 67.49,53.983 H 312.614 V 63.615 Z m 214.31,146.756 h -6.367 v 76.301 H 95.709 V 210.371 H 89.342 71.327 l 80.499,-79.592 80.498,79.592 z"
     sodipodi:nodetypes="cccscccccccccccccc" /><path
     id="path2"
     style="fill:#2eb81b;fill-opacity:1"
     d="m 334.07,206.10239 v 182.68647 a 5.6073894,5.6073894 45 0 0 5.60739,5.60739 h 12.32011 c 6.5539,-29.09096 31.46853,-51.30987 61.88862,-53.75914 3.08606,-0.24848 8.1167,-0.24848 11.20276,-1e-5 30.42079,2.44932 55.33376,24.66909 61.88862,53.75915 h 19.41511 A 5.6073894,5.6073894 135 0 0 512,388.78886 V 288.17489 a 7.609884,7.609884 53.615129 0 0 -5.35574,-7.26837 l -58.06602,-18.00804 a 11.140711,11.140711 43.947476 0 1 -7.21232,-6.9521 l -17.60059,-50.16026 a 7.9101271,7.9101271 35.332347 0 0 -7.46397,-5.29112 h -76.62397 a 5.6073894,5.6073894 135 0 0 -5.60739,5.60739 z m 80.94659,11.80599 c 4.02983,12.55937 8.39026,28.83524 12.2304,41.49261 0.8989,2.96285 -0.80599,5.73715 -3.87883,5.86174 -14.2778,0.5789 -52.30312,0.69769 -68.4111,0.0447 -3.09381,-0.12541 -6.14392,-0.46742 -6.15456,-0.90371 l -1.14325,-46.86322 c -0.0755,-3.09595 2.37353,-5.57176 5.47015,-5.53153 11.63722,0.15116 38.64711,0.48697 54.51104,0.563 3.09667,0.0148 6.43002,2.38764 7.37615,5.33638 z"
     transform="matrix(0.41341146,0,0,0.41341146,0,-26.29917)"
     sodipodi:nodetypes="cccscccccccssscc"
     inkscape:path-effect="#path-effect4"
     inkscape:original-d="m 334.07,200.495 v 193.90125 h 17.9275 c 6.952,-30.858 34.563,-53.98375 67.49,-53.98375 32.928,0 60.537,23.12675 67.49,53.98375 H 512 V 282.5675 l -68.7775,-21.33 -21.31375,-60.7425 z m 79.1775,12.0925 c 5.07205,14.64077 10.91169,37.35434 15.66579,52.1663 0.35288,1.09946 -67.6145,1.45189 -79.55204,0.2087 -0.30797,-0.0321 -0.5512,-0.2492 -0.55875,-0.55875 l -1.28,-52.46894 c 0,0 47.85129,0.65236 65.725,0.65269 z" /></svg>
