<?xml version="1.0" encoding="UTF-8" standalone="no"?>
<!-- Created with Inkscape (http://www.inkscape.org/) -->

<svg
   width="177.8mm"
   height="194.73334mm"
   viewBox="0 0 177.8 194.73334"
   version="1.1"
   id="svg1"
   xml:space="preserve"
   inkscape:version="1.4.2 (ebf0e940, 2025-05-08)"
   sodipodi:docname="oven hob.svg"
   xmlns:inkscape="http://www.inkscape.org/namespaces/inkscape"
   xmlns:sodipodi="http://sodipodi.sourceforge.net/DTD/sodipodi-0.dtd"
   xmlns="http://www.w3.org/2000/svg"
   xmlns:svg="http://www.w3.org/2000/svg"><sodipodi:namedview
     id="namedview1"
     pagecolor="#ffffff"
     bordercolor="#000000"
     borderopacity="0.25"
     inkscape:showpageshadow="2"
     inkscape:pageopacity="0.0"
     inkscape:pagecheckerboard="0"
     inkscape:deskcolor="#d1d1d1"
     inkscape:document-units="mm"
     inkscape:zoom="0.59065421"
     inkscape:cx="383.4731"
     inkscape:cy="292.89557"
     inkscape:window-width="1712"
     inkscape:window-height="971"
     inkscape:window-x="0"
     inkscape:window-y="39"
     inkscape:window-maximized="1"
     inkscape:current-layer="g1" /><defs
     id="defs1" /><g
     inkscape:label="Layer 1"
     inkscape:groupmode="layer"
     id="layer1"
     transform="translate(-15.19161,-41.099396)"><g
       style="fill:#2eb81b;fill-opacity:0.909804"
       id="g1"
       transform="matrix(4.2333333,0,0,4.2333333,-1.7417228,32.632729)"><path
         d="m 11.25,2 c -1.103,0 -2,0.897 -2,2 H 7 C 5.346,4 4,5.346 4,7 v 35 c 0,1.654 1.346,3 3,3 h 2 v 1 c 0,1.103 0.897,2 2,2 h 3 c 1.103,0 2,-0.897 2,-2 v -1 h 18 v 1 c 0,1.103 0.897,2 2,2 h 3 c 1.103,0 2,-0.897 2,-2 v -1 h 2 c 1.654,0 3,-1.346 3,-3 V 7 C 46,5.346 44.654,4 43,4 h -2.375 c 0,-1.103 -0.897,-2 -2,-2 H 30.25 c -1.103,0 -2,0.897 -2,2 h -5.875 c 0,-1.103 -0.897,-2 -2,-2 z M 10,8 c 1.105,0 2,0.895 2,2 0,1.105 -0.895,2 -2,2 C 8.895,12 8,11.105 8,10 8,8.895 8.895,8 10,8 Z m 6,0 c 1.105,0 2,0.895 2,2 0,1.105 -0.895,2 -2,2 -1.105,0 -2,-0.895 -2,-2 0,-1.105 0.895,-2 2,-2 z m 6,0 c 1.105,0 2,0.895 2,2 0,1.105 -0.895,2 -2,2 -1.105,0 -2,-0.895 -2,-2 0,-1.105 0.895,-2 2,-2 z m 6,0 c 1.105,0 2,0.895 2,2 0,1.105 -0.895,2 -2,2 -1.105,0 -2,-0.895 -2,-2 0,-1.105 0.895,-2 2,-2 z m 12,0 c 1.105,0 2,0.895 2,2 0,1.105 -0.895,2 -2,2 -1.105,0 -2,-0.895 -2,-2 0,-1.105 0.895,-2 2,-2 z M 10,15 H 40 V 33 H 34.195312 C 35.309669,31.759222 36,30.043096 36,28.150391 v -0.302735 c 0,-0.983 -0.376516,-2.276937 -0.853516,-3.335937 0.151,-0.58 0.27175,-1.18875 0.34375,-1.84375 0.05,-0.448 -0.04228,-0.891063 -0.238281,-1.289063 l 1.304688,-1.496094 C 36.690641,19.952813 36.838,20 37,20 c 0.552,0 1,-0.448 1,-1 0,-0.552 -0.448,-1 -1,-1 0,-0.552 -0.448,-1 -1,-1 -0.552,0 -1,0.448 -1,1 0,0.174 0.05677,0.328703 0.134766,0.470703 l -1.431641,1.638672 c -0.421,-0.116 -0.862344,-0.130906 -1.277344,-0.0039 -0.725,0.222 -1.403344,0.52639 -2.027343,0.90039 -0.888001,0.698 -2.145766,1.995094 -2.634766,3.996094 -0.112,0.457 -0.520703,0.761719 -0.970703,0.761719 -0.079,0 -0.158282,-0.0083 -0.238281,-0.02734 -0.536001,-0.131 -0.865376,-0.672984 -0.734376,-1.208984 0.359,-1.471 1.029954,-2.631344 1.751954,-3.527344 H 20.863281 C 17.078281,21 14,24.447594 14,28.683594 14,30.352586 14.587454,31.869489 15.539062,33 H 10 Z m 9,13 h 3 c 0.553,0 1,0.447 1,1 0,0.553 -0.447,1 -1,1 h -2 c 0,0.553 -0.447,1 -1,1 -0.553,0 -1,-0.447 -1,-1 v -1 c 0,-0.553 0.447,-1 1,-1 z m -9,7 h 30 v 4 H 10 Z"
         id="path1-0"
         style="fill:#2eb81b;fill-opacity:0.909804"
         sodipodi:nodetypes="scsssscssssccsssscsssscssccsssssssssssssssssssssssssssccccssccccsscsscccccsccccscccsssscssssccccc" /></g></g></svg>
