<?xml version="1.0" encoding="UTF-8" standalone="no"?>
<!-- Created with Inkscape (http://www.inkscape.org/) -->

<svg
   width="64.894203mm"
   height="64.130096mm"
   viewBox="0 0 64.894203 64.130096"
   version="1.1"
   id="svg1"
   inkscape:version="1.4.2 (ebf0e940, 2025-05-08)"
   sodipodi:docname="picture frames.svg"
   xmlns:inkscape="http://www.inkscape.org/namespaces/inkscape"
   xmlns:sodipodi="http://sodipodi.sourceforge.net/DTD/sodipodi-0.dtd"
   xmlns="http://www.w3.org/2000/svg"
   xmlns:svg="http://www.w3.org/2000/svg">
  <sodipodi:namedview
     id="namedview1"
     pagecolor="#ffffff"
     bordercolor="#000000"
     borderopacity="0.25"
     inkscape:showpageshadow="2"
     inkscape:pageopacity="0.0"
     inkscape:pagecheckerboard="0"
     inkscape:deskcolor="#d1d1d1"
     inkscape:document-units="mm"
     inkscape:zoom="0.62892887"
     inkscape:cx="557.29673"
     inkscape:cy="380.01118"
     inkscape:window-width="1712"
     inkscape:window-height="971"
     inkscape:window-x="0"
     inkscape:window-y="39"
     inkscape:window-maximized="1"
     inkscape:current-layer="layer1" />
  <defs
     id="defs1">
    <clipPath
       clipPathUnits="userSpaceOnUse"
       id="clipPath2557">
      <path
         d="M 0,276 H 276 V 0 H 0 Z"
         transform="translate(-116.0613,-85.705)"
         id="path2557" />
    </clipPath>
    <clipPath
       clipPathUnits="userSpaceOnUse"
       id="clipPath2555">
      <path
         d="M 0,276 H 276 V 0 H 0 Z"
         transform="translate(-109.60313,-188.23461)"
         id="path2555" />
    </clipPath>
    <clipPath
       clipPathUnits="userSpaceOnUse"
       id="clipPath2553">
      <path
         d="M 0,276 H 276 V 0 H 0 Z"
         transform="translate(-195.97508,-110.9541)"
         id="path2553" />
    </clipPath>
  </defs>
  <g
     inkscape:label="Layer 1"
     inkscape:groupmode="layer"
     id="layer1"
     transform="translate(3842.5438,2069.3063)">
    <path
       id="path2549"
       d="m -3838.4939,-2041.2869 h 24.9382 v -23.9695 h -24.9382 z m 28.9878,4.0495 h -33.0377 v -32.0689 h 33.0377 z"
       style="fill:#2eb81b;fill-opacity:1;fill-rule:nonzero;stroke:none;stroke-width:0.352778" />
    <path
       id="path2550"
       d="m -3801.6374,-2016.8803 h 19.9383 v -32.2495 h -19.9383 z m 23.9878,4.0495 h -28.0373 v -40.3489 h 28.0373 z"
       style="fill:#2eb81b;fill-opacity:1;fill-rule:nonzero;stroke:none;stroke-width:0.352778" />
    <path
       id="path2551"
       d="m -3832.3457,-2009.2261 h 18.7897 v -19.1332 h -18.7897 z m 22.8396,4.0499 h -26.8891 v -27.2327 h 26.8891 z"
       style="fill:#2eb81b;fill-opacity:1;fill-rule:nonzero;stroke:none;stroke-width:0.352778" />
    <path
       id="path2552"
       d="M 0,0 V -10.751 H -10.751 V 0 c -10.144,-0.7 -16.326,7.884 -14.989,17.499 1.146,8.243 14.541,16.951 19.746,23.304 0.868,0.168 1.178,-0.588 1.714,-0.999 C -1.339,37.546 9.375,26.907 11.465,24.008 18.471,14.291 12.515,-0.661 0,0"
       style="fill:#2eb81b;fill-opacity:1;fill-rule:nonzero;stroke:none"
       transform="matrix(0.35277776,0,0,-0.35277776,-3789.6443,-2027.7001)"
       clip-path="url(#clipPath2553)" />
    <path
       id="path2554"
       d="m 0,0 c 0.144,-0.166 3.2,-0.641 4.239,-1.137 8.565,-4.086 6.157,-17.226 -2.706,-20.245 -4.477,-1.525 -28.079,-1.552 -33.326,-0.733 -15.645,2.445 -15.055,26.193 2.057,26.997 1.05,0.049 3.512,-0.971 3.857,-0.651 0.274,0.254 1.333,4.87 2.872,6.811 6.32,7.966 20.485,5.533 22.619,-4.618 C -0.064,4.885 -0.211,0.243 0,0"
       style="fill:#2eb81b;fill-opacity:1;fill-rule:nonzero;stroke:none"
       transform="matrix(0.35277776,0,0,-0.35277776,-3820.1144,-2054.9629)"
       clip-path="url(#clipPath2555)" />
    <path
       id="path2556"
       d="m 0,0 c 0,8.007 -6.491,14.498 -14.498,14.498 -8.007,0 -14.497,-6.491 -14.497,-14.498 0,-8.007 6.49,-14.498 14.497,-14.498 C -6.491,-14.498 0,-8.007 0,0"
       style="fill:#2eb81b;fill-opacity:1;fill-rule:nonzero;stroke:none"
       transform="matrix(0.35277776,0,0,-0.35277776,-3817.8361,-2018.7928)"
       clip-path="url(#clipPath2557)" />
  </g>
</svg>
