<?xml version="1.0" encoding="UTF-8" standalone="no"?>
<!-- Created with Inkscape (http://www.inkscape.org/) -->

<svg
   width="64.907936mm"
   height="60.775475mm"
   viewBox="0 0 64.907936 60.775475"
   version="1.1"
   id="svg1"
   inkscape:version="1.4.2 (ebf0e940, 2025-05-08)"
   sodipodi:docname="radiator.svg"
   xmlns:inkscape="http://www.inkscape.org/namespaces/inkscape"
   xmlns:sodipodi="http://sodipodi.sourceforge.net/DTD/sodipodi-0.dtd"
   xmlns="http://www.w3.org/2000/svg"
   xmlns:svg="http://www.w3.org/2000/svg">
  <sodipodi:namedview
     id="namedview1"
     pagecolor="#ffffff"
     bordercolor="#000000"
     borderopacity="0.25"
     inkscape:showpageshadow="2"
     inkscape:pageopacity="0.0"
     inkscape:pagecheckerboard="0"
     inkscape:deskcolor="#d1d1d1"
     inkscape:document-units="mm"
     inkscape:zoom="0.73963127"
     inkscape:cx="152.10282"
     inkscape:cy="224.43616"
     inkscape:window-width="1712"
     inkscape:window-height="971"
     inkscape:window-x="0"
     inkscape:window-y="39"
     inkscape:window-maximized="1"
     inkscape:current-layer="layer1" />
  <defs
     id="defs1">
    <clipPath
       clipPathUnits="userSpaceOnUse"
       id="clipPath2036">
      <path
         d="M 0,276 H 276 V 0 H 0 Z"
         transform="translate(-187.40273,-104.47581)"
         id="path2036" />
    </clipPath>
  </defs>
  <g
     inkscape:label="Layer 1"
     inkscape:groupmode="layer"
     id="layer1"
     transform="translate(-60.06043,-115.09375)">
    <path
       id="path2035"
       d="m 0,0 h -9.219 c -0.073,27.639 -0.558,54.891 -0.427,82.112 h 9.644 z m -44.537,0 c -0.072,27.639 -0.558,54.891 -0.426,82.112 h 9.643 L -35.318,0 Z m -35.318,0 c -0.072,27.639 -0.558,54.891 -0.426,82.112 h 9.643 L -70.635,0 Z m -35.442,0 c -0.073,27.64 -0.558,54.891 -0.427,82.112 h 9.769 L -105.953,0 Z m 157.89,82.112 v 17.14 H 25.851 c 0.069,4.215 0.153,8.431 0.267,12.651 -0.177,4.463 -3.635,8.598 -8.379,7.613 C 13.006,118.533 2.819,110.159 0.486,99.252 H -9.46 c 0.068,4.216 0.147,8.431 0.26,12.651 -0.177,4.463 -3.634,8.599 -8.379,7.613 -4.733,-0.983 -14.92,-9.357 -17.253,-20.264 h -9.946 c 0.069,4.216 0.147,8.431 0.26,12.651 -0.177,4.463 -3.634,8.599 -8.379,7.613 -4.733,-0.983 -14.919,-9.357 -17.253,-20.264 h -9.946 c 0.069,4.216 0.147,8.431 0.26,12.651 -0.176,4.463 -3.634,8.599 -8.379,7.613 -4.733,-0.983 -14.919,-9.357 -17.253,-20.264 h -10.07 c 0.068,4.216 0.147,8.431 0.26,12.651 -0.177,4.463 -3.635,8.598 -8.379,7.613 -5.364,-1.114 -17.741,-11.72 -17.741,-24.75 l 0.003,-125.695 c 0,-4.985 1.983,-7.044 4.787,-7.26 0,-7.076 0.104,-14.425 7.178,-14.425 7.251,0 6.911,8.228 6.911,18.144 1.994,1.997 3.612,5.652 4.49,7.662 1.455,3.329 2.143,6.496 2.47,9.668 h 9.606 v -13.789 c 0,-15.354 18.757,-3.061 22.67,5.896 1.288,2.947 2.099,5.449 2.61,7.893 h 10.038 v -13.789 c 0,-15.354 18.757,-3.061 22.67,5.896 1.288,2.947 2.099,5.449 2.61,7.893 h 10.038 v -13.789 c 0,-15.354 18.757,-3.061 22.67,5.896 1.288,2.947 2.099,5.449 2.61,7.893 H 0 l 0.001,-13.789 c 0,-5.305 2.241,-7.307 5.334,-7.289 0.088,-4.971 -0.648,-14.337 6.851,-14.337 7.551,0 6.58,11.8 6.58,21.956 1.719,1.822 3.116,3.761 3.905,5.565 1.287,2.947 2.094,5.45 2.605,7.894 h 0.393 v 2.269 c 0.123,0.884 0.22,1.775 0.285,2.693 7.611,0.577 3.622,-3.253 5.633,-7.722 2.787,-6.191 9.571,-2.654 10.123,4.588 0.16,2.103 -0.4,10.067 -0.768,12.115 -0.559,3.113 -3.945,4.373 -6.744,3.528 -2.671,-0.806 -2.718,-5.61 -8.085,-4.112 -0.032,28.663 -0.568,57.701 -0.444,85.893 5.674,-0.038 10.44,0 16.924,0"
       style="fill:#2eb81b;fill-opacity:1;fill-rule:nonzero;stroke:none"
       transform="matrix(0.35277776,0,0,-0.35277776,109.9425,157.30818)"
       clip-path="url(#clipPath2036)" />
  </g>
</svg>
