<?xml version="1.0" encoding="UTF-8" standalone="no"?>
<!-- Created with Inkscape (http://www.inkscape.org/) -->

<svg
   width="30.666971mm"
   height="73.376625mm"
   viewBox="0 0 30.666971 73.376625"
   version="1.1"
   id="svg1"
   inkscape:version="1.4.2 (ebf0e940, 2025-05-08)"
   sodipodi:docname="remote.svg"
   xmlns:inkscape="http://www.inkscape.org/namespaces/inkscape"
   xmlns:sodipodi="http://sodipodi.sourceforge.net/DTD/sodipodi-0.dtd"
   xmlns="http://www.w3.org/2000/svg"
   xmlns:svg="http://www.w3.org/2000/svg">
  <sodipodi:namedview
     id="namedview1"
     pagecolor="#ffffff"
     bordercolor="#000000"
     borderopacity="0.25"
     inkscape:showpageshadow="2"
     inkscape:pageopacity="0.0"
     inkscape:pagecheckerboard="0"
     inkscape:deskcolor="#d1d1d1"
     inkscape:document-units="mm"
     inkscape:zoom="0.199338"
     inkscape:cx="529.25183"
     inkscape:cy="-316.04612"
     inkscape:window-width="1712"
     inkscape:window-height="971"
     inkscape:window-x="0"
     inkscape:window-y="39"
     inkscape:window-maximized="1"
     inkscape:current-layer="layer1" />
  <defs
     id="defs1">
    <clipPath
       clipPathUnits="userSpaceOnUse"
       id="clipPath1018">
      <path
         d="M 0,276 H 276 V 0 H 0 Z"
         transform="translate(-143.3787,-103.5043)"
         id="path1018" />
    </clipPath>
  </defs>
  <g
     inkscape:label="Layer 1"
     inkscape:groupmode="layer"
     id="layer1"
     transform="translate(-77.258316,-108.74375)">
    <path
       id="path1017"
       d="M 0,0 C -8.264,8.785 -19.735,-7.786 -8.471,-12.324 -0.093,-15.699 5.152,-5.477 0,0 m 21.086,27.395 c -6.103,5.57 -14.961,-3.793 -8.577,-9.624 5.994,-5.474 14.384,4.324 8.577,9.624 m -28.063,1.492 c -7.372,-1.624 -5.526,-14.286 3.197,-12.363 7.636,1.682 5.388,14.255 -3.197,12.363 m -21.77,0 c -7.637,-1.683 -5.388,-14.255 3.196,-12.363 7.59,1.672 5.281,14.231 -3.196,12.363 m 41.14,11.587 c 6.013,-5.594 14.443,4.421 8.579,9.627 -6.184,5.49 -14.751,-3.884 -8.579,-9.627 m -19.38,10.865 c -7.617,-1.75 -4.943,-13.309 2.472,-12.364 8.509,1.083 6.416,14.406 -2.472,12.364 m -22.477,0 c -6.306,-1.88 -4.769,-13.668 3.189,-12.364 8.535,1.399 6.115,15.139 -3.189,12.364 m 45.67,23.17 C 8.307,73.736 8.726,61.626 16.743,61.63 25.254,61.635 24.29,75.3 16.206,74.509 M -5.62,74.451 c -8.018,-0.4 -8.581,-14.016 1.952,-12.393 6.99,1.077 5.823,12.78 -1.952,12.393 m -21.77,0 c -8.311,-0.41 -8.325,-14.417 1.978,-12.418 6.538,1.268 5.669,12.796 -1.978,12.418 m 19.016,44.264 c -15.517,-2.646 -14.32,-25.799 -0.105,-27.85 24.127,-3.481 22.384,31.649 0.105,27.85 m -16.135,18.943 c 8.066,1.081 29.566,1.083 37.744,0.185 11.979,-1.314 24.745,-12.683 24.745,-24.405 l 0.106,-157 c 0,-8.325 -6.94,-18.499 -17.573,-23.291 -8.443,-3.804 -33.297,-2.677 -43.09,-1.7 -13.382,1.336 -26.161,14.135 -26.161,25.097 l -0.106,156.298 c 0,11.976 12.23,23.193 24.335,24.816"
       style="fill:#2eb81b;fill-opacity:1;fill-rule:nonzero;stroke:none"
       transform="matrix(0.35277776,0,0,-0.35277776,94.489393,157.60145)"
       clip-path="url(#clipPath1018)" />
  </g>
</svg>
