<?xml version="1.0" encoding="UTF-8" standalone="no"?>
<!-- Created with Inkscape (http://www.inkscape.org/) -->

<svg
   width="64.907867mm"
   height="54.107883mm"
   viewBox="0 0 64.907867 54.107883"
   version="1.1"
   id="svg1"
   inkscape:version="1.4.2 (ebf0e940, 2025-05-08)"
   sodipodi:docname="rocking chair.svg"
   xmlns:inkscape="http://www.inkscape.org/namespaces/inkscape"
   xmlns:sodipodi="http://sodipodi.sourceforge.net/DTD/sodipodi-0.dtd"
   xmlns="http://www.w3.org/2000/svg"
   xmlns:svg="http://www.w3.org/2000/svg">
  <sodipodi:namedview
     id="namedview1"
     pagecolor="#ffffff"
     bordercolor="#000000"
     borderopacity="0.25"
     inkscape:showpageshadow="2"
     inkscape:pageopacity="0.0"
     inkscape:pagecheckerboard="0"
     inkscape:deskcolor="#d1d1d1"
     inkscape:document-units="mm"
     inkscape:zoom="0.023162177"
     inkscape:cx="107.93459"
     inkscape:cy="86.347668"
     inkscape:window-width="896"
     inkscape:window-height="245"
     inkscape:window-x="0"
     inkscape:window-y="39"
     inkscape:window-maximized="0"
     inkscape:current-layer="layer1" />
  <defs
     id="defs1">
    <clipPath
       clipPathUnits="userSpaceOnUse"
       id="clipPath3969">
      <path
         d="M 0,276 H 276 V 0 H 0 Z"
         transform="translate(-171.981,-113.46261)"
         id="path3969" />
    </clipPath>
  </defs>
  <g
     inkscape:label="Layer 1"
     inkscape:groupmode="layer"
     id="layer1"
     transform="translate(-75.935465,-121.44375)">
    <path
       id="path3968"
       d="m 0,0 -65.686,-9.533 c -0.742,-2.036 -10.811,-17.741 -10.025,-18.439 8.822,-1.333 14.216,-1.629 21.291,-1.938 20.512,-0.898 40.543,2.945 60.171,8.304 z m -10.849,40.693 -58.505,-11.414 1.92,-15.892 62.364,7.634 z M 2.565,43.916 C 3.337,41.423 6.867,24.212 7.744,23.642 9.79,22.314 15.819,25.804 19.533,19.205 23.367,12.391 18.227,6.763 12.898,2.907 l 5.557,-19.171 c 0.912,-0.639 10.785,3.913 12.547,4.718 4.066,1.861 13.476,6.495 16.585,8.23 5.94,3.316 13.176,-6.486 9.368,-12.542 -4.118,-6.55 -24.792,-17.726 -32.32,-21.135 -41.19,-18.654 -90.124,-20.457 -132.151,-3.369 -4.031,1.639 -15.545,6.442 -17.471,9.894 -2.469,4.426 -0.147,11.783 5.074,12.633 4.72,0.768 19.145,-4.911 26.543,-6.609 2.285,-0.524 4.638,0.519 5.793,2.558 l 7.962,14.07 c -2.141,2.883 -3.786,4.459 -5.316,7.847 -12.455,27.597 -11.659,33.756 -32.6,87.656 -4.415,11.844 13.324,18.959 18.545,8.362 l 20.218,-45.394 c 0.373,-0.837 0.908,-1.591 1.574,-2.22 L 4.816,62.258 C 16.95,63.768 19.646,47.245 2.565,43.916"
       style="fill:#2eb81b;fill-opacity:1;fill-rule:nonzero;stroke:none"
       transform="matrix(0.35277776,0,0,-0.35277776,120.37714,157.15398)"
       clip-path="url(#clipPath3969)" />
  </g>
</svg>
