<?xml version="1.0" encoding="UTF-8" standalone="no"?>
<!-- Created with Inkscape (http://www.inkscape.org/) -->

<svg
   width="210mm"
   height="297mm"
   viewBox="0 0 210 297"
   version="1.1"
   id="svg1"
   xml:space="preserve"
   inkscape:version="1.4.2 (ebf0e940, 2025-05-08)"
   sodipodi:docname="shed.svg"
   xmlns:inkscape="http://www.inkscape.org/namespaces/inkscape"
   xmlns:sodipodi="http://sodipodi.sourceforge.net/DTD/sodipodi-0.dtd"
   xmlns="http://www.w3.org/2000/svg"
   xmlns:svg="http://www.w3.org/2000/svg"><sodipodi:namedview
     id="namedview1"
     pagecolor="#ffffff"
     bordercolor="#000000"
     borderopacity="0.25"
     inkscape:showpageshadow="2"
     inkscape:pageopacity="0.0"
     inkscape:pagecheckerboard="0"
     inkscape:deskcolor="#d1d1d1"
     inkscape:document-units="mm"
     inkscape:zoom="1.8519796"
     inkscape:cx="403.08219"
     inkscape:cy="574.52036"
     inkscape:window-width="1712"
     inkscape:window-height="971"
     inkscape:window-x="0"
     inkscape:window-y="39"
     inkscape:window-maximized="1"
     inkscape:current-layer="svg1" /><defs
     id="defs1"><clipPath
       clipPathUnits="userSpaceOnUse"
       id="clipPath1270"><path
         d="M 0,276 H 276 V 0 H 0 Z"
         transform="translate(-134.5683,-165.98901)"
         id="path1270" /></clipPath><clipPath
       clipPathUnits="userSpaceOnUse"
       id="clipPath1272"><path
         d="M 0,276 H 276 V 0 H 0 Z"
         transform="translate(-209.64653,-173.51901)"
         id="path1272" /></clipPath><clipPath
       clipPathUnits="userSpaceOnUse"
       id="clipPath1274"><path
         d="M 0,276 H 276 V 0 H 0 Z"
         transform="translate(-153.7974,-95.5831)"
         id="path1274" /></clipPath><clipPath
       clipPathUnits="userSpaceOnUse"
       id="clipPath1276"><path
         d="M 0,276 H 276 V 0 H 0 Z"
         transform="translate(-201.56551,-123.8236)"
         id="path1276" /></clipPath><clipPath
       clipPathUnits="userSpaceOnUse"
       id="clipPath1278"><path
         d="M 0,276 H 276 V 0 H 0 Z"
         transform="translate(-117.97793,-165.8806)"
         id="path1278" /></clipPath><clipPath
       clipPathUnits="userSpaceOnUse"
       id="clipPath1280"><path
         d="M 0,276 H 276 V 0 H 0 Z"
         transform="translate(-164.65433,-140.05)"
         id="path1280" /></clipPath><clipPath
       clipPathUnits="userSpaceOnUse"
       id="clipPath1282"><path
         d="M 0,276 H 276 V 0 H 0 Z"
         transform="translate(-132.99158,-37.664903)"
         id="path1282" /></clipPath><clipPath
       clipPathUnits="userSpaceOnUse"
       id="clipPath1284"><path
         d="M 0,276 H 276 V 0 H 0 Z"
         transform="translate(-138.5853,-123.8236)"
         id="path1284" /></clipPath></defs><path
     d="m 137.82145,185.26411 h -0.84816 a 0.8124172,0.8124172 0 0 0 -0.80267,0.93266 l 2.22927,14.86561 a 2.4372516,2.4372516 0 0 0 2.40801,2.07491 h 11.82554 a 2.4372516,2.4372516 0 0 0 2.40963,-2.07491 l 2.2309,-14.86561 a 0.8124172,0.8124172 0 0 0 -0.80267,-0.93266 h -0.84816 a 8.9365892,8.9365892 0 0 0 -17.80169,0 z m 1.63296,0 a 7.3117548,7.3117548 0 0 1 14.53414,0 z"
     id="path1-3"
     style="fill:#2eb81b;fill-opacity:1;stroke-width:1.62483" /><path
     style="fill:#2eb81b;fill-opacity:1"
     d="m 147.641,313.42 c 1.311,0 2.6,-0.54 3.529,-1.47 0.931,-0.93 1.471,-2.221 1.471,-3.53 0,-1.319 -0.54,-2.61 -1.471,-3.54 -0.93,-0.93 -2.219,-1.46 -3.529,-1.46 -1.32,0 -2.61,0.53 -3.54,1.46 -0.931,0.93 -1.46,2.221 -1.46,3.54 0,1.32 0.529,2.601 1.46,3.53 0.93,0.93 2.22,1.47 3.54,1.47 z"
     id="path11"
     transform="matrix(0.26458333,0,0,0.26458333,53.805574,93.757485)" /><path
     id="path12"
     style="fill:#2eb81b;fill-opacity:1"
     d="m 206.56223,3.7657481e-4 c -3.604,0 -7.18347,0.92010940519 -10.35547,2.66210942519 L 47.036835,84.594128 c -5.056,2.777 -8.725891,7.357484 -10.337891,12.896484 -1.611,5.538998 -0.970359,11.374688 1.806641,16.429688 3.795,6.91 11.05436,11.20313 18.94336,11.20313 3.611,0 7.201812,-0.92293 10.382812,-2.66993 l 14.876954,-8.17187 v 294 c 0,2.762 2.238,5 5,5 H 317.5134 c -3.51235,-0.96531 -4.126,-3.90968 -4.66797,-7.51172 l -0.37304,-2.48828 h -24.07032 v -29.4668 h 19.65235 l -1.5,-10 h -18.15235 v -50.39648 h 32.17188 v 13.625 c 2.42831,-4.5026 5.84767,-8.39479 10,-11.38281 V 114.28163 l 14.87695,8.17187 c 3.181,1.747 6.76986,2.66993 10.38086,2.66993 h 0.002 c 7.889,0 15.14546,-4.29413 18.93946,-11.20313 2.777,-5.056 3.42154,-10.89069 1.81054,-16.429688 -1.612,-5.539 -5.28384,-10.119484 -10.33984,-12.896484 0,0 -149.64563,-82.1669076 -149.89063,-82.2539076 -3.031,-1.53300005 -6.40001,-2.33984382519 -9.79101,-2.33984382519 z m 0.0781,46.21093842519 28.44922,15.625 h -56.90039 z m -46.6582,25.625 h 93.31445 l 67.27539,36.951175 V 122.2328 H 92.708711 V 108.78749 Z M 92.708711,132.2328 H 320.57395 v 50.39453 h -32.17188 v -12.5332 c 0,-2.761 -2.238,-5 -5,-5 H 129.87863 c -2.762,0 -5,2.239 -5,5 v 12.5332 H 92.708711 Z m 42.169919,42.85938 h 40.9961 v 228.18945 h -40.9961 z m 50.9961,0 h 41.5332 v 228.18945 h -41.5332 z m 51.5332,0 h 40.99414 V 403.28163 H 237.40793 Z M 92.708711,192.62733 h 32.169919 v 50.39649 H 92.708711 Z m 195.693359,0 h 32.17188 v 50.39649 H 288.40207 Z M 92.708711,253.02382 h 32.169919 v 50.39453 H 92.708711 Z m 195.693359,0 h 32.17188 v 50.39453 H 288.40207 Z M 92.708711,313.41835 h 32.169919 v 50.39648 H 92.708711 Z m 0,60.39648 h 32.169919 v 29.4668 H 92.708711 Z"
     transform="matrix(0.26458333,0,0,0.26458333,53.805574,93.757485)"
     sodipodi:nodetypes="cccccsccssccccccccccccccssccccscccccccccccccccssssccccccccccccccccccccccccccccccccccccccccccccccccc" /><g
     style="fill:#2eb81b;fill-opacity:1"
     id="g1"
     transform="matrix(1.6248344,0,0,1.6248344,133.4907,177.19483)" /></svg>
