<?xml version="1.0" encoding="UTF-8" standalone="no"?>
<!-- Created with Inkscape (http://www.inkscape.org/) -->

<svg
   width="64.006813mm"
   height="114.13048mm"
   viewBox="0 0 64.006813 114.13048"
   version="1.1"
   id="svg1"
   xml:space="preserve"
   inkscape:version="1.4.2 (ebf0e940, 2025-05-08)"
   sodipodi:docname="slippers.svg"
   xmlns:inkscape="http://www.inkscape.org/namespaces/inkscape"
   xmlns:sodipodi="http://sodipodi.sourceforge.net/DTD/sodipodi-0.dtd"
   xmlns="http://www.w3.org/2000/svg"
   xmlns:svg="http://www.w3.org/2000/svg"><sodipodi:namedview
     id="namedview1"
     pagecolor="#ffffff"
     bordercolor="#000000"
     borderopacity="0.25"
     inkscape:showpageshadow="2"
     inkscape:pageopacity="0.0"
     inkscape:pagecheckerboard="0"
     inkscape:deskcolor="#d1d1d1"
     inkscape:document-units="mm"
     inkscape:zoom="1.1718187"
     inkscape:cx="202.6764"
     inkscape:cy="166.40799"
     inkscape:window-width="1712"
     inkscape:window-height="971"
     inkscape:window-x="0"
     inkscape:window-y="39"
     inkscape:window-maximized="1"
     inkscape:current-layer="layer1" /><defs
     id="defs1"><clipPath
       clipPathUnits="userSpaceOnUse"
       id="clipPath2425"><path
         d="M 0,276 H 276 V 0 H 0 Z"
         transform="translate(-100.7178,-159.3855)"
         id="path2425" /></clipPath><clipPath
       clipPathUnits="userSpaceOnUse"
       id="clipPath2423"><path
         d="M 0,276 H 276 V 0 H 0 Z"
         transform="translate(-67.914077,-131.6826)"
         id="path2423" /></clipPath><clipPath
       clipPathUnits="userSpaceOnUse"
       id="clipPath2421"><path
         d="M 0,276 H 276 V 0 H 0 Z"
         transform="translate(-179.87948,-125.7028)"
         id="path2421" /></clipPath><clipPath
       clipPathUnits="userSpaceOnUse"
       id="clipPath2419"><path
         d="M 0,276 H 276 V 0 H 0 Z"
         transform="translate(-217.46303,-104.94201)"
         id="path2419" /></clipPath></defs><g
     inkscape:label="Layer 1"
     inkscape:groupmode="layer"
     id="layer1"
     transform="translate(-79.110428,-66.935339)"><path
       id="path2418"
       d="m 0,0 -2.52,6.403 c -3.643,9.256 -10.987,16.702 -20.375,19.991 -9.248,3.239 -19.503,2.409 -27.919,-3.156 -4.534,-2.999 -8.084,-7.267 -10.474,-12.149 l -3.743,-7.64 c -4.79,23.2 -8.087,64.974 7.568,81.494 13.101,13.824 38.998,3.677 50.55,-8.948 C 10.306,57.176 3.205,22.642 0,0"
       style="fill:#2eb81b;fill-opacity:1;fill-rule:nonzero;stroke:none"
       transform="matrix(0.35277776,0,0,-0.35277776,136.6587,160.27106)"
       clip-path="url(#clipPath2419)" /><path
       id="path2420"
       d="M 0,0 C 42.127,5.729 46.187,-75.624 7.311,-79.521 -37.782,-84.041 -33.242,-4.521 0,0"
       style="fill:#2eb81b;fill-opacity:1;fill-rule:nonzero;stroke:none"
       transform="matrix(0.35277776,0,0,-0.35277776,123.40006,152.94712)"
       clip-path="url(#clipPath2421)" /><path
       id="path2422"
       d="m 0,0 1.221,6.772 c 1.765,9.789 7.513,18.526 16.077,23.586 8.436,4.984 18.656,6.173 27.997,2.358 5.032,-2.054 9.348,-5.547 12.646,-9.867 l 5.163,-6.763 C 63.27,39.775 58.343,81.389 39.762,94.532 24.213,105.53 0.797,90.52 -8.066,75.881 -21.277,54.061 -7.567,21.58 0,0"
       style="fill:#2eb81b;fill-opacity:1;fill-rule:nonzero;stroke:none"
       transform="matrix(0.35277776,0,0,-0.35277776,83.901153,150.83758)"
       clip-path="url(#clipPath2423)" /><path
       id="path2424"
       d="M 0,0 C -42.435,-2.611 -30.524,-83.189 8.365,-79.417 53.472,-75.041 33.485,2.06 0,0"
       style="fill:#2eb81b;fill-opacity:1;fill-rule:nonzero;stroke:none"
       transform="matrix(0.35277776,0,0,-0.35277776,95.473578,141.06461)"
       clip-path="url(#clipPath2425)" /><g
       style="fill:#2eb81b;fill-opacity:1"
       id="g1"
       transform="matrix(0.55648125,0,0,0.55648125,74.11579,31.775685)"><path
         fill-rule="evenodd"
         clip-rule="evenodd"
         d="m 119.501,133.294 c -0.85,10.559 -3.398,15.741 -11.369,15.08 -5.303,-0.44 -46.497,-5.034 -69.012,-7.545 -8.086,-0.901 -13.696,-5.283 -13.068,-12.135 0.64,-6.978 5.709,-65.0329 5.709,-65.0329 l 4.812,-0.479 8.175,5.154 9.062,-3.764 8.464,5.582 9.845,-3.338 8.653,4.886 9.794,-3.454 6.836,4.716 10.762,-2.87 4.229,3.248 c 0,0 -5.789,54.9229 -6.361,64.5609 -0.389,6.548 6.217,5.193 6.74,0.358 0.803,-7.424 5.369,-64.6129 5.369,-64.6129 l 5.855,0.333 c -10e-4,0.001 -3.802,50.6779 -4.495,59.3129 z m -22.785,-53.9679 -7.322,-3.643 -10.133,2.289 -8.02,-3.976 -9.73,2.207 -8.311,-3.73 -9.756,2.931 -5.946,-4.289 c 0,0 -4.829,50.9809 -5.248,55.5139 -0.419,4.531 2.583,7.679 7.731,8.257 19.266,2.166 58.739,6.606 58.739,6.606 l 6.476,-63.4879 z m -18.059,13.407 0.498,-6.608 17.577,1.668 -0.562,6.581 z m 14.15,41.0049 -17.083,-2.009 0.434,-5.763 17.146,1.96 z m -52.825,-18.253 2.108,-32.8769 32.181,3.054 -3.157,33.0989 z m 29.96,15.565 -30.727,-3.613 0.363,-5.652 30.91,3.534 z m 7.155,-17.574 17.294,1.729 -0.509,5.952 -17.227,-1.812 z m 1.04,-13.8219 17.44,1.6609 -0.564,6.613 -17.367,-1.736 z"
         fill="#000000"
         id="path1"
         style="fill:#2eb81b;fill-opacity:1" /></g></g></svg>
