<?xml version="1.0" encoding="UTF-8" standalone="no"?>
<!-- Created with Inkscape (http://www.inkscape.org/) -->

<svg
   width="64.911461mm"
   height="38.771832mm"
   viewBox="0 0 64.911461 38.771832"
   version="1.1"
   id="svg1"
   inkscape:version="1.4.2 (ebf0e940, 2025-05-08)"
   sodipodi:docname="sofa.svg"
   xmlns:inkscape="http://www.inkscape.org/namespaces/inkscape"
   xmlns:sodipodi="http://sodipodi.sourceforge.net/DTD/sodipodi-0.dtd"
   xmlns="http://www.w3.org/2000/svg"
   xmlns:svg="http://www.w3.org/2000/svg">
  <sodipodi:namedview
     id="namedview1"
     pagecolor="#ffffff"
     bordercolor="#000000"
     borderopacity="0.25"
     inkscape:showpageshadow="2"
     inkscape:pageopacity="0.0"
     inkscape:pagecheckerboard="0"
     inkscape:deskcolor="#d1d1d1"
     inkscape:document-units="mm"
     inkscape:zoom="0.25305163"
     inkscape:cx="-333.92395"
     inkscape:cy="114.60112"
     inkscape:window-width="896"
     inkscape:window-height="245"
     inkscape:window-x="0"
     inkscape:window-y="39"
     inkscape:window-maximized="0"
     inkscape:current-layer="layer1" />
  <defs
     id="defs1">
    <clipPath
       clipPathUnits="userSpaceOnUse"
       id="clipPath127">
      <path
         d="M 0,276 H 276 V 0 H 0 Z"
         transform="translate(-78.430899,-151.76811)"
         id="path127" />
    </clipPath>
    <clipPath
       clipPathUnits="userSpaceOnUse"
       id="clipPath125">
      <path
         d="M 0,276 H 276 V 0 H 0 Z"
         transform="translate(-75.994404,-89.4145)"
         id="path125" />
    </clipPath>
  </defs>
  <g
     inkscape:label="Layer 1"
     inkscape:groupmode="layer"
     id="layer1"
     transform="translate(-2103.702,-266.17083)">
    <path
       id="path124"
       d="m 0,0 c -0.767,-6.222 -4.877,-6.906 -10.445,-6.058 -5.884,0.896 -4.887,10.136 -5.146,14.585 -6.675,-0.233 -14.404,4.991 -14.404,11.663 0,7.646 0,23.433 0,41.459 3.17,15.225 25.036,14.292 26.579,-1.248 0.3,-3.015 -0.685,-16.372 0.608,-17.659 2.291,-2.281 5.189,1.585 7.036,2.719 3.242,1.99 7.271,3.518 11.1,3.518 28.309,0 63.557,-0.03 94.062,-0.03 3.771,-0.435 6.852,-1.678 10.061,-3.582 1.834,-1.089 6.92,-5.151 7.88,0.014 1.558,8.379 -3.571,18.077 4.971,24.522 5.202,3.925 11.352,3.517 15.842,0.311 3.664,-2.617 5.762,-7.036 5.767,-11.539 0.015,-14.649 0.095,-26.231 0.095,-37.261 0,-5.473 -4.115,-10.35 -9.29,-12.148 -1.878,-0.652 -3.369,-0.595 -5.138,-1.196 -0.6,-4.148 0.43,-13.407 -5.307,-14.181 -7.123,-0.96 -9.654,0.616 -10.493,7.577 -0.214,1.774 -0.383,4.453 -0.005,6.08 L 0,7.551 C -0.21,5.147 0.289,2.343 0,0"
       style="fill:#2eb81b;fill-opacity:1;fill-rule:nonzero;stroke:none"
       transform="matrix(0.35277776,0,0,-0.35277776,2114.2836,302.6966)"
       clip-path="url(#clipPath125)" />
    <path
       id="path126"
       d="m 0,0 c -0.727,5.41 -5.819,11.812 -10.702,14.145 -1.056,0.505 -5.116,1.565 -5.282,1.789 -0.581,0.782 -0.66,5.282 -0.604,6.498 0.426,9.242 7.244,18.038 16.811,18.752 l 118.941,-10e-4 c 9.866,-1.609 16.414,-10.954 16.339,-20.729 -0.004,-0.553 -0.463,-4.362 -0.586,-4.556 -0.159,-0.251 -4.556,-1.402 -5.625,-1.93 C 125.386,12.04 118.9,7.267 118.9,0.487 V -10.23 c 0,-0.17 -0.46,-0.653 -0.994,-0.522 -1.305,0.319 -3.441,1.714 -5.127,2.198 -2.625,0.753 -5.999,1.511 -8.721,1.511 H 15.326 C 12.652,-7.391 9.925,-7.619 7.305,-8.277 5.18,-8.811 2.66,-10.348 0.994,-10.752 0.46,-10.882 0,-10.401 0,-10.23 0,-7.172 0.383,-2.85 0,0"
       style="fill:#2eb81b;fill-opacity:1;fill-rule:nonzero;stroke:none"
       transform="matrix(0.35277776,0,0,-0.35277776,2115.1432,280.69963)"
       clip-path="url(#clipPath127)" />
  </g>
</svg>
