<?xml version="1.0" encoding="UTF-8" standalone="no"?>
<!-- Created with Inkscape (http://www.inkscape.org/) -->

<svg
   width="40.104366mm"
   height="73.379189mm"
   viewBox="0 0 40.104366 73.379189"
   version="1.1"
   id="svg1"
   inkscape:version="1.4.2 (ebf0e940, 2025-05-08)"
   sodipodi:docname="tall lamp.svg"
   xmlns:inkscape="http://www.inkscape.org/namespaces/inkscape"
   xmlns:sodipodi="http://sodipodi.sourceforge.net/DTD/sodipodi-0.dtd"
   xmlns="http://www.w3.org/2000/svg"
   xmlns:svg="http://www.w3.org/2000/svg">
  <sodipodi:namedview
     id="namedview1"
     pagecolor="#ffffff"
     bordercolor="#000000"
     borderopacity="0.25"
     inkscape:showpageshadow="2"
     inkscape:pageopacity="0.0"
     inkscape:pagecheckerboard="0"
     inkscape:deskcolor="#d1d1d1"
     inkscape:document-units="mm"
     inkscape:zoom="0.1878867"
     inkscape:cx="66.529455"
     inkscape:cy="138.38127"
     inkscape:window-width="896"
     inkscape:window-height="245"
     inkscape:window-x="0"
     inkscape:window-y="39"
     inkscape:window-maximized="0"
     inkscape:current-layer="layer1" />
  <defs
     id="defs1">
    <clipPath
       clipPathUnits="userSpaceOnUse"
       id="clipPath1659">
      <path
         d="M 0,276 H 276 V 0 H 0 Z"
         transform="translate(-194.2275,-161.6439)"
         id="path1659" />
    </clipPath>
  </defs>
  <g
     inkscape:label="Layer 1"
     inkscape:groupmode="layer"
     id="layer1"
     transform="translate(-277.01876,-180.44583)">
    <path
       id="path1658"
       d="m 0,0 -23.403,74.817 c -1.21,3.702 -3.785,5.541 -7.511,5.541 h -50.191 c -7.02,-0.797 -7.499,-5.618 -9.457,-11.184 -7.989,-22.697 -13.792,-46.269 -21.637,-69.029 -2.362,-7.719 0.35,-10.484 4.987,-10.484 h 42.941 v -91.349 h -16.833 c -6.515,0 -11.678,-6.555 -13.413,-10.631 -0.848,-1.993 -1.665,-5.802 -1.525,-9.16 0.144,-3.459 3.042,-6.167 6.505,-6.167 h 67.055 c 3.294,0 6.107,2.454 6.47,5.728 0.621,5.622 -3.065,12.985 -6.708,16.094 -1.622,1.384 -4.058,4.136 -8.916,4.136 0,0 -16.146,-0.209 -16.146,0 v 91.349 h 21.152 v -17.888 c -2.931,-1.188 -5,-4.057 -5,-7.413 0,-4.418 3.581,-8 8,-8 4.418,0 7.999,3.582 7.999,8 0,3.356 -2.069,6.225 -4.999,7.413 v 17.888 h 15.102 c 3.234,0 7.807,4.49 5.528,10.339"
       style="fill:#2eb81b;fill-opacity:1;fill-rule:nonzero;stroke:none"
       transform="matrix(0.35277776,0,0,-0.35277776,316.90678,208.79435)"
       clip-path="url(#clipPath1659)" />
  </g>
</svg>
