<?xml version="1.0" encoding="UTF-8" standalone="no"?>
<!-- Created with Inkscape (http://www.inkscape.org/) -->

<svg
   width="64.9114mm"
   height="56.166351mm"
   viewBox="0 0 64.9114 56.166351"
   version="1.1"
   id="svg1"
   inkscape:version="1.4.2 (ebf0e940, 2025-05-08)"
   sodipodi:docname="teapot.svg"
   xmlns:inkscape="http://www.inkscape.org/namespaces/inkscape"
   xmlns:sodipodi="http://sodipodi.sourceforge.net/DTD/sodipodi-0.dtd"
   xmlns="http://www.w3.org/2000/svg"
   xmlns:svg="http://www.w3.org/2000/svg">
  <sodipodi:namedview
     id="namedview1"
     pagecolor="#ffffff"
     bordercolor="#000000"
     borderopacity="0.25"
     inkscape:showpageshadow="2"
     inkscape:pageopacity="0.0"
     inkscape:pagecheckerboard="0"
     inkscape:deskcolor="#d1d1d1"
     inkscape:document-units="mm"
     inkscape:zoom="0.011834085"
     inkscape:cx="9675.4421"
     inkscape:cy="7182.6426"
     inkscape:window-width="1712"
     inkscape:window-height="971"
     inkscape:window-x="0"
     inkscape:window-y="39"
     inkscape:window-maximized="1"
     inkscape:current-layer="layer1" />
  <defs
     id="defs1">
    <clipPath
       clipPathUnits="userSpaceOnUse"
       id="clipPath2294">
      <path
         d="M 0,276 H 276 V 0 H 0 Z"
         transform="translate(-148.9557,-201.26301)"
         id="path2294" />
    </clipPath>
    <clipPath
       clipPathUnits="userSpaceOnUse"
       id="clipPath2292">
      <path
         d="M 0,276 H 276 V 0 H 0 Z"
         transform="translate(-172.074,-174.8739)"
         id="path2292" />
    </clipPath>
    <clipPath
       clipPathUnits="userSpaceOnUse"
       id="clipPath2290">
      <path
         d="M 0,276 H 276 V 0 H 0 Z"
         transform="translate(-133.929,-110.767)"
         id="path2290" />
    </clipPath>
    <clipPath
       clipPathUnits="userSpaceOnUse"
       id="clipPath2288">
      <path
         d="M 0,276 H 276 V 0 H 0 Z"
         transform="translate(-193.01363,-110.767)"
         id="path2288" />
    </clipPath>
  </defs>
  <g
     inkscape:label="Layer 1"
     inkscape:groupmode="layer"
     id="layer1"
     transform="translate(2938.9917,2084.9166)">
    <path
       id="path2287"
       d="M 0,0 C 11.472,5.033 23.893,16.049 25.435,29.181 27.906,50.223 6.507,61.917 -9.806,48.685 0.209,34.023 3.83,17.526 0,0 m -62.151,-37.287 c 4.51,6.109 8.699,13.045 9.629,20.789 0.493,4.105 0.683,12.811 0.198,16.84 -0.287,2.383 -1.597,5.152 -4.047,5.765 -21.888,1.226 -43.999,-0.295 -65.948,0.775 -12.712,12.467 -12.014,30.492 -19.953,46.118 -1.574,3.098 -8.514,10.284 -2.006,11.137 2.258,0.296 16.515,0.253 18.006,-0.371 1.976,-0.828 4.909,-7.182 6.406,-9.293 4.388,-6.187 9.459,-10.23 16.849,-12.403 1.083,0.123 10.39,15.37 14.387,16.135 l 68.053,0.054 c 3.647,0 6.643,1.898 10.549,3.767 C 19.643,76.226 45.51,48.486 34.328,18.979 29.071,5.105 16.256,-4.753 3.242,-10.772 c -1.836,-0.849 -8.273,-2.611 -8.989,-3.11 -0.437,-0.306 -4.379,-7.427 -5.699,-9.022 -3.44,-4.155 -13.966,-14.383 -24.212,-14.383 z"
       style="fill:#2eb81b;fill-opacity:1;fill-rule:nonzero;stroke:none"
       transform="matrix(0.35277776,0,0,-0.35277776,-2887.1285,-2047.2263)"
       clip-path="url(#clipPath2288)" />
    <path
       id="path2289"
       d="m 0,0 c 2.92,0 0.204,-17.335 0.204,-17.335 -1.729,-7.809 -5.211,-13.216 -10.186,-17.839 -1.861,-1.73 -3.929,-3.225 -6.132,-4.493 l -7.231,-4.161 H -6.01 c 4.448,0 4.235,-8.491 -0.014,-8.491 l -62.416,-0.054 c -3.905,0 -3.195,8.545 -0.369,8.545 h 17.335 l -3.969,2.404 c -10.629,6.44 -17.793,17.493 -18.824,29.878 -0.039,0.468 -0.071,0.939 -0.096,1.413 C -74.477,-8.008 -75.136,0 -72.08,0 Z"
       style="fill:#2eb81b;fill-opacity:1;fill-rule:nonzero;stroke:none"
       transform="matrix(0.35277776,0,0,-0.35277776,-2907.9723,-2047.2263)"
       clip-path="url(#clipPath2290)" />
    <path
       id="path2291"
       d="m 0,0 h -68.032 c 4.568,10.295 14.293,18.159 25.811,18.999 4.725,0.344 13.04,0.429 17.684,-0.035 C -13.756,17.888 -4.473,9.469 0,0"
       style="fill:#2eb81b;fill-opacity:1;fill-rule:nonzero;stroke:none"
       transform="matrix(0.35277776,0,0,-0.35277776,-2894.5156,-2069.8418)"
       clip-path="url(#clipPath2292)" />
    <path
       id="path2293"
       d="m 0,0 c -3.53,-3.533 -15.646,-3.837 -19.859,-1.662 -6.1,3.149 -7.406,12.897 -1.089,16.396 3.782,2.096 15.136,2.115 19.02,0.227 C 3.52,12.314 4.086,4.09 0,0"
       style="fill:#2eb81b;fill-opacity:1;fill-rule:nonzero;stroke:none"
       transform="matrix(0.35277776,0,0,-0.35277776,-2902.6712,-2079.1512)"
       clip-path="url(#clipPath2294)" />
  </g>
</svg>
