<?xml version="1.0" encoding="UTF-8" standalone="no"?>
<svg
   viewBox="264.0303 88.0945 277.41025 236.83854"
   width="277.41016"
   height="236.83855"
   preserveAspectRatio="none"
   version="1.1"
   id="svg1"
   sodipodi:docname="to let for sale.svg"
   inkscape:version="1.4.2 (ebf0e940, 2025-05-08)"
   xmlns:inkscape="http://www.inkscape.org/namespaces/inkscape"
   xmlns:sodipodi="http://sodipodi.sourceforge.net/DTD/sodipodi-0.dtd"
   xmlns="http://www.w3.org/2000/svg"
   xmlns:svg="http://www.w3.org/2000/svg">
  <defs
     id="defs1">
    <clipPath
       clipPathUnits="userSpaceOnUse"
       id="clipPath3586">
      <path
         d="M 0,276 H 276 V 0 H 0 Z"
         transform="translate(-175.377,-209.46741)"
         id="path3586" />
    </clipPath>
    <clipPath
       clipPathUnits="userSpaceOnUse"
       id="clipPath3584">
      <path
         d="M 0,276 H 276 V 0 H 0 Z"
         transform="translate(-200.86051,-188.9013)"
         id="path3584" />
    </clipPath>
    <clipPath
       clipPathUnits="userSpaceOnUse"
       id="clipPath3582">
      <path
         d="M 0,276 H 276 V 0 H 0 Z"
         transform="translate(-171.9345,-173.9928)"
         id="path3582" />
    </clipPath>
    <clipPath
       clipPathUnits="userSpaceOnUse"
       id="clipPath3580">
      <path
         d="M 0,276 H 276 V 0 H 0 Z"
         transform="translate(-70.946252,-151.6891)"
         id="path3580" />
    </clipPath>
  </defs>
  <sodipodi:namedview
     id="namedview1"
     pagecolor="#ffffff"
     bordercolor="#000000"
     borderopacity="0.25"
     inkscape:showpageshadow="2"
     inkscape:pageopacity="0.0"
     inkscape:pagecheckerboard="0"
     inkscape:deskcolor="#d1d1d1"
     inkscape:zoom="2.2249659"
     inkscape:cx="93.259858"
     inkscape:cy="117.30517"
     inkscape:window-width="1712"
     inkscape:window-height="971"
     inkscape:window-x="0"
     inkscape:window-y="39"
     inkscape:window-maximized="1"
     inkscape:current-layer="g3067" />
  <g
     id="g3067"
     transform="translate(-8705.265,-27.240388)"
     style="fill:#2eb81b;fill-opacity:1">
    <path
       id="path3068"
       d="m 9068.9875,218.46533 h -4.5547 v 16.928 h 4.4027 c 4.8573,0 6.8307,-2.35467 6.8307,-8.50133 0,-5.92134 -2.048,-8.42667 -6.6787,-8.42667"
       style="fill:#2eb81b;fill-opacity:1;fill-rule:nonzero;stroke:none;stroke-width:1.33333"
       clip-path="url(#clipPath3069)" />
    <path
       id="path3070"
       d="m 9150.8851,218.76893 -4.4787,25.35333 h 9.184 l -4.4773,-25.35333 z"
       style="fill:#2eb81b;fill-opacity:1;fill-rule:nonzero;stroke:none;stroke-width:1.33333"
       clip-path="url(#clipPath3071)" />
    <path
       id="path3072"
       d="m 9034.7568,219.85893 c -4.7053,0 -6.832,5.61733 -6.832,17.91333 0,12.60134 2.1267,18.37067 6.832,18.37067 4.6293,0 6.756,-5.76933 6.756,-18.37067 0,-12.296 -2.1267,-17.91333 -6.756,-17.91333"
       style="fill:#2eb81b;fill-opacity:1;fill-rule:nonzero;stroke:none;stroke-width:1.33333"
       clip-path="url(#clipPath3073)" />
    <path
       id="path3074"
       clip-path="url(#clipPath3075)"
       style="fill:#2eb81b;fill-opacity:1;fill-rule:nonzero;stroke:none"
       d="M -189.13275,94.229134 V -31.268428 H 18.924868 V 94.229134 Z m 65.81103,-13.501465 c 3.98258,0 7.11353,-1.765748 9.39405,-5.29834 2.28051,-3.515693 3.42041,-8.308025 3.42041,-14.375977 0,-6.017242 -1.13368,-10.800113 -3.40284,-14.34961 -2.26956,-3.532598 -5.40673,-5.29834 -9.41162,-5.29834 -3.99394,0 -7.12595,1.765742 -9.39551,5.29834 -2.26915,3.549497 -3.40429,8.332368 -3.40429,14.34961 0,6.067952 1.13514,10.860284 3.40429,14.375977 2.26956,3.532592 5.40157,5.29834 9.39551,5.29834 z m -37.12939,-0.785156 h 21.92724 v -5.802247 h -7.75927 V 42.190559 h -6.4087 v 31.949707 h -7.75927 z m 89.876952,0 h 6.407227 V 47.992805 h 11.515137 v -5.802246 h -17.922364 z m 21.776368,0 h 17.972168 V 74.140266 H -42.42279 V 63.124641 h 10.763672 V 58.822395 H -42.42279 v -10.82959 h 11.597168 V 42.190559 H -48.79779 Z m 20.859375,0 H -6.0111681 V 74.140266 H -13.770446 V 42.190559 h -6.408691 v 31.949707 h -7.759278 z M -123.3056,73.604134 c -0.8121,0 -1.57989,-0.219715 -2.30274,-0.65918 -0.7123,-0.439459 -1.368,-1.16701 -1.96875,-2.181153 -0.55613,-0.946533 -1.01242,-2.255376 -1.36816,-3.928711 -0.3452,-1.656429 -0.51856,-3.584429 -0.51856,-5.781738 0,-2.248012 0.16714,-4.166545 0.50098,-5.755371 0.34479,-1.571921 0.79551,-2.855302 1.35205,-3.852539 0.55613,-0.997238 1.20747,-1.732785 1.95264,-2.206055 0.74556,-0.473264 1.52949,-0.710449 2.35254,-0.710449 0.82345,0 1.60737,0.237185 2.35253,0.710449 0.74557,0.490169 1.39651,1.241716 1.95264,2.255859 0.62307,1.149361 1.08557,2.502602 1.38574,4.057618 0.30058,1.571921 0.44971,3.414061 0.44971,5.526855 0,2.264918 -0.17229,4.191447 -0.51709,5.780274 -0.3452,1.58882 -0.79592,2.873665 -1.35205,3.854004 -0.56749,1.014143 -1.22359,1.74969 -1.96875,2.206055 -0.73421,0.456364 -1.50159,0.684082 -2.30273,0.684082 z M -176.63764,33.903937 H 2.2241836 c 1.9778299,0 3.5698244,-1.591994 3.5698244,-3.569824 0,-1.97783 -1.5919945,-3.569824 -3.5698244,-3.569824 H -176.63764 c -1.97783,0 -3.56982,1.591994 -3.56982,3.569824 0,1.97783 1.59199,3.569824 3.56982,3.569824 z m 36.60059,-12.489258 c 7.856,0 11.44336,-5.976672 11.44336,-19.0136722 0,-13.2649998 -3.58736,-19.3564458 -11.44336,-19.3564458 -7.912,0 -11.55615,6.091446 -11.55615,19.3564458 0,13.0370002 3.64415,19.0136722 11.55615,19.0136722 z m 62.047853,0 c 7.629,0 10.019531,-3.927777 10.019531,-13.9467776 h -5.635254 c 0,7.1160006 -1.251891,8.8242186 -4.212891,8.8242186 -2.619,0 -4.270019,-1.707636 -4.270019,-4.952636 0,-2.6760012 0.684086,-3.8714576 1.538086,-4.6684576 1.024,-0.854 2.902301,-1.7081407 5.008301,-2.6191407 2.335,-0.968 4.043797,-1.8212422 5.466797,-3.07324223 1.651,-1.48 2.90332,-3.92872677 2.90332,-7.34472677 0,-6.4339997 -3.757871,-10.5893557 -10.817871,-10.5893557 -8.14,0 -10.359376,5.123677 -10.359376,13.4926761 h 5.635255 c 0,-6.262 1.309121,-8.3115241 4.724121,-8.3115241 3.018,0 4.498535,1.764638 4.498535,4.9526373 0,2.22 -0.740008,3.3587618 -1.708008,4.1557618 -0.911,0.74 -2.562844,1.479754 -4.839844,2.44775399 -2.277,0.911 -4.211867,1.99283601 -5.463867,3.13183601 -1.537,1.31 -2.904785,3.8140859 -2.904785,7.9130859 0,6.604 3.928969,10.587891 10.417969,10.587891 z m -92.219243,-0.454101 h 16.396 v -5.57959 H -163.8891 V 3.7105771 h 8.42578 v -4.66845712 h -8.42578 V -16.499873 h -6.31934 z m 46.10889,0 h 9.79248 c 7.686,0 11.15772,-3.416743 11.15772,-10.760743 0,-5.2370002 -1.36543,-8.1402697 -5.06543,-9.0512697 v -0.057129 c 3.643,-0.73999993 5.00976,-3.1879025 5.00976,-6.7749025 V -16.499873 h -6.31933 v 10.646485 c 0,2.847 -1.3092,4.2700197 -4.5542,4.2700197 h -3.7002 V -16.499873 h -6.3208 z m 67.458986,0 h 8.368653 l 8.595703,-37.460451 h -7.45752 l -1.480957,8.1972662 h -8.481445 l -1.479493,-8.1972662 h -6.547851 z m 20.720215,0 h 6.317872 v -31.880861 h 8.937012 v -5.57959 h -15.254884 z m 18.89795,0 h 16.62304743 v -5.57959 H -10.703063 V 4.5074522 h 8.254395 V 0.1803036 h -8.254395 V -10.920283 H 5.5078126e-4 v -5.57959 H -17.022399 Z"
       transform="matrix(1.3333333,0,0,-1.3333333,9221.4723,240.97373)"
       sodipodi:nodetypes="cccccscscscscsccccccccccccccccccccccccccccccccccccccscccscccscccscccssssssssssssssccsscccssccsscccssccccccccccccssccsccssccccccccccccccccccccccccccccccccc" />
    <rect
       style="fill:#2eb81b;fill-opacity:1;stroke-width:12;stroke-linecap:round"
       id="rect1"
       width="39.101788"
       height="74.158447"
       x="9089.2969"
       y="278.01498"
       ry="0.87329817" />
  </g>
</svg>
