<?xml version="1.0" encoding="UTF-8" standalone="no"?>
<!-- Created with Inkscape (http://www.inkscape.org/) -->

<svg
   width="65.007065mm"
   height="63.152439mm"
   viewBox="0 0 65.007065 63.152439"
   version="1.1"
   id="svg1"
   inkscape:version="1.4.2 (ebf0e940, 2025-05-08)"
   sodipodi:docname="towel rail.svg"
   xmlns:inkscape="http://www.inkscape.org/namespaces/inkscape"
   xmlns:sodipodi="http://sodipodi.sourceforge.net/DTD/sodipodi-0.dtd"
   xmlns="http://www.w3.org/2000/svg"
   xmlns:svg="http://www.w3.org/2000/svg">
  <sodipodi:namedview
     id="namedview1"
     pagecolor="#ffffff"
     bordercolor="#000000"
     borderopacity="0.25"
     inkscape:showpageshadow="2"
     inkscape:pageopacity="0.0"
     inkscape:pagecheckerboard="0"
     inkscape:deskcolor="#d1d1d1"
     inkscape:document-units="mm"
     inkscape:zoom="0.14310147"
     inkscape:cx="-178.19523"
     inkscape:cy="-216.6295"
     inkscape:window-width="1712"
     inkscape:window-height="971"
     inkscape:window-x="0"
     inkscape:window-y="39"
     inkscape:window-maximized="1"
     inkscape:current-layer="layer1" />
  <defs
     id="defs1">
    <clipPath
       clipPathUnits="userSpaceOnUse"
       id="clipPath4225">
      <path
         d="M 0,276 H 276 V 0 H 0 Z"
         transform="translate(-221.86876,-187.4541)"
         id="path4225" />
    </clipPath>
    <clipPath
       clipPathUnits="userSpaceOnUse"
       id="clipPath4223">
      <path
         d="M 0,276 H 276 V 0 H 0 Z"
         transform="translate(-72.315752,-164.9218)"
         id="path4223" />
    </clipPath>
    <clipPath
       clipPathUnits="userSpaceOnUse"
       id="clipPath4221">
      <path
         d="M 0,276 H 276 V 0 H 0 Z"
         transform="translate(-193.00425,-78.002304)"
         id="path4221" />
    </clipPath>
  </defs>
  <g
     inkscape:label="Layer 1"
     inkscape:groupmode="layer"
     id="layer1"
     transform="translate(-311.41469,-74.347916)">
    <path
       id="path4220"
       d="M 0,0 V -16.468 C 0,-24.7 -4.813,-27.013 -7.209,-27.013 l -82.4,0.156 -0.067,-0.002 c -3.52,-0.084 -6.42,2.747 -6.42,6.268 V 0 Z"
       style="fill:#2eb81b;fill-opacity:1;fill-rule:nonzero;stroke:none"
       transform="matrix(0.35277776,0,0,-0.35277776,363.32293,127.97077)"
       clip-path="url(#clipPath4221)" />
    <path
       id="path4222"
       d="m 0,0 c -0.229,-17.875 -0.324,-34.105 0.137,-52.812 0,-11.983 14.42,-11.284 14.42,-3.012 L 14.167,0 Z"
       style="fill:#2eb81b;fill-opacity:1;fill-rule:nonzero;stroke:none"
       transform="matrix(0.35277776,0,0,-0.35277776,320.74671,97.307506)"
       clip-path="url(#clipPath4223)" />
    <path
       id="path4224"
       d="m 0,0 h -10.025 l -0.007,23.364 c 0,8.523 -7.175,19.091 -16.704,19.091 l -105.473,0.095 c -12.395,0 -17.206,-7.808 -17.206,-16.106 0,-7.13 0.043,-13.922 0.064,-20.444 h 13.766 l -0.011,1.654 c -0.024,3.3 2.645,5.988 5.945,5.988 3.284,0 5.946,-2.662 5.946,-5.946 V 0 h -11.838 -13.799 -18.398 c -4.566,0 -8.266,-3.701 -8.266,-8.266 v 0 c 0,-4.565 3.7,-8.266 8.266,-8.266 h 18.267 14.046 11.722 v -84.124 h 15.358 90.498 c 4.825,-0.059 7.852,4.299 7.852,8.475 l -0.023,75.649 H 0 c 4.565,0 8.266,3.701 8.266,8.266 v 0 C 8.266,-3.701 4.565,0 0,0"
       style="fill:#2eb81b;fill-opacity:1;fill-rule:nonzero;stroke:none"
       transform="matrix(0.35277776,0,0,-0.35277776,373.50569,89.35861)"
       clip-path="url(#clipPath4225)" />
  </g>
</svg>
