<?xml version="1.0" encoding="utf-8"?>
<svg xmlns="http://www.w3.org/2000/svg" viewBox="264.0303 88.0945 277.4111 197.332" width="277.411px" height="197.332px" preserveAspectRatio="none"><g id="g3067" transform="matrix(1, 0, 0, 1, -8705.265035629274, 2.7608189582824707)"><path id="path3068" d="m 0,0 h -3.416 v -12.696 h 3.302 c 3.643,0 5.123,1.766 5.123,6.376 C 5.009,-1.879 3.473,0 0,0" style="fill:#7a7978;fill-opacity:1;fill-rule:nonzero;stroke:none" transform="matrix(1.3333333,0,0,-1.3333333,9068.9875,198.46533)" clip-path="url(#clipPath3069)"/><path id="path3070" d="M 0,0 -3.359,-19.015 H 3.529 L 0.171,0 Z" style="fill:#7a7978;fill-opacity:1;fill-rule:nonzero;stroke:none" transform="matrix(1.3333333,0,0,-1.3333333,9150.8851,198.76893)" clip-path="url(#clipPath3071)"/><path id="path3072" d="m 0,0 c -3.529,0 -5.124,-4.213 -5.124,-13.435 0,-9.451 1.595,-13.778 5.124,-13.778 3.472,0 5.067,4.327 5.067,13.778 C 5.067,-4.213 3.472,0 0,0" style="fill:#7a7978;fill-opacity:1;fill-rule:nonzero;stroke:none" transform="matrix(1.3333333,0,0,-1.3333333,9034.7568,197.85893)" clip-path="url(#clipPath3073)"/><path id="path3074" d="M 0,0 H -17.022 V 37.46 H -0.399 V 31.881 H -10.703 V 21.008 h 8.255 v -4.327 h -8.255 V 5.579 H 0 Z m -20.665,0 h -15.256 v 37.46 h 6.319 V 5.579 h 8.937 z m -26.469,0 -1.48,8.198 h -8.482 L -58.576,0 h -6.547 l 8.482,37.46 h 8.369 L -39.676,0 Z m -30.855,-0.456 c -8.14,0 -10.36,5.124 -10.36,13.493 h 5.636 c 0,-6.262 1.309,-8.311 4.724,-8.311 3.018,0 4.498,1.764 4.498,4.952 0,2.22 -0.74,3.359 -1.708,4.156 -0.911,0.74 -2.562,1.48 -4.839,2.448 -2.277,0.911 -4.213,1.992 -5.465,3.131 -1.537,1.31 -2.904,3.815 -2.904,7.914 0,6.604 3.929,10.588 10.418,10.588 7.629,0 10.02,-3.928 10.02,-13.947 h -5.636 c 0,7.116 -1.252,8.824 -4.213,8.824 -2.619,0 -4.27,-1.708 -4.27,-4.953 0,-2.676 0.684,-3.871 1.538,-4.668 1.024,-0.854 2.903,-1.708 5.009,-2.619 2.335,-0.968 4.043,-1.822 5.466,-3.074 1.651,-1.48 2.903,-3.928 2.903,-7.344 0,-6.434 -3.757,-10.59 -10.817,-10.59 m -25.216,11.273 V 0 h -6.32 v 10.646 c 0,2.847 -1.309,4.27 -4.554,4.27 h -3.7 V 0 h -6.32 v 37.46 h 9.792 c 7.686,0 11.158,-3.416 11.158,-10.76 0,-5.237 -1.366,-8.14 -5.066,-9.051 v -0.057 c 3.643,-0.74 5.01,-3.188 5.01,-6.775 m -36.832,-11.273 c -7.912,0 -11.556,6.092 -11.556,19.357 0,13.037 3.644,19.014 11.556,19.014 7.856,0 11.443,-5.977 11.443,-19.014 0,-13.265 -3.587,-19.357 -11.443,-19.357 m -13.776,32.337 h -10.076 V 20.21 h 8.425 v -4.668 h -8.425 V 0 h -6.319 v 37.46 h 16.395 z m 68.706,70.364 33.515,-33.516 h -67.031 z m 50.486,-33.516 -46.243,46.243 c -1.126,1.126 -2.651,1.758 -4.243,1.758 -1.591,0 -3.117,-0.632 -4.242,-1.758 l -46.243,-46.243 h -53.541 V -31.269 H 18.925 v 99.998 z" style="fill:#7a7978;fill-opacity:1;fill-rule:nonzero;stroke:none" transform="matrix(1.3333333,0,0,-1.3333333,9221.4723,240.97373)" clip-path="url(#clipPath3075)"/></g></svg>