<?xml version="1.0" encoding="UTF-8" standalone="no"?>
<!-- Created with Inkscape (http://www.inkscape.org/) -->

<svg
   width="65.326683mm"
   height="73.373756mm"
   viewBox="0 0 65.326683 73.373756"
   version="1.1"
   id="svg1"
   inkscape:version="1.4.2 (ebf0e940, 2025-05-08)"
   sodipodi:docname="tv news.svg"
   xmlns:inkscape="http://www.inkscape.org/namespaces/inkscape"
   xmlns:sodipodi="http://sodipodi.sourceforge.net/DTD/sodipodi-0.dtd"
   xmlns="http://www.w3.org/2000/svg"
   xmlns:svg="http://www.w3.org/2000/svg">
  <sodipodi:namedview
     id="namedview1"
     pagecolor="#ffffff"
     bordercolor="#000000"
     borderopacity="0.25"
     inkscape:showpageshadow="2"
     inkscape:pageopacity="0.0"
     inkscape:pagecheckerboard="0"
     inkscape:deskcolor="#d1d1d1"
     inkscape:document-units="mm"
     inkscape:zoom="0.01"
     inkscape:cx="150"
     inkscape:cy="150"
     inkscape:window-width="896"
     inkscape:window-height="204"
     inkscape:window-x="0"
     inkscape:window-y="39"
     inkscape:window-maximized="0"
     inkscape:current-layer="layer1" />
  <defs
     id="defs1">
    <clipPath
       clipPathUnits="userSpaceOnUse"
       id="clipPath262">
      <path
         d="M 0,276 H 276 V 0 H 0 Z"
         transform="translate(-178.8621,-136.2474)"
         id="path262" />
    </clipPath>
    <clipPath
       clipPathUnits="userSpaceOnUse"
       id="clipPath260">
      <path
         d="M 0,276 H 276 V 0 H 0 Z"
         transform="translate(-154.3717,-119.4003)"
         id="path260" />
    </clipPath>
    <clipPath
       clipPathUnits="userSpaceOnUse"
       id="clipPath258">
      <path
         d="M 0,276 H 276 V 0 H 0 Z"
         transform="translate(-117.5793,-142.3443)"
         id="path258" />
    </clipPath>
    <clipPath
       clipPathUnits="userSpaceOnUse"
       id="clipPath256">
      <path
         d="M 0,276 H 276 V 0 H 0 Z"
         transform="translate(-99.2929,-142.3443)"
         id="path256" />
    </clipPath>
    <clipPath
       clipPathUnits="userSpaceOnUse"
       id="clipPath254">
      <path
         d="M 0,276 H 276 V 0 H 0 Z"
         transform="translate(-72.663099,-142.3443)"
         id="path254" />
    </clipPath>
    <clipPath
       clipPathUnits="userSpaceOnUse"
       id="clipPath252">
      <path
         d="M 0,276 H 276 V 0 H 0 Z"
         transform="translate(-214.2679,-150.3957)"
         id="path252" />
    </clipPath>
  </defs>
  <g
     inkscape:label="Layer 1"
     inkscape:groupmode="layer"
     id="layer1"
     transform="translate(-60.060416,-108.74375)">
    <path
       id="path251"
       d="m 0,0 c -3.148,0 -5.699,2.552 -5.699,5.699 0,3.148 2.551,5.7 5.699,5.7 3.148,0 5.699,-2.552 5.699,-5.7 C 5.699,2.552 3.148,0 0,0 m -19.034,-64.883 c 0,-6.787 -4.351,-10.54 -11.15,-11.146 h -111.329 c -6.63,0.292 -10.49,5.635 -11.114,11.856 v 75.672 c 0,7.31 3.113,11.316 10.657,12.281 l 110.432,0.216 c 7.171,-0.619 11.827,-3.556 12.504,-11.143 z M 16.321,-77.718 16.234,26.277 C 15.494,32.82 6.96,41.534 0.414,41.534 h -59.8 c 13.288,14.283 27.009,28.147 40.863,41.891 1.622,3.758 -1.248,8.376 -5.381,8.167 -3.617,-0.183 -7.329,-6.06 -9.786,-8.537 -13.01,-13.11 -26.22,-26.026 -39.197,-39.169 -0.013,-0.013 -0.026,-0.026 -0.04,-0.039 -1.711,-1.677 -4.476,-1.607 -6.181,0.076 l -46.486,46.29 c -4.846,4.148 -11.127,-2.021 -8.155,-7.174 11.701,-13.17 27.337,-25.128 38.57,-38.445 0.795,-0.943 1.614,-1.862 2.007,-3.06 h -60.477 c -6.09,0 -14.565,-8.356 -15.144,-14.582 l -0.064,-104.647 c 1.572,-10.408 9.301,-15.873 21.625,-15.873 0.82,-0.773 -5.374,-14.15 -5.191,-17.127 0.305,-4.971 7.258,-7.574 10.895,-3.769 l 14.712,20.75 100.207,0.155 1.335,-0.692 c 4.492,-5.54 8.349,-12.846 12.907,-18.171 2.565,-2.998 4.941,-5.346 9.007,-3.033 6.629,3.771 -1.04,16.371 -2.645,21.883 12.678,0 21.07,4.775 22.326,15.854"
       style="fill:#2eb81b;fill-opacity:1;fill-rule:nonzero;stroke:none"
       transform="matrix(0.35277776,0,0,-0.35277776,119.62941,141.05779)"
       clip-path="url(#clipPath252)" />
    <path
       id="path253"
       d="m 0,0 h 8.504 l 8.503,-25.511 H 17.06 L 16.419,0 h 5.509 V -35.191 H 15.135 L 5.081,-6.258 H 4.974 L 5.508,-35.191 H 0 Z"
       style="fill:#2eb81b;fill-opacity:1;fill-rule:nonzero;stroke:none"
       transform="matrix(0.35277776,0,0,-0.35277776,69.674385,143.89814)"
       clip-path="url(#clipPath254)" />
    <path
       id="path255"
       d="M 0,0 H 15.617 V -5.241 H 5.936 v -10.216 h 7.756 v -4.064 H 5.936 V -29.95 h 10.055 v -5.241 H 0 Z"
       style="fill:#2eb81b;fill-opacity:1;fill-rule:nonzero;stroke:none"
       transform="matrix(0.35277776,0,0,-0.35277776,79.068786,143.89814)"
       clip-path="url(#clipPath256)" />
    <path
       id="path257"
       d="m 0,0 h 6.578 l 3.691,-26.634 h 0.214 l 3.957,26.58 h 6.097 l 4.065,-26.58 h 0.214 L 28.453,0 h 5.937 l -6.471,-35.191 h -6.9 L 17.276,-9.894 H 17.061 L 13.104,-35.191 H 6.471 Z"
       style="fill:#2eb81b;fill-opacity:1;fill-rule:nonzero;stroke:none"
       transform="matrix(0.35277776,0,0,-0.35277776,85.519823,143.89814)"
       clip-path="url(#clipPath258)" />
    <path
       id="path259"
       d="m 0,0 h 5.295 c 0,-5.883 1.229,-7.808 4.439,-7.808 2.834,0 4.225,1.658 4.225,4.652 0,2.086 -0.696,3.156 -1.605,3.905 C 11.499,1.444 9.947,2.139 7.808,3.048 5.669,3.904 3.85,4.921 2.674,5.99 1.23,7.22 -0.054,9.573 -0.054,13.424 c 0,6.204 3.69,9.948 9.788,9.948 7.166,0 9.413,-3.69 9.413,-13.103 h -5.295 c 0,6.685 -1.177,8.29 -3.958,8.29 -2.461,0 -4.011,-1.605 -4.011,-4.653 0,-2.514 0.641,-3.637 1.444,-4.386 0.962,-0.802 2.727,-1.605 4.707,-2.46 2.192,-0.91 3.797,-1.711 5.133,-2.888 1.551,-1.391 2.729,-3.69 2.729,-6.9 0,-6.043 -3.53,-9.947 -10.162,-9.947 C 2.085,-12.675 0,-7.862 0,0"
       style="fill:#2eb81b;fill-opacity:1;fill-rule:nonzero;stroke:none"
       transform="matrix(0.35277776,0,0,-0.35277776,98.499363,151.99227)"
       clip-path="url(#clipPath260)" />
    <path
       id="path261"
       d="M 0,0 V 6.846 H 5.242 V 0 L 3.691,-17.756 H 1.605 Z m -0.053,-22.195 h 5.402 v -6.899 h -5.402 z"
       style="fill:#2eb81b;fill-opacity:1;fill-rule:nonzero;stroke:none"
       transform="matrix(0.35277776,0,0,-0.35277776,107.13903,146.04899)"
       clip-path="url(#clipPath262)" />
  </g>
</svg>
