<?xml version="1.0" encoding="UTF-8" standalone="no"?>
<!-- Created with Inkscape (http://www.inkscape.org/) -->

<svg
   width="64.913147mm"
   height="63.871033mm"
   viewBox="0 0 64.913147 63.871033"
   version="1.1"
   id="svg1"
   inkscape:version="1.4.2 (ebf0e940, 2025-05-08)"
   sodipodi:docname="vacuum.svg"
   xmlns:inkscape="http://www.inkscape.org/namespaces/inkscape"
   xmlns:sodipodi="http://sodipodi.sourceforge.net/DTD/sodipodi-0.dtd"
   xmlns="http://www.w3.org/2000/svg"
   xmlns:svg="http://www.w3.org/2000/svg">
  <sodipodi:namedview
     id="namedview1"
     pagecolor="#ffffff"
     bordercolor="#000000"
     borderopacity="0.25"
     inkscape:showpageshadow="2"
     inkscape:pageopacity="0.0"
     inkscape:pagecheckerboard="0"
     inkscape:deskcolor="#d1d1d1"
     inkscape:document-units="mm"
     inkscape:zoom="0.10801558"
     inkscape:cx="41.660657"
     inkscape:cy="175.90055"
     inkscape:window-width="896"
     inkscape:window-height="245"
     inkscape:window-x="0"
     inkscape:window-y="39"
     inkscape:window-maximized="0"
     inkscape:current-layer="layer1" />
  <defs
     id="defs1">
    <clipPath
       clipPathUnits="userSpaceOnUse"
       id="clipPath3064">
      <path
         d="M 0,276 H 276 V 0 H 0 Z"
         transform="translate(-45.997201,-69.513099)"
         id="path3064" />
    </clipPath>
    <clipPath
       clipPathUnits="userSpaceOnUse"
       id="clipPath3062">
      <path
         d="M 0,276 H 276 V 0 H 0 Z"
         transform="translate(-183.9129,-76.906299)"
         id="path3062" />
    </clipPath>
  </defs>
  <g
     inkscape:label="Layer 1"
     inkscape:groupmode="layer"
     id="layer1"
     transform="translate(-75.935327,-116.68125)">
    <path
       id="path3061"
       d="m 0,0 c -8.348,35.039 -18.449,70.9 -28.12,106.104 -1.651,6.011 -2.758,12.22 -6.394,17.411 -7.863,11.223 -25.247,15.279 -36.185,6.631 -12.753,-10.083 -11.029,-34.909 -11.029,-52.696 18.045,-10.185 30.399,-28.23 37.764,-47.26 5.629,-14.543 16.374,-48.9 -4.421,-55.96 -4.7,-1.597 -28.667,-1.804 -34.546,-1.27 -8.098,0.736 -2.699,9.297 -1.657,13.61 3.889,16.095 -5.782,31.235 -21.211,35.569 -5.755,1.617 -11.853,1.628 -17.054,0.587 -5.718,-1.143 -9.658,-4.111 -11.468,-4.291 -2.4,-0.239 -2.699,1.016 -3.012,3.164 -1.088,7.471 -0.113,30.035 2.206,37.078 5.116,15.539 21.904,25.57 38.003,22.935 v 31.454 c 0,8.588 3.5,15.151 6.317,19.671 18.008,28.886 62.553,23.444 72.589,-8.234 C -6.64,83.425 3.697,40.885 14.264,0 c 7.695,0 22.062,0.926 27.983,-6.045 6.86,-8.077 3.87,-20.462 -3.721,-20.462 l -53.484,0.114 C -26.292,-26.393 -28.523,0 -8.966,0 Z"
       style="fill:#2eb81b;fill-opacity:1;fill-rule:nonzero;stroke:none"
       transform="matrix(0.35277776,0,0,-0.35277776,124.58892,170.16927)"
       clip-path="url(#clipPath3062)" />
    <path
       id="path3063"
       d="m 0,0 c 0,-12.172 9.867,-22.039 22.039,-22.039 12.172,0 22.039,9.867 22.039,22.039 0,12.172 -9.867,22.039 -22.039,22.039 C 9.867,22.039 0,12.172 0,0"
       style="fill:#2eb81b;fill-opacity:1;fill-rule:nonzero;stroke:none"
       transform="matrix(0.35277776,0,0,-0.35277776,75.935327,172.77742)"
       clip-path="url(#clipPath3064)" />
  </g>
</svg>
