<?xml version="1.0" encoding="UTF-8" standalone="no"?>
<!-- Created with Inkscape (http://www.inkscape.org/) -->

<svg
   width="50.610397mm"
   height="64.911812mm"
   viewBox="0 0 50.610397 64.911812"
   version="1.1"
   id="svg1"
   inkscape:version="1.4.2 (ebf0e940, 2025-05-08)"
   sodipodi:docname="washer.svg"
   xmlns:inkscape="http://www.inkscape.org/namespaces/inkscape"
   xmlns:sodipodi="http://sodipodi.sourceforge.net/DTD/sodipodi-0.dtd"
   xmlns="http://www.w3.org/2000/svg"
   xmlns:svg="http://www.w3.org/2000/svg">
  <sodipodi:namedview
     id="namedview1"
     pagecolor="#ffffff"
     bordercolor="#000000"
     borderopacity="0.25"
     inkscape:showpageshadow="2"
     inkscape:pageopacity="0.0"
     inkscape:pagecheckerboard="0"
     inkscape:deskcolor="#d1d1d1"
     inkscape:document-units="mm"
     inkscape:zoom="0.13082005"
     inkscape:cx="-210.21242"
     inkscape:cy="214.03447"
     inkscape:window-width="1712"
     inkscape:window-height="971"
     inkscape:window-x="0"
     inkscape:window-y="39"
     inkscape:window-maximized="1"
     inkscape:current-layer="layer1" />
  <defs
     id="defs1">
    <clipPath
       clipPathUnits="userSpaceOnUse"
       id="clipPath2937">
      <path
         d="M 0,276 H 276 V 0 H 0 Z"
         transform="translate(-138.86573,-170.3865)"
         id="path2937" />
    </clipPath>
    <clipPath
       clipPathUnits="userSpaceOnUse"
       id="clipPath2935">
      <path
         d="M 0,276 H 276 V 0 H 0 Z"
         transform="translate(-136.34348,-183.4851)"
         id="path2935" />
    </clipPath>
  </defs>
  <g
     inkscape:label="Layer 1"
     inkscape:groupmode="layer"
     id="layer1"
     transform="translate(-292.10001,191.29375)">
    <path
       id="path2934"
       d="M 0,0 C -38.565,-2.187 -55.916,-46.878 -31.147,-75.815 -12.77,-97.284 21.709,-96.361 38.569,-73.593 61.759,-42.278 39.539,2.242 0,0 m -47.62,31.339 c -2.574,0 -3.731,-2.277 -4.151,-4.27 -0.805,-3.813 1.389,-7.351 5.286,-7.356 9.644,-0.011 20.635,-0.095 28.74,-0.095 6.465,0 6.69,11.704 -0.112,11.704 -3.621,0 -26.369,0.017 -29.763,0.017 M -61.816,46.516 H 66.188 c 4.267,0 7.2,-3.727 7.2,-7.827 v -168.362 c 0,-4.052 -3.17,-7.813 -7.831,-7.813 H -61.552 c -3.443,0 -7.814,2.595 -7.814,7.716 -1.847,56.318 0.567,110.764 0,167.206 0,4.107 1.454,9.08 7.55,9.08"
       style="fill:#2eb81b;fill-opacity:1;fill-rule:nonzero;stroke:none"
       transform="matrix(0.35277776,0,0,-0.35277776,316.82075,-174.88394)"
       clip-path="url(#clipPath2935)" />
    <path
       id="path2936"
       d="M 0,0 C 38.053,0.63 43.56,-56.788 6.535,-64.152 -37.701,-72.951 -46.937,-0.777 0,0"
       style="fill:#2eb81b;fill-opacity:1;fill-rule:nonzero;stroke:none"
       transform="matrix(0.35277776,0,0,-0.35277776,317.71055,-170.26304)"
       clip-path="url(#clipPath2937)" />
  </g>
</svg>
