<?xml version="1.0" encoding="UTF-8" standalone="no"?>
<!-- Created with Inkscape (http://www.inkscape.org/) -->

<svg
   width="91.863129mm"
   height="84.719482mm"
   viewBox="0 0 91.863129 84.719482"
   version="1.1"
   id="svg1"
   xml:space="preserve"
   inkscape:version="1.4.2 (ebf0e940, 2025-05-08)"
   sodipodi:docname="welcome mat.svg"
   xmlns:inkscape="http://www.inkscape.org/namespaces/inkscape"
   xmlns:sodipodi="http://sodipodi.sourceforge.net/DTD/sodipodi-0.dtd"
   xmlns="http://www.w3.org/2000/svg"
   xmlns:svg="http://www.w3.org/2000/svg"><sodipodi:namedview
     id="namedview1"
     pagecolor="#ffffff"
     bordercolor="#000000"
     borderopacity="0.25"
     inkscape:showpageshadow="2"
     inkscape:pageopacity="0.0"
     inkscape:pagecheckerboard="0"
     inkscape:deskcolor="#d1d1d1"
     inkscape:document-units="mm"
     inkscape:zoom="0.0941789"
     inkscape:cx="-4263.163"
     inkscape:cy="1114.8994"
     inkscape:window-width="1712"
     inkscape:window-height="971"
     inkscape:window-x="0"
     inkscape:window-y="39"
     inkscape:window-maximized="1"
     inkscape:current-layer="g1" /><defs
     id="defs1"><clipPath
       clipPathUnits="userSpaceOnUse"
       id="clipPath3586"><path
         d="M 0,276 H 276 V 0 H 0 Z"
         transform="translate(-175.377,-209.46741)"
         id="path3586" /></clipPath><clipPath
       clipPathUnits="userSpaceOnUse"
       id="clipPath3584"><path
         d="M 0,276 H 276 V 0 H 0 Z"
         transform="translate(-200.86051,-188.9013)"
         id="path3584" /></clipPath><clipPath
       clipPathUnits="userSpaceOnUse"
       id="clipPath3582"><path
         d="M 0,276 H 276 V 0 H 0 Z"
         transform="translate(-171.9345,-173.9928)"
         id="path3582" /></clipPath><clipPath
       clipPathUnits="userSpaceOnUse"
       id="clipPath3580"><path
         d="M 0,276 H 276 V 0 H 0 Z"
         transform="translate(-70.946252,-151.6891)"
         id="path3580" /></clipPath></defs><g
     inkscape:label="Layer 1"
     inkscape:groupmode="layer"
     id="layer1"
     transform="translate(-62.547603,-119.8299)"><g
       id="g1"
       transform="matrix(0.26458333,0,0,0.26458333,42.836042,82.788126)"><g
         id="g8"
         style="fill:#2eb81b;fill-opacity:1">
	<path
   style="fill:#2eb81b;fill-opacity:1"
   d="m 147.7,260.7 -5.9,-28.6 -5.9,28.6 c -0.5,2.2 -0.8,3.7 -1.1,4.7 -0.3,0.9 -0.7,1.8 -1.4,2.5 -0.7,0.7 -1.6,1.1 -2.7,1.1 -0.9,0 -1.7,-0.2 -2.2,-0.7 -0.6,-0.4 -1.1,-1.1 -1.4,-1.9 -0.4,-0.8 -0.7,-1.8 -0.9,-2.9 -0.2,-1.1 -0.4,-2.2 -0.6,-3.1 l -6,-32.1 c -0.4,-1.9 -0.5,-3.3 -0.5,-4.3 0,-1.2 0.3,-2.3 1,-3.1 0.7,-0.8 1.5,-1.3 2.5,-1.3 1.3,0 2.2,0.6 2.7,1.7 0.5,1.1 0.9,2.8 1.2,4.9 l 4.8,27.9 5.3,-26.1 c 0.4,-2 0.8,-3.5 1.1,-4.6 0.3,-1 0.8,-1.9 1.5,-2.7 0.7,-0.8 1.7,-1.1 2.9,-1.1 1.2,0 2.2,0.4 2.9,1.2 0.7,0.8 1.2,1.7 1.4,2.6 0.3,0.9 0.6,2.5 1.1,4.6 l 5.4,26.1 4.8,-27.9 c 0.2,-1.5 0.4,-2.6 0.7,-3.4 0.2,-0.8 0.6,-1.6 1.1,-2.2 0.5,-0.6 1.2,-1 2.2,-1 1,0 1.8,0.4 2.4,1.3 0.7,0.8 1,1.9 1,3.1 0,0.9 -0.2,2.3 -0.5,4.3 l -6,32.1 c -0.4,2.2 -0.8,3.8 -1,4.8 -0.3,1 -0.7,1.9 -1.4,2.7 -0.7,0.8 -1.6,1.1 -2.8,1.1 -1.1,0 -2,-0.4 -2.7,-1.1 -0.7,-0.7 -1.1,-1.6 -1.4,-2.5 -0.7,-0.9 -1.1,-2.5 -1.6,-4.7 z"
   id="path2" />
	<path
   style="fill:#2eb81b;fill-opacity:1"
   d="m 193.5,227.9 h -16.6 v 11.7 h 15.3 c 1.1,0 2,0.3 2.5,1 0.6,0.7 0.8,1.5 0.8,2.6 0,1.1 -0.3,2 -0.8,2.7 -0.5,0.7 -1.4,1 -2.5,1 h -15.3 v 13.6 h 17.2 c 1.2,0 2,0.4 2.6,1.1 0.6,0.7 0.9,1.6 0.9,2.8 0,1.1 -0.3,2 -0.9,2.8 -0.6,0.7 -1.5,1.1 -2.6,1.1 h -20 c -1.6,0 -2.8,-0.5 -3.5,-1.4 -0.7,-0.9 -1.1,-2.4 -1.1,-4.5 v -35.9 c 0,-1.4 0.2,-2.5 0.5,-3.4 0.3,-0.9 0.8,-1.5 1.5,-1.9 0.7,-0.4 1.5,-0.6 2.6,-0.6 h 19.4 c 1.2,0 2,0.3 2.6,1 0.6,0.7 0.9,1.6 0.9,2.7 0,1.1 -0.3,2 -0.9,2.7 -0.5,0.6 -1.4,0.9 -2.6,0.9 z"
   id="path3" />
	<path
   style="fill:#2eb81b;fill-opacity:1"
   d="m 210.6,225.5 v 34.7 h 14.9 c 1.2,0 2.1,0.4 2.7,1.1 0.6,0.8 1,1.7 1,2.9 0,1.2 -0.3,2.1 -0.9,2.8 -0.6,0.7 -1.5,1.1 -2.7,1.1 h -17.8 c -1.6,0 -2.8,-0.5 -3.5,-1.4 -0.7,-0.9 -1.1,-2.4 -1.1,-4.5 v -36.7 c 0,-2 0.3,-3.4 1,-4.4 0.7,-1 1.5,-1.5 2.6,-1.5 1.1,0 2,0.5 2.7,1.5 0.8,1 1.1,2.4 1.1,4.4 z"
   id="path4" />
	<path
   style="fill:#2eb81b;fill-opacity:1"
   d="m 262.5,253.1 c 0,1.5 -0.3,3.2 -0.9,4.9 -0.6,1.8 -1.5,3.5 -2.7,5.2 -1.2,1.7 -2.8,3.1 -4.7,4.2 -1.9,1.1 -4.1,1.6 -6.6,1.6 -1.9,0 -3.7,-0.2 -5.2,-0.7 -1.5,-0.5 -3,-1.2 -4.3,-2.2 -1.3,-1 -2.5,-2.3 -3.5,-4 -1,-1.5 -1.8,-3.2 -2.5,-5 -0.7,-1.9 -1.2,-3.8 -1.5,-5.9 -0.3,-2.1 -0.5,-4.3 -0.5,-6.7 0,-3.8 0.4,-7.3 1.3,-10.3 0.9,-3 2.1,-5.6 3.7,-7.8 1.6,-2.2 3.4,-3.8 5.6,-4.9 2.1,-1.1 4.4,-1.7 6.8,-1.7 2.9,0 5.6,0.8 7.8,2.3 2.3,1.5 4.1,3.4 5.3,5.7 1.2,2.3 1.8,4.4 1.8,6.4 0,1.1 -0.3,2.1 -0.9,2.9 -0.6,0.8 -1.3,1.3 -2.2,1.3 -0.9,0 -1.6,-0.3 -2.1,-0.9 -0.5,-0.6 -1,-1.6 -1.6,-3 -1,-2.4 -2.1,-4.1 -3.4,-5.3 -1.3,-1.2 -2.9,-1.8 -4.8,-1.8 -3,0 -5.4,1.5 -7.2,4.5 -1.8,3 -2.7,7.3 -2.7,12.9 0,3.7 0.4,6.8 1.2,9.3 0.8,2.5 1.9,4.3 3.4,5.5 1.5,1.2 3.2,1.8 5.1,1.8 2.1,0 3.9,-0.7 5.4,-2.1 1.5,-1.4 2.6,-3.4 3.3,-6.1 0.3,-1.3 0.7,-2.3 1.2,-3.1 0.5,-0.8 1.2,-1.2 2.2,-1.2 0.9,0 1.6,0.4 2.3,1.2 0.5,0.8 0.9,1.8 0.9,3 z"
   id="path5" />
	<path
   style="fill:#2eb81b;fill-opacity:1"
   d="m 285,219.7 c 3.8,0 7,1 9.7,3 2.7,2 4.7,4.9 6.1,8.6 1.4,3.7 2.1,8 2.1,13 0,3.7 -0.4,7 -1.1,10.1 -0.8,3 -1.9,5.6 -3.4,7.8 -1.5,2.2 -3.4,3.9 -5.6,5.1 -2.2,1.2 -4.7,1.8 -7.6,1.8 -2.8,0 -5.4,-0.6 -7.6,-1.8 -2.2,-1.2 -4.1,-2.9 -5.6,-5.1 -1.5,-2.2 -2.6,-4.8 -3.4,-7.9 -0.8,-3.1 -1.2,-6.4 -1.2,-10 0,-3.7 0.4,-7 1.2,-10.1 0.8,-3.1 2,-5.7 3.5,-7.8 1.5,-2.1 3.4,-3.8 5.5,-4.9 2.2,-1.3 4.7,-1.8 7.4,-1.8 z m 10.5,24.5 c 0,-3.5 -0.4,-6.5 -1.3,-9.1 -0.9,-2.6 -2.1,-4.5 -3.7,-5.8 -1.6,-1.3 -3.4,-2 -5.5,-2 -1.5,0 -2.8,0.4 -4.1,1.1 -1.2,0.7 -2.3,1.8 -3.2,3.2 -0.9,1.4 -1.6,3.2 -2.1,5.3 -0.5,2.2 -0.8,4.6 -0.8,7.3 0,2.7 0.3,5.2 0.8,7.4 0.5,2.2 1.3,4 2.2,5.5 0.9,1.5 2,2.5 3.3,3.2 1.2,0.7 2.6,1.1 4,1.1 1.9,0 3.6,-0.6 5.2,-1.9 1.6,-1.2 2.8,-3.1 3.8,-5.7 0.9,-2.6 1.4,-5.8 1.4,-9.6 z"
   id="path6" />
	<path
   style="fill:#2eb81b;fill-opacity:1"
   d="m 321.5,261 -5.8,-30.4 v 32.9 c 0,1.8 -0.3,3.2 -0.9,4.1 -0.6,0.9 -1.4,1.4 -2.5,1.4 -1,0 -1.8,-0.5 -2.4,-1.3 -0.6,-0.9 -0.9,-2.3 -0.9,-4.1 v -37.8 c 0,-2.1 0.4,-3.5 1.2,-4.2 0.8,-0.7 1.9,-1.1 3.3,-1.1 h 2.3 c 1.4,0 2.4,0.2 3,0.5 0.6,0.3 1.1,0.9 1.4,1.8 0.3,0.8 0.6,2.2 1,4.1 l 5.3,26.1 5.3,-26.1 c 0.4,-1.9 0.7,-3.3 1,-4.1 0.3,-0.8 0.8,-1.4 1.4,-1.8 0.6,-0.3 1.6,-0.5 3,-0.5 h 2.3 c 1.4,0 2.5,0.4 3.3,1.1 0.8,0.7 1.2,2.1 1.2,4.2 v 37.8 c 0,1.8 -0.3,3.2 -0.9,4.1 -0.6,0.9 -1.4,1.4 -2.5,1.4 -1,0 -1.8,-0.5 -2.4,-1.4 -0.6,-0.9 -0.9,-2.3 -0.9,-4.1 v -32.9 l -5.8,30.4 c -0.4,2 -0.7,3.4 -0.9,4.3 -0.2,0.9 -0.7,1.8 -1.3,2.5 -0.6,0.8 -1.5,1.1 -2.7,1.1 -0.9,0 -1.6,-0.2 -2.2,-0.7 -0.6,-0.5 -1.1,-1.1 -1.4,-1.9 -0.3,-0.8 -0.6,-1.6 -0.8,-2.5 -0.3,-0.9 -0.5,-1.9 -0.7,-2.9 z"
   id="path7" />
	<path
   style="fill:#2eb81b;fill-opacity:1"
   d="m 375.4,227.9 h -16.6 v 11.7 h 15.3 c 1.1,0 2,0.3 2.5,1 0.6,0.7 0.8,1.5 0.8,2.6 0,1.1 -0.3,2 -0.8,2.7 -0.5,0.7 -1.4,1 -2.5,1 h -15.3 v 13.6 h 17.1 c 1.2,0 2,0.4 2.6,1.1 0.6,0.7 0.9,1.6 0.9,2.8 0,1.1 -0.3,2 -0.9,2.8 -0.6,0.7 -1.5,1.1 -2.6,1.1 h -20 c -1.6,0 -2.8,-0.5 -3.5,-1.4 -0.7,-0.9 -1.1,-2.4 -1.1,-4.5 v -35.9 c 0,-1.4 0.2,-2.5 0.5,-3.4 0.3,-0.9 0.8,-1.5 1.5,-1.9 0.7,-0.4 1.5,-0.6 2.6,-0.6 h 19.4 c 1.2,0 2,0.3 2.6,1 0.6,0.7 0.9,1.6 0.9,2.7 0,1.1 -0.3,2 -0.9,2.7 -0.5,0.6 -1.3,0.9 -2.5,0.9 z"
   id="path8" />
</g><path
         id="rect1"
         style="fill:#2eb81b;fill-opacity:1"
         d="M 74.50039,140.00039 V 356.1 H 421.69961 V 140.00039 Z m 14.798829,14.69922 H 407.00039 V 341.40078 H 89.299219 Z" /><g
         id="g11"
         style="fill:#2eb81b;fill-opacity:1"
         transform="translate(0,8)">
	<path
   style="fill:#2eb81b;fill-opacity:0.976834"
   d="m 259.2,358.7 c 0.8,5.2 3.5,56.7 4.1,61.2 3.9,-14 -9,-70.3 23,-70.3 32,0 20.7,58.5 24.7,71.3 l 6.3,-58.2 1.3,-11.2 -0.3,-0.1 c 0.2,-1.3 0.3,-2.8 0.3,-4.3 0,-18 -6.1,-67.3 -35.1,-67.3 -18.2,0 -27.1,44.9 -27.1,58.7 0,13.8 1.7,12.9 2.8,20.2 z"
   id="path10" />
	<path
   style="fill:#2eb81b;fill-opacity:0.976834"
   d="m 259.58512,350.10949 c 0.4,8.2 4.11488,81.09051 4.11488,81.09051 0.3,12.8 9.3,20.7 22.1,21 14.4,-0.3 23.8,-8.2 24,-21 v 0 l 7.1245,-74.46163 c 0,0 -8.5245,89.86163 -31.0245,89.86163 -22.5,0 -26.31488,-96.49051 -26.31488,-96.49051 z"
   id="path11"
   sodipodi:nodetypes="cccsccsc" />
</g><g
         id="g14"
         style="fill:#2eb81b;fill-opacity:1"
         transform="translate(0,8)">
	<path
   style="fill:#2eb81b;fill-opacity:1"
   d="m 237,358.7 c -0.8,5.2 -3.5,56.7 -4.1,61.2 -3.9,-14 9,-70.3 -23,-70.3 -32,0 -20.7,58.5 -24.7,71.3 l -6.3,-58.2 -1.3,-11.2 0.3,-0.1 c -0.2,-1.3 -0.3,-2.8 -0.3,-4.3 0,-18 6.1,-67.3 35.1,-67.3 18.2,0 27.1,44.9 27.1,58.7 0,13.8 -1.7,12.9 -2.8,20.2 z"
   id="path13" />
	<path
   style="fill:#2eb81b;fill-opacity:1"
   d="m 236.01225,347.09637 c -0.4,8.2 -3.51225,84.10363 -3.51225,84.10363 -0.3,12.8 -9.3,20.7 -22.1,21 -14.4,-0.3 -23.8,-8.2 -24,-21 v 0 l -7.1245,-69.64063 c 0,0 8.5245,85.04063 31.0245,85.04063 22.5,0 25.71225,-99.50363 25.71225,-99.50363 z"
   id="path14"
   sodipodi:nodetypes="cccsccsc" />
</g></g></g></svg>
