<?xml version="1.0" encoding="UTF-8" standalone="no"?>
<!-- Created with Inkscape (http://www.inkscape.org/) -->

<svg
   width="52.576336mm"
   height="73.382011mm"
   viewBox="0 0 52.576336 73.382011"
   version="1.1"
   id="svg1"
   inkscape:version="1.4.2 (ebf0e940, 2025-05-08)"
   sodipodi:docname="box of contents.svg"
   xmlns:inkscape="http://www.inkscape.org/namespaces/inkscape"
   xmlns:sodipodi="http://sodipodi.sourceforge.net/DTD/sodipodi-0.dtd"
   xmlns="http://www.w3.org/2000/svg"
   xmlns:svg="http://www.w3.org/2000/svg">
  <sodipodi:namedview
     id="namedview1"
     pagecolor="#ffffff"
     bordercolor="#000000"
     borderopacity="0.25"
     inkscape:showpageshadow="2"
     inkscape:pageopacity="0.0"
     inkscape:pagecheckerboard="0"
     inkscape:deskcolor="#d1d1d1"
     inkscape:document-units="mm"
     inkscape:zoom="0.18463918"
     inkscape:cx="138.1072"
     inkscape:cy="108.31937"
     inkscape:window-width="896"
     inkscape:window-height="245"
     inkscape:window-x="0"
     inkscape:window-y="39"
     inkscape:window-maximized="0"
     inkscape:current-layer="layer1" />
  <defs
     id="defs1">
    <inkscape:path-effect
       effect="fillet_chamfer"
       id="path-effect6"
       is_visible="true"
       lpeversion="1"
       nodesatellites_param="F,0,1,1,0,1.5989506,0,1 @ F,0,1,1,0,1.5989506,0,1 @ F,0,1,1,0,1.5989506,0,1 @ F,0,0,1,0,1.5989506,0,1 @ F,0,1,1,0,1.5989506,0,1 @ F,0,1,1,0,1.5989506,0,1"
       radius="0"
       unit="px"
       method="auto"
       mode="F"
       chamfer_steps="1"
       flexible="false"
       use_knot_distance="true"
       apply_no_radius="true"
       apply_with_radius="true"
       only_selected="false"
       hide_knots="false" />
    <inkscape:path-effect
       effect="fillet_chamfer"
       id="path-effect8"
       is_visible="true"
       lpeversion="1"
       nodesatellites_param="F,0,1,1,0,0,0,1 @ F,0,1,1,0,1.8697821,0,1 @ F,0,1,1,0,1.8697821,0,1 @ F,0,1,1,0,1.8697821,0,1 @ F,0,1,1,0,1.8697821,0,1 @ F,0,1,1,0,1.8697821,0,1 @ F,0,0,1,0,1.8697821,0,1 @ F,0,0,1,0,0,0,1"
       radius="0"
       unit="px"
       method="auto"
       mode="F"
       chamfer_steps="1"
       flexible="false"
       use_knot_distance="true"
       apply_no_radius="true"
       apply_with_radius="true"
       only_selected="false"
       hide_knots="false" />
    <inkscape:path-effect
       effect="fillet_chamfer"
       id="path-effect7"
       is_visible="true"
       lpeversion="1"
       nodesatellites_param="F,0,1,1,0,0,0,1 @ F,0,0,1,0,2.1093809,0,1 @ F,0,1,1,0,2.1093809,0,1 @ F,0,1,1,0,2.1093809,0,1 @ F,0,1,1,0,2.1093809,0,1 @ F,0,0,1,0,0,0,1"
       radius="0"
       unit="px"
       method="auto"
       mode="F"
       chamfer_steps="1"
       flexible="false"
       use_knot_distance="true"
       apply_no_radius="true"
       apply_with_radius="true"
       only_selected="false"
       hide_knots="false" />
    <clipPath
       clipPathUnits="userSpaceOnUse"
       id="clipPath4898">
      <path
         d="M 0,3824 H 3162.283 V 0 H 0 Z"
         transform="translate(-3279.3091,-1516.6358)"
         id="path4898" />
    </clipPath>
    <clipPath
       clipPathUnits="userSpaceOnUse"
       id="clipPath3624">
      <path
         d="M 0,276 H 276 V 0 H 0 Z"
         transform="translate(-141.32925,-176.6085)"
         id="path3624" />
    </clipPath>
    <clipPath
       clipPathUnits="userSpaceOnUse"
       id="clipPath3622">
      <path
         d="M 0,276 H 276 V 0 H 0 Z"
         transform="translate(-87.083252,-170.373)"
         id="path3622" />
    </clipPath>
    <clipPath
       clipPathUnits="userSpaceOnUse"
       id="clipPath3620">
      <path
         d="M 0,276 H 276 V 0 H 0 Z"
         transform="translate(-167.19675,-98.256902)"
         id="path3620" />
    </clipPath>
  </defs>
  <g
     inkscape:label="Layer 1"
     inkscape:groupmode="layer"
     id="layer1"
     transform="translate(-82.285405,-111.91875)">
    <path
       id="path3619"
       d="m 0,0 c 0,-4.034 -3.27,-7.305 -7.305,-7.305 h -42.218 c -4.034,0 -7.304,3.271 -7.304,7.305 0,4.034 3.27,7.304 7.304,7.304 H -7.305 C -3.27,7.304 0,4.034 0,0 M -95.194,29.345 V -49.84 c 0,-7.965 6.457,-14.423 14.423,-14.423 H 23.944 c 7.966,0 14.423,6.458 14.423,14.423 v 79.185 z"
       style="fill:#b65acc;fill-opacity:1;fill-rule:nonzero;stroke:none"
       transform="matrix(0.35277776,0,0,-0.35277776,118.87356,162.6302)"
       clip-path="url(#clipPath3620)" />
    <path
       id="path3621"
       clip-path="url(#clipPath3622)"
       style="fill:#b65acc;fill-opacity:1;fill-rule:nonzero;stroke:none"
       d="m 32.313235,14.037645 c -15.854,0 -34.1496261,-0.01611 -50.390626,-0.01611 -3.74,-0.417 -6.0025,-4.094024 -5.4375,-7.749024 l 9.212402,-42.016114 h 6.3163977 L -16.455405,1.1383878 c -2.205716,8.1129018 3.163079,7.6959339 7.7207876,7.658046 11.1003376,0 26.6041104,0.016113 37.4399424,0.016113 1.373104,0 4.993233,-1.0359544 6.097731,-2.2229544 1.526202,-1.64 10.174437,-7.7643559 11.034934,-9.8993558 0.472965,-1.172 1.499786,-7.2815536 1.668605,-8.6125536 1.234299,-9.728635 3.536709,-15.697339 4.539551,-23.821289 h 6.568359 c -1.951,11.095 -3.205976,17.354922 -5.375976,29.0449219 -0.247,1.331 -0.95595,6.16833225 -1.64795,7.34033225 -1.259,2.13499995 -12.447664,9.98792985 -14.680664,11.62792985 -1.616,1.187 -2.58768,1.768067 -4.59668,1.768067 z"
       transform="matrix(0.35277776,0,0,-0.35277776,90.6113,137.18925)"
       sodipodi:nodetypes="sccccccsccccccccs" />
    <path
       id="path3623"
       d="m 0,0 c 2.18,-1.058 6.944,-2.262 8.463,-3.268 3.827,-2.534 8.289,-21.563 9.626,-30.818 0.071,-0.493 0.96,-7.452 0.824,-7.894 h 8.739 c -0.232,1.097 -1.18,9.291 -1.098,10.062 0.075,0.704 2.619,4.137 3.248,4.578 2.226,1.556 4.652,0.524 7.051,0.867 13.209,1.883 23.986,8.718 29.74,20.912 1.263,2.677 4.879,11.495 0.7,12.31 -14.007,2.732 -27.535,-4.951 -34.205,-17.015 -2.039,-3.689 -2.387,-8.271 -5.796,-10.294 -1.443,-0.127 -0.7,27.112 -0.42,35.995 0.05,1.576 1.228,2.864 2.786,3.107 17.69,2.761 32.163,14.99 38.672,31.354 1.026,2.578 4.328,14.496 2.104,14.87 C 39.458,69.973 19.612,41.779 19.612,24.136 V -7.252 l -5.991,9.301 c -0.355,0.551 -0.528,1.197 -0.514,1.853 0.438,20.769 -11.99,41.375 -32.844,46.491 -2.057,0.505 -6.859,1.955 -8.498,0.66 -1.631,-1.288 0.058,-10.792 0.506,-13.176 C -24.522,20.795 -15.707,7.622 0,0"
       style="fill:#b65acc;fill-opacity:1;fill-rule:nonzero;stroke:none"
       transform="matrix(0.35277776,0,0,-0.35277776,109.74808,134.9895)"
       clip-path="url(#clipPath3624)" />
    <path
       id="path4897"
       d="m 0,0 c 1.878,-10.701 20.017,-5.592 27.432,-5.453 27.938,0.52 55.938,-0.49 83.88,-0.023 0.636,-43.056 -29.513,-85.186 -69.834,-99.939 -90.592,-33.146 -174.865,55.79 -140.865,144.861 13.295,34.831 50.397,64.469 87.914,67.934 C -8.682,107.638 0,108.597 0,104.898 Z"
       style="fill:#b65acc;fill-opacity:1;fill-rule:nonzero;stroke:none"
       transform="matrix(0.35277776,0,0,-0.35277776,2140.6826,913.91322)"
       clip-path="url(#clipPath4898)" />
    <ellipse
       style="fill:#b65acc;stroke-width:1.75075;stroke-linecap:round"
       id="path2"
       cx="93.356697"
       cy="141.83815"
       rx="2.9624393"
       ry="2.1492205" />
    <ellipse
       style="fill:#b65acc;stroke-width:1.75075;stroke-linecap:round"
       id="path3"
       cx="98.883492"
       cy="145.73203"
       rx="2.4977429"
       ry="1.6264372" />
    <path
       style="fill:#b65acc;stroke-width:2.07624;stroke-linecap:round"
       id="path3-6"
       sodipodi:type="arc"
       sodipodi:cx="-94.528717"
       sodipodi:cy="-149.96336"
       sodipodi:rx="2.9151239"
       sodipodi:ry="1.9598998"
       sodipodi:start="0"
       sodipodi:end="3.0687824"
       sodipodi:arc-type="slice"
       d="m -91.613593,-149.96336 a 2.9151239,1.9598998 0 0 1 -2.809022,1.9586 2.9151239,1.9598998 0 0 1 -3.013502,-1.81603 l 2.9074,-0.14257 z"
       transform="scale(-1)" />
    <path
       style="fill:#b65acc;stroke-width:6.617;stroke-linecap:round"
       d="m 10628.592,167.93342 1.586,-2.684 a 3.9140458,3.9140458 148.89953 0 1 3.18,-1.91831 l 16.855,-0.8182 a 2.3367956,2.3367956 39.292872 0 1 2.424,1.9832 l 1.82,11.9883 a 1.92164,1.92164 129.03141 0 1 -1.789,2.20697 l -17.06,0.98429 a 5.038158,5.038158 19.416109 0 1 -3.67,-1.29362 l -2.732,-2.47128"
       id="path4"
       inkscape:path-effect="#path-effect7"
       inkscape:original-d="m 10628.592,167.93342 2.659,-4.50004 21.069,-1.02274 2.454,16.15924 -21.272,1.22729 -4.296,-3.8864"
       transform="matrix(0.26458333,0,0,0.26458333,-2711.8847,99.926388)" />
    <path
       style="fill:#b65acc;stroke-width:6.617;stroke-linecap:round"
       d="m 10611.206,162.00154 4.464,2.23198 a 7.9200161,7.9200161 13.283347 0 0 3.542,0.83624 h 5.26 a 3.9197766,3.9197766 154.49828 0 0 3.047,-1.45316 l 1.124,-1.38918 a 4.235673,4.235673 152.81499 0 1 3.044,-1.56296 l 17.129,-1.00768 a 1.6194387,1.6194387 127.52961 0 0 1.492,-1.94156 l -2.727,-13.31392 a 2.1409005,2.1409005 37.293064 0 0 -2.241,-1.70655 l -26.745,1.79506 a 4.0230685,4.0230685 151.23296 0 0 -2.973,1.63201 l -6.257,8.51602"
       id="path5"
       sodipodi:nodetypes="cccccccc"
       inkscape:path-effect="#path-effect8"
       inkscape:original-d="m 10611.206,162.00154 6.136,3.06822 h 9 l 3.478,-4.2955 20.863,-1.22728 -3.477,-16.97744 -30.477,2.04548 -7.364,10.02282"
       transform="matrix(0.26458333,0,0,0.26458333,-2711.8847,99.926388)" />
    <path
       style="fill:#b65acc;stroke-width:6.617;stroke-linecap:round"
       d="m 10616.812,187.08979 1.045,-3.11744 a 2.4631484,2.4631484 141.51789 0 1 2.1,-1.66911 l 7.452,-0.71665 a 4.8039674,4.8039674 12.916959 0 1 2.958,0.67828 l 1.973,1.20102 a 5.1291795,5.1291795 14.012301 0 0 2.962,0.73923 l 18.081,-1.0431 a 1.7592453,1.7592453 38.965367 0 1 1.84,1.48818 l 0.359,2.3314 a 1.3728002,1.3728002 130.5844 0 1 -1.355,1.58205 l -36.324,0.0404 a 1.1491301,1.1491301 54.232269 0 1 -1.091,-1.51429 z"
       id="path6"
       sodipodi:nodetypes="ccccccc"
       inkscape:path-effect="#path-effect6"
       inkscape:original-d="m 10616.304,188.60586 2.061,-6.14958 10.636,-1.02273 4.705,2.86366 21.273,-1.22728 0.847,5.49194 z"
       transform="matrix(0.26458333,0,0,0.26458333,-2711.8847,99.926388)" />
  </g>
</svg>
