<?xml version="1.0" encoding="UTF-8" standalone="no"?>
<!-- Created with Inkscape (http://www.inkscape.org/) -->

<svg
   width="64.887581mm"
   height="52.038288mm"
   viewBox="0 0 64.887581 52.038288"
   version="1.1"
   id="svg1"
   inkscape:version="1.4.2 (ebf0e940, 2025-05-08)"
   sodipodi:docname="briefcase.svg"
   xmlns:inkscape="http://www.inkscape.org/namespaces/inkscape"
   xmlns:sodipodi="http://sodipodi.sourceforge.net/DTD/sodipodi-0.dtd"
   xmlns="http://www.w3.org/2000/svg"
   xmlns:svg="http://www.w3.org/2000/svg">
  <sodipodi:namedview
     id="namedview1"
     pagecolor="#ffffff"
     bordercolor="#000000"
     borderopacity="0.25"
     inkscape:showpageshadow="2"
     inkscape:pageopacity="0.0"
     inkscape:pagecheckerboard="0"
     inkscape:deskcolor="#d1d1d1"
     inkscape:document-units="mm"
     inkscape:zoom="0.023162177"
     inkscape:cx="107.93459"
     inkscape:cy="86.347668"
     inkscape:window-width="896"
     inkscape:window-height="245"
     inkscape:window-x="0"
     inkscape:window-y="39"
     inkscape:window-maximized="0"
     inkscape:current-layer="layer1" />
  <defs
     id="defs1">
    <clipPath
       clipPathUnits="userSpaceOnUse"
       id="clipPath4898">
      <path
         d="M 0,3824 H 3162.283 V 0 H 0 Z"
         transform="translate(-3279.3091,-1516.6358)"
         id="path4898" />
    </clipPath>
    <clipPath
       clipPathUnits="userSpaceOnUse"
       id="clipPath508">
      <path
         d="M 0,276 H 276 V 0 H 0 Z"
         transform="translate(-112.16513,-187.60851)"
         id="path508" />
    </clipPath>
  </defs>
  <g
     inkscape:label="Layer 1"
     inkscape:groupmode="layer"
     id="layer1"
     transform="translate(-76.200003,-122.50208)">
    <path
       id="path507"
       d="m 0,0 c -0.172,1.064 0.554,2.069 1.618,2.241 l 26.764,4.325 c 1.064,0.172 2.07,-0.554 2.242,-1.618 L 32.722,-8.04 2.099,-12.988 Z M 90.063,1.225 85.491,0.486 85.412,0.978 C 84.906,4.11 81.957,6.238 78.826,5.732 L 68.93,4.133 C 65.799,3.627 63.67,0.678 64.176,-2.453 L 64.256,-2.945 46.598,-5.798 44.499,7.19 C 43.091,15.905 34.855,21.849 26.14,20.441 L -0.624,16.117 C -9.339,14.709 -15.284,6.473 -13.875,-2.242 l 2.098,-12.988 -17.658,-2.853 -0.08,0.492 c -0.506,3.131 -3.454,5.259 -6.585,4.753 l -9.897,-1.599 c -3.131,-0.506 -5.259,-3.454 -4.753,-6.586 l 0.079,-0.492 -4.571,-0.738 c -7.054,-1.14 -11.849,-7.782 -10.709,-14.837 l 12.748,-78.897 c 1.14,-7.054 7.782,-11.848 14.836,-10.708 l 145.306,23.478 c 7.054,1.14 11.848,7.782 10.708,14.836 L 104.899,-9.484 C 103.76,-2.43 97.117,2.365 90.063,1.225"
       style="fill:#b65acc;fill-opacity:1;fill-rule:nonzero;stroke:none"
       transform="matrix(0.35277776,0,0,-0.35277776,99.525189,129.78604)"
       clip-path="url(#clipPath508)" />
    <path
       id="path4897"
       d="m 0,0 c 1.878,-10.701 20.017,-5.592 27.432,-5.453 27.938,0.52 55.938,-0.49 83.88,-0.023 0.636,-43.056 -29.513,-85.186 -69.834,-99.939 -90.592,-33.146 -174.865,55.79 -140.865,144.861 13.295,34.831 50.397,64.469 87.914,67.934 C -8.682,107.638 0,108.597 0,104.898 Z"
       style="fill:#b65acc;fill-opacity:1;fill-rule:nonzero;stroke:none"
       transform="matrix(0.35277776,0,0,-0.35277776,4604.5481,912.59032)"
       clip-path="url(#clipPath4898)" />
  </g>
</svg>
