<?xml version="1.0" encoding="UTF-8" standalone="no"?>
<!-- Created with Inkscape (http://www.inkscape.org/) -->

<svg
   width="56.615292mm"
   height="64.911812mm"
   viewBox="0 0 56.615292 64.911812"
   version="1.1"
   id="svg1"
   inkscape:version="1.4.2 (ebf0e940, 2025-05-08)"
   sodipodi:docname="building.svg"
   xmlns:inkscape="http://www.inkscape.org/namespaces/inkscape"
   xmlns:sodipodi="http://sodipodi.sourceforge.net/DTD/sodipodi-0.dtd"
   xmlns="http://www.w3.org/2000/svg"
   xmlns:svg="http://www.w3.org/2000/svg">
  <sodipodi:namedview
     id="namedview1"
     pagecolor="#ffffff"
     bordercolor="#000000"
     borderopacity="0.25"
     inkscape:showpageshadow="2"
     inkscape:pageopacity="0.0"
     inkscape:pagecheckerboard="0"
     inkscape:deskcolor="#d1d1d1"
     inkscape:document-units="mm"
     inkscape:zoom="2.274936"
     inkscape:cx="106.59641"
     inkscape:cy="120.88252"
     inkscape:window-width="1712"
     inkscape:window-height="971"
     inkscape:window-x="0"
     inkscape:window-y="39"
     inkscape:window-maximized="1"
     inkscape:current-layer="layer1" />
  <defs
     id="defs1">
    <clipPath
       clipPathUnits="userSpaceOnUse"
       id="clipPath4898">
      <path
         d="M 0,3824 H 3162.283 V 0 H 0 Z"
         transform="translate(-3279.3091,-1516.6358)"
         id="path4898" />
    </clipPath>
    <clipPath
       clipPathUnits="userSpaceOnUse"
       id="clipPath2431">
      <path
         d="M 0,276 H 276 V 0 H 0 Z"
         transform="translate(-178.87823,-171.85)"
         id="path2431" />
    </clipPath>
  </defs>
  <g
     inkscape:label="Layer 1"
     inkscape:groupmode="layer"
     id="layer1"
     transform="translate(-80.168653,-116.15208)">
    <path
       id="path2430"
       d="m 0,0 c 0,-2.269 -1.839,-4.108 -4.108,-4.108 h -8.572 c -2.269,0 -4.108,1.839 -4.108,4.108 v 8.571 c 0,2.269 1.839,4.109 4.108,4.109 h 8.572 C -1.839,12.68 0,10.84 0,8.571 Z M 0,-35.492 C 0,-37.761 -1.839,-39.6 -4.108,-39.6 h -8.572 c -2.269,0 -4.108,1.839 -4.108,4.108 v 8.571 c 0,2.269 1.839,4.109 4.108,4.109 h 8.572 c 2.269,0 4.108,-1.84 4.108,-4.109 z m -23.502,-34.654 v -38.389 h -37.531 v 38.389 0.934 c 0,0.184 0.117,0.393 0.307,0.609 0.606,1.46 2.043,2.487 3.722,2.487 h 29.472 c 2.047,0 3.733,-1.528 3.991,-3.504 0.023,-0.105 0.039,-0.21 0.039,-0.314 z M -64.969,0 c 0,-2.269 -1.839,-4.108 -4.108,-4.108 h -8.571 c -2.269,0 -4.109,1.839 -4.109,4.108 v 8.571 c 0,2.269 1.84,4.109 4.109,4.109 h 8.571 c 2.269,0 4.108,-1.84 4.108,-4.109 z m 0,-35.492 c 0,-2.269 -1.839,-4.108 -4.108,-4.108 h -8.571 c -2.269,0 -4.109,1.839 -4.109,4.108 v 8.571 c 0,2.269 1.84,4.109 4.109,4.109 h 8.571 c 2.269,0 4.108,-1.84 4.108,-4.109 z m 15.697,8.571 c 0,2.269 1.839,4.109 4.108,4.109 h 8.571 c 2.269,0 4.109,-1.84 4.109,-4.109 v -8.571 c 0,-2.269 -1.84,-4.108 -4.109,-4.108 h -8.571 c -2.269,0 -4.108,1.839 -4.108,4.108 z m 0,35.492 c 0,2.269 1.839,4.109 4.108,4.109 h 8.571 c 2.269,0 4.109,-1.84 4.109,-4.109 V 0 c 0,-2.269 -1.84,-4.108 -4.109,-4.108 h -8.571 c -2.269,0 -4.108,1.839 -4.108,4.108 z M 34.666,-108.535 H 18.72 c 0,19.743 -1.112,92.859 -1.112,141.878 0,4.625 -1.48,5.99 -5.897,5.99 h -22.944 v 13.228 c 0,3.293 -1.918,5.59 -5.397,5.59 h -50.572 c -3.614,0 -6.101,-1.655 -6.101,-4.948 v -13.87 h -23.732 c -3.5,0 -5.108,-2.047 -5.108,-7.246 v -140.622 h -15.131 c -5.237,0 -4.881,-17.316 -0.417,-17.316 H 34.89 c 5.915,0 6.09,17.316 -0.224,17.316"
       style="fill:#b65acc;fill-opacity:1;fill-rule:nonzero;stroke:none"
       transform="matrix(0.35277776,0,0,-0.35277776,122.89724,136.66646)"
       clip-path="url(#clipPath2431)" />
    <path
       id="path4897"
       d="m 0,0 c 1.878,-10.701 20.017,-5.592 27.432,-5.453 27.938,0.52 55.938,-0.49 83.88,-0.023 0.636,-43.056 -29.513,-85.186 -69.834,-99.939 -90.592,-33.146 -174.865,55.79 -140.865,144.861 13.295,34.831 50.397,64.469 87.914,67.934 C -8.682,107.638 0,108.597 0,104.898 Z"
       style="fill:#b65acc;fill-opacity:1;fill-rule:nonzero;stroke:none"
       transform="matrix(0.35277776,0,0,-0.35277776,3064.5103,913.91149)"
       clip-path="url(#clipPath4898)" />
  </g>
</svg>
