<?xml version="1.0" encoding="UTF-8" standalone="no"?>
<!-- Created with Inkscape (http://www.inkscape.org/) -->

<svg
   width="35.288891mm"
   height="41.385159mm"
   viewBox="0 0 35.288891 41.385159"
   version="1.1"
   id="svg1"
   inkscape:version="1.4.2 (ebf0e940, 2025-05-08)"
   sodipodi:docname="cleaner.svg"
   xmlns:inkscape="http://www.inkscape.org/namespaces/inkscape"
   xmlns:sodipodi="http://sodipodi.sourceforge.net/DTD/sodipodi-0.dtd"
   xmlns="http://www.w3.org/2000/svg"
   xmlns:svg="http://www.w3.org/2000/svg">
  <sodipodi:namedview
     id="namedview1"
     pagecolor="#ffffff"
     bordercolor="#000000"
     borderopacity="0.25"
     inkscape:showpageshadow="2"
     inkscape:pageopacity="0.0"
     inkscape:pagecheckerboard="0"
     inkscape:deskcolor="#d1d1d1"
     inkscape:document-units="mm"
     inkscape:zoom="0.2825187"
     inkscape:cx="-592.8811"
     inkscape:cy="-456.60694"
     inkscape:window-width="1712"
     inkscape:window-height="971"
     inkscape:window-x="0"
     inkscape:window-y="39"
     inkscape:window-maximized="1"
     inkscape:current-layer="layer1" />
  <defs
     id="defs1" />
  <g
     inkscape:label="Layer 1"
     inkscape:groupmode="layer"
     id="layer1"
     transform="translate(-74.877083,-124.88336)">
    <path
       d="m 79.192091,152.35081 h 6.916075 c 0.479082,0 0.90468,-0.18746 1.167695,-0.51443 0.237007,-0.29456 0.320833,-0.66967 0.23614,-1.05619 -0.169252,-0.77131 -0.966966,-1.51754 -1.816029,-1.69886 -0.01574,-0.003 -0.102965,-0.0219 -0.241142,-0.0494 -0.118169,-0.0235 -0.453673,-0.0938 -0.453673,-0.4272 v -0.40092 c 0,-0.55564 -0.341773,-1.03265 -0.826056,-1.23272 -0.112368,-0.0464 -0.357911,-0.12523 -0.357911,-0.36698 v -20.55372 c 0,-0.64454 -0.522495,-1.16703 -1.167028,-1.16703 -0.644533,0 -1.167028,0.52249 -1.167028,1.16703 v 20.55372 c 0,0.2084 -0.269684,0.32704 -0.391788,0.38146 -0.466345,0.20786 -0.792246,0.6756 -0.792246,1.21831 v 0.46761 c 0,0.25008 -0.273151,0.32523 -0.379317,0.34604 -0.181056,0.0353 -0.296959,0.06 -0.315431,0.064 -0.849063,0.18132 -1.646777,0.92749 -1.816029,1.69886 -0.08476,0.38645 -8.67e-4,0.76157 0.23614,1.05613 0.262948,0.32683 0.688613,0.51436 1.167628,0.51436 z"
       id="path1-0"
       style="fill:#b65acc;fill-opacity:1;stroke-width:0.0666873"
       sodipodi:nodetypes="ssccccsssssssscssccccs" />
    <path
       id="path2"
       style="fill:#b65acc;fill-opacity:1;stroke-width:0.0652791"
       d="m 102.75076,143.18156 c -4.087776,0 -7.412986,3.3258 -7.412986,7.4135 0,0.008 1.76642,14.33852 1.767334,14.3459 0.06776,0.54952 0.534673,0.96221 1.088305,0.96221 h 9.114687 c 0.5537,0 1.02061,-0.41276 1.08831,-0.96221 1.87429,-15.20519 1.77164,-14.32977 1.76733,-14.40791 -0.0334,-4.05925 -3.34597,-7.35149 -7.41298,-7.35149 z m 0,1.66398 c 2.50254,0 5.1287,2.29912 5.63376,4.65295 h -6.9081 c 0.0387,0.44764 0.0584,0.91414 0.0584,1.38338 5e-5,2.54782 0.51395,4.64227 -0.73949,4.61264 -1.427799,-5.3e-4 -0.73902,-2.06556 -0.73897,-4.61264 0,-0.46924 0.0197,-0.93574 0.0584,-1.38338 h -2.99723 c 0.505129,-2.35383 3.13071,-4.65295 5.63325,-4.65295 z"
       sodipodi:nodetypes="sscssccssccccsccs" />
    <path
       d="m 90.384624,163.87811 -1.865578,-8.50557 c -0.189125,-0.86286 -1.061729,-1.56488 -1.945136,-1.56488 h -7.847563 c -0.883407,0 -1.756011,0.70195 -1.945136,1.56482 l -1.865578,8.5057 c -0.09636,0.4396 -0.01067,0.87674 0.241342,1.23091 0.251944,0.35411 0.63693,0.57838 1.083802,0.6314 0.181789,0.0215 4.473585,0.52783 6.399982,0.52803 h 0.0015 c 1.33e-4,0 -6.7e-5,0 -6.7e-5,0 1.932065,0 6.234931,-0.50669 6.417188,-0.52823 0.446872,-0.0529 0.831857,-0.27709 1.083869,-0.6312 0.252078,-0.35417 0.337838,-0.79124 0.241408,-1.23098 z m -7.742331,2.05697 z"
       id="path2-9"
       style="fill:#b65acc;fill-opacity:1;stroke-width:0.0666873" />
  </g>
</svg>
