<?xml version="1.0" encoding="UTF-8" standalone="no"?>
<!-- Created with Inkscape (http://www.inkscape.org/) -->

<svg
   width="47.933327mm"
   height="73.38166mm"
   viewBox="0 0 47.933327 73.38166"
   version="1.1"
   id="svg1"
   inkscape:version="1.4.2 (ebf0e940, 2025-05-08)"
   sodipodi:docname="clock in.svg"
   xmlns:inkscape="http://www.inkscape.org/namespaces/inkscape"
   xmlns:sodipodi="http://sodipodi.sourceforge.net/DTD/sodipodi-0.dtd"
   xmlns="http://www.w3.org/2000/svg"
   xmlns:svg="http://www.w3.org/2000/svg">
  <sodipodi:namedview
     id="namedview1"
     pagecolor="#ffffff"
     bordercolor="#000000"
     borderopacity="0.25"
     inkscape:showpageshadow="2"
     inkscape:pageopacity="0.0"
     inkscape:pagecheckerboard="0"
     inkscape:deskcolor="#d1d1d1"
     inkscape:document-units="mm"
     inkscape:zoom="0.023162177"
     inkscape:cx="107.93459"
     inkscape:cy="129.5215"
     inkscape:window-width="896"
     inkscape:window-height="245"
     inkscape:window-x="0"
     inkscape:window-y="39"
     inkscape:window-maximized="0"
     inkscape:current-layer="layer1" />
  <defs
     id="defs1">
    <clipPath
       clipPathUnits="userSpaceOnUse"
       id="clipPath4898">
      <path
         d="M 0,3824 H 3162.283 V 0 H 0 Z"
         transform="translate(-3279.3091,-1516.6358)"
         id="path4898" />
    </clipPath>
    <clipPath
       clipPathUnits="userSpaceOnUse"
       id="clipPath889">
      <path
         d="M 0,276 H 276 V 0 H 0 Z"
         transform="translate(-138,-54.808501)"
         id="path889" />
    </clipPath>
    <clipPath
       clipPathUnits="userSpaceOnUse"
       id="clipPath887">
      <path
         d="M 0,276 H 276 V 0 H 0 Z"
         transform="translate(-155.58938,-123.69801)"
         id="path887" />
    </clipPath>
    <clipPath
       clipPathUnits="userSpaceOnUse"
       id="clipPath885">
      <path
         d="M 0,276 H 276 V 0 H 0 Z"
         transform="translate(-154.35158,-201.33151)"
         id="path885" />
    </clipPath>
  </defs>
  <g
     inkscape:label="Layer 1"
     inkscape:groupmode="layer"
     id="layer1"
     transform="translate(-84.666667,-111.91875)">
    <path
       id="path884"
       d="m 0,0 -14.449,-14.449 c -10e-4,-10e-4 -0.003,-0.002 -0.004,-0.004 -0.181,-0.18 -0.38,-0.341 -0.592,-0.483 -0.015,-0.01 -0.031,-0.018 -0.046,-0.028 -0.198,-0.128 -0.407,-0.239 -0.628,-0.33 -0.016,-0.007 -0.033,-0.012 -0.05,-0.019 -0.216,-0.085 -0.441,-0.154 -0.674,-0.199 -0.013,-0.003 -0.025,-0.004 -0.038,-0.006 -0.232,-0.043 -0.47,-0.069 -0.715,-0.069 -0.244,0 -0.482,0.026 -0.713,0.069 -0.014,0.002 -0.027,0.003 -0.04,0.006 -0.232,0.045 -0.455,0.114 -0.671,0.198 -0.018,0.008 -0.036,0.013 -0.054,0.02 -0.219,0.091 -0.427,0.202 -0.624,0.329 -0.016,0.01 -0.033,0.019 -0.049,0.029 -0.212,0.142 -0.411,0.303 -0.591,0.483 -0.001,0.002 -0.003,0.003 -0.005,0.004 L -34.391,0 c -1.517,1.517 -1.517,3.976 0,5.493 1.517,1.518 3.977,1.517 5.494,0 l 7.817,-7.817 v 16.308 c 0,2.145 1.739,3.885 3.884,3.885 2.145,0 3.885,-1.74 3.885,-3.885 V -2.324 l 7.817,7.817 c 1.517,1.517 3.977,1.517 5.493,0 C 1.517,3.976 1.517,1.517 0,0 M 17.945,40.674 H 1.134 c 0,0 -1.279,-4.829 -2.622,-7.121 -4.745,-8.095 -22.854,-9.279 -29.354,-2.214 -2.103,2.285 -4.227,9.335 -4.227,9.335 h -15.579 c -3.731,0 -8.389,-3.698 -8.389,-9.719 V -24.99 h 85.371 v 56.591 c 0,5.885 -3.661,9.073 -8.389,9.073"
       style="fill:#b65acc;fill-opacity:1;fill-rule:nonzero;stroke:none"
       transform="matrix(0.35277776,0,0,-0.35277776,114.40181,126.26763)"
       clip-path="url(#clipPath885)" />
    <path
       id="path886"
       d="m 0,0 -14.321,-25.216 -21.524,-9.535 c -0.582,-0.258 -1.189,-0.38 -1.787,-0.38 -1.695,0 -3.311,0.98 -4.042,2.63 -0.988,2.231 0.02,4.84 2.25,5.828 l 18.86,8.355 12.881,22.681 c 1.205,2.122 3.901,2.865 6.023,1.66 C 0.462,4.818 1.205,2.121 0,0 m -17.589,16.52 c -21.112,0 -38.287,-17.175 -38.287,-38.287 0,-21.111 17.175,-38.287 38.287,-38.287 21.111,0 38.287,17.176 38.287,38.287 0,21.112 -17.176,38.287 -38.287,38.287"
       style="fill:#b65acc;fill-opacity:1;fill-rule:nonzero;stroke:none"
       transform="matrix(0.35277776,0,0,-0.35277776,114.83848,153.65501)"
       clip-path="url(#clipPath887)" />
    <path
       id="path888"
       d="m 0,0 c -26.025,0 -47.122,21.097 -47.122,47.123 0,26.025 21.097,47.122 47.122,47.122 26.025,0 47.123,-21.097 47.123,-47.122 C 47.123,21.097 26.025,0 0,0 M 50.021,115.059 H -50.021 c -9.895,0 -17.916,-8.021 -17.916,-17.915 V -2.899 c 0,-9.894 8.021,-17.915 17.916,-17.915 H 50.021 c 9.895,0 17.916,8.021 17.916,17.915 V 97.144 c 0,9.894 -8.021,17.915 -17.916,17.915"
       style="fill:#b65acc;fill-opacity:1;fill-rule:nonzero;stroke:none"
       transform="matrix(0.35277776,0,0,-0.35277776,108.63333,177.95769)"
       clip-path="url(#clipPath889)" />
    <path
       id="path4897"
       d="m 0,0 c 1.878,-10.701 20.017,-5.592 27.432,-5.453 27.938,0.52 55.938,-0.49 83.88,-0.023 0.636,-43.056 -29.513,-85.186 -69.834,-99.939 -90.592,-33.146 -174.865,55.79 -140.865,144.861 13.295,34.831 50.397,64.469 87.914,67.934 C -8.682,107.638 0,108.597 0,104.898 Z"
       style="fill:#b65acc;fill-opacity:1;fill-rule:nonzero;stroke:none"
       transform="matrix(0.35277776,0,0,-0.35277776,4296.5673,913.91308)"
       clip-path="url(#clipPath4898)" />
  </g>
</svg>
