<?xml version="1.0" encoding="UTF-8" standalone="no"?>
<!-- Created with Inkscape (http://www.inkscape.org/) -->

<svg
   width="64.898415mm"
   height="62.626663mm"
   viewBox="0 0 64.898415 62.626663"
   version="1.1"
   id="svg1"
   inkscape:version="1.4.2 (ebf0e940, 2025-05-08)"
   sodipodi:docname="coffee machine.svg"
   xmlns:inkscape="http://www.inkscape.org/namespaces/inkscape"
   xmlns:sodipodi="http://sodipodi.sourceforge.net/DTD/sodipodi-0.dtd"
   xmlns="http://www.w3.org/2000/svg"
   xmlns:svg="http://www.w3.org/2000/svg">
  <sodipodi:namedview
     id="namedview1"
     pagecolor="#ffffff"
     bordercolor="#000000"
     borderopacity="0.25"
     inkscape:showpageshadow="2"
     inkscape:pageopacity="0.0"
     inkscape:pagecheckerboard="0"
     inkscape:deskcolor="#d1d1d1"
     inkscape:document-units="mm"
     inkscape:zoom="0.01"
     inkscape:cx="150"
     inkscape:cy="150"
     inkscape:window-width="896"
     inkscape:window-height="204"
     inkscape:window-x="0"
     inkscape:window-y="39"
     inkscape:window-maximized="0"
     inkscape:current-layer="layer1" />
  <defs
     id="defs1">
    <clipPath
       clipPathUnits="userSpaceOnUse"
       id="clipPath4898">
      <path
         d="M 0,3824 H 3162.283 V 0 H 0 Z"
         transform="translate(-3279.3091,-1516.6358)"
         id="path4898" />
    </clipPath>
    <clipPath
       clipPathUnits="userSpaceOnUse"
       id="clipPath383">
      <path
         d="M 0,276 H 276 V 0 H 0 Z"
         transform="translate(-215.00581,-159.5784)"
         id="path383" />
    </clipPath>
    <clipPath
       clipPathUnits="userSpaceOnUse"
       id="clipPath381">
      <path
         d="M 0,276 H 276 V 0 H 0 Z"
         transform="translate(-55.949701,-73.203602)"
         id="path381" />
    </clipPath>
    <clipPath
       clipPathUnits="userSpaceOnUse"
       id="clipPath379">
      <path
         d="M 0,276 H 276 V 0 H 0 Z"
         id="path379" />
    </clipPath>
    <clipPath
       clipPathUnits="userSpaceOnUse"
       id="clipPath377">
      <path
         d="M 0,276 H 276 V 0 H 0 Z"
         transform="translate(-202.01273,-109.2289)"
         id="path377" />
    </clipPath>
    <clipPath
       clipPathUnits="userSpaceOnUse"
       id="clipPath375">
      <path
         d="M 0,276 H 276 V 0 H 0 Z"
         transform="translate(-191.88938,-202.897)"
         id="path375" />
    </clipPath>
  </defs>
  <g
     inkscape:label="Layer 1"
     inkscape:groupmode="layer"
     id="layer1"
     transform="translate(-60.060415,-114.3)">
    <path
       id="path374"
       d="m 0,0 c -2.133,-2.124 -5.794,-4.104 -8.811,-4.498 -12.44,-1.625 -28.029,1.078 -40.828,-0.03 -5.601,-0.485 -10.751,-3.658 -11.432,-9.614 -0.631,-5.52 2.743,-15.747 -4.678,-15.747 l -65.601,-0.05 c -4.321,0 -5.97,3.032 -6.453,5.927 -0.837,5.008 -0.668,28.695 0.248,33.725 1.158,6.357 4.994,14.152 14.32,14.152 L -2.095,23.771 C 10.557,23.771 6.664,6.637 0,0"
       style="fill:#b65acc;fill-opacity:1;fill-rule:nonzero;stroke:none"
       transform="matrix(0.35277776,0,0,-0.35277776,111.52057,122.71904)"
       clip-path="url(#clipPath375)" />
    <path
       id="path376"
       d="M 0,0 C 9.078,-0.231 14.928,1.142 14.905,11.447 14.884,21.146 8.56,22.279 0,22.279 Z M -0.003,35.892 C 0.75,35.892 8.038,35.5 10.046,35.107 24.492,32.276 29,21.624 27.779,7.816 26.823,-2.994 20.449,-10.719 9.436,-12.217 c -2.503,-0.341 -11.355,-0.262 -13.671,-0.262 -0.261,0 -1.393,-2.941 -3.375,-5.473 -3.388,-4.328 -10,-9.265 -15.604,-9.899 -4.698,-0.532 -20.78,-0.622 -25.11,0.275 -6.473,1.342 -16.617,11.21 -19.454,17.066 -6.796,14.026 -3.43,28.327 -3.43,49.823 0.168,2.403 1.962,4.665 4.62,4.665 L -3.42,43.925 c 4.605,0 2.069,-8.033 3.417,-8.033"
       style="fill:#b65acc;fill-opacity:1;fill-rule:nonzero;stroke:none"
       transform="matrix(0.35277776,0,0,-0.35277776,115.09186,155.76307)"
       clip-path="url(#clipPath377)" />
    <path
       id="path378"
       d="M 115.961,80.142 H 63.34 v 86.023 h 52.621 z"
       style="fill:#b65acc;fill-opacity:1;fill-rule:nonzero;stroke:none"
       transform="matrix(0.35277776,0,0,-0.35277776,43.826264,194.29659)"
       clip-path="url(#clipPath379)" />
    <path
       id="path380"
       d="m 0,0 158.7,0.077 c 10.118,0 16.091,-23.613 7.633,-23.613 -55.046,0 -116.248,-0.213 -170.12,-0.43 C -14.368,-23.966 -10.088,0 0,0"
       style="fill:#b65acc;fill-opacity:1;fill-rule:nonzero;stroke:none"
       transform="matrix(0.35277776,0,0,-0.35277776,63.564075,168.47199)"
       clip-path="url(#clipPath381)" />
    <path
       id="path382"
       d="m 0,0 c 15.023,0 16.722,14.086 15.775,20.893 -1.29,9.273 -15.769,34.961 -15.769,34.961 0,0 -15.077,-25.795 -15.832,-34.961 C -16.881,8.069 -9.16,0 0,0"
       style="fill:#b65acc;fill-opacity:1;fill-rule:nonzero;stroke:none"
       transform="matrix(0.18720717,0,0,-0.18720717,103.20157,137.3719)"
       clip-path="url(#clipPath383)" />
    <path
       id="path4897"
       d="m 0,0 c 1.878,-10.701 20.017,-5.592 27.432,-5.453 27.938,0.52 55.938,-0.49 83.88,-0.023 0.636,-43.056 -29.513,-85.186 -69.834,-99.939 -90.592,-33.146 -174.865,55.79 -140.865,144.861 13.295,34.831 50.397,64.469 87.914,67.934 C -8.682,107.638 0,108.597 0,104.898 Z"
       style="fill:#b65acc;fill-opacity:1;fill-rule:nonzero;stroke:none"
       transform="matrix(0.35277776,0,0,-0.35277776,4691.0769,910.91676)"
       clip-path="url(#clipPath4898)" />
  </g>
</svg>
