<?xml version="1.0" encoding="UTF-8" standalone="no"?>
<!-- Created with Inkscape (http://www.inkscape.org/) -->

<svg
   width="62.035587mm"
   height="64.911934mm"
   viewBox="0 0 62.035587 64.911934"
   version="1.1"
   id="svg1"
   inkscape:version="1.4.2 (ebf0e940, 2025-05-08)"
   sodipodi:docname="column chart.svg"
   xmlns:inkscape="http://www.inkscape.org/namespaces/inkscape"
   xmlns:sodipodi="http://sodipodi.sourceforge.net/DTD/sodipodi-0.dtd"
   xmlns="http://www.w3.org/2000/svg"
   xmlns:svg="http://www.w3.org/2000/svg">
  <sodipodi:namedview
     id="namedview1"
     pagecolor="#ffffff"
     bordercolor="#000000"
     borderopacity="0.25"
     inkscape:showpageshadow="2"
     inkscape:pageopacity="0.0"
     inkscape:pagecheckerboard="0"
     inkscape:deskcolor="#d1d1d1"
     inkscape:document-units="mm"
     inkscape:zoom="0.023162177"
     inkscape:cx="107.93459"
     inkscape:cy="129.5215"
     inkscape:window-width="896"
     inkscape:window-height="245"
     inkscape:window-x="0"
     inkscape:window-y="39"
     inkscape:window-maximized="0"
     inkscape:current-layer="layer1" />
  <defs
     id="defs1">
    <clipPath
       clipPathUnits="userSpaceOnUse"
       id="clipPath4898">
      <path
         d="M 0,3824 H 3162.283 V 0 H 0 Z"
         transform="translate(-3279.3091,-1516.6358)"
         id="path4898" />
    </clipPath>
    <clipPath
       clipPathUnits="userSpaceOnUse"
       id="clipPath1522">
      <path
         d="M 0,276 H 276 V 0 H 0 Z"
         transform="translate(-190.3368,-125.2476)"
         id="path1522" />
    </clipPath>
  </defs>
  <g
     inkscape:label="Layer 1"
     inkscape:groupmode="layer"
     id="layer1"
     transform="translate(-77.52284,-116.15209)">
    <path
       id="path1521"
       d="m 0,0 c 0,-1.532 -1.242,-2.774 -2.774,-2.774 h -20.783 c -1.532,0 -2.774,1.242 -2.774,2.774 v 55.774 c 0,1.532 1.242,2.774 2.774,2.774 H -2.774 C -1.242,58.548 0,57.306 0,55.774 Z m -39.171,0 c 0,-1.532 -1.242,-2.774 -2.774,-2.774 h -20.783 c -1.532,0 -2.774,1.242 -2.774,2.774 v 33.205 c 0,1.532 1.242,2.774 2.774,2.774 h 20.783 c 1.532,0 2.774,-1.242 2.774,-2.774 z m -39.172,0 c 0,-1.532 -1.242,-2.774 -2.774,-2.774 H -101.9 c -1.532,0 -2.774,1.242 -2.774,2.774 v 17.575 c 0,1.532 1.242,2.774 2.774,2.774 h 20.783 c 1.532,0 2.774,-1.242 2.774,-2.774 z M 33.465,-16.499 c -3.133,3.829 -6.637,4.133 -13.53,4.133 v 87.582 c 3.186,0.091 9.753,-0.402 12.322,2.001 2.924,2.735 5.83,15.861 -5.694,15.861 H -46.35 c 2.51,15.659 -16.709,15.475 -14.409,0 h -70.031 c -10.133,0 -7.5,-12.594 -4.792,-15.284 2.673,-2.655 8.568,-2.554 11.997,-2.578 v -88.158 c 0,-0.062 -9.511,0 -9.511,0 -6.005,0 -7.368,-7.042 -7.142,-10.343 0.204,-2.98 3.185,-8.096 7.719,-8.096 h 61.385 l -24.913,-35.884 c -4.981,-6.501 6.397,-14.323 11.951,-6.185 l 25.066,35.155 v -35.013 c 0,-3.739 3.118,-5.941 6.612,-5.941 5.118,0 7.221,2.202 7.221,5.365 v 35.013 l 25.938,-36.012 c 4.671,-5.971 15.703,0.891 11.467,7.432 l -25.301,36.07 h 58.847 c 8.022,0 12.852,8.599 7.711,14.882"
       style="fill:#b65acc;fill-opacity:1;fill-rule:nonzero;stroke:none"
       transform="matrix(0.35277776,0,0,-0.35277776,127.00384,153.10674)"
       clip-path="url(#clipPath1522)" />
    <path
       id="path4897"
       d="m 0,0 c 1.878,-10.701 20.017,-5.592 27.432,-5.453 27.938,0.52 55.938,-0.49 83.88,-0.023 0.636,-43.056 -29.513,-85.186 -69.834,-99.939 -90.592,-33.146 -174.865,55.79 -140.865,144.861 13.295,34.831 50.397,64.469 87.914,67.934 C -8.682,107.638 0,108.597 0,104.898 Z"
       style="fill:#b65acc;fill-opacity:1;fill-rule:nonzero;stroke:none"
       transform="matrix(0.35277776,0,0,-0.35277776,3783.1829,913.91147)"
       clip-path="url(#clipPath4898)" />
  </g>
</svg>
