<?xml version="1.0" encoding="UTF-8" standalone="no"?>
<!-- Created with Inkscape (http://www.inkscape.org/) -->

<svg
   width="63.732506mm"
   height="73.360695mm"
   viewBox="0 0 63.732506 73.360695"
   version="1.1"
   id="svg1"
   inkscape:version="1.4.2 (ebf0e940, 2025-05-08)"
   sodipodi:docname="contract.svg"
   xmlns:inkscape="http://www.inkscape.org/namespaces/inkscape"
   xmlns:sodipodi="http://sodipodi.sourceforge.net/DTD/sodipodi-0.dtd"
   xmlns="http://www.w3.org/2000/svg"
   xmlns:svg="http://www.w3.org/2000/svg">
  <sodipodi:namedview
     id="namedview1"
     pagecolor="#ffffff"
     bordercolor="#000000"
     borderopacity="0.25"
     inkscape:showpageshadow="2"
     inkscape:pageopacity="0.0"
     inkscape:pagecheckerboard="0"
     inkscape:deskcolor="#d1d1d1"
     inkscape:document-units="mm"
     inkscape:zoom="0.023162177"
     inkscape:cx="107.93459"
     inkscape:cy="129.5215"
     inkscape:window-width="896"
     inkscape:window-height="245"
     inkscape:window-x="0"
     inkscape:window-y="39"
     inkscape:window-maximized="0"
     inkscape:current-layer="layer1" />
  <defs
     id="defs1">
    <clipPath
       clipPathUnits="userSpaceOnUse"
       id="clipPath4898">
      <path
         d="M 0,3824 H 3162.283 V 0 H 0 Z"
         transform="translate(-3279.3091,-1516.6358)"
         id="path4898" />
    </clipPath>
    <clipPath
       clipPathUnits="userSpaceOnUse"
       id="clipPath3098">
      <path
         d="M 0,276 H 276 V 0 H 0 Z"
         transform="translate(-151.0035,-52.458204)"
         id="path3098" />
    </clipPath>
    <clipPath
       clipPathUnits="userSpaceOnUse"
       id="clipPath3096">
      <path
         d="M 0,276 H 276 V 0 H 0 Z"
         transform="translate(-70.611227,-187.91241)"
         id="path3096" />
    </clipPath>
    <clipPath
       clipPathUnits="userSpaceOnUse"
       id="clipPath3094">
      <path
         d="M 0,276 H 276 V 0 H 0 Z"
         transform="translate(-129.68093,-149.6472)"
         id="path3094" />
    </clipPath>
    <clipPath
       clipPathUnits="userSpaceOnUse"
       id="clipPath3092">
      <path
         d="M 0,276 H 276 V 0 H 0 Z"
         transform="translate(-101.0511,-181.60971)"
         id="path3092" />
    </clipPath>
    <clipPath
       clipPathUnits="userSpaceOnUse"
       id="clipPath3090">
      <path
         d="M 0,276 H 276 V 0 H 0 Z"
         transform="translate(-119.4102,-162.82)"
         id="path3090" />
    </clipPath>
    <clipPath
       clipPathUnits="userSpaceOnUse"
       id="clipPath3088">
      <path
         d="M 0,276 H 276 V 0 H 0 Z"
         transform="translate(-106.45223,-172.97961)"
         id="path3088" />
    </clipPath>
    <clipPath
       clipPathUnits="userSpaceOnUse"
       id="clipPath3086">
      <path
         d="M 0,276 H 276 V 0 H 0 Z"
         transform="translate(-205.38878,-187.91241)"
         id="path3086" />
    </clipPath>
    <clipPath
       clipPathUnits="userSpaceOnUse"
       id="clipPath3084">
      <path
         d="M 0,276 H 276 V 0 H 0 Z"
         transform="translate(-180.7029,-226.40041)"
         id="path3084" />
    </clipPath>
    <clipPath
       clipPathUnits="userSpaceOnUse"
       id="clipPath3082">
      <path
         d="M 0,276 H 276 V 0 H 0 Z"
         transform="translate(-123.5445,-232.12241)"
         id="path3082" />
    </clipPath>
  </defs>
  <g
     inkscape:label="Layer 1"
     inkscape:groupmode="layer"
     id="layer1"
     transform="translate(-76.729216,-111.91875)">
    <path
       id="path3081"
       d="m 0,0 -16.955,-12.773 c -6.277,-6.278 -2.177,-20.099 7.682,-23.09 9.177,-2.784 20.198,3.318 28.738,5.906 l 37.996,-31.245 c 7.368,-5.172 0.999,-15.455 -6.874,-11.445 -2.714,1.382 -6.964,6.598 -9.379,7.232 -1.195,0.313 -2.667,-0.768 -1.673,-2.806 0.699,-1.434 8.271,-5.932 8.958,-8.235 0.773,-2.59 0.012,-5.7 -2.142,-7.345 -3.985,-3.044 -7.231,-0.41 -10.595,2.039 -1.425,1.038 -7.085,7.407 -8.615,5.162 -2.115,-3.104 8.033,-7.474 8.769,-10.73 1.705,-7.548 -7.327,-10.035 -11.882,-4.737 0.186,-3.969 -2.809,-5.89 -6.553,-5.734 -7.891,0.331 -2.349,3.087 -0.95,6.083 2.209,4.729 0.791,10.53 -3.405,13.626 -1.063,0.785 -3.372,1.373 -4.014,2.277 -0.754,1.064 -0.579,3.374 -1.246,5.045 -0.913,2.287 -4.076,5.29 -6.313,6.267 -1.227,0.536 -3.605,0.665 -4.394,1.325 -0.649,0.542 -1.697,4.425 -3.428,6.295 -3.026,3.269 -8.315,3.69 -9.034,4.406 -0.181,0.18 -0.886,2.781 -1.597,3.836 -7.554,11.19 -19.688,2.796 -25.697,-5.1 -1.104,2.083 -5.178,6.06 -4.772,8.139 0.176,0.901 1.902,3.935 2.466,5.096 4.865,10.02 9.992,19.064 16.55,33.703 1.195,0.928 5.673,0.443 7.803,0.775 C -13.754,-4.965 -7.385,0.811 0,0"
       style="fill:#b65acc;fill-opacity:1;fill-rule:nonzero;stroke:none"
       transform="matrix(0.35277776,0,0,-0.35277776,103.49589,115.39481)"
       clip-path="url(#clipPath3082)" />
    <path
       id="path3083"
       d="m 0,0 18.905,-39.223 c 0.641,-2.109 -1.368,-4.617 -2.611,-6.097 -2.055,-2.446 -7.424,-7.547 -10.695,-6.041 -14.565,11.19 -28.219,23.761 -42.727,35.131 -1.174,0.363 -8.364,-2.731 -10.439,-3.357 -5.611,-1.693 -16.558,-6.293 -20.368,-0.048 -3.577,5.862 1.346,8.507 5.452,11.532 5.6,4.128 19.182,12.649 25.767,13.694 C -24.968,7.455 -12.321,-3.89 0,0"
       style="fill:#b65acc;fill-opacity:1;fill-rule:nonzero;stroke:none"
       transform="matrix(0.35277776,0,0,-0.35277776,123.6601,117.41341)"
       clip-path="url(#clipPath3084)" />
    <path
       id="path3085"
       d="M 0,0 -20.192,41.179 C -23.035,47.291 0.336,58.121 3.148,52.49 L 22.761,10.967 C 25.171,6.197 2.598,-5.318 0,0"
       style="fill:#b65acc;fill-opacity:1;fill-rule:nonzero;stroke:none"
       transform="matrix(0.35277776,0,0,-0.35277776,132.36873,130.99112)"
       clip-path="url(#clipPath3086)" />
    <path
       id="path3087"
       d="M 0,0 C 4.979,1.892 10.48,-3.036 7.814,-8.49 7.346,-9.446 -2.93,-19.75 -3.851,-20.271 c -5.639,-3.184 -11.23,2.097 -8.923,7.782 C -11.991,-10.562 -2.592,-0.985 0,0"
       style="fill:#b65acc;fill-opacity:1;fill-rule:nonzero;stroke:none"
       transform="matrix(0.35277776,0,0,-0.35277776,97.466116,136.25908)"
       clip-path="url(#clipPath3088)" />
    <path
       id="path3089"
       d="m 0,0 c 5.125,0.743 9.361,-4.241 6.663,-8.993 -0.589,-1.038 -9.788,-10.163 -10.902,-10.826 -5.358,-3.19 -11.412,1.869 -8.919,7.775 0.762,1.803 9.323,9.977 10.41,10.748 C -1.885,-0.684 -1.079,-0.156 0,0"
       style="fill:#b65acc;fill-opacity:1;fill-rule:nonzero;stroke:none"
       transform="matrix(0.35277776,0,0,-0.35277776,102.0374,139.84316)"
       clip-path="url(#clipPath3090)" />
    <path
       id="path3091"
       d="m 0,0 c 1.715,-1.649 2.4,-4.256 1.473,-6.524 -0.917,-2.241 -9.719,-10.778 -11.98,-11.462 -5.798,-1.755 -9.335,4.338 -7.268,8.987 1.16,2.607 8.097,8.493 9.099,9.197 C -5.857,2.176 -2.615,2.514 0,0"
       style="fill:#b65acc;fill-opacity:1;fill-rule:nonzero;stroke:none"
       transform="matrix(0.35277776,0,0,-0.35277776,95.560719,133.21457)"
       clip-path="url(#clipPath3092)" />
    <path
       id="path3093"
       d="m 0,0 c 4.549,0.959 7.23,-3.132 5.229,-6.947 -0.463,-0.881 -5.746,-6.563 -8.077,-7.931 -3.765,-2.21 -9.064,0.02 -8.421,4.95 C -10.885,-6.985 -2.935,-0.619 0,0"
       style="fill:#b65acc;fill-opacity:1;fill-rule:nonzero;stroke:none"
       transform="matrix(0.35277776,0,0,-0.35277776,105.66068,144.49023)"
       clip-path="url(#clipPath3094)" />
    <path
       id="path3095"
       d="M 0,0 20.192,41.179 C 23.035,47.291 -0.336,58.121 -3.148,52.49 L -22.761,10.967 C -25.171,6.197 -2.598,-5.318 0,0"
       style="fill:#b65acc;fill-opacity:1;fill-rule:nonzero;stroke:none"
       transform="matrix(0.35277776,0,0,-0.35277776,84.822208,130.99112)"
       clip-path="url(#clipPath3096)" />
    <path
       id="path3097"
       d="m 0,-9.8795771 c -3.399,-0.2799999 -4.992,1.865 -6.705,2.014 -1.783,0.155 -4.592,-4.4679999 -10.585,-1.654 -4.533,2.128 -5.817,8.1972636 -7.167,8.5062636 -2.667,0.61200005 -3.895,-8.2452636 -8.327,-8.6302636 -7.69,-0.6699999 0.108,10.56889549 4.26,12.5728955 9.561,4.615 11.054,-2.20426369 14.336,-8.2262637 2.558,-0.772 2.051,2.6396318 5.741,3.0046318 3.801,0.376 5.105,-3.874 7.606,-3.812 1.692,0.043 1.666,1.739 2.393,2.351 5.86,4.931 9.048,-5.2532636 -1.552,-6.1262636 M -33.761,42.817736 H 1.863 c 1.581,0 2.862,-1.282 2.862,-2.863 0,-1.58 -1.281,-2.862 -2.862,-2.862 h -35.624 c -1.581,0 -2.862,1.282 -2.862,2.862 0,1.581 1.281,2.863 2.862,2.863 m 0,14.527632 H 1.863 c 1.581,0 2.862,-1.282 2.862,-2.862 0,-1.581 -1.281,-2.863 -2.862,-2.863 h -35.624 c -1.581,0 -2.862,1.282 -2.862,2.863 0,1.58 1.281,2.862 2.862,2.862 M 27.743,60.243 c -2.03,2.116 -8.631,10.75 -12.186,10.75 h -64.43 c -1.336,-0.459 -2.249,-1.438 -2.889,-2.695 v -84.152 c 0,-1.361 1.308,-2.474 2.427,-2.474 l 76.067,-0.106 c 1.418,0 3.008,0.97 3.008,2.838 V 52.35 c 0,3.12 0.213,5.59 -1.997,7.893 M 2.4999991e-8,7.0568408 C -3.399,6.7768409 -4.992,8.9218408 -6.705,9.0708408 c -1.783,0.155 -4.592,-4.4679999 -10.585,-1.654 -4.533,2.128 -5.817,8.1972632 -7.167,8.5062632 -2.667,0.612 -3.895,-8.2452632 -8.327,-8.6302632 -7.69,-0.6699999 0.108,10.5688952 4.26,12.5728952 9.561,4.615 11.054,-2.204264 14.336,-8.226263 2.558,-0.772 2.051,2.639631 5.741,3.004631 3.801,0.376 5.105,-3.874 7.60600003,-3.812 1.692,0.043 1.666,1.739 2.39299997,2.351 C 7.4119999,18.114104 10.6,7.9298408 2.4999991e-8,7.0568408"
       style="fill:#b65acc;fill-opacity:1;fill-rule:nonzero;stroke:none"
       transform="matrix(0.35277776,0,0,-0.3749317,113.18282,178.36796)"
       clip-path="url(#clipPath3098)"
       sodipodi:nodetypes="cccccccsccccsssssccsssssccsccsccssccccccccsccc" />
    <path
       id="path4897"
       d="m 0,0 c 1.878,-10.701 20.017,-5.592 27.432,-5.453 27.938,0.52 55.938,-0.49 83.88,-0.023 0.636,-43.056 -29.513,-85.186 -69.834,-99.939 -90.592,-33.146 -174.865,55.79 -140.865,144.861 13.295,34.831 50.397,64.469 87.914,67.934 C -8.682,107.638 0,108.597 0,104.898 Z"
       style="fill:#b65acc;fill-opacity:1;fill-rule:nonzero;stroke:none"
       transform="matrix(0.35277776,0,0,-0.35277776,2551.3378,913.9026)"
       clip-path="url(#clipPath4898)" />
  </g>
</svg>
