<?xml version="1.0" encoding="UTF-8" standalone="no"?>
<!-- Created with Inkscape (http://www.inkscape.org/) -->

<svg
   width="49.092564mm"
   height="47.950825mm"
   viewBox="0 0 49.092564 47.950825"
   version="1.1"
   id="svg1"
   inkscape:version="1.4.2 (ebf0e940, 2025-05-08)"
   sodipodi:docname="deadline.svg"
   xmlns:inkscape="http://www.inkscape.org/namespaces/inkscape"
   xmlns:sodipodi="http://sodipodi.sourceforge.net/DTD/sodipodi-0.dtd"
   xmlns="http://www.w3.org/2000/svg"
   xmlns:svg="http://www.w3.org/2000/svg">
  <sodipodi:namedview
     id="namedview1"
     pagecolor="#ffffff"
     bordercolor="#000000"
     borderopacity="0.25"
     inkscape:showpageshadow="2"
     inkscape:pageopacity="0.0"
     inkscape:pagecheckerboard="0"
     inkscape:deskcolor="#d1d1d1"
     inkscape:document-units="mm"
     inkscape:zoom="0.01"
     inkscape:cx="50"
     inkscape:cy="50"
     inkscape:window-width="896"
     inkscape:window-height="204"
     inkscape:window-x="0"
     inkscape:window-y="39"
     inkscape:window-maximized="0"
     inkscape:current-layer="layer1" />
  <defs
     id="defs1">
    <clipPath
       clipPathUnits="userSpaceOnUse"
       id="clipPath4898">
      <path
         d="M 0,3824 H 3162.283 V 0 H 0 Z"
         transform="translate(-3279.3091,-1516.6358)"
         id="path4898" />
    </clipPath>
    <clipPath
       clipPathUnits="userSpaceOnUse"
       id="clipPath4164">
      <path
         d="M 0,276 H 276 V 0 H 0 Z"
         transform="translate(-175.87425,-81.4927)"
         id="path4164" />
    </clipPath>
  </defs>
  <g
     inkscape:label="Layer 1"
     inkscape:groupmode="layer"
     id="layer1"
     transform="translate(-67.997936,-121.44375)">
    <path
       id="path4163"
       clip-path="url(#clipPath4164)"
       style="fill:#b65acc;fill-opacity:1;fill-rule:nonzero;stroke:none"
       d="m -37.87472,80.449852 c -2.5005,0 -5.000199,-1.238379 -6.429199,-3.713379 L -82.177455,11.136374 c -2.858,-4.9490001 0.714199,-11.13574259373 6.429199,-11.13574259373 H 2.8125001e-4 C 5.7162813,6.3140627e-4 9.2874806,6.1873739 6.4294806,11.136374 L -31.444055,76.736473 c -1.429,2.475 -3.930165,3.713379 -6.430665,3.713379 z m 0.42041,-21.556641 c 0.942,0 1.717102,-0.04105 2.329102,-0.123047 0.612,-0.083 1.101309,-0.200027 1.466309,-0.353027 0.364,-0.153 0.621902,-0.340965 0.774902,-0.563965 0.153,-0.224 0.229981,-0.487945 0.229981,-0.793945 l -0.916993,-32.044923 c -0.024,-0.236 -0.0954,-0.447742 -0.212402,-0.635742 -0.118,-0.189 -0.324164,-0.348539 -0.618164,-0.477539 -0.294,-0.129 -0.693242,-0.227829 -1.198242,-0.298829 -0.506,-0.07 -1.124493,-0.106933 -1.854493,-0.106933 -0.753,0 -1.375605,0.03693 -1.870605,0.106933 -0.494,0.071 -0.888129,0.169829 -1.182129,0.298829 -0.295,0.129 -0.499699,0.288539 -0.616699,0.477539 -0.118,0.188 -0.189403,0.399742 -0.212403,0.635742 l -0.916992,32.044923 c 0,0.306 0.06994,0.575523 0.210938,0.811523 0.142,0.235 0.393789,0.428543 0.758789,0.581543 0.365,0.153 0.858422,0.265449 1.482422,0.335449 0.623,0.071 1.405679,0.105469 2.346679,0.105469 z m 0,-38.961915 c 0.965,0 1.764415,-0.08814 2.399415,-0.265137 0.636,-0.176 1.147621,-0.470836 1.536621,-0.881836 0.388,-0.412 0.657058,-0.952047 0.810058,-1.623047 0.153,-0.67 0.231446,-1.499304 0.231446,-2.487304 0,-0.965 -0.07845,-1.777036 -0.231446,-2.436036 -0.153,-0.659 -0.422058,-1.18789 -0.810058,-1.58789 -0.389,-0.4 -0.900621,-0.6882581 -1.536621,-0.8642581 -0.635,-0.177 -1.434415,-0.2651367 -2.399415,-0.2651367 -0.964,0 -1.769992,0.088137 -2.416992,0.2651367 -0.647,0.176 -1.159156,0.4642581 -1.535156,0.8642581 -0.377,0.4 -0.640945,0.92889 -0.793945,1.58789 -0.153,0.659 -0.229981,1.471036 -0.229981,2.436036 0,0.988 0.07698,1.817304 0.229981,2.487304 0.153,0.671 0.416945,1.211047 0.793945,1.623047 0.376,0.411 0.888156,0.705836 1.535156,0.881836 0.647,0.177 1.452992,0.265137 2.416992,0.265137 z"
       transform="matrix(0.26101078,0,0,-0.26101078,103.08318,162.78883)"
       sodipodi:nodetypes="sccssccssccccccscsccccccscsscccssccsccsscccs" />
    <path
       id="path4897"
       d="m 0,0 c 1.878,-10.701 20.017,-5.592 27.432,-5.453 27.938,0.52 55.938,-0.49 83.88,-0.023 0.636,-43.056 -29.513,-85.186 -69.834,-99.939 -90.592,-33.146 -174.865,55.79 -140.865,144.861 13.295,34.831 50.397,64.469 87.914,67.934 C -8.682,107.638 0,108.597 0,104.898 Z"
       style="fill:#b65acc;fill-opacity:1;fill-rule:nonzero;stroke:none"
       transform="matrix(0.35277776,0,0,-0.35277776,1715.1926,911.16518)"
       clip-path="url(#clipPath4898)"
       sodipodi:nodetypes="cccssssc" />
    <g
       style="fill:#b65acc;fill-opacity:1"
       id="g2"
       transform="matrix(2.28337,0,0,2.28337,65.143778,117.44785)">
      <path
         style="baseline-shift:baseline;display:inline;overflow:visible;opacity:1;vector-effect:none;fill:#b65acc;fill-opacity:1;enable-background:accumulate;stop-color:#000000;stop-opacity:1"
         d="M 10,3.25 C 8.11438,3.25 6.6859375,3.2444744 5.5117187,3.4023438 4.3375,3.5602131 3.368673,3.9125832 2.640625,4.640625 1.9125832,5.368673 1.5602131,6.3375 1.4023437,7.5117187 1.2444744,8.6859375 1.25,10.11438 1.25,12 v 2 c 0,1.8856 -0.00553,3.314055 0.1523437,4.488281 0.1578692,1.174226 0.5102181,2.143074 1.2382813,2.871094 0.7280462,0.728059 1.6968729,1.080408 2.8710937,1.238281 C 6.6859396,22.75553 8.11438,22.75 10,22.75 h 4 c 1.8856,0 3.314053,0.0055 4.488281,-0.152344 1.174228,-0.157873 2.143076,-0.510201 2.871094,-1.238281 0.72808,-0.728018 1.080408,-1.696866 1.238281,-2.871094 C 22.75553,17.314053 22.75,15.8856 22.75,14 v -2 c 0,-1.88562 0.0055,-3.3140604 -0.152344,-4.4882813 C 22.439783,6.3374979 22.087434,5.3686712 21.359375,4.640625 20.631355,3.9125618 19.662507,3.5602129 18.488281,3.4023438 17.314055,3.2444746 15.8856,3.25 14,3.25 Z m 0,1.5 h 4 c 1.8856,0 3.284763,0.0056 4.289062,0.140625 1.0043,0.1350233 1.566286,0.3670401 2.009766,0.8105469 0.443541,0.4435338 0.675521,1.0054764 0.810547,2.0097656 C 21.244401,8.7152267 21.25,10.11438 21.25,12 v 2 c 0,1.8856 -0.0056,3.284765 -0.140625,4.289062 -0.135027,1.004298 -0.367027,1.566284 -0.810547,2.009766 -0.443482,0.44352 -1.005468,0.67552 -2.009766,0.810547 C 17.284765,21.244402 15.8856,21.25 14,21.25 H 10 C 8.11438,21.25 6.7152267,21.2444 5.7109375,21.109375 4.7066483,20.974349 4.1447057,20.742369 3.7011719,20.298828 3.2576651,19.855348 3.0256483,19.293362 2.890625,18.289062 2.7556017,17.284763 2.75,15.8856 2.75,14 V 12 C 2.75,10.11438 2.7556,8.7152288 2.890625,7.7109375 3.0256482,6.7066462 3.2576437,6.1447038 3.7011719,5.7011719 4.1447038,5.2576437 4.7066462,5.0256482 5.7109375,4.890625 6.7152288,4.7556018 8.11438,4.75 10,4.75 Z"
         id="path1" />
      <path
         style="baseline-shift:baseline;display:inline;overflow:visible;opacity:1;vector-effect:none;fill:#b65acc;fill-opacity:1;stroke-linecap:round;enable-background:accumulate;stop-color:#000000;stop-opacity:1"
         d="M 7,1.75 A 0.75,0.75 0 0 0 6.25,2.5 V 4 A 0.75,0.75 0 0 0 7,4.75 0.75,0.75 0 0 0 7.75,4 V 2.5 A 0.75,0.75 0 0 0 7,1.75 Z"
         id="path2" />
      <path
         style="baseline-shift:baseline;display:inline;overflow:visible;opacity:1;vector-effect:none;fill:#b65acc;fill-opacity:1;stroke-linecap:round;enable-background:accumulate;stop-color:#000000;stop-opacity:1"
         d="M 17,1.75 A 0.75,0.75 0 0 0 16.25,2.5 V 4 A 0.75,0.75 0 0 0 17,4.75 0.75,0.75 0 0 0 17.75,4 V 2.5 A 0.75,0.75 0 0 0 17,1.75 Z"
         id="path3" />
      <path
         style="baseline-shift:baseline;display:inline;overflow:visible;opacity:1;vector-effect:none;fill:#b65acc;fill-opacity:1;stroke-linecap:round;enable-background:accumulate;stop-color:#000000;stop-opacity:1"
         d="M 2.5,8.25 A 0.75,0.75 0 0 0 1.75,9 0.75,0.75 0 0 0 2.5,9.75 h 19 A 0.75,0.75 0 0 0 22.25,9 0.75,0.75 0 0 0 21.5,8.25 Z"
         id="path4" />
    </g>
    <path
       d="m 89.974395,131.5694 c 0.673629,0.0118 1.364191,-0.43378 0.998802,-0.93642 -0.410898,-0.44654 -1.139825,-0.30727 -1.717675,-0.2764 -0.430742,0.0267 -0.683419,0.38411 -0.818886,0.50778 -0.302947,0.21006 -0.806714,0.33611 -1.100402,-0.0844 -0.351102,-0.43062 0.05001,-0.97708 0.446617,-1.27839 0.72681,-0.5872 1.797579,-0.56937 2.738173,-0.57166 0.754062,0.0129 1.595437,0.0726 2.133864,0.57573 0.707496,0.59705 0.631296,1.65868 -0.114564,2.21022 -0.236008,0.15914 -0.387086,0.27663 0,0.38042 0.743214,0.37723 1.150673,1.14714 0.938742,1.85833 -0.221192,0.94599 -1.306513,1.65018 -2.44475,1.66471 -0.87048,0.0659 -1.785144,0.0729 -2.616465,-0.17629 -0.755121,-0.29474 -1.412346,-0.91682 -1.442508,-1.63518 -0.0053,-0.48709 0.913871,-0.73061 1.172898,-0.26464 0.290512,0.39044 0.917575,0.5721 1.461029,0.66042 0.624152,0.12624 1.381389,0.002 1.715029,-0.50168 0.165629,-0.22739 0.152929,-0.52134 0.01058,-0.75589 -0.323321,-0.47287 -0.920221,-0.38566 -1.495425,-0.30341 -0.662516,-0.002 -0.815181,-1.06351 0.137054,-1.07327 z m 6.625431,3.36314 v -3.56236 c -0.555096,0.33218 -1.09855,0.73122 -1.773767,0.87333 -0.32385,-0.27741 -0.771789,-0.87352 -0.540543,-1.30048 0.504031,-0.34532 1.181893,-0.47058 1.668991,-0.84455 0.488421,-0.30824 0.78105,-0.77021 1.189831,-1.1363 0.533136,-0.10027 1.101461,0.005 1.636448,0.0762 0.401109,0.11121 0.329142,0.53617 0.337609,0.82502 -0.0026,1.64978 0.0053,3.29979 -0.0026,4.94942 -0.123031,0.4919 -0.791898,0.67527 -1.302809,0.79164 -0.451643,0.13992 -1.108604,0.0462 -1.18401,-0.42678 -0.02117,-0.0805 -0.02805,-0.16295 -0.02805,-0.24511 z"
       id="text11"
       style="font-size:38.0319px;font-family:'Arial Rounded MT Bold';-inkscape-font-specification:'Arial Rounded MT Bold, ';fill:#b65acc;stroke-width:5.54868;stroke-linecap:round;stroke-opacity:0.9"
       aria-label="31"
       sodipodi:nodetypes="cccccccccccccccccccccccccccccccccc" />
  </g>
</svg>
