<?xml version="1.0" encoding="UTF-8" standalone="no"?>
<!-- Created with Inkscape (http://www.inkscape.org/) -->

<svg
   width="48.051968mm"
   height="38.441574mm"
   viewBox="0 0 48.051968 38.441574"
   version="1.1"
   id="svg1"
   inkscape:version="1.4.2 (ebf0e940, 2025-05-08)"
   sodipodi:docname="email.svg"
   xmlns:inkscape="http://www.inkscape.org/namespaces/inkscape"
   xmlns:sodipodi="http://sodipodi.sourceforge.net/DTD/sodipodi-0.dtd"
   xmlns="http://www.w3.org/2000/svg"
   xmlns:svg="http://www.w3.org/2000/svg">
  <sodipodi:namedview
     id="namedview1"
     pagecolor="#ffffff"
     bordercolor="#000000"
     borderopacity="0.25"
     inkscape:showpageshadow="2"
     inkscape:pageopacity="0.0"
     inkscape:pagecheckerboard="0"
     inkscape:deskcolor="#d1d1d1"
     inkscape:document-units="mm"
     inkscape:zoom="4.1344602"
     inkscape:cx="90.580143"
     inkscape:cy="64.337298"
     inkscape:window-width="1712"
     inkscape:window-height="971"
     inkscape:window-x="0"
     inkscape:window-y="39"
     inkscape:window-maximized="1"
     inkscape:current-layer="g2" />
  <defs
     id="defs1">
    <clipPath
       clipPathUnits="userSpaceOnUse"
       id="clipPath4678">
      <path
         d="M 0,276 H 276 V 0 H 0 Z"
         transform="translate(-149.76225,-151.0482)"
         id="path4678" />
    </clipPath>
  </defs>
  <g
     inkscape:label="Layer 1"
     inkscape:groupmode="layer"
     id="layer1"
     transform="translate(-68.527204,-126.20625)">
    <path
       id="path4677"
       d="m 0,0 c -1.905,3.492 -3.889,6.127 -5.953,7.905 -2.063,1.778 -4.397,2.667 -7,2.667 -2.222,0 -4.207,-0.524 -5.953,-1.572 -1.746,-1.047 -3.285,-2.444 -4.619,-4.19 -1.333,-1.746 -2.46,-3.715 -3.381,-5.905 -0.921,-2.191 -1.683,-4.429 -2.286,-6.715 -0.603,-2.286 -1.032,-4.524 -1.286,-6.714 -0.254,-2.191 -0.381,-4.112 -0.381,-5.763 0,-3.809 0.699,-6.825 2.096,-9.048 1.397,-2.222 3.746,-3.333 7.048,-3.333 1.206,0 2.46,0.206 3.762,0.619 1.301,0.413 2.667,1.079 4.095,2 1.429,0.921 2.953,2.127 4.572,3.619 1.619,1.492 3.413,3.286 5.381,5.381 z m 64.003,8.477 c 0,-4.636 -0.318,-9.318 -0.952,-14.049 -0.635,-4.73 -1.667,-9.27 -3.096,-13.619 -1.429,-4.35 -3.254,-8.429 -5.476,-12.239 -2.223,-3.81 -4.905,-7.111 -8.048,-9.905 -3.143,-2.794 -6.778,-5 -10.906,-6.62 -4.127,-1.619 -8.794,-2.428 -14,-2.428 -3.111,0 -5.937,0.301 -8.477,0.905 -2.54,0.603 -4.762,1.492 -6.667,2.666 -1.905,1.175 -3.476,2.635 -4.714,4.381 -1.238,1.747 -2.175,3.763 -2.81,6.048 -2.476,-2.539 -4.905,-4.682 -7.286,-6.428 -2.381,-1.747 -4.73,-3.191 -7.048,-4.334 -2.317,-1.143 -4.619,-1.968 -6.905,-2.476 -2.286,-0.508 -4.603,-0.762 -6.953,-0.762 -2.984,0 -5.619,0.365 -7.905,1.095 -2.286,0.73 -4.27,1.73 -5.952,3 -1.683,1.27 -3.08,2.746 -4.191,4.429 -1.111,1.683 -2.016,3.54 -2.715,5.572 -0.698,2.031 -1.19,4.159 -1.476,6.381 -0.286,2.222 -0.428,4.476 -0.428,6.762 0,2.984 0.238,6.318 0.714,10.001 0.476,3.682 1.27,7.444 2.381,11.286 1.111,3.841 2.587,7.556 4.429,11.143 1.841,3.588 4.127,6.794 6.857,9.62 2.731,2.825 5.921,5.095 9.572,6.809 3.651,1.715 7.858,2.572 12.62,2.572 2.159,0 4.159,-0.222 6,-0.667 1.841,-0.444 3.619,-1.143 5.334,-2.095 1.714,-0.952 3.381,-2.191 5,-3.714 C 2.524,20.287 4.222,18.414 6,16.191 l 1.619,7.334 c 0.254,1.143 1.032,2 2.334,2.571 1.301,0.572 3.603,0.858 6.905,0.858 1.651,0 3.032,-0.08 4.143,-0.239 1.111,-0.158 1.984,-0.38 2.619,-0.666 0.635,-0.286 1.048,-0.635 1.238,-1.048 0.191,-0.413 0.254,-0.905 0.191,-1.476 l -8.191,-42.573 c -0.889,-4.699 -0.746,-8.144 0.429,-10.334 1.174,-2.191 3.476,-3.286 6.905,-3.286 2.222,0 4.254,0.603 6.095,1.809 1.841,1.207 3.445,2.842 4.81,4.905 1.365,2.064 2.524,4.445 3.476,7.144 0.953,2.698 1.73,5.524 2.334,8.476 0.603,2.953 1.047,5.937 1.333,8.953 0.286,3.016 0.429,5.921 0.429,8.715 0,5.079 -0.699,9.889 -2.096,14.429 -1.397,4.54 -3.857,8.54 -7.381,12 -3.524,3.461 -8.286,6.191 -14.286,8.191 -6.001,2 -13.636,3 -22.906,3 -6.223,0 -11.89,-0.619 -17.001,-1.857 -5.111,-1.238 -9.699,-2.952 -13.762,-5.143 -4.064,-2.19 -7.683,-4.778 -10.858,-7.762 -3.175,-2.984 -5.937,-6.239 -8.286,-9.762 -2.35,-3.524 -4.334,-7.271 -5.953,-11.239 -1.619,-3.969 -2.905,-7.985 -3.857,-12.048 -0.953,-4.064 -1.651,-8.128 -2.096,-12.191 -0.444,-4.064 -0.666,-8.001 -0.666,-11.81 0,-6.921 0.762,-13.112 2.286,-18.573 1.523,-5.46 4.159,-10.095 7.905,-13.905 3.746,-3.81 8.746,-6.715 15,-8.715 6.255,-2 14.08,-3 23.478,-3 4.889,0 9.349,0.286 13.381,0.857 4.032,0.572 7.556,1.175 10.572,1.81 3.016,0.635 5.477,1.238 7.381,1.81 1.905,0.571 3.207,0.857 3.905,0.857 0.445,0 0.826,-0.111 1.143,-0.334 0.318,-0.222 0.572,-0.65 0.762,-1.285 0.191,-0.635 0.334,-1.493 0.429,-2.572 0.095,-1.079 0.143,-2.445 0.143,-4.095 0,-1.397 -0.032,-2.572 -0.096,-3.524 -0.063,-0.953 -0.174,-1.762 -0.333,-2.429 -0.159,-0.667 -0.365,-1.238 -0.619,-1.714 -0.254,-0.477 -0.571,-0.889 -0.952,-1.239 -0.381,-0.349 -1.572,-0.873 -3.572,-1.571 -2,-0.698 -4.667,-1.381 -8,-2.048 -3.334,-0.666 -7.239,-1.254 -11.715,-1.762 -4.477,-0.508 -9.382,-0.762 -14.715,-0.762 -12.064,0 -22.35,1.381 -30.859,4.143 -8.508,2.762 -15.477,6.763 -20.905,12.001 -5.429,5.238 -9.398,11.588 -11.906,19.048 -2.508,7.461 -3.762,15.858 -3.762,25.192 0,5.207 0.365,10.508 1.095,15.906 0.731,5.397 1.858,10.73 3.382,16 1.523,5.27 3.508,10.398 5.952,15.382 2.445,4.984 5.35,9.699 8.715,14.143 3.365,4.445 7.254,8.525 11.667,12.239 4.413,3.715 9.366,6.905 14.858,9.572 5.492,2.667 11.556,4.73 18.191,6.191 6.635,1.46 13.922,2.19 21.858,2.19 11.62,0 21.573,-1.301 29.859,-3.905 8.286,-2.603 15.096,-6.286 20.429,-11.048 5.334,-4.762 9.255,-10.492 11.763,-17.191 2.508,-6.699 3.762,-14.144 3.762,-22.334"
       style="fill:#b65acc;fill-opacity:1;fill-rule:nonzero;stroke:none"
       transform="matrix(0.07368769,0,0,-0.07368769,92.705258,151.83969)"
       clip-path="url(#clipPath4678)" />
    <g
       style="fill:#b65acc;fill-opacity:1"
       id="g2"
       transform="matrix(2.4025984,0,0,2.4025984,63.722007,116.59586)">
      <path
         style="baseline-shift:baseline;display:inline;overflow:visible;opacity:1;vector-effect:none;fill:#b65acc;fill-opacity:1;stroke-linecap:round;stroke-linejoin:round;enable-background:accumulate;stop-color:#000000;stop-opacity:1"
         d="M 20.140625,6.0097656 C 19.87853,5.9724426 19.61233,6.0405729 19.400391,6.1992187 l -6.201172,3.3289044 c -0.714726,0.5360279 -1.683712,0.5360279 -2.398438,0 L 4.5996094,6.1992187 C 4.157408,5.867837 3.5302546,5.9579302 3.1992188,6.4003906 2.8678371,6.842592 2.9579302,7.4697454 3.4003906,7.8007812 l 6.1992188,3.3269518 c 1.4186736,1.063972 3.3821076,1.063972 4.8007816,0 L 20.599609,7.8007812 C 21.042069,7.4697455 21.132163,6.842592 20.800781,6.4003906 20.641402,6.1876061 20.403853,6.0470444 20.140625,6.0097656 Z"
         id="path1"
         sodipodi:nodetypes="cccccccccccc" />
      <path
         style="baseline-shift:baseline;display:inline;overflow:visible;opacity:1;vector-effect:none;fill:#b65acc;fill-opacity:1;stroke-linecap:round;enable-background:accumulate;stop-color:#000000;stop-opacity:1"
         d="M 5,4 C 3.3552972,4 2,5.3552972 2,7 v 10 c 0,1.644703 1.3552972,3 3,3 h 14 c 1.644703,0 3,-1.355297 3,-3 V 7 C 22,5.3552972 20.644703,4 19,4 Z m 0,2 h 14 c 0.571297,0 1,0.4287028 1,1 v 10 c 0,0.571297 -0.428703,1 -1,1 H 5 C 4.4287028,18 4,17.571297 4,17 V 7 C 4,6.4287028 4.4287028,6 5,6 Z"
         id="rect1"
         sodipodi:nodetypes="ssssssssssssssssss" />
    </g>
  </g>
</svg>
