<?xml version="1.0" encoding="UTF-8" standalone="no"?>
<!-- Created with Inkscape (http://www.inkscape.org/) -->

<svg
   width="41.622501mm"
   height="43.24836mm"
   viewBox="0 0 41.622501 43.24836"
   version="1.1"
   id="svg1"
   inkscape:version="1.4.2 (ebf0e940, 2025-05-08)"
   sodipodi:docname="factory.svg"
   xmlns:inkscape="http://www.inkscape.org/namespaces/inkscape"
   xmlns:sodipodi="http://sodipodi.sourceforge.net/DTD/sodipodi-0.dtd"
   xmlns="http://www.w3.org/2000/svg"
   xmlns:svg="http://www.w3.org/2000/svg">
  <sodipodi:namedview
     id="namedview1"
     pagecolor="#ffffff"
     bordercolor="#000000"
     borderopacity="0.25"
     inkscape:showpageshadow="2"
     inkscape:pageopacity="0.0"
     inkscape:pagecheckerboard="0"
     inkscape:deskcolor="#d1d1d1"
     inkscape:document-units="mm"
     inkscape:zoom="4.04474"
     inkscape:cx="65.146339"
     inkscape:cy="107.79432"
     inkscape:window-width="1712"
     inkscape:window-height="971"
     inkscape:window-x="0"
     inkscape:window-y="39"
     inkscape:window-maximized="1"
     inkscape:current-layer="layer1" />
  <defs
     id="defs1">
    <inkscape:path-effect
       effect="fillet_chamfer"
       id="path-effect1"
       is_visible="true"
       lpeversion="1"
       nodesatellites_param="F,0,1,1,0,0,0,1 @ F,0,1,1,0,1.1760584,0,1 @ F,0,1,1,0,1.1760584,0,1 @ F,0,1,1,0,1.1760584,0,1 @ F,0,1,1,0,0,0,1 | F,0,1,1,0,0,0,1 @ F,0,1,1,0,1.1760584,0,1 @ F,0,1,1,0,1.1760584,0,1 @ F,0,1,1,0,1.1760584,0,1 @ F,0,1,1,0,0,0,1 | F,0,1,1,0,0,0,1 @ F,0,1,1,0,1.1760584,0,1 @ F,0,1,1,0,1.1760584,0,1 @ F,0,1,1,0,1.1760584,0,1 @ F,0,1,1,0,0,0,1 | F,0,1,1,0,0,0,1 @ F,0,1,1,0,1.1760584,0,1 @ F,0,1,1,0,1.1760584,0,1 @ F,0,1,1,0,1.1760584,0,1 @ F,0,1,1,0,0,0,1 | F,0,1,1,0,0,0,1 @ F,0,1,1,0,1.1760584,0,1 @ F,0,1,1,0,1.1760584,0,1 @ F,0,1,1,0,1.1760584,0,1 @ F,0,1,1,0,0,0,1 | F,0,1,1,0,1.1760584,0,1 @ F,0,1,1,0,1.1760584,0,1 @ F,0,1,1,0,1.1760584,0,1 @ F,0,1,1,0,1.1760584,0,1 @ F,0,1,1,0,1.1760584,0,1 @ F,0,0,1,0,1.1760584,0,1 @ F,0,1,1,0,1.1760584,0,1 @ F,0,1,1,0,1.1760584,0,1 @ F,0,1,1,0,1.1760584,0,1 @ F,0,1,1,0,1.1760584,0,1 @ F,0,1,1,0,1.1760584,0,1"
       radius="0"
       unit="px"
       method="auto"
       mode="F"
       chamfer_steps="1"
       flexible="false"
       use_knot_distance="true"
       apply_no_radius="true"
       apply_with_radius="true"
       only_selected="false"
       hide_knots="false" />
    <clipPath
       clipPathUnits="userSpaceOnUse"
       id="clipPath4898">
      <path
         d="M 0,3824 H 3162.283 V 0 H 0 Z"
         transform="translate(-3279.3091,-1516.6358)"
         id="path4898" />
    </clipPath>
  </defs>
  <g
     inkscape:label="Layer 1"
     inkscape:groupmode="layer"
     id="layer1"
     transform="translate(-71.702058,-123.825)">
    <path
       id="path4897"
       d="m 0,0 c 1.878,-10.701 20.017,-5.592 27.432,-5.453 27.938,0.52 55.938,-0.49 83.88,-0.023 0.636,-43.056 -29.513,-85.186 -69.834,-99.939 -90.592,-33.146 -174.865,55.79 -140.865,144.861 13.295,34.831 50.397,64.469 87.914,67.934 C -8.682,107.638 0,108.597 0,104.898 Z"
       style="fill:#b65acc;fill-opacity:1;fill-rule:nonzero;stroke:none"
       transform="matrix(0.35277776,0,0,-0.35277776,3561.6519,910.12988)"
       clip-path="url(#clipPath4898)" />
    <path
       d="m 75.864298,158.42369 v 3.14878 a 1.1760584,1.1760584 45 0 0 1.176058,1.17606 h 5.97239 a 1.1760584,1.1760584 135 0 0 1.176058,-1.17606 v -1.97272 a 1.1760584,1.1760584 45 0 0 -1.176058,-1.17606 h -7.148448 m 0,-8.64967 v 3.14877 a 1.1760584,1.1760584 45 0 0 1.176058,1.17606 h 18.459162 a 1.1760584,1.1760584 135 0 0 1.176058,-1.17606 v -1.97271 a 1.1760584,1.1760584 45 0 0 -1.176058,-1.17606 l -19.63522,0 m 12.486745,8.64967 v 3.14878 a 1.1760584,1.1760584 45 0 0 1.176058,1.17606 h 5.972417 a 1.1760584,1.1760584 135 0 0 1.176058,-1.17606 v -1.97272 a 1.1760584,1.1760584 45 0 0 -1.176058,-1.17606 h -7.148475 m 12.486777,-8.64967 v 3.14877 a 1.1760584,1.1760584 45 0 0 1.17606,1.17606 h 5.97238 a 1.1760584,1.1760584 135 0 0 1.17606,-1.17606 v -1.97271 a 1.1760584,1.1760584 45 0 0 -1.17606,-1.17606 l -7.14844,0 m 0,8.64967 v 3.14878 a 1.1760584,1.1760584 45 0 0 1.17606,1.17606 h 5.97238 a 1.1760584,1.1760584 135 0 0 1.17606,-1.17606 v -1.97272 a 1.1760584,1.1760584 45 0 0 -1.17606,-1.17606 h -7.14844 m -29.135762,7.47361 v -27.92173 a 0.55171887,0.55171887 154.86753 0 1 0.904399,-0.42428 l 8.596815,7.14611 a 0.55171887,0.55171887 154.86753 0 0 0.904399,-0.42428 v -6.29755 a 0.55171975,0.55171975 154.8675 0 1 0.9044,-0.42428 l 8.596839,7.14611 a 0.55171975,0.55171975 154.8675 0 0 0.9044,-0.42428 v -6.29755 a 0.55171877,0.55171877 154.86754 0 1 0.904399,-0.42428 l 8.596811,7.14611 a 0.62219447,0.62219447 157.61618 0 0 1.01706,-0.41887 l 1.85582,-19.28288 a 1.2946778,1.2946778 137.74865 0 1 1.28872,-1.17065 h 3.89125 a 1.2946772,1.2946772 42.251367 0 1 1.28872,1.17065 l 1.85581,19.28288 a 24.496356,24.496356 87.251367 0 1 0.11266,2.34671 l 0,19.27206 a 1.1760584,1.1760584 135 0 1 -1.17606,1.17606 l -39.270384,0 a 1.1760584,1.1760584 45 0 1 -1.176058,-1.17606 z"
       id="path1"
       style="fill:#b65acc;fill-opacity:1;stroke:none;stroke-width:2.12138"
       sodipodi:nodetypes="ccccccccccccccccccccccccccccccccccccc"
       inkscape:original-d="m 75.864298,158.42369 v 4.32484 h 8.324506 v -4.32484 h -8.324506 m 0,-8.64967 v 4.32483 h 20.811278 v -4.32483 H 75.864298 m 12.486745,8.64967 v 4.32484 h 8.324533 v -4.32484 h -8.324533 m 12.486777,-8.64967 v 4.32483 h 8.3245 v -4.32483 h -8.3245 m 0,8.64967 v 4.32484 h 8.3245 v -4.32484 h -8.3245 m -29.135762,8.64967 v -30.27385 l 10.405613,8.64967 v -8.64967 l 10.405639,8.64967 v -8.64967 l 10.40561,8.64967 2.08114,-21.62418 h 6.24337 l 2.08113,21.62418 v 21.62418 z"
       inkscape:path-effect="#path-effect1" />
  </g>
</svg>
