<?xml version="1.0" encoding="UTF-8" standalone="no"?>
<!-- Created with Inkscape (http://www.inkscape.org/) -->

<svg
   width="73.377357mm"
   height="41.004311mm"
   viewBox="0 0 73.377357 41.004311"
   version="1.1"
   id="svg1"
   inkscape:version="1.4.2 (ebf0e940, 2025-05-08)"
   sodipodi:docname="hardhat.svg"
   xmlns:inkscape="http://www.inkscape.org/namespaces/inkscape"
   xmlns:sodipodi="http://sodipodi.sourceforge.net/DTD/sodipodi-0.dtd"
   xmlns="http://www.w3.org/2000/svg"
   xmlns:svg="http://www.w3.org/2000/svg">
  <sodipodi:namedview
     id="namedview1"
     pagecolor="#ffffff"
     bordercolor="#000000"
     borderopacity="0.25"
     inkscape:showpageshadow="2"
     inkscape:pageopacity="0.0"
     inkscape:pagecheckerboard="0"
     inkscape:deskcolor="#d1d1d1"
     inkscape:document-units="mm"
     inkscape:zoom="0.20362939"
     inkscape:cx="-193.97986"
     inkscape:cy="88.395884"
     inkscape:window-width="896"
     inkscape:window-height="245"
     inkscape:window-x="0"
     inkscape:window-y="39"
     inkscape:window-maximized="0"
     inkscape:current-layer="layer1" />
  <defs
     id="defs1">
    <clipPath
       clipPathUnits="userSpaceOnUse"
       id="clipPath4898">
      <path
         d="M 0,3824 H 3162.283 V 0 H 0 Z"
         transform="translate(-3279.3091,-1516.6358)"
         id="path4898" />
    </clipPath>
    <clipPath
       clipPathUnits="userSpaceOnUse"
       id="clipPath125">
      <path
         d="M 0,276 H 276 V 0 H 0 Z"
         transform="translate(-203.731,-158.7661)"
         id="path125" />
    </clipPath>
  </defs>
  <g
     inkscape:label="Layer 1"
     inkscape:groupmode="layer"
     id="layer1"
     transform="translate(-1037.1667,-322.26251)">
    <path
       id="path124"
       d="m 0,0 c -28.589,29.35 -72.048,13.514 -89.676,-19.437 -1.589,-2.97 -5.591,-10.718 -4.526,-13.825 0.603,-1.758 4.415,-2.19 5.836,-1.086 0.548,0.426 4.471,9.934 5.495,11.819 19.475,35.82 64.166,42.978 86.416,5.349 1.33,-2.25 2.393,-6.913 4.833,-7.588 1.777,-0.492 4.049,0.687 4.35,2.566 C 13.565,-16.987 3.714,-3.813 0,0 m -143.948,-47.74 c 4.755,25.283 15.055,50.654 32.625,69.732 2.677,2.906 7.36,7.758 10.525,9.886 10.861,7.305 43.755,5.984 56.73,3.528 36.476,-6.904 65.714,-38.203 68.807,-75.306 16.712,-1.815 18.654,-23.423 1.822,-27.093 -25.885,-2.562 -51.967,-3.306 -77.866,-5.644 -23.706,-2.141 -47.246,-6.714 -71.169,-6.206 -9.712,0.206 -33.589,1.512 -42.063,4.95 -5.446,2.208 -7.038,8.386 -2.702,12.64 5.193,5.095 16.882,9.626 23.291,13.513"
       style="fill:#b65acc;fill-opacity:1;fill-rule:nonzero;stroke:none"
       transform="matrix(0.35277776,0,0,-0.35277776,1097.0438,335.43897)"
       clip-path="url(#clipPath125)" />
    <path
       id="path4897"
       d="m 0,0 c 1.878,-10.701 20.017,-5.592 27.432,-5.453 27.938,0.52 55.938,-0.49 83.88,-0.023 0.636,-43.056 -29.513,-85.186 -69.834,-99.939 -90.592,-33.146 -174.865,55.79 -140.865,144.861 13.295,34.831 50.397,64.469 87.914,67.934 C -8.682,107.638 0,108.597 0,104.898 Z"
       style="fill:#b65acc;fill-opacity:1;fill-rule:nonzero;stroke:none"
       transform="matrix(0.35277776,0,0,-0.35277776,5877.7393,1108.0683)"
       clip-path="url(#clipPath4898)" />
  </g>
</svg>
