<?xml version="1.0" encoding="UTF-8" standalone="no"?>
<!-- Created with Inkscape (http://www.inkscape.org/) -->

<svg
   width="49.085674mm"
   height="56.992352mm"
   viewBox="0 0 49.085674 56.992352"
   version="1.1"
   id="svg1"
   inkscape:version="1.4.2 (ebf0e940, 2025-05-08)"
   sodipodi:docname="headhunter.svg"
   xmlns:inkscape="http://www.inkscape.org/namespaces/inkscape"
   xmlns:sodipodi="http://sodipodi.sourceforge.net/DTD/sodipodi-0.dtd"
   xmlns="http://www.w3.org/2000/svg"
   xmlns:svg="http://www.w3.org/2000/svg">
  <sodipodi:namedview
     id="namedview1"
     pagecolor="#ffffff"
     bordercolor="#000000"
     borderopacity="0.25"
     inkscape:showpageshadow="2"
     inkscape:pageopacity="0.0"
     inkscape:pagecheckerboard="0"
     inkscape:deskcolor="#d1d1d1"
     inkscape:document-units="mm"
     inkscape:zoom="0.01"
     inkscape:cx="50"
     inkscape:cy="150"
     inkscape:window-width="896"
     inkscape:window-height="204"
     inkscape:window-x="0"
     inkscape:window-y="39"
     inkscape:window-maximized="0"
     inkscape:current-layer="layer1" />
  <defs
     id="defs1" />
  <g
     inkscape:label="Layer 1"
     inkscape:groupmode="layer"
     id="layer1"
     transform="translate(-67.997917,-116.94584)">
    <path
       d="m 98.344747,122.74983 v -1.54821 c 0,-2.34627 -1.908062,-4.25578 -4.255779,-4.25578 h -3.097882 c -2.346264,0 -4.254329,1.90951 -4.254329,4.25578 v 1.54821 c 0,3.2009 2.603091,5.804 5.803996,5.804 3.200903,0 5.803994,-2.6031 5.803994,-5.804 z"
       id="path1"
       style="fill:#b65acc;fill-opacity:1;stroke-width:1.451"
       sodipodi:nodetypes="ssssssss" />
    <path
       d="m 99.572273,153.93782 0.519487,-6.65913 h 2.67517 c 1.13102,0 2.04524,-0.91627 2.04524,-2.04524 v -8.78209 c 0,-4.21933 -3.43395,-7.65123 -7.65123,-7.65123 h -4.620189 -4.620188 c -4.217277,0 -7.651229,3.4319 -7.651229,7.65123 v 8.78209 c 0,1.12897 0.914221,2.04524 2.045236,2.04524 h 2.675169 l 0.51949,6.65913 c -6.808591,0.89377 -11.38992,2.94105 -12.884988,5.68371 h -2.581088 c -1.131016,0 -2.045236,0.91627 -2.045236,2.04524 0,1.12897 0.91422,2.04523 2.045236,2.04523 h 2.572907 c 2.063643,3.8655 9.427044,5.81257 17.350289,6.09685 l -0.529168,2.0841 c -0.277837,1.09425 1.972555,2.04524 3.10357,2.04524 1.131016,0 3.381408,-0.95099 3.10357,-2.04524 l -0.529168,-2.0841 c 7.923247,-0.28428 15.288687,-2.23135 17.350287,-6.09685 h 2.57291 c 1.13102,0 2.04524,-0.91626 2.04524,-2.04523 0,-1.12897 -0.91422,-2.04524 -2.04524,-2.04524 h -2.58109 c -1.49507,-2.74266 -6.07435,-4.78994 -12.884987,-5.68371 z m -7.031522,11.81942 c -10.735445,0 -16.361889,-3.03922 -16.361889,-4.09047 0,-0.51745 2.478826,-2.69153 9.794636,-3.66506 l 0.445861,3.89617 c 0.116579,1.03489 0.989895,1.81412 2.03092,1.81412 h 8.180945 c 1.041025,0 1.914341,-0.77923 2.030919,-1.81412 l 0.445862,-3.89617 c 7.315805,0.97353 9.794635,3.14761 9.794635,3.66506 0,1.05125 -5.62644,4.09047 -16.361889,4.09047 z"
       id="path2"
       style="fill:#b65acc;fill-opacity:1;stroke-width:2.04524"
       sodipodi:nodetypes="ccsssscsssscccsssccsssccsssccssccssccss" />
  </g>
</svg>
