<?xml version="1.0" encoding="UTF-8" standalone="no"?>
<!-- Created with Inkscape (http://www.inkscape.org/) -->

<svg
   width="59.155476mm"
   height="64.911705mm"
   viewBox="0 0 59.155476 64.911705"
   version="1.1"
   id="svg1"
   inkscape:version="1.4.2 (ebf0e940, 2025-05-08)"
   sodipodi:docname="headset.svg"
   xmlns:inkscape="http://www.inkscape.org/namespaces/inkscape"
   xmlns:sodipodi="http://sodipodi.sourceforge.net/DTD/sodipodi-0.dtd"
   xmlns="http://www.w3.org/2000/svg"
   xmlns:svg="http://www.w3.org/2000/svg">
  <sodipodi:namedview
     id="namedview1"
     pagecolor="#ffffff"
     bordercolor="#000000"
     borderopacity="0.25"
     inkscape:showpageshadow="2"
     inkscape:pageopacity="0.0"
     inkscape:pagecheckerboard="0"
     inkscape:deskcolor="#d1d1d1"
     inkscape:document-units="mm"
     inkscape:zoom="0.023162177"
     inkscape:cx="107.93459"
     inkscape:cy="129.5215"
     inkscape:window-width="896"
     inkscape:window-height="245"
     inkscape:window-x="0"
     inkscape:window-y="39"
     inkscape:window-maximized="0"
     inkscape:current-layer="layer1" />
  <defs
     id="defs1">
    <clipPath
       clipPathUnits="userSpaceOnUse"
       id="clipPath4898">
      <path
         d="M 0,3824 H 3162.283 V 0 H 0 Z"
         transform="translate(-3279.3091,-1516.6358)"
         id="path4898" />
    </clipPath>
    <clipPath
       clipPathUnits="userSpaceOnUse"
       id="clipPath1264">
      <path
         d="M 0,276 H 276 V 0 H 0 Z"
         transform="translate(-93.930377,-157.5403)"
         id="path1264" />
    </clipPath>
  </defs>
  <g
     inkscape:label="Layer 1"
     inkscape:groupmode="layer"
     id="layer1"
     transform="translate(-78.845813,-116.15209)">
    <path
       id="path1263"
       d="m 0,0 c 3.975,-0.799 8.597,-7.086 8.597,-11.525 0,-7.943 0.051,-28.062 0.051,-36.544 0,-18.38 -27.393,-13.159 -37.622,-5.172 -12.899,10.072 -14.715,32.291 -2.881,43.948 1.744,1.719 9.08,5.493 9.329,6.233 0,0 0.13,5.608 0.124,9.304 -0.073,51.2 53.953,82.512 99.216,57.356 24.432,-13.578 36.538,-40.097 34.187,-67.704 23.748,-8.359 21.962,-46.455 -2.075,-53.404 -0.177,-19.724 -6.958,-37.218 -27.255,-43.158 -6.442,-1.885 -16.867,-2.491 -20.75,-3.82 -0.806,-0.276 -2.48,-3.261 -3.958,-4.331 -4.438,-3.212 -15.96,-3.26 -21.056,-1.808 -10.227,2.916 -13.045,16.009 -3.996,22.024 4.139,2.75 15.601,2.926 20.564,2.142 5.658,-0.892 7.455,-6.855 9.135,-7.436 3.136,-1.086 14.262,1.492 17.684,2.811 13.099,5.047 17.469,17.771 17.782,30.922 -8.299,-0.935 -17.298,1.222 -17.298,10.677 0,9.204 0.01,28.52 0.01,38.725 0,8.231 10.95,11.135 17.976,10.001 v 8.376 c 0,4.767 -2.1,13.65 -2.747,15.471 C 82.024,59.668 35.333,70.662 6.911,44.158 -0.817,36.952 -9.995,20.598 -9.995,9.947 V -0.759 C -6.604,0.079 -2.776,0.558 0,0"
       style="fill:#b65acc;fill-opacity:1;fill-rule:nonzero;stroke:none"
       transform="matrix(0.35277776,0,0,-0.35277776,92.876747,141.71462)"
       clip-path="url(#clipPath1264)" />
    <path
       id="path4897"
       d="m 0,0 c 1.878,-10.701 20.017,-5.592 27.432,-5.453 27.938,0.52 55.938,-0.49 83.88,-0.023 0.636,-43.056 -29.513,-85.186 -69.834,-99.939 -90.592,-33.146 -174.865,55.79 -140.865,144.861 13.295,34.831 50.397,64.469 87.914,67.934 C -8.682,107.638 0,108.597 0,104.898 Z"
       style="fill:#b65acc;fill-opacity:1;fill-rule:nonzero;stroke:none"
       transform="matrix(0.35277776,0,0,-0.35277776,3988.3825,913.9115)"
       clip-path="url(#clipPath4898)" />
  </g>
</svg>
