<?xml version="1.0" encoding="UTF-8" standalone="no"?>
<!-- Created with Inkscape (http://www.inkscape.org/) -->

<svg
   width="69.536575mm"
   height="37.747749mm"
   viewBox="0 0 69.536575 37.747749"
   version="1.1"
   id="svg1"
   inkscape:version="1.4.2 (ebf0e940, 2025-05-08)"
   sodipodi:docname="keyboard.svg"
   xmlns:inkscape="http://www.inkscape.org/namespaces/inkscape"
   xmlns:sodipodi="http://sodipodi.sourceforge.net/DTD/sodipodi-0.dtd"
   xmlns="http://www.w3.org/2000/svg"
   xmlns:svg="http://www.w3.org/2000/svg">
  <sodipodi:namedview
     id="namedview1"
     pagecolor="#ffffff"
     bordercolor="#000000"
     borderopacity="0.25"
     inkscape:showpageshadow="2"
     inkscape:pageopacity="0.0"
     inkscape:pagecheckerboard="0"
     inkscape:deskcolor="#d1d1d1"
     inkscape:document-units="mm"
     inkscape:zoom="0.01"
     inkscape:cx="150"
     inkscape:cy="50"
     inkscape:window-width="896"
     inkscape:window-height="204"
     inkscape:window-x="0"
     inkscape:window-y="39"
     inkscape:window-maximized="0"
     inkscape:current-layer="layer1" />
  <defs
     id="defs1">
    <clipPath
       clipPathUnits="userSpaceOnUse"
       id="clipPath2040">
      <path
         d="M 0,276 H 276 V 0 H 0 Z"
         transform="translate(-139.2174,-171.23421)"
         id="path2040" />
    </clipPath>
    <clipPath
       clipPathUnits="userSpaceOnUse"
       id="clipPath4898">
      <path
         d="M 0,3824 H 3162.283 V 0 H 0 Z"
         transform="translate(-3279.3091,-1516.6358)"
         id="path4898" />
    </clipPath>
    <clipPath
       clipPathUnits="userSpaceOnUse"
       id="clipPath1139">
      <path
         d="M 0,276 H 276 V 0 H 0 Z"
         transform="translate(-202.93328,-137.668)"
         id="path1139" />
    </clipPath>
  </defs>
  <g
     inkscape:label="Layer 1"
     inkscape:groupmode="layer"
     id="layer1"
     transform="translate(-57.94375,-126.73542)">
    <path
       id="path1138"
       d="m 0,0 c 0,-1.813 -1.47,-3.283 -3.283,-3.283 h -7.841 c -1.813,0 -3.283,1.47 -3.283,3.283 v 7.841 c 0,1.813 1.47,3.283 3.283,3.283 h 7.841 C -1.47,11.124 0,9.654 0,7.841 Z m -14.411,-26.583 c 0,-1.814 -1.47,-3.283 -3.283,-3.283 h -7.841 c -1.813,0 -3.283,1.469 -3.283,3.283 v 7.84 c 0,1.813 1.47,3.283 3.283,3.283 h 7.841 c 1.813,0 3.283,-1.47 3.283,-3.283 z m -11.737,-27.042 c 0,-1.813 -1.47,-3.283 -3.283,-3.283 h -70.833 c -1.813,0 -3.283,1.47 -3.283,3.283 v 7.84 c 0,1.814 1.47,3.283 3.283,3.283 h 70.833 c 1.813,0 3.283,-1.469 3.283,-3.283 z m -85.853,23.759 c -1.813,0 -3.283,1.469 -3.283,3.283 v 7.84 c 0,1.813 1.47,3.283 3.283,3.283 h 7.84 c 1.814,0 3.284,-1.47 3.284,-3.283 v -7.84 c 0,-1.814 -1.47,-3.283 -3.284,-3.283 z M -115.288,0 c 0,-1.813 -1.47,-3.283 -3.284,-3.283 h -7.84 c -1.813,0 -3.283,1.47 -3.283,3.283 v 7.841 c 0,1.813 1.47,3.283 3.283,3.283 h 7.84 c 1.814,0 3.284,-1.47 3.284,-3.283 z m 14.415,7.841 c 0,1.813 1.47,3.283 3.283,3.283 h 7.84 c 1.814,0 3.284,-1.47 3.284,-3.283 V 0 c 0,-1.813 -1.47,-3.283 -3.284,-3.283 h -7.84 c -1.813,0 -3.283,1.47 -3.283,3.283 z m 14.411,-26.584 c 0,1.813 1.47,3.283 3.283,3.283 h 7.841 c 1.813,0 3.283,-1.47 3.283,-3.283 v -7.84 c 0,-1.814 -1.47,-3.283 -3.283,-3.283 h -7.841 c -1.813,0 -3.283,1.469 -3.283,3.283 z m 14.411,26.584 c 0,1.813 1.47,3.283 3.283,3.283 h 7.841 c 1.813,0 3.283,-1.47 3.283,-3.283 V 0 c 0,-1.813 -1.47,-3.283 -3.283,-3.283 h -7.841 c -1.813,0 -3.283,1.47 -3.283,3.283 z m 14.411,-26.584 c 0,1.813 1.47,3.283 3.283,3.283 h 7.841 c 1.813,0 3.283,-1.47 3.283,-3.283 v -7.84 c 0,-1.814 -1.47,-3.283 -3.283,-3.283 h -7.841 c -1.813,0 -3.283,1.469 -3.283,3.283 z m 14.411,26.584 c 0,1.813 1.47,3.283 3.283,3.283 h 7.841 c 1.813,0 3.283,-1.47 3.283,-3.283 V 0 c 0,-1.813 -1.47,-3.283 -3.283,-3.283 h -7.841 c -1.813,0 -3.283,1.47 -3.283,3.283 z m 66.955,2.821 c 0,10.57 -8.214,19.225 -18.367,19.225 h -85.87 c -2.515,2.146 -4.62,4.64 -5.654,8.114 -3.364,11.313 6.042,23.57 17.234,25.485 9.332,1.598 18.147,-5.243 26.356,-8.807 11.514,-4.999 22.713,-7.264 34.299,-0.93 5.242,2.867 17.508,13.386 9.835,19.153 -5.995,4.506 -10.058,-4.694 -14.853,-7.66 -14.591,-9.028 -31.725,7.503 -46.136,10.467 -24.957,5.133 -47.861,-22.246 -36.483,-45.822 h -39.082 c -12.208,0 -18.598,-7.989 -18.598,-19.225 0,-19.365 -0.035,-44.942 -0.035,-62.585 0,-12.278 6.502,-23.076 19.745,-23.076 24.504,0 98.821,-0.673 133.978,-0.673 13.088,0 23.667,3.469 23.667,23.749 0,19.715 -0.036,36.01 -0.036,62.585"
       style="fill:#b65acc;fill-opacity:1;fill-rule:nonzero;stroke:none"
       transform="matrix(0.24712773,0,0,-0.24712773,95.909489,145.60015)"
       clip-path="url(#clipPath1139)" />
    <path
       id="path4897"
       d="m 0,0 c 1.878,-10.701 20.017,-5.592 27.432,-5.453 27.938,0.52 55.938,-0.49 83.88,-0.023 0.636,-43.056 -29.513,-85.186 -69.834,-99.939 -90.592,-33.146 -174.865,55.79 -140.865,144.861 13.295,34.831 50.397,64.469 87.914,67.934 C -8.682,107.638 0,108.597 0,104.898 Z"
       style="fill:#b65acc;fill-opacity:1;fill-rule:nonzero;stroke:none"
       transform="matrix(0.35277776,0,0,-0.35277776,4070.591,906.57051)"
       clip-path="url(#clipPath4898)" />
    <path
       id="path2039"
       d="m 0,0 c -2.737,0.976 -6.891,-0.561 -8.792,-2.659 -2.909,-3.211 -9.65,-14.171 -11.605,-18.253 -4.945,-10.32 6.485,-16.611 11.959,-11.058 2.627,2.665 11.545,17.236 13.33,21.029 C 7.018,-6.423 4.622,-1.648 0,0 M 23.92,19.579 C 44.133,3.054 50.553,-26.814 38.572,-50.062 31.79,-63.222 13.107,-93.808 2.832,-103.239 c -42.252,-38.782 -109.431,2.999 -93.221,57.885 3.812,12.907 24.444,45.325 33.116,56.938 15.164,20.305 44.541,26.505 67.403,16.718 6.567,8.699 11.248,15.494 21.433,20.107 31.147,14.105 110.0988,14.852615 102.0848,-17.233385 -4.596,-18.398 -28.44745,-49.155987 -17.61045,-68.433987 3.561,-6.334 15.189,-12.064 9.063,-19.54 -7.842,-9.57 -20.725,6.793 -24.133,13.699 -7.532004,15.262 -4.009004,29.561 3.05,44.1180004 5.033,10.3789996 13.68658,22.5258506 12.13358,34.6298506 C 114.28893,50.163479 56.891,39.421 42.142,35.699 33.466,33.51 29.189,26.079 23.92,19.579"
       style="fill:#b65acc;fill-opacity:1;fill-rule:nonzero;stroke:none"
       transform="matrix(-0.06677105,-0.12532546,0.12770869,-0.06804079,121.46559,147.69506)"
       clip-path="url(#clipPath2040)"
       sodipodi:nodetypes="cccscccscscccccscsccc" />
  </g>
</svg>
