<?xml version="1.0" encoding="UTF-8" standalone="no"?>
<!-- Uploaded to: SVG Repo, www.svgrepo.com, Generator: SVG Repo Mixer Tools -->

<svg
   width="528.02441"
   height="837.21747"
   viewBox="0 0 47.522197 75.349572"
   id="emoji"
   version="1.1"
   sodipodi:docname="labcoat.svg"
   inkscape:version="1.4.2 (ebf0e940, 2025-05-08)"
   xmlns:inkscape="http://www.inkscape.org/namespaces/inkscape"
   xmlns:sodipodi="http://sodipodi.sourceforge.net/DTD/sodipodi-0.dtd"
   xmlns="http://www.w3.org/2000/svg"
   xmlns:svg="http://www.w3.org/2000/svg">
  <defs
     id="defs13">
    <clipPath
       clipPathUnits="userSpaceOnUse"
       id="clipPath2691">
      <path
         d="M 0,276 H 276 V 0 H 0 Z"
         transform="translate(-182.2536,-77.634902)"
         id="path2691" />
    </clipPath>
  </defs>
  <sodipodi:namedview
     id="namedview13"
     pagecolor="#ffffff"
     bordercolor="#000000"
     borderopacity="0.25"
     inkscape:showpageshadow="2"
     inkscape:pageopacity="0.0"
     inkscape:pagecheckerboard="0"
     inkscape:deskcolor="#d1d1d1"
     inkscape:zoom="0.81623353"
     inkscape:cx="196.6349"
     inkscape:cy="319.76143"
     inkscape:window-width="1712"
     inkscape:window-height="971"
     inkscape:window-x="0"
     inkscape:window-y="39"
     inkscape:window-maximized="1"
     inkscape:current-layer="line" />
  <g
     id="line"
     transform="translate(-12.073711,3.683094)">
    <path
       style="baseline-shift:baseline;display:inline;overflow:visible;opacity:1;vector-effect:none;fill:#b65acc;fill-opacity:1;stroke-linejoin:round;enable-background:accumulate;stop-color:#000000;stop-opacity:1"
       d="m 33.090625,33.453125 v 37.039062 h 2.21875 V 33.453125 Z"
       id="path13" />
    <path
       style="baseline-shift:baseline;display:inline;overflow:visible;vector-effect:none;fill:#b65acc;fill-opacity:1;stroke-linejoin:round;enable-background:accumulate;stop-color:#000000"
       d="m 36.795161,33.341603 v 37.039062 h 2.21875 V 33.341603 Z"
       id="path13-8" />
    <path
       style="baseline-shift:baseline;display:inline;overflow:visible;opacity:1;vector-effect:none;fill:#b65acc;fill-opacity:1;stroke-linecap:round;stroke-linejoin:round;enable-background:accumulate;stop-color:#000000;stop-opacity:1"
       d="m 43.404297,13.408203 c -0.597646,0.135834 -0.971948,0.730519 -0.835938,1.328125 l 1.449219,6.384766 h -1.787109 c -0.876711,-3.9e-4 -1.407573,0.968238 -0.935547,1.707031 l 1.414062,2.210937 -5.434375,7.65625 c -0.42066,0.445505 -0.400549,1.147662 0.04492,1.56836 0.445505,0.42066 1.147662,0.400549 1.56836,-0.04492 l 6.028125,-8.285156 c 0.350686,-0.370241 0.403865,-0.931844 0.128906,-1.361328 l -0.789063,-1.232422 h 1.150391 c 0.712037,0 1.239798,-0.66113 1.082031,-1.355469 L 44.73242,14.244143 c -0.135834,-0.597646 -0.730519,-0.971948 -1.328125,-0.835938 z"
       id="path7"
       sodipodi:nodetypes="scccccccccccsccss" />
    <path
       style="baseline-shift:baseline;display:inline;overflow:visible;opacity:1;vector-effect:none;fill:#b65acc;fill-opacity:1;stroke-linecap:round;stroke-linejoin:round;enable-background:accumulate;stop-color:#000000;stop-opacity:1"
       d="m 36.009766,10.271484 c -1.590291,-0.0089 -3.179438,0.359997 -5.085938,1.136719 a 1.1095001,1.1095001 0 0 0 -0.609375,1.445313 1.1095001,1.1095001 0 0 0 1.445313,0.609375 c 3.531,-1.438556 4.953025,-1.372115 8.542968,0.0078 a 1.1095001,1.1095001 0 0 0 1.433594,-0.638672 1.1095001,1.1095001 0 0 0 -0.638672,-1.433593 c -1.907028,-0.733037 -3.497599,-1.118064 -5.08789,-1.126954 z"
       id="path8" />
    <path
       style="baseline-shift:baseline;display:inline;overflow:visible;opacity:1;vector-effect:none;fill:#b65acc;fill-opacity:1;stroke-linecap:round;stroke-linejoin:round;enable-background:accumulate;stop-color:#000000;stop-opacity:1"
       d="m 41.721291,31.911114 c -0.613426,6.8e-5 -1.110386,0.497903 -1.109375,1.111328 6.9e-5,0.612662 0.496713,1.109306 1.109375,1.109375 h 3.711016 c 0.612662,-6.9e-5 1.109306,-0.496713 1.109375,-1.109375 10e-4,-0.613425 -0.495949,-1.11126 -1.109375,-1.111328 z"
       id="line8"
       sodipodi:nodetypes="ccccccc" />
    <path
       style="baseline-shift:baseline;display:inline;overflow:visible;opacity:1;vector-effect:none;fill:#b65acc;fill-opacity:1;stroke-linecap:round;stroke-linejoin:round;enable-background:accumulate;stop-color:#000000;stop-opacity:1"
       d="m 31.107422,11.345703 c -0.570165,0.135027 -0.937077,0.690098 -0.837891,1.267578 l 0.507813,-1.134765 c 0,0 -1.80229,1.059776 -3.783203,2.429687 -0.990457,0.684956 -2.02802,1.447719 -2.927735,2.214844 -0.899715,0.767125 -1.662744,1.499019 -2.136719,2.341797 -2.043656,3.635334 -4.40815,11.31729 -6.371093,18.246093 -1.962944,6.928804 -3.453125,13.013672 -3.453125,13.013672 -0.09552,0.390618 0.02778,0.802344 0.322265,1.076172 0,0 2.618493,2.417879 6.91211,2.640625 0.531691,0.0274 1.007909,-0.326688 1.134765,-0.84375 l 1.410157,-5.730469 -0.59375,20.955079 c -0.0083,0.317349 0.119631,0.623076 0.351562,0.839843 1.40944,1.318959 3.611499,1.986863 6.220703,2.4375 2.609204,0.450638 5.634531,0.615607 8.609375,0.554688 2.974844,-0.06092 5.890338,-0.348778 8.285156,-0.830078 2.394819,-0.4813 4.250765,-0.980746 5.34961,-2.242188 0.182623,-0.210218 0.279529,-0.481416 0.271484,-0.759765 l -0.59375,-20.964844 1.41211,5.740234 c 0.0953,0.38755 0.391374,0.69407 0.77539,0.802735 4.343667,1.223699 7.345703,-2.09961 7.345703,-2.09961 0.237989,-0.269745 0.330448,-0.638122 0.248047,-0.988281 0,0 -1.503008,-6.399037 -3.480469,-13.642578 -1.97746,-7.243541 -4.345533,-15.228848 -6.402343,-18.888672 -0.945279,-1.681505 -3.004365,-3.037906 -4.886719,-4.242187 -1.882354,-1.204282 -3.585937,-2.097657 -3.585938,-2.097657 -0.645769,-0.338622 -1.437039,0.02703 -1.597656,0.738282 0,0 -3.192312,-0.526848 -4.66413,-0.267152 -1.526272,0.0432 -2.511661,0.347155 -2.521417,0.304261 l -0.002,-0.0098 -0.0059,-0.02734 c -0.136955,-0.589338 -0.720794,-0.960319 -1.3125,-0.833985 z m 10.339844,2.802735 c 0.633303,0.350072 1.026972,0.538532 2.154296,1.259765 1.789646,1.144969 3.739763,2.737442 4.146485,3.460938 1.714189,3.050175 4.231976,11.185806 6.197265,18.384765 1.867943,6.842371 3.150564,12.307977 3.289063,12.894531 -0.455423,0.448188 -1.788659,1.508427 -4.070313,1.15625 l -3.703125,-15.05664 c -0.322173,-1.284232 -2.217614,-1.026763 -2.185546,0.296875 l 0.86914,30.732422 c -0.48886,0.348791 -1.846618,0.974037 -3.822265,1.371093 -2.218306,0.445826 -5.035829,0.728529 -7.896485,0.78711 -2.860656,0.05858 -5.772626,-0.1067 -8.185547,-0.523438 -2.181167,-0.376711 -3.829738,-1.020737 -4.71289,-1.667968 l 0.86914,-30.699219 c 0.04311,-1.334286 -1.873436,-1.594388 -2.1875,-0.296875 l -3.644531,14.826172 c -2.347106,-0.340944 -3.602457,-1.151389 -4.109375,-1.554688 0.155147,-0.63053 1.398368,-5.708593 3.238281,-12.203125 1.950307,-6.884196 4.442579,-14.691006 6.169922,-17.763672 0.202025,-0.359222 0.832293,-1.049359 1.642578,-1.740234 0.810286,-0.690875 1.798457,-1.422034 2.75,-2.080078 1.224079,-0.846518 1.675247,-1.095337 2.345703,-1.505859 0.466914,2.055845 4.444383,10.21329 3.999899,55.847906 0.242766,1.181776 2.408054,1.293596 2.65082,0.11182 C 37.046642,22.424226 41.0004,16.116591 41.447266,14.148438 Z"
       id="path11"
       sodipodi:nodetypes="cccsscscccccccssscccccccscscccccccccscscccccssscccccscsscccc" />
    <path
       style="baseline-shift:baseline;display:inline;overflow:visible;opacity:1;vector-effect:none;fill:#b65acc;fill-opacity:1;stroke-linecap:round;stroke-linejoin:round;enable-background:accumulate;stop-color:#000000;stop-opacity:1"
       d="m 28.625,13.394531 c -0.59822,-0.135905 -1.193191,0.239451 -1.328125,0.837891 l -1.748047,7.753906 c -0.15647,0.694426 0.372149,1.354486 1.083984,1.353516 h 1.150391 l -0.789062,1.232422 c -0.274959,0.429484 -0.22178,0.991087 0.128906,1.361328 l 6.388125,8.285156 c 0.420698,0.445468 1.122854,0.465579 1.568359,0.04492 0.445469,-0.420698 0.46558,-1.122855 0.04492,-1.56836 l -5.794375,-7.65625 1.414063,-2.210937 c 0.472026,-0.738793 -0.05884,-1.707421 -0.935547,-1.707031 h -1.789063 l 1.44336,-6.400391 C 29.597565,14.12314 29.222496,13.529498 28.625,13.394531 Z"
       id="path12"
       sodipodi:nodetypes="cccccccccccccccc" />
    <circle
       style="fill:#b65acc;fill-opacity:1;stroke-width:0.59553;stroke-linecap:round"
       id="path14"
       cx="15.857637"
       cy="53.429737"
       r="2.4863892" />
    <circle
       style="fill:#b65acc;fill-opacity:1;stroke-width:0.59553;stroke-linecap:round"
       id="path14-3"
       cx="56.100136"
       cy="53.999428"
       r="2.4863892" />
    <circle
       style="fill:#b65acc;fill-opacity:1;stroke-width:2.28948;stroke-linecap:round"
       id="path14-0"
       cx="35.874138"
       cy="5.8756914"
       r="9.5587854" />
  </g>
</svg>
