<?xml version="1.0" encoding="UTF-8" standalone="no"?>
<!-- Created with Inkscape (http://www.inkscape.org/) -->

<svg
   width="64.907921mm"
   height="55.576256mm"
   viewBox="0 0 64.907921 55.576256"
   version="1.1"
   id="svg1"
   inkscape:version="1.4.2 (ebf0e940, 2025-05-08)"
   sodipodi:docname="laptop.svg"
   xmlns:inkscape="http://www.inkscape.org/namespaces/inkscape"
   xmlns:sodipodi="http://sodipodi.sourceforge.net/DTD/sodipodi-0.dtd"
   xmlns="http://www.w3.org/2000/svg"
   xmlns:svg="http://www.w3.org/2000/svg">
  <sodipodi:namedview
     id="namedview1"
     pagecolor="#ffffff"
     bordercolor="#000000"
     borderopacity="0.25"
     inkscape:showpageshadow="2"
     inkscape:pageopacity="0.0"
     inkscape:pagecheckerboard="0"
     inkscape:deskcolor="#d1d1d1"
     inkscape:document-units="mm"
     inkscape:zoom="0.39235537"
     inkscape:cx="164.39179"
     inkscape:cy="48.425487"
     inkscape:window-width="896"
     inkscape:window-height="245"
     inkscape:window-x="0"
     inkscape:window-y="39"
     inkscape:window-maximized="0"
     inkscape:current-layer="layer1" />
  <defs
     id="defs1">
    <clipPath
       clipPathUnits="userSpaceOnUse"
       id="clipPath4898">
      <path
         d="M 0,3824 H 3162.283 V 0 H 0 Z"
         transform="translate(-3279.3091,-1516.6358)"
         id="path4898" />
    </clipPath>
    <clipPath
       clipPathUnits="userSpaceOnUse"
       id="clipPath250">
      <path
         d="M 0,276 H 276 V 0 H 0 Z"
         transform="translate(-123.5608,-89.328602)"
         id="path250" />
    </clipPath>
  </defs>
  <g
     inkscape:label="Layer 1"
     inkscape:groupmode="layer"
     id="layer1"
     transform="translate(-138.90626,-155.04583)">
    <path
       id="path249"
       d="m 0,0 c -7.843,-1.312 -7.474,-10.812 -0.653,-12.044 4.813,-0.87 23.997,-0.778 29.059,-0.097 7.858,1.057 9.139,10.781 -0.113,12.127 C 23.008,0.755 5.148,0.862 0,0 M 76.269,111.992 H -47.311 V 29.415 h 123.58 z m -131.555,15.449 137.958,-0.149 c 4.068,0 7.406,-2.54 7.406,-6.23 l 0.555,-96.468 15.404,-43.779 c 1.603,-4.358 -1.898,-10.719 -5.877,-10.719 l -171.557,-0.194 c -4.979,0 -7.224,6.416 -5.676,11.569 3.856,12.843 13.135,38.169 14.795,43.724 l 0.064,94.867 c 0,4.302 3.438,7.379 6.928,7.379"
       style="fill:#b65acc;fill-opacity:1;fill-rule:nonzero;stroke:none"
       transform="matrix(0.35277776,0,0,-0.35277776,166.26637,200.00418)"
       clip-path="url(#clipPath250)" />
    <path
       id="path4897"
       d="m 0,0 c 1.878,-10.701 20.017,-5.592 27.432,-5.453 27.938,0.52 55.938,-0.49 83.88,-0.023 0.636,-43.056 -29.513,-85.186 -69.834,-99.939 -90.592,-33.146 -174.865,55.79 -140.865,144.861 13.295,34.831 50.397,64.469 87.914,67.934 C -8.682,107.638 0,108.597 0,104.898 Z"
       style="fill:#b65acc;fill-opacity:1;fill-rule:nonzero;stroke:none"
       transform="matrix(0.35277776,0,0,-0.35277776,4872.5858,948.13749)"
       clip-path="url(#clipPath4898)" />
  </g>
</svg>
