<?xml version="1.0" encoding="UTF-8" standalone="no"?>
<!-- Created with Inkscape (http://www.inkscape.org/) -->

<svg
   width="40.869339mm"
   height="23.776831mm"
   viewBox="0 0 40.869339 23.776831"
   version="1.1"
   id="svg1"
   inkscape:version="1.4.2 (ebf0e940, 2025-05-08)"
   sodipodi:docname="logistics.svg"
   xmlns:inkscape="http://www.inkscape.org/namespaces/inkscape"
   xmlns:sodipodi="http://sodipodi.sourceforge.net/DTD/sodipodi-0.dtd"
   xmlns="http://www.w3.org/2000/svg"
   xmlns:svg="http://www.w3.org/2000/svg">
  <sodipodi:namedview
     id="namedview1"
     pagecolor="#ffffff"
     bordercolor="#000000"
     borderopacity="0.25"
     inkscape:showpageshadow="2"
     inkscape:pageopacity="0.0"
     inkscape:pagecheckerboard="0"
     inkscape:deskcolor="#d1d1d1"
     inkscape:document-units="mm"
     inkscape:zoom="0.01"
     inkscape:cx="50"
     inkscape:cy="50"
     inkscape:window-width="896"
     inkscape:window-height="204"
     inkscape:window-x="0"
     inkscape:window-y="39"
     inkscape:window-maximized="0"
     inkscape:current-layer="layer1" />
  <defs
     id="defs1" />
  <g
     inkscape:label="Layer 1"
     inkscape:groupmode="layer"
     id="layer1"
     transform="translate(-72.23125,-133.61455)">
    <path
       id="path1"
       style="fill:#b65acc;fill-opacity:1;stroke-width:0.0848237"
       d="m 73.484921,133.61458 c -0.692268,-1.6e-4 -1.253594,0.56089 -1.253671,1.25316 v 13.1594 c -8e-6,0.84622 0.685989,1.53222 1.532207,1.53221 h 30.850833 c 1.2564,1.23936 2.42583,2.58549 2.93935,4.30826 0.008,0.0272 0.0211,0.0501 0.031,0.0749 0.006,0.42828 0.008,0.8571 0.0134,1.28571 h -1.32291 c -0.55136,0 -0.99839,0.44644 -0.99839,0.99839 0,0.55195 0.44703,0.99942 0.99839,0.99942 h 3.49642 c 0.55136,0 0.99839,-0.44747 0.99839,-0.99942 0,-0.55195 -0.44703,-0.99839 -0.99839,-0.99839 h -0.50746 c -0.0115,-1.88995 -0.0423,-3.77893 -0.0599,-5.66787 h 2.81378 c 0.59808,-7e-5 1.08283,-0.48505 1.08262,-1.08314 v -13.3351 c -9e-5,-0.8436 -0.68396,-1.52744 -1.52756,-1.52756 z m 3.133658,1.26556 c 0.363387,-0.002 0.665272,1.04553 0.674378,2.33888 l 0.0217,3.10317 0.02739,3.90777 0.0083,1.19062 c 0.0091,1.29335 -0.277402,2.34381 -0.640787,2.34559 -0.363386,0.002 -0.665272,-1.04604 -0.674378,-2.33939 l -0.05736,-8.20105 c -0.0091,-1.29335 0.277403,-2.34381 0.640788,-2.34559 z m 6.350517,0.11937 c 0.363386,-0.002 0.664755,1.04605 0.673861,2.3394 l 0.02222,3.10265 0.02739,3.90777 0.0083,1.19062 c 0.0091,1.29335 -0.277402,2.34382 -0.640787,2.3456 -0.363386,0.002 -0.665272,-1.04553 -0.674377,-2.33888 l -0.05788,-8.20156 c -0.0091,-1.29335 0.27792,-2.34382 0.641304,-2.3456 z m 6.644038,0.006 c 0.363387,-0.002 0.664755,1.04605 0.673861,2.3394 l 0.02222,3.10265 0.02739,3.90829 0.0083,1.1901 c 0.0091,1.29335 -0.277402,2.34433 -0.640788,2.34611 -0.363385,0.002 -0.665271,-1.04604 -0.674377,-2.33939 l -0.05788,-8.20105 c -0.0091,-1.29335 0.277919,-2.34433 0.641304,-2.34611 z m 6.368604,0.0331 c 0.363386,-0.002 0.664755,1.04604 0.67386,2.33939 l 0.0217,3.10265 0.02791,3.90777 0.0083,1.19063 c 0.0091,1.29335 -0.277402,2.34381 -0.640788,2.34559 -0.363385,0.002 -0.665272,-1.04553 -0.674378,-2.33887 l -0.05788,-8.20157 c -0.0091,-1.29335 0.27792,-2.34381 0.641305,-2.34559 z m 6.350512,0.11937 c 0.36339,-0.002 0.66476,1.04604 0.67386,2.33939 l 0.0217,3.10265 0.0274,3.90829 0.009,1.19011 c 0.009,1.29335 -0.27792,2.34433 -0.6413,2.34611 -0.36339,0.002 -0.66476,-1.04604 -0.67386,-2.33939 l -0.0579,-8.20105 c -0.009,-1.29335 0.27792,-2.34433 0.6413,-2.34611 z m 6.11488,0.006 c 0.36338,-0.002 0.66475,1.04604 0.67386,2.33939 l 0.0217,3.10317 0.0274,3.90777 0.009,1.19063 c 0.009,1.29335 -0.27791,2.34381 -0.6413,2.34559 -0.36338,0.002 -0.66475,-1.04604 -0.67386,-2.33939 l -0.0579,-8.20105 c -0.009,-1.29335 0.27792,-2.34433 0.64131,-2.34611 z m -1.54978,14.39499 h 0.64234 c 0.003,0.26787 0.005,0.53534 0.008,0.80253 -0.20799,-0.27305 -0.42369,-0.54255 -0.65009,-0.80253 z"
       sodipodi:nodetypes="ccccccccsssssscccccccsccccsccssccccsccssccccsccssccccsccssccccsccssccccsccscccc" />
    <path
       d="m 78.617997,150.42371 c 1.92414,0 3.484217,1.55991 3.484217,3.48346 0,1.92498 -1.560077,3.48421 -3.484217,3.48421 -1.923801,0 -3.483878,-1.55923 -3.483878,-3.48421 -8.5e-5,-1.92355 1.559992,-3.48346 3.483878,-3.48346 z"
       id="path2"
       style="fill:#b65acc;fill-opacity:1;stroke-width:0.0848237" />
    <path
       d="m 86.09461,150.42371 c 1.924309,0 3.484047,1.55991 3.484047,3.48346 0,1.92498 -1.559738,3.48421 -3.484047,3.48421 -1.923801,0 -3.483878,-1.55923 -3.483878,-3.48421 0,-1.92355 1.559992,-3.48346 3.483878,-3.48346 z"
       id="path3"
       style="fill:#b65acc;fill-opacity:1;stroke-width:0.0848237" />
  </g>
</svg>
