<?xml version="1.0" encoding="UTF-8" standalone="no"?>
<!-- Created with Inkscape (http://www.inkscape.org/) -->

<svg
   width="64.609482mm"
   height="64.907585mm"
   viewBox="0 0 64.609482 64.907585"
   version="1.1"
   id="svg1"
   inkscape:version="1.4.2 (ebf0e940, 2025-05-08)"
   sodipodi:docname="lunchbox.svg"
   xmlns:inkscape="http://www.inkscape.org/namespaces/inkscape"
   xmlns:sodipodi="http://sodipodi.sourceforge.net/DTD/sodipodi-0.dtd"
   xmlns="http://www.w3.org/2000/svg"
   xmlns:svg="http://www.w3.org/2000/svg">
  <sodipodi:namedview
     id="namedview1"
     pagecolor="#ffffff"
     bordercolor="#000000"
     borderopacity="0.25"
     inkscape:showpageshadow="2"
     inkscape:pageopacity="0.0"
     inkscape:pagecheckerboard="0"
     inkscape:deskcolor="#d1d1d1"
     inkscape:document-units="mm"
     inkscape:zoom="0.023162177"
     inkscape:cx="107.93459"
     inkscape:cy="129.5215"
     inkscape:window-width="896"
     inkscape:window-height="245"
     inkscape:window-x="0"
     inkscape:window-y="39"
     inkscape:window-maximized="0"
     inkscape:current-layer="layer1" />
  <defs
     id="defs1">
    <clipPath
       clipPathUnits="userSpaceOnUse"
       id="clipPath4898">
      <path
         d="M 0,3824 H 3162.283 V 0 H 0 Z"
         transform="translate(-3279.3091,-1516.6358)"
         id="path4898" />
    </clipPath>
    <clipPath
       clipPathUnits="userSpaceOnUse"
       id="clipPath3753">
      <path
         d="M 0,276 H 276 V 0 H 0 Z"
         transform="translate(-229.57276,-98.2621)"
         id="path3753" />
    </clipPath>
    <clipPath
       clipPathUnits="userSpaceOnUse"
       id="clipPath3751">
      <path
         d="M 0,276 H 276 V 0 H 0 Z"
         transform="translate(-160.185,-191.9812)"
         id="path3751" />
    </clipPath>
    <clipPath
       clipPathUnits="userSpaceOnUse"
       id="clipPath3749">
      <path
         d="M 0,276 H 276 V 0 H 0 Z"
         transform="translate(-229.57276,-91.108)"
         id="path3749" />
    </clipPath>
  </defs>
  <g
     inkscape:label="Layer 1"
     inkscape:groupmode="layer"
     id="layer1"
     transform="translate(-76.199877,-116.15209)">
    <path
       id="path3748"
       d="m 0,0 v -26.113 c 0,-12.996 -9.677,-18.99 -23.218,-18.99 -45.56,0 -93.48,0.109 -139.461,0.109 -10.837,0 -20.466,10.221 -20.466,18.881 V 0 Z"
       style="fill:#b65acc;fill-opacity:1;fill-rule:nonzero;stroke:none"
       transform="matrix(0.35277776,0,0,-0.35277776,140.80936,165.14834)"
       clip-path="url(#clipPath3749)" />
    <path
       id="path3750"
       d="m 0,0 c 17.866,7.445 38.421,2.307 44.305,-17.571 3.852,-13.012 -0.274,-24.273 -5.794,-35.968 l -87.173,0.234 c -18.203,29.997 -1.249,66.874 36.488,54.023 0.186,3.55 -1.071,6.745 -2.739,9.773 -3.036,5.516 -11.373,9.004 -6.218,15.282 3.565,4.341 6.946,3.25 10.677,-0.092 l 6.862,-9.222 C -0.778,30.266 16.349,39.111 29.671,37.904 36.478,37.287 36.719,36.24 35.26,29.478 32.848,18.294 21.215,9.028 10.181,7.339 8.178,7.033 3.068,7.555 2.09,6.845 1.489,6.409 0.734,1.303 0,0"
       style="fill:#b65acc;fill-opacity:1;fill-rule:nonzero;stroke:none"
       transform="matrix(0.35277776,0,0,-0.35277776,116.3309,129.56252)"
       clip-path="url(#clipPath3751)" />
    <path
       id="path3752"
       d="m 0,0 h -70.826 c 0,3.619 0.952,9.862 -5.614,9.862 -10.281,0 -20.099,0.187 -29.832,0.187 -7.374,0 -6.048,-7.55 -6.048,-10.049 h -70.825 v 13.951 c 0,7.974 6.619,19.596 20.466,19.596 l 140.892,0.11 C -10.248,33.657 0,23.204 0,13.951 Z"
       style="fill:#b65acc;fill-opacity:1;fill-rule:nonzero;stroke:none"
       transform="matrix(0.35277776,0,0,-0.35277776,140.80936,162.62453)"
       clip-path="url(#clipPath3753)" />
    <path
       id="path4897"
       d="m 0,0 c 1.878,-10.701 20.017,-5.592 27.432,-5.453 27.938,0.52 55.938,-0.49 83.88,-0.023 0.636,-43.056 -29.513,-85.186 -69.834,-99.939 -90.592,-33.146 -174.865,55.79 -140.865,144.861 13.295,34.831 50.397,64.469 87.914,67.934 C -8.682,107.638 0,108.597 0,104.898 Z"
       style="fill:#b65acc;fill-opacity:1;fill-rule:nonzero;stroke:none"
       transform="matrix(0.35277776,0,0,-0.35277776,2037.9552,913.90938)"
       clip-path="url(#clipPath4898)" />
  </g>
</svg>
