<?xml version="1.0" encoding="UTF-8" standalone="no"?>
<!-- Created with Inkscape (http://www.inkscape.org/) -->

<svg
   width="48.556561mm"
   height="37.444141mm"
   viewBox="0 0 48.55656 37.444141"
   version="1.1"
   id="svg1"
   inkscape:version="1.4.2 (ebf0e940, 2025-05-08)"
   sodipodi:docname="newton cradle.svg"
   xmlns:inkscape="http://www.inkscape.org/namespaces/inkscape"
   xmlns:sodipodi="http://sodipodi.sourceforge.net/DTD/sodipodi-0.dtd"
   xmlns="http://www.w3.org/2000/svg"
   xmlns:svg="http://www.w3.org/2000/svg">
  <sodipodi:namedview
     id="namedview1"
     pagecolor="#ffffff"
     bordercolor="#000000"
     borderopacity="0.25"
     inkscape:showpageshadow="2"
     inkscape:pageopacity="0.0"
     inkscape:pagecheckerboard="0"
     inkscape:deskcolor="#d1d1d1"
     inkscape:document-units="mm"
     inkscape:zoom="2.3219323"
     inkscape:cx="-9.2595294"
     inkscape:cy="97.763403"
     inkscape:window-width="1712"
     inkscape:window-height="971"
     inkscape:window-x="0"
     inkscape:window-y="39"
     inkscape:window-maximized="1"
     inkscape:current-layer="layer1" />
  <defs
     id="defs1">
    <clipPath
       clipPathUnits="userSpaceOnUse"
       id="clipPath4898">
      <path
         d="M 0,3824 H 3162.283 V 0 H 0 Z"
         transform="translate(-3279.3091,-1516.6358)"
         id="path4898" />
    </clipPath>
  </defs>
  <g
     inkscape:label="Layer 1"
     inkscape:groupmode="layer"
     id="layer1"
     transform="translate(-123.03119,-120.65)">
    <path
       d="m 163.82008,120.65 h -33.02122 c -4.28318,0 -7.76767,3.48449 -7.76767,7.76767 v 27.88391 c 0,0.98839 0.80409,1.79249 1.79256,1.79249 0.98846,0 1.79256,-0.8041 1.79256,-1.79257 v -27.88383 c 0,-2.30632 1.8763,-4.18255 4.18255,-4.18255 h 5.43976 27.58146 c 2.30632,0 4.18255,1.8763 4.18255,4.18255 v 27.88391 c 0,0.98846 0.8041,1.79256 1.79256,1.79256 0.98847,-7e-5 1.79256,-0.80417 1.79256,-1.79264 v -27.88383 c 0,-4.28318 -3.48449,-7.76767 -7.76767,-7.76767 z"
       id="path1"
       style="fill:#b65acc;fill-opacity:1;stroke-width:0.0731329"
       sodipodi:nodetypes="sssssssscssscsss" />
    <path
       d="m 161.32461,143.26168 -4.03906,-17.00261 c -0.0763,-0.32104 -0.39838,-0.51949 -0.71942,-0.44322 -0.32104,0.0763 -0.51949,0.39837 -0.44322,0.71941 l 4.03906,17.00261 c -0.99457,0.41284 -1.73972,1.22916 -2.08613,2.2055 -0.3209,1.72061 -0.12485,2.62343 0.93523,3.9353 0.88561,0.84731 2.1691,1.24441 3.44772,0.94067 2.00345,-0.47593 3.24616,-2.49302 2.77022,-4.49647 -0.42935,-1.80548 -2.11006,-2.99249 -3.9044,-2.86119 z"
       style="fill:#b65acc;fill-opacity:1;stroke-width:0.0731329"
       id="path1-7"
       sodipodi:nodetypes="cssscccscc" />
    <path
       id="path4897"
       d="m 0,0 c 1.878,-10.701 20.017,-5.592 27.432,-5.453 27.938,0.52 55.938,-0.49 83.88,-0.023 0.636,-43.056 -29.513,-85.186 -69.834,-99.939 -90.592,-33.146 -174.865,55.79 -140.865,144.861 13.295,34.831 50.397,64.469 87.914,67.934 C -8.682,107.638 0,108.597 0,104.898 Z"
       style="fill:#b65acc;fill-opacity:1;fill-rule:nonzero;stroke:none"
       transform="matrix(0.35277776,0,0,-0.35277776,1455.6869,896.0392)"
       clip-path="url(#clipPath4898)" />
    <g
       style="fill:#b65acc;fill-opacity:1"
       id="g5"
       transform="matrix(0.07313294,0,0,0.07313294,126.86949,120.88324)">
      <g
         id="g2"
         style="fill:#b65acc;fill-opacity:1"
         transform="translate(27.108434,-3.1892275)">
	<g
   id="g1"
   style="fill:#b65acc;fill-opacity:1">
		
	</g>

</g>
      <g
         id="g4"
         style="fill:#b65acc;fill-opacity:1"
         transform="translate(21.707045)">
	<g
   id="g3"
   style="fill:#b65acc;fill-opacity:1">
		<path
   d="M 341.788,335.239 C 334.094,323.345 321.601,314.84 307.065,312.491 V 73.532 c 0,-4.512 -3.658,-8.17 -8.17,-8.17 -4.512,0 -8.17,3.658 -8.17,8.17 v 238.959 c -14.536,2.349 -27.029,10.854 -34.723,22.748 -7.694,-11.894 -20.187,-20.399 -34.723,-22.748 V 73.532 c 0,-4.512 -3.658,-8.17 -8.17,-8.17 -4.512,0 -8.17,3.658 -8.17,8.17 v 238.959 c -14.536,2.349 -27.029,10.854 -34.723,22.748 -7.694,-11.894 -20.187,-20.399 -34.723,-22.748 V 73.532 c 0,-4.512 -3.658,-8.17 -8.17,-8.17 -4.512,0 -8.17,3.658 -8.17,8.17 v 238.959 c -24.286,3.924 -42.894,25.027 -42.894,50.403 0,28.157 22.907,51.064 51.064,51.064 17.97,0 33.79,-9.339 42.894,-23.41 9.104,14.071 24.924,23.41 42.894,23.41 17.97,0 33.79,-9.339 42.894,-23.41 9.104,14.071 24.924,23.41 42.894,23.41 17.97,0 33.79,-9.339 42.894,-23.41 9.80411,-11.83306 6.98889,-45.03285 -0.005,-55.309 z"
   id="path2"
   style="fill:#b65acc;fill-opacity:1"
   sodipodi:nodetypes="ccssscccssscccssscsscscscc" />

	</g>

</g>
    </g>
  </g>
</svg>
