<?xml version="1.0" encoding="UTF-8" standalone="no"?>
<!-- Created with Inkscape (http://www.inkscape.org/) -->

<svg
   width="59.939953mm"
   height="73.37384mm"
   viewBox="0 0 59.939953 73.37384"
   version="1.1"
   id="svg1"
   inkscape:version="1.4.2 (ebf0e940, 2025-05-08)"
   sodipodi:docname="photocopier.svg"
   xmlns:inkscape="http://www.inkscape.org/namespaces/inkscape"
   xmlns:sodipodi="http://sodipodi.sourceforge.net/DTD/sodipodi-0.dtd"
   xmlns="http://www.w3.org/2000/svg"
   xmlns:svg="http://www.w3.org/2000/svg">
  <sodipodi:namedview
     id="namedview1"
     pagecolor="#ffffff"
     bordercolor="#000000"
     borderopacity="0.25"
     inkscape:showpageshadow="2"
     inkscape:pageopacity="0.0"
     inkscape:pagecheckerboard="0"
     inkscape:deskcolor="#d1d1d1"
     inkscape:document-units="mm"
     inkscape:zoom="1.5101409"
     inkscape:cx="194.35272"
     inkscape:cy="174.81812"
     inkscape:window-width="1712"
     inkscape:window-height="971"
     inkscape:window-x="0"
     inkscape:window-y="39"
     inkscape:window-maximized="1"
     inkscape:current-layer="layer1" />
  <defs
     id="defs1">
    <clipPath
       clipPathUnits="userSpaceOnUse"
       id="clipPath4898">
      <path
         d="M 0,3824 H 3162.283 V 0 H 0 Z"
         transform="translate(-3279.3091,-1516.6358)"
         id="path4898" />
    </clipPath>
    <clipPath
       clipPathUnits="userSpaceOnUse"
       id="clipPath1915">
      <path
         d="M 0,276 H 276 V 0 H 0 Z"
         transform="translate(-217.75913,-208.1665)"
         id="path1915" />
    </clipPath>
    <clipPath
       clipPathUnits="userSpaceOnUse"
       id="clipPath1913">
      <path
         d="M 0,276 H 276 V 0 H 0 Z"
         transform="translate(-111.5829,-177.0402)"
         id="path1913" />
    </clipPath>
    <clipPath
       clipPathUnits="userSpaceOnUse"
       id="clipPath1911">
      <path
         d="M 0,276 H 276 V 0 H 0 Z"
         transform="translate(-188.82338,-34.005601)"
         id="path1911" />
    </clipPath>
    <clipPath
       clipPathUnits="userSpaceOnUse"
       id="clipPath1909">
      <path
         d="M 0,276 H 276 V 0 H 0 Z"
         transform="translate(-208.43761,-158.0959)"
         id="path1909" />
    </clipPath>
    <clipPath
       clipPathUnits="userSpaceOnUse"
       id="clipPath1907">
      <path
         d="M 0,276 H 276 V 0 H 0 Z"
         transform="translate(-124.21073,-215.67061)"
         id="path1907" />
    </clipPath>
    <clipPath
       clipPathUnits="userSpaceOnUse"
       id="clipPath1905">
      <path
         d="M 0,276 H 276 V 0 H 0 Z"
         transform="translate(-208.43761,-111.44691)"
         id="path1905" />
    </clipPath>
  </defs>
  <g
     inkscape:label="Layer 1"
     inkscape:groupmode="layer"
     id="layer1"
     transform="translate(-62.706158,-108.74375)">
    <path
       id="path1904"
       d="m 0,0 v -40.07 c 0,-0.073 -45.927,0 -45.927,0 -1.606,1.953 -1.42,4.734 -2.489,7.181 -2.191,5.013 -6.609,7.648 -11.985,8.048 -7.048,0.524 -31.072,1.052 -37.026,-0.327 -3.542,-0.821 -7.581,-5.126 -8.785,-8.484 -0.843,-2.351 -0.386,-4.782 -1.872,-6.418 h -47.308 V 0 Z"
       style="fill:#b65acc;fill-opacity:1;fill-rule:nonzero;stroke:none"
       transform="matrix(0.35277776,0,0,-0.35277776,117.525,154.79802)"
       clip-path="url(#clipPath1905)" />
    <path
       id="path1906"
       d="M 0,0 55.933,23.907 C 60.98,26.531 69.322,28.513 72.166,21.54 74.2,16.551 71.383,13.129 66.948,10.815 63.752,9.148 36.588,-2.669 34.847,-2.669 H 0.547 C -0.966,-2.669 -1.391,-0.595 0,0"
       style="fill:#b65acc;fill-opacity:1;fill-rule:nonzero;stroke:none"
       transform="matrix(0.35277776,0,0,-0.35277776,87.811632,118.03021)"
       clip-path="url(#clipPath1907)" />
    <path
       id="path1908"
       d="m 0,0 v -40.07 c 0,-0.073 -45.927,0 -45.927,0 -1.606,1.953 -1.42,4.734 -2.489,7.181 -2.191,5.013 -6.609,7.648 -11.985,8.048 -7.048,0.524 -31.072,1.052 -37.026,-0.327 -3.542,-0.821 -7.581,-5.126 -8.785,-8.484 -0.843,-2.351 -0.386,-4.782 -1.872,-6.418 h -47.308 V 0 Z"
       style="fill:#b65acc;fill-opacity:1;fill-rule:nonzero;stroke:none"
       transform="matrix(0.35277776,0,0,-0.35277776,117.525,138.34129)"
       clip-path="url(#clipPath1909)" />
    <path
       id="path1910"
       d="m 0,0 h -116.163 c -10.833,0 -19.614,8.782 -19.614,19.614 v 11.54 H 19.614 V 19.614 C 19.614,8.782 10.833,0 0,0"
       style="fill:#b65acc;fill-opacity:1;fill-rule:nonzero;stroke:none"
       transform="matrix(0.35277776,0,0,-0.35277776,110.60554,182.11759)"
       clip-path="url(#clipPath1911)" />
    <path
       id="path1912"
       d="m 0,0 c -3.467,0 -6.385,2.325 -7.297,5.498 -0.051,0.162 -0.087,0.323 -0.124,0.484 -0.007,0.031 -0.017,0.06 -0.023,0.091 -0.105,0.483 -0.154,0.962 -0.149,1.433 0,0.031 -0.004,0.061 -0.004,0.092 0,4.196 3.401,7.597 7.597,7.597 4.196,0 7.597,-3.401 7.597,-7.597 C 7.597,3.402 4.196,0 0,0 M -15.137,7.532 C -15.138,7.33 -15.152,7.129 -15.168,6.928 -15.171,6.888 -15.171,6.847 -15.175,6.807 -15.351,4.95 -16.163,3.168 -17.631,1.978 -18.98,0.753 -20.766,0 -22.731,0 c -4.196,0 -7.598,3.402 -7.598,7.598 0,4.196 3.402,7.597 7.598,7.597 1.985,0 3.787,-0.768 5.14,-2.015 1.368,-1.147 2.167,-2.827 2.386,-4.598 0.012,-0.091 0.027,-0.181 0.035,-0.273 0.012,-0.135 0.015,-0.271 0.021,-0.406 0.004,-0.102 0.015,-0.202 0.015,-0.305 0,-0.023 -0.003,-0.044 -0.003,-0.066 M 49.905,1.48 c -0.002,0.096 -0.013,0.187 -0.013,0.285 v 29.361 h -55.25 c -1.543,5.496 -6.799,11.012 -11.954,13.259 -5.873,2.561 -27.852,2.83 -34.601,1.877 -2.561,-0.362 -6.624,-1.591 -6.624,-5.809 V -12.398 H 49.905 Z"
       style="fill:#b65acc;fill-opacity:1;fill-rule:nonzero;stroke:none"
       transform="matrix(0.35277776,0,0,-0.35277776,83.356816,131.65816)"
       clip-path="url(#clipPath1913)" />
    <path
       id="path1914"
       d="m 0,0 c 4.006,0 5.195,-3.107 5.195,-5.857 0,-3.878 -0.056,-28.181 -0.056,-31.693 0,-3.287 -4.24,-4.975 -7.177,-5.252 -9.227,-0.871 -31.783,-1.056 -40.797,0.017 -1.957,0.233 -6.545,1.046 -6.545,4.507 V 0 Z"
       style="fill:#b65acc;fill-opacity:1;fill-rule:nonzero;stroke:none"
       transform="matrix(0.35277776,0,0,-0.35277776,120.81343,120.67749)"
       clip-path="url(#clipPath1915)" />
    <path
       id="path4897"
       d="m 0,0 c 1.878,-10.701 20.017,-5.592 27.432,-5.453 27.938,0.52 55.938,-0.49 83.88,-0.023 0.636,-43.056 -29.513,-85.186 -69.834,-99.939 -90.592,-33.146 -174.865,55.79 -140.865,144.861 13.295,34.831 50.397,64.469 87.914,67.934 C -8.682,107.638 0,108.597 0,104.898 Z"
       style="fill:#b65acc;fill-opacity:1;fill-rule:nonzero;stroke:none"
       transform="matrix(0.35277776,0,0,-0.35277776,3459.3435,910.73417)"
       clip-path="url(#clipPath4898)" />
  </g>
</svg>
