<?xml version="1.0" encoding="UTF-8" standalone="no"?>
<!-- Created with Inkscape (http://www.inkscape.org/) -->

<svg
   width="73.162254mm"
   height="59.266415mm"
   viewBox="0 0 73.162254 59.266415"
   version="1.1"
   id="svg1"
   inkscape:version="1.4.2 (ebf0e940, 2025-05-08)"
   sodipodi:docname="projector.svg"
   xmlns:inkscape="http://www.inkscape.org/namespaces/inkscape"
   xmlns:sodipodi="http://sodipodi.sourceforge.net/DTD/sodipodi-0.dtd"
   xmlns="http://www.w3.org/2000/svg"
   xmlns:svg="http://www.w3.org/2000/svg">
  <sodipodi:namedview
     id="namedview1"
     pagecolor="#ffffff"
     bordercolor="#000000"
     borderopacity="0.25"
     inkscape:showpageshadow="2"
     inkscape:pageopacity="0.0"
     inkscape:pagecheckerboard="0"
     inkscape:deskcolor="#d1d1d1"
     inkscape:document-units="mm"
     inkscape:zoom="0.16004016"
     inkscape:cx="196.8256"
     inkscape:cy="74.981179"
     inkscape:window-width="896"
     inkscape:window-height="245"
     inkscape:window-x="0"
     inkscape:window-y="39"
     inkscape:window-maximized="0"
     inkscape:current-layer="layer1" />
  <defs
     id="defs1">
    <clipPath
       clipPathUnits="userSpaceOnUse"
       id="clipPath4898">
      <path
         d="M 0,3824 H 3162.283 V 0 H 0 Z"
         transform="translate(-3279.3091,-1516.6358)"
         id="path4898" />
    </clipPath>
    <clipPath
       clipPathUnits="userSpaceOnUse"
       id="clipPath3366">
      <path
         d="M 0,276 H 276 V 0 H 0 Z"
         transform="translate(-129.64193,-176.6934)"
         id="path3366" />
    </clipPath>
    <clipPath
       clipPathUnits="userSpaceOnUse"
       id="clipPath3364">
      <path
         d="M 0,276 H 276 V 0 H 0 Z"
         transform="translate(-219.41551,-176.6934)"
         id="path3364" />
    </clipPath>
    <clipPath
       clipPathUnits="userSpaceOnUse"
       id="clipPath3362">
      <path
         d="M 0,276 H 276 V 0 H 0 Z"
         transform="translate(-174.52898,-195.3354)"
         id="path3362" />
    </clipPath>
    <clipPath
       clipPathUnits="userSpaceOnUse"
       id="clipPath3360">
      <path
         d="M 0,276 H 276 V 0 H 0 Z"
         transform="translate(-99.248177,-119.99811)"
         id="path3360" />
    </clipPath>
    <clipPath
       clipPathUnits="userSpaceOnUse"
       id="clipPath3358">
      <path
         d="M 0,276 H 276 V 0 H 0 Z"
         transform="translate(-173.4477,-156.3567)"
         id="path3358" />
    </clipPath>
  </defs>
  <g
     inkscape:label="Layer 1"
     inkscape:groupmode="layer"
     id="layer1"
     transform="translate(-71.966705,-118.79792)">
    <path
       id="path3357"
       d="M 0,0 C -24.357,-0.97 -25.335,-38.106 -0.783,-39.876 27.626,-41.924 27.775,1.106 0,0 m -4.807,16.103 c 33.521,4.02 55.841,-33.618 34.178,-59.857 -18.25,-22.107 -54.819,-14.849 -63.498,12.36 -6.625,20.771 7.315,44.858 29.32,47.497"
       style="fill:#b65acc;fill-opacity:1;fill-rule:nonzero;stroke:none"
       transform="matrix(0.35277776,0,0,-0.35277776,121.05309,144.77602)"
       clip-path="url(#clipPath3358)" />
    <path
       id="path3359"
       d="m 0,0 h -38.458 c -2.999,0 -5.435,2.506 -5.525,5.483 -0.001,0.04 -0.006,-0.039 -0.006,0 0,0.017 -0.003,-0.017 -0.003,0 0,3.056 2.478,5.584 5.534,5.584 H 0 C 3.056,11.067 5.534,8.59 5.534,5.534 5.534,2.477 3.056,0 0,0 m 0,-21.868 h -38.458 c -3.056,0 -5.534,2.478 -5.534,5.534 0,3.056 2.478,5.534 5.534,5.534 H 0 c 2.572,0 4.728,-1.758 5.349,-4.136 0.137,-0.421 0.194,-0.856 0.179,-1.289 0.001,-0.037 0.006,-0.072 0.006,-0.109 0,-3.056 -2.478,-5.534 -5.534,-5.534 M 135.21,25.99 c 0,8.087 -6.855,12.3 -11.601,12.3 h -9.263 C 129.744,5.279 107.52,-30.08 70.394,-27.454 51.593,-26.124 34.998,-10.504 31.545,7.791 29.497,18.636 31.506,28.413 36.057,38.29 h -89.344 c -4.864,0 -11.656,-5.919 -11.656,-11.702 v -57.9 c 0,-6.959 4.564,-12.092 17.941,-12.239 v -7.596 c 0,-3.786 3.069,-6.855 6.855,-6.855 H -24 c 3.786,0 6.855,3.069 6.855,6.855 v 7.589 h 0.014 103.986 0.611 v -7.589 c 0,-3.786 3.07,-6.855 6.856,-6.855 h 16.147 c 3.786,0 6.855,3.069 6.855,6.855 v 7.605 c 9.532,0.22 17.94,3.18 17.94,12.23 0,17.852 -0.054,32.183 -0.054,57.302"
       style="fill:#b65acc;fill-opacity:1;fill-rule:nonzero;stroke:none"
       transform="matrix(0.35277776,0,0,-0.35277776,94.877151,157.60252)"
       clip-path="url(#clipPath3360)" />
    <path
       id="path3361"
       d="m 0,0 c -2.973,0 -5.382,2.41 -5.382,5.382 v 23.896 c 0,2.972 2.409,5.382 5.382,5.382 2.973,0 5.382,-2.41 5.382,-5.382 V 5.382 C 5.382,2.41 2.973,0 0,0"
       style="fill:#b65acc;fill-opacity:1;fill-rule:nonzero;stroke:none"
       transform="matrix(0.35277776,0,0,-0.35277776,121.43454,131.0252)"
       clip-path="url(#clipPath3362)" />
    <path
       id="path3363"
       d="m 0,0 c -1.378,0 -2.755,0.526 -3.806,1.576 -2.102,2.102 -2.102,5.51 0,7.612 l 16.897,16.896 c 2.102,2.102 5.509,2.102 7.612,0 2.101,-2.101 2.101,-5.509 0,-7.611 L 3.806,1.576 C 2.755,0.526 1.378,0 0,0"
       style="fill:#b65acc;fill-opacity:1;fill-rule:nonzero;stroke:none"
       transform="matrix(0.35277776,0,0,-0.35277776,137.26951,137.60168)"
       clip-path="url(#clipPath3364)" />
    <path
       id="path3365"
       d="m 0,0 c -1.378,0 -2.755,0.526 -3.806,1.576 l -16.897,16.897 c -2.101,2.102 -2.101,5.51 0,7.611 2.103,2.102 5.51,2.102 7.612,0 L 3.806,9.188 C 5.908,7.086 5.908,3.678 3.806,1.576 2.755,0.526 1.378,0 0,0"
       style="fill:#b65acc;fill-opacity:1;fill-rule:nonzero;stroke:none"
       transform="matrix(0.35277776,0,0,-0.35277776,105.59939,137.60168)"
       clip-path="url(#clipPath3366)" />
    <path
       id="path4897"
       d="m 0,0 c 1.878,-10.701 20.017,-5.592 27.432,-5.453 27.938,0.52 55.938,-0.49 83.88,-0.023 0.636,-43.056 -29.513,-85.186 -69.834,-99.939 -90.592,-33.146 -174.865,55.79 -140.865,144.861 13.295,34.831 50.397,64.469 87.914,67.934 C -8.682,107.638 0,108.597 0,104.898 Z"
       style="fill:#b65acc;fill-opacity:1;fill-rule:nonzero;stroke:none"
       transform="matrix(0.35277776,0,0,-0.35277776,2345.9736,916.55535)"
       clip-path="url(#clipPath4898)" />
  </g>
</svg>
