<?xml version="1.0" encoding="UTF-8" standalone="no"?>
<!-- Created with Inkscape (http://www.inkscape.org/) -->

<svg
   width="61.761234mm"
   height="54.755444mm"
   viewBox="0 0 61.761234 54.755444"
   version="1.1"
   id="svg1"
   inkscape:version="1.4.2 (ebf0e940, 2025-05-08)"
   sodipodi:docname="raise.svg"
   xmlns:inkscape="http://www.inkscape.org/namespaces/inkscape"
   xmlns:sodipodi="http://sodipodi.sourceforge.net/DTD/sodipodi-0.dtd"
   xmlns="http://www.w3.org/2000/svg"
   xmlns:svg="http://www.w3.org/2000/svg">
  <sodipodi:namedview
     id="namedview1"
     pagecolor="#ffffff"
     bordercolor="#000000"
     borderopacity="0.25"
     inkscape:showpageshadow="2"
     inkscape:pageopacity="0.0"
     inkscape:pagecheckerboard="0"
     inkscape:deskcolor="#d1d1d1"
     inkscape:document-units="mm"
     inkscape:zoom="0.01"
     inkscape:cx="150"
     inkscape:cy="150"
     inkscape:window-width="896"
     inkscape:window-height="204"
     inkscape:window-x="0"
     inkscape:window-y="39"
     inkscape:window-maximized="0"
     inkscape:current-layer="layer1" />
  <defs
     id="defs1">
    <clipPath
       clipPathUnits="userSpaceOnUse"
       id="clipPath4898">
      <path
         d="M 0,3824 H 3162.283 V 0 H 0 Z"
         transform="translate(-3279.3091,-1516.6358)"
         id="path4898" />
    </clipPath>
  </defs>
  <g
     inkscape:label="Layer 1"
     inkscape:groupmode="layer"
     id="layer1"
     transform="translate(-61.647883,-118.26875)">
    <path
       id="path4897"
       d="m 0,0 c 1.878,-10.701 20.017,-5.592 27.432,-5.453 27.938,0.52 55.938,-0.49 83.88,-0.023 0.636,-43.056 -29.513,-85.186 -69.834,-99.939 -90.592,-33.146 -174.865,55.79 -140.865,144.861 13.295,34.831 50.397,64.469 87.914,67.934 C -8.682,107.638 0,108.597 0,104.898 Z"
       style="fill:#b65acc;fill-opacity:1;fill-rule:nonzero;stroke:none"
       transform="matrix(0.35277776,0,0,-0.35277776,3354.9825,912.14829)"
       clip-path="url(#clipPath4898)" />
    <g
       style="fill:#b65acc;fill-opacity:1"
       id="g2"
       transform="matrix(0.14470621,0,0,0.14470621,61.647883,114.76576)">
      <g
         id="g5"
         style="fill:#b65acc;fill-opacity:1">
	<g
   id="g4"
   style="fill:#b65acc;fill-opacity:1">
		<g
   id="g3"
   style="fill:#b65acc;fill-opacity:1">
			<path
   id="path1"
   style="fill:#b65acc;fill-opacity:1"
   d="m 368.19872,24.207576 c -3.607,0 -6.95368,1.883009 -8.82068,4.971009 l -48.29235,79.846835 c -1.926,3.184 -1.98871,7.15812 -0.16071,10.39912 1.826,3.242 5.26239,5.24599 8.98139,5.24599 h 16.18792 v 75.50435 c 0,5.694 4.61284,10.30984 10.30984,10.30984 h 43.58918 c 5.695,0 10.31342,-4.61584 10.31342,-10.30984 v -75.50435 h 16.18792 c 3.721,0 7.15081,-2.00399 8.97781,-5.24599 1.83,-3.242 1.77088,-7.21512 -0.15712,-10.39912 L 377.01941,29.178585 c -1.867,-3.087 -5.21269,-4.971009 -8.82069,-4.971009 z m 3.79254,83.867924 c 5.611,0 10.44686,1.30264 14.50592,3.90324 4.05906,2.60061 6.08877,5.83134 6.08877,9.69204 0,1.31371 -0.47696,2.42388 -1.43202,3.33544 -0.95506,0.91155 -2.11965,1.36774 -3.49256,1.36774 -1.5221,0 -2.6405,-0.34927 -3.35686,-1.04634 -0.68652,-0.69707 -1.37415,-1.76626 -2.06054,-3.21402 -0.86555,-1.90353 -1.89514,-3.35408 -3.08903,-4.34606 -1.19375,-1.0188 -3.2236,-1.52844 -6.08877,-1.52844 -3.28303,0 -5.81931,1.03534 -7.61007,3.09974 -1.76093,2.0644 -2.89592,5.29156 -3.40329,9.68847 h 14.41665 c 0.59687,0 0.89635,0.34928 0.89635,1.04634 0,0.7507 -0.28646,1.62208 -0.8535,2.61406 -0.53733,0.96517 -1.0143,1.44988 -1.43202,1.44988 H 361.6957 l -0.0893,3.93895 c 0,1.20647 0.0301,2.07786 0.0893,2.61407 h 14.77376 c 0.59687,0 0.89635,0.3368 0.89635,1.00706 0,0.7775 -0.28646,1.66136 -0.8535,2.65334 -0.53733,0.96517 -1.0143,1.44631 -1.43202,1.44631 h -13.11675 c 1.04457,9.62494 4.4757,14.43807 10.29556,14.43807 2.17878,0 4.16587,-0.46866 5.95664,-1.40703 1.8206,-0.93836 3.56385,-3.13733 5.23527,-6.59587 1.07441,-2.25206 2.0023,-3.64558 2.77834,-4.18179 0.7759,-0.56302 1.61155,-0.84279 2.50693,-0.84279 1.79076,0 3.17904,0.46866 4.16393,1.40703 1.01486,0.91155 1.5213,2.19815 1.5213,3.86039 0,3.94113 -2.14799,7.58706 -6.44588,10.93836 -4.29776,3.32448 -9.50889,4.98529 -15.62726,4.98529 -5.73047,0 -10.72724,-1.86217 -14.99516,-5.58881 -4.26792,-3.75345 -6.82079,-9.42551 -7.6565,-17.01285 h -5.68523 c -0.53733,0 -0.80708,-0.3457 -0.80708,-1.04277 0,-0.67026 0.28276,-1.51671 0.84993,-2.5355 0.56704,-1.0188 1.04758,-1.52844 1.4356,-1.52844 h 3.84967 v -1.44631 c 0,-1.17966 0.0589,-2.88145 0.17856,-5.10671 h -5.50668 c -0.53733,0 -0.80708,-0.3368 -0.80708,-1.00706 0,-0.69707 0.28633,-1.55598 0.8535,-2.57478 0.56705,-1.01879 1.04401,-1.52844 1.43203,-1.52844 h 4.47462 c 1.93995,-13.96822 9.28249,-20.95181 22.02671,-20.95181 z" />

			<path
   d="m 178.274,28.771 c -54.54,0 -84.725,28.262 -84.174,82.721 0.8,74.585 32.494,119.833 84.174,119.042 0,0 84.13,3.412 84.13,-119.042 0,-54.46 -28.422,-82.721 -84.13,-82.721 z"
   id="path2"
   style="fill:#b65acc;fill-opacity:1" />

			<path
   d="M 327.084,287.145 243.02,253.626 223.334,237.037 c -5.199,-4.395 -12.88,-4.069 -17.701,0.726 l -27.368,27.218 -27.449,-27.226 c -4.825,-4.787 -12.494,-5.096 -17.688,-0.717 L 113.44,253.627 29.374,287.148 C 2.304,297.93 2.324,393.797 0,402.598 h 356.498 c -2.32,-8.779 -2.332,-104.681 -29.414,-115.453 z"
   id="path3"
   style="fill:#b65acc;fill-opacity:1" />

		</g>

	</g>

</g>
    </g>
  </g>
</svg>
