<?xml version="1.0" encoding="UTF-8" standalone="no"?>
<!-- Created with Inkscape (http://www.inkscape.org/) -->

<svg
   width="38.528229mm"
   height="56.958706mm"
   viewBox="0 0 38.528229 56.958706"
   version="1.1"
   id="svg1"
   inkscape:version="1.4.2 (ebf0e940, 2025-05-08)"
   sodipodi:docname="standing desk.svg"
   xmlns:inkscape="http://www.inkscape.org/namespaces/inkscape"
   xmlns:sodipodi="http://sodipodi.sourceforge.net/DTD/sodipodi-0.dtd"
   xmlns="http://www.w3.org/2000/svg"
   xmlns:svg="http://www.w3.org/2000/svg">
  <sodipodi:namedview
     id="namedview1"
     pagecolor="#ffffff"
     bordercolor="#000000"
     borderopacity="0.25"
     inkscape:showpageshadow="2"
     inkscape:pageopacity="0.0"
     inkscape:pagecheckerboard="0"
     inkscape:deskcolor="#d1d1d1"
     inkscape:document-units="mm"
     inkscape:zoom="3.0460073"
     inkscape:cx="97.012243"
     inkscape:cy="124.75348"
     inkscape:window-width="1712"
     inkscape:window-height="971"
     inkscape:window-x="0"
     inkscape:window-y="39"
     inkscape:window-maximized="1"
     inkscape:current-layer="g2" />
  <defs
     id="defs1">
    <inkscape:path-effect
       effect="fillet_chamfer"
       id="path-effect1"
       is_visible="true"
       lpeversion="1"
       nodesatellites_param="F,0,1,1,0,1.5744297,0,1 @ F,0,1,1,0,1.5744297,0,1 @ F,0,1,1,0,1.5744297,0,1 @ F,0,1,1,0,1.5744297,0,1 @ F,0,1,1,0,1.5744297,0,1 @ F,0,1,1,0,1.5744297,0,1 @ F,0,1,1,0,1.5744297,0,1 @ F,0,1,1,0,1.5744297,0,1 @ F,0,1,1,0,1.5744297,0,1 @ F,0,1,1,0,1.5744297,0,1 @ F,0,1,1,0,1.5744297,0,1 @ F,0,1,1,0,1.5744297,0,1 @ F,0,1,1,0,1.5744297,0,1 @ F,0,1,1,0,1.5744297,0,1 @ F,0,1,1,0,1.5744297,0,1 @ F,0,1,1,0,1.5744297,0,1 @ F,0,1,1,0,1.5744297,0,1 @ F,0,1,1,0,1.5744297,0,1 @ F,0,1,1,0,1.5744297,0,1 @ F,0,1,1,0,1.5744297,0,1 @ F,0,1,1,0,1.5744297,0,1 @ F,0,1,1,0,1.5744297,0,1 @ F,0,1,1,0,1.5744297,0,1 @ F,0,1,1,0,1.5744297,0,1 @ F,0,1,1,0,1.5744297,0,1 @ F,0,1,1,0,1.5744297,0,1 @ F,0,1,1,0,1.5744297,0,1 @ F,0,1,1,0,1.5744297,0,1 @ F,0,1,1,0,1.5744297,0,1 @ F,0,1,1,0,1.5744297,0,1 @ F,0,1,1,0,1.5744297,0,1 @ F,0,1,1,0,1.5744297,0,1 @ F,0,1,1,0,1.5744297,0,1 @ F,0,1,1,0,1.5744297,0,1 @ F,0,1,1,0,1.5744297,0,1 @ F,0,1,1,0,1.5744297,0,1 @ F,0,1,1,0,1.5744297,0,1 @ F,0,1,1,0,1.5744297,0,1 @ F,0,1,1,0,1.5744297,0,1 | F,0,1,1,0,1.5744297,0,1 @ F,0,1,1,0,1.5744297,0,1 @ F,0,1,1,0,1.5744297,0,1 @ F,0,1,1,0,1.5744297,0,1 @ F,0,1,1,0,1.5744297,0,1 @ F,0,1,1,0,1.5744297,0,1 @ F,0,1,1,0,1.5744297,0,1 @ F,0,0,1,0,1.5744297,0,1 @ F,0,1,1,0,1.5744297,0,1 @ F,0,1,1,0,1.5744297,0,1 @ F,0,1,1,0,1.5744297,0,1 | F,0,1,1,0,1.5744297,0,1 @ F,0,1,1,0,1.5744297,0,1 @ F,0,1,1,0,1.5744297,0,1 @ F,0,1,1,0,1.5744297,0,1"
       radius="0"
       unit="px"
       method="auto"
       mode="F"
       chamfer_steps="1"
       flexible="false"
       use_knot_distance="true"
       apply_no_radius="true"
       apply_with_radius="true"
       only_selected="false"
       hide_knots="false" />
    <clipPath
       clipPathUnits="userSpaceOnUse"
       id="clipPath4898">
      <path
         d="M 0,3824 H 3162.283 V 0 H 0 Z"
         transform="translate(-3279.3091,-1516.6358)"
         id="path4898" />
    </clipPath>
  </defs>
  <g
     inkscape:label="Layer 1"
     inkscape:groupmode="layer"
     id="layer1"
     transform="translate(-73.28961,-116.94583)">
    <path
       id="path4897"
       d="m 0,0 c 1.878,-10.701 20.017,-5.592 27.432,-5.453 27.938,0.52 55.938,-0.49 83.88,-0.023 0.636,-43.056 -29.513,-85.186 -69.834,-99.939 -90.592,-33.146 -174.865,55.79 -140.865,144.861 13.295,34.831 50.397,64.469 87.914,67.934 C -8.682,107.638 0,108.597 0,104.898 Z"
       style="fill:#b65acc;fill-opacity:1;fill-rule:nonzero;stroke:none"
       transform="matrix(0.35277776,0,0,-0.35277776,1611.5752,909.55635)"
       clip-path="url(#clipPath4898)" />
    <g
       style="fill:#b65acc;fill-opacity:1"
       id="g2"
       transform="matrix(0.4449899,0,0,0.4449899,91.214808,88.021489)">
      <path
         d="m 39.973319,130.0742 -0.946638,55.8516 A 1.5479706,1.5479706 45.485511 0 0 40.57443,187.5 h 0.35114 A 1.5744297,1.5744297 45 0 1 42.5,189.07443 v 2.35114 A 1.5744297,1.5744297 135 0 1 40.92557,193 H 10.67443 A 1.5744297,1.5744297 45 0 1 9.1,191.42557 v -2.35114 A 1.5744297,1.5744297 135 0 1 10.67443,187.5 h 19.55114 a 1.6013411,1.6013411 135.48551 0 0 1.601111,-1.5742 l 0.946638,-55.8516 A 1.5479706,1.5479706 45.485511 0 0 31.22557,128.5 H -4.7255703 A 1.5744297,1.5744297 45 0 1 -6.3,126.92557 l 0,-1.35114 A 1.5744297,1.5744297 45 0 0 -7.8744297,124 H -16.02557 c -0.869534,0 -2.298891,0.0181 -3.122318,-0.24997 -1.602202,-0.52151 -2.975601,-1.81812 -3.511745,-3.5004 C -22.922619,119.42445 -22.9,117.9951 -22.9,117.12557 v -10.35114 c 0,-0.86953 0.04036,-2.51569 -0.689974,-2.89805 -0.405633,-0.21236 -1.772673,-0.24669 -2.142032,0.48764 -0.211612,0.42072 -0.167994,1.54088 -0.167994,2.41041 v 10.35114 c 0,0.86953 -0.01521,2.28735 0.154752,3.13867 0.653709,3.27439 3.306623,5.9273 6.581011,6.58101 C -18.312915,127.01521 -17.734313,127 -17.9,127 v 1.62557 c 0,0.86953 0.1,2.01939 0.1,2.57443 V 184.42557 186.1 c -0.857716,4.07722 -2.857191,6.03164 -5.339642,6.61842 -0.844311,0.19958 -2.276408,0.19958 -3.120722,0 -2.482449,-0.58679 -4.481923,-2.5412 -5.124416,-5.06208 C -31.599084,186.8155 -31.6,186.05523 -31.6,186 v -39.92557 c 0,-0.86953 -0.657083,-1.83858 -1.410804,-2.27104 -3.072318,-1.76276 -5.259758,-4.73253 -6.238559,-8.16928 -0.238062,-0.83587 -0.433695,-2.23412 -0.526517,-3.09868 -0.834903,-7.77644 -0.589707,-11.45792 0.386059,-19.57298 0.103774,-0.86304 0.274134,-2.26282 0.425899,-3.11891 1.764798,-9.955107 8.300278,-19.148227 17.402434,-20.746943 0.85609,-0.150364 2.264389,-0.271416 3.133667,-0.271597 0.789664,-1.63e-4 2.143242,0.152568 2.942133,0.489749 1.47631,0.623093 2.544153,1.809264 2.975108,3.330091 0.2363,0.833896 0.21058,2.260056 0.21058,3.12959 v 15.85114 a 1.5744297,1.5744297 45 0 0 1.57443,1.57443 h 21.45114 c 0.869534,0 2.299293,-0.0227 3.123527,0.24302 1.562174,0.50361 2.804276,1.74571 3.307888,3.30789 C 17.4227,117.57514 17.4,118.34477 17.4,118.4 H -3.3255703 -4.9 44.72557 A 1.5744297,1.5744297 45 0 1 46.3,119.97443 v 6.85114 a 1.599619,1.599619 134.54531 0 1 -1.574231,1.59942 l -3.151538,0.05 a 1.6269681,1.6269681 135.03082 0 0 -1.600912,1.59919 z M 32.928251,93.183166 39.671749,112.11683 A 1.1105539,1.1105539 125.19796 0 1 38.62557,113.6 H 28.27443 A 1.5744297,1.5744297 135 0 0 26.7,115.17443 v 0.95114 A 1.5744297,1.5744297 45 0 0 28.27443,117.7 H 42.62557 A 1.5744297,1.5744297 135 0 0 44.2,116.12557 v -0.95114 a 9.0047901,9.0047901 80.082451 0 0 -0.534226,-3.05545 L 34.634226,87.081024 A 4.9234985,4.9234985 87.898068 0 1 34.524222,84.083799 L 39.075778,67.816201 A 1.5877357,1.5877357 60.872326 0 0 37.987423,65.863033 L 36.512577,65.436967 A 1.5569161,1.5569161 150.79297 0 0 34.57998,66.51737 l -10.25996,37.06526 a 1.5829227,1.5829227 60.626633 0 0 1.095069,1.94555 l 1.569822,0.44364 a 1.549292,1.549292 150.31968 0 0 1.918827,-1.0936 l 3.092524,-11.656437 a 0.48831162,0.48831162 177.62726 0 1 0.931989,-0.03862 z m -45.259418,-6.897883 c 4.6468343,-0.685653 8.3308029,-4.369624 9.0164509,-9.01646 0.1268125,-0.859445 0.1268127,-2.278206 -1.4e-6,-3.137656 -0.6856522,-4.646834 -4.3696235,-8.330803 -9.0164595,-9.016451 -0.859445,-0.126812 -2.278206,-0.126813 -3.137656,10e-7 -4.646834,0.685653 -8.330803,4.369624 -9.016451,9.01646 -0.126812,0.859445 -0.126813,2.278206 1e-6,3.137656 0.685653,4.646834 4.369624,8.330803 9.01646,9.016451 0.859445,0.126812 2.278206,0.126813 3.137656,-10e-7 z"
         id="path1"
         style="fill:#b65acc;fill-opacity:1"
         inkscape:path-effect="#path-effect1"
         inkscape:original-d="m 40,128.5 -1,59 h 3.5 V 193 H 9.1 v -5.5 h 22.7 l 1,-59 H -6.3 V 124 h -11.3 c -2.7,0 -5.3,-2.3 -5.3,-5.3 v -13.5 c 0,-0.9 -0.5,-1.5 -1.5,-1.5 -1,0 -1.5,0.5 -1.5,1.5 v 13.5 c 0,4.5 3.8,8.3 8.3,8.3 h -0.3 v 3.2 c 0.1,0.3 0.1,0.7 0.1,1 v 54.8 0.1 c -0.1,3.8 -3.2,6.8 -6.9,6.8 -3.7,0 -6.8,-3 -6.9,-6.8 V 186 144.5 c -4.3,-1.8 -7.2,-5.8 -8,-10.4 -1.1,-9.4 -0.8,-12.9 0.4,-22.7 1.4,-11.1 8.8,-21.7 19.2,-22.5 1.2,-0.1 2,-0.1 3,0 2.8,0.4 4.7,2.5 4.7,5.3 v 19 h 24.6 c 2.8,0 5.1,2.3 5.1,5.1 v 0.1 H -4.9 v 0 h 51.2 v 10 z m -7.6,-36.8 7.8,21.9 H 26.7 v 4.1 h 17.5 v -4.1 L 34.1,85.6 39.5,66.3 35,65 l -11.1,40.1 4.6,1.3 z M -13.9,86.4 C -8,86.4 -3.2,81.6 -3.2,75.7 -3.2,69.8 -8,65 -13.9,65 c -5.9,0 -10.7,4.8 -10.7,10.7 0,5.9 4.8,10.7 10.7,10.7 z"
         sodipodi:nodetypes="ccccccccccsssssscccsccscccccccscssccccccccccccccccccsssss" />
    </g>
  </g>
</svg>
