<?xml version="1.0" encoding="UTF-8" standalone="no"?>
<!-- Created with Inkscape (http://www.inkscape.org/) -->

<svg
   width="65.468399mm"
   height="53.624912mm"
   viewBox="0 0 65.468399 53.624912"
   version="1.1"
   id="svg1"
   inkscape:version="1.4.2 (ebf0e940, 2025-05-08)"
   sodipodi:docname="stapler in jelly.svg"
   xmlns:inkscape="http://www.inkscape.org/namespaces/inkscape"
   xmlns:sodipodi="http://sodipodi.sourceforge.net/DTD/sodipodi-0.dtd"
   xmlns="http://www.w3.org/2000/svg"
   xmlns:svg="http://www.w3.org/2000/svg">
  <sodipodi:namedview
     id="namedview1"
     pagecolor="#ffffff"
     bordercolor="#000000"
     borderopacity="0.25"
     inkscape:showpageshadow="2"
     inkscape:pageopacity="0.0"
     inkscape:pagecheckerboard="0"
     inkscape:deskcolor="#d1d1d1"
     inkscape:document-units="mm"
     inkscape:zoom="0.023162177"
     inkscape:cx="107.93459"
     inkscape:cy="86.347668"
     inkscape:window-width="896"
     inkscape:window-height="245"
     inkscape:window-x="0"
     inkscape:window-y="39"
     inkscape:window-maximized="0"
     inkscape:current-layer="layer1" />
  <defs
     id="defs1">
    <clipPath
       clipPathUnits="userSpaceOnUse"
       id="clipPath4898">
      <path
         d="M 0,3824 H 3162.283 V 0 H 0 Z"
         transform="translate(-3279.3091,-1516.6358)"
         id="path4898" />
    </clipPath>
    <clipPath
       clipPathUnits="userSpaceOnUse"
       id="clipPath2957">
      <path
         d="M 0,276 H 276 V 0 H 0 Z"
         transform="translate(-189.8037,-111.8854)"
         id="path2957" />
    </clipPath>
    <clipPath
       clipPathUnits="userSpaceOnUse"
       id="clipPath2955">
      <path
         d="M 0,276 H 276 V 0 H 0 Z"
         transform="translate(-225.12323,-84.783902)"
         id="path2955" />
    </clipPath>
  </defs>
  <g
     inkscape:label="Layer 1"
     inkscape:groupmode="layer"
     id="layer1"
     transform="translate(-75.670764,-121.70834)">
    <path
       id="path2954"
       d="m 0,0 c 4.099,0 6.876,-4.255 5.141,-7.969 -0.789,-1.689 -1.759,-3.259 -2.806,-4.549 -4.474,-5.512 -10.779,-10.27 -17.898,-10.27 h -137.622 c -7.57,0 -15.832,2.382 -21.607,8.326 -1.771,1.823 -3.342,3.954 -4.509,6.27 -1.892,3.757 0.831,8.192 5.037,8.192 z"
       style="fill:#b65acc;fill-opacity:1;fill-rule:nonzero;stroke:none"
       transform="matrix(0.35277776,0,0,-0.35277776,139.14007,167.29415)"
       clip-path="url(#clipPath2955)" />
    <path
       id="path2956"
       d="m 0,0 h -99.008 c -0.041,0 -0.578,0.537 -0.578,0.578 0,1.598 -0.326,6.651 0,7.705 0.131,0.423 0.886,0.635 1.329,0.597 29.56,-1.021 59.952,1.289 89.415,-0.001 C -7.656,8.827 -2.737,8.531 -2.127,8.275 0.448,7.194 1.475,0 0,0 m -9.835,21.392 c -0.147,-0.777 -0.558,-1.238 -1.348,-1.348 L -61.64,20.032 c -1.633,-0.036 -1.089,5.394 -0.384,5.394 h 46.422 v 9.439 c 1.776,0.908 5.09,1.897 5.696,-0.853 0.32,-1.451 0.355,-11.126 0.071,-12.62 m -90.156,18.501 84.481,27.626 c 3.785,1.705 9.234,0.33 9.889,-4.181 0.51,-3.517 0.465,-14.848 0.044,-18.465 -0.11,-0.942 -0.36,-1.732 -1.184,-2.284 C -26.682,37.897 -46.763,33.695 -66.84,29.664 V 13.869 h -31.398 c -0.228,0.049 -0.953,0.57 -1.137,0.789 -0.827,0.983 -4.656,14.515 -4.831,16.358 -0.411,4.326 0.592,6.528 4.215,8.877 m 130.27,-56.187 c -0.001,0.007 -0.002,0.015 -0.003,0.022 -4.422,28.887 -8.99,57.648 -13.782,86.432 -0.959,5.765 -1.92,12.558 -4.147,18.097 -5.191,12.911 -15.451,16.137 -28.531,12.414 -6.375,-1.814 -10.805,-6.379 -10.851,-13.3 -0.019,-2.742 0.279,-2.49 -0.086,-5.26 -0.244,-1.855 -2.514,-1.606 -3.132,-0.296 -1.285,2.722 0.137,8.21 -2.688,12.885 -5.149,8.518 -22.978,8.4 -31.268,5.206 -8.661,-3.337 -9.017,-17.729 -9.779,-25.791 -0.109,-1.157 -1.178,-3.186 -2.088,-3.186 -2.436,0 -2.208,2.262 -2.149,2.895 0.968,10.526 0.679,5.293 1.373,11.944 0.32,3.062 -0.172,5.342 -0.306,5.816 -3.014,10.673 -20.785,12.483 -29.201,8.305 -11.392,-5.655 -12.616,-23.281 -14.533,-35.039 -4.391,-26.927 -9.002,-54.071 -12.993,-81.123 l -0.003,-0.022 c -0.217,-1.461 0.916,-2.773 2.393,-2.773 h 91.357 20.55 3.978 6.595 36.907 c 1.477,0 2.611,1.314 2.387,2.774"
       style="fill:#b65acc;fill-opacity:1;fill-rule:nonzero;stroke:none"
       transform="matrix(0.35277776,0,0,-0.35277776,126.68013,157.73335)"
       clip-path="url(#clipPath2957)" />
    <path
       id="path4897"
       d="m 0,0 c 1.878,-10.701 20.017,-5.592 27.432,-5.453 27.938,0.52 55.938,-0.49 83.88,-0.023 0.636,-43.056 -29.513,-85.186 -69.834,-99.939 -90.592,-33.146 -174.865,55.79 -140.865,144.861 13.295,34.831 50.397,64.469 87.914,67.934 C -8.682,107.638 0,108.597 0,104.898 Z"
       style="fill:#b65acc;fill-opacity:1;fill-rule:nonzero;stroke:none"
       transform="matrix(0.35277776,0,0,-0.35277776,2653.8056,913.82419)"
       clip-path="url(#clipPath4898)" />
  </g>
</svg>
