<?xml version="1.0" encoding="UTF-8" standalone="no"?>
<!-- Created with Inkscape (http://www.inkscape.org/) -->

<svg
   width="69.14135mm"
   height="69.143684mm"
   viewBox="0 0 69.14135 69.143684"
   version="1.1"
   id="svg1"
   inkscape:version="1.4.2 (ebf0e940, 2025-05-08)"
   sodipodi:docname="stationary.svg"
   xmlns:inkscape="http://www.inkscape.org/namespaces/inkscape"
   xmlns:sodipodi="http://sodipodi.sourceforge.net/DTD/sodipodi-0.dtd"
   xmlns="http://www.w3.org/2000/svg"
   xmlns:svg="http://www.w3.org/2000/svg">
  <sodipodi:namedview
     id="namedview1"
     pagecolor="#ffffff"
     bordercolor="#000000"
     borderopacity="0.25"
     inkscape:showpageshadow="2"
     inkscape:pageopacity="0.0"
     inkscape:pagecheckerboard="0"
     inkscape:deskcolor="#d1d1d1"
     inkscape:document-units="mm"
     inkscape:zoom="0.023162177"
     inkscape:cx="151.10842"
     inkscape:cy="129.5215"
     inkscape:window-width="896"
     inkscape:window-height="245"
     inkscape:window-x="0"
     inkscape:window-y="39"
     inkscape:window-maximized="0"
     inkscape:current-layer="layer1" />
  <defs
     id="defs1">
    <inkscape:path-effect
       effect="fillet_chamfer"
       id="path-effect2"
       is_visible="true"
       lpeversion="1"
       nodesatellites_param="F,0,1,1,0,0,0,1 @ F,0,0,1,0,6.6628194,0,1 @ F,0,1,1,0,6.6628194,0,1 @ F,0,1,1,0,6.6628194,0,1 @ F,0,1,1,0,6.6628194,0,1 @ F,0,1,1,0,6.6628194,0,1 @ F,0,1,1,0,6.6628194,0,1 @ F,0,1,1,0,6.6628194,0,1 @ F,0,1,1,0,6.6628194,0,1 @ F,0,1,1,0,6.6628194,0,1 @ F,0,1,1,0,6.6628194,0,1 @ F,0,0,1,0,0,0,1"
       radius="0"
       unit="px"
       method="auto"
       mode="F"
       chamfer_steps="1"
       flexible="false"
       use_knot_distance="true"
       apply_no_radius="true"
       apply_with_radius="true"
       only_selected="false"
       hide_knots="false" />
    <clipPath
       clipPathUnits="userSpaceOnUse"
       id="clipPath4898">
      <path
         d="M 0,3824 H 3162.283 V 0 H 0 Z"
         transform="translate(-3279.3091,-1516.6358)"
         id="path4898" />
    </clipPath>
    <clipPath
       clipPathUnits="userSpaceOnUse"
       id="clipPath4035">
      <path
         d="M 0,276 H 276 V 0 H 0 Z"
         transform="translate(-174.897,-125.9395)"
         id="path4035" />
    </clipPath>
    <clipPath
       clipPathUnits="userSpaceOnUse"
       id="clipPath4033">
      <path
         d="M 0,276 H 276 V 0 H 0 Z"
         transform="translate(-210.42301,-101.02581)"
         id="path4033" />
    </clipPath>
    <clipPath
       clipPathUnits="userSpaceOnUse"
       id="clipPath4031">
      <path
         d="M 0,276 H 276 V 0 H 0 Z"
         transform="translate(-147.54525,-136.36851)"
         id="path4031" />
    </clipPath>
    <clipPath
       clipPathUnits="userSpaceOnUse"
       id="clipPath4029">
      <path
         d="M 0,276 H 276 V 0 H 0 Z"
         transform="translate(-229.99576,-45.996399)"
         id="path4029" />
    </clipPath>
    <clipPath
       clipPathUnits="userSpaceOnUse"
       id="clipPath4027">
      <path
         d="M 0,276 H 276 V 0 H 0 Z"
         transform="translate(-43.483501,-130.71651)"
         id="path4027" />
    </clipPath>
    <clipPath
       clipPathUnits="userSpaceOnUse"
       id="clipPath4025">
      <path
         d="M 0,276 H 276 V 0 H 0 Z"
         transform="translate(-138.2025,-241.76151)"
         id="path4025" />
    </clipPath>
    <clipPath
       clipPathUnits="userSpaceOnUse"
       id="clipPath4023">
      <path
         d="M 0,276 H 276 V 0 H 0 Z"
         transform="translate(-90.128252,-139.58271)"
         id="path4023" />
    </clipPath>
    <clipPath
       clipPathUnits="userSpaceOnUse"
       id="clipPath4021">
      <path
         d="M 0,276 H 276 V 0 H 0 Z"
         transform="translate(-121.263,-226.78031)"
         id="path4021" />
    </clipPath>
  </defs>
  <g
     inkscape:label="Layer 1"
     inkscape:groupmode="layer"
     id="layer1"
     transform="translate(-73.818797,-114.03541)">
    <path
       id="path4020"
       d="M 0,0 27.065,-25.652 -22.973,-81.79 c -0.866,-0.643 -1.896,-1.866 -3.01,-1.569 l -31.022,29.087 55.289,53.863 z"
       style="fill:#b65acc;fill-opacity:1;fill-rule:nonzero;stroke:none"
       transform="matrix(0.35277776,0,0,-0.35277776,104.60165,119.40256)"
       clip-path="url(#clipPath4021)" />
    <path
       id="path4022"
       d="m 0,0 c 1.798,-2.181 -0.882,-4.416 -2.93,-5.033 -4.426,-1.335 -12.113,0.748 -16.435,-1.087 -2.223,-0.945 -8.191,-9.746 -10.266,-9.768 -1.512,2.739 -13.841,12.03 -14.198,13.853 -0.351,1.792 8.363,9.805 9.165,12.215 1.234,3.711 0.616,10.055 1.829,14.196 1.776,6.067 6.92,-0.149 9.464,-2.444 C -15.45,14.787 -8.085,6.969 0,0"
       style="fill:#b65acc;fill-opacity:1;fill-rule:nonzero;stroke:none"
       transform="matrix(0.35277776,0,0,-0.35277776,93.618005,150.16393)"
       clip-path="url(#clipPath4023)" />
    <path
       id="path4024"
       d="M 0,0 C 2.377,0.539 4.618,0.14 6.622,-1.178 8.981,-2.728 24,-17.006 24.877,-18.972 c 0.867,-1.944 1.071,-3.618 0.181,-5.587 -0.476,-1.053 -8.982,-11.164 -9.714,-11.305 -1.063,-0.206 -3.177,2.149 -4.189,2.669 L -11.834,-11.09 C -11.992,-10.188 -1.87,-0.424 0,0"
       style="fill:#b65acc;fill-opacity:1;fill-rule:nonzero;stroke:none"
       transform="matrix(0.35277776,0,0,-0.35277776,110.57753,114.11752)"
       clip-path="url(#clipPath4025)" />
    <path
       id="path4026"
       d="m 0,0 c 1.727,-1.082 12.38,-10.258 12.216,-11.197 -0.148,-0.849 -4.274,-4.331 -5.437,-4.61 -1.828,-0.438 -7.069,-0.656 -9.277,-0.737 -3.857,-0.142 -8.664,-0.684 -6.398,4.9 C -8.564,-10.825 -0.711,-0.177 0,0"
       style="fill:#b65acc;fill-opacity:1;fill-rule:nonzero;stroke:none"
       transform="matrix(0.35277776,0,0,-0.35277776,77.162774,153.29173)"
       clip-path="url(#clipPath4027)" />
    <path
       id="path4028"
       d="m 0,0 c -3.024,3.186 -5.95,6.437 -9.586,8.964 l -0.288,21.317 c -0.73,3.161 -4.805,1.497 -4.805,0.495 v -18.14 l -9.323,4.132 -0.236,16.682 c -0.863,2.661 -4.713,1.398 -4.713,-0.229 v -14.47 l -13.008,3.708 -0.127,19.235 c -0.731,3.161 -4.806,1.497 -4.806,0.495 V 23.642 l -9.334,1.674 c -0.322,0.379 0.141,8.441 -0.037,9.951 -0.494,4.183 -5.308,2.55 -5.308,0.808 v -9.987 l -11.825,0.815 v 19.363 c 0,0.764 -1.787,2.181 -2.681,2.237 -4.532,0.284 -2.641,-7.938 -2.604,-10.373 0.057,-3.604 -0.077,-7.221 -0.014,-10.821 l -12.643,0.817 v 10.802 c 0,2.253 -5.708,2.599 -5.708,0 v -9.987 l -12.644,2.043 c 0.88,6.554 0.273,13.428 0.324,20.086 -0.801,3.591 -5.214,2.028 -5.214,0.087 V 32.202 c -4.842,1.591 -12.406,3.128 -15.709,7.328 -0.284,0.361 -1.417,2.043 -1.417,2.252 v 29.552 c 1.747,-0.75 3.203,-2.108 4.886,-3.064 19.513,-11.097 45.764,-8.197 67.487,-9.983 C -38.487,56.573 -14.647,50.531 0,34.852 Z"
       style="fill:#b65acc;fill-opacity:1;fill-rule:nonzero;stroke:none"
       transform="matrix(0.35277776,0,0,-0.35277776,142.96015,183.1791)"
       clip-path="url(#clipPath4029)" />
    <path
       id="path4030"
       d="m 0,0 c -4.636,-0.338 -18.336,-2.372 -19.705,-7.612 -0.957,-3.665 0.311,-5.829 3.356,-7.675 9.441,-5.727 33.636,-5.404 43.621,-0.97 5.689,2.527 8.912,8.024 2.544,12.064 C 22.675,0.337 8.295,0.606 0,0 m -47.072,-13.594 c -5.683,5.983 1.874,10.838 7.049,13.249 C -18.5,9.68 35.457,10.199 56.07,-1.997 75.385,-13.424 44.979,-21.685 36.041,-23.393 c -18.533,-3.539 -69.31,-4.731 -83.113,9.799"
       style="fill:#b65acc;fill-opacity:1;fill-rule:nonzero;stroke:none"
       transform="matrix(0.35277776,0,0,-0.35277776,113.87345,151.29783)"
       clip-path="url(#clipPath4031)" />
    <path
       id="path4032"
       d="M 0,0 C -6.767,3.533 -14.319,5.076 -21.615,7.133 -13.983,9.255 -6.208,11.548 0,16.713 Z"
       style="fill:#b65acc;fill-opacity:1;fill-rule:nonzero;stroke:none"
       transform="matrix(0.35277776,0,0,-0.35277776,136.05532,163.76595)"
       clip-path="url(#clipPath4033)" />
    <path
       id="path4034"
       d="m 0,0 c -0.224,-0.388 -4.824,-2.055 -5.662,-2.286 -8.877,-2.456 -23.142,-2.626 -31.887,0.318 -3.555,1.196 -6.545,2.456 -1.659,4.683 8.265,3.767 25.669,3.692 34.285,1.029 C -3.823,3.404 0.989,1.715 0,0"
       style="fill:#b65acc;fill-opacity:1;fill-rule:nonzero;stroke:none"
       transform="matrix(0.35277776,0,0,-0.35277776,123.52254,154.97695)"
       clip-path="url(#clipPath4035)" />
    <path
       id="path4897"
       d="m 0,0 c 1.878,-10.701 20.017,-5.592 27.432,-5.453 27.938,0.52 55.938,-0.49 83.88,-0.023 0.636,-43.056 -29.513,-85.186 -69.834,-99.939 -90.592,-33.146 -174.865,55.79 -140.865,144.861 13.295,34.831 50.397,64.469 87.914,67.934 C -8.682,107.638 0,108.597 0,104.898 Z"
       style="fill:#b65acc;fill-opacity:1;fill-rule:nonzero;stroke:none"
       transform="matrix(0.35277776,0,0,-0.35277776,1834.6401,916.02577)"
       clip-path="url(#clipPath4898)" />
    <path
       style="fill:#b65acc;stroke-width:6.617;stroke-linecap:round"
       d="m 11828.026,141.12883 73.717,-85.442949 a 6.6605297,6.6605297 175.79609 0 1 9.395,-0.69062 l 18.619,16.074392 a 6.9575368,6.9575368 84.566365 0 1 0.911,9.581038 l -46.959,59.403479 a 6.1479423,6.1479423 175.62833 0 1 -9.01,0.68883 l -13.818,-12.8531 a 6.8052065,6.8052065 87.324141 0 1 -0.444,-9.51135 l 36.431,-40.863008 a 5.8930361,5.8930361 174.71801 0 1 8.56,-0.791364 l -36.609,40.750602 a 6.5568887,6.5568887 86.476581 0 0 0.574,9.32918 l 4.58,3.9835 a 6.4560957,6.4560957 175.1147 0 0 9.239,-0.7897 l 40.46,-49.587361 a 6.7340954,6.7340954 84.516756 0 0 -0.905,-9.429303 l -11.118,-9.26972 a 6.7412822,6.7412822 175.15697 0 0 -9.443,0.800161 l -70.325,82.361683"
       id="path2"
       sodipodi:nodetypes="cccccccccccc"
       inkscape:path-effect="#path-effect2"
       inkscape:original-d="m 11828.026,141.12883 78.069,-90.487715 28.705,24.782684 -55.223,69.857261 -23.574,-21.92922 45.299,-50.809588 4.126,4.181926 -41.062,45.707042 14.634,12.72898 48.884,-59.91224 -21.352,-17.803448 -74.651,87.428708"
       transform="matrix(0.26458333,0,0,0.26458333,-3017.1508,106.69752)" />
  </g>
</svg>
