<?xml version="1.0" encoding="UTF-8" standalone="no"?>
<!-- Created with Inkscape (http://www.inkscape.org/) -->

<svg
   width="41.914471mm"
   height="37.957077mm"
   viewBox="0 0 41.914471 37.957077"
   version="1.1"
   id="svg1"
   inkscape:version="1.4.2 (ebf0e940, 2025-05-08)"
   sodipodi:docname="stocks.svg"
   xmlns:inkscape="http://www.inkscape.org/namespaces/inkscape"
   xmlns:sodipodi="http://sodipodi.sourceforge.net/DTD/sodipodi-0.dtd"
   xmlns="http://www.w3.org/2000/svg"
   xmlns:svg="http://www.w3.org/2000/svg">
  <sodipodi:namedview
     id="namedview1"
     pagecolor="#ffffff"
     bordercolor="#000000"
     borderopacity="0.25"
     inkscape:showpageshadow="2"
     inkscape:pageopacity="0.0"
     inkscape:pagecheckerboard="0"
     inkscape:deskcolor="#d1d1d1"
     inkscape:document-units="mm"
     inkscape:zoom="0.57476723"
     inkscape:cx="348.83687"
     inkscape:cy="212.25984"
     inkscape:window-width="1712"
     inkscape:window-height="971"
     inkscape:window-x="0"
     inkscape:window-y="39"
     inkscape:window-maximized="1"
     inkscape:current-layer="layer1" />
  <defs
     id="defs1">
    <inkscape:path-effect
       effect="fillet_chamfer"
       id="path-effect23"
       is_visible="true"
       lpeversion="1"
       nodesatellites_param="F,0,1,1,0,2.4067907,0,1 @ F,0,1,1,0,2.4067907,0,1 @ F,0,1,1,0,2.4067907,0,1 @ F,0,1,1,0,2.4067907,0,1 | F,0,1,1,0,2.4067907,0,1 @ F,0,1,1,0,2.4067907,0,1 @ F,0,1,1,0,2.4067907,0,1 @ F,0,1,1,0,2.4067907,0,1 | F,0,1,1,0,2.4067907,0,1 @ F,0,1,1,0,2.4067907,0,1 @ F,0,1,1,0,2.4067907,0,1 @ F,0,1,1,0,2.4067907,0,1 | F,0,1,1,0,2.4067907,0,1 @ F,0,1,1,0,2.4067907,0,1 @ F,0,1,1,0,2.4067907,0,1 @ F,0,1,1,0,2.4067907,0,1 | F,0,1,1,0,2.4067907,0,1 @ F,0,1,1,0,2.4067907,0,1 @ F,0,1,1,0,2.4067907,0,1 @ F,0,1,1,0,2.4067907,0,1 | F,0,1,1,0,2.4067907,0,1 @ F,0,1,1,0,2.4067907,0,1 @ F,0,1,1,0,2.4067907,0,1 @ F,0,1,1,0,2.4067907,0,1 | F,0,1,1,0,2.4067907,0,1 @ F,0,1,1,0,2.4067907,0,1 @ F,0,1,1,0,2.4067907,0,1 @ F,0,1,1,0,2.4067907,0,1 | F,0,0,1,0,2.4067907,0,1 @ F,0,1,1,0,2.4067907,0,1 @ F,0,1,1,0,2.4067907,0,1 @ F,0,1,1,0,2.4067907,0,1 | F,0,1,1,0,2.4067907,0,1 @ F,0,1,1,0,2.4067907,0,1 @ F,0,1,1,0,2.4067907,0,1 @ F,0,1,1,0,2.4067907,0,1 | F,0,1,1,0,2.4067907,0,1 @ F,0,1,1,0,2.4067907,0,1 @ F,0,1,1,0,2.4067907,0,1 @ F,0,1,1,0,2.4067907,0,1 | F,0,1,1,0,2.4067907,0,1 @ F,0,1,1,0,2.4067907,0,1 @ F,0,1,1,0,2.4067907,0,1 @ F,0,1,1,0,2.4067907,0,1 | F,0,1,1,0,2.4067907,0,1 @ F,0,1,1,0,2.4067907,0,1 @ F,0,1,1,0,2.4067907,0,1 @ F,0,1,1,0,2.4067907,0,1 | F,0,1,1,0,2.4067907,0,1 @ F,0,1,1,0,2.4067907,0,1 @ F,0,1,1,0,2.4067907,0,1 @ F,0,1,1,0,2.4067907,0,1 | F,0,1,1,0,2.4067907,0,1 @ F,0,1,1,0,2.4067907,0,1 @ F,0,1,1,0,2.4067907,0,1 @ F,0,1,1,0,2.4067907,0,1 | F,0,1,1,0,2.4067907,0,1 @ F,0,1,1,0,2.4067907,0,1 @ F,0,1,1,0,2.4067907,0,1 @ F,0,1,1,0,2.4067907,0,1 | F,0,1,1,0,2.4067907,0,1 @ F,0,1,1,0,2.4067907,0,1 @ F,0,1,1,0,2.4067907,0,1 @ F,0,1,1,0,2.4067907,0,1 @ F,0,1,1,0,2.4067907,0,1"
       radius="0"
       unit="px"
       method="auto"
       mode="F"
       chamfer_steps="1"
       flexible="false"
       use_knot_distance="true"
       apply_no_radius="true"
       apply_with_radius="true"
       only_selected="false"
       hide_knots="false" />
  </defs>
  <g
     inkscape:label="Layer 1"
     inkscape:groupmode="layer"
     id="layer1"
     transform="translate(-71.702067,-126.47083)">
    <path
       id="rect5-0"
       style="fill:#b65acc;stroke:none;stroke-width:6.58971;stroke-linecap:round"
       d="m 6827.4537,128.15089 a 1.9663566,1.9663566 59.938475 0 1 1.393,2.40679 v 76.99435 a 2.4067907,2.4067907 135 0 1 -2.4068,2.40679 1.9663566,1.9663566 59.938475 0 1 -1.393,-2.40679 v -76.99435 a 2.4067907,2.4067907 135 0 1 2.4068,-2.40679 z m -5.0659,44.64388 h 10.3857 a 2.4067907,2.4067907 45 0 1 2.4068,2.40679 l 0,17.84207 a 2.4067907,2.4067907 135 0 1 -2.4068,2.40679 h -10.3857 a 2.4067907,2.4067907 45 0 1 -2.4068,-2.40679 l 0,-17.84207 a 2.4067907,2.4067907 135 0 1 2.4068,-2.40679 z m -17.9019,-48.1827 a 1.9663566,1.9663566 59.938475 0 1 1.393,2.40679 v 89.89092 a 2.4067907,2.4067907 135 0 1 -2.4068,2.40679 1.9663566,1.9663566 59.938475 0 1 -1.393,-2.40679 v -89.89092 a 2.4067907,2.4067907 135 0 1 2.4068,-2.40679 z m -5.0664,28.43436 h 10.3857 a 2.4067907,2.4067907 45 0 1 2.4068,2.40679 l 0,37.37583 a 2.4067907,2.4067907 135 0 1 -2.4068,2.40679 h -10.3857 a 2.4067907,2.4067907 45 0 1 -2.4068,-2.40679 v -37.37583 a 2.4067907,2.4067907 135 0 1 2.4068,-2.40679 z m -18.1982,-25.07661 a 1.9663566,1.9663566 59.938475 0 1 1.393,2.40679 v 97.14523 a 2.4067907,2.4067907 135 0 1 -2.4068,2.40679 1.9663566,1.9663566 59.938475 0 1 -1.393,-2.40679 v -97.14523 a 2.4067907,2.4067907 135 0 1 2.4068,-2.40679 z m -5.066,24.59308 h 10.3857 a 2.4067907,2.4067907 45 0 1 2.4068,2.40679 v 1.97725 a 2.4067907,2.4067907 135 0 1 -2.4068,2.40679 h -10.3857 a 2.4067907,2.4067907 45 0 1 -2.4068,-2.40679 l 0,-1.97725 a 2.4067907,2.4067907 135 0 1 2.4068,-2.40679 z m -15.4677,16.45659 a 1.9663566,1.9663566 59.938475 0 1 1.393,2.40679 l 0,40.82178 a 2.4067907,2.4067907 135 0 1 -2.4068,2.40679 1.9663566,1.9663566 59.938475 0 1 -1.393,-2.40679 v -40.82178 a 2.4067907,2.4067907 135 0 1 2.4068,-2.40679 z m -5.3394,-9.60827 10.3857,0 a 2.4067907,2.4067907 45 0 1 2.4068,2.40679 v 16.23 a 2.4067907,2.4067907 135 0 1 -2.4068,2.40679 l -10.3857,0 a 2.4067907,2.4067907 45 0 1 -2.4068,-2.40679 v -16.23 a 2.4067907,2.4067907 135 0 1 2.4068,-2.40679 z M 6741.7047,125 a 1.9663566,1.9663566 59.938475 0 1 1.393,2.40679 v 97.14524 a 2.4067907,2.4067907 135 0 1 -2.4068,2.40679 1.9663566,1.9663566 59.938475 0 1 -1.393,-2.40679 l 0,-97.14524 A 2.4067907,2.4067907 135 0 1 6741.7047,125 Z m -5.066,55.31059 h 10.3857 a 2.4067907,2.4067907 45 0 1 2.4068,2.40679 v 19.8535 a 2.4067907,2.4067907 135 0 1 -2.4068,2.40679 l -10.3857,0 a 2.4067907,2.4067907 45 0 1 -2.4068,-2.40679 v -19.8535 a 2.4067907,2.4067907 135 0 1 2.4068,-2.40679 z m -15.0097,-37.41401 a 1.9663566,1.9663566 59.938475 0 1 1.393,2.40679 v 97.14523 a 2.4067907,2.4067907 135 0 1 -2.4068,2.40679 1.9663566,1.9663566 59.938475 0 1 -1.393,-2.40679 v -97.14523 a 2.4067907,2.4067907 135 0 1 2.4068,-2.40679 z m -5.066,61.78842 h 10.3858 a 2.4067907,2.4067907 45 0 1 2.4068,2.40679 v 11.27609 a 2.4067907,2.4067907 135 0 1 -2.4068,2.40679 h -10.3858 a 2.4067907,2.4067907 45 0 1 -2.4068,-2.40679 l 0,-11.27609 a 2.4067907,2.4067907 135 0 1 2.4068,-2.40679 z m -15.2973,-77.62075 a 1.9663566,1.9663566 59.938475 0 1 1.393,2.40679 v 97.14523 a 2.4067907,2.4067907 135 0 1 -2.4068,2.40679 1.9663566,1.9663566 59.938475 0 1 -1.393,-2.40679 v -97.14523 a 2.4067907,2.4067907 135 0 1 2.4068,-2.40679 z m -5.0664,24.59308 h 10.3857 a 2.4067907,2.4067907 45 0 1 2.4068,2.40679 l 0,48.47143 a 2.4067907,2.4067907 135 0 1 -2.4068,2.40679 l -10.3857,0 a 2.4067907,2.4067907 45 0 1 -2.4068,-2.40679 v -48.47143 a 2.4067907,2.4067907 135 0 1 2.4068,-2.40679 z m -15.7168,103.03295 h 152.992 a 2.4067907,2.4067907 45 0 1 2.4068,2.40679 v 7.87326 a 2.4067907,2.4067907 135 0 1 -2.4068,2.40679 l -152.992,0 a 2.4067907,2.4067907 45 0 1 -2.4068,-2.40679 v -7.87326 a 2.4067907,2.4067907 135 0 1 2.4068,-2.40679 z m -0.6113,-130.70016 h 2.4329 c 1.3292,0 3.6207,-0.0327 4.6294,0.79241 0.1821,0.14893 0.3489,0.31577 0.4978,0.49784 0.8252,1.00876 0.7925,3.30027 0.7925,4.6295 l 0,135.1331 a 2.4067907,2.4067907 135 0 1 -2.4068,2.40679 h -5.9458 a 2.4067907,2.4067907 45 0 1 -2.4068,-2.40679 V 126.39691 a 2.4067907,2.4067907 135 0 1 2.4068,-2.40679 z"
       inkscape:path-effect="#path-effect23"
       inkscape:original-d="m 6825.0469,128.15089 h 3.7998 v 81.80793 h -3.7998 z m -5.0659,44.64388 h 15.1993 v 22.65565 h -15.1993 z m -17.9019,-48.1827 h 3.7998 v 94.7045 h -3.7998 z m -5.0664,28.43436 h 15.1993 v 42.18941 h -15.1993 z m -18.1982,-25.07661 h 3.7998 v 101.95881 h -3.7998 z m -5.066,24.59308 h 15.1993 v 6.79083 h -15.1993 z m -15.4677,16.45659 h 3.7998 v 45.63536 h -3.7998 z m -5.3394,-9.60827 h 15.1993 v 21.04358 h -15.1993 z M 6739.2979,125 h 3.7998 v 101.95882 h -3.7998 z m -5.066,55.31059 h 15.1993 v 24.66708 h -15.1993 z m -15.0097,-37.41401 h 3.7998 v 101.95881 h -3.7998 z m -5.066,61.78842 h 15.1994 v 16.08967 h -15.1994 z m -15.2973,-77.62075 h 3.7998 v 101.95881 h -3.7998 z m -5.0664,24.59308 h 15.1993 v 53.28501 h -15.1993 z m -15.7168,103.03295 h 157.8056 v 12.68684 h -157.8056 z m -0.6113,-130.70016 h 7.2465 c 1.9401,3e-5 3.5129,1.57283 3.5129,3.51296 v 139.94668 h -10.7594 z"
       sodipodi:nodetypes="ccccccccccccccccccccccccccccccccccccccccccccccccccccccccccccccccccccccccccccccccc"
       transform="matrix(0.26458333,0,0,0.26458333,-1695.0437,93.665161)" />
  </g>
</svg>
