<?xml version="1.0" encoding="UTF-8" standalone="no"?>
<!-- Created with Inkscape (http://www.inkscape.org/) -->

<svg
   width="29.060886mm"
   height="29.06089mm"
   viewBox="0 0 29.060886 29.06089"
   version="1.1"
   id="svg1"
   inkscape:version="1.4.2 (ebf0e940, 2025-05-08)"
   sodipodi:docname="to do.svg"
   xmlns:inkscape="http://www.inkscape.org/namespaces/inkscape"
   xmlns:sodipodi="http://sodipodi.sourceforge.net/DTD/sodipodi-0.dtd"
   xmlns="http://www.w3.org/2000/svg"
   xmlns:svg="http://www.w3.org/2000/svg">
  <sodipodi:namedview
     id="namedview1"
     pagecolor="#ffffff"
     bordercolor="#000000"
     borderopacity="0.25"
     inkscape:showpageshadow="2"
     inkscape:pageopacity="0.0"
     inkscape:pagecheckerboard="0"
     inkscape:deskcolor="#d1d1d1"
     inkscape:document-units="mm"
     inkscape:zoom="0.01"
     inkscape:cx="50"
     inkscape:cy="50"
     inkscape:window-width="896"
     inkscape:window-height="204"
     inkscape:window-x="0"
     inkscape:window-y="39"
     inkscape:window-maximized="0"
     inkscape:current-layer="layer1" />
  <defs
     id="defs1" />
  <g
     inkscape:label="Layer 1"
     inkscape:groupmode="layer"
     id="layer1"
     transform="translate(-78.052083,-130.96875)">
    <path
       d="m 84.542805,136.92372 c -0.313124,0 -0.566979,0.25385 -0.566979,0.56698 0,0.31313 0.253855,0.56698 0.566979,0.56698 h 7.937568 c 0.313124,0 0.566979,-0.25385 0.566979,-0.56698 0,-0.31313 -0.253855,-0.56698 -0.566979,-0.56698 z"
       fill="#212121"
       id="path1"
       style="fill:#b65acc;fill-opacity:1;stroke-width:0.755972"
       sodipodi:nodetypes="sssssss" />
    <path
       d="m 83.975902,142.22363 c 0,-0.31312 0.253779,-0.56698 0.566979,-0.56698 h 4.762417 c 0.313199,0 0.566979,0.25386 0.566979,0.56698 0,0.31312 -0.25378,0.56698 -0.566979,0.56698 h -4.762417 c -0.3132,0 -0.566979,-0.25386 -0.566979,-0.56698 z"
       fill="#212121"
       id="path2"
       style="fill:#b65acc;fill-opacity:1;stroke-width:0.755972"
       sodipodi:nodetypes="sssssss" />
    <path
       d="m 84.034407,147.25534 c 0,-0.31312 0.25378,-0.56698 0.566979,-0.56698 h 6.349917 c 0.313199,0 0.566979,0.25386 0.566979,0.56698 0,0.31312 -0.25378,0.56698 -0.566979,0.56698 h -6.349917 c -0.313199,0 -0.566979,-0.25386 -0.566979,-0.56698 z"
       fill="#212121"
       id="path2-2"
       style="fill:#b65acc;fill-opacity:1;stroke-width:0.755972"
       sodipodi:nodetypes="sssssss" />
    <path
       d="m 84.017475,152.35431 c 0,-0.31312 0.253779,-0.56698 0.566979,-0.56698 h 10.58325 c 0.313199,0 0.566979,0.25386 0.566979,0.56698 0,0.31312 -0.25378,0.56698 -0.566979,0.56698 h -10.58325 c -0.3132,0 -0.566979,-0.25386 -0.566979,-0.56698 z"
       fill="#212121"
       id="path2-6"
       style="fill:#b65acc;fill-opacity:1;stroke-width:0.755972"
       sodipodi:nodetypes="sssssss" />
    <path
       d="m 101.74446,136.1737 c 0.22143,0.22141 0.22143,0.58041 0,0.80183 l -1.51192,1.51192 c -0.22141,0.22142 -0.58041,0.22142 -0.801827,0 l -0.755972,-0.75595 c -0.221416,-0.22142 -0.221416,-0.58041 0,-0.80183 0.221417,-0.22142 0.580413,-0.22142 0.80183,0 l 0.355057,0.35506 1.111032,-1.11103 c 0.22144,-0.22142 0.58038,-0.22142 0.8018,0 z"
       fill="#212121"
       id="path3"
       style="fill:#b65acc;fill-opacity:1;stroke-width:0.755972" />
    <path
       d="m 101.6135,141.72267 c 0.22143,-0.22142 0.22143,-0.58036 0,-0.80178 -0.22142,-0.22142 -0.58036,-0.22142 -0.8018,0 l -1.111033,1.11098 -0.355057,-0.35501 c -0.221417,-0.22142 -0.580413,-0.22142 -0.801829,0 -0.221417,0.22143 -0.221417,0.58036 0,0.80179 l 0.755972,0.75597 c 0.221416,0.22142 0.580412,0.22142 0.801827,0 z"
       fill="#212121"
       id="path4"
       style="fill:#b65acc;fill-opacity:1;stroke-width:0.755972" />
    <path
       d="m 81.684694,130.96875 c -2.006234,0 -3.632611,1.62637 -3.632611,3.63261 v 21.79567 c 0,2.00617 1.626377,3.63261 3.632611,3.63261 h 21.795666 c 2.00617,0 3.63261,-1.62644 3.63261,-3.63261 v -21.79567 c 0,-2.00624 -1.62644,-3.63261 -3.63261,-3.63261 z m -1.21087,3.63261 c 0,-0.66874 0.542131,-1.21087 1.21087,-1.21087 h 21.795666 c 0.66873,0 1.21087,0.54213 1.21087,1.21087 v 21.79567 c 0,0.66872 -0.54214,1.21087 -1.21087,1.21087 H 81.684694 c -0.668739,0 -1.21087,-0.54215 -1.21087,-1.21087 z"
       fill="#212121"
       id="path5"
       style="fill:#b65acc;fill-opacity:1;stroke-width:1.61449" />
    <path
       d="m 98.980287,145.6898 c -0.209908,0 -0.380072,0.17016 -0.380072,0.38007 v 2.28043 c 0,0.2099 0.170164,0.38007 0.380072,0.38007 h 2.280433 c 0.2099,0 0.38007,-0.17017 0.38007,-0.38007 v -2.28043 c 0,-0.20991 -0.17017,-0.38007 -0.38007,-0.38007 z m 0.600071,1.10683 c 0,-0.07 0.05671,-0.12669 0.12669,-0.12669 h 0.826902 c 0.07,0 0.1267,0.0567 0.1267,0.12669 v 0.82691 c 0,0.07 -0.0567,0.12669 -0.1267,0.12669 h -0.826902 c -0.06997,0 -0.12669,-0.0567 -0.12669,-0.12669 z"
       fill="#212121"
       id="path5-0"
       style="fill:#b65acc;fill-opacity:1;stroke-width:0.16892"
       sodipodi:nodetypes="ssssssssssssssssss" />
    <path
       d="m 99.06047,150.87277 c -0.209908,0 -0.380072,0.17016 -0.380072,0.38007 v 2.28043 c 0,0.2099 0.170164,0.38007 0.380072,0.38007 h 2.28043 c 0.2099,0 0.38007,-0.17017 0.38007,-0.38007 v -2.28043 c 0,-0.20991 -0.17017,-0.38007 -0.38007,-0.38007 z m 0.600071,1.10683 c 0,-0.07 0.05671,-0.12669 0.12669,-0.12669 h 0.826909 c 0.07,0 0.12669,0.0567 0.12669,0.12669 v 0.82691 c 0,0.07 -0.0567,0.12669 -0.12669,0.12669 h -0.826909 c -0.06997,0 -0.12669,-0.0567 -0.12669,-0.12669 z"
       fill="#212121"
       id="path5-0-9"
       style="fill:#b65acc;fill-opacity:1;stroke-width:0.16892"
       sodipodi:nodetypes="ssssssssssssssssss" />
  </g>
</svg>
