<?xml version="1.0" encoding="UTF-8" standalone="no"?>
<!-- Created with Inkscape (http://www.inkscape.org/) -->

<svg
   width="47.607887mm"
   height="57.78265mm"
   viewBox="0 0 47.607887 57.78265"
   version="1.1"
   id="svg1"
   inkscape:version="1.4.2 (ebf0e940, 2025-05-08)"
   sodipodi:docname="traffic.svg"
   xmlns:inkscape="http://www.inkscape.org/namespaces/inkscape"
   xmlns:sodipodi="http://sodipodi.sourceforge.net/DTD/sodipodi-0.dtd"
   xmlns="http://www.w3.org/2000/svg"
   xmlns:svg="http://www.w3.org/2000/svg">
  <sodipodi:namedview
     id="namedview1"
     pagecolor="#ffffff"
     bordercolor="#000000"
     borderopacity="0.25"
     inkscape:showpageshadow="2"
     inkscape:pageopacity="0.0"
     inkscape:pagecheckerboard="0"
     inkscape:deskcolor="#d1d1d1"
     inkscape:document-units="mm"
     inkscape:zoom="0.01"
     inkscape:cx="50"
     inkscape:cy="150"
     inkscape:window-width="896"
     inkscape:window-height="204"
     inkscape:window-x="0"
     inkscape:window-y="39"
     inkscape:window-maximized="0"
     inkscape:current-layer="layer1" />
  <defs
     id="defs1">
    <clipPath
       clipPathUnits="userSpaceOnUse"
       id="clipPath4898">
      <path
         d="M 0,3824 H 3162.283 V 0 H 0 Z"
         transform="translate(-3279.3091,-1516.6358)"
         id="path4898" />
    </clipPath>
    <inkscape:path-effect
       effect="fillet_chamfer"
       id="path-effect4"
       is_visible="true"
       lpeversion="1"
       nodesatellites_param="F,0,0,1,0,0,0,1 @ F,0,0,1,0,0,0,1 @ F,0,0,1,0,0,0,1 @ F,0,0,1,0,0,0,1 @ F,0,0,1,0,0,0,1 @ F,0,0,1,0,0,0,1 @ F,0,0,1,0,0,0,1 @ F,0,0,1,0,0,0,1 @ F,0,0,1,0,0,0,1 @ F,0,0,1,0,0,0,1 @ F,0,0,1,0,0,0,1 @ F,0,0,1,0,0,0,1 @ F,0,0,1,0,0,0,1 @ F,0,0,1,0,0,0,1 @ F,0,0,1,0,0,0,1 @ F,0,0,1,0,5.6386976,0,1 @ F,0,0,1,0,0,0,1 @ F,0,0,1,0,0,0,1 | F,0,0,1,0,0,0,1 @ F,0,0,1,0,0,0,1 @ F,0,0,1,0,0,0,1 @ F,0,0,1,0,0,0,1 @ F,0,0,1,0,0,0,1 | F,0,0,1,0,0,0,1 @ F,0,0,1,0,0,0,1 @ F,0,0,1,0,0,0,1 @ F,0,0,1,0,0,0,1 @ F,0,0,1,0,0,0,1 @ F,0,0,1,0,0,0,1 @ F,0,0,1,0,0,0,1 @ F,0,0,1,0,0,0,1 @ F,0,0,1,0,0,0,1 @ F,0,0,1,0,0,0,1 @ F,0,0,1,0,0,0,1 @ F,0,0,1,0,0,0,1 @ F,0,0,1,0,0,0,1 @ F,0,0,1,0,0,0,1 @ F,0,0,1,0,0,0,1"
       radius="0"
       unit="px"
       method="auto"
       mode="F"
       chamfer_steps="1"
       flexible="false"
       use_knot_distance="true"
       apply_no_radius="true"
       apply_with_radius="true"
       only_selected="false"
       hide_knots="false" />
  </defs>
  <g
     inkscape:label="Layer 1"
     inkscape:groupmode="layer"
     id="layer1"
     transform="translate(-68.791713,-116.68125)">
    <path
       d="m 205.31563,-19.530705 c -0.496,-2.614 -13.552,-71.417 -14.13,-74.461 -0.698,-3.679 -3.914,-6.340995 -7.659,-6.340995 H 40.375632 c -3.745,0 -6.96,2.661995 -7.659,6.341995 l -14.129,74.461 C 9.3426321,-12.889705 4.2806321,-2.4017049 4.2806321,8.3212951 V 45.453295 c 0,7.085 5.7439999,12.829 12.8289999,12.829 h 6.12 v 16.399 c 0,10.394 8.426,18.82 18.82,18.82 10.394,0 18.82,-8.426 18.82,-18.82 v -16.399 l 38.565748,0.392588 8.47743,-49.8855968 c 0.52173,-3.0701512 3.4692,-5.5520251 6.58336,-5.5433693 16.25146,0.045171 62.40011,0.1743281 68.22419,0.200466 l 36.51068,0.1638566 c -0.001,-11.025 -4.91241,-16.6729445 -13.91541,-23.1409445 z m -163.803998,56.036 c -9.866,0 -17.767,-8.02 -17.767,-17.767 0,-9.8119999 7.954,-17.76699985 17.767,-17.76699985 9.769,0 17.694,7.88499995 17.764,17.63799985 0,0.044 0.003,0.086 0.003,0.129 0,9.813 -7.955,17.767 -17.767,17.767 z m 119.387998,-94.015 h -40.747 c -9.855,0 -17.912,8.017 -17.961,17.872 l -0.063,13.68 c -69.178998,-10e-4 -64.239998,-0.057 -66.477998,0.131 l 11.18,-58.918 h 79.430998 c -0.898,1.979 -1.402,4.174 -1.402,6.489 0,8.688 7.043,15.73 15.73,15.73 8.688,0 15.73,-7.043 15.73,-15.73 0,-2.315 -0.504,-4.51 -1.402,-6.489 h 22.153 l 11.18,58.918 c -2.01,-0.169 -2.404,-0.131 -9.328,-0.131 l -0.063,-13.68 c -0.047,-9.855 -8.105,-17.872 -17.96,-17.872 z"
       style="fill:#b65acc;fill-opacity:1"
       id="path1-0"
       sodipodi:nodetypes="ccssccssscssscccsccssscsssscccccssscccccs"
       inkscape:path-effect="#path-effect4"
       inkscape:original-d="m 205.31563,-19.530705 c -0.496,-2.614 -13.552,-71.417 -14.13,-74.461 -0.698,-3.679 -3.914,-6.340995 -7.659,-6.340995 H 40.375632 c -3.745,0 -6.96,2.661995 -7.659,6.341995 l -14.129,74.461 C 9.3426321,-12.889705 4.2806321,-2.4017049 4.2806321,8.3212951 V 45.453295 c 0,7.085 5.7439999,12.829 12.8289999,12.829 h 6.12 v 16.399 c 0,10.394 8.426,18.82 18.82,18.82 10.394,0 18.82,-8.426 18.82,-18.82 v -16.399 l 38.565748,0.392588 9.42211,-55.4445973 c 0,0 66.77694,0.1842962 73.86287,0.2160972 l 36.51068,0.1638566 c -0.001,-11.025 -4.91241,-16.6729445 -13.91541,-23.1409445 z m -163.803998,56.036 c -9.866,0 -17.767,-8.02 -17.767,-17.767 0,-9.8119999 7.954,-17.76699985 17.767,-17.76699985 9.769,0 17.694,7.88499995 17.764,17.63799985 0,0.044 0.003,0.086 0.003,0.129 0,9.813 -7.955,17.767 -17.767,17.767 z m 119.387998,-94.015 h -40.747 c -9.855,0 -17.912,8.017 -17.961,17.872 l -0.063,13.68 c -69.178998,-10e-4 -64.239998,-0.057 -66.477998,0.131 l 11.18,-58.918 h 79.430998 c -0.898,1.979 -1.402,4.174 -1.402,6.489 0,8.688 7.043,15.73 15.73,15.73 8.688,0 15.73,-7.043 15.73,-15.73 0,-2.315 -0.504,-4.51 -1.402,-6.489 h 22.153 l 11.18,58.918 c -2.01,-0.169 -2.404,-0.131 -9.328,-0.131 l -0.063,-13.68 c -0.047,-9.855 -8.105,-17.872 -17.96,-17.872 z"
       transform="matrix(0.12159645,0,0,0.12159645,74.502956,128.88135)" />
    <path
       d="m 114.27121,142.46735 -2.10188,-11.07713 c -0.10385,-0.5473 -0.58227,-0.94331 -1.1394,-0.94331 H 89.734198 c -0.557133,0 -1.035394,0.39601 -1.139375,0.94346 l -1.78816,9.42332 h 2.360586 l 1.527069,-8.04755 h 11.816502 c -0.13361,0.29441 -0.20857,0.62094 -0.20857,0.96533 0,1.29247 1.04775,2.34006 2.34005,2.34006 1.29247,0 2.34006,-1.04774 2.34006,-2.34006 0,-0.34439 -0.075,-0.67092 -0.20857,-0.96533 h 3.29557 l 1.6632,8.76489 c -0.30007,-0.0253 -0.35941,-0.0195 -1.38769,-0.0195 l -0.009,-2.03509 c -0.007,-1.46607 -1.20603,-2.65872 -2.67211,-2.65872 -0.62971,0 -5.43271,0 -6.06168,0 -1.46608,0 -2.664673,1.19265 -2.671949,2.65872 l -0.0066,1.41608 c 0.470561,0.10756 0.903446,0.32223 1.269709,0.61901 0.55832,0.45239 0.96131,1.09565 1.10323,1.84334 l 1.96935,10.37749 c 0.10932,0.10012 0.21378,0.20455 0.31612,0.31092 h 4.39925 v 2.43958 c 0,1.54625 1.25349,2.79974 2.79974,2.79974 1.54626,0 2.79975,-1.25349 2.79975,-2.79974 v -2.43988 h 0.91043 c 1.05399,0 1.90849,-0.8545 1.90849,-1.9085 v -5.52391 c 0,-1.70751 -0.83963,-3.21777 -2.12807,-4.14323 z m -3.41011,8.33615 c -1.45968,0 -2.64311,-1.18327 -2.64311,-2.64309 0,-0.007 0,-0.0128 0,-0.0193 0.0103,-1.45075 1.18938,-2.62375 2.64266,-2.62375 1.45968,0 2.64308,1.18326 2.64308,2.64309 0,1.4497 -1.17523,2.64309 -2.64308,2.64309 z"
       id="path1"
       style="fill:#b65acc;fill-opacity:1;stroke-width:0.148764" />
    <path
       d="m 102.25293,155.65032 c -0.0826,-0.43509 -2.255656,-11.88698 -2.351861,-12.39364 -0.116178,-0.61235 -0.651465,-1.05543 -1.2748,-1.05543 H 74.799536 c -0.623335,0 -1.158455,0.44308 -1.2748,1.05559 l -2.351698,12.39365 c -1.538782,1.10519 -2.381325,2.85086 -2.381325,4.63565 v 6.18043 c 0,1.17926 0.956059,2.13532 2.13532,2.13532 h 1.018642 v 2.72952 c 0,1.73003 1.402463,3.13249 3.13249,3.13249 1.730026,0 3.13249,-1.40246 3.13249,-3.13249 v -2.72952 h 17.004828 v 2.72952 c 0,1.73003 1.402463,3.13249 3.13249,3.13249 1.730027,0 3.132487,-1.40246 3.132487,-3.13249 v -2.72952 h 1.01865 c 1.17909,0 2.13531,-0.9559 2.13531,-2.13532 v -6.18043 c -1.6e-4,-1.83505 -0.88298,-3.55926 -2.38149,-4.63582 z m -27.264313,9.3269 c -1.642143,0 -2.957223,-1.33489 -2.957223,-2.95723 0,-1.63315 1.323901,-2.95722 2.957223,-2.95722 1.625999,0 2.945074,1.31242 2.956725,2.93575 0,0.007 4.99e-4,0.0143 4.99e-4,0.0215 0,1.63333 -1.324068,2.95723 -2.957224,2.95723 z m 19.871506,-15.64831 h -6.782124 c -1.640313,0 -2.981358,1.33439 -2.989514,2.97471 l -0.01049,2.27696 c -11.514481,-1.7e-4 -10.692411,-0.009 -11.064914,0.0218 l 1.860852,-9.80659 H 89.09481 c -0.149467,0.3294 -0.233355,0.69474 -0.233355,1.08006 0,1.44607 1.17227,2.61818 2.618175,2.61818 1.446072,0 2.618176,-1.17227 2.618176,-2.61818 0,-0.38532 -0.08389,-0.75066 -0.233355,-1.08006 h 3.68725 l 1.860853,9.80659 c -0.334554,-0.0281 -0.400134,-0.0218 -1.552597,-0.0218 l -0.01049,-2.27696 c -0.0078,-1.64032 -1.349035,-2.97471 -2.989348,-2.97471 z m 3.577231,15.64831 c -1.633156,0 -2.957224,-1.3239 -2.957224,-2.95723 0,-0.007 4.99e-4,-0.0143 4.99e-4,-0.0216 0.01165,-1.62317 1.330726,-2.93559 2.956725,-2.93559 1.633156,0 2.957226,1.3239 2.957226,2.95722 0,1.62201 -1.31475,2.95723 -2.957226,2.95723 z"
       id="path2"
       style="fill:#b65acc;fill-opacity:1;stroke-width:0.166445"
       sodipodi:nodetypes="ccssccssscsssccssscssccssscsssscccccssscccccssscsss" />
    <path
       id="path4897"
       d="m 0,0 c 1.878,-10.701 20.017,-5.592 27.432,-5.453 27.938,0.52 55.938,-0.49 83.88,-0.023 0.636,-43.056 -29.513,-85.186 -69.834,-99.939 -90.592,-33.146 -174.865,55.79 -140.865,144.861 13.295,34.831 50.397,64.469 87.914,67.934 C -8.682,107.638 0,108.597 0,104.898 Z"
       style="fill:#b65acc;fill-opacity:1;fill-rule:nonzero;stroke:none"
       transform="matrix(0.35277776,0,0,-0.35277776,3239.4135,908.93623)"
       clip-path="url(#clipPath4898)" />
  </g>
</svg>
