<?xml version="1.0" encoding="UTF-8" standalone="no"?>
<svg
   viewBox="64.7603 119.2216 197.14648 205.74613"
   width="197.14627"
   height="205.7458"
   preserveAspectRatio="none"
   version="1.1"
   id="svg1"
   sodipodi:docname="angry.svg"
   inkscape:version="1.4.2 (ebf0e940, 2025-05-08)"
   xml:space="preserve"
   xmlns:inkscape="http://www.inkscape.org/namespaces/inkscape"
   xmlns:sodipodi="http://sodipodi.sourceforge.net/DTD/sodipodi-0.dtd"
   xmlns="http://www.w3.org/2000/svg"
   xmlns:svg="http://www.w3.org/2000/svg"><defs
     id="defs1" /><sodipodi:namedview
     id="namedview1"
     pagecolor="#ffffff"
     bordercolor="#000000"
     borderopacity="0.25"
     inkscape:showpageshadow="2"
     inkscape:pageopacity="0.0"
     inkscape:pagecheckerboard="0"
     inkscape:deskcolor="#d1d1d1"
     showgrid="false"
     inkscape:zoom="1.5361199"
     inkscape:cx="36.129992"
     inkscape:cy="87.232774"
     inkscape:window-width="1712"
     inkscape:window-height="971"
     inkscape:window-x="0"
     inkscape:window-y="39"
     inkscape:window-maximized="1"
     inkscape:current-layer="svg1" /><g
     style="fill:#7a7978;fill-opacity:1"
     id="g1"
     transform="matrix(0.80369563,0,0,0.80369563,62.9118,117.61421)"><path
       d="m 151,39.5 -15.1,27.1 14.2,-45 11.5,12.9 L 179.9,2 164,50.9 Z m 53.2,123.1 c 0,52.7 -42.7,95.4 -95.4,95.4 -52.7,0 -95.4,-42.7 -95.4,-95.4 0,-26.7 10.9,-50.7 28.6,-68.1 L 13.6,64.9 30.4,58.6 2.3,14.9 54.9,68.8 37.3,73.1 47.7,89.4 c 16.6,-13.8 37.9,-22.2 61.2,-22.2 18.5,0 35.8,5.3 50.4,14.4 L 196.3,35 204.1,55.7 247.6,24.3 197.8,85 187.7,65.9 164.5,85.3 c 24.1,17.3 39.7,45.4 39.7,77.3 z m -134.6,5.3 c 10,0 18.2,-7.4 19.6,-17 L 48,128 l -4.8,8.6 25.6,14.2 H 50 c 1.4,9.7 9.6,17.1 19.6,17.1 z m 88.4,42.4 c 0,-23.6 -22.1,-10.6 -49.3,-10.6 -27.2,0 -49.3,-13.2 -49.3,10.6 0,18.8 25.4,2.8 49.3,2.8 24.3,0 49.3,16 49.3,-2.8 z m -9.2,-59.4 25.6,-14.2 -4.8,-8.6 -41.1,22.9 c 1.4,9.6 9.6,17 19.6,17 10,0 18.2,-7.4 19.6,-17 h -18.9 z"
       id="path1"
       style="fill:#7a7978;fill-opacity:1" /></g></svg>
