<?xml version="1.0" encoding="utf-8"?>
<svg xmlns="http://www.w3.org/2000/svg" viewBox="365.3829 23.0151 277.3199 277.334" width="277.32px" height="277.334px" preserveAspectRatio="none"><g id="g251" transform="matrix(1, 0, 0, 1, -67.96290588378906, -22.32050371170044)"><path id="path252" d="m 0,0 c -1.689,5.049 -3.766,10.221 -4.882,15.494 -0.462,2.183 -2.404,3.743 -4.636,3.709 -4.061,-0.061 -51.406,-1.393 -69.18,0.531 -6.124,0.663 -2.598,6.176 -0.25,9.031 6.278,7.635 13.527,14.707 20.008,22.207 20.414,23.626 42.089,47.031 57.203,74.378 12.624,22.844 45.272,30.669 59.957,6.032 1.143,-1.919 3.41,-7.954 4.441,-8.991 1.617,-1.626 13.595,-5.074 16.877,-6.973 1.208,-0.698 2.494,-1.047 2.082,-2.652 -0.424,-1.647 -6.704,-6.008 -8.197,-7.185 -3.366,-2.654 -7.095,-5.562 -10.824,-7.542 C 62.459,87.717 63.058,77.999 60.706,67.861 55.008,43.298 35.693,23.516 10.419,19.729 12.5,16.434 15.257,2.572 17.258,0.533 c 1.489,-1.518 11.206,0.395 15.027,-1.135 6.792,-2.72 5.108,-12.246 -2.127,-13.115 l -39.629,0.138 C -19.499,-13.579 -19.244,0 -9.048,0 Z" style="fill:#7a7978;fill-opacity:1;fill-rule:nonzero;stroke:none" transform="matrix(1.3333333,0,0,-1.3333333,542.8264,240.7276)" clip-path="url(#clipPath253)"/><path id="path254" d="M 0,0 C -0.774,1.705 -0.02,3.716 1.686,4.49 3.391,5.264 5.401,4.51 6.175,2.804 6.95,1.099 6.195,-0.911 4.49,-1.686 2.785,-2.46 0.774,-1.705 0,0 m -62.922,-80.186 c 29.118,-29.46 77.364,0.594 54.899,41.311 -4.648,8.425 -17.915,22.083 -18.889,30.882 -0.779,7.034 6.342,12.241 12.923,10.03 7.963,-2.676 10.912,-17.986 21.402,-13.46 10.119,4.367 4.479,14.765 -0.069,21.23 -24.467,34.781 -75.324,4.661 -50.106,-37.286 5.049,-8.399 18.857,-22.819 18.978,-32.005 0.108,-8.234 -10.843,-14.725 -18.288,-12.763 -8.339,2.197 -12.355,10.974 -17.432,16.697 -5.04,5.681 -15.042,2.109 -14.911,-5.355 0.098,-5.578 7.535,-15.276 11.493,-19.281" style="fill:#7a7978;fill-opacity:1;fill-rule:nonzero;stroke:none" transform="matrix(1.3333333,0,0,-1.3333333,693.2344,199.99347)" clip-path="url(#clipPath255)"/></g></svg>