<?xml version="1.0" encoding="UTF-8" standalone="no"?>
<svg
   viewBox="232.1764 83.171 131.66262 140.82687"
   width="131.66248"
   height="140.82716"
   preserveAspectRatio="none"
   version="1.1"
   id="svg1"
   sodipodi:docname="cogs stuck.svg"
   xml:space="preserve"
   inkscape:version="1.4.2 (ebf0e940, 2025-05-08)"
   xmlns:inkscape="http://www.inkscape.org/namespaces/inkscape"
   xmlns:sodipodi="http://sodipodi.sourceforge.net/DTD/sodipodi-0.dtd"
   xmlns="http://www.w3.org/2000/svg"
   xmlns:svg="http://www.w3.org/2000/svg"><defs
     id="defs1" /><sodipodi:namedview
     id="namedview1"
     pagecolor="#ffffff"
     bordercolor="#000000"
     borderopacity="0.25"
     inkscape:showpageshadow="2"
     inkscape:pageopacity="0.0"
     inkscape:pagecheckerboard="0"
     inkscape:deskcolor="#d1d1d1"
     inkscape:zoom="2.6991033"
     inkscape:cx="4.6311677"
     inkscape:cy="41.680509"
     inkscape:window-width="896"
     inkscape:window-height="204"
     inkscape:window-x="0"
     inkscape:window-y="39"
     inkscape:window-maximized="0"
     inkscape:current-layer="svg1" /><path
     fill="#000000"
     fill-opacity="1"
     stroke-width="0.378747"
     stroke-linejoin="round"
     d="m 287.69054,216.68712 c 0.94328,2.40845 2.05472,4.73263 3.31974,6.95815 2.25601,0.23312 4.54573,0.35261 6.86347,0.35261 5.00838,0 9.88628,-0.55808 14.57518,-1.61555 -6.46863,-6.50554 -10.46613,-15.47086 -10.46613,-25.3698 0,-19.87172 16.10929,-35.98097 35.98108,-35.98097 9.5348,0 18.20341,3.70869 24.64175,9.76221 0.80937,-4.12853 1.23339,-8.39531 1.23339,-12.76093 0,-2.95045 -0.19374,-5.85543 -0.56907,-8.70342 -3.89278,-2.07023 -8.06924,-3.67764 -12.45591,-4.74911 l -0.63155,-15.45212 c -3.89257,-0.69595 -7.89842,-1.06542 -11.98795,-1.07868 l -3.40987,15.0838 c -6.07229,0.35261 -11.87489,1.70928 -17.24478,3.9062 l -9.59521,-12.13164 c -3.63315,1.75928 -7.08846,3.82818 -10.33188,6.17206 l 6.1094,14.2121 c -4.57168,3.7566 -8.51502,8.24987 -11.6484,13.29838 l -14.89807,-4.17625 c -1.88863,3.51458 -3.48146,7.21191 -4.74515,11.05865 l 13.29804,7.90767 c -1.1332,4.35445 -1.73636,8.9229 -1.73636,13.63205 l 0.14431,3.9776 -14.5072,5.37821 c 0.54709,4.03366 1.44302,7.95672 2.65635,11.73737 z m -10.52124,-60.21567 14.89787,4.17606 c 1.88882,-3.51458 3.48165,-7.21191 4.74514,-11.05846 l -13.29784,-7.90786 c 1.13321,-4.35445 1.73637,-8.92271 1.73637,-13.63205 l -0.1445,-3.9776 14.5072,-5.37821 c -0.54691,-4.03366 -1.44284,-7.95672 -2.65616,-11.73737 l -15.40483,1.41859 c -1.70967,-4.36509 -3.97137,-8.453313 -6.69929,-12.178703 -5.77516,2.15085 -11.16778,5.087563 -16.04776,8.680133 5.27577,6.26021 8.45479,14.34551 8.45479,23.17316 0,19.57175 -15.62677,35.49371 -35.08389,35.96998 0.55875,6.21145 1.97853,12.17464 4.13904,17.76948 5.39921,-0.49956 10.56783,-1.7945 15.38778,-3.76644 l 9.59501,12.13164 c 3.63315,-1.75928 7.08866,-3.82799 10.33206,-6.17206 l -6.10958,-14.2121 c 4.57168,-3.75641 8.5152,-8.24968 11.64859,-13.29819 z"
     id="path1"
     style="fill:#7a7978;fill-opacity:1" /><path
     style="fill:#7a7978;fill-opacity:1;stroke-width:4.62539;stroke-linecap:round"
     d="m 307.05555,108.27821 -0.76628,-21.631923 c -0.13176,-3.71889 0.64567,-3.98076 1.06099,-1.51578 0.51666,3.06637 0.90831,0.34575 1.19956,-1.84611 0.15056,-1.13345 -0.0769,6.74571 2.163,0.80906"
     id="path2"
     sodipodi:nodetypes="csssc" /><path
     style="fill:#7a7978;fill-opacity:1;stroke-width:5.22602;stroke-linecap:round"
     d="m 316.50235,114.65804 13.39732,-24.271533 c 2.30321,-4.1727 3.14609,-4.07815 1.90324,-1.15045 -1.54605,3.64196 0.56119,0.83029 2.23786,-1.44692 0.86699,-1.17761 -4.45113,7.41291 1.34564,1.96145"
     id="path2-8"
     sodipodi:nodetypes="csssc" /><path
     style="fill:#7a7978;fill-opacity:1;stroke-width:5.48897;stroke-linecap:round"
     d="m 328.9399,125.56918 27.12271,-14.67432 c 4.66283,-2.52277 5.35284,-2.01247 2.41295,-0.0536 -3.65711,2.43693 -0.0216,1.01811 2.89623,-0.14626 1.50882,-0.60212 -8.60316,4.29984 -0.0332,2.41523"
     id="path2-5"
     sodipodi:nodetypes="csssc" /></svg>
