<?xml version="1.0" encoding="UTF-8" standalone="no"?>
<svg
   viewBox="300.1816 46.789 143.65144 125.01898"
   width="143.65117"
   height="125.01878"
   preserveAspectRatio="none"
   version="1.1"
   id="svg1"
   sodipodi:docname="detective magnify.svg"
   xml:space="preserve"
   inkscape:version="1.4.2 (ebf0e940, 2025-05-08)"
   xmlns:inkscape="http://www.inkscape.org/namespaces/inkscape"
   xmlns:sodipodi="http://sodipodi.sourceforge.net/DTD/sodipodi-0.dtd"
   xmlns="http://www.w3.org/2000/svg"
   xmlns:svg="http://www.w3.org/2000/svg"><defs
     id="defs1" /><sodipodi:namedview
     id="namedview1"
     pagecolor="#ffffff"
     bordercolor="#000000"
     borderopacity="0.25"
     inkscape:showpageshadow="2"
     inkscape:pageopacity="0.0"
     inkscape:pagecheckerboard="0"
     inkscape:deskcolor="#d1d1d1"
     inkscape:zoom="3.4431846"
     inkscape:cx="151.45862"
     inkscape:cy="23.379519"
     inkscape:window-width="896"
     inkscape:window-height="204"
     inkscape:window-x="0"
     inkscape:window-y="39"
     inkscape:window-maximized="0"
     inkscape:current-layer="svg1" /><g
     id="g3"
     transform="rotate(85.507949,490.50253,144.22814)"
     style="fill:#7a7978;fill-opacity:1"><path
       fill-rule="evenodd"
       clip-rule="evenodd"
       d="m 420.63353,189.31063 -7.42756,26.54881 c 0.52445,0.71509 1.10982,1.39951 1.75622,2.04592 0.77838,0.77838 1.61168,1.46818 2.48732,2.06955 l 8.94557,-31.97445 c -1.96511,0.10759 -3.9154,0.54436 -5.76155,1.31017 z m 8.4428,-1.25301 -9.30528,33.26098 c 0.79035,0.37931 1.60345,0.69608 2.43151,0.95016 l 9.44639,-33.76494 c -0.84722,-0.21278 -1.7073,-0.3615 -2.57262,-0.4462 z"
       fill="#ffffff"
       id="path4"
       style="fill:#7a7978;fill-opacity:1;stroke-width:1.49631" /><path
       id="path2304"
       d="m 0,0 c -1.385,-1.153 -1.236,-0.832 -2.571,-1.236 -1.025,-0.31 -1.222,-1.486 -1.587,-2.317 -1.273,-2.903 -3.705,-7.245 -4.605,-9.997 l -0.005,-0.016 c -0.278,-0.852 0.184,-1.776 1.038,-2.048 5.315,-1.698 10.896,-3.051 16.065,-5.071 3.103,-1.213 5.522,-2.242 3.749,-6.201 -1.49,-3.326 -8.16,-8.507 -10.562,-11.559 -0.22,-0.281 -0.675,-0.254 -0.46,-0.982 8.528,-2.096 17.602,-6.919 23.339,-13.686 6.664,-7.861 8.729,-17.017 10.002,-27.019 0.095,-0.74 0.065,-1.703 -0.1,-2.695 -0.46,-2.759 -2.889,-4.759 -5.686,-4.759 l -142.772,0.009 c -3.986,0.001 -7.234,3.255 -7.17,7.241 0.012,0.741 0.057,1.41 0.11,1.927 1.903,18.664 10.439,29.94 27.586,36.559 0.681,0.263 5.858,2.1 5.85,2.918 -0.013,1.316 -3.8,3.952 -4.453,4.668 -1.832,2.009 -6.552,6.849 -6.743,9.33 -0.212,2.743 1.598,2.782 3.325,3.479 4.973,2.007 10.594,4.054 15.676,5.763 0.038,0.013 0.077,0.025 0.116,0.038 1.444,0.444 2.219,2.004 1.626,3.394 l -4.777,11.212 c -1.249,0.534 -1.711,0.484 -2.712,1.46 -4.54,4.429 -5.768,15.554 -2.094,21.063 3.007,-0.653 4.721,-0.685 6.89,-0.833 25.361,-1.736 55.658,-2.164 78.445,0.823 5.42,0.71 4.702,0.038 5.483,-3.986 C 4.101,11.821 5.193,4.325 0,0"
       style="fill:#7a7978;fill-opacity:1;fill-rule:nonzero;stroke:none"
       transform="matrix(0.05321772,-0.67739671,-0.67739671,-0.05321772,450.2178,249.27761)"
       clip-path="url(#clipPath2305)" /><path
       id="path2306"
       d="m 0,0 c 0.75,-0.317 3.615,-1.852 4.348,-2.515 8.839,-7.983 -10.441,-12.532 -15.353,-13.474 -21.896,-4.2 -49.665,-3.222 -72.059,-2.593 -14.492,0.407 -32.453,0.396 -46.198,5.122 -1.638,0.564 -12.628,4.631 -6.45,10.979 2.169,2.229 9.456,4.335 12.62,5.112 3.215,0.789 6.523,1.202 9.78,1.73 2.781,0.451 5.052,2.48 5.837,5.186 2.325,8.02 4.149,16.235 6.704,24.162 1.792,5.56 3.459,11.06 9.188,13.756 8.534,4.015 14.263,-2.478 21.53,-4.652 10.747,-3.214 18.632,8.222 28.574,5.625 4.997,-1.306 8.414,-5.661 10.127,-10.316 l 8.515,-30.215 c 0.452,-1.602 1.698,-2.86 3.302,-3.308 C -14.143,3.092 -3.071,1.299 0,0"
       style="fill:#7a7978;fill-opacity:1;fill-rule:nonzero;stroke:none"
       transform="matrix(0.05321772,-0.67739671,-0.67739671,-0.05321772,419.16773,231.72051)"
       clip-path="url(#clipPath2307)" /><path
       fill-rule="evenodd"
       clip-rule="evenodd"
       d="m 441.93267,218.2341 c 6.56193,-7.64243 6.22257,-19.17078 -1.01795,-26.4113 -7.59649,-7.59649 -19.91295,-7.59649 -27.50944,0 -7.5965,7.59649 -7.5965,19.91295 0,27.50944 7.24051,7.24052 18.76887,7.57988 26.4113,1.01794 l 2.33679,2.3368 c -0.79694,1.66869 -0.50456,3.72762 0.87759,5.10961 l 10.58044,10.58059 c 1.75309,1.75309 4.59533,1.75309 6.34842,0 1.75293,-1.75307 1.75293,-4.59533 0,-6.34826 l -10.5806,-10.58059 c -1.38199,-1.38214 -3.44107,-1.67452 -5.10976,-0.87744 z m -4.19208,-2.07599 c 5.84341,-5.84355 5.84341,-15.31762 0,-21.16118 -5.84356,-5.84341 -15.31763,-5.84341 -21.16118,0 -5.84341,5.84356 -5.84341,15.31763 0,21.16118 5.84355,5.8434 15.31762,5.8434 21.16118,0 z"
       fill="#fdafa4"
       id="path5"
       style="fill:#7a7978;fill-opacity:1;stroke-width:1.49631" /></g></svg>
