<?xml version="1.0" encoding="UTF-8" standalone="no"?>
<svg
   viewBox="294.0879 60.4015 227.5771 245.2628"
   width="227.577px"
   height="245.263px"
   preserveAspectRatio="none"
   version="1.1"
   id="svg1"
   sodipodi:docname="dinosaur.svg"
   inkscape:version="1.4.2 (ebf0e940, 2025-05-08)"
   xmlns:inkscape="http://www.inkscape.org/namespaces/inkscape"
   xmlns:sodipodi="http://sodipodi.sourceforge.net/DTD/sodipodi-0.dtd"
   xmlns="http://www.w3.org/2000/svg"
   xmlns:svg="http://www.w3.org/2000/svg">
  <defs
     id="defs1" />
  <sodipodi:namedview
     id="namedview1"
     pagecolor="#ffffff"
     bordercolor="#000000"
     borderopacity="0.25"
     inkscape:showpageshadow="2"
     inkscape:pageopacity="0.0"
     inkscape:pagecheckerboard="0"
     inkscape:deskcolor="#d1d1d1"
     inkscape:zoom="2.3834258"
     inkscape:cx="90.416074"
     inkscape:cy="107.40842"
     inkscape:window-width="1712"
     inkscape:window-height="971"
     inkscape:window-x="0"
     inkscape:window-y="39"
     inkscape:window-maximized="1"
     inkscape:current-layer="svg1" />
  <g
     id="g4218"
     transform="matrix(-0.74450763,0,0,0.72059223,9814.1481,64.253334)">
    <path
       id="path4219"
       d="m 0,0 c 1.386,0 2.468,-1.221 2.284,-2.595 -1.084,-8.095 -8.691,-10.19 -16.562,-10.612 -5.674,-0.304 -12.97,1.611 -18.233,0.609 -5.495,-1.046 -3.748,-16.602 -3.479,-20.753 7.708,0.019 18.537,-4.122 20.913,-12.129 0.799,-2.69 1.696,-8.49 -2.346,-8.695 -3.299,-0.167 -4.053,3.018 -6.286,4.471 -2.973,1.934 -6.907,1.199 -10.3,1.167 -0.859,-4.874 -1.55,-9.273 -3.386,-13.921 -0.72,-1.823 -4.725,-8.452 -4.781,-9.059 -0.046,-0.499 3.166,-5.346 3.779,-6.713 5.403,-12.066 0.786,-23.235 0.48,-35.333 -0.298,-11.835 9.77,-7.004 13.293,-13.191 1.163,-2.041 1.231,-7.707 -1.306,-8.828 -1.429,-0.63 -22.134,-0.672 -24.862,-0.343 -9.032,1.089 -6.589,14.58 -7.23,21.087 -0.855,8.669 -2.304,18.1 -9.124,24.228 -1.952,-3.118 -4.431,-6.083 -7.228,-8.499 -3.457,-2.986 -16.13,-9.407 -16.87,-12.715 -0.49,-2.192 0.51,-6.732 2.021,-8.407 2.258,-2.503 8.451,-2.542 11.075,-5.465 2.041,-2.273 3.276,-8.431 -0.024,-9.886 -1.524,-0.671 -20.161,-0.63 -22.961,-0.33 -4.22,0.451 -6.994,2.804 -8.319,6.784 -1.777,5.334 -3.457,20.693 -2.545,26.101 0.75,4.444 5.6,8.413 2.99,13.683 -14.73,-4.401 -32.861,-1.609 -44.689,8.482 -2.718,2.32 -10.372,9.651 -6.264,13.197 3.043,2.627 9.063,-1.657 12.948,-2.11 2.071,-0.242 5.187,-0.294 7.19,0.228 5.648,1.471 25.636,27.721 31.129,33.69 10.014,10.885 22.72,21.42 31.427,33.393 8.006,11.009 3.12,24.854 11.052,37.401 11.297,17.871 27.557,12.67 45.028,10.376 7.311,-0.961 12.556,0.227 19.618,-3.669 C 9.872,35.333 10.242,24.132 9.106,12.749 8.884,10.532 7.018,8.843 4.791,8.843 h -32.874 c -1.036,0 -1.424,-1.361 -0.539,-1.9 C -24.361,4.345 -16.359,0 -10.495,0 Z"
       style="fill:#7a7978;fill-opacity:1;fill-rule:nonzero;stroke:none"
       transform="matrix(1.3333333,0,0,-1.3333333,12701.075,125.1276)"
       clip-path="url(#clipPath4220)" />
  </g>
  <g
     id="g2940"
     transform="matrix(0.43856819,0,0,0.43856615,-3487.6768,160.29579)">
    <path
       id="path2941"
       d="m 0,0 c 12.744,2.168 36.171,-16.673 45.149,-25.332 11.019,-10.627 30.88,-36.993 32.65,-52.156 3.061,-26.224 -24.414,-12.67 -38.415,-11.625 -14.32,1.068 -32.507,-2.686 -45.572,-8.62 -4.946,-2.246 -13.119,-6.818 -4.67,-11.002 11.494,-1.052 24.279,0.935 35.612,-0.104 9.761,-0.895 8.667,-15.92 -0.076,-17.208 -4.509,-0.663 -7.037,2.069 -10.78,2.531 -17.697,2.183 -47.145,-8.122 -50.539,18.334 -2.489,19.396 15.19,28.486 22.893,43.698 4.295,8.483 6.133,19.964 5.62,29.435 C -8.643,-22.532 -14.32,-2.436 0,0"
       style="fill:#7a7978;fill-opacity:1;fill-rule:nonzero;stroke:none"
       transform="matrix(1.3333333,0,0,-1.3333333,8695.9571,61.359333)"
       clip-path="url(#clipPath2942)" />
    <path
       id="path2943"
       d="m 0,0 c 1.322,-1.19 2.142,-6.503 1.493,-10.501 -0.433,-2.665 -2.792,-4.589 -5.492,-4.591 l -102.781,-0.043 c -6.764,0.761 -5.779,9.174 -4.054,13.36 1.243,3.018 4.952,3.1 5.662,6.251 1.737,7.709 -0.994,20.704 0.192,29.136 0.272,1.932 1.288,4.416 3.467,4.822 L -7.91,38.32 c 1.52,-0.785 2.698,-2.356 2.966,-4.049 C -3.608,25.833 -6.185,14.311 -4.755,5.77 -3.982,1.154 -2.228,2.007 0,0"
       style="fill:#7a7978;fill-opacity:1;fill-rule:nonzero;stroke:none"
       transform="matrix(1.3333333,0,0,-1.3333333,8789.4635,286.69)"
       clip-path="url(#clipPath2944)" />
  </g>
</svg>
