<?xml version="1.0" encoding="UTF-8" standalone="no"?>
<svg
   viewBox="238.7432 59.5334 160.0068 245.7405"
   width="160.007px"
   height="245.74px"
   preserveAspectRatio="none"
   version="1.1"
   id="svg1"
   sodipodi:docname="dominos.svg"
   xml:space="preserve"
   inkscape:version="1.4.2 (ebf0e940, 2025-05-08)"
   xmlns:inkscape="http://www.inkscape.org/namespaces/inkscape"
   xmlns:sodipodi="http://sodipodi.sourceforge.net/DTD/sodipodi-0.dtd"
   xmlns="http://www.w3.org/2000/svg"
   xmlns:svg="http://www.w3.org/2000/svg"><defs
     id="defs1"><inkscape:path-effect
       effect="fillet_chamfer"
       id="path-effect2"
       is_visible="true"
       lpeversion="1"
       nodesatellites_param="F,0,0,1,0,0,0,1 @ F,0,0,1,0,0,0,1 @ F,0,0,1,0,0,0,1 @ F,0,0,1,0,29.219884,0,1 @ F,0,0,1,0,0,0,1 @ F,0,0,1,0,0,0,1 @ F,0,0,1,0,0,0,1"
       radius="0"
       unit="px"
       method="auto"
       mode="F"
       chamfer_steps="1"
       flexible="false"
       use_knot_distance="true"
       apply_no_radius="true"
       apply_with_radius="true"
       only_selected="false"
       hide_knots="false" /><inkscape:path-effect
       effect="fillet_chamfer"
       id="path-effect1"
       is_visible="true"
       lpeversion="1"
       nodesatellites_param="F,0,0,1,0,0,0,1 @ F,0,0,1,0,0,0,1 @ F,0,0,1,0,0,0,1 @ F,0,0,1,0,0,0,1 @ F,0,0,1,0,0,0,1 @ F,0,0,1,0,0,0,1 @ F,0,0,1,0,0,0,1"
       radius="0"
       unit="px"
       method="auto"
       mode="F"
       chamfer_steps="1"
       flexible="false"
       use_knot_distance="true"
       apply_no_radius="true"
       apply_with_radius="true"
       only_selected="false"
       hide_knots="false" /><inkscape:path-effect
       effect="fillet_chamfer"
       id="path-effect2-7"
       is_visible="true"
       lpeversion="1"
       nodesatellites_param="F,0,0,1,0,0,0,1 @ F,0,0,1,0,0,0,1 @ F,0,0,1,0,0,0,1 @ F,0,0,1,0,29.219884,0,1 @ F,0,0,1,0,0,0,1 @ F,0,0,1,0,0,0,1 @ F,0,0,1,0,0,0,1"
       radius="0"
       unit="px"
       method="auto"
       mode="F"
       chamfer_steps="1"
       flexible="false"
       use_knot_distance="true"
       apply_no_radius="true"
       apply_with_radius="true"
       only_selected="false"
       hide_knots="false" /></defs><sodipodi:namedview
     id="namedview1"
     pagecolor="#ffffff"
     bordercolor="#000000"
     borderopacity="0.25"
     inkscape:showpageshadow="2"
     inkscape:pageopacity="0.0"
     inkscape:pagecheckerboard="0"
     inkscape:deskcolor="#d1d1d1"
     showgrid="true"
     inkscape:zoom="0.61596601"
     inkscape:cx="-88.478908"
     inkscape:cy="-77.926377"
     inkscape:window-width="1712"
     inkscape:window-height="971"
     inkscape:window-x="0"
     inkscape:window-y="39"
     inkscape:window-maximized="1"
     inkscape:current-layer="svg1"><inkscape:grid
       id="grid2"
       units="px"
       originx="0"
       originy="0"
       spacingx="0.99999873"
       spacingy="1.000002"
       empcolor="#0099e5"
       empopacity="0.30196078"
       color="#0099e5"
       opacity="0.14901961"
       empspacing="5"
       enabled="true"
       visible="true" /></sodipodi:namedview><path
     id="path1"
     style="fill:#7a7978;fill-opacity:1;stroke-width:0.418306"
     d="m 326.66141,109.42124 c -4.61307,0 -8.36616,3.75311 -8.36616,8.36619 v 11.60235 h 39.66161 c 4.61307,0 8.36572,3.75311 8.36572,8.36619 v 94.50617 h 19.57594 c 4.61307,0 8.36616,-3.7531 8.36616,-8.36619 V 117.78743 c 0,-4.61308 -3.75309,-8.36619 -8.36616,-8.36619 z m 24.62055,27.527 c -16.74275,-0.005 -60.01062,0.45878 -59.99081,0.28623 -4.44243,0.19389 -8.88897,3.86855 -8.88897,8.35791 v 11.27386 h 40.12734 c 4.61308,0 8.36616,3.7531 8.36616,8.36619 v 94.83467 h 19.10934 c 4.07624,0 7.48125,-2.93039 8.21847,-6.79516 0.0892,-13.62261 -0.0421,-73.15422 -0.37991,-109.63659 -0.0333,-3.59957 -2.97006,-6.686 -6.56162,-6.68711 z m -35.87172,27.87858 c -7.6578,-0.0542 -60.4755,0.27117 -60.47005,0.20433 h -0.0649 c -4.61307,0 -8.36617,3.75311 -8.36617,8.36619 v 106.10852 c 0,4.61309 3.7531,8.36619 8.36617,8.36619 h 59.23667 c 4.61307,0 8.36616,-3.7531 8.36616,-8.36619 v -9.30854 l -0.53326,-98.63938 c -0.0195,-3.59968 -2.94307,-6.7057 -6.53461,-6.73112 z m -30.91685,11.58144 c 6.1424,0 11.12221,4.97939 11.12221,11.12181 0,6.14241 -4.97981,11.12181 -11.12221,11.12181 -6.14239,0 -11.12177,-4.9794 -11.12177,-11.12181 0,-6.14242 4.97938,-11.12181 11.12177,-11.12181 z m -29.88997,44.84753 h 59.78039 v 6.51154 h -59.78039 z m 44.0244,15.08772 c 6.14239,0 11.12177,4.97939 11.12177,11.12181 0,6.14241 -4.97938,11.12224 -11.12177,11.12224 -6.14239,0 -11.12221,-4.97983 -11.12221,-11.12224 0,-6.14242 4.97982,-11.12181 11.12221,-11.12181 z M 270.3594,254.88 c 6.1424,0 11.12177,4.9794 11.12177,11.12181 0,6.14241 -4.97937,11.12224 -11.12177,11.12224 -6.14239,0 -11.12177,-4.97983 -11.12177,-11.12224 0,-6.14241 4.97938,-11.12181 11.12177,-11.12181 z"
     sodipodi:nodetypes="sscsscsssssccscsscscscscssssssccsssssscccccssssssssss" /></svg>
