<?xml version="1.0" encoding="UTF-8" standalone="no"?>
<svg
   viewBox="232.0388 89.3218 191.54207 153.48942"
   width="191.54213"
   height="153.48909"
   preserveAspectRatio="none"
   version="1.1"
   id="svg1"
   sodipodi:docname="eye crying.svg"
   inkscape:version="1.4.2 (ebf0e940, 2025-05-08)"
   xmlns:inkscape="http://www.inkscape.org/namespaces/inkscape"
   xmlns:sodipodi="http://sodipodi.sourceforge.net/DTD/sodipodi-0.dtd"
   xmlns="http://www.w3.org/2000/svg"
   xmlns:svg="http://www.w3.org/2000/svg">
  <defs
     id="defs1" />
  <sodipodi:namedview
     id="namedview1"
     pagecolor="#ffffff"
     bordercolor="#000000"
     borderopacity="0.25"
     inkscape:showpageshadow="2"
     inkscape:pageopacity="0.0"
     inkscape:pagecheckerboard="0"
     inkscape:deskcolor="#d1d1d1"
     inkscape:zoom="1.1607681"
     inkscape:cx="129.65552"
     inkscape:cy="105.96431"
     inkscape:window-width="1712"
     inkscape:window-height="971"
     inkscape:window-x="0"
     inkscape:window-y="39"
     inkscape:window-maximized="1"
     inkscape:current-layer="svg1"
     showgrid="false" />
  <path
     id="path2790"
     d="m 340.62003,137.90102 c -13.83453,-0.37443 -12.13534,21.4298 1.92458,18.05995 9.46374,-2.26865 8.54101,-17.7766 -1.92458,-18.05995 m -45.48245,-11.66155 c -0.52346,-0.50599 -6.75811,3.93931 -7.7526,4.64033 -2.58327,1.82062 -5.67254,4.16839 -8.04146,6.23648 -2.66148,2.32385 -13.99552,13.35246 -13.40858,16.35341 0.61546,3.14814 15.46563,16.4776 18.74533,18.90724 37.24779,27.59269 79.72745,16.22829 106.33301,-19.02776 0.50415,-2.29165 -10.139,-12.71584 -12.43525,-14.72965 -1.64306,-1.4416 -16.20805,-12.66249 -17.29729,-11.62844 18.03051,33.75282 -19.0066,69.07971 -52.36199,50.45949 -18.61102,-10.39015 -22.9864,-32.73441 -13.78117,-51.2111 m 24.65246,-36.599208 c 39.74091,-3.275097 73.43669,19.104118 97.08915,49.010538 5.19691,6.57135 9.20339,9.87404 4.84181,18.32398 -5.98626,11.59991 -21.90359,28.08119 -32.27535,36.10886 -52.13016,40.34625 -108.98253,22.40038 -147.65167,-25.17133 -1.8243,-2.24473 -9.20247,-11.64867 -9.64866,-13.67353 -1.30267,-5.90713 9.69466,-18.16298 13.75173,-22.75732 19.29731,-21.85391 43.88722,-39.368316 73.89299,-41.841198"
     style="fill:#7a7978;fill-opacity:1;fill-rule:nonzero;stroke:none;stroke-width:0.919971"
     clip-path="url(#clipPath2791)" />
  <path
     style="fill:#7a7978;stroke-width:10.5222;stroke-linecap:round"
     d="m 418.50953,186.44672 c -5.72651,35.37462 18.32079,59.05674 -12.83206,56.11873 -31.15287,-2.93802 14.30305,-79.11775 14.30305,-79.11775"
     id="path1"
     sodipodi:nodetypes="csc" />
</svg>
