<?xml version="1.0" encoding="utf-8"?>
<svg xmlns="http://www.w3.org/2000/svg" viewBox="21.5923 62.6114 245.3354 277.3282" width="245.335px" height="277.328px" preserveAspectRatio="none"><defs><clipPath clipPathUnits="userSpaceOnUse" id="clipPath1130"><path d="M 0,276 H 276 V 0 H 0 Z" transform="translate(-161.21033,-143.4064)" id="path1130"/></clipPath><clipPath clipPathUnits="userSpaceOnUse" id="clipPath1132"><path d="M 0,276 H 276 V 0 H 0 Z" transform="translate(-222.80483,-201.29481)" id="path1132"/></clipPath></defs><g id="g1128" transform="matrix(1, 0, 0, 1, -3143.739501953125, 17.270874023437507)"><path id="path1129" d="m 0,0 c 4.501,9.529 9.44,21.851 -4.195,26.081 -8.341,2.588 -17.256,-0.596 -25.225,-3.098 1.062,9.923 -3.52,21.747 -12.915,26.11 -7.457,3.462 -21.616,1.277 -29.076,-1.801 -11.027,-4.55 -16.046,-19.141 -12.595,-30.165 -8.89,1.163 -18.983,2.109 -26.382,-3.902 -9.388,-7.625 -3.172,-16.343 2.634,-24.035 11.424,-15.137 29.082,-26.164 48.754,-23.489 l 3.271,-30.489 c -11.215,12.796 -26.825,21.333 -44.356,17.424 -5.569,-1.242 -4.406,-5.146 -3.483,-9.772 4.628,-23.197 28.142,-34.79 50.307,-30.653 l 1.635,-15.245 c 0.439,-4.086 5.719,-6.834 9.616,-6.31 3.591,0.482 7.91,4.392 7.507,8.147 l -1.521,14.175 c 21.043,1.346 41.261,13.966 43.932,36.181 1.612,13.402 -0.19,15.635 -13.753,13.039 -10.615,-2.032 -20.924,-10.123 -26.925,-18.858 l -5.492,-9.501 -3.616,33.699 C -22.096,-30.805 -8.099,-17.145 0,0" style="fill:#7a7978;fill-opacity:1;fill-rule:nonzero;stroke:none" transform="matrix(1.3333333,0,0,-1.3333333,3318.9471,176.79147)" clip-path="url(#clipPath1130)"/><path id="path1131" d="m 0,0 -15.314,-20.2 c -0.492,-0.816 -1.922,-0.147 -2.713,0.123 -1.937,0.665 -3.752,1.873 -5.499,2.928 L -5.367,6.689 C -4.092,6.248 0.327,0.977 0,0 m -0.434,9.379 -3.328,2.535 c 14.178,3.198 13.862,18.128 -2.055,17.35 -7.071,-0.347 -14.285,-3.504 -20.331,-7.039 -3.767,3.493 -8.599,3.963 -13.425,3.089 -1.225,2.955 -1.854,6.413 -1.36,9.591 0.267,1.715 1.768,4.357 -0.277,5.527 -1.05,0.601 -2.47,0.127 -3.177,-0.792 -2.906,-3.778 -1.36,-12.216 0.08,-16.405 -2.497,-1.845 -4.259,-4.427 -5.508,-7.23 -4.438,0.323 -12.97,-0.481 -15.843,-4.289 -1.234,-1.635 -0.325,-4.19 1.89,-3.99 0.944,0.085 2.993,1.691 4.136,2.176 2.674,1.134 6.352,1.523 9.147,0.791 0.282,-4.738 2.376,-9.298 6.47,-11.935 -2.243,-7.512 -3.672,-18.457 -0.115,-25.727 4.813,-9.839 14.367,-6.602 15.843,3.493 0.067,0.456 0.092,3.592 0.314,3.606 l 3.757,-2.862 c 4.438,-3.381 13.603,-3.938 18.786,-2.198 2.216,0.744 4.728,2.812 6.296,3.294 1.309,0.402 4.265,-0.692 5.318,0.69 1.033,1.356 -0.748,4.039 -0.689,5.319 0.053,1.129 1.327,3.823 1.572,5.605 0.841,6.119 -2.531,15.615 -7.501,19.401" style="fill:#7a7978;fill-opacity:1;fill-rule:nonzero;stroke:none" transform="matrix(1.3333333,0,0,-1.3333333,3401.0731,99.606933)" clip-path="url(#clipPath1132)"/></g></svg>