<?xml version="1.0" encoding="UTF-8" standalone="no"?>
<svg
   viewBox="274.5557 72.5774 246.5615 228.2587"
   width="246.562px"
   height="228.259px"
   preserveAspectRatio="none"
   version="1.1"
   id="svg1"
   sodipodi:docname="holding breath.svg"
   xml:space="preserve"
   inkscape:version="1.4.2 (ebf0e940, 2025-05-08)"
   xmlns:inkscape="http://www.inkscape.org/namespaces/inkscape"
   xmlns:sodipodi="http://sodipodi.sourceforge.net/DTD/sodipodi-0.dtd"
   xmlns="http://www.w3.org/2000/svg"
   xmlns:svg="http://www.w3.org/2000/svg"><defs
     id="defs1" /><sodipodi:namedview
     id="namedview1"
     pagecolor="#ffffff"
     bordercolor="#000000"
     borderopacity="0.25"
     inkscape:showpageshadow="2"
     inkscape:pageopacity="0.0"
     inkscape:pagecheckerboard="0"
     inkscape:deskcolor="#d1d1d1"
     inkscape:zoom="0.88624091"
     inkscape:cx="5.0776261"
     inkscape:cy="303.52921"
     inkscape:window-width="1712"
     inkscape:window-height="971"
     inkscape:window-x="0"
     inkscape:window-y="39"
     inkscape:window-maximized="1"
     inkscape:current-layer="svg1" /><g
     style="fill:#000000"
     id="g1"
     transform="matrix(6.7540621,0,0,6.7540621,16.253534,428.83608)"><path
       d="m 45.3361,-44.83364 c -0.135762,0.02734 -0.260875,0.117188 -0.362031,0.25 -0.883782,1.054688 -2.422415,1.46875 -3.322169,1.46875 -0.41261,0 -0.782626,-0.09375 -1.21387,-0.09375 -0.244903,-0.0039 -0.473834,0.183594 -0.598948,0.496094 -0.122452,0.3125 -0.122452,0.695312 0,1.007812 0.125114,0.3125 0.354045,0.5 0.598948,0.496094 0.250228,0 0.670823,0.09375 1.21387,0.09375 1.024867,0 2.512922,-0.449219 3.748088,-1.625 1.237827,1.191406 2.717896,1.625 3.748088,1.625 1.024868,0 2.512923,-0.449219 3.748088,-1.625 1.237828,1.191406 2.717896,1.625 3.748088,1.625 1.024868,0 2.512923,-0.449219 3.748089,-1.625 1.237827,1.191406 2.717896,1.625 3.748088,1.625 1.024868,0 2.512923,-0.449219 3.748088,-1.625 1.237827,1.191406 2.717896,1.625 3.748088,1.625 0.543047,0 1.048826,-0.117187 1.490717,-0.375 0.354045,-0.207031 0.524413,-0.792969 0.383327,-1.3125 -0.141085,-0.519531 -0.540385,-0.769531 -0.89443,-0.5625 -0.239579,0.140625 -0.567004,0.25 -0.979614,0.25 -0.899754,0 -2.417091,-0.414062 -3.300873,-1.46875 -0.25289,-0.308594 -0.620244,-0.308594 -0.873134,0 -0.883782,1.054688 -2.422415,1.46875 -3.322169,1.46875 -0.899754,0 -2.417091,-0.414062 -3.300873,-1.46875 -0.25289,-0.308594 -0.620245,-0.308594 -0.873134,0 -0.883783,1.054688 -2.422415,1.46875 -3.32217,1.46875 -0.899753,0 -2.417091,-0.414062 -3.300873,-1.46875 -0.252889,-0.308594 -0.620244,-0.308594 -0.873134,0 -0.883782,1.054688 -2.422414,1.46875 -3.322169,1.46875 -0.899754,0 -2.417091,-0.414062 -3.300873,-1.46875 -0.122451,-0.160156 -0.282171,-0.25 -0.447215,-0.25 z"
       id="path1"
       sodipodi:nodetypes="ccsccccscscscscscscsccsccsccscsc"
       style="fill:#7a7978;fill-opacity:1;stroke-width:0.825512" /><g
       style="fill:#7a7978;fill-opacity:1"
       id="g2"
       transform="matrix(0.5263158,0,0,0.5263158,16.013385,-59.602779)"><path
         fill-rule="evenodd"
         clip-rule="evenodd"
         d="m 58.25,72.8 c 8,-8 25.53,-8 33.44,0 z m 8.57,-19.3 c 0,-12.62 18.21,-10.39 16.8,0.85 -1.35,10.82 -16.8,11.94 -16.8,-0.85 z"
         fill="#000000"
         id="path1-6"
         sodipodi:nodetypes="cccscs"
         style="fill:#7a7978;fill-opacity:1" /></g><path
       style="fill:#7a7978;fill-opacity:1;stroke-width:0.186401;stroke-linecap:round"
       d="m 59.635581,-36.472589 c -1.326494,1.733342 3.12328,1.967988 1.51494,0.169103 -0.342696,-0.27967 -0.793707,-0.382038 -1.226671,-0.399729"
       id="path2" /><path
       style="fill:#7a7978;fill-opacity:1;stroke-width:0.232276;stroke-linecap:round"
       d="m 61.979735,-38.639731 c -1.652958,2.159936 3.891953,2.452331 1.887784,0.210721 -0.427038,-0.3485 -0.989047,-0.476062 -1.528568,-0.498107"
       id="path2-7" /><path
       style="fill:#7a7978;fill-opacity:1;stroke-width:0.26286;stroke-linecap:round"
       d="m 59.461088,-41.209263 c -1.870602,2.444332 4.404401,2.775227 2.136345,0.238467 -0.483265,-0.394387 -1.119274,-0.538745 -1.729833,-0.563692"
       id="path2-0" /></g></svg>
