<?xml version="1.0" encoding="UTF-8" standalone="no"?>
<svg
   viewBox="291.0228 58.3215 159.767 245.0318"
   width="159.767px"
   height="245.032px"
   preserveAspectRatio="none"
   version="1.1"
   id="svg1"
   sodipodi:docname="bubble tea.svg"
   xml:space="preserve"
   inkscape:version="1.4.2 (ebf0e940, 2025-05-08)"
   xmlns:inkscape="http://www.inkscape.org/namespaces/inkscape"
   xmlns:sodipodi="http://sodipodi.sourceforge.net/DTD/sodipodi-0.dtd"
   xmlns="http://www.w3.org/2000/svg"
   xmlns:svg="http://www.w3.org/2000/svg"><defs
     id="defs1" /><sodipodi:namedview
     id="namedview1"
     pagecolor="#ffffff"
     bordercolor="#000000"
     borderopacity="0.25"
     inkscape:showpageshadow="2"
     inkscape:pageopacity="0.0"
     inkscape:pagecheckerboard="0"
     inkscape:deskcolor="#d1d1d1"
     inkscape:zoom="0.21629828"
     inkscape:cx="80.906792"
     inkscape:cy="120.20438"
     inkscape:window-width="1712"
     inkscape:window-height="971"
     inkscape:window-x="0"
     inkscape:window-y="39"
     inkscape:window-maximized="1"
     inkscape:current-layer="g6" /><style
     type="text/css"
     id="style1">
	.st0{fill:#000000;}
</style><g
     id="g6"
     transform="matrix(1.5625,0,0,1.5625,-242.9772,680.3215)"
     style="fill:#7a7978;fill-opacity:1">
	
	
	
	
	
	<g
   id="g1"
   transform="matrix(0.23355948,0,0,0.23355948,332.31711,-372.8185)"><path
     class="st0"
     d="m 315.883,231.15 82.752,-115.13 c 7.152,-9.942 11.039,-21.784 11.039,-33.93 V 46.13 h 23.911 V 0 H 78.415 v 46.13 h 23.912 v 35.96 c 0,12.145 3.886,23.988 11.039,33.93 l 82.752,115.13 c 2.963,4.136 4.472,8.857 4.483,13.665 v 22.36 c -0.011,4.808 -1.52,9.53 -4.483,13.665 l -82.752,115.141 c -7.154,9.942 -11.039,21.783 -11.039,33.918 V 465.87 H 78.415 V 512 H 433.584 V 465.871 H 409.673 V 429.9 c 0,-12.135 -3.887,-23.976 -11.039,-33.918 L 315.883,280.84 c -2.963,-4.136 -4.482,-8.857 -4.482,-13.665 v -22.36 c 0,-4.808 1.519,-9.529 4.482,-13.665 z m 70.726,230.107 H 125.393 V 429.9 c 0,-7.229 2.291,-14.317 6.696,-20.46 l 82.753,-115.141 c 5.708,-7.934 8.824,-17.41 8.824,-27.124 v -22.36 c 0,-9.714 -3.115,-19.202 -8.824,-27.124 L 132.1,102.561 C 127.683,96.406 125.392,89.329 125.392,82.09 V 50.743 H 386.608 V 82.09 c -0.011,7.239 -2.291,14.316 -6.709,20.471 l -82.752,115.13 c -5.698,7.922 -8.813,17.41 -8.813,27.124 v 22.36 c 0,9.714 3.114,19.19 8.813,27.124 L 379.91,409.44 c 4.407,6.143 6.686,13.231 6.698,20.46 v 31.357 z"
     id="path1"
     style="fill:#7a7978;fill-opacity:1" /><path
     class="st0"
     d="m 236.268,232.929 h 39.466 c 1.672,-8.314 5.091,-16.237 10.181,-23.314 l 59.491,-82.774 H 166.595 l 59.492,82.774 c 5.09,7.077 8.498,15.001 10.181,23.314 z"
     id="path2"
     style="fill:#7a7978;fill-opacity:1" /><path
     class="st0"
     d="m 246.753,381.588 -65.82,65.831 h 150.134 l -65.82,-65.831 c -5.11,-5.101 -13.382,-5.101 -18.494,0 z"
     id="path3"
     style="fill:#7a7978;fill-opacity:1" /><path
     class="st0"
     d="m 255.632,247.995 c -5.688,0 -10.301,4.614 -10.301,10.312 0,5.688 4.614,10.3 10.301,10.3 5.687,0 10.311,-4.612 10.311,-10.3 0,-5.698 -4.624,-10.312 -10.311,-10.312 z"
     id="path4"
     style="fill:#7a7978;fill-opacity:1" /><path
     class="st0"
     d="m 255.632,289.513 c -5.688,0 -10.301,4.613 -10.301,10.3 0,5.698 4.614,10.312 10.301,10.312 5.687,0 10.311,-4.614 10.311,-10.312 0,-5.687 -4.624,-10.3 -10.311,-10.3 z"
     id="path5"
     style="fill:#7a7978;fill-opacity:1" /><path
     class="st0"
     d="m 255.632,332.245 c -5.688,0 -10.301,4.613 -10.301,10.311 0,5.687 4.614,10.312 10.301,10.312 5.687,0 10.311,-4.625 10.311,-10.312 0,-5.698 -4.624,-10.311 -10.311,-10.311 z"
     id="path6"
     style="fill:#7a7978;fill-opacity:1" /></g>
</g></svg>
