<?xml version="1.0" encoding="UTF-8" standalone="no"?>
<svg
   viewBox="289.5791 58.0134 130.55798 217.83548"
   width="130.55798"
   height="217.83583"
   preserveAspectRatio="none"
   version="1.1"
   id="svg1"
   sodipodi:docname="ladder.svg"
   inkscape:version="1.4.2 (ebf0e940, 2025-05-08)"
   xmlns:inkscape="http://www.inkscape.org/namespaces/inkscape"
   xmlns:sodipodi="http://sodipodi.sourceforge.net/DTD/sodipodi-0.dtd"
   xmlns="http://www.w3.org/2000/svg"
   xmlns:svg="http://www.w3.org/2000/svg">
  <defs
     id="defs1" />
  <sodipodi:namedview
     id="namedview1"
     pagecolor="#ffffff"
     bordercolor="#000000"
     borderopacity="0.25"
     inkscape:showpageshadow="2"
     inkscape:pageopacity="0.0"
     inkscape:pagecheckerboard="0"
     inkscape:deskcolor="#d1d1d1"
     showgrid="false"
     inkscape:zoom="2.9370264"
     inkscape:cx="75.756895"
     inkscape:cy="107.59181"
     inkscape:window-width="896"
     inkscape:window-height="245"
     inkscape:window-x="0"
     inkscape:window-y="39"
     inkscape:window-maximized="0"
     inkscape:current-layer="svg1" />
  <path
     id="path1"
     style="fill:#7a7978;fill-opacity:1;stroke:none;stroke-width:1.11708"
     d="m 371.26526,58.048224 c -9.53781,-0.415118 -18.85349,2.835423 -22.38477,12.205059 -8.88012,-18.715978 -35.96719,-5.353453 -40.18554,9.339828 -11.34685,-10.593149 -33.98028,21.134329 -4.8086,30.785109 -16.60406,11.98485 -8.30525,20.36712 9.09426,23.93067 0.58074,-5.63767 1.4785,-10.26489 2.01141,-15.9052 0.4454,-6.7588 10.88405,-12.34363 17.42014,-8.70084 6.92336,3.85834 4.49806,13.75874 5.12234,20.03368 l 17.33924,0.12489 c 3.80884,-0.0737 10.0229,0.0379 15.41211,0.27319 l 5.49081,-0.22929 c 0.11834,-4.76818 -2.57148,-12.87889 3.23345,-18.1554 4.68295,-4.25633 16.10499,-3.10423 18.41337,2.5849 l 2.64062,17.4275 c 14.37189,-1.33682 22.35212,-6.47584 12.02538,-24.70636 12.20051,-9.619059 12.90987,-32.074152 -14.76367,-34.435494 -1.16805,-7.444927 -13.79765,-14.038519 -26.06055,-14.572242 z"
     sodipodi:nodetypes="scccccccccccccccs" />
  <path
     id="path1631"
     d="m 322.17521,241.12114 h 69.3946 l -1.93364,-18.61016 -65.16062,-0.0438 z m 63.61157,-55.20443 h -57.82854 l -1.92737,19.25769 h 61.68329 z m -3.85565,-35.94764 H 331.813 l -1.92738,17.97427 H 383.8594 Z M 334.38344,131.9957 h 44.65617 l 0.69761,-1.30847 c -0.30319,-5.53887 -3.17414,-12.74663 1.52223,-17.01549 4.68295,-4.25633 11.68591,-2.27887 13.99429,3.41025 l 16.16853,149.46267 c -0.34792,6.04598 -4.07836,10.08677 -10.37744,9.09045 -7.72115,-1.22083 -7.10135,-10.51966 -7.54406,-16.54416 l -72.82543,-0.0224 c -1.25749,0.29247 -1.31026,8.47868 -1.88266,10.44809 -2.48278,8.53592 -13.86282,8.34184 -16.38853,0.0233 3.82882,-49.61906 10.65738,-99.10486 15.3439,-148.70693 0.4454,-6.75879 6.83393,-12.00609 13.37002,-8.3633 6.92336,3.85834 2.64109,13.25107 3.26537,19.526"
     style="fill:#7a7978;fill-opacity:1;fill-rule:nonzero;stroke:none;stroke-width:0.894376"
     clip-path="url(#clipPath1632)" />
</svg>
