<?xml version="1.0" encoding="UTF-8" standalone="no"?>
<svg
   viewBox="232.1756 104.7469 52.556901 32.96154"
   width="52.556881"
   height="32.961563"
   preserveAspectRatio="none"
   version="1.1"
   id="svg1"
   sodipodi:docname="lvl up.svg"
   xml:space="preserve"
   inkscape:version="1.4.2 (ebf0e940, 2025-05-08)"
   xmlns:inkscape="http://www.inkscape.org/namespaces/inkscape"
   xmlns:sodipodi="http://sodipodi.sourceforge.net/DTD/sodipodi-0.dtd"
   xmlns="http://www.w3.org/2000/svg"
   xmlns:svg="http://www.w3.org/2000/svg"><defs
     id="defs1" /><sodipodi:namedview
     id="namedview1"
     pagecolor="#ffffff"
     bordercolor="#000000"
     borderopacity="0.25"
     inkscape:showpageshadow="2"
     inkscape:pageopacity="0.0"
     inkscape:pagecheckerboard="0"
     inkscape:deskcolor="#d1d1d1"
     inkscape:zoom="9.9738182"
     inkscape:cx="27.62232"
     inkscape:cy="13.034126"
     inkscape:window-width="1712"
     inkscape:window-height="971"
     inkscape:window-x="0"
     inkscape:window-y="39"
     inkscape:window-maximized="1"
     inkscape:current-layer="svg1"
     showgrid="false" /><g
     style="fill:#7a7978;fill-opacity:1"
     id="g2"
     transform="matrix(1.3896697,0,0,1.3896682,248.64417,103.18352)"><g
       id="g1"
       style="fill:#7a7978;fill-opacity:1">
	<path
   d="m 20.25,9.25 v 13.094 c 0,1.381 -1.119,2.5 -2.5,2.5 H 2.5 c -1.381,0 -2.5,-1.119 -2.5,-2.5 0,-1.381 1.119,-2.5 2.5,-2.5 H 15.25 V 9.25 H 9.719 l 8.125,-8.125 8.125,8.125 z"
   id="path1"
   style="fill:#7a7978;fill-opacity:1" />
</g></g><path
     d="m 232.1756,126.46445 v -6.9375 c 0,-0.32031 0.0703,-0.5625 0.21094,-0.72657 0.14454,-0.16406 0.3379,-0.24609 0.58008,-0.24609 0.24219,0 0.4375,0.082 0.58594,0.24609 0.14844,0.16016 0.22265,0.40235 0.22265,0.72657 v 6.9375 c 0,0.32421 -0.0762,0.56835 -0.22851,0.73242 -0.14844,0.16015 -0.3418,0.24023 -0.58008,0.24023 -0.23437,0 -0.42578,-0.084 -0.57422,-0.25195 -0.14453,-0.16797 -0.2168,-0.4082 -0.2168,-0.7207 z m 5.21485,-4.53516 1.29492,3.63281 1.39453,-3.79101 c 0.10938,-0.30469 0.2168,-0.51953 0.32227,-0.64453 0.10547,-0.12891 0.26563,-0.19336 0.48047,-0.19336 0.20312,0 0.375,0.0684 0.51562,0.20507 0.14454,0.13672 0.2168,0.29492 0.2168,0.47461 0,0.0703 -0.0137,0.15235 -0.041,0.2461 -0.0235,0.0937 -0.0528,0.18164 -0.0879,0.26367 -0.0313,0.082 -0.0684,0.17578 -0.11133,0.28125 l -1.53515,3.80859 c -0.043,0.10938 -0.0996,0.24805 -0.16992,0.41602 -0.0664,0.16797 -0.14257,0.3125 -0.22852,0.43359 -0.082,0.11719 -0.18555,0.20898 -0.31055,0.27539 -0.12109,0.0664 -0.26953,0.0996 -0.44531,0.0996 -0.22656,0 -0.4082,-0.0508 -0.54492,-0.15234 -0.13281,-0.10547 -0.23242,-0.21875 -0.29883,-0.33984 -0.0625,-0.125 -0.16989,-0.36914 -0.32227,-0.73243 l -1.52343,-3.76757 c -0.0351,-0.0937 -0.0722,-0.1875 -0.11133,-0.28125 -0.0351,-0.0937 -0.0664,-0.18946 -0.0937,-0.28711 -0.0235,-0.0977 -0.0352,-0.18165 -0.0352,-0.25196 0,-0.10937 0.0332,-0.21679 0.0996,-0.32226 0.0664,-0.10938 0.1582,-0.19727 0.27539,-0.26367 0.11719,-0.0703 0.24414,-0.10547 0.38086,-0.10547 0.26563,0 0.44727,0.0762 0.54492,0.22851 0.10157,0.15235 0.60215,0.49943 0.33399,0.76758 z m 6.3457,4.53516 v -6.9375 c 0,-0.32031 0.0703,-0.5625 0.21094,-0.72657 0.14453,-0.16406 0.33789,-0.24609 0.58008,-0.24609 0.24219,0 0.4375,0.082 0.58593,0.24609 0.14844,0.16016 0.22266,0.40235 0.22266,0.72657 v 6.9375 c 0,0.32421 -0.0762,0.56835 -0.22851,0.73242 -0.14844,0.16015 -0.3418,0.24023 -0.58008,0.24023 -0.23438,0 -0.42579,-0.084 -0.57422,-0.25195 -0.14453,-0.16797 -0.2168,-0.4082 -0.2168,-0.7207 z m 10.40625,0.0703 v -0.20508 c -0.19141,0.24219 -0.39258,0.44531 -0.60351,0.60938 -0.21094,0.16406 -0.44141,0.28515 -0.69141,0.36328 -0.25,0.082 -0.53516,0.12304 -0.85547,0.12304 -0.38672,0 -0.73438,-0.0801 -1.04297,-0.24023 -0.30469,-0.16015 -0.54101,-0.38086 -0.70898,-0.66211 -0.19922,-0.33985 -0.29883,-0.82813 -0.29883,-1.46484 v -3.16993 c 0,-0.32031 0.0723,-0.55859 0.2168,-0.71484 0.14453,-0.16015 0.33593,-0.24023 0.57422,-0.24023 0.24219,0 0.4375,0.0801 0.58593,0.24023 0.14844,0.16016 0.22266,0.39844 0.22266,0.71484 v 2.56055 c 0,0.37109 0.0312,0.68359 0.0937,0.9375 0.0625,0.25 0.17379,0.44727 0.33398,0.5918 0.16407,0.14063 0.38477,0.21094 0.66211,0.21094 0.26953,0 0.52344,-0.0801 0.76172,-0.24024 0.23828,-0.16015 0.41211,-0.36914 0.52149,-0.62695 0.0898,-0.22657 0.13476,-0.72266 0.13476,-1.48828 v -1.94532 c 0,-0.3164 0.0742,-0.55468 0.22266,-0.71484 0.14843,-0.16015 0.34179,-0.24023 0.58008,-0.24023 0.23828,0 0.42968,0.0801 0.57421,0.24023 0.14453,0.15625 0.2168,0.39453 0.2168,0.71484 v 4.63477 c 0,0.30469 -0.0703,0.5332 -0.21094,0.68555 -0.13671,0.15234 -0.31445,0.22851 -0.5332,0.22851 -0.21875,0 -0.40039,-0.0781 -0.54492,-0.23437 -0.14063,-0.16016 -0.21094,-0.38282 -0.21094,-0.66797 z m 4.57031,-4.70508 v 0.19336 c 0.30079,-0.37109 0.61329,-0.64258 0.9375,-0.81445 0.32422,-0.17578 0.69141,-0.26367 1.10157,-0.26367 0.49219,0 0.94531,0.12695 1.35937,0.38085 0.41407,0.25391 0.74024,0.625 0.97852,1.11329 0.24219,0.48828 0.36328,1.0664 0.36328,1.73437 0,0.49219 -0.0703,0.94531 -0.21094,1.35938 -0.13672,0.41015 -0.32617,0.75586 -0.56836,1.03711 -0.24219,0.27734 -0.5293,0.49218 -0.86133,0.64453 -0.32812,0.14843 -0.68163,0.22265 -1.06054,0.22265 -0.45703,0 -0.8418,-0.0918 -1.1543,-0.27539 -0.30859,-0.18359 -0.60352,-0.45312 -0.88477,-0.80859 v 2.40234 c 0,0.70313 -0.25586,1.05469 -0.76757,1.05469 -0.30079,0 -0.50001,-0.0918 -0.59766,-0.27539 -0.0976,-0.17969 -0.14648,-0.44336 -0.14648,-0.79102 v -6.90234 c 0,-0.30469 0.0664,-0.53125 0.19921,-0.67969 0.13281,-0.15234 0.31446,-0.22851 0.54493,-0.22851 0.22656,0 0.41015,0.0781 0.55078,0.23437 0.14453,0.15235 0.21679,0.37305 0.21679,0.66211 z m 3.13477,2.32617 c 0,-0.42187 -0.0645,-0.7832 -0.19336,-1.08398 -0.12891,-0.30469 -0.30859,-0.53711 -0.53906,-0.69727 -0.22657,-0.16406 -0.47852,-0.24609 -0.75586,-0.24609 -0.44141,0 -0.81445,0.17383 -1.11914,0.52148 -0.30078,0.34766 -0.45117,0.85938 -0.45117,1.53516 0,0.63672 0.15039,1.13281 0.45117,1.48828 0.30078,0.35156 0.67383,0.52734 1.11914,0.52734 0.26563,0 0.51172,-0.0762 0.73828,-0.22851 0.22656,-0.15625 0.4082,-0.38868 0.54492,-0.69727 0.13672,-0.30859 0.20508,-0.68164 0.20508,-1.11914 z m 3.41602,-0.58593 -0.1875,-2.80665 c -0.0351,-0.54687 -0.0527,-0.93945 -0.0527,-1.17773 0,-0.32422 0.084,-0.57617 0.25195,-0.75586 0.17188,-0.18359 0.39649,-0.27539 0.67383,-0.27539 0.33594,0 0.56055,0.11719 0.67383,0.35156 0.11328,0.23047 0.16992,0.56446 0.16992,1.00196 0,0.25781 -0.0137,0.51952 -0.041,0.78515 l -0.25196,2.88867 c -0.0273,0.34375 -0.0859,0.60743 -0.17578,0.79102 -0.0898,0.18359 -0.23828,0.27539 -0.44531,0.27539 -0.21094,0 -0.35742,-0.0879 -0.43945,-0.26367 -0.082,-0.17969 -0.14063,-0.45117 -0.17578,-0.81445 z m 0.65039,3.85546 c -0.23829,0 -0.44727,-0.0762 -0.62696,-0.22851 -0.17578,-0.15625 -0.26367,-0.37305 -0.26367,-0.65039 0,-0.24219 0.084,-0.44727 0.25195,-0.61524 0.17188,-0.17187 0.38087,-0.25781 0.62696,-0.25781 0.24609,0 0.45508,0.0859 0.62695,0.25781 0.17578,0.16797 0.26367,0.37305 0.26367,0.61524 0,0.27343 -0.0879,0.48828 -0.26367,0.64453 -0.17578,0.15625 -0.38086,0.23437 -0.61523,0.23437 z"
     id="text3"
     style="font-family:'Arial Rounded MT Bold';-inkscape-font-specification:'Arial Rounded MT Bold, ';fill:#7a7978;stroke-width:3;stroke-linecap:round"
     aria-label="level up!"
     sodipodi:nodetypes="sscscsscscsccccscscccccccsccccccsccscscsscscsscscsccscsccsscssssccsscsssscsscscccsccsscscccsccsscsscscssccscscscssccscscsccsscccscssscsss" /></svg>
