<?xml version="1.0" encoding="UTF-8" standalone="no"?>
<!-- Uploaded to: SVG Repo, www.svgrepo.com, Generator: SVG Repo Mixer Tools -->

<svg
   fill="#7a7978"
   height="433.47861"
   width="429.64282"
   version="1.1"
   id="Layer_1"
   viewBox="0 0 274.97141 277.42631"
   xml:space="preserve"
   sodipodi:docname="man in trash.svg"
   inkscape:version="1.4.2 (ebf0e940, 2025-05-08)"
   xmlns:inkscape="http://www.inkscape.org/namespaces/inkscape"
   xmlns:sodipodi="http://sodipodi.sourceforge.net/DTD/sodipodi-0.dtd"
   xmlns="http://www.w3.org/2000/svg"
   xmlns:svg="http://www.w3.org/2000/svg"><defs
   id="defs8"><inkscape:path-effect
     effect="fillet_chamfer"
     id="path-effect10"
     is_visible="true"
     lpeversion="1"
     nodesatellites_param="F,0,0,1,0,0,0,1 @ F,0,0,1,0,2.3962584,0,1 @ F,0,0,1,0,0,0,1 @ F,0,0,1,0,0,0,1 @ F,0,0,1,0,0,0,1 @ F,0,0,1,0,1.058412,0,1 @ F,0,0,1,0,0,0,1 @ F,0,0,1,0,0,0,1 @ F,0,0,1,0,0,0,1 @ F,0,0,1,0,0,0,1 @ F,0,0,1,0,0,0,1 @ F,0,0,1,0,0,0,1 @ F,0,0,1,0,0,0,1 @ F,0,0,1,0,0,0,1 @ F,0,0,1,0,0,0,1 @ F,0,0,1,0,0,0,1 @ F,0,0,1,0,0,0,1 @ F,0,0,1,0,0.97235632,0,1 @ F,0,0,1,0,0,0,1 @ F,0,0,1,0,0,0,1 @ F,0,0,1,0,0,0,1 @ F,0,0,1,0,1.9541958,0,1 @ F,0,0,1,0,0,0,1"
     radius="0"
     unit="px"
     method="auto"
     mode="F"
     chamfer_steps="1"
     flexible="false"
     use_knot_distance="true"
     apply_no_radius="true"
     apply_with_radius="true"
     only_selected="false"
     hide_knots="false" /><inkscape:path-effect
     effect="fillet_chamfer"
     id="path-effect9"
     is_visible="true"
     lpeversion="1"
     nodesatellites_param="F,0,0,1,0,0,0,1 @ F,0,0,1,0,0,0,1 @ F,0,0,1,0,0,0,1 @ F,0,0,1,0,0,0,1 @ F,0,0,1,0,0,0,1 @ F,0,0,1,0,0,0,1 @ F,0,0,1,0,0,0,1 @ F,0,0,1,0,0,0,1 @ F,0,0,1,0,0,0,1 @ F,0,0,1,0,0,0,1 @ F,0,0,1,0,0,0,1 @ F,0,0,1,0,0,0,1 @ F,0,0,1,0,0,0,1 @ F,0,0,1,0,0,0,1 @ F,0,0,1,0,0,0,1 @ F,0,0,1,0,0,0,1 @ F,0,0,1,0,0,0,1 @ F,0,0,1,0,0,0,1 @ F,0,0,1,0,0,0,1 @ F,0,0,1,0,0,0,1 @ F,0,0,1,0,0,0,1 @ F,0,0,1,0,0,0,1"
     radius="0"
     unit="px"
     method="auto"
     mode="F"
     chamfer_steps="1"
     flexible="false"
     use_knot_distance="true"
     apply_no_radius="true"
     apply_with_radius="true"
     only_selected="false"
     hide_knots="false" /></defs><sodipodi:namedview
   id="namedview8"
   pagecolor="#ffffff"
   bordercolor="#000000"
   borderopacity="0.25"
   inkscape:showpageshadow="2"
   inkscape:pageopacity="0.0"
   inkscape:pagecheckerboard="0"
   inkscape:deskcolor="#d1d1d1"
   showgrid="false"
   inkscape:zoom="0.72173572"
   inkscape:cx="93.524538"
   inkscape:cy="294.4291"
   inkscape:window-width="896"
   inkscape:window-height="204"
   inkscape:window-x="0"
   inkscape:window-y="39"
   inkscape:window-maximized="0"
   inkscape:current-layer="Layer_1" />




<g
   style="fill:none;fill-opacity:1"
   id="g8"
   transform="matrix(5.6162716,0,0,5.6162716,157.02971,150.82966)"><path
     style="baseline-shift:baseline;display:inline;overflow:visible;opacity:1;vector-effect:none;fill:#7a7978;fill-opacity:1;stroke-linecap:round;stroke-linejoin:round;enable-background:accumulate;stop-color:#000000;stop-opacity:1"
     d="M 11.306641,2 C 10.477241,2 9.9448994,1.9725722 9.34375,2.2089844 8.8763944,2.3927828 8.4627915,2.690919 8.140625,3.0761719 7.7261756,3.5717596 7.5845432,4.084281 7.3222656,4.8710937 L 7.2792969,5 H 4 A 1,1 0 0 0 3,6 1,1 0 0 0 4,7 h 1.0644531 l 0.7382813,11.080078 c 0.07014,1.052098 0.068398,1.715258 0.4609375,2.404297 C 6.5637388,21.011108 7.0171106,21.434861 7.5625,21.699219 8.2761026,22.045026 8.9396406,22 9.9941406,22 h 4.0117184 c 1.0545,0 1.718009,0.04507 2.431641,-0.300781 0.54535,-0.264353 0.99873,-0.688135 1.298828,-1.214844 0.39242,-0.688981 0.390836,-1.352167 0.460938,-2.404297 L 18.935547,7 H 20 A 1,1 0 0 0 21,6 1,1 0 0 0 20,5 H 16.720703 L 16.677734,4.8710937 C 16.415422,4.0842376 16.273684,3.5716728 15.859375,3.0761719 15.537246,2.6909823 15.123646,2.3927927 14.65625,2.2089844 14.055102,1.9725793 13.522759,2 12.693359,2 Z m 0,2 h 1.386718 c 0.8294,0 1.125817,0.029158 1.230469,0.070312 0.155804,0.061272 0.294872,0.1605521 0.402344,0.2890625 C 14.366506,4.4076131 14.493,4.7775917 14.580078,5 H 9.4199219 C 9.5069807,4.7776046 9.6335282,4.4075645 9.6738281,4.359375 9.7812416,4.2309279 9.9203475,4.1315941 10.076172,4.0703125 10.180803,4.0291647 10.477241,4 11.306641,4 Z M 7.0683594,7 h 9.8632816 l -0.730469,10.947266 c -0.0701,1.05207 -0.141145,1.438055 -0.203125,1.546875 -0.100102,0.175691 -0.251544,0.318003 -0.433594,0.40625 C 15.451885,19.954944 15.060359,20 14.005859,20 H 9.9941406 C 8.9396406,20 8.5482043,19.95498 8.4355469,19.90039 8.2534963,19.812148 8.1020262,19.669807 8.0019531,19.494141 7.9399929,19.38538 7.8689683,18.999368 7.7988281,17.947266 Z M 10,9 a 1,1 0 0 0 -1,1 v 7 a 1,1 0 0 0 1,1 1,1 0 0 0 1,-1 V 10 A 1,1 0 0 0 10,9 Z m 4,0 a 1,1 0 0 0 -1,1 v 7 a 1,1 0 0 0 1,1 1,1 0 0 0 1,-1 V 10 A 1,1 0 0 0 14,9 Z"
     id="path1" /></g><g
   style="fill:#7a7978;fill-opacity:1"
   id="g9"
   transform="matrix(2.6947368,0,0,2.6947368,-136.59789,-121.1026)"><path
     fill-rule="evenodd"
     clip-rule="evenodd"
     d="m 94.11,109.87 -8,-24 -1.29,8.13 6.89,53.42 c 0,0 -7.53,2.53 -8.86,-4.13 -1.14,-5.73 -6.73,-31.23 -6.73,-31.23 l -2.92,-0.17 c 0,0 -5.2,23.21 -6.78,30.83 -1.52,7.47 -9.27,4.42 -9.27,4.42 l 7.78,-55.78 -1.08,-5.77 -7.8,24.85 c 0,0 -7,0 -5,-8.08 2.06,-8.33 7.2,-29.56 7.2,-29.56 8,-8 25.53,-8 33.44,0 0,0 5.81,23.72 7.33,30 1.52,6.28 -4.91,7.07 -4.91,7.07 z M 66.82,53.5 c 0,-12.62 18.21,-10.39 16.8,0.85 -1.35,10.82 -16.8,11.94 -16.8,-0.85 z"
     fill="#000000"
     id="path1-8"
     style="fill:#7a7978;fill-opacity:1" /></g><path
   style="fill:#7a7978;fill-opacity:1;stroke-width:4.23488;stroke-linecap:round"
   d="m 309.05868,238.8687 4.7945,-13.59968 a 1.1543326,1.1543326 45.141043 0 0 -1.46709,-1.47434 l -14.79983,5.13583 c 0,0 -0.66352,-3.22661 -3.91589,-7.86788 -3.25238,-4.64127 -13.33087,-15.45713 -25.8185,-18.42178 -11.1719,-2.65229 -38.17795,4.98557 -43.74474,6.62449 -0.56058,0.16504 -0.84057,0.74388 -0.62683,1.28795 l 0.005,0.0115 0.39152,0.99659 0.39151,0.99659 0.39152,0.99658 0.39152,0.99659 0.39151,0.99659 0.39152,0.99659 0.39152,0.99659 0.39151,0.99659 0.39152,0.99658 0.39151,0.99659 0.036,0.0916 c 0.19637,0.49983 0.75826,0.73962 1.25685,0.54012 4.59983,-1.8405 25.58387,-9.96991 34.40638,-8.74677 9.93808,1.3778 16.77954,7.98952 20.50124,11.95906 3.7217,3.96954 3.98635,7.9727 3.98635,7.9727 l -16.95626,6.16592 a 0.83152623,0.83152623 93.067029 0 0 -0.0819,1.52808 l 32.62744,15.99615"
   id="path9"
   inkscape:original-d="m 309.05868,238.8687 5.59123,-15.85961 -17.06365,5.92142 c 0,0 -0.66352,-3.22661 -3.91589,-7.86788 -3.25238,-4.64127 -13.33087,-15.45713 -25.8185,-18.42178 -12.48762,-2.96465 -44.75858,6.92732 -44.75858,6.92732 l 0.39152,0.99659 0.39152,0.99659 0.39151,0.99659 0.39152,0.99658 0.39152,0.99659 0.39151,0.99659 0.39152,0.99659 0.39152,0.99659 0.39151,0.99659 0.39152,0.99658 0.39151,0.99659 0.39152,0.99659 c 0,0 25.3696,-10.48947 35.30768,-9.11167 9.93808,1.3778 16.77954,7.98952 20.50124,11.95906 3.7217,3.96954 3.98635,7.9727 3.98635,7.9727 l -18.7928,6.83375 34.3821,16.8564"
   inkscape:path-effect="#path-effect10"
   sodipodi:nodetypes="ccczzccccccccccccczzccc"
   transform="matrix(0.97060827,0,0,0.97060827,-79.44283,-98.873307)" /></svg>
