<?xml version="1.0" encoding="UTF-8" standalone="no"?>
<svg
   viewBox="254.2705 67.4065 155.60657 193.25732"
   width="155.60631"
   height="193.25716"
   preserveAspectRatio="none"
   version="1.1"
   id="svg1"
   sodipodi:docname="octopus.svg"
   inkscape:version="1.4.2 (ebf0e940, 2025-05-08)"
   xmlns:inkscape="http://www.inkscape.org/namespaces/inkscape"
   xmlns:sodipodi="http://sodipodi.sourceforge.net/DTD/sodipodi-0.dtd"
   xmlns="http://www.w3.org/2000/svg"
   xmlns:svg="http://www.w3.org/2000/svg">
  <sodipodi:namedview
     id="namedview1"
     pagecolor="#ffffff"
     bordercolor="#000000"
     borderopacity="0.25"
     inkscape:showpageshadow="2"
     inkscape:pageopacity="0.0"
     inkscape:pagecheckerboard="0"
     inkscape:deskcolor="#d1d1d1"
     inkscape:zoom="2.1389052"
     inkscape:cx="26.415383"
     inkscape:cy="20.805036"
     inkscape:window-width="896"
     inkscape:window-height="204"
     inkscape:window-x="0"
     inkscape:window-y="39"
     inkscape:window-maximized="0"
     inkscape:current-layer="svg1" />
  <defs
     id="defs1">
    <clipPath
       clipPathUnits="userSpaceOnUse"
       id="clipPath4567">
      <path
         d="m 13623.1,371.725 h 368 V 3.727 h -368 z"
         id="path4567" />
    </clipPath>
  </defs>
  <path
     id="path4566"
     d="m 13842.7,246.257 c -3.7,18.969 12.4,28.3 28.6,32.045 4.3,0.996 17.8,1.38 19.6,5.22 4.8,10.089 -9.5,19.545 -17.8,21.309 -29.6,6.24 -51.1,-14.684 -58.4,-41.582 -1,-3.771 -1.7,-14.208 -4.1,-15.969 -8.2,-6.062 -9.5,13.957 -10.9,18.58 -4.5,14.528 -17.6,32.369 -32.3,37.518 -12.3,4.331 -33.5,3.047 -41.7,-8.471 -11.1,-15.433 7.5,-14.441 16.7,-16.605 16.6,-3.91 32.3,-13.757 30.5,-32.998 l -9.1,8.576 c -15.9,12.468 -42.3,17.561 -56.9,0.52 -15.7,-18.328 3.2,-41.263 -9.5,-55.463 -5,-5.557 -15.8,-5.015 -12.2,-17.005 2.2,-7.348 22.4,-4.028 27.9,-1.496 22.4,10.445 13.6,26.602 15.8,45.294 1.2,10.052 10.6,13.234 18.2,5.69 24.4,-24.335 1.8,-41.484 -4.1,-62.8 -11.4,-41.586 -3.5,-87.712 45,-96.964 66.8,-12.74 101.3,32.801 83.8,96.234 -5.7,20.534 -25.1,30.61 -8.9,56.744 4,6.528 11.2,15.834 18.9,8.666 6.9,-6.464 2.4,-21.214 2.9,-29.61 1.1,-19.081 19.6,-28.902 37.3,-25.814 6,1.038 8.8,2.86 7.4,9.388 -1.8,8.502 -12,6.797 -15.5,15.998 -6.8,17.584 7.2,31.542 -5.5,49.04 -16.1,22.299 -51.1,13.439 -65.7,-6.045"
     style="fill:#7a7978;fill-opacity:1;fill-rule:nonzero;stroke:none"
     clip-path="url(#clipPath4567)"
     transform="matrix(0.634415,0,0,0.634415,-8427.3684,66.570622)" />
  <circle
     style="fill:#7a7978;stroke:none;stroke-width:1.65543;stroke-linecap:round"
     id="path1"
     cx="262.24194"
     cy="137.28204"
     r="7.108139" />
  <circle
     style="fill:#7a7978;stroke:none;stroke-width:1.65543;stroke-linecap:round"
     id="path1-7"
     cx="292.46201"
     cy="74.514641"
     r="7.108139" />
  <circle
     style="fill:#7a7978;stroke:none;stroke-width:1.65543;stroke-linecap:round"
     id="path1-73"
     cx="365.66394"
     cy="90.695503"
     r="7.108139" />
  <circle
     style="fill:#7a7978;stroke:none;stroke-width:1.65543;stroke-linecap:round"
     id="path1-71"
     cx="395.62759"
     cy="155.80534"
     r="7.108139" />
</svg>
