<?xml version="1.0" encoding="UTF-8" standalone="no"?>
<svg
   viewBox="252.7227 66.296 84.768909 59.462456"
   width="84.768951"
   height="59.462383"
   preserveAspectRatio="none"
   version="1.1"
   id="svg1"
   sodipodi:docname="ostrich.svg"
   xml:space="preserve"
   inkscape:version="1.4.2 (ebf0e940, 2025-05-08)"
   xmlns:inkscape="http://www.inkscape.org/namespaces/inkscape"
   xmlns:sodipodi="http://sodipodi.sourceforge.net/DTD/sodipodi-0.dtd"
   xmlns="http://www.w3.org/2000/svg"
   xmlns:svg="http://www.w3.org/2000/svg"><defs
     id="defs1" /><sodipodi:namedview
     id="namedview1"
     pagecolor="#ffffff"
     bordercolor="#000000"
     borderopacity="0.25"
     inkscape:showpageshadow="2"
     inkscape:pageopacity="0.0"
     inkscape:pagecheckerboard="0"
     inkscape:deskcolor="#d1d1d1"
     inkscape:zoom="34.91247"
     inkscape:cx="70.504894"
     inkscape:cy="48.66456"
     inkscape:window-width="1712"
     inkscape:window-height="971"
     inkscape:window-x="0"
     inkscape:window-y="39"
     inkscape:window-maximized="1"
     inkscape:current-layer="g1"
     showgrid="false" /><g
     id="g1"
     transform="matrix(0.16188866,0,0,0.16188894,250.01981,42.871318)"
     style="fill:#7a7978;fill-opacity:1"><path
       style="fill:#7a7978;fill-opacity:1"
       d="m 464.88679,469.12071 -46.12677,-218.07433 -32.47408,-4.33185 -3.37172,37.53007 38.06786,175.54759 c 0.81443,3.75571 1.62205,6.6261 2.13911,10.26283 12.79966,11.44755 41.7656,-0.93431 41.7656,-0.93431 z"
       id="path2"
       sodipodi:nodetypes="ccccscc" /><g
       id="g4"
       style="fill:#7a7978;fill-opacity:1">
	<path
   style="fill:#7a7978;fill-opacity:1"
   d="M 226.5991,330.84446 161.391,250.434 105.739,289.391 c 0,30.736 89.07336,79.8421 120.8601,41.45346 z"
   id="path3"
   sodipodi:nodetypes="cccc" />
	<path
   style="fill:#7a7978;fill-opacity:1"
   d="M 142.20841,328.56649 72.348,242.273 16.696,289.391 c 0,30.737 94.77641,39.17549 125.51241,39.17549 z"
   id="path4"
   sodipodi:nodetypes="cccc" />
</g><path
       style="fill:#7a7978;fill-opacity:1"
       d="M 217.043,220.753 V 512 h 66.783 c 0,-18.441 -14.949,-33.391 -33.391,-33.391 v -89.042 c 13.517,-10.153 22.261,-26.317 22.261,-44.523 z"
       id="path5" /><path
       style="fill:#7a7978;fill-opacity:1"
       d="M 372.87,244.87 H 354.75 C 335.971,186.742 281.423,144.696 217.044,144.696 l -26.713,18.174 26.713,15.218 c 0,87.188 17.06816,111.94179 111.304,111.304 l 63.40305,-0.42911 c 24.58744,-0.16641 39.18705,-45.4963 16.62954,-44.95112 z"
       id="path6"
       sodipodi:nodetypes="cccccsssc" /><path
       style="fill:#7a7978;fill-opacity:1"
       d="m 217.043,178.087 v -33.391 c -60.191,0 -111.792,36.756 -133.599,89.043 H 72.348 c -30.736,0 -55.652,24.917 -55.652,55.652 h 89.043 c 84.591,0 111.304,-10.759 111.304,-111.304 z"
       id="path7"
       sodipodi:nodetypes="sccscss" /><path
       style="fill:#7a7978;fill-opacity:1"
       d="m 217.043,178.087 c -61.472,0 -111.304,49.832 -111.304,111.304 l 111.304,37.101 54.168,-74.574 z"
       id="path8" /><path
       style="fill:#7a7978;fill-opacity:1"
       d="m 217.043,178.087 v 148.405 l 55.652,18.551 c 30.736,0 55.652,-24.917 55.652,-55.652 0.001,-61.472 -49.832,-111.304 -111.304,-111.304 z"
       id="path9" /><path
       style="fill:#7a7978;fill-opacity:1;stroke-width:18.5312;stroke-linecap:round"
       d="m 414.08471,434.23242 c -18.22384,-0.19836 -38.32384,-1.28638 -53.90923,9.87753 -8.55777,5.73842 -18.73704,13.42394 -18.2847,24.89056 2.00952,12.70327 14.70231,19.30211 25.30512,24.09052 27.65868,11.8054 58.22846,15.17366 88.06675,14.50943 26.55398,-1.45256 53.81014,-8.09616 75.46312,-24.13401 6.46745,-5.07664 11.45776,-13.50514 8.92173,-21.90636 -1.65452,-11.68022 -10.48876,-22.11002 -22.19963,-24.58449 -18.51552,-5.56511 -38.74092,1.96986 -57.50484,-1.07869 2.48909,8.78993 3.00892,13.43197 6.7558,26.38533 3.88427,9.05107 -6.60487,12.2587 -14.69962,12.541 -11.16598,2.89835 -19.31354,1.13119 -30.28238,-2.62913"
       id="path1"
       sodipodi:nodetypes="cccccccccccc" /></g></svg>
