<?xml version="1.0" encoding="UTF-8" standalone="no"?>
<svg
   viewBox="197.1084 67.5638 164.5524 216.56304"
   width="164.55232"
   height="216.56287"
   preserveAspectRatio="none"
   version="1.1"
   id="svg1"
   sodipodi:docname="parachute.svg"
   xml:space="preserve"
   inkscape:version="1.4.2 (ebf0e940, 2025-05-08)"
   xmlns:inkscape="http://www.inkscape.org/namespaces/inkscape"
   xmlns:sodipodi="http://sodipodi.sourceforge.net/DTD/sodipodi-0.dtd"
   xmlns="http://www.w3.org/2000/svg"
   xmlns:svg="http://www.w3.org/2000/svg"><defs
     id="defs1" /><sodipodi:namedview
     id="namedview1"
     pagecolor="#ffffff"
     bordercolor="#000000"
     borderopacity="0.25"
     inkscape:showpageshadow="2"
     inkscape:pageopacity="0.0"
     inkscape:pagecheckerboard="0"
     inkscape:deskcolor="#d1d1d1"
     inkscape:zoom="2.2036892"
     inkscape:cx="-24.277471"
     inkscape:cy="164.0431"
     inkscape:window-width="896"
     inkscape:window-height="204"
     inkscape:window-x="0"
     inkscape:window-y="39"
     inkscape:window-maximized="0"
     inkscape:current-layer="g1" /><g
     id="g2"
     transform="matrix(0.74151798,0,0,0.74151798,50.948576,17.463987)"><g
       id="g3039"
       transform="translate(-8799.9347,6.2296891)"><path
         id="path3040"
         d="m 0,0 c -1.268,0.535 -2.49,1.22 -3.79,1.687 -9.674,3.47 -27.793,3.557 -37.052,-1.143 -0.939,-0.477 -1.927,-1.169 -2.657,-1.921 -6.622,-20.536 -15.235153,-57.934616 -21.941153,-78.440616 -0.189,-0.581 -0.452,-1.222 -0.596,-1.799 -0.05,-0.2 -0.255,-0.227 0.047,-0.451 l 1.496,-0.088 C -47.683153,-65.319616 -30.238,-37.639 -13.881,-17.854 -9.795,-12.912 -4.227,-4.803 0,0 m -51.591,-1.232 c -0.608,0.34 -1.09,0.83 -1.687,1.196 -9.109,5.573 -31.938,5.573 -41.192,0.272 -0.51,-0.292 -2.049,-1.296 -2.159,-1.804 l 19.745847,-80.460616 c 0.719,-0.122 2.504,-0.421 2.903,0.203 z m -33.504153,-80.718616 c 0.094,0.135 -0.175,0.978 -0.251,1.225 -5.542,18.194 -10.849847,53.650616 -16.892847,71.732616 -0.754,2.256 -1.353,4.813 -2.149,7.005 -0.427,1.178 -2.285,2.211 -3.411,2.759 -9.57,4.658 -29.785,4.566 -39.287,-0.262 -0.751,-0.381 -1.358,-1.059 -2.18,-1.306 -0.056,-0.078 0.378,-0.656 0.493,-0.796 3.633,-4.457 8.366,-11.023 12.122,-15.682 16.14,-20.02 32.42585,-44.653616 49.170847,-64.392616 0.658,-0.684 1.56,-0.576 2.385,-0.283 M 7.675,-2.701 l -62.283153,-79.591616 0.086,-0.479 c -4.116043,-20.158134 -28.508461,-24.858194 -42.114,0.112 L -156.337,-4.579 c -1.474,1.712 -1.203,4.496 -1.098,6.68 1.756,36.298 38.404,59.596 71.382,63.551 C -45.346,70.535 4.323,48.079 8.56,3.089 8.814,0.384 9.531,-0.358 7.675,-2.701"
         style="fill:#7a7978;fill-opacity:1;fill-rule:nonzero;stroke:none"
         transform="matrix(1.3333333,0,0,-1.3333333,9207.0764,149.74693)"
         clip-path="url(#clipPath3041)"
         sodipodi:nodetypes="ccccccccccccccccccccccccccccccccccccc" /></g><g
       style="fill:#7a7978;fill-opacity:1"
       id="g1"
       transform="matrix(1.3694778,0,0,1.3694778,134.13249,156.7941)"><path
         fill-rule="evenodd"
         clip-rule="evenodd"
         d="m 149.33864,92.73157 -11.75122,-6.650597 -1.29,8.13 6.89,53.419997 c 0,0 -7.53,2.53 -8.86,-4.13 -1.14,-5.73 -6.73,-31.23 -6.73,-31.23 l -2.92,-0.17 c 0,0 -5.2,23.21 -6.78,30.83 -1.52,7.47 -9.27,4.42 -9.27,4.42 l 7.78,-55.779997 -1.08,-5.77 -9.44116,8.203951 c 0,0 -8.172256,-16.880497 -6.172256,-24.960497 2.059996,-8.329997 10.013416,3.966546 10.013416,3.966546 8,-8 25.53,-8 33.44,0 0,0 7.21671,-5.117516 8.73671,1.162481 1.52,6.28 -2.56549,18.558116 -2.56549,18.558116 z M 118.29742,53.710973 c 0,-12.62 18.21,-10.39 16.8,0.85 -1.35,10.82 -16.8,11.94 -16.8,-0.85 z"
         fill="#000000"
         id="path1"
         style="fill:#7a7978;fill-opacity:1"
         sodipodi:nodetypes="cccccccccccccccscscs" /></g></g></svg>
