<?xml version="1.0" encoding="UTF-8" standalone="no"?>
<svg
   viewBox="289.832 85.5967 108.35579 88.738314"
   width="108.35575"
   height="88.738495"
   preserveAspectRatio="none"
   version="1.1"
   id="svg1"
   sodipodi:docname="rainbow.svg"
   xml:space="preserve"
   inkscape:version="1.4.2 (ebf0e940, 2025-05-08)"
   xmlns:inkscape="http://www.inkscape.org/namespaces/inkscape"
   xmlns:sodipodi="http://sodipodi.sourceforge.net/DTD/sodipodi-0.dtd"
   xmlns="http://www.w3.org/2000/svg"
   xmlns:svg="http://www.w3.org/2000/svg"><defs
     id="defs1" /><sodipodi:namedview
     id="namedview1"
     pagecolor="#ffffff"
     bordercolor="#000000"
     borderopacity="0.25"
     inkscape:showpageshadow="2"
     inkscape:pageopacity="0.0"
     inkscape:pagecheckerboard="0"
     inkscape:deskcolor="#d1d1d1"
     inkscape:zoom="5.2758567"
     inkscape:cx="74.016415"
     inkscape:cy="32.317026"
     inkscape:window-width="896"
     inkscape:window-height="204"
     inkscape:window-x="0"
     inkscape:window-y="39"
     inkscape:window-maximized="0"
     inkscape:current-layer="svg1" /><path
     d="m 334.92241,116.88372 c -0.0796,-1.40185 -0.32824,-2.78487 -0.74198,-4.12386 -0.71342,-2.29811 -1.89263,-4.40025 -3.45934,-6.19849 2.86423,-0.83298 5.83343,-1.25371 8.8585,-1.25371 1.91528,0 3.83288,0.17206 5.70011,0.5111 0.917,0.16613 8.62568,2.57613 7.96618,1.36996 0.16676,-0.91848 7.78653,-0.50462 -7.36197,-4.69618 -2.06574,-0.37523 -4.18694,-0.56548 -6.30411,-0.56548 -4.02757,0 -7.96626,0.67637 -11.72337,2.00923 -1.82406,-1.32799 -3.89002,-2.28076 -6.06856,-2.81322 5.49736,-2.7345 11.55851,-4.16344 17.79172,-4.16344 14.33365,0 27.65929,7.74086 34.77649,20.20132 6.87891,14.53627 3.93291,5.47987 6.61472,7.6651 0.81076,-0.46305 -3.21612,-8.53109 -3.67917,-9.34164 -3.73256,-6.53435 -9.12707,-12.01794 -15.60132,-15.85821 -6.66939,-3.95604 -14.31524,-6.04717 -22.11072,-6.04717 -8.5491,0 -16.80128,2.47821 -23.89541,7.16797 -6.45224,0.75595 -11.96675,5.15196 -14.18148,11.21649 -0.0303,-2.1e-4 -0.0603,-2.1e-4 -0.0906,-2.1e-4 -3.22612,0 -6.33056,1.36079 -8.51884,3.73445 -1.9741,2.14341 -3.06126,4.92891 -3.06126,7.84265 0,6.38515 5.19473,11.57987 11.57989,11.57987 h 33.92799 c 0.93351,0 1.69031,-0.7568 1.69031,-1.69031 0,-0.93351 -0.7568,-1.6903 -1.69031,-1.6903 h -33.92799 c -4.5211,0 -8.19927,-3.67816 -8.19927,-8.19926 0,-2.06277 0.76991,-4.03497 2.1669,-5.55237 1.54915,-1.68057 3.7478,-2.64434 6.03237,-2.64434 0.35046,0 0.70177,0.0239 1.07446,0.0732 0.83764,0.1111 1.62787,-0.41332 1.85157,-1.22789 1.521,-5.53608 6.38008,-9.60449 12.09055,-10.1232 0.42665,-0.0387 0.85606,-0.0584 1.27615,-0.0584 3.19776,0 6.31955,1.11657 8.79015,3.14358 2.11082,1.73221 3.65192,4.01846 4.45613,6.60968 0.41056,1.32842 0.61881,2.7127 0.61881,4.11434 0,0.0313 -10e-4,0.0626 -0.003,0.094 l -0.003,0.0931 c -0.0233,0.79214 0.50686,1.49412 1.27509,1.6884 2.7017,0.68315 4.58819,3.11014 4.58819,5.90241 0,1.62618 -0.86088,2.96544 -1.783,4.30438 -2.29846,3.33741 -0.66009,1.73052 0,2.3906 0.66008,0.65987 0.16725,2.98759 0.82733,2.32751 1.7883,-1.78808 4.33628,-6.49349 4.33628,-9.02249 4.3e-4,-3.89614 -2.36308,-7.33537 -5.88507,-8.76917 z"
     id="path10"
     style="fill:#7a7978;fill-opacity:1;stroke-width:0.211632"
     sodipodi:nodetypes="cccscccsccscccssccscssssssscscccsccscccssccccc" /><path
     d="m 362.307,133.1836 c 0,15.74145 5.32771,15.86004 3.33512,-0.5526 -1.01076,-6.10177 -4.16874,-11.68843 -8.89258,-15.73102 -4.77633,-4.08788 -10.87441,-6.37465 -17.16995,-6.33922 -4.40129,0.0248 -7.26195,0.53343 -7.21398,2.1857 0.0457,1.57601 0.83111,1.56646 7.21398,1.19491 5.48089,-0.31904 10.80722,1.96288 14.97193,5.52698 4.12006,3.52621 6.87446,8.39712 7.75548,13.71522 z"
     id="path11"
     style="fill:#7a7978;fill-opacity:1;stroke-width:0.211632"
     sodipodi:nodetypes="sccssscss" /><path
     d="m 398.18779,140.89547 c 0,-1.11467 -0.43406,-2.16479 -1.22832,-2.96285 -0.79214,-0.78833 -1.84247,-1.22238 -2.95713,-1.22238 h -3.04137 c -0.0698,-13.62359 -5.40552,-26.42161 -15.04685,-36.06313 -9.70525,-9.70544 -22.60869,-15.05041 -36.33347,-15.05041 -16.81525,0 -32.59413,8.25152 -42.2088,22.07278 -0.53332,0.76632 -7.20793,10.30062 -4.79161,11.06472 1.29455,0.86331 7.03385,-8.36811 7.56695,-9.13443 8.98274,-12.91314 23.72463,-20.62268 39.43346,-20.62268 26.3787,0 47.85325,21.38794 47.9997,47.73272 h -4.60173 c -0.0317,-5.21122 -0.97732,-10.3071 -2.81619,-15.1503 -0.33163,-0.87256 -1.30747,-1.31127 -2.18024,-0.98049 -0.87298,0.3312 -1.3117,1.30746 -0.98049,2.18023 1.69284,4.45845 2.56435,9.15075 2.59588,13.95035 h -4.9668 c -0.054,-7.15294 -2.24394,-14.01172 -6.3441,-19.85149 -4.05784,-5.77946 -9.67816,-10.15537 -16.25295,-12.65474 -0.87277,-0.33205 -1.84903,0.10666 -2.18044,0.97922 -0.33184,0.87256 0.10666,1.84903 0.97922,2.18044 5.94052,2.25854 11.01948,6.21352 14.6875,11.43744 3.69869,5.26751 5.67386,11.45478 5.72783,17.90871 h -11.24572 c -2.30891,0 -4.18757,1.87759 -4.18757,4.18523 0,1.11826 0.43596,2.17028 1.22767,2.96221 0.15894,0.15894 0.33079,0.29925 0.5094,0.42898 -0.91552,2.37303 -1.37878,4.87769 -1.37878,7.4687 0,6.55614 3.04581,12.41369 7.79569,16.23491 l -1.0406,4.25338 c -0.22179,0.90663 0.33332,1.82173 1.24017,2.04352 0.13502,0.0328 0.27004,0.0489 0.40295,0.0489 0.7606,0 1.45158,-0.51722 1.64057,-1.28926 l 0.746,-3.04919 c 2.98063,1.64777 6.40485,2.5872 10.04471,2.5872 3.63987,0 7.06429,-0.93965 10.04471,-2.5872 l 0.746,3.04919 c 0.18878,0.77182 0.87997,1.28926 1.64058,1.28926 0.1329,0 0.26792,-0.0159 0.40294,-0.0489 0.90664,-0.22179 1.46196,-1.13689 1.24017,-2.04352 l -1.0406,-4.25338 c 4.74988,-3.82101 7.7959,-9.67835 7.7959,-16.23491 0,-2.59207 -0.46368,-5.09779 -1.38005,-7.47167 1.04927,-0.7606 1.73581,-1.99378 1.73581,-3.38716 z"
     id="path12"
     style="fill:#7a7978;fill-opacity:1;stroke-width:0.211632"
     sodipodi:nodetypes="scscsscccscccccccscccccssscscccsccsccscccscs" /></svg>
