<?xml version="1.0" encoding="UTF-8" standalone="no"?>
<svg
   viewBox="238.1367 59.4974 127.72932 127.2286"
   width="127.72937"
   height="127.22845"
   preserveAspectRatio="none"
   version="1.1"
   id="svg1"
   sodipodi:docname="relief.svg"
   xml:space="preserve"
   inkscape:version="1.4.2 (ebf0e940, 2025-05-08)"
   xmlns:inkscape="http://www.inkscape.org/namespaces/inkscape"
   xmlns:sodipodi="http://sodipodi.sourceforge.net/DTD/sodipodi-0.dtd"
   xmlns="http://www.w3.org/2000/svg"
   xmlns:svg="http://www.w3.org/2000/svg"><defs
     id="defs1"><inkscape:path-effect
       effect="fillet_chamfer"
       id="path-effect2"
       is_visible="true"
       lpeversion="1"
       nodesatellites_param="F,0,0,1,0,0,0,1 @ F,0,0,1,0,0,0,1 @ F,0,0,1,0,0,0,1 @ F,0,0,1,0,0,0,1 @ F,0,0,1,0,0,0,1 @ F,0,0,1,0,0,0,1 @ F,0,0,1,0,0,0,1 @ F,0,0,1,0,0,0,1 @ F,0,0,1,0,0,0,1 @ F,0,0,1,0,0,0,1 @ F,0,0,1,0,0,0,1 @ F,0,0,1,0,0,0,1 @ F,0,0,1,0,0,0,1 @ F,0,0,1,0,0,0,1 @ F,0,0,1,0,0,0,1 | F,0,0,1,0,0,0,1 @ F,0,0,1,0,0,0,1 @ F,0,0,1,0,0,0,1 @ F,0,0,1,0,0,0,1 @ F,0,0,1,0,0,0,1 @ F,0,0,1,0,0,0,1 @ F,0,0,1,0,0,0,1 | F,0,0,1,0,0,0,1 @ F,0,0,1,0,0,0,1 @ F,0,0,1,0,0,0,1 @ F,0,0,1,0,0,0,1 @ F,0,0,1,0,0,0,1 @ F,0,0,1,0,0,0,1 @ F,0,0,1,0,0,0,1 @ F,0,0,1,0,0,0,1 | F,0,0,1,0,0,0,1 @ F,0,0,1,0,0,0,1 @ F,0,0,1,0,0,0,1 @ F,0,0,1,0,0,0,1 @ F,0,0,1,0,0,0,1 @ F,0,0,1,0,0,0,1 @ F,0,0,1,0,0,0,1 @ F,0,0,1,0,0,0,1 @ F,0,0,1,0,0,0,1 @ F,0,0,1,0,0,0,1 | F,0,0,1,0,0,0,1 @ F,0,0,1,0,0,0,1 @ F,0,0,1,0,0,0,1 @ F,0,0,1,0,0,0,1 | F,0,0,1,0,0,0,1 @ F,0,0,1,0,0,0,1 @ F,0,0,1,0,0,0,1 @ F,0,0,1,0,0,0,1 | F,0,0,1,0,0,0,1 @ F,0,0,1,0,0,0,1 @ F,0,0,1,0,0,0,1 @ F,0,0,1,0,0,0,1 @ F,0,0,1,0,0,0,1 @ F,0,0,1,0,0,0,1"
       radius="0"
       unit="px"
       method="auto"
       mode="F"
       chamfer_steps="1"
       flexible="false"
       use_knot_distance="true"
       apply_no_radius="true"
       apply_with_radius="true"
       only_selected="false"
       hide_knots="false" /></defs><sodipodi:namedview
     id="namedview1"
     pagecolor="#ffffff"
     bordercolor="#000000"
     borderopacity="0.25"
     inkscape:showpageshadow="2"
     inkscape:pageopacity="0.0"
     inkscape:pagecheckerboard="0"
     inkscape:deskcolor="#d1d1d1"
     inkscape:zoom="5.3108197"
     inkscape:cx="39.071181"
     inkscape:cy="59.59532"
     inkscape:window-width="896"
     inkscape:window-height="204"
     inkscape:window-x="0"
     inkscape:window-y="39"
     inkscape:window-maximized="0"
     inkscape:current-layer="g1" /><g
     style="fill:#000000"
     id="g1"
     transform="matrix(1.6135207,0,0,1.6135233,238.00431,42.403044)"><path
       id="path1"
       style="fill:#7a7978;fill-opacity:1;stroke-width:0.993585"
       d="m 36.65893,10.594428 c -1.579534,0.2 -4.075245,0.716526 -5.556074,1.216526 l 1.919811,13.351524 c 0.241838,1.682255 -1.283767,2.999554 -2.962029,2.999554 -1.678262,0 -3.223143,-1.320256 -2.962028,-2.999554 l 1.964598,-12.631292 c -2.115854,0.696165 -4.031627,1.550452 -5.759433,2.535942 l 0.866699,7.636878 c 0,0 -0.08946,1.569662 -1.850814,1.573616 -2.060759,0.0046 -1.944021,-1.573616 -1.944021,-1.573616 l 0.840069,-6.606765 C 13.351596,21.906568 9.6581065,31.537454 9.6581065,39.601007 c 0,11.3 6.5156835,21.200973 15.7954695,26.000973 0,1.8 -1.18532,3.499256 -2.567414,4.999256 4.177721,3.19739 8.317758,5.175475 13.476202,5.399922 z m -0.296566,65.40673 v 0.07868 c 0.537987,-0.01521 1.079596,-0.02542 1.624455,-0.02542 0.627844,0 1.254794,0.0134 1.879866,0.03389 v -0.193676 c -0.845253,0.08508 -1.684561,0.12831 -2.510522,0.12831 -0.335327,0 -0.666921,-0.0076 -0.993799,-0.02179 z m 3.504321,-0.106521 c 4.913292,-0.494563 10.015776,-2.392461 13.721928,-5.293401 -1.480828,-1.5 -4.375163,-4.292051 -2.763511,-5.099725 2.344625,-1.175 5.104982,-3.475688 6.237316,-4.964338 0.283083,-0.372163 -7.943183,-0.314731 -7.663317,-0.640666 0.279866,-0.325935 0.856676,-1.881764 0.973949,-2.67912 0.124146,-0.844094 -0.445164,-2.311192 -0.131773,-2.730741 0.313391,-0.419549 12.493628,-1.029783 12.586044,-1.304461 0.163175,-0.484987 1.969466,-3.18681 2.726788,-5.427974 0.864065,-2.557052 1.164511,-5.328204 1.164511,-8.153204 0,-15.4 -11.846328,-27.899588 -26.851935,-28.799588 z m 0,0.193676 v 13.309152 c 0,0.0724 -3.615685,0.0387 -3.615685,0.0387 l 0.111364,-13.356366 c -6.090376,0.172229 -11.72018,1.072488 -16.437021,-2.878506 -1.579538,1.2 -2.962029,1.900444 -2.962029,1.900444 -8.0951266,5.2 -14.2157948,3.844115 -16.88126392,14.344108 H 76.491984 c -2.665473,-10.499913 -8.88474,-9.044068 -17.078572,-14.344068 0,0 -1.185188,-0.699975 -2.764722,-1.799975 -4.660335,3.903666 -10.62539,2.98832 -16.782005,2.786511 z M 29.496687,35.331839 c 1.090219,3.55e-4 1.973928,0.884063 1.974283,1.974282 3.13e-4,1.090692 -0.883591,1.975138 -1.974283,1.975493 -1.091164,3.13e-4 -7.127587,0.06777 -7.127273,-1.023391 3.55e-4,-1.090691 6.036581,-2.926697 7.127273,-2.926384 z m 18.933551,1.629087 c 1.234573,4.7e-4 3.07352,-1.256323 3.07399,-0.02175 1.98e-4,1.235045 -2.525946,2.236484 -3.760992,2.236955 -1.235518,1.98e-4 -2.029165,-0.238813 -2.028967,-1.474331 4.7e-4,-1.235046 1.480923,-0.741073 2.715969,-0.740874 z M 30.421832,56.65984 c 0.5562,-0.0052 1.848314,-0.463471 2.502871,-0.482728 0.512391,-0.01369 3.453369,0.369512 3.453502,1.048872 -2.65e-4,1.358721 -2.529919,0.531734 -3.138659,0.531448 -0.72765,-1.69e-4 -1.900661,0.4555 -2.698188,0.464582 -0.691378,0.0079 -3.00085,-0.633533 -3.000982,-1.312673 0.01791,-0.634774 2.177467,-0.242865 2.881456,-0.249501 z m 18.008406,-1.90208 c 1.234573,4.7e-4 1.052798,1.131803 1.053268,2.366376 1.98e-4,1.235045 -0.505224,2.114016 -1.74027,2.114487 -1.235518,1.98e-4 -7.359491,-1.221314 -7.359293,-2.456832 4.7e-4,-1.235046 6.811249,-2.02423 8.046295,-2.024031 z"
       sodipodi:nodetypes="cccscccccccsccccccsccsccccsssssssccccccccccccccccccccccccscccscsccccc" /><path
       style="fill:#7a7978;fill-opacity:1;stroke-width:1.85929;stroke-linecap:round"
       d="m 50.636659,54.961134 16.911191,-1.28096 c 0,0 -2.201439,-1.038113 -2.158344,-2.190024 0.0431,-1.151911 1.01439,-2.7596 2.828776,-2.92003 1.814386,-0.16043 5.475695,1.696761 5.566304,4.015045 0.09061,2.318284 -1.970892,4.229389 -5.168128,4.185111 -3.197236,-0.04428 -17.693113,0.125353 -17.693113,0.125353"
       id="path2"
       sodipodi:nodetypes="cczzzzc" /><path
       style="fill:#7a7978;fill-opacity:1;stroke-width:1.72742;stroke-linecap:round"
       d="m 49.954618,59.712047 23.049954,0.600556 c 0,0 -2.201439,0.896075 -2.158344,1.890379 0.0431,0.994303 1.01439,2.382023 2.828776,2.520502 1.814386,0.13848 5.475695,-1.464605 5.566304,-3.465694 0.09061,-2.00109 -2.186567,-3.976502 -5.383803,-3.938283 -3.197236,0.03822 -23.060078,0.10478 -23.060078,0.10478"
       id="path2-5"
       sodipodi:nodetypes="cczzzzc" /></g></svg>
