<?xml version="1.0" encoding="UTF-8" standalone="no"?>
<svg
   viewBox="271.7715 97.991 131.97915 101.83305"
   width="131.97899"
   height="101.83318"
   preserveAspectRatio="none"
   version="1.1"
   id="svg1"
   sodipodi:docname="tightrope.svg"
   xml:space="preserve"
   inkscape:version="1.4.2 (ebf0e940, 2025-05-08)"
   xmlns:inkscape="http://www.inkscape.org/namespaces/inkscape"
   xmlns:sodipodi="http://sodipodi.sourceforge.net/DTD/sodipodi-0.dtd"
   xmlns="http://www.w3.org/2000/svg"
   xmlns:svg="http://www.w3.org/2000/svg"><sodipodi:namedview
     id="namedview1"
     pagecolor="#ffffff"
     bordercolor="#000000"
     borderopacity="0.25"
     inkscape:showpageshadow="2"
     inkscape:pageopacity="0.0"
     inkscape:pagecheckerboard="0"
     inkscape:deskcolor="#d1d1d1"
     inkscape:zoom="5.3706957"
     inkscape:cx="46.455806"
     inkscape:cy="71.77841"
     inkscape:window-width="896"
     inkscape:window-height="204"
     inkscape:window-x="0"
     inkscape:window-y="39"
     inkscape:window-maximized="0"
     inkscape:current-layer="g1" /><defs
     id="defs1"><clipPath
       clipPathUnits="userSpaceOnUse"
       id="clipPath3676"><path
         d="M 0,276 H 276 V 0 H 0 Z"
         transform="translate(-229.99576,-165.3814)"
         id="path3676" /></clipPath><clipPath
       clipPathUnits="userSpaceOnUse"
       id="clipPath3678"><path
         d="M 0,276 H 276 V 0 H 0 Z"
         transform="translate(-104.96175,-94.022305)"
         id="path3678" /></clipPath></defs><g
     id="g2"
     transform="matrix(2.452003,0,0,2.451997,265.77149,75.918122)"
     style="fill:#7a7978;fill-opacity:1">
	<g
   id="g1"
   style="fill:#7a7978;fill-opacity:1">
		<circle
   style="fill:#7a7978;fill-opacity:1"
   cx="29.798"
   cy="12.376"
   r="3.3740001"
   id="circle1" />
		<path
   style="fill:#7a7978;fill-opacity:1"
   d="M 56.160018,45.556 32.315,48.702 c 1.03,-0.24 1.8,-1.16 1.8,-2.268 V 30.822 c 0.038,-0.188 0.059,-0.387 0.059,-0.6 v -1.734 c 0.014,-0.116 0.012,-0.233 0,-0.35 v -8.485 c 3.189,-0.813 6.379,-1.626 9.568,-2.438 1.993,-0.508 1.146,-3.587 -0.849,-3.079 -3.324,0.848 -6.647,1.695 -9.974,2.542 -0.984,-0.564 -2.334,-0.502 -3.229,0.187 -3.484,-1.191 -6.97,-2.384 -10.455,-3.575 -1.947,-0.666 -2.923,2.374 -0.975,3.041 3.494,1.195 6.99,2.391 10.483,3.586 v 7.735 c -2.29,1.395 -4.534,2.861 -6.943,4.053 -1.054,0.521 -1.291,1.947 -0.761,2.902 1.195,2.16 2.362,4.336 3.537,6.508 1.301,2.406 4.965,0.264 3.665,-2.143 -0.824,-1.525 -1.649,-3.049 -2.479,-4.57 1.248,-0.699 2.466,-1.449 3.683,-2.201 v 14.236 c 0,1.123 0.794,2.061 1.854,2.283 l -28.7580179,-3.164 -0.094,1.751661 29.2860179,3.219 0.052,0.006 24.487018,-3.225 z"
   id="path1"
   sodipodi:nodetypes="ccscscccccccccccccccccsccccccc" />
	</g>
</g></svg>
