<?xml version="1.0" encoding="UTF-8" standalone="no"?>
<svg
   viewBox="64.7603 119.2216 161.39201 166.15368"
   width="161.39183"
   height="166.15341"
   preserveAspectRatio="none"
   version="1.1"
   id="svg1"
   sodipodi:docname="tip of iceberg.svg"
   inkscape:version="1.4.2 (ebf0e940, 2025-05-08)"
   xml:space="preserve"
   xmlns:inkscape="http://www.inkscape.org/namespaces/inkscape"
   xmlns:sodipodi="http://sodipodi.sourceforge.net/DTD/sodipodi-0.dtd"
   xmlns="http://www.w3.org/2000/svg"
   xmlns:svg="http://www.w3.org/2000/svg"><defs
     id="defs1" /><sodipodi:namedview
     id="namedview1"
     pagecolor="#ffffff"
     bordercolor="#000000"
     borderopacity="0.25"
     inkscape:showpageshadow="2"
     inkscape:pageopacity="0.0"
     inkscape:pagecheckerboard="0"
     inkscape:deskcolor="#d1d1d1"
     showgrid="false"
     inkscape:zoom="1.8166071"
     inkscape:cx="89.452474"
     inkscape:cy="28.349553"
     inkscape:window-width="896"
     inkscape:window-height="204"
     inkscape:window-x="0"
     inkscape:window-y="39"
     inkscape:window-maximized="0"
     inkscape:current-layer="svg1" /><path
     fill="#000000"
     d="m 167.13375,133.22106 -19.75083,12.17938 -17.96027,21.17283 85.49867,0.34589 -7.85002,-24.71264 -10.5417,-5.23435 -4.66432,5.56183 2.32641,-7.51318 -14.81657,-15.79922 z M 90.87663,127.4588 v 32.87516 h 11.00123 c -1.97855,-11.34553 -4.7867,-22.80245 -11.00123,-32.87477 z m -23.22775,31.88499 3.38846,8.35433 h 33.35811 l 6.77694,-8.35433 z m -2.88858,6.58599 v 7.01062 h 161.39205 v -7.01062 z m 58.72145,14.02125 -2.37972,13.31629 -4.12125,13.13318 4.72134,25.74604 5.6308,23.43783 5.7082,-8.84624 1.3959,-5.33859 -0.21634,-15.10794 3.2832,14.23602 -5.58704,15.70402 14.11186,18.04851 18.58594,11.09509 12.502,-7.81276 -3.09218,-20.3719 6.92975,18.64338 26.18434,-35.03073 -4.93955,-34.47977 7.80468,31.43681 12.27566,-16.83787 0.65868,-33.47078 -5.53883,-7.49982 -30.75103,0.15107 2.5247,2.46234 -9.14887,39.56212 2.99627,-37.52826 -2.17131,-4.49697 z"
     id="path1"
     style="fill:#7a7978;fill-opacity:1;stroke-width:0.389479"
     sodipodi:nodetypes="cccccccccccccccccccccccccccccccccccccccccccccccccccc" /></svg>
