<?xml version="1.0" encoding="UTF-8" standalone="no"?>
<svg
   viewBox="238.1436 94.3229 204.9297 202.3847"
   width="204.93px"
   height="202.385px"
   preserveAspectRatio="none"
   version="1.1"
   id="svg1"
   sodipodi:docname="tragedy comedy.svg"
   xml:space="preserve"
   inkscape:version="1.4.2 (ebf0e940, 2025-05-08)"
   xmlns:inkscape="http://www.inkscape.org/namespaces/inkscape"
   xmlns:sodipodi="http://sodipodi.sourceforge.net/DTD/sodipodi-0.dtd"
   xmlns="http://www.w3.org/2000/svg"
   xmlns:svg="http://www.w3.org/2000/svg"><defs
     id="defs1" /><sodipodi:namedview
     id="namedview1"
     pagecolor="#ffffff"
     bordercolor="#000000"
     borderopacity="0.25"
     inkscape:showpageshadow="2"
     inkscape:pageopacity="0.0"
     inkscape:pagecheckerboard="0"
     inkscape:deskcolor="#d1d1d1"
     inkscape:zoom="1.9443097"
     inkscape:cx="84.09154"
     inkscape:cy="90.006236"
     inkscape:window-width="1712"
     inkscape:window-height="971"
     inkscape:window-x="0"
     inkscape:window-y="39"
     inkscape:window-maximized="1"
     inkscape:current-layer="svg1" /><path
     id="path1"
     style="fill:#7a7978;fill-opacity:1;stroke-width:0.229054"
     d="m 429.05153,187.688 c -0.28364,0.007 -0.56865,0.0584 -0.8418,0.1543 -6.38601,2.24359 -16.23866,3.68749 -27.32027,3.68749 -2.69413,0 -9.74961,1.44343 -12.87363,-0.0248 -6.01935,16.11874 -17.72999,16.47542 -18.27476,19.73571 5.18248,6.80991 12.86392,8.61425 19.96324,16.21641 1.20036,-1.20522 1.19977,-1.25823 3.63829,-2.62268 1.30143,-1.10438 3.67248,-1.93737 7.54686,-2.25 7.41996,0 13.43553,6.01557 13.43553,13.43553 -3.1e-4,0.96683 -0.13015,1.89554 -0.3418,2.79687 -0.002,0.009 -0.005,0.0184 -0.008,0.0273 -0.005,0.0239 -0.01,0.0484 -0.0156,0.0723 -0.0582,0.24692 -0.24295,0.44809 -0.48437,0.52734 -0.24189,0.0808 -0.50693,0.0295 -0.70117,-0.13476 -0.75497,-0.63436 -1.71913,-1.41087 -2.81445,-2.13086 -2.40756,-1.43399 -5.46305,-2.51647 -8.61327,-1.68164 -0.16089,0.0699 -0.32089,0.14666 -0.48047,0.23243 -1.9456,1.0456 -0.11281,1.26494 -1.63635,1.62031 7.17196,7.80466 9.34975,14.61651 9.76134,14.70779 3.91342,0.86782 24.75387,-20.53667 24.75387,-46.414 -2.3e-4,-5.58204 -0.69769,-10.92355 -1.95703,-15.88279 -0.18874,-0.74969 -0.6862,-1.38248 -1.36718,-1.74804 -0.42447,-0.22705 -0.89642,-0.3367 -1.36914,-0.32422 z m -17.12498,19.58005 c 0.74588,-0.009 1.56494,0.008 2.42578,0.008 3.44336,0 6.23437,1.88155 6.23437,4.20117 -2.3e-4,2.31963 -2.79101,4.20116 -6.23437,4.20116 -3.44359,0 -6.23437,-4.0495 -6.23437,-6.36913 0,-1.73971 1.57095,-2.01306 3.80859,-2.04101 z m -24.37887,0.37695 c 3.44336,0 6.30468,-0.22392 6.30468,2.0957 -2.3e-4,2.31963 -2.86132,6.30468 -6.30468,6.30468 -3.4436,0 -6.4453,-1.24286 -6.4453,-3.56249 0,-2.31963 3.00193,-4.83789 6.4453,-4.83789 z"
     sodipodi:nodetypes="scsccccccsccccccccccccssccsssscsssss" /><path
     id="path1-6"
     style="fill:#7a7978;fill-opacity:1;stroke-width:0.220587"
     d="m 47.795166,42.481592 c -0.118468,0.0017 -0.246099,0.0098 -0.387207,0.02759 -3.352929,0.198529 -6,2.955737 -6,6.352784 0,1.235095 0.357304,2.394497 0.972901,3.375976 1.078787,-0.09045 2.01588,-0.271973 2.698974,-0.511963 0.04625,-0.01635 0.09461,-0.02417 0.142578,-0.02417 0.07026,0 0.139821,0.01695 0.202637,0.05054 0.106349,0.05702 0.184147,0.156112 0.213623,0.273193 0.196674,0.77446 0.30542,1.608573 0.30542,2.480225 0,4.041391 -2.297052,7.317627 -5.130859,7.317627 -0.47246,0 -0.930036,-0.09124 -1.364502,-0.261719 -0.08416,0.249196 -0.159164,0.501592 -0.22461,0.756103 h 17.073487 c -0.595587,-2.316168 -1.9634,-4.477945 -3.772217,-5.625 0,0 -0.308681,-0.15424 -0.661621,-0.418945 -0.387822,-0.301254 -0.733252,-0.51955 -0.661865,-0.573486 -0.308822,-0.330881 -0.573487,-0.70597 -0.573487,-1.103028 2.073522,-1.058819 3.529541,-3.242713 3.529541,-5.735351 0,-2.316168 -1.235286,-4.323491 -3.066162,-5.448487 C 50.6736,43.15628 50.74299,42.978052 49.768067,42.795806 49.437186,42.685512 49.084386,42.597247 48.731446,42.55313 48.423575,42.52921 48.150571,42.47654 47.795166,42.4816 Z"
     transform="matrix(7.9999884,0,0,7.9999884,-39.855999,-228.47663)"
     sodipodi:nodetypes="scsccsccsscccccccscccss" /><g
     style="fill:#7a7978;fill-opacity:1"
     id="g1"
     transform="matrix(0.38648622,0,0,0.38648622,253.57213,95.095372)" /><path
     d="m 321.77762,210.39591 c 0,-5.94779 -0.74277,-11.64027 -2.08479,-16.92487 -0.20113,-0.79891 -0.7313,-1.47407 -1.45698,-1.86316 -0.42864,-0.22919 -0.90437,-0.34562 -1.38377,-0.34562 -0.32732,0 -0.65611,0.0539 -0.97173,0.16549 -6.80529,2.39089 -17.3049,3.92891 -29.11434,3.92891 -11.80966,0 -22.30929,-1.53802 -29.11457,-3.92891 -0.3139,-0.11155 -0.64099,-0.16549 -0.96807,-0.16549 -0.47916,0 -0.95709,0.11765 -1.38767,0.34759 -0.72374,0.38908 -1.25561,1.06399 -1.45698,1.86119 -1.34203,5.28485 -2.0848,10.97708 -2.0848,16.92487 0,27.5768 15.67487,49.93125 35.01209,49.93125 19.33674,0 35.01161,-22.35445 35.01161,-49.93125 z m -56.00328,6.20579 c 0,-2.47241 2.97426,-4.47615 6.64394,-4.47615 3.66944,0 6.6437,4.31408 6.6437,6.78649 0,2.47192 -2.97426,2.16583 -6.6437,2.16583 -3.66968,0 -6.64394,-2.00424 -6.64394,-4.47617 z m 20.99167,34.28593 c -7.90736,0 -14.31746,-6.41035 -14.31746,-14.31699 0,-1.03031 0.13889,-2.02132 0.36442,-2.98207 0.062,-0.26264 0.25776,-0.47525 0.51504,-0.56215 0.25776,-0.0844 0.5414,-0.03 0.74839,0.14304 2.72748,2.29179 7.36719,3.81443 12.68937,3.81443 5.32219,0 9.96189,-1.52264 12.68914,-3.81443 0.20723,-0.17501 0.49086,-0.2292 0.74838,-0.14304 0.25752,0.085 0.45304,0.29951 0.51504,0.56215 0.22554,0.96075 0.36467,1.95176 0.36467,2.98207 2.5e-4,7.90664 -6.41011,14.31699 -14.31699,14.31699 z m 7.70356,-31.97559 c 0,-2.47241 2.97426,-6.78649 6.64394,-6.78649 3.66944,0 6.6437,2.00374 6.6437,4.47615 0,2.47193 -2.97426,4.47617 -6.6437,4.47617 -3.66968,0 -6.64394,0.30609 -6.64394,-2.16583 z"
     id="path2"
     style="fill:#7a7978;fill-opacity:1;stroke-width:0.244092" /></svg>
