<?xml version="1.0" encoding="UTF-8" standalone="no"?>
<svg
   viewBox="192.9592 56.9684 204.1296 245.2802"
   width="204.13px"
   height="245.28px"
   preserveAspectRatio="none"
   version="1.1"
   id="svg1"
   sodipodi:docname="triangle flag.svg"
   xml:space="preserve"
   inkscape:version="1.4.2 (ebf0e940, 2025-05-08)"
   xmlns:inkscape="http://www.inkscape.org/namespaces/inkscape"
   xmlns:sodipodi="http://sodipodi.sourceforge.net/DTD/sodipodi-0.dtd"
   xmlns="http://www.w3.org/2000/svg"
   xmlns:svg="http://www.w3.org/2000/svg"><defs
     id="defs1" /><sodipodi:namedview
     id="namedview1"
     pagecolor="#ffffff"
     bordercolor="#000000"
     borderopacity="0.25"
     inkscape:showpageshadow="2"
     inkscape:pageopacity="0.0"
     inkscape:pagecheckerboard="0"
     inkscape:deskcolor="#d1d1d1"
     inkscape:zoom="1.7501946"
     inkscape:cx="159.12516"
     inkscape:cy="119.98666"
     inkscape:window-width="1712"
     inkscape:window-height="971"
     inkscape:window-x="0"
     inkscape:window-y="39"
     inkscape:window-maximized="1"
     inkscape:current-layer="g2" /><g
     id="g3"
     transform="matrix(0.74106055,0,0,0.74106266,208.18778,109.42752)"
     style="fill:#7a7978;fill-opacity:1">
	<g
   id="g2"
   style="fill:#7a7978;fill-opacity:1">
		<path
   style="fill:#7a7978;fill-opacity:1"
   d="m 131.75009,13.490675 c -2.633,-0.642 -29.96679,-7.4170374 -35.008792,-7.3470374 -6.94,0.098 9.906792,14.1400374 9.906792,23.1530374 v 53.248 c 0,9.013003 -7.328055,19.729355 -4.20005,19.561355 1.741,-0.092 4.43933,4.07635 6.38133,3.48335 35.408,-10.828996 74.45572,-48.537705 89.41772,-66.062705 5.852,-6.853 3.024,-10.584 -5.983,-11.009 -20.874,-0.989 -46.155,-11.53 -60.514,-15.027 z"
   id="path1"
   sodipodi:nodetypes="ccssccccc" />
		<path
   style="fill:#7a7978;fill-opacity:1"
   d="m 109.75283,7.447 c -0.941,-0.245 -1.898,-0.446 -2.861,-0.587 C 85.173829,3.716 37.528934,-0.83864765 25.829934,0.61335235 40.998791,-4.2615806 37.995616,-22.872737 19.291486,-22.816457 0.58703488,-22.760176 4.0337531,-1.338495 16.582552,0.97853353 4.0844761,3.5651241 5.4578285,21.061 5.4578285,30.068 V 208.16 c 0,9.013 3.089,19.847 6.9020005,24.204 3.813,4.357 10.438,4.357 14.794,0 4.357,-4.357 7.887,-15.191 7.887,-24.204 v -56.381 c 0,-9.013 0.544,-17.057 1.409,-17.78 0.457,-0.386 1.028,-0.789 1.697,-1.131 8.235,-4.313 45.253,-21.082 69.723001,-26.695 0.794,-0.185 1.566,-0.305 2.328,-0.381 1.294,-0.131 2.355,-7.424 2.355,-16.431 V 24.635 c 0.001,-9.013 -1.234,-16.78 -2.8,-17.188 z"
   id="path2"
   sodipodi:nodetypes="cccscssscssccccscc" />
	</g>
</g></svg>
