<?xml version="1.0" encoding="UTF-8" standalone="no"?>
<svg
   viewBox="192.9592 56.9684 102.32936 101.51979"
   width="102.32956"
   height="101.51971"
   preserveAspectRatio="none"
   version="1.1"
   id="svg1"
   sodipodi:docname="unravelling sweater.svg"
   xml:space="preserve"
   inkscape:version="1.4.2 (ebf0e940, 2025-05-08)"
   xmlns:inkscape="http://www.inkscape.org/namespaces/inkscape"
   xmlns:sodipodi="http://sodipodi.sourceforge.net/DTD/sodipodi-0.dtd"
   xmlns="http://www.w3.org/2000/svg"
   xmlns:svg="http://www.w3.org/2000/svg"><defs
     id="defs1" /><sodipodi:namedview
     id="namedview1"
     pagecolor="#ffffff"
     bordercolor="#000000"
     borderopacity="0.25"
     inkscape:showpageshadow="2"
     inkscape:pageopacity="0.0"
     inkscape:pagecheckerboard="0"
     inkscape:deskcolor="#d1d1d1"
     inkscape:zoom="2.5948285"
     inkscape:cx="-24.471752"
     inkscape:cy="19.076405"
     inkscape:window-width="896"
     inkscape:window-height="204"
     inkscape:window-x="0"
     inkscape:window-y="39"
     inkscape:window-maximized="0"
     inkscape:current-layer="svg1" /><g
     style="fill:#000000"
     id="g1"
     transform="matrix(0.40462379,0,0,0.40462493,192.67596,53.731401)"><path
       id="XMLID_27_"
       d="m 165.6,159.9 c -3.23333,-3.23333 -6.46667,-6.46667 -9.7,-9.7 3.23333,-3.23333 6.46667,-6.46667 9.7,-9.7 3.23333,3.23333 6.46667,6.46667 9.7,9.7 -3.23333,3.23333 -6.46667,6.46667 -9.7,9.7 z M 55.8,189.78576 C 58.6,160.52384 61.4,131.26192 64.2,102 58.696113,89.934427 49.009502,102.11028 50.9496,110.65794 47.033066,156.77196 43.116533,202.88598 39.2,249 26.366667,249 13.533333,249 0.7,249 4.9789162,196.29953 9.6628754,143.61448 13.688391,90.904374 13.090393,65.856195 26.799365,38.722022 51.846875,30.850952 64.143509,26.628107 77.261512,28.370754 90,28 90.509625,21.968208 88.768216,15.428795 91.3375,9.8375 101.47289,7.4032424 113.42704,16.719948 125.17581,14.979919 136.68563,15.165176 148.46788,13.250045 158.8,8 c 7.8275,1.2963083 4.63015,10.588072 5.3,16.180242 -1.81218,6.113054 5.45451,3.147242 9.08288,3.819758 15.48655,-0.602961 32.10505,0.589932 44.59622,10.868555 17.28352,13.066947 23.63797,35.675492 23.15063,56.516718 C 245.15315,146.59018 249.37658,197.79509 253.6,249 c -12.8,0 -25.6,0 -38.4,0 -4.16667,-48.66667 -8.33333,-97.33333 -12.5,-146 -3.17684,-12.880963 -16.5344,-2.38038 -11.86794,6.65057 2.55598,26.71173 5.11196,53.42346 7.66794,80.13519 -23.83333,0 -47.66667,0 -71.5,0 M 68,126 c 39.46667,0 78.93333,0 118.4,0 1.65312,-6.10033 -4.92989,-3.48775 -8.58419,-4 -36.50527,0 -73.01054,0 -109.51581,0 -0.04889,1.33473 -0.210115,2.6668 -0.3,4 z m 97.7,5.1 c -6.4,6.4 -12.8,12.8 -19.2,19.2 -6.48973,-6.32351 -13.05945,-13.25701 -19.5,-19.2 -6.4,6.4 -12.8,12.8 -19.2,19.2 -6.4,-6.4 -12.8,-12.8 -19.2,-19.2 -6.4,6.4 -12.8,12.8 -19.2,19.2 6.4,6.4 12.8,12.8 19.2,19.2 6.4,-6.4 12.8,-12.8 19.2,-19.2 6.42423,6.32114 12.92271,13.26205 19.3,19.2 6.43333,-6.4 12.86667,-12.8 19.3,-19.2 6.4,6.4 12.8,12.8 19.2,19.2 6.4,-6.4 12.8,-12.8 19.2,-19.2 -6.36667,-6.4 -12.73333,-12.8 -19.1,-19.2 z m 23.7,47.9 c 1.62815,-6.0817 -4.91839,-3.49526 -8.58419,-4 -38.50527,0 -77.01054,0 -115.51581,0 -2.404493,6.08805 4.473168,3.49954 8.084194,4 38.671936,0 77.343866,0 116.015806,0 z M 79.1,150.2 c 3.233333,3.23333 6.466667,6.46667 9.7,9.7 3.233333,-3.23333 6.466667,-6.46667 9.7,-9.7 -3.233333,-3.23333 -6.466667,-6.46667 -9.7,-9.7 -3.233333,3.23333 -6.466667,6.46667 -9.7,9.7 z m 47.9,-9.6 c -3.23333,3.23333 -6.46667,6.46667 -9.7,9.7 3.23333,3.23333 6.46667,6.46667 9.7,9.7 3.23333,-3.23333 6.46667,-6.46667 9.7,-9.7 -3.23333,-3.23333 -6.46667,-6.46667 -9.7,-9.7 z"
       style="fill:#7a7978;fill-opacity:1" /><path
       style="fill:#7a7978;stroke-width:12.3571;stroke-linecap:round"
       id="path1"
       d="m 105.11069,197.61746 c 16.87019,-0.71345 37.18524,-3.67475 53.9611,-4.9839 6.70795,-0.0604 29.18072,10.11989 30.72289,5.41891 2.58863,-5.84842 8.26398,1.01315 8.24016,-9.04024 -16.01629,0.40958 -123.461948,-1.20899 -139.465163,-1.72005 -7.305207,1.26864 1.800645,6.47688 -0.593992,8.29468 6.802076,5.08055 40.578027,-3.38443 47.135005,2.0306 z"
       sodipodi:nodetypes="ccccccc" /><path
       style="baseline-shift:baseline;display:inline;overflow:visible;opacity:1;vector-effect:none;fill:#7a7978;fill-opacity:1;stroke-linecap:round;enable-background:accumulate;stop-color:#000000;stop-opacity:1"
       d="m 61.400391,192.56055 a 3.70714,3.70714 0 0 0 -3.058594,4.25976 c 0.3097,1.88527 -0.319873,5.6077 -0.246094,9.58985 0.03689,1.99107 0.288493,4.1601 1.367188,6.26562 1.078104,2.10438 3.089672,3.95531 5.669921,4.96289 0.0014,5.5e-4 0.0025,0.001 0.0039,0.002 10.693096,4.31655 21.782923,5.51486 31.779297,8.39454 l 0.06055,0.0176 0.06055,0.0156 c 11.800111,2.97564 23.291431,7.25493 34.191411,12.65039 l 0.0879,0.043 0.0879,0.0371 c 2.63393,1.13788 4.32789,3.15664 6.14062,5.99804 1.81274,2.84141 3.54551,6.40635 6.48242,9.59375 l 0.0352,0.0391 0.0371,0.0371 c 1.78383,1.82983 3.98977,3.34852 6.56055,4.23047 a 3.70714,3.70714 0 0 0 4.71093,-2.30274 3.70714,3.70714 0 0 0 -2.30468,-4.70898 c -1.29762,-0.44517 -2.55086,-1.27879 -3.61524,-2.35938 -1.96476,-2.14679 -3.56926,-5.24629 -5.65625,-8.51758 -2.09553,-3.28467 -4.87954,-6.83462 -9.43555,-8.80859 -11.2766,-5.56851 -23.16219,-9.99496 -35.39062,-13.08789 l -0.0078,-0.002 C 88.133317,215.79194 77.318388,214.56985 67.875,210.75 l -0.02148,-0.008 -0.02148,-0.008 c -1.161281,-0.45295 -1.458515,-0.83237 -1.769531,-1.43945 -0.311016,-0.60708 -0.5289,-1.63159 -0.554688,-3.02344 -0.05157,-2.7837 0.818839,-6.58519 0.150391,-10.65429 A 3.70714,3.70714 0 0 0 61.4004,192.56018 Z"
       id="path2" /></g></svg>
