<?xml version="1.0" encoding="UTF-8" standalone="no"?>
<!-- Uploaded to: SVG Repo, www.svgrepo.com, Generator: SVG Repo Mixer Tools -->

<svg
   fill="#000000"
   version="1.1"
   id="Capa_1"
   width="800px"
   height="800px"
   viewBox="0 0 612.002 612.002"
   xml:space="preserve"
   sodipodi:docname="alarm-clock.svg"
   inkscape:version="1.4.2 (ebf0e940, 2025-05-08)"
   xmlns:inkscape="http://www.inkscape.org/namespaces/inkscape"
   xmlns:sodipodi="http://sodipodi.sourceforge.net/DTD/sodipodi-0.dtd"
   xmlns="http://www.w3.org/2000/svg"
   xmlns:svg="http://www.w3.org/2000/svg"><defs
   id="defs8" /><sodipodi:namedview
   id="namedview8"
   pagecolor="#ffffff"
   bordercolor="#000000"
   borderopacity="0.25"
   inkscape:showpageshadow="2"
   inkscape:pageopacity="0.0"
   inkscape:pagecheckerboard="0"
   inkscape:deskcolor="#d1d1d1"
   inkscape:zoom="0.5940633"
   inkscape:cx="526.03821"
   inkscape:cy="518.46326"
   inkscape:window-width="1712"
   inkscape:window-height="971"
   inkscape:window-x="0"
   inkscape:window-y="39"
   inkscape:window-maximized="1"
   inkscape:current-layer="Capa_1" />
<g
   id="g8"
   transform="matrix(0.98145214,0,0,0.98145214,4.8770051e-6,10.45031)"
   style="fill:#000000;fill-opacity:1">
	<g
   id="g7"
   style="fill:#000000;fill-opacity:1">
		<path
   d="m 477.087,291.554 c 0,-94.483 -76.614,-171.081 -171.089,-171.081 -94.466,0 -171.081,76.597 -171.081,171.081 0,94.466 76.614,171.081 171.081,171.081 94.475,0.008 171.089,-76.606 171.089,-171.081 z M 319.174,422.475 v -19.268 c 0,-7.264 -5.889,-13.168 -13.176,-13.168 -7.279,0 -13.167,5.906 -13.167,13.168 v 19.268 C 230.784,416.28 181.272,366.768 175.077,304.721 h 19.286 c 7.262,0 13.15,-5.888 13.15,-13.167 0,-7.288 -5.888,-13.167 -13.15,-13.167 h -19.286 c 6.195,-62.047 55.707,-111.542 117.754,-117.754 v 19.269 c 0,7.262 5.888,13.167 13.167,13.167 7.287,0 13.176,-5.905 13.176,-13.167 v -19.269 c 62.047,6.212 111.559,55.707 117.754,117.754 h -19.252 c -7.278,0 -13.167,5.888 -13.167,13.167 0,7.279 5.889,13.167 13.167,13.167 h 19.243 c -6.187,62.056 -55.698,111.568 -117.745,117.754 z"
   id="path1"
   style="fill:#000000;fill-opacity:1" />
		<path
   d="m 369.769,271.79 h -42.36 c -4.548,-4.916 -10.684,-8.184 -17.664,-9.08 L 272.01,209.606 c -6.307,-8.892 -18.68,-10.974 -27.546,-4.668 -8.867,6.323 -10.957,18.654 -4.643,27.546 l 37.633,53.01 c -0.418,1.971 -0.649,3.977 -0.649,6.059 0,16.138 13.057,29.228 29.185,29.228 8.491,0 16.059,-3.688 21.41,-9.465 h 42.361 c 10.896,0 19.729,-8.849 19.729,-19.763 0.008,-10.914 -8.824,-19.763 -19.721,-19.763 z"
   id="path2"
   style="fill:#000000;fill-opacity:1" />
		<path
   d="m 224.4,120.26 c -8.218,-6.75 -17.989,-11.546 -28.536,-14.447 v -2.68 c 0,-15.557 12.672,-28.229 28.237,-28.229 H 387.92 c 15.557,0 28.237,12.672 28.237,28.229 v 2.68 c -10.556,2.901 -20.318,7.706 -28.536,14.447 47.941,22.921 84.857,65.265 100.32,116.893 15.676,-14.123 25.592,-34.501 25.592,-57.251 0,-40.543 -31.31,-73.688 -71.05,-76.785 C 442.449,73.027 418,48.578 387.911,48.578 H 224.093 c -30.089,0 -54.538,24.449 -54.555,54.538 -39.741,3.098 -71.05,36.242 -71.05,76.785 0,22.75 9.916,43.12 25.592,57.251 15.463,-51.628 52.379,-93.971 100.32,-116.892 z"
   id="path3"
   style="fill:#000000;fill-opacity:1" />
		<path
   d="m 205.166,450.217 c -94.091,-54.537 -87.512,-152.903 -87.17,-157.05 0.879,-10.744 -7.091,-20.182 -17.852,-21.104 -10.625,-1.067 -20.242,7.074 -21.163,17.835 -0.444,5.137 -9.481,126.946 106.567,194.19 3.081,1.801 6.46,2.637 9.788,2.637 6.75,0 13.321,-3.5 16.957,-9.771 5.434,-9.345 2.243,-21.309 -7.127,-26.737 z"
   id="path4"
   style="fill:#000000;fill-opacity:1" />
		<path
   d="M 178.848,525.842 C 26.985,461.209 38.804,288.806 39.393,281.484 40.238,270.723 32.208,261.294 21.447,260.415 10.55,259.724 1.282,267.566 0.361,278.31 c -0.154,2.065 -15.002,207.749 163.153,283.544 2.509,1.066 5.103,1.57 7.663,1.57 7.612,0 14.84,-4.473 18.006,-11.912 4.249,-9.944 -0.402,-21.446 -10.335,-25.67 z"
   id="path5"
   style="fill:#000000;fill-opacity:1" />
		<path
   d="m 533.016,289.898 c -0.913,-10.761 -10.53,-18.91 -21.163,-17.835 -10.778,0.921 -18.774,10.402 -17.835,21.163 0.076,1.016 7.586,102.053 -87.188,156.991 -9.37,5.428 -12.562,17.4 -7.126,26.744 3.627,6.273 10.206,9.771 16.956,9.771 3.328,0 6.708,-0.844 9.788,-2.637 116.048,-67.251 107.011,-189.06 106.568,-194.197 z"
   id="path6"
   style="fill:#000000;fill-opacity:1" />
		<path
   d="m 611.644,278.31 c -0.896,-10.744 -10.155,-18.603 -21.087,-17.895 -10.76,0.879 -18.79,10.3 -17.945,21.069 0.589,7.322 12.407,179.725 -139.447,244.358 -9.941,4.225 -14.583,15.727 -10.342,25.67 3.174,7.457 10.402,11.912 18.006,11.912 2.56,0 5.162,-0.496 7.663,-1.57 C 626.646,486.059 611.789,280.375 611.644,278.31 Z"
   id="path7"
   style="fill:#000000;fill-opacity:1" />
	</g>
</g>
</svg>
