<?xml version="1.0" encoding="UTF-8" standalone="no"?>
<svg
   viewBox="308.582 119.3321 57.515579 109.01628"
   width="57.515602"
   height="109.01644"
   preserveAspectRatio="none"
   version="1.1"
   id="svg1"
   sodipodi:docname="broken glass.svg"
   xml:space="preserve"
   inkscape:version="1.4.2 (ebf0e940, 2025-05-08)"
   xmlns:inkscape="http://www.inkscape.org/namespaces/inkscape"
   xmlns:sodipodi="http://sodipodi.sourceforge.net/DTD/sodipodi-0.dtd"
   xmlns="http://www.w3.org/2000/svg"
   xmlns:svg="http://www.w3.org/2000/svg"><defs
     id="defs1" /><sodipodi:namedview
     id="namedview1"
     pagecolor="#ffffff"
     bordercolor="#000000"
     borderopacity="0.25"
     inkscape:showpageshadow="2"
     inkscape:pageopacity="0.0"
     inkscape:pagecheckerboard="0"
     inkscape:deskcolor="#d1d1d1"
     inkscape:zoom="1.492685"
     inkscape:cx="84.076681"
     inkscape:cy="-40.865956"
     inkscape:window-width="1712"
     inkscape:window-height="971"
     inkscape:window-x="0"
     inkscape:window-y="39"
     inkscape:window-maximized="1"
     inkscape:current-layer="svg1" /><g
     style="fill:#000000;fill-opacity:1"
     id="g1"
     transform="matrix(0.40188303,0,0,0.40188257,282.8318,119.3321)"><path
       d="m 157.655,243.023 v -71.985 c 27.26,-7.387 52.179,-31.393 49.308,-65.275 l -10,-101.255 C 196.711,1.95 194.559,0 191.988,0 h -47.955 l -12.52,26.719 21.958,9.223 c 1.967,0.825 3.538,2.44 4.311,4.43 0.772,1.989 0.703,4.241 -0.19,6.178 l -17.733,38.42 c -1.29,2.793 -4.11,4.597 -7.186,4.597 h -0.003 c -1.147,0 -2.26,-0.245 -3.308,-0.729 -3.96,-1.827 -5.696,-6.537 -3.868,-10.498 l 14.3,-30.983 -22.001,-9.241 c -1.976,-0.829 -3.55,-2.452 -4.32,-4.452 -0.77,-1.999 -0.689,-4.259 0.22,-6.199 L 126.561,0 H 79.323 C 76.752,0 74.6,1.95 74.347,4.509 L 64.342,105.821 c -1.515,17.403 3.411,32.937 14.247,44.921 8.595,9.507 20.936,16.634 35.066,20.317 v 71.964 c -25.016,3.741 -42.726,18.776 -43.51,19.452 -1.584,1.364 -2.152,3.569 -1.425,5.529 0.728,1.959 2.597,3.26 4.688,3.26 h 124.494 c 2.09,0 3.96,-1.3 4.688,-3.26 0.727,-1.96 0.159,-4.165 -1.425,-5.529 -0.784,-0.676 -18.494,-15.71 -43.51,-19.452 z"
       id="path1"
       style="fill:#000000;fill-opacity:1" /></g></svg>
