<?xml version="1.0" encoding="UTF-8" standalone="no"?>
<svg
   viewBox="197.8818 66.7739 209.8037 245.3427"
   width="209.804px"
   height="245.343px"
   preserveAspectRatio="none"
   version="1.1"
   id="svg1"
   sodipodi:docname="card and service bill.svg"
   xml:space="preserve"
   inkscape:version="1.4.2 (ebf0e940, 2025-05-08)"
   xmlns:inkscape="http://www.inkscape.org/namespaces/inkscape"
   xmlns:sodipodi="http://sodipodi.sourceforge.net/DTD/sodipodi-0.dtd"
   xmlns="http://www.w3.org/2000/svg"
   xmlns:svg="http://www.w3.org/2000/svg"><defs
     id="defs1"><clipPath
       clipPathUnits="userSpaceOnUse"
       id="clipPath3676"><path
         d="M 0,276 H 276 V 0 H 0 Z"
         transform="translate(-229.99576,-165.3814)"
         id="path3676" /></clipPath><clipPath
       clipPathUnits="userSpaceOnUse"
       id="clipPath3678"><path
         d="M 0,276 H 276 V 0 H 0 Z"
         transform="translate(-104.96175,-94.022305)"
         id="path3678" /></clipPath></defs><sodipodi:namedview
     id="namedview1"
     pagecolor="#ffffff"
     bordercolor="#000000"
     borderopacity="0.25"
     inkscape:showpageshadow="2"
     inkscape:pageopacity="0.0"
     inkscape:pagecheckerboard="0"
     inkscape:deskcolor="#d1d1d1"
     inkscape:zoom="2.649261"
     inkscape:cx="161.36575"
     inkscape:cy="154.19394"
     inkscape:window-width="896"
     inkscape:window-height="204"
     inkscape:window-x="0"
     inkscape:window-y="39"
     inkscape:window-maximized="0"
     inkscape:current-layer="svg1" /><g
     id="g3454"
     transform="matrix(0.50971742,0,0,0.50971742,-4977.0593,105.60361)"
     style="fill:#000000"><path
       id="path3455"
       d="m 0,0 c 0,-0.806 -0.43,-1.007 -1.009,-1.007 h -13.787 c 0,15.905 -0.028,28.06 -0.028,48.738 0,5.991 2.053,17.597 11.039,12.985 C -2.925,60.275 0,58.08 0,49.238 Z m -33.091,-6.454 h -95.265 c -3.008,0 -5.447,2.438 -5.447,5.447 0,3.008 2.439,5.446 5.447,5.446 h 95.265 c 3.008,0 5.447,-2.438 5.447,-5.446 0,-3.009 -2.439,-5.447 -5.447,-5.447 m -8.851,-31.734 h -77.563 c -1.87,0 -3.386,1.516 -3.386,3.386 0,1.871 1.516,3.387 3.386,3.387 h 77.563 c 1.87,0 3.387,-1.516 3.387,-3.387 0,-1.87 -1.517,-3.386 -3.387,-3.386 m 0,-18.141 h -77.563 c -1.87,0 -3.386,1.516 -3.386,3.386 0,1.87 1.516,3.386 3.386,3.386 h 77.563 c 1.87,0 3.387,-1.516 3.387,-3.386 0,-1.87 -1.517,-3.386 -3.387,-3.386 m -29.419,-18.142 h -48.144 c -1.87,0 -3.386,1.516 -3.386,3.386 0,1.87 1.516,3.387 3.386,3.387 h 48.144 c 1.87,0 3.386,-1.517 3.386,-3.387 0,-1.87 -1.516,-3.386 -3.386,-3.386 m -54.745,89.508 c 4.446,17.832 19.12,31.614 37.432,34.751 0.372,4.066 3.787,7.252 7.95,7.252 4.164,0 7.579,-3.186 7.951,-7.252 18.312,-3.136 32.986,-16.919 37.432,-34.751 0.588,-2.36 -1.186,-4.651 -3.619,-4.651 h -83.527 c -2.433,0 -4.207,2.291 -3.619,4.651 M -5.017,72.253 -130.138,72.23 c -8.339,0 -16.311,-7.405 -16.311,-15.282 l -0.202,-163.816 c 0,-6.188 7.963,-4.63 12.764,-1.92 3.017,1.703 8.745,8.846 13.728,8.846 3.848,0 11.895,-9.916 18.948,-9.916 9.567,0 14.184,9.462 20.187,9.462 6.715,0 8.977,-9.454 21.51,-9.454 7.276,0 13.322,9.318 18.154,9.313 5.486,-0.005 14.443,-11.217 22.706,-11.217 3.806,0 3.858,1.888 3.858,2.911 v 97.758 H 8.407 c 1.301,0 2.004,0.485 2.004,2.028 l 0.291,66.107 c 0,10.384 -7.564,15.203 -15.719,15.203"
       style="fill:#000000;fill-opacity:1;fill-rule:nonzero;stroke:none"
       transform="matrix(1.3333333,0,0,-1.3333333,10362.633,157.666)"
       clip-path="url(#clipPath3456)" /></g><g
     id="g3674"
     transform="matrix(0.29892778,0,0,0.2989285,-2954.9567,173.47001)"
     style="fill:#000000"><path
       id="path3675"
       d="m 0,0 v 22.903 c 0,6.422 -5.206,11.628 -11.628,11.628 h -160.735 c -6.422,0 -11.628,-5.206 -11.628,-11.628 V 0.97 Z"
       style="fill:#000000;fill-opacity:1;fill-rule:nonzero;stroke:none"
       transform="matrix(1.3333333,0,0,-1.3333333,11170.661,147.49147)"
       clip-path="url(#clipPath3676)" /><path
       id="path3677"
       d="M 0,0 C -4.889,0 -9.253,2.243 -12.124,5.754 -14.996,2.243 -19.359,0 -24.249,0 c -8.648,0 -15.658,7.01 -15.658,15.658 0,8.648 7.01,15.659 15.658,15.659 4.89,0 9.253,-2.243 12.125,-5.754 2.871,3.511 7.235,5.754 12.124,5.754 8.648,0 15.658,-7.011 15.658,-15.659 C 15.658,7.01 8.648,0 0,0 M -58.957,54.461 V -6.306 c 0,-6.422 5.206,-11.628 11.628,-11.628 h 160.734 c 6.422,0 11.628,5.206 11.628,11.628 v 59.797 z"
       style="fill:#000000;fill-opacity:1;fill-rule:nonzero;stroke:none"
       transform="matrix(1.3333333,0,0,-1.3333333,11003.949,242.63693)"
       clip-path="url(#clipPath3678)" /></g></svg>
