<?xml version="1.0" encoding="UTF-8" standalone="no"?>
<svg
   viewBox="307.0391 52.2247 167.05911 223.93823"
   width="167.05925"
   height="223.9386"
   preserveAspectRatio="none"
   version="1.1"
   id="svg1"
   sodipodi:docname="doorbell.svg"
   xml:space="preserve"
   inkscape:version="1.4.2 (ebf0e940, 2025-05-08)"
   xmlns:inkscape="http://www.inkscape.org/namespaces/inkscape"
   xmlns:sodipodi="http://sodipodi.sourceforge.net/DTD/sodipodi-0.dtd"
   xmlns="http://www.w3.org/2000/svg"
   xmlns:svg="http://www.w3.org/2000/svg"><defs
     id="defs1" /><sodipodi:namedview
     id="namedview1"
     pagecolor="#ffffff"
     bordercolor="#000000"
     borderopacity="0.25"
     inkscape:showpageshadow="2"
     inkscape:pageopacity="0.0"
     inkscape:pagecheckerboard="0"
     inkscape:deskcolor="#d1d1d1"
     inkscape:zoom="1.5655354"
     inkscape:cx="164.48047"
     inkscape:cy="83.358064"
     inkscape:window-width="896"
     inkscape:window-height="204"
     inkscape:window-x="0"
     inkscape:window-y="39"
     inkscape:window-maximized="0"
     inkscape:current-layer="g4" /><g
     style="fill:#000000"
     id="g1"
     transform="matrix(0.75074284,0,0,0.75074284,278.59946,52.2247)"><g
       id="XMLID_1437_">
	<g
   id="g5">
		<g
   id="g4"><path
   id="path1"
   style="fill:#000000;stroke-width:2.0806;stroke-linecap:round"
   d="m 181.89066,73.075647 -6.17357,0.09626 -3.35084,8.181991 c 0,0 -4.44172,2.347297 -6.31145,4.271805 -1.86973,1.924508 -3.96535,4.519363 -4.9222,7.156965 -0.95685,2.637602 -0.91227,6.274346 -0.19512,9.261642 0.71715,2.98731 3.20239,6.85753 3.62107,6.54107 1.67338,-1.26483 4.35611,-3.28106 6.33104,-4.29995 -1.52292,-1.55227 -3.11798,-4.411423 -3.11774,-7.33502 0.001,-4.915877 5.61403,-8.900284 10.52991,-8.900028 4.91486,0.0012 10.04751,4.080889 10.04869,8.99575 9.3e-4,3.583638 -2.24278,7.392768 -5.54605,8.782338 2.71426,1.32956 2.97745,2.65998 5.04389,5.88334 0.43651,0.6809 3.59202,-2.55446 5.41651,-5.17455 1.82449,-2.62009 2.60802,-7.841271 1.90436,-13.179641 -1.19669,-9.078772 -10.88504,-12.399163 -10.88504,-12.399163 z"
   sodipodi:nodetypes="cccsssscccccssscc" />
			
			<path
   d="m 147.968,146.981 33.108,-20.638 c 5.213,-3.249 6.804,-10.109 3.555,-15.322 -3.248,-5.212 -10.108,-6.805 -15.322,-3.555 l -16.202,10.1 -0.099,-19.705 c -0.072,-14.44 -11.88,-26.189 -26.32,-26.189 -6.319,0 -53.53,0 -59.71,0 -14.44,0 -26.248,11.748 -26.32,26.189 l -0.41,81.711 c -0.02,3.941 2.028,7.428 5.141,9.421 v 9.249 h -2.911 c -2.538,0 -4.596,2.058 -4.596,4.596 v 45.342 c 0,2.538 2.058,4.596 4.596,4.596 h 17.29 c 2.538,0 4.596,-2.058 4.596,-4.596 v -45.342 c 0,-2.538 -2.058,-4.596 -4.596,-4.596 h -2.963 v -8.917 c 3.429,-1.927 5.665,-5.561 5.686,-9.641 l 0.41,-81.71 c 0,-0.016 0,-0.032 10e-4,-0.047 0.02,-1.179 0.987,-2.122 2.166,-2.111 1.179,0.01 2.129,0.969 2.129,2.148 10e-4,17.553 0.005,86.517 0.005,92.678 4.107,2.513 6.855,7.04 6.855,12.198 v 45.342 c 0,5.158 -2.748,9.685 -6.855,12.198 v 24.563 c 0,7.371 5.975,13.346 13.346,13.346 7.371,0 13.346,-5.975 13.346,-13.346 0,-5.449 0,-102.857 0,-106.681 h 5.762 c 0,3.885 0,101.378 0,106.681 0,7.371 5.975,13.346 13.346,13.346 7.371,0 13.346,-5.975 13.346,-13.346 0,-100.174 -0.18,-169.73 -0.229,-186.896 -0.004,-1.271 1.015,-2.308 2.285,-2.328 1.27,-0.02 2.322,0.985 2.358,2.257 l 0.199,39.627 c 0.02,4.031 2.22,7.735 5.749,9.682 3.56,1.96 7.866,1.811 11.258,-0.304 z"
   id="path2" />
			<path
   d="m 96.926,64.325 c 12.73,0 23.051,-10.319 23.051,-23.051 0,-12.734 -10.322,-23.051 -23.051,-23.051 -12.702,0 -23.051,10.288 -23.051,23.051 0,12.779 10.378,23.051 23.051,23.051 z"
   id="path3" />
			<path
   d="M 260.353,174.289 V 7.631 C 260.353,3.417 256.937,0 252.722,0 H 111.914 c -4.214,0 -7.631,3.416 -7.631,7.631 v 4.189852 c 7.08086,0.6875 22.48299,9.446178 22.7481,28.402366 0.011,0.782971 -2.40567,19.837636 -13.69464,26.31179 -0.91884,0.526948 12.93518,-0.03161 22.45665,0.696673 l 0.01,-44.184521 90.64,0.206914 V 156.0029 H 135.817 l 0.172,112.2991 c 0,2.023 1.64,3.663 3.663,3.663 h 117.092 c 2.023,0 3.663,-1.64 3.663,-3.663 v -94.013 z"
   id="path4"
   sodipodi:nodetypes="csssscssccccccssscc" />
		</g>
	</g>
</g></g></svg>
