<?xml version="1.0" encoding="UTF-8" standalone="no"?>
<svg
   viewBox="204.6768 59.1808 261.0781 277.3342"
   width="261.078px"
   height="277.334px"
   preserveAspectRatio="none"
   version="1.1"
   id="svg1"
   sodipodi:docname="dress tux.svg"
   inkscape:version="1.4.2 (ebf0e940, 2025-05-08)"
   xmlns:inkscape="http://www.inkscape.org/namespaces/inkscape"
   xmlns:sodipodi="http://sodipodi.sourceforge.net/DTD/sodipodi-0.dtd"
   xmlns="http://www.w3.org/2000/svg"
   xmlns:svg="http://www.w3.org/2000/svg">
  <sodipodi:namedview
     id="namedview1"
     pagecolor="#ffffff"
     bordercolor="#000000"
     borderopacity="0.25"
     inkscape:showpageshadow="2"
     inkscape:pageopacity="0.0"
     inkscape:pagecheckerboard="0"
     inkscape:deskcolor="#d1d1d1"
     inkscape:zoom="0.1911053"
     inkscape:cx="128.20157"
     inkscape:cy="138.66701"
     inkscape:window-width="896"
     inkscape:window-height="204"
     inkscape:window-x="0"
     inkscape:window-y="39"
     inkscape:window-maximized="0"
     inkscape:current-layer="svg1" />
  <defs
     id="defs1">
    <clipPath
       clipPathUnits="userSpaceOnUse"
       id="clipPath4057">
      <path
         d="M 0,276 H 276 V 0 H 0 Z"
         transform="translate(-150.38025,-217.07291)"
         id="path4057" />
    </clipPath>
    <clipPath
       clipPathUnits="userSpaceOnUse"
       id="clipPath4059">
      <path
         d="M 0,276 H 276 V 0 H 0 Z"
         transform="translate(-150.25875,-209.74611)"
         id="path4059" />
    </clipPath>
    <clipPath
       clipPathUnits="userSpaceOnUse"
       id="clipPath4061">
      <path
         d="M 0,276 H 276 V 0 H 0 Z"
         transform="translate(-241.90576,-133.2601)"
         id="path4061" />
    </clipPath>
    <clipPath
       clipPathUnits="userSpaceOnUse"
       id="clipPath4063">
      <path
         d="M 0,276 H 276 V 0 H 0 Z"
         transform="translate(-74.946752,-173.7321)"
         id="path4063" />
    </clipPath>
  </defs>
  <g
     id="g4055"
     transform="matrix(1, 0, 0, 1, -11884.904922485352, 13.840332031250007)"
     style="fill:#000000">
    <path
       id="path4056"
       d="m 0,0 c 2.137,-2.548 7.354,4.881 9.364,5.619 0.313,0.115 6.079,-0.027 6.678,-0.137 2.985,-0.549 5.124,-6.16 9.274,-5.741 2.058,0.208 5.496,14.331 7.075,22.193 0.401,1.996 -1.675,3.583 -3.493,2.667 -0.403,-0.203 -0.828,-0.439 -1.305,-0.698 -2.466,-1.338 -10.979,-8.681 -12.132,-8.93 -0.276,-0.06 -5.392,-0.001 -5.657,0.097 -0.977,0.362 -5.388,4.542 -6.77,5.572 -1.56,1.163 -3.802,2.971 -6.009,4.072 C -4.404,25.427 -6.039,24.2 -5.789,22.623 -4.708,15.789 -2.672,3.186 0,0"
       style="fill:#000000;fill-opacity:1;fill-rule:nonzero;stroke:none"
       transform="matrix(1.3333333,0,0,-1.3333333,12228.507,78.569467)"
       clip-path="url(#clipPath4057)" />
    <path
       id="path4058"
       d="M 0,0 C 0.051,-0.234 0.11,-0.46 0.172,-0.681 0.093,-0.36 0.015,-0.039 -0.061,0.282 -0.041,0.188 -0.02,0.093 0,0"
       style="fill:#000000;fill-opacity:1;fill-rule:nonzero;stroke:none"
       transform="matrix(1.3333333,0,0,-1.3333333,12228.345,88.338533)"
       clip-path="url(#clipPath4059)" />
    <path
       id="path4060"
       d="m 0,0 c -5.223,24.809 -9.07,52.952 -14.895,77.185 -5.062,21.055 -22.684,19.539 -39.157,27.846 -0.022,-0.01 -0.025,-0.012 -0.047,-0.023 -1.253,-7.487 -3.242,-17.686 -4.871,-25.789 0.005,0.003 0.01,0.007 0.015,0.011 -3.314,-17.76 -7.824,-35.643 -15.706,-51.954 -0.816,-1.688 -1.894,-4.182 -3.004,-5.596 -0.343,-0.438 0.011,-0.99 -1.225,-0.679 -6.461,13.912 -11.918,28.366 -15.58,43.296 -0.077,0.271 -0.149,0.547 -0.211,0.834 -0.025,0.114 -0.05,0.23 -0.075,0.345 -0.957,4.013 -1.79,8.057 -2.469,12.136 0.006,-0.002 0.012,-0.006 0.019,-0.008 -1.998,10.433 -3.97,21.795 -5.019,27.952 -0.035,0.017 -0.04,0.019 -0.074,0.036 -15.417,-7.702 -33.256,-7.48 -38.446,-26.79 -3.861,-14.37 -6.107,-29.938 -8.508,-45.393 3.407,-1.541 9.332,-1.284 12.321,0.856 1.217,0.871 2.508,3.704 3.545,5.981 1.837,4.031 3.736,8.198 7.958,9.439 3.836,1.129 10.31,-0.012 14.353,-1.764 3.763,-1.631 6.287,-5.204 6.588,-9.323 l 1.179,-16.217 c 0.171,-2.357 0.059,-4.678 -0.335,-6.896 -0.916,-5.171 -2.373,-10.175 -3.783,-15.014 -1.51,-5.186 -2.944,-10.11 -3.737,-15.14 1.314,-2.653 3.743,-7.809 6.642,-14.157 h 59.058 c 5.895,0 10.659,4.804 10.61,10.698 l -0.366,49.369 9.017,-31.683 c 0.907,-2.221 1.89,-8.126 5.053,-7.952 4.069,0.224 12.96,2.285 18.101,3.546 C -0.889,-4.318 0.458,-2.176 0,0"
       style="fill:#000000;fill-opacity:1;fill-rule:nonzero;stroke:none"
       transform="matrix(1.3333333,0,0,-1.3333333,12350.541,190.31987)"
       clip-path="url(#clipPath4061)" />
    <path
       id="path4062"
       d="m 0,0 c 12.219,1.777 8.171,-7.175 14.233,-13.125 4.319,-4.24 13.957,-4.107 18.775,-0.61 4.346,3.155 5.569,12.676 9.244,13.772 2.055,0.613 6.852,-0.02 10.124,-1.459 1.899,-0.834 3.167,-2.687 3.317,-4.78 l 1.09,-15.203 c 0.127,-1.773 0.055,-3.558 -0.25,-5.308 -1.763,-10.093 -5.867,-19.664 -7.184,-29.895 2.521,-4.682 21.432,-46.436 25.511,-60.491 4.493,-15.484 -0.457,-16.556 -14.272,-19.276 -22.271,-4.385 -55.762,-4.852 -77.76,0.815 -16.379,4.22 -11.903,11.269 -7.514,24.409 5.266,15.765 23.14,53.078 23.316,54.541 0.801,6.672 -6.249,20.716 -7.138,27.903 -0.685,5.54 -0.189,17.414 0.654,23.059 C -7.31,-2.007 -3.177,-0.462 0,0"
       style="fill:#000000;fill-opacity:1;fill-rule:nonzero;stroke:none"
       transform="matrix(1.3333333,0,0,-1.3333333,12127.929,136.3572)"
       clip-path="url(#clipPath4063)" />
  </g>
</svg>
