<?xml version="1.0" encoding="UTF-8" standalone="no"?>
<svg
   viewBox="282.2123 58.0191 156.14724 136.03861"
   width="156.14742"
   height="136.03856"
   preserveAspectRatio="none"
   version="1.1"
   id="svg1"
   sodipodi:docname="ear.svg"
   inkscape:version="1.4.2 (ebf0e940, 2025-05-08)"
   xmlns:inkscape="http://www.inkscape.org/namespaces/inkscape"
   xmlns:sodipodi="http://sodipodi.sourceforge.net/DTD/sodipodi-0.dtd"
   xmlns="http://www.w3.org/2000/svg"
   xmlns:svg="http://www.w3.org/2000/svg">
  <defs
     id="defs1" />
  <sodipodi:namedview
     id="namedview1"
     pagecolor="#ffffff"
     bordercolor="#000000"
     borderopacity="0.25"
     inkscape:showpageshadow="2"
     inkscape:pageopacity="0.0"
     inkscape:pagecheckerboard="0"
     inkscape:deskcolor="#d1d1d1"
     inkscape:zoom="2.1437015"
     inkscape:cx="87.932021"
     inkscape:cy="89.564711"
     inkscape:window-width="1712"
     inkscape:window-height="971"
     inkscape:window-x="0"
     inkscape:window-y="39"
     inkscape:window-maximized="1"
     inkscape:current-layer="svg1"
     showgrid="false" />
  <path
     id="path2915"
     d="m 315.12122,104.45631 c -10.8063,1.47214 -19.92953,14.59717 -18.82627,25.18772 0.41559,3.99121 2.83786,2.42083 5.49272,3.97002 5.9478,3.47063 5.40845,11.80169 0.24079,15.74956 -1.54534,1.18127 -4.07596,1.09796 -3.18604,4.05428 0.91546,3.04204 5.85053,-0.48637 7.13968,-1.74711 5.93287,-5.80285 6.11923,-15.92436 -0.84274,-20.99571 -1.26651,-0.92268 -4.62446,-1.7293 -4.69669,-3.05553 -0.18348,-3.3695 3.59969,-10.8506 5.92757,-13.40241 8.7741,-9.61635 23.52633,-5.89097 23.67754,8.04453 0.0236,2.13815 -2.02305,8.82563 1.84343,8.65997 1.98067,-0.0852 2.52773,-4.91629 2.66064,-6.6297 0.91786,-11.80699 -7.07851,-21.51869 -19.43063,-19.83562 m -0.80855,-12.736415 c 25.3009,-2.60141 39.06015,24.527515 28.13972,45.817455 -4.91051,9.57398 -14.32894,14.35591 -18.66205,23.70933 -2.58744,5.58663 -3.41526,11.42077 -8.84634,15.42401 -12.05162,8.88342 -30.47048,-0.36069 -31.81019,-14.9487 -0.68094,-7.41802 2.40975,-14.13151 2.07216,-20.15924 -0.1329,-2.377 -1.79285,-5.05546 -2.30572,-7.57693 -4.14146,-20.3615 10.92861,-40.160045 31.41242,-42.265925"
     style="fill:#000000;fill-opacity:1;fill-rule:nonzero;stroke:none;stroke-width:0.481564"
     clip-path="url(#clipPath2916)" />
  <path
     id="path2266"
     d="m 395.11158,112.80027 c 0.42691,1.516 3.82811,1.93107 4.42816,-0.10136 0.48017,-1.62476 -0.0429,-4.52729 0.10728,-6.43024 0.75097,-9.534755 0.97367,-22.041575 2.5644,-31.127225 1.01881,-5.81911 5.93231,-10.52175 11.87498,-7.44535 5.05482,2.61767 4.42889,8.53 4.17289,13.42131 -0.56748,10.87022 -2.64283,22.307185 -3.54326,33.215145 -0.0873,2.30767 2.59622,2.84185 4.22469,1.77644 1.34953,-0.88268 4.00864,-20.518185 4.91572,-23.869075 2.80561,-10.36266 14.98689,-8.2703 14.48822,1.37691 -4.02935,19.194545 -4.89575,40.272805 -9.15742,59.260175 -0.47278,2.10938 -1.09724,4.1211 -1.93477,6.1121 -1.28887,3.06529 -5.94416,8.73346 -6.35626,10.74592 -1.25631,6.14539 0.70953,15.49221 -0.128,21.99644 -0.20125,1.07874 -1.19564,2.06425 -2.2655,2.26253 l -57.8996,0.0444 c -1.46644,0.17314 -2.95284,-0.83457 -3.22734,-2.30692 -0.77021,-4.12405 0.40989,-10.58685 0.007,-15.09194 -0.7199,-8.04908 -15.11827,-18.14283 -18.97376,-25.69916 3.36742,-5.74963 10.76957,-14.36899 10.5439,-19.0302 0.66804,-7.21201 1.49377,-6.71362 -0.53983,-15.54158 2.91807,6.32369 3.0942,12.43618 6.18318,18.91599 8.84742,1.99174 17.05129,4.74231 23.72791,11.13112 1.62255,1.55151 3.24509,6.1513 6.19423,3.57211 3.18146,-2.78341 -3.84069,-8.78674 -6.05883,-10.49585 -5.3922,-4.15513 -12.18721,-6.71139 -18.75359,-8.41754 l -0.76651,-0.74284 -4.46589,-55.611855 c 0.43875,-5.83243 5.87609,-9.66793 11.44882,-7.17826 3.98792,1.78162 4.49104,5.74883 5.02227,9.56509 1.56705,11.27123 1.91331,23.217235 3.13928,34.575775 0.54307,2.9003 4.88613,2.54961 4.94385,-0.36772 0.89228,-14.303235 -1.26593,-30.175745 -0.0407,-44.289575 0.52605,-6.05808 6.17203,-11.27863 12.05699,-7.98693 1.44646,0.80868 4.06709,4.44664 4.06709,5.99371 z"
     style="fill:#000000;fill-opacity:1;fill-rule:nonzero;stroke:none;stroke-width:0.739873"
     clip-path="url(#clipPath2267)"
     sodipodi:nodetypes="cccsccccccccccccccccccccccccsccccccc" />
</svg>
