<?xml version="1.0" encoding="UTF-8" standalone="no"?>
<svg
   viewBox="251.3721 64.9064 202.6699 231.8468"
   width="202.67px"
   height="231.847px"
   preserveAspectRatio="none"
   version="1.1"
   id="svg1"
   sodipodi:docname="explosion.svg"
   inkscape:version="1.4.2 (ebf0e940, 2025-05-08)"
   xmlns:inkscape="http://www.inkscape.org/namespaces/inkscape"
   xmlns:sodipodi="http://sodipodi.sourceforge.net/DTD/sodipodi-0.dtd"
   xmlns="http://www.w3.org/2000/svg"
   xmlns:svg="http://www.w3.org/2000/svg">
  <defs
     id="defs1" />
  <sodipodi:namedview
     id="namedview1"
     pagecolor="#ffffff"
     bordercolor="#000000"
     borderopacity="0.25"
     inkscape:showpageshadow="2"
     inkscape:pageopacity="0.0"
     inkscape:pagecheckerboard="0"
     inkscape:deskcolor="#d1d1d1"
     inkscape:zoom="0.22859903"
     inkscape:cx="102.80008"
     inkscape:cy="115.9235"
     inkscape:window-width="896"
     inkscape:window-height="204"
     inkscape:window-x="0"
     inkscape:window-y="39"
     inkscape:window-maximized="0"
     inkscape:current-layer="svg1" />
  <g
     id="g1660"
     transform="matrix(1, 0, 0, 1, -4487.293113708496, -3.170488104224205)"
     style="fill:#000000">
    <path
       id="path1661"
       d="m 0,0 c 8.039,-10.709 6.543,-22.168 -1.622,-32.492 -11.652,-14.734 -32.353,-14.241 -45.536,-1.772 -4.337,-2.497 -8.424,-4.849 -13.237,-6.338 -12.512,-3.869 -23.953,-1.255 -34.381,6.44 -0.506,0.003 -6.185,-4.844 -7.563,-5.614 -25.622,-14.335 -55.888,12.398 -39.877,38.771 0.937,1.544 3.2,3.31 3.61,4.612 1.311,4.163 0.922,9.958 3.046,15.041 4.918,11.771 19.116,18.904 31.423,14.12 8.436,11.595 21.535,18.619 36.215,17.447 7.166,-0.572 16.369,-4.815 21.922,-9.325 1.515,-1.231 7.422,-7.901 8.302,-8.074 0.918,-0.18 3.513,0.882 4.881,0.956 15.499,0.83 26.912,-7.865 29.255,-23.351 C -2.536,3.634 -4.421,5.889 0,0"
       style="fill:#000000;fill-opacity:1;fill-rule:nonzero;stroke:none"
       transform="matrix(1.3333333,0,0,-1.3333333,4934.2399,135.1996)"
       clip-path="url(#clipPath1662)" />
    <path
       id="path1663"
       d="m 0,0 c 1.582,-9.149 3.716,-20.073 11.502,-26.045 7.084,-5.434 17.225,-7.328 26.058,-8.479 3.679,-0.479 11.555,0.386 13.661,-3.331 2.472,-4.361 -0.973,-9.964 -5.968,-9.848 l -129.425,0.001 c -8.163,0.692 -8.416,11.801 0.629,13.115 10.786,1.567 23.892,0.82 33.06,8.054 7.324,5.779 11.291,17.532 12.112,26.537 -5.211,0.661 -20.375,0.224 -23.506,4.727 -1.378,1.981 -1.777,6.773 0.173,8.455 1.263,1.091 12.396,2.933 14.841,3.25 3.231,0.42 6.869,0.54 10.136,0.554 l -0.549,8.774 c 1.851,0.5 3.038,-0.831 4.563,-1.194 8.612,-2.046 17.768,-2.001 26.354,0.153 1.062,0.266 3.1,1.742 3.855,1.558 2.193,-0.535 -0.279,-7.769 0.836,-8.49 6.022,-0.776 12.289,-0.821 18.242,-2.044 1.742,-0.358 6.295,-1.399 7.537,-2.331 2.314,-1.737 2.162,-6.06 0.687,-8.332 C 21.71,0.329 5.393,0.82 0,0"
       style="fill:#000000;fill-opacity:1;fill-rule:nonzero;stroke:none"
       transform="matrix(1.3333333,0,0,-1.3333333,4865.2491,236.31733)"
       clip-path="url(#clipPath1664)" />
  </g>
</svg>
