<?xml version="1.0" encoding="UTF-8" standalone="no"?>
<svg
   viewBox="308.582 119.3321 139.23203 167.07824"
   width="139.23209"
   height="167.07849"
   preserveAspectRatio="none"
   version="1.1"
   id="svg1"
   sodipodi:docname="fail.svg"
   xml:space="preserve"
   inkscape:version="1.4.2 (ebf0e940, 2025-05-08)"
   xmlns:inkscape="http://www.inkscape.org/namespaces/inkscape"
   xmlns:sodipodi="http://sodipodi.sourceforge.net/DTD/sodipodi-0.dtd"
   xmlns="http://www.w3.org/2000/svg"
   xmlns:svg="http://www.w3.org/2000/svg"><defs
     id="defs1" /><sodipodi:namedview
     id="namedview1"
     pagecolor="#ffffff"
     bordercolor="#000000"
     borderopacity="0.25"
     inkscape:showpageshadow="2"
     inkscape:pageopacity="0.0"
     inkscape:pagecheckerboard="0"
     inkscape:deskcolor="#d1d1d1"
     inkscape:zoom="0.91501637"
     inkscape:cx="199.44998"
     inkscape:cy="69.944104"
     inkscape:window-width="896"
     inkscape:window-height="245"
     inkscape:window-x="0"
     inkscape:window-y="39"
     inkscape:window-maximized="0"
     inkscape:current-layer="svg1" /><g
     style="fill:#000000;fill-opacity:1"
     id="g1"
     transform="matrix(0.39780575,0,0,0.39780529,276.35973,101.03306)"><path
       d="M 417.875,46 H 94.2126 A 13.257,13.257 0 0 0 81,59.2126 V 452.875 A 13.1821,13.1821 0 0 0 94.2126,466 H 417.875 A 13.1086,13.1086 0 0 0 431,452.875 V 59.2126 A 13.1836,13.1836 0 0 0 417.875,46 Z M 238.5,396.3493 H 151 c -17.22,-0.2692 -17.2757,-25.9125 0,-26.25 h 87.5 c 17.2308,0.33 17.2629,25.9701 0,26.25 z m 0,-96.25 H 151 c -17.22,-0.2692 -17.2757,-25.9125 0,-26.25 h 87.5 c 17.2308,0.33 17.2629,25.9701 0,26.25 z M 286.3622,194.75 c -0.2542,17.2137 -25.9787,17.2874 -26.25,-0.001 V 98.5 a 13.1635,13.1635 0 0 1 13.125,-13.125 h 49.0009 c 17.2458,0.3461 17.2565,25.9627 0,26.25 h -35.8759 v 26.25 H 314.8 a 13.125,13.125 0 0 1 0,26.25 h -28.4378 z m 67.55,224.0874 -16.9745,-16.9745 -16.9747,16.9745 a 13.2906,13.2906 0 0 1 -18.551,0 13.1487,13.1487 0 0 1 0,-18.6376 L 318.3865,383.2243 301.412,366.3374 A 13.1482,13.1482 0 0 1 319.963,347.7 L 336.9375,364.6756 353.912,347.7 a 13.1482,13.1482 0 0 1 18.551,18.6376 L 355.4864,383.2245 372.463,400.2 c 12.0249,12.4487 -6.033,30.4838 -18.551,18.6374 z m 0,-96.25 -16.9745,-16.9745 -16.9747,16.9745 a 13.2906,13.2906 0 0 1 -18.551,0 13.1487,13.1487 0 0 1 0,-18.6376 L 318.3865,286.9743 301.412,270.0874 A 13.1482,13.1482 0 1 1 319.963,251.45 l 16.9745,16.9756 16.9745,-16.9756 a 13.1482,13.1482 0 1 1 18.551,18.6376 l -16.9766,16.8869 16.9766,16.9755 c 12.0249,12.4487 -6.033,30.4838 -18.551,18.6374 z"
       id="path1"
       style="fill:#000000;fill-opacity:1" /></g></svg>
