<?xml version="1.0" encoding="UTF-8" standalone="no"?>
<svg
   viewBox="259.875 56.4984 129.05235 94.41822"
   width="129.05252"
   height="94.418106"
   preserveAspectRatio="none"
   version="1.1"
   id="svg1"
   sodipodi:docname="fire extinguisher.svg"
   xml:space="preserve"
   inkscape:version="1.4.2 (ebf0e940, 2025-05-08)"
   xmlns:inkscape="http://www.inkscape.org/namespaces/inkscape"
   xmlns:sodipodi="http://sodipodi.sourceforge.net/DTD/sodipodi-0.dtd"
   xmlns="http://www.w3.org/2000/svg"
   xmlns:svg="http://www.w3.org/2000/svg"><sodipodi:namedview
     id="namedview1"
     pagecolor="#ffffff"
     bordercolor="#000000"
     borderopacity="0.25"
     inkscape:showpageshadow="2"
     inkscape:pageopacity="0.0"
     inkscape:pagecheckerboard="0"
     inkscape:deskcolor="#d1d1d1"
     inkscape:zoom="1.5602537"
     inkscape:cx="50.953253"
     inkscape:cy="84.601627"
     inkscape:window-width="1712"
     inkscape:window-height="971"
     inkscape:window-x="0"
     inkscape:window-y="39"
     inkscape:window-maximized="1"
     inkscape:current-layer="svg1" /><defs
     id="defs1"><clipPath
       clipPathUnits="userSpaceOnUse"
       id="clipPath4188"><path
         d="M 0,276 H 276 V 0 H 0 Z"
         transform="translate(-192.82575,-176.89911)"
         id="path4188" /></clipPath></defs><g
     id="g4186"
     transform="matrix(0.38215593,0,0,0.38215593,-4457.9444,33.059274)"
     style="fill:#000000"><path
       id="path4187"
       d="m 0,0 c -10.99,14.312 -26.811,21.346 -44.24,25.155 -2.801,1.338 -2.062,10.093 0.716,11.247 3.054,1.269 11.58,0.932 19.586,1.032 6.093,0.076 10.943,-0.844 11.951,4.962 0.648,3.734 -0.277,8.498 -4.35,9.773 -5.942,1.859 -27.379,0.361 -35.226,0.361 -9.936,0 -20.676,1.292 -21.555,-4.859 -0.343,-2.397 3.52,-5.1 -0.396,-7.361 -0.929,-0.536 -17.575,-0.514 -21.401,-1.294 -9.16,-1.868 -11.214,-13.121 -2.875,-14.918 5.765,-1.243 15.54,0.027 21.797,-0.891 V 9.742 c 0,-1.646 0.897,-3.102 2.244,-4.047 0.381,-0.267 0.499,-0.617 -0.01,-1.176 -12.698,-4.863 -27.286,-16.483 -27.936,-30.788 -1.317,-29.021 -0.253,-64.248 -0.098,-93.557 0.037,-6.847 5.606,-12.374 12.453,-12.374 h 54.805 c 6.864,0 12.433,5.553 12.453,12.417 l 0.264,92.627 c -2.435,14.853 -12.577,23.618 -25.042,30.028 -0.819,0.421 -0.979,1.474 -0.386,2.177 1.138,1.349 1.24,3.66 1.513,3.926 0.398,0.387 9.379,-2.599 10.653,-3.129 5.167,-2.15 11.912,-6.871 16.04,-10.651 C -13.4,-9.969 -4.862,-25.315 4.436,-19.41 11.804,-14.73 3.552,-4.626 0,0"
       style="fill:#000000;fill-opacity:1;fill-rule:nonzero;stroke:none"
       transform="matrix(1.3333333,0,0,-1.3333333,12673.101,132.13453)"
       clip-path="url(#clipPath4188)" /></g><g
     style="fill:#000000;fill-opacity:1"
     id="g1"
     transform="matrix(3.680684,0,0,3.6806934,246.73541,61.352164)"><path
       d="m 5.926,20.574 a 7.26,7.26 0 0 0 3.039,1.511 C 9.072,22.12 9.144,21.98 9.072,21.91 6.677,19.625 7.993,17.152 8.965,16.037 c 0.693,-0.796 1.68,-2.107 1.608,-3.865 0,-0.176 0.18,-0.317 0.322,-0.211 1.359,0.703 2.288,2.25 2.538,3.515 0.394,-0.386 0.537,-0.984 0.537,-1.511 0,-0.176 0.214,-0.317 0.393,-0.176 1.287,1.16 3.503,5.097 -0.072,8.19 -0.071,0.071 0,0.212 0.072,0.177 a 8.761,8.761 0 0 0 3.003,-1.442 C 23.193,16.214 19.403,8.234 16.936,5.598 16.615,5.281 16.043,5.492 16.043,5.949 16.007,6.899 15.721,7.953 14.971,8.656 14.399,6.266 12.493,3.551 9.776,2.215 9.419,2.039 8.99,2.32 9.026,2.707 c 0.07,3.27 -2.063,5.352 -3.922,8.059 -1.645,2.425 -2.717,6.89 0.822,9.808 z"
       fill="#000000"
       id="path1"
       style="fill:#000000;fill-opacity:1" /></g></svg>
