<?xml version="1.0" encoding="UTF-8" standalone="no"?>
<svg
   viewBox="218.9541 45.8963 277.5044 277.2159"
   width="277.504px"
   height="277.216px"
   preserveAspectRatio="none"
   version="1.1"
   id="svg1"
   sodipodi:docname="footprints.svg"
   inkscape:version="1.4.2 (ebf0e940, 2025-05-08)"
   xmlns:inkscape="http://www.inkscape.org/namespaces/inkscape"
   xmlns:sodipodi="http://sodipodi.sourceforge.net/DTD/sodipodi-0.dtd"
   xmlns="http://www.w3.org/2000/svg"
   xmlns:svg="http://www.w3.org/2000/svg">
  <defs
     id="defs1" />
  <sodipodi:namedview
     id="namedview1"
     pagecolor="#ffffff"
     bordercolor="#000000"
     borderopacity="0.25"
     inkscape:showpageshadow="2"
     inkscape:pageopacity="0.0"
     inkscape:pagecheckerboard="0"
     inkscape:deskcolor="#d1d1d1"
     inkscape:zoom="0.19118665"
     inkscape:cx="138.608"
     inkscape:cy="138.608"
     inkscape:window-width="896"
     inkscape:window-height="204"
     inkscape:window-x="0"
     inkscape:window-y="39"
     inkscape:window-maximized="0"
     inkscape:current-layer="svg1" />
  <g
     transform="matrix(1, 0, 0, 1, -6810.201643943787, 0.44268798828125)"
     id="object-0"
     style="fill:#000000">
    <path
       id="path2391"
       d="M 7215.43 96.706 C 7234.13 94.779 7255.38 104.744 7270.18 115.678 C 7288.92 129.511 7292.8 153.072 7286.38 174.69 C 7281.73 190.318 7274.95 208.475 7269.26 223.934 C 7263.03 240.844 7254.96 262.839 7241.01 274.756 C 7209.13 301.986 7161.56 269.768 7184.21 231.388 C 7195.66 211.991 7213.47 202.292 7202.99 176.495 C 7198.46 165.33 7188.37 155.516 7184.7 143.955 C 7177.41 120.994 7191.54 99.167 7215.43 96.706"
       style="fill:#000000;fill-opacity:1;fill-rule:nonzero;stroke:none"
       clip-path="url(#clipPath2392)" />
    <path
       id="path2393"
       d="M 7199.14 45.831 C 7214.51 42.67 7221.45 60.049 7219.5 72.533 C 7217.87 82.914 7208.46 93.433 7197.22 89.782 C 7179.2 83.931 7182.49 49.257 7199.14 45.831"
       style="fill:#000000;fill-opacity:1;fill-rule:nonzero;stroke:none"
       clip-path="url(#clipPath2394)" />
    <path
       id="path2395"
       d="M 7234.46 60.669 C 7254.49 57.302 7252.63 90.89 7234.99 90.907 C 7218.64 90.923 7220.18 63.067 7234.46 60.669"
       style="fill:#000000;fill-opacity:1;fill-rule:nonzero;stroke:none"
       clip-path="url(#clipPath2396)" />
    <path
       id="path2397"
       d="M 7269 96.253 C 7256.36 108.033 7242.63 89.13 7254.07 78.15 C 7266.88 65.855 7280.9 85.166 7269 96.253"
       style="fill:#000000;fill-opacity:1;fill-rule:nonzero;stroke:none"
       clip-path="url(#clipPath2398)" />
    <path
       id="path2399"
       d="M 7283.83 89.685 C 7292.41 89.431 7294.84 100.002 7290.43 106.025 C 7283.64 115.287 7270.36 110.834 7272.94 98.423 C 7273.8 94.275 7279.58 89.81 7283.83 89.685"
       style="fill:#000000;fill-opacity:1;fill-rule:nonzero;stroke:none"
       clip-path="url(#clipPath2400)" />
    <path
       id="path2401"
       d="M 7296.59 106.545 C 7310.06 103.738 7309.41 122.5 7298.25 125.134 C 7284.56 128.364 7284.6 109.044 7296.59 106.545"
       style="fill:#000000;fill-opacity:1;fill-rule:nonzero;stroke:none"
       clip-path="url(#clipPath2402)" />
    <path
       id="path2403"
       d="M 7120.39 134.499 C 7101.69 132.573 7080.44 142.538 7065.63 153.471 C 7046.9 167.305 7043.01 190.866 7049.44 212.483 C 7054.09 228.111 7060.86 246.269 7066.56 261.727 C 7072.79 278.638 7080.86 300.633 7094.81 312.55 C 7126.69 339.779 7174.26 307.562 7151.61 269.182 C 7140.16 249.785 7122.35 240.086 7132.82 214.289 C 7137.36 203.123 7147.45 193.31 7151.12 181.749 C 7158.41 158.787 7144.27 136.961 7120.39 134.499"
       style="fill:#000000;fill-opacity:1;fill-rule:nonzero;stroke:none"
       clip-path="url(#clipPath2404)" />
    <path
       id="path2405"
       d="M 7136.68 83.625 C 7121.31 80.464 7114.36 97.842 7116.32 110.326 C 7117.95 120.708 7127.36 131.226 7138.59 127.576 C 7156.61 121.725 7153.32 87.05 7136.68 83.625"
       style="fill:#000000;fill-opacity:1;fill-rule:nonzero;stroke:none"
       clip-path="url(#clipPath2406)" />
    <path
       id="path2407"
       d="M 7101.36 98.462 C 7081.32 95.095 7083.19 128.683 7100.82 128.701 C 7117.18 128.717 7115.64 100.861 7101.36 98.462"
       style="fill:#000000;fill-opacity:1;fill-rule:nonzero;stroke:none"
       clip-path="url(#clipPath2408)" />
    <path
       id="path2409"
       d="M 7066.81 134.046 C 7079.45 145.826 7093.19 126.924 7081.75 115.944 C 7068.94 103.649 7054.92 122.96 7066.81 134.046"
       style="fill:#000000;fill-opacity:1;fill-rule:nonzero;stroke:none"
       clip-path="url(#clipPath2410)" />
    <path
       id="path2411"
       d="M 7051.99 127.478 C 7043.41 127.225 7040.98 137.795 7045.39 143.818 C 7052.18 153.081 7065.45 148.627 7062.88 136.217 C 7062.02 132.069 7056.23 127.603 7051.99 127.478"
       style="fill:#000000;fill-opacity:1;fill-rule:nonzero;stroke:none"
       clip-path="url(#clipPath2412)" />
    <path
       id="path2413"
       d="M 7039.23 144.338 C 7025.76 141.532 7026.4 160.293 7037.57 162.928 C 7051.25 166.157 7051.22 146.837 7039.23 144.338"
       style="fill:#000000;fill-opacity:1;fill-rule:nonzero;stroke:none"
       clip-path="url(#clipPath2414)" />
  </g>
</svg>
