<?xml version="1.0" encoding="UTF-8" standalone="no"?>
<svg
   viewBox="248.1828 66.776 115.39653 143.50892"
   width="115.39652"
   height="143.50923"
   preserveAspectRatio="none"
   version="1.1"
   id="svg1"
   sodipodi:docname="fork in road.svg"
   xml:space="preserve"
   inkscape:version="1.4.2 (ebf0e940, 2025-05-08)"
   xmlns:inkscape="http://www.inkscape.org/namespaces/inkscape"
   xmlns:sodipodi="http://sodipodi.sourceforge.net/DTD/sodipodi-0.dtd"
   xmlns="http://www.w3.org/2000/svg"
   xmlns:svg="http://www.w3.org/2000/svg"><sodipodi:namedview
     id="namedview1"
     pagecolor="#ffffff"
     bordercolor="#000000"
     borderopacity="0.25"
     inkscape:showpageshadow="2"
     inkscape:pageopacity="0.0"
     inkscape:pagecheckerboard="0"
     inkscape:deskcolor="#d1d1d1"
     inkscape:zoom="3.624027"
     inkscape:cx="71.605427"
     inkscape:cy="72.847139"
     inkscape:window-width="896"
     inkscape:window-height="245"
     inkscape:window-x="0"
     inkscape:window-y="39"
     inkscape:window-maximized="0"
     inkscape:current-layer="g1" /><defs
     id="defs1"><clipPath
       clipPathUnits="userSpaceOnUse"
       id="clipPath501"><path
         d="m 1164,364.521 h 368 v -368 h -368 z"
         id="path501" /></clipPath><clipPath
       clipPathUnits="userSpaceOnUse"
       id="clipPath503"><path
         d="m 1164,372.078 h 368 V 4.079 h -368 z"
         id="path503" /></clipPath></defs><g
     style="fill:#000000"
     id="g2"
     transform="matrix(0.16262502,0,0,0.16262465,265.9832,66.021966)"><g
       id="g1">
	<path
   d="M 290.44392,13.599655 V 430.77966 c 0,4.953 -16.56687,12.20583 -21.52617,12.2889 l -22.04255,0.36921 c -4.9563,0.083 -25.22128,-7.70511 -25.22128,-12.65811 V 13.599655 c 0,-4.9529997 4.019,-8.9629997 8.976,-8.9629997 h 50.841 c 4.961,-0.001 8.973,4.01 8.973,8.9629997 z m 244.505,138.356005 -43.739,-39.25601 c -0.834,-0.733 -1.897,-1.144 -3.003,-1.144 h -179.445 c -2.477,0 -4.492,2 -4.492,4.489 v 70.28501 c 0,2.474 2.016,4.483 4.492,4.483 h 179.445 c 0.928,0 1.838,-0.29 2.595,-0.821 l 43.739,-31.035 c 1.117,-0.792 1.81,-2.045 1.892,-3.399 0.071,-1.361 -0.473,-2.683 -1.484,-3.602 z M 203.34092,36.776655 H 23.891922 c -1.108,0 -2.175,0.398 -2.997,1.144 l -43.742,39.260996 c -1.017,0.901 -1.563,2.228 -1.483,3.587 0.08,1.369 0.774,2.622 1.888,3.411 l 43.743,31.024999 c 0.757,0.538 1.664,0.833 2.598,0.833 H 203.34692 c 2.474,0 4.483,-2.015 4.483,-4.492 V 41.259655 c -0.006,-2.489 -2.016,-4.483 -4.489,-4.483 z"
   id="path1"
   sodipodi:nodetypes="ssssssscsccssssssccccsscccccssscs"
   style="fill:#000000;fill-opacity:1" />
<path
   style="fill:#000000;fill-opacity:1;stroke:none;stroke-width:12.2982;stroke-linecap:round"
   d="m -109.45672,281.66291 78.378886,0.0668 c 0,0 282.473814,169.0501 283.280324,285.9267 0.13985,20.26677 12.85271,15.6396 13.22961,-5.1852 1.94933,-107.70571 257.4888,-282.64663 257.4888,-282.64663 l 77.20891,2.03879 c 0,0 -165.2209,268.47724 -176.47753,402.7016 -11.25663,134.22436 53.31093,202.52654 53.31093,202.52654 H 61.505829 c 0,0 64.941011,-84.04913 45.415111,-220.70945 C 87.39505,529.72173 -109.45672,281.66288 -109.45672,281.66288 Z"
   id="path2"
   sodipodi:nodetypes="ccsscczcczcc" /></g></g></svg>
