<?xml version="1.0" encoding="UTF-8" standalone="no"?>
<svg
   viewBox="324.5986 59.5324 155.2998 245.3325"
   width="155.3px"
   height="245.333px"
   preserveAspectRatio="none"
   version="1.1"
   id="svg1"
   sodipodi:docname="icecream and sun.svg"
   xml:space="preserve"
   inkscape:version="1.4.2 (ebf0e940, 2025-05-08)"
   xmlns:inkscape="http://www.inkscape.org/namespaces/inkscape"
   xmlns:sodipodi="http://sodipodi.sourceforge.net/DTD/sodipodi-0.dtd"
   xmlns="http://www.w3.org/2000/svg"
   xmlns:svg="http://www.w3.org/2000/svg"><defs
     id="defs1"><inkscape:path-effect
       effect="fillet_chamfer"
       id="path-effect1"
       is_visible="true"
       lpeversion="1"
       nodesatellites_param="F,0,0,1,0,0,0,1 @ F,0,0,1,0,0,0,1 @ F,0,0,1,0,0,0,1 @ F,0,0,1,0,0,0,1 @ F,0,0,1,0,0,0,1 @ F,0,0,1,0,0,0,1 @ F,0,0,1,0,0,0,1 @ F,0,0,1,0,0,0,1"
       radius="0"
       unit="px"
       method="auto"
       mode="F"
       chamfer_steps="1"
       flexible="false"
       use_knot_distance="true"
       apply_no_radius="true"
       apply_with_radius="true"
       only_selected="false"
       hide_knots="false" /></defs><sodipodi:namedview
     id="namedview1"
     pagecolor="#ffffff"
     bordercolor="#000000"
     borderopacity="0.25"
     inkscape:showpageshadow="2"
     inkscape:pageopacity="0.0"
     inkscape:pagecheckerboard="0"
     inkscape:deskcolor="#d1d1d1"
     inkscape:zoom="2.1286554"
     inkscape:cx="136.94091"
     inkscape:cy="159.25546"
     inkscape:window-width="1712"
     inkscape:window-height="971"
     inkscape:window-x="0"
     inkscape:window-y="39"
     inkscape:window-maximized="1"
     inkscape:current-layer="svg1" /><path
     id="path879"
     d="m 0,0 c 2.415,-2.041 1.333,-7.186 0.181,-9.735 l -32.326,-80.566 c -3.754,-6.357 -15.069,-6.732 -19.932,-1.682 -12.964,27.934 -22.748274,55.89034 -34.254274,84.5433405 0,0 26.231805,-2.3522878 33.841618,8.6804807 C -30.118223,-13.765855 -19.667,3.481 -12.55,2.17 -9.392,1.589 -1.931,1.631 0,0"
     style="fill:#000000;fill-opacity:1;fill-rule:nonzero;stroke:none"
     transform="matrix(0.46599218,0,0,-0.46599218,416.60163,230.00615)"
     clip-path="url(#clipPath880)"
     sodipodi:nodetypes="cccccccc" /><g
     id="g876"
     transform="matrix(0.34949414,0,0,0.34949414,-478.77629,169.01458)"
     style="fill:#000000"><path
       id="path877"
       d="m 2486.0688,133.60499 c -8.0361,22.00998 -0.9386,28.86335 3.8131,36.18184 -3.5726,2.87884 -1.7525,3.31738 -14.0379,7.54048 -9.9725,3.42822 -17.3744,4.70281 -28.9977,3.71934 -30.1503,-2.55044 -17.6143,-44.98925 -1.8008,-63.37338 8.4642,8.04138 14.926,18.13155 41.1239,15.49874"
       style="fill:#000000;fill-opacity:1;fill-rule:nonzero;stroke:none;stroke-width:7.8495;stroke-dasharray:none;stroke-opacity:1"
       clip-path="url(#clipPath878)"
       sodipodi:nodetypes="cccccc" /><g
       id="path877-6"
       clip-path="url(#clipPath878)"
       style="opacity:1;stroke:none;fill:#000000"
       transform="translate(1.645311,-8.0208909)"><path
         style="baseline-shift:baseline;display:inline;overflow:visible;vector-effect:none;fill:#000000;stroke:none;stroke-width:0.905677;enable-background:accumulate;stop-color:#000000;stop-opacity:1"
         d="m 2494.4411,73.495392 c 20.6976,-1.400988 40.3512,4.010312 51.9975,18.575462 6.9994,8.754856 6.6481,13.147986 5.3407,22.699926 -14.3409,-4.09839 -26.6301,-2.58053 -40.0648,1.20753 -10.9055,3.07505 -20.3005,14.04218 -25.727,19.98829 -44.6774,4.1138 -44.5593,-31.54852 -27.2665,-48.0388 8.9959,-8.577369 21.9867,-13.503212 35.7201,-14.432408"
         id="path4"
         sodipodi:nodetypes="ccccccc" /></g><path
       id="path877-5"
       d="m 2529.1879,109.72072 c 17.8827,-1.4757 34.8634,4.22419 44.9257,19.56617 6.0476,9.2218 11.3631,29.80746 1.4678,37.84596 -12.3906,10.06792 -25.7056,-3.39244 -37.3131,0.59764 -9.4223,3.23906 -16.4158,9.39678 -27.3978,8.46757 -28.4867,-2.40971 -27.4857,-33.90542 -12.5446,-51.2752 7.7723,-9.03483 18.9964,-14.22339 30.862,-15.20214"
       style="fill:#000000;fill-opacity:1;fill-rule:nonzero;stroke:none;stroke-width:7.41641;stroke-dasharray:none;stroke-opacity:1"
       clip-path="url(#clipPath878)"
       sodipodi:nodetypes="ccccccc" /><path
       id="path877-5-4"
       d="m 2576.5239,212.4839 c -6.698,-0.30288 -12.9162,-3.94759 -12.9254,-13.83183 1.0982,-5.70585 9.0755,-15.13907 8.8688,-21.33087 2.2681,8.72 11.0728,13.2984 11.4902,21.90907 0.8975,7.9845 -2.0354,12.07264 -7.4336,13.25363 z"
       style="fill:#000000;fill-opacity:1;fill-rule:nonzero;stroke:none;stroke-width:2.22074;stroke-dasharray:none;stroke-opacity:1"
       clip-path="url(#clipPath878)"
       sodipodi:nodetypes="ccccc" /><g
       style="fill:#000000;fill-opacity:1;stroke:none"
       id="g1"
       transform="matrix(9.6858571,0,0,9.6858571,2485.643,-136.04765)"><g
         id="path1"
         style="opacity:1;stroke:none;fill:#000000"
         transform="translate(0.16690464)"
         inkscape:transform-center-x="24.85989"
         inkscape:transform-center-y="-32.204858"><path
           style="baseline-shift:baseline;display:inline;overflow:visible;vector-effect:none;stroke:none;stroke-linecap:round;stroke-linejoin:round;enable-background:accumulate;stop-color:#000000;stop-opacity:1;fill:#000000"
           d="m 12,3 v 1 m 0,16 v 1 M 4,12 H 3 M 6.31412,6.31412 5.5,5.5 M 17.6859,6.31412 18.5,5.5 M 6.31412,17.69 5.5,18.5001 M 17.6859,17.69 18.5,18.5001 M 21,12 h -1 m -4,0 c 0,2.2091 -1.7909,4 -4,4 -2.20914,0 -4,-1.7909 -4,-4 0,-2.20914 1.79086,-4 4,-4 2.2091,0 4,1.79086 4,4 z"
           id="path2" /><path
           style="baseline-shift:baseline;display:inline;overflow:visible;fill:#000000;fill-opacity:1;stroke:none;stroke-width:0.999954;stroke-linecap:round;stroke-linejoin:round;stroke-dasharray:none;enable-background:accumulate;stop-color:#000000;stop-opacity:1"
           d="m 11.499286,1.6661907 a 1,1 0 0 0 -1,1 v 1 a 1,1 0 0 0 1,1 1,1 0 0 0 1,-1 v -1 a 1,1 0 0 0 -1,-1 z m -6.4999999,2.5 a 1,1 0 0 0 -0.7070313,0.2929687 1,1 0 0 0 0,1.4140625 L 5.106708,6.6876751 a 1,1 0 0 0 1.4140625,0 1,1 0 0 0 0,-1.4140625 L 5.7063173,4.4591594 A 1,1 0 0 0 4.9992861,4.1661907 Z m 12.9999999,0 a 1,1 0 0 0 -0.707031,0.2929687 l -0.814453,0.8144532 a 1,1 0 0 0 0,1.4140625 1,1 0 0 0 1.414062,0 l 0.814453,-0.8144532 a 1,1 0 0 0 0,-1.4140625 1,1 0 0 0 -0.707031,-0.2929687 z m -6.5,2.5 c -2.7495795,0 -4.9999999,2.2504204 -4.9999999,5.0000003 0,2.749549 2.2504084,5 4.9999999,5 2.749561,0 5,-2.250439 5,-5 0,-2.7495919 -2.250451,-5.0000003 -5,-5.0000003 z m 0,2 c 1.668651,0 3,1.331312 3,3.0000003 0,1.668639 -1.331361,3 -3,3 -1.6686879,0 -2.9999999,-1.331349 -2.9999999,-3 0,-1.6687003 1.3313,-3.0000003 2.9999999,-3.0000003 z M 2.4992861,10.666191 a 1,1 0 0 0 -1,1 1,1 0 0 0 1,1 h 1 a 1,1 0 0 0 1,-1 1,1 0 0 0 -1,-1 z m 16.9999999,0 a 1,1 0 0 0 -1,1 1,1 0 0 0 1,1 h 1 a 1,1 0 0 0 1,-1 1,1 0 0 0 -1,-1 z M 5.1086611,16.64666 4.294208,17.457207 a 1,1 0 0 0 -0.00391,1.414062 1,1 0 0 0 1.4140625,0.0039 l 0.8144531,-0.810547 a 1,1 0 0 0 0.00391,-1.414062 1,1 0 0 0 -1.4140625,-0.0039 z m 12.7812499,0 a 1,1 0 0 0 -1.414063,0.0039 1,1 0 0 0 0.0039,1.414062 l 0.814453,0.810547 a 1,1 0 0 0 1.414062,-0.0039 1,1 0 0 0 -0.0039,-1.414062 z m -6.390625,2.019531 a 1,1 0 0 0 -1,1 v 1 a 1,1 0 0 0 1,1 1,1 0 0 0 1,-1 v -1 a 1,1 0 0 0 -1,-1 z"
           id="path3" /></g></g></g></svg>
