<?xml version="1.0" encoding="UTF-8" standalone="no"?>
<svg
   viewBox="332.0005 56.4348 202.658 245.0855"
   width="202.658px"
   height="245.085px"
   preserveAspectRatio="none"
   version="1.1"
   id="svg1"
   sodipodi:docname="idea.svg"
   xml:space="preserve"
   inkscape:version="1.4.2 (ebf0e940, 2025-05-08)"
   xmlns:inkscape="http://www.inkscape.org/namespaces/inkscape"
   xmlns:sodipodi="http://sodipodi.sourceforge.net/DTD/sodipodi-0.dtd"
   xmlns="http://www.w3.org/2000/svg"
   xmlns:svg="http://www.w3.org/2000/svg"><defs
     id="defs1">
		
		
		
		
		
		
	</defs><sodipodi:namedview
     id="namedview1"
     pagecolor="#ffffff"
     bordercolor="#000000"
     borderopacity="0.25"
     inkscape:showpageshadow="2"
     inkscape:pageopacity="0.0"
     inkscape:pagecheckerboard="0"
     inkscape:deskcolor="#d1d1d1"
     inkscape:zoom="4.4495919"
     inkscape:cx="83.266063"
     inkscape:cy="104.95345"
     inkscape:window-width="1712"
     inkscape:window-height="971"
     inkscape:window-x="0"
     inkscape:window-y="39"
     inkscape:window-maximized="1"
     inkscape:current-layer="g7" /><g
     style="fill:#000000"
     id="g1"
     transform="matrix(1.5568564,0,0,1.5568595,229.99998,-112.56481)"><g
       id="g7">
	<path
   id="path1"
   style="stroke-width:0.155864"
   d="m 134.43088,134.74999 c -19.09317,-0.66164 -39.161824,10.43577 -37.427682,31.90649 0.04551,1.49629 1.767152,8.1819 -4.957907,13.6217 -2.392667,1.94316 -1.759131,5.70376 1.608309,7.5573 1.116764,0.61659 2.285168,1.02779 3.497633,1.31349 -0.249694,1.34464 -0.126829,2.70538 0.52063,3.9844 -1.583733,3.08673 0.53193,5.89894 2.382357,6.5637 0.86988,0.42987 0.19865,1.98717 0.29481,3.29315 0.2698,3.74681 4.73785,5.56452 7.62881,5.11096 5.18217,-0.8398 11.0099,-0.57257 12.9568,5.11974 0.38903,1.13656 1.37094,1.44725 2.43128,1.57318 2.35183,0.2882 30.47708,0.13731 31.28742,-0.35335 1.13032,-0.35225 0.887,-4.50422 0.1574,-5.86787 -6.2305,-11.6156 6.24042,-23.94881 8.6362,-35.1068 4.04046,-18.36061 -11.61791,-38.71609 -29.01606,-38.71609 z m 7.74171,11.91428 c 0.97506,0.0138 1.95237,1.0469 1.3135,2.1578 -0.71713,1.2466 -1.48077,2.46492 -2.2431,3.68456 -0.98303,1.57344 -3.47889,0.12721 -2.49025,-1.45652 0.76296,-1.21823 1.52645,-2.43717 2.24436,-3.68455 0.28966,-0.50344 0.73229,-0.70756 1.17549,-0.70129 z m -23.46977,0.25593 c 0.34255,-0.0155 0.69699,0.12118 1.00112,0.47421 1.20654,1.39966 2.24716,2.9235 3.27056,4.4586 1.03603,1.55086 -1.46389,2.99426 -2.4915,1.45526 -0.88687,-1.33077 -1.7734,-2.66106 -2.81893,-3.87399 -0.90502,-1.05185 0.0111,-2.46763 1.03875,-2.51408 z m 12.96308,7.33399 c 4.56274,0.0589 9.07582,2.14908 11.49025,6.37553 1.8275,3.19272 2.05906,7.04876 0.65737,10.43895 -0.65852,1.5909 -1.6628,2.92034 -2.67591,4.29802 -3.97703,5.41051 -1.81531,3.57135 -1.81531,5.67676 0,4.3991 0.15264,4.89801 -0.27474,5.61904 -0.72414,1.58046 -0.94545,0.75649 -14.26402,0.75649 -1.15589,0 -1.80315,-0.78901 -1.94327,-1.67229 -0.17457,-0.81049 -0.58869,-3.81869 -0.60719,-5.46976 -0.0171,-1.40885 1.27351,-1.07972 -0.64985,-4.78227 -0.65962,-1.26904 -1.51984,-2.43207 -2.05492,-3.76611 -2.23992,-5.58351 -1.10615,-12.14218 4.31433,-15.4094 2.33001,-1.40377 5.08561,-2.1003 7.82326,-2.06496 z m -0.14302,3.91915 c -1.70016,-0.053 -3.42032,0.34421 -5.02691,1.31224 -7.66461,4.62027 -2.32139,12.66986 -1.81405,13.495 0.83854,1.26281 1.87044,7.20671 2.06153,9.39676 1.07312,-0.0198 1.92501,-0.22157 2.9958,-0.19197 -0.23567,-2.03652 -0.0714,-8.25169 0.42874,-10.25735 -0.37594,-0.76217 -0.76248,-1.5473 -1.28088,-2.21299 -1.50487,-1.93988 1.1921,-3.41504 2.16407,-2.16532 0.38935,0.50032 0.73316,1.01785 1.04878,1.54935 l 1.03876,-1.03876 c 1.42772,-1.42974 3.58975,0.73901 2.16281,2.16407 l -2.11389,2.11514 c -0.008,0.0873 -0.0168,0.17562 -0.0414,0.26972 -0.78587,3.04761 -0.60443,8.79636 -0.60943,9.60685 0.70372,0.0489 1.79192,0.38155 2.49564,0.44885 1.02574,-3.41763 2.68844,-9.6991 3.86833,-10.93261 0.65946,-0.731 4.35996,-4.70676 0.33119,-10.10651 -2.09783,-2.02613 -4.87549,-3.36415 -7.70909,-3.45247 z m 21.33581,1.81406 c 1.3695,-0.0617 2.30788,1.93144 0.84806,2.65207 -1.71045,0.8426 -3.47436,1.55345 -5.31293,2.06873 -1.79353,0.50251 -2.55537,-2.2816 -0.76652,-2.78255 1.60103,-0.44873 3.13227,-1.04121 4.6242,-1.77642 0.20755,-0.1024 0.41155,-0.15303 0.60719,-0.16183 z m -43.63636,3.32325 c 0.0543,-5.2e-4 0.11144,10e-4 0.16936,0.006 1.76017,0.15945 3.51802,0.30761 5.2866,0.31991 1.85915,0.0118 1.85993,2.89712 0,2.88542 -1.76858,-0.0123 -3.52643,-0.15999 -5.2866,-0.31991 -1.78005,-0.16141 -1.85195,-2.87552 -0.16936,-2.89169 z m 17.19963,18.70004 c 0.0443,0.44639 0.0947,0.89171 0.15556,1.33733 2.88934,0.008 5.77818,0.0343 8.66379,0.15305 v -1.11026 c -2.93476,-0.29502 -5.87041,-0.43542 -8.81935,-0.38012 z"
   sodipodi:nodetypes="cccccccccccccccsccccssccccsscccscscccccssccccccccccccccccscccccccccccscccccc" />
</g></g></svg>
