<?xml version="1.0" encoding="UTF-8" standalone="no"?>
<svg
   viewBox="133.7828 76.5291 245.3345 238.1353"
   width="245.334px"
   height="238.135px"
   preserveAspectRatio="none"
   version="1.1"
   id="svg1"
   sodipodi:docname="kids.svg"
   xml:space="preserve"
   inkscape:version="1.4.2 (ebf0e940, 2025-05-08)"
   xmlns:inkscape="http://www.inkscape.org/namespaces/inkscape"
   xmlns:sodipodi="http://sodipodi.sourceforge.net/DTD/sodipodi-0.dtd"
   xmlns="http://www.w3.org/2000/svg"
   xmlns:svg="http://www.w3.org/2000/svg"><sodipodi:namedview
     id="namedview1"
     pagecolor="#ffffff"
     bordercolor="#000000"
     borderopacity="0.25"
     inkscape:showpageshadow="2"
     inkscape:pageopacity="0.0"
     inkscape:pagecheckerboard="0"
     inkscape:deskcolor="#d1d1d1"
     inkscape:zoom="0.6413931"
     inkscape:cx="190.99052"
     inkscape:cy="31.961678"
     inkscape:window-width="896"
     inkscape:window-height="204"
     inkscape:window-x="0"
     inkscape:window-y="39"
     inkscape:window-maximized="0"
     inkscape:current-layer="svg1" /><defs
     id="defs1"><clipPath
       clipPathUnits="userSpaceOnUse"
       id="clipPath628"><path
         d="M 0,276 H 276 V 0 H 0 Z"
         transform="translate(-147.048,-152.4093)"
         id="path628" /></clipPath></defs><g
     style="fill:#000000;fill-opacity:1"
     id="g1"
     transform="matrix(8.111512,0,0,8.111512,156.57848,102.4552)"><g
       id="g3"
       style="fill:#000000;fill-opacity:1">
	<g
   id="g2"
   style="fill:#000000;fill-opacity:1">
		<path
   d="M 6.42,9.301 C 8.191,9.301 9.625,7.866 9.625,6.093 9.625,4.988 10.014,3.976 9.16,3.402 8.648,3.053 6.4,2.888 5.736,2.888 4.946,2.888 3.919,3.532 3.36,4.007 2.665,4.594 3.213,5.111 3.213,6.092 c 0,1.774 1.433,3.209 3.207,3.209 z M 4.186,5.779 C 4.775,5.672 5.175,5.866 5.175,5.866 L 6.159,5.387 c 0,0 -0.501,0.724 -0.051,0.479 C 7.11,5.53 8.231,5.67 8.801,5.782 c 0.02,0.125 0.038,0.253 0.038,0.386 0,1.32 -1.048,2.387 -2.349,2.387 -1.294,0 -2.343,-1.067 -2.343,-2.387 0,-0.133 0.018,-0.261 0.039,-0.389 z"
   id="path1"
   style="fill:#000000;fill-opacity:1" />
		<path
   d="M 22.066,5.643 C 22.051,5.46 22.036,5.278 21.996,5.102 21.869,3.978 20.863,1.694 17.976,1.762 c -2.488,0.059 -3.031,1.932 -3.162,3.072 -0.088,0.28 -0.145,0.573 -0.164,0.878 -3.236,0.565 -2.88,3.849 -0.904,3.905 -0.188,-1.715 0.63,-2.745 0.945,-3.076 0.291,1.771 1.82,3.132 3.672,3.132 1.756,0 3.222,-1.223 3.619,-2.858 0.303,0.534 0.812,1.628 0.688,2.803 3.113,-0.027 1.581,-3.586 -0.604,-3.975 z m -3.703,2.974 c -1.455,0 -2.639,-1.172 -2.672,-2.621 0.531,-0.193 0.925,-1.113 0.925,-1.113 0,0 0.315,0.108 0.315,1.147 0.551,0.192 1.508,-1.614 1.508,-1.614 V 5.839 C 19.046,6.005 20.96,5.785 20.96,5.785 l 0.071,0.06 c 0.001,0.03 0.009,0.061 0.009,0.092 0.002,1.478 -1.198,2.68 -2.677,2.68 z"
   id="path2"
   style="fill:#000000;fill-opacity:1" />
		<polygon
   points="8.675,9.827 4.438,9.827 0,14.699 0.93,15.658 4.107,12.947 4.107,18.205 4.744,18.205 4.744,22.202 4.339,22.202 4.339,22.671 6.184,22.671 6.184,22.202 6.184,18.205 6.875,18.205 6.875,22.202 6.875,22.671 8.716,22.671 8.716,22.202 8.312,22.202 8.312,18.205 9.085,18.205 9.085,13.046 11.625,15.654 12.663,15.398 13.238,15.542 16.115,12.249 16.279,13.554 13.607,18.146 16.689,18.146 16.689,22.144 16.284,22.144 16.284,22.609 18.127,22.609 18.127,22.144 18.129,22.144 18.129,18.146 18.818,18.146 18.818,22.144 18.818,22.609 20.662,22.609 20.662,22.144 20.257,22.144 20.257,18.146 22.646,18.146 20.292,13.554 20.421,11.948 22.67,14.962 24.16,14.591 20.594,9.769 19.143,9.769 17.568,9.769 16.253,9.769 12.402,14.409 "
   id="polygon2"
   style="fill:#000000;fill-opacity:1" />
	</g>
</g></g></svg>
