<?xml version="1.0" encoding="UTF-8" standalone="no"?>
<svg
   viewBox="274.2414 58.1071 193.1999 245.1565"
   width="193.2px"
   height="245.156px"
   preserveAspectRatio="none"
   version="1.1"
   id="svg1"
   sodipodi:docname="lifesaver.svg"
   inkscape:version="1.4.2 (ebf0e940, 2025-05-08)"
   xmlns:inkscape="http://www.inkscape.org/namespaces/inkscape"
   xmlns:sodipodi="http://sodipodi.sourceforge.net/DTD/sodipodi-0.dtd"
   xmlns="http://www.w3.org/2000/svg"
   xmlns:svg="http://www.w3.org/2000/svg">
  <defs
     id="defs1" />
  <sodipodi:namedview
     id="namedview1"
     pagecolor="#ffffff"
     bordercolor="#000000"
     borderopacity="0.25"
     inkscape:showpageshadow="2"
     inkscape:pageopacity="0.0"
     inkscape:pagecheckerboard="0"
     inkscape:deskcolor="#d1d1d1"
     showgrid="false"
     inkscape:zoom="3.2177165"
     inkscape:cx="59.203475"
     inkscape:cy="88.572127"
     inkscape:window-width="1712"
     inkscape:window-height="971"
     inkscape:window-x="0"
     inkscape:window-y="39"
     inkscape:window-maximized="1"
     inkscape:current-layer="svg1" />
  <g
     id="g1"
     transform="matrix(2.017781,0,0,2.017781,-364.90151,-235.8477)">
    <path
       style="fill:#000000;fill-opacity:1;stroke:none;stroke-width:0.123911"
       d="m 364.20881,210.62802 3.86601,9.36765 c 6.83985,-2.82516 12.63886,-8.27723 15.71184,-15.71188 l -9.36763,-3.86601 c -1.98257,4.80773 -5.74944,8.37636 -10.21022,10.21024 z"
       id="path2" />
    <path
       style="fill:#000000;fill-opacity:1;stroke:none;stroke-width:0.123911"
       d="m 349.88477,175.83389 c -4.80773,1.98257 -8.37635,5.74945 -10.21022,10.21024 l -9.36763,-3.86601 c 2.82516,-6.83988 8.27722,-12.6389 15.71184,-15.71189 z"
       id="path3" />
    <path
       style="fill:#000000;fill-opacity:1;stroke:none;stroke-width:0.123911"
       d="m 339.62498,200.41778 -9.36762,3.86601 c 2.82515,6.83987 8.27721,12.6389 15.71184,15.71188 l 3.866,-9.36765 c -4.85729,-1.98257 -8.37634,-5.74946 -10.21022,-10.21024 z"
       id="path4" />
    <path
       style="fill:#000000;fill-opacity:1;stroke:none;stroke-width:0.123911"
       d="m 364.20881,175.83389 c 4.80773,1.98257 8.37635,5.74945 10.21022,10.21024 l 9.36763,-3.86601 c -2.82516,-6.83988 -8.27722,-12.6389 -15.71184,-15.71189 z"
       id="path5" />
    <path
       d="m 356.97244,222.72171 c -3.76688,0 -7.58332,-0.74347 -11.25107,-2.2304 -15.01794,-6.2451 -22.15518,-23.49347 -15.95966,-38.51145 3.02341,-7.28595 8.67373,-12.93628 15.95966,-15.9597 7.28594,-3.02343 15.31533,-3.02343 22.5517,0 v 0 c 15.01794,6.2451 22.15518,23.49347 15.95966,38.51145 -4.65903,11.30066 -15.66228,18.1901 -27.26029,18.1901 z m 0.0496,-57.99023 c -3.71731,0 -7.38506,0.74347 -10.90411,2.18083 -7.03812,2.9243 -12.49017,8.37637 -15.41446,15.4145 -5.99727,14.52234 0.89215,31.2255 15.41446,37.22278 14.5223,5.99728 31.22542,-0.89215 37.22269,-15.41449 5.99726,-14.52234 -0.89216,-31.22551 -15.41446,-37.22279 v 0 c -3.51906,-1.48693 -7.23637,-2.18083 -10.90412,-2.18083 z m 0,47.82955 c -2.52777,0 -5.00598,-0.49564 -7.38506,-1.48693 -9.86327,-4.06427 -14.57186,-15.4145 -10.45804,-25.27779 1.98257,-4.75817 5.69988,-8.4755 10.45804,-10.45807 4.75816,-1.98257 10.01196,-1.98257 14.81969,0 4.75816,1.98257 8.47547,5.6999 10.45804,10.45807 1.98256,4.75817 1.98256,10.01199 0,14.81972 v 0 c -1.98257,4.75818 -5.69988,8.4755 -10.45804,10.45807 -2.42865,0.99129 -4.95642,1.48693 -7.43463,1.48693 z m 0,-37.71843 c -2.37908,0 -4.75816,0.44608 -7.03811,1.3878 -4.51034,1.88344 -8.07896,5.40251 -9.91283,9.91286 -3.86601,9.36765 0.59477,20.1231 9.91283,23.98912 4.51034,1.88344 9.51632,1.88344 14.02666,0 4.51034,-1.88345 8.07896,-5.40251 9.91283,-9.91286 v 0 c 1.88344,-4.51035 1.88344,-9.51635 0,-14.0267 -1.88343,-4.51035 -5.40249,-8.07898 -9.91283,-9.91286 -2.23039,-0.94172 -4.60947,-1.43736 -6.98855,-1.43736 z"
       id="path6"
       style="fill:#000000;fill-opacity:1;stroke:none;stroke-width:0.12391" />
    <path
       d="m 327.77914,194.9657 h -0.74346 c -0.79303,0 -1.48692,-0.64433 -1.48692,-1.48693 0,-0.84259 0.64433,-1.48692 1.48692,-1.48692 h 0.74346 c 0.29739,0 0.49564,0.19825 0.49564,0.49564 0,0.29738 -0.19825,0.49564 -0.49564,0.49564 h -0.74346 c -0.24782,0 -0.49564,0.24782 -0.49564,0.49564 0,0.24783 0.24782,0.49565 0.49564,0.49565 h 0.74346 c 0.29739,0 0.49564,0.19826 0.49564,0.49564 0,0.29739 -0.19825,0.49564 -0.49564,0.49564 z"
       id="path12"
       style="fill:#000000;fill-opacity:1;stroke:none;stroke-width:0.12391" />
    <path
       d="m 387.00832,194.9657 h -0.74346 c -0.29738,0 -0.49564,-0.19825 -0.49564,-0.49564 0,-0.29738 0.19826,-0.49564 0.49564,-0.49564 h 0.74346 c 0.24783,0 0.49565,-0.24782 0.49565,-0.49565 0,-0.24782 -0.24782,-0.49564 -0.49565,-0.49564 h -0.74346 c -0.29738,0 -0.49564,-0.19826 -0.49564,-0.49564 0,-0.29739 0.19826,-0.49564 0.49564,-0.49564 h 0.74346 c 0.79303,0 1.48693,0.64433 1.48693,1.48692 0,0.8426 -0.64433,1.48693 -1.48693,1.48693 z"
       id="path13"
       style="fill:#000000;fill-opacity:1;stroke:none;stroke-width:0.12391" />
    <path
       d="m 356.52636,224.70428 c -0.79303,0 -1.48692,-0.6939 -1.48692,-1.48693 v -0.49564 c 0,-0.29739 0.19825,-0.49564 0.49564,-0.49564 0.29738,0 0.49564,0.19825 0.49564,0.49564 v 0.49564 c 0,0.29739 0.19826,0.49564 0.49564,0.49564 0.24782,0 0.49564,-0.24782 0.49564,-0.49564 v -0.49564 c 0,-0.29739 0.19826,-0.49564 0.49564,-0.49564 0.29739,0 0.49565,0.19825 0.49565,0.49564 v 0.49564 c 0,0.79303 -0.6939,1.48693 -1.48693,1.48693 z"
       id="path14"
       style="fill:#000000;fill-opacity:1;stroke:none;stroke-width:0.12391" />
    <g
       id="path7"
       style="opacity:1;fill:#000000;fill-opacity:1">
      <path
         style="baseline-shift:baseline;display:inline;overflow:visible;vector-effect:none;fill:#000000;fill-opacity:1;stroke-linecap:round;enable-background:accumulate;stop-color:#000000;stop-opacity:1"
         d="m 397.90039,157.95703 c -2.52488,0.23941 -4.43125,2.48833 -4.38086,4.98438 -0.0709,1.63988 0.53829,3.26621 1.60156,4.49218 1.06887,1.23243 2.64709,2.0667 4.42969,1.94532 0.47891,-0.0206 0.94817,-0.0957 1.39844,-0.21485 a 0.82771498,0.82771498 0 0 0 0.58789,-1.01172 0.82771498,0.82771498 0 0 0 -1.01172,-0.58789 c -0.35254,0.0933 -0.70766,0.15014 -1.05859,0.16407 h -0.0137 l -0.0117,0.002 c -1.20934,0.0839 -2.27685,-0.46793 -3.07032,-1.38281 -0.79346,-0.91488 -1.25832,-2.18232 -1.20117,-3.35743 l 0.002,-0.0312 -0.002,-0.0312 c -0.0432,-1.62898 1.29035,-3.1976 2.91602,-3.33398 l 0.043,-0.004 0.043,-0.008 c 0.61227,-0.11706 1.1807,0.0714 1.79688,0.48047 0.60546,0.40192 1.19747,1.0118 1.72852,1.58594 2.54635,3.29893 2.98874,7.83894 2.6621,12.06836 l -0.002,0.0234 v 0.0234 c -0.0493,2.27419 -1.16365,4.4234 -2.53515,6.39649 -5.2e-4,7.4e-4 -10e-4,10e-4 -0.002,0.002 -3.8085,5.29118 -9.84437,8.47005 -15.16992,12.60351 a 0.82771498,0.82771498 0 0 0 -0.14648,1.16016 0.82771498,0.82771498 0 0 0 1.16015,0.14649 c 5.16748,-4.01078 11.40386,-7.24424 15.50781,-12.95313 l 0.004,-0.006 0.004,-0.006 c 1.4504,-2.08615 2.77047,-4.52202 2.83203,-7.30469 0.33704,-4.4292 -0.0788,-9.40421 -3.02149,-13.19531 l -0.0215,-0.0273 -0.0234,-0.0254 c -0.55337,-0.59957 -1.23052,-1.31881 -2.0625,-1.8711 -0.82199,-0.54565 -1.85563,-0.92798 -2.98242,-0.72656 z"
         id="path8" />
      <path
         style="baseline-shift:baseline;display:inline;overflow:visible;vector-effect:none;fill:#000000;fill-opacity:1;stroke-linecap:round;enable-background:accumulate;stop-color:#000000;stop-opacity:1"
         d="m 397.80664,156.96094 c -0.0162,0.002 -0.0288,0.012 -0.0449,0.0137 -0.0132,0.002 -0.0239,-0.004 -0.0371,-0.002 l -0.5332,0.0957 -0.0371,0.0879 c -2.69984,0.59487 -4.67031,3.00199 -4.62891,5.77539 -0.073,1.90323 0.62097,3.75087 1.83984,5.15625 1.24049,1.43031 3.11837,2.42983 5.24805,2.28711 0.54801,-0.0251 1.08218,-0.10929 1.5918,-0.24414 0.96371,-0.25573 1.55383,-1.27047 1.29883,-2.23438 -0.25574,-0.96371 -1.27047,-1.55383 -2.23438,-1.29882 -0.28908,0.0765 -0.57187,0.12014 -0.8418,0.13086 h -0.0586 l -0.01,0.002 c -0.86057,0.055 -1.60296,-0.31134 -2.23242,-1.03711 -0.61975,-0.71459 -1.00044,-1.77362 -0.95898,-2.65039 6e-5,-0.001 -6e-5,-0.003 0,-0.004 l 0.006,-0.0801 -0.004,-0.0566 c -0.0283,-1.06678 0.96547,-2.22571 2,-2.3125 h 0.004 l 0.0937,-0.008 0.0898,-0.0176 h 0.002 c 0.3057,-0.0584 0.55865,-5.3e-4 1.05665,0.33008 v 0.002 c 0.45601,0.30272 1.00126,0.84897 1.50976,1.39649 2.2891,2.99054 2.7535,7.25607 2.4375,11.34765 l -0.006,0.0566 v 0.0449 c -0.0424,1.9555 -1.02952,3.93322 -2.3457,5.83008 l -0.004,0.006 c -3.62678,5.03873 -9.55222,8.1909 -14.9707,12.39649 v 0.002 c -0.78648,0.61143 -0.93404,1.77282 -0.32422,2.56055 v 0.002 h 0.002 c 0.61143,0.78648 1.77282,0.93403 2.56055,0.32422 h 0.002 v -0.002 c 5.06528,-3.93146 11.42729,-7.20476 15.70703,-13.15821 l 0.01,-0.0156 0.006,-0.01 c 1.496,-2.15174 2.94287,-4.76664 3.01172,-7.85156 0.33915,-4.53587 -0.0678,-9.75758 -3.23047,-13.83203 l -0.004,-0.004 -0.0469,-0.0605 -0.0508,-0.0527 c -0.5588,-0.60545 -1.28717,-1.39208 -2.24414,-2.02734 -0.94969,-0.63042 -2.22828,-1.10503 -3.64844,-0.87305 z m 0.18359,1.63672 h 0.004 0.008 c -0.003,2.3e-4 -0.005,0.002 -0.008,0.002 -0.002,3.8e-4 -0.004,-3.8e-4 -0.006,0 z m 1.57032,10.12695 -0.0234,0.004 h -0.0273 z m 3.07226,12.02148 -0.10547,0.12305 c -0.0177,0.0177 -0.0206,0.019 -0.0234,0.0215 0.0387,-0.0528 0.0906,-0.0913 0.1289,-0.14453 z"
         id="path9" />
    </g>
    <path
       style="baseline-shift:baseline;display:inline;overflow:visible;opacity:1;vector-effect:none;fill:#000000;fill-opacity:1;stroke-linecap:round;enable-background:accumulate;stop-color:#000000;stop-opacity:1"
       d="m 356.76367,162.13672 c -17.20276,0 -31.17969,13.97688 -31.17969,31.17969 0,17.2028 13.97693,31.17968 31.17969,31.17968 17.20277,0 31.18164,-13.97688 31.18164,-31.17968 0,-17.20281 -13.97887,-31.17969 -31.18164,-31.17969 z m 0,3 c 15.58144,0 28.18164,12.5982 28.18164,28.17969 0,15.58148 -12.6002,28.17968 -28.18164,28.17968 -15.58144,0 -28.17969,-12.5982 -28.17969,-28.17968 0,-15.58149 12.59825,-28.17969 28.17969,-28.17969 z"
       id="path1" />
    <g
       id="path1-1"
       style="opacity:1;fill:#000000;fill-opacity:1">
      <path
         style="baseline-shift:baseline;display:inline;overflow:visible;vector-effect:none;fill:#000000;fill-opacity:1;stroke-linecap:round;enable-background:accumulate;stop-color:#000000;stop-opacity:1"
         d="m 356.86523,173.28125 c -11.05996,0 -20.04687,8.98689 -20.04687,20.04687 0,11.05999 8.98691,20.04688 20.04687,20.04688 11.05997,0 20.04688,-8.98689 20.04688,-20.04688 0,-11.05998 -8.98691,-20.04687 -20.04688,-20.04687 z m 0,1.92969 c 10.01759,0 18.11719,8.09957 18.11719,18.11718 0,10.01762 -8.0996,18.11719 -18.11719,18.11719 -10.01758,0 -18.11718,-8.09957 -18.11718,-18.11719 0,-10.01761 8.0996,-18.11718 18.11718,-18.11718 z"
         id="path10" />
      <path
         style="baseline-shift:baseline;display:inline;overflow:visible;vector-effect:none;fill:#000000;fill-opacity:1;stroke-linecap:round;enable-background:accumulate;stop-color:#000000;stop-opacity:1"
         d="m 356.86523,172.78125 c -11.33081,0 -20.54687,9.21604 -20.54687,20.54687 0,11.33085 9.21606,20.54688 20.54687,20.54688 11.33083,0 20.54688,-9.21603 20.54688,-20.54688 0,-11.33083 -9.21605,-20.54687 -20.54688,-20.54687 z m 0,1 c 10.78912,0 19.54688,8.75775 19.54688,19.54687 0,10.78914 -8.75776,19.54688 -19.54688,19.54688 -10.7891,0 -19.54687,-8.75774 -19.54687,-19.54688 0,-10.78912 8.75777,-19.54687 19.54687,-19.54687 z m 0,0.92969 c -10.28709,0 -18.61718,8.33006 -18.61718,18.61718 0,10.28714 8.33009,18.61719 18.61718,18.61719 10.28711,0 18.61719,-8.33005 18.61719,-18.61719 0,-10.28712 -8.33008,-18.61718 -18.61719,-18.61718 z m 0,1 c 9.74808,0 17.61719,7.86909 17.61719,17.61718 0,9.74811 -7.86911,17.61719 -17.61719,17.61719 -9.74806,0 -17.61718,-7.86908 -17.61718,-17.61719 0,-9.74809 7.86912,-17.61718 17.61718,-17.61718 z"
         id="path11" />
    </g>
  </g>
</svg>
