<?xml version="1.0" encoding="UTF-8" standalone="no"?>
<svg
   viewBox="228.8623 79.3576 201.0054 202.6552"
   width="201.005px"
   height="202.655px"
   preserveAspectRatio="none"
   version="1.1"
   id="svg1"
   sodipodi:docname="match strike.svg"
   xml:space="preserve"
   inkscape:version="1.4.2 (ebf0e940, 2025-05-08)"
   xmlns:inkscape="http://www.inkscape.org/namespaces/inkscape"
   xmlns:sodipodi="http://sodipodi.sourceforge.net/DTD/sodipodi-0.dtd"
   xmlns="http://www.w3.org/2000/svg"
   xmlns:svg="http://www.w3.org/2000/svg"><defs
     id="defs1" /><sodipodi:namedview
     id="namedview1"
     pagecolor="#ffffff"
     bordercolor="#000000"
     borderopacity="0.25"
     inkscape:showpageshadow="2"
     inkscape:pageopacity="0.0"
     inkscape:pagecheckerboard="0"
     inkscape:deskcolor="#d1d1d1"
     inkscape:zoom="0.5917501"
     inkscape:cx="49.852125"
     inkscape:cy="103.92901"
     inkscape:window-width="896"
     inkscape:window-height="204"
     inkscape:window-x="0"
     inkscape:window-y="39"
     inkscape:window-maximized="0"
     inkscape:current-layer="svg1" /><g
     style="fill:#000000;fill-opacity:1"
     id="g1"
     transform="matrix(4.6411335,0,0,4.6411335,253.77505,111.16592)"><path
       d="M 29.112,6.859 C 29.149,7.721 29.034,8.575 28.727,9.401 28.08,6.927 26.811,3.486 23.053,1.872 22.063,1.526 20.965,1.278 19.755,1.147 v 0 c 2.543,3.101 1.725,5.41 0.333,7.658 0.05,-2.678 -2.321,-3.627 -5.195,-2.75 4.458,0.009 3.963,3.354 2.949,6.308 -0.524,1.008 -0.892,2.074 -0.892,3.252 0,1.32 0.42,2.404 1.158,3.24 L 1.109,29.244 v 1.494 H 4.852 L 21.308,20.493 c 0.332,0.118 0.69,0.183 1.063,0.183 1.756,0 3.179,-1.427 3.179,-3.188 0,-1.761 -1.423,-3.188 -3.179,-3.188 -1.756,0 -3.179,1.427 -3.179,3.188 0,0.227 0.024,0.448 0.069,0.662 l -0.604,0.369 c -0.14,-0.587 -0.147,-1.241 0.007,-1.957 0.635,-2.962 3.252,-4.512 4.409,-6.997 0.599,1.103 1.514,1.892 2.405,1.895 1.213,0.004 1.881,-1.409 1.567,-3.171 2.583,3.718 1.768,9.478 -0.729,12.099 4.105,-1.874 5.571,-8.541 2.797,-13.528 z"
       id="path1"
       style="fill:#000000;fill-opacity:1" /></g></svg>
