<?xml version="1.0" encoding="UTF-8" standalone="no"?>
<svg
   viewBox="240.1919 79.3572 261.29 202.6557"
   width="261.29px"
   height="202.656px"
   preserveAspectRatio="none"
   version="1.1"
   id="svg1"
   sodipodi:docname="meal.svg"
   inkscape:version="1.4.2 (ebf0e940, 2025-05-08)"
   xmlns:inkscape="http://www.inkscape.org/namespaces/inkscape"
   xmlns:sodipodi="http://sodipodi.sourceforge.net/DTD/sodipodi-0.dtd"
   xmlns="http://www.w3.org/2000/svg"
   xmlns:svg="http://www.w3.org/2000/svg">
  <defs
     id="defs1" />
  <sodipodi:namedview
     id="namedview1"
     pagecolor="#ffffff"
     bordercolor="#000000"
     borderopacity="0.25"
     inkscape:showpageshadow="2"
     inkscape:pageopacity="0.0"
     inkscape:pagecheckerboard="0"
     inkscape:deskcolor="#d1d1d1"
     inkscape:zoom="0.26152691"
     inkscape:cx="131.91759"
     inkscape:cy="101.328"
     inkscape:window-width="896"
     inkscape:window-height="204"
     inkscape:window-x="0"
     inkscape:window-y="39"
     inkscape:window-maximized="0"
     inkscape:current-layer="svg1" />
  <g
     id="object-1"
     transform="matrix(1, 0, 0, 1, -5633.158782958984, -3.314793109893799)"
     style="fill:#000000">
    <path
       id="path2012"
       d="M 5895.65 84.548 C 5896.88 82.904 5899.66 82.381 5901.84 83.511 C 5902.94 84.084 5903.63 85.236 5903.67 86.484 L 5904.79 124.377 C 5904.95 129.731 5910.9 130.751 5912 125.317 C 5913.88 116.003 5913.22 106.324 5913.89 97.008 C 5914.04 94.965 5914.25 86.125 5915.02 85.145 C 5918.23 81.069 5922.78 84.517 5922.89 89.245 C 5923.33 107.735 5926.45 136.225 5919.07 147.819 C 5917.13 150.88 5913.35 153.784 5911.98 156.157 C 5909.62 160.264 5911.79 220.16 5911.99 230.313 C 5912.27 243.947 5915.1 259.789 5913 273.404 C 5910.58 289.084 5885.76 289.848 5884.34 271.273 L 5888.35 158.289 C 5887.77 155.327 5883.87 154.06 5881.66 151.607 C 5868.59 137.075 5874.72 107.437 5875.22 88.531 C 5875.27 86.995 5875.79 85.48 5876.84 84.353 C 5878.56 82.507 5880.61 82.225 5882.46 83.727 C 5883.67 84.707 5884.36 86.192 5884.5 87.739 C 5885.39 97.424 5882.09 122.387 5885.84 126.855 C 5888.3 129.787 5891.71 129.32 5892.46 125.327 C 5893.93 118.948 5893.12 87.912 5895.65 84.548"
       style="fill:#000000;fill-opacity:1;fill-rule:nonzero;stroke:none"
       clip-path="url(#clipPath2013)" />
    <path
       id="path2014"
       d="M 6117.16 82.91 C 6126.35 81.299 6131.13 88.091 6131.88 96.514 C 6134.18 122.607 6131.35 154.07 6131.79 180.941 C 6132.07 198.181 6133.71 216.077 6133.93 233.314 C 6134.09 245.206 6135.44 264.593 6133.94 275.573 C 6132.17 288.551 6110.91 289.042 6108.41 274.251 C 6107.29 267.555 6108.75 252.227 6109.21 244.681 C 6110.27 227.102 6113.79 209.267 6112.78 191.718 C 6110.02 187.937 6103.6 184.629 6102.97 179.925 C 6100.95 164.775 6103.4 141.089 6104.1 125.398 C 6104.58 114.405 6101.91 85.582 6117.16 82.91"
       style="fill:#000000;fill-opacity:1;fill-rule:nonzero;stroke:none"
       clip-path="url(#clipPath2015)" />
    <path
       id="path2016"
       d="M 6090.66 184 C 6090.66 139.583 6054.65 103.575 6010.24 103.575 C 5965.82 103.575 5929.81 139.583 5929.81 184 C 5929.81 228.417 5965.82 264.425 6010.24 264.425 C 6054.65 264.425 6090.66 228.417 6090.66 184"
       style="fill:#000000;fill-opacity:1;fill-rule:nonzero;stroke:none"
       clip-path="url(#clipPath2017)" />
  </g>
</svg>
