<?xml version="1.0" encoding="UTF-8" standalone="no"?>
<svg
   viewBox="267.6826 64.5971 245.3208 240.8565"
   width="245.321px"
   height="240.857px"
   preserveAspectRatio="none"
   version="1.1"
   id="svg1"
   sodipodi:docname="moon stars.svg"
   inkscape:version="1.4.2 (ebf0e940, 2025-05-08)"
   xmlns:inkscape="http://www.inkscape.org/namespaces/inkscape"
   xmlns:sodipodi="http://sodipodi.sourceforge.net/DTD/sodipodi-0.dtd"
   xmlns="http://www.w3.org/2000/svg"
   xmlns:svg="http://www.w3.org/2000/svg">
  <defs
     id="defs1" />
  <sodipodi:namedview
     id="namedview1"
     pagecolor="#ffffff"
     bordercolor="#000000"
     borderopacity="0.25"
     inkscape:showpageshadow="2"
     inkscape:pageopacity="0.0"
     inkscape:pagecheckerboard="0"
     inkscape:deskcolor="#d1d1d1"
     inkscape:zoom="0.22004759"
     inkscape:cx="120.4285"
     inkscape:cy="120.4285"
     inkscape:window-width="896"
     inkscape:window-height="204"
     inkscape:window-x="0"
     inkscape:window-y="39"
     inkscape:window-maximized="0"
     inkscape:current-layer="svg1" />
  <g
     id="g2174"
     transform="matrix(1, 0, 0, 1, -6001.657253265381, 1.0254578590393066)"
     style="fill:#000000">
    <path
       id="path2175"
       d="m 0,0 c -0.72,-1.451 -3.618,-5.284 -4.772,-6.926 -19.724,-28.058 -25.208,-59.789 -8.506,-91.073 13.795,-25.84 47.613,-45.023 77.206,-40.315 8.24,1.31 9.189,-6.033 6.906,-8.803 -11.814,-14.334 -31.066,-21.661 -45.928,-23.94 -66.023,-10.123 -119.938,53.563 -100.949,117.555 7.932,26.731 29.744,51.199 56.804,59.633 4.443,1.385 13.136,3.493 17.322,1.694 C 1.56,6.33 1.504,3.033 0,0"
       style="fill:#000000;fill-opacity:1;fill-rule:nonzero;stroke:none"
       transform="matrix(1.3333333,0,0,-1.3333333,6375.872,74.9304)"
       clip-path="url(#clipPath2176)" />
    <path
       id="path2177"
       d="m 0,0 c 2.139,-2.097 3.567,-5.937 4.979,-9.642 1.579,-4.145 5.232,-7.144 9.607,-7.878 3.963,-0.666 8.687,-1.604 10.991,-2.29 4.325,-1.287 6.014,-4.954 3.099,-8.754 -1.153,-1.504 -5.82,-5.761 -9.176,-9.02 -2.267,-2.202 -2.763,-4.304 -2.108,-7.395 1.301,-6.135 4.07,-15.956 1.137,-18.011 -3.814,-2.671 -12.808,2.517 -17.936,5.651 -2.211,1.352 -5.001,1.287 -7.172,-0.129 -3.621,-2.36 -8.591,-5.916 -12.4,-6.604 -3.071,-0.555 -5.901,1.789 -6.065,4.905 -0.228,4.308 1.805,8.974 2.417,13.279 0.412,2.899 -0.674,5.814 -2.785,7.843 -4.126,3.967 -10.356,9.113 -10.915,11.958 -0.42,2.136 0.275,3.281 1.776,4.669 2.018,1.865 9.827,3.459 14.976,4.227 3.244,0.483 5.983,2.632 7.243,5.659 1.791,4.301 3.954,9.948 5.534,11.542 C -4.651,2.176 -2.156,2.113 0,0"
       style="fill:#000000;fill-opacity:1;fill-rule:nonzero;stroke:none"
       transform="matrix(1.3333333,0,0,-1.3333333,6474.4871,80.2512)"
       clip-path="url(#clipPath2178)" />
    <path
       id="path2179"
       d="m 0,0 c 0.073,-0.143 1.029,-2.308 1.828,-2.774 1.109,-0.646 9.679,-0.99 11.334,-2.946 1.812,-2.142 -5.072,-7.921 -5.795,-11.817 -0.384,-2.066 5.195,-9.816 1.135,-12.135 -2.967,-1.696 -9.542,4.85 -12.927,4.791 -2.916,-0.052 -9.768,-6.867 -12.764,-5.094 -3.843,2.275 1.789,10.399 0.944,13.06 -0.838,2.639 -8.287,7.982 -6.392,10.701 1.418,2.035 9.867,2.716 10.875,3.458 2.103,1.548 3.512,9.585 6.847,9.573 C -2.312,6.807 -0.881,1.729 0,0"
       style="fill:#000000;fill-opacity:1;fill-rule:nonzero;stroke:none"
       transform="matrix(1.3333333,0,0,-1.3333333,6437.9033,188.78493)"
       clip-path="url(#clipPath2180)" />
  </g>
</svg>
