<?xml version="1.0" encoding="UTF-8" standalone="no"?>
<svg
   viewBox="332.0005 56.4348 130.66908 130.68845"
   width="130.66908"
   height="130.68819"
   preserveAspectRatio="none"
   version="1.1"
   id="svg1"
   sodipodi:docname="phonecall.svg"
   xml:space="preserve"
   inkscape:version="1.4.2 (ebf0e940, 2025-05-08)"
   xmlns:inkscape="http://www.inkscape.org/namespaces/inkscape"
   xmlns:sodipodi="http://sodipodi.sourceforge.net/DTD/sodipodi-0.dtd"
   xmlns="http://www.w3.org/2000/svg"
   xmlns:svg="http://www.w3.org/2000/svg"><defs
     id="defs1" /><sodipodi:namedview
     id="namedview1"
     pagecolor="#ffffff"
     bordercolor="#000000"
     borderopacity="0.25"
     inkscape:showpageshadow="2"
     inkscape:pageopacity="0.0"
     inkscape:pagecheckerboard="0"
     inkscape:deskcolor="#d1d1d1"
     inkscape:zoom="0.82679015"
     inkscape:cx="104.62147"
     inkscape:cy="71.360308"
     inkscape:window-width="896"
     inkscape:window-height="245"
     inkscape:window-x="0"
     inkscape:window-y="39"
     inkscape:window-maximized="0"
     inkscape:current-layer="svg1" /><g
     style="fill:#000000;fill-opacity:1;stroke:none;stroke-width:0.999981;stroke-dasharray:none"
     id="g1"
     transform="matrix(6.6171248,0,0,6.6171381,312.14911,48.163395)"><path
       d="m 15.5562,14.5477 -0.4555,0.4795 c 0,0 -1.0826,1.1398 -4.0376,-1.9713 C 8.10812,9.94484 9.1907,8.80507 9.1907,8.80507 L 9.47752,8.50311 C 10.1841,7.75924 10.2507,6.56497 9.63424,5.6931 L 8.37326,3.90961 C 7.61028,2.8305 6.13596,2.68795 5.26145,3.60864 l -1.5696,1.6525 c -0.43362,0.45652 -0.7242,1.04831 -0.68896,1.7048 0.09015,1.67952 0.80782,5.29306 4.81247,9.50926 4.24674,4.471 8.23144,4.6487 9.86094,4.4879 0.5154,-0.0509 0.9636,-0.3288 1.3248,-0.7091 l 1.4206,-1.4956 c 0.9589,-1.0095 0.6885,-2.7402 -0.5384,-3.4464 l -1.9105,-1.0997 c -0.8056,-0.4637 -1.787,-0.3275 -2.4166,0.3354 z"
       fill="#1c274c"
       id="path1"
       style="fill:#000000;fill-opacity:1;stroke:none;stroke-width:0.999981;stroke-dasharray:none" /><path
       d="m 13.2595,1.87983 c 0.0662,-0.40889 0.4527,-0.68626 0.8616,-0.62007 0.0253,0.00485 0.1068,0.02007 0.1494,0.02957 0.0854,0.01901 0.2044,0.04826 0.3528,0.09149 0.2968,0.08644 0.7114,0.22885 1.209,0.45698 0.9963,0.45676 2.3221,1.25576 3.6979,2.63156 1.3758,1.3758 2.1748,2.70161 2.6315,3.69789 0.2282,0.49762 0.3706,0.91222 0.457,1.209 0.0432,0.14841 0.0725,0.26744 0.0915,0.35276 0.0095,0.04267 0.0165,0.07693 0.0213,0.10224 l 0.0058,0.0312 c 0.0661,0.40885 -0.2087,0.81145 -0.6176,0.87765 -0.4077,0.066 -0.7918,-0.2101 -0.8596,-0.617 -0.0021,-0.011 -0.0079,-0.0403 -0.014,-0.068 C 21.2337,9.9997 21.2124,9.91188 21.1786,9.79572 21.1109,9.56339 20.9934,9.21806 20.7982,8.79238 20.4084,7.94207 19.7074,6.76789 18.4695,5.53002 17.2317,4.29216 16.0575,3.59117 15.2072,3.20134 14.7815,3.00618 14.4362,2.88865 14.2038,2.82097 14.0877,2.78714 13.9417,2.75363 13.8863,2.7413 13.4793,2.67347 13.1935,2.28755 13.2595,1.87983 Z"
       fill="#1c274c"
       id="path2"
       style="fill:#000000;fill-opacity:1;stroke:none;stroke-width:0.999981;stroke-dasharray:none" /><path
       fill-rule="evenodd"
       clip-rule="evenodd"
       d="m 13.4857,5.3293 c 0.1138,-0.39828 0.5289,-0.6289 0.9272,-0.51511 l -0.206,0.72115 c 0.206,-0.72115 0.206,-0.72115 0.206,-0.72115 l 0.0015,4.2e-4 0.0015,4.4e-4 0.0033,9.7e-4 0.0078,0.00232 0.0198,0.00616 c 0.015,0.00482 0.0339,0.0111 0.0563,0.01907 0.0449,0.01594 0.1043,0.0386 0.1771,0.0698 0.1457,0.06244 0.3447,0.15886 0.5893,0.30357 0.4894,0.28968 1.1576,0.77086 1.9426,1.55583 0.785,0.78498 1.2661,1.45316 1.5558,1.94263 0.1447,0.24451 0.2411,0.44357 0.3036,0.58926 0.0312,0.0728 0.0539,0.13216 0.0698,0.17707 0.008,0.02245 0.0142,0.04128 0.0191,0.05636 l 0.0061,0.01979 0.0023,0.00775 10e-4,0.00333 4e-4,0.00154 c 0,0 5e-4,0.00144 -0.7207,0.20748 l 0.7212,-0.20604 c 0.1138,0.39827 -0.1169,0.81336 -0.5151,0.92716 -0.3949,0.1128 -0.8064,-0.1129 -0.9243,-0.50497 L 17.7276,9.98335 C 17.7223,9.96832 17.7113,9.93874 17.6928,9.89554 17.6558,9.8092 17.5887,9.66797 17.4771,9.47938 17.2541,9.10264 16.8514,8.53339 16.1514,7.83343 15.4515,7.13348 14.8822,6.73078 14.5055,6.50781 14.3169,6.39619 14.1757,6.32909 14.0893,6.29209 14.0461,6.27358 14.0165,6.26254 14.0015,6.25721 L 13.9907,6.25352 C 13.5987,6.13564 13.3729,5.72419 13.4857,5.3293 Z"
       fill="#1c274c"
       id="path3"
       style="fill:#000000;fill-opacity:1;stroke:none;stroke-width:0.999981;stroke-dasharray:none" /></g></svg>
