<?xml version="1.0" encoding="UTF-8" standalone="no"?>
<svg
   viewBox="332.0005 56.4348 202.658 245.0855"
   width="202.658px"
   height="245.085px"
   preserveAspectRatio="none"
   version="1.1"
   id="svg1"
   sodipodi:docname="planting seeds.svg"
   xml:space="preserve"
   inkscape:version="1.4.2 (ebf0e940, 2025-05-08)"
   xmlns:inkscape="http://www.inkscape.org/namespaces/inkscape"
   xmlns:sodipodi="http://sodipodi.sourceforge.net/DTD/sodipodi-0.dtd"
   xmlns="http://www.w3.org/2000/svg"
   xmlns:svg="http://www.w3.org/2000/svg"><defs
     id="defs1" /><sodipodi:namedview
     id="namedview1"
     pagecolor="#ffffff"
     bordercolor="#000000"
     borderopacity="0.25"
     inkscape:showpageshadow="2"
     inkscape:pageopacity="0.0"
     inkscape:pagecheckerboard="0"
     inkscape:deskcolor="#d1d1d1"
     inkscape:zoom="2.09004"
     inkscape:cx="21.769918"
     inkscape:cy="111.95958"
     inkscape:window-width="1712"
     inkscape:window-height="971"
     inkscape:window-x="0"
     inkscape:window-y="39"
     inkscape:window-maximized="1"
     inkscape:current-layer="svg1" /><g
     style="fill:#000000;fill-opacity:1"
     id="g1"
     transform="matrix(0.40501008,0,0,0.40501091,343.23492,101.65457)"><g
       id="g5"
       style="fill:#000000;fill-opacity:1">
	<path
   d="m 215.27188,214.67205 c 0.13067,-3.60415 -37.19099,-31.83505 -70.57388,0.50195 35.95308,34.07937 70.52226,0.92203 70.57388,-0.50195 z"
   id="path1"
   sodipodi:nodetypes="scs"
   style="fill:#000000;fill-opacity:1" /><path
   d="m 208.26324,216.77107 c 0.13067,-3.60415 -37.19099,-31.83505 -70.57388,0.50195 35.95308,34.07937 70.52226,0.92203 70.57388,-0.50195 z"
   id="path1-1"
   sodipodi:nodetypes="scs"
   style="fill:#000000;fill-opacity:1" /><path
   d="m 188.11968,279.0391 c -2.3148,-2.76562 -48.93998,1.23222 -52.10624,47.6011 49.52202,1.26391 53.02081,-46.50842 52.10624,-47.6011 z"
   id="path1-4"
   sodipodi:nodetypes="scs"
   style="fill:#000000;fill-opacity:1"
   inkscape:transform-center-x="32.497382"
   inkscape:transform-center-y="5.7521426" /><path
   d="m 209.814,75.144 c -3.95,-4.004 -9.17,-6.008 -14.405,-6.008 -5.184,0 -10.381,1.965 -14.376,5.9 -1.492,1.468 -2.705,3.104 -3.652,4.847 -0.903,-1.755 -2.088,-3.397 -3.547,-4.871 -3.949,-4.004 -9.169,-6.008 -14.404,-6.008 -5.184,0 -10.383,1.965 -14.38,5.899 -8.027,7.91 -8.162,20.781 -0.298,28.746 1.453,1.478 3.085,2.683 4.828,3.613 -1.761,0.922 -3.416,2.112 -4.9,3.578 -8.037,7.906 -8.172,20.779 -0.304,28.742 3.949,4.004 9.169,6.008 14.405,6.008 5.184,0 10.383,-1.965 14.38,-5.9 1.488,-1.466 2.702,-3.102 3.648,-4.847 0.911,1.755 2.088,3.4 3.545,4.878 3.95,4.002 9.169,6.005 14.402,6.005 5.185,0 10.384,-1.965 14.378,-5.9 8.035,-7.91 8.172,-20.776 0.304,-28.748 -1.453,-1.48 -3.087,-2.677 -4.83,-3.609 1.761,-0.924 3.418,-2.112 4.906,-3.58 8.027,-7.907 8.165,-20.776 0.3,-28.745 z m -14.629,50.311 c -4.843,4.843 -11.281,7.511 -18.128,7.511 -6.833,0 -13.254,-2.659 -18.08,-7.484 -4.839,-4.837 -7.499,-11.272 -7.49,-18.12 0.01,-6.833 2.677,-13.259 7.512,-18.094 4.845,-4.845 11.283,-7.513 18.129,-7.513 6.833,0 13.256,2.66 18.081,7.487 4.84,4.838 7.499,11.273 7.489,18.12 -0.009,6.832 -2.678,13.257 -7.513,18.093 z"
   id="path9"
   style="fill:#000000;fill-opacity:1"
   transform="matrix(1.041866,0,0,1.041866,144.05103,-19.299867)" /><path
   d="m 177.129,94.368 c -3.331,0 -6.665,1.273 -9.211,3.819 -5.081,5.081 -5.093,13.308 -0.025,18.375 2.529,2.529 5.844,3.792 9.163,3.792 3.331,0 6.666,-1.273 9.209,-3.817 5.083,-5.083 5.095,-13.308 0.027,-18.375 -2.528,-2.53 -5.844,-3.794 -9.163,-3.794 z"
   id="path10"
   style="fill:#000000;fill-opacity:1"
   transform="matrix(1.041866,0,0,1.041866,144.05103,-19.299867)" /><path
   d="m 59.151,119.97 c -0.83,-1.627 -1.376,-3.357 -1.65,-5.121 l -7.953,7.952 c -3.084,3.083 -3.831,7.804 -1.848,11.688 22.928,44.927 57.335,79.333 102.263,102.263 1.45,0.74 3.016,1.099 4.571,1.099 2.61,0 5.185,-1.014 7.118,-2.947 l 7.949,-7.948 c -1.778,-0.281 -3.514,-0.835 -5.117,-1.654 C 118.21,201.682 82.771,166.243 59.151,119.97 Z"
   id="path11"
   sodipodi:nodetypes="ccccsscccc"
   style="fill:#000000;fill-opacity:1"
   transform="matrix(1.041866,0,0,1.041866,144.05103,-19.299867)" /><path
   d="M 284.112,103.958 C 260.878,58.437 226.016,23.575 180.495,0.343 180.045,0.113 179.554,0 179.063,0 c -0.589,0 -1.177,0.163 -1.689,0.488 -50.292,31.825 -75.33,56.862 -107.158,107.157 -0.592,0.937 -0.648,2.133 -0.144,3.12 23.235,45.518 58.097,80.38 103.617,103.617 0.984,0.502 2.189,0.445 3.122,-0.146 50.292,-31.824 75.329,-56.861 107.156,-107.158 0.594,-0.937 0.649,-2.133 0.145,-3.12 z m -56.249,21.535 c -0.063,8.827 -3.572,17.109 -9.878,23.316 -6.237,6.143 -14.487,9.527 -23.229,9.527 -6.532,0 -12.759,-1.882 -18.071,-5.391 -5.297,3.42 -11.468,5.255 -17.905,5.255 -8.869,0 -17.173,-3.468 -23.376,-9.756 -6.159,-6.233 -9.516,-14.499 -9.454,-23.276 0.046,-6.522 1.973,-12.745 5.513,-18.047 -3.408,-5.318 -5.201,-11.52 -5.134,-17.999 0.091,-8.784 3.596,-17.024 9.872,-23.209 6.239,-6.142 14.488,-9.524 23.228,-9.524 6.538,0 12.769,1.885 18.074,5.39 5.297,-3.422 11.468,-5.257 17.906,-5.257 8.868,0 17.172,3.468 23.382,9.762 6.182,6.265 9.536,14.571 9.444,23.387 -0.068,6.476 -1.991,12.657 -5.509,17.931 3.39,5.29 5.183,11.454 5.137,17.891 z"
   id="path12"
   sodipodi:nodetypes="ccscccccccscscscccccscscccs"
   style="fill:#000000;fill-opacity:1"
   transform="matrix(1.041866,0,0,1.041866,144.05103,-19.299867)" /><path
   d="m 222.92399,292.67723 c 1.90797,3.0605 48.63629,5.58136 58.2161,-39.89749 -48.86576,-8.13415 -58.96994,38.68831 -58.2161,39.89749 z"
   id="path1-8"
   sodipodi:nodetypes="scs"
   style="fill:#000000;fill-opacity:1" /><path
   d="m 266.03601,364.34556 c 1.34917,-3.34466 -24.1403,-42.58974 -66.53398,-23.54046 22.21263,44.27896 66.00094,24.86191 66.53398,23.54046 z"
   id="path1-6"
   sodipodi:nodetypes="scs"
   style="fill:#000000;fill-opacity:1" />
	
	
	
	<path
   d="m 435.669,322.332 h -91.692 c -8.284,0 -15,6.716 -15,15 0,34.267 -47.462,33.92251 -103.642,33.92251 -56.18,0 -103.643,0.34449 -103.643,-33.92251 0,-8.284 -6.716,-15 -15,-15 H 15 c -8.284,0 -15,6.716 -15,15 v 95.242 c 0,8.284 6.716,15 15,15 h 420.669 c 8.284,0 15,-6.716 15,-15 v -95.242 c 0,-8.284 -6.715,-15 -15,-15 z"
   id="path5"
   sodipodi:nodetypes="ssssssssssssss"
   style="fill:#000000;fill-opacity:1" />
</g></g></svg>
