<?xml version="1.0" encoding="UTF-8" standalone="no"?>
<svg
   viewBox="332.0005 56.4348 112.33676 118.76901"
   width="112.33676"
   height="118.76877"
   preserveAspectRatio="none"
   version="1.1"
   id="svg1"
   sodipodi:docname="playing cards.svg"
   xml:space="preserve"
   inkscape:version="1.4.2 (ebf0e940, 2025-05-08)"
   xmlns:inkscape="http://www.inkscape.org/namespaces/inkscape"
   xmlns:sodipodi="http://sodipodi.sourceforge.net/DTD/sodipodi-0.dtd"
   xmlns="http://www.w3.org/2000/svg"
   xmlns:svg="http://www.w3.org/2000/svg"><defs
     id="defs1" /><sodipodi:namedview
     id="namedview1"
     pagecolor="#ffffff"
     bordercolor="#000000"
     borderopacity="0.25"
     inkscape:showpageshadow="2"
     inkscape:pageopacity="0.0"
     inkscape:pagecheckerboard="0"
     inkscape:deskcolor="#d1d1d1"
     inkscape:zoom="0.67355943"
     inkscape:cx="119.51432"
     inkscape:cy="83.882724"
     inkscape:window-width="896"
     inkscape:window-height="204"
     inkscape:window-x="0"
     inkscape:window-y="39"
     inkscape:window-maximized="0"
     inkscape:current-layer="svg1" /><style
     type="text/css"
     id="style1">
	.st0{fill:#000000;}
</style><g
     id="g6"
     transform="matrix(0.23197043,0,0,0.23197089,328.78446,56.4348)"
     style="fill:#000000;fill-opacity:1">
	<path
   class="st0"
   d="M 474.658,121.941 304.895,60.196 v 18.563 l 163.783,59.66 c 1.884,0.671 3.493,1.616 4.979,2.764 0.734,0.536 1.475,1.207 2.082,1.877 4.503,4.783 6.186,11.911 3.832,18.571 L 362.74,482.528 c -3.426,9.408 -13.859,14.257 -23.271,10.824 L 132.982,418.22 c -3.095,-1.14 -5.717,-3.024 -7.669,-5.445 h -19.774 c 3.364,9.818 10.961,18.027 21.453,21.863 l 206.488,75.19 c 13.118,4.775 27.108,1.416 36.59,-7.531 1.349,-1.214 2.559,-2.556 3.699,-4.038 2.22,-2.89 4.108,-6.123 5.382,-9.75 L 495.982,167.611 c 6.726,-18.496 -2.827,-38.943 -21.324,-45.67 z"
   id="path1"
   style="fill:#000000;fill-opacity:1" />
	<path
   class="st0"
   d="m 413.483,209.766 0.69,-0.455 c 4.898,-6.13 23.565,-18.831 29.483,-20.842 l 0.342,-0.275 -0.086,-0.417 c -3.236,-5.356 -9.386,-27.07 -9.188,-34.921 l -0.235,-0.797 -0.703,0.454 c -4.902,6.138 -23.57,18.823 -29.48,20.85 l -0.346,0.26 0.089,0.425 c 3.24,5.356 9.382,27.077 9.184,34.928 z"
   id="path2"
   style="fill:#000000;fill-opacity:1" />
	<path
   class="st0"
   d="m 304.88,377.116 v -53.41 c 0.004,0.008 0.011,0.015 0.011,0.015 l 0.004,-2.555 c 1.009,-0.745 1.952,-1.415 2.961,-2.153 0.67,-0.469 1.348,-0.939 2.019,-1.416 14.462,-10.22 29.532,-19.3 36.657,-21.721 l 0.808,-0.603 -0.205,-1.013 c -2.618,-4.298 -6.049,-13.178 -9.345,-23.74 -0.607,-1.877 -1.211,-3.829 -1.822,-5.855 -3.158,-10.757 -6.116,-22.526 -8,-32.687 -1.282,-6.786 -2.09,-12.909 -2.153,-17.349 v -2.093 c -0.067,-0.67 -0.134,-1.14 -0.54,-1.274 -0.465,-0.134 -0.808,0.134 -1.274,0.67 -0.071,0.142 -0.205,0.269 -0.343,0.41 -0.197,0.194 -0.398,0.462 -0.603,0.738 -2.957,3.434 -7.598,7.8 -13.181,12.306 -1.616,1.348 -3.225,2.696 -4.98,4.038 v 87.772 c 0,0 -0.011,-0.008 -0.015,-0.014 v -98.127 c 0.004,0.008 0.011,0.008 0.015,0.014 v -7.33 c 0,0 -0.011,0.008 -0.015,0.008 V 35.636 C 304.869,15.948 288.932,0.008 269.24,0 H 49.504 C 29.813,0.008 13.879,15.948 13.864,35.636 v 341.48 c 0.014,19.688 15.948,35.629 35.64,35.636 H 269.24 c 19.692,-0.007 35.629,-15.948 35.64,-35.636 z m -273.529,0 V 35.636 C 31.377,25.617 39.481,17.505 49.504,17.483 H 269.24 c 10.026,0.022 18.131,8.134 18.157,18.153 v 341.48 c -0.026,10.018 -8.13,18.13 -18.157,18.146 H 49.504 C 39.481,395.247 31.377,387.135 31.351,377.116 Z"
   id="path3"
   style="fill:#000000;fill-opacity:1" />
	<path
   class="st0"
   d="m 206.21,153.175 c -17.39,-13.825 -41.692,-4.142 -46.843,15.189 -5.125,-19.33 -29.427,-29.014 -46.821,-15.189 -16.656,13.252 -15.315,39.644 0.998,60.792 15.069,19.554 38.623,38.392 44.97,51.466 l 0.853,0.648 0.879,-0.648 c 6.332,-13.074 29.886,-31.912 44.966,-51.466 16.306,-21.148 17.643,-47.54 0.998,-60.792 z"
   id="path4"
   style="fill:#000000;fill-opacity:1" />
	<path
   class="st0"
   d="M 100.225,48.635 C 92.329,42.37 81.323,46.758 78.995,55.517 76.671,46.757 65.661,42.37 57.779,48.635 50.237,54.639 50.829,66.587 58.226,76.174 65.058,85.046 75.74,93.575 78.6,99.49 l 0.395,0.298 0.394,-0.298 c 2.876,-5.915 13.543,-14.444 20.377,-23.316 7.393,-9.587 8,-21.535 0.459,-27.539 z"
   id="path5"
   style="fill:#000000;fill-opacity:1" />
	<path
   class="st0"
   d="m 239.749,334.194 c -2.324,-8.752 -13.334,-13.14 -21.215,-6.882 -7.542,6.012 -6.95,17.96 0.447,27.546 6.831,8.872 17.498,17.394 20.373,23.315 l 0.395,0.298 0.395,-0.298 c 2.875,-5.922 13.542,-14.443 20.373,-23.315 7.397,-9.587 8,-21.535 0.462,-27.546 -7.896,-6.257 -18.906,-1.87 -21.23,6.882 z"
   id="path6"
   style="fill:#000000;fill-opacity:1" />
</g></svg>
