<?xml version="1.0" encoding="UTF-8" standalone="no"?>
<svg
   viewBox="235.6885 62.8463 198.23018 104.0384"
   width="198.23018"
   height="104.03823"
   preserveAspectRatio="none"
   version="1.1"
   id="svg1"
   sodipodi:docname="police.svg"
   xml:space="preserve"
   inkscape:version="1.4.2 (ebf0e940, 2025-05-08)"
   xmlns:inkscape="http://www.inkscape.org/namespaces/inkscape"
   xmlns:sodipodi="http://sodipodi.sourceforge.net/DTD/sodipodi-0.dtd"
   xmlns="http://www.w3.org/2000/svg"
   xmlns:svg="http://www.w3.org/2000/svg"><defs
     id="defs1" /><sodipodi:namedview
     id="namedview1"
     pagecolor="#ffffff"
     bordercolor="#000000"
     borderopacity="0.25"
     inkscape:showpageshadow="2"
     inkscape:pageopacity="0.0"
     inkscape:pagecheckerboard="0"
     inkscape:deskcolor="#d1d1d1"
     inkscape:zoom="1.5143276"
     inkscape:cx="63.064295"
     inkscape:cy="52.828729"
     inkscape:window-width="1712"
     inkscape:window-height="971"
     inkscape:window-x="0"
     inkscape:window-y="39"
     inkscape:window-maximized="1"
     inkscape:current-layer="g7" /><style
     type="text/css"
     id="style1">
<![CDATA[
	.st0{fill:#000000;}
]]>
</style><g
     id="g7"
     transform="matrix(0.38783013,0,0,0.38783078,237.34894,14.0976)"
     style="fill:#7a7978;fill-opacity:1">
	<path
   class="st0"
   d="m 147.401,304.609 c -24.672,0 -44.672,19.984 -44.672,44.688 0.016,24.656 19.984,44.641 44.672,44.656 24.703,-0.016 44.672,-20 44.688,-44.656 0,-12.328 -5.016,-23.547 -13.094,-31.609 -8.047,-8.063 -19.297,-13.094 -31.594,-13.079 z m 0,68.625 c -13.234,-0.031 -23.922,-10.734 -23.953,-23.938 0.031,-13.266 10.719,-23.938 23.953,-23.953 13.25,0 23.953,10.688 23.953,23.953 -0.015,13.204 -10.718,23.907 -23.953,23.938 z"
   id="path1"
   style="fill:#000000;fill-opacity:1" />
	<path
   class="st0"
   d="m 388.761,304.609 c -24.656,0 -44.672,19.969 -44.672,44.688 0,24.656 20,44.641 44.672,44.656 24.688,-0.016 44.656,-20 44.672,-44.656 0,-24.703 -20,-44.688 -44.672,-44.688 z m 0,68.625 c -13.219,-0.031 -23.938,-10.75 -23.953,-23.938 0.016,-13.25 10.719,-23.938 23.953,-23.953 13.25,0.016 23.922,10.688 23.938,23.953 -0.016,13.204 -10.704,23.907 -23.938,23.938 z"
   id="path2"
   style="fill:#000000;fill-opacity:1" />
	
	
	<path
   class="st0"
   d="m 257.6166,129.9768 c -0.109,-2.391 -2.594,-4.281 -5.625,-4.281 h -19.406 c -3.016,0 -5.516,1.891 -5.625,4.281 l -1.203,26.141 h 33.078 z"
   id="path5"
   style="fill:#000000;fill-opacity:1" />
	<rect
   x="221.44466"
   y="162.86774"
   class="st0"
   width="41.688"
   height="9.6879997"
   id="rect5"
   style="fill:#000000;fill-opacity:1" />
	<path
   class="st0"
   d="m 502.9631,250.172 c -3.125,-3.719 -7.766,-5.891 -12.656,-5.891 H 424.48 l -35.953,-62.563 c -3.703,-6.406 -10.531,-10.375 -17.938,-10.375 H 195.011 c -6.359,0 -12.359,2.938 -16.281,7.938 l -54.93879,57.063 c -3.922,5.016 -9.922,7.938 -16.281,7.938 H 57.797176 c -4.859,0 -9.453,2.141 -12.609,5.828 -3.125,3.688 -48.429764,80.25 -48.429764,80.25 -5.247076,7.3164 10.5939999,15.547 20.063,15.547 L 92.73,345.782 c 1.844,-28.688 25.531,-51.531 54.672,-51.531 14.734,0 28.547,5.734 38.938,16.109 9.5,9.469 14.844,21.891 15.734,35.188 l 132.063,-0.344 c 2.141,-28.406 25.688,-50.953 54.625,-50.953 28.859,0 52.344,22.406 54.594,50.703 l 41.109,-0.094 c 10.547,-0.016 19.359,-7.953 20.516,-18.438 l 1.6091,-62.75 c 0.857,-4.797 -0.471,-9.75 -3.627,-13.5 z M 63.214,289.359 H 38.885897 L 53.185485,264.062 H 63.214 Z m 80.65521,-41.687 52.17279,-53.531 h 71.49831 v 53.531 z m 181.83058,83.125 H 209.54121 V 267.578 H 325.69979 Z M 294.74331,247.672 V 194.141 H 369.37 l 30.75,53.531 z"
   id="path6"
   style="fill:#000000;fill-opacity:1"
   sodipodi:nodetypes="csccssccssccccscccsccccccccccccccccccccccccc" />
	<path
   class="st0"
   d="m 256.073,304.141 c 0.797,0.781 1.172,1.906 0.984,3.016 l -1.297,7.547 c -0.219,1.266 0.313,2.563 1.359,3.328 1.046,0.765 2.438,0.859 3.578,0.25 l 6.781,-3.547 c 0.984,-0.516 2.172,-0.516 3.172,0 l 6.766,3.547 c 1.141,0.609 2.547,0.516 3.594,-0.25 1.047,-0.766 1.563,-2.063 1.359,-3.328 l -1.297,-7.547 c -0.188,-1.109 0.172,-2.234 0.969,-3.016 l 5.484,-5.328 c 0.922,-0.906 1.266,-2.266 0.859,-3.5 -0.407,-1.234 -1.469,-2.125 -2.75,-2.313 l -7.563,-1.109 c -1.109,-0.156 -2.078,-0.859 -2.578,-1.859 l -3.375,-6.859 c -0.578,-1.172 -1.766,-1.906 -3.063,-1.906 -1.297,0 -2.484,0.734 -3.047,1.906 l -3.391,6.859 c -0.5,1 -1.453,1.703 -2.563,1.859 L 252.479,293 c -1.281,0.188 -2.344,1.078 -2.75,2.313 -0.391,1.234 -0.063,2.594 0.859,3.5 z"
   id="path7"
   style="fill:#000000;fill-opacity:1" />
</g></svg>
