<?xml version="1.0" encoding="UTF-8" standalone="no"?>
<svg
   viewBox="235.6885 62.8463 133.21035 140.22933"
   width="133.21034"
   height="140.2291"
   preserveAspectRatio="none"
   version="1.1"
   id="svg1"
   sodipodi:docname="rain cloud.svg"
   xml:space="preserve"
   inkscape:version="1.4.2 (ebf0e940, 2025-05-08)"
   xmlns:inkscape="http://www.inkscape.org/namespaces/inkscape"
   xmlns:sodipodi="http://sodipodi.sourceforge.net/DTD/sodipodi-0.dtd"
   xmlns="http://www.w3.org/2000/svg"
   xmlns:svg="http://www.w3.org/2000/svg"><defs
     id="defs1" /><sodipodi:namedview
     id="namedview1"
     pagecolor="#ffffff"
     bordercolor="#000000"
     borderopacity="0.25"
     inkscape:showpageshadow="2"
     inkscape:pageopacity="0.0"
     inkscape:pagecheckerboard="0"
     inkscape:deskcolor="#d1d1d1"
     inkscape:zoom="1.3598336"
     inkscape:cx="119.49992"
     inkscape:cy="68.758413"
     inkscape:window-width="896"
     inkscape:window-height="204"
     inkscape:window-x="0"
     inkscape:window-y="39"
     inkscape:window-maximized="0"
     inkscape:current-layer="svg1" /><g
     style="fill:#000000;fill-opacity:1"
     id="g1"
     transform="matrix(7.3913493,0,0,7.3913613,213.6805,40.465188)"><path
       d="m 21,9 a 4,4 0 0 1 -4,4 H 6 A 3,3 0 1 1 7.08,7.21 5,5 0 0 1 16.08,5.12 4.08,4.08 0 0 1 17,5 4,4 0 0 1 21,9 Z m -4.11,12.45 2,-4 a 1,1 0 1 0 -1.78,-0.9 l -2,4 A 1,1 0 0 0 15.55,21.89 0.93,0.93 0 0 0 16,22 1,1 0 0 0 16.89,21.45 Z m -8,0 2,-4 a 1,1 0 1 0 -1.78,-0.9 l -2,4 A 1,1 0 0 0 7.55,21.89 0.93,0.93 0 0 0 8,22 1,1 0 0 0 8.89,21.45 Z m 5,-2 1,-2 a 1,1 0 1 0 -1.78,-0.9 l -1,2 A 1,1 0 0 0 12.55,19.89 0.93,0.93 0 0 0 13,20 1,1 0 0 0 13.89,19.45 Z m -8,0 1,-2 a 1,1 0 0 0 -1.78,-0.9 l -1,2 A 1,1 0 0 0 4.55,19.89 0.93,0.93 0 0 0 5,20 1,1 0 0 0 5.89,19.45 Z"
       id="path1"
       style="fill:#000000;fill-opacity:1" /></g></svg>
