<?xml version="1.0" encoding="UTF-8" standalone="no"?>
<svg
   viewBox="64.7603 119.2216 191.66493 174.24259"
   width="191.66472"
   height="174.24231"
   preserveAspectRatio="none"
   version="1.1"
   id="svg1"
   sodipodi:docname="sick.svg"
   inkscape:version="1.4.2 (ebf0e940, 2025-05-08)"
   xml:space="preserve"
   xmlns:inkscape="http://www.inkscape.org/namespaces/inkscape"
   xmlns:sodipodi="http://sodipodi.sourceforge.net/DTD/sodipodi-0.dtd"
   xmlns="http://www.w3.org/2000/svg"
   xmlns:svg="http://www.w3.org/2000/svg"><defs
     id="defs1" /><sodipodi:namedview
     id="namedview1"
     pagecolor="#ffffff"
     bordercolor="#000000"
     borderopacity="0.25"
     inkscape:showpageshadow="2"
     inkscape:pageopacity="0.0"
     inkscape:pagecheckerboard="0"
     inkscape:deskcolor="#d1d1d1"
     showgrid="false"
     inkscape:zoom="1.7997578"
     inkscape:cx="104.18068"
     inkscape:cy="-9.7235306"
     inkscape:window-width="896"
     inkscape:window-height="204"
     inkscape:window-x="0"
     inkscape:window-y="39"
     inkscape:window-maximized="0"
     inkscape:current-layer="svg1" /><g
     style="fill:#000000"
     id="g1"
     transform="matrix(2.6639194,0,0,2.6639194,10.049459,59.496527)"><path
       d="m 66.39,73.9 c -0.338667,0.0016 -0.662668,0.138399 -0.9,0.38 -6.8048,7.138004 -18.1952,7.138004 -25,0 -0.237332,-0.241601 -0.561333,-0.378402 -0.9,-0.38 -7.3,0 -12.33,1.74 -14.94,5.16 -1.666375,2.251894 -2.258759,5.122397 -1.62,7.85 0.175224,0.668176 0.866183,1.061074 1.53,0.87 0.664797,-0.180409 1.058345,-0.864647 0.88,-1.53 21.976885,-0.774961 35.104766,-0.771364 55.07,0 -0.179571,0.664828 0.207885,1.35067 0.87,1.54 0.112859,0.01466 0.227141,0.01466 0.34,0 0.561163,-0.0025 1.051857,-0.378738 1.2,-0.92 0.638759,-2.727603 0.04637,-5.598106 -1.62,-7.85 C 78.72,75.64 73.69,73.9 66.39,73.9 Z"
       id="path1"
       sodipodi:nodetypes="cccccccccccccc"
       style="fill:#000000;fill-opacity:1" /><path
       d="m 32.13,52.1 a 1.9,1.9 0 0 0 0,-0.25 V 33.54 a 1.5,1.5 0 1 0 -3,0 v 18.31 a 2,2 0 0 0 0,0.25 4.9,4.9 0 1 0 3,0 z"
       id="path9"
       style="fill:#000000;fill-opacity:1" /><path
       d="m 73.92,42.51 v 0 C 71.83,30.63 63.35,22.42 53,22.42 c -6.51,0 -12.56,3.46 -16.54,9.22 -1.991951,-6.719196 -11.901882,-5.25817 -11.87,1.75 v 15.26 c -4.382857,3.280701 -5.358005,9.454028 -2.199772,13.925935 3.158234,4.471907 9.30223,5.617419 13.859772,2.584065 4.09,6.77 10.27,10.76 16.75,10.76 10,0 18.81,-9.46 20.92,-22.17 2.634219,-0.560447 4.488023,-2.92826 4.4,-5.62 3.16e-4,-1.234762 -0.380328,-2.439553 -1.09,-3.45 -0.284528,-1.096736 -1.400486,-1.440648 -3.31,-2.17 z M 23,56.74 c 6.13e-4,-2.582501 1.310901,-4.988459 3.48,-6.39 0.354406,-0.231947 0.568561,-0.626442 0.57,-1.05 V 33.39 c -0.265533,-5.011835 7.395533,-5.011835 7.13,0 V 49.3 c 0.0014,0.423558 0.215594,0.818053 0.57,1.05 3.648232,2.353521 4.586986,7.279703 2.06,10.81 v 0.05 c -0.14,0.19 -0.29,0.38 -0.44,0.56 l -0.07,0.07 c -0.149852,0.169836 -0.310164,0.330148 -0.48,0.48 C 30.954248,66.918551 22.950257,63.434755 23,56.74 Z m 19.6,12.31 2.11,-8.38 C 45.704031,59.641349 32.974244,45.493624 34.249018,44.898616 c 1.274775,-0.595008 10.693058,14.316386 12.119928,14.215069 0.31802,-0.01999 6.497564,-1.983675 6.816054,-1.983675 0.31849,0 6.652761,1.743804 6.97078,1.763799 1.42547,0.101126 11.853313,-16.70953 13.126461,-16.11449 C 74.55539,43.374356 60.658063,59.641286 61.65,60.67 L 63.7,68.8 C 60.861768,71.661042 57.028687,73.316074 53,73.42 49.107707,73.32036 45.395266,71.760418 42.6,69.05 Z"
       id="path10"
       sodipodi:nodetypes="ssscccscscccscccccccccccccccscscscccc"
       style="fill:#000000;fill-opacity:1" /></g><g
     style="fill:#000000;fill-opacity:1"
     id="g2"
     transform="matrix(2.4160919,0,0,2.4160919,202.66723,204.31766)"><path
       style="baseline-shift:baseline;display:inline;overflow:visible;opacity:1;vector-effect:none;fill:#000000;fill-opacity:1;stroke-linecap:round;stroke-linejoin:round;enable-background:accumulate;stop-color:#000000;stop-opacity:1"
       d="m 12,1.75 c -0.414214,0 -0.75,0.3357864 -0.75,0.75 V 4.4023437 C 10.395049,4.4891352 9.5631838,4.633614 8.8125,4.9765625 L 7.9003906,3.3984375 C 7.6935593,3.0388782 7.2341419,2.9154919 6.875,3.1230469 6.5154407,3.3298782 6.3920544,3.7892956 6.5996094,4.1484375 l 0.9648437,1.671875 C 6.8822177,6.3118118 6.3118118,6.8822177 5.8203125,7.5644531 L 4.1484375,6.5996094 C 3.7892956,6.3920544 3.3298782,6.5154407 3.1230469,6.875 2.9154919,7.2341419 3.0388782,7.6935593 3.3984375,7.9003906 L 4.9765625,8.8125 C 4.633614,9.5631838 4.4891352,10.395049 4.4023437,11.25 H 2.5 c -0.4142136,0 -0.75,0.335786 -0.75,0.75 0,0.414214 0.3357864,0.75 0.75,0.75 h 1.9023437 c 0.086792,0.854952 0.2312703,1.686816 0.5742188,2.4375 l -1.578125,0.912109 C 3.038878,16.30644 2.9154916,16.765858 3.1230469,17.125 c 0.2068311,0.359559 0.6662485,0.482946 1.0253906,0.275391 l 1.671875,-0.964844 c 0.4914994,0.682235 1.0619052,1.252642 1.7441406,1.74414 l -0.9648437,1.671875 c -0.2075553,0.359142 -0.084169,0.81856 0.2753906,1.025391 0.3591421,0.207555 0.8185595,0.08417 1.0253906,-0.275391 L 8.8125,19.023437 c 0.7506838,0.342948 1.582549,0.487428 2.4375,0.574219 V 21.5 c 0,0.414214 0.335786,0.75 0.75,0.75 0.414214,0 0.75,-0.335786 0.75,-0.75 v -1.902344 c 0.854952,-0.08679 1.686816,-0.231271 2.4375,-0.574219 l 0.912109,1.578125 c 0.206831,0.35956 0.666249,0.482946 1.025391,0.275391 0.35956,-0.206831 0.482946,-0.666249 0.275391,-1.025391 l -0.964844,-1.671875 c 0.682235,-0.491498 1.252642,-1.061905 1.74414,-1.74414 l 1.671875,0.964844 c 0.359142,0.207555 0.81856,0.08417 1.025391,-0.275391 0.207555,-0.359142 0.08417,-0.81856 -0.275391,-1.025391 L 19.023437,15.1875 c 0.342948,-0.750684 0.487428,-1.582548 0.574219,-2.4375 H 21.5 c 0.414214,0 0.75,-0.335786 0.75,-0.75 0,-0.414214 -0.335786,-0.75 -0.75,-0.75 H 19.597656 C 19.510865,10.395049 19.366385,9.5631838 19.023437,8.8125 L 20.601562,7.9003906 C 20.961121,7.6935595 21.084508,7.2341421 20.876953,6.875 20.670122,6.5154405 20.210704,6.3920541 19.851562,6.5996094 L 18.179687,7.5644531 C 17.688189,6.8822177 17.117782,6.3118119 16.435547,5.8203125 l 0.964844,-1.671875 C 17.607946,3.7892954 17.484559,3.329878 17.125,3.1230469 16.765858,2.9154916 16.30644,3.038878 16.099609,3.3984375 L 15.1875,4.9765625 C 14.436816,4.633614 13.604952,4.4891353 12.75,4.4023437 V 2.5 C 12.75,2.0857864 12.414214,1.75 12,1.75 Z m 0,4 c 3.46067,0 6.25,2.7893396 6.25,6.25 0,3.460671 -2.789329,6.25 -6.25,6.25 C 8.5393396,18.25 5.75,15.46067 5.75,12 5.75,8.5393408 8.5393408,5.75 12,5.75 Z m 1,1.5 c -1.509919,0 -2.75,1.2401139 -2.75,2.75 0,1.509905 1.240095,2.75 2.75,2.75 1.509905,0 2.75,-1.240095 2.75,-2.75 0,-1.5098861 -1.240081,-2.75 -2.75,-2.75 z m -5,3 c -0.4142136,0 -0.75,0.335786 -0.75,0.75 v 0.0098 c 0,0.414214 0.3357864,0.75 0.75,0.75 0.4142136,0 0.75,-0.335786 0.75,-0.75 V 11 C 8.75,10.585786 8.4142136,10.25 8,10.25 Z m 2,3 c -0.9575998,0 -1.75,0.792377 -1.75,1.75 0,0.957623 0.7924002,1.75 1.75,1.75 0.957605,0 1.75,-0.792395 1.75,-1.75 0,-0.957605 -0.792395,-1.75 -1.75,-1.75 z m 5,1 c -0.414214,0 -0.75,0.335786 -0.75,0.75 v 0.0098 c 0,0.414214 0.335786,0.75 0.75,0.75 0.414214,0 0.75,-0.335786 0.75,-0.75 V 15 c 0,-0.414214 -0.335786,-0.75 -0.75,-0.75 z"
       id="path1-9"
       sodipodi:nodetypes="ssccccccccccccsssccccccccccccsssccccccccccccsssccccccccccccsssssssssssssssssssssssssssssss" /></g></svg>
