<?xml version="1.0" encoding="UTF-8" standalone="no"?>
<svg
   viewBox="332.0005 56.4348 137.02971 88.280009"
   width="137.02971"
   height="88.279831"
   preserveAspectRatio="none"
   version="1.1"
   id="svg1"
   sodipodi:docname="sleep.svg"
   xml:space="preserve"
   inkscape:version="1.4.2 (ebf0e940, 2025-05-08)"
   xmlns:inkscape="http://www.inkscape.org/namespaces/inkscape"
   xmlns:sodipodi="http://sodipodi.sourceforge.net/DTD/sodipodi-0.dtd"
   xmlns="http://www.w3.org/2000/svg"
   xmlns:svg="http://www.w3.org/2000/svg"><defs
     id="defs1" /><sodipodi:namedview
     id="namedview1"
     pagecolor="#ffffff"
     bordercolor="#000000"
     borderopacity="0.25"
     inkscape:showpageshadow="2"
     inkscape:pageopacity="0.0"
     inkscape:pagecheckerboard="0"
     inkscape:deskcolor="#d1d1d1"
     inkscape:zoom="0.78814998"
     inkscape:cx="175.72798"
     inkscape:cy="58.364526"
     inkscape:window-width="1712"
     inkscape:window-height="971"
     inkscape:window-x="0"
     inkscape:window-y="39"
     inkscape:window-maximized="1"
     inkscape:current-layer="svg1"
     showgrid="false" /><g
     style="fill:#000000"
     id="g7"
     transform="matrix(1.1278165,0,0,1.1278187,328.72983,52.008112)"><g
       id="g6">
	<g
   id="g5">
		<g
   id="g1">
			<circle
   cx="28.9"
   cy="23.200001"
   r="11.3"
   id="circle1" />
			<path
   d="M 28.9,23.2"
   id="path1" />
		</g>
		<g
   id="g2">
			<path
   d="m 53.4,20 h 45.4 c 6.7,0 10.6,4.3 10.6,10 v 16.4 h -56 z"
   id="path2" />
		</g>
		<g
   id="g3">
			<path
   d="m 41,25.9 v 9.8 H 23.6 c -8.4,0 -8.4,10.9 0,10.9 h 22.9 c 3.3,0 5.4,-2.7 5.4,-5.7 v -15 c 0,-8.2 -10.9,-8.2 -10.9,0 z"
   id="path3" />
		</g>
		<g
   id="g4">
			<path
   d="M 15.3,10.6 C 15.3,1.7 2.9,1.7 2.9,10.6 V 82.2 H 15.6 V 63.7 H 112 v 18.4 h 12.4 V 26.7 c 0,-9.4 -12.5,-9.4 -12.5,0 V 48.8 H 15.3 Z"
   id="path4" />
		</g>
	</g>
</g></g></svg>
