<?xml version="1.0" encoding="UTF-8" standalone="no"?>
<!-- Created with Inkscape (http://www.inkscape.org/) -->

<svg
   width="176.16797mm"
   height="185.00839mm"
   viewBox="0 0 176.16797 185.00839"
   version="1.1"
   id="svg1"
   xml:space="preserve"
   inkscape:version="1.4.2 (ebf0e940, 2025-05-08)"
   sodipodi:docname="snow.svg"
   xmlns:inkscape="http://www.inkscape.org/namespaces/inkscape"
   xmlns:sodipodi="http://sodipodi.sourceforge.net/DTD/sodipodi-0.dtd"
   xmlns="http://www.w3.org/2000/svg"
   xmlns:svg="http://www.w3.org/2000/svg"><sodipodi:namedview
     id="namedview1"
     pagecolor="#ffffff"
     bordercolor="#000000"
     borderopacity="0.25"
     inkscape:showpageshadow="2"
     inkscape:pageopacity="0.0"
     inkscape:pagecheckerboard="0"
     inkscape:deskcolor="#d1d1d1"
     inkscape:document-units="mm"
     inkscape:zoom="0.36077489"
     inkscape:cx="181.55366"
     inkscape:cy="432.4026"
     inkscape:window-width="1712"
     inkscape:window-height="971"
     inkscape:window-x="0"
     inkscape:window-y="39"
     inkscape:window-maximized="1"
     inkscape:current-layer="Snowflake" /><defs
     id="defs1" /><g
     inkscape:label="Layer 1"
     inkscape:groupmode="layer"
     id="layer1"
     transform="translate(-20.395185,-55.927057)"><g
       style="fill:#2eb81b;fill-opacity:1"
       id="g1"
       transform="matrix(0.41341146,0,0,0.41341146,2.6480583,42.596994)"><g
         id="Snowflake"
         style="fill:#2eb81b;fill-opacity:1"><polygon
           points="281.361,241.344 256,226.691 230.639,241.344 230.639,270.656 256,285.309 281.361,270.656 "
           id="polygon1"
           style="fill:#000000;fill-opacity:1" /><path
           d="m 452.5593,318.2155 -42.7353,11.4058 -28.5187,-16.496 41.2447,-11.0587 a 13.1319,13.1319 0 1 0 -6.8426,-25.3567 l -66.6914,17.8114 -1.8424,-1.05 v -74.9386 l 1.8424,-1.054 66.6909,17.8113 a 11.5536,11.5536 0 0 0 3.4191,0.527 13.2788,13.2788 0 0 0 12.7255,-9.8291 13.1119,13.1119 0 0 0 -9.302,-16.0589 l -41.2442,-11.0544 28.5187,-16.496 42.7353,11.4058 a 11.4575,11.4575 0 0 0 3.4234,0.437 13.1174,13.1174 0 0 0 3.3335,-25.7937 l -35.1857,-9.4777 9.3877,-35.2756 a 13.122807,13.122807 0 1 0 -25.3609,-6.757 l -11.4958,42.6453 -28.5187,16.496 11.0587,-41.24 a 13.1644,13.1644 0 1 0 -25.4467,-6.7569 l -17.9013,66.6008 -1.8424,1.0541 -64.8485,-37.3838 v -2.1937 l 48.79,-48.7895 a 13.153636,13.153636 0 0 0 -18.6041,-18.6 L 269.163,118.9352 V 85.9394 l 31.24,-31.24 a 13.153636,13.153636 0 1 0 -18.6041,-18.6 L 256,61.8981 230.2022,36.1 a 13.153636,13.153636 0 0 0 -18.6041,18.6 l 31.24,31.24 v 32.9962 L 212.6522,88.75 a 13.153636,13.153636 0 1 0 -18.6041,18.6 l 48.79,48.7895 v 2.1937 l -64.8484,37.3838 -1.8424,-1.0541 -17.9019,-66.6009 a 13.1643,13.1643 0 1 0 -25.4466,6.7569 l 11.0544,41.24 -6.23,-3.5948 -22.2888,-12.9012 -11.4058,-42.6453 a 13.1643,13.1643 0 0 0 -25.4466,6.757 l 9.388,35.2754 -35.1857,9.3877 a 13.1667,13.1667 0 0 0 3.3335,25.8837 11.475,11.475 0 0 0 3.4234,-0.437 l 42.731,-11.4058 22.2888,12.8968 6.23,3.5992 -41.24,11.0544 a 13.1086,13.1086 0 0 0 -9.302,16.0589 13.2787,13.2787 0 0 0 12.7255,9.8291 11.5536,11.5536 0 0 0 3.4191,-0.527 l 66.6909,-17.8114 1.8424,1.054 v 74.9389 l -1.8424,1.05 L 96.2934,276.62 a 13.2924,13.2924 0 0 0 -16.1446,9.392 13.1041,13.1041 0 0 0 9.302,16.0546 l 41.24,11.0587 -28.5187,16.496 -42.7311,-11.4058 a 13.122843,13.122843 0 0 0 -6.7569,25.361 L 87.87,353.05 78.4823,388.24 a 13.0879,13.0879 0 0 0 9.302,16.1447 11.43,11.43 0 0 0 3.4191,0.437 13.092,13.092 0 0 0 12.64,-9.739 l 11.4915,-42.6453 28.5187,-16.496 -11.0544,41.24 a 13.1067,13.1067 0 0 0 9.302,16.059 11.5608,11.5608 0 0 0 3.4235,0.527 13.2774,13.2774 0 0 0 12.7211,-9.8291 l 17.9014,-66.6008 1.8424,-1.0541 64.8484,37.3838 v 2.1937 l -48.79,48.79 a 13.153636,13.153636 0 1 0 18.6041,18.6 l 30.1854,-30.1855 v 32.9962 L 211.5981,457.3 a 13.153636,13.153636 0 1 0 18.6041,18.6 L 256,450.1019 l 25.798,25.798 a 13.1371,13.1371 0 0 0 18.6041,0 13.081,13.081 0 0 0 0,-18.6 l -31.24,-31.2395 v -32.996 l 30.186,30.1856 a 13.1371,13.1371 0 0 0 18.6041,0 13.081,13.081 0 0 0 0,-18.6 l -48.79,-48.79 v -2.1937 l 64.8485,-37.3838 1.8424,1.0541 17.9013,66.6008 a 13.27,13.27 0 0 0 12.7212,9.8291 15.36,15.36 0 0 0 3.4244,-0.4365 13.2453,13.2453 0 0 0 9.302,-16.1489 l -11.0587,-41.24 28.5187,16.496 11.4958,42.6453 a 13.0132,13.0132 0 0 0 12.6355,9.739 11.44,11.44 0 0 0 3.4234,-0.437 13.04,13.04 0 0 0 9.302,-16.059 l -9.3882,-35.2754 35.1857,-9.4734 a 13.122843,13.122843 0 0 0 -6.7569,-25.361 z M 307.6861,278.2867 a 12.9077,12.9077 0 0 1 -6.5813,11.32 l -38.5234,22.2888 a 13.2063,13.2063 0 0 1 -13.1625,0 l -38.5235,-22.2888 a 12.9078,12.9078 0 0 1 -6.5812,-11.32 V 233.709 a 13.1567,13.1567 0 0 1 6.5812,-11.4058 l 38.5235,-22.1988 a 13.0748,13.0748 0 0 1 13.1625,0 l 38.5234,22.1988 a 13.1566,13.1566 0 0 1 6.5813,11.4058 z"
           id="path1"
           style="fill:#000000;fill-opacity:1" /></g></g></g></svg>
