<?xml version="1.0" encoding="UTF-8" standalone="no"?>
<svg
   viewBox="248.9824 50.3667 199.4824 245.3324"
   width="199.482px"
   height="245.332px"
   preserveAspectRatio="none"
   version="1.1"
   id="svg1"
   sodipodi:docname="spade.svg"
   inkscape:version="1.4.2 (ebf0e940, 2025-05-08)"
   xmlns:inkscape="http://www.inkscape.org/namespaces/inkscape"
   xmlns:sodipodi="http://sodipodi.sourceforge.net/DTD/sodipodi-0.dtd"
   xmlns="http://www.w3.org/2000/svg"
   xmlns:svg="http://www.w3.org/2000/svg">
  <defs
     id="defs1" />
  <sodipodi:namedview
     id="namedview1"
     pagecolor="#ffffff"
     bordercolor="#000000"
     borderopacity="0.25"
     inkscape:showpageshadow="2"
     inkscape:pageopacity="0.0"
     inkscape:pagecheckerboard="0"
     inkscape:deskcolor="#d1d1d1"
     showgrid="false"
     inkscape:zoom="3.5987613"
     inkscape:cx="102.11847"
     inkscape:cy="169.91958"
     inkscape:window-width="896"
     inkscape:window-height="204"
     inkscape:window-x="0"
     inkscape:window-y="39"
     inkscape:window-maximized="0"
     inkscape:current-layer="svg1" />
  <path
     id="path1"
     style="fill:#000000;fill-opacity:1;stroke:none;stroke-width:0.900002"
     d="M 333.10169 195.55837 C 329.35964 201.32322 324.71285 207.82503 319.79308 210.68535 C 314.99358 213.47587 307.61781 214.67757 302.05281 215.0545 C 294.04771 215.59724 291.87995 212.70214 289.52935 205.64433 C 288.63321 202.95338 287.90637 199.92298 287.502 196.8865 A 62.311829 17.780077 0 0 0 253.87694 212.67168 A 62.311829 17.780077 0 0 0 316.1876 230.45101 A 62.311829 17.780077 0 0 0 378.50022 212.67168 A 62.311829 17.780077 0 0 0 333.10169 195.55837 z " />
  <path
     id="path2431"
     d="m 341.67389,142.81538 c -0.95516,-0.57454 -2.02392,-0.17969 -2.37134,0.87933 -0.52169,1.59273 -0.91439,3.61803 -0.40506,4.31501 0.0861,0.11802 1.10071,1.2631 2.28706,1.2631 1.28525,0 4.90644,-1.20187 4.8248,-2.64109 -0.0626,-1.09895 -2.37535,-2.63755 -4.33546,-3.81635 m 1.2826,-9.61762 c 3.18636,2.17659 6.69131,4.88645 9.83504,7.2791 1.04082,0.79237 2.3776,1.49734 3.2826,2.50888 5.13185,5.73561 -6.929,11.91976 -11.27064,13.28489 -1.67658,0.52752 -3.51025,0.95254 -5.28484,1.0395 -0.20992,0.0107 -0.40113,0.1189 -0.51287,0.29681 l -2.37535,3.78883 -13.05687,18.65448 c -0.10781,0.15351 -0.14241,0.3465 -0.095,0.52796 0.0409,0.15883 0.14201,0.29548 0.28128,0.38243 l 5.73919,3.56968 c 0.0241,0.0151 0.0482,0.0324 0.0698,0.0502 1.91836,1.58031 2.90861,2.31412 2.62195,5.08609 -0.15966,1.54438 -1.01376,2.2143 -1.73108,3.3372 -3.2822,5.1349 -8.1074,13.23875 -13.31246,16.26494 -3.8527,2.24003 -9.77202,3.2041 -14.23921,3.50667 -6.42593,0.43568 -8.16681,-1.88732 -10.0537,-7.55283 -1.28525,-3.85938 -2.13799,-8.58833 -1.8523,-12.66156 0.38603,-5.49825 3.23516,-7.99604 6.11937,-12.14779 1.86787,-2.68901 3.88954,-6.14733 5.989,-8.60785 4.06213,-4.7609 8.82255,1.54925 12.7019,3.50845 0.14289,0.0723 0.37536,0.22138 0.50492,0.13176 5.20537,-7.70146 10.56969,-15.33237 16.03331,-22.85016 0.11888,-0.16326 0.15043,-0.37178 0.0896,-0.56433 -0.73201,-2.33807 -0.92988,-4.94279 -0.82472,-7.39844 0.15131,-3.52664 1.26927,-8.84743 3.32297,-11.75516 0.41486,-0.5874 0.79816,-1.13133 1.5227,-1.378 2.60157,-0.88465 4.44367,0.29636 6.49553,1.69832"
     style="fill:#000000;fill-opacity:1;fill-rule:nonzero;stroke:none;stroke-width:0.443658"
     clip-path="url(#clipPath2432)" />
  <path
     style="fill:#000000;fill-opacity:1;stroke:none;stroke-width:1.02094"
     d="m 369.67123,193.53294 c 8.60468,-0.14945 17.48605,-1.53262 25.74035,1.71457 10.2881,2.49005 21.18131,1.5248 31.22568,-1.58402 4.2224,-4.49163 13.02415,-3.1943 15.16132,-9.55518 1.20396,-8.42008 -8.86538,-10.3339 -14.36555,-13.63519 -8.09274,-2.22725 -11.57423,-9.68828 -15.46636,-16.21383 -4.68885,-4.5832 -13.32948,-3.21562 -17.87695,1.0455 -4.947,6.8853 -10.40696,13.54246 -14.50303,21.02685 -0.93929,7.26727 -10.38818,7.80901 -13.20296,13.32781 l -0.0709,0.28481"
     id="path3" />
  <path
     style="fill:#000000;fill-opacity:1;stroke:none;stroke-width:0.371341"
     d="m 354.1239,186.57934 c 3.11888,-0.0572 6.37641,-0.55314 9.36239,0.62363 1.07638,-0.6338 1.94824,-1.58477 3.12484,-2.06375 0.94016,-0.35058 1.74793,-0.83942 2.44596,-1.56203 1.03679,-0.79053 2.38106,-1.0999 3.38548,-1.91703 0.814,-1.10026 2.08056,-1.68184 3.17051,-2.44564 0.55648,-1.04874 -1.26082,-1.11282 -1.8582,-1.59762 -2.03055,-1.18353 -3.08573,-3.38057 -4.2471,-5.32235 -1.69297,-1.57582 -4.44245,-1.21474 -6.17542,0.10229 -0.74914,0.67603 -1.23045,1.60316 -1.87414,2.37989 -1.32928,1.78745 -2.65627,3.58829 -3.72783,5.54609 -0.17149,1.57995 -1.68752,2.40615 -2.92295,3.12865 -0.73929,0.46278 -1.57586,0.97567 -1.90509,1.82258"
     id="path3-5" />
</svg>
