<?xml version="1.0" encoding="UTF-8" standalone="no"?>
<svg
   viewBox="158.2305 68.6985 245.3193 245.32"
   width="245.319px"
   height="245.32px"
   preserveAspectRatio="none"
   version="1.1"
   id="svg1"
   sodipodi:docname="stopsign.svg"
   inkscape:version="1.4.2 (ebf0e940, 2025-05-08)"
   xmlns:inkscape="http://www.inkscape.org/namespaces/inkscape"
   xmlns:sodipodi="http://sodipodi.sourceforge.net/DTD/sodipodi-0.dtd"
   xmlns="http://www.w3.org/2000/svg"
   xmlns:svg="http://www.w3.org/2000/svg">
  <defs
     id="defs1" />
  <sodipodi:namedview
     id="namedview1"
     pagecolor="#ffffff"
     bordercolor="#000000"
     borderopacity="0.25"
     inkscape:showpageshadow="2"
     inkscape:pageopacity="0.0"
     inkscape:pagecheckerboard="0"
     inkscape:deskcolor="#d1d1d1"
     inkscape:zoom="0.21604434"
     inkscape:cx="122.66"
     inkscape:cy="122.66"
     inkscape:window-width="896"
     inkscape:window-height="204"
     inkscape:window-x="0"
     inkscape:window-y="39"
     inkscape:window-maximized="0"
     inkscape:current-layer="svg1" />
  <g
     id="g4093"
     transform="matrix(1, 0, 0, 1, -11931.110275268555, 7.3582282066345215)"
     style="fill:#000000">
    <path
       id="path4094"
       d="m 0,0 h -111.124 c -2.2,0 -3.983,1.783 -3.983,3.983 v 27.41 c 0,2.2 1.783,3.983 3.983,3.983 H 0 c 2.2,0 3.983,-1.783 3.983,-3.983 V 3.983 C 3.983,1.783 2.2,0 0,0 m -24.056,109.683 h -63.013 c -4.225,0 -8.277,-1.678 -11.265,-4.666 l -44.557,-44.556 c -2.988,-2.988 -4.666,-7.041 -4.666,-11.266 v -63.013 c 0,-4.226 1.678,-8.278 4.666,-11.266 l 44.557,-44.557 c 2.988,-2.987 7.04,-4.666 11.265,-4.666 h 63.013 c 4.226,0 8.278,1.679 11.266,4.666 l 44.557,44.557 c 2.988,2.988 4.666,7.04 4.666,11.266 v 63.013 c 0,4.225 -1.678,8.278 -4.666,11.266 l -44.557,44.556 c -2.988,2.988 -7.04,4.666 -11.266,4.666"
       style="fill:#000000;fill-opacity:1;fill-rule:nonzero;stroke:none"
       transform="matrix(1.3333333,0,0,-1.3333333,12286.083,207.58427)"
       clip-path="url(#clipPath4095)" />
  </g>
</svg>
