<?xml version="1.0" encoding="UTF-8" standalone="no"?>
<svg
   viewBox="248.1792 42.0212 131.6823 141.39927"
   width="131.6823"
   height="141.39928"
   version="1.1"
   id="svg1"
   sodipodi:docname="storm cloud.svg"
   xml:space="preserve"
   inkscape:version="1.4.2 (ebf0e940, 2025-05-08)"
   xmlns:inkscape="http://www.inkscape.org/namespaces/inkscape"
   xmlns:sodipodi="http://sodipodi.sourceforge.net/DTD/sodipodi-0.dtd"
   xmlns="http://www.w3.org/2000/svg"
   xmlns:svg="http://www.w3.org/2000/svg"><defs
     id="defs1" /><sodipodi:namedview
     id="namedview1"
     pagecolor="#ffffff"
     bordercolor="#000000"
     borderopacity="0.25"
     inkscape:showpageshadow="2"
     inkscape:pageopacity="0.0"
     inkscape:pagecheckerboard="0"
     inkscape:deskcolor="#d1d1d1"
     inkscape:zoom="3.6617206"
     inkscape:cx="42.739471"
     inkscape:cy="67.864271"
     inkscape:window-width="896"
     inkscape:window-height="204"
     inkscape:window-x="0"
     inkscape:window-y="39"
     inkscape:window-maximized="0"
     inkscape:current-layer="g1" /><g
     style="fill:#7a7978;fill-opacity:1"
     id="g1"
     transform="matrix(7.3156828,0,0,7.3156828,226.23215,27.389834)"><path
       d="m 6,12 h 12 c 1.6569,0 3,-1.3431 3,-3 C 21,7.34315 19.6569,6 18,6 17.36,6 16.826,5.53873 16.5639,4.95481 15.7822,3.21307 14.0328,2 12,2 9.96722,2 8.21776,3.21307 7.43606,4.95481 7.17399,5.53873 6.64004,6 6,6 4.34315,6 3,7.34315 3,9 c 0,1.6569 1.34315,3 3,3 z"
       fill="#222222"
       id="path1"
       style="fill:#000000;fill-opacity:1" /><path
       fill-rule="evenodd"
       clip-rule="evenodd"
       d="M 10.2352,12.906459 9.4281354,14.786 c -0.78706,1.338 -0.7917477,2.229548 -0.588615,2.5309 C 9.0513003,17.63108 9.94539,17.8 11.4996,17.8 c 0.2359,0 0.3539,0 0.4271,0.0732 C 12,17.9464 12,18.0643 12,18.3 v 1.8638 c 0,0.7394 0,1.1091 0.1843,1.1593 0.1843,0.0502 0.3717,-0.2684 0.7466,-0.9057 L 14.227,18.214 c 0.787,-1.338 1.077172,-2.237119 0.8926,-2.5105 -0.186747,-0.276603 -1.087519,-0.230115 -2.641719,-0.230115 -0.2359,0 -0.450911,-0.24584 -0.4271,-0.346585 0.133103,-0.563162 0.671345,-1.611176 1.04276,-2.220341 z"
       fill="#222222"
       id="path2"
       style="fill:#000000;fill-opacity:1"
       sodipodi:nodetypes="ccsscsssccssscc" /></g></svg>
