<?xml version="1.0" encoding="UTF-8" standalone="no"?>
<svg
   viewBox="248.1792 42.0212 195.40895 133.97642"
   width="195.40895"
   height="133.97643"
   version="1.1"
   id="svg1"
   sodipodi:docname="talking heads.svg"
   inkscape:version="1.4.2 (ebf0e940, 2025-05-08)"
   xmlns:inkscape="http://www.inkscape.org/namespaces/inkscape"
   xmlns:sodipodi="http://sodipodi.sourceforge.net/DTD/sodipodi-0.dtd"
   xmlns="http://www.w3.org/2000/svg"
   xmlns:svg="http://www.w3.org/2000/svg">
  <defs
     id="defs1" />
  <sodipodi:namedview
     id="namedview1"
     pagecolor="#ffffff"
     bordercolor="#000000"
     borderopacity="0.25"
     inkscape:showpageshadow="2"
     inkscape:pageopacity="0.0"
     inkscape:pagecheckerboard="0"
     inkscape:deskcolor="#d1d1d1"
     inkscape:zoom="2.5724409"
     inkscape:cx="126.92226"
     inkscape:cy="75.414755"
     inkscape:window-width="896"
     inkscape:window-height="245"
     inkscape:window-x="0"
     inkscape:window-y="39"
     inkscape:window-maximized="0"
     inkscape:current-layer="object-0" />
  <g
     id="object-0"
     transform="translate(-7197.3751,-45.225345)">
    <path
       id="path2538"
       d="m 7499.738,172.22533 c -1.7009,0 -3.0745,-1.37707 -3.0745,-3.07536 0,-1.69744 1.3736,-3.07451 3.0745,-3.07451 1.6966,0 3.0745,1.37707 3.0745,3.07451 0,1.69829 -1.3779,3.07536 -3.0745,3.07536 m 19.4977,10.78144 c -0.4306,-2.77911 -7.0145,-10.56011 -8.5346,-14.82738 -0.8827,-2.48114 -0.3617,-4.15016 -0.6329,-6.55292 -3.7721,-33.51298 -56.056,-38.9868 -63.8154,-3.98394 -2.9497,13.30477 4.1381,21.38848 8.3106,33.33686 3.1176,8.92209 -0.5167,16.8129 0.3057,25.82757 0.073,0.79576 0.1421,1.45372 0.6459,1.90714 0.2886,0.26482 1.9033,0.38324 2.2995,0.38152 l 34.7841,-0.15416 c 0.4866,-0.002 0.9387,-0.27903 1.1325,-0.72513 0.021,-0.0469 0.034,-0.087 0.039,-0.11799 0.422,-2.32655 -0.5382,-8.1117 -0.3014,-10.77326 0.017,-0.18817 0.073,-0.37376 0.1809,-0.52921 0.986,-1.4296 4.3706,-0.61791 5.0682,-0.61835 2.7084,-8.6e-4 5.3954,-0.69499 7.4279,-2.5074 4.9347,-4.39947 3.7893,-5.86309 4.2974,-11.53155 0.4736,-5.31321 1.4468,-3.71309 5.3567,-4.44382 2.6396,-0.4939 3.8625,-1.94073 3.4362,-4.68798"
       style="fill:#000000;fill-opacity:1;fill-rule:nonzero;stroke:none;stroke-width:0.430603"
       clip-path="url(#clipPath2539)" />
    <path
       id="path2540"
       d="m 7548.8779,107.80526 c 0,-11.354148 -11.8244,-20.558715 -26.4132,-20.558715 -14.5846,0 -26.4089,9.204567 -26.4089,20.558715 0,9.27691 7.8972,17.11432 18.7398,19.67296 1.2272,0.2898 2.1272,1.35252 2.1573,2.61462 0.035,1.61304 -0.1162,3.04264 -0.2712,4.05542 -0.1077,0.70016 0.5856,1.24617 1.2358,0.97316 2.054,-0.8569 5.8261,-2.69902 9.3527,-5.82735 1.0679,-0.95034 2.3425,-1.66169 3.7247,-2.029 10.3991,-2.76103 17.883,-10.42921 17.883,-19.45981"
       style="fill:#000000;fill-opacity:1;fill-rule:nonzero;stroke:none;stroke-width:0.430603"
       clip-path="url(#clipPath2541)" />
    <path
       id="path2538-7"
       d="m 7587.8106,174.35267 c 1.6685,0 3.016,-1.37707 3.016,-3.07537 0,-1.69744 -1.3475,-3.07451 -3.016,-3.07451 -1.6643,0 -3.016,1.37707 -3.016,3.07451 0,1.6983 1.3517,3.07537 3.016,3.07537 m -19.1267,10.78144 c 0.4224,-2.77911 6.881,-10.56011 8.3721,-14.82739 0.866,-2.48113 0.3549,-4.15015 0.621,-6.55292 3.7003,-33.51297 54.9893,-38.9868 62.6011,-3.98394 2.8935,13.30478 -4.0594,21.38849 -8.1525,33.33686 -3.0582,8.9221 0.5069,16.8129 -0.2999,25.82758 -0.072,0.79575 -0.1394,1.45371 -0.6336,1.90714 -0.283,0.26482 -1.8671,0.38323 -2.2557,0.38151 l -34.1223,-0.15415 c -0.4773,-0.002 -0.9208,-0.27903 -1.1109,-0.72514 -0.021,-0.0469 -0.034,-0.087 -0.038,-0.11798 -0.414,-2.32655 0.528,-8.11171 0.2957,-10.77326 -0.017,-0.18818 -0.072,-0.37377 -0.1774,-0.52921 -0.9674,-1.42961 -4.2875,-0.61792 -4.9718,-0.61835 -2.657,-8.6e-4 -5.2928,-0.69499 -7.2866,-2.5074 -4.8408,-4.39947 -3.7172,-5.86309 -4.2156,-11.53155 -0.4647,-5.31321 -1.4193,-3.71309 -5.2548,-4.44383 -2.5894,-0.4939 -3.789,-1.94072 -3.3708,-4.68797"
       style="fill:#000000;fill-opacity:1;fill-rule:nonzero;stroke:none;stroke-width:0.426487"
       clip-path="url(#clipPath2539)" />
    <path
       id="path2540-6"
       d="m 7531.2236,140.89884 c 0,-11.35414 11.5994,-20.55871 25.9106,-20.55871 14.3071,0 25.9064,9.20457 25.9064,20.55871 0,9.27691 -7.747,17.11432 -18.3832,19.67296 -1.2039,0.2898 -2.0867,1.35253 -2.1163,2.61462 -0.034,1.61304 0.114,3.04265 0.2661,4.05542 0.1056,0.70017 -0.5745,1.24617 -1.2123,0.97317 -2.0149,-0.8569 -5.7152,-2.69902 -9.1748,-5.82735 -1.0475,-0.95034 -2.2979,-1.6617 -3.6538,-2.02901 -10.2012,-2.76102 -17.5427,-10.4292 -17.5427,-19.45981"
       style="fill:#000000;fill-opacity:1;fill-rule:nonzero;stroke:none;stroke-width:0.426487"
       clip-path="url(#clipPath2541)" />
  </g>
</svg>
