<?xml version="1.0" encoding="UTF-8" standalone="no"?>
<!-- Created with Inkscape (http://www.inkscape.org/) -->

<svg
   width="54.337681mm"
   height="44.767075mm"
   viewBox="0 0 54.337681 44.767075"
   version="1.1"
   id="svg1"
   inkscape:version="1.4.2 (ebf0e940, 2025-05-08)"
   sodipodi:docname="3star.svg"
   xmlns:inkscape="http://www.inkscape.org/namespaces/inkscape"
   xmlns:sodipodi="http://sodipodi.sourceforge.net/DTD/sodipodi-0.dtd"
   xmlns="http://www.w3.org/2000/svg"
   xmlns:svg="http://www.w3.org/2000/svg">
  <sodipodi:namedview
     id="namedview1"
     pagecolor="#ffffff"
     bordercolor="#000000"
     borderopacity="0.25"
     inkscape:showpageshadow="2"
     inkscape:pageopacity="0.0"
     inkscape:pagecheckerboard="0"
     inkscape:deskcolor="#d1d1d1"
     inkscape:document-units="mm"
     inkscape:zoom="1.1282099"
     inkscape:cx="113.01088"
     inkscape:cy="184.36285"
     inkscape:window-width="1712"
     inkscape:window-height="971"
     inkscape:window-x="0"
     inkscape:window-y="39"
     inkscape:window-maximized="1"
     inkscape:current-layer="layer1" />
  <defs
     id="defs1">
    <clipPath
       clipPathUnits="userSpaceOnUse"
       id="clipPath4247-1">
      <path
         d="M 0,276 H 276 V 0 H 0 Z"
         transform="translate(-225.36451,-155.53641)"
         id="path4247-4" />
    </clipPath>
    <clipPath
       clipPathUnits="userSpaceOnUse"
       id="clipPath4247">
      <path
         d="M 0,276 H 276 V 0 H 0 Z"
         transform="translate(-225.36451,-155.53641)"
         id="path4247" />
    </clipPath>
    <clipPath
       clipPathUnits="userSpaceOnUse"
       id="clipPath4245">
      <path
         d="M 0,276 H 276 V 0 H 0 Z"
         transform="translate(-179.71275,-144.8512)"
         id="path4245" />
    </clipPath>
    <clipPath
       clipPathUnits="userSpaceOnUse"
       id="clipPath4243">
      <path
         d="M 0,276 H 276 V 0 H 0 Z"
         transform="translate(-125.73075,-126.58131)"
         id="path4243" />
    </clipPath>
    <clipPath
       clipPathUnits="userSpaceOnUse"
       id="clipPath4241">
      <path
         d="M 0,276 H 276 V 0 H 0 Z"
         transform="translate(-71.748752,-108.31131)"
         id="path4241" />
    </clipPath>
  </defs>
  <g
     inkscape:label="Layer 1"
     inkscape:groupmode="layer"
     id="layer1"
     transform="translate(-65.352154,-123.03125)">
    <path
       id="path4240"
       d="m 0,0 6.422,11.632 c 1.221,2.211 -0.731,4.829 -3.198,4.291 l -12.982,-2.83 -9.079,9.702 c -1.725,1.844 -4.818,0.797 -5.069,-1.715 L -25.226,7.858 -37.259,2.222 c -2.286,-1.071 -2.247,-4.336 0.065,-5.351 l 12.167,-5.341 1.642,-13.186 c 0.312,-2.505 3.429,-3.477 5.109,-1.592 l 8.839,9.921 13.048,-2.513 c 2.479,-0.478 4.367,2.188 3.093,4.367 z"
       style="fill:#fe9b01;fill-opacity:1;fill-rule:nonzero;stroke:none"
       transform="matrix(0.35277776,0,0,-0.35277776,79.09319,144.29309)"
       clip-path="url(#clipPath4241)" />
    <path
       id="path4242"
       d="m 0,0 6.422,11.632 c 1.221,2.211 -0.731,4.829 -3.198,4.291 l -12.982,-2.83 -9.079,9.702 c -1.725,1.844 -4.818,0.797 -5.069,-1.715 L -25.226,7.858 -37.259,2.222 c -2.286,-1.071 -2.247,-4.336 0.065,-5.351 l 12.167,-5.341 1.642,-13.186 c 0.312,-2.505 3.429,-3.477 5.109,-1.592 l 8.839,9.921 13.048,-2.513 c 2.479,-0.478 4.367,2.188 3.093,4.367 z"
       style="fill:#fe9b01;fill-opacity:1;fill-rule:nonzero;stroke:none"
       transform="matrix(0.35277776,0,0,-0.35277776,98.136839,137.84784)"
       clip-path="url(#clipPath4243)" />
    <path
       id="path4244"
       d="m 0,0 6.422,11.632 c 1.221,2.211 -0.731,4.829 -3.198,4.291 l -12.982,-2.83 -9.079,9.702 c -1.725,1.844 -4.818,0.797 -5.069,-1.715 L -25.226,7.858 -37.259,2.222 c -2.286,-1.071 -2.247,-4.336 0.065,-5.351 l 12.167,-5.341 1.642,-13.186 c 0.312,-2.505 3.429,-3.477 5.109,-1.592 l 8.839,9.921 13.048,-2.513 c 2.479,-0.478 4.367,2.188 3.093,4.368 z"
       style="fill:#fe9b01;fill-opacity:1;fill-rule:nonzero;stroke:none"
       transform="matrix(0.35277776,0,0,-0.35277776,117.18049,131.40263)"
       clip-path="url(#clipPath4245)" />
    <path
       id="path4246"
       d="m 0,0 -3.262,0.628 -7.132,21.073 4.696,-5.019 2.27,-2.425 3.246,0.707 6.715,1.464 L 3.211,10.411 1.606,7.503 3.281,4.635 6.75,-1.3 Z M 16.391,-6.21 8.33,7.585 16.053,21.572 c 0.713,1.292 -0.428,2.824 -1.87,2.509 L -1.428,20.678 -12.344,32.344 c -0.505,0.539 -1.209,0.656 -1.806,0.454 -0.596,-0.202 -1.085,-0.722 -1.159,-1.457 L -16.896,15.443 -31.365,8.666 C -32.701,8.04 -32.678,6.13 -31.326,5.537 l 14.629,-6.422 1.974,-15.855 c 0.143,-1.149 1.294,-1.746 2.258,-1.42 0.266,0.09 0.518,0.251 0.73,0.489 l 10.629,11.929 15.689,-3.022 c 0.313,-0.06 0.61,-0.035 0.876,0.055 0.964,0.326 1.516,1.5 0.932,2.499"
       style="fill:#fe9b01;fill-opacity:1;fill-rule:nonzero;stroke:none"
       transform="matrix(0.35277776,0,0,-0.35277776,91.607716,161.36065)"
       clip-path="url(#clipPath4247)" />
    <path
       id="path4246-1"
       d="M -3.1706438,-0.45294912 -11.324494,-10.786318 -12.115207,1.7712387 -25.084222,6.7171194 -13.121111,12.354614 -12.049267,25.11006 -3.7942399,15.522102 8.8275691,18.382905 1.606,7.503 3.281,4.635 9.0147456,-3.2023863 Z M 16.391,-6.21 8.33,7.585 16.053,21.572 c 0.713,1.292 -0.428,2.824 -1.87,2.509 L -1.428,20.678 -12.344,32.344 c -0.505,0.539 -1.209,0.656 -1.806,0.454 -0.596,-0.202 -1.085,-0.722 -1.159,-1.457 L -16.896,15.443 -31.365,8.666 C -32.701,8.04 -32.678,6.13 -31.326,5.537 l 14.629,-6.422 1.974,-15.855 c 0.143,-1.149 1.294,-1.746 2.258,-1.42 0.266,0.09 0.518,0.251 0.73,0.489 l 10.629,11.929 15.689,-3.022 c 0.313,-0.06 0.61,-0.035 0.876,0.055 0.964,0.326 1.516,1.5 0.932,2.499"
       style="fill:#fe9b01;fill-opacity:1;fill-rule:nonzero;stroke:none"
       transform="matrix(0.35277776,0,0,-0.35277776,111.52687,154.0941)"
       clip-path="url(#clipPath4247-1)"
       sodipodi:nodetypes="cccccccccccccccccccccccccsccccc" />
  </g>
</svg>
