<?xml version="1.0" encoding="UTF-8" standalone="no"?>
<!-- Created with Inkscape (http://www.inkscape.org/) -->

<svg
   width="267.21893mm"
   height="195.14374mm"
   viewBox="0 0 267.21893 195.14374"
   version="1.1"
   id="svg1"
   xml:space="preserve"
   inkscape:version="1.4.2 (ebf0e940, 2025-05-08)"
   sodipodi:docname="adapter.svg"
   xmlns:inkscape="http://www.inkscape.org/namespaces/inkscape"
   xmlns:sodipodi="http://sodipodi.sourceforge.net/DTD/sodipodi-0.dtd"
   xmlns="http://www.w3.org/2000/svg"
   xmlns:svg="http://www.w3.org/2000/svg"><sodipodi:namedview
     id="namedview1"
     pagecolor="#ffffff"
     bordercolor="#000000"
     borderopacity="0.25"
     inkscape:showpageshadow="2"
     inkscape:pageopacity="0.0"
     inkscape:pagecheckerboard="0"
     inkscape:deskcolor="#d1d1d1"
     inkscape:document-units="mm"
     inkscape:zoom="0.59336726"
     inkscape:cx="385.09034"
     inkscape:cy="530.86852"
     inkscape:window-width="1712"
     inkscape:window-height="971"
     inkscape:window-x="0"
     inkscape:window-y="39"
     inkscape:window-maximized="1"
     inkscape:current-layer="secondary" /><defs
     id="defs1"><clipPath
       clipPathUnits="userSpaceOnUse"
       id="clipPath1548"><path
         d="M 0,276 H 276 V 0 H 0 Z"
         transform="translate(-229.99553,-77.320404)"
         id="path1548" /></clipPath><clipPath
       clipPathUnits="userSpaceOnUse"
       id="clipPath1546"><path
         d="M 0,276 H 276 V 0 H 0 Z"
         transform="translate(-229.99553,-111.9276)"
         id="path1546" /></clipPath><clipPath
       clipPathUnits="userSpaceOnUse"
       id="clipPath1544"><path
         d="M 0,276 H 276 V 0 H 0 Z"
         transform="translate(-159.16358,-197.99391)"
         id="path1544" /></clipPath></defs><g
     inkscape:label="Layer 1"
     inkscape:groupmode="layer"
     id="layer1"
     transform="translate(116.05366,-494.08333)"><g
       style="fill:#fe9b01;fill-opacity:1"
       id="g1"
       transform="matrix(8.8194444,0,0,8.8194444,-16.404166,493.18333)"><g
         id="secondary"
         style="opacity:1;fill:#fe9b01;fill-opacity:1"
         transform="translate(-0.06)"><path
           style="baseline-shift:baseline;display:inline;overflow:visible;vector-effect:none;fill:#fe9b01;fill-opacity:1;stroke-linecap:round;stroke-linejoin:round;enable-background:accumulate;stop-color:#000000;stop-opacity:1"
           d="M 6,5 H 9 M 6,9 h 3 m 6,12 v -3"
           id="path2" /><path
           style="baseline-shift:baseline;display:inline;overflow:visible;vector-effect:none;fill:#fe9b01;fill-opacity:1;stroke-linecap:round;stroke-linejoin:round;enable-background:accumulate;stop-color:#000000;stop-opacity:1"
           d="M 6,4 C 5.4477153,4 5,4.4477153 5,5 5,5.5522847 5.4477153,6 6,6 H 9 C 9.5522847,6 10,5.5522847 10,5 10,4.4477153 9.5522847,4 9,4 Z M 6,8 C 5.4477153,8 5,8.4477153 5,9 5,9.5522847 5.4477153,10 6,10 H 9 C 9.5522847,10 10,9.5522847 10,9 10,8.4477153 9.5522847,8 9,8 Z"
           id="path3"
           sodipodi:nodetypes="ssssssssssssss" /><path
           style="baseline-shift:baseline;display:inline;overflow:visible;vector-effect:none;fill:#fe9b01;fill-opacity:1;stroke-linecap:round;stroke-linejoin:round;enable-background:accumulate;stop-color:#000000"
           d="m -8.73884,2.9671901 c -0.5522847,0 -1,0.4477153 -1,1 0,0.5522847 0.4477153,1 1,1 h 3 c 0.5522847,0 1,-0.4477153 1,-1 0,-0.5522847 -0.4477153,-1 -1,-1 z m -1.5,3.28 c -0.552285,0 -1,0.4477153 -1,1 0,0.5522847 0.447715,1 1,1 h 4.5 c 0.5522847,0 1,-0.4477153 1,-1 0,-0.5522847 -0.4477153,-1 -1,-1 z"
           id="path3-0"
           sodipodi:nodetypes="ssssssssssssss" /><path
           style="baseline-shift:baseline;display:inline;overflow:visible;vector-effect:none;fill:#fe9b01;fill-opacity:1;stroke-linecap:round;stroke-linejoin:round;enable-background:accumulate;stop-color:#000000"
           d="m -10.176335,6.1899804 c -0.552285,0 -1,0.4477153 -1,1 0,0.5522847 0.447715,1 1,1 h 4.4999997 c 0.5522847,0 1,-0.4477153 1,-1 0,-0.5522847 -0.4477153,-1 -1,-1 z M -8.6763353,9.64998 c -0.5522847,0 -0.9999999,0.447716 -0.9999999,1 0,0.552285 0.4477152,1 0.9999999,1 h 3 c 0.5522847,0 1,-0.447715 1,-1 0,-0.552284 -0.4477153,-1 -1,-1 z"
           id="path3-0-9"
           sodipodi:nodetypes="ssssssssssssss" /><path
           style="baseline-shift:baseline;display:inline;overflow:visible;opacity:1;vector-effect:none;fill:#fe9b01;fill-opacity:1;stroke-linecap:round;enable-background:accumulate;stop-color:#000000;stop-opacity:1"
           d="m 14.936181,16.072544 c -0.944539,0.238457 -0.512012,2.438561 -0.613517,3.183465 -0.113289,0.921956 -2.026477,1.621084 -2.53165,1.757675 -0.960404,0.04758 -2.8776281,-1.372896 -3.3510083,-0.768962 -0.4722864,0.746412 1.4930943,1.572487 2.2187313,1.863066 1.344038,0.383733 2.657791,-0.255766 3.061895,-0.4105 0,0 2.054265,-1.049217 2.007885,-2.294028 -0.04638,-1.24481 0.169956,-2.512957 -0.672589,-2.28181 z"
           id="path7"
           sodipodi:nodetypes="cccccczcc" /></g><g
         id="primary"
         style="opacity:1;fill:#fe9b01;fill-opacity:1"><path
           style="baseline-shift:baseline;display:inline;overflow:visible;vector-effect:none;fill:#fe9b01;fill-opacity:1;stroke-linecap:round;stroke-linejoin:round;enable-background:accumulate;stop-color:#000000;stop-opacity:1"
           d="m 9.9999999,0.85524816 c -1.092725,0 -2,0.90727514 -2,2.00000004 V 12.855249 c 0,1.092725 0.907275,2 2,2 H 13 v 2 a 1.0001,1.0001 0 0 0 1,1 h 2 a 1.0001,1.0001 0 0 0 1,-1 v -2.416016 c 1.106701,-0.443394 2,-1.327331 2,-2.583984 V 2.8552482 C 19,1.7625233 18.092725,0.85524816 17,0.85524816 Z m 0,2.00000004 H 17 v 9.0000008 c 0,0.564129 -0.435871,1 -1,1 H 14 9.9999999 Z"
           id="path5" /><path
           style="baseline-shift:baseline;display:inline;overflow:visible;vector-effect:none;fill:#fe9b01;fill-opacity:1;stroke-linecap:round;stroke-linejoin:round;enable-background:accumulate;stop-color:#000000"
           d="m -4.6928781,0.1020474 c -1.092725,0 -2,0.9072751 -2,2 V 12.102048 c 0,1.092725 0.907275,2 2,2 h 7.14 c 1.3341326,-0.335948 1.86,-0.544886 1.86,-1.86 V 2.1020474 c 0,-1.0927249 -0.907275,-2 -2,-2 z m 0,2 h 7 v 9.0000006 c 0,0.564129 -0.435871,1 -1,1 H -0.69287814 -4.6928781 Z"
           id="path5-3"
           sodipodi:nodetypes="sssscssssccssccc" /></g><ellipse
         style="fill:#fe9b01;fill-opacity:1;stroke-width:0.19851;stroke-linecap:round"
         id="path6"
         cx="2.1635392"
         cy="5.1819615"
         rx="0.88488829"
         ry="0.819341" /><ellipse
         style="fill:#fe9b01;fill-opacity:1;stroke-width:0.19851;stroke-linecap:round"
         id="path6-3"
         cx="2.2172453"
         cy="9.083436"
         rx="0.88488829"
         ry="0.819341" /></g></g></svg>
