<?xml version="1.0" encoding="UTF-8" standalone="no"?>
<!-- Created with Inkscape (http://www.inkscape.org/) -->

<svg
   width="73.381294mm"
   height="48.193264mm"
   viewBox="0 0 73.381294 48.193264"
   version="1.1"
   id="svg1"
   inkscape:version="1.4.2 (ebf0e940, 2025-05-08)"
   sodipodi:docname="binoculars.svg"
   xmlns:inkscape="http://www.inkscape.org/namespaces/inkscape"
   xmlns:sodipodi="http://sodipodi.sourceforge.net/DTD/sodipodi-0.dtd"
   xmlns="http://www.w3.org/2000/svg"
   xmlns:svg="http://www.w3.org/2000/svg">
  <sodipodi:namedview
     id="namedview1"
     pagecolor="#ffffff"
     bordercolor="#000000"
     borderopacity="0.25"
     inkscape:showpageshadow="2"
     inkscape:pageopacity="0.0"
     inkscape:pagecheckerboard="0"
     inkscape:deskcolor="#d1d1d1"
     inkscape:document-units="mm"
     inkscape:zoom="0.72336179"
     inkscape:cx="199.76173"
     inkscape:cy="69.121705"
     inkscape:window-width="1712"
     inkscape:window-height="971"
     inkscape:window-x="0"
     inkscape:window-y="39"
     inkscape:window-maximized="1"
     inkscape:current-layer="layer1" />
  <defs
     id="defs1">
    <clipPath
       clipPathUnits="userSpaceOnUse"
       id="clipPath3862">
      <path
         d="M 0,276 H 276 V 0 H 0 Z"
         transform="translate(-190.03725,-137.58681)"
         id="path3862" />
    </clipPath>
    <clipPath
       clipPathUnits="userSpaceOnUse"
       id="clipPath3860">
      <path
         d="M 0,276 H 276 V 0 H 0 Z"
         transform="translate(-83.365502,-135.9303)"
         id="path3860" />
    </clipPath>
    <clipPath
       clipPathUnits="userSpaceOnUse"
       id="clipPath3858">
      <path
         d="M 0,276 H 276 V 0 H 0 Z"
         transform="translate(-170.84625,-93.761702)"
         id="path3858" />
    </clipPath>
  </defs>
  <g
     inkscape:label="Layer 1"
     inkscape:groupmode="layer"
     id="layer1"
     transform="translate(-55.827054,-121.44375)">
    <path
       id="path3857"
       d="M 0,0 C 32.262,-30.839 79.363,19.746 44.855,49.369 12.306,77.311 -30.285,28.949 0,0 m -94.035,56.942 c -39.379,-5.338 -35,-68.681 7.151,-66.253 44.408,2.559 40.957,72.773 -7.151,66.253 m 46.158,28.936 c 9.311,2.593 19.217,1.859 28.714,0.814 0.877,24.036 29.18,33.01 47.166,18.858 C 35.528,99.628 37.85,91.72 42.541,83.981 59.41,56.147 86.597,25.012 60.036,-6.863 31.8,-40.748 -22.543,-20.949 -24.911,21.866 c -4.872,-1.097 -10.774,-1.508 -15.578,0.002 -2.794,-46.492 -63.717,-63.58 -88.656,-23.409 -18.43,29.688 0.141,50.542 14.63,74.86 8.79,14.752 14.501,34.722 33.594,38.617 16.636,3.395 34.895,-7.728 33.044,-26.058"
       style="fill:#fe9b01;fill-opacity:1;fill-rule:nonzero;stroke:none"
       transform="matrix(0.35277776,0,0,-0.35277776,104.10509,161.14665)"
       clip-path="url(#clipPath3858)" />
    <path
       id="path3859"
       d="m 0,0 c 1.353,-1.275 1.989,-4.488 1.495,-6.356 -1.55,-5.871 -6.681,-4.444 -8.578,-7.883 -2.053,-3.721 0.227,-11.117 -7.761,-10.749 -12.795,0.59 -4.411,22.057 5.568,25.249 C -6.869,1.031 -1.948,1.835 0,0"
       style="fill:#fe9b01;fill-opacity:1;fill-rule:nonzero;stroke:none"
       transform="matrix(0.35277776,0,0,-0.35277776,73.243825,146.27051)"
       clip-path="url(#clipPath3860)" />
    <path
       id="path3861"
       d="m 0,0 c 3.859,0.613 10.794,0.555 11.697,-4.347 1.889,-10.246 -9.327,-7.159 -13.199,-10.559 -2.727,-2.395 -1.401,-8.932 -5.685,-10.721 -5.548,-2.316 -9.522,0.864 -9.395,6.558 C -16.393,-10.595 -8.327,-1.323 0,0"
       style="fill:#fe9b01;fill-opacity:1;fill-rule:nonzero;stroke:none"
       transform="matrix(0.35277776,0,0,-0.35277776,110.87525,145.68613)"
       clip-path="url(#clipPath3862)" />
  </g>
</svg>
