<?xml version="1.0" encoding="UTF-8" standalone="no"?>
<!-- Created with Inkscape (http://www.inkscape.org/) -->

<svg
   width="73.32003mm"
   height="57.106567mm"
   viewBox="0 0 73.32003 57.106567"
   version="1.1"
   id="svg1"
   inkscape:version="1.4.2 (ebf0e940, 2025-05-08)"
   sodipodi:docname="camp fire.svg"
   xmlns:inkscape="http://www.inkscape.org/namespaces/inkscape"
   xmlns:sodipodi="http://sodipodi.sourceforge.net/DTD/sodipodi-0.dtd"
   xmlns="http://www.w3.org/2000/svg"
   xmlns:svg="http://www.w3.org/2000/svg">
  <sodipodi:namedview
     id="namedview1"
     pagecolor="#ffffff"
     bordercolor="#000000"
     borderopacity="0.25"
     inkscape:showpageshadow="2"
     inkscape:pageopacity="0.0"
     inkscape:pagecheckerboard="0"
     inkscape:deskcolor="#d1d1d1"
     inkscape:document-units="mm"
     inkscape:zoom="1.1027811"
     inkscape:cx="164.58388"
     inkscape:cy="179.54605"
     inkscape:window-width="1712"
     inkscape:window-height="971"
     inkscape:window-x="0"
     inkscape:window-y="39"
     inkscape:window-maximized="1"
     inkscape:current-layer="layer1" />
  <defs
     id="defs1">
    <clipPath
       clipPathUnits="userSpaceOnUse"
       id="clipPath1153">
      <path
         d="M 0,276 H 276 V 0 H 0 Z"
         transform="translate(-134.8074,-78.566799)"
         id="path1153" />
    </clipPath>
    <clipPath
       clipPathUnits="userSpaceOnUse"
       id="clipPath1155">
      <path
         d="M 0,276 H 276 V 0 H 0 Z"
         transform="translate(-221.79451,-73.677504)"
         id="path1155" />
    </clipPath>
    <clipPath
       clipPathUnits="userSpaceOnUse"
       id="clipPath1153-7">
      <path
         d="M 0,276 H 276 V 0 H 0 Z"
         transform="translate(-134.8074,-78.566799)"
         id="path1153-1" />
    </clipPath>
    <clipPath
       clipPathUnits="userSpaceOnUse"
       id="clipPath1155-8">
      <path
         d="M 0,276 H 276 V 0 H 0 Z"
         transform="translate(-221.79451,-73.677504)"
         id="path1155-7" />
    </clipPath>
    <clipPath
       clipPathUnits="userSpaceOnUse"
       id="clipPath1153-9">
      <path
         d="M 0,276 H 276 V 0 H 0 Z"
         transform="translate(-134.8074,-78.566799)"
         id="path1153-15" />
    </clipPath>
    <clipPath
       clipPathUnits="userSpaceOnUse"
       id="clipPath1155-5">
      <path
         d="M 0,276 H 276 V 0 H 0 Z"
         transform="translate(-221.79451,-73.677504)"
         id="path1155-5" />
    </clipPath>
  </defs>
  <g
     inkscape:label="Layer 1"
     inkscape:groupmode="layer"
     id="layer1"
     transform="translate(-26.458321,67.204166)">
    <path
       id="path1152"
       d="m 0,0 c -2.273,0 -4.146,4.065 -5.139,6.038 -5.917,11.764 -9.826,25.557 -15.563,37.525 -1.399,3.235 -6.057,2.836 -7.367,0.306 L -44.928,3.704 c -1.59,-2.723 -2.968,-3.737 -6.043,-3.737 -10.239,0 -32.903,0.034 -43.352,0.034 -8.123,0 -7.511,8.073 -3.706,13.482 l 65.264,103.756 c -2.424,5.477 -11.923,14.914 -7.42,20.718 5.642,7.273 11.075,-3.73 14.691,-8.739 2.548,4.152 3.495,4.548 5.249,6.761 3.183,4.015 8.888,5.482 11.355,0.393 2.554,-5.268 -6.892,-13.867 -8.079,-19.257 L 32.337,39.345 C 24.755,26.979 19.03,13.704 27.598,0 Z"
       style="fill:#fe9b01;fill-opacity:1;fill-rule:nonzero;stroke:none"
       transform="matrix(0.35277776,0,0,-0.35277776,1268.7567,-6461.3467)"
       clip-path="url(#clipPath1153)" />
    <path
       id="path1154"
       d="m 0,0 h 12.969 c 9.27,0 9.805,-16.435 -10e-4,-16.435 l -71.162,-0.181 C -67.626,-16.616 -66.717,0 -58.202,0 h 14.184 l -2.88,2.721 c -3.242,3.062 -5.802,6.813 -7.235,11.035 -1.168,3.438 -1.631,7.064 -0.761,10.737 1.83,7.728 6.342,-2.321 12.78,1.894 4.774,3.125 -1.17,10.568 -2.626,15.148 -4.54,14.289 -1.256,22.861 8.39,33.568 4.518,5.016 15.286,15.654 18.017,3.307 1.043,-4.715 0.663,-8.127 3.083,-12.982 C -9.979,54.853 2.456,48.487 7.497,37.179 13.109,24.591 10.609,9.078 0,0"
       style="fill:#fe9b01;fill-opacity:1;fill-rule:nonzero;stroke:none"
       transform="matrix(0.35277776,0,0,-0.35277776,1299.4439,-6459.6218)"
       clip-path="url(#clipPath1155)" />
    <path
       id="path1152-2"
       d="m 0,0 c -2.273,0 -4.146,4.065 -5.139,6.038 -5.917,11.764 -9.826,25.557 -15.563,37.525 -1.399,3.235 -6.057,2.836 -7.367,0.306 L -44.928,3.704 c -1.59,-2.723 -2.968,-3.737 -6.043,-3.737 -10.239,0 -32.903,0.034 -43.352,0.034 -8.123,0 -7.511,8.073 -3.706,13.482 l 65.264,103.756 c -2.424,5.477 -11.923,14.914 -7.42,20.718 5.642,7.273 11.075,-3.73 14.691,-8.739 2.548,4.152 3.495,4.548 5.249,6.761 3.183,4.015 8.888,5.482 11.355,0.393 2.554,-5.268 -6.892,-13.867 -8.079,-19.257 L 32.337,39.345 C 24.755,26.979 19.03,13.704 27.598,0 Z"
       style="fill:#fe9b01;fill-opacity:1;fill-rule:nonzero;stroke:none"
       transform="matrix(0.35277776,0,0,-0.35277776,61.992151,-17.684189)"
       clip-path="url(#clipPath1153-9)" />
    <path
       id="path1154-9"
       d="m 0,0 h 12.969 c 9.27,0 9.805,-16.435 -10e-4,-16.435 l -71.162,-0.181 C -67.626,-16.616 -66.717,0 -58.202,0 h 14.184 l -2.88,2.721 c -3.242,3.062 -5.802,6.813 -7.235,11.035 -1.168,3.438 -1.631,7.064 -0.761,10.737 1.83,7.728 6.342,-2.321 12.78,1.894 4.774,3.125 -1.17,10.568 -2.626,15.148 -4.54,14.289 -1.256,22.861 8.39,33.568 4.518,5.016 15.286,15.654 18.017,3.307 1.043,-4.715 0.663,-8.127 3.083,-12.982 C -9.979,54.853 2.456,48.487 7.497,37.179 13.109,24.591 10.609,9.078 0,0"
       style="fill:#fe9b01;fill-opacity:1;fill-rule:nonzero;stroke:none"
       transform="matrix(0.35277776,0,0,-0.35277776,92.679266,-15.959355)"
       clip-path="url(#clipPath1155-5)" />
  </g>
</svg>
