<?xml version="1.0" encoding="UTF-8" standalone="no"?>
<!-- Created with Inkscape (http://www.inkscape.org/) -->

<svg
   width="64.907837mm"
   height="64.907814mm"
   viewBox="0 0 64.907837 64.907814"
   version="1.1"
   id="svg1"
   inkscape:version="1.4.2 (ebf0e940, 2025-05-08)"
   sodipodi:docname="compass.svg"
   xmlns:inkscape="http://www.inkscape.org/namespaces/inkscape"
   xmlns:sodipodi="http://sodipodi.sourceforge.net/DTD/sodipodi-0.dtd"
   xmlns="http://www.w3.org/2000/svg"
   xmlns:svg="http://www.w3.org/2000/svg">
  <sodipodi:namedview
     id="namedview1"
     pagecolor="#ffffff"
     bordercolor="#000000"
     borderopacity="0.25"
     inkscape:showpageshadow="2"
     inkscape:pageopacity="0.0"
     inkscape:pagecheckerboard="0"
     inkscape:deskcolor="#d1d1d1"
     inkscape:document-units="mm"
     inkscape:zoom="0.01"
     inkscape:cx="150"
     inkscape:cy="150"
     inkscape:window-width="896"
     inkscape:window-height="204"
     inkscape:window-x="0"
     inkscape:window-y="39"
     inkscape:window-maximized="0"
     inkscape:current-layer="layer1" />
  <defs
     id="defs1">
    <clipPath
       clipPathUnits="userSpaceOnUse"
       id="clipPath649">
      <path
         d="M 0,276 H 276 V 0 H 0 Z"
         transform="translate(-207.29288,-133.1617)"
         id="path649" />
    </clipPath>
  </defs>
  <g
     inkscape:label="Layer 1"
     inkscape:groupmode="layer"
     id="layer1"
     transform="translate(-60.060404,-112.97708)">
    <path
       id="path648"
       d="m 0,0 h -8.962 c -2.797,0 -5.065,2.289 -5.065,5.113 0,2.823 2.268,5.113 5.065,5.113 H 0 c 2.797,0 5.065,-2.29 5.065,-5.113 C 5.065,2.289 2.797,0 0,0 m -47.878,-4.21 c -5.587,-9.946 -10.006,-11.573 -19.676,-16.956 -15.368,-8.554 -31.863,-16.21 -47.733,-24.071 -2.604,-1.29 -5.526,1.159 -4.698,3.966 0.008,0.025 0.015,0.051 0.023,0.077 2.59,8.61 13.208,26.537 17.926,35.32 4.757,8.855 9.543,17.78 14.927,26.273 1.901,2.999 4.624,5.367 7.806,6.901 17.165,8.276 34.74,18.636 52.035,25.629 0.363,0.147 0.721,0.299 1.077,0.451 2.74,1.168 5.439,-1.765 4.066,-4.428 C -31.114,31.533 -38.353,12.746 -47.878,-4.21 m -16.078,-60.896 c 0,-2.823 -2.268,-5.113 -5.065,-5.113 v 0 c -2.797,0 -5.065,2.29 -5.065,5.113 v 9.046 c 0,2.824 2.268,5.113 5.065,5.113 v 0 c 2.797,0 5.065,-2.289 5.065,-5.113 z m -65.668,64.557 h -8.962 c -2.797,0 -5.065,2.289 -5.065,5.113 0,2.824 2.268,5.113 5.065,5.113 h 8.962 c 2.797,0 5.065,-2.289 5.065,-5.113 0,-2.824 -2.268,-5.113 -5.065,-5.113 m 54.994,75.332 c 0,2.823 2.268,5.112 5.065,5.112 2.798,0 5.065,-2.289 5.065,-5.112 v -9.047 c 0,-2.823 -2.267,-5.112 -5.065,-5.112 -2.797,0 -5.065,2.289 -5.065,5.112 z m -1.672,21.821 c -58.377,-3.931 -97.279,-61.05 -81.43,-117.766 20.969,-75.043 125.643,-90.517 166.301,-23.376 39.701,65.559 -9.207,146.237 -84.871,141.142"
       style="fill:#fe9b01;fill-opacity:1;fill-rule:nonzero;stroke:none"
       transform="matrix(0.35277776,0,0,-0.35277776,116.95927,147.13786)"
       clip-path="url(#clipPath649)" />
  </g>
</svg>
