<?xml version="1.0" encoding="UTF-8" standalone="no"?>
<!-- Created with Inkscape (http://www.inkscape.org/) -->

<svg
   width="73.469368mm"
   height="69.708191mm"
   viewBox="0 0 73.469368 69.708191"
   version="1.1"
   id="svg1"
   inkscape:version="1.4.2 (ebf0e940, 2025-05-08)"
   sodipodi:docname="conversion.svg"
   xmlns:inkscape="http://www.inkscape.org/namespaces/inkscape"
   xmlns:sodipodi="http://sodipodi.sourceforge.net/DTD/sodipodi-0.dtd"
   xmlns="http://www.w3.org/2000/svg"
   xmlns:svg="http://www.w3.org/2000/svg">
  <sodipodi:namedview
     id="namedview1"
     pagecolor="#ffffff"
     bordercolor="#000000"
     borderopacity="0.25"
     inkscape:showpageshadow="2"
     inkscape:pageopacity="0.0"
     inkscape:pagecheckerboard="0"
     inkscape:deskcolor="#d1d1d1"
     inkscape:document-units="mm"
     inkscape:zoom="0.26336688"
     inkscape:cx="96.82311"
     inkscape:cy="-64.54874"
     inkscape:window-width="1712"
     inkscape:window-height="971"
     inkscape:window-x="0"
     inkscape:window-y="39"
     inkscape:window-maximized="1"
     inkscape:current-layer="layer1" />
  <defs
     id="defs1">
    <clipPath
       clipPathUnits="userSpaceOnUse"
       id="clipPath2187">
      <path
         d="M 0,276 H 276 V 0 H 0 Z"
         transform="translate(-241.01731,-93.298802)"
         id="path2187" />
    </clipPath>
    <clipPath
       clipPathUnits="userSpaceOnUse"
       id="clipPath2185">
      <path
         d="M 0,276 H 276 V 0 H 0 Z"
         transform="translate(-170.30543,-98.2888)"
         id="path2185" />
    </clipPath>
    <clipPath
       clipPathUnits="userSpaceOnUse"
       id="clipPath2183">
      <path
         d="M 0,276 H 276 V 0 H 0 Z"
         transform="translate(-197.2644,-177.0127)"
         id="path2183" />
    </clipPath>
    <clipPath
       clipPathUnits="userSpaceOnUse"
       id="clipPath2181">
      <path
         d="M 0,276 H 276 V 0 H 0 Z"
         transform="translate(-130.6203,-159.8362)"
         id="path2181" />
    </clipPath>
  </defs>
  <g
     inkscape:label="Layer 1"
     inkscape:groupmode="layer"
     id="layer1"
     transform="translate(-587.11033,-1519.7666)">
    <path
       id="path2180"
       d="m 0,0 c 0,-1.098 -0.059,-2.029 -0.176,-2.793 -0.118,-0.765 -0.285,-1.383 -0.5,-1.853 -0.216,-0.47 -0.462,-0.805 -0.736,-1.001 C -1.687,-5.843 -2,-5.94 -2.353,-5.94 h -47.174 c -0.353,0 -0.667,0.097 -0.941,0.293 -0.275,0.196 -0.52,0.531 -0.735,1.001 -0.216,0.47 -0.383,1.088 -0.5,1.853 -0.118,0.764 -0.177,1.695 -0.177,2.793 0,1.138 0.049,2.089 0.148,2.854 0.097,0.764 0.254,1.381 0.47,1.851 0.215,0.472 0.471,0.805 0.765,1.001 0.294,0.196 0.617,0.295 0.97,0.295 h 6.235 v 20.94 h -6.235 c -0.353,0 -0.667,0.087 -0.941,0.264 -0.275,0.176 -0.52,0.49 -0.735,0.94 -0.216,0.451 -0.383,1.049 -0.5,1.795 -0.118,0.744 -0.177,1.685 -0.177,2.823 0,1.098 0.049,2.019 0.148,2.765 0.097,0.744 0.254,1.343 0.47,1.794 0.215,0.451 0.471,0.774 0.765,0.97 0.294,0.196 0.617,0.295 0.97,0.295 h 6.235 v 5.411 c 0,4.783 0.53,8.912 1.588,12.382 1.059,3.47 2.608,6.323 4.647,8.558 2.039,2.236 4.568,3.872 7.588,4.911 3.019,1.039 6.489,1.56 10.411,1.56 1.725,0 3.382,-0.129 4.971,-0.383 1.588,-0.256 3.048,-0.608 4.382,-1.059 1.333,-0.451 2.538,-0.98 3.617,-1.587 1.078,-0.609 1.862,-1.168 2.353,-1.678 0.49,-0.51 0.843,-0.932 1.059,-1.264 0.215,-0.334 0.382,-0.745 0.499,-1.234 0.118,-0.493 0.207,-1.089 0.266,-1.795 0.058,-0.705 0.087,-1.569 0.087,-2.589 0,-1.098 -0.049,-2.02 -0.146,-2.764 -0.099,-0.746 -0.246,-1.343 -0.442,-1.794 -0.196,-0.451 -0.431,-0.775 -0.705,-0.971 -0.275,-0.196 -0.569,-0.293 -0.882,-0.293 -0.55,0 -1.168,0.274 -1.854,0.822 -0.686,0.55 -1.549,1.148 -2.588,1.794 -1.039,0.647 -2.264,1.245 -3.676,1.795 -1.412,0.549 -3.098,0.823 -5.059,0.823 -1.96,0 -3.627,-0.323 -4.999,-0.97 -1.373,-0.647 -2.491,-1.589 -3.353,-2.824 -0.863,-1.234 -1.491,-2.764 -1.882,-4.587 -0.393,-1.824 -0.588,-3.912 -0.588,-6.265 v -5.999 h 15.822 c 0.353,0 0.677,-0.099 0.971,-0.295 0.294,-0.196 0.538,-0.519 0.735,-0.97 0.196,-0.451 0.353,-1.05 0.471,-1.794 0.118,-0.746 0.176,-1.667 0.176,-2.765 0,-1.138 -0.058,-2.079 -0.176,-2.823 -0.118,-0.746 -0.285,-1.344 -0.501,-1.795 -0.215,-0.45 -0.461,-0.764 -0.735,-0.94 -0.275,-0.177 -0.588,-0.264 -0.941,-0.264 H -27.998 V 6.001 H -2.353 C -2,6.001 -1.676,5.902 -1.382,5.706 -1.088,5.51 -0.844,5.177 -0.647,4.705 -0.451,4.235 -0.294,3.618 -0.176,2.854 -0.059,2.089 0,1.138 0,0"
       style="fill:#fe9b01;fill-opacity:1;fill-rule:nonzero;stroke:none"
       transform="matrix(0.35277776,0,0,-0.35277776,621.19435,1549.3155)"
       clip-path="url(#clipPath2181)" />
    <path
       id="path2182"
       d="m 0,0 c 0,-3.373 -0.598,-6.412 -1.794,-9.117 -1.197,-2.706 -2.892,-5.04 -5.088,-7 -2.196,-1.961 -4.844,-3.529 -7.94,-4.707 -3.099,-1.176 -6.529,-1.921 -10.294,-2.234 l -1.235,-12.587 c -0.04,-0.314 -0.128,-0.588 -0.265,-0.824 -0.138,-0.236 -0.393,-0.432 -0.765,-0.588 -0.373,-0.156 -0.882,-0.284 -1.529,-0.383 -0.647,-0.097 -1.461,-0.146 -2.441,-0.146 -1.256,0 -2.265,0.057 -3.029,0.175 -0.765,0.118 -1.363,0.285 -1.795,0.5 -0.431,0.217 -0.715,0.501 -0.852,0.853 -0.138,0.354 -0.167,0.746 -0.088,1.177 l 1.234,11.94 c -1.686,0.235 -3.274,0.538 -4.764,0.913 -1.49,0.371 -2.843,0.784 -4.058,1.234 -1.217,0.45 -2.265,0.912 -3.147,1.382 -0.883,0.472 -1.55,0.932 -2,1.383 -0.451,0.451 -0.775,1.117 -0.971,2 -0.197,0.882 -0.294,2.186 -0.294,3.911 0,1.333 0.038,2.432 0.118,3.294 0.078,0.862 0.215,1.53 0.412,2 0.195,0.471 0.44,0.795 0.735,0.97 0.294,0.177 0.637,0.266 1.03,0.266 0.509,0 1.254,-0.295 2.234,-0.883 0.98,-0.588 2.236,-1.235 3.765,-1.94 1.529,-0.706 3.382,-1.353 5.558,-1.943 2.177,-0.588 4.736,-0.881 7.676,-0.881 4.588,0 8,0.853 10.235,2.559 2.235,1.705 3.353,3.969 3.353,6.793 0,1.883 -0.481,3.43 -1.441,4.648 -0.961,1.214 -2.245,2.283 -3.853,3.204 -1.608,0.921 -3.421,1.745 -5.441,2.471 -2.02,0.725 -4.088,1.5 -6.205,2.323 -2.118,0.824 -4.187,1.785 -6.206,2.883 -2.02,1.098 -3.833,2.45 -5.441,4.058 -1.608,1.608 -2.892,3.56 -3.853,5.853 -0.961,2.294 -1.44,5.068 -1.44,8.323 0,2.942 0.489,5.617 1.47,8.029 0.98,2.411 2.391,4.519 4.235,6.323 1.843,1.804 4.108,3.265 6.794,4.382 2.685,1.118 5.735,1.872 9.146,2.266 l 1.177,11.822 c 0.038,0.313 0.127,0.577 0.264,0.794 0.137,0.215 0.392,0.411 0.765,0.588 0.372,0.177 0.872,0.303 1.5,0.382 0.627,0.079 1.45,0.118 2.471,0.118 1.215,0 2.225,-0.059 3.029,-0.177 0.803,-0.117 1.42,-0.285 1.853,-0.5 0.431,-0.215 0.706,-0.499 0.823,-0.852 0.118,-0.353 0.177,-0.746 0.177,-1.176 l -1.177,-11.117 c 1.097,-0.158 2.255,-0.373 3.47,-0.647 1.215,-0.276 2.353,-0.599 3.412,-0.971 1.059,-0.374 2.019,-0.764 2.882,-1.177 0.862,-0.411 1.461,-0.784 1.794,-1.117 0.333,-0.334 0.588,-0.668 0.765,-1.001 0.176,-0.333 0.313,-0.744 0.412,-1.235 0.097,-0.49 0.166,-1.078 0.206,-1.763 0.038,-0.687 0.059,-1.482 0.059,-2.383 0,-1.217 -0.03,-2.216 -0.089,-3 -0.059,-0.785 -0.167,-1.383 -0.323,-1.794 -0.157,-0.411 -0.334,-0.687 -0.529,-0.824 -0.197,-0.137 -0.433,-0.205 -0.706,-0.205 -0.511,0 -1.256,0.255 -2.236,0.764 -0.98,0.509 -2.186,1.059 -3.617,1.647 -1.432,0.589 -3.079,1.137 -4.941,1.647 -1.863,0.51 -3.911,0.765 -6.147,0.765 -2.039,0 -3.784,-0.196 -5.235,-0.588 -1.451,-0.392 -2.627,-0.942 -3.529,-1.648 -0.903,-0.705 -1.569,-1.548 -2,-2.528 -0.432,-0.982 -0.647,-2.059 -0.647,-3.236 0,-1.844 0.49,-3.393 1.471,-4.647 0.979,-1.255 2.283,-2.333 3.911,-3.234 1.627,-0.904 3.471,-1.726 5.529,-2.472 2.059,-0.744 4.156,-1.528 6.294,-2.352 2.137,-0.823 4.235,-1.775 6.294,-2.853 2.059,-1.079 3.891,-2.411 5.5,-4 C -3.745,12.322 -2.451,10.4 -1.47,8.146 -0.491,5.891 0,3.176 0,0"
       style="fill:#fe9b01;fill-opacity:1;fill-rule:nonzero;stroke:none"
       transform="matrix(0.35277776,0,0,-0.35277776,644.70491,1543.256)"
       clip-path="url(#clipPath2183)" />
    <path
       id="path2184"
       d="m 0,0 v 13 h -87.763 v 19.025 c 0,3.792 -4.585,5.691 -7.267,3.01 L -135.054,-4.99 c -1.663,-1.662 -1.663,-4.357 0,-6.02 l 40.024,-40.025 c 2.682,-2.681 7.267,-0.782 7.267,3.01 V 0 Z"
       style="fill:#fe9b01;fill-opacity:1;fill-rule:nonzero;stroke:none"
       transform="matrix(0.35277776,0,0,-0.35277776,635.19438,1571.0281)"
       clip-path="url(#clipPath2185)" />
    <path
       id="path2186"
       d="m 0,0 -40.025,40.025 c -2.682,2.681 -7.267,0.782 -7.267,-3.01 V -11.01 h -88.03 v -13 h 88.03 v -19.025 c 0,-3.792 4.585,-5.691 7.267,-3.01 L 0,-6.02 C 1.662,-4.357 1.662,-1.662 0,0"
       style="fill:#fe9b01;fill-opacity:1;fill-rule:nonzero;stroke:none"
       transform="matrix(0.35277776,0,0,-0.35277776,660.13996,1572.7884)"
       clip-path="url(#clipPath2187)" />
  </g>
</svg>
