<?xml version="1.0" encoding="UTF-8" standalone="no"?>
<!-- Created with Inkscape (http://www.inkscape.org/) -->

<svg
   width="73.377365mm"
   height="56.726749mm"
   viewBox="0 0 73.377365 56.726749"
   version="1.1"
   id="svg1"
   inkscape:version="1.4.2 (ebf0e940, 2025-05-08)"
   sodipodi:docname="ferry.svg"
   xmlns:inkscape="http://www.inkscape.org/namespaces/inkscape"
   xmlns:sodipodi="http://sodipodi.sourceforge.net/DTD/sodipodi-0.dtd"
   xmlns="http://www.w3.org/2000/svg"
   xmlns:svg="http://www.w3.org/2000/svg">
  <sodipodi:namedview
     id="namedview1"
     pagecolor="#ffffff"
     bordercolor="#000000"
     borderopacity="0.25"
     inkscape:showpageshadow="2"
     inkscape:pageopacity="0.0"
     inkscape:pagecheckerboard="0"
     inkscape:deskcolor="#d1d1d1"
     inkscape:document-units="mm"
     inkscape:zoom="0.01"
     inkscape:cx="150"
     inkscape:cy="100"
     inkscape:window-width="1712"
     inkscape:window-height="971"
     inkscape:window-x="0"
     inkscape:window-y="39"
     inkscape:window-maximized="1"
     inkscape:current-layer="layer1" />
  <defs
     id="defs1">
    <clipPath
       clipPathUnits="userSpaceOnUse"
       id="clipPath1929">
      <path
         d="M 0,276 H 276 V 0 H 0 Z"
         transform="translate(-154.08968,-153.9255)"
         id="path1929" />
    </clipPath>
    <clipPath
       clipPathUnits="userSpaceOnUse"
       id="clipPath1927">
      <path
         d="M 0,276 H 276 V 0 H 0 Z"
         transform="translate(-228.12361,-73.982304)"
         id="path1927" />
    </clipPath>
  </defs>
  <g
     inkscape:label="Layer 1"
     inkscape:groupmode="layer"
     id="layer1"
     transform="translate(-55.827121,-130.43958)">
    <path
       id="path1926"
       d="m 0,0 c -0.584,0.124 -8.649,-2.151 -11.74,-2.023 -9.544,0.393 -15.039,8.324 -23.188,8.239 -5.993,-0.062 -12.149,-5.641 -17.656,-7.433 -17.356,-5.647 -22.843,9.022 -36.319,7.509 -8.145,-0.914 -13.192,-8.993 -23.921,-9.126 -11.864,-0.147 -18.638,10.516 -29.211,9.026 -5.254,-0.74 -9.6,-5.224 -14.351,-6.995 -10.164,-3.788 -14.987,-1.136 -24.158,2.106 -0.839,0.297 -1.479,1.361 -2.245,0.155 -2.889,-4.547 3.718,-13.404 8.604,-15.618 15.168,-6.875 23.108,4.395 35.136,4.395 7.627,0.001 13.406,-4.985 21.024,-6.045 11.624,-1.618 13.9,1.417 23.105,4.942 13.291,5.089 13.601,-0.334 24.41,-3.694 19.08,-5.933 25.006,6.707 40.169,4.591 7.357,-1.027 11.976,-6.218 20.857,-5.45 C 0.46,-14.561 3.735,-0.791 0,0"
       style="fill:#fe9b01;fill-opacity:1;fill-rule:nonzero;stroke:none"
       transform="matrix(0.35277776,0,0,-0.35277776,124.30948,181.38695)"
       clip-path="url(#clipPath1927)" />
    <path
       id="path1928"
       d="m 0,0 c 0,-2.452 -2.247,-4.44 -5.019,-4.44 h -17.382 c -2.772,0 -5.019,1.988 -5.019,4.44 v 12.523 c 0,2.452 2.247,4.44 5.019,4.44 H -5.019 C -2.247,16.963 0,14.975 0,12.523 Z m -42.473,0 c 0,-2.452 -2.247,-4.44 -5.019,-4.44 h -17.382 c -2.772,0 -5.019,1.988 -5.019,4.44 v 12.523 c 0,2.452 2.247,4.44 5.019,4.44 h 17.382 c 2.772,0 5.019,-1.988 5.019,-4.44 z M 83.438,0.053 c -3.389,0.6 -21.083,-5.032 -26.099,-6.15 -2.088,-0.466 -4.187,-0.895 -6.289,-1.315 l -6.899,23.491 v -0.001 c -1.481,4.991 -3.257,10.353 -5.054,13.586 -4.078,7.34 -19.114,6.37 -29.757,6.37 -0.062,0.929 -0.061,1.863 -0.427,2.759 -1.622,3.969 -8.908,21.811 -10.319,23.921 -0.549,0.821 -1.159,1.787 -3.573,1.76 l -60.433,-0.371 v -16.86 h 31 v -11.24 h -47.296 c -2.605,0 -4.861,-3.309 -5.406,-5.76 l -14.449,-56.075 c -5.877,-2.553 -17.806,1.218 -18.524,-6.824 -0.163,-1.826 8.329,-26.138 9.761,-28.992 2.167,-4.316 14.639,-8.935 19.887,-8.45 5.809,0.536 10.033,5.594 15.038,7.094 6.426,1.925 14.64,1.796 20.869,-0.617 7.18,-2.782 9.96,-8.54 19.898,-5.907 7.91,2.096 10.722,8.088 22.073,7.94 11.82,-0.155 18.091,-9.134 27.861,-8.53 6.103,0.378 10.34,5.757 16.269,7.413 14.978,4.184 21.906,-4.878 34.894,-7.305 5.987,18.832 14.376,37.748 19.721,56.685 1.127,3.992 4.382,12.117 -2.746,13.378"
       style="fill:#fe9b01;fill-opacity:1;fill-rule:nonzero;stroke:none"
       transform="matrix(0.35277776,0,0,-0.35277776,98.191961,153.18477)"
       clip-path="url(#clipPath1929)" />
  </g>
</svg>
