<?xml version="1.0" encoding="UTF-8" standalone="no"?>
<!-- Created with Inkscape (http://www.inkscape.org/) -->

<svg
   width="104.65606mm"
   height="84.730339mm"
   viewBox="0 0 104.65606 84.730339"
   version="1.1"
   id="svg1"
   xml:space="preserve"
   inkscape:version="1.4.2 (ebf0e940, 2025-05-08)"
   sodipodi:docname="flipflops.svg"
   xmlns:inkscape="http://www.inkscape.org/namespaces/inkscape"
   xmlns:sodipodi="http://sodipodi.sourceforge.net/DTD/sodipodi-0.dtd"
   xmlns="http://www.w3.org/2000/svg"
   xmlns:svg="http://www.w3.org/2000/svg"><sodipodi:namedview
     id="namedview1"
     pagecolor="#ffffff"
     bordercolor="#000000"
     borderopacity="0.25"
     inkscape:showpageshadow="2"
     inkscape:pageopacity="0.0"
     inkscape:pagecheckerboard="0"
     inkscape:deskcolor="#d1d1d1"
     inkscape:document-units="mm"
     inkscape:zoom="1.0160422"
     inkscape:cx="219.97118"
     inkscape:cy="51.178977"
     inkscape:window-width="1712"
     inkscape:window-height="971"
     inkscape:window-x="0"
     inkscape:window-y="39"
     inkscape:window-maximized="1"
     inkscape:current-layer="layer1" /><defs
     id="defs1"><clipPath
       clipPathUnits="userSpaceOnUse"
       id="clipPath2314"><path
         d="M 0,276 H 276 V 0 H 0 Z"
         transform="translate(-148.9467,-129.83061)"
         id="path2314" /></clipPath><clipPath
       clipPathUnits="userSpaceOnUse"
       id="clipPath2312"><path
         d="M 0,276 H 276 V 0 H 0 Z"
         transform="translate(-148.39778,-173.41941)"
         id="path2312" /></clipPath></defs><g
     inkscape:label="Layer 1"
     inkscape:groupmode="layer"
     id="layer1"
     transform="translate(-119.85623,-656.85733)"><path
       id="path2311"
       d="m 0,0 c -0.105,4.373 1.438,8.846 1.858,13.198 0.382,3.963 0.469,9.191 -0.007,13.128 -0.217,1.789 -1.905,7.078 -1.747,7.867 0.644,3.23 6.791,6.576 1.946,10.326 -4.772,3.694 -7.104,-3.548 -9.714,-4.415 -0.851,-0.282 -8.39,0.326 -10.442,0.167 C -39.545,38.615 -58.865,23.788 -65.01,2.82 c -1.997,-6.812 4.161,-9.847 7.873,-6.244 1.702,1.652 4.61,11.204 6.626,14.478 6.819,11.069 19.371,19.58 32.513,20.218 9.285,0.45 10.208,-1.728 10.692,-10.503 0.47,-8.508 -2.349,-21.764 -6.605,-29.141 -3.677,-6.374 -9.081,-10.613 -13.105,-16.158 -10.066,-13.869 -16.777,-42.241 -38.239,-40.44 -17.355,1.457 -27.723,19.881 -21.688,35.714 15.537,25.56 27.059,59.522 46.394,82.204 14.244,16.709 46.347,22.686 61.771,4.587 C 37.286,38.685 15.733,11.355 0,0"
       style="fill:#fe9b01;fill-opacity:1;fill-rule:nonzero;stroke:none"
       transform="matrix(0.35277776,0,0,-0.35277776,151.13778,692.00517)"
       clip-path="url(#clipPath2312)" /><path
       style="fill:#fe9b01;fill-opacity:1;stroke-width:0.113309"
       d="m 208.73386,656.85733 c -10.43675,0 -25.25627,0 -25.25627,0 l 0.15625,1.40616 c 7.37583,0.13223 13.31445,6.15175 13.31445,13.55908 0,5.90939 -4.7252,10.71198 -10.60297,10.84364 l 0.15591,1.40299 c 0,0 19.91275,0 25.25627,0 6.67943,0 12.09423,-5.4148 12.09423,-12.09412 0,-8.34937 -6.76849,-15.11775 -15.11787,-15.11775 z"
       id="path3" /><path
       id="path2313"
       d="M 0,0 C -1.205,0.622 -0.86,0.549 -0.675,1.468 0.853,9.034 10.554,24.399 15.677,30.259 34.838,52.176 60.121,38.379 66.46,13.248 71.27,-5.823 63.202,-21.197 51.352,-35.824 38.492,-51.699 17.281,-73.284 2.256,-87.438 c -12.935,-12.185 -31.776,-13.992 -42.482,2.363 -13.491,20.607 14.08,37.944 24.535,52.422 7.609,10.538 8.072,16.295 19.928,24.749 4.494,3.205 18.501,10.082 23.8,9.544 5.821,-0.591 7.038,-11.877 7.208,-16.539 0.388,-10.595 -2.59,-20.012 -9.412,-28.271 -2.635,-3.192 -10.454,-8.622 -11.766,-10.889 -2.8,-4.835 2.091,-10.163 8.582,-5.692 16.516,11.377 24.926,33.062 21.334,52.606 -0.509,2.775 -4.609,12.323 -4.519,13.303 0.295,3.22 5.884,7.409 1.103,10.611 -5.073,3.399 -6.323,-3.458 -9.18,-5.108 C 30.054,10.892 26.862,11.477 25.135,11.124 16.305,9.316 7.357,5.231 0,0"
       style="fill:#fe9b01;fill-opacity:1;fill-rule:nonzero;stroke:none"
       transform="matrix(0.35277776,0,0,-0.35277776,151.33143,707.38233)"
       clip-path="url(#clipPath2314)" /><path
       style="fill:#fe9b01;fill-opacity:1;stroke-width:0.113309"
       d="m 224.51229,690.52418 h -38.81128 c -9.29244,0 -16.03702,-6.1998 -16.03702,-14.74191 0,-9.29245 6.20002,-16.03692 14.74202,-16.03692 6.70459,0 12.15904,5.45457 12.15904,12.15904 0,5.20891 -4.23775,9.44666 -9.44666,9.44666 -4.01248,0 -7.27679,-3.26443 -7.27679,-7.27657 0,-3.05514 2.48565,-5.5408 5.54079,-5.5408 2.28929,0 4.15197,1.86246 4.15197,4.15197 0,0.77481 0.6283,1.4031 1.4031,1.4031 0.7748,0 1.4031,-0.62829 1.4031,-1.4031 0,-3.83685 -3.12143,-6.95828 -6.95828,-6.95828 -4.60271,0 -8.347,3.74451 -8.347,8.34699 0,5.55972 4.52328,10.08289 10.083,10.08289 6.75614,0 12.25297,-5.49672 12.25297,-12.25297 0,-8.25193 -6.71354,-14.96536 -14.96535,-14.96536 -4.98264,0 -9.50309,1.9795 -12.72887,5.57411 -3.10772,3.46316 -4.81925,8.17556 -4.81925,13.26924 0,4.98263 1.97951,9.50308 5.57422,12.72886 3.46317,3.10783 8.17556,4.81947 13.26913,4.81947 h 34.58112 c 1.90211,-1.1e-4 3.5341,-1.15744 4.23004,-2.80642 z"
       id="path2" /></g></svg>
