<?xml version="1.0" encoding="UTF-8" standalone="no"?>
<!-- Created with Inkscape (http://www.inkscape.org/) -->

<svg
   width="62.549271mm"
   height="64.906166mm"
   viewBox="0 0 62.549271 64.906166"
   version="1.1"
   id="svg1"
   inkscape:version="1.4.2 (ebf0e940, 2025-05-08)"
   sodipodi:docname="gaspump.svg"
   xmlns:inkscape="http://www.inkscape.org/namespaces/inkscape"
   xmlns:sodipodi="http://sodipodi.sourceforge.net/DTD/sodipodi-0.dtd"
   xmlns="http://www.w3.org/2000/svg"
   xmlns:svg="http://www.w3.org/2000/svg">
  <sodipodi:namedview
     id="namedview1"
     pagecolor="#ffffff"
     bordercolor="#000000"
     borderopacity="0.25"
     inkscape:showpageshadow="2"
     inkscape:pageopacity="0.0"
     inkscape:pagecheckerboard="0"
     inkscape:deskcolor="#d1d1d1"
     inkscape:document-units="mm"
     inkscape:zoom="0.033544585"
     inkscape:cx="730.37124"
     inkscape:cy="-29.811071"
     inkscape:window-width="1712"
     inkscape:window-height="971"
     inkscape:window-x="0"
     inkscape:window-y="39"
     inkscape:window-maximized="1"
     inkscape:current-layer="layer1" />
  <defs
     id="defs1">
    <clipPath
       clipPathUnits="userSpaceOnUse"
       id="clipPath4372">
      <path
         d="M 0,276 H 276 V 0 H 0 Z"
         transform="translate(-165.72375,-167.72991)"
         id="path4372" />
    </clipPath>
  </defs>
  <g
     inkscape:label="Layer 1"
     inkscape:groupmode="layer"
     id="layer1"
     transform="translate(465.13743,-251.61875)">
    <path
       id="path4371"
       d="M 0,0 C 0,-5.689 -4.612,-10.302 -10.302,-10.302 H -76.55 c -5.689,0 -10.302,4.613 -10.302,10.302 v 31.969 c 0,5.689 4.613,10.301 10.302,10.301 h 66.248 C -4.612,42.27 0,37.658 0,31.969 Z m 60.13,9.86 c -1.445,10.996 -19.588,17.297 -27.05,24.28 -2.579,1.597 -6.917,1.11 -7.553,-2.252 -1.054,-5.565 8.568,-10.474 11.23,-14.789 -0.499,-7.507 -2.356,-21.627 3.063,-27.543 2.297,-2.507 7.066,-3.288 7.658,-7.009 l -0.02,-61.884 c -0.602,-6.671 -9.166,-6.872 -9.955,-0.076 -1.364,11.75 1.115,26.055 0.042,38.034 -0.817,9.118 -9.289,14.443 -18.033,13.633 l -0.068,68.918 c 0,11.583 -10.781,21.091 -22.24,21.091 -27.106,0 -54.293,-0.095 -81.161,-0.095 -14.649,0 -22.543,-10.811 -22.543,-21.7 v -142.195 c -12.453,0 -13.858,-19.996 -0.021,-19.996 H 23.051 c 8.486,0 11.712,19.996 -3.535,19.996 v 60.654 c 2.283,0.101 4.795,0.423 5.315,-2.352 0.789,-11.637 -0.999,-24.477 0.029,-35.963 2.123,-23.716 33.495,-23.552 35.351,-0.034 2.262,28.66 -1.694,60.309 -0.081,89.282"
       style="fill:#fe9b01;fill-opacity:1;fill-rule:nonzero;stroke:none"
       transform="matrix(0.35277776,0,0,-0.35277776,-424.08239,273.58375)"
       clip-path="url(#clipPath4372)" />
  </g>
</svg>
