<?xml version="1.0" encoding="UTF-8" standalone="no"?>
<!-- Created with Inkscape (http://www.inkscape.org/) -->

<svg
   width="55.304344mm"
   height="73.376503mm"
   viewBox="0 0 55.304344 73.376503"
   version="1.1"
   id="svg1"
   inkscape:version="1.4.2 (ebf0e940, 2025-05-08)"
   sodipodi:docname="globe.svg"
   xmlns:inkscape="http://www.inkscape.org/namespaces/inkscape"
   xmlns:sodipodi="http://sodipodi.sourceforge.net/DTD/sodipodi-0.dtd"
   xmlns="http://www.w3.org/2000/svg"
   xmlns:svg="http://www.w3.org/2000/svg">
  <sodipodi:namedview
     id="namedview1"
     pagecolor="#ffffff"
     bordercolor="#000000"
     borderopacity="0.25"
     inkscape:showpageshadow="2"
     inkscape:pageopacity="0.0"
     inkscape:pagecheckerboard="0"
     inkscape:deskcolor="#d1d1d1"
     inkscape:document-units="mm"
     inkscape:zoom="0.46689911"
     inkscape:cx="328.76482"
     inkscape:cy="-64.253711"
     inkscape:window-width="1712"
     inkscape:window-height="971"
     inkscape:window-x="0"
     inkscape:window-y="39"
     inkscape:window-maximized="1"
     inkscape:current-layer="layer1" />
  <defs
     id="defs1">
    <clipPath
       clipPathUnits="userSpaceOnUse"
       id="clipPath4116">
      <path
         d="M 0,276 H 276 V 0 H 0 Z"
         transform="translate(-115.2795,-203.6608)"
         id="path4116" />
    </clipPath>
    <clipPath
       clipPathUnits="userSpaceOnUse"
       id="clipPath4114">
      <path
         d="M 0,276 H 276 V 0 H 0 Z"
         transform="translate(-171.603,-237.39701)"
         id="path4114" />
    </clipPath>
  </defs>
  <g
     inkscape:label="Layer 1"
     inkscape:groupmode="layer"
     id="layer1"
     transform="translate(-64.82291,-108.74375)">
    <path
       id="path4113"
       d="m 0,0 c -5.401,2.89 -14.718,8.367 -18.672,0.665 -4.481,-8.731 7.195,-11.139 12.643,-14.506 67.79,-41.892 35.273,-144.505 -48.301,-139.704 -9.499,0.545 -28.853,9.225 -25.198,-6.464 1.503,-6.454 19.939,-7.649 25.579,-7.611 v -14.846 h -27.335 c -3.987,0 -8.046,-4.189 -9.027,-5.453 -3.666,-4.726 -6.712,-15.476 0.966,-15.476 l 87.803,0.184 c 9.245,0 -0.716,20.745 -7.464,20.745 h -27.747 v 14.846 c 31.945,2.378 61.358,24.584 74.143,53.635 C 55.341,-73.195 39.722,-21.252 0,0"
       style="fill:#fe9b01;fill-opacity:1;fill-rule:nonzero;stroke:none"
       transform="matrix(0.35277776,0,0,-0.35277776,104.32942,110.36702)"
       clip-path="url(#clipPath4114)" />
    <path
       id="path4115"
       d="m 0,0 c -5.019,-7.056 -9.732,-15.768 -13.755,-25.387 l -14.528,5.08 C -21.804,-9.956 -11.529,-2.775 0,0 m 56.375,-49.908 -14.534,5.082 c 2.85,10.042 4.594,19.803 5.062,28.457 2.005,-2.571 3.758,-5.368 5.207,-8.375 3.827,-7.943 5.256,-16.614 4.265,-25.164 M 30.647,-86.127 c -3.007,-1.449 -6.121,-2.544 -9.291,-3.307 5.026,7.06 9.745,15.782 13.774,25.412 l 14.533,-5.082 C 45.11,-76.408 38.59,-82.3 30.647,-86.127 M 15.903,-57.3 C 8.345,-74.976 -0.084,-84.633 -4.19,-87.253 c -1.578,4.607 -2.154,17.411 2.949,35.948 z m 9.661,55.144 c 1.579,-4.608 2.155,-17.412 -2.949,-35.948 l -17.144,5.995 c 7.558,17.677 15.987,27.333 20.093,29.953 m -60.565,-37.345 14.534,-5.082 c -2.85,-10.042 -4.594,-19.804 -5.062,-28.457 -2.004,2.571 -3.757,5.368 -5.207,8.375 -3.827,7.943 -5.255,16.614 -4.265,25.164 m 23.06,-67.525 c 0.248,-0.099 0.495,-0.193 0.74,-0.279 7.167,-2.505 14.565,-3.75 21.939,-3.75 9.831,0 19.619,2.215 28.737,6.608 15.957,7.69 27.966,21.133 33.812,37.854 5.847,16.721 4.832,34.718 -2.858,50.676 -7.575,15.72 -20.739,27.593 -37.113,33.533 -0.248,0.099 -0.495,0.194 -0.74,0.279 -34.523,12.071 -72.421,-6.194 -84.489,-40.712 -5.846,-16.721 -4.831,-34.718 2.858,-50.676 7.575,-15.719 20.74,-27.593 37.114,-33.533"
       style="fill:#fe9b01;fill-opacity:1;fill-rule:nonzero;stroke:none"
       transform="matrix(0.35277776,0,0,-0.35277776,84.459739,122.2684)"
       clip-path="url(#clipPath4116)" />
  </g>
</svg>
