<?xml version="1.0" encoding="UTF-8" standalone="no"?>
<!-- Created with Inkscape (http://www.inkscape.org/) -->

<svg
   width="114.6942mm"
   height="135.76378mm"
   viewBox="0 0 114.6942 135.76378"
   version="1.1"
   id="svg1"
   xml:space="preserve"
   inkscape:version="1.4.2 (ebf0e940, 2025-05-08)"
   sodipodi:docname="hiking.svg"
   xmlns:inkscape="http://www.inkscape.org/namespaces/inkscape"
   xmlns:sodipodi="http://sodipodi.sourceforge.net/DTD/sodipodi-0.dtd"
   xmlns="http://www.w3.org/2000/svg"
   xmlns:svg="http://www.w3.org/2000/svg"><sodipodi:namedview
     id="namedview1"
     pagecolor="#ffffff"
     bordercolor="#000000"
     borderopacity="0.25"
     inkscape:showpageshadow="2"
     inkscape:pageopacity="0.0"
     inkscape:pagecheckerboard="0"
     inkscape:deskcolor="#d1d1d1"
     inkscape:document-units="mm"
     inkscape:zoom="0.74807654"
     inkscape:cx="0.66838081"
     inkscape:cy="266.01556"
     inkscape:window-width="1712"
     inkscape:window-height="971"
     inkscape:window-x="0"
     inkscape:window-y="39"
     inkscape:window-maximized="1"
     inkscape:current-layer="layer1-0" /><defs
     id="defs1"><clipPath
       clipPathUnits="userSpaceOnUse"
       id="clipPath1673"><path
         d="M 0,276 H 276 V 0 H 0 Z"
         transform="translate(-148.02653,-196.7691)"
         id="path1673" /></clipPath><clipPath
       clipPathUnits="userSpaceOnUse"
       id="clipPath1673-3"><path
         d="M 0,276 H 276 V 0 H 0 Z"
         transform="translate(-148.02653,-196.7691)"
         id="path1673-4" /></clipPath><clipPath
       clipPathUnits="userSpaceOnUse"
       id="clipPath1673-0"><path
         d="M 0,276 H 276 V 0 H 0 Z"
         transform="translate(-148.02653,-196.7691)"
         id="path1673-5" /></clipPath></defs><g
     inkscape:label="Layer 1"
     inkscape:groupmode="layer"
     id="layer1"
     transform="translate(-775.4315,-403.99138)"><path
       id="path1672"
       clip-path="url(#clipPath1673)"
       style="fill:#fe9b01;fill-opacity:1;fill-rule:nonzero;stroke:none"
       d="m -4.6906762,17.136502 c -22.4319998,0.16 -44.9283748,0.242016 -67.2553748,-0.708984 -7.744,-0.33 -18.751813,3.198663 -19.757813,-7.4443367 -0.498,-5.262 0.477859,-11.8498916 0.755859,-17.7128911 0.0758,-1.5986232 0.347265,-3.3690902 0.637207,-5.1577162 8.159691,0.0083 16.322107,-0.03852 24.476076,-0.09668 7.766,-2.658 4.82943,-15.399743 4.69043,-21.635743 0.487863,-5.880903 0.44908,-7.555918 0.716308,-12.878907 0,0 0.774536,-24.36731 5.248536,-25.84131 0.417,-0.138 5.011109,-6.675957 5.162109,-7.105957 12.149069,-13.313311 14.258494,6.545508 55.4979489,-18.030183 11.9726421,-7.135574 13.5910981,-22.041594 12.9468791,-35.172944 2.306392,0.0427 4.358802,0.13215 4.728516,0.25781 1.86,0.633 1.63059,3.96547 3.70459,4.23047 3.054,0.391 1.572949,-3.64708 5.022949,-4.33008 7.199,0.703 15.022029,0.36661 22.103029,1.49561 6.498,1.035 3.576113,2.22191 5.641113,4.73291 2.568,3.122 3.186801,-2.25367 5.945801,-2.68067 1.946,-0.301 12.459904,1.98942 13.899904,3.25342 0.402,0.353 2.170898,3.34571 2.170898,3.55371 v 17.52979 10e-4 0.001 c -2.16e-4,5.2e-4 -0.0012,0.004 -0.0015,0.004 l -0.0015,10e-4 -0.0015,0.001 -0.0015,0.001 c -0.140116,0.11522 -2.390997,-0.11873 -2.86084,-0.007 2.393,15.056004 0.488804,33.10133 -13.825196,41.63233 -12.765,7.607 -29.234088,3.508032 -42.413088,10.582032 -5.883,-2.735 -16.2063413,-17.069872 -22.54834134,-8.942872 -6.14199996,7.871 7.73568804,11.842634 10.80468834,15.723634 0.67,0.847 0.695054,0.74725 0.331054,1.78125 -0.151,0.43 -4.7451092,6.967957 -5.1621092,7.105957 -4.474,1.474 -21.6637358,-7.637527 -23.6777358,1.334473 -2.423,10.793 12.3540285,9.258172 19.1030285,10.951172 l -0.67382815,13.5542 H -15.398685 c -4.475,0 -6.404207,7.6033484 -2.887207,10.7563484 0.519,0.465 3.93129,2.12255871 4.32129,2.12255871 H -2.4627831e-4 C 0.13875372,6.2352941 3.0753238,14.478502 -4.6906762,17.136502 Z"
       transform="matrix(0.35277776,0,0,-0.35277776,836.7702,471.2175)"
       sodipodi:nodetypes="cscsccccccccccccssssccssccscccssscsccssscc" /><path
       id="path1672-8"
       d="m 0,0 h -13.965 c -0.39,0 -3.802,-1.658 -4.321,-2.123 -3.517,-3.153 -1.587,-10.756 2.888,-10.756 H 0.716 L 1.39,-26.434 c -6.749,-1.693 -21.526,-0.158 -19.103,-10.951 2.014,-8.972 19.203,0.14 23.677,-1.334 0.417,-0.138 5.011,-6.677 5.162,-7.107 0.364,-1.034 0.34,-0.934 -0.33,-1.781 -3.069,-3.881 -16.947,-7.853 -10.805,-15.724 6.342,-8.127 16.665,6.208 22.548,8.943 13.179,-7.074 29.649,-2.975 42.414,-10.582 14.314,-8.531 16.218,-26.576 13.825,-41.632 0.485,-0.115 2.866,0.139 2.866,-0.004 v -17.53 c 0,-0.208 -1.769,-3.201 -2.171,-3.554 -1.44,-1.264 -11.954,-3.554 -13.9,-3.253 -2.759,0.427 -3.377,5.803 -5.945,2.681 -2.065,-2.511 0.857,-3.698 -5.641,-4.733 -7.081,-1.129 -14.905,-0.793 -22.104,-1.496 -3.45,0.683 -1.969,4.721 -5.023,4.33 -2.074,-0.265 -1.844,-3.597 -3.704,-4.23 -0.865,-0.294 -10.937,-0.391 -11.937,-0.15 -0.897,0.217 -1.298,4.912 -4.394,4.35 -0.673,-0.122 -0.878,-3.536 -3.025,-4.18 -1.487,-0.446 -8.086,-0.365 -9.9,-0.152 -6.18,0.727 -4.709,6.446 -5.783,7.252 l -25.358,7.786 v -12.521 c 0,-0.201 -1.112,-1.951 -1.433,-2.145 -0.751,-0.454 -14.61,-0.718 -15.989,-0.386 -1.556,0.375 -0.314,5.06 -4.412,4.342 -0.752,-0.132 -0.234,-4.033 -1.558,-4.345 -1.373,-0.324 -13.949,-0.292 -15.585,-0.012 -1.069,0.183 0.499,5.451 -3.547,4.368 -1.088,-0.291 -0.606,-3.64 -2.336,-4.229 -1.622,-0.552 -14.116,-0.252 -15.832,0.444 -0.683,0.277 -3.764,3.141 -3.764,3.394 v 30.408 c 0.794,0.14 3.365,-0.216 3.585,-0.004 0.89,0.858 -0.257,21.126 -0.034,24.718 1.127,18.176 9.552,32.211 8.653,50.799 -0.171,3.547 -1.288,7.903 -1.455,11.425 -0.278,5.863 -1.254,16.95 -0.756,22.212 1.006,10.643 12.014,7.114 19.758,7.444 22.327,0.951 44.823,0.869 67.255,0.709 C 3.075,14.478 0.139,6.236 0,0"
       style="fill:#fe9b01;fill-opacity:1;fill-rule:nonzero;stroke:none"
       transform="matrix(0.35277776,0,0,-0.35277776,811.30794,484.95016)"
       clip-path="url(#clipPath1673-0)" /><g
       id="layer1-0"
       transform="matrix(3.3072917,0,0,3.3072917,854.86875,420.68186)">

<path
   id="path2615"
   style="color:#000000;fill:#fe9b01;fill-opacity:1;fill-rule:evenodd;stroke-linecap:round;stroke-linejoin:round;stroke-miterlimit:4.1;-inkscape-stroke:none"
   d="m -1.5507812,-5.0456384 c -0.5517792,-0.023634 -1.0182392,0.4044722 -1.041875,0.95625 -0.023634,0.5517783 0.4044722,1.0182393 0.95625,1.041875 l 0.99921871,0.042813 L -1.0570312,6.5251428 0.70999999,10.208736 1.3609375,-2.9190759 2.36,-2.8762634 c 0.5517792,0.023634 1.0182393,-0.4046284 1.041875,-0.9564062 0.023635,-0.5517774 -0.4044722,-1.0182393 -0.95625,-1.041875 z m -0.2823438,19.3139064 -0.088773,6.245196 c 0.8303464,0.245457 1.48007933,0.215648 2.20486685,0.335046 l 0.0935938,-1.929305 z m -0.318125,16.340271 -0.1121875,4.351916 c -0.014233,0.552102 0.4044736,1.01824 0.95625,1.041875 0.55177923,0.02363 1.0182389,-0.404473 1.041875,-0.95625 l 0.16583577,-4.590785 C -0.67220388,30.620981 -1.5620897,30.569929 -2.15125,30.608539 Z"
   sodipodi:nodetypes="cssccccssccccccccssccc" /><path
   d="m -9.0319582,-1.2615582 c -0.5007056,0.2330483 -0.7176858,0.82787445 -0.4846372,1.32858061 0.2330485,0.50070628 0.8278741,0.71768598 1.3285807,0.48463728 L -7.2814057,0.12968801 8.7535203,34.580829 c 0.233049,0.500706 0.827874,0.717686 1.3285807,0.484637 0.500706,-0.233049 0.717686,-0.827874 0.484637,-1.328581 L -5.4681877,-0.71425545 -4.5615787,-1.1362271 c 0.5007065,-0.2330487 0.7176857,-0.8278743 0.4846372,-1.3285803 -0.2330485,-0.500707 -0.8278742,-0.717686 -1.3285807,-0.484638 z"
   id="path2615-8"
   style="color:#000000;fill:#fe9b01;fill-opacity:1;fill-rule:evenodd;stroke-linecap:round;stroke-linejoin:round;stroke-miterlimit:4.1;-inkscape-stroke:none"
   sodipodi:nodetypes="ssscssscssss" />















</g></g></svg>
