<?xml version="1.0" encoding="UTF-8" standalone="no"?>
<!-- Created with Inkscape (http://www.inkscape.org/) -->

<svg
   width="65.445213mm"
   height="73.376366mm"
   viewBox="0 0 65.445213 73.376366"
   version="1.1"
   id="svg1"
   inkscape:version="1.4.2 (ebf0e940, 2025-05-08)"
   sodipodi:docname="hotel.svg"
   xmlns:inkscape="http://www.inkscape.org/namespaces/inkscape"
   xmlns:sodipodi="http://sodipodi.sourceforge.net/DTD/sodipodi-0.dtd"
   xmlns="http://www.w3.org/2000/svg"
   xmlns:svg="http://www.w3.org/2000/svg">
  <sodipodi:namedview
     id="namedview1"
     pagecolor="#ffffff"
     bordercolor="#000000"
     borderopacity="0.25"
     inkscape:showpageshadow="2"
     inkscape:pageopacity="0.0"
     inkscape:pagecheckerboard="0"
     inkscape:deskcolor="#d1d1d1"
     inkscape:document-units="mm"
     inkscape:zoom="0.23566715"
     inkscape:cx="-205.79873"
     inkscape:cy="560.112"
     inkscape:window-width="1712"
     inkscape:window-height="971"
     inkscape:window-x="0"
     inkscape:window-y="39"
     inkscape:window-maximized="1"
     inkscape:current-layer="layer1" />
  <defs
     id="defs1">
    <clipPath
       clipPathUnits="userSpaceOnUse"
       id="clipPath1282">
      <path
         d="M 0,276 H 276 V 0 H 0 Z"
         transform="translate(-205.07431,-134.17)"
         id="path1282" />
    </clipPath>
    <clipPath
       clipPathUnits="userSpaceOnUse"
       id="clipPath1280">
      <path
         d="M 0,276 H 276 V 0 H 0 Z"
         transform="translate(-127.28303,-206.04081)"
         id="path1280" />
    </clipPath>
  </defs>
  <g
     inkscape:label="Layer 1"
     inkscape:groupmode="layer"
     id="layer1"
     transform="translate(-59.795818,-108.74375)">
    <path
       id="path1279"
       d="m 0,0 c 0.206,1.027 0.309,2.12 0.309,3.277 0,1.27 -0.1,2.425 -0.299,3.465 -0.2,1.039 -0.539,1.929 -1.018,2.67 -0.48,0.741 -1.118,1.314 -1.914,1.718 -0.797,0.405 -1.793,0.607 -2.988,0.607 -1.208,0 -2.216,-0.227 -3.025,-0.682 -0.81,-0.454 -1.463,-1.061 -1.961,-1.82 -0.499,-0.76 -0.85,-1.647 -1.056,-2.661 -0.204,-1.015 -0.308,-2.089 -0.308,-3.222 0,-1.32 0.1,-2.505 0.3,-3.558 0.198,-1.052 0.534,-1.951 1.008,-2.698 0.473,-0.747 1.108,-1.317 1.905,-1.709 0.796,-0.392 1.799,-0.588 3.006,-0.588 1.207,0 2.216,0.224 3.025,0.672 0.81,0.448 1.463,1.058 1.961,1.83 C -0.557,-1.927 -0.205,-1.027 0,0"
       style="fill:#fe9b01;fill-opacity:1;fill-rule:nonzero;stroke:none"
       transform="matrix(0.35277776,0,0,-0.35277776,88.737611,121.42865)"
       clip-path="url(#clipPath1280)" />
    <path
       id="path1281"
       d="m 0,0 c 0,-4.318 -3.501,-7.819 -7.819,-7.819 h -15.538 c -4.319,0 -7.819,3.501 -7.819,7.819 v 15.538 c 0,4.319 3.5,7.819 7.819,7.819 h 15.538 c 4.318,0 7.819,-3.5 7.819,-7.819 z m 0,-51.749 c 0,-4.318 -3.501,-7.819 -7.819,-7.819 h -15.538 c -4.319,0 -7.819,3.501 -7.819,7.819 v 15.539 c 0,4.318 3.5,7.819 7.819,7.819 H -7.819 C -3.501,-28.391 0,-31.892 0,-36.21 Z M -31.239,64.065 c -0.031,-0.243 -0.078,-0.439 -0.14,-0.589 -0.062,-0.149 -0.14,-0.258 -0.234,-0.326 -0.093,-0.069 -0.196,-0.103 -0.308,-0.103 H -44.06 c -0.41,0 -0.756,0.121 -1.036,0.364 -0.28,0.243 -0.42,0.638 -0.42,1.186 v 21.065 c 0,0.548 0.14,0.943 0.42,1.186 0.28,0.243 0.626,0.364 1.036,0.364 h 12.065 c 0.112,0 0.211,-0.031 0.298,-0.093 0.087,-0.063 0.162,-0.172 0.224,-0.327 0.063,-0.156 0.109,-0.355 0.14,-0.598 0.032,-0.243 0.047,-0.551 0.047,-0.924 0,-0.349 -0.015,-0.645 -0.047,-0.887 -0.031,-0.243 -0.077,-0.439 -0.14,-0.589 -0.062,-0.149 -0.137,-0.258 -0.224,-0.326 -0.087,-0.069 -0.186,-0.103 -0.298,-0.103 h -8.628 v -5.901 h 7.302 c 0.112,0 0.214,-0.034 0.308,-0.103 0.093,-0.068 0.171,-0.175 0.233,-0.317 0.062,-0.143 0.109,-0.336 0.141,-0.58 0.03,-0.242 0.046,-0.538 0.046,-0.886 0,-0.362 -0.016,-0.661 -0.046,-0.897 -0.032,-0.237 -0.079,-0.426 -0.141,-0.569 -0.062,-0.144 -0.14,-0.246 -0.233,-0.309 -0.094,-0.062 -0.196,-0.093 -0.308,-0.093 h -7.302 v -6.816 h 8.702 c 0.112,0 0.215,-0.035 0.308,-0.103 0.094,-0.069 0.172,-0.177 0.234,-0.327 0.062,-0.149 0.109,-0.345 0.14,-0.588 0.03,-0.243 0.046,-0.545 0.046,-0.905 0,-0.362 -0.016,-0.664 -0.046,-0.906 M -50.715,84.27 c -0.031,-0.255 -0.078,-0.46 -0.14,-0.616 -0.062,-0.155 -0.14,-0.27 -0.234,-0.345 -0.093,-0.075 -0.196,-0.112 -0.308,-0.112 h -6.05 V 63.719 c 0,-0.125 -0.041,-0.237 -0.122,-0.336 -0.08,-0.1 -0.214,-0.181 -0.401,-0.243 -0.187,-0.062 -0.439,-0.112 -0.756,-0.149 -0.318,-0.038 -0.713,-0.056 -1.186,-0.056 -0.474,0 -0.868,0.018 -1.186,0.056 -0.318,0.037 -0.57,0.087 -0.756,0.149 -0.187,0.062 -0.321,0.143 -0.402,0.243 -0.081,0.099 -0.121,0.211 -0.121,0.336 v 19.478 h -6.051 c -0.125,0 -0.23,0.037 -0.318,0.112 -0.087,0.075 -0.161,0.19 -0.224,0.345 -0.062,0.156 -0.108,0.361 -0.14,0.616 -0.031,0.256 -0.046,0.564 -0.046,0.925 0,0.374 0.015,0.691 0.046,0.953 0.032,0.261 0.078,0.469 0.14,0.625 0.063,0.156 0.137,0.268 0.224,0.336 0.088,0.069 0.193,0.103 0.318,0.103 h 17.031 c 0.112,0 0.215,-0.034 0.308,-0.103 0.094,-0.068 0.172,-0.18 0.234,-0.336 0.062,-0.156 0.109,-0.364 0.14,-0.625 0.031,-0.262 0.046,-0.579 0.046,-0.953 0,-0.361 -0.015,-0.669 -0.046,-0.925 M -51.486,0 c 0,-4.318 -3.501,-7.819 -7.819,-7.819 h -15.539 c -4.318,0 -7.818,3.501 -7.818,7.819 v 15.538 c 0,4.319 3.5,7.819 7.818,7.819 h 15.539 c 4.318,0 7.819,-3.5 7.819,-7.819 z m 0,-51.749 c 0,-4.318 -3.501,-7.819 -7.819,-7.819 h -15.539 c -4.318,0 -7.818,3.501 -7.818,7.819 v 15.539 c 0,4.318 3.5,7.819 7.818,7.819 h 15.539 c 4.318,0 7.819,-3.501 7.819,-7.819 z M -88.903,63.355 c -1.4,0.492 -2.567,1.242 -3.501,2.25 -0.934,1.009 -1.634,2.291 -2.101,3.847 -0.467,1.556 -0.7,3.399 -0.7,5.528 0,1.954 0.249,3.713 0.747,5.275 0.498,1.563 1.239,2.892 2.222,3.987 0.984,1.096 2.201,1.936 3.651,2.522 1.45,0.585 3.134,0.877 5.052,0.877 1.83,0 3.445,-0.242 4.845,-0.728 1.402,-0.485 2.572,-1.232 3.511,-2.241 0.941,-1.008 1.65,-2.281 2.13,-3.819 0.478,-1.538 0.719,-3.352 0.719,-5.443 0,-2.005 -0.249,-3.798 -0.747,-5.379 -0.499,-1.581 -1.24,-2.922 -2.223,-4.024 -0.983,-1.102 -2.2,-1.942 -3.651,-2.521 -1.45,-0.579 -3.128,-0.869 -5.033,-0.869 -1.879,0 -3.52,0.246 -4.921,0.738 m -12.724,0.364 c 0,-0.125 -0.04,-0.237 -0.121,-0.336 -0.082,-0.1 -0.215,-0.181 -0.402,-0.243 -0.186,-0.062 -0.436,-0.112 -0.747,-0.149 -0.311,-0.038 -0.703,-0.056 -1.177,-0.056 -0.485,0 -0.886,0.018 -1.204,0.056 -0.317,0.037 -0.567,0.087 -0.747,0.149 -0.181,0.062 -0.311,0.143 -0.392,0.243 -0.081,0.099 -0.122,0.211 -0.122,0.336 v 9.767 h -9.038 v -9.767 c 0,-0.125 -0.037,-0.237 -0.112,-0.336 -0.075,-0.1 -0.205,-0.181 -0.392,-0.243 -0.187,-0.062 -0.437,-0.112 -0.747,-0.149 -0.311,-0.038 -0.71,-0.056 -1.196,-0.056 -0.473,0 -0.868,0.018 -1.185,0.056 -0.318,0.037 -0.57,0.087 -0.756,0.149 -0.187,0.062 -0.321,0.143 -0.402,0.243 -0.081,0.099 -0.122,0.211 -0.122,0.336 V 86.54 c 0,0.124 0.041,0.236 0.122,0.336 0.081,0.099 0.215,0.18 0.402,0.243 0.186,0.062 0.438,0.112 0.756,0.149 0.317,0.037 0.712,0.056 1.185,0.056 0.486,0 0.885,-0.019 1.196,-0.056 0.31,-0.037 0.56,-0.087 0.747,-0.149 0.187,-0.063 0.317,-0.144 0.392,-0.243 0.075,-0.1 0.112,-0.212 0.112,-0.336 v -8.871 h 9.038 v 8.871 c 0,0.124 0.041,0.236 0.122,0.336 0.081,0.099 0.211,0.18 0.392,0.243 0.18,0.062 0.43,0.112 0.747,0.149 0.318,0.037 0.719,0.056 1.204,0.056 0.474,0 0.866,-0.019 1.177,-0.056 0.311,-0.037 0.561,-0.087 0.747,-0.149 0.187,-0.063 0.32,-0.144 0.402,-0.243 0.081,-0.1 0.121,-0.212 0.121,-0.336 z M -102.972,0 c 0,-4.318 -3.501,-7.819 -7.819,-7.819 h -15.539 c -4.318,0 -7.819,3.501 -7.819,7.819 v 15.538 c 0,4.319 3.501,7.819 7.819,7.819 h 15.539 c 4.318,0 7.819,-3.5 7.819,-7.819 z m 0,-51.749 c 0,-4.318 -3.501,-7.819 -7.819,-7.819 h -15.539 c -4.318,0 -7.819,3.501 -7.819,7.819 v 15.539 c 0,4.318 3.501,7.819 7.819,7.819 h 15.539 c 4.318,0 7.819,-3.501 7.819,-7.819 z M -24.565,86.54 c 0,0.124 0.04,0.236 0.121,0.336 0.081,0.099 0.215,0.18 0.402,0.243 0.187,0.062 0.439,0.112 0.756,0.149 0.317,0.037 0.713,0.056 1.186,0.056 0.485,0 0.884,-0.019 1.195,-0.056 0.311,-0.037 0.56,-0.087 0.747,-0.149 0.187,-0.063 0.321,-0.144 0.402,-0.243 0.08,-0.1 0.121,-0.212 0.121,-0.336 V 67.099 h 7.601 c 0.124,0 0.233,-0.034 0.326,-0.102 0.094,-0.069 0.171,-0.181 0.234,-0.337 0.062,-0.155 0.109,-0.361 0.14,-0.616 0.031,-0.255 0.046,-0.569 0.046,-0.943 0,-0.373 -0.015,-0.688 -0.046,-0.943 -0.031,-0.255 -0.078,-0.467 -0.14,-0.635 -0.063,-0.168 -0.14,-0.289 -0.234,-0.364 -0.093,-0.075 -0.202,-0.112 -0.326,-0.112 h -11.075 c -0.41,0 -0.756,0.121 -1.036,0.364 -0.28,0.243 -0.42,0.638 -0.42,1.186 z M 14.904,51.85 H 0 v 41.257 c 0,8.13 -6.591,14.721 -14.722,14.721 h -104.705 c -8.13,0 -14.722,-6.591 -14.722,-14.721 V 51.85 h -14.904 c -5.953,0 -10.778,-4.826 -10.778,-10.779 V -89.39 c 0,-5.953 4.825,-10.778 10.778,-10.778 H 14.904 c 5.953,0 10.779,4.825 10.779,10.778 V 41.071 c 0,5.953 -4.826,10.779 -10.779,10.779"
       style="fill:#fe9b01;fill-opacity:1;fill-rule:nonzero;stroke:none"
       transform="matrix(0.35277776,0,0,-0.35277776,116.18064,146.78307)"
       clip-path="url(#clipPath1282)" />
  </g>
</svg>
