<?xml version="1.0" encoding="UTF-8" standalone="no"?>
<!-- Created with Inkscape (http://www.inkscape.org/) -->

<svg
   width="64.907936mm"
   height="62.769886mm"
   viewBox="0 0 64.907936 62.769886"
   version="1.1"
   id="svg1"
   inkscape:version="1.4.2 (ebf0e940, 2025-05-08)"
   sodipodi:docname="island.svg"
   xmlns:inkscape="http://www.inkscape.org/namespaces/inkscape"
   xmlns:sodipodi="http://sodipodi.sourceforge.net/DTD/sodipodi-0.dtd"
   xmlns="http://www.w3.org/2000/svg"
   xmlns:svg="http://www.w3.org/2000/svg">
  <sodipodi:namedview
     id="namedview1"
     pagecolor="#ffffff"
     bordercolor="#000000"
     borderopacity="0.25"
     inkscape:showpageshadow="2"
     inkscape:pageopacity="0.0"
     inkscape:pagecheckerboard="0"
     inkscape:deskcolor="#d1d1d1"
     inkscape:document-units="mm"
     inkscape:zoom="0.01"
     inkscape:cx="150"
     inkscape:cy="150"
     inkscape:window-width="896"
     inkscape:window-height="204"
     inkscape:window-x="0"
     inkscape:window-y="39"
     inkscape:window-maximized="0"
     inkscape:current-layer="layer1" />
  <defs
     id="defs1">
    <clipPath
       clipPathUnits="userSpaceOnUse"
       id="clipPath1548">
      <path
         d="M 0,276 H 276 V 0 H 0 Z"
         transform="translate(-229.99553,-77.320404)"
         id="path1548" />
    </clipPath>
    <clipPath
       clipPathUnits="userSpaceOnUse"
       id="clipPath1546">
      <path
         d="M 0,276 H 276 V 0 H 0 Z"
         transform="translate(-229.99553,-111.9276)"
         id="path1546" />
    </clipPath>
    <clipPath
       clipPathUnits="userSpaceOnUse"
       id="clipPath1544">
      <path
         d="M 0,276 H 276 V 0 H 0 Z"
         transform="translate(-159.16358,-197.99391)"
         id="path1544" />
    </clipPath>
  </defs>
  <g
     inkscape:label="Layer 1"
     inkscape:groupmode="layer"
     id="layer1"
     transform="translate(-60.060427,-114.03542)">
    <path
       id="path1543"
       d="m 0,0 c 1.108,2.256 2.612,4.991 2.994,5.603 3.384,5.42 8.117,10.295 13.723,13.572 3.234,1.89 7.492,0.655 9.115,-2.721 0.009,-0.02 0.018,-0.039 0.028,-0.058 3.519,-7.44 3.691,-17.215 2.25,-25.549 -0.305,-1.767 -2.123,-2.84 -3.828,-2.286 L 1.745,-4.109 C 0.037,-3.553 -0.793,-1.613 0,0 m -29.868,0.025 8.909,-3.19 26.199,-8.38 c 1.561,-0.498 2.419,-2.171 1.914,-3.729 L -5.11,-53.132 c -0.371,-1.144 -1.394,-1.943 -2.593,-2.036 -0.552,-0.043 -1.109,-0.093 -1.668,-0.148 -20.706,-1.362 -44.599,-7.854 -56.462,-16.716 6.105,-2.679 10.952,-6.84 18.955,-6.706 9.132,0.154 14.378,8.761 25.605,8.657 11.514,-0.107 15.368,-7.682 23.898,-8.657 15.42,-1.763 21.999,13.498 40.177,7.479 5.11,-1.692 8.533,-6.174 13.782,-7.372 3.958,-0.903 8.401,-0.441 12.243,0.928 -7.294,10.502 -33.148,18.888 -54.551,21.667 -3.186,0.576 -6.421,0.9 -9.662,0.986 -1.963,0.052 -3.318,1.979 -2.727,3.852 3.574,11.333 7.716,22.539 11.183,33.907 0.481,1.576 2.141,2.464 3.713,1.971 2.84,-0.891 6.823,-2.389 7.698,-2.667 7.932,-2.528 15.948,-4.881 23.793,-7.707 0.113,-0.041 0.233,-0.078 0.351,-0.105 3.86,-0.886 5.066,1.913 5.579,5.209 1.277,8.2 -1.357,19.095 -5.362,26.312 C 34.884,30.879 0.684,36.869 -20.79,17.521 -23.646,14.948 -30.195,7.392 -31.161,3.83 -31.642,2.059 -31.426,0.901 -29.868,0.025"
       style="fill:#fe9b01;fill-opacity:1;fill-rule:nonzero;stroke:none"
       transform="matrix(0.35277776,0,0,-0.35277776,99.980424,124.2559)"
       clip-path="url(#clipPath1544)" />
    <path
       id="path1545"
       d="m 0,0 v -26.917 c -1.84,-0.306 -3.57,-1.116 -5.454,-1.272 -15.597,-1.296 -21.146,14.52 -39.408,7.988 -5.277,-1.887 -9.329,-6.536 -15.134,-7.302 -16.967,-2.24 -22.808,13.751 -41.921,6.66 -4.517,-1.676 -7.884,-5.528 -12.807,-6.424 -15.091,-2.748 -19.335,8.76 -32.403,8.734 -10.846,-0.022 -15.613,-8.22 -23.876,-9.512 -4.283,-0.669 -8.894,-0.127 -12.988,1.128 V 0 c 3.742,-1.408 7.09,-2.195 11.143,-1.841 7.593,0.663 11.514,5.931 18.488,7.788 18.316,4.879 22.653,-8.036 36.65,-7.8 9.132,0.154 14.378,8.761 25.605,8.656 11.514,-0.107 15.368,-7.682 23.898,-8.657 15.42,-1.762 21.999,13.498 40.177,7.479 5.11,-1.692 8.533,-6.173 13.782,-7.371 C -9.579,-2.811 -4.234,-1.983 0,0"
       style="fill:#fe9b01;fill-opacity:1;fill-rule:nonzero;stroke:none"
       transform="matrix(0.35277776,0,0,-0.35277776,124.96836,154.61818)"
       clip-path="url(#clipPath1546)" />
    <path
       id="path1547"
       d="m 0,0 v -25.635 c 0,-0.26 -4.164,-1.766 -4.864,-1.868 -13.624,-1.971 -18.53,7.538 -30.051,8.299 -12.354,0.816 -16.871,-7.691 -27.565,-8.374 -14.842,-0.948 -19.213,12.13 -36.747,7.249 -6.119,-1.703 -10.105,-6.5 -17.138,-7.221 -14.237,-1.459 -18.584,9.492 -32.611,8.243 -10.671,-0.95 -20.643,-12.732 -31.639,-7.759 -0.636,0.287 -3.376,2.789 -3.376,3.033 V 0 c 5.228,-1.556 9.498,-2.334 14.888,-1.105 8.013,1.828 11.318,7.417 21.272,7.892 12.415,0.593 16.239,-7.738 26.422,-8.628 14.921,-1.304 20.195,13.215 38.888,6.826 4.002,-1.368 7.514,-4.511 11.503,-5.804 15.885,-5.147 21.209,7.937 35.436,7.863 10.352,-0.053 15.157,-7.788 23.9,-8.787 C -7.498,-2.221 -3.821,-1.779 0,0"
       style="fill:#fe9b01;fill-opacity:1;fill-rule:nonzero;stroke:none"
       transform="matrix(0.35277776,0,0,-0.35277776,124.96836,166.82683)"
       clip-path="url(#clipPath1548)" />
  </g>
</svg>
