<?xml version="1.0" encoding="UTF-8" standalone="no"?>
<!-- Created with Inkscape (http://www.inkscape.org/) -->

<svg
   width="54.030102mm"
   height="73.564636mm"
   viewBox="0 0 54.030102 73.564636"
   version="1.1"
   id="svg1"
   inkscape:version="1.4.2 (ebf0e940, 2025-05-08)"
   sodipodi:docname="luggage.svg"
   xmlns:inkscape="http://www.inkscape.org/namespaces/inkscape"
   xmlns:sodipodi="http://sodipodi.sourceforge.net/DTD/sodipodi-0.dtd"
   xmlns="http://www.w3.org/2000/svg"
   xmlns:svg="http://www.w3.org/2000/svg">
  <sodipodi:namedview
     id="namedview1"
     pagecolor="#ffffff"
     bordercolor="#000000"
     borderopacity="0.25"
     inkscape:showpageshadow="2"
     inkscape:pageopacity="0.0"
     inkscape:pagecheckerboard="0"
     inkscape:deskcolor="#d1d1d1"
     inkscape:document-units="mm"
     inkscape:zoom="0.4175246"
     inkscape:cx="3.5926027"
     inkscape:cy="368.84054"
     inkscape:window-width="1712"
     inkscape:window-height="971"
     inkscape:window-x="0"
     inkscape:window-y="39"
     inkscape:window-maximized="1"
     inkscape:current-layer="layer1" />
  <defs
     id="defs1">
    <clipPath
       clipPathUnits="userSpaceOnUse"
       id="clipPath254">
      <path
         d="M 0,276 H 276 V 0 H 0 Z"
         transform="translate(-156.4369,-65.059404)"
         id="path254" />
    </clipPath>
  </defs>
  <g
     inkscape:label="Layer 1"
     inkscape:groupmode="layer"
     id="layer1"
     transform="translate(-65.616667,-108.74375)">
    <path
       id="path253"
       d="M 0,0 C -9.155,2.226 -14.772,11.452 -12.546,20.606 -10.32,29.761 -1.094,35.378 8.06,33.152 17.215,30.926 22.832,21.701 20.606,12.546 18.38,3.391 9.155,-2.226 0,0 m -22.655,48.794 -2.185,20.101 c -0.246,2.262 1.389,4.296 3.652,4.542 l 37.268,4.05 c 2.263,0.246 4.296,-1.389 4.542,-3.651 l 2.185,-20.101 c 0.246,-2.263 -1.389,-4.297 -3.652,-4.542 l -37.268,-4.051 c -2.263,-0.246 -4.297,1.389 -4.542,3.652 m -4.98,-19.996 -7.659,-12.365 c -0.379,-0.612 -1.183,-0.801 -1.796,-0.421 l -21.211,13.139 c -0.612,0.38 -0.801,1.184 -0.422,1.796 l 7.66,12.364 c 0.379,0.612 1.183,0.801 1.795,0.422 l 21.211,-13.14 c 0.613,-0.379 0.801,-1.183 0.422,-1.795 m 11.022,130.558 c 0.951,3.911 4.907,6.319 8.818,5.368 l 25.92,-6.302 c 3.911,-0.951 6.319,-4.906 5.368,-8.817 l -4.303,-17.701 -40.106,9.751 z m 60.519,-33.461 -13.077,3.179 4.304,17.701 c 2.511,10.329 -3.849,20.775 -14.178,23.287 l -25.921,6.301 c -10.329,2.512 -20.775,-3.848 -23.286,-14.177 l -4.304,-17.701 -13.077,3.179 c -9.751,2.371 -19.577,-3.612 -21.948,-13.363 L -94.85,22.142 c -2.059,-8.467 2.183,-16.987 9.718,-20.637 l -0.154,-0.634 c -1.52,-6.252 2.316,-12.552 8.567,-14.072 v 0 c 6.252,-1.52 12.552,2.316 14.072,8.568 l 0.057,0.232 51.745,-12.58 -0.056,-0.233 c -1.52,-6.252 2.316,-12.552 8.567,-14.072 6.252,-1.52 12.552,2.316 14.072,8.568 l 0.154,0.633 c 8.37,-0.216 16.05,5.406 18.108,13.872 l 27.269,112.159 c 2.371,9.751 -3.612,19.578 -13.363,21.949"
       style="fill:#fe9b01;fill-opacity:1;fill-rule:nonzero;stroke:none"
       transform="matrix(0.35277776,0,0,-0.35277776,99.260579,171.1541)"
       clip-path="url(#clipPath254)" />
  </g>
</svg>
