<?xml version="1.0" encoding="UTF-8" standalone="no"?>
<!-- Created with Inkscape (http://www.inkscape.org/) -->

<svg
   width="73.376991mm"
   height="73.380142mm"
   viewBox="0 0 73.376991 73.380142"
   version="1.1"
   id="svg1"
   inkscape:version="1.4.2 (ebf0e940, 2025-05-08)"
   sodipodi:docname="map.svg"
   xmlns:inkscape="http://www.inkscape.org/namespaces/inkscape"
   xmlns:sodipodi="http://sodipodi.sourceforge.net/DTD/sodipodi-0.dtd"
   xmlns="http://www.w3.org/2000/svg"
   xmlns:svg="http://www.w3.org/2000/svg">
  <sodipodi:namedview
     id="namedview1"
     pagecolor="#ffffff"
     bordercolor="#000000"
     borderopacity="0.25"
     inkscape:showpageshadow="2"
     inkscape:pageopacity="0.0"
     inkscape:pagecheckerboard="0"
     inkscape:deskcolor="#d1d1d1"
     inkscape:document-units="mm"
     inkscape:zoom="1.2681086"
     inkscape:cx="129.72075"
     inkscape:cy="95.417695"
     inkscape:window-width="1712"
     inkscape:window-height="971"
     inkscape:window-x="0"
     inkscape:window-y="39"
     inkscape:window-maximized="1"
     inkscape:current-layer="layer1" />
  <defs
     id="defs1">
    <clipPath
       clipPathUnits="userSpaceOnUse"
       id="clipPath1028">
      <path
         d="M 0,276 H 276 V 0 H 0 Z"
         transform="translate(-129.96533,-47.915401)"
         id="path1028" />
    </clipPath>
    <clipPath
       clipPathUnits="userSpaceOnUse"
       id="clipPath1026">
      <path
         d="M 0,276 H 276 V 0 H 0 Z"
         transform="translate(-197.2731,-176.11671)"
         id="path1026" />
    </clipPath>
  </defs>
  <g
     inkscape:label="Layer 1"
     inkscape:groupmode="layer"
     id="layer1"
     transform="translate(-171.97915,-227.54167)">
    <path
       id="path1025"
       d="m 0,0 c -11.69,0 -21.166,9.476 -21.166,21.166 0,11.69 9.476,21.166 21.166,21.166 11.689,0 21.166,-9.476 21.166,-21.166 C 21.166,9.476 11.689,0 0,0 m 0,65.888 c -24.699,0 -44.722,-20.023 -44.722,-44.722 0,-24.699 36.154,-85.284 44.722,-85.284 8.57,0 44.722,60.585 44.722,85.284 0,24.699 -20.023,44.722 -44.722,44.722"
       style="fill:#fe9b01;fill-opacity:1;fill-rule:nonzero;stroke:none"
       transform="matrix(0.35277776,0,0,-0.35277776,229.57922,250.78549)"
       clip-path="url(#clipPath1026)" />
    <path
       id="path1027"
       d="m 0,0 -43.219,19.626 v 85.7 L 0,87.009 Z m 32.114,92.129 c -1.805,3.256 -4.311,7.948 -6.952,13.406 l -19.047,-8.57 -52.386,22.643 c -1.803,0.779 -3.85,0.765 -5.642,-0.039 -17.393,-7.865 -25.9,-11.828 -40.438,-18.476 -1.658,-0.758 -3.617,-2.198 -3.617,-4.597 l 0.002,-99.762 c 0,-3.881 5.271,-5.271 7.925,-3.961 L -49.443,10.22 3.251,-13.429 c 1.517,-0.675 3.246,-0.646 4.748,0.06 15.848,7.455 34.726,14.545 49.86,22.622 2.464,1.315 6.024,3.52 6.024,10.704 L 63.882,53.47 c -5.259,1.411 -14.763,7.988 -31.768,38.659"
       style="fill:#fe9b01;fill-opacity:1;fill-rule:nonzero;stroke:none"
       transform="matrix(0.35277776,0,0,-0.35277776,205.83453,296.01206)"
       clip-path="url(#clipPath1028)" />
  </g>
</svg>
