<?xml version="1.0" encoding="UTF-8" standalone="no"?>
<!-- Created with Inkscape (http://www.inkscape.org/) -->

<svg
   width="70.005211mm"
   height="53.619354mm"
   viewBox="0 0 70.005211 53.619354"
   version="1.1"
   id="svg1"
   inkscape:version="1.4.2 (ebf0e940, 2025-05-08)"
   sodipodi:docname="mountain.svg"
   xmlns:inkscape="http://www.inkscape.org/namespaces/inkscape"
   xmlns:sodipodi="http://sodipodi.sourceforge.net/DTD/sodipodi-0.dtd"
   xmlns="http://www.w3.org/2000/svg"
   xmlns:svg="http://www.w3.org/2000/svg">
  <sodipodi:namedview
     id="namedview1"
     pagecolor="#ffffff"
     bordercolor="#000000"
     borderopacity="0.25"
     inkscape:showpageshadow="2"
     inkscape:pageopacity="0.0"
     inkscape:pagecheckerboard="0"
     inkscape:deskcolor="#d1d1d1"
     inkscape:document-units="mm"
     inkscape:zoom="0.94519343"
     inkscape:cx="190.9662"
     inkscape:cy="149.17581"
     inkscape:window-width="1712"
     inkscape:window-height="971"
     inkscape:window-x="0"
     inkscape:window-y="39"
     inkscape:window-maximized="1"
     inkscape:current-layer="layer1" />
  <defs
     id="defs1">
    <clipPath
       clipPathUnits="userSpaceOnUse"
       id="clipPath776">
      <path
         d="M 0,276 H 276 V 0 H 0 Z"
         transform="translate(-171.41858,-146.8753)"
         id="path776" />
    </clipPath>
  </defs>
  <g
     inkscape:label="Layer 1"
     inkscape:groupmode="layer"
     id="layer1"
     transform="translate(-57.679164,-118.79792)">
    <path
       id="path775"
       clip-path="url(#clipPath776)"
       style="fill:#fe9b01;fill-opacity:1;fill-rule:nonzero;stroke:none"
       d="m -34.22424,67.117868 c -1.21575,-0.02328 -2.472113,-0.202062 -3.766113,-0.539062 -3.995,-1.041 -8.901059,-8.115403 -11.310059,-11.462403 -28.328,-39.362 -53.122228,-82.630862 -81.303228,-122.255862 -4.997,-7.403 -0.30025,-17.300934 8.71875,-17.731934 H 54.920294 c 8.933,0.52 13.647738,9.733445 9.156738,17.481445 -28.869,38.692 -53.091643,82.034632 -81.181643,120.994632 -1.997,2.77 -4.942781,7.438981 -7.300781,9.604981 -2.8845,2.649 -6.171598,3.978047 -9.818848,3.908203 z m 0.424805,-15.351563 c 0.09518,0.0013 0.197082,-0.01009 0.309082,-0.03809 2.185,-0.549 23.5350122,-32.306235 26.1870122,-36.615235 1.357,-2.205 8.8417111,-13.4987932 7.30371111251,-15.11279321875 L -27.935666,9.6769488 c -2.807,-0.284 -11.326031,-15.6353363 -13.957031,-16.4443363 -0.9,-0.276 -3.466285,-0.4095625 -4.217285,0.023437 -1.762,1.014 -5.967165,11.5471878 -8.868165,12.1171878 -2.339,0.459 -9.918391,-5.08009 -12.650391,-5.76709 -1.227,-0.308 -1.257402,-0.32164842 -2.087402,0.73535158 8.652,12.36700012 16.124727,25.57308212 24.969727,37.80908212 2.433,3.366 6.786852,9.94374 9.547852,12.53174 0.440125,0.412999 0.732654,1.074852 1.398926,1.083984 z m -45.333466,-73.092243 5.495424,-13.266157 c -1.3143,-3.806783 -1.082217,-7.615953 -2.557467,-11.364258 -1.27065,-2.908808 -2.645044,7.701542 -4.058794,5.041427 l -17.916379,-16.984842 c 1.4634,2.50761 11.524584,14.244823 12.825759,17.045466 1.47495,3.749092 5.574782,15.537734 6.211457,19.528364 z m 93.923631,-1.280719 20.692668,-21.641782 c 4.3158,-4.074765 -15.707781,8.76842 -11.067831,5.07023 l -6.832758,-5.191062 c -4.85415,3.939908 1.981971,17.726159 -2.792079,21.762614 z"
       transform="matrix(0.35277776,0,0,-0.35277776,104.47128,142.47653)"
       sodipodi:nodetypes="sccccccccsscccccccccccscccccccccccc" />
  </g>
</svg>
