<?xml version="1.0" encoding="UTF-8" standalone="no"?>
<!-- Created with Inkscape (http://www.inkscape.org/) -->

<svg
   width="59.253613mm"
   height="73.376572mm"
   viewBox="0 0 59.253613 73.376572"
   version="1.1"
   id="svg1"
   inkscape:version="1.4.2 (ebf0e940, 2025-05-08)"
   sodipodi:docname="museum.svg"
   xmlns:inkscape="http://www.inkscape.org/namespaces/inkscape"
   xmlns:sodipodi="http://sodipodi.sourceforge.net/DTD/sodipodi-0.dtd"
   xmlns="http://www.w3.org/2000/svg"
   xmlns:svg="http://www.w3.org/2000/svg">
  <sodipodi:namedview
     id="namedview1"
     pagecolor="#ffffff"
     bordercolor="#000000"
     borderopacity="0.25"
     inkscape:showpageshadow="2"
     inkscape:pageopacity="0.0"
     inkscape:pagecheckerboard="0"
     inkscape:deskcolor="#d1d1d1"
     inkscape:document-units="mm"
     inkscape:zoom="0.01"
     inkscape:cx="150"
     inkscape:cy="150"
     inkscape:window-width="896"
     inkscape:window-height="204"
     inkscape:window-x="0"
     inkscape:window-y="39"
     inkscape:window-maximized="0"
     inkscape:current-layer="layer1" />
  <defs
     id="defs1">
    <clipPath
       clipPathUnits="userSpaceOnUse"
       id="clipPath1419">
      <path
         d="M 0,276 H 276 V 0 H 0 Z"
         id="path1419" />
    </clipPath>
    <clipPath
       clipPathUnits="userSpaceOnUse"
       id="clipPath1417">
      <path
         d="M 0,276 H 276 V 0 H 0 Z"
         id="path1417" />
    </clipPath>
    <clipPath
       clipPathUnits="userSpaceOnUse"
       id="clipPath1415">
      <path
         d="M 0,276 H 276 V 0 H 0 Z"
         id="path1415" />
    </clipPath>
    <clipPath
       clipPathUnits="userSpaceOnUse"
       id="clipPath1413">
      <path
         d="M 0,276 H 276 V 0 H 0 Z"
         transform="translate(-205.29331,-51.525804)"
         id="path1413" />
    </clipPath>
    <clipPath
       clipPathUnits="userSpaceOnUse"
       id="clipPath1411">
      <path
         d="M 0,276 H 276 V 0 H 0 Z"
         transform="translate(-85.181102,-161.03151)"
         id="path1411" />
    </clipPath>
    <clipPath
       clipPathUnits="userSpaceOnUse"
       id="clipPath1409">
      <path
         d="M 0,276 H 276 V 0 H 0 Z"
         transform="translate(-190.8189,-105.0751)"
         id="path1409" />
    </clipPath>
    <clipPath
       clipPathUnits="userSpaceOnUse"
       id="clipPath1407">
      <path
         d="M 0,276 H 276 V 0 H 0 Z"
         transform="translate(-211.41458,-181.7913)"
         id="path1407" />
    </clipPath>
  </defs>
  <g
     inkscape:label="Layer 1"
     inkscape:groupmode="layer"
     id="layer1"
     transform="translate(-62.970804,-108.74375)">
    <path
       id="path1406"
       d="M 0,0 C -0.177,-0.18 -0.379,-0.343 -0.595,-0.494 -1.528,-1.141 -2.66,-1.439 -3.796,-1.441 l -138.492,-0.218 c -7.375,0 -8.736,7.178 -2.783,11.584 21.484,15.898 43.592,31.55 68.075,48.765 4.814,3.74 8.629,-0.254 12.593,-3.184 C -41.72,38.735 -23.541,25.518 -0.363,9.278 2.859,7.13 2.51,2.554 0,0"
       style="fill:#fe9b01;fill-opacity:1;fill-rule:nonzero;stroke:none"
       transform="matrix(0.35277776,0,0,-0.35277776,118.49671,129.98347)"
       clip-path="url(#clipPath1407)" />
    <path
       id="path1408"
       d="m 0,0 h -105.638 c -4.117,0 -7.455,-3.338 -7.455,-7.455 v -7.099 H 7.455 v 7.099 C 7.455,-3.338 4.117,0 0,0"
       style="fill:#fe9b01;fill-opacity:1;fill-rule:nonzero;stroke:none"
       transform="matrix(0.35277776,0,0,-0.35277776,111.23102,157.04724)"
       clip-path="url(#clipPath1409)" />
    <path
       id="path1410"
       d="m 0,0 h 105.638 c 4.117,0 7.455,3.338 7.455,7.455 v 7.099 H -7.455 V 7.455 C -7.455,3.338 -4.117,0 0,0"
       style="fill:#fe9b01;fill-opacity:1;fill-rule:nonzero;stroke:none"
       transform="matrix(0.35277776,0,0,-0.35277776,73.964349,137.30707)"
       clip-path="url(#clipPath1411)" />
    <path
       id="path1412"
       d="m 0,0 c 0,-0.105 -0.029,-0.199 -0.086,-0.283 -0.058,-0.084 -0.163,-0.152 -0.315,-0.205 -0.153,-0.052 -0.354,-0.094 -0.606,-0.126 -0.252,-0.031 -0.572,-0.047 -0.96,-0.047 -0.378,0 -0.692,0.016 -0.944,0.047 -0.252,0.032 -0.451,0.074 -0.598,0.126 -0.147,0.053 -0.252,0.121 -0.314,0.205 C -3.887,-0.199 -3.918,-0.105 -3.918,0 V 16.569 H -3.949 L -9.85,0.016 c -0.042,-0.137 -0.11,-0.249 -0.205,-0.338 -0.094,-0.09 -0.223,-0.16 -0.385,-0.213 -0.163,-0.052 -0.37,-0.086 -0.621,-0.102 -0.253,-0.016 -0.557,-0.024 -0.913,-0.024 -0.357,0 -0.661,0.014 -0.913,0.04 -0.251,0.026 -0.459,0.068 -0.621,0.125 -0.163,0.058 -0.292,0.129 -0.386,0.213 -0.095,0.084 -0.157,0.183 -0.189,0.299 l -5.696,16.553 H -19.81 V 0 c 0,-0.105 -0.029,-0.199 -0.087,-0.283 -0.057,-0.084 -0.165,-0.152 -0.322,-0.205 -0.157,-0.052 -0.36,-0.094 -0.606,-0.126 -0.247,-0.031 -0.564,-0.047 -0.952,-0.047 -0.378,0 -0.692,0.016 -0.944,0.047 -0.252,0.032 -0.454,0.074 -0.606,0.126 -0.152,0.053 -0.257,0.121 -0.314,0.205 -0.058,0.084 -0.087,0.178 -0.087,0.283 v 18.142 c 0,0.536 0.141,0.945 0.424,1.228 0.284,0.283 0.661,0.425 1.133,0.425 h 2.707 c 0.482,0 0.897,-0.04 1.243,-0.118 0.346,-0.079 0.645,-0.21 0.897,-0.394 0.252,-0.183 0.461,-0.425 0.629,-0.723 0.168,-0.3 0.315,-0.669 0.441,-1.11 l 4.406,-12.131 h 0.062 l 4.563,12.1 c 0.137,0.44 0.286,0.812 0.449,1.117 0.162,0.304 0.351,0.551 0.567,0.74 0.214,0.188 0.469,0.322 0.763,0.401 0.294,0.078 0.634,0.118 1.023,0.118 h 2.784 c 0.284,0 0.528,-0.037 0.732,-0.11 0.205,-0.074 0.372,-0.181 0.504,-0.323 0.131,-0.141 0.23,-0.315 0.299,-0.519 C -0.034,18.638 0,18.405 0,18.142 Z m -30.083,7.018 c 0,-1.249 -0.184,-2.366 -0.551,-3.352 -0.367,-0.986 -0.908,-1.82 -1.62,-2.501 -0.714,-0.682 -1.595,-1.202 -2.644,-1.558 -1.049,-0.357 -2.256,-0.535 -3.619,-0.535 -1.28,0 -2.429,0.16 -3.446,0.48 -1.018,0.32 -1.878,0.805 -2.581,1.455 -0.702,0.65 -1.24,1.461 -1.613,2.431 -0.372,0.971 -0.558,2.106 -0.558,3.407 v 12.383 c 0,0.105 0.032,0.2 0.094,0.284 0.063,0.084 0.176,0.152 0.339,0.204 0.162,0.052 0.375,0.095 0.637,0.126 0.262,0.031 0.598,0.047 1.007,0.047 0.398,0 0.729,-0.016 0.991,-0.047 0.262,-0.031 0.472,-0.074 0.63,-0.126 0.157,-0.052 0.27,-0.12 0.338,-0.204 0.068,-0.084 0.102,-0.179 0.102,-0.284 V 7.207 c 0,-0.808 0.1,-1.508 0.299,-2.101 0.2,-0.592 0.486,-1.083 0.858,-1.471 0.372,-0.388 0.818,-0.679 1.337,-0.873 0.52,-0.195 1.099,-0.291 1.739,-0.291 0.65,0 1.233,0.099 1.746,0.298 0.514,0.2 0.95,0.491 1.307,0.874 0.356,0.383 0.631,0.855 0.826,1.416 0.194,0.561 0.291,1.198 0.291,1.912 v 12.257 c 0,0.105 0.031,0.2 0.094,0.284 0.063,0.084 0.173,0.152 0.331,0.204 0.157,0.052 0.369,0.095 0.637,0.126 0.267,0.031 0.6,0.047 0.999,0.047 0.399,0 0.726,-0.016 0.983,-0.047 0.257,-0.031 0.464,-0.074 0.622,-0.126 0.157,-0.052 0.267,-0.12 0.331,-0.204 0.062,-0.084 0.094,-0.179 0.094,-0.284 z m -22.24,-6.727 c -0.026,-0.204 -0.066,-0.369 -0.118,-0.495 -0.052,-0.126 -0.118,-0.218 -0.196,-0.276 -0.079,-0.057 -0.166,-0.086 -0.26,-0.086 h -10.228 c -0.346,0 -0.637,0.102 -0.873,0.306 -0.236,0.205 -0.354,0.538 -0.354,1 v 17.749 c 0,0.461 0.118,0.794 0.354,0.999 0.236,0.205 0.527,0.307 0.873,0.307 h 10.165 c 0.095,0 0.178,-0.027 0.252,-0.079 0.073,-0.052 0.136,-0.144 0.189,-0.275 0.052,-0.131 0.091,-0.299 0.118,-0.504 0.026,-0.204 0.039,-0.464 0.039,-0.778 0,-0.294 -0.013,-0.544 -0.039,-0.748 -0.027,-0.205 -0.066,-0.37 -0.118,-0.496 -0.053,-0.126 -0.116,-0.218 -0.189,-0.275 -0.074,-0.058 -0.157,-0.087 -0.252,-0.087 h -7.27 v -4.972 h 6.153 c 0.094,0 0.181,-0.029 0.26,-0.087 0.078,-0.057 0.144,-0.147 0.196,-0.267 0.052,-0.12 0.092,-0.283 0.118,-0.488 0.026,-0.204 0.04,-0.454 0.04,-0.747 0,-0.304 -0.014,-0.556 -0.04,-0.755 -0.026,-0.2 -0.066,-0.36 -0.118,-0.48 -0.052,-0.121 -0.118,-0.207 -0.196,-0.26 -0.079,-0.053 -0.166,-0.079 -0.26,-0.079 H -60.23 V 2.675 h 7.333 c 0.094,0 0.181,-0.029 0.26,-0.086 0.078,-0.058 0.144,-0.15 0.196,-0.276 0.052,-0.126 0.092,-0.291 0.118,-0.495 0.026,-0.205 0.04,-0.459 0.04,-0.763 0,-0.305 -0.014,-0.559 -0.04,-0.764 m -17.723,2.431 c -0.399,-0.808 -0.939,-1.481 -1.621,-2.021 -0.682,-0.541 -1.479,-0.947 -2.391,-1.22 -0.913,-0.273 -1.888,-0.409 -2.927,-0.409 -0.703,0 -1.356,0.057 -1.959,0.173 -0.603,0.115 -1.136,0.254 -1.597,0.417 -0.462,0.162 -0.847,0.333 -1.157,0.511 -0.309,0.178 -0.532,0.336 -0.668,0.472 -0.137,0.137 -0.234,0.333 -0.292,0.59 -0.057,0.257 -0.086,0.627 -0.086,1.11 0,0.325 0.01,0.598 0.032,0.818 0.021,0.22 0.054,0.398 0.101,0.535 0.048,0.136 0.111,0.233 0.189,0.291 0.079,0.058 0.171,0.087 0.276,0.087 0.146,0 0.354,-0.087 0.622,-0.26 0.267,-0.173 0.611,-0.365 1.03,-0.575 0.42,-0.209 0.921,-0.401 1.502,-0.574 0.583,-0.173 1.257,-0.259 2.023,-0.259 0.503,0 0.954,0.06 1.353,0.181 0.399,0.12 0.736,0.291 1.015,0.511 0.278,0.22 0.49,0.493 0.637,0.818 0.147,0.325 0.221,0.687 0.221,1.086 0,0.461 -0.126,0.857 -0.378,1.188 -0.252,0.33 -0.58,0.624 -0.984,0.881 -0.404,0.257 -0.863,0.498 -1.377,0.724 -0.514,0.225 -1.044,0.464 -1.588,0.716 -0.547,0.252 -1.076,0.537 -1.59,0.857 -0.514,0.32 -0.973,0.703 -1.377,1.149 -0.404,0.446 -0.731,0.973 -0.984,1.582 -0.251,0.608 -0.377,1.337 -0.377,2.186 0,0.976 0.181,1.834 0.543,2.573 0.362,0.74 0.85,1.353 1.464,1.841 0.613,0.488 1.337,0.852 2.171,1.094 0.834,0.241 1.717,0.362 2.651,0.362 0.482,0 0.965,-0.037 1.448,-0.11 0.482,-0.074 0.933,-0.174 1.353,-0.299 0.419,-0.126 0.792,-0.268 1.117,-0.425 0.325,-0.158 0.54,-0.289 0.645,-0.394 0.105,-0.105 0.176,-0.194 0.213,-0.267 0.036,-0.074 0.068,-0.171 0.094,-0.291 0.026,-0.121 0.045,-0.273 0.055,-0.457 0.011,-0.183 0.016,-0.412 0.016,-0.684 0,-0.304 -0.008,-0.561 -0.024,-0.771 -0.015,-0.21 -0.041,-0.383 -0.079,-0.519 -0.036,-0.137 -0.089,-0.236 -0.157,-0.299 -0.068,-0.063 -0.159,-0.095 -0.275,-0.095 -0.116,0 -0.299,0.074 -0.551,0.221 -0.252,0.146 -0.561,0.307 -0.928,0.48 -0.368,0.172 -0.793,0.33 -1.275,0.472 -0.482,0.141 -1.013,0.212 -1.589,0.212 -0.451,0 -0.844,-0.055 -1.18,-0.165 -0.336,-0.11 -0.616,-0.263 -0.842,-0.456 -0.226,-0.195 -0.393,-0.428 -0.503,-0.701 -0.11,-0.272 -0.166,-0.561 -0.166,-0.865 0,-0.451 0.124,-0.842 0.37,-1.172 0.247,-0.331 0.577,-0.625 0.991,-0.881 0.415,-0.258 0.884,-0.499 1.409,-0.724 0.524,-0.226 1.059,-0.465 1.605,-0.716 0.545,-0.252 1.08,-0.538 1.605,-0.858 0.524,-0.32 0.991,-0.703 1.4,-1.149 0.409,-0.446 0.74,-0.97 0.991,-1.573 0.252,-0.604 0.378,-1.314 0.378,-2.132 0,-1.07 -0.2,-2.009 -0.598,-2.817 m -17.826,4.296 c 0,-1.249 -0.184,-2.366 -0.55,-3.352 -0.368,-0.986 -0.908,-1.82 -1.621,-2.501 -0.714,-0.682 -1.595,-1.202 -2.644,-1.558 -1.048,-0.357 -2.255,-0.535 -3.619,-0.535 -1.28,0 -2.428,0.16 -3.446,0.48 -1.017,0.32 -1.878,0.805 -2.58,1.455 -0.703,0.65 -1.241,1.461 -1.613,2.431 -0.372,0.971 -0.558,2.106 -0.558,3.407 v 12.383 c 0,0.105 0.031,0.2 0.094,0.284 0.063,0.084 0.175,0.152 0.338,0.204 0.163,0.052 0.375,0.095 0.638,0.126 0.261,0.031 0.597,0.047 1.006,0.047 0.399,0 0.729,-0.016 0.992,-0.047 0.262,-0.031 0.472,-0.074 0.629,-0.126 0.158,-0.052 0.27,-0.12 0.338,-0.204 0.068,-0.084 0.103,-0.179 0.103,-0.284 V 7.207 c 0,-0.808 0.1,-1.508 0.299,-2.101 0.199,-0.592 0.485,-1.083 0.857,-1.471 0.372,-0.388 0.818,-0.679 1.337,-0.873 0.52,-0.195 1.1,-0.291 1.739,-0.291 0.65,0 1.233,0.099 1.747,0.298 0.514,0.2 0.949,0.491 1.306,0.874 0.357,0.383 0.632,0.855 0.826,1.416 0.194,0.561 0.291,1.198 0.291,1.912 v 12.257 c 0,0.105 0.031,0.2 0.095,0.284 0.063,0.084 0.172,0.152 0.33,0.204 0.157,0.052 0.37,0.095 0.637,0.126 0.267,0.031 0.601,0.047 1,0.047 0.398,0 0.726,-0.016 0.983,-0.047 0.257,-0.031 0.464,-0.074 0.622,-0.126 0.157,-0.052 0.267,-0.12 0.33,-0.204 0.063,-0.084 0.094,-0.179 0.094,-0.284 z M -110.859,0 c 0,-0.105 -0.029,-0.199 -0.086,-0.283 -0.058,-0.084 -0.163,-0.152 -0.315,-0.205 -0.152,-0.052 -0.354,-0.094 -0.606,-0.126 -0.252,-0.031 -0.571,-0.047 -0.96,-0.047 -0.377,0 -0.692,0.016 -0.944,0.047 -0.251,0.032 -0.451,0.074 -0.598,0.126 -0.147,0.053 -0.251,0.121 -0.314,0.205 -0.064,0.084 -0.095,0.178 -0.095,0.283 v 16.569 h -0.031 l -5.901,-16.553 c -0.042,-0.137 -0.11,-0.249 -0.205,-0.338 -0.094,-0.09 -0.223,-0.16 -0.385,-0.213 -0.163,-0.052 -0.37,-0.086 -0.621,-0.102 -0.252,-0.016 -0.557,-0.024 -0.913,-0.024 -0.357,0 -0.661,0.014 -0.913,0.04 -0.251,0.026 -0.459,0.068 -0.621,0.125 -0.163,0.058 -0.292,0.129 -0.386,0.213 -0.094,0.084 -0.157,0.183 -0.189,0.299 l -5.696,16.553 h -0.031 V 0 c 0,-0.105 -0.029,-0.199 -0.087,-0.283 -0.057,-0.084 -0.165,-0.152 -0.322,-0.205 -0.157,-0.052 -0.359,-0.094 -0.606,-0.126 -0.246,-0.031 -0.564,-0.047 -0.952,-0.047 -0.377,0 -0.692,0.016 -0.944,0.047 -0.252,0.032 -0.454,0.074 -0.606,0.126 -0.152,0.053 -0.257,0.121 -0.314,0.205 -0.058,0.084 -0.087,0.178 -0.087,0.283 v 18.142 c 0,0.536 0.141,0.945 0.425,1.228 0.283,0.283 0.66,0.425 1.132,0.425 h 2.707 c 0.482,0 0.897,-0.04 1.243,-0.118 0.346,-0.079 0.645,-0.21 0.897,-0.394 0.252,-0.183 0.462,-0.425 0.63,-0.723 0.167,-0.3 0.314,-0.669 0.44,-1.11 l 4.406,-12.131 h 0.063 l 4.563,12.1 c 0.136,0.44 0.286,0.812 0.448,1.117 0.163,0.304 0.351,0.551 0.567,0.74 0.215,0.188 0.469,0.322 0.763,0.401 0.294,0.078 0.634,0.118 1.023,0.118 h 2.785 c 0.283,0 0.527,-0.037 0.731,-0.11 0.205,-0.074 0.372,-0.181 0.504,-0.323 0.131,-0.141 0.231,-0.315 0.299,-0.519 0.068,-0.205 0.102,-0.438 0.102,-0.701 z m 122.4,34.357 h -157.668 c -2.843,0 -5.148,-2.305 -5.148,-5.148 v -41.585 c 0,-2.843 2.305,-5.148 5.148,-5.148 H 11.541 c 2.843,0 5.147,2.305 5.147,5.148 v 41.585 c 0,2.843 -2.304,5.148 -5.147,5.148"
       style="fill:#fe9b01;fill-opacity:1;fill-rule:nonzero;stroke:none"
       transform="matrix(0.35277776,0,0,-0.35277776,116.33726,175.93824)"
       clip-path="url(#clipPath1413)" />
    <path
       id="path1414"
       d="m 148.006,110.082 h -20.011 v 45.943 h 20.011 z"
       style="fill:#fe9b01;fill-opacity:1;fill-rule:nonzero;stroke:none"
       transform="matrix(0.35277776,0,0,-0.35277776,43.91435,194.1154)"
       clip-path="url(#clipPath1415)" />
    <path
       id="path1416"
       d="m 186.184,110.082 h -20.011 v 45.943 h 20.011 z"
       style="fill:#fe9b01;fill-opacity:1;fill-rule:nonzero;stroke:none"
       transform="matrix(0.35277776,0,0,-0.35277776,43.91435,194.1154)"
       clip-path="url(#clipPath1417)" />
    <path
       id="path1418"
       d="M 109.827,110.082 H 89.816 v 45.943 h 20.011 z"
       style="fill:#fe9b01;fill-opacity:1;fill-rule:nonzero;stroke:none"
       transform="matrix(0.35277776,0,0,-0.35277776,43.91435,194.1154)"
       clip-path="url(#clipPath1419)" />
  </g>
</svg>
