<?xml version="1.0" encoding="UTF-8" standalone="no"?>
<!-- Created with Inkscape (http://www.inkscape.org/) -->

<svg
   width="73.381302mm"
   height="42.248203mm"
   viewBox="0 0 73.381302 42.248203"
   version="1.1"
   id="svg1"
   inkscape:version="1.4.2 (ebf0e940, 2025-05-08)"
   sodipodi:docname="omnibus.svg"
   xmlns:inkscape="http://www.inkscape.org/namespaces/inkscape"
   xmlns:sodipodi="http://sodipodi.sourceforge.net/DTD/sodipodi-0.dtd"
   xmlns="http://www.w3.org/2000/svg"
   xmlns:svg="http://www.w3.org/2000/svg">
  <sodipodi:namedview
     id="namedview1"
     pagecolor="#ffffff"
     bordercolor="#000000"
     borderopacity="0.25"
     inkscape:showpageshadow="2"
     inkscape:pageopacity="0.0"
     inkscape:pagecheckerboard="0"
     inkscape:deskcolor="#d1d1d1"
     inkscape:document-units="mm"
     inkscape:zoom="0.17184735"
     inkscape:cx="1364.5832"
     inkscape:cy="-378.24267"
     inkscape:window-width="1712"
     inkscape:window-height="971"
     inkscape:window-x="0"
     inkscape:window-y="39"
     inkscape:window-maximized="1"
     inkscape:current-layer="layer1" />
  <defs
     id="defs1">
    <clipPath
       clipPathUnits="userSpaceOnUse"
       id="clipPath901">
      <path
         d="M 0,276 H 276 V 0 H 0 Z"
         transform="translate(-226.19521,-134.55591)"
         id="path901" />
    </clipPath>
  </defs>
  <g
     inkscape:label="Layer 1"
     inkscape:groupmode="layer"
     id="layer1"
     transform="translate(-55.827085,-124.35417)">
    <path
       id="path900"
       d="m 0,0 -32.084,14.855 c -0.628,0.291 -1.243,0.61 -1.839,0.961 -1.4,0.823 -3.938,2.189 -3.938,3.115 v 30.911 h 22.765 C -8.153,49.842 0,41.622 0,35.704 Z m -23.441,-45.294 c -6.468,0 -11.711,5.243 -11.711,11.711 0,6.468 5.243,11.711 11.711,11.711 6.468,0 11.712,-5.243 11.712,-11.711 0,-6.468 -5.244,-11.711 -11.712,-11.711 m -28.798,94.417 v -31.87 h -34.985 v 31.87 0.719 h 0.719 33.547 0.719 z m -45.289,-31.87 h -0.24 -34.163 -0.583 v 32.589 h 0.959 33.068 0.959 z m -54.763,-62.547 c -6.468,0 -11.711,5.243 -11.711,11.711 0,6.468 5.243,11.711 11.711,11.711 6.468,0 11.711,-5.243 11.711,-11.711 0,-6.468 -5.243,-11.711 -11.711,-11.711 m -25.033,62.547 v 31.87 0.719 h 34.986 V 17.253 h -12.974 z M 15.775,47.645 c 0,10.637 -6.242,15.634 -15.997,15.634 -61.371,-0.287 -120.629,0.49 -181.925,-0.391 -6.544,0 -10.053,-4.536 -10.053,-9.911 l 0.133,-83.775 c 0,-7.244 8.304,-8.122 17.554,-8.122 2.395,-10.057 11.432,-17.515 22.221,-17.515 10.635,0 19.572,7.677 22.12,17.515 h 84.505 c 2.324,-10.154 11.368,-17.515 22.226,-17.515 10.782,0 19.813,7.47 22.216,17.515 10.094,0 17.035,0.878 17.035,9.931 z"
       style="fill:#fe9b01;fill-opacity:1;fill-rule:nonzero;stroke:none"
       transform="matrix(0.35277776,0,0,-0.35277776,123.63097,146.69336)"
       clip-path="url(#clipPath901)" />
  </g>
</svg>
