<?xml version="1.0" encoding="UTF-8" standalone="no"?>
<!-- Created with Inkscape (http://www.inkscape.org/) -->

<svg
   width="73.784447mm"
   height="73.337723mm"
   viewBox="0 0 73.784447 73.337723"
   version="1.1"
   id="svg1"
   inkscape:version="1.4.2 (ebf0e940, 2025-05-08)"
   sodipodi:docname="passport.svg"
   xmlns:inkscape="http://www.inkscape.org/namespaces/inkscape"
   xmlns:sodipodi="http://sodipodi.sourceforge.net/DTD/sodipodi-0.dtd"
   xmlns="http://www.w3.org/2000/svg"
   xmlns:svg="http://www.w3.org/2000/svg">
  <sodipodi:namedview
     id="namedview1"
     pagecolor="#ffffff"
     bordercolor="#000000"
     borderopacity="0.25"
     inkscape:showpageshadow="2"
     inkscape:pageopacity="0.0"
     inkscape:pagecheckerboard="0"
     inkscape:deskcolor="#d1d1d1"
     inkscape:document-units="mm"
     inkscape:zoom="0.12938909"
     inkscape:cx="691.7121"
     inkscape:cy="881.06346"
     inkscape:window-width="1712"
     inkscape:window-height="971"
     inkscape:window-x="0"
     inkscape:window-y="39"
     inkscape:window-maximized="1"
     inkscape:current-layer="layer1" />
  <defs
     id="defs1">
    <clipPath
       clipPathUnits="userSpaceOnUse"
       id="clipPath399">
      <path
         d="M 0,276 H 276 V 0 H 0 Z"
         transform="translate(-239.53321,-231.49191)"
         id="path399" />
    </clipPath>
    <clipPath
       clipPathUnits="userSpaceOnUse"
       id="clipPath397">
      <path
         d="M 0,276 H 276 V 0 H 0 Z"
         transform="translate(-194.7912,-199.3899)"
         id="path397" />
    </clipPath>
    <clipPath
       clipPathUnits="userSpaceOnUse"
       id="clipPath395">
      <path
         d="M 0,276 H 276 V 0 H 0 Z"
         transform="translate(-241.99921,-223.67251)"
         id="path395" />
    </clipPath>
    <clipPath
       clipPathUnits="userSpaceOnUse"
       id="clipPath393">
      <path
         d="M 0,276 H 276 V 0 H 0 Z"
         transform="translate(-74.211302,-223.67251)"
         id="path393" />
    </clipPath>
    <clipPath
       clipPathUnits="userSpaceOnUse"
       id="clipPath391">
      <path
         d="M 0,276 H 276 V 0 H 0 Z"
         transform="translate(-110.2525,-87.7096)"
         id="path391" />
    </clipPath>
    <clipPath
       clipPathUnits="userSpaceOnUse"
       id="clipPath389">
      <path
         d="M 0,276 H 276 V 0 H 0 Z"
         transform="translate(-91.2271,-147.46101)"
         id="path389" />
    </clipPath>
    <clipPath
       clipPathUnits="userSpaceOnUse"
       id="clipPath387">
      <path
         d="M 0,276 H 276 V 0 H 0 Z"
         transform="translate(-115.08471,-97.878902)"
         id="path387" />
    </clipPath>
    <clipPath
       clipPathUnits="userSpaceOnUse"
       id="clipPath385">
      <path
         d="M 0,276 H 276 V 0 H 0 Z"
         transform="translate(-82.739005,-144.88971)"
         id="path385" />
    </clipPath>
    <clipPath
       clipPathUnits="userSpaceOnUse"
       id="clipPath383">
      <path
         d="M 0,276 H 276 V 0 H 0 Z"
         transform="translate(-68.130602,-108.98241)"
         id="path383" />
    </clipPath>
    <clipPath
       clipPathUnits="userSpaceOnUse"
       id="clipPath381">
      <path
         d="M 0,276 H 276 V 0 H 0 Z"
         transform="translate(-70.604199,-103.8418)"
         id="path381" />
    </clipPath>
    <clipPath
       clipPathUnits="userSpaceOnUse"
       id="clipPath379">
      <path
         d="M 0,276 H 276 V 0 H 0 Z"
         transform="translate(-107.779,-92.850205)"
         id="path379" />
    </clipPath>
  </defs>
  <g
     inkscape:label="Layer 1"
     inkscape:groupmode="layer"
     id="layer1"
     transform="translate(36.777081,182.03333)">
    <path
       id="path378"
       d="M 0,0 C 2.382,1.146 2.925,11.574 -3.921,26.993 L -18.645,19.907 C -10.869,4.936 -2.382,-1.146 0,0"
       style="fill:#fe9b01;fill-opacity:1;fill-rule:nonzero;stroke:none"
       transform="matrix(0.35277776,0,0,-0.35277776,-10.342541,-129.42827)"
       clip-path="url(#clipPath379)" />
    <path
       id="path380"
       d="M 0,0 C 6.064,-9.965 17.482,-15.135 28.687,-13.562 23.278,-9.458 17.737,-1.926 13.389,6.442 Z"
       style="fill:#fe9b01;fill-opacity:1;fill-rule:nonzero;stroke:none"
       transform="matrix(0.35277776,0,0,-0.35277776,-23.456984,-133.30586)"
       clip-path="url(#clipPath381)" />
    <path
       id="path382"
       d="M 0,0 13.389,6.442 C 9.563,15.062 7.135,24.092 7.303,30.879 -0.917,23.105 -4.003,10.957 0,0"
       style="fill:#fe9b01;fill-opacity:1;fill-rule:nonzero;stroke:none"
       transform="matrix(0.35277776,0,0,-0.35277776,-24.329615,-135.11935)"
       clip-path="url(#clipPath383)" />
    <path
       id="path384"
       d="m 0,0 c -2.382,-1.146 -2.925,-11.573 3.921,-26.992 l 14.725,7.086 C 10.869,-4.936 2.382,1.146 0,0"
       style="fill:#fe9b01;fill-opacity:1;fill-rule:nonzero;stroke:none"
       transform="matrix(0.35277776,0,0,-0.35277776,-19.176095,-147.78665)"
       clip-path="url(#clipPath385)" />
    <path
       id="path386"
       d="M 0,0 C 8.221,7.775 11.306,19.922 7.303,30.88 L -6.086,24.437 C -2.26,15.817 0.167,6.788 0,0"
       style="fill:#fe9b01;fill-opacity:1;fill-rule:nonzero;stroke:none"
       transform="matrix(0.35277776,0,0,-0.35277776,-7.7652508,-131.20228)"
       clip-path="url(#clipPath387)" />
    <path
       id="path388"
       d="m 0,0 c 5.408,-4.105 10.95,-11.636 15.298,-20.004 l 13.389,6.442 C 22.623,-3.597 11.205,1.572 0,0"
       style="fill:#fe9b01;fill-opacity:1;fill-rule:nonzero;stroke:none"
       transform="matrix(0.35277776,0,0,-0.35277776,-16.181684,-148.69375)"
       clip-path="url(#clipPath389)" />
    <path
       id="path390"
       d="m 0,0 c -17.182,-8.267 -37.886,-1.015 -46.154,16.167 -8.267,17.182 -1.015,37.886 16.167,46.154 C -12.805,70.588 7.9,63.336 16.167,46.154 24.435,28.972 17.182,8.267 0,0 M -2.707,94.015 C -25.696,82.954 -51.551,70.513 -72.862,60.259 c -4.284,-2.062 -5.748,-5.053 -3.49,-9.745 15.539,-32.293 30.478,-63.34 45.845,-95.278 3.866,-8.033 9.365,-11.081 17.494,-7.17 19.267,9.271 37.844,18.21 62.474,30.061 7.292,3.509 2.117,12.784 -3.164,10.243 l -62.055,-29.859 -2.824,5.869 64.319,30.949 c 4.475,2.153 5.744,5.803 3.586,10.289 L 8.366,90.779 c -2.351,4.885 -5.782,5.782 -11.073,3.236"
       style="fill:#fe9b01;fill-opacity:1;fill-rule:nonzero;stroke:none"
       transform="matrix(0.35277776,0,0,-0.35277776,-9.4699453,-127.61478)"
       clip-path="url(#clipPath391)" />
    <path
       id="path392"
       d="m 0,0 c 7.985,-5.321 19.308,-10.863 20.259,-14.155 0.237,-0.821 0.271,-2.725 0.271,-3.888 V -38.24 L 0,-18.866 Z"
       style="fill:#fe9b01;fill-opacity:1;fill-rule:nonzero;stroke:none"
       transform="matrix(0.35277776,0,0,-0.35277776,-22.184479,-175.57947)"
       clip-path="url(#clipPath393)" />
    <path
       id="path394"
       d="m 0,0 c -7.985,-5.321 -19.308,-10.863 -20.259,-14.155 -0.237,-0.821 -0.271,-2.725 -0.271,-3.888 V -38.24 L 0,-18.866 Z"
       style="fill:#fe9b01;fill-opacity:1;fill-rule:nonzero;stroke:none"
       transform="matrix(0.35277776,0,0,-0.35277776,37.007363,-175.57947)"
       clip-path="url(#clipPath395)" />
    <path
       id="path396"
       d="m 0,0 h -4.795 v -5.55 c 0,-3.175 -2.573,-5.748 -5.748,-5.748 -3.174,0 -5.748,2.573 -5.748,5.748 V 0 h -57.487 c -2.45,0 -4.435,1.985 -4.435,4.435 0,2.449 1.985,4.434 4.435,4.434 H 0 C 2.449,8.869 4.435,6.884 4.435,4.435 4.435,1.985 2.449,0 0,0 m 9.981,23.327 h -93.599 c -5.173,0 -10.796,-2.814 -10.796,-7.952 v -29.276 l 4.35,2.093 c 4.185,2.015 7.862,2.525 11.239,1.562 3.644,-1.038 6.507,-3.675 8.51,-7.837 l 16.644,-34.607 h 51.164 c 10.864,0 23.127,9.336 23.127,20.708 0,14.683 0.02,29.581 0.02,46.262 0,5.631 -5.471,9.047 -10.659,9.047"
       style="fill:#fe9b01;fill-opacity:1;fill-rule:nonzero;stroke:none"
       transform="matrix(0.35277776,0,0,-0.35277776,20.35343,-167.01311)"
       clip-path="url(#clipPath397)" />
    <path
       id="path398"
       d="m 0,0 c -4.642,6.375 -12.638,10.395 -20.155,10.395 l -53.372,0.052 v 0.015 l -7.599,-0.007 -20.405,0.02 v -0.04 l -40.503,-0.04 c -7.517,0 -15.513,-4.02 -20.155,-10.395 -0.834,-1.145 -0.501,-2.761 0.717,-3.485 5.621,-3.344 8.779,-5.442 13.705,-7.652 1.633,-0.732 3.564,-0.184 4.579,1.289 0.438,0.635 0.846,1.267 1.224,1.672 2.661,2.85 5.946,4.562 9.573,5.522 1.874,0.496 3.815,0.696 5.753,0.696 l 45.684,0.004 45.402,-0.004 c 1.939,0 3.88,-0.2 5.754,-0.696 3.627,-0.96 6.912,-2.672 9.572,-5.522 0.379,-0.405 0.787,-1.037 1.225,-1.672 1.015,-1.473 2.946,-2.021 4.579,-1.289 4.926,2.21 8.083,4.308 13.705,7.652 C 0.501,-2.761 0.834,-1.145 0,0"
       style="fill:#fe9b01;fill-opacity:1;fill-rule:nonzero;stroke:none"
       transform="matrix(0.35277776,0,0,-0.35277776,36.137413,-178.33798)"
       clip-path="url(#clipPath399)" />
  </g>
</svg>
