<?xml version="1.0" encoding="UTF-8" standalone="no"?>
<!-- Created with Inkscape (http://www.inkscape.org/) -->

<svg
   width="73.377144mm"
   height="51.0406mm"
   viewBox="0 0 73.377144 51.0406"
   version="1.1"
   id="svg1"
   inkscape:version="1.4.2 (ebf0e940, 2025-05-08)"
   sodipodi:docname="plane.svg"
   xmlns:inkscape="http://www.inkscape.org/namespaces/inkscape"
   xmlns:sodipodi="http://sodipodi.sourceforge.net/DTD/sodipodi-0.dtd"
   xmlns="http://www.w3.org/2000/svg"
   xmlns:svg="http://www.w3.org/2000/svg">
  <sodipodi:namedview
     id="namedview1"
     pagecolor="#ffffff"
     bordercolor="#000000"
     borderopacity="0.25"
     inkscape:showpageshadow="2"
     inkscape:pageopacity="0.0"
     inkscape:pagecheckerboard="0"
     inkscape:deskcolor="#d1d1d1"
     inkscape:document-units="mm"
     inkscape:zoom="0.16722957"
     inkscape:cx="62.78794"
     inkscape:cy="53.818234"
     inkscape:window-width="1712"
     inkscape:window-height="971"
     inkscape:window-x="0"
     inkscape:window-y="39"
     inkscape:window-maximized="1"
     inkscape:current-layer="layer1" />
  <defs
     id="defs1">
    <clipPath
       clipPathUnits="userSpaceOnUse"
       id="clipPath129">
      <path
         d="M 0,276 H 276 V 0 H 0 Z"
         transform="translate(-227.22241,-131.0679)"
         id="path129" />
    </clipPath>
    <clipPath
       clipPathUnits="userSpaceOnUse"
       id="clipPath127">
      <path
         d="M 0,276 H 276 V 0 H 0 Z"
         transform="translate(-88.291202,-95.212105)"
         id="path127" />
    </clipPath>
    <clipPath
       clipPathUnits="userSpaceOnUse"
       id="clipPath125">
      <path
         d="M 0,276 H 276 V 0 H 0 Z"
         transform="translate(-123.9264,-134.9088)"
         id="path125" />
    </clipPath>
  </defs>
  <g
     inkscape:label="Layer 1"
     inkscape:groupmode="layer"
     id="layer1"
     transform="translate(-165.89375,-156.36875)">
    <path
       id="path124"
       d="M 0,0 C 0.503,2.391 -1.605,4.489 -4.003,4.019 -4.02,4.016 -4.036,4.012 -4.053,4.009 -20.202,0.884 -36.81,-9.377 -53.451,-3.409 c -14.433,5.175 -23.158,21.783 -29.648,35.227 -1.663,3.889 2.898,6.538 6.23,6.935 10.529,1.255 22.63,-11.129 32.511,-14.262 4.805,2.234 14.122,5.944 21.839,9.2 2.651,1.119 3.605,4.393 2.04,6.807 v 0 l -23.662,22.429 c -3.567,3.381 -2.218,9.344 2.455,10.868 2.783,0.907 5.634,1.426 7.015,1.536 3.802,0.304 7.495,-0.057 11.077,-1.342 L 20.501,49.893 C 22.884,48.59 25.705,48.33 28.284,49.185 51.364,56.837 71.421,67.537 89.39,61.86 103.165,57.508 104.566,43.841 92.395,36.1 79.584,27.952 64.554,24.752 46.348,17.49 c -1.401,-0.559 -2.59,-1.559 -3.334,-2.872 -7.822,-13.81 -13.446,-29.45 -21.758,-42.81 -4.91,-7.89 -15.401,-22.509 -24.799,-18.217 -3.377,1.543 -5.1,5.356 -4.335,8.989 z"
       style="fill:#fe9b01;fill-opacity:1;fill-rule:nonzero;stroke:none"
       transform="matrix(0.35277776,0,0,-0.35277776,197.61736,182.9796)"
       clip-path="url(#clipPath125)" />
    <path
       id="path126"
       d="m 0,0 c -1.068,0 -2.108,-0.119 -3.112,-0.335 -2.426,6.853 -8.96,11.764 -16.645,11.764 -7.684,0 -14.219,-4.911 -16.645,-11.764 C -37.406,-0.119 -38.445,0 -39.514,0 -47.675,0 -54.29,-6.616 -54.29,-14.777 c 0,-8.16 6.615,-14.776 14.776,-14.776 H 0 c 8.161,0 14.777,6.616 14.777,14.776 C 14.777,-6.616 8.161,0 0,0"
       style="fill:#fe9b01;fill-opacity:1;fill-rule:nonzero;stroke:none"
       transform="matrix(0.35277776,0,0,-0.35277776,185.04605,196.98371)"
       clip-path="url(#clipPath127)" />
    <path
       id="path128"
       d="m 0,0 c -1.068,0 -2.108,-0.119 -3.112,-0.335 -2.426,6.853 -8.96,11.764 -16.645,11.764 -7.684,0 -14.219,-4.911 -16.645,-11.764 C -37.406,-0.119 -38.445,0 -39.514,0 -47.675,0 -54.29,-6.616 -54.29,-14.777 c 0,-8.16 6.615,-14.776 14.776,-14.776 H 0 c 8.161,0 14.777,6.616 14.777,14.776 C 14.777,-6.616 8.161,0 0,0"
       style="fill:#fe9b01;fill-opacity:1;fill-rule:nonzero;stroke:none"
       transform="matrix(0.35277776,0,0,-0.35277776,234.05789,184.33458)"
       clip-path="url(#clipPath129)" />
  </g>
</svg>
