<?xml version="1.0" encoding="UTF-8" standalone="no"?>
<!-- Created with Inkscape (http://www.inkscape.org/) -->

<svg
   width="73.295555mm"
   height="52.554794mm"
   viewBox="0 0 73.295555 52.554794"
   version="1.1"
   id="svg1"
   inkscape:version="1.4.2 (ebf0e940, 2025-05-08)"
   sodipodi:docname="postcard.svg"
   xmlns:inkscape="http://www.inkscape.org/namespaces/inkscape"
   xmlns:sodipodi="http://sodipodi.sourceforge.net/DTD/sodipodi-0.dtd"
   xmlns="http://www.w3.org/2000/svg"
   xmlns:svg="http://www.w3.org/2000/svg">
  <sodipodi:namedview
     id="namedview1"
     pagecolor="#ffffff"
     bordercolor="#000000"
     borderopacity="0.25"
     inkscape:showpageshadow="2"
     inkscape:pageopacity="0.0"
     inkscape:pagecheckerboard="0"
     inkscape:deskcolor="#d1d1d1"
     inkscape:document-units="mm"
     inkscape:zoom="0.01"
     inkscape:cx="150"
     inkscape:cy="50"
     inkscape:window-width="896"
     inkscape:window-height="204"
     inkscape:window-x="0"
     inkscape:window-y="39"
     inkscape:window-maximized="0"
     inkscape:current-layer="layer1" />
  <defs
     id="defs1">
    <clipPath
       clipPathUnits="userSpaceOnUse"
       id="clipPath3213">
      <path
         d="M 0,276 H 276 V 0 H 0 Z"
         transform="translate(-211.23938,-104.61321)"
         id="path3213" />
    </clipPath>
  </defs>
  <g
     inkscape:label="Layer 1"
     inkscape:groupmode="layer"
     id="layer1"
     transform="translate(-55.827028,-119.32708)">
    <path
       id="path3212"
       d="m 0,0 -51.927,8.287 c -2.228,0.355 -3.746,2.45 -3.391,4.678 0.356,2.228 2.45,3.745 4.678,3.39 L 1.288,8.068 C 3.515,7.712 5.033,5.618 4.678,3.39 4.322,1.162 2.228,-0.356 0,0 m -3.331,-20.872 -51.927,8.287 c -2.228,0.355 -3.746,2.449 -3.39,4.677 0.355,2.228 2.45,3.746 4.677,3.391 l 51.928,-8.287 c 2.227,-0.356 3.745,-2.45 3.39,-4.678 -0.356,-2.228 -2.45,-3.746 -4.678,-3.39 m -74.108,11.281 c -0.229,-1.433 -1.575,-2.409 -3.007,-2.18 -1.433,0.229 -2.408,1.575 -2.18,3.007 l 13.586,85.129 c 0.228,1.432 1.575,2.408 3.007,2.18 1.432,-0.229 2.408,-1.575 2.18,-3.008 z m -12.108,44.046 c -0.863,-1.45 -2.737,-1.926 -4.187,-1.064 l -4.914,2.924 -2.924,-4.914 c -0.863,-1.45 -2.738,-1.926 -4.187,-1.063 -1.45,0.863 -1.926,2.737 -1.064,4.187 l 2.924,4.914 -4.914,2.924 c -1.45,0.863 -1.926,2.738 -1.063,4.187 0.863,1.45 2.737,1.926 4.187,1.064 l 4.914,-2.924 2.924,4.914 c 0.863,1.45 2.738,1.926 4.187,1.063 1.45,-0.863 1.926,-2.737 1.063,-4.187 l -2.924,-4.914 4.915,-2.924 c 1.45,-0.863 1.925,-2.738 1.063,-4.187 m -24.731,-6.28 c -0.863,-1.45 -2.738,-1.926 -4.188,-1.063 l -4.914,2.924 -2.924,-4.915 c -0.862,-1.449 -2.737,-1.925 -4.187,-1.063 -1.45,0.863 -1.926,2.738 -1.063,4.187 l 2.924,4.915 -4.914,2.924 c -1.45,0.862 -1.926,2.737 -1.063,4.187 0.862,1.449 2.737,1.925 4.187,1.063 l 4.914,-2.924 2.924,4.914 c 0.862,1.45 2.737,1.926 4.187,1.063 1.45,-0.862 1.926,-2.737 1.063,-4.187 l -2.924,-4.914 4.914,-2.924 c 1.45,-0.863 1.926,-2.737 1.064,-4.187 m -24.732,-6.28 c -0.862,-1.45 -2.737,-1.926 -4.187,-1.063 l -4.914,2.924 -2.924,-4.914 c -0.863,-1.45 -2.738,-1.926 -4.187,-1.063 -1.45,0.862 -1.926,2.737 -1.063,4.187 l 2.924,4.914 -4.915,2.924 c -1.45,0.863 -1.925,2.737 -1.063,4.187 0.863,1.45 2.737,1.926 4.187,1.063 l 4.914,-2.924 2.924,4.914 c 0.863,1.45 2.738,1.926 4.187,1.064 1.45,-0.863 1.926,-2.738 1.064,-4.188 l -2.924,-4.914 4.914,-2.924 c 1.45,-0.862 1.926,-2.737 1.063,-4.187 m -12.079,32.487 -0.036,-0.229 -0.148,0.024 c 0.061,0.069 0.12,0.139 0.184,0.205 M -17.001,70.72 14.103,65.756 9.14,34.652 -21.965,39.616 Z m 41.045,9.081 -175.289,27.974 c -4.272,0.682 -8.287,-2.228 -8.969,-6.5 l -16.81,-105.333 c -0.681,-4.272 2.229,-8.287 6.501,-8.969 L 4.766,-41.001 c 4.272,-0.682 8.287,2.228 8.969,6.5 l 16.81,105.333 c 0.682,4.272 -2.229,8.287 -6.501,8.969"
       style="fill:#fe9b01;fill-opacity:1;fill-rule:nonzero;stroke:none"
       transform="matrix(0.35277776,0,0,-0.35277776,118.31203,157.38267)"
       clip-path="url(#clipPath3213)" />
  </g>
</svg>
