<?xml version="1.0" encoding="UTF-8" standalone="no"?>
<!-- Created with Inkscape (http://www.inkscape.org/) -->

<svg
   width="188.6597mm"
   height="211.66667mm"
   viewBox="0 0 188.6597 211.66667"
   version="1.1"
   id="svg1"
   xml:space="preserve"
   inkscape:version="1.4.2 (ebf0e940, 2025-05-08)"
   sodipodi:docname="selfie.svg"
   xmlns:inkscape="http://www.inkscape.org/namespaces/inkscape"
   xmlns:sodipodi="http://sodipodi.sourceforge.net/DTD/sodipodi-0.dtd"
   xmlns="http://www.w3.org/2000/svg"
   xmlns:svg="http://www.w3.org/2000/svg"><sodipodi:namedview
     id="namedview1"
     pagecolor="#ffffff"
     bordercolor="#000000"
     borderopacity="0.25"
     inkscape:showpageshadow="2"
     inkscape:pageopacity="0.0"
     inkscape:pagecheckerboard="0"
     inkscape:deskcolor="#d1d1d1"
     inkscape:document-units="mm"
     inkscape:zoom="0.581777"
     inkscape:cx="152.12014"
     inkscape:cy="280.17608"
     inkscape:window-width="1712"
     inkscape:window-height="971"
     inkscape:window-x="0"
     inkscape:window-y="39"
     inkscape:window-maximized="1"
     inkscape:current-layer="layer1" /><defs
     id="defs1"><clipPath
       clipPathUnits="userSpaceOnUse"
       id="clipPath901"><path
         d="M 0,276 H 276 V 0 H 0 Z"
         transform="translate(-226.19521,-134.55591)"
         id="path901" /></clipPath></defs><g
     inkscape:label="Layer 1"
     inkscape:groupmode="layer"
     id="layer1"
     transform="translate(1.7256834,-52.916666)"><g
       id="g1"
       transform="matrix(0.41341146,0,0,0.41341146,-13.229064,52.916666)"
       style="fill:#fe9b01;fill-opacity:1"><path
         style="fill:#fe9b01;fill-opacity:1"
         d="m 391.871,419.696 c -2.173,2.173 -5.022,3.26 -7.87,3.26 -2.849,0 -5.697,-1.086 -7.87,-3.26 L 226.823,270.389 c -6.307,-6.306 -9.78,-14.692 -9.78,-23.612 l 0.001,-79.821 c 0,-6.147 4.984,-11.13 11.13,-11.13 6.147,0 11.13,4.984 11.13,11.13 v 79.821 c 0,2.973 1.158,5.769 3.26,7.87 l 149.307,149.307 c 4.346,4.348 4.346,11.396 0,15.742 z"
         id="path1" /><path
         style="fill:#fe9b01;fill-opacity:1"
         d="m 387.819,368.423 86.575,86.575 c 13.04,13.04 13.04,34.183 0,47.222 v 0 c -13.04,13.04 -34.183,13.04 -47.222,0 l -86.575,-86.575 c -13.04,-13.04 -13.04,-34.183 0,-47.222 v 0 c 13.041,-13.04 34.183,-13.04 47.222,0 z"
         id="path2" /><path
         id="path4"
         style="fill:#fe9b01;fill-opacity:1"
         d="m 127.99975,44.522501 c -18.442,0 -33.391249,14.948 -33.391249,33.39 V 166.9575 c 0,18.442 14.949249,33.39 33.391249,33.39 h 66.78375 66.7825 66.7825 c 18.442,0 33.39125,-14.94925 33.39125,-33.39125 V 77.912501 c 0,-18.442 -14.94925,-33.39 -33.39125,-33.39 H 261.566 194.7835 Z m 11.66625,13.04375 h 58.76125 58.76125 58.76 c 16.22667,0 29.38,12.598071 29.38,28.14 v 75.039999 c 0,15.54193 -13.15333,28.14 -29.38,28.14 h -58.76 -58.76125 v 0.001 H 139.666 c -16.22667,0 -29.38,-12.59807 -29.38,-28.14 V 85.706251 c 0,-15.541929 13.15333,-28.14 29.38,-28.14 z" /><path
         style="fill:#fe9b01;fill-opacity:1"
         d="m 261.566,44.522 v 155.826 c 0,12.295 -9.966,22.261 -22.261,22.261 h -22.261 c -12.295,0 -22.261,-9.966 -22.261,-22.261 V 44.522 c 0,-12.295 9.966,-22.261 22.261,-22.261 h 22.261 c 12.294,0 22.261,9.966 22.261,22.261 z"
         id="path6" /><path
         style="fill:#fe9b01;fill-opacity:1"
         d="m 105.74,11.13 v 11.13 c 0,6.147 -4.983,11.13 -11.13,11.13 -6.147,0 -11.13,-4.983 -11.13,-11.13 V 11.13 C 83.479,4.983 88.462,0 94.609,0 100.756,0 105.74,4.983 105.74,11.13 Z M 46.827,3.26 c -4.346,-4.345 -11.394,-4.345 -15.742,0 -4.346,4.346 -4.346,11.394 0,15.742 l 22.261,22.261 c 2.174,2.172 5.023,3.259 7.871,3.259 2.848,0 5.698,-1.087 7.87,-3.26 4.346,-4.346 4.346,-11.394 0,-15.742 z m 3.26,52.392 h -11.13 c -6.147,0 -11.13,4.983 -11.13,11.13 0,6.147 4.983,11.13 11.13,11.13 h 11.13 c 6.147,0 11.13,-4.983 11.13,-11.13 0,-6.147 -4.982,-11.13 -11.13,-11.13 z M 361.74,0 c -6.147,0 -11.13,4.983 -11.13,11.13 v 11.13 c 0,6.147 4.983,11.13 11.13,11.13 6.147,0 11.13,-4.983 11.13,-11.13 V 11.13 C 372.87,4.983 367.887,0 361.74,0 Z m 41.261,41.262 22.261,-22.261 c 4.346,-4.346 4.346,-11.394 0,-15.742 -4.346,-4.345 -11.394,-4.345 -15.742,0 L 387.259,25.52 c -4.346,4.346 -4.346,11.394 0,15.742 2.174,2.173 5.023,3.26 7.871,3.26 2.848,0 5.698,-1.088 7.871,-3.26 z m 14.391,14.39 h -11.13 c -6.147,0 -11.13,4.983 -11.13,11.13 0,6.147 4.983,11.13 11.13,11.13 h 11.13 c 6.147,0 11.13,-4.983 11.13,-11.13 0,-6.147 -4.983,-11.13 -11.13,-11.13 z"
         id="path8" /></g></g></svg>
