<?xml version="1.0" encoding="UTF-8" standalone="no"?>
<!-- Created with Inkscape (http://www.inkscape.org/) -->

<svg
   width="72.798615mm"
   height="64.911415mm"
   viewBox="0 0 72.798615 64.911415"
   version="1.1"
   id="svg1"
   inkscape:version="1.4.2 (ebf0e940, 2025-05-08)"
   sodipodi:docname="shades.svg"
   xmlns:inkscape="http://www.inkscape.org/namespaces/inkscape"
   xmlns:sodipodi="http://sodipodi.sourceforge.net/DTD/sodipodi-0.dtd"
   xmlns="http://www.w3.org/2000/svg"
   xmlns:svg="http://www.w3.org/2000/svg">
  <sodipodi:namedview
     id="namedview1"
     pagecolor="#ffffff"
     bordercolor="#000000"
     borderopacity="0.25"
     inkscape:showpageshadow="2"
     inkscape:pageopacity="0.0"
     inkscape:pagecheckerboard="0"
     inkscape:deskcolor="#d1d1d1"
     inkscape:document-units="mm"
     inkscape:zoom="0.12629293"
     inkscape:cx="98.976247"
     inkscape:cy="15.836199"
     inkscape:window-width="1712"
     inkscape:window-height="971"
     inkscape:window-x="0"
     inkscape:window-y="39"
     inkscape:window-maximized="1"
     inkscape:current-layer="layer1" />
  <defs
     id="defs1">
    <clipPath
       clipPathUnits="userSpaceOnUse"
       id="clipPath2838">
      <path
         d="M 0,276 H 276 V 0 H 0 Z"
         transform="translate(-235.51681,-138.3652)"
         id="path2838" />
    </clipPath>
    <clipPath
       clipPathUnits="userSpaceOnUse"
       id="clipPath2836">
      <path
         d="M 0,276 H 276 V 0 H 0 Z"
         transform="translate(-188.38193,-209.30001)"
         id="path2836" />
    </clipPath>
    <clipPath
       clipPathUnits="userSpaceOnUse"
       id="clipPath2834">
      <path
         d="M 0,276 H 276 V 0 H 0 Z"
         transform="translate(-209.34773,-94.448102)"
         id="path2834" />
    </clipPath>
  </defs>
  <g
     inkscape:label="Layer 1"
     inkscape:groupmode="layer"
     id="layer1"
     transform="translate(-168.8042,-441.06042)">
    <path
       id="path2833"
       d="m 0,0 c -0.273,-0.484 -2.627,-2.226 -3.354,-3.345 -2.395,-3.69 -2.236,-12.606 -3.371,-17.441 -2.872,-12.236 -10.346,-19.636 -23.032,-21.423 -22.415,-3.158 -35.778,3.653 -43.549,25.02 -1.792,4.927 -0.992,11.14 -8.16,10.506 -6.649,-0.588 -5.1,-6.984 -6.163,-11.982 -4.749,-22.337 -17.218,-29.998 -39.683,-29.779 -13.357,0.131 -21.731,6.979 -25.939,19.381 -1.998,5.891 -1.467,11.26 -5.684,16.237 -0.62,0.732 -3.723,3.22 -3.842,3.533 -0.347,0.918 -0.745,7.439 -0.658,8.671 0.294,4.154 8.58,6.544 12.086,7.606 14.368,4.351 32.491,5.835 47.309,3.576 4.72,-0.72 10.694,-3.26 15.191,-3.466 15.438,-0.709 24.992,6.651 39.237,8.97 10.424,1.696 25.99,1.322 36.449,-0.453 2.329,-0.396 8.283,-1.709 10.223,-2.696 1.001,-0.509 2.585,-1.573 2.865,-2.666 C 0.294,8.816 0.62,1.099 0,0"
       style="fill:#fe9b01;fill-opacity:1;fill-rule:nonzero;stroke:none"
       transform="matrix(0.35277776,0,0,-0.35277776,230.3734,488.88026)"
       clip-path="url(#clipPath2834)" />
    <path
       id="path2835"
       d="m 0,0 c 8.508,-9.337 12.288,-19.09 13.037,-31.137 0.108,-1.734 1.081,-5.514 -1.039,-6.198 -1.04,-0.335 -10.469,-0.765 -12.316,-0.778 -25.74,-0.177 -67.59,5.432 -92.608,11.803 -4.259,1.084 -8.477,2.783 -12.724,3.934 2.088,10.654 6.233,19.271 14.448,27.078 C -66.608,28.073 -23.029,25.272 0,0"
       style="fill:#fe9b01;fill-opacity:1;fill-rule:nonzero;stroke:none"
       transform="matrix(0.35277776,0,0,-0.35277776,222.97713,448.36306)"
       clip-path="url(#clipPath2836)" />
    <path
       id="path2837"
       d="m 0,0 c -9.151,6.704 -18.939,13.906 -28.842,20.192 -0.204,0.13 -0.558,0.351 -0.977,0.609 -3.742,-0.198 -9.908,-0.332 -11.464,-0.317 -29.914,0.297 -78.658,6.789 -107.854,13.746 -3.593,0.856 -7.166,2.037 -10.744,3.1 l -37.381,-13.155 c -2.912,-1.207 -4.801,-2.993 -2.204,-5.491 1.352,-1.302 9.852,-6.127 12.121,-7.33 46.273,-24.534 126.863,-35.027 177.416,-22.698 2.526,0.616 14.556,3.95 15.277,5.311 C 6.95,-3.012 2.008,-1.471 0,0"
       style="fill:#fe9b01;fill-opacity:1;fill-rule:nonzero;stroke:none"
       transform="matrix(0.35277776,0,0,-0.35277776,239.60527,473.38728)"
       clip-path="url(#clipPath2838)" />
  </g>
</svg>
