<?xml version="1.0" encoding="UTF-8" standalone="no"?>
<!-- Created with Inkscape (http://www.inkscape.org/) -->

<svg
   width="64.586609mm"
   height="64.911552mm"
   viewBox="0 0 64.586609 64.911552"
   version="1.1"
   id="svg1"
   inkscape:version="1.4.2 (ebf0e940, 2025-05-08)"
   sodipodi:docname="skiing.svg"
   xmlns:inkscape="http://www.inkscape.org/namespaces/inkscape"
   xmlns:sodipodi="http://sodipodi.sourceforge.net/DTD/sodipodi-0.dtd"
   xmlns="http://www.w3.org/2000/svg"
   xmlns:svg="http://www.w3.org/2000/svg">
  <sodipodi:namedview
     id="namedview1"
     pagecolor="#ffffff"
     bordercolor="#000000"
     borderopacity="0.25"
     inkscape:showpageshadow="2"
     inkscape:pageopacity="0.0"
     inkscape:pagecheckerboard="0"
     inkscape:deskcolor="#d1d1d1"
     inkscape:document-units="mm"
     inkscape:zoom="1.2108502"
     inkscape:cx="-11.149191"
     inkscape:cy="260.97366"
     inkscape:window-width="1712"
     inkscape:window-height="971"
     inkscape:window-x="0"
     inkscape:window-y="39"
     inkscape:window-maximized="1"
     inkscape:current-layer="layer1" />
  <defs
     id="defs1">
    <clipPath
       clipPathUnits="userSpaceOnUse"
       id="clipPath2582">
      <path
         d="M 0,276 H 276 V 0 H 0 Z"
         transform="translate(-187.93448,-209.2465)"
         id="path2582" />
    </clipPath>
    <clipPath
       clipPathUnits="userSpaceOnUse"
       id="clipPath2580">
      <path
         d="M 0,276 H 276 V 0 H 0 Z"
         transform="translate(-145.5522,-190.30161)"
         id="path2580" />
    </clipPath>
  </defs>
  <g
     inkscape:label="Layer 1"
     inkscape:groupmode="layer"
     id="layer1"
     transform="translate(468.5771,-1252.8022)">
    <path
       id="path2579"
       d="m 0,0 c 8.443,-5.304 16.819,-17.082 25.054,-23.334 12.233,-0.502 24.513,0.219 36.746,-0.102 1.476,-0.038 2.842,-0.622 4.32,-0.675 4.536,-0.163 17.129,2.031 17.81,-3.467 1.11,-8.965 -14.088,-3.686 -18.932,-5.349 -0.927,-0.318 -3.834,-5.037 -5.183,-6.056 -2.368,-1.787 -3.939,-1.566 -8.206,-3.034 -10.704,-2.383 -22.737,-5.357 -30.628,-3.492 -7.165,1.693 -14.57,11.219 -20.163,16.052 -0.776,0.672 -2.176,1.828 -3.242,1.559 l -22.629,-18.655 c -0.431,-0.575 3.437,-4.105 4.067,-4.697 6.279,-5.9 15.289,-11.436 19.358,-19.052 2.672,-5 2.356,-11.056 -0.5,-15.952 -7.105,-12.181 -15.325,-23.729 -22.596,-35.835 14.155,-1.512 20.649,-2.555 28.404,-3.238 13.63,-1.2 28.726,-3.038 41.851,-1.757 10.008,0.976 10.394,5.675 16.862,9.984 4.989,3.323 9.941,-2.534 8.091,-8.085 -5.676,-17.024 -24.977,-20.455 -40.512,-18.71 -30.137,3.385 -60.505,8.293 -90.673,12.37 -10.485,1.417 -21.897,1.784 -32.245,3.976 -3.557,0.753 -6.618,2.86 -6.086,6.959 0.778,5.996 8.386,4.914 12.784,4.731 9.89,-0.413 20.485,-2.861 30.594,-3.151 1.159,-0.033 2.349,-0.14 3.441,0.359 l 23.706,37.241 c 0.141,1.507 -1.172,2.364 -2.003,3.026 -15.461,12.321 -45.777,22.281 -32.656,48.088 3.38,6.65 15.953,16.101 22.241,20.859 C -28.509,-0.041 -15.917,9.998 0,0"
       style="fill:#fe9b01;fill-opacity:1;fill-rule:nonzero;stroke:none"
       transform="matrix(0.35277776,0,0,-0.35277776,-433.61951,1266.807)"
       clip-path="url(#clipPath2580)" />
    <path
       id="path2581"
       d="m 0,0 c 0,11.462 -9.292,20.754 -20.754,20.754 -11.463,0 -20.755,-9.292 -20.755,-20.754 0,-11.462 9.292,-20.754 20.755,-20.754 C -9.292,-20.754 0,-11.462 0,0"
       style="fill:#fe9b01;fill-opacity:1;fill-rule:nonzero;stroke:none"
       transform="matrix(0.35277776,0,0,-0.35277776,-418.66799,1260.1237)"
       clip-path="url(#clipPath2582)" />
  </g>
</svg>
