<?xml version="1.0" encoding="UTF-8" standalone="no"?>
<!-- Created with Inkscape (http://www.inkscape.org/) -->

<svg
   width="58.936981mm"
   height="64.913071mm"
   viewBox="0 0 58.936981 64.913071"
   version="1.1"
   id="svg1"
   inkscape:version="1.4.2 (ebf0e940, 2025-05-08)"
   sodipodi:docname="snowglobe.svg"
   xmlns:inkscape="http://www.inkscape.org/namespaces/inkscape"
   xmlns:sodipodi="http://sodipodi.sourceforge.net/DTD/sodipodi-0.dtd"
   xmlns="http://www.w3.org/2000/svg"
   xmlns:svg="http://www.w3.org/2000/svg">
  <sodipodi:namedview
     id="namedview1"
     pagecolor="#ffffff"
     bordercolor="#000000"
     borderopacity="0.25"
     inkscape:showpageshadow="2"
     inkscape:pageopacity="0.0"
     inkscape:pagecheckerboard="0"
     inkscape:deskcolor="#d1d1d1"
     inkscape:document-units="mm"
     inkscape:zoom="0.066394986"
     inkscape:cx="-7.5306892"
     inkscape:cy="15.061378"
     inkscape:window-width="1712"
     inkscape:window-height="971"
     inkscape:window-x="0"
     inkscape:window-y="39"
     inkscape:window-maximized="1"
     inkscape:current-layer="layer1" />
  <defs
     id="defs1">
    <clipPath
       clipPathUnits="userSpaceOnUse"
       id="clipPath3602">
      <path
         d="M 0,276 H 276 V 0 H 0 Z"
         transform="translate(-173.4,-104.0476)"
         id="path3602" />
    </clipPath>
    <clipPath
       clipPathUnits="userSpaceOnUse"
       id="clipPath3600">
      <path
         d="M 0,276 H 276 V 0 H 0 Z"
         transform="translate(-89.304752,-162.99441)"
         id="path3600" />
    </clipPath>
  </defs>
  <g
     inkscape:label="Layer 1"
     inkscape:groupmode="layer"
     id="layer1"
     transform="translate(-273.31464,-302.15417)">
    <path
       id="path3599"
       d="M 0,0 C -8.749,-1.702 -6.707,-15.891 3.823,-13.485 11.241,-11.791 9.114,1.773 0,0 m 109.769,-59.115 c -3.34,-1.259 -7.902,-1.41 -10.342,1.714 -10.266,15.897 -18.154,34.416 -28.387,50.177 -12.327,18.987 -31.405,18.854 -43.845,0 -10.517,-15.94 -18.449,-34.834 -29.06,-50.882 -2.808,-2.018 -6.486,-1.913 -9.682,-1.36 2.301,-3.542 12.629,-15.514 16.216,-16.175 1.812,-0.333 6.143,-0.61 8.232,-0.729 21.446,-1.219 50.257,-1.121 71.748,-0.004 1.991,0.103 8.612,0.569 9.936,1.093 2.061,0.817 4.967,4.737 7.193,5.901 z M 78.556,21.358 c -7.328,-1.691 -6.187,-15.51 3.832,-13.475 8.53,1.732 6.349,15.824 -3.832,13.475 M 22.034,36.519 C 15.982,35.135 15.733,24.988 21.507,23.197 33.994,19.323 34.821,39.443 22.034,36.519 M 42.776,66.78 c 29.441,2.263 59.523,-12.436 75.558,-37.062 22.559,-34.644 17.167,-80.151 -12.683,-108.471 1.91,-1.794 3.666,-3.896 4.669,-6.347 1.454,-3.55 5.623,-20.027 5.891,-23.734 0.162,-2.244 -0.429,-3.836 -1.549,-5.145 -1.528,-1.784 -3.832,-2.712 -6.18,-2.718 l -118.3,-0.3 c -5.052,0.304 -8.738,4.703 -8.308,9.681 0.218,2.522 5.544,22.332 6.579,24.135 1.779,3.101 3.596,3.92 3.403,5.023 -0.118,0.674 -7.77,8.337 -9.184,10.157 -40.771,52.459 -6.077,129.695 60.104,134.781"
       style="fill:#fe9b01;fill-opacity:1;fill-rule:nonzero;stroke:none"
       transform="matrix(0.35277776,0,0,-0.35277776,285.6045,325.7933)"
       clip-path="url(#clipPath3600)" />
    <path
       id="path3601"
       d="m 0,0 c -0.627,-0.541 -3.276,-0.804 -4.28,-0.883 -16.334,-1.27 -45.1,-1.32 -61.398,0 -2.622,0.212 -5.716,0.417 -5.189,3.802 5.694,12.583 13.375,24.391 20.024,36.552 4.597,2.874 12.356,-10.219 16.103,-9.866 2.633,0.248 10.058,10.257 13.202,10.264 1.212,0.002 2.128,-0.426 2.735,-1.474 C -13.569,27.904 -6.148,17.645 -1.085,7.184 -0.181,5.315 2.143,1.847 0,0"
       style="fill:#fe9b01;fill-opacity:1;fill-rule:nonzero;stroke:none"
       transform="matrix(0.35277776,0,0,-0.35277776,315.27143,346.58843)"
       clip-path="url(#clipPath3602)" />
  </g>
</svg>
