<?xml version="1.0" encoding="UTF-8" standalone="no"?>
<!-- Created with Inkscape (http://www.inkscape.org/) -->

<svg
   width="60.381622mm"
   height="73.376617mm"
   viewBox="0 0 60.381622 73.376617"
   version="1.1"
   id="svg1"
   inkscape:version="1.4.2 (ebf0e940, 2025-05-08)"
   sodipodi:docname="sunbed.svg"
   xmlns:inkscape="http://www.inkscape.org/namespaces/inkscape"
   xmlns:sodipodi="http://sodipodi.sourceforge.net/DTD/sodipodi-0.dtd"
   xmlns="http://www.w3.org/2000/svg"
   xmlns:svg="http://www.w3.org/2000/svg">
  <sodipodi:namedview
     id="namedview1"
     pagecolor="#ffffff"
     bordercolor="#000000"
     borderopacity="0.25"
     inkscape:showpageshadow="2"
     inkscape:pageopacity="0.0"
     inkscape:pagecheckerboard="0"
     inkscape:deskcolor="#d1d1d1"
     inkscape:document-units="mm"
     inkscape:zoom="0.01"
     inkscape:cx="150"
     inkscape:cy="150"
     inkscape:window-width="896"
     inkscape:window-height="204"
     inkscape:window-x="0"
     inkscape:window-y="39"
     inkscape:window-maximized="0"
     inkscape:current-layer="layer1" />
  <defs
     id="defs1">
    <clipPath
       clipPathUnits="userSpaceOnUse"
       id="clipPath1802">
      <path
         d="M 0,276 H 276 V 0 H 0 Z"
         transform="translate(-162.9558,-227.07991)"
         id="path1802" />
    </clipPath>
    <clipPath
       clipPathUnits="userSpaceOnUse"
       id="clipPath1800">
      <path
         d="M 0,276 H 276 V 0 H 0 Z"
         transform="translate(-134.12303,-231.51361)"
         id="path1800" />
    </clipPath>
    <clipPath
       clipPathUnits="userSpaceOnUse"
       id="clipPath1798">
      <path
         d="M 0,276 H 276 V 0 H 0 Z"
         transform="translate(-154.45478,-85.904905)"
         id="path1798" />
    </clipPath>
  </defs>
  <g
     inkscape:label="Layer 1"
     inkscape:groupmode="layer"
     id="layer1"
     transform="translate(-62.441638,-108.74375)">
    <path
       id="path1797"
       d="M 0,0 C 8.688,0 26.593,42.62 42.638,46.802 51.571,49.13 59.489,44.948 58.808,35.076 58.317,27.956 39.493,3.884 34.236,-3.191 30.605,-8.078 26.94,-12.961 22.72,-17.362 l 13.704,-26.049 c 3.56,-6.739 -8.009,-10.838 -11.238,-6.799 l -15.17,25.062 c -1.968,1.775 -5.45,1.464 -7.768,1.464 -24.637,0 -47.634,0.043 -73.795,0.043 l -16.046,-26.253 c -3.319,-3.367 -10.358,-2.46 -11.644,2.402 -1.604,6.065 8.662,18.543 10.906,24.57 -18.314,0 -17.442,22.75 -1.613,22.75 16.575,0 33.007,0.135 49.326,0.135 h 0.025 c 1.185,-0.001 2.205,0.836 2.436,1.999 l 14.788,74.486 c -0.315,0.916 -0.963,0.982 -1.788,1.142 -5.935,1.156 -16.315,1.507 -21.47,3.661 -6.245,2.61 -0.181,14.456 1.779,19.035 5.922,13.839 14.515,24.98 25.61,35.002 1.553,1.402 8.456,5.867 8.884,6.639 1.76,3.178 -1.709,9.81 2.609,12.911 3.627,2.605 8.086,0.986 9.24,-3.287 1.408,-5.211 -2.494,-8.923 -1.732,-12.025 C 0.286,137.4 7.669,127.39 9.372,123.944 16.123,110.281 20.949,89.491 18.78,74.329 18.489,72.294 17.645,71.455 16.206,70.947 15.079,70.548 13.858,70.495 12.678,70.689 l -24.132,3.966 -14.401,-72.71 c -0.199,-1.003 0.547,-1.946 1.569,-1.973 C -16.817,-0.226 -6.699,0 0,0"
       style="fill:#fe9b01;fill-opacity:1;fill-rule:nonzero;stroke:none"
       transform="matrix(0.35277776,0,0,-0.35277776,98.437328,163.81004)"
       clip-path="url(#clipPath1798)" />
    <path
       id="path1799"
       d="m 0,0 -12.572,-9.221 c -9.842,-9.172 -18.115,-20.23 -23.538,-32.639 -1.515,-3.467 -5.308,-17.369 -7.507,-18.358 -1.361,-0.612 -2.612,-0.442 -4.032,-0.385 -6.022,0.241 -22.437,3.204 -28.51,4.775 -8.464,2.188 -5.459,6.479 -2.573,12.24 C -64.278,-14.727 -33.112,6.184 0,0"
       style="fill:#fe9b01;fill-opacity:1;fill-rule:nonzero;stroke:none"
       transform="matrix(0.35277776,0,0,-0.35277776,91.264739,112.44253)"
       clip-path="url(#clipPath1800)" />
    <path
       id="path1801"
       d="m 0,0 c 29.613,-4.541 49.537,-26.747 57.109,-54.868 1.068,-3.963 4.275,-18.346 3.35,-21.47 -0.962,-3.248 -4.891,-2.888 -7.522,-2.652 -6.68,0.597 -20.018,2.861 -26.492,4.545 -7.369,1.917 -3.94,8.105 -4.241,14.241 -0.77,15.693 -4.14,31.363 -11.729,45.185 C 7.52,-9.639 3.647,-4.887 0,0"
       style="fill:#fe9b01;fill-opacity:1;fill-rule:nonzero;stroke:none"
       transform="matrix(0.35277776,0,0,-0.35277776,101.4363,114.00664)"
       clip-path="url(#clipPath1802)" />
  </g>
</svg>
