<?xml version="1.0" encoding="UTF-8" standalone="no"?>
<!-- Created with Inkscape (http://www.inkscape.org/) -->

<svg
   width="74.362068mm"
   height="68.518791mm"
   viewBox="0 0 74.362068 68.518791"
   version="1.1"
   id="svg1"
   inkscape:version="1.4.2 (ebf0e940, 2025-05-08)"
   sodipodi:docname="surfing.svg"
   xmlns:inkscape="http://www.inkscape.org/namespaces/inkscape"
   xmlns:sodipodi="http://sodipodi.sourceforge.net/DTD/sodipodi-0.dtd"
   xmlns="http://www.w3.org/2000/svg"
   xmlns:svg="http://www.w3.org/2000/svg">
  <sodipodi:namedview
     id="namedview1"
     pagecolor="#ffffff"
     bordercolor="#000000"
     borderopacity="0.25"
     inkscape:showpageshadow="2"
     inkscape:pageopacity="0.0"
     inkscape:pagecheckerboard="0"
     inkscape:deskcolor="#d1d1d1"
     inkscape:document-units="mm"
     inkscape:zoom="0.074855826"
     inkscape:cx="86.833589"
     inkscape:cy="133.59014"
     inkscape:window-width="1712"
     inkscape:window-height="971"
     inkscape:window-x="0"
     inkscape:window-y="39"
     inkscape:window-maximized="1"
     inkscape:current-layer="layer1" />
  <defs
     id="defs1">
    <clipPath
       clipPathUnits="userSpaceOnUse"
       id="clipPath3733">
      <path
         d="M 0,276 H 276 V 0 H 0 Z"
         transform="translate(-239.86951,-106.5016)"
         id="path3733" />
    </clipPath>
    <clipPath
       clipPathUnits="userSpaceOnUse"
       id="clipPath3731">
      <path
         d="M 0,276 H 276 V 0 H 0 Z"
         transform="translate(-147.3795,-80.004805)"
         id="path3731" />
    </clipPath>
    <clipPath
       clipPathUnits="userSpaceOnUse"
       id="clipPath3729">
      <path
         d="M 0,276 H 276 V 0 H 0 Z"
         transform="translate(-211.07251,-129.1146)"
         id="path3729" />
    </clipPath>
    <clipPath
       clipPathUnits="userSpaceOnUse"
       id="clipPath3727">
      <path
         d="M 0,276 H 276 V 0 H 0 Z"
         transform="translate(-110.5575,-192.62991)"
         id="path3727" />
    </clipPath>
  </defs>
  <g
     inkscape:label="Layer 1"
     inkscape:groupmode="layer"
     id="layer1"
     transform="translate(-160.86652,-114.3)">
    <path
       id="path3726"
       d="M 0,0 C 0,6.252 5.068,11.32 11.32,11.32 17.572,11.32 22.64,6.252 22.64,0 22.64,-6.252 17.572,-11.32 11.32,-11.32 5.068,-11.32 0,-6.252 0,0"
       style="fill:#fe9b01;fill-opacity:1;fill-rule:nonzero;stroke:none"
       transform="matrix(0.35277776,0,0,-0.35277776,188.86033,131.71466)"
       clip-path="url(#clipPath3727)" />
    <path
       id="path3728"
       d="m 0,0 c -3.084,33.424 -7.134,71.066 -12.42,104.109 -0.824,5.151 -1.075,9.676 -7.754,8.615 -1.143,-0.182 -1.926,-0.572 -2.796,-1.316 -4.712,-4.032 -13.147,-15.284 -17.049,-20.653 -9.279,-12.766 -17.735,-27.586 -23.041,-42.419 6.462,-1.36 9.846,-1.645 13.203,-5.139 3.735,-4.573 4.054,-11.595 0.008,-16.844 -0.683,-0.857 -1.346,-1.626 -1.894,-2.016 -4.638,-3.305 -10.255,-1.761 -15.585,-1.002 -1.736,0.248 -3.375,-0.872 -3.752,-2.584 -0.065,-0.297 -0.096,-0.567 -0.054,-0.795 0.357,-1.944 14.633,-8.781 16.618,-11.409 l 10.644,-25.001 c 14.054,-0.444 28.386,-0.791 42.333,0.183 C 2.694,-14.455 0.39,-4.228 0,0"
       style="fill:#fe9b01;fill-opacity:1;fill-rule:nonzero;stroke:none"
       transform="matrix(0.35277776,0,0,-0.35277776,224.31978,154.12144)"
       clip-path="url(#clipPath3729)" />
    <path
       id="path3730"
       d="M 0.18426568,-1.5328415 C 3.7820669,-5.790037 8.7636191,-12.39226 12.372748,-19.524871 16.213303,-25.970981 0.01549697,-45.290956 -13.818732,-39.688 -25.991931,-34.732586 -52.792,-16.824 -64.781,-6.766 -77.245,3.691 -98.690972,29.406642 -106.76027,50.148312 -110.73068,68.552312 -105.709,72.71 -79.365,62.504 c 9.995,-3.873 30.851173,-18.684252 39.949173,-26.409252 13.922,-11.822 19.638843,-18.514771 28.890061,-26.5619789"
       style="fill:#fe9b01;fill-opacity:1;fill-rule:nonzero;stroke:none"
       transform="matrix(0.35277776,0,0,-0.35277776,198.95444,168.4626)"
       clip-path="url(#clipPath3731)"
       sodipodi:nodetypes="cccccccc" />
    <path
       id="path3732"
       d="m 0,0 c -3.552,1.685 -14.676,-3.799 -24.308,-3.799 -20.621,0 -33.223,0.139 -52.012,0.139 -0.861,0.95 -1.536,2.054 -1.99,3.254 l -9.73,25.754 c -0.407,1.078 -1.114,2.022 -2.057,2.686 -4.785,3.369 -13.098,6.661 -16.163,10.339 -1.679,2.015 -5.885,13.688 -5.389,15.724 0.3,1.231 1.967,1.135 2.964,1.102 5.627,-0.184 29.476,-9.16 26.843,3.437 -0.735,3.517 -3.471,4.414 -6.55,5.146 -10.839,2.576 -22.177,3.601 -32.963,6.609 -1.994,0.556 -4.144,0.509 -6.014,-0.378 -2.018,-0.956 -3.589,-2.664 -4.083,-5.05 -0.753,-3.645 2.2,-25.525 3.349,-29.925 1.578,-6.041 6.421,-7.992 11.595,-10.34 2.827,-1.283 15.198,-5.033 16.257,-6.024 0.784,-0.734 7.839,-18.732 7.719,-20.025 -0.168,-1.801 -1.504,-2.242 -3.06,-2.452 -3.154,-0.425 -5.472,-0.534 -10.812,-0.479 6.038,-4.462 9.128,-8.817 15.129,-13.1 0.691,-0.494 1.382,-0.989 2.073,-1.483 21.683,0.01 43.092,0.026 64.172,0.026 9.005,0 18.777,-0.44 24.342,7.186 C 1.347,-8.864 4.111,-1.95 0,0"
       style="fill:#fe9b01;fill-opacity:1;fill-rule:nonzero;stroke:none"
       transform="matrix(0.35277776,0,0,-0.35277776,234.47873,162.09881)"
       clip-path="url(#clipPath3733)"
       sodipodi:nodetypes="csccccccccccccccccccccscc" />
  </g>
</svg>
