<?xml version="1.0" encoding="UTF-8" standalone="no"?>
<!-- Created with Inkscape (http://www.inkscape.org/) -->

<svg
   width="63.31963mm"
   height="65.061798mm"
   viewBox="0 0 63.31963 65.061798"
   version="1.1"
   id="svg1"
   xml:space="preserve"
   inkscape:version="1.4.2 (ebf0e940, 2025-05-08)"
   sodipodi:docname="tag.svg"
   xmlns:inkscape="http://www.inkscape.org/namespaces/inkscape"
   xmlns:sodipodi="http://sodipodi.sourceforge.net/DTD/sodipodi-0.dtd"
   xmlns="http://www.w3.org/2000/svg"
   xmlns:svg="http://www.w3.org/2000/svg"><sodipodi:namedview
     id="namedview1"
     pagecolor="#ffffff"
     bordercolor="#000000"
     borderopacity="0.25"
     inkscape:showpageshadow="2"
     inkscape:pageopacity="0.0"
     inkscape:pagecheckerboard="0"
     inkscape:deskcolor="#d1d1d1"
     inkscape:document-units="mm"
     inkscape:zoom="0.54087935"
     inkscape:cx="-4.6221029"
     inkscape:cy="-164.54686"
     inkscape:window-width="1712"
     inkscape:window-height="971"
     inkscape:window-x="0"
     inkscape:window-y="39"
     inkscape:window-maximized="1"
     inkscape:current-layer="layer1" /><defs
     id="defs1"><clipPath
       clipPathUnits="userSpaceOnUse"
       id="clipPath3475"><path
         d="M 0,276 H 276 V 0 H 0 Z"
         transform="translate(-208.03576,-184.49331)"
         id="path3475" /></clipPath></defs><g
     inkscape:label="Layer 1"
     inkscape:groupmode="layer"
     id="layer1"
     transform="translate(-108.74358,-161.66042)"><path
       id="path3474"
       d="m 0,0 c -5.429,-10.681 -14.115,-19.944 -23.391,-27.489 -2.702,-2.198 -14.131,-9.161 -14.663,-11.486 -1.97,-8.606 13.572,-7.557 17.267,-3.41 -1.614,-15.326 -19.998,-19.223 -27.291,-5.281 -9.607,18.367 17.457,25.552 26.181,36.93 -5.773,3.348 -12.121,5.385 -18.327,7.782 5.116,15.69 13.112,33 32.088,33.873 C 11.086,31.805 5.513,10.846 0,0 m -80.612,-48.502 -48.761,-22.018 c -2.992,-1.351 -6.513,-0.02 -7.864,2.972 -1.351,2.992 -0.021,6.513 2.971,7.864 l 48.761,22.018 c 2.993,1.351 6.514,0.02 7.865,-2.972 1.351,-2.992 0.02,-6.513 -2.972,-7.864 m 12.976,-14.293 c 1.351,-2.992 0.021,-6.513 -2.971,-7.864 l -48.761,-22.018 c -2.992,-1.351 -6.514,-0.02 -7.865,2.972 -1.351,2.992 -0.02,6.513 2.972,7.864 l 48.761,22.018 c 2.992,1.351 6.513,0.02 7.864,-2.972 M 0.928,44.392 c -28.254,6.774 -47.985,-17.944 -54.585,-42.263 -3.354,1.469 -7.297,1.402 -10.726,0.107 -30.899,-13.952 -59.704,-26.962 -87.65,-39.581 -6.798,-3.069 -10.49,-10.464 -7.53,-17.021 l 36.325,-79.631 c 1.868,-4.138 8.387,-6.073 12.617,-4.163 l 94.034,42.844 c 3.141,1.419 4.306,3.269 5.181,4.835 4.602,8.24 9.301,24.734 12.896,34.31 1.714,4.565 3.265,10.256 3.744,15.293 0.698,7.333 -1.339,10.876 -3.94,17.404 15.877,15.286 30.179,60.543 -0.366,67.866"
       style="fill:#fe9b01;fill-opacity:1;fill-rule:nonzero;stroke:none"
       transform="matrix(0.35277776,0,0,-0.35277776,165.39752,177.72174)"
       clip-path="url(#clipPath3475)" /></g></svg>
