<?xml version="1.0" encoding="UTF-8" standalone="no"?>
<!-- Created with Inkscape (http://www.inkscape.org/) -->

<svg
   width="64.803123mm"
   height="56.445499mm"
   viewBox="0 0 64.803123 56.445499"
   version="1.1"
   id="svg1"
   inkscape:version="1.4.2 (ebf0e940, 2025-05-08)"
   sodipodi:docname="taxi.svg"
   xmlns:inkscape="http://www.inkscape.org/namespaces/inkscape"
   xmlns:sodipodi="http://sodipodi.sourceforge.net/DTD/sodipodi-0.dtd"
   xmlns="http://www.w3.org/2000/svg"
   xmlns:svg="http://www.w3.org/2000/svg">
  <sodipodi:namedview
     id="namedview1"
     pagecolor="#ffffff"
     bordercolor="#000000"
     borderopacity="0.25"
     inkscape:showpageshadow="2"
     inkscape:pageopacity="0.0"
     inkscape:pagecheckerboard="0"
     inkscape:deskcolor="#d1d1d1"
     inkscape:document-units="mm"
     inkscape:zoom="0.07652286"
     inkscape:cx="1783.7807"
     inkscape:cy="914.75932"
     inkscape:window-width="1712"
     inkscape:window-height="971"
     inkscape:window-x="0"
     inkscape:window-y="39"
     inkscape:window-maximized="1"
     inkscape:current-layer="layer1" />
  <defs
     id="defs1">
    <clipPath
       clipPathUnits="userSpaceOnUse"
       id="clipPath2963">
      <path
         d="M 0,276 H 276 V 0 H 0 Z"
         transform="translate(-201.00983,-98.529602)"
         id="path2963" />
    </clipPath>
  </defs>
  <g
     inkscape:label="Layer 1"
     inkscape:groupmode="layer"
     id="layer1"
     transform="translate(-60.324929,-117.21042)">
    <path
       id="path2962"
       d="m 0,0 h -10.83 c -5.453,0 -9.874,4.421 -9.874,9.874 0,5.453 4.421,9.874 9.874,9.874 H 0 c 5.453,0 9.874,-4.421 9.874,-9.874 C 9.874,4.421 5.453,0 0,0 m -127.293,43.529 10.914,32.865 c 2.602,4.802 5.776,8.18 11.417,8.18 29.479,0 54.931,-0.002 83.962,-0.002 1.841,0 3.317,-0.66 4.678,-1.552 2.649,-1.737 4.617,-4.339 5.794,-7.279 C -6.312,65.208 -3.077,54.223 0.72,43.529 Z M -115.19,0 h -10.83 c -5.453,0 -9.874,4.421 -9.874,9.874 0,5.453 4.421,9.874 9.874,9.874 h 10.83 c 5.454,0 9.875,-4.421 9.875,-9.874 0,-5.453 -4.421,-9.874 -9.875,-9.874 M 25.143,32.738 c -2.14,4.411 -5.534,5.701 -9.061,8.085 -2.302,1.557 -6.331,14.02 -7.581,17.524 -5.85,16.395 -7.749,36.027 -28.922,38.437 -2.523,0.287 -5.085,0.276 -7.686,0.276 l -2.548,16.432 c -0.983,3.477 -4.046,5.567 -7.518,5.955 -16.206,0 -33.864,0.025 -49.639,0.025 -9.089,0 -9.644,-8.711 -11.771,-22.593 -13.41,0 -23.075,-3.865 -28.34,-16.292 -2.401,-5.666 -11.661,-37.041 -13.846,-38.812 -1.329,-1.077 -4.08,-1.721 -5.698,-2.876 -2.689,-1.921 -6.271,-7.152 -6.722,-10.424 -1.141,-8.277 -0.764,-33.794 0.704,-42.045 0.68,-3.828 5.999,-8.376 10.162,-8.376 h 7.429 v -8.711 c 0,-5.454 4.421,-9.874 9.874,-9.874 h 10.83 c 5.454,0 9.875,4.42 9.875,9.874 v 8.711 h 84.611 v -8.711 c 0,-5.454 4.421,-9.874 9.874,-9.874 H 0 c 5.453,0 9.874,4.42 9.874,9.874 v 8.711 h 6.704 c 5.556,0 9.778,4.653 11.053,10.107 1.762,11.416 2.094,35.134 -2.488,44.577"
       style="fill:#fe9b01;fill-opacity:1;fill-rule:nonzero;stroke:none"
       transform="matrix(0.35277776,0,0,-0.35277776,114.955,159.35748)"
       clip-path="url(#clipPath2963)" />
  </g>
</svg>
