<?xml version="1.0" encoding="UTF-8" standalone="no"?>
<!-- Created with Inkscape (http://www.inkscape.org/) -->

<svg
   width="61.713737mm"
   height="63.499199mm"
   viewBox="0 0 61.713737 63.499199"
   version="1.1"
   id="svg1"
   inkscape:version="1.4.2 (ebf0e940, 2025-05-08)"
   sodipodi:docname="tickets.svg"
   xmlns:inkscape="http://www.inkscape.org/namespaces/inkscape"
   xmlns:sodipodi="http://sodipodi.sourceforge.net/DTD/sodipodi-0.dtd"
   xmlns="http://www.w3.org/2000/svg"
   xmlns:svg="http://www.w3.org/2000/svg">
  <sodipodi:namedview
     id="namedview1"
     pagecolor="#ffffff"
     bordercolor="#000000"
     borderopacity="0.25"
     inkscape:showpageshadow="2"
     inkscape:pageopacity="0.0"
     inkscape:pagecheckerboard="0"
     inkscape:deskcolor="#d1d1d1"
     inkscape:document-units="mm"
     inkscape:zoom="0.2177742"
     inkscape:cx="778.32912"
     inkscape:cy="229.59561"
     inkscape:window-width="1712"
     inkscape:window-height="971"
     inkscape:window-x="0"
     inkscape:window-y="39"
     inkscape:window-maximized="1"
     inkscape:current-layer="layer1" />
  <defs
     id="defs1">
    <clipPath
       clipPathUnits="userSpaceOnUse"
       id="clipPath3989">
      <path
         d="M 0,276 H 276 V 0 H 0 Z"
         transform="translate(-213.49501,-180.582)"
         id="path3989" />
    </clipPath>
    <clipPath
       clipPathUnits="userSpaceOnUse"
       id="clipPath3987">
      <path
         d="M 0,276 H 276 V 0 H 0 Z"
         transform="translate(-106.002,-124.9108)"
         id="path3987" />
    </clipPath>
  </defs>
  <g
     inkscape:label="Layer 1"
     inkscape:groupmode="layer"
     id="layer1"
     transform="translate(-61.647897,-113.77084)">
    <path
       id="path3986"
       d="m 0,0 c -1.265,-1.245 -1.342,-4.958 -0.233,-6.472 2.228,-3.041 13.344,-7.827 14.462,-11.147 1.399,-4.156 -1.782,-11.256 -2.015,-15.935 -0.864,-17.365 16.227,4.606 20.65,5.024 4.476,0.423 13.881,-9.518 19.343,-8.571 7.036,1.219 -3.175,18.061 -2.565,21.981 0.732,4.703 15.257,11.308 14.494,16.29 C 63.087,8.024 47.262,3.108 42.534,5.239 38.415,7.095 36.515,20.268 32.225,22.117 22.695,26.224 25.579,4.467 17.9,2.675 14.572,1.899 1.758,1.73 0,0 m 97.488,44.972 c 5.505,0.251 14.371,2.031 16.292,-4.99 0.96,-3.511 1.701,-19.05 0.788,-22.175 -0.873,-2.991 -7.493,-4.647 -10.045,-6.258 -9.881,-6.236 -11.281,-20.474 -2.64,-28.478 4.364,-4.042 13.461,-4.281 15.521,-8.545 1.123,-2.325 2.359,-17.585 1.998,-20.547 -1.117,-9.167 -13.258,-6.812 -19.805,-7.361 -43.532,-3.652 -90.836,-8.135 -134.298,-9.338 -4.35,-0.121 -11.699,-1.062 -14.411,2.734 -2.142,2.999 -3.107,20.08 -1.966,23.728 1.137,3.637 6.907,4.582 9.858,6.444 12.455,7.86 10.861,26.63 -2.683,32.471 -3.502,1.511 -8.812,1.403 -10.283,6.02 -1.216,3.819 -1.896,18.951 -0.532,22.35 1.709,4.258 8.902,4.435 13.006,4.851 29.919,3.029 61.442,3.543 91.601,5.449 15.832,1.001 31.751,2.922 47.599,3.645"
       style="fill:#fe9b01;fill-opacity:1;fill-rule:nonzero;stroke:none"
       transform="matrix(0.35277776,0,0,-0.35277776,81.216711,155.07669)"
       clip-path="url(#clipPath3987)" />
    <path
       id="path3988"
       d="m 0,0 -0.264,2.703 c -0.151,1.54 -0.771,2.994 -1.782,4.165 -2.985,3.456 -7.857,10.019 -9.771,10.827 -4.322,1.824 -8.589,-1.483 -12.965,-1.956 -12.056,-1.304 -22.686,9.807 -20.089,21.896 0.783,3.643 5.303,6.102 3.618,10.08 -0.805,1.901 -12.796,13.049 -14.533,13.469 -0.018,0.005 -0.037,0.009 -0.055,0.013 -2.895,0.683 -5.932,-0.264 -8.04,-2.362 -16.899,-16.809 -34.987,-32.466 -52.027,-49.09 -3.015,-2.942 -7.899,-7.505 -11.502,-11.326 0,0 0,0 0,0 -1.279,-1.279 -3.312,-3.821 -3.386,-3.96 -2.393,-3.499 -1.352,-4.775 -1.352,-4.775 l 43.997,3.431 c 0,-0.002 -0.001,-0.003 0,-0.005 z"
       style="fill:#fe9b01;fill-opacity:1;fill-rule:nonzero;stroke:none"
       transform="matrix(0.35277776,0,0,-0.35277776,119.13785,135.43713)"
       clip-path="url(#clipPath3989)" />
  </g>
</svg>
