<?xml version="1.0" encoding="UTF-8" standalone="no"?>
<!-- Created with Inkscape (http://www.inkscape.org/) -->

<svg
   width="73.374184mm"
   height="73.379326mm"
   viewBox="0 0 73.374184 73.379326"
   version="1.1"
   id="svg1"
   inkscape:version="1.4.2 (ebf0e940, 2025-05-08)"
   sodipodi:docname="tikkihut.svg"
   xmlns:inkscape="http://www.inkscape.org/namespaces/inkscape"
   xmlns:sodipodi="http://sodipodi.sourceforge.net/DTD/sodipodi-0.dtd"
   xmlns="http://www.w3.org/2000/svg"
   xmlns:svg="http://www.w3.org/2000/svg">
  <sodipodi:namedview
     id="namedview1"
     pagecolor="#ffffff"
     bordercolor="#000000"
     borderopacity="0.25"
     inkscape:showpageshadow="2"
     inkscape:pageopacity="0.0"
     inkscape:pagecheckerboard="0"
     inkscape:deskcolor="#d1d1d1"
     inkscape:document-units="mm"
     inkscape:zoom="0.01"
     inkscape:cx="150"
     inkscape:cy="150"
     inkscape:window-width="896"
     inkscape:window-height="204"
     inkscape:window-x="0"
     inkscape:window-y="39"
     inkscape:window-maximized="0"
     inkscape:current-layer="layer1" />
  <defs
     id="defs1">
    <clipPath
       clipPathUnits="userSpaceOnUse"
       id="clipPath2056">
      <path
         d="M 0,276 H 276 V 0 H 0 Z"
         transform="translate(-133.37918,-88.8247)"
         id="path2056" />
    </clipPath>
    <clipPath
       clipPathUnits="userSpaceOnUse"
       id="clipPath2054">
      <path
         d="M 0,276 H 276 V 0 H 0 Z"
         transform="translate(-153.2502,-98.655805)"
         id="path2054" />
    </clipPath>
  </defs>
  <g
     inkscape:label="Layer 1"
     inkscape:groupmode="layer"
     id="layer1"
     transform="translate(-55.827119,-108.74375)">
    <path
       id="path2053"
       d="m 0,0 h 0.518 l 49.225,0.078 h 0.545 l 2.075,18.478 H -1.681 Z M 75.43,64.288 C 84.127,57.029 89.562,47.765 88.649,36.11 88.319,31.893 87.05,30.036 82.415,31.051 L 59.469,42.61 53.551,29.79 C 58.575,29.786 64.277,28.981 64.21,22.713 64.134,15.485 61.979,6.371 61.045,-0.967 59.078,-16.423 56.931,-31.788 54.751,-47.121 53.847,-53.48 53.103,-64.662 47.047,-64.662 H 4.025 c -1.746,0 -3.609,0.962 -4.897,2.15 -3.141,2.895 -3.451,8.009 -3.995,11.833 -2.679,18.836 -4.553,37.8 -6.716,56.774 -0.666,5.84 -1.556,11.939 -2.333,17.798 -0.396,2.981 0.96,5.704 4.148,5.704 l 51.822,0.052 8.335,17.297 c -3.258,1.387 -4.842,2.079 -6.818,2.984 -4.869,2.231 -10.516,4.737 -15.247,7.118 -3.285,1.653 -3.199,4.911 -0.395,7.029 2.622,1.98 10.523,5.456 13.528,6.378 12.524,3.844 23.864,2.27 33.973,-6.167"
       style="fill:#fe9b01;fill-opacity:1;fill-rule:nonzero;stroke:none"
       transform="matrix(0.35277776,0,0,-0.35277776,97.892745,159.31176)"
       clip-path="url(#clipPath2054)" />
    <path
       id="path2055"
       d="m 0,0 c -0.542,4.929 -1.085,9.861 -1.648,14.793 -0.456,4 -1.034,8.231 -1.594,12.322 -0.243,1.777 -0.484,3.546 -0.716,5.294 -0.613,4.62 0.646,9.109 3.456,12.316 1.821,2.079 4.171,3.499 6.807,4.198 h -65.441 v 39.742 c 0.274,0.962 6.133,5.878 5.308,9.052 2.581,-13.785 19.752,-14.631 23.104,-0.624 1.924,-13.513 21.458,-13.345 22.173,0.618 1.737,-1.877 1.667,-3.988 3.416,-6.252 6.551,-8.483 18.681,-3.708 19.689,6.248 l 1.984,-4.559 c 1.917,-3.672 3.629,-3.594 3.629,-3.859 V 49.438 l 11.865,0.012 v 38.591 c 0,0.309 3.692,3.367 4.288,4.449 0.764,1.385 0.91,3.095 1.34,4.592 l 2.788,-5.623 c 5.375,-6.908 15.806,-4.991 18.93,2.948 1.47,3.736 1.178,10.689 -0.193,14.393 -1.387,3.747 -5.93,5.677 -9.249,7.604 -21.042,12.217 -40.385,21.917 -64.087,35.165 -3.857,2.287 -6.934,2.016 -10.571,-0.096 -22.526,-13.082 -44.187,-24.675 -69.592,-38.398 -5.17,-3.204 -5.457,-11.469 -4.801,-16.938 1.084,-9.028 14.346,-12.538 19.643,-4.623 l 2.845,6.817 c -1.855,-4.145 5.222,-8.867 5.626,-10.29 V 48.923 h -18.421 c -2.427,0 -4.515,-5.123 -3.295,-7.639 2.31,-4.761 8.603,-2.477 8.603,-2.966 V 0.186 c 0,-3.438 2.788,-6.226 6.226,-6.226 H 0.669 C 0.446,-4.024 0.22,-1.998 0,0"
       style="fill:#fe9b01;fill-opacity:1;fill-rule:nonzero;stroke:none"
       transform="matrix(0.35277776,0,0,-0.35277776,90.882689,162.77995)"
       clip-path="url(#clipPath2056)" />
  </g>
</svg>
