<?xml version="1.0" encoding="UTF-8" standalone="no"?>
<!-- Created with Inkscape (http://www.inkscape.org/) -->

<svg
   width="73.432571mm"
   height="31.045414mm"
   viewBox="0 0 73.432571 31.045414"
   version="1.1"
   id="svg1"
   inkscape:version="1.4.2 (ebf0e940, 2025-05-08)"
   sodipodi:docname="train.svg"
   xmlns:inkscape="http://www.inkscape.org/namespaces/inkscape"
   xmlns:sodipodi="http://sodipodi.sourceforge.net/DTD/sodipodi-0.dtd"
   xmlns="http://www.w3.org/2000/svg"
   xmlns:svg="http://www.w3.org/2000/svg">
  <sodipodi:namedview
     id="namedview1"
     pagecolor="#ffffff"
     bordercolor="#000000"
     borderopacity="0.25"
     inkscape:showpageshadow="2"
     inkscape:pageopacity="0.0"
     inkscape:pagecheckerboard="0"
     inkscape:deskcolor="#d1d1d1"
     inkscape:document-units="mm"
     inkscape:zoom="0.01"
     inkscape:cx="150"
     inkscape:cy="50"
     inkscape:window-width="896"
     inkscape:window-height="204"
     inkscape:window-x="0"
     inkscape:window-y="39"
     inkscape:window-maximized="0"
     inkscape:current-layer="layer1" />
  <defs
     id="defs1">
    <clipPath
       clipPathUnits="userSpaceOnUse"
       id="clipPath524">
      <path
         d="M 0,276 H 276 V 0 H 0 Z"
         transform="translate(-89.895602,-102.2658)"
         id="path524" />
    </clipPath>
  </defs>
  <g
     inkscape:label="Layer 1"
     inkscape:groupmode="layer"
     id="layer1"
     transform="translate(-55.827086,-129.91042)">
    <path
       id="path523"
       d="m 0,0 c -2.442,2.121 -2.138,6.626 -5.707,6.907 -4.402,0.346 -3.049,-1.133 -4.599,-4.17 L -12.386,0 Z m 112.548,45.872 c 0.678,0 0.964,0.829 0.457,1.28 -0.005,0.004 -0.009,0.008 -0.014,0.012 -8.534,7.771 -20.78,15.793 -31.905,19.014 -5.75,1.664 -17.172,5.439 -14.638,-5.008 1.493,-6.155 11.248,-15.298 17.728,-15.298 z M -54.669,77.75 c 0.01,0.01 0.021,0.02 0.031,0.03 0.851,0.79 1.966,1.23 3.127,1.226 31.52,-0.104 72.395,1.392 103.595,0.372 37.18,-1.215 57.801,-14.068 84.164,-38.774 12.795,-11.992 17.8,-33.743 -2.51,-33.743 L 19.016,6.902 17.403,6.221 14.679,0 h 133.718 c 4.745,0 5.311,-8.267 0.083,-8.267 L -51.406,-8.04 c -5.438,0 -5.488,8.04 -0.209,8.04 h 23.633 c -1.141,2.564 -3.532,6.986 -3.532,6.986 h -20.914 c -1.961,0 -3.545,0.963 -3.545,2.877 V 45.872 H 49.313 c 1.57,0 2.381,0.961 2.566,1.231 1.659,2.43 -3.863,8.861 -6.695,8.861 H -55.515 v 19.838 c 0,0.739 0.306,1.444 0.846,1.948"
       style="fill:#fe9b01;fill-opacity:1;fill-rule:nonzero;stroke:none"
       transform="matrix(0.35277776,0,0,-0.35277776,75.573116,158.03942)"
       clip-path="url(#clipPath524)" />
  </g>
</svg>
