<?xml version="1.0" encoding="UTF-8" standalone="no"?>
<!-- Created with Inkscape (http://www.inkscape.org/) -->

<svg
   width="73.370369mm"
   height="48.350685mm"
   viewBox="0 0 73.370369 48.350685"
   version="1.1"
   id="svg1"
   inkscape:version="1.4.2 (ebf0e940, 2025-05-08)"
   sodipodi:docname="vista.svg"
   xmlns:inkscape="http://www.inkscape.org/namespaces/inkscape"
   xmlns:sodipodi="http://sodipodi.sourceforge.net/DTD/sodipodi-0.dtd"
   xmlns="http://www.w3.org/2000/svg"
   xmlns:svg="http://www.w3.org/2000/svg">
  <sodipodi:namedview
     id="namedview1"
     pagecolor="#ffffff"
     bordercolor="#000000"
     borderopacity="0.25"
     inkscape:showpageshadow="2"
     inkscape:pageopacity="0.0"
     inkscape:pagecheckerboard="0"
     inkscape:deskcolor="#d1d1d1"
     inkscape:document-units="mm"
     inkscape:zoom="0.11108869"
     inkscape:cx="-688.63895"
     inkscape:cy="-846.17074"
     inkscape:window-width="1712"
     inkscape:window-height="971"
     inkscape:window-x="0"
     inkscape:window-y="39"
     inkscape:window-maximized="1"
     inkscape:current-layer="layer1" />
  <defs
     id="defs1">
    <clipPath
       clipPathUnits="userSpaceOnUse"
       id="clipPath4630">
      <path
         d="M 0,276 H 276 V 0 H 0 Z"
         transform="translate(-212.64901,-157.9999)"
         id="path4630" />
    </clipPath>
    <clipPath
       clipPathUnits="userSpaceOnUse"
       id="clipPath4628">
      <path
         d="M 0,276 H 276 V 0 H 0 Z"
         transform="translate(-49.902001,-188.42361)"
         id="path4628" />
    </clipPath>
  </defs>
  <g
     inkscape:label="Layer 1"
     inkscape:groupmode="layer"
     id="layer1"
     transform="translate(-55.827047,-121.44375)">
    <path
       id="path4627"
       d="m 0,0 c 14.268,-3.056 43.364,-7.718 88.098,-7.718 45.281,0 73.983,4.593 88.098,7.659 v -81.06 c -14.996,5.492 -33.37,20.368 -45.604,30.357 -4.081,3.332 -8.823,8.63 -12.86,11.505 -3.094,2.203 -5.864,3.108 -9.183,0.578 -5.585,-4.256 -12.153,-12.99 -17.731,-18.235 -2.68,-2.519 -5.583,-4.841 -8.14,-7.498 l -20.64,15.301 c -3.086,1.443 -5.234,1.966 -8.396,0.359 -2.361,-1.2 -6.621,-4.955 -8.935,-6.728 C 31.036,-65.954 17.225,-78.874 0,-82.725 Z m 188.802,16.587 c -2.059,1.494 -4.717,1.91 -7.138,1.122 -0.292,-0.095 -30.012,-9.535 -93.566,-9.535 -62.328,0 -93.354,9.47 -93.647,9.562 -2.413,0.762 -5.048,0.33 -7.092,-1.166 -2.043,-1.496 -3.25,-3.878 -3.25,-6.41 v -121.167 c 0,-2.546 1.229,-4.935 3.29,-6.429 2.061,-1.495 4.72,-1.908 7.142,-1.117 0.291,0.095 29.894,9.533 93.557,9.533 63.554,0 93.274,-9.441 93.549,-9.53 0.815,-0.27 1.657,-0.402 2.494,-0.402 1.651,0 3.283,0.514 4.655,1.505 2.067,1.494 3.292,3.889 3.292,6.44 V 10.16 c 0,2.545 -1.227,4.932 -3.286,6.427"
       style="fill:#fe9b01;fill-opacity:1;fill-rule:nonzero;stroke:none"
       transform="matrix(0.35277776,0,0,-0.35277776,61.433038,127.83081)"
       clip-path="url(#clipPath4628)" />
    <path
       id="path4629"
       d="m 0,0 c 0,8.089 -6.558,14.647 -14.647,14.647 -8.089,0 -14.646,-6.558 -14.646,-14.647 0,-8.089 6.557,-14.647 14.646,-14.647 C -6.558,-14.647 0,-8.089 0,0"
       style="fill:#fe9b01;fill-opacity:1;fill-rule:nonzero;stroke:none"
       transform="matrix(0.35277776,0,0,-0.35277776,118.84656,138.56362)"
       clip-path="url(#clipPath4630)" />
  </g>
</svg>
