<?xml version="1.0" encoding="UTF-8" standalone="no"?>
<!-- Created with Inkscape (http://www.inkscape.org/) -->

<svg
   width="51.987774mm"
   height="64.913635mm"
   viewBox="0 0 51.987774 64.913635"
   version="1.1"
   id="svg1"
   inkscape:version="1.4.2 (ebf0e940, 2025-05-08)"
   sodipodi:docname="winery.svg"
   xmlns:inkscape="http://www.inkscape.org/namespaces/inkscape"
   xmlns:sodipodi="http://sodipodi.sourceforge.net/DTD/sodipodi-0.dtd"
   xmlns="http://www.w3.org/2000/svg"
   xmlns:svg="http://www.w3.org/2000/svg">
  <sodipodi:namedview
     id="namedview1"
     pagecolor="#ffffff"
     bordercolor="#000000"
     borderopacity="0.25"
     inkscape:showpageshadow="2"
     inkscape:pageopacity="0.0"
     inkscape:pagecheckerboard="0"
     inkscape:deskcolor="#d1d1d1"
     inkscape:document-units="mm"
     inkscape:zoom="0.034181847"
     inkscape:cx="482.71236"
     inkscape:cy="204.78706"
     inkscape:window-width="1712"
     inkscape:window-height="971"
     inkscape:window-x="0"
     inkscape:window-y="39"
     inkscape:window-maximized="1"
     inkscape:current-layer="layer1" />
  <defs
     id="defs1">
    <clipPath
       clipPathUnits="userSpaceOnUse"
       id="clipPath2455">
      <path
         d="M 0,276 H 276 V 0 H 0 Z"
         transform="translate(-119.3946,-111.86151)"
         id="path2455" />
    </clipPath>
    <clipPath
       clipPathUnits="userSpaceOnUse"
       id="clipPath2453">
      <path
         d="M 0,276 H 276 V 0 H 0 Z"
         transform="translate(-173.916,-69.638199)"
         id="path2453" />
    </clipPath>
    <clipPath
       clipPathUnits="userSpaceOnUse"
       id="clipPath2451">
      <path
         d="M 0,276 H 276 V 0 H 0 Z"
         transform="translate(-189.4677,-100.3156)"
         id="path2451" />
    </clipPath>
    <clipPath
       clipPathUnits="userSpaceOnUse"
       id="clipPath2449">
      <path
         d="M 0,276 H 276 V 0 H 0 Z"
         transform="translate(-158.3643,-100.3156)"
         id="path2449" />
    </clipPath>
    <clipPath
       clipPathUnits="userSpaceOnUse"
       id="clipPath2447">
      <path
         d="M 0,276 H 276 V 0 H 0 Z"
         transform="translate(-205.28228,-131.0653)"
         id="path2447" />
    </clipPath>
    <clipPath
       clipPathUnits="userSpaceOnUse"
       id="clipPath2445">
      <path
         d="M 0,276 H 276 V 0 H 0 Z"
         transform="translate(-174.1788,-131.0653)"
         id="path2445" />
    </clipPath>
    <clipPath
       clipPathUnits="userSpaceOnUse"
       id="clipPath2443">
      <path
         d="M 0,276 H 276 V 0 H 0 Z"
         transform="translate(-142.54973,-130.9207)"
         id="path2443" />
    </clipPath>
    <clipPath
       clipPathUnits="userSpaceOnUse"
       id="clipPath2441">
      <path
         d="M 0,276 H 276 V 0 H 0 Z"
         transform="translate(-176.67923,-144.2046)"
         id="path2441" />
    </clipPath>
    <clipPath
       clipPathUnits="userSpaceOnUse"
       id="clipPath2439">
      <path
         d="M 0,276 H 276 V 0 H 0 Z"
         transform="translate(-198.04403,-191.37981)"
         id="path2439" />
    </clipPath>
  </defs>
  <g
     inkscape:label="Layer 1"
     inkscape:groupmode="layer"
     id="layer1"
     transform="translate(281.51675,-37.30625)">
    <path
       id="path2438"
       d="m 0,0 c 0.685,0.063 2.423,-1.704 2.795,-2.279 3.598,-5.568 -1.897,-14.388 -1,-17.242 0.762,-2.423 16.551,-4.591 10.443,-11.112 -8.609,-9.192 -18.339,-14.068 -30.647,-8.078 -19.523,9.501 -2.166,28.03 9.822,34.681 C -7.308,-3.321 -0.885,-0.081 0,0"
       style="fill:#fe9b01;fill-opacity:1;fill-rule:nonzero;stroke:none"
       transform="matrix(0.35277776,0,0,-0.35277776,-234.34069,50.93189)"
       clip-path="url(#clipPath2439)" />
    <path
       id="path2440"
       d="m 0,0 c -7.394,0.59 -13.172,9.263 -21.028,5.534 -4.705,-2.233 -7.723,-8.983 -13.092,-3.174 0.012,1.159 11.847,9.299 12.58,11.566 l -0.009,58.818 c 0.239,4.161 6.93,5.494 8.554,1.684 0.932,-19.702 0.105,-39.648 0.421,-59.44 C -12.597,12.462 1.483,1.369 0,0"
       style="fill:#fe9b01;fill-opacity:1;fill-rule:nonzero;stroke:none"
       transform="matrix(0.35277776,0,0,-0.35277776,-241.87772,67.574253)"
       clip-path="url(#clipPath2441)" />
    <path
       id="path2442"
       d="m 0,0 c 0,7.854 -6.367,14.221 -14.221,14.221 -7.854,0 -14.221,-6.367 -14.221,-14.221 0,-7.854 6.367,-14.221 14.221,-14.221 C -6.367,-14.221 0,-7.854 0,0"
       style="fill:#fe9b01;fill-opacity:1;fill-rule:nonzero;stroke:none"
       transform="matrix(0.35277776,0,0,-0.35277776,-253.91785,72.260518)"
       clip-path="url(#clipPath2443)" />
    <path
       id="path2444"
       d="m 0,0 c 0,7.854 -6.367,14.221 -14.221,14.221 -7.854,0 -14.221,-6.367 -14.221,-14.221 0,-7.854 6.367,-14.221 14.221,-14.221 C -6.367,-14.221 0,-7.854 0,0"
       style="fill:#fe9b01;fill-opacity:1;fill-rule:nonzero;stroke:none"
       transform="matrix(0.35277776,0,0,-0.35277776,-242.75981,72.209507)"
       clip-path="url(#clipPath2445)" />
    <path
       id="path2446"
       d="m 0,0 c 0,7.854 -6.367,14.221 -14.221,14.221 -7.854,0 -14.221,-6.367 -14.221,-14.221 0,-7.854 6.367,-14.221 14.221,-14.221 C -6.367,-14.221 0,-7.854 0,0"
       style="fill:#fe9b01;fill-opacity:1;fill-rule:nonzero;stroke:none"
       transform="matrix(0.35277776,0,0,-0.35277776,-231.7872,72.209507)"
       clip-path="url(#clipPath2447)" />
    <path
       id="path2448"
       d="m 0,0 c 0,7.854 -6.367,14.221 -14.221,14.221 -7.854,0 -14.221,-6.367 -14.221,-14.221 0,-7.854 6.367,-14.221 14.221,-14.221 C -6.367,-14.221 0,-7.854 0,0"
       style="fill:#fe9b01;fill-opacity:1;fill-rule:nonzero;stroke:none"
       transform="matrix(0.35277776,0,0,-0.35277776,-248.33882,83.057317)"
       clip-path="url(#clipPath2449)" />
    <path
       id="path2450"
       d="m 0,0 c 0,7.854 -6.367,14.221 -14.221,14.221 -7.854,0 -14.221,-6.367 -14.221,-14.221 0,-7.854 6.367,-14.221 14.221,-14.221 C -6.367,-14.221 0,-7.854 0,0"
       style="fill:#fe9b01;fill-opacity:1;fill-rule:nonzero;stroke:none"
       transform="matrix(0.35277776,0,0,-0.35277776,-237.36623,83.057317)"
       clip-path="url(#clipPath2451)" />
    <path
       id="path2452"
       d="m 0,0 c 0,7.854 -6.367,14.221 -14.221,14.221 -7.854,0 -14.221,-6.367 -14.221,-14.221 0,-7.854 6.367,-14.221 14.221,-14.221 C -6.367,-14.221 0,-7.854 0,0"
       style="fill:#fe9b01;fill-opacity:1;fill-rule:nonzero;stroke:none"
       transform="matrix(0.35277776,0,0,-0.35277776,-242.85252,93.879622)"
       clip-path="url(#clipPath2453)" />
    <path
       id="path2454"
       d="m 0,0 c -3.849,1.808 -7.06,4.746 -9.207,8.388 -2.716,4.088 -3.925,8.977 -2.56,14.466 1.366,7.496 6.698,13.604 13.746,16.072 0.247,0.155 0.494,0.311 0.74,0.461 1.332,6.139 -0.941,15.065 -4.78,19.983 -3.527,4.517 -9.634,6.259 -10.89,12.215 l -0.235,42.96 c 0,2.242 -2.575,3.183 -4.353,3.385 -3.056,0.348 -16.448,0.358 -18.76,-0.667 -1.145,-0.508 -2.009,-1.404 -2.008,-2.718 l -0.206,-42.327 c -1.779,-5.95 -8.04,-8.453 -11.547,-13.133 -2.688,-3.587 -5.018,-8.114 -5.018,-12.835 l 0.242,-106.867 c 0,-3.405 2.743,-5.248 6.304,-5.248 15.514,0 32.156,0 46.758,0 4.361,0 5.52,2.797 5.52,6.082 L 3.642,-1.874 C 2.398,-1.319 1.178,-0.693 0,0"
       style="fill:#fe9b01;fill-opacity:1;fill-rule:nonzero;stroke:none"
       transform="matrix(0.35277776,0,0,-0.35277776,-262.08646,78.984179)"
       clip-path="url(#clipPath2455)" />
  </g>
</svg>
